<svg xmlns="http://www.w3.org/2000/svg" viewBox="0 0 71.16 72.51"><defs><style>.cls-1{fill:#1dd3f8;}</style></defs><title>market_sizing</title><g id="Layer_2" data-name="Layer 2"><g id="Layer_1-2" data-name="Layer 1"><path class="cls-1" d="M61.92,0a26.41,26.41,0,0,1,3.46,1.13,10.35,10.35,0,0,1,5.73,10.42,10.64,10.64,0,0,1-7.49,9,1.84,1.84,0,0,0-.88.69c-.4.55-.69,1.18-1.06,1.75-.55.86-1.52.89-2,0a6,6,0,0,0-3.4-3,10.2,10.2,0,0,1-6-10.9A10.51,10.51,0,0,1,59.11.13c.14,0,.27-.09.4-.13ZM60.63,20.48c1.06-1.55,1.06-1.55,2.75-2.12A8.34,8.34,0,0,0,61,2.13a8.41,8.41,0,0,0-8.5,6.93,8.25,8.25,0,0,0,5.44,9.23C59.09,18.69,60.24,19,60.63,20.48Z"/><path class="cls-1" d="M44.51,70.34v-16c0-1.52.59-2.11,2.09-2.11h5.52c1.37,0,2,.63,2,2v16h1.78v-.91q0-14.16,0-28.32a2.41,2.41,0,0,1,.3-1.41A2,2,0,0,1,57.54,39c2.09-.07,4.2,0,6.3,0a1.55,1.55,0,0,1,1.62,1.6c0,1.32,0,2.65,0,4a1,1,0,0,1-1.06,1.15,1.07,1.07,0,0,1-1.05-1.17c0-.57,0-1.13,0-1.7V41.1H58.06V70.34h5.28v-.8q0-9.69,0-19.4a3.26,3.26,0,0,1,0-.7,1,1,0,0,1,1.08-.91,1,1,0,0,1,1,1c0,.24,0,.48,0,.71V70.38h2.38c.85,0,1.31.37,1.33,1s-.45,1.09-1.33,1.09H8.3c-1.13,0-1.64-.35-1.62-1.1s.49-1,1.62-1h2.08V54.24c0-1.58.55-2.13,2.13-2.13H18a1.7,1.7,0,0,1,1.94,2q0,7.69,0,15.37v.9h1.78V41.18c0-.26,0-.52,0-.78a1.64,1.64,0,0,1,1.75-1.72q3,0,6.09,0a1.61,1.61,0,0,1,1.73,1.73q0,9.6,0,19.19c0,.77-.43,1.22-1.08,1.2s-1-.49-1-1.33V40.83H24V70.35h5.27v-5c0-1.16.31-1.66,1.05-1.68s1.07.48,1.07,1.71v4.94h1.81V47.18c0-1.65.51-2.15,2.16-2.15h5c2,0,2.38.42,2.38,2.42V70.34Zm-4,0V47.19H35.32V70.35Zm-22.73,0V54.29H12.56V70.36ZM46.69,54.45V70.33H52V54.45Z"/><path class="cls-1" d="M20.22,31.64l-.89,1a4.77,4.77,0,0,1,.32,4.14,4.65,4.65,0,0,1-2.07,2.43,4.79,4.79,0,0,1-6.32-6.88c1.45-2.07,3.66-2.52,6.58-1.33.18-.16.37-.33.55-.51s.23-.24.37-.38a10.05,10.05,0,0,1-1.65-9H2.27C.56,21.15,0,20.6,0,18.92V12.69a1.79,1.79,0,0,1,2.05-2H19.68a1.8,1.8,0,0,1,2,2.06v2.53a38,38,0,0,1,4-1A9.05,9.05,0,0,1,32,15.86a1.07,1.07,0,1,1-1.15,1.77,7.68,7.68,0,0,0-8.61,0,1.07,1.07,0,0,0-.55,1,4.47,4.47,0,0,1-.28,1.63,1.56,1.56,0,0,1-1.46.84.88.88,0,0,0-.65.33,7.39,7.39,0,0,0,1.1,7.14l2-2.18A4.86,4.86,0,0,1,22,22.5a4.68,4.68,0,0,1,1.7-2.29,4.75,4.75,0,0,1,5.51-.09c1.88,1.28,2.41,3.13,1.71,6l2.32,1.78a7.61,7.61,0,0,0,.64-6.19c-.05-.18-.12-.35-.18-.53a1.08,1.08,0,0,1,.62-1.45,1.05,1.05,0,0,1,1.38.76,9.63,9.63,0,0,1-.38,8c-.11.24-.23.46-.36.73L46.24,37.9a4.9,4.9,0,0,1,5.57-.4l4.81-5a4.88,4.88,0,0,1,1.55-6.74,4.78,4.78,0,0,1,6.4,6.86A4.84,4.84,0,0,1,58.18,34l-4.82,5c1.17,2.63.84,4.76-.94,6.29a4.8,4.8,0,0,1-5.67.4c-2-1.26-2.59-3.27-1.84-6.09L33.69,30.91a9.9,9.9,0,0,1-13.47.73Zm-.67-18.82H2.18V19H19.55Zm10.08,15a4.86,4.86,0,0,1-5.35.52c-.14-.07-.42-.11-.49,0-.63.66-1.23,1.34-1.83,2,2.91,2.29,7.69,2,9.94-.7l-.3-.27ZM15.18,32.42a2.66,2.66,0,1,0,2.68,2.64A2.68,2.68,0,0,0,15.18,32.42Zm45.51-5.23a2.67,2.67,0,1,0,2.65,2.65A2.68,2.68,0,0,0,60.69,27.19ZM29.21,24.1a2.66,2.66,0,1,0-2.65,2.65A2.68,2.68,0,0,0,29.21,24.1ZM49.3,38.94A2.67,2.67,0,1,0,52,41.58,2.69,2.69,0,0,0,49.3,38.94Z"/><path class="cls-1" d="M59.59,5.47c.16-1.6.39-2,1.14-2s1,.41,1.09,2h1.51a1.06,1.06,0,1,1,0,2.11c-1.18,0-2.36,0-3.54,0-.61,0-1,.2-1.08.85s.36.89,1.09.91h1.7a3,3,0,0,1,3.23,2.72A3,3,0,0,1,62,15.43l-.18.06c-.18,1.56-.4,1.94-1.13,1.94s-1-.44-1.08-2H58.18c-.79,0-1.24-.39-1.24-1s.43-1.07,1.21-1.08h3.4c.72,0,1.11-.33,1.1-.9s-.37-.87-1.12-.89-1.27,0-1.91,0a3,3,0,0,1-.34-6Z"/><path class="cls-1" d="M13.77,17h-2.9c-.81,0-1.31-.43-1.32-1.07s.49-1.05,1.32-1.05h5.87c.78,0,1.25.38,1.27,1S17.55,17,16.74,17Z"/><path class="cls-1" d="M6,14.86H7.28a1.05,1.05,0,0,1,.1,2.1,25.23,25.23,0,0,1-2.75,0,1,1,0,0,1,.1-2.09Z"/></g></g></svg>