<svg xmlns="http://www.w3.org/2000/svg" viewBox="0 0 65.01 64.96"><defs><style>.cls-1{fill:#1dd3f8;}</style></defs><title>market_segments</title><g id="Layer_2" data-name="Layer 2"><g id="Layer_1-2" data-name="Layer 1"><path class="cls-1" d="M51.13,20.15c-1.11-1.06-2.13-2-3.1-3A2.86,2.86,0,0,1,47.27,16c-.33-1.16-1.07-1.42-2.18-1.31s-2.09,0-3.14,0a.68.68,0,0,0-.17.05,3.24,3.24,0,0,1-.63,3,3.21,3.21,0,0,1-1.41,5.15,10.59,10.59,0,0,1,0,1.87,3,3,0,0,1-2.93,2.45c-4,0-8,0-12,0a7,7,0,0,1-4.22-1.6c-.62-.47-1.23-1.17-1.92-1.29s-1.44.4-2.16.64L5.89,28.5l-.6.19V.66L9.75,2.14C12.58,3.08,15.41,4,18.26,5a1.53,1.53,0,0,0,1-.08C20.57,4.29,21.84,3.65,23.1,3A7.93,7.93,0,0,1,27,2.09c.48,0,1,0,1.44,0A11.16,11.16,0,0,0,35.64.43a2.65,2.65,0,0,1,2.2-.32,2.68,2.68,0,0,1,2,2.6,7.72,7.72,0,0,1-2.32,5.61,4.08,4.08,0,0,0,.53.06h8.06a.7.7,0,0,0,.77-.5A9.4,9.4,0,0,1,57.83,2.36a9.43,9.43,0,0,1-4.08,18.41c-.49-.09-.64.05-.79.46q-2,5.28-4.07,10.56a.64.64,0,0,0,.29.94,7.23,7.23,0,0,1,2.87,8.35,7.33,7.33,0,0,1-14.29-2c0-.26,0-.52,0-.84l-4.55-1c-.59-.13-1.19-.29-1.79-.37a.69.69,0,0,0-.6.26,5.25,5.25,0,0,1-9.14.11l-7.1,2.36a7.31,7.31,0,0,1-1.6,6A6.93,6.93,0,0,1,8.61,48.1a7.33,7.33,0,1,1,5.28-10.56,1.55,1.55,0,0,0,.29,0c2.13-.71,4.26-1.41,6.39-2.14a.69.69,0,0,0,.39-.51,5.25,5.25,0,1,1,10.5-.4,1.08,1.08,0,0,0,.05.25l6.64,1.48a16.77,16.77,0,0,1,1.15-1.86,7.13,7.13,0,0,1,6.88-2.77c.27,0,.53.13.68-.27C48.29,27.51,49.75,23.75,51.13,20.15ZM28.34,8.38c1.27,0,2.47,0,3.66,0a7.34,7.34,0,0,0,1.87-.26,5.48,5.48,0,0,0,3.89-5.19c0-.73-.41-1-1.07-.68s-1.26.6-1.87.93a8.57,8.57,0,0,1-4.35,1c-1.13,0-2.27,0-3.41,0A6.36,6.36,0,0,0,24,4.91c-1.17.6-2.33,1.19-3.52,1.74a.82.82,0,0,0-.55.89c0,4.22,0,8.43,0,12.65a5.56,5.56,0,0,0,.1,2.32c.34.65,1.21,1,1.85,1.51a5.25,5.25,0,0,0,3.28,1.14H36.43c.81,0,1.31-.42,1.3-1.06s-.51-1-1.33-1H33.6V21h5c.76,0,1.25-.4,1.26-1s-.48-1.06-1.29-1.07H33.59v-2.1h.67c1.46,0,2.93,0,4.39,0a1.07,1.07,0,0,0,1.17-1.06,1.08,1.08,0,0,0-1.19-1h-5v-2.1H51.07c.83,0,1.32-.39,1.34-1s-.49-1.06-1.36-1.07H28.34Zm-21-4.82V25.74c.09,0,.16,0,.22,0,3.29-1.1,6.57-2.2,9.87-3.28.38-.12.36-.36.36-.65,0-4.74,0-9.48,0-14.21a.59.59,0,0,0-.49-.7c-1.53-.48-3.06-1-4.59-1.52ZM49,14.68a7.25,7.25,0,0,0,8.22,4,7.34,7.34,0,0,0-1-14.46C53.18,4,49.69,6,49.07,8.38c.44,0,.87,0,1.3,0A1.88,1.88,0,0,0,52,7.77a4.93,4.93,0,0,1,5.62-1.06A5,5,0,0,1,60.8,11.4a5.19,5.19,0,0,1-3.2,5,5.27,5.27,0,0,1-5.84-1.23,1.31,1.31,0,0,0-.67-.43C50.42,14.64,49.75,14.68,49,14.68Zm1.32,24.15A5.24,5.24,0,1,0,45,44,5.26,5.26,0,0,0,50.33,38.83Zm-37.75,2.1a5.24,5.24,0,1,0-5.3,5.2A5.25,5.25,0,0,0,12.58,40.93Zm13.64-9.48a3.15,3.15,0,1,0,3.14,3.19A3.17,3.17,0,0,0,26.22,31.45ZM53.53,13.83a3,3,0,0,0,4.33-.15,3.13,3.13,0,0,0-.16-4.46,3,3,0,0,0-4.16,0C54.84,10.85,54.84,12.16,53.53,13.83Z"/><path class="cls-1" d="M15.71,42H24.1V62.86h4.18V42h8.4V62.87h4.18V48.27h8.4V62.86h4.2V23.1h8.36V65H3.18V50.38h8.35v12.5h4.18Zm44,20.91V25.21H55.61V62.88ZM22,62.88V44.07H17.86V62.88Zm8.48-18.81V62.86h4.12V44.07ZM43,62.86h4.12V50.36H43Zm-33.62,0V52.47H5.3V62.91H9.4Z"/><path class="cls-1" d="M48.23,38.77a3.15,3.15,0,1,1-3.13-3.12A3.17,3.17,0,0,1,48.23,38.77Zm-2.1,0a1,1,0,0,0-2.09,0,1,1,0,1,0,2.09,0Z"/><path class="cls-1" d="M10.48,40.87a3.14,3.14,0,1,1-3.13-3.12A3.15,3.15,0,0,1,10.48,40.87Zm-2.1,0a1,1,0,1,0-1,1A1,1,0,0,0,8.38,40.88Z"/></g></g></svg>