<svg xmlns="http://www.w3.org/2000/svg" viewBox="0 0 75.96 69.65"><defs><style>.cls-1{fill:#1dd3f8;}</style></defs><title>persona</title><g id="Layer_2" data-name="Layer 2"><g id="Layer_1-2" data-name="Layer 1"><path class="cls-1" d="M37.92,0Q53.1,0,68.3,0a7.6,7.6,0,0,1,4.81,1.38A7.29,7.29,0,0,1,76,7.55q0,20.09,0,40.16c0,4.87,0,9.74,0,14.61a7,7,0,0,1-5.72,7.2,8.63,8.63,0,0,1-1.69.12H7.42C2.94,69.65,0,66.71,0,62.24V7.48C0,3,2.9,0,7.44,0ZM2.51,16.92V62c0,3.4,1.73,5.14,5.11,5.14H68.38c3.3,0,5.06-1.78,5.06-5.11q0-22,0-44.08v-1Zm0-2.66H73.37c0-2.67.08-5.27,0-7.86A3.75,3.75,0,0,0,71,3.05a7.21,7.21,0,0,0-2.77-.51q-30.26,0-60.5,0c-.36,0-.72,0-1.07,0a4.34,4.34,0,0,0-4.1,4C2.45,9.11,2.53,11.65,2.53,14.26Z"/><path class="cls-1" d="M20.32,47.25H9.48c-1.37,0-1.76-.39-1.76-1.75V23.81c0-1.35.39-1.73,1.77-1.73H31.18c1.37,0,1.76.38,1.76,1.75q0,10.85,0,21.68c0,1.36-.39,1.74-1.78,1.74Zm-10.06-2.6c.62.21.88,0,1-.54a9.24,9.24,0,0,1,18.12,0c.16.69.47.7,1,.53v-20H10.26Zm16.62,0c-.28-2.95-3.3-5.45-6.52-5.47S14,41.75,13.78,44.69Z"/><path class="cls-1" d="M36.72,54.07H9a1.18,1.18,0,0,1-1.28-1.21A1.2,1.2,0,0,1,9,51.58a7.3,7.3,0,0,1,.81,0H63.72c.38,0,.87-.07,1.13.12a2.14,2.14,0,0,1,.84,1.21,1,1,0,0,1-1,1.14,6.42,6.42,0,0,1-1,0Z"/><path class="cls-1" d="M36.76,61.82H9.88c-.32,0-.66,0-1,0a1.17,1.17,0,0,1-1.16-1.24,1.18,1.18,0,0,1,1.18-1.22c.3,0,.6,0,.9,0H63.67a6.34,6.34,0,0,1,1.07.06,1.22,1.22,0,0,1,0,2.39,7.59,7.59,0,0,1-1.07.06Z"/><path class="cls-1" d="M52.59,22.07H66.21a8.75,8.75,0,0,1,.89,0,1.22,1.22,0,0,1,.19,2.39,3.55,3.55,0,0,1-1,.09H38.82a4,4,0,0,1-1-.08A1.23,1.23,0,0,1,38,22.1a6.58,6.58,0,0,1,.89,0Z"/><path class="cls-1" d="M45.45,29.81h6.71c1.09,0,1.62.41,1.63,1.21s-.55,1.29-1.58,1.29H38.52c-1,0-1.61-.48-1.59-1.28s.55-1.22,1.63-1.22Z"/><path class="cls-1" d="M18.86,7.07a1.38,1.38,0,0,1,1.33,1.39,1.35,1.35,0,0,1-1.41,1.3,1.32,1.32,0,0,1-1.27-1.34A1.34,1.34,0,0,1,18.86,7.07Z"/><path class="cls-1" d="M26.61,9.76a1.33,1.33,0,0,1-1.37-1.33A1.35,1.35,0,0,1,26.5,7.07a1.39,1.39,0,0,1,1.42,1.3A1.35,1.35,0,0,1,26.61,9.76Z"/><path class="cls-1" d="M11.1,9.76A1.35,1.35,0,0,1,9.76,8.39a1.37,1.37,0,0,1,1.4-1.32,1.36,1.36,0,0,1,1.28,1.34A1.32,1.32,0,0,1,11.1,9.76Z"/><path class="cls-1" d="M20.32,36.28a5.4,5.4,0,1,1,.07-10.79,5.4,5.4,0,0,1-.07,10.79Zm0-8.27a2.89,2.89,0,0,0-2.87,2.83,2.93,2.93,0,0,0,2.88,2.93,2.89,2.89,0,0,0,2.9-2.9A2.85,2.85,0,0,0,20.3,28Z"/></g></g></svg>