<svg xmlns="http://www.w3.org/2000/svg" viewBox="0 0 59.12 63.25"><defs><style>.cls-1{fill:#1dd3f8;}</style></defs><title>product_concept</title><g id="Layer_2" data-name="Layer 2"><g id="Layer_1-2" data-name="Layer 1"><path class="cls-1" d="M31.17,0c1.1.2,2.23.35,3.32.62A20.2,20.2,0,0,1,49.83,18.71a19.58,19.58,0,0,1-7.45,17.42c-1.63,1.33-1.76,2.93-1.65,4.74,0,.12.2.28.35.35a2.92,2.92,0,0,1,1.68,2.68,2.79,2.79,0,0,1-1.69,2.66.6.6,0,0,0-.36.68V54a4.9,4.9,0,0,1-3.83,5.08.69.69,0,0,0-.4.42,5.06,5.06,0,0,1-5.11,3.77H27.54a5,5,0,0,1-4.85-3.67A.69.69,0,0,0,22.1,59a4.78,4.78,0,0,1-3.68-4.73c0-2.33,0-4.66,0-7a.73.73,0,0,0-.45-.76,2.94,2.94,0,0,1,0-5.27.59.59,0,0,0,.4-.66,6.17,6.17,0,0,1,0-.86,3.92,3.92,0,0,0-1.66-3.57A19.3,19.3,0,0,1,9.49,23.73c-1.18-8,1.41-14.56,7.75-19.58A19.1,19.1,0,0,1,27.61.1,2.19,2.19,0,0,0,28,0Zm7.68,40.89c0-.37,0-.68,0-1a5.88,5.88,0,0,1,2.47-5.28A18.51,18.51,0,1,0,11.37,23.81,18.2,18.2,0,0,0,18.1,34.9a5.34,5.34,0,0,1,2.16,4.61c0,.45,0,.9,0,1.38ZM29.5,45h9.75A4.53,4.53,0,0,0,40,45a1.09,1.09,0,0,0,.12-2.13,3,3,0,0,0-.73-.07H19.74a3,3,0,0,0-.73.07A1.1,1.1,0,0,0,19.12,45a4.59,4.59,0,0,0,.74,0Zm9.33,1.9H20.32v2.16H38.83Zm0,4.1H20.32v2.16H38.85V51ZM20.44,55.1a2.82,2.82,0,0,0,2.74,2.2q6.39,0,12.77,0a2.79,2.79,0,0,0,2.72-2.2Zm4.12,4.09a3,3,0,0,0,2.7,2.19c1.52,0,3,0,4.57,0a2.89,2.89,0,0,0,2.71-2.19Z"/><path class="cls-1" d="M9.2,7.94c0,.78-.64,1.29-1.19,1-1.3-.68-2.58-1.42-3.83-2.19A.81.81,0,0,1,4,5.6a.79.79,0,0,1,1.1-.4c1.3.69,2.57,1.44,3.83,2.21C9.07,7.52,9.14,7.84,9.2,7.94Z"/><path class="cls-1" d="M4.67,35.71c-.26-.22-.67-.41-.74-.68a1.2,1.2,0,0,1,.26-1c1.23-.79,2.5-1.51,3.78-2.2a.81.81,0,0,1,1.11.4.79.79,0,0,1-.18,1.11C7.62,34.1,6.31,34.82,5,35.57a.93.93,0,0,1-.24,0Z"/><path class="cls-1" d="M50.65,9.05c-.17-.16-.55-.33-.63-.6s0-.86.19-1c1.28-.81,2.6-1.57,3.95-2.26.21-.11.75.14,1,.38A.72.72,0,0,1,55,6.68c-1.29.81-2.62,1.54-3.94,2.3A2.53,2.53,0,0,1,50.65,9.05Z"/><path class="cls-1" d="M56.14,21.28c-.66,0-1.31,0-2,0a.92.92,0,1,1,0-1.83q2,0,4,0a.89.89,0,0,1,1,.91c0,.55-.36.9-1,.92s-1.32,0-2,0Z"/><path class="cls-1" d="M54.51,35.7a6.3,6.3,0,0,1-.77-.31c-1.08-.61-2.14-1.22-3.21-1.85-.6-.35-.77-.83-.51-1.33s.81-.62,1.44-.26c1.11.63,2.21,1.27,3.31,1.91A.84.84,0,0,1,55.23,35C55.09,35.25,54.74,35.47,54.51,35.7Z"/><path class="cls-1" d="M2.92,21.29c-.64,0-1.27,0-1.91,0s-1-.36-1-.91a.91.91,0,0,1,1-.93c1.3,0,2.59,0,3.89,0a.94.94,0,0,1,1,.93.92.92,0,0,1-1,.91C4.24,21.3,3.58,21.29,2.92,21.29Z"/><path class="cls-1" d="M40.42,13.22a6.26,6.26,0,0,1-.61,1.3.94.94,0,0,0-.09,1.26.24.24,0,0,1,.06.11,1.66,1.66,0,0,0,1.62,1.48,1.71,1.71,0,0,1,1.36,1.77q0,1.23,0,2.46a1.86,1.86,0,0,1-1.66,1.86c-.67.08-1.05.34-1.16,1a.42.42,0,0,1,0,.12,1.46,1.46,0,0,0,.11,2,1.69,1.69,0,0,1-.19,2.21,25.65,25.65,0,0,1-1.88,1.88,1.81,1.81,0,0,1-2.43.07,1.25,1.25,0,0,0-1.43-.17c-.81.34-1.43.64-1.53,1.68a1.73,1.73,0,0,1-1.82,1.37c-.78,0-1.57,0-2.35,0a1.85,1.85,0,0,1-1.9-1.68c-.09-.67-.35-1-1-1.15l-.06,0a1.54,1.54,0,0,0-2,.09,1.67,1.67,0,0,1-2.21-.2c-.64-.58-1.26-1.19-1.84-1.83a1.82,1.82,0,0,1-.09-2.48,1.23,1.23,0,0,0,.15-1.42c-.33-.82-.64-1.43-1.67-1.53a1.7,1.7,0,0,1-1.36-1.76c0-.81,0-1.61,0-2.41A1.84,1.84,0,0,1,18,17.3c.7-.1,1.12-.37,1.23-1.08a.7.7,0,0,1,.12-.28,1.19,1.19,0,0,0-.12-1.58,1.82,1.82,0,0,1,.22-2.52c.51-.54,1-1.06,1.57-1.58a1.89,1.89,0,0,1,2.67-.18A1.19,1.19,0,0,0,25,10.2c.82-.32,1.44-.63,1.53-1.67a1.72,1.72,0,0,1,1.77-1.36c.8,0,1.6,0,2.41,0a1.83,1.83,0,0,1,1.89,1.6c.09.71.37,1.13,1.08,1.24a.54.54,0,0,1,.22.1A1.25,1.25,0,0,0,35.62,10a1.75,1.75,0,0,1,2.32.13A19.52,19.52,0,0,1,39.81,12,5.43,5.43,0,0,1,40.42,13.22Zm.5,8.39V20.4c0-1.31,0-1.32-1.3-1.5A1.22,1.22,0,0,1,38.53,18a17.23,17.23,0,0,0-.94-2.27,1.16,1.16,0,0,1,.1-1.37c.27-.35.51-.72.7-1l-1.8-1.8-1.06.75a1.1,1.1,0,0,1-1.26.07c-.78-.36-1.58-.69-2.39-1a1.11,1.11,0,0,1-.83-.95C31,10,30.89,9.5,30.81,9H28.3c-.08.46-.16.91-.23,1.35a1.13,1.13,0,0,1-.81,1c-.83.3-1.64.64-2.44,1a1.09,1.09,0,0,1-1.21-.08c-.38-.28-.77-.54-1.1-.77l-1.83,1.75c.25.36.5.74.77,1.09a1.1,1.1,0,0,1,.08,1.32,5.28,5.28,0,0,0-.67,1.45,2,2,0,0,1-2.25,1.92.54.54,0,0,0-.39.34c0,.73,0,1.47,0,2.23l1.46.25a1.06,1.06,0,0,1,.88.76c.32.84.65,1.68,1,2.49a1.1,1.1,0,0,1-.09,1.21c-.28.38-.55.77-.78,1.1l1.8,1.8c.3-.21.65-.43,1-.69A1.18,1.18,0,0,1,25,28.46a4.14,4.14,0,0,0,1.29.58,2.08,2.08,0,0,1,2,2.29c0,.14.27.38.42.38.69,0,1.39,0,2.14,0,.09-.47.18-.91.24-1.35a1.13,1.13,0,0,1,.85-1,22.51,22.51,0,0,0,2.38-1,1.1,1.1,0,0,1,1.26.07c.38.28.76.55,1.07.76l1.83-1.77c-.23-.32-.45-.67-.71-1a1.2,1.2,0,0,1-.1-1.47,12.4,12.4,0,0,0,.87-2.1,1.24,1.24,0,0,1,1.19-1C40.08,21.81,40.48,21.69,40.92,21.61Z"/><path class="cls-1" d="M37.64,20.36a8.08,8.08,0,1,1-8.09-8.09A8.06,8.06,0,0,1,37.64,20.36Zm-1.86,0a6.23,6.23,0,1,0-6.15,6.25A6.23,6.23,0,0,0,35.78,20.34Z"/><path class="cls-1" d="M29.59,17.41a3,3,0,1,1-3,2.95A3,3,0,0,1,29.59,17.41Zm0,4.08a1.13,1.13,0,0,0,1.1-1.16,1.11,1.11,0,0,0-2.22.08A1.14,1.14,0,0,0,29.57,21.49Z"/></g></g></svg>