<svg xmlns="http://www.w3.org/2000/svg" viewBox="0 0 47 73.28"><defs><style>.cls-1{fill:#1dd3f8;}</style></defs><title>usability</title><g id="Layer_2" data-name="Layer 2"><g id="Layer_1-2" data-name="Layer 1"><path class="cls-1" d="M18.49,73.28c0-1.34,0-2.67,0-4a1.53,1.53,0,0,0-.32-.89q-1.78-2.28-3.65-4.5a1.39,1.39,0,0,0-.83-.4c-.8-.06-1.62,0-2.43,0a5.33,5.33,0,0,1-5.06-5.29c0-1,0-1.94,0-3A4.16,4.16,0,0,1,2,53.23a3.94,3.94,0,0,1,.23-4.43,4.76,4.76,0,0,1-.49-7.69,5,5,0,0,1,0-7.57,4.6,4.6,0,0,1-1.38-5.4c1-2.53,3.19-3.15,5.78-2.9V18.15H8.33v7.08A4.77,4.77,0,0,1,11.09,33a5,5,0,0,1,0,8.71c1.62,2.55,1.52,4.09-.45,6.68H36.26V47.6c0-2.62-.1-5.25,0-7.87s-.74-5.36-1.28-8a13.57,13.57,0,0,1-.53-5.15,9.44,9.44,0,0,1,1.47-3.68,1.65,1.65,0,0,0,.3-.84c0-3.62,0-7.25,0-10.87a4.12,4.12,0,0,0,0-.42H29.53V8.61H36.2a33.67,33.67,0,0,0,0-3.9A3.09,3.09,0,0,0,33,2.15H11.89A3.26,3.26,0,0,0,8.33,5.71V8.56H27.27v2.18H8.33V15.9H6.18V5.64A5.39,5.39,0,0,1,11.8,0h21A5.35,5.35,0,0,1,38.4,5.67q0,7,0,14v.77l3.32-1.24c.64,3.09,1.25,6.07,1.89,9.12l-2.09.45-1.39-6.63A6.35,6.35,0,0,0,36.6,28.8c.5,2.57,1.12,5.11,1.67,7.67a5.44,5.44,0,0,1,.13,1.13q0,10,0,20c0,3.63-2.2,5.82-5.85,5.82H17c1.16,1.43,2.22,2.7,3.23,4a2.39,2.39,0,0,1,.43,1.21c0,1.53,0,3,0,4.58ZM36.23,50.61H10.75c.11,1.42-.17,2.78-1.33,3.48s-1.14,1.58-1.09,2.62c0,.28,0,.57,0,.86,0,2.5,1.23,3.73,3.72,3.73q10.27,0,20.54,0c.31,0,.62,0,.93,0a3.06,3.06,0,0,0,2.69-2.74C36.29,55.91,36.23,53.28,36.23,50.61ZM6.8,40.1H8.65a2.79,2.79,0,0,0,.14-5.57q-2-.08-3.93,0a2.79,2.79,0,0,0,.08,5.57Zm-.67,7.15h0c.55,0,1.1,0,1.64,0A2.48,2.48,0,0,0,10,45a2.34,2.34,0,0,0-1.86-2.59,18.22,18.22,0,0,0-4.11,0A2.34,2.34,0,0,0,2.18,45a2.49,2.49,0,0,0,2.31,2.23C5,47.28,5.59,47.25,6.13,47.25ZM6.06,32.36h1.5a2.49,2.49,0,0,0,.21-5,23.94,23.94,0,0,0-3.28,0,2.49,2.49,0,0,0,.21,5ZM6.08,53h0c.28,0,.57,0,.86,0a1.74,1.74,0,0,0,1.67-1.64A1.69,1.69,0,0,0,7.18,49.5a7.72,7.72,0,0,0-2.2,0,1.68,1.68,0,0,0-1.37,1.82A1.77,1.77,0,0,0,5.22,53,8.23,8.23,0,0,0,6.08,53Z"/><path class="cls-1" d="M41.53,73.28V69.46h2.15v3.82Z"/><path class="cls-1" d="M22.24,35.3l-.16-.12c-2.62-2.64-5.29-5.23-7.87-7.92a5.67,5.67,0,0,1,2.65-9.42c1.83-.51,3.51-.1,5.45,1.36a5.77,5.77,0,0,1,5.27-1.41,5.54,5.54,0,0,1,3.35,2.28c1.93,2.74,1.23,5.8-2,8.6L27.45,27a12.36,12.36,0,0,0,1.22-1,3.55,3.55,0,1,0-5-5c-.44.43-.85.89-1.39,1.47-.5-.56-.9-1.06-1.36-1.5a3.55,3.55,0,1,0-5.06,5C18,28,20.15,30.15,22.3,32.29l3.56-3.54,1.45,1.54Z"/><path class="cls-1" d="M44.06,30.4c.69,3.37,1.37,6.63,2,9.89a22.53,22.53,0,0,0,.48,2.31,12.18,12.18,0,0,1,.07,6c-1,5.36-1.93,10.74-2.85,16.11a22.71,22.71,0,0,0-.16,2.52h-2a12.87,12.87,0,0,1,.24-4q1.55-8.65,3.06-17.3a2.6,2.6,0,0,0-.05-.92c-1-4.68-1.93-9.37-2.91-14.13Z"/><path class="cls-1" d="M25.86,4.34V6.39H18.78v-2Z"/><path class="cls-1" d="M28.72,67.38v2.05H23.07V67.38Z"/><path class="cls-1" d="M16.53,6.41H14.48V4.34h2.05Z"/><path class="cls-1" d="M30.16,4.34V6.41H28.1V4.34Z"/><path class="cls-1" d="M23.32,40.31H21.27V38.25h2.05Z"/><path class="cls-1" d="M23.31,44.61h-2V42.54h2Z"/><path class="cls-1" d="M31,67.38H33v2.05H31Z"/><path class="cls-1" d="M25.47,59.12H19.12V52.77h6.35ZM23.32,57v-2H21.27v2Z"/></g></g></svg>