<svg xmlns="http://www.w3.org/2000/svg" viewBox="0 0 458.39 300.62"><defs><style>.cls-1{fill:#1a2089;}.cls-2{opacity:0.8;}.cls-3{fill:#fff;}.cls-4{fill:#4cc2fc;}.cls-5{fill:#5d4efa;}.cls-6{fill:#252a80;}.cls-7{opacity:0.15;}.cls-8{fill:#b7cef4;}.cls-9{fill:#006ae6;}.cls-10{opacity:0.2;}.cls-11{fill:#e091ce;}.cls-12{opacity:0.6;}.cls-13{fill:#c8d9fb;}.cls-14{opacity:0.5;}.cls-15{fill:#29abe2;}.cls-16{fill:#073860;}.cls-17{fill:#b56cf7;}.cls-18{fill:#eab287;}.cls-19{fill:#e1a176;}.cls-20{fill:#9fbcfb;}</style></defs><title>business_needs_simplified</title><g id="Layer_2" data-name="Layer 2"><g id="Layer_1-2" data-name="Layer 1"><path class="cls-1" d="M79.27,93.19H73.52a33.24,33.24,0,0,0-4.14-10l4.07-4.06a2.75,2.75,0,0,0,0-3.88l-6.89-6.9a2.75,2.75,0,0,0-3.88,0l-4.07,4.07a33.29,33.29,0,0,0-10-4.14V62.54a2.75,2.75,0,0,0-2.75-2.74H36.13a2.74,2.74,0,0,0-2.74,2.74v5.75a33.07,33.07,0,0,0-10,4.14l-4.07-4.07a2.75,2.75,0,0,0-3.88,0l-6.9,6.9a2.75,2.75,0,0,0,0,3.88l4.07,4.06a33.24,33.24,0,0,0-4.14,10H2.74A2.74,2.74,0,0,0,0,95.93v9.75a2.74,2.74,0,0,0,2.74,2.74H8.49a33.24,33.24,0,0,0,4.14,10l-4.07,4.06a2.75,2.75,0,0,0,0,3.88l6.9,6.9a2.75,2.75,0,0,0,3.88,0l4.07-4.07a33.07,33.07,0,0,0,10,4.14v5.75a2.74,2.74,0,0,0,2.74,2.74h9.75a2.75,2.75,0,0,0,2.75-2.74v-5.75a33.29,33.29,0,0,0,10-4.14l4.07,4.07a2.75,2.75,0,0,0,3.88,0l6.89-6.9a2.75,2.75,0,0,0,0-3.88l-4.07-4.06a33.24,33.24,0,0,0,4.14-10h5.75A2.73,2.73,0,0,0,82,105.68V95.93A2.74,2.74,0,0,0,79.27,93.19ZM41,120.19a19.39,19.39,0,1,1,13.7-5.68A19.27,19.27,0,0,1,41,120.19Z"/><g class="cls-2"><path class="cls-3" d="M41,126.77a25.94,25.94,0,0,1-22.49-13,.42.42,0,1,1,.72-.42,25.14,25.14,0,0,0,40.9,3.73.42.42,0,1,1,.64.54A26,26,0,0,1,41,126.77Z"/></g><g class="cls-2"><path class="cls-3" d="M11.63,101.23a.42.42,0,0,1-.42-.42A29.83,29.83,0,0,1,41,71a.42.42,0,0,1,0,.84,29,29,0,0,0-29,29A.42.42,0,0,1,11.63,101.23Z"/></g><path class="cls-4" d="M144.54,37.25H140a26.25,26.25,0,0,0-3.26-7.87L140,26.17a2.17,2.17,0,0,0,0-3.06l-5.44-5.43a2.15,2.15,0,0,0-3.06,0l-3.21,3.2a26,26,0,0,0-7.87-3.26V13.09a2.17,2.17,0,0,0-2.17-2.17h-7.68a2.17,2.17,0,0,0-2.17,2.17v4.53a26.14,26.14,0,0,0-7.87,3.26l-3.21-3.2a2.15,2.15,0,0,0-3.06,0l-5.44,5.43a2.17,2.17,0,0,0,0,3.06L92,29.38a26.25,26.25,0,0,0-3.26,7.87H84.19A2.17,2.17,0,0,0,82,39.42v7.69a2.17,2.17,0,0,0,2.17,2.16h4.53A26,26,0,0,0,92,57.14l-3.21,3.21a2.17,2.17,0,0,0,0,3.06l5.44,5.44a2.17,2.17,0,0,0,3.06,0l3.21-3.21a26.14,26.14,0,0,0,7.87,3.26v4.54a2.17,2.17,0,0,0,2.17,2.16h7.68a2.17,2.17,0,0,0,2.17-2.16V68.9a26,26,0,0,0,7.87-3.26l3.21,3.21a2.17,2.17,0,0,0,3.06,0L140,63.41a2.17,2.17,0,0,0,0-3.06l-3.21-3.21A26,26,0,0,0,140,49.27h4.54a2.16,2.16,0,0,0,2.16-2.16V39.42A2.17,2.17,0,0,0,144.54,37.25Zm-30.18,21.3a15.3,15.3,0,1,1,10.81-4.48A15.19,15.19,0,0,1,114.36,58.55Z"/><g class="cls-2"><path class="cls-3" d="M132,39.53a.33.33,0,0,1-.33-.26,17.71,17.71,0,0,0-17.3-14.1.34.34,0,0,1,0-.67,18.33,18.33,0,0,1,18,14.64.33.33,0,0,1-.26.39Z"/></g><g class="cls-2"><path class="cls-3" d="M91.19,43.59a.33.33,0,0,1-.33-.33,23.52,23.52,0,0,1,23.5-23.5.34.34,0,0,1,0,.67A22.86,22.86,0,0,0,91.52,43.26.33.33,0,0,1,91.19,43.59Z"/></g><circle class="cls-5" cx="62.91" cy="51.69" r="51.69"/><path class="cls-3" d="M62.91,97.64A45.92,45.92,0,0,1,30.42,19.21a46,46,0,0,1,74.82,50.37A45.9,45.9,0,0,1,62.91,97.64Z"/><rect class="cls-5" x="60.75" y="2.35" width="2.4" height="10.92"/><rect class="cls-5" x="60.75" y="89.59" width="2.4" height="10.92"/><rect class="cls-5" x="100.11" y="50.23" width="10.92" height="2.4"/><rect class="cls-5" x="12.86" y="50.23" width="10.92" height="2.4"/><rect class="cls-5" x="91.6" y="76.81" width="2.4" height="10.92" transform="translate(-31 89.71) rotate(-45)"/><rect class="cls-5" x="29.9" y="15.12" width="2.4" height="10.92" transform="translate(-5.45 28.02) rotate(-45)"/><rect class="cls-5" x="26.12" y="81.94" width="10.92" height="2.4" transform="translate(-49.54 46.68) rotate(-45)"/><rect class="cls-5" x="87.33" y="19.39" width="10.92" height="2.4" transform="translate(12.62 71.64) rotate(-45)"/><rect class="cls-5" x="16.89" y="68.54" width="10.92" height="2.4" transform="translate(-27.2 15.82) rotate(-24.82)"/><rect class="cls-5" x="42.92" y="5.99" width="2.4" height="10.92" transform="translate(-0.73 19.57) rotate(-24.82)"/><rect class="cls-5" x="79.06" y="85.56" width="2.4" height="10.92" transform="translate(-30.79 42.09) rotate(-24.82)"/><rect class="cls-5" x="20.31" y="29.62" width="2.4" height="10.92" transform="translate(-19.08 41.87) rotate(-67.99)"/><rect class="cls-5" x="101.19" y="62.32" width="2.4" height="10.92" transform="translate(1.18 137.31) rotate(-67.99)"/><rect class="cls-5" x="72.69" y="9.77" width="10.92" height="2.4" transform="translate(40.89 80.53) rotate(-69.82)"/><polygon class="cls-6" points="65.56 49.91 60.71 53.51 40.33 23.67 42.97 21.72 65.56 49.91"/><g class="cls-7"><path class="cls-6" d="M55.7,113.45c-.31.36-.64.72-1,1.06a19.28,19.28,0,0,1-13.53,5.68v21.62h4.7a2.75,2.75,0,0,0,2.75-2.74v-5.75a33.05,33.05,0,0,0,7.07-2.53Z"/></g><g class="cls-7"><path class="cls-6" d="M129.65,43.2h17V39.42a2.17,2.17,0,0,0-2.16-2.17H140a25.87,25.87,0,0,0-3.24-7.83h-15.9a15.31,15.31,0,0,1,8.79,13.78Z"/></g><g class="cls-2"><path class="cls-3" d="M114.36,63.74A20.52,20.52,0,0,1,96.62,53.5a.33.33,0,0,1,.58-.33,19.82,19.82,0,0,0,32.25,2.94.32.32,0,0,1,.46,0,.33.33,0,0,1,0,.47A20.47,20.47,0,0,1,114.36,63.74Z"/></g><polygon class="cls-8" points="449.09 297.23 441.43 297.23 410.19 240.41 423.41 240.41 449.09 297.23"/><polygon class="cls-5" points="449.09 297.23 441.43 297.23 410.19 240.41 423.41 240.41 449.09 297.23"/><g class="cls-7"><polygon class="cls-6" points="423.41 240.41 410.19 240.41 413.35 246.16 426.01 246.16 423.41 240.41"/></g><rect class="cls-5" x="302.3" y="134.05" width="156.09" height="106.36" rx="13.45"/><path class="cls-3" d="M317.6,234.66a9.59,9.59,0,0,1-9.55-9.56V149.36a9.59,9.59,0,0,1,9.55-9.56H443.08a9.61,9.61,0,0,1,9.56,9.56V225.1a9.61,9.61,0,0,1-9.56,9.56Z"/><rect class="cls-1" x="385.52" y="148.81" width="15.56" height="6.68" rx="1.4"/><rect class="cls-1" x="369.97" y="179.3" width="15.56" height="6.68" rx="1.4"/><polygon class="cls-1" points="424.4 164.92 424.02 164.92 424.02 160.95 362.6 160.95 362.6 164.92 362.21 164.92 362.21 160.56 424.4 160.56 424.4 164.92"/><rect class="cls-1" x="393.12" y="155.49" width="0.38" height="5.27"/><polygon class="cls-6" points="362.83 171.6 361.97 171.6 346.53 179.13 346.62 179.3 347.05 179.3 362.41 171.81 377.32 179.3 377.75 179.3 377.83 179.13 362.83 171.6"/><rect class="cls-1" x="416.82" y="164.92" width="15.56" height="6.68" rx="1.4"/><rect class="cls-1" x="432.16" y="179.3" width="15.56" height="6.68" rx="1.4"/><rect class="cls-1" x="401.02" y="179.3" width="15.56" height="6.68" rx="1.4"/><polygon class="cls-1" points="425.02 171.6 424.16 171.6 408.72 179.13 408.8 179.3 409.24 179.3 424.59 171.81 439.51 179.3 439.94 179.3 440.02 179.13 425.02 171.6"/><path class="cls-9" d="M445.4,201.79H372.29a2.35,2.35,0,0,1-2.35-2.34h0a2.36,2.36,0,0,1,2.35-2.35H445.4a2.36,2.36,0,0,1,2.35,2.35h0A2.35,2.35,0,0,1,445.4,201.79Z"/><rect class="cls-9" x="369.94" y="208.89" width="77.81" height="4.7" rx="0.98"/><path class="cls-9" d="M422.21,225.37H372.29a2.36,2.36,0,0,1-2.35-2.35h0a2.36,2.36,0,0,1,2.35-2.35h49.92a2.35,2.35,0,0,1,2.35,2.35h0A2.35,2.35,0,0,1,422.21,225.37Z"/><polygon class="cls-8" points="327.02 297.23 334.68 297.23 365.92 240.41 352.7 240.41 327.02 297.23"/><g class="cls-7"><polygon class="cls-6" points="350.1 246.16 362.76 246.16 365.92 240.41 352.7 240.41 350.1 246.16"/></g><g class="cls-7"><path class="cls-6" d="M317.6,134.05a15.35,15.35,0,0,0-15.3,15.31V225.1a15.35,15.35,0,0,0,15.3,15.31h56.14a21.17,21.17,0,0,0,4.55-13.09V134.05Z"/></g><g class="cls-10"><path class="cls-11" d="M412,197.1H372.29a2.36,2.36,0,0,0-2.35,2.35h0a2.35,2.35,0,0,0,2.35,2.34H412Z"/></g><g class="cls-10"><path class="cls-11" d="M393.53,208.89H372.29a2.35,2.35,0,0,0-2.35,2.34h0a2.36,2.36,0,0,0,2.35,2.35h21.24Z"/></g><path class="cls-9" d="M416.62,220.67H372.29a2.36,2.36,0,0,0-2.35,2.35h0a2.36,2.36,0,0,0,2.35,2.35h44.33Z"/><g class="cls-12"><rect class="cls-13" x="354.63" y="164.92" width="15.56" height="6.68"/></g><g class="cls-12"><rect class="cls-13" x="338.84" y="179.3" width="15.56" height="6.68"/></g><polygon class="cls-5" points="327.02 297.23 334.68 297.23 365.92 240.41 352.7 240.41 327.02 297.23"/><path class="cls-1" d="M239,243.6a15.62,15.62,0,0,1,14.63,15.54v28.51h79.05v-44Z"/><g class="cls-7"><path class="cls-6" d="M239,243.6a15.64,15.64,0,0,1,13.07,8.77h80.15c.15.24.3.47.46.69V243.6Z"/></g><path class="cls-1" d="M355.08,36.12H65.35c-9.61,0-17.46,7.33-17.46,16.28V227.32c0,9,7.85,16.28,17.46,16.28H336.84v.84a2.88,2.88,0,0,0,3,2.77h6.64a2.87,2.87,0,0,0,3-2.75v-.86h5.67c9.61,0,17.46-7.32,17.46-16.28V52.4C372.54,43.45,364.69,36.12,355.08,36.12Z"/><rect class="cls-1" x="218.84" y="282.76" width="129.45" height="14.47" rx="3.02"/><path class="cls-1" d="M94.8,225l-6.37,3.14v11.56l7.95,3.92h53.76l8-3.92V228.12L151.72,225Zm28.46,17-16.44-8.11,16.44-8.1,16.43,8.1Z"/><rect class="cls-3" x="119.32" y="-20.42" width="181.79" height="309.02" rx="11.43" transform="translate(344.3 -76.12) rotate(90)"/><circle class="cls-4" cx="210.26" cy="234.23" r="6.14"/><g class="cls-2"><rect class="cls-3" x="337.46" y="232.46" width="10.83" height="4.22" rx="0.88"/></g><g class="cls-2"><rect class="cls-3" x="318.11" y="232.55" width="10.83" height="4.22" rx="0.88"/></g><g class="cls-2"><rect class="cls-3" x="298.75" y="232.65" width="10.83" height="4.22" rx="0.88"/></g><g class="cls-14"><circle class="cls-13" cx="402.15" cy="93.33" r="13.89"/></g><g class="cls-14"><circle class="cls-13" cx="418.35" cy="28.07" r="21.56" transform="translate(323.62 436.52) rotate(-80.78)"/></g><g class="cls-14"><circle class="cls-13" cx="323.34" cy="17.01" r="11.07"/></g><path class="cls-6" d="M271.17,36.36a.24.24,0,0,1-.22-.14.25.25,0,0,1,.13-.32L312.14,19a.24.24,0,0,1,.18.44L271.27,36.35Z"/><path class="cls-6" d="M397.32,23.55h0l-62.86-6.29a.25.25,0,0,1-.21-.27.24.24,0,0,1,.26-.21l62.86,6.3a.24.24,0,0,1,.22.26A.26.26,0,0,1,397.32,23.55Z"/><path class="cls-6" d="M406.52,80.37h-.07a.24.24,0,0,1-.16-.3l9.53-30.5a.24.24,0,0,1,.3-.15.24.24,0,0,1,.16.3l-9.53,30.5A.24.24,0,0,1,406.52,80.37Z"/><path class="cls-6" d="M388.21,93.52H372.54a.24.24,0,0,1,0-.48h15.67a.24.24,0,1,1,0,.48Z"/><path class="cls-6" d="M372.54,58.64a.22.22,0,0,1-.19-.1.23.23,0,0,1,.06-.33L399.76,39a.24.24,0,1,1,.28.4L372.68,58.6A.23.23,0,0,1,372.54,58.64Z"/><path class="cls-6" d="M329.57,36.36a.23.23,0,0,1-.22-.15l-3.25-8.46a.24.24,0,0,1,.14-.31.25.25,0,0,1,.31.14L329.79,36a.24.24,0,0,1-.13.31Z"/><path class="cls-6" d="M420.59,26.65V26h20.85l-1.11-1.1H419.77a8,8,0,1,0-.1,5.24h5l2-2,1.75,2h2.67l1.51-1.52,1.64,1.52,1.65-1.65.72,1h4.46l2.21-1.69-1.21-1.21Zm-12.85.9c0,1.27-.6,2.31-1.33,2.31s-1.32-1-1.32-2.31.59-2.31,1.32-2.31S407.74,26.27,407.74,27.55Z"/><path class="cls-6" d="M407.46,96.79l-1.52-6.4a.87.87,0,0,0-1-.65l-.46.11c-.69-2.72-2.45-4.54-4.05-4.17s-2.36,2.8-1.75,5.55l-.5.11a.87.87,0,0,0-.64,1l1.52,6.4a.87.87,0,0,0,1,.64l6.75-1.6A.87.87,0,0,0,407.46,96.79Zm-4.83-2.5-.42.1-.23-1a.72.72,0,1,1,.43-.1ZM399.48,91c-.53-2.42.13-4.27,1.11-4.5s2.39,1.13,3,3.52Z"/><path class="cls-6" d="M325.49,16.71l3.5,3.18a1.11,1.11,0,0,1-.17.3.88.88,0,0,0,.22-.59V14.35a.89.89,0,0,0-.23-.6A.92.92,0,0,1,329,14Z"/><path class="cls-6" d="M323.76,17.19l4.76-3.64a.78.78,0,0,0-.35-.08h-9.63a.91.91,0,0,0-.37.08L323,17.19A.65.65,0,0,0,323.76,17.19Z"/><path class="cls-6" d="M328.77,13.72l0,0Z"/><path class="cls-6" d="M321.27,16.75l-3.55-2.7a.79.79,0,0,1,.18-.29.83.83,0,0,0-.24.59V19.6a.89.89,0,0,0,.27.63.8.8,0,0,1-.18-.27Z"/><path class="cls-6" d="M328.82,20.19l0,0Z"/><path class="cls-6" d="M317.9,13.75l0,0Z"/><path class="cls-6" d="M325,17.11l-.84.64a1.25,1.25,0,0,1-1.55,0l-.77-.59-3.58,3.26a.81.81,0,0,0,.31.06h9.63a1,1,0,0,0,.38-.09L325,17.12Z"/><path class="cls-6" d="M317.9,13.76h0Z"/><path class="cls-6" d="M318.23,20.42h0a1,1,0,0,1-.3-.19A.77.77,0,0,0,318.23,20.42Z"/><path class="cls-6" d="M328.55,20.39a.73.73,0,0,0,.23-.16.87.87,0,0,1-.23.16Z"/><path class="cls-6" d="M318.17,13.55a.81.81,0,0,0-.24.17.81.81,0,0,1,.24-.17Z"/><path class="cls-6" d="M328.82,20.19Z"/><path class="cls-6" d="M328.8,13.74h0Z"/><path class="cls-6" d="M328.53,13.54h0a.74.74,0,0,1,.25.17A.84.84,0,0,0,328.53,13.54Z"/><g class="cls-14"><path class="cls-13" d="M55.81,54.67H364.62a13.15,13.15,0,0,0-13-11.47H68.81A13.15,13.15,0,0,0,55.81,54.67Z"/></g><g class="cls-2"><path class="cls-3" d="M196.18,50.54h-114a1.92,1.92,0,0,1-1.92-1.92h0a1.92,1.92,0,0,1,1.92-1.91h114a1.92,1.92,0,0,1,1.92,1.91h0A1.93,1.93,0,0,1,196.18,50.54Z"/></g><circle class="cls-8" cx="349.18" cy="49.02" r="2.61"/><circle class="cls-8" cx="334.43" cy="49.02" r="2.61"/><circle class="cls-8" cx="319.88" cy="49.02" r="2.61"/><g class="cls-14"><rect class="cls-13" x="166.7" y="63.72" width="86.98" height="27.34" rx="5.71"/></g><g class="cls-14"><rect class="cls-13" x="268.83" y="63.72" width="86.98" height="27.34" rx="5.71"/></g><g class="cls-14"><rect class="cls-13" x="64.56" y="100.49" width="86.98" height="27.34" rx="5.71"/></g><g class="cls-14"><rect class="cls-13" x="268.83" y="100.49" width="86.98" height="27.34" rx="5.71"/></g><g class="cls-14"><rect class="cls-13" x="64.56" y="186.73" width="86.98" height="27.34" rx="5.71"/></g><rect class="cls-15" x="166.7" y="186.73" width="86.98" height="27.34" rx="5.71"/><g class="cls-14"><rect class="cls-13" x="268.83" y="186.73" width="86.98" height="27.34" rx="5.71"/></g><circle class="cls-16" cx="210.19" cy="156.25" r="15.94"/><g class="cls-14"><circle class="cls-13" cx="262.4" cy="156.25" r="15.94"/></g><g class="cls-14"><circle class="cls-13" cx="158.08" cy="156.25" r="15.94"/></g><g class="cls-2"><path class="cls-3" d="M348.48,86l-32.94-8.63,32.94-8.62a.83.83,0,0,0-.42-1.6l-35.78,9.37-35.79-9.37a.83.83,0,0,0-1,.59.84.84,0,0,0,.6,1L309,77.39,276.08,86a.84.84,0,0,0-.6,1h0a.83.83,0,0,0,1,.59l35.79-9.37,35.78,9.37a.82.82,0,0,0,1-.59h0A.82.82,0,0,0,348.48,86Z"/></g><g class="cls-2"><path class="cls-3" d="M144.15,122.79l-32.93-8.62,32.93-8.62a.83.83,0,0,0,.59-1,.84.84,0,0,0-1-.6L108,113.31l-35.78-9.37a.84.84,0,0,0-1,.6.83.83,0,0,0,.59,1l32.93,8.62-32.93,8.62a.83.83,0,0,0-.59,1h0a.84.84,0,0,0,1,.6L108,115l35.78,9.37a.84.84,0,0,0,1-.6h0A.83.83,0,0,0,144.15,122.79Z"/></g><g class="cls-2"><path class="cls-3" d="M144.15,209l-32.93-8.63,32.93-8.62a.83.83,0,0,0-.42-1.6L108,199.55l-35.78-9.37a.83.83,0,0,0-.42,1.6l32.93,8.62L71.75,209a.82.82,0,0,0-.59,1h0a.82.82,0,0,0,1,.59L108,201.26l35.78,9.37a.82.82,0,0,0,1-.59h0A.82.82,0,0,0,144.15,209Z"/></g><g class="cls-2"><path class="cls-3" d="M348.48,209l-32.94-8.63,32.94-8.62a.83.83,0,0,0-.42-1.6l-35.78,9.37-35.79-9.37a.83.83,0,0,0-1,.59.84.84,0,0,0,.6,1L309,200.4,276.08,209a.84.84,0,0,0-.6,1h0a.83.83,0,0,0,1,.59l35.79-9.37,35.78,9.37a.82.82,0,0,0,1-.59h0A.82.82,0,0,0,348.48,209Z"/></g><rect class="cls-16" x="169.78" y="190.76" width="80.24" height="2.62" rx="0.55"/><rect class="cls-16" x="169.78" y="198.5" width="80.24" height="2.62" rx="0.55"/><rect class="cls-16" x="169.78" y="206.23" width="56.44" height="2.62" rx="0.55"/><path class="cls-16" d="M248.71,70.76H199.4a1.31,1.31,0,0,1-1.3-1.31h0a1.31,1.31,0,0,1,1.3-1.31h49.31a1.31,1.31,0,0,1,1.3,1.31h0A1.31,1.31,0,0,1,248.71,70.76Z"/><path class="cls-16" d="M248.71,78.5H199.4a1.31,1.31,0,0,1-1.3-1.31h0a1.31,1.31,0,0,1,1.3-1.31h49.31a1.31,1.31,0,0,1,1.3,1.31h0A1.31,1.31,0,0,1,248.71,78.5Z"/><path class="cls-16" d="M233.31,86.23H199.4a1.3,1.3,0,0,1-1.3-1.3h0a1.31,1.31,0,0,1,1.3-1.31h33.91a1.31,1.31,0,0,1,1.31,1.31h0A1.31,1.31,0,0,1,233.31,86.23Z"/><path class="cls-1" d="M351,107.73h-49.3a1.31,1.31,0,0,1-1.31-1.31h0a1.31,1.31,0,0,1,1.31-1.31H351a1.31,1.31,0,0,1,1.31,1.31h0A1.31,1.31,0,0,1,351,107.73Z"/><path class="cls-1" d="M351,115.47h-49.3a1.31,1.31,0,0,1-1.31-1.31h0a1.31,1.31,0,0,1,1.31-1.31H351a1.31,1.31,0,0,1,1.31,1.31h0A1.31,1.31,0,0,1,351,115.47Z"/><rect class="cls-1" x="300.36" y="120.59" width="36.52" height="2.62" rx="0.55"/><rect class="cls-17" x="64.56" y="63.72" width="12.91" height="12.39" rx="2.59"/><rect class="cls-17" x="64.56" y="78.66" width="12.91" height="12.39" rx="2.59"/><rect class="cls-17" x="83.76" y="63.78" width="12.79" height="12.27" rx="2.59"/><rect class="cls-17" x="83.12" y="78.66" width="12.91" height="12.39" rx="2.59"/><rect class="cls-17" x="101.57" y="63.72" width="12.91" height="12.39" rx="2.59"/><g class="cls-14"><rect class="cls-13" x="101.57" y="78.66" width="12.91" height="12.39" rx="2.59"/></g><rect class="cls-17" x="120.42" y="63.78" width="12.79" height="12.27" rx="2.59"/><g class="cls-14"><rect class="cls-13" x="120.12" y="78.66" width="12.91" height="12.39" rx="2.59"/></g><rect class="cls-17" x="138.79" y="63.78" width="12.79" height="12.27" rx="2.59"/><g class="cls-14"><rect class="cls-13" x="138.67" y="78.66" width="12.91" height="12.39" rx="2.59"/></g><path class="cls-15" d="M210.91,156l9.61-7.94a.42.42,0,0,0,0-.68h0a.66.66,0,0,0-.82,0l-9.62,7.94-9.61-7.94a.68.68,0,0,0-.83,0h0a.43.43,0,0,0,0,.68l9.62,7.94-9.62,7.94a.43.43,0,0,0,0,.68h0a.68.68,0,0,0,.83,0l9.61-7.94,9.62,7.94a.66.66,0,0,0,.82,0h0a.42.42,0,0,0,0-.68Z"/><g class="cls-2"><path class="cls-3" d="M263.22,156l9.61-7.94a.42.42,0,0,0,0-.68h0a.66.66,0,0,0-.82,0l-9.62,7.94-9.61-7.94a.66.66,0,0,0-.82,0h0a.43.43,0,0,0,0,.68l9.62,7.94L252,163.89a.43.43,0,0,0,0,.68h0a.66.66,0,0,0,.82,0l9.61-7.94,9.62,7.94a.66.66,0,0,0,.82,0h0a.42.42,0,0,0,0-.68Z"/></g><g class="cls-2"><circle class="cls-3" cx="181.39" cy="77.2" r="11.69"/></g><path class="cls-6" d="M179,79.77a.72.72,0,0,0-.3-1.13c-.85-.39-.49-1.33-.59-2.75a11.62,11.62,0,0,0-.7-3.87c-.61-1.65.34-2.6,1-2.53a1.92,1.92,0,0,0,1.84-.83,1.31,1.31,0,0,1,2.13,0c.89.88.84.62,1.4.48,1-.26,2,2.23,1.34,3.75s-1,.93-.95,1.77-.48,2.26.07,3.32-1.41,1.65-1.41,1.65Z"/><path class="cls-18" d="M176.9,81.43a6.55,6.55,0,0,0,2.47-3.14V76.71h3.92v1.46a7.53,7.53,0,0,0,2.25,3C187,82.21,178.69,83.33,176.9,81.43Z"/><path class="cls-19" d="M183.85,79.28a8.2,8.2,0,0,1-.56-1.11V76.71h-2.52l-1.4.39v1.19a7,7,0,0,1-2,2.82l.9.43s1-2.13,1.46-1.68S181.88,81,183.85,79.28Z"/><path class="cls-18" d="M177.57,73.49s.28,6.14,3.63,6.14S185,74,184.92,73.49a3.67,3.67,0,0,0-3.26-4C178.13,68.83,177.57,73.49,177.57,73.49Z"/><path class="cls-18" d="M184.27,72.93s1.4-1.31,1.3.46-1.3,1.87-1.3,1.87Z"/><path class="cls-18" d="M178.31,72.93s-1.39-1.31-1.3.46,1.3,1.87,1.3,1.87Z"/><path class="cls-6" d="M184,73.12c.19.3.63-.49.88-.58A2.19,2.19,0,0,0,184.3,70c-1-.67-3.59-1.46-5.05-.45a4,4,0,0,0-1.48,3,1.25,1.25,0,0,1,.47.69c.12.44.34-.79,1-1.13a3.44,3.44,0,0,0,2.17.27A2.1,2.1,0,0,1,184,73.12Z"/><path class="cls-6" d="M182.43,74.29a.21.21,0,0,1-.27.07.2.2,0,0,1-.08-.27.21.21,0,0,1,.27-.07A.2.2,0,0,1,182.43,74.29Z"/><path class="cls-6" d="M183,73.07h0a1,1,0,0,0-.95,0,.05.05,0,0,1-.08,0,.05.05,0,0,1,0-.08,1.12,1.12,0,0,1,1.06,0,.05.05,0,0,1,0,.07A.05.05,0,0,1,183,73.07Z"/><path class="cls-6" d="M180.11,74.29a.19.19,0,0,0,.26.07.2.2,0,0,0,.08-.27.21.21,0,0,0-.27-.07A.19.19,0,0,0,180.11,74.29Z"/><path class="cls-6" d="M179.49,72.91a0,0,0,0,0,0,0,1,1,0,0,1,.95.12.06.06,0,0,0,.08,0,.06.06,0,0,0,0-.08,1.11,1.11,0,0,0-1.06-.13.06.06,0,0,0,0,.07A.05.05,0,0,0,179.49,72.91Z"/><path class="cls-19" d="M181.33,75.78a.57.57,0,0,0-.08-.13.67.67,0,0,1-.16-.41c0-.25.42.47.62.93.12.3-.15.56-.59.42s.23-.1.35-.21S181.4,75.94,181.33,75.78Z"/><path class="cls-3" d="M177.21,80.7l.72-.52a6.24,6.24,0,0,0,3.8,1.13c2.31,0,3-1.07,3-1.07l.62.46-2.21,1.49a14.82,14.82,0,0,1-2.88.31l-2.52-1.08Z"/><path class="cls-16" d="M190.4,84.65a38.9,38.9,0,0,0-5.09-4.23A5.65,5.65,0,0,1,182,81.88a7.57,7.57,0,0,1-4.61-1.4,26.28,26.28,0,0,0-5.47,3.5,11.69,11.69,0,0,0,18.53.67Z"/><g class="cls-2"><circle class="cls-3" cx="158.16" cy="156.15" r="15.99"/></g><path class="cls-6" d="M166.24,154.87a5.24,5.24,0,0,0-1.54-6.4c-1.38-1,.31-3.47-1.73-5-2.62-2-3.64.51-6.6-.1s-4.45,2.66-4.45,2.66c-3.48,1.07-3.17,5-1.64,7.52s-3.11,5.65-7.26,5.83l-.52,0a16.06,16.06,0,0,0,3.06,6.58c.71-.33,1.46-.7,2.26-1.12,6.74-3.57,18.93-1.61,18.93-1.61C168.9,159.47,165.39,156.73,166.24,154.87Z"/><path class="cls-18" d="M152.81,161.16a8.5,8.5,0,0,0,3.22-4.1V155h5.14v1.91a9.75,9.75,0,0,0,2.93,4C166,162.19,155.15,163.65,152.81,161.16Z"/><path class="cls-19" d="M161.9,158.36a9.71,9.71,0,0,1-.73-1.45V155h-3.3l-1.84.51v1.55a9.2,9.2,0,0,1-2.64,3.69l1.18.56s1.32-2.79,1.9-2.2S159.32,160.54,161.9,158.36Z"/><path class="cls-18" d="M153.68,150.79s.37,8,4.75,8,5-7.43,4.86-8,.37-4.38-4.25-5.23S153.68,150.79,153.68,150.79Z"/><path class="cls-18" d="M162.44,150.06s1.83-1.71,1.71.61-1.71,2.43-1.71,2.43Z"/><path class="cls-18" d="M154.66,150.06s-1.83-1.71-1.71.61,1.71,2.43,1.71,2.43Z"/><path class="cls-6" d="M162.05,150.31c.44.14.83-.64,1.14-.76s.61-2.46-.7-3.34-4.7-1.91-6.6-.59a5.29,5.29,0,0,0-1.94,3.95,1.6,1.6,0,0,1,.62.89c.14.59.31-.76,1.32-1.47a2.57,2.57,0,0,1,2.42-.26c1.1.47,1.59-.36,2.46.15S161.53,150.16,162.05,150.31Z"/><path class="cls-6" d="M160,152.06a.25.25,0,1,1-.44-.25.24.24,0,0,1,.34-.1A.25.25,0,0,1,160,152.06Z"/><path class="cls-6" d="M161,150.12l-.05,0a1.34,1.34,0,0,0-1.23-.22.06.06,0,0,1-.09,0,.1.1,0,0,1,0-.1,1.5,1.5,0,0,1,1.38.25.08.08,0,0,1,0,.1Z"/><path class="cls-6" d="M157,152.06a.26.26,0,1,0,.45-.25.26.26,0,0,0-.45.25Z"/><path class="cls-6" d="M156,150l0,0a1.33,1.33,0,0,1,1.23-.21.07.07,0,0,0,.09-.05.06.06,0,0,0,0-.09,1.46,1.46,0,0,0-1.37.24.06.06,0,0,0,0,.1A.06.06,0,0,0,156,150Z"/><path class="cls-6" d="M156.66,153.56a1.63,1.63,0,1,1,1.67-1.63A1.65,1.65,0,0,1,156.66,153.56Zm0-3.07a1.45,1.45,0,1,0,1.48,1.44A1.47,1.47,0,0,0,156.66,150.49Z"/><path class="cls-6" d="M160.33,153.7a1.62,1.62,0,1,1,1.66-1.62A1.64,1.64,0,0,1,160.33,153.7Zm0-3.06a1.44,1.44,0,1,0,1.48,1.44A1.46,1.46,0,0,0,160.33,150.64Z"/><path class="cls-6" d="M158.18,151.92l0-.14a1.05,1.05,0,0,1,.64,0l-.07.12A1,1,0,0,0,158.18,151.92Z"/><path class="cls-19" d="M158.6,153.78a.86.86,0,0,0-.1-.16.87.87,0,0,1-.21-.55c0-.33.55.62.8,1.23.16.38-.19.72-.77.54s.31-.13.46-.27S158.7,154,158.6,153.78Z"/><path class="cls-9" d="M145.14,165.42a16,16,0,0,0,25.76.4,52.44,52.44,0,0,0-7.1-6,9.26,9.26,0,0,1-10.42.09A35.74,35.74,0,0,0,145.14,165.42Z"/><g class="cls-7"><path class="cls-6" d="M166,142.21a16,16,0,0,1-14.27,28.59A16,16,0,1,0,166,142.21Z"/></g><path class="cls-5" d="M153.3,231.1l-25.82-12.73,24.78-12.22-1.66-3.35-27.34,13.49L95.91,202.8l-1.65,3.35L119,218.37,93.22,231.1v5.6L119,249.43,93.22,262.17v3.6L119,278.5,94.26,290.72l1.65,3.35,27.35-13.49,27.34,13.49,1.66-3.35L127.48,278.5l25.82-12.73v-3.6l-25.82-12.74L153.3,236.7ZM148.5,264l-25.24,12.44L98,264l25.24-12.45Zm1.06-29.59-26.3,13-26.3-13v-.95l26.3-13,26.3,13Z"/><polygon class="cls-5" points="132.25 211.86 140.69 211.86 152.26 206.15 150.6 202.8 132.25 211.86"/><polygon class="cls-5" points="95.92 202.8 94.26 206.15 105.82 211.86 114.27 211.86 95.92 202.8"/><polygon class="cls-5" points="118.64 282.86 110.19 282.86 94.26 290.72 95.92 294.07 118.64 282.86"/><polygon class="cls-5" points="150.6 294.07 152.26 290.72 136.32 282.86 127.87 282.86 150.6 294.07"/><rect class="cls-16" x="85.75" y="164.09" width="3.74" height="28.84"/><rect class="cls-16" x="152.15" y="164.14" width="3.74" height="28.84"/><rect class="cls-16" x="85.75" y="164.09" width="3.74" height="3.69"/><rect class="cls-16" x="152.15" y="164.14" width="3.74" height="3.64"/><circle class="cls-5" cx="94.42" cy="263.84" r="3.69"/><circle class="cls-5" cx="94.42" cy="263.84" r="1.66"/><circle class="cls-5" cx="94.42" cy="233.56" r="3.69"/><circle class="cls-5" cx="94.42" cy="233.56" r="1.66"/><circle class="cls-5" cx="152.39" cy="233.56" r="3.69"/><circle class="cls-5" cx="152.39" cy="233.56" r="1.66"/><circle class="cls-5" cx="152.39" cy="263.84" r="3.69"/><ellipse class="cls-5" cx="152.94" cy="263.84" rx="1.1" ry="1.66"/><rect class="cls-5" x="79.71" y="287.65" width="82.79" height="9.58" rx="2"/><rect class="cls-16" x="152.15" y="187.04" width="3.74" height="5.94"/><rect class="cls-16" x="85.75" y="187.04" width="3.74" height="5.89"/><rect class="cls-5" x="79.71" y="188.96" width="82.79" height="18.11" rx="3.79"/><path class="cls-1" d="M283.94,123.16a10,10,0,0,1,0-20v3a7,7,0,1,0,7,7h2.95A10,10,0,0,1,283.94,123.16Z"/><path class="cls-5" d="M293.43,113.18h-2a7.53,7.53,0,0,0-7.52-7.53v-2A9.5,9.5,0,0,1,293.43,113.18Z"/><polygon class="cls-18" points="332.39 219.3 335.01 219.1 336.25 219.51 336.98 216.01 335.55 215.96 333.21 214.94 332.39 219.3"/><path class="cls-6" d="M339.46,226.88c-.12.73-.51,1.08-1.23.91s-1-1.64-.9-2.56a10.76,10.76,0,0,0-1.69-5.61.51.51,0,0,1-.06-.43A7.76,7.76,0,0,0,336,216a.49.49,0,0,1,.49-.54l3.62.05a1.1,1.1,0,0,1,1.07,1.29Z"/><path class="cls-20" d="M338,222.07h0a1.43,1.43,0,0,1-1.2.78.09.09,0,0,1,0-.18,1.28,1.28,0,0,0,1-.68.08.08,0,0,1,.12,0A.1.1,0,0,1,338,222.07Z"/><path class="cls-20" d="M337.51,220.67h0a1.49,1.49,0,0,1-1.2.79.09.09,0,0,1-.09-.09.08.08,0,0,1,.08-.1,1.24,1.24,0,0,0,1-.68.11.11,0,0,1,.13,0A.08.08,0,0,1,337.51,220.67Z"/><path class="cls-20" d="M338.33,223.68v0a1.44,1.44,0,0,1-1.2.78.09.09,0,0,1-.09-.09.1.1,0,0,1,.09-.1h0a1.24,1.24,0,0,0,1-.68.1.1,0,0,1,.12,0A.1.1,0,0,1,338.33,223.68Z"/><path class="cls-5" d="M314,190.76s-1.75,13.45,2.71,17.4,16.35,3.75,16.72,6.2-1.44,6.1-1.44,6.1-20.91,2.51-25.94-1.17-9.71-20.19-9.71-20.19Z"/><path class="cls-5" d="M332.74,218.76c-5.49.18-24.71.23-25.58-8.23-.45-4.41,3.71-7.84,6.76-9.73a41.16,41.16,0,0,1-.18-6.18l-2-2.79-15.38,7.27s4.68,16.51,9.71,20.19S332,220.46,332,220.46A17.31,17.31,0,0,0,332.74,218.76Z"/><polygon class="cls-18" points="274.98 219.74 275.83 222.22 275.75 223.52 279.33 223.33 279.01 221.95 279.4 219.42 274.98 219.74"/><path class="cls-6" d="M269.45,228.51c-.74.07-1.18-.22-1.2-1s1.34-1.35,2.25-1.53a10.78,10.78,0,0,0,5-3.06.47.47,0,0,1,.39-.16,7.71,7.71,0,0,0,3.25-.4.5.5,0,0,1,.65.34l.87,3.51a1.1,1.1,0,0,1-1,1.37Z"/><path class="cls-20" d="M273.71,225.83h0a1.43,1.43,0,0,1-1.06-1,.09.09,0,0,1,.17-.05,1.29,1.29,0,0,0,.93.84.08.08,0,0,1,.07.1A.1.1,0,0,1,273.71,225.83Z"/><path class="cls-20" d="M275,225h0a1.44,1.44,0,0,1-1.06-1,.09.09,0,0,1,.17-.05,1.26,1.26,0,0,0,.93.83.09.09,0,0,1,.07.11A.1.1,0,0,1,275,225Z"/><path class="cls-20" d="M272.25,226.6h0a1.47,1.47,0,0,1-1.07-1,.11.11,0,0,1,.07-.12.09.09,0,0,1,.11.07h0a1.27,1.27,0,0,0,.92.83.09.09,0,0,1,.07.11A.1.1,0,0,1,272.25,226.6Z"/><path class="cls-5" d="M310.26,184.63s-14.26-1.21-27.72,4.51c-15,6.37-9.19,30.52-9.19,30.52,1.85.52,8.37,1.85,8.84-4.37.42-5.55,2.91-12.26,13.19-13.5s15.85-1.73,18.28-4.21c5.24-5.35,2.95-14.07,2.95-14.07Z"/><path class="cls-5" d="M313.66,197.58c5.24-5.35,2.95-14.07,2.95-14.07l-6.35,1.12a66.5,66.5,0,0,0-16.9,1.22,52,52,0,0,0,15,3.86c7.42.69,6.13,5.95,4.13,8.76A6.16,6.16,0,0,0,313.66,197.58Z"/><path class="cls-1" d="M285.76,159.46c-4.22.21-8.26.74-8.26.74s-1-.46-2.09-.83-3.32-.47-3.17.18,1,.26,1.64.7c.26.19.55.46.48.65s-.61.35-2.12.18c-3.34-.37-4.06,1.67-.87,2.14a16.16,16.16,0,0,0,4,0,12.25,12.25,0,0,0,1.83-.32A68.74,68.74,0,0,0,286,165.3Z"/><path class="cls-1" d="M293.38,157.11c-4.17,1.94-8.9.72-12.52,2.29l-1.37,5s8.54,4.1,16.47,2.85a21.7,21.7,0,0,0,3-.69Z"/><circle class="cls-13" cx="265.48" cy="165.11" r="13.68"/><g class="cls-14"><circle class="cls-3" cx="265.48" cy="165.11" r="13.68"/></g><g class="cls-7"><path class="cls-6" d="M280.64,161.12A14.45,14.45,0,0,0,256.33,155a13.67,13.67,0,1,1,1.76,21.67,14.46,14.46,0,0,0,22.55-15.5Z"/></g><path class="cls-6" d="M263.54,168.78a.84.84,0,0,0-.7-1.18c-1.07-.18-1-1.35-1.53-2.92a13.48,13.48,0,0,0-2-4.14c-1.21-1.66-.44-3,.33-3.16a2.25,2.25,0,0,0,1.8-1.52,1.55,1.55,0,0,1,2.41-.68c1.29.72,1.14.45,1.73.11,1.08-.61,2.93,1.88,2.69,3.8s-.87,1.38-.52,2.3.18,2.69,1.13,3.71-1.07,2.31-1.07,2.31Z"/><path class="cls-18" d="M261.75,171.29a7.7,7.7,0,0,0,1.79-4.32l-.5-1.77,4.43-1.24.46,1.65a8.78,8.78,0,0,0,3.48,2.71C273.38,169,264.37,172.87,261.75,171.29Z"/><path class="cls-19" d="M268.91,166.68a9.82,9.82,0,0,1-1-1.07l-.46-1.65-2.84.8-1.46.88.37,1.33a8.07,8.07,0,0,1-1.4,3.82l1.16.2s.47-2.72,1.11-2.36S267.21,169.18,268.91,166.68Z"/><path class="cls-18" d="M260,162.13s2.25,6.84,6,5.78,2.51-7.6,2.26-8.1-.74-3.86-4.93-3.49S260,162.13,260,162.13Z"/><path class="cls-18" d="M267.38,159.39s1.17-1.91,1.62.11-.89,2.51-.89,2.51Z"/><path class="cls-18" d="M260.66,161.26s-2-1-1.32.94,2.06,1.69,2.06,1.69Z"/><path class="cls-6" d="M267.1,159.7c.31.28.56-.75.81-.93a2.55,2.55,0,0,0-1.42-2.71c-1.35-.45-4.51-.52-5.83,1.08a4.74,4.74,0,0,0-.73,3.87,1.42,1.42,0,0,1,.75.62c.27.47.14-1,.79-1.58a4,4,0,0,0,2.52-.39A2.47,2.47,0,0,1,267.1,159.7Z"/><path class="cls-6" d="M265.73,161.5a.23.23,0,0,1-.28.17.23.23,0,1,1,.28-.17Z"/><path class="cls-6" d="M266,159.94H266a1.21,1.21,0,0,0-1.06.34.07.07,0,0,1-.1,0,.07.07,0,0,1,0-.09,1.35,1.35,0,0,1,1.19-.38.07.07,0,0,1,.05.08A.09.09,0,0,1,266,159.94Z"/><path class="cls-6" d="M263.11,162.23a.24.24,0,0,0,.33,0,.22.22,0,0,0,0-.32.24.24,0,0,0-.33,0A.22.22,0,0,0,263.11,162.23Z"/><path class="cls-6" d="M262,160.88l0,0a1.25,1.25,0,0,1,1.11-.17.06.06,0,0,0,.08,0s0-.08,0-.09a1.33,1.33,0,0,0-1.23.19.06.06,0,0,0,0,.09A.05.05,0,0,0,262,160.88Z"/><path class="cls-19" d="M265,163.53a1.36,1.36,0,0,0-.12-.12.84.84,0,0,1-.32-.42c-.06-.29.63.4,1,.86.23.29,0,.67-.53.65s.23-.18.33-.34S265.1,163.69,265,163.53Z"/><path class="cls-3" d="M261.87,170.37l.65-.81a7.33,7.33,0,0,0,4.64.08c2.58-.78,3.07-2.17,3.07-2.17l.84.33-2,2.37a17,17,0,0,1-3.14,1.26l-3.18-.43Z"/><path class="cls-9" d="M278,170.68a46.24,46.24,0,0,0-7.07-3.18,6.55,6.55,0,0,1-3.33,2.7,8.87,8.87,0,0,1-5.64-.11,30.89,30.89,0,0,0-5.06,5.65,13.69,13.69,0,0,0,21.1-5.06Z"/><path class="cls-18" d="M292.49,149.39s.4-6,.05-6.65-1.28,1-1.81.07-.52-2.07-1.3-2.06-1.35,0-.9-.8-.25-1.23-.4-2.1a3.37,3.37,0,0,1,.25-2c.24-.62.74-1.64,3.68-1.8s4.38.74,4.41,2.43a12.46,12.46,0,0,0,1.41,5,14.74,14.74,0,0,0,2.57,3s-2.51,3.67-4,4.25A14.78,14.78,0,0,1,292.49,149.39Z"/><path class="cls-6" d="M289.34,138.47a.18.18,0,0,1-.22.14.18.18,0,0,1-.15-.22.19.19,0,0,1,.23-.15A.18.18,0,0,1,289.34,138.47Z"/><path class="cls-6" d="M289.57,137.89h0a1,1,0,0,0-.93.12,0,0,0,0,1-.06-.08,1.07,1.07,0,0,1,1-.14.05.05,0,0,1,0,.07A.05.05,0,0,1,289.57,137.89Z"/><path class="cls-19" d="M292.22,142.58a8.54,8.54,0,0,0,1.26-1.15c.52-.62-.33,1.61-.82,2.06C292.66,143.49,292.64,142.48,292.22,142.58Z"/><path class="cls-1" d="M292.12,147.28s-6.92,15.64-.31,39.19c0,0,14.65,4.62,25.69-1.49,0,0,1.63-25.61-17.47-41.58C300,143.4,298.05,145,292.12,147.28Z"/><path class="cls-6" d="M297.51,139.19a1.43,1.43,0,0,1,0,.22c-.32,1.1-1.15.68-1.84.13s-.75-.36-1.67.29c-.72.51-.89-.63-.93-1.13a1,1,0,0,1,.05-.39c.24-.71.38-2-.22-2a.56.56,0,0,0-.55.31.89.89,0,0,1-.83.5c-.71,0-.37-.92-1.06-1.26-.5-.25-1.07.48-1.71,1.09a1.64,1.64,0,0,1-2.61-.49,1,1,0,0,1,.52-1.39c2.32-1.25-.08-3,2.8-2.78,1,.07,1.23.38,1.89-.54s1.49-1.9,2.74-1.23.6,1.59,1.89,1.66a2,2,0,0,1,1.61,2.69c-.41,1-.82,1.78-.37,2.38A3.62,3.62,0,0,1,297.51,139.19Z"/><path class="cls-18" d="M283.48,168.32c-4,1.28-7.8,2.81-7.8,2.81a20.44,20.44,0,0,0-2.24-.27c-1.16-.08-3.32.38-3,1s1.06,0,1.76.27c.3.11.65.3.63.51s-.51.48-2,.7c-3.33.49-3.5,2.65-.3,2.29a15.41,15.41,0,0,0,3.92-1,12.83,12.83,0,0,0,1.69-.77,69.69,69.69,0,0,0,9,.07Z"/><path class="cls-1" d="M292.12,147.28c2.2-.86,3.86-1.62,5.08-2.23-.2.11-1.95,1.26-.75,8.5,1.28,7.65,8.25,4,8.25,4s1.85,8.07-4.56,13.91c-6.94,6.32-3.27,9.8,1.16,10.79,3.79.84,9.49.62,16.1-2.46a41.17,41.17,0,0,1,.1,5.14c-11,6.11-25.69,1.49-25.69,1.49C285.2,162.92,292.12,147.28,292.12,147.28Z"/><polygon class="cls-1" points="297.21 145.04 297.21 145.04 297.21 145.04 297.21 145.04"/><path class="cls-1" d="M301.34,147.41a5.7,5.7,0,0,0-3.73-.26c-2.35.79-5.41,4.95-6.52,10.4-1.59,7.78-8.77,9-12.5,11.55l.63,5.47s8.44.3,15.08-3.29C303.76,166.17,308,150.6,301.34,147.41Z"/><path class="cls-4" d="M359.64,295.71l-22.22-62.25H343a1.75,1.75,0,0,0,1.75-1.75v-1.94A1.74,1.74,0,0,0,343,228H264.17a1.75,1.75,0,0,0-1.75,1.74v1.94a1.76,1.76,0,0,0,1.75,1.75H271l-22.21,62.25a1.77,1.77,0,0,0,.85,2.21,1.45,1.45,0,0,0,.56.12,1.53,1.53,0,0,0,1.42-1.08l22.67-63.5H291l11.6,32.5-10.62,29.75a1.77,1.77,0,0,0,.86,2.21,1.38,1.38,0,0,0,.56.12,1.54,1.54,0,0,0,1.42-1.08l9.42-26.4,9.43,26.4A1.53,1.53,0,0,0,315,298a1.45,1.45,0,0,0,.56-.12,1.77,1.77,0,0,0,.85-2.21l-3.71-10.41h39.9L356.8,297a1.55,1.55,0,0,0,1.42,1.08,1.46,1.46,0,0,0,.57-.12A1.78,1.78,0,0,0,359.64,295.71Zm-61.76-52h12.63l-3.74,10.48h-5.15Zm15.92,0h24l3.74,10.48H310.05Zm22.76-3.4H315l2.43-6.8h16.7Zm-22.41-6.8-2.43,6.8H296.66l-2.42-6.8Zm-11.32,24.08h2.73l-1.37,3.82Zm6,0h33.89L346.47,268h-39.9l-.73-2.06Zm2.69,24.36-3.75-10.48h39.9l3.75,10.48Z"/><polygon class="cls-18" points="113.93 181.91 111.35 183.07 110.65 183.93 108.25 181.48 109.25 180.73 110.67 178.61 113.93 181.91"/><path class="cls-6" d="M111.85,191.51c.48.53,1,.6,1.46.1s-.07-1.82-.59-2.53a10.24,10.24,0,0,1-1.53-5.38.45.45,0,0,0-.18-.37,7.49,7.49,0,0,1-2-2.38.47.47,0,0,0-.68-.18l-2.89,1.9a1,1,0,0,0-.19,1.59Z"/><path class="cls-20" d="M110.59,186.86h0a1.35,1.35,0,0,0,1.36,0,.08.08,0,0,0,0-.12.09.09,0,0,0-.12,0,1.16,1.16,0,0,1-1.18,0,.09.09,0,0,0-.12,0A.07.07,0,0,0,110.59,186.86Z"/><path class="cls-20" d="M110.22,185.51h0a1.38,1.38,0,0,0,1.37,0,.09.09,0,0,0,0-.12.1.1,0,0,0-.12,0,1.2,1.2,0,0,1-1.19,0,.09.09,0,0,0-.12,0A.09.09,0,0,0,110.22,185.51Z"/><path class="cls-20" d="M111.12,188.35h0a1.35,1.35,0,0,0,1.36,0,.08.08,0,0,0,0-.12.09.09,0,0,0-.12,0h0a1.16,1.16,0,0,1-1.18,0,.09.09,0,0,0-.12,0A.07.07,0,0,0,111.12,188.35Z"/><path class="cls-1" d="M114.15,182.57s23.9-15.85,26.44-28.34,1.76-20.36,1.76-20.36l-17.6-5s-1.9,7.09-.41,18.82c.33,2.66.91,5.09.68,8a9.58,9.58,0,0,1-2.42,5.6C119.33,165,112.25,173,111,175.13,109.33,178,110.19,179.56,114.15,182.57Z"/><path class="cls-1" d="M140.59,154.23c.12-.6.23-1.18.34-1.76L132.51,140l-8.72-2.78a68.56,68.56,0,0,0,.55,10.5c.16,1.28.38,2.51.53,3.76a19.49,19.49,0,0,1,4,7.42c1.43,6-7.62,15.56-18.28,20.17a12.65,12.65,0,0,0,3.55,3.51S138.05,166.72,140.59,154.23Z"/><path class="cls-19" d="M149.28,126.45a61.27,61.27,0,0,0,7.92,3s1.7,5,4.3,5.4c2.27.33,1.28-1-.39-3.22s-1.35-2.55-.41-2.37,1.09.6,1.42.3-.92-1.47-1.83-1.75a8.26,8.26,0,0,0-2-.3s-3.46-3.22-6.71-5.6Z"/><path class="cls-9" d="M149.53,117.71c-.8-.81-1.64-3.25-2-4.4a7.14,7.14,0,0,1-.31-1.12c-1.6-10-14.34-11.52-14.72-2.5-.38,9.17,11.59,14.66,11.59,14.66a94.83,94.83,0,0,0,9.4,4.51l2.65-3.85S152.69,120.9,149.53,117.71Z"/><polygon class="cls-18" points="146.68 184.7 145.56 187.3 145.63 188.41 142.21 188.24 142.44 187 142.04 184.49 146.68 184.7"/><path class="cls-6" d="M151.66,193.18c.7.06,1.12-.22,1.13-.93s-1.28-1.29-2.14-1.45a10.32,10.32,0,0,1-4.78-2.92.45.45,0,0,0-.38-.16,7.39,7.39,0,0,1-3.1-.37.46.46,0,0,0-.62.32l-.83,3.35a1.05,1.05,0,0,0,.93,1.31Z"/><path class="cls-20" d="M147.58,190.61h0a1.38,1.38,0,0,0,1-.92.1.1,0,0,0-.06-.11.1.1,0,0,0-.11.06,1.17,1.17,0,0,1-.88.8.07.07,0,0,0-.06.1C147.49,190.59,147.53,190.61,147.58,190.61Z"/><path class="cls-20" d="M146.39,189.86h0a1.38,1.38,0,0,0,1-.92.09.09,0,0,0-.06-.1.08.08,0,0,0-.11.06,1.23,1.23,0,0,1-.88.79.09.09,0,0,0-.07.11A.08.08,0,0,0,146.39,189.86Z"/><path class="cls-20" d="M149,191.35h0a1.39,1.39,0,0,0,1-.92.09.09,0,0,0-.06-.11.09.09,0,0,0-.11.06h0a1.17,1.17,0,0,1-.88.8.08.08,0,0,0-.06.1A.08.08,0,0,0,149,191.35Z"/><path class="cls-1" d="M147.45,185.16s4.77-22.34,2.49-34-3.73-17.64-3.73-17.64l-20.77.39s-2.36,6.58,3.48,16.09c3.78,6.15,7.06,8.24,8.13,11.58,0,0,3.7,15.77,3.71,20.32C140.77,184.94,141.9,185.52,147.45,185.16Z"/><path class="cls-18" d="M144.8,88a5.22,5.22,0,0,0-.39,3.07A3.71,3.71,0,0,1,142.25,96c-2,.82-4-2.2-2.16-5.66S144.8,88,144.8,88Z"/><path class="cls-18" d="M143,94a7.47,7.47,0,0,0-.54,2.8,14,14,0,0,0,.86,3l-7.11-1.73s3.25-3.61,3.55-6S143,94,143,94Z"/><path class="cls-5" d="M143.44,98.59a18.77,18.77,0,0,1-7.22-1.51A44.39,44.39,0,0,0,126,114c-4.23,12.3-3.12,28.35-3.12,28.35,8.71,2.44,26,.54,26,.54,2.19-10.92-.26-28-.26-28a103.54,103.54,0,0,0-4.38-14.37Z"/><path class="cls-5" d="M140,143.52c5-.2,8.8-.62,8.8-.62,2.19-10.92-.26-28-.26-28a103.54,103.54,0,0,0-4.38-14.37l-.75-1.94a18.77,18.77,0,0,1-7.22-1.51,44.26,44.26,0,0,0-10.2,16.8C132.45,117,145.63,125.68,140,143.52Z"/><path class="cls-5" d="M173,110.3a9.41,9.41,0,0,1-1.91-.14c-.87-.19-.75-.56-.26-1,.74-.66,1.16-.51,1.13-1s-1.77-.17-2.56.39A8.43,8.43,0,0,0,168,110s-3.3.56-6.69,1.41l1.87,4.31a53.71,53.71,0,0,0,5.69-3.61,21.14,21.14,0,0,0,2.17.32,10,10,0,0,0,4.86-.46C178.29,110.83,175.84,110.3,173,110.3Z"/><path class="cls-5" d="M154.46,120.73a16,16,0,0,1-7.3.41c-4.35-.77-10.71-3.18-13.09-8-4.56-9.19,4.24-15.72,10.65-8.38,0,0,4.51,6.19,6,6.06a101.49,101.49,0,0,1,12.69-.91l2.24,5.27A31.61,31.61,0,0,1,154.46,120.73Z"/><path class="cls-6" d="M141.87,94.47a3.34,3.34,0,0,0,1.74-3.62c-.08-1.09-.2-1.78.8-2.22a3.26,3.26,0,0,0,1-.9c1-1.44-.48-3.69-2.25-3.69-1.51,0-1.74,1.23-3,.54-1.45-.79-4.54.08-4.07,2.9,0,0-.3,2.4-3.31,2.49s-5.3,2.38-4.77,4.77a4.86,4.86,0,0,1-3.27,5.83c-2.74,1-6,2.74-5.39,6.63s4.25,4,2,7.42,1.5,6.27,4.42,5.3,3.62-4.86,6.18-2.3a4,4,0,0,0,6.63-3.88c-.8-4.25-2.12-6,1.32-7.6s2.51-5.38,1.33-7.16S139.66,95.7,141.87,94.47Z"/><rect class="cls-16" x="79.71" y="161.07" width="82.79" height="4.79" rx="1"/><path class="cls-19" d="M194.82,251.73a21.55,21.55,0,0,1,2.23-.79c.15,0,.31-.08.49-.11a7.22,7.22,0,0,1,1-.11c1-.05,2,.09,1.88.54s-1.1.24-1.75.67a1.66,1.66,0,0,0-.44.38c-.29.36-.1.72,2.13.56,3.53-.25,4.2,1.93.83,2.29a16.72,16.72,0,0,1-6.17-.53,72.76,72.76,0,0,1-9.29,2.12l.45-6.13C190.58,251,194.82,251.73,194.82,251.73Z"/><path class="cls-5" d="M163.78,238.7c1-.74,2.62-4.41,3.81-4,2.34.75,4.15,1.64,6.65,7,3.58,7.62,11.87,7.15,16.61,8.86l.71,6.75s-9.69,2-17.72-.7C164.05,253.3,157.1,243.58,163.78,238.7Z"/><path class="cls-5" d="M172.41,254.47l2.75-11.19c2.52,3.79,6.45,5,10.1,5.86a11,11,0,0,0,6,5.24l.3,2.87s-8.49,1.72-16.17-.25Z"/><path class="cls-5" d="M168.11,234.6c.8,0,1.68,0,2.64,0,0,0,13.75,11.78,19.65,36.24a59.55,59.55,0,0,1-9.58,8Z"/><polygon class="cls-18" points="206.4 287.07 204.51 292.17 204.55 293.61 200.88 293.84 201.15 292.21 201.31 286.7 206.4 287.07"/><path class="cls-15" d="M210.75,300.56c.8.18,1.31-.07,1.44-.87s-1.26-1.67-2.22-2a11.89,11.89,0,0,1-5-4.06.48.48,0,0,0-.4-.23,7.78,7.78,0,0,1-3.3-.86c-.28-.16-.66.1-.78.4l-1.22,3.72c-.28.69.5,1.43,1.22,1.6Z"/><path class="cls-20" d="M206.5,297h0a1.58,1.58,0,0,0,1.29-.89.11.11,0,0,0-.05-.14.1.1,0,0,0-.13.06,1.39,1.39,0,0,1-1.13.77.1.1,0,0,0-.09.1A.11.11,0,0,0,206.5,297Z"/><path class="cls-20" d="M205.27,296h0a1.56,1.56,0,0,0,1.29-.89.1.1,0,0,0-.18-.08,1.41,1.41,0,0,1-1.13.77.1.1,0,0,0-.09.11A.09.09,0,0,0,205.27,296Z"/><path class="cls-20" d="M208,298.07h0a1.56,1.56,0,0,0,1.29-.89.09.09,0,0,0,0-.13.1.1,0,0,0-.13.05h0a1.37,1.37,0,0,1-1.13.77.1.1,0,0,0-.09.11A.11.11,0,0,0,208,298.07Z"/><path class="cls-4" d="M185.29,272.44s14-11.58,22.41-9.63,7.5,15.74-.93,28.06c0,0-6.29-.19-6.67-2.32s1.76-5.65-3.33-7.22S185.29,272.44,185.29,272.44Z"/><path class="cls-4" d="M197.14,280.77l14.14,1.77a43.75,43.75,0,0,1-3.08,6.11,19.09,19.09,0,0,0-8-2.16c.19-1.9.25-4-3.39-5.16C197,281,197.14,280.77,197.14,280.77Z"/><path class="cls-4" d="M185.29,272.44a64.6,64.6,0,0,1,10.79-7,27.75,27.75,0,0,1,17.45,5.51,23.07,23.07,0,0,1-.93,7.75l-12.31-3.72-9.72,2.61A51.24,51.24,0,0,1,185.29,272.44Z"/><polygon class="cls-18" points="220.06 285.95 221.48 291.03 222.21 292.27 219.11 294.25 218.55 292.69 215.03 288.77 220.06 285.95"/><path class="cls-15" d="M231,295.37c.78-.23,1.11-.7.84-1.46s-1.91-.85-2.91-.67a11.8,11.8,0,0,1-6.33-1.15.5.5,0,0,0-.46,0,7.67,7.67,0,0,1-3.3.84c-.32,0-.54.42-.5.73l.73,3.85c.1.74,1.13,1,1.85.8Z"/><path class="cls-20" d="M225.57,294.31h0a1.56,1.56,0,0,0,.7-1.41.1.1,0,0,0-.11-.09.12.12,0,0,0-.09.11,1.37,1.37,0,0,1-.61,1.22.1.1,0,0,0,0,.14A.11.11,0,0,0,225.57,294.31Z"/><path class="cls-20" d="M224,294h0a1.54,1.54,0,0,0,.7-1.4.1.1,0,0,0-.1-.09.09.09,0,0,0-.09.11,1.42,1.42,0,0,1-.62,1.22.1.1,0,0,0,0,.14A.11.11,0,0,0,224,294Z"/><path class="cls-20" d="M227.37,294.52h0a1.59,1.59,0,0,0,.7-1.4A.09.09,0,0,0,228,293a.1.1,0,0,0-.09.11h0a1.4,1.4,0,0,1-.61,1.22.09.09,0,0,0,0,.13A.09.09,0,0,0,227.37,294.52Z"/><path class="cls-4" d="M221.68,287.44S218,276,210,271.51c-8.52-4.81-31.48,2.6-31.48,2.6l-16.21,7.22s1.76,14.08,12.22,15.19,20.38-12.32,24.73-12.78c5.88-.63,11.3,1.6,13.8,4.54C215.76,291.43,221.68,287.44,221.68,287.44Z"/><path class="cls-4" d="M178.53,274.11s1.15-.38,3-.9l2.84,1.53a36.2,36.2,0,0,1-10.24,10.76c-6.85,4.72,5.28,7.87,11.76,5,2.95-1.31,8.67-4.94,10.3-5.29-5.09,3.56-13.2,12.21-21.69,11.31-10.46-1.11-12.22-15.19-12.22-15.19Z"/><path class="cls-18" d="M171.23,237s-3.08-6.06-3-6.94,1.79.5,1.93-.73-.38-2.4.44-2.74,1.41-.6.58-1.24-.29-1.4-.51-2.38a3.83,3.83,0,0,0-1.17-2c-.53-.54-1.5-1.39-4.65-.25s-4.26,2.73-3.54,4.52a14,14,0,0,1,.77,5.91,16.3,16.3,0,0,1-1.35,4.28s4.26,2.74,6.11,2.67A16.9,16.9,0,0,0,171.23,237Z"/><path class="cls-6" d="M169.66,224.17a.22.22,0,1,0,.06-.3A.21.21,0,0,0,169.66,224.17Z"/><path class="cls-6" d="M169.17,223.67l0,0a1.13,1.13,0,0,1,1-.28.06.06,0,1,0,0-.12,1.26,1.26,0,0,0-1.15.32.06.06,0,0,0,0,.08S169.15,223.68,169.17,223.67Z"/><path class="cls-19" d="M168.48,229.76a9.47,9.47,0,0,1-1.83-.64c-.82-.42,1.07,1.53,1.78,1.79C168.43,230.91,168,229.85,168.48,229.76Z"/><path class="cls-6" d="M165.68,225.67c-.57-.64-1.29-1.92-.67-2.2a.65.65,0,0,1,.72.08,1,1,0,0,0,1.09.16c.73-.36,0-1.13.54-1.8.42-.49,1.34,0,2.28.38,0,0,2.13.32,2-1.81s-3.15.28-3-1.48-3.15-2.5-3.7-.93-.56,1.58-2.41,1.48c-2.66-.13-3,.84-3.15,2.23-.15,1.15,1.2,3.42-.93,3.89s-4,2.22-2.87,4-.47,3.46-3.33,4.26c-4.63,1.3-4,5.93-.56,7.22,3.82,1.45,1.39,4.73,4.08,5.19s3.05-4.63,3.79-6.11.93-5.47,3.06-6.86.56-2.59.93-3.7.46-2,1.94-2.41S165.68,225.67,165.68,225.67Z"/><path class="cls-3" d="M179,279.24s6.2-4.34,8.34-8c0,0-2.82-17.51-16.64-35.68h-3.27Z"/><path class="cls-5" d="M182.23,278.46c-5.28,3.55-16.55,7.11-23.25,6.3,0,0-10.1-26,2-50.83a31.32,31.32,0,0,0,7.1.67Z"/><path class="cls-5" d="M163.57,234.34c1.11.12,2.6.23,4.54.26l14.12,43.86c-5.28,3.55-16.55,7.11-23.25,6.3,0,0-.38-1-.9-2.73C173.41,271,165.38,240.47,163.57,234.34Z"/><rect class="cls-1" x="199.27" y="242.89" width="2.5" height="24.36" rx="0.52" transform="translate(316.22 558.2) rotate(-162.72)"/><path class="cls-19" d="M193.81,258a22.28,22.28,0,0,1,2.22-.84c1.17-.37,3.5-.43,3.33.24s-1.09.27-1.74.72c-.28.19-.59.47-.52.68s.64.37,2.24.22c3.53-.33,4.24,1.84.88,2.27a17.08,17.08,0,0,1-4.26,0,14,14,0,0,1-1.92-.38,72.15,72.15,0,0,1-9.24,2.33l.32-6.15C189.56,257.36,193.81,258,193.81,258Z"/><path class="cls-5" d="M161.61,240.11a4.35,4.35,0,0,1,3.64-.88,17.36,17.36,0,0,1,9.39,8.7c3.57,7.57,11.23,7,15.67,8.71l.89,6.72s-8.9,2-16.43-.56C165.6,259.64,155.59,245,161.61,240.11Z"/></g></g></svg>