<svg xmlns="http://www.w3.org/2000/svg" xmlns:xlink="http://www.w3.org/1999/xlink" viewBox="0 0 267.94 290.63"><defs><style>.cls-1{fill:#1a2089;}.cls-2{fill:#4cc2fc;}.cls-19,.cls-3,.cls-4{fill:#fff;}.cls-4{opacity:0.51;}.cls-5{fill:url(#linear-gradient);}.cls-6{fill:#5d4efa;}.cls-7{fill:url(#linear-gradient-2);}.cls-8{fill:url(#linear-gradient-3);}.cls-9{fill:url(#linear-gradient-4);}.cls-10{fill:url(#linear-gradient-5);}.cls-11{fill:url(#linear-gradient-6);}.cls-12{fill:url(#linear-gradient-7);}.cls-13{fill:url(#linear-gradient-8);}.cls-14{fill:url(#linear-gradient-9);}.cls-15{fill:url(#linear-gradient-10);}.cls-16{fill:url(#linear-gradient-11);}.cls-17{fill:url(#linear-gradient-12);}.cls-18{fill:url(#linear-gradient-13);}.cls-19{opacity:0.69;}</style><linearGradient id="linear-gradient" x1="125.09" y1="91.89" x2="266.93" y2="91.89" gradientUnits="userSpaceOnUse"><stop offset="0" stop-color="#617391"/><stop offset="1" stop-color="#2c3b5a"/></linearGradient><linearGradient id="linear-gradient-2" x1="137.61" y1="87.33" x2="129.94" y2="95.61" gradientUnits="userSpaceOnUse"><stop offset="0" stop-color="#f5e9d6"/><stop offset="1" stop-color="#e0ceb9"/></linearGradient><linearGradient id="linear-gradient-3" x1="245.86" y1="96.78" x2="257.94" y2="103.05" xlink:href="#linear-gradient-2"/><linearGradient id="linear-gradient-4" x1="229.33" y1="279.22" x2="229.33" y2="266.52" xlink:href="#linear-gradient-2"/><linearGradient id="linear-gradient-5" x1="186.42" y1="287.21" x2="195.82" y2="287.21" gradientUnits="userSpaceOnUse"><stop offset="0" stop-color="#3b343a"/><stop offset="1" stop-color="#272426"/></linearGradient><linearGradient id="linear-gradient-6" x1="190.63" y1="282.84" x2="190.63" y2="267.54" xlink:href="#linear-gradient-2"/><linearGradient id="linear-gradient-7" x1="182.07" y1="222.73" x2="232.13" y2="222.73" gradientUnits="userSpaceOnUse"><stop offset="0" stop-color="#2f1f45"/><stop offset="1" stop-color="#783c74"/></linearGradient><linearGradient id="linear-gradient-8" x1="226.53" y1="282.75" x2="233.92" y2="282.75" xlink:href="#linear-gradient-5"/><linearGradient id="linear-gradient-9" x1="226.65" y1="280.02" x2="234.98" y2="280.02" gradientUnits="userSpaceOnUse"><stop offset="0" stop-color="#5b545a"/><stop offset="1" stop-color="#464345"/></linearGradient><linearGradient id="linear-gradient-10" x1="186.04" y1="284.99" x2="195.48" y2="284.99" xlink:href="#linear-gradient-9"/><linearGradient id="linear-gradient-11" x1="207.26" y1="107.6" x2="221.7" y2="124.31" gradientUnits="userSpaceOnUse"><stop offset="0" stop-color="#f5e9d6"/><stop offset="0.41" stop-color="#efe1cd"/><stop offset="1" stop-color="#e0ceb9"/></linearGradient><linearGradient id="linear-gradient-12" x1="208.6" y1="107.77" x2="223.38" y2="107.77" xlink:href="#linear-gradient-5"/><linearGradient id="linear-gradient-13" x1="1074.49" y1="1433.44" x2="1064.96" y2="1448.86" gradientTransform="translate(-1171.18 -1034.01) rotate(-13.66)" xlink:href="#linear-gradient-2"/></defs><title>information_architecture_1</title><g id="Layer_2" data-name="Layer 2"><g id="Layer_1-2" data-name="Layer 1"><path class="cls-1" d="M190.17,5.56,15,0C6.72-.25,0,5.93,0,13.83V263.38c0,7.89,6.72,14.05,15,13.75l175.19-6.33a14.21,14.21,0,0,0,13.63-14.08V19.57A14.13,14.13,0,0,0,190.17,5.56Z"/><path class="cls-2" d="M190.17,5.56,15,0C6.72-.25,0,5.93,0,13.83V24.08l203.8,5.24V19.57A14.13,14.13,0,0,0,190.17,5.56Z"/><path class="cls-3" d="M26.65,13.2a4.6,4.6,0,0,1-4.86,4.52,4.94,4.94,0,0,1-4.88-4.8,4.61,4.61,0,0,1,4.88-4.51A4.92,4.92,0,0,1,26.65,13.2Z"/><path class="cls-3" d="M43.65,13.69a4.57,4.57,0,0,1-4.83,4.49A4.89,4.89,0,0,1,34,13.41a4.57,4.57,0,0,1,4.83-4.49A4.89,4.89,0,0,1,43.65,13.69Z"/><path class="cls-3" d="M60.5,14.17a4.54,4.54,0,0,1-4.78,4.47,4.86,4.86,0,0,1-4.8-4.75,4.54,4.54,0,0,1,4.8-4.47A4.87,4.87,0,0,1,60.5,14.17Z"/><polygon class="cls-3" points="187.89 226.19 17.47 230.4 17.47 223.13 187.89 219.22 187.89 226.19"/><polygon class="cls-3" points="187.89 243.28 17.47 248.23 17.47 240.96 187.89 236.31 187.89 243.28"/><polygon class="cls-3" points="148.29 52.96 17.47 50.43 17.47 57.7 148.29 60 148.29 52.96"/><polygon class="cls-3" points="173.34 53.45 173.34 60.44 187.89 60.69 187.89 53.73 173.34 53.45"/><path class="cls-3" d="M130.89,77.15l-53.14-.7a8.6,8.6,0,0,0-8.87,8.47V99.47a8.79,8.79,0,0,0,8.87,8.63l53.14.29a8.48,8.48,0,0,0,8.6-8.4V85.7A8.65,8.65,0,0,0,130.89,77.15Z"/><path class="cls-3" d="M69.47,130H31.54a4.58,4.58,0,0,0-4.68,4.48V151a4.55,4.55,0,0,0,4.68,4.45l37.93-.24a4.55,4.55,0,0,0,4.59-4.46V134.38A4.51,4.51,0,0,0,69.47,130Z"/><path class="cls-3" d="M122.88,129.94H85.94a4.49,4.49,0,0,0-4.55,4.42V150.7a4.45,4.45,0,0,0,4.55,4.39l36.94-.24a4.45,4.45,0,0,0,4.46-4.4V134.31A4.42,4.42,0,0,0,122.88,129.94Z"/><path class="cls-3" d="M174.89,129.94h-36a4.4,4.4,0,0,0-4.44,4.36v16.12a4.36,4.36,0,0,0,4.44,4.33l36-.23a4.36,4.36,0,0,0,4.34-4.34V134.25A4.32,4.32,0,0,0,174.89,129.94Z"/><rect class="cls-4" x="103.66" y="110.23" width="1.67" height="17.35"/><path class="cls-4" d="M51.45,127.55H49.74V123.1a4.41,4.41,0,0,1,4.51-4.33l37.24.09a2.7,2.7,0,0,0,2.74-2.66v-6h1.68v6a4.36,4.36,0,0,1-4.42,4.29l-37.24-.09a2.75,2.75,0,0,0-2.8,2.69Z"/><path class="cls-4" d="M157.8,127.6h-1.63v-4.33a2.66,2.66,0,0,0-2.66-2.64l-36.09-.08a4.34,4.34,0,0,1-4.37-4.28v-6h1.66v6a2.68,2.68,0,0,0,2.71,2.66l36.09.1a4.28,4.28,0,0,1,4.29,4.24Z"/><path class="cls-3" d="M69.47,178l-37.93.45A4.65,4.65,0,0,0,26.86,183v16.55a4.48,4.48,0,0,0,4.68,4.4l37.93-.7a4.6,4.6,0,0,0,4.59-4.51V182.37A4.44,4.44,0,0,0,69.47,178Z"/><path class="cls-3" d="M122.88,177.35l-36.94.45a4.55,4.55,0,0,0-4.55,4.47V198.6a4.39,4.39,0,0,0,4.55,4.34l36.94-.67a4.52,4.52,0,0,0,4.46-4.46V181.67A4.36,4.36,0,0,0,122.88,177.35Z"/><path class="cls-3" d="M174.89,176.73l-36,.43a4.47,4.47,0,0,0-4.44,4.42v16.11a4.3,4.3,0,0,0,4.44,4.28l36-.66a4.42,4.42,0,0,0,4.34-4.39V181A4.26,4.26,0,0,0,174.89,176.73Z"/><polygon class="cls-4" points="105.33 175.2 103.66 175.22 103.66 157.87 105.33 157.86 105.33 175.2"/><path class="cls-4" d="M51.45,175.82l-1.71,0v-4.46A4.48,4.48,0,0,1,54.25,167l37.24-.35A2.73,2.73,0,0,0,94.23,164v-6l1.68,0v6a4.41,4.41,0,0,1-4.42,4.34l-37.24.36a2.79,2.79,0,0,0-2.8,2.73Z"/><path class="cls-4" d="M157.8,174.6l-1.63,0v-4.34a2.61,2.61,0,0,0-2.66-2.6l-36.09.35a4.28,4.28,0,0,1-4.37-4.24v-6h1.66v6a2.66,2.66,0,0,0,2.71,2.63l36.09-.33a4.21,4.21,0,0,1,4.29,4.19Z"/><path class="cls-5" d="M262.43,55.52,154.61,45.08a7.93,7.93,0,0,0-8.14,5.51l-21.13,75a5.11,5.11,0,0,0,4.82,6.78l111.39,6.31A7.67,7.67,0,0,0,249,133l17.73-71.1A4.92,4.92,0,0,0,262.43,55.52Z"/><path class="cls-3" d="M263.44,55.78,155.62,45.34a8,8,0,0,0-8.14,5.52l-21.13,75a5.1,5.1,0,0,0,4.82,6.77L242.56,139a7.65,7.65,0,0,0,7.46-5.72l17.73-71.1A4.93,4.93,0,0,0,263.44,55.78Z"/><path class="cls-2" d="M263.44,55.78,155.62,45.34a8,8,0,0,0-8.14,5.52l-1.24,4.41L266.71,66.35l1-4.19A4.93,4.93,0,0,0,263.44,55.78Z"/><path class="cls-3" d="M159.08,51.34a2.59,2.59,0,0,1-2.65,1.81A1.69,1.69,0,0,1,154.9,51a2.6,2.6,0,0,1,2.65-1.81A1.69,1.69,0,0,1,159.08,51.34Z"/><path class="cls-3" d="M166.39,52a2.57,2.57,0,0,1-2.63,1.8,1.68,1.68,0,0,1-1.53-2.19,2.57,2.57,0,0,1,2.63-1.8A1.68,1.68,0,0,1,166.39,52Z"/><path class="cls-3" d="M173.64,52.71a2.55,2.55,0,0,1-2.61,1.8,1.67,1.67,0,0,1-1.51-2.19,2.54,2.54,0,0,1,2.61-1.79A1.67,1.67,0,0,1,173.64,52.71Z"/><polygon class="cls-6" points="248.37 111.86 140.22 104.33 148.53 74.6 255.49 83.52 248.37 111.86"/><polygon class="cls-6" points="246.55 119.08 138.1 111.91 139 108.68 247.32 116.01 246.55 119.08"/><polygon class="cls-6" points="244.65 126.65 135.88 119.85 136.78 116.61 245.43 123.56 244.65 126.65"/><polygon class="cls-6" points="207.47 72.1 150.61 67.17 149.72 70.33 206.66 75.18 207.47 72.1"/><polygon class="cls-6" points="251.07 75.89 250.31 78.91 256.51 79.44 257.27 76.42 251.07 75.89"/><path class="cls-7" d="M138.11,93l-2.8-2.8a7.14,7.14,0,0,1-.7-6.57c1.4-3.85,3.33-2.8,3.33-2.8l-.53,2.72a5.32,5.32,0,0,0,1.31,3.94,14.05,14.05,0,0,1,1.75,4.64Z"/><path class="cls-8" d="M254.72,103.86l3.15-2.86,1.4-5.19s3.85,1.52,1.75,6.42c-1.34,1.63-4.64,4.09-6,6.48S254.72,103.86,254.72,103.86Z"/><path class="cls-6" d="M223.67,138.57s15.11-9.34,18.79-12.66c3.83-3.47,13.92-16.81,14.79-18.39s-2.71-4.73-2.71-4.73S237,124.74,214.91,118.26C218.42,126.14,223.67,138.57,223.67,138.57Z"/><path class="cls-9" d="M225.86,267.52s2.77,7,2,10.07a31.06,31.06,0,0,0,4.9-.44,33.19,33.19,0,0,1-1.43-4.76,47.87,47.87,0,0,1-.29-5.57Z"/><path class="cls-10" d="M195.3,283.83a2.22,2.22,0,0,1,.52,1.28,1.94,1.94,0,0,1-.16.86c-.47,1.24-1.21,1.41-2,2.73-.49.8-.4,1.05-.85,1.41a2.94,2.94,0,0,1-1.92.52,34.3,34.3,0,0,1-4.46-.26q1.5-1.92,3.18-3.9c.49-.57,1-1.14,1.48-1.69l2.92-1Z"/><path class="cls-11" d="M192.86,269.63s-1.67,8.72.46,11.17c1.81,2.44-.88.7-.88.7l-3.21,2.8-1.92,3.32s1.77-8.54,1.3-11.92-.71-5.68-.71-5.68Z"/><path class="cls-6" d="M201.14,118.2c-8.14-1.37-19.79,2.75-33.27-4.38-13.25-7-21.08-17.35-25.65-24l-5.94,2.94c3.36,5.82,11.3,18.27,21.81,27,13.24,10.92,26.19,11.56,33.25,20.47C194.65,136.92,205.11,118.87,201.14,118.2Z"/><path class="cls-12" d="M186.56,174.2s-4.49,4-4.49,20.56,2.13,52.49,2.13,52.49L187.6,273a22.56,22.56,0,0,0,5.89-.59c2.13-9.69,5.6-26.09,3.94-39.8-.7-14.89,5.92-33.57,5.92-33.57S209,217.93,213,227.39s11.67,39.08,12.38,41.21c4.7.42,6.71-.82,6.71-.82s-3-31.88-5.85-43.94-2.6-41.13-7.33-49.41C208.31,170.18,186.56,174.2,186.56,174.2Z"/><path class="cls-2" d="M186.56,174.2s-4.49,4-4.49,20.56,2.13,52.49,2.13,52.49L187.6,273a22.56,22.56,0,0,0,5.89-.59c2.13-9.69,5.6-26.09,3.94-39.8-.7-14.89,5.92-33.57,5.92-33.57S209,217.93,213,227.39s11.67,39.08,12.38,41.21c4.7.42,6.71-.82,6.71-.82s-3-31.88-5.85-43.94-2.6-41.13-7.33-49.41C208.31,170.18,186.56,174.2,186.56,174.2Z"/><path class="cls-2" d="M209.89,204.52c1.41,9.1,4.21,14,11.21,20.31,5.6,4.2,1.4,13.3,3.5,20.31.7,2.1,2.8,4.2,3.5,6.3,2.61,5.21.18,11.59,1.36,17.11a7.54,7.54,0,0,0,2.67-.77s-3-31.88-5.85-43.94-2.6-41.13-7.33-49.41c-10.64-4.25-32.39-.23-32.39-.23s-4.49,4-4.49,20.56c0,1.35,0,2.82,0,4.39,4.66,4.12,14.2,5,20.08.47a2.76,2.76,0,0,1,1.12-.51l0-.09,0,.08C206.05,198.61,209.29,202.09,209.89,204.52Z"/><path class="cls-13" d="M227.17,280.23s-.69,0-.63.89-.32,4,3.2,4.11,4-.25,4.17-.25a30.06,30.06,0,0,0-.93-2.93l-1.12-1.44-3-.32Z"/><path class="cls-14" d="M235,283.31a11.27,11.27,0,0,0-.91-2.84c-.62-1.4-.11-1.92-.7-3.19a3.89,3.89,0,0,0-.84-1.27,3.63,3.63,0,0,0-2.48-.95,2.5,2.5,0,0,0-1.17.28,2.75,2.75,0,0,0-1.05,1.11A11.78,11.78,0,0,0,227,279a5.9,5.9,0,0,0-.23.85c-.05.32-.08.59-.09.77.92,0,4.46.14,5.21.69a2.93,2.93,0,0,1,1.12,2.39c0,.92.47,1.35.93,1.32A1.51,1.51,0,0,0,235,283.31Z"/><path class="cls-15" d="M192.42,279.57c.79,0,1.37.64,1.8,2.16s2.54,2.86.09,2.54-4.23,3.15-5.1,4.43-3.23,2.43-3.17,1.17,1.09-1.84,1.39-3.12S190.61,279.54,192.42,279.57Z"/><path class="cls-6" d="M209.08,117.68c-4-.12-14.07-1.22-18.79,3.5s.06,10.62-.81,18.58c-.59,5.39-.38,8.57-1.41,17.39A53.16,53.16,0,0,1,187,163.4c-1.34,5.75-3.69,17-4.95,19.87a47,47,0,0,0,26.87,3.95,42,42,0,0,0,13.4-4.41c-3.22-9.75-2.62-23.11-1.43-27.92,2.35-9.5,2.89-13.23,9.54-26.88,1.83-3.77-2.52-1.66-5.31-5C220.79,118,213.08,117.79,209.08,117.68Z"/><path class="cls-6" d="M197.29,142.54a14.89,14.89,0,0,0-1-8.32,12.89,12.89,0,0,0-2.8-3.85c-3.52-3.23-8.07-3-13.25-3.39a80.72,80.72,0,0,1-15.93-2.81c10,6.24,19.24,8.17,25.32,14.09,0,.49-.05,1-.1,1.5-.59,5.39-.38,8.57-1.41,17.39A53.16,53.16,0,0,1,187,163.4c-1.34,5.75-3.69,17-4.95,19.87a47,47,0,0,0,26.87,3.95,42,42,0,0,0,13.4-4.41,47,47,0,0,1-2-9.6A40.4,40.4,0,0,1,202.19,169c-3.85-1.95-5.77-2.93-6.91-5.08C193.07,159.77,195.75,155.92,197.29,142.54Z"/><path class="cls-16" d="M205.72,109.68A8.69,8.69,0,0,1,209,104.3c2.19-1.74,2.63-1.91,3.38-2.06l1-.15h.11a10.41,10.41,0,0,1,2.73,1c1,.74.27,5.94-2.9,12.42-.12.55-.24,1.1-.37,1.64,2.76.49,3.45,1,3.47,1.39.05.86-3,2-5.78,2-3.52.09-7.25-1.42-7.18-2.55,0-.46.69-1,3.25-1.58l1.19-1.68C207.6,114.29,205.43,111.91,205.72,109.68Z"/><path class="cls-17" d="M212.41,100a4.75,4.75,0,0,0-1,4.3c.19.8.44.89.41,1.42-.1,1.48-2.81,2.13-2.66,2.87.11.54,1.52.34,1.76,1s-1.28,1.37-1.94,3.22c-.11.29-.74,2,.07,3.07s2.44.73,4.34.48a15.27,15.27,0,0,0,4-1.08,10.12,10.12,0,0,0,4.12-2.77,8.48,8.48,0,0,0,1.87-5.53,8.71,8.71,0,0,0-6.92-7.89C215.9,99,213.76,98.65,212.41,100Z"/><path class="cls-18" d="M210.06,108.41c.8-.48,1.41.55,1,1.44a1.76,1.76,0,0,1-2.4.92C207.93,110.24,209,109.05,210.06,108.41Z"/><path class="cls-6" d="M202,117.69l1.94-.6s.51,2.63,6.76,3a9.34,9.34,0,0,0,5.71-1.94l1.49.69s-3.08,3.92-7.71,3.82A9.29,9.29,0,0,1,202,117.69Z"/><path class="cls-19" d="M90,61.33a.6.6,0,0,1-.8.07.59.59,0,0,1-.15-.78,81.11,81.11,0,0,1,32.39-30.69c28.14-14.49,55.28-7,62-4.91a.6.6,0,0,0,.74-.36l2.23-5.8a.62.62,0,0,1,.49-.38.61.61,0,0,1,.56.26l14.81,22.08L178,41.44a.59.59,0,0,1-.56-.84L179.9,35a.6.6,0,0,0,0-.49.59.59,0,0,0-.37-.32C173.56,32.42,127.68,20.47,90,61.33Z"/></g></g></svg>