<svg xmlns="http://www.w3.org/2000/svg" viewBox="0 0 394.76 276"><defs><style>.cls-1{fill:#1a2089;}.cls-2{fill:#ffae85;}.cls-3{fill:#4cc2fc;}.cls-4{fill:#5d4efa;}.cls-5{fill:#002549;}.cls-6{fill:#073860;}.cls-7{fill:#ffc299;}.cls-8{fill:#006ae6;}.cls-9{fill:#fff;}.cls-10{fill:#b56cf7;}.cls-11{fill:#29abe2;}</style></defs><title>client_expectations</title><g id="Layer_2" data-name="Layer 2"><g id="Layer_1-2" data-name="Layer 1"><polygon class="cls-1" points="372.1 192.84 383.05 275.63 381.36 275.63 366.62 195.83 372.1 192.84"/><polygon class="cls-1" points="321.68 192.84 332.63 275.63 330.94 275.63 316.2 195.83 321.68 192.84"/><polygon class="cls-1" points="279.84 192.84 268.89 275.63 270.58 275.63 285.32 195.83 279.84 192.84"/><polygon class="cls-1" points="330.26 192.84 319.31 275.63 321 275.63 335.74 195.83 330.26 192.84"/><path class="cls-1" d="M276.72,186.36l3,12.21h98.61L394.76,96S360.53,86.76,340,99.46s-30.83,73.46-30.83,73.46Z"/><polygon class="cls-2" points="309.9 76.54 274.61 140.97 288.03 144.38 319.31 93.23 309.9 76.54"/><path class="cls-3" d="M349.44,160.47c-70.14-12.94-114.4,3-114.4,3L258.3,266.05h11l-6.43-81.68,93.08,3A94.14,94.14,0,0,0,349.44,160.47Z"/><path class="cls-3" d="M367.59,160.47H279.52L218.84,266.05h10.95l64.87-77.69s53.28,3.61,63.87-.87S367.59,160.47,367.59,160.47Z"/><path class="cls-4" d="M306.86,160.47s-3.31-84.79,2.71-90.17,60.06-5.63,64.77,0c15.44,18.46-5,93.16-5,93.16Z"/><polygon class="cls-4" points="309.22 70.73 292.29 100.46 308.7 106.44 327.9 86.02 309.22 70.73"/><polygon class="cls-2" points="351.74 100.75 367.06 106.44 348.58 146.41 269.94 146.55 268.89 140.58 336.71 133.83 351.74 100.75"/><polygon class="cls-5" points="258.3 266.05 236.51 272.77 236.51 275.63 268.76 275.63 269.26 266.05 258.3 266.05"/><polygon class="cls-5" points="218.84 266.05 197.05 272.77 197.05 275.63 229.29 275.63 229.79 266.05 218.84 266.05"/><path class="cls-2" d="M330,10.17a63.84,63.84,0,0,0-6.57,18.67c-1.56,9.8-1.82,28.74,2.76,30.31s22.09-2.4,22.09-2.4,6.47-22.93,7.33-30.54S330,10.17,330,10.17Z"/><polygon class="cls-2" points="350.93 39.95 348.32 66.25 335 81.78 332.63 66.26 332.63 55.14 350.93 39.95"/><path class="cls-5" d="M349.36,22.56S333.78,24,326.67,18.74,332.37-7.59,353,3.36s-.09,50.75-3.85,50.33S355,33.74,352.6,33s-3.37,5.74-3.37,5.74l-2.85-.89Z"/><polygon class="cls-2" points="285.88 140.79 270.55 138.62 256.17 143.96 256.17 146.55 285.55 146.55 285.88 140.79"/><polygon class="cls-2" points="282.67 134.63 243.11 111.19 239.07 115.81 269.48 143.96 277.1 141.6 282.67 134.63"/><polygon class="cls-2" points="243.97 111.71 236.12 104 219.87 109.17 216.68 115.22 217.9 115.83 226.88 113.74 236.41 116.91 246.12 116.91 243.97 111.71"/><path class="cls-4" d="M310.1,134.63S307.62,79,313.86,73.2,330,69.06,330,69.06l2.66,18,15.61-16.3s15.65-1.52,20.26,1.7.62,31.93.62,31.93l-18.19-6.75-17.56,35.11Z"/><path class="cls-4" d="M362.56,127.24l-15.77,30h14S368.54,137.94,362.56,127.24Z"/><path class="cls-3" d="M343.94,164.22l-55.88,1.34s19.66,6.49,40.38,7.56S343.94,164.22,343.94,164.22Z"/><path class="cls-3" d="M239.27,167.64l8.29,38.91,5.18-8S255.85,170,239.27,167.64Z"/><path class="cls-3" d="M272.87,177.73,228.82,253.4l1.84,1.38s36.84-45.66,44.21-56.21S272.87,177.73,272.87,177.73Z"/><path class="cls-6" d="M354.76,17.79c-2.93,2.79-23.55,1.85-25.71-4S332.35.68,344.78,2.59,357.7,15,354.76,17.79Z"/><path class="cls-4" d="M304,84.71l-8.8,14.12,8.8,2.92S303.29,90.9,304,84.71Z"/><path class="cls-7" d="M353.05,104.32l-13.86,28.33,3.14.77s16.74-18.17,18.58-21.85S353.05,104.32,353.05,104.32Z"/><polygon class="cls-7" points="297.23 105.92 283.92 130.8 285.88 134.63 302.95 108.68 297.23 105.92"/><path class="cls-7" d="M326.67,21.47s-2.38,5.91-3,16.66c-.59,10.34.46,18.57,2.61,19.65s8-1,8-1-.69-8.9,1.47-15.51c2.91-8.88,8.58-11.81,8.58-11.81l.54-4.76A46.28,46.28,0,0,1,326.67,21.47Z"/><polygon class="cls-7" points="333.55 59.85 343.03 57.83 336.37 78.47 333.55 66.6 333.55 59.85"/><path class="cls-4" d="M383.05,96.38l5.4,1.38-13.61,87.8-5.72-.92S380.11,139.05,383.05,96.38Z"/><polygon class="cls-3" points="252.21 239.19 265.86 222.85 266.68 233.25 252.89 241.2 252.21 239.19"/><polygon class="cls-6" points="198.94 272.95 218.13 266.96 223.55 267.37 222.94 271.87 198.94 272.95"/><polygon class="cls-6" points="239.27 272.95 258.46 266.96 263.88 267.37 263.26 271.87 239.27 272.95"/><polygon class="cls-4" points="341.78 117.99 327.9 117.51 308.04 128.86 341.78 117.99"/><polygon class="cls-4" points="338.79 125.31 317.45 128.86 336.54 127.57 338.79 125.31"/><polygon class="cls-4" points="308.45 120.33 323.26 117.51 308.04 124.03 308.45 120.33"/><polygon class="cls-5" points="254.1 176.53 259.41 182.01 258.82 183.08 254.1 176.53"/><polygon class="cls-5" points="225.15 100.07 218.56 122.48 219.88 122.94 226.93 100.75 225.15 100.07"/><path class="cls-3" d="M226.69,266.3l-.63-.51,63.7-78.71-2.7-3.87,4.33,1.34-3.1-3.82.93.07c.16,0,15.95,1.22,32.18,1.81,9.53.35,17.34.43,23.22.23,9.05-.31,11.88-1.22,12.67-1.93,5.11-4.65,4.7-17.31,4.7-17.44l.8,0a45.23,45.23,0,0,1-.42,7.13c-.74,5.19-2.26,8.86-4.54,10.93-1.3,1.19-5.62,1.89-13.18,2.14-5.9.21-13.74.13-23.28-.22-14-.52-27.65-1.48-31.28-1.75l3.59,4.43-4.62-1.43,1.71,2.45-.19.23Z"/><polygon class="cls-3" points="258.62 196.19 256.71 183.67 260.65 183.67 252.67 174.46 258.48 176.89 254.23 169.75 273.96 169.75 273.96 170.55 255.65 170.55 260.41 178.57 255.53 176.53 262.41 184.47 257.65 184.47 259.42 196.07 258.62 196.19"/><rect class="cls-8" x="264.09" y="226.97" width="0.81" height="39.19" transform="translate(-25.8 30.96) rotate(-6.39)"/><rect class="cls-9" x="201.23" y="144.27" width="49.42" height="2.21"/><rect class="cls-10" y="234.99" width="56.47" height="41.01"/><polygon class="cls-10" points="20.88 236.79 20.88 230.01 34.69 230.01 34.69 236.79 33.16 236.79 33 231.99 22.3 231.68 23.09 236.79 20.88 236.79"/><polygon class="cls-9" points="149.79 141.81 156.29 103.22 185.97 102.33 178.96 142.63 149.79 141.81"/><polygon class="cls-8" points="101.5 125.44 138.19 136.27 138.19 142.63 100.42 142.02 101.5 125.44"/><rect class="cls-1" x="66.07" y="146.55" width="2.57" height="129.41" transform="translate(134.71 422.5) rotate(180)"/><rect class="cls-1" x="15.6" y="146.55" width="353.55" height="3.21" transform="translate(384.75 296.3) rotate(180)"/><polygon class="cls-2" points="70.07 37.97 67.63 68.02 83.45 73.77 85.89 51.73 70.07 37.97"/><path class="cls-1" d="M38.78,160.33v25.75l105.15.75L141.61,200l2.32,65h10.36L169.83,164.9s-36.17-13.42-71.5-10.13Z"/><path class="cls-4" d="M102.25,162.94s9.17-89.06,3.47-94.17-52.09-6.16-57.37-2.24S37.57,83.33,36.1,95.46c-1.24,10.15,0,64.77,0,64.77Z"/><polygon class="cls-1" points="131.14 175.15 120.37 265.03 109.82 265.03 101.91 196.63 103.94 175.15 131.14 175.15"/><polygon class="cls-5" points="154.29 265.03 180.86 272.19 181.62 275.96 143.55 275.96 143.93 265.03 154.29 265.03"/><polygon class="cls-5" points="120.38 265.03 146.95 272.19 147.7 275.96 109.64 275.96 110.01 265.03 120.38 265.03"/><path class="cls-2" d="M98.75,11.72c6.93,14,3.83,42.71,1.93,44.53s-15.93,0-15.93,0L69.4,46.13l3-34.41S95.46.26,98.75,11.72Z"/><path class="cls-5" d="M100.91,17.64l3.3-12.53S75-6.31,64,5c-9,9.33,5.36,41.13,5.36,41.13l11.12-.74s-3.1-21.17.39-21.15,5,8,5,8h3.3l-1.36-12.8Z"/><polygon class="cls-3" points="120.96 194.8 137.92 275.96 136.02 275.96 116.53 194.02 120.96 194.8"/><polygon class="cls-3" points="86.56 194.8 103.53 275.96 101.62 275.96 82.13 194.02 86.56 194.8"/><polygon class="cls-3" points="40.01 194.8 23.05 275.96 24.96 275.96 44.45 194.02 40.01 194.8"/><polygon class="cls-3" points="74.41 194.8 57.45 275.96 59.35 275.96 78.85 194.02 74.41 194.8"/><path class="cls-3" d="M136,181.3l-2.58,13.5H34.49l-6.25-86.08s52.38-3.88,57.66,0,21.85,64.54,21.85,64.54Z"/><rect class="cls-1" x="15.6" y="146.55" width="2.57" height="129.41" transform="translate(33.76 422.5) rotate(180)"/><rect class="cls-1" x="366.54" y="146.59" width="2.57" height="129.41" transform="translate(735.65 422.59) rotate(180)"/><rect class="cls-1" x="316.07" y="146.59" width="2.57" height="129.41" transform="translate(634.71 422.59) rotate(180)"/><polygon class="cls-2" points="166.15 130.5 177.71 129.85 183.34 133.02 182.43 138.97 176.01 139.41 169.83 138.16 167.98 136.37 166.15 130.5"/><path class="cls-4" d="M106.18,69.43l28.35,56.25,32.23,3.95,1.81,10s-40.91,8.27-46.48,6.66-20.18-36.68-20.18-36.68Z"/><path class="cls-4" d="M165.46,131.1v3.25s-29.11,1.84-34.06,1.13S105.32,84.87,100.45,80s-50.79-8.12-50.79-8.12l2.42-5.3s42-3.18,51,4.09c2.85,2.32,29.77,56.81,29.77,56.81Z"/><path class="cls-8" d="M104.3,120l-1.62,27.89-2-7.16S94.34,116,104.3,120Z"/><path class="cls-6" d="M86.75,16.75l12.13-.63L102,5.32S81.73-1,73.88,2.74s2.2,25.06,2.2,25.06,1.44-6.4,3.89-6.59S85.9,27.8,85.9,27.8h1.67Z"/><path class="cls-7" d="M99.94,19.35s2.08,9,2.08,14.8a94.39,94.39,0,0,1-2.08,20.44S91.37,39.8,90.15,27.17C89.49,20.41,99.94,19.35,99.94,19.35Z"/><polygon class="cls-7" points="84.87 56.48 79.88 55.28 80.5 63.67 83.83 64.15 84.87 56.48"/><path class="cls-1" d="M106.35,156.72a100.66,100.66,0,0,1,18.84,0c11.31.94,32.13,5.75,32.13,5.75l-49,.47Z"/><polygon class="cls-1" points="165.6 175.9 153.87 255.18 152.17 255.18 153.02 200.77 162.59 175.9 165.6 175.9"/><polygon class="cls-1" points="118.4 214.48 122.64 227.34 119.53 261.39 116.53 261.39 118.4 214.48"/><path class="cls-11" d="M131.84,183l-27.9-7.85S85.81,113.47,83.55,112s-48.17-1.51-48.17-1.51v3.08s38.57-1.38,43.47,2.2S99.57,183,99.57,183l32.27,3.74Z"/><polygon class="cls-6" points="178 272.29 154.07 266.09 152.17 270.79 178 272.29"/><polygon class="cls-6" points="133.83 269.77 119.63 266.09 117.73 270.79 133.83 269.77"/><polygon class="cls-7" points="167.88 131.58 177.61 130.84 182.04 134.03 181.53 136.97 174.96 136.97 169.89 133.92 167.88 131.58"/><polygon class="cls-4" points="66.75 57.06 86.78 59.16 86.52 64.79 66.42 64.15 66.75 57.06"/></g></g></svg>