<svg xmlns="http://www.w3.org/2000/svg" viewBox="0 0 298.05 269.34"><defs><style>.cls-1,.cls-2{fill:none;}.cls-1,.cls-12,.cls-5{stroke:#263238;stroke-linecap:round;stroke-linejoin:round;}.cls-2{stroke:#4cc2fc;stroke-miterlimit:10;stroke-width:2px;}.cls-3{fill:#4cc2fc;}.cls-4{fill:#006ae6;}.cls-5,.cls-7{fill:#263238;}.cls-6{fill:#5d4efa;}.cls-8{fill:#fff;}.cls-9{fill:#b56cf7;}.cls-10{fill:#1a2089;}.cls-11{fill:#253b70;}.cls-12{fill:#e7ae9e;}</style></defs><title>innovative_ux_designs</title><g id="Layer_2" data-name="Layer 2"><g id="Layer_1-2" data-name="Layer 1"><rect class="cls-1" x="0.5" y="0.5" width="169.33" height="128.16"/><rect class="cls-1" x="4.45" y="3.89" width="161.42" height="121.37"/><path class="cls-2" d="M53.66,21.71s-26.38-1.91-28.6,2.22-.64,79.75.64,80.71,36.85,1.59,40.35.32-1.27-78.17-1.27-80.39-8.26-3.18-8.26-3.18"/><path class="cls-2" d="M27.79,84.3c.05,10,.27,17.28.76,17.48,1.59.63,35.27,3.49,36.23.32s-2.54-75-2.54-75"/><path class="cls-2" d="M61,26.79s-32.09-1.27-32.41.32c-.2,1-.79,30.79-.78,52.43"/><line class="cls-2" x1="29.51" y1="32.51" x2="60.65" y2="32.51"/><path class="cls-2" d="M57.79,31.07c-1.91,2,0,0,1.27-2.87s-1.27.57-4.13,2.87-1.27.58-.32-2.59-1,0-3.5,2-1.27,1.15-.31-2.3,0,0-3.82,2.3-1.9,2.3,0-1.15-1.27,0-4.76,1.15,0,0,1.27-3.17-2.23.87-4.77,2.59,0,0,.64-2-1.59.57-4.13,3.16,0,0,.32-2.3-2.86,3.74-2.86,3.74,1-5.75.31-4.31a12.27,12.27,0,0,1-1.59,2.58"/><rect class="cls-2" x="31.1" y="37.91" width="15.57" height="16.2"/><polyline class="cls-2" points="34.27 37.91 31.73 40.77 37.13 38.87 31.73 43.95 40.63 38.23 31.73 47.76 43.81 38.87 31.1 50.62 46.35 40.14 31.1 54.12 46.35 43.95 35.55 53.48 46.67 47.45 39.68 53.16 46.35 50.94 45.08 53.16"/><rect class="cls-2" x="48.18" y="87.48" width="11.91" height="12.39"/><polyline class="cls-2" points="50.61 87.48 48.67 89.67 52.8 88.21 48.67 92.1 55.47 87.72 48.67 95.01 57.9 88.21 48.18 97.2 59.84 89.18 48.18 99.87 59.84 92.1 51.58 99.39 60.09 94.77 54.74 99.14 59.84 97.44 58.87 99.14"/><line class="cls-2" x1="30.78" y1="60.15" x2="61.28" y2="60.15"/><line class="cls-2" x1="30.46" y1="63.01" x2="60.65" y2="63.33"/><line class="cls-2" x1="49.84" y1="38.87" x2="59.69" y2="38.87"/><line class="cls-2" x1="49.84" y1="42.68" x2="59.69" y2="42.68"/><line class="cls-2" x1="49.84" y1="46.49" x2="59.69" y2="46.49"/><line class="cls-2" x1="49.84" y1="50.3" x2="59.69" y2="50.3"/><rect class="cls-2" x="31.1" y="64.92" width="29.55" height="14.3"/><polyline class="cls-2" points="30.78 67.78 34.91 65.24 30.14 72.55 38.09 65.24 31.1 75.72 43.49 64.92 32.69 77.63 46.03 65.24 35.86 77.63 50.48 64.92 38.72 78.9 53.34 65.24 42.22 78.27 57.15 64.92 45.71 78.9 60.65 64.92 49.84 78.58 60.01 69.69 53.34 77.95 60.01 73.5 58.7 75.63 57.47 77.63"/><line class="cls-2" x1="32.37" y1="83.03" x2="59.69" y2="83.03"/><line class="cls-2" x1="31.73" y1="86.53" x2="40.63" y2="86.53"/><line class="cls-2" x1="66.05" y1="28.7" x2="87.86" y2="26.02"/><line class="cls-2" x1="62.55" y1="44.27" x2="85.43" y2="44.27"/><line class="cls-2" x1="26.33" y1="73.18" x2="16.48" y2="76.68"/><path class="cls-2" d="M54.29,102.1s-1.9,9.85,11.12,12.39"/><polyline class="cls-2" points="63.51 111.95 66.68 114.81 62.23 116.08"/><polyline class="cls-2" points="82.57 41.41 87.65 44.59 83.21 46.49"/><polyline class="cls-2" points="83.73 25.07 89.13 25.7 85.32 29.2"/><polyline class="cls-2" points="17.75 73.5 12.35 77.95 19.02 78.27"/><rect class="cls-3" x="89.24" y="41.41" width="12.07" height="12.71"/><line class="cls-4" x1="92.1" y1="44.27" x2="99.09" y2="44.58"/><line class="cls-4" x1="92.1" y1="46.81" x2="99.09" y2="47.13"/><line class="cls-4" x1="92.1" y1="49.35" x2="99.09" y2="49.67"/><rect class="cls-3" x="70.81" y="59.2" width="12.07" height="12.71" transform="translate(-7.15 9.45) rotate(-6.73)"/><line class="cls-4" x1="73.29" y1="62.46" x2="80.27" y2="61.95"/><line class="cls-4" x1="73.58" y1="64.98" x2="80.56" y2="64.48"/><line class="cls-4" x1="73.88" y1="67.51" x2="80.86" y2="67"/><rect class="cls-3" x="8.22" y="80.81" width="12.07" height="12.71" transform="translate(-10.11 2.27) rotate(-6.73)"/><line class="cls-4" x1="10.69" y1="84.06" x2="17.67" y2="83.56"/><line class="cls-4" x1="10.99" y1="86.59" x2="17.97" y2="86.08"/><line class="cls-4" x1="11.29" y1="89.11" x2="18.27" y2="88.61"/><rect class="cls-3" x="69.23" y="105.91" width="12.07" height="12.71" transform="translate(12.28 -7.32) rotate(6.07)"/><line class="cls-4" x1="72.47" y1="108.45" x2="79.39" y2="109.51"/><line class="cls-4" x1="72.2" y1="110.98" x2="79.12" y2="112.03"/><line class="cls-4" x1="71.94" y1="113.51" x2="78.85" y2="114.56"/><rect class="cls-5" x="0.5" y="128.66" width="169.32" height="4.33"/><path class="cls-6" d="M237.77,159.69v-8.08H213.46v8.08a11.48,11.48,0,0,1-2.59,7.26l-1.06,1.32h31.61L240.35,167A11.52,11.52,0,0,1,237.77,159.69Z"/><path class="cls-6" d="M236.39,159.69v-8.08H212.08v8.08A11.52,11.52,0,0,1,209.5,167l-1.07,1.32H240L239,167A11.48,11.48,0,0,1,236.39,159.69Z"/><rect class="cls-7" x="212.18" y="153.89" width="24.41" height="2.48"/><rect class="cls-6" x="175.37" y="82.4" width="97.72" height="71.75" rx="8.48"/><rect class="cls-6" x="178" y="82.4" width="97.72" height="71.75" rx="8.48"/><path class="cls-6" d="M175.37,143H273.1a0,0,0,0,1,0,0v2.67a8.48,8.48,0,0,1-8.48,8.48H183.86a8.48,8.48,0,0,1-8.48-8.48V143a0,0,0,0,1,0,0Z"/><rect class="cls-8" x="180.29" y="86.86" width="87.89" height="50.69"/><rect class="cls-6" x="191.49" y="92.15" width="21.48" height="39.9" rx="3.04"/><rect class="cls-3" x="193.29" y="95.49" width="17.88" height="33.2"/><rect class="cls-3" x="218.55" y="96.05" width="16.18" height="1.67"/><rect class="cls-3" x="218.83" y="99.68" width="7.53" height="7.81"/><rect class="cls-3" x="229.58" y="123.67" width="4.04" height="4.18"/><rect class="cls-3" x="219.02" y="113.07" width="15.34" height="7.81"/><line class="cls-3" x1="227.76" y1="100.24" x2="233.9" y2="100.24"/><line class="cls-3" x1="227.76" y1="102.19" x2="233.9" y2="102.19"/><line class="cls-3" x1="227.76" y1="104.14" x2="233.9" y2="104.14"/><line class="cls-3" x1="227.76" y1="106.1" x2="233.9" y2="106.1"/><line class="cls-3" x1="219.3" y1="110.56" x2="234.08" y2="110.56"/><line class="cls-3" x1="219.3" y1="122.83" x2="234.08" y2="122.83"/><rect class="cls-9" x="217.16" y="94.38" width="18.97" height="35.15"/><rect class="cls-3" x="241.43" y="94.38" width="17.86" height="13.11"/><rect class="cls-3" x="241.43" y="94.38" width="17.86" height="2.79"/><rect class="cls-3" x="242.81" y="99.2" width="4.67" height="4.52"/><rect class="cls-3" x="252.15" y="99.2" width="4.67" height="4.52"/><path class="cls-3" d="M257.57,96a.68.68,0,1,1-.68-.67A.67.67,0,0,1,257.57,96Z"/><circle class="cls-3" cx="253.65" cy="95.96" r="0.68"/><rect class="cls-3" x="244.19" y="114.6" width="13.67" height="10.04"/><rect class="cls-3" x="244.19" y="114.6" width="13.67" height="2.14"/><path class="cls-3" d="M256.55,115.81a.52.52,0,0,1-.52.52.52.52,0,0,1-.52-.52.52.52,0,0,1,.52-.52A.53.53,0,0,1,256.55,115.81Z"/><path class="cls-3" d="M254.07,115.81a.52.52,0,0,1-.52.52.52.52,0,0,1-.52-.52.52.52,0,0,1,.52-.52A.53.53,0,0,1,254.07,115.81Z"/><rect class="cls-3" x="183.18" y="89.52" width="5.74" height="45.04"/><rect class="cls-10" x="183.18" y="89.52" width="5.74" height="2.07"/><rect class="cls-10" x="184.56" y="92.97" width="2.76" height="3.22"/><rect class="cls-10" x="184.56" y="98.26" width="2.76" height="3.22"/><rect class="cls-10" x="184.56" y="103.54" width="2.76" height="3.22"/><rect class="cls-10" x="184.56" y="108.83" width="2.76" height="3.22"/><rect class="cls-10" x="184.56" y="114.11" width="2.76" height="3.22"/><rect class="cls-10" x="184.56" y="119.4" width="2.76" height="3.22"/><rect class="cls-10" x="184.56" y="124.68" width="2.76" height="3.22"/><rect class="cls-10" x="184.56" y="129.97" width="2.76" height="3.22"/><rect class="cls-3" x="192.6" y="89.07" width="73.07" height="1.84"/><rect class="cls-3" x="192.6" y="133.64" width="73.07" height="1.84"/><rect class="cls-4" x="208.43" y="168.27" width="31.62" height="1.44"/><rect class="cls-11" x="187.32" y="167.09" width="73.39" height="2.62"/><polygon class="cls-10" points="121.55 269.34 118.56 269.34 117.07 177.89 123.05 177.89 121.55 269.34"/><polygon class="cls-10" points="121.55 269.34 120.23 269.34 120.41 177.89 123.05 177.89 121.55 269.34"/><polygon class="cls-10" points="164.1 269.34 161.12 269.34 159.62 177.89 165.6 177.89 164.1 269.34"/><polygon class="cls-10" points="164.1 269.34 162.78 269.34 162.96 177.89 165.6 177.89 164.1 269.34"/><polygon class="cls-10" points="148.87 269.34 145.88 269.34 144.38 177.89 150.36 177.89 148.87 269.34"/><polygon class="cls-10" points="148.87 269.34 147.55 269.34 147.72 177.89 150.36 177.89 148.87 269.34"/><polygon class="cls-10" points="177.62 269.34 174.63 269.34 173.14 177.89 179.11 177.89 177.62 269.34"/><polygon class="cls-10" points="177.62 269.34 176.3 269.34 176.47 177.89 179.11 177.89 177.62 269.34"/><rect class="cls-10" x="133" y="179.28" width="46.86" height="57.21"/><rect class="cls-10" x="120.06" y="179.28" width="46.86" height="57.21"/><polygon class="cls-10" points="261.57 269.34 258.58 269.34 257.09 177.89 263.06 177.89 261.57 269.34"/><polygon class="cls-10" points="261.57 269.34 260.25 269.34 260.43 177.89 263.06 177.89 261.57 269.34"/><polygon class="cls-10" points="288.88 269.34 285.9 269.34 284.4 177.89 290.38 177.89 288.88 269.34"/><polygon class="cls-10" points="288.88 269.34 287.56 269.34 287.74 177.89 290.38 177.89 288.88 269.34"/><rect class="cls-10" x="113.13" y="174.44" width="179.13" height="6.29"/><rect class="cls-10" x="113.13" y="174.44" width="179.13" height="3.15"/><rect class="cls-10" x="265.82" y="174.44" width="26.44" height="6.29"/><rect class="cls-10" x="108.27" y="169.38" width="189.78" height="6.29"/><rect class="cls-10" x="271.61" y="169.38" width="26.44" height="6.29"/><rect class="cls-6" x="123.04" y="184.78" width="41.02" height="19.99"/><rect class="cls-6" x="139.06" y="192.71" width="8.96" height="3.1"/><rect class="cls-6" x="123.04" y="209.94" width="41.02" height="19.99"/><rect class="cls-6" x="139.06" y="217.87" width="8.96" height="3.1"/><rect class="cls-3" x="227.19" y="191.25" width="12.25" height="24.65" transform="translate(466.64 407.14) rotate(180)"/><rect class="cls-3" x="230.26" y="207.14" width="6.13" height="34.14" transform="translate(466.64 448.42) rotate(180)"/><path class="cls-3" d="M235.81,238.65s5.15,5.84,18.39,7.88c7,1.08,14.26,2.41,20.58,5.76,4.06,2.15,12.15,6.86,12.15,12.23a4.82,4.82,0,1,1-8.33-3.28,22.8,22.8,0,0,0-14.27-9.69c-10.07-2.18-17.42-1.29-31.58-10.71Z"/><path class="cls-3" d="M231.43,238.65s-5.14,5.84-18.38,7.88c-7,1.08-14.27,2.41-20.58,5.76-4.07,2.15-12.15,6.86-12.15,12.23a4.82,4.82,0,1,0,9.63,0,4.77,4.77,0,0,0-1.31-3.28,22.87,22.87,0,0,1,14.28-9.69c10.07-2.18,17.42-1.29,31.58-10.71Z"/><rect class="cls-3" x="230.77" y="260.3" width="5.54" height="9.04" rx="0.66" transform="translate(467.08 529.64) rotate(-180)"/><rect class="cls-3" x="232.23" y="239.47" width="2.63" height="29.87" transform="translate(467.08 508.81) rotate(180)"/><path class="cls-3" d="M263,120.07a168.52,168.52,0,0,0-2.76,24.72c-.19,6.4-.3,11.88-.4,16.71-.29,15-.45,23.35-2.82,25.59-.3.2-2.25,1.41-6.36,1.76-1.14.09-4.77.14-9.72.17-15.7-.05-32.2-.18-32.46-.18h-1a1.14,1.14,0,0,0-.11.11c-9.43,0-11.85-.11-12-.11h-1c-2,1.72-.79,3.92.93,3.94,1.29,0,23.75.19,39.12.19,2.72,0,5.27,0,7.54,0,3.74,0,7.3,0,10.38,0,8.05,0,14.71-.05,16.53-.2,5.68-.47,8.23-2.39,8.5-2.61,3.79-3.37,3.94-10.75,4.29-28.58.09-4.82.2-10.29.39-16.67a164.29,164.29,0,0,1,2.83-24.84Z"/><path class="cls-10" d="M141.13,248.77l1.55,8.1s-1.37,2.93-6.72,5.35-7.92,3.44-7.92,4.13-.35,2.24,1,2.76,30.67,0,30.67,0,1.56-.69,1.56-4-1.38-9.31-1.38-10.69-1-4.7-1-5.16-11.79.16-11.79.16S143.72,246.19,141.13,248.77Z"/><path class="cls-10" d="M147.16,249.46s.87,7.76,1.38,8.28,11.38.51,11.38.51"/><line class="cls-10" x1="159.92" y1="254.46" x2="147.85" y2="254.63"/><line class="cls-10" x1="128.04" y1="267.73" x2="160.95" y2="267.73"/><path class="cls-3" d="M162.67,151.64S153.12,183.8,152,188.23s5.6,43.35,5.6,44.05.93,2.8.93,5.13-.93,3-.47,3.73,2.1,2.33,1.87,3.73a4.08,4.08,0,0,1-1.4,2.79,4.4,4.4,0,0,1-1.87,1.17H151s-1.4-10.49-5.13-38.22,2.33-43.59,3.5-48.72a44.15,44.15,0,0,1,3.49-9.55Z"/><path class="cls-10" d="M133.21,248.77l1.55,8.1s-1.38,2.93-6.72,5.35-7.93,3.44-7.93,4.13-.35,2.24,1,2.76,30.68,0,30.68,0,1.55-.69,1.55-4S152,255.84,152,254.46s-1-4.7-1-5.16-11.78.16-11.78.16S135.79,246.19,133.21,248.77Z"/><path class="cls-10" d="M139.24,249.46s.86,7.76,1.38,8.28,11.37.51,11.37.51"/><line class="cls-10" x1="151.99" y1="254.46" x2="139.93" y2="254.63"/><line class="cls-10" x1="120.11" y1="267.73" x2="153.02" y2="267.73"/><path class="cls-3" d="M124.22,151.64s-.24,20.28.93,28.9,5.59,28.67,6.29,39.62a113.72,113.72,0,0,0,1.87,16.08s-1.64,1.4-1.64,2.8.94,1.4.7,3.5-1.16,2.79-.46,3.73,1.16,2.79,3.49,3.26,13.29.23,15.62-.23a4.7,4.7,0,0,0,3.5-4.67c0-1.86-.7-3.26-.7-5.36s1.16-4,1.16-5.36-.46-2.09-.46-3.49-3-23.78-3-28.44-.24-20.51.46-24.47,4.2-22.84,4.2-22.84Z"/><path class="cls-3" d="M139,158.48a32.13,32.13,0,0,0,8.58,1.67,50,50,0,0,1,6.69.63l1.26-5.86Z"/><path class="cls-3" d="M136.43,159.48s1.15,32,3.43,42.7,5.34,28.22,4.58,30.51-1.91,7.62-1.91,7.62,4.2-.76,4.2,1.53-6.1,3.81-4.58,5,3,2.4,3,2.4"/><path class="cls-3" d="M150,241.33s-12.66,2-9.06,2.74,10.43-.17,10.77-1S151,241.16,150,241.33Z"/><polygon class="cls-4" points="94.11 19.91 93.76 34.22 107.26 34.1 107.38 19.79 94.11 19.91"/><path class="cls-12" d="M109.47,46.31a25.13,25.13,0,0,1-4.19-5.58c-1.28-2.68-3.14-4.3-3.14-6.17s.82-6.16.47-7.91,0-5.35,1.16-5.35a1.79,1.79,0,0,1,1.74,2.21c-.23,1.17.7,5.24.7,5.24s.93-7.8,1.05-8.26,1.74-.47,2.44-.12,1.52.23,1.52,1.75-.35,3.25-.35,3.6,3.25,2.21,3.37,3.61-.23,4.77-1,6.17a13.9,13.9,0,0,0-1.39,2.79c-.12.46,3.14,5.35,3.14,5.35Z"/><path class="cls-6" d="M114.89,41.4,107,47.46s13.52,28,14,28.9,10.26,7,10.26,7l14.68-18.18S127.48,59.34,127,58.64,114.89,41.4,114.89,41.4Z"/><path class="cls-6" d="M124.24,144.17,123.55,155a51.76,51.76,0,0,0,18.62,3.61c9.65-.17,22.57-4,22.57-4l1.9-10.68s-23.27,1.89-30.33,1.2S124.24,144.17,124.24,144.17Z"/><path class="cls-6" d="M117.35,140.72l-.52,3.1s7.31,4,23.44,5.52a75.83,75.83,0,0,0,29.47-3.1l.17-5.35A113.67,113.67,0,0,1,143.72,144,136.77,136.77,0,0,1,117.35,140.72Z"/><path class="cls-6" d="M130.45,76.61s-5.69,10-7.58,17.75S117.18,138,116.66,140s11.55,6.21,19.48,6.38,25.67.52,28.77-.69,6-2.93,6-4.83.17-9,.17-14.64-1.72-35.68-3.28-42.57S165.26,72,164.74,71.1s-4.31-5-12.06-4.48a41.66,41.66,0,0,0-17.23,5.17A17.84,17.84,0,0,0,130.45,76.61Z"/><path class="cls-3" d="M78.47,87.76a5.15,5.15,0,0,0-3,4c-.23,2.8,4.9,5.59,7.93,9.79s7,8.62,7,8.62l6.06,8.39,7.22-6.06L85,90.79s.93-2.1-.23-2.8A8.15,8.15,0,0,0,78.47,87.76Z"/><path class="cls-10" d="M78.94,94.28l21-7s1.39,5.83,7.69,11.89a103.1,103.1,0,0,0,12.12,10l-18.88,10.72Z"/><path class="cls-10" d="M78.94,94.28a6.55,6.55,0,0,0,1.63-3.73,2.59,2.59,0,0,0-2.1-2.79L99.22,81.7s4,1.39.7,5.59Z"/><path class="cls-12" d="M106.74,116.44s-4.67-.69-4.9-2.09a16.13,16.13,0,0,0-2.1-5.6c-.93-1.16-5.36-3.49-6.76-5.12s-2.33-4-3.26-3.73-2.33,1.16-1.86,2.09,2.56,4.9,2.56,4.9l.47,1.63s-4.2-.7-4.9-.93a1.28,1.28,0,0,0-1.63,1.4c0,1.16-.93,1.16.23,1.86s2.57,1.63,2.57,1.63,1.63,3.73,2.1,4.43,4.19,2.33,4.89,2.8a40.39,40.39,0,0,0,6.29,2.1c1.87.46,6.06,2.09,6.06,2.09l1.17-5.36Z"/><path class="cls-6" d="M156.15,84.28s-.47,19.81-.47,20.74.7,20-1.4,21.68S141.93,130.43,127,130s-21.44-3.73-21.44-3.73l1.17-9.79,28.43-2.09s-3-21.68-2.56-29.14a15.74,15.74,0,0,1,6.52-11.42"/><path class="cls-6" d="M124.77,130.83s28.22,1,29.71-2.48S156,90.72,156,90.72"/><path class="cls-6" d="M137.15,77.84s-6,6.44-5,14.86,3,21.65,3,21.65l-10.9.63"/><path class="cls-12" d="M125.13,24s-3.91,6.76-3.16,7.66.15,2.56.15,2.56-3.91,3-3.6,4S122,42.2,122,42.2s.6,8.11,1.35,8.86,5.86,1.65,6.91,1.8a6,6,0,0,1,1.66.45l3,16.23,16.83-15.17L149,47.15s-1.5-9.61-1.35-14.12S140,23.12,135.34,21.77,125.13,24,125.13,24Z"/><path class="cls-5" d="M128.28,14.86s-3.91-4.06-8.56-.91-3.31,8.27.9,10.07,9.16.45,7.51,2.25-2.1,5.71.45,6.46,2.1,3.61,2.1,4.81,2.11,1.05,2.56,0,1.65-3.91,4.5-2.7,2.71,7.81,1.66,9.46-2.11,1.5-2.11,1.5,1.66.6.6,2.56l-1,2s2.41,2.85,8.42,1.8,7.36-3.75,6.46-6-3-2.55-.75-5.86,7.81-7.21,7.36-14.72c-.3-5-12-9.61-12-9.61s2.7-4.51-3.46-7.36S129.63,9,130.08,12,128.28,14.86,128.28,14.86Z"/><path class="cls-1" d="M121.93,31.14s-1.91-.51-2.06.39,0,5.41,0,5.41a3.27,3.27,0,0,0,2.25.45c1-.3.45-4.06.45-4.06"/><polyline class="cls-5" points="133.84 36.19 120 33.9 120.02 33.03 133.84 36.19"/><path class="cls-6" d="M153.67,49.71A102.9,102.9,0,0,0,140.75,61c-5.26,5.7-11.57,12-11.87,14s.3,5,3.31,1.8,8.56-7.36,12.77-7.66,10.66,1.8,14,2.25,5.41,1.35,6.61-.45-2-5.86-2-8,.46-5.71-1.05-8.26S156.22,49,153.67,49.71Z"/><path class="cls-6" d="M163.49,57.15a21.12,21.12,0,0,1-1.74,4.2c-.87,1.31-13.19,3.77-13.19,3.77s10.14-.58,12-.58,4.06,1.74,4.06,1.74l-1-2.75S164.07,58.46,163.49,57.15Z"/></g></g></svg>