<svg xmlns="http://www.w3.org/2000/svg" viewBox="0 0 61.76 66.59"><defs><style>.cls-1{fill:#1dd3f8;}</style></defs><title>maintainence_costs</title><g id="Layer_2" data-name="Layer 2"><g id="Layer_1-2" data-name="Layer 1"><path class="cls-1" d="M29,66.59a21.09,21.09,0,0,1-2.19-.92,8.55,8.55,0,0,1-2.13-13c.59-.68,1.35-1.21,2-1.84a1.17,1.17,0,0,0,.4-.71c0-5.18,0-10.36,0-15.54,0-.46-.26-.57-.58-.73a8.39,8.39,0,0,1-4.64-8.21,8.26,8.26,0,0,1,5.58-7.77c1.24-.42,1.86,0,1.78,1.32s-.19,2.59-.31,3.89c0,.35,0,.54.39.61a6.38,6.38,0,0,0,.76.15c1.44.11,1.71-.14,1.62-1.53-.07-1.08-.19-2.16-.24-3.24S32,17.56,33,17.81c6.53,1.59,7.9,9.23,4.21,13.65a25.07,25.07,0,0,1-2.13,2,1.14,1.14,0,0,0-.38.72c0,5.18,0,10.36,0,15.54a.65.65,0,0,0,.41.69A8.32,8.32,0,0,1,39.87,59a8.11,8.11,0,0,1-5.68,7.5l-.28.14h-.65A1.37,1.37,0,0,1,32.5,65c.12-1.08.18-2.16.28-3.24s0-1.32-1.2-1.36a6.62,6.62,0,0,0-1.09.13c-.39.06-.53.27-.49.68.12,1.25.17,2.51.3,3.76a1.39,1.39,0,0,1-.81,1.58Zm5.84-2.91a1.26,1.26,0,0,0,.21,0l.22-.14a6.43,6.43,0,0,0,2.41-6.3,5.92,5.92,0,0,0-4-5c-1-.41-1.18-.58-1.18-1.72,0-5.68,0-11.36,0-17a1.48,1.48,0,0,1,.89-1.5,6.77,6.77,0,0,0,3.09-3.31,6.3,6.3,0,0,0-2-7.82c-.2-.13-.42-.23-.73-.4.09,1.19.14,2.22.26,3.26a1.42,1.42,0,0,1-.73,1.52,5.29,5.29,0,0,1-5.78.06,1.52,1.52,0,0,1-.8-1.68c.13-1,.17-1.92.24-2.9-.12,0-.17,0-.2,0s-.26.16-.37.25a6.52,6.52,0,0,0-2.18,6.45,5.9,5.9,0,0,0,3.92,4.78c1.07.42,1.16.53,1.16,1.66,0,5.64,0,11.27,0,16.91a1.66,1.66,0,0,1-1,1.71,6.53,6.53,0,0,0-3,3.29,6.4,6.4,0,0,0,2.08,7.77,6.82,6.82,0,0,0,.65.37c-.08-1.18-.13-2.24-.24-3.29a1.44,1.44,0,0,1,.75-1.46,5.38,5.38,0,0,1,5.83,0,1.43,1.43,0,0,1,.73,1.47C35,61.6,34.9,62.61,34.81,63.68Z"/><path class="cls-1" d="M18.12,9.63a26.11,26.11,0,0,1,6.52-2.82.81.81,0,0,0,.41-.59c.2-1.7.35-3.4.52-5.1A1.09,1.09,0,0,1,26.82,0h8.06c.92,0,1.28.36,1.37,1.29.15,1.66.32,3.32.47,5a.55.55,0,0,0,.47.57,24.79,24.79,0,0,1,6.47,2.79L46.9,7,48,6a1.06,1.06,0,0,1,1.57,0q3.07,3,6.12,6.12a1.08,1.08,0,0,1,0,1.62c-1.06,1.29-2.12,2.58-3.2,3.85a.65.65,0,0,0-.08.9,22.69,22.69,0,0,1,2.49,5.9.7.7,0,0,0,.75.62c1.55.12,3.1.27,4.66.42,1.19.12,1.44.41,1.44,1.61v8c0,1-.31,1.33-1.33,1.43-1.64.15-3.28.34-4.92.48a.54.54,0,0,0-.57.47,23.92,23.92,0,0,1-2.56,6.08.58.58,0,0,0,.09.79c1.07,1.26,2.11,2.53,3.16,3.81a1.15,1.15,0,0,1-.14,1.9Q53.38,52,51.25,53.83c-.86.76-1.41.69-2.09-.26l-6.5-9c-.66-.91-.64-1.25.14-2.08a16.59,16.59,0,1,0-28.4-14,16.33,16.33,0,0,0,4.4,14.11c.7.76.74,1.09.15,1.94Q15.79,49,12.6,53.59c-.66.94-1.22,1-2.09.23L6.33,50.11c-.77-.68-.81-1.15-.16-1.94,1-1.26,2.06-2.51,3.11-3.75a.65.65,0,0,0,.09-.9,23.5,23.5,0,0,1-2.51-6c-.09-.33-.21-.5-.59-.53-1.66-.13-3.32-.32-5-.47C.36,36.47,0,36.12,0,35.19c0-2.75,0-5.51,0-8.26,0-.91.3-1.27,1.2-1.37,1.64-.17,3.28-.33,4.92-.46a.7.7,0,0,0,.74-.62,22.69,22.69,0,0,1,2.49-5.9.63.63,0,0,0-.07-.89c-1.06-1.24-2.08-2.5-3.12-3.75A1.18,1.18,0,0,1,6.26,12q2.89-2.91,5.8-5.8c.66-.66,1.12-.68,1.86-.07ZM16.85,43.68a18.78,18.78,0,1,1,27.86,0l5.74,8,3-2.67-3.22-3.88c-.65-.79-.67-1.08-.12-2a22.66,22.66,0,0,0,2.66-6c.61-2.19.19-2.09,2.85-2.31,1.31-.11,2.62-.27,3.95-.4,0-2.2,0-4.32,0-6.44,0-.44-.31-.4-.58-.42l-4.53-.43c-.95-.08-1.23-.31-1.43-1.2a22.55,22.55,0,0,0-2.95-7c-.53-.82-.5-1.14.14-1.91l3.17-3.84L48.62,8.36l-3.78,3.13c-.88.73-1.12.75-2.06.15a23.49,23.49,0,0,0-6.85-2.89c-1-.25-1.16-.39-1.29-1.41,0-.26,0-.52-.08-.78-.14-1.43-.28-2.87-.42-4.33h-6.5c-.17,1.74-.33,3.44-.49,5.14-.08.86-.3,1.15-1.13,1.35a23.59,23.59,0,0,0-7.15,3c-.78.49-1.07.46-1.8-.14L13.18,8.38,8.35,13.16c1.1,1.32,2.21,2.68,3.33,4a1.2,1.2,0,0,1,.11,1.6A22,22,0,0,0,8.7,26.1a1.2,1.2,0,0,1-1.15,1c-.62.06-1.25.11-1.87.18l-3.46.34v6.79c1.8.18,3.56.36,5.33.52a1.16,1.16,0,0,1,1.13,1,23.26,23.26,0,0,0,3.14,7.44,1.15,1.15,0,0,1-.09,1.49l-1.46,1.75L8.33,49l3,2.64Z"/></g></g></svg>