<svg xmlns="http://www.w3.org/2000/svg" viewBox="0 0 83.84 83.84"><defs><style>.cls-1{fill:#1dd3f8;}</style></defs><title>reduced_dependency</title><g id="Layer_2" data-name="Layer 2"><g id="Layer_1-2" data-name="Layer 1"><path class="cls-1" d="M7.52,34.94c.74-2.23,1.32-4.37,2.16-6.4s2-3.95,3-6c-1.28-1.26-2.64-2.61-4-4-1-1-1-1.67,0-2.66l7.29-7.28c.93-.93,1.62-.94,2.53,0,1.38,1.38,2.74,2.77,4.17,4.21A34.49,34.49,0,0,1,34.94,7.7c0-2,0-4,0-5.9,0-1.32.47-1.79,1.78-1.8H47.11c1.32,0,1.79.48,1.8,1.79V7.53c2.17.72,4.31,1.29,6.34,2.13s4,1.95,6.07,3l3.8-3.82c1.22-1.23,1.8-1.22,3,0l7,7c1,1,1,1.65,0,2.61l-4.14,4.14a34.69,34.69,0,0,1,5.08,12.28h5.8c1.47,0,1.9.44,1.9,1.93,0,3.38,0,6.76,0,10.13,0,1.48-.44,1.91-1.94,1.91H76.15a34.72,34.72,0,0,1-5.1,12.26l4.12,4.12c1,1,1,1.68,0,2.67q-3.6,3.62-7.22,7.22c-1,1-1.67,1-2.67,0l-4-4c-2,1-4,2.14-6,3s-4.17,1.42-6.4,2.16v5.49c0,1.62-.4,2-2,2H37c-1.62,0-2-.4-2-2,0-1.86,0-3.72,0-5.69A35,35,0,0,1,22.66,71l-4.08,4.1c-1,1-1.68,1-2.72,0L8.64,67.93c-1-1-1-1.64,0-2.6l4-4c-1-2.08-2.15-4-3-6s-1.42-4.17-2.14-6.37H1.91C.44,48.91,0,48.47,0,47V36.76c0-1.36.47-1.82,1.85-1.82ZM46.11,81c0-1.9,0-3.75,0-5.61,0-1.24.33-1.65,1.57-1.87A31.51,31.51,0,0,0,60,68.46c1.31-.9,1.69-.85,2.84.31l3.63,3.61,5.92-5.9c-1.19-1.18-2.45-2.43-3.7-3.69-1.08-1.07-1.13-1.49-.29-2.7a31.76,31.76,0,0,0,5.1-12.32c.25-1.36.61-1.65,2-1.65H81V37.73c-1.94,0-3.83,0-5.71,0-1.09,0-1.55-.38-1.73-1.44a31.47,31.47,0,0,0-5.21-12.64c-.74-1.07-.67-1.56.28-2.51,1.29-1.29,2.59-2.58,3.88-3.85l-6-5.9c-1.27,1.27-2.58,2.59-3.9,3.9-.87.86-1.42.93-2.38.26a31.43,31.43,0,0,0-12.8-5.27,1.44,1.44,0,0,1-1.35-1.62c0-1.37,0-2.74,0-4.11V2.87H37.73c0,2,0,3.85,0,5.74a1.46,1.46,0,0,1-1.4,1.68,31.25,31.25,0,0,0-12.57,5.14c-1.2.83-1.65.77-2.71-.29l-3.69-3.68-5.91,5.91,3.32,3.31c1.57,1.57,1.59,1.71.37,3.52a31.1,31.1,0,0,0-4.81,11.87c-.26,1.34-.61,1.66-2,1.66H2.85v8.39H8.57a1.49,1.49,0,0,1,1.73,1.44,31.35,31.35,0,0,0,5.16,12.57c.78,1.13.73,1.62-.23,2.58-1.29,1.3-2.59,2.59-3.84,3.83l5.9,5.92,3.55-3.54c1.36-1.36,1.62-1.39,3.18-.33a29.56,29.56,0,0,0,10.91,4.67c3.11.62,2.8.8,2.8,3.51V81Z"/><path class="cls-1" d="M41.92,68.47A26.55,26.55,0,1,1,68.47,41.84,26.58,26.58,0,0,1,41.92,68.47ZM18.17,41.88A23.76,23.76,0,1,0,42,18.17,23.77,23.77,0,0,0,18.17,41.88Z"/><path class="cls-1" d="M33.64,35.77c-.88-.08-1.54-.1-2.18-.21a5.89,5.89,0,0,1-4.62-3.76,23.91,23.91,0,0,0-1.45-2.48,1.42,1.42,0,0,1,.24-1.9l1.79-1.8a1.46,1.46,0,0,1,1.91-.23c1.52.9,3.06,1.79,4.56,2.74a2.48,2.48,0,0,1,.85,1,13.28,13.28,0,0,1,.78,2.22,18.23,18.23,0,0,1,.24,2.21l4.34,4.31c.94-1,1.95-2,2.9-3a1.43,1.43,0,0,0,.12-1A8.39,8.39,0,0,1,50,24.19a7.77,7.77,0,0,1,4.29.4A1.38,1.38,0,0,1,54.85,27c-.78.82-1.6,1.6-2.4,2.41a1.39,1.39,0,0,0,.46,2.06,1.31,1.31,0,0,0,1.81-.34A23,23,0,0,1,56.8,29a1.39,1.39,0,0,1,2.47.56c2.23,5.64-2.79,12-8.81,11.19-.49-.07-1-.08-1.5-.11l-.06.26c.21.23.41.46.63.68,2.59,2.6,5.21,5.16,7.77,7.79a5.56,5.56,0,0,1-2.54,9.36,5.47,5.47,0,0,1-5.51-1.59l-7.59-7.6c-.22-.23-.39-.51-.59-.76l-.36.12a7.22,7.22,0,0,0,0,1,8.36,8.36,0,0,1-6.85,9.68,7.86,7.86,0,0,1-4.21-.36,1.4,1.4,0,0,1-.61-2.5c.74-.78,1.52-1.53,2.28-2.29a1.58,1.58,0,0,0-.05-2,1.53,1.53,0,0,0-2,.08c-.72.72-1.43,1.45-2.16,2.16-1.05,1-2.12.74-2.61-.64a8.39,8.39,0,0,1,9-11,1.91,1.91,0,0,0,2-.65c.78-.85,1.67-1.61,2.48-2.36Zm9.13,10.95c3,3,5.73,5.75,8.51,8.5a2.87,2.87,0,0,0,4.07.11,2.82,2.82,0,0,0-.13-4c-1.69-1.72-3.41-3.42-5.11-5.12C49,45.09,48,44,46.85,42.86c-1.1,1.12-2.12,2.19-3.17,3.23A6.86,6.86,0,0,1,42.77,46.72ZM42,39.83,44,41.92c.65-.66,1.25-1.29,1.86-1.92s1.24-1.22,1.85-1.85a1.8,1.8,0,0,1,1.82-.47,9.42,9.42,0,0,0,3.08.19,5.17,5.17,0,0,0,4.26-5.08l-1.19,1.35a1.75,1.75,0,0,1-2.12.5c-4-1.41-2.9-.39-4.37-4.49a1.59,1.59,0,0,1,.43-1.83c.45-.41.87-.86,1.41-1.4a5.53,5.53,0,0,0-4.91,7.19,2,2,0,0,1-.57,2.27C44.31,37.51,43.15,38.7,42,39.83ZM32.8,56.89a5.49,5.49,0,0,0,5-7.2,1.89,1.89,0,0,1,.55-2.18c1.22-1.16,2.39-2.37,3.57-3.53l-1.95-2c-1.15,1.15-2.31,2.25-3.39,3.43a2.2,2.2,0,0,1-2.55.68,5.48,5.48,0,0,0-7,5c.52-.56.94-1,1.34-1.44a1.57,1.57,0,0,1,1.82-.47c4.24,1.51,3.08.35,4.6,4.59a1.58,1.58,0,0,1-.48,1.82C33.79,56,33.36,56.37,32.8,56.89Zm-4-28.56c-.09.06-.26.12-.29.22a.74.74,0,0,0,0,.53,17.7,17.7,0,0,0,1.71,2.81,3.62,3.62,0,0,0,1.82.84c.15,0,.72-.59.67-.81-.18-.76-.3-1.59-1.18-2s-1.51-.87-2.25-1.31Z"/></g></g></svg>