<svg xmlns="http://www.w3.org/2000/svg" viewBox="0 0 85.22 85.96"><defs><style>.cls-1{fill:#1dd3f8;}</style></defs><title>saves_costs</title><g id="Layer_2" data-name="Layer 2"><g id="Layer_1-2" data-name="Layer 1"><path class="cls-1" d="M39.74,74.44a1.68,1.68,0,0,1,1.45,1.9c0,2.59,0,5.19,0,7.78,0,1.35-.49,1.84-1.83,1.84H20.1c-1.35,0-1.84-.49-1.84-1.83,0-2.6,0-5.19,0-7.79,0-1.18.21-1.46,1.4-1.92,0-2.12.06-4.26,0-6.4a4.26,4.26,0,0,0-1.7-3c-3-2.61-5.87-5.26-8.84-7.84a8.92,8.92,0,0,1-2.9-4.7C4.27,45.08,2.27,37.72.28,30.36a5.84,5.84,0,0,1,2.18-6.67,1.17,1.17,0,0,0,.38-.8A5.79,5.79,0,0,1,7.6,17a6,6,0,0,1,6.54,4.23c2,5.89,4.06,11.77,6.11,17.64a1.66,1.66,0,0,0,.65.78q6,3.56,12,7.07A12.93,12.93,0,0,1,39.75,58.7C39.73,63.92,39.74,69.14,39.74,74.44Zm-2.86,0v-.87c0-5.07,0-10.14,0-15.21a9.9,9.9,0,0,0-5.07-9c-4.07-2.43-8.17-4.8-12.27-7.19a3.82,3.82,0,0,0-1.33-.49,2.84,2.84,0,0,0-1.7,5.34c2.62,1.54,5.27,3,7.89,4.57A1.43,1.43,0,1,1,23,54.13c-2.72-1.56-5.45-3.09-8.13-4.71a5.66,5.66,0,0,1-2.2-7.34,1.6,1.6,0,0,0,.12-1q-2.14-6.73-4.35-13.44a2.85,2.85,0,0,0-2.5-2A2.77,2.77,0,0,0,3,29.24C5,36.84,7.05,44.43,9.07,52a5.39,5.39,0,0,0,1.7,2.76c3.05,2.69,6.06,5.4,9.11,8.08a7.49,7.49,0,0,1,2.67,5.91c0,1.67,0,3.34,0,5,0,.23,0,.45.06.69Zm1.37,8.57V77.43H21.17v5.62ZM5.75,22.67a6.17,6.17,0,0,1,5.72,5c.37,1.35.85,2.67,1.28,4,.84,2.57,1.68,5.13,2.51,7.71l1.9-.57q-1.07-3.06-2.1-6.07c-1.24-3.57-2.46-7.15-3.7-10.72A3.1,3.1,0,0,0,8,19.88,2.82,2.82,0,0,0,5.75,22.67Z"/><path class="cls-1" d="M65.53,74.41c1.23.48,1.43.76,1.43,2,0,2.56,0,5.13,0,7.69,0,1.36-.49,1.86-1.82,1.86H45.9c-1.39,0-1.86-.49-1.86-1.9V76.54c0-1.38.14-1.59,1.43-2.17,0-5.11.05-10.24,0-15.37a13.21,13.21,0,0,1,7.11-12.42c3.83-2.19,7.62-4.45,11.43-6.66a2.27,2.27,0,0,0,1.1-1.31c2-5.83,4-11.65,6-17.47A5.88,5.88,0,0,1,77.59,17a5.8,5.8,0,0,1,4.79,5.84,1.3,1.3,0,0,0,.43.86,5.73,5.73,0,0,1,2.13,6.51q-2.49,9.38-5,18.74c-.33,1.23-.68,2.46-1,3.71a7.94,7.94,0,0,1-2.56,4.2c-3,2.62-5.91,5.3-8.91,7.89a5.17,5.17,0,0,0-2,4.38C65.58,70.88,65.53,72.62,65.53,74.41Zm-2.86.07c0-2,0-3.83,0-5.71a7.46,7.46,0,0,1,2.68-5.9c3-2.68,6.06-5.39,9.11-8.08A5.32,5.32,0,0,0,76.15,52c2-7.52,4-15,6-22.54a2.89,2.89,0,0,0-1.84-3.81,3,3,0,0,0-3.65,2.22c-1.4,4.3-2.8,8.61-4.16,12.93a2,2,0,0,0,.08,1.33,5.62,5.62,0,0,1-1.89,7c-2.82,1.79-5.75,3.39-8.65,5a1.37,1.37,0,0,1-1.93-.54,1.41,1.41,0,0,1,.53-1.94c.15-.1.31-.18.47-.27l7.36-4.24a3,3,0,0,0,1.69-2.17A2.75,2.75,0,0,0,69,42.23a2.78,2.78,0,0,0-3.2-.09q-6.14,3.59-12.27,7.19a10,10,0,0,0-5.23,9.16c0,5,0,10,0,15v1ZM47,83H64V77.41H47Zm23-43.67c.09-.23.17-.42.23-.62C71.43,34.84,72.7,30.93,74,27a5.54,5.54,0,0,1,2.58-3.39,25.17,25.17,0,0,1,2.91-1.15,2.71,2.71,0,0,0-2.22-2.59,3,3,0,0,0-3.3,2q-2,5.69-3.94,11.38l-1.93,5.53Z"/><path class="cls-1" d="M42.57,0A21.49,21.49,0,1,1,21.12,21.48,21.51,21.51,0,0,1,42.57,0Zm.12,2.87A18.62,18.62,0,1,0,61.23,21.48,18.63,18.63,0,0,0,42.69,2.87Z"/><path class="cls-1" d="M58.37,21.42A15.76,15.76,0,1,1,42.69,5.73,15.78,15.78,0,0,1,58.37,21.42Zm-28.65,0A12.89,12.89,0,1,0,42.77,8.6,12.9,12.9,0,0,0,29.72,21.46Z"/><path class="cls-1" d="M41.13,14.41c.18-2.4.47-3,1.5-2.94A1.3,1.3,0,0,1,44,12.56a8.67,8.67,0,0,1,0,1.67c1,.55,2,.94,2.81,1.49a3.42,3.42,0,0,1,1.51,2.63A1.46,1.46,0,0,1,47.09,20a1.52,1.52,0,0,1-1.62-1.23,2,2,0,0,0-.56-.95,4.34,4.34,0,0,0-4.64,0c-.67.52-.73,1.11,0,1.49a11.41,11.41,0,0,0,2.35.7,16.46,16.46,0,0,1,3.64,1C49,22.64,49,25.9,46.35,27.6a20.23,20.23,0,0,1-2.31,1v.74c0,1.45-.48,2.14-1.45,2.12s-1.41-.68-1.41-2.16v-.73c-.7-.29-1.4-.53-2-.86a4,4,0,0,1-2.22-2.87A1.53,1.53,0,0,1,38,23c.8-.16,1.45.34,1.7,1.31a1.13,1.13,0,0,0,.09.34,3,3,0,0,0,2.75,1.17,2.91,2.91,0,0,0,2.75-1.14,1,1,0,0,0-.32-.94,13.33,13.33,0,0,0-2.34-.76,23.7,23.7,0,0,1-3.18-.73,3.75,3.75,0,0,1-2.59-3.62A3.93,3.93,0,0,1,39.49,15C40,14.78,40.55,14.63,41.13,14.41Z"/></g></g></svg>