<svg xmlns="http://www.w3.org/2000/svg" viewBox="0 0 79.85 71.11"><defs><style>.cls-1{fill:#1dd3f8;}</style></defs><title>subscription_model</title><g id="Layer_2" data-name="Layer 2"><g id="Layer_1-2" data-name="Layer 1"><path class="cls-1" d="M53.67,28.69v4.12a4.57,4.57,0,0,1,4.95.88,4.45,4.45,0,0,1,7.53,2.71,14.32,14.32,0,0,1,2.52-.12,4.12,4.12,0,0,1,3.66,3.82c0,.28,0,.55,0,.82q0,11.25,0,22.48c0,3.84-2.1,6.65-5.55,7.5a5.4,5.4,0,0,1-1.26.18c-3.93,0-7.86.1-11.78-.07a10.29,10.29,0,0,1-8.28-4.56c-4.2-6.05-8.27-12.19-12.34-18.33a4.44,4.44,0,0,1,1.11-6,4.67,4.67,0,0,1,6.36.54c1.12,1.25,2.17,2.56,3.24,3.84l1,1.15V28.69H43.67c-11.48,0-23,0-34.44,0-2.61,0-4.49-.89-5.34-3.49a1,1,0,0,0-.58-.46A4.59,4.59,0,0,1,0,20.12C0,15,0,10,0,4.86A4.58,4.58,0,0,1,4.91,0h70a4.59,4.59,0,0,1,4.93,4.9c0,5,0,10.05,0,15.08a4.65,4.65,0,0,1-3.35,4.79,1.11,1.11,0,0,0-.57.58A4.66,4.66,0,0,1,71,28.69H53.67Zm-4.11-10a4.15,4.15,0,0,1,3.79,2.94,1,1,0,0,0,1.15.81c6.7,0,13.4,0,20.1,0,2,0,2.77-.74,2.77-2.74V5.27c0-2-.77-2.78-2.75-2.78H5.18c-1.91,0-2.69.8-2.69,2.73q0,7.17,0,14.35c0,2.19.69,2.88,2.91,2.88H45a4.53,4.53,0,0,1,3.15-3.59c-.24-.54-.65-1-.65-1.53-.06-3.23,0-6.45,0-9.68,0-.92.43-1.36,1.33-1.38,1.22,0,2.44,0,3.66,0a2.46,2.46,0,0,1,2.49,2.5c0,.54,0,1.09,0,1.64A2.87,2.87,0,0,1,53,13.7c.49.87.94,1.69,1.4,2.5.7,1.25.65,1.94-.16,2.36s-1.35.06-2-1.13-1.35-2.41-2-3.61l-.24.06c0,.8,0,1.61,0,2.41S49.68,17.89,49.56,18.71ZM47.41,37c0,4.57,0,9.14,0,13.7a2.26,2.26,0,0,1-.5,1.38c-.49.54-1.25.34-1.87-.39-2-2.35-3.94-4.73-6-7a3.4,3.4,0,0,0-1.54-1,1.93,1.93,0,0,0-2.2.94,2.12,2.12,0,0,0,.14,2.55c3.91,5.8,7.79,11.63,11.72,17.42a8.91,8.91,0,0,0,7.66,4.06c3.32,0,6.64,0,10,0a4.78,4.78,0,0,0,5.08-5.11q0-11.28,0-22.57c0-1.44-.72-2.29-1.91-2.27s-1.85.84-1.86,2.23c0,1.89,0,3.77,0,5.66,0,1.06-.43,1.59-1.22,1.6s-1.23-.55-1.24-1.57c0-.27,0-.55,0-.82,0-2.9,0-5.79,0-8.68A1.91,1.91,0,0,0,62.05,35a1.88,1.88,0,0,0-2.17,2.09c0,2.4,0,4.81,0,7.22,0,.67,0,1.34,0,2a1.21,1.21,0,0,1-2.41.06,7,7,0,0,1,0-.92V37.12a1.93,1.93,0,0,0-.95-1.93,1.86,1.86,0,0,0-2.8,1.72c0,2.83,0,5.66,0,8.49,0,1.4-.41,2-1.28,2s-1.21-.63-1.21-2c0-7.16,0-14.32,0-21.47a10,10,0,0,0,0-1.1A1.82,1.82,0,0,0,49,21.25a1.85,1.85,0,0,0-1.62,2.07C47.41,27.89,47.42,32.46,47.41,37ZM6.49,25a2.42,2.42,0,0,0,2.37,1.22H44c.26,0,.53,0,.81,0V25Zm66.83,0H53.71V26.2c6,0,11.93,0,17.86,0A1.89,1.89,0,0,0,73.32,25Zm-21-13.82V8.79H50v2.42Z"/><path class="cls-1" d="M15.58,51.13A4.35,4.35,0,1,1,20,46.82,4.35,4.35,0,0,1,15.58,51.13Zm-1.83-4.38a1.85,1.85,0,1,0,1.89-1.84A1.88,1.88,0,0,0,13.75,46.75Z"/><path class="cls-1" d="M17.45,61.12c0,.45,0,.91,0,1.36a1.14,1.14,0,0,1-1.2,1.13,1.08,1.08,0,0,1-1.21-1,21.74,21.74,0,0,1,0-2.91,1.08,1.08,0,0,1,1.27-1,1.16,1.16,0,0,1,1.15,1.18c0,.43,0,.85,0,1.28Z"/><path class="cls-1" d="M17.44,68.66a10.29,10.29,0,0,1,0,1.36,1.12,1.12,0,0,1-1.16,1.07,1.06,1.06,0,0,1-1.22-1,19.9,19.9,0,0,1,0-3,1.07,1.07,0,0,1,1.22-1,1.15,1.15,0,0,1,1.18,1.15c0,.45,0,.91,0,1.37Z"/><path class="cls-1" d="M20,66.1c-.46,0-.92,0-1.37,0a1.14,1.14,0,0,1-1.14-1.18,1.09,1.09,0,0,1,1.07-1.23,26.53,26.53,0,0,1,2.82,0,1.06,1.06,0,0,1,1,1.16,1.1,1.1,0,0,1-1.06,1.24,12.34,12.34,0,0,1-1.36,0Z"/><path class="cls-1" d="M12.42,66.1c-.42,0-.85,0-1.27,0A1.14,1.14,0,0,1,10,64.92a1.1,1.1,0,0,1,1.07-1.24,22.11,22.11,0,0,1,2.82,0,1.21,1.21,0,0,1,0,2.4,14.2,14.2,0,0,1-1.46,0Z"/><path class="cls-1" d="M32,56.81a1.43,1.43,0,0,1-1.41,1.37,1.44,1.44,0,0,1-1.39-1.41,1.4,1.4,0,1,1,2.8,0Z"/><path class="cls-1" d="M63.14,6.26c.58,0,1.16,0,1.73,0a2.37,2.37,0,0,1,2.47,2.49c0,1.21-.21,2.41-.22,3.62,0,1,.21,2,.23,3.06,0,2.45-.82,3.29-3.27,3.29-.91,0-1.83,0-2.74,0a1.3,1.3,0,0,1-1.46-1.47q0-4.75,0-9.5c0-1.06.45-1.47,1.52-1.49Zm1.66,4.93V8.77H62.47v2.42Zm-2.36,5h2.37V13.81H62.44Z"/><path class="cls-1" d="M21.23,12.48c0-1.55,0-3.1,0-4.65,0-1.17.38-1.55,1.51-1.57s2.32,0,3.47,0A2.33,2.33,0,0,1,28.65,8.6c.05,1.2-.11,2.41-.17,3.62,0,.23.06.46.07.69a36.26,36.26,0,0,1,0,3.9,2.27,2.27,0,0,1-2.35,1.9c-1.22.05-2.44,0-3.65,0a1.24,1.24,0,0,1-1.34-1.4C21.21,15.71,21.23,14.1,21.23,12.48Zm2.51-1.29h2.39V8.8H23.74Zm0,2.58v2.36h2.41V13.77Z"/><path class="cls-1" d="M71.17,8.72v2.52h3.37c1,0,1.58.48,1.56,1.26s-.56,1.21-1.52,1.22-2.23,0-3.4,0v2.48c1.1,0,2.19,0,3.27,0s1.67.49,1.65,1.28-.6,1.23-1.6,1.24H70.2c-1.15,0-1.58-.46-1.58-1.63,0-3.08,0-6.15,0-9.23,0-1.2.39-1.6,1.57-1.61h4.39c1,0,1.5.45,1.52,1.2s-.55,1.25-1.55,1.25Z"/><path class="cls-1" d="M15,16.17h2.49v-1c0-2.5,0-5,0-7.49a1.26,1.26,0,1,1,2.5,0c0,2.86,0,5.72,0,8.58a2.47,2.47,0,0,1-2.51,2.5c-.82,0-1.65,0-2.47,0a2.47,2.47,0,0,1-2.48-2.61c0-2.8,0-5.6,0-8.4,0-.92.42-1.41,1.17-1.44S15,6.75,15,7.69c0,2.44,0,4.87,0,7.31Z"/><path class="cls-1" d="M8.66,16.21V13.73c-.77,0-1.5,0-2.22,0A2.52,2.52,0,0,1,3.75,11c0-.76,0-1.52,0-2.28A2.39,2.39,0,0,1,6.14,6.28c1.25,0,2.5,0,3.75,0a1.2,1.2,0,0,1,1.33,1.2c0,.72-.52,1.24-1.37,1.25-1.15,0-2.3,0-3.52,0v2.52H8.47A2.52,2.52,0,0,1,11.23,14c0,.7,0,1.4,0,2.1a2.52,2.52,0,0,1-2.52,2.59c-1.18,0-2.37,0-3.56,0a1.26,1.26,0,1,1,0-2.5C6.29,16.19,7.44,16.21,8.66,16.21Z"/><path class="cls-1" d="M32.47,8.72v2.52h2.26a2.48,2.48,0,0,1,2.68,2.66c0,.76,0,1.53,0,2.29A2.45,2.45,0,0,1,35,18.71c-1.22.06-2.44,0-3.65,0a1.25,1.25,0,1,1,0-2.5c1.18,0,2.35,0,3.64,0a18.27,18.27,0,0,0,0-2,.77.77,0,0,0-.56-.47c-.66-.07-1.34,0-2-.06A2.38,2.38,0,0,1,30,11.39a16.64,16.64,0,0,1,0-2.91,2.33,2.33,0,0,1,2.37-2.2c1.22,0,2.44,0,3.65,0,.9,0,1.39.47,1.39,1.22S36.91,8.7,36,8.71C34.87,8.73,33.72,8.72,32.47,8.72Z"/><path class="cls-1" d="M41.23,8.72v7.49c1.12,0,2.21,0,3.29,0s1.65.48,1.62,1.3-.58,1.21-1.6,1.22-2.07,0-3.11,0A2.55,2.55,0,0,1,38.67,16c0-2.34,0-4.69,0-7a2.5,2.5,0,0,1,2.66-2.71c1.16,0,2.31,0,3.47,0,.87,0,1.4.52,1.34,1.26A1.18,1.18,0,0,1,44.8,8.71Z"/><path class="cls-1" d="M58.63,12.46c0,1.55,0,3.1,0,4.65,0,1-.45,1.59-1.21,1.61s-1.24-.58-1.25-1.57c0-3.13,0-6.26,0-9.39,0-1,.44-1.48,1.21-1.49s1.24.5,1.25,1.45C58.64,9.3,58.63,10.88,58.63,12.46Z"/></g></g></svg>