<svg xmlns="http://www.w3.org/2000/svg" viewBox="0 0 98.91 98.9"><defs><style>.cls-1{fill:#1dd3f8;}</style></defs><title>Analysis</title><g id="Layer_2" data-name="Layer 2"><g id="Layer_1-2" data-name="Layer 1"><path class="cls-1" d="M58.54,0c1.71.24,3.44.43,5.14.74A42.35,42.35,0,0,1,87.1,13.46l1,1.06c1-1,2-2.06,3-3.06C92.54,10,94,8.58,95.42,7.16a1.94,1.94,0,1,1,2.72,2.72c-2.26,2.3-4.55,4.57-6.83,6.84a9.41,9.41,0,0,1-.83.62c1,1.54,1.86,2.87,2.66,4.26A40.92,40.92,0,0,1,98.84,45c-.9,15.45-8.1,27.3-21.33,35.29A41.24,41.24,0,0,1,50.7,85.82a41.77,41.77,0,0,1-17.91-6.38,1.15,1.15,0,0,0-1.76.22q-8.19,8.27-16.44,16.47c-2.37,2.36-5.15,3.36-8.45,2.42a8.17,8.17,0,0,1-6-6.34c0-.21-.12-.42-.18-.64V89.45A9.63,9.63,0,0,1,2.16,85C3.45,83.7,4.73,82.38,6,81.1a2.2,2.2,0,0,1,1-.53,1.74,1.74,0,0,1,2.05.89,1.87,1.87,0,0,1-.37,2.38C7.59,85,6.4,86.16,5.26,87.34a4.38,4.38,0,0,0-.94,5.14c1.42,2.93,5,3.43,7.43,1Q20,85.27,28.21,77c.15-.15.27-.32.41-.48l-.35.24L22,70.46c-.59.63-1.39,1.54-2.26,2.4A1.94,1.94,0,1,1,17,70.15c.82-.86,1.65-1.71,2.53-2.52.43-.4.43-.7.15-1.22-1.34-2.49-2.65-5-3.89-7.53a33.54,33.54,0,0,1-1.19-3.26L3.67,63.16C2,64.35,1.18,64.23,0,62.59V61.44a17.36,17.36,0,0,1,1.72-1.61q5.57-3.91,11.19-7.74a1.19,1.19,0,0,0,.56-1.35A53.09,53.09,0,0,1,12.81,45a42.08,42.08,0,0,1,9.25-28.63A42.11,42.11,0,0,1,48,.74c1.7-.32,3.43-.5,5.14-.74ZM95.05,43.06A39.22,39.22,0,1,0,55.88,82.29,39.36,39.36,0,0,0,95.05,43.06Z"/><path class="cls-1" d="M14.86,76.86a2,2,0,0,1-1.87,2A1.92,1.92,0,1,1,12.92,75,2,2,0,0,1,14.86,76.86Z"/><path class="cls-1" d="M55.76,75.92A32.84,32.84,0,1,1,88.67,43.17,33,33,0,0,1,55.76,75.92ZM27,42.35c1.05-.73,2-1.45,3.05-2.1A1.05,1.05,0,0,0,30.58,39a5.77,5.77,0,0,1,8-6.1,5.74,5.74,0,0,1,3.58,5.3,1.5,1.5,0,0,0,.46,1q4,2.73,8.14,5.36a1.17,1.17,0,0,0,1,0,6.1,6.1,0,0,1,4.55-.75,1.3,1.3,0,0,0,1-.23Q62.44,39,67.55,34.4a1.2,1.2,0,0,0,.31-.95,5.77,5.77,0,0,1,7.5-7,1.06,1.06,0,0,0,.79,0c.71-.53,1.37-1.14,2-1.69-8.48-9.95-21.8-13.24-33.42-8.38A28.79,28.79,0,0,0,27,42.35ZM80.28,27.67a14.4,14.4,0,0,1-1.12,1.18A1,1,0,0,0,78.88,30a5.4,5.4,0,0,1-1.48,6,5.31,5.31,0,0,1-6.15,1.11,1,1,0,0,0-1.26.27c-1.64,1.5-3.3,3-5,4.45l-5.18,4.65c.12.25.21.45.3.66a5.72,5.72,0,0,1-2.65,7.41,1.14,1.14,0,0,0-.72,1.25q0,7.63,0,15.26V72A28.66,28.66,0,0,0,71,67.73a1.41,1.41,0,0,0,.47-1c0-2.48,0-5,0-7.44,0-2.64,0-5.28,0-7.92a1.9,1.9,0,0,1,2.16-2.1c1.07.13,1.68,1,1.69,2.32,0,3.9,0,7.79,0,11.69v1.12A28.8,28.8,0,0,0,80.28,27.67ZM52.85,71.88c0-.22.07-.31.07-.4,0-5.31,0-10.62,0-15.93a1.2,1.2,0,0,0-.55-.84A5.66,5.66,0,0,1,49.11,49a1.09,1.09,0,0,0-.6-1.16c-2.16-1.39-4.35-2.76-6.43-4.26-1.11-.8-2-1.26-3.22-.17-.35.31-.64.49-.63,1,0,7,0,14,0,21a1.38,1.38,0,0,0,.52,1,45.54,45.54,0,0,0,4.27,2.61A27,27,0,0,0,52.85,71.88Zm-18.48-9.4c0-6.27,0-12.26,0-18.24a1.39,1.39,0,0,0-2-1c-1.54,1.05-3.05,2.14-4.61,3.17a1,1,0,0,0-.53,1.26c.76,2.51,1.38,5.08,2.34,7.52A23.59,23.59,0,0,0,34.37,62.48Zm41-30.57a1.94,1.94,0,0,0-1.86-2,1.92,1.92,0,0,0-.09,3.83A2,2,0,0,0,75.34,31.91Zm-39,4.42a1.93,1.93,0,0,0-1.91,1.9,2,2,0,0,0,1.9,1.93,2,2,0,0,0,1.93-1.91A2,2,0,0,0,36.3,36.33ZM56.76,49.49a2,2,0,0,0-1.91-1.93,1.92,1.92,0,1,0,1.91,1.93Z"/><path class="cls-1" d="M75.31,43.28a2,2,0,0,1-2,1.9,2,2,0,0,1-1.88-1.94,1.94,1.94,0,0,1,1.93-1.89A2,2,0,0,1,75.31,43.28Z"/></g></g></svg>