<svg xmlns="http://www.w3.org/2000/svg" viewBox="0 0 90.66 96.95"><defs><style>.cls-1{fill:#1dd3f8;}</style></defs><title>Brainstroming</title><g id="Layer_2" data-name="Layer 2"><g id="Layer_1-2" data-name="Layer 1"><path class="cls-1" d="M58.5,74.61c1.57.34,1.7.51,1.7,2.14v3.38c0,1.71-.13,1.86-1.87,2v2.35c1.87.31,1.87.31,1.87,2.26,0,1.16,0,2.32,0,3.48s-.38,1.49-1.5,1.51c-1.72,0-1.72,0-2.36,1.6-.34.87-.71,1.73-1,2.6a1.46,1.46,0,0,1-1.54,1q-8.4,0-16.8,0a1.57,1.57,0,0,1-1.66-1.16c-.43-1.14-.93-2.26-1.35-3.4a.85.85,0,0,0-1-.68c-2.87.18-2.53-.57-2.52-2.6V86.5c0-1.71.11-1.83,1.88-2V82.17c-1.87-.28-1.88-.3-1.88-2.17V76.62c0-1.48.21-1.74,1.71-2a12.59,12.59,0,0,0-4.73-7.88,32,32,0,0,1-6.59-6.61,27.67,27.67,0,0,1,3.13-36,30.37,30.37,0,0,1,44,1.25,27.78,27.78,0,0,1-2.07,39.13c-1.58,1.45-3.28,2.8-4.74,4.37A11,11,0,0,0,58.5,74.61Zm-2.43.08c.21-.8.37-1.55.59-2.28,1.09-3.61,3.47-6.2,6.37-8.49A25.44,25.44,0,0,0,68.55,30C59.08,15.67,38.26,13.43,26,25.49c-6,5.9-8.8,13.07-7.83,21.49A25.06,25.06,0,0,0,28.41,64.55a15.32,15.32,0,0,1,5.25,6.88c.4,1,.65,2.14,1,3.26Zm1.77,2.43h-25v2.63c1,0,1.9,0,2.82,0a1.09,1.09,0,0,1,1.17,1.15,1.1,1.1,0,0,1-1.17,1.15c-.28,0-.56,0-.88,0v2.45H55.91V82.07h-12c-.75,0-1.26-.37-1.26-1.15s.5-1.14,1.26-1.16H57.84Zm-25,12.22h25V87h-25Zm21.64,2.44H36.2c.34.86.62,1.64,1,2.38a.94.94,0,0,0,.7.44q7.44,0,14.88,0a.88.88,0,0,0,.66-.36C53.81,93.48,54.1,92.67,54.46,91.78Z"/><path class="cls-1" d="M14.05,12.76a7.39,7.39,0,0,1,1,.71Q18.66,17,22.2,20.56c.66.67.71,1.36.14,1.84s-1.24.34-1.78-.2c-2.36-2.37-4.75-4.72-7.07-7.13a1.89,1.89,0,0,1-.39-1.43C13.14,13.33,13.68,13.08,14.05,12.76Z"/><path class="cls-1" d="M76.35,12.93c1,0,1.58.81,1.28,1.55a2.06,2.06,0,0,1-.44.62L70.1,22.2c-.55.54-1.14.75-1.79.2s-.51-1.17.16-1.84Q72,17,75.57,13.46A4.9,4.9,0,0,1,76.35,12.93Z"/><path class="cls-1" d="M46.49,6.46v4.82c0,1-.4,1.58-1.13,1.6s-1.19-.54-1.19-1.54c0-3.28,0-6.57,0-9.85,0-.81.24-1.41,1.13-1.49s1.18.52,1.19,1.53Z"/><path class="cls-1" d="M6.51,46.53c-1.67,0-3.35,0-5,0-.82,0-1.41-.27-1.49-1.15-.06-.7.53-1.17,1.45-1.17h9.94c.81,0,1.42.24,1.48,1.14s-.52,1.17-1.53,1.18Z"/><path class="cls-1" d="M84.24,46.53H79.32c-1,0-1.58-.43-1.53-1.18s.67-1.14,1.48-1.14h9.94c.92,0,1.51.47,1.44,1.17-.08.88-.66,1.16-1.48,1.15C87.53,46.52,85.89,46.53,84.24,46.53Z"/><path class="cls-1" d="M14.3,77.69c-1.09,0-1.62-.9-1.21-1.65a2.75,2.75,0,0,1,.49-.59Q17,72,20.46,68.56c.72-.72,1.4-.81,1.92-.29s.46,1.18-.28,1.92q-3.47,3.5-7,7A4,4,0,0,1,14.3,77.69Z"/><path class="cls-1" d="M69,67.76a7.34,7.34,0,0,1,1.06.67c2.4,2.38,4.78,4.77,7.17,7.16.55.55.74,1.18.13,1.77a1.16,1.16,0,0,1-1.78-.14c-2.39-2.39-4.79-4.76-7.14-7.19a1.79,1.79,0,0,1-.38-1.35C68.12,68.35,68.63,68.1,69,67.76Z"/><path class="cls-1" d="M55.43,27.83a7,7,0,0,1,5.68,1.74,6.83,6.83,0,0,1,2.27,6,1.13,1.13,0,0,0,.3.88c2.7,2.25,3.08,5,1.21,7.67a26.71,26.71,0,0,1,1.69,4.07,6.51,6.51,0,0,1-3.11,7,1.68,1.68,0,0,0-1,1.72,5.43,5.43,0,0,1-4.73,5.57,1.81,1.81,0,0,1-.76.05c-1.62-.52-3.07,0-4.65.39a5.36,5.36,0,0,1-6.63-5.35c0-6.17,0-12.35,0-18.52,0-3.8,0-7.6,0-11.39a4.78,4.78,0,0,1,9.32-1.42A16.25,16.25,0,0,1,55.43,27.83Zm3.19,27.49c.06-1.24,1-1.27,1.85-1.4a4.61,4.61,0,0,0,.58-9c-.43-.11-.89-.11-1.33-.19a1.11,1.11,0,0,1-1-1.28,1,1,0,0,1,1.2-1,10.1,10.1,0,0,1,2.26.4.81.81,0,0,0,1.1-.41,2.71,2.71,0,0,0-.85-3.85,2.77,2.77,0,0,1-1.64-.16c-.66-.43-.3-1.1-.11-1.73a6.4,6.4,0,0,0,.41-2.53c-.44-3.49-4-5.12-7.14-3.28-.67.39-1.29.51-1.78-.16s-.19-1.16.32-1.7A2.15,2.15,0,0,0,53,27.77,2.45,2.45,0,0,0,48.2,27,4.84,4.84,0,0,0,48,28.4q0,14.34,0,28.66a8.36,8.36,0,0,0,0,.87,3.1,3.1,0,0,0,4.44,2.52c-.31-1-.69-2-.9-2.94a1.2,1.2,0,0,1,1-1.6c.73-.1,1.17.34,1.3,1.3a3.21,3.21,0,0,0,3.49,3,3.15,3.15,0,0,0,2.78-3.71l-1.27-.59c-.5.34-1,1-1.42.92C56,56.72,56,55.25,55.63,54.62a24.44,24.44,0,0,1-3.2-1.17,1.44,1.44,0,0,1-.38-1.36c.16-.35,1-.75,1.28-.61,1.44.75,2.49.68,3.31-.9a1.05,1.05,0,0,1,1.73-.29c.6.5.52,1.09.08,1.71C57.55,53.24,57.6,54.06,58.62,55.32Z"/><path class="cls-1" d="M26,44.38c-2.08-2.93-1.7-5.67,1-8a.93.93,0,0,0,.32-.69,7,7,0,0,1,7.48-7.94,4.12,4.12,0,0,0,.48,0,14.37,14.37,0,0,1,.31-1.43,4.78,4.78,0,0,1,9.33,1.22c.09,2.67,0,5.34,0,8,0,.76-.37,1.27-1.14,1.28s-1.17-.55-1.17-1.34c0-2.54,0-5.09,0-7.63a2.47,2.47,0,0,0-3.4-2.39,2.24,2.24,0,0,0-.84,3.72,1.08,1.08,0,0,1,.12,1.56A1.07,1.07,0,0,1,37,31,4.64,4.64,0,0,0,30,36.76c.47,1.07.16,2-.75,2a4.64,4.64,0,0,1-1.1-.27,2.94,2.94,0,0,0-.71,4,.77.77,0,0,0,1,.36,11,11,0,0,1,2.35-.41,1,1,0,0,1,1.11,1c-.06.43-.55.83-.9,1.18-.13.12-.44.07-.66.09a4.61,4.61,0,0,0-.22,9.16c.88.13,1.81.12,1.87,1.37A2.24,2.24,0,0,0,32.21,52c-.44-.62-.52-1.21.08-1.71a1.05,1.05,0,0,1,1.73.29c.82,1.58,1.87,1.67,3.31.9.27-.14,1.12.27,1.27.62a1.42,1.42,0,0,1-.38,1.36A23.86,23.86,0,0,1,35,54.61c-.34.65-.37,2-1.74,2.19-.46.05-1-.57-1.52-.9l-1.27.57a3.16,3.16,0,1,0,6.27.67c.1-.8.46-1.27,1.28-1.24a1.19,1.19,0,0,1,1,1.57c-.21,1-.58,2-.9,3a2.65,2.65,0,0,0,2.75-.07,3.11,3.11,0,0,0,1.7-2.93c0-3.86,0-7.73,0-11.59,0-.64,0-1.28,0-1.93s.37-1.26,1.15-1.27A1.11,1.11,0,0,1,44.94,44c0,4.66.1,9.33,0,14a5.45,5.45,0,0,1-8.14,4.45,1.66,1.66,0,0,0-1.5-.15,5.41,5.41,0,0,1-7.1-5.14,2,2,0,0,0-1.05-2,6.84,6.84,0,0,1-1.73-10Z"/><path class="cls-1" d="M20.06,43.2c.51-8.2,4.32-14.5,11-19.13a1.17,1.17,0,0,1,1.78.12c.48.58.31,1.25-.48,1.79a22.8,22.8,0,0,0-7.69,8.48,20.82,20.82,0,0,0-2.32,8.88C22.34,44.48,22,45,21.21,45S20,44.39,20.06,43.2Z"/><path class="cls-1" d="M35.25,46.59a3.39,3.39,0,0,1,1.5-2.67,1.14,1.14,0,0,0,.37-1.78c-.43-.7-.48-1.34.27-1.83s1.3-.12,1.8.75a.7.7,0,0,1,.09.17,2.92,2.92,0,0,0,2.12,2.55,1,1,0,0,1,.41,1.49,1.12,1.12,0,0,1-1.58.46c-1.67-.71-2.49-.23-2.67,1.54-.07.74-.4,1.22-1.2,1.22S35.23,47.94,35.25,46.59Z"/><path class="cls-1" d="M35.81,31.44A15.78,15.78,0,0,1,38,32.62c.44.33.72.42,1.15.08a1.13,1.13,0,0,1,1.77.15,1.18,1.18,0,0,1-.52,1.79c-.81.46-1.54.85-1.8,1.88a1,1,0,0,1-1.43.56,1.11,1.11,0,0,1-.63-1.51c.31-1.06,0-1.6-1-1.58s-1.5-.16-1.55-1.13C34,32.09,34.64,31.66,35.81,31.44Z"/><path class="cls-1" d="M33,38.18c.13.83.33,1.66.38,2.5a1.35,1.35,0,0,1-.47,1,1.87,1.87,0,0,1-1.24,0,9.73,9.73,0,0,1-1.24-.64c-.85-.4-.91-1.32-.19-2a2,2,0,0,0,.63-1.17c0-.83.23-1.43,1.13-1.46s1.17.61,1.22,1.39v.29Z"/><path class="cls-1" d="M34.82,24.51c-.32-.29-.84-.56-.91-.91a1.66,1.66,0,0,1,.43-1.29,2.46,2.46,0,0,1,1.46-.64,1.78,1.78,0,0,1,1.32.61,1,1,0,0,1-.47,1.45C36.12,24,35.55,24.2,34.82,24.51Z"/><path class="cls-1" d="M50.7,43.08c.36-.86.59-1.6.94-2.27a1.15,1.15,0,1,1,2,1.17A1.27,1.27,0,0,0,54,44a3.54,3.54,0,0,1,1.42,3.31c0,.71-.39,1.16-1.13,1.18s-1-.46-1.2-1.14a3.7,3.7,0,0,0-.63-1.61,1.42,1.42,0,0,0-1.87-.1,1.11,1.11,0,0,1-1.73-.38,1.14,1.14,0,0,1,.65-1.66C49.93,43.38,50.39,43.22,50.7,43.08Z"/><path class="cls-1" d="M50.39,32.32c.33.06.5,0,.58.11.88.83,1.48.23,2.27-.26a4.63,4.63,0,0,1,2.3-.45A1,1,0,0,1,56.59,33c-.07.73-.53,1-1.26,1-1.29,0-1.55.37-1.22,1.67.17.67,0,1.25-.67,1.37-.42.09-1.27-.18-1.35-.45-.29-1.08-1.15-1.46-1.93-2a2,2,0,0,1-.55-1.46C49.62,32.81,50.17,32.53,50.39,32.32Z"/><path class="cls-1" d="M58.59,42a1.2,1.2,0,0,1-1.25-1.67,5.42,5.42,0,0,0,.17-1.4,13,13,0,0,1,0-1.53.94.94,0,0,1,1.23-.88,1.6,1.6,0,0,1,1,1.06,2.19,2.19,0,0,0,.79,1.72c.28.24.41,1.15.22,1.32A14.45,14.45,0,0,1,58.59,42Z"/></g></g></svg>