<svg xmlns="http://www.w3.org/2000/svg" viewBox="0 0 108.71 108.56"><defs><style>.cls-1{fill:#1dd3f8;}</style></defs><title>Progress</title><g id="Layer_2" data-name="Layer 2"><g id="Layer_1-2" data-name="Layer 1"><path class="cls-1" d="M53.72,108.56c-1.36-1.29-2.68-2.62-4.09-3.84a4.4,4.4,0,0,0-2-1Q17.25,98.58,6.85,69.59a44.71,44.71,0,0,1-2.39-13c0-.24,0-.48-.07-.87-.89,0-1.77,0-2.64,0a1.54,1.54,0,0,1-1.6-1,1.54,1.54,0,0,1,.4-1.83c1.18-1.23,2.39-2.42,3.52-3.69a3.19,3.19,0,0,0,.76-1.55,49.68,49.68,0,0,1,15.39-30c.89-.85,1.82-.91,2.5-.18s.58,1.64-.33,2.5A46.75,46.75,0,0,0,9,42.66c-.13.5-.23,1-.32,1.41.95-.87,2-1.75,2.94-2.7,1.62-1.61,2.23-1.6,3.64.14.87,1.08,1.75,2.14,2.62,3.2,0,0,.13,0,.09,0a75.56,75.56,0,0,1,3-7.3c6.94-13,17.83-19.88,32.56-20.61,2-.09,2.37.34,2.44,2.39,0,.16,0,.33.06.68l8.26-6.68L56.17,5.36c-.53,1.85-.76,2-2.7,2.07A46.16,46.16,0,0,0,28,15.56a4.86,4.86,0,0,1-.53.35,1.58,1.58,0,1,1-1.72-2.65c2.12-1.32,4.23-2.7,6.46-3.84A48,48,0,0,1,52,4.28c.24,0,.48,0,.87-.09,0-.9,0-1.77,0-2.64s.3-1.41,1-1.52A2.34,2.34,0,0,1,55.56.4,37.07,37.07,0,0,1,59,3.7a3.33,3.33,0,0,0,2.13,1A49.88,49.88,0,0,1,103.33,44c.49,2.46.65,5,1,7.46,0,.38.08.76.12,1.1,1.48.47,3.31-.64,4.3,1.22v1.06c-1.36,1.43-2.74,2.84-4.07,4.31a2.52,2.52,0,0,0-.61,1.27,49.64,49.64,0,0,1-10.59,25c-1.45,1.81-3.1,3.47-4.72,5.15a1.52,1.52,0,0,1-2.35,0,1.62,1.62,0,0,1,.11-2.29c.14-.16.3-.3.45-.45a46.49,46.49,0,0,0,9.78-13.63,43.31,43.31,0,0,0,3.36-9.87l-3.6,3.26a1.6,1.6,0,0,1-2.57-.09c-.45-.51-.85-1.05-1.28-1.57l-2-2.43-.4,1.35a37.4,37.4,0,0,1-34.36,26.7c-2.91.12-3,0-3.24-2.79,0,0,0,0-.15-.17l-8.13,6.57,8.22,7.92c.35-1.75.7-2,2.31-2.1l.74,0a45.85,45.85,0,0,0,23.74-7.19c.81-.51,1.58-1.08,2.4-1.57a1.49,1.49,0,0,1,2.07.4,1.58,1.58,0,0,1-.28,2.19,3.43,3.43,0,0,1-.43.32,49.27,49.27,0,0,1-23.67,8.81l-3.58.31c0,.78-.05,1.46,0,2.12a2.08,2.08,0,0,1-1.11,2.2ZM20.16,55.73c.23,1.69.37,3.23.64,4.75A34.14,34.14,0,0,0,47.44,87.66a2.27,2.27,0,0,0,1.6-.42c1.43-1,2.73-2.25,4.17-3.27a2,2,0,0,1,1.72-.23,2.16,2.16,0,0,1,.91,1.47,23,23,0,0,1,0,3.12,5.58,5.58,0,0,0,.93,0,61.34,61.34,0,0,0,8.28-1.69c12.17-4.24,19.7-12.78,22.77-25.28a2,2,0,0,0-.46-1.92,50.64,50.64,0,0,1-3.26-4,2.47,2.47,0,0,1-.3-1.73c.15-.72.81-1,1.57-1,1,0,2,0,3.06,0a2.69,2.69,0,0,0,.06-.53c-.57-2.94-.78-6-1.77-8.8C82.48,31.2,73.9,23.7,61.38,20.71a1.78,1.78,0,0,0-1.75.4c-1.27,1.12-2.63,2.14-3.94,3.22a1.68,1.68,0,0,1-1.94.41A1.64,1.64,0,0,1,52.82,23c0-1,0-1.94,0-3.06-1.81.26-3.42.43-5,.72a34.21,34.21,0,0,0-26.91,26.8,1.89,1.89,0,0,0,.33,1.32c1.08,1.45,2.3,2.79,3.34,4.26a2.45,2.45,0,0,1,.29,1.73c-.15.72-.82,1-1.57,1C22.3,55.71,21.32,55.73,20.16,55.73Zm83.07.25c-1.74-.41-1.89-.68-2-2.34a64.71,64.71,0,0,0-1-8.94C95.77,26.05,84.23,14.13,65.85,8.8c-.51-.14-1-.19-1.35-.25.89,1,1.81,2.07,2.8,3.08,1.43,1.45,1.43,2.17-.13,3.43l-3.54,2.86c.47.15.73.25,1,.32a36.21,36.21,0,0,1,14.95,8.34A36.82,36.82,0,0,1,91.76,53.86c0,1.43-.53,2-2,2-.33,0-.65,0-1.13.07l6.67,8.25C98,61.42,100.57,58.75,103.23,56ZM13.38,44.21,5.47,52.43c1.81.35,2.05.74,2.17,2.45a54.57,54.57,0,0,0,.74,7.69c3.93,18.51,15,30.71,32.95,36.58,1,.32,2,.51,3.11.79-.08-.23-.08-.31-.12-.35l-2.6-2.51c-1.9-1.84-1.88-2.35.14-4l1.48-1.2,1.73-1.46A37.36,37.36,0,0,1,24.25,76.3,37,37,0,0,1,17,54.63c0-1.49.53-2,2-2.09.29,0,.58,0,1-.08Z"/><path class="cls-1" d="M65.22,72c-1.86.72-3.61,1.37-5.33,2.09a1.28,1.28,0,0,0-.63.8c-.2.79-.25,1.61-.42,2.4a2.88,2.88,0,0,1-2.9,2.45c-1,0-2,0-3.08,0A2.76,2.76,0,0,1,50,77.17c-.05-2.28-1-3.47-3.23-3.91-1-.21-2-1.3-3-1.24s-1.72,1.13-2.61,1.69a2.86,2.86,0,0,1-3.55-.24A28.79,28.79,0,0,1,35.14,71,2.59,2.59,0,0,1,35,67.41c1.7-1.75,1.81-3.4.44-5.33a3.15,3.15,0,0,1-.56-1.47c-.11-1.38-1-1.63-2.14-1.76a6.22,6.22,0,0,1-2.51-.7c-2-1.24-2-6.6,0-7.88a4.2,4.2,0,0,1,2.19-.67A2.38,2.38,0,0,0,35,47.44a27.8,27.8,0,0,1,1.42-3.3,1.42,1.42,0,0,0-.07-1.09c-.4-.7-1-1.31-1.41-2a2.91,2.91,0,0,1,.3-3.79c.69-.76,1.42-1.49,2.18-2.18a2.93,2.93,0,0,1,3.88-.3c.85.56,1.65,1.53,2.53,1.61s1.75-.79,2.65-1.2a5.93,5.93,0,0,1,1.7-.59c1.16-.15,1.48-.84,1.5-1.87a9.47,9.47,0,0,1,.24-1.57,3,3,0,0,1,2.9-2.47q1.59,0,3.18,0A2.88,2.88,0,0,1,58.82,31c.24,1.05.11,2.38.72,3.11s1.91.78,2.9,1.14a3.69,3.69,0,0,1,1.15.54c1.09.92,2,.55,2.93-.26a5.48,5.48,0,0,1,2.38-1.25c2.23-.37,5.83,3.23,5.39,5.44a8.21,8.21,0,0,1-1.62,2.9,1.52,1.52,0,0,0-.16,1.88,34.38,34.38,0,0,1,1.64,4c.19.51.37.83,1,.86a15.09,15.09,0,0,1,2.3.37,2.84,2.84,0,0,1,2.44,2.69,25.45,25.45,0,0,1,0,3.6,2.57,2.57,0,0,1-2.39,2.57c-2.41,0-3.71,1.1-4.06,3.46a2.45,2.45,0,0,1-.48,1c-1.08,1.3-.61,2.31.33,3.49,1.69,2.09,1.53,3.32-.4,5.24-.4.4-.79.81-1.2,1.2a3.11,3.11,0,0,1-4.55.31ZM71.14,69l-2.22-3a1.67,1.67,0,0,1-.1-2.07,18.14,18.14,0,0,0,2.67-6.42,1.67,1.67,0,0,1,1.61-1.41c1-.12,1.89-.32,2.84-.41.64-.06.86-.35.81-1a5.36,5.36,0,0,1,0-1.06c.07-.69-.24-.92-.9-1-.84-.07-1.67-.31-2.52-.37-1.13-.08-1.6-.7-2-1.72a64,64,0,0,0-2.46-5.94A2.07,2.07,0,0,1,69,42.23c.73-.93,1.41-1.91,2-2.76l-1.87-2c-1,.69-1.91,1.35-2.82,2.07a1.86,1.86,0,0,1-2.43.11,16.15,16.15,0,0,0-6-2.49,1.88,1.88,0,0,1-1.65-1.79c-.14-1.15-.34-2.29-.51-3.45H53.05c-.2,1.21-.42,2.36-.55,3.51a1.8,1.8,0,0,1-1.59,1.72,16.3,16.3,0,0,0-6,2.48,1.87,1.87,0,0,1-2.43-.07c-.94-.73-1.91-1.41-2.68-2l-2.12,1.75c.76,1,1.4,2,2.11,2.85a2,2,0,0,1,.09,2.52,15.12,15.12,0,0,0-2,4.4c-.43,2.44-1.64,3.38-4,3.49-1.84.09-1.8.27-1.79,2.16,0,.65.23.86.84.92.95.09,1.88.29,2.83.4a1.75,1.75,0,0,1,1.64,1.54,16.68,16.68,0,0,0,2.53,6.13,1.83,1.83,0,0,1-.12,2.42c-.71.91-1.38,1.86-2,2.73l1.81,2,3.06-2.26a1.67,1.67,0,0,1,2.06-.07A17.58,17.58,0,0,0,51,71.26a1.69,1.69,0,0,1,1.48,1.57c.16,1.21.38,2.42.57,3.62h2.72c.17-1.19.36-2.3.5-3.42a1.88,1.88,0,0,1,1.64-1.81,16,16,0,0,0,6-2.49,1.85,1.85,0,0,1,2.42.1c.94.74,1.92,1.41,2.89,2.13Z"/><path class="cls-1" d="M46.35,54.26c.15.8.26,1.6.45,2.38.31,1.23,0,2.06-.93,2.37s-1.74-.25-2.14-1.49a11.16,11.16,0,1,1,21.69-5,10.6,10.6,0,0,1-4.56,10.72,10.7,10.7,0,0,1-11.63.82c-.48-.23-1.07-.66-1.18-1.1a2,2,0,0,1,.4-1.68A2.16,2.16,0,0,1,50.16,61c1.09.24,2.11.87,3.2,1a7.91,7.91,0,0,0,9-7.32,8,8,0,0,0-7.72-8.53A8.11,8.11,0,0,0,46.35,54.26Z"/></g></g></svg>