<svg xmlns="http://www.w3.org/2000/svg" viewBox="0 0 121.1 121.13"><defs><style>.cls-1{fill:#1dd3f8;}</style></defs><title>Review</title><g id="Layer_2" data-name="Layer 2"><g id="Layer_1-2" data-name="Layer 1"><path class="cls-1" d="M0,71.43a18.15,18.15,0,0,1,1.37-2.84,6.79,6.79,0,0,1,6-2.79h14a7.16,7.16,0,0,1,5.37,2,.94.94,0,0,0,.8.23c3.54-2,7.43-3.47,9.89-6.89a29.08,29.08,0,0,0,3.28-6c1.73-4.34,3.22-8.79,4.81-13.19.89-2.45,1.73-2.88,4.2-2.13,1,.31,2,.6,3,1a13,13,0,0,1,7.75,7,1.31,1.31,0,0,0,1.41.89c5.52,0,11,0,16.56,0a4.17,4.17,0,0,1,3.24,1.36c2.3,2.38,4.66,4.7,7.19,7.24.69-.75,1.3-1.46,2-2.12,1.69-1.71,3.43-3.38,5.09-5.11a4.12,4.12,0,0,1,3.24-1.37c4.73,0,9.46,0,14.18,0,2.26,0,3.11-.83,3.11-3V7.72c0-2.14-.87-3-3.05-3H20.51c-2.15,0-3,.87-3,3v38c0,2.15.87,3,3,3,1.14,0,2.29,0,3.43,0a2.36,2.36,0,1,1,0,4.71c-1.38,0-2.76.05-4.14,0a7.09,7.09,0,0,1-7-7c0-1.11,0-2.21,0-3.31V8.94C12.77,3.59,13.83,2,18.69,0h96.5c4.85,2,5.91,3.59,5.91,8.94V45.7c0,4.8-2.95,7.74-7.74,7.75-4.41,0-8.83,0-13.24,0a2.6,2.6,0,0,0-1.61.68c-2.5,2.41-4.93,4.89-7.38,7.34-1.88,1.86-2.93,1.87-4.77,0-2.45-2.45-4.88-4.92-7.38-7.33a2.71,2.71,0,0,0-1.72-.71c-4.61-.06-9.22,0-13.83,0H61.81l.31.23L58.52,65.8h1.3c5.63,0,11.27,0,16.9,0,4.56,0,7.85,2.42,9,6.56a8.73,8.73,0,0,1-.77,6.39,8.85,8.85,0,0,1,.43,16.68,8.74,8.74,0,0,1,.53,7.5,8.91,8.91,0,0,1-5.06,5,26.91,26.91,0,0,1,.67,5.07c-.3,4.81-4,8-9.08,8-9.49,0-19-.07-28.49,0a37,37,0,0,1-15.67-2.79.93.93,0,0,0-1.3.32,6.48,6.48,0,0,1-5.28,2.43c-5,0-9.94,0-14.9,0a6.48,6.48,0,0,1-5.73-3.18A17.13,17.13,0,0,1,0,115.42ZM49.44,44.87c-1.51,4.13-3,8.19-4.46,12.26A22,22,0,0,1,36.4,68.4c-2.16,1.44-4.48,2.63-6.77,3.86a1.67,1.67,0,0,0-1,1.72q0,17.92,0,35.83c0,1,0,2,0,3a1.13,1.13,0,0,0,.55.84,29.5,29.5,0,0,0,12.23,2.77c4.65,0,9.3,0,14,0,5.68,0,11.35,0,17,0a5.88,5.88,0,0,0,2.38-.51,3.88,3.88,0,0,0-1.51-7.3c-2.83-.1-5.67,0-8.51-.09A2.34,2.34,0,0,1,62.18,106c0-1.37,1-2.2,2.65-2.26.87,0,1.73,0,2.6,0,3.27,0,6.55.07,9.81,0a6.25,6.25,0,0,0,3-.86,3.69,3.69,0,0,0,1.35-4.3,4,4,0,0,0-3.9-2.72c-4.06,0-8.12,0-12.18,0a8.08,8.08,0,0,1-1.3,0,2.27,2.27,0,0,1-2-2.13A2.19,2.19,0,0,1,64,91.22a7,7,0,0,1,1.52-.13H82.19a3.93,3.93,0,1,0,0-7.86c-5.56,0-11.12,0-16.68,0A6.88,6.88,0,0,1,63.92,83a2.19,2.19,0,0,1-1.73-2.35,2.25,2.25,0,0,1,2-2.16,9.42,9.42,0,0,1,1.3,0c3.71,0,7.41,0,11.12,0a7.33,7.33,0,0,0,1.75-.18,3.87,3.87,0,0,0,2.88-4.41c-.36-2.12-2-3.34-4.46-3.35q-10.41,0-20.81,0c-2.84,0-3.73-1.24-2.84-3.89,1.1-3.28,2.24-6.55,3.31-9.85C58.21,51.21,55.15,45.92,49.44,44.87ZM11.94,70.53c-1.71,0-3.2,0-4.69,0-1.77,0-2.51.78-2.52,2.55q0,20.39,0,40.79c0,1.72.75,2.48,2.45,2.48q7.14,0,14.3,0A2.1,2.1,0,0,0,23.88,114q0-20.52,0-41a2.09,2.09,0,0,0-2.31-2.37c-1.18,0-2.37.07-3.55,0s-1.37.33-1.37,1.39c0,8.86,0,17.73,0,26.6a9.09,9.09,0,0,1-.11,1.65,2.3,2.3,0,0,1-4.51,0,10.09,10.09,0,0,1-.1-1.65q0-13.12,0-26.25Z"/><path class="cls-1" d="M97.77,13.91A3.51,3.51,0,0,1,101,15.75c.6,1.06,1.06,2.2,1.7,3.24a2.21,2.21,0,0,0,1.21.86c1,.24,2,.33,3,.48a3.76,3.76,0,0,1,3.27,2.53,3.7,3.7,0,0,1-1,4.1,20.46,20.46,0,0,1-2,1.89,2,2,0,0,0-.71,2.28,22.3,22.3,0,0,1,.5,3.14A3.69,3.69,0,0,1,101.83,38c-1.16-.47-2.22-1.18-3.37-1.68a1.9,1.9,0,0,0-1.37,0c-1,.45-2,1-3,1.56a3.78,3.78,0,0,1-5.45-4.11,3.11,3.11,0,0,1,.11-.69c1-2.51,0-4.25-1.94-5.85-1.75-1.41-2-3-1.33-4.62a3.35,3.35,0,0,1,3.08-2.24c3.09.06,4.85-1.35,5.85-4.22A3.3,3.3,0,0,1,97.77,13.91ZM93.52,32.57c1.54-.53,2.9-1.35,4.25-1.35s2.74.83,3.94,1.24c0-1.37-.34-2.91.09-4.2s1.62-2.3,2.66-3.68c-3.58.36-5.61-1.46-6.7-4.74-1,3.41-3.21,5-6.81,5C94,26.81,94.65,29.44,93.52,32.57Z"/><path class="cls-1" d="M28.38,34c.15-.9.41-2.18.54-3.47a1.87,1.87,0,0,0-.42-1.3c-.72-.83-1.57-1.54-2.34-2.33a3.79,3.79,0,0,1,2.24-6.56A16.38,16.38,0,0,1,31,20c1.16,0,1.65-.61,2.05-1.56a17.85,17.85,0,0,1,1.39-2.72,3.68,3.68,0,0,1,6.37,0c.66,1.07,1.11,2.26,1.76,3.34a1.94,1.94,0,0,0,1.12.8c1,.24,2.09.34,3.14.5A3.69,3.69,0,0,1,50,22.9a3.74,3.74,0,0,1-1,4,2.63,2.63,0,0,1-.51.49c-2.26,1.43-2.6,3.4-1.85,5.84a3.7,3.7,0,0,1-1.33,4.33,3.56,3.56,0,0,1-4.51,0c-2.34-1.78-4.34-1.33-6.68.1C31.37,39.39,28.32,37.51,28.38,34Zm9-14c-.83,3.33-3,4.89-6.42,4.68C32,26,33.16,27,33.59,28.3s.09,2.84.09,4.42c2.55-2.07,5.27-2,8.11,0-1.17-3.36-.23-5.89,2.54-7.76-1.57-.46-3.13-.56-4.19-1.34S38.4,21.38,37.39,20Z"/><path class="cls-1" d="M58.45,34.07c.15-.93.43-2.16.54-3.41a2.33,2.33,0,0,0-.49-1.52c-.67-.81-1.5-1.49-2.25-2.25a3.79,3.79,0,0,1,2.25-6.55A20.39,20.39,0,0,1,61.07,20a2,2,0,0,0,2-1.45A20.49,20.49,0,0,1,64.31,16a3.75,3.75,0,0,1,6.76,0c.56,1,1,2.07,1.56,3a1.9,1.9,0,0,0,1.12.8c1.07.25,2.18.33,3.26.51a3.74,3.74,0,0,1,3.09,2.44,3.68,3.68,0,0,1-.83,3.94c-.28.32-.6.62-.91.92-2.21,2.17-2.16,2.16-1.66,5.24A6.93,6.93,0,0,1,76.6,36,3.51,3.51,0,0,1,72,38.08a26.28,26.28,0,0,1-3.48-1.74,1.47,1.47,0,0,0-1.62,0A27.7,27.7,0,0,1,63.62,38C61,39.08,58.36,37.17,58.45,34.07Zm2.49-9.26c2.94,2,3.59,4.64,2.53,7.73,1.55-.51,2.91-1.33,4.26-1.32s2.72.84,3.86,1.24c0-1.28-.34-2.82.09-4.11s1.64-2.37,2.68-3.78c-3.57.37-5.58-1.44-6.68-4.7C66.63,23.19,64.53,24.87,60.94,24.81Z"/><path class="cls-1" d="M36.49,51.13a2.32,2.32,0,1,1-2.27-2.39A2.36,2.36,0,0,1,36.49,51.13Z"/><path class="cls-1" d="M16.63,108.15a2.32,2.32,0,0,1-4.64.14,2.32,2.32,0,1,1,4.64-.14Z"/></g></g></svg>