<svg xmlns="http://www.w3.org/2000/svg" xmlns:xlink="http://www.w3.org/1999/xlink" viewBox="0 0 248.23 213.71"><defs><style>.cls-1{fill:#006ae6;}.cls-2{fill:#fff;}.cls-3{fill:#00244f;}.cls-4{fill:#97d1e2;}.cls-5{fill:#e6b38e;}.cls-6{fill:#292f53;}.cls-7{fill:#de9d85;}.cls-8{fill:#4db1fa;}.cls-9{fill:#5d4efa;}.cls-10{fill:url(#Áåçûìÿííûé_ãðàäèåíò_11);}.cls-11{fill:url(#Áåçûìÿííûé_ãðàäèåíò_8);}.cls-12{fill:url(#Áåçûìÿííûé_ãðàäèåíò_11-2);}.cls-13{fill:#b56cf7;}.cls-14{fill:#253f5d;}.cls-15{fill:#1a2089;}.cls-16{fill:url(#Áåçûìÿííûé_ãðàäèåíò_8-2);}</style><linearGradient id="Áåçûìÿííûé_ãðàäèåíò_11" x1="163.64" y1="142.74" x2="179.64" y2="142.74" gradientUnits="userSpaceOnUse"><stop offset="0" stop-color="#c9e2ed"/><stop offset="1" stop-color="#e3eee9"/></linearGradient><linearGradient id="Áåçûìÿííûé_ãðàäèåíò_8" x1="110.52" y1="88.28" x2="110.52" y2="99.59" gradientUnits="userSpaceOnUse"><stop offset="0" stop-color="#e3eee9"/><stop offset="1" stop-color="#c9e2ed"/></linearGradient><linearGradient id="Áåçûìÿííûé_ãðàäèåíò_11-2" x1="146.61" y1="81.22" x2="167.7" y2="81.22" xlink:href="#Áåçûìÿííûé_ãðàäèåíò_11"/><linearGradient id="Áåçûìÿííûé_ãðàäèåíò_8-2" x1="146.83" y1="136.6" x2="174.33" y2="136.6" xlink:href="#Áåçûìÿííûé_ãðàäèåíò_8"/></defs><title>addressing_privacy_concerns</title><g id="Layer_2" data-name="Layer 2"><g id="Layer_1-2" data-name="Layer 1"><path class="cls-1" d="M211.59,35.75c-.57-.74-4.06-1.5-8.05-1.57a34.61,34.61,0,0,0-4-9.31c2.57-2.37,5-5.13,4.74-6.84-.57-3.45-8.06-9.34-9.54-9.53-.94-.12-4,1.88-7,4.73a34.72,34.72,0,0,0-9.25-3.88c.14-3.49-.08-7.2-1.49-8.21-2.84-2-12.31-.9-13.48,0-.74.57-1.5,4-1.57,8a34.92,34.92,0,0,0-9.57,3.77c-2.31-2.46-4.93-4.73-6.58-4.46-3.45.57-9.34,8.06-9.53,9.54-.12.87,1.61,3.61,4.14,6.34a34.92,34.92,0,0,0-4.34,9.84c-3.15-.06-6.25.25-7.16,1.51-2,2.85-.9,12.31,0,13.49.51.66,3.37,1.34,6.83,1.53a34.35,34.35,0,0,0,4.14,10.38c-2.12,2.11-3.89,4.34-3.65,5.8.57,3.46,8.06,9.35,9.53,9.54.82.1,3.22-1.36,5.73-3.59A35,35,0,0,0,162,77.13c0,3,.32,5.79,1.52,6.65,2.85,2,12.31.91,13.49,0,.66-.51,1.34-3.38,1.53-6.85a35,35,0,0,0,10.1-4.4c2.18,2.25,4.56,4.19,6.08,3.94,3.46-.57,9.35-8.06,9.54-9.54.11-.88-1.63-3.64-4.19-6.38a34.58,34.58,0,0,0,3.82-9.81c3.35.1,6.76-.16,7.72-1.51C213.64,46.39,212.5,36.92,211.59,35.75Zm-41.76,23a15.6,15.6,0,1,1,15.6-15.6A15.6,15.6,0,0,1,169.83,58.74Z"/><path class="cls-2" d="M170,65a22.2,22.2,0,1,1,22.2-22.19A22.21,22.21,0,0,1,170,65Zm0-44.08A21.89,21.89,0,1,0,191.84,42.8,21.91,21.91,0,0,0,170,20.91Z"/><path class="cls-2" d="M201.46,36.38l-.44-.06a31.82,31.82,0,0,1-58.24,23.44h0l-.43.08a32.23,32.23,0,0,0,59.84-16.63A32.63,32.63,0,0,0,201.46,36.38Z"/><path class="cls-2" d="M150.5,18.05A31.66,31.66,0,0,1,170,11.38l.43,0-.14-.42H170a32.09,32.09,0,0,0-19.64,6.7Z"/><path class="cls-3" d="M234.32,96.67c-.39-.49-2.72-1-5.39-1a23.71,23.71,0,0,0-2.68-6.23c1.71-1.59,3.35-3.44,3.17-4.58-.39-2.32-5.4-6.26-6.39-6.39-.63-.08-2.71,1.26-4.66,3.17a23.27,23.27,0,0,0-6.2-2.6c.09-2.34,0-4.82-1-5.5-1.9-1.36-8.24-.6-9,0-.49.38-1,2.71-1,5.37a23.15,23.15,0,0,0-6.41,2.52c-1.54-1.65-3.3-3.17-4.4-3-2.32.39-6.26,5.4-6.39,6.39-.08.59,1.08,2.43,2.78,4.25a23.35,23.35,0,0,0-2.91,6.59c-2.12,0-4.19.17-4.8,1-1.36,1.9-.6,8.24,0,9,.35.44,2.26.9,4.58,1a23.1,23.1,0,0,0,2.77,7c-1.42,1.41-2.61,2.91-2.45,3.88.39,2.32,5.4,6.26,6.39,6.39.54.07,2.15-.91,3.84-2.4a23.43,23.43,0,0,0,7,2.87c0,2,.21,3.88,1,4.46,1.9,1.36,8.24.6,9,0,.44-.35.9-2.27,1-4.59a23.44,23.44,0,0,0,6.77-3c1.46,1.5,3,2.81,4.07,2.64,2.32-.38,6.26-5.4,6.39-6.39.08-.59-1.09-2.44-2.8-4.28a23.39,23.39,0,0,0,2.56-6.57c2.24.07,4.52-.11,5.17-1C235.68,103.8,234.92,97.46,234.32,96.67Zm-28,15.4a10.45,10.45,0,1,1,10.45-10.45A10.45,10.45,0,0,1,206.34,112.07Z"/><path class="cls-2" d="M206.43,116.26a14.87,14.87,0,1,1,14.86-14.87A14.89,14.89,0,0,1,206.43,116.26Zm0-29.52a14.66,14.66,0,1,0,14.65,14.65A14.67,14.67,0,0,0,206.43,86.74Z"/><path class="cls-2" d="M227.53,97.09l-.3,0a21.31,21.31,0,0,1-39,15.71h0l-.29,0a21.59,21.59,0,0,0,39.6-15.72Z"/><path class="cls-2" d="M193.39,84.82a21.2,21.2,0,0,1,13-4.47h.28l-.09-.28h-.19a21.42,21.42,0,0,0-13.16,4.49Z"/><path class="cls-4" d="M189.88,118.78s-75.5,11.93-113.15,1.64c-6.64-25.63,0-77.28,0-77.28H189.88Z"/><path class="cls-4" d="M191.08,43.46h-115a2,2,0,0,1-2-2h0a2,2,0,0,1,2-2h115a2,2,0,0,1,2,2h0A2,2,0,0,1,191.08,43.46Z"/><polygon class="cls-3" points="171.79 108.97 90.86 108.97 90.86 53.23 92.15 53.23 92.15 107.68 171.79 107.68 171.79 108.97"/><polygon class="cls-5" points="84.25 89.03 85.39 94.41 91.04 92.85 87.34 85.13 84.25 89.03"/><path class="cls-5" d="M82.84,90.53a2.89,2.89,0,0,1-1.68.13c-2.74-2.12-3-10.14-3-10.14l2.59-2.21,4.55,1.16,1.79,4.84a4.17,4.17,0,0,1-.61,3.93h0A8.16,8.16,0,0,1,82.84,90.53Z"/><path class="cls-6" d="M85.64,82.44c-.47-.75-1-2.69-1.76-2.29a35.82,35.82,0,0,1-3.37,1.28c-1.68.54-4.89.84-5.71-1.73A3.57,3.57,0,0,1,76,76.34a3.61,3.61,0,0,1,2.43-.81c2.06.06,5,.7,5.9.19,1.54-.86,3.5-.41,3.92,1a14.56,14.56,0,0,1,.11,5.67,8.1,8.1,0,0,1-1,2.74h0Z"/><path class="cls-5" d="M87.41,82.08a1.33,1.33,0,0,0-1.52.65c-.36.56-.27,1.19.22,1.4a1.31,1.31,0,0,0,1.52-.64A.93.93,0,0,0,87.41,82.08Z"/><path class="cls-1" d="M88.59,91.65c10.52-.58,11.41,8.78,12.3,18.95a192.51,192.51,0,0,1,.23,24.41H76.63s0-10.84.26-21.69C77.14,102.8,77.46,92.28,88.59,91.65Z"/><path class="cls-7" d="M77.94,129.64s-2.4-1.66-3.29-1.26-.19,2.07-.19,2.07Z"/><path class="cls-5" d="M95.17,111.92l1.14,7.76L77.56,129l2,2s21.06-3.79,24-6.57.91-13.9.91-13.9Z"/><path class="cls-7" d="M74.17,124.17c-4.29-1.52-1.67-16.29-1.67-16.29l2.54,0S78.46,125.68,74.17,124.17Z"/><path class="cls-5" d="M80.75,130.66l-4.42,2.84c-1.77.82-3.35-.46-4.63-2.26a1.67,1.67,0,0,1,1.39-2.63c1.59,0,3.51.35,4.47.41Z"/><path class="cls-1" d="M71.82,107.89l3,1.8s12.65-20.46,6.4-15.07A36.6,36.6,0,0,0,71.82,107.89Z"/><path class="cls-6" d="M86.7,203.6s0,2.93-5.9,4.69c-1.21.37-.81.72-1,1.23h6.78l2.65-3,.82.71,1.92-1.88s-.9-2.72-2.35-2.75Z"/><path class="cls-5" d="M85.6,201.06l1.1,2.54h0a2.67,2.67,0,0,0,2.76-.83l.12-.15L88.69,200Z"/><path class="cls-1" d="M104.55,110.58s-4-18.69-13.51-18.25,4.13,19.59,4.13,19.59Z"/><path class="cls-5" d="M74.23,124.48c-6-4.8,5.74-29.92,5.74-29.92l2.83.29S82.58,128.15,74.23,124.48Z"/><polygon class="cls-8" points="84.25 92.58 84.61 90.74 89.48 89.77 91.04 91.72 84.25 92.58"/><path class="cls-5" d="M80,94.56l-.37-4.79s2.39-3.66,4.65-2.68c.42,1-.3,3-.3,3L82.8,94.85Z"/><path class="cls-3" d="M76.63,135s-3.41,21.4-2.61,31.3,11.65,35.76,11.65,35.76l4.72-1.38s.36-17.3-4.28-28.65a10.61,10.61,0,0,1,0-7.8,130.3,130.3,0,0,0,5.29-16.41L91,135Z"/><path class="cls-7" d="M80.26,94.36h-.08l-.34-4.52c.32-.46,2.35-3.27,4.23-2.57a5.63,5.63,0,0,1-.35,2.8v.06a2.74,2.74,0,0,1,.5-.08,5.39,5.39,0,0,0,.26-3l0-.08-.08,0c-2.41-1-4.84,2.61-4.94,2.77l0,.06.38,5.06.28,0A3.68,3.68,0,0,1,80.26,94.36Z"/><path class="cls-6" d="M95.9,205.15s-2.12,2-6.94,3.19c-1.06.27-2.2-.09-2.2,1.66h5.85l4.86-.84V210h2.63s.73-4.3-.81-4.85Z"/><path class="cls-5" d="M96.41,202.07l-.51,3.08h0a2.94,2.94,0,0,0,3.21.11l.18-.11L99,202.07Z"/><path class="cls-3" d="M83.84,135,95.2,203h4.54s3.92-18.31.9-33.1a22.16,22.16,0,0,1-.21-7.79c2.88-19.09.69-27.08.69-27.08Z"/><polygon class="cls-3" points="153.83 209.76 158.09 168.47 156.6 168.13 152.3 209.76 153.83 209.76"/><path class="cls-3" d="M184.45,163.94s12.79-29.31,3.94-37.8c-5.26-5-15-4.3-22.12-2.88a10.48,10.48,0,0,0-8.43,10.26v30.06Z"/><path class="cls-4" d="M156.87,126.69a15,15,0,0,1,7.7-5.34,29.78,29.78,0,0,1,8.12-1h.8c6.32.19,11.48,4,14.27,9.67l1.68,4.68-7.4,2.39-1.61-3.54,1.24,17.56h-20.6l.22-20.21-7.17.13Z"/><path class="cls-5" d="M189.16,134.75s3.12,6.09,1.6,8.24-21.71-2.4-21.71-2.4v-2.65l15.27,1-1.91-2Z"/><path class="cls-5" d="M152.29,136.93s-4.92,3.2-4.92,5.61,9,.59,9,.59Z"/><path class="cls-7" d="M169.16,118.38l-.37,2.83s-.16,1.46,2.45,1.46a3.93,3.93,0,0,0,2.2-.53,1.59,1.59,0,0,0,.67-1.54l-.81-6.08Z"/><path class="cls-5" d="M168.51,118.67a3.06,3.06,0,0,1-1.87-.09c-2.81-2.93-2.27-12.5-2.27-12.5l7.95-.21,1.5,6a5.22,5.22,0,0,1-1,4.59h0A8.34,8.34,0,0,1,168.51,118.67Z"/><path class="cls-6" d="M162.32,104.61a3.1,3.1,0,0,1,3.46-.94c.58.34,2.57-3,6.53-2.71,2.71.17,6.34,4.38,1.88,12.74-.29-.93-2.31-6.08-3.69-5.13a7.91,7.91,0,0,1-3.94,1.82,5.37,5.37,0,0,1-4.6-1.84C161.18,107.51,160.82,106.33,162.32,104.61Z"/><path class="cls-5" d="M173.78,109.4a1.36,1.36,0,0,0-1.74.54,1.18,1.18,0,0,0,.11,1.71,1.36,1.36,0,0,0,1.73-.54A1.17,1.17,0,0,0,173.78,109.4Z"/><path class="cls-6" d="M173,100s.9-1.75,4-1.08c5.56,1.51,4.86,8.17,4.29,11.57a6.51,6.51,0,0,0,1.29,5.09c2.75,3.5,6.85,10.24,1.4,14.09a4.3,4.3,0,0,1-3.55.72,3.89,3.89,0,0,1-2.39-1.85,4.5,4.5,0,0,1-.39-3.52,4.34,4.34,0,0,0,.15-2.75c-.59-1.06-4-3.12-4.21-6.32s1.81-4.44,2.3-7.81c.88-6-.41-6.7-.41-6.7Z"/><polygon class="cls-8" points="174.94 102.39 172.31 100.96 172.96 99.95 175.42 101.39 174.94 102.39"/><polygon class="cls-3" points="187.36 210.92 188.85 210.58 184.47 168.13 182.97 168.47 187.36 210.92"/><path class="cls-3" d="M184.73,168.76H156.6a4,4,0,0,1,2.48-4c5.12-1.56,15.5-4.8,22.82-3.75,2.43.35,4.11,3.36,3.41,6.29A4.21,4.21,0,0,1,184.73,168.76Z"/><path class="cls-3" d="M131.65,207.42l-6.77-4.93c-1-.53-2.25-.92-3.17,0a10.22,10.22,0,0,0-1.1,1.31c0,.55,9.26,6.65,9.26,6.65h.07A2.82,2.82,0,0,0,131.65,207.42Z"/><polygon class="cls-3" points="120.61 203.8 129.87 210.45 129.44 210.87 120.28 204.22 120.61 203.8"/><polygon class="cls-2" points="128.97 205.47 128.36 205.03 127.74 206.27 128.34 206.7 128.97 205.47"/><polygon class="cls-2" points="127.67 204.51 127.05 204.08 126.44 205.32 127.03 205.75 127.67 204.51"/><path class="cls-5" d="M134.36,204.27l-2.71,3.15h0a2.09,2.09,0,0,1-1.86-1.26l-.06-.13.67-2Z"/><path class="cls-9" d="M170.55,163.79S162.49,175.58,150.5,181c-3.13,7.33-17.1,24.63-17.1,24.63l-2.94-1.6,25.35-43.83Z"/><path class="cls-3" d="M159.14,206.92h-8.38c-1.11.15-2.36.58-2.57,1.86a10.66,10.66,0,0,0-.12,1.71c.3.46,11.41-.06,11.41-.06l.05-.06A2.81,2.81,0,0,0,159.14,206.92Z"/><polygon class="cls-3" points="148.07 210.48 159.48 210.42 159.38 211.01 148.06 211.01 148.07 210.48"/><polygon class="cls-2" points="155.82 206.91 155.07 206.92 155.3 208.29 156.03 208.29 155.82 206.91"/><polygon class="cls-2" points="154.2 206.91 153.45 206.92 153.68 208.29 154.41 208.29 154.2 206.91"/><path class="cls-5" d="M159.48,202.78l-.34,4.14h0a2.1,2.1,0,0,1-2.25.07l-.13-.07L156,203.2Z"/><path class="cls-9" d="M181.67,151.07v3.51a11.38,11.38,0,0,1-9.36,11.22A35.52,35.52,0,0,1,153.62,164c6.93,12,6.06,40,6.06,40h-3.3l-14.74-44.82a6.15,6.15,0,0,1,5.79-8.37Z"/><rect class="cls-10" x="172.85" y="141.98" width="6.79" height="1.52"/><polygon class="cls-11" points="120.78 99.15 100.25 99.15 99.97 92.21 121.06 92.21 120.78 99.15"/><polygon class="cls-2" points="143.68 99.15 123.72 99.15 123.58 71.99 144.68 71.99 143.68 99.15"/><polygon class="cls-12" points="165.99 99.15 146.61 99.15 146.61 63.28 167.7 63.28 165.99 99.15"/><polygon class="cls-3" points="166.82 56.4 145.4 81.83 137.37 76.74 117.24 99.13 122.16 99.13 138.12 80.94 146.13 86.09 169.38 58.56 166.82 56.4"/><polygon class="cls-3" points="162.16 57.44 170.01 62.42 171.85 51.19 162.16 57.44"/><polygon class="cls-13" points="166.21 56.11 144.95 81.36 136.9 76.3 116.38 99.13 121.3 99.13 137.52 80.65 145.63 85.76 168.78 58.27 166.21 56.11"/><polygon class="cls-13" points="161.56 57.16 169.4 62.13 171.25 50.91 161.56 57.16"/><polygon class="cls-3" points="171.25 50.91 171.85 51.19 171.69 52.17 171.05 52.09 171.25 50.91"/><polygon class="cls-14" points="84.79 117.65 86.31 119.23 84.69 128.52 83.16 129.41 84.79 117.65"/><path class="cls-7" d="M19.75,129.46s7.1,14.11,11.43,14.92,24-6.33,24-6.33v-2.81l-19.72.47L30.83,126Z"/><path class="cls-1" d="M27.43,112.27c-23.36,1.19-20.71,40.9-20.71,40.9h25S36.13,138.66,27.43,112.27Z"/><path class="cls-6" d="M28.12,205.93s0,3.15,6.33,5c1.3.38.87.77,1.12,1.31H28.29l-2.84-3.2-.89.76-2-2s1-2.92,2.52-2.94Z"/><path class="cls-5" d="M29.79,202.08l-1.67,3.85h0a2.84,2.84,0,0,1-3-.9l-.13-.15,1-2.8Z"/><path class="cls-7" d="M23.11,105.9l-.8,7.36a4.54,4.54,0,0,0,3.29,2.2c2.25.24,2.42-1.38,2.42-1.38l.52-4.79-3.23-1.22Z"/><path class="cls-5" d="M28.67,110.74a2.8,2.8,0,0,0,1.72-.25c2.33-3,1-11.77,1-11.77L24,99.23,23.15,105a4.83,4.83,0,0,0,1.38,4.15h0A7.71,7.71,0,0,0,28.67,110.74Z"/><path class="cls-6" d="M27.39,99.75a15.46,15.46,0,0,0,4.93.53c2.57-.17,1.26-3.13,1.26-3.13a10,10,0,0,1-5.24-.2c-2.2-.57-2.76-1.07-4.28-.46-2.07.83-2,4.41-2,4.41l.28,7.59.41.53s.57-4.92.73-6.43c.5-.64,1-.6,1.29-.38a1.12,1.12,0,0,1,.49,1.09l-.84,7.75s4.71,2.67,6,2.42,1.08-6.09,1.08-6.09a2.31,2.31,0,0,0-2.64.35c-1.25,1.12-2.46-.32-2.46-.32Z"/><path class="cls-5" d="M24.18,101.94a1.28,1.28,0,0,1,1.07,1.32c0,.71-.41,1.28-1,1.26a1.26,1.26,0,0,1-1.06-1.31C23.19,102.49,23.62,101.93,24.18,101.94Z"/><path class="cls-8" d="M31.76,153.17s11.65,6.54,17.49,14.44a5.78,5.78,0,0,1,.12,6.76L29.78,202.63H25.41s5.77-21,12.76-33.33C38.85,164.73,31.76,153.17,31.76,153.17Z"/><path class="cls-7" d="M55.23,135.24l3.52.56,3.31,3.59s-1.61.78-4-1.73c-4.77-.33-3.48-1.19-3.48-1.19Z"/><path class="cls-5" d="M16,133.62s7.1,14.11,11.43,14.92,23.28-8.46,23.28-8.46l.77-3-19.72,2.83-4.67-9.68Z"/><path class="cls-6" d="M59.05,207.63s2,1.88,6.65,3.06c1,.26,2.12-.09,2.12,1.59H62.21l-4.67-.8v.8H55s-.7-4.12.77-4.65Z"/><path class="cls-5" d="M58.56,204.67l.49,3h0a2.84,2.84,0,0,1-3.08.11l-.18-.11-.73-3Z"/><path class="cls-5" d="M58.94,138.58a.74.74,0,0,0-.47-.74l-2.95-1.15a3.2,3.2,0,0,0-2.28,0l-2.91.58-.32.52-.2,2.69.9-.38,1.87-.24s4,2.72,5.33-.39c.54,3,1.39,2.64,1.39,2.64Z"/><path class="cls-8" d="M6.72,153.17s-3.64,15.33,30,20.6a5.92,5.92,0,0,1,4.79,4.4C44.35,189.55,55,205.86,55,205.86H59.3l-7-31.1A11.24,11.24,0,0,0,48.9,169L31.76,153.17Z"/><polygon class="cls-3" points="27.7 213.45 22.05 172.28 21.02 172.42 26.65 213.45 27.7 213.45"/><path class="cls-3" d="M29.29,172.35H4.52v-4.86c8.69-4,24.77,2.43,24.77,2.43Z"/><path class="cls-3" d="M4.52,171.83v-1c-.14,0-3.48-.11-3.48-5.56,0-5.91,3.7-14.86,3.73-14.95l-1-.4c-.16.37-3.81,9.23-3.81,15.35C0,171.75,4.47,171.83,4.52,171.83Z"/><path class="cls-3" d="M10.25,151.5c-6.08-1.42-6.84-.62-6.84-.62s1.87-7.2.09-11.49c7.46-4.31,8.84.81,8.84.81S13.63,144.56,10.25,151.5Z"/><polygon class="cls-3" points="2.08 213.45 7.71 172.42 6.68 172.28 1.03 213.45 2.08 213.45"/><path class="cls-1" d="M218.12,145H46.74c0-1.08,1.4-2,3.13-2H215c1.73,0,3.13.88,3.13,2Z"/><polygon class="cls-1" points="47.74 213.45 46.54 213.24 52.05 144.93 53.26 145.14 47.74 213.45"/><polygon class="cls-1" points="217.53 213.45 218.73 213.24 213.22 144.93 212.01 145.14 217.53 213.45"/><rect class="cls-1" x="53.26" y="142.11" width="11.26" height="0.94"/><path class="cls-1" d="M76.6,142.84h-8v-1.21h8a4.35,4.35,0,0,0,4.3-3.75l5.46-33.66,1.2.19L82.1,138.06A5.57,5.57,0,0,1,76.6,142.84Z"/><polygon class="cls-1" points="86.36 104.22 85.55 104.85 80.41 135.66 81.13 136.47 86.36 104.22"/><circle class="cls-2" cx="109.21" cy="136.47" r="0.85"/><path class="cls-7" d="M211.89,103.89c-2.38,7.94-2,36.32-2,36.32H206.1a3.93,3.93,0,0,0-1.78.43l-4.66,2.41h9.12a3.76,3.76,0,0,0,3.7-3.06l5.27-27.43S214.28,95.94,211.89,103.89Z"/><polygon class="cls-7" points="209.21 102.92 211.11 108.03 216.43 105.68 211.68 98.64 209.21 102.92"/><path class="cls-5" d="M208.05,104.59a2.92,2.92,0,0,1-1.64.37c-3-1.68-4.37-9.52-4.37-9.52l2.22-2.55,4.64.48,2.46,4.49a4.19,4.19,0,0,1,0,4h0A8.12,8.12,0,0,1,208.05,104.59Z"/><path class="cls-6" d="M209.62,96.24c-.57-.67-1.35-2.5-2.07-2-.53.38-3.43,1.42-4.09,1.75-1.58.77-3.79,1.57-4.89-.87-2.29-5.1,12.12-6.2,12.74-4.88a14.55,14.55,0,0,1,.93,5.56,8.33,8.33,0,0,1-.56,2.83h0Z"/><path class="cls-5" d="M211.3,95.63a1.33,1.33,0,0,0-1.4.86c-.27.6-.09,1.21.42,1.35a1.34,1.34,0,0,0,1.4-.85C212,96.38,211.81,95.77,211.3,95.63Z"/><path class="cls-6" d="M231.45,207.32s0,3.17-6.36,5.07c-1.31.39-.88.77-1.13,1.32h7.31l2.87-3.22.89.77,2.06-2s-1-2.94-2.54-3Z"/><path class="cls-5" d="M230.27,204.59l1.18,2.73h0a2.85,2.85,0,0,0,3-.9l.13-.15-1-2.82Z"/><path class="cls-1" d="M216,103c14.17-1.56,27.17,24.93,27.17,24.93l-17.12,12S207.58,123,210.58,108.08A6.33,6.33,0,0,1,216,103Z"/><path class="cls-6" d="M241.68,208.88s-2,1.89-6.69,3.07c-1,.26-2.13-.09-2.13,1.6h5.64l4.69-.81v.81h2.54s.7-4.14-.78-4.67Z"/><path class="cls-5" d="M242.17,205.9l-.49,3h0a2.86,2.86,0,0,0,3.1.1l.17-.1-.25-3Z"/><path class="cls-15" d="M226.06,140s-9.38,17-8.15,26S231,206.21,231,206.21l3-1.36s-.35-23.64-3.4-32.38c-.72-2.07.32-5.69,1.27-7.66,4.27-8.77,9.62-23.25,9.62-23.25l-8.65-6.36Z"/><path class="cls-5" d="M211.83,112.47s-7.66,7.74-12.6,11.36c-4,3-12.55,6-15.55,6.89a2.8,2.8,0,0,1-2.05-.21l-1.9-1a3.27,3.27,0,0,0-1.92-.34l-7.38.91s1.71,2.31,5.54.94c.94,1.7.95,2.76,2.56,3.26a4.15,4.15,0,0,0,1.82.13c4.18-.57,14.49-2.52,21.52-5.48,9-3.78,18.1-11.36,18.1-11.36Z"/><path class="cls-15" d="M230.09,137.13l11.57,70.31h3.45s4-28.14,1.54-41.22c2.32-19.24,2.76-32-3.47-38.28Z"/><polygon class="cls-16" points="168.18 130.16 146.83 130.16 153.14 143.04 174.33 143.04 168.18 130.16"/><path class="cls-2" d="M158.72,136.6a.74.74,0,1,0,.74-.74A.74.74,0,0,0,158.72,136.6Z"/><path class="cls-1" d="M31.19,82.37l-7.28,0a13.22,13.22,0,0,0,.35-3.91,2.16,2.16,0,0,0-1-1.55c-7.13-4.46-5.38-9.55-5.38-9.55s.77-6.47,9.94-7c9.77-.61,9.14,8.07,9.14,8.07a9.25,9.25,0,0,1-4.67,8.08A3,3,0,0,0,31,78.53,10.5,10.5,0,0,0,31.19,82.37Z"/><path class="cls-3" d="M23.91,82.31v2.61a1.61,1.61,0,0,0,1.4,1.78l4.43,0A1.63,1.63,0,0,0,31.16,85l0-2.61Z"/><polygon class="cls-3" points="25.76 86.71 26.26 87.9 29.01 87.92 29.62 86.73 25.76 86.71"/><path class="cls-2" d="M26.44,72h.3l-.06,10.32h.5L27.23,72a8.74,8.74,0,0,0,1.1-.19c0,.19,0,.38,0,.56,0,1.14,0,2.28-.05,3.42l-.09,6.58h.49l.15-10.71a4.25,4.25,0,0,0,1.61-.85c1.7-1.61-1.19-3.37-2-1.12a5.29,5.29,0,0,0-.17,1.71,9.1,9.1,0,0,1-1.14.26s0-1,0-1.56a1.4,1.4,0,0,0-.34-1c-1.28-1.42-4-.41-2.91,1.65A2.8,2.8,0,0,0,26.44,72Zm2.42-1.54c0-.24.37-2.23,1.59-1.12a.51.51,0,0,1,.18.46c-.09.7-1.09,1.17-1.79,1.4C28.84,71,28.84,70.7,28.86,70.46Zm-4.3-1.52a1.55,1.55,0,0,1,1.87.36,1.12,1.12,0,0,1,.32.78v1.59a2.45,2.45,0,0,1-2.38-1A1.27,1.27,0,0,1,24.56,68.94Z"/><path class="cls-1" d="M36.92,58.55a.38.38,0,0,1,0-.54l3.66-3.66a.37.37,0,0,1,.54,0,.39.39,0,0,1,0,.54l-3.65,3.65A.38.38,0,0,1,36.92,58.55Z"/><path class="cls-1" d="M20.86,58.46a.38.38,0,0,0,0-.54l-3.62-3.69a.37.37,0,0,0-.54,0,.39.39,0,0,0,0,.55l3.62,3.69A.38.38,0,0,0,20.86,58.46Z"/><path class="cls-1" d="M27.74,57.15a.38.38,0,0,1-.38-.38l0-5.2a.38.38,0,0,1,.39-.38.37.37,0,0,1,.37.38l0,5.2A.39.39,0,0,1,27.74,57.15Z"/><path class="cls-4" d="M204.62,83.94l5,0a9.23,9.23,0,0,1-.24-2.72,1.51,1.51,0,0,1,.71-1.07c4.94-3.1,3.73-6.63,3.73-6.63s-.54-4.48-6.9-4.88c-6.77-.43-6.33,5.59-6.33,5.59a6.43,6.43,0,0,0,3.23,5.61,2,2,0,0,1,.9,1.46A7.37,7.37,0,0,1,204.62,83.94Z"/><path class="cls-1" d="M209.66,83.9v1.81a1.14,1.14,0,0,1-1,1.24h-3.07a1.12,1.12,0,0,1-1-1.22V83.93Z"/><polygon class="cls-1" points="208.38 86.95 208.03 87.78 206.12 87.79 205.7 86.96 208.38 86.95"/><path class="cls-3" d="M209.65,75.88c.76-1.43-1.14-2.13-2-1.14a1,1,0,0,0-.24.66c0,.42,0,1.08,0,1.08a5.89,5.89,0,0,1-.8-.18,3.49,3.49,0,0,0-.11-1.18c-.54-1.57-2.54-.35-1.37.77a3,3,0,0,0,1.12.59c0,2.48.07,5,.1,7.43h.35c0-1.52,0-3-.07-4.56l0-2.37c0-.12,0-.25,0-.39a5,5,0,0,0,.76.13l0,7.19h.34l0-7.16h.21A2,2,0,0,0,209.65,75.88Zm-3.41.31c-.49-.16-1.17-.48-1.24-1a.36.36,0,0,1,.12-.32c.85-.77,1.11.61,1.11.79S206.24,76,206.24,76.19Zm3.11-.36a1.7,1.7,0,0,1-1.65.69v-1.1a.78.78,0,0,1,.23-.55,1.08,1.08,0,0,1,1.29-.24A.88.88,0,0,1,209.35,75.83Z"/><path class="cls-1" d="M200.5,67.42a.25.25,0,0,0,0-.37l-2.56-2.54a.28.28,0,0,0-.38,0,.27.27,0,0,0,0,.38l2.56,2.54A.26.26,0,0,0,200.5,67.42Z"/><path class="cls-1" d="M211.75,67.36a.26.26,0,0,1,0-.38l2.53-2.56a.27.27,0,0,1,.38.38l-2.53,2.56A.27.27,0,0,1,211.75,67.36Z"/><path class="cls-1" d="M206.93,66.45a.26.26,0,0,0,.26-.26l0-3.61a.26.26,0,0,0-.26-.26.27.27,0,0,0-.27.27l0,3.6A.26.26,0,0,0,206.93,66.45Z"/></g></g></svg>