<svg xmlns="http://www.w3.org/2000/svg" viewBox="0 0 314 384.75"><defs><style>.cls-1{fill:#f2f2f2;}.cls-2{fill:#4cc2fc;}.cls-3{fill:#4db1fa;}.cls-4{fill:#5d4efa;}.cls-5{fill:#b56cf7;}</style></defs><title>business_management </title><g id="Layer_2" data-name="Layer 2"><g id="Layer_1-2" data-name="Layer 1"><rect class="cls-1" x="72" y="121.76" width="170" height="106"/><path class="cls-2" d="M36.18,18A36.18,36.18,0,0,0,0,54.17H0a36.18,36.18,0,1,0,72.36,0h0A36.18,36.18,0,0,0,36.18,18Zm0,68.31A32.13,32.13,0,1,1,68.31,54.17,32.17,32.17,0,0,1,36.18,86.3Z"/><rect class="cls-2" x="18.55" y="51.53" width="5.16" height="18.2"/><rect class="cls-2" x="48.65" y="48.95" width="5.16" height="20.78"/><rect class="cls-2" x="26.08" y="38.61" width="5.16" height="31.12"/><rect class="cls-2" x="33.6" y="45.55" width="5.16" height="24.19"/><rect class="cls-2" x="41.13" y="41.61" width="5.16" height="28.12"/><path class="cls-2" d="M277.82,18a36.18,36.18,0,0,0-36.18,36.18h0a36.18,36.18,0,1,0,72.36,0h0A36.18,36.18,0,0,0,277.82,18Zm0,68.31A32.13,32.13,0,1,1,310,54.17,32.16,32.16,0,0,1,277.82,86.3Z"/><path class="cls-2" d="M271.57,59.34c-.16-.24-.3-.49-.44-.74L268,57.8l-.8-4.08a8.46,8.46,0,0,0-1.51,0l-1.38-1.37-2.46,1-.14,1.92a8.4,8.4,0,0,0-1.12,1l-2-.17-1.27,2.31,1.15,1.6a8.31,8.31,0,0,0-.24,1.38l-1.66,1.17.51,2.59,1.94.49,0,.07a7.73,7.73,0,0,0,.66,1.11l-.53,2,2.05,1.66,1.8-.87c.26.11.51.22.78.31a4.91,4.91,0,0,0,.51.15l.87,1.86,2.64,0,.81-1.79A9.24,9.24,0,0,0,270,69.5l1.83.85,2-1.73-.53-1.85c.29-.41.82-1.45.82-1.45l-3.38-2.73Z"/><path class="cls-2" d="M297.85,52.59,295.53,51a11.54,11.54,0,0,0-.4-2.25l1.65-2.36-2-3.36-2.76.28a12.71,12.71,0,0,0-1.78-1.48L290,39l-3.72-1.27-1.95,2a12.19,12.19,0,0,0-2.26,0l-2-2-3.67,1.41L276.1,42a11.7,11.7,0,0,0-1.65,1.41l-2.95-.25-1.9,3.43L271.32,49a12.21,12.21,0,0,0-.35,2l-2.47,1.74.75,3.86,2.89.73a.93.93,0,0,0,.05.1,11.33,11.33,0,0,0,1,1.65L272.37,62l3.05,2.47,2.68-1.3a9.65,9.65,0,0,0,1.16.46q.38.13.75.24l1.3,2.76,3.92-.07,1.2-2.67a12.66,12.66,0,0,0,2-.72l2.72,1.26,3-2.58-.78-2.75a12.46,12.46,0,0,0,1.1-1.91l2.83-.76ZM291.8,55a9,9,0,1,1-5.62-11.47A9.06,9.06,0,0,1,291.8,55Z"/><path class="cls-2" d="M157,0a36.18,36.18,0,0,0-36.18,36.18h0a36.18,36.18,0,0,0,72.36,0h0A36.18,36.18,0,0,0,157,0Zm0,68.31a32.13,32.13,0,1,1,32.13-32.13A32.16,32.16,0,0,1,157,68.31Z"/><path class="cls-2" d="M157,53.3h-.33a17.11,17.11,0,0,1,0-34.22,2.81,2.81,0,0,1,.58,0,17.12,17.12,0,0,1,0,34.23Zm0-2.19h.17a14.93,14.93,0,0,0,.06-29.85h-.45a14.93,14.93,0,0,0,0,29.85Z"/><path class="cls-2" d="M156.75,53.3a1.14,1.14,0,0,1-.57-.16,20,20,0,0,1-8-9.32,19.88,19.88,0,0,1,0-15.27,20,20,0,0,1,8-9.32,1.1,1.1,0,1,1,1.14,1.87,17.8,17.8,0,0,0-7.12,8.29,17.72,17.72,0,0,0,0,13.59,17.86,17.86,0,0,0,7.1,8.29,1.1,1.1,0,0,1-.57,2Z"/><path class="cls-2" d="M157.25,53.3a1.1,1.1,0,0,1-.57-2,17.86,17.86,0,0,0,7.1-8.29,17.72,17.72,0,0,0,0-13.59,17.8,17.8,0,0,0-7.12-8.29,1.1,1.1,0,1,1,1.14-1.87,20,20,0,0,1,8,9.32,19.88,19.88,0,0,1,0,15.27,20,20,0,0,1-8,9.32A1.14,1.14,0,0,1,157.25,53.3Z"/><path class="cls-2" d="M157,53.71a17.53,17.53,0,1,1,17.53-17.53A17.54,17.54,0,0,1,157,53.71Zm0-32.14a14.61,14.61,0,1,0,14.61,14.61A14.63,14.63,0,0,0,157,21.57Z"/><path class="cls-2" d="M157.25,53.3a1.07,1.07,0,0,1-.25,0l-.27,0a17.09,17.09,0,0,1-12.95-6.24,1.1,1.1,0,0,1,.12-1.52,19.9,19.9,0,0,1,26.2,0,1.1,1.1,0,0,1,.12,1.52,17.09,17.09,0,0,1-12.95,6.24ZM146.2,46.49a14.88,14.88,0,0,0,10.56,4.62l.24,0,.24,0a14.88,14.88,0,0,0,10.56-4.62,16.52,16.52,0,0,0-3.46-2.09,17.61,17.61,0,0,0-14.67,0A16.34,16.34,0,0,0,146.2,46.49Z"/><path class="cls-2" d="M157,31.76a19.89,19.89,0,0,1-13.1-4.93,1.1,1.1,0,0,1-.12-1.52,17,17,0,0,1,13-6.24,1.57,1.57,0,0,0,.5,0,17,17,0,0,1,13,6.24,1.1,1.1,0,0,1-.12,1.52A19.77,19.77,0,0,1,165.25,30,19.56,19.56,0,0,1,157,31.76Zm-10.81-5.88a17.71,17.71,0,0,0,21.62,0,14.85,14.85,0,0,0-10.59-4.62.82.82,0,0,0-.44,0A14.85,14.85,0,0,0,146.19,25.88Z"/><path class="cls-2" d="M173.07,37.28H141a1.1,1.1,0,1,1,0-2.19h32.09a1.1,1.1,0,1,1,0,2.19Z"/><path class="cls-2" d="M157,53.32a1.09,1.09,0,0,1-1.09-1.09V20.14a1.1,1.1,0,1,1,2.19,0V52.23A1.09,1.09,0,0,1,157,53.32Z"/><path class="cls-2" d="M157,312.39a36.18,36.18,0,0,0-36.18,36.18h0a36.18,36.18,0,0,0,72.36,0h0A36.18,36.18,0,0,0,157,312.39Zm0,68.31a32.13,32.13,0,1,1,32.13-32.13A32.16,32.16,0,0,1,157,380.7Z"/><path class="cls-2" d="M175.29,349.24c-.73-2.19-2.12-6.1-2.18-6.25a1.53,1.53,0,0,0-1.44-1h-6.44v-3.68a1.53,1.53,0,0,0-1.53-1.53H140.77a1.53,1.53,0,0,0-1.53,1.53V357.8a1.53,1.53,0,0,0,1.53,1.53h4v-3.14h5.49v3.14h13.6V356h5.36v3.32h4.83a1.53,1.53,0,0,0,1.51-1.26c0-.09.19-2.37.3-4.38C176.05,350.53,176,351.32,175.29,349.24Zm-2.77.3h-5.29a.73.73,0,0,1-.73-.72v-4.34a.73.73,0,0,1,.73-.73h3.89a.71.71,0,0,1,.69.51l1.4,4.33A.73.73,0,0,1,172.52,349.54Z"/><path class="cls-2" d="M147.61,354.23a4.29,4.29,0,0,0-4.29,4.28,5.33,5.33,0,0,0,.07.82,4.29,4.29,0,1,0,4.22-5.1Zm0,6.29a2,2,0,1,1,1.83-1.19A2,2,0,0,1,147.61,360.52Z"/><path class="cls-2" d="M166.78,354.23a4.28,4.28,0,1,0,4.29,4.28A4.29,4.29,0,0,0,166.78,354.23Zm0,6.29a2,2,0,1,1,0-4,2,2,0,1,1,0,4Z"/><path class="cls-2" d="M36.18,294.4A36.18,36.18,0,0,0,0,330.58H0a36.18,36.18,0,0,0,72.36,0h0A36.18,36.18,0,0,0,36.18,294.4Zm0,68.31a32.13,32.13,0,1,1,32.13-32.13A32.17,32.17,0,0,1,36.18,362.71Z"/><rect class="cls-2" x="28.21" y="337.66" width="15.65" height="1.81"/><rect class="cls-2" x="28.21" y="340.95" width="15.65" height="1.81"/><path class="cls-2" d="M46.84,317.41H45.77v3.42h1.07a.82.82,0,0,1,.82.82V344a.82.82,0,0,1-.82.82H25.52a.82.82,0,0,1-.82-.82V321.65a.82.82,0,0,1,.82-.82h1.2v-3.42h-1.2a4.24,4.24,0,0,0-4.25,4.24V344a4.25,4.25,0,0,0,4.25,4.25H46.84A4.25,4.25,0,0,0,51.09,344V321.65A4.24,4.24,0,0,0,46.84,317.41Z"/><path class="cls-2" d="M46.84,317.41H45.77V320h1.07a1.69,1.69,0,0,1,1.69,1.68V344a1.69,1.69,0,0,1-1.69,1.69H25.52A1.69,1.69,0,0,1,23.84,344V321.65A1.68,1.68,0,0,1,25.52,320h1.2v-2.56h-1.2a4.24,4.24,0,0,0-4.25,4.24V344a4.25,4.25,0,0,0,4.25,4.25H46.84A4.25,4.25,0,0,0,51.09,344V321.65A4.24,4.24,0,0,0,46.84,317.41Z"/><path class="cls-2" d="M48.4,315.78H45.21v1.56a2.77,2.77,0,1,1-5.53,0v-1.56h-7v1.56a2.77,2.77,0,1,1-5.54,0v-1.56H24A1.21,1.21,0,0,0,22.76,317v4.46a.49.49,0,0,0,.49.48H49.12a.49.49,0,0,0,.48-.48V317A1.21,1.21,0,0,0,48.4,315.78Z"/><path class="cls-2" d="M32.29,335.72H29.4V327H28.24v-2.19h4.05Z"/><path class="cls-2" d="M42.83,324.84h-3l-5.48,7v2.39H40v1.47h2.87v-1.47h1v-2.19h-1ZM40,332.06H36.74L40,328Z"/><path class="cls-2" d="M29.92,319.16h0a1.82,1.82,0,0,1-1.82-1.82v-2.62a1.83,1.83,0,0,1,1.82-1.82h0a1.82,1.82,0,0,1,1.82,1.82v2.62A1.81,1.81,0,0,1,29.92,319.16Z"/><path class="cls-2" d="M42.44,319.16h0a1.82,1.82,0,0,1-1.82-1.82v-2.62a1.83,1.83,0,0,1,1.82-1.82h0a1.82,1.82,0,0,1,1.82,1.82v2.62A1.81,1.81,0,0,1,42.44,319.16Z"/><path class="cls-2" d="M277.82,294.4a36.18,36.18,0,0,0-36.18,36.18h0a36.18,36.18,0,0,0,72.36,0h0A36.18,36.18,0,0,0,277.82,294.4Zm0,68.31A32.13,32.13,0,1,1,310,330.58,32.16,32.16,0,0,1,277.82,362.71Z"/><rect class="cls-2" x="269.82" y="329.82" width="15.98" height="2.19"/><rect class="cls-2" x="269.82" y="325.18" width="15.98" height="2.19"/><rect class="cls-2" x="269.82" y="334.46" width="15.98" height="2.19"/><rect class="cls-2" x="269.82" y="339.1" width="15.98" height="2.19"/><path class="cls-2" d="M287.48,315.82h-2v3.43h2a.82.82,0,0,1,.82.82v23.86a.82.82,0,0,1-.82.81H268.15a.82.82,0,0,1-.82-.81V320.07a.82.82,0,0,1,.82-.82h2.4v-3.43h-2.4a4.25,4.25,0,0,0-4.24,4.25v23.86a4.24,4.24,0,0,0,4.24,4.24h19.33a4.25,4.25,0,0,0,4.25-4.24V320.07A4.26,4.26,0,0,0,287.48,315.82Z"/><path class="cls-2" d="M287.48,315.82h-2v2.56h2a1.69,1.69,0,0,1,1.69,1.69v23.86a1.69,1.69,0,0,1-1.69,1.68H268.15a1.68,1.68,0,0,1-1.68-1.68V320.07a1.69,1.69,0,0,1,1.68-1.69h2.4v-2.56h-2.4a4.25,4.25,0,0,0-4.24,4.25v23.86a4.24,4.24,0,0,0,4.24,4.24h19.33a4.25,4.25,0,0,0,4.25-4.24V320.07A4.26,4.26,0,0,0,287.48,315.82Z"/><path class="cls-2" d="M289,314.2H266.6a1.21,1.21,0,0,0-1.21,1.21v4.45a.49.49,0,0,0,.49.49h23.87a.49.49,0,0,0,.49-.49v-4.45A1.21,1.21,0,0,0,289,314.2Zm-16.76,4.58a1.51,1.51,0,1,1,1.51-1.51A1.51,1.51,0,0,1,272.27,318.78Zm11.1,0a1.51,1.51,0,1,1,1.51-1.51A1.51,1.51,0,0,1,283.37,318.78Z"/><path class="cls-3" d="M281.44,97.16a34.45,34.45,0,0,1-22.37,37.69l-.84.28,1.07,5.4c.54-.16,1.08-.34,1.61-.53a39.65,39.65,0,0,0,21-17.57,40.12,40.12,0,0,0,4.77-13.07,39.6,39.6,0,0,0,0-14.07Z"/><polygon class="cls-3" points="253.46 140.01 259.8 129.29 265.18 144.19 253.46 140.01"/><path class="cls-3" d="M32.56,97.16a34.45,34.45,0,0,0,22.37,37.69l.84.28-1.07,5.4c-.54-.16-1.08-.34-1.61-.53a39.65,39.65,0,0,1-21-17.57,40.12,40.12,0,0,1-4.77-13.07,39.6,39.6,0,0,1,0-14.07Z"/><polygon class="cls-3" points="60.54 140.01 54.2 129.29 48.82 144.19 60.54 140.01"/><path class="cls-3" d="M38.15,289.49a33.75,33.75,0,0,1,.15-8.76,34.45,34.45,0,0,1,22.42-27.39l.83-.28-1.06-5.4c-.54.16-1.08.34-1.61.53a39.92,39.92,0,0,0-26.24,41.3Z"/><polygon class="cls-3" points="66.33 248.19 59.99 258.9 54.6 244 66.33 248.19"/><path class="cls-3" d="M270.94,267.67a34.56,34.56,0,0,1,4.76,13.06,33.75,33.75,0,0,1,.15,8.76h5.51a39.53,39.53,0,0,0-.43-10.66,40,40,0,0,0-25.81-30.64c-.53-.19-1.07-.37-1.61-.53l-1.06,5.4.83.28A34.31,34.31,0,0,1,270.94,267.67Z"/><polygon class="cls-3" points="247.67 248.19 254.01 258.9 259.39 244 247.67 248.19"/><rect class="cls-3" x="154.44" y="77.83" width="5.12" height="22.4"/><polygon class="cls-3" points="157.04 107.03 164.92 97.4 149.08 97.46 157.04 107.03"/><rect class="cls-3" x="154.44" y="285.33" width="5.12" height="22.4" transform="translate(314 593.06) rotate(180)"/><polygon class="cls-3" points="156.96 278.52 149.08 288.15 164.92 288.09 156.96 278.52"/><path class="cls-4" d="M241.09,116.87H72.91a3.21,3.21,0,0,0-3.23,3.2V236.93a3.21,3.21,0,0,0,3.23,3.22H241.09a3.22,3.22,0,0,0,3.23-3.22V120.07A3.22,3.22,0,0,0,241.09,116.87ZM157,235.68a2.66,2.66,0,1,1,2.66-2.65A2.65,2.65,0,0,1,157,235.68Zm81.12-10.51H75.88V125.89H238.12Z"/><path class="cls-4" d="M190.06,253.4H177.35a12.58,12.58,0,0,1-3-4.82A51.69,51.69,0,0,1,172,238.37l-13.58.37-16.32-.37a51.69,51.69,0,0,1-2.36,10.21,12.58,12.58,0,0,1-3,4.82H123.94a6.92,6.92,0,1,0,0,13.83h66.12a6.92,6.92,0,1,0,0-13.83Z"/><path class="cls-5" d="M94.83,196.27l4-9a27.39,27.39,0,0,0,14.3,4.27c5.07,0,7-1.43,7-3.53,0-6.87-24.63-1.86-24.63-17.95,0-7.73,6.31-14.05,19.19-14.05a32.36,32.36,0,0,1,15.71,3.78l-3.77,9.1a25.6,25.6,0,0,0-12-3.35c-5.13,0-7,1.74-7,3.9,0,6.62,24.57,1.67,24.57,17.64,0,7.55-6.31,14-19.19,14C106,201,98.91,199.12,94.83,196.27Z"/><path class="cls-5" d="M166.49,191.75H148.17l-3.4,8.42h-12.5l19.12-43.32h12.07l19.19,43.32H169.9Zm-3.59-9-5.57-13.86-5.57,13.86Z"/><path class="cls-5" d="M225.16,172.88c0,9.84-7.42,16-19.24,16h-7.55v11.33H186.11V156.85h19.81C217.74,156.85,225.16,163,225.16,172.88Zm-12.37,0c0-4-2.54-6.38-7.62-6.38h-6.8v12.69h6.8C210.25,179.19,212.79,176.84,212.79,172.88Z"/></g></g></svg>