<svg xmlns="http://www.w3.org/2000/svg" xmlns:xlink="http://www.w3.org/1999/xlink" viewBox="0 0 412.35 265.75"><defs><style>.cls-1{isolation:isolate;}.cls-2{fill:#d57682;}.cls-3{fill:#bf275c;}.cls-4{fill:#4cc2fc;}.cls-5{fill:#2f1c49;}.cls-6{fill:#1a2089;}.cls-7{fill:#00244f;}.cls-8{fill:#dc8692;}.cls-9{fill:#eee2e9;}.cls-10{fill:#5d4efa;}.cls-11{opacity:0.39;mix-blend-mode:screen;}.cls-12{fill:#fff;}.cls-13{fill:#4b84e4;}.cls-14{fill:#482da4;}.cls-15{fill:#40275f;}.cls-16{fill:#f0dce2;}.cls-17{fill:#cae2f9;}.cls-18{fill:url(#Áåçûìÿííûé_ãðàäèåíò_3);}.cls-19{fill:#006ae6;}.cls-20{fill:#b56cf7;}.cls-21{fill:#331f4f;}.cls-22{fill:#97d1e2;}.cls-23{fill:url(#Áåçûìÿííûé_ãðàäèåíò_36);}.cls-24{fill:#d4eafd;}</style><linearGradient id="Áåçûìÿííûé_ãðàäèåíò_3" x1="20491.22" y1="6071.59" x2="20502.7" y2="6071.59" gradientTransform="matrix(-0.91, -0.41, -0.41, 0.91, 21585.15, 3004.51)" gradientUnits="userSpaceOnUse"><stop offset="0" stop-color="#34204f"/><stop offset="0.49" stop-color="#3c255a"/><stop offset="1" stop-color="#40275f"/></linearGradient><linearGradient id="Áåçûìÿííûé_ãðàäèåíò_36" x1="747.87" y1="-2796.94" x2="755.14" y2="-2796.94" gradientTransform="translate(287.75 2998.71) rotate(-19.79)" gradientUnits="userSpaceOnUse"><stop offset="0" stop-color="#34204f"/><stop offset="0.12" stop-color="#382255"/><stop offset="0.43" stop-color="#3e265d"/><stop offset="1" stop-color="#40275f"/></linearGradient></defs><title>centralized_systems</title><g class="cls-1"><g id="Layer_2" data-name="Layer 2"><g id="Layer_1-2" data-name="Layer 1"><path class="cls-2" d="M223.32,31.3a9.62,9.62,0,0,1,3.83-1.61c.26-.05.6-.05.72.18a.45.45,0,0,1-.09.5,1.6,1.6,0,0,1-.44.29,7.13,7.13,0,0,0-2.25,1.87,2.47,2.47,0,0,1-.83.81,1.12,1.12,0,0,1-1.42-.44C223,32.37,223.14,31.84,223.32,31.3Z"/><path class="cls-3" d="M207.09,5.38A4.14,4.14,0,0,1,206,8.6c0-.66-.17-1.32-.22-2a2.63,2.63,0,0,1,0-.84,1,1,0,0,1,.48-.66C206.54,5,207.06,5.1,207.09,5.38Z"/><path class="cls-4" d="M200,14.64S205.22,25.5,223.62,31l-.54,2.61S202.28,28.45,195,18.68Z"/><path class="cls-5" d="M188.16,68.94a15.83,15.83,0,0,1-.39,7.27,29.48,29.48,0,0,0,10,.46,1.57,1.57,0,0,0-.15-1.86,3.26,3.26,0,0,0-1.65-1,13,13,0,0,1-1.85-.62,3.71,3.71,0,0,1-2-3.72A7,7,0,0,0,188.16,68.94Z"/><path class="cls-5" d="M161.39,59.9a15.89,15.89,0,0,1-6.21,3.8,29.51,29.51,0,0,0,5.29,8.5A1.56,1.56,0,0,0,161.92,71a3.32,3.32,0,0,0-.12-1.92,12.24,12.24,0,0,1-.54-1.88,3.69,3.69,0,0,1,2-3.71A6.88,6.88,0,0,0,161.39,59.9Z"/><path class="cls-6" d="M204.32,53.54c-1.77,2.55-3.66,5.6-5.36,8.49-2.31,3.92-4.28,7.55-5.19,9.26a12.83,12.83,0,0,1-1.53.09,11.53,11.53,0,0,1-4.47-.86h0a5.46,5.46,0,0,1-.6-.27,77.61,77.61,0,0,1,4.55-10.44,63.84,63.84,0,0,1,4.63-7.67,46.32,46.32,0,0,1-12.83-13.33V49.6a6.91,6.91,0,0,1-2.7,5.47l-18.28,9.86a5.19,5.19,0,0,1-1.18-.86,5.37,5.37,0,0,1-1.66-5l14.72-8.43c-.71-5.07,0-10.23.58-15.31a14.49,14.49,0,0,1,1.18-4.74,5.85,5.85,0,0,1,3.53-3.19l9.34,6.18c2.66,5,9.9,10.8,14.3,14.05A4.3,4.3,0,0,1,204.32,53.54Z"/><path class="cls-4" d="M177.72,27.72a47.71,47.71,0,0,0,12.88,7.87c1.2-3.27,3.74-9.15,5.89-11.88.3-.4.62-.79.94-1.18a13.39,13.39,0,0,0,2.64-4.33,7.32,7.32,0,0,0,.31-2.42,7.2,7.2,0,0,0-1.13-3.57c-.15-.24-.1-1-.19-1.22-1-.12-2-.25-3-.31a12.46,12.46,0,0,0-5.47.66c-2.83,1.14-4.81,3.7-6.42,6.29S180,25.72,177.72,27.72Z"/><path class="cls-7" d="M200.25,2.37l-1.17,3.5A4.59,4.59,0,0,0,198.74,8a2.29,2.29,0,0,0,1.63,1.8c-.15-1.38.51-2.65.61-4A5.24,5.24,0,0,0,200.25,2.37Z"/><path class="cls-8" d="M197.71,10.63a6.22,6.22,0,0,0,1.64,4h0c.46.22,1.07-.76,1.07-.76h0c.09-.16.18-.32.28-.47a9.19,9.19,0,0,1,2-2.25,12.25,12.25,0,0,0-2-4.71c-.18.34-.38.68-.58,1A20.08,20.08,0,0,1,197.71,10.63Z"/><path class="cls-6" d="M191.72,59.81a78.9,78.9,0,0,0-4.55,10.44,5.46,5.46,0,0,0,.6.27h0c3.68-8.85,10.75-18.8,10.75-18.8a26.3,26.3,0,0,1-12.26-13.95l-2.74,1a46.32,46.32,0,0,0,12.83,13.33A63.84,63.84,0,0,0,191.72,59.81Z"/><path class="cls-2" d="M199.81,10.64a7.2,7.2,0,0,0,.9,2.74,9.19,9.19,0,0,1,2-2.25,12.25,12.25,0,0,0-2-4.71c-.18.34-.38.68-.58,1A7.15,7.15,0,0,0,199.81,10.64Z"/><path class="cls-8" d="M206.48,5.92a11.31,11.31,0,0,1-.62,4.36,3.75,3.75,0,0,1-2.12,2.56,2.81,2.81,0,0,1-3.12-1.35,5,5,0,0,1-.46-3.56,8.67,8.67,0,0,1,3-5C204.68,3.28,206.4,4.36,206.48,5.92Z"/><path class="cls-7" d="M200.87,6.21a3.8,3.8,0,0,0,2.58-2.4A6.45,6.45,0,0,0,206.59,6a2.62,2.62,0,0,0,1.79,0,1.91,1.91,0,0,0,1-2,2.72,2.72,0,0,0-1.32-1.91,4.91,4.91,0,0,0-2.28-.67,4.58,4.58,0,0,1-2-.36C203.2.77,202.76.05,202.06,0s-1.28.66-1.54,1.35A5.57,5.57,0,0,0,200.87,6.21Z"/><path class="cls-8" d="M201.22,6.47a1.56,1.56,0,0,0,.19-.94.9.9,0,0,0-.57-.73.89.89,0,0,0-1,.48,1.34,1.34,0,0,0,0,1.2,2.85,2.85,0,0,0,.82.94C200.76,7,201,6.84,201.22,6.47Z"/><path class="cls-9" d="M204.48,10.52a2.83,2.83,0,0,1-1-.29.11.11,0,0,0-.16.08.67.67,0,0,0,.17.54.82.82,0,0,0,.71.24c.21,0,.31-.22.4-.42A.11.11,0,0,0,204.48,10.52Z"/><path class="cls-4" d="M177.72,27.72a47.71,47.71,0,0,0,12.88,7.87c1.2-3.27,3.74-9.15,5.89-11.88.3-.4.62-.79.94-1.18l-8-5.49S200.29,42.15,177.72,27.72Z"/><path class="cls-8" d="M222.71,31.84a9.62,9.62,0,0,1,3.83-1.61c.27-.05.6-.05.73.18a.47.47,0,0,1-.1.5,1.46,1.46,0,0,1-.44.29,7.26,7.26,0,0,0-2.25,1.87,2.44,2.44,0,0,1-.82.81,1.13,1.13,0,0,1-1.43-.44C222.4,32.91,222.53,32.38,222.71,31.84Z"/><path class="cls-7" d="M196.62,10.72l1.09-.09a6.19,6.19,0,0,0,1.65,4l-2.42.62S195.94,12.43,196.62,10.72Z"/><path class="cls-7" d="M200.43,13.85l.19,1.48c-.53,1.1-1.08,1.14-1.08,1.14l-.18-1.86C199.82,14.83,200.43,13.85,200.43,13.85Z"/><path class="cls-4" d="M196.2,12.2s.28,12.35,26.76,19.27l-.68,2.39s-27-3-33.23-17.78Z"/><path class="cls-10" d="M151.14,157.76l-13-1.46a61.45,61.45,0,0,0-8.46-20.41l8.18-10.24a4.67,4.67,0,0,0-.63-6.29l-9.58-9.57a4.67,4.67,0,0,0-6.28-.64l-10.25,8.18a61.82,61.82,0,0,0-20.4-8.46l-1.46-13a4.67,4.67,0,0,0-4.9-4H70.79a4.66,4.66,0,0,0-4.89,4l-1.46,13A61.87,61.87,0,0,0,44,117.33l-10.24-8.18a4.68,4.68,0,0,0-6.29.64l-9.57,9.57a4.68,4.68,0,0,0-.64,6.29l8.18,10.24A61.64,61.64,0,0,0,17,156.3L4,157.76a4.66,4.66,0,0,0-4,4.89v13.54a4.67,4.67,0,0,0,4,4.9l13,1.46A61.59,61.59,0,0,0,25.47,203L17.29,213.2a4.67,4.67,0,0,0,.64,6.28l9.57,9.58a4.67,4.67,0,0,0,6.29.63L44,221.51A61.45,61.45,0,0,0,64.44,230l1.46,13a4.66,4.66,0,0,0,4.89,4H84.33a4.67,4.67,0,0,0,4.9-4l1.46-13a61.4,61.4,0,0,0,20.4-8.46l10.25,8.18a4.65,4.65,0,0,0,6.28-.63l9.58-9.58a4.65,4.65,0,0,0,.63-6.28L129.65,203a61.4,61.4,0,0,0,8.46-20.4l13-1.46a4.67,4.67,0,0,0,4-4.9V162.65A4.66,4.66,0,0,0,151.14,157.76ZM77.56,190.92a21.5,21.5,0,1,1,21.5-21.5A21.5,21.5,0,0,1,77.56,190.92Z"/><path class="cls-4" d="M375.42,157.76l-13-1.46a61.64,61.64,0,0,0-8.45-20.41l8.17-10.24a4.67,4.67,0,0,0-.63-6.29l-9.58-9.57a4.67,4.67,0,0,0-6.28-.64l-10.25,8.18a61.82,61.82,0,0,0-20.4-8.46l-1.46-13a4.67,4.67,0,0,0-4.9-4H295.07a4.66,4.66,0,0,0-4.89,4l-1.46,13a61.73,61.73,0,0,0-20.4,8.46l-10.25-8.18a4.67,4.67,0,0,0-6.28.64l-9.58,9.57a4.68,4.68,0,0,0-.64,6.29l8.18,10.24a61.64,61.64,0,0,0-8.45,20.41l-13,1.46a4.66,4.66,0,0,0-4,4.89v13.54a4.67,4.67,0,0,0,4,4.9l13,1.46a61.59,61.59,0,0,0,8.45,20.4l-8.18,10.25a4.67,4.67,0,0,0,.64,6.28l9.58,9.58a4.65,4.65,0,0,0,6.28.63l10.25-8.18a61.31,61.31,0,0,0,20.4,8.46l1.46,13a4.66,4.66,0,0,0,4.89,4h13.54a4.67,4.67,0,0,0,4.9-4L315,230a61.4,61.4,0,0,0,20.4-8.46l10.25,8.18a4.65,4.65,0,0,0,6.28-.63l9.58-9.58a4.65,4.65,0,0,0,.63-6.28L353.94,203a61.59,61.59,0,0,0,8.45-20.4l13-1.46a4.67,4.67,0,0,0,4-4.9V162.65A4.66,4.66,0,0,0,375.42,157.76Zm-73.58,33.16a21.5,21.5,0,1,1,21.5-21.5A21.5,21.5,0,0,1,301.84,190.92Z"/><path class="cls-6" d="M243.9,134.26l-8.69-4.5a46.05,46.05,0,0,0-.44-16.49l8.44-5a3.48,3.48,0,0,0,1.24-4.56l-4.12-9.23a3.49,3.49,0,0,0-4.21-2.13l-9.33,3a46.14,46.14,0,0,0-12-11.36l2.46-9.47a3.49,3.49,0,0,0-2.35-4.1l-9.44-3.62A3.49,3.49,0,0,0,201,68.29L196.51,77a46.12,46.12,0,0,0-16.5.44l-5-8.44a3.49,3.49,0,0,0-4.55-1.24l-9.24,4.12a3.48,3.48,0,0,0-2.12,4.21l3,9.34a46,46,0,0,0-11.35,12l-9.48-2.47a3.48,3.48,0,0,0-4.09,2.35l-3.62,9.44a3.48,3.48,0,0,0,1.48,4.48l8.69,4.51a46.05,46.05,0,0,0,.44,16.49l-8.44,5a3.47,3.47,0,0,0-1.24,4.55l4.12,9.24a3.47,3.47,0,0,0,4.21,2.12l9.33-3a46.26,46.26,0,0,0,12,11.35l-2.46,9.48A3.48,3.48,0,0,0,164,175l9.44,3.62a3.48,3.48,0,0,0,4.48-1.47l4.5-8.7a45.89,45.89,0,0,0,16.5-.44l5,8.45a3.48,3.48,0,0,0,4.55,1.23l9.24-4.12a3.48,3.48,0,0,0,2.12-4.21l-3-9.33a46.11,46.11,0,0,0,11.35-12l9.48,2.46a3.48,3.48,0,0,0,4.09-2.34l3.62-9.45A3.48,3.48,0,0,0,243.9,134.26Zm-60.18,3.45a16.05,16.05,0,1,1,20.74-9.24A16,16,0,0,1,183.72,137.71Z"/><path class="cls-10" d="M283.18,86.76l-3.87-5.69a32.35,32.35,0,0,0,5.23-10.34l6.88-.25a2.47,2.47,0,0,0,2.29-2.41l.54-7.08a2.47,2.47,0,0,0-1.9-2.73L285.59,57A32.68,32.68,0,0,0,282,46l4.68-5a2.44,2.44,0,0,0-.08-3.31L282,32.22a2.45,2.45,0,0,0-3.27-.59L273,35.51a32.22,32.22,0,0,0-10.35-5.24l-.25-6.88a2.45,2.45,0,0,0-2.4-2.28l-7.09-.54a2.45,2.45,0,0,0-2.72,1.89l-1.29,6.77a32.24,32.24,0,0,0-11,3.61l-5-4.69a2.44,2.44,0,0,0-3.31.09l-5.39,4.63a2.44,2.44,0,0,0-.59,3.26l3.88,5.69a32.22,32.22,0,0,0-5.24,10.35l-6.88.25a2.43,2.43,0,0,0-2.28,2.4l-.54,7.09a2.45,2.45,0,0,0,1.9,2.72l6.76,1.28a32.24,32.24,0,0,0,3.61,11l-4.69,5a2.45,2.45,0,0,0,.09,3.32l4.63,5.39a2.44,2.44,0,0,0,3.26.58l5.69-3.87a32.4,32.4,0,0,0,10.35,5.23l.25,6.88a2.45,2.45,0,0,0,2.4,2.29l7.09.54a2.45,2.45,0,0,0,2.72-1.9l1.28-6.76a32.48,32.48,0,0,0,11-3.62l5,4.69a2.46,2.46,0,0,0,3.32-.08L282.6,90A2.45,2.45,0,0,0,283.18,86.76Zm-38.37-18A11.29,11.29,0,1,1,260.72,70,11.29,11.29,0,0,1,244.81,68.8Z"/><g class="cls-11"><path class="cls-12" d="M107.71,165.69s-.12-.15-.2-.45-.1-.34-.15-.57l-.09-.36-.11-.42-.26-1c-.11-.36-.22-.75-.35-1.17s-.29-.87-.45-1.35l-.28-.73c-.1-.25-.19-.51-.31-.77l-.35-.81-.09-.21-.1-.21-.2-.42c-.27-.57-.59-1.15-.92-1.76a33.13,33.13,0,0,0-2.49-3.73A29.54,29.54,0,0,0,97.87,148a30,30,0,0,0-4.58-3.45l-.32-.21-.33-.18-.67-.38-.17-.1-.17-.08-.35-.18c-.23-.12-.46-.24-.7-.35a29.28,29.28,0,0,0-3-1.22c-.26-.09-.52-.19-.78-.27l-.8-.24-.4-.12-.41-.1-.82-.2a27.1,27.1,0,0,0-3.42-.56l-.44-.05-.22,0-.23,0-.89-.05-.22,0H77.4l-.92,0-.46,0-.46,0-.92.07-.93.13a28.85,28.85,0,0,0-14.3,6.2,28.11,28.11,0,0,0-3.06,2.83,28.54,28.54,0,0,0-2.66,3.31,29.13,29.13,0,0,0-3.83,7.79,30.28,30.28,0,0,0-1,4.33,29.1,29.1,0,0,0,0,9,30.1,30.1,0,0,0,1,4.34,29.13,29.13,0,0,0,3.83,7.79,29.19,29.19,0,0,0,5.72,6.14,29.09,29.09,0,0,0,14.3,6.2l.93.12.92.08.46,0,.46,0,.92,0h1.8l.89-.06h.23l.22,0,.44-.05A31.27,31.27,0,0,0,84.4,198l.82-.2.41-.11.4-.12.8-.23c.26-.08.52-.18.78-.27a29.28,29.28,0,0,0,3-1.22l.7-.35.35-.18.17-.09.17-.09.67-.38.33-.19.32-.2a30,30,0,0,0,4.58-3.45,30.28,30.28,0,0,0,3.49-3.78,33.13,33.13,0,0,0,2.49-3.73c.33-.61.65-1.18.92-1.76l.2-.42.1-.2.09-.21.35-.81c.12-.26.21-.52.31-.77l.28-.74c.16-.48.32-.92.45-1.34s.24-.82.35-1.18l.26-1,.11-.41.09-.36a5.64,5.64,0,0,1,.15-.57c.08-.3.15-.45.2-.45s.06.17.06.49c0,.16,0,.35,0,.59s0,.24,0,.38l0,.43c0,.3-.08.65-.14,1l-.23,1.23c-.1.45-.22.92-.35,1.42l-.23.78c-.08.26-.16.54-.26.82l-.31.85-.08.23-.09.22-.18.45c-.24.61-.55,1.22-.85,1.88a31.1,31.1,0,0,1-2.43,4A29.53,29.53,0,0,1,99,192.07a31.21,31.21,0,0,1-4.74,3.81l-.33.22-.35.21-.7.42-.17.1-.18.1-.37.2c-.24.13-.48.27-.73.39a30.94,30.94,0,0,1-3.15,1.39c-.27.1-.54.21-.82.3l-.85.27-.43.14-.43.12-.88.24a30.36,30.36,0,0,1-3.66.67l-.47.06-.23,0-.24,0-1,.08-.24,0h-.24l-.48,0-.49,0h-2l-.5,0-1-.07-1-.11a32,32,0,0,1-8-2.1,31.61,31.61,0,0,1-7.52-4.43,31.22,31.22,0,0,1-6.26-6.63A31.58,31.58,0,0,1,47.39,179a33.78,33.78,0,0,1-1.12-4.72,31.54,31.54,0,0,1,1.12-14.52,31.72,31.72,0,0,1,4.21-8.46,30.67,30.67,0,0,1,2.92-3.57,30.05,30.05,0,0,1,3.34-3.06,31.57,31.57,0,0,1,7.52-4.42,31.15,31.15,0,0,1,8-2.1l1-.12,1-.07.5,0h.49l1,0h.49l.49,0h.72l.24,0,1,.08h.24l.23,0,.47.06a30.36,30.36,0,0,1,3.66.68l.88.24.43.12.43.13.85.28c.28.09.55.2.82.3a33.27,33.27,0,0,1,3.15,1.38l.73.4.37.19.18.1.17.11.7.42.35.21.33.22A30.61,30.61,0,0,1,99,146.78a30.06,30.06,0,0,1,3.51,4.1,31.18,31.18,0,0,1,2.43,4c.3.65.61,1.27.85,1.88l.18.45.09.22.08.22.31.86c.1.27.18.55.26.82l.23.77c.13.51.25,1,.35,1.42l.23,1.23c.06.38.1.72.14,1l0,.43c0,.14,0,.26,0,.38s0,.43,0,.59C107.77,165.52,107.75,165.68,107.71,165.69Z"/><path class="cls-12" d="M175.21,141s.15,0,.37.11l.39.21.25.15.28.15.68.38.82.42,1,.47.55.24c.18.07.37.17.58.24.4.15.82.32,1.28.47s.93.29,1.43.44a25,25,0,0,0,3.33.63,22.88,22.88,0,0,0,8.15-.49l.28-.07.28-.08.55-.15c.19-.05.37-.12.56-.18l.56-.19a22.54,22.54,0,0,0,4.42-2.16,21.82,21.82,0,0,0,2.12-1.53c.34-.27.67-.58,1-.87.17-.15.32-.31.49-.47s.33-.31.48-.48l.47-.51a2.73,2.73,0,0,0,.23-.25l.23-.27.44-.53c.15-.18.29-.37.43-.56a21.57,21.57,0,0,0,2.83-5,22,22,0,0,0,1.45-5.87,20.34,20.34,0,0,0,.11-3.13,21.2,21.2,0,0,0-.34-3.16,21.73,21.73,0,0,0-2.11-6.16,22.67,22.67,0,0,0-1.76-2.84,21.87,21.87,0,0,0-4.77-4.77,23.78,23.78,0,0,0-2.83-1.76,22.08,22.08,0,0,0-6.17-2.1,21.22,21.22,0,0,0-3.16-.35,21.74,21.74,0,0,0-3.13.11,22.44,22.44,0,0,0-5.87,1.45,21.94,21.94,0,0,0-5,2.83c-.19.15-.38.28-.56.43l-.53.45-.27.22-.25.23-.51.47-.48.48c-.15.17-.32.32-.46.49-.3.34-.6.67-.88,1a23.4,23.4,0,0,0-1.52,2.11,21.84,21.84,0,0,0-1.23,2.2c-.36.73-.66,1.49-.94,2.23-.06.18-.12.37-.19.56s-.12.36-.17.55l-.16.56-.08.27-.06.28a23.14,23.14,0,0,0-.5,8.15,24.63,24.63,0,0,0,.64,3.33c.14.5.27,1,.44,1.43s.31.88.46,1.29c.08.2.17.39.25.58l.23.54.47,1,.43.83.37.67.16.29.14.24.21.39c.11.22.14.35.11.37s-.14,0-.32-.21a4.36,4.36,0,0,1-.32-.31l-.2-.22-.21-.25c-.15-.19-.32-.39-.49-.62l-.55-.79c-.19-.29-.38-.6-.59-.94l-.3-.55c-.1-.18-.21-.37-.31-.58-.2-.4-.41-.83-.6-1.29s-.38-1-.57-1.48a24.46,24.46,0,0,1-.89-3.48,23.62,23.62,0,0,1,.14-8.76l.06-.31.07-.3.15-.61c.05-.2.12-.4.17-.61s.12-.41.19-.61a23.56,23.56,0,0,1,3.82-7.26c.29-.39.61-.76.93-1.14.16-.19.34-.36.5-.55s.34-.37.52-.54l.54-.53a3.45,3.45,0,0,1,.28-.26l.28-.25.58-.51.61-.48a23.79,23.79,0,0,1,5.5-3.24,24.19,24.19,0,0,1,6.51-1.7,23.85,23.85,0,0,1,7,.2,23.89,23.89,0,0,1,6.9,2.31,25.06,25.06,0,0,1,3.19,2,24.39,24.39,0,0,1,5.33,5.34,24.22,24.22,0,0,1,4.28,10.08,25,25,0,0,1,.35,3.54,23.72,23.72,0,0,1-.16,3.48,23.85,23.85,0,0,1-4.94,12c-.16.2-.31.4-.48.6l-.5.58-.26.29-.26.27-.53.54c-.17.18-.36.35-.54.52s-.36.34-.55.5c-.38.32-.74.64-1.13.93a26.65,26.65,0,0,1-2.36,1.61,23.77,23.77,0,0,1-2.45,1.27c-.81.37-1.64.67-2.46,1l-.61.18-.61.17-.61.15-.3.07-.3.06a23.31,23.31,0,0,1-12.25-.75c-.52-.19-1-.36-1.47-.57s-.9-.4-1.3-.6c-.21-.09-.39-.21-.58-.31l-.54-.3-.95-.59-.78-.55c-.24-.17-.44-.34-.62-.49l-.26-.21a2,2,0,0,1-.21-.2c-.13-.12-.24-.23-.32-.32S175.18,141,175.21,141Z"/><path class="cls-12" d="M272.51,172.85c.05,0,.11.15.2.44l.15.55.08.35.11.4.25,1c.11.34.22.72.34,1.13s.29.85.44,1.31l.28.71c.1.25.18.5.3.75l.34.79.08.2.1.2.2.41c.26.56.58,1.12.89,1.71a31.4,31.4,0,0,0,2.43,3.62,29.37,29.37,0,0,0,7.83,7l.31.19c.11.07.22.12.32.19l.65.36.16.09.17.09.34.17.68.34a27.73,27.73,0,0,0,2.89,1.19c.25.08.5.18.75.25l.78.24.39.11.39.1.8.2a29.84,29.84,0,0,0,3.32.54l.43.05.21,0h.22l.86.05.22,0H302l.88,0,.45,0,.45,0,.89-.08.9-.12a28.24,28.24,0,0,0,13.88-6,27.39,27.39,0,0,0,3-2.75,26.92,26.92,0,0,0,2.59-3.21,28.47,28.47,0,0,0,3.72-7.56,29.47,29.47,0,0,0,1-4.2,28.19,28.19,0,0,0,0-8.73,29.6,29.6,0,0,0-1-4.21,28.62,28.62,0,0,0-3.72-7.56,27.64,27.64,0,0,0-2.59-3.2,26.52,26.52,0,0,0-3-2.76,28.49,28.49,0,0,0-6.7-4,28.09,28.09,0,0,0-7.18-2l-.9-.11-.89-.08-.45,0-.45,0-.88,0H300.2l-.86,0-.22,0-.21,0-.43,0a29.85,29.85,0,0,0-3.32.55l-.8.2-.39.09-.39.12-.78.23-.75.26a30.07,30.07,0,0,0-2.89,1.18l-.68.35-.34.17-.17.08-.16.09-.65.37-.32.18-.31.2a30,30,0,0,0-4.45,3.34,29.19,29.19,0,0,0-3.38,3.67,30.56,30.56,0,0,0-2.43,3.62c-.31.59-.63,1.15-.89,1.71l-.2.4-.1.21-.08.2-.34.78c-.12.25-.2.51-.3.75l-.28.71c-.15.47-.3.9-.44,1.31s-.23.79-.34,1.14l-.25.95-.11.4-.08.36-.15.54c-.09.3-.15.45-.2.44s-.06-.16-.06-.47c0-.16,0-.35,0-.58s0-.23,0-.36l.05-.42c0-.3.07-.63.13-1l.22-1.2c.1-.43.22-.88.34-1.38l.23-.75c.08-.26.15-.53.25-.8l.3-.83.07-.21.09-.22.18-.44c.23-.59.53-1.19.83-1.83a31.05,31.05,0,0,1,2.35-3.9,29.87,29.87,0,0,1,3.41-4,30.59,30.59,0,0,1,4.61-3.7l.32-.21.34-.21.68-.41.17-.1.17-.1.36-.19.71-.38a31.44,31.44,0,0,1,3.06-1.35l.8-.29L293,140l.41-.13.43-.12.85-.23a30.93,30.93,0,0,1,3.55-.66l.46-.06.23,0,.23,0,.93-.08.24,0h.23l.47,0h.47a3.85,3.85,0,0,1,.48,0h1.44l.48,0,1,.06,1,.12a30,30,0,0,1,7.81,2,30.42,30.42,0,0,1,7.32,4.3,28.39,28.39,0,0,1,3.25,3,30.11,30.11,0,0,1,2.84,3.48,30.59,30.59,0,0,1,4.09,8.23,32,32,0,0,1,1.09,4.59,30.87,30.87,0,0,1,0,9.53,32.27,32.27,0,0,1-1.09,4.59,30.73,30.73,0,0,1-6.93,11.71,30.35,30.35,0,0,1-3.25,3,30.14,30.14,0,0,1-15.13,6.34l-1,.11-1,.07-.48,0h-.48l-1,0h-.48l-.47,0h-.7l-.24,0-.93-.07-.23,0-.23,0-.46-.06a28.91,28.91,0,0,1-3.55-.65l-.85-.24-.43-.11-.41-.13-.83-.27c-.27-.09-.53-.2-.8-.3a31.4,31.4,0,0,1-3.06-1.34l-.71-.39-.36-.19-.17-.09-.17-.11-.68-.41-.34-.2-.32-.22a29.39,29.39,0,0,1-4.61-3.7,29.81,29.81,0,0,1-3.41-4,30.43,30.43,0,0,1-2.35-3.91c-.3-.63-.6-1.23-.83-1.83l-.18-.44-.09-.21-.07-.22-.3-.83c-.1-.27-.17-.54-.25-.79l-.23-.76c-.12-.49-.24-.95-.34-1.38l-.22-1.19c-.06-.37-.1-.7-.13-1l-.05-.42c0-.13,0-.26,0-.37s0-.42,0-.57Q272.45,172.87,272.51,172.85Z"/><path class="cls-12" d="M350.15,163.26s-.12-.24-.24-.73c-.05-.24-.12-.54-.2-.9l-.11-.59-.17-.66c-.11-.47-.23-1-.37-1.58s-.34-1.21-.52-1.89-.45-1.4-.69-2.17l-.44-1.18-.22-.62-.12-.31-.13-.32-.55-1.3-.14-.33-.15-.34-.33-.68c-.41-.93-.92-1.86-1.44-2.84a49.54,49.54,0,0,0-3.95-6,48.61,48.61,0,0,0-12.92-11.73l-.52-.33-.53-.3-1.07-.62-.27-.15-.28-.15-.56-.28-1.13-.58a49.07,49.07,0,0,0-4.79-2l-.63-.22c-.21-.07-.41-.15-.63-.21l-1.29-.39-.64-.2-.66-.16-1.33-.34a46.9,46.9,0,0,0-5.53-.93l-.71-.08-.35,0-.36,0-1.44-.09-.36,0H304l-.73,0h-1.46l-1.48,0-.74,0-.75.06-1.49.12-1.5.2c-1,.11-2,.32-3,.5-.26,0-.51.1-.76.16l-.75.18-.75.18c-.13,0-.26.05-.38.09l-.38.11-1.5.43c-.25.07-.5.16-.75.24l-.74.26c-1,.32-2,.74-3,1.13a47.17,47.17,0,0,0-11.2,6.7c-.22.17-.44.34-.65.52l-.64.55-.63.55-.32.28c-.11.09-.2.19-.31.29l-1.22,1.17c-.21.19-.39.41-.59.61l-.59.62a45.71,45.71,0,0,0-4.32,5.35l-.26.36c-.08.11-.17.23-.24.35l-.47.74-.47.74c-.08.12-.16.24-.23.37l-.22.38-.87,1.52-.8,1.57-.21.39-.18.4-.37.81-.36.81c-.06.13-.12.27-.17.41l-.16.41-.33.83-.16.42-.08.21-.08.21-.57,1.69a50.24,50.24,0,0,0-1.65,7,47.8,47.8,0,0,0,0,14.59,50.1,50.1,0,0,0,1.65,7l.57,1.7.08.21.08.21.16.41.33.83.16.41c.05.14.11.28.17.41l.36.81.37.81.18.4.21.4.8,1.57.87,1.52.22.38c.07.13.15.25.23.37l.47.74.47.73c.07.12.16.24.24.36l.26.35a45,45,0,0,0,4.32,5.36l.59.61c.2.21.38.42.59.61l1.22,1.17c.11.1.2.2.31.29l.32.28.63.55.64.55.65.53a47.84,47.84,0,0,0,11.2,6.7c1,.39,2,.81,3,1.13l.74.25a7.24,7.24,0,0,0,.75.24l1.5.44.38.11.38.09.75.18.75.17.76.17c1,.17,2,.39,3,.5.5.06,1,.14,1.5.19l1.49.12.75.06c.24,0,.49,0,.74,0l1.48,0a5.93,5.93,0,0,0,.73,0h1.83l.36,0,1.44-.1.36,0,.35,0,.71-.08a49.06,49.06,0,0,0,5.53-.92l1.33-.34.66-.17.64-.19,1.29-.39c.22-.06.42-.15.63-.22l.63-.22a49,49,0,0,0,4.79-2l1.13-.58.56-.29.28-.14.27-.16,1.07-.61c.18-.1.36-.2.53-.31l.52-.32a48.81,48.81,0,0,0,7.35-5.61,48,48,0,0,0,5.57-6.12,50.32,50.32,0,0,0,3.95-6c.52-1,1-1.92,1.44-2.85l.33-.68.15-.33.14-.34.55-1.3.13-.31.12-.32.22-.61.44-1.19c.24-.77.48-1.49.69-2.17s.36-1.31.52-1.88.26-1.11.37-1.58l.17-.67.11-.58c.08-.36.15-.66.2-.91.12-.48.2-.73.24-.73s.06.27,0,.77c0,.25,0,.56-.07.93q0,.28-.06.6l-.1.68c-.08.49-.15,1-.26,1.63s-.26,1.24-.41,1.94-.37,1.44-.58,2.24q-.18.6-.39,1.23l-.2.64c0,.1-.07.21-.11.32l-.12.33-.5,1.35-.13.35-.14.35-.31.7c-.38,1-.88,1.94-1.37,3a50.72,50.72,0,0,1-3.88,6.32A49.34,49.34,0,0,1,336,205a48.75,48.75,0,0,1-7.51,6l-.53.35-.54.33-1.11.66-.28.16-.28.16-.58.3-1.16.62a53,53,0,0,1-5,2.16l-.65.24-.66.23-1.34.43-.67.21L315,217l-1.38.38a52.39,52.39,0,0,1-5.76,1l-.74.09-.37,0-.38,0-1.5.12-.38,0-.38,0-.76,0-.77,0c-.25,0-.51,0-.77,0l-1.54,0-.78,0-.78-.06-1.57-.11-1.57-.18c-1.06-.11-2.1-.32-3.17-.5-.26,0-.52-.11-.79-.16l-.79-.18-.79-.18-.4-.1-.39-.11-1.58-.44c-.27-.07-.53-.16-.79-.25l-.79-.26c-1.05-.33-2.08-.76-3.13-1.16a49.76,49.76,0,0,1-11.82-7l-.69-.55-.67-.57-.67-.58-.34-.29-.32-.31-1.3-1.22c-.22-.2-.41-.43-.62-.64l-.62-.65a48.23,48.23,0,0,1-4.59-5.62l-.26-.37c-.09-.12-.18-.25-.26-.38l-.5-.77-.5-.77c-.08-.13-.17-.26-.24-.39l-.23-.4-.93-1.61c-.28-.55-.56-1.1-.85-1.65l-.21-.42c-.07-.13-.13-.28-.2-.42l-.39-.85-.38-.85c-.07-.14-.12-.29-.18-.43l-.17-.44-.35-.87-.17-.44-.09-.22c0-.08,0-.15-.08-.22l-.6-1.79a51.54,51.54,0,0,1-1.76-7.41,50.48,50.48,0,0,1,0-15.39,51.22,51.22,0,0,1,1.76-7.41l.6-1.79c0-.07.05-.15.08-.22l.09-.22.17-.44.35-.87.17-.44c.06-.15.11-.29.18-.43.13-.29.26-.57.38-.86l.39-.85.2-.42.21-.41.85-1.66.93-1.6.23-.4c.07-.13.16-.26.24-.39l.5-.77.5-.78c.08-.13.17-.25.26-.37l.26-.38a49.08,49.08,0,0,1,4.59-5.62l.62-.64c.21-.22.4-.44.62-.64l1.3-1.23c.11-.1.21-.21.32-.3l.34-.29.67-.58.67-.58.69-.54a49.76,49.76,0,0,1,11.82-7c1.05-.41,2.08-.84,3.13-1.17l.79-.26c.26-.09.52-.18.79-.25l1.58-.44.39-.11.4-.09.79-.18.79-.18c.27-.06.53-.12.79-.16,1.07-.18,2.11-.4,3.17-.5.53-.06,1.05-.14,1.57-.19l1.57-.11.78-.05c.26,0,.52,0,.78,0l1.54,0h.77l.77,0,.76,0h.38l.38,0,1.5.11.38,0,.37,0,.74.09a48.06,48.06,0,0,1,5.76,1l1.38.37.69.19c.23.06.45.14.67.21l1.34.42c.22.07.44.16.66.24l.65.24a50.43,50.43,0,0,1,5,2.15l1.16.62.58.31.28.15.28.17,1.11.66.54.32.53.35a48.89,48.89,0,0,1,13.11,12.42,50,50,0,0,1,3.88,6.32c.49,1,1,2,1.37,3l.31.71.14.35.13.34.5,1.36.12.32c0,.11.08.22.11.33l.2.64c.14.42.27.83.39,1.22.21.8.42,1.55.58,2.24s.29,1.35.41,1.95.18,1.14.26,1.62l.1.68q0,.33.06.6c0,.37.05.69.07.94C350.21,163,350.2,163.26,350.15,163.26Z"/><path class="cls-12" d="M265.54,70.83s0-.12,0-.27a2.86,2.86,0,0,1,.12-.27l.09-.17.09-.2.23-.45.26-.55.29-.65c.09-.24.2-.48.3-.75.19-.53.38-1.13.55-1.79a16.13,16.13,0,0,0,.38-2.18,15.12,15.12,0,0,0-.39-5.29c-.05-.24-.13-.47-.2-.72s-.16-.47-.24-.72a14.83,14.83,0,0,0-.63-1.43,15.49,15.49,0,0,0-.8-1.42,14.25,14.25,0,0,0-1-1.35,14,14,0,0,0-2.55-2.43,14.45,14.45,0,0,0-3.25-1.81,14.63,14.63,0,0,0-3.78-.92,14.9,14.9,0,0,0-2-.06,12.75,12.75,0,0,0-2,.23A14,14,0,0,0,247,49a18.27,18.27,0,0,0-1.82,1.13,20,20,0,0,0-1.65,1.42,15.75,15.75,0,0,0-1.41,1.65A13.76,13.76,0,0,0,241,55a14.35,14.35,0,0,0-1.36,4,14.16,14.16,0,0,0-.23,2,13.42,13.42,0,0,0,.07,2,14,14,0,0,0,.92,3.78,13.77,13.77,0,0,0,1.8,3.24,14.13,14.13,0,0,0,2.43,2.56,15.66,15.66,0,0,0,1.35,1,15.49,15.49,0,0,0,1.42.8,13.88,13.88,0,0,0,1.44.62l.72.25.71.2a15.18,15.18,0,0,0,5.3.39,16.71,16.71,0,0,0,2.18-.38,17.36,17.36,0,0,0,1.79-.56c.26-.09.51-.2.74-.29l.65-.29.55-.26.46-.23.19-.1.17-.08.27-.12c.15-.06.25-.07.27,0s0,.12-.11.25a1.8,1.8,0,0,1-.2.23l-.13.14-.17.15-.4.34-.51.39-.62.41-.75.43a14.64,14.64,0,0,1-1.84.81,16.65,16.65,0,0,1-2.33.64,15.68,15.68,0,0,1-5.91,0c-.27,0-.54-.12-.82-.18l-.83-.23a17.15,17.15,0,0,1-1.67-.63,15.31,15.31,0,0,1-1.66-.85,14.49,14.49,0,0,1-1.6-1.08,15.93,15.93,0,0,1-2.9-2.85A16.2,16.2,0,0,1,237,63.28a15.56,15.56,0,0,1-.11-2.37,16.28,16.28,0,0,1,1.8-7.1,17.16,17.16,0,0,1,1.33-2.16,19.43,19.43,0,0,1,1.67-2,17.14,17.14,0,0,1,2-1.67,18,18,0,0,1,2.16-1.34,16.55,16.55,0,0,1,4.7-1.56,15.14,15.14,0,0,1,2.41-.24,16.31,16.31,0,0,1,6.77,1.28,16.38,16.38,0,0,1,7.67,6.72,17.24,17.24,0,0,1,.84,1.66,15.4,15.4,0,0,1,.63,1.67c.08.28.17.55.23.83s.14.54.19.82a15.87,15.87,0,0,1,0,5.91,15.41,15.41,0,0,1-.63,2.33,16.19,16.19,0,0,1-.82,1.84c-.14.27-.29.51-.42.74l-.42.63-.38.51c-.12.15-.24.28-.35.4l-.15.16a1.85,1.85,0,0,1-.14.14,1.92,1.92,0,0,1-.23.2C265.65,70.82,265.57,70.86,265.54,70.83Z"/><path class="cls-12" d="M250.18,35.05c0,.05-.13.11-.39.19s-.3.09-.49.14l-.32.08-.36.1-.85.24-1,.31-1.17.4-.64.24-.67.27-.7.31-.18.08-.18.09-.36.18c-.5.23-1,.51-1.53.8a27.6,27.6,0,0,0-3.22,2.17,26.49,26.49,0,0,0-6.25,7l-.17.28-.16.29-.33.58-.08.14-.08.15-.15.3-.3.61c-.38.83-.75,1.68-1.06,2.58-.07.22-.16.45-.23.67l-.2.7-.1.34-.09.36-.18.71a28.11,28.11,0,0,0-.48,3c-.06.51-.08,1-.11,1.54a6.71,6.71,0,0,0,0,.78v.78l0,.79c0,.13,0,.27,0,.4l0,.4.07.8c0,.26.07.53.11.8a25.06,25.06,0,0,0,1.77,6.4,25.86,25.86,0,0,0,3.6,6,24.43,24.43,0,0,0,2.46,2.64,24.8,24.8,0,0,0,2.86,2.3,25.41,25.41,0,0,0,6.73,3.31,26.21,26.21,0,0,0,3.75.88,25.37,25.37,0,0,0,7.78,0,26.21,26.21,0,0,0,3.75-.88,25.56,25.56,0,0,0,6.73-3.31,24.8,24.8,0,0,0,2.86-2.3A24.43,24.43,0,0,0,273.12,77a25.48,25.48,0,0,0,3.59-6,25.09,25.09,0,0,0,1.78-6.4c0-.27.08-.54.11-.8l.07-.8,0-.4c0-.13,0-.27,0-.4l0-.79v-.78c0-.26,0-.53,0-.78,0-.52-.05-1-.11-1.54a28.11,28.11,0,0,0-.48-3l-.18-.71-.09-.36-.1-.34-.21-.7c-.07-.22-.15-.45-.23-.67A25.75,25.75,0,0,0,276.27,50l-.3-.61-.15-.3-.08-.15-.08-.14-.33-.58-.16-.29-.17-.28a26.49,26.49,0,0,0-6.25-7,27.67,27.67,0,0,0-3.23-2.17c-.52-.29-1-.57-1.52-.8l-.36-.18-.18-.09-.18-.08-.7-.31-.67-.27-.64-.24-1.17-.4-1-.31-.85-.24-.36-.1-.32-.08c-.19-.05-.36-.09-.49-.14s-.39-.14-.39-.19.15-.07.43-.07h.51l.33,0,.38,0,.9.11,1.07.2c.39.08.8.19,1.24.29l.68.2c.23.07.47.14.71.23l.75.26.2.07.19.08.39.16c.54.2,1.08.47,1.65.73a28.12,28.12,0,0,1,3.51,2.11,26.63,26.63,0,0,1,3.6,3.06,26.93,26.93,0,0,1,3.33,4.13l.2.29.18.3.37.61.09.16.09.16.17.31.35.65a27.32,27.32,0,0,1,1.21,2.74c.09.24.19.48.27.73l.24.74.12.37.1.38.21.77a27.24,27.24,0,0,1,.6,3.19c.08.55.12,1.11.16,1.67,0,.28,0,.56,0,.84V61a3,3,0,0,1,0,.42v.86c0,.15,0,.29,0,.44l0,.43-.06.87c0,.29-.07.58-.1.88a27.44,27.44,0,0,1-1.83,7,27.77,27.77,0,0,1-3.87,6.59,27.17,27.17,0,0,1-2.67,2.92A25.86,25.86,0,0,1,269.26,84a27.62,27.62,0,0,1-7.41,3.69,29.91,29.91,0,0,1-4.13,1,28,28,0,0,1-8.58,0,29.91,29.91,0,0,1-4.13-1A27.62,27.62,0,0,1,237.6,84a25.86,25.86,0,0,1-3.13-2.56,26.17,26.17,0,0,1-2.67-2.92A27.77,27.77,0,0,1,227.93,72a27.44,27.44,0,0,1-1.83-7c0-.3-.07-.59-.1-.88l-.06-.87,0-.43c0-.15,0-.29,0-.44v-.86c0-.14,0-.28,0-.42l0-.43c0-.28,0-.56,0-.84,0-.56.08-1.12.16-1.67a29.48,29.48,0,0,1,.59-3.19l.21-.77.11-.38.12-.37.24-.74c.08-.25.18-.49.27-.73a27.32,27.32,0,0,1,1.21-2.74c.11-.22.23-.43.35-.65l.17-.31.09-.16.09-.16.37-.61.18-.3.2-.29a26.93,26.93,0,0,1,3.33-4.13,26.63,26.63,0,0,1,3.6-3.06,28.12,28.12,0,0,1,3.51-2.11c.57-.26,1.11-.53,1.65-.73l.39-.16.19-.08.2-.07.74-.26c.25-.09.49-.16.72-.23l.68-.2c.44-.1.85-.21,1.24-.29l1.07-.2.9-.11.37,0,.34,0h.51C250,35,250.17,35,250.18,35.05Z"/><path class="cls-12" d="M212,93.8s-.21,0-.54-.23l-.6-.37-.38-.24-.44-.26-1-.63-1.29-.71-1.53-.77-.86-.39-.45-.21-.23-.1-.24-.1-1-.39-.26-.11-.26-.09-.53-.19c-.72-.26-1.49-.48-2.28-.73a38,38,0,0,0-5.31-1.07,35.6,35.6,0,0,0-6.2-.27,36.37,36.37,0,0,0-6.88.94l-.44.11c-.15,0-.3.08-.44.12l-.9.24-.22.07-.23.07-.44.14c-.3.1-.61.19-.91.3a36.37,36.37,0,0,0-3.59,1.49c-.3.15-.6.28-.9.44l-.88.47-.45.25-.44.26-.88.52a37,37,0,0,0-3.41,2.45l-.42.33-.21.17-.2.18-.81.71-.2.18-.2.19-.39.38-.39.38-.39.39-.76.81c-.12.14-.25.27-.38.41l-.36.42-.72.86c-.24.3-.46.6-.69.9-.48.59-.89,1.23-1.33,1.86-.11.16-.21.32-.31.49l-.3.49c-.2.33-.42.65-.6,1l-.56,1a5.28,5.28,0,0,0-.27.53l-.26.53c-.36.7-.65,1.43-1,2.16a35.92,35.92,0,0,0-2.37,9.48,33.74,33.74,0,0,0-.18,5,34.22,34.22,0,0,0,.54,5.12c0,.21.07.43.12.64l.14.64.14.63a3,3,0,0,0,.07.32l.09.32.34,1.26.41,1.26c.13.42.3.83.45,1.24l.24.62a6.57,6.57,0,0,0,.26.61l.26.61.14.31a2,2,0,0,0,.14.3c.19.4.39.8.59,1.2a38.36,38.36,0,0,0,2.84,4.59,35.83,35.83,0,0,0,7.71,7.71,37.12,37.12,0,0,0,4.59,2.84l1.2.6.3.14.31.13.61.27.61.26.62.23c.42.15.82.33,1.24.45l1.26.41,1.27.34.31.09.32.07.64.14.63.15.64.11a34.38,34.38,0,0,0,5.12.55,35.32,35.32,0,0,0,5.05-.19,35.75,35.75,0,0,0,9.47-2.37c.73-.31,1.47-.61,2.17-1l.53-.26.52-.26,1-.57c.34-.18.66-.39,1-.59l.5-.31c.16-.1.33-.2.48-.31.63-.44,1.27-.85,1.86-1.32l.9-.69.86-.73.42-.36.41-.38.81-.76c.14-.12.26-.25.39-.38l.38-.4.38-.39.19-.2.18-.2.71-.81.18-.2.17-.21.34-.42a38.82,38.82,0,0,0,2.44-3.41l.53-.88.26-.44.24-.44.48-.89c.15-.3.29-.6.43-.9a36.48,36.48,0,0,0,1.5-3.59c.1-.3.19-.6.29-.9l.15-.45.07-.22.06-.23.25-.89.12-.45.1-.44A36.37,36.37,0,0,0,225,117.4a38.83,38.83,0,0,0-1.08-5.31c-.25-.8-.46-1.57-.73-2.29l-.19-.53-.09-.26-.1-.25-.4-1-.1-.24c0-.07-.07-.15-.1-.23l-.2-.45-.39-.86c-.28-.54-.53-1.06-.78-1.53l-.71-1.29-.63-1-.26-.44-.24-.38-.37-.6c-.19-.33-.27-.51-.23-.54s.18.1.45.38l.47.53.29.34.32.42q.35.44.75,1l.83,1.25c.29.46.58,1,.9,1.51l.45.86.24.45.12.23.11.23.46,1,.12.26.11.26.22.54c.32.73.58,1.51.87,2.32a38.31,38.31,0,0,1,1.33,5.46,36.72,36.72,0,0,1,.48,6.46,37.24,37.24,0,0,1-.81,7.23l-.09.47-.12.47-.24.95-.06.24-.07.23-.14.48c-.1.32-.19.64-.29,1a36.34,36.34,0,0,1-1.5,3.82c-.15.32-.28.64-.44,1l-.49,1-.25.47-.26.47-.54.94a39.85,39.85,0,0,1-2.53,3.66l-.35.45-.18.22-.18.22-.75.87-.19.22-.19.21-.4.42-.4.43c-.13.14-.26.28-.41.42l-.84.81c-.14.14-.28.28-.43.41l-.45.39-.9.79-.94.74c-.63.51-1.3,1-2,1.44-.16.12-.34.23-.51.34l-.52.33c-.35.21-.7.45-1.06.64l-1.09.62-.55.29-.57.28c-.74.39-1.52.72-2.3,1.06a37.6,37.6,0,0,1-10.11,2.62,37.23,37.23,0,0,1-5.4.24,36.36,36.36,0,0,1-5.48-.56c-.23,0-.46-.07-.69-.12l-.68-.15-.69-.15-.34-.07-.34-.09-1.36-.37-1.35-.43c-.45-.13-.89-.32-1.33-.48l-.67-.25c-.22-.08-.44-.19-.66-.28l-.65-.28-.33-.14-.33-.15-1.29-.64a40.6,40.6,0,0,1-4.93-3,43.48,43.48,0,0,1-4.46-3.82,41.45,41.45,0,0,1-3.82-4.46,39.84,39.84,0,0,1-3-4.93l-.63-1.29a2.3,2.3,0,0,1-.15-.32l-.15-.33-.28-.66c-.09-.22-.2-.43-.28-.66l-.25-.66c-.16-.45-.34-.89-.48-1.34l-.43-1.35-.36-1.36-.09-.34c0-.11,0-.23-.08-.34l-.15-.68-.15-.69c-.05-.22-.08-.46-.12-.68a36.6,36.6,0,0,1-.55-5.49,35.87,35.87,0,0,1,.23-5.4,37.9,37.9,0,0,1,2.62-10.1c.35-.78.67-1.57,1.06-2.31l.28-.56c.1-.19.19-.38.3-.56l.61-1.09c.2-.36.43-.7.65-1l.33-.52c.11-.18.21-.35.33-.52.48-.66.93-1.34,1.44-2,.25-.32.49-.64.75-1l.78-.9.39-.45L162,97l.82-.84c.13-.14.27-.28.41-.41l.43-.4.42-.4.21-.19.22-.19.87-.75.22-.18.22-.18.45-.35a39.12,39.12,0,0,1,3.66-2.52l.94-.54.47-.27.48-.25.95-.49.95-.44a40.4,40.4,0,0,1,3.83-1.5l.95-.29.48-.14.23-.07.24-.06.95-.24.47-.11.47-.1a37.24,37.24,0,0,1,7.23-.81,37.1,37.1,0,0,1,11.92,1.82c.81.29,1.6.55,2.32.86l.54.22.26.11.26.12,1,.46.24.11.23.12.45.24.85.45,1.51.9,1.25.84c.37.26.7.52,1,.74l.41.32.35.29.52.48C211.93,93.62,212.06,93.77,212,93.8Z"/><path class="cls-12" d="M36.12,137.18s-.09.28-.38.74q-.21.35-.54.84l-.36.53-.38.63-.93,1.49c-.31.56-.66,1.17-1,1.83s-.73,1.41-1.14,2.18l-.57,1.24-.3.64-.15.33-.14.34-.58,1.41-.15.36-.13.37-.28.77c-.39,1-.71,2.12-1.07,3.26a55.13,55.13,0,0,0-1.6,7.62,52.13,52.13,0,0,0,.9,18.82l.14.64c.06.21.12.43.17.64l.35,1.29.09.33.11.32.2.64.42,1.3a54.14,54.14,0,0,0,2.14,5.19l.3.64c.11.22.2.44.32.65l.69,1.28.34.65.38.63.75,1.27A55.58,55.58,0,0,0,37.19,201l.48.6.25.3.25.29,1,1.18.26.29.27.28.55.57.55.57c.18.19.36.38.56.56l1.16,1.1.59.54.61.53L45,208.84l1.29,1c.85.69,1.77,1.28,2.68,1.92.23.16.46.31.7.45l.71.44.71.44.36.22.37.2,1.48.82c.12.07.24.14.37.2l.38.19.77.37c1,.52,2.07.95,3.13,1.41l.4.16.4.15.82.3.81.31.83.27,1.67.52,1.71.46a49.2,49.2,0,0,0,7,1.26l.89.11.91.06.91.06.45,0c.15,0,.3,0,.46,0l1.83,0h.45l.46,0,.92,0a48.91,48.91,0,0,0,7.4-.78l.46-.08c.15,0,.31-.05.46-.09l.92-.2.92-.2.46-.11.46-.12,1.83-.5,1.81-.59.45-.14c.16,0,.3-.11.45-.17l.9-.34.89-.34a3.52,3.52,0,0,0,.45-.18l.44-.19.88-.39.44-.19.22-.09.22-.11,1.73-.86a53.57,53.57,0,0,0,6.63-4.1,57.16,57.16,0,0,0,6-5.14,58.19,58.19,0,0,0,5.14-6,55.67,55.67,0,0,0,4.11-6.63l.86-1.74.1-.21.1-.22.19-.45.39-.88.19-.44c.06-.15.13-.29.18-.44l.34-.9.34-.89c0-.15.12-.3.16-.45l.15-.46.59-1.81.49-1.83.13-.45c0-.16.07-.31.1-.46l.21-.93.2-.92c0-.15.06-.3.09-.46l.07-.46a48.94,48.94,0,0,0,.79-7.39l0-.92v-.46c0-.08,0-.15,0-.23V169l0-1.83c0-.15,0-.3,0-.45l0-.46-.07-.91-.06-.9c0-.3-.07-.6-.1-.9a48.1,48.1,0,0,0-1.27-7l-.45-1.7c-.17-.56-.35-1.12-.53-1.67-.09-.28-.17-.56-.27-.84l-.3-.81-.3-.81-.16-.41a3.33,3.33,0,0,0-.16-.4c-.46-1-.88-2.12-1.4-3.13l-.38-.76-.18-.39c-.06-.12-.14-.24-.2-.37-.28-.49-.55-1-.82-1.48l-.2-.37-.22-.35-.44-.72-.44-.71c-.15-.23-.29-.47-.45-.69-.64-.91-1.24-1.84-1.92-2.69-.34-.43-.66-.87-1-1.29l-1-1.23-.52-.62-.55-.59c-.37-.38-.73-.77-1.09-1.16-.18-.2-.37-.38-.56-.56l-.57-.55-.57-.55-.28-.27-.3-.25-1.17-1-.29-.26-.3-.24-.61-.48a50.39,50.39,0,0,0-4.92-3.51l-1.28-.76-.63-.37-.64-.35-1.28-.68c-.21-.12-.43-.22-.65-.32l-.65-.31a50.48,50.48,0,0,0-5.18-2.13l-1.3-.42-.65-.21-.32-.1-.32-.09-1.29-.35-.64-.17-.65-.15a52.35,52.35,0,0,0-18.81-.89A54.87,54.87,0,0,0,62.17,120c-1.14.36-2.25.68-3.27,1.08l-.76.27-.38.14-.36.15-1.41.58-.34.14-.33.15-.64.3-1.23.57c-.78.41-1.51.77-2.18,1.13l-1.83,1.05-1.49.92-.63.39-.54.35-.84.55c-.45.28-.7.41-.73.38s.17-.24.57-.6l.77-.65.5-.41.6-.44c.43-.31.9-.67,1.44-1l1.79-1.17c.66-.4,1.39-.81,2.16-1.25l1.22-.64.65-.33a3.41,3.41,0,0,1,.33-.17l.34-.16L57,120.6l.36-.17.38-.15.77-.31c1-.44,2.15-.8,3.31-1.21a54.81,54.81,0,0,1,7.77-1.84,52.3,52.3,0,0,1,9.17-.65A53,53,0,0,1,89,117.46l.67.14.66.16,1.34.34.34.09.34.1.67.21,1.35.41a54.37,54.37,0,0,1,5.42,2.14l.68.31c.22.11.46.2.68.32l1.34.7.67.35.66.38,1.34.77a54.44,54.44,0,0,1,5.17,3.59l.64.5.31.25.31.26,1.23,1.06.31.27.3.28.6.56.6.57c.2.19.4.37.59.58l1.15,1.2c.19.2.39.4.58.61l.55.63,1.11,1.28c.36.44.7.89,1,1.34.73.88,1.36,1.84,2,2.79.17.23.33.48.48.72l.47.74.46.74c.08.13.16.25.23.38l.22.38.87,1.54c.07.13.15.26.21.39l.2.4.4.79c.55,1.06,1,2.17,1.49,3.27a3.69,3.69,0,0,1,.17.42l.16.42.33.85.32.85.29.87c.19.58.38,1.16.56,1.75l.49,1.78a51.36,51.36,0,0,1,1.37,7.36c0,.32.08.63.11.95l.07.94.07.95,0,.48c0,.16,0,.32,0,.48l.05,1.92v1l0,1a52.64,52.64,0,0,1-.8,7.76l-.08.48a3.86,3.86,0,0,1-.09.49l-.21,1-.21,1a4.31,4.31,0,0,1-.11.49l-.12.48-.52,1.92c-.2.63-.41,1.27-.61,1.91l-.16.47c0,.16-.11.32-.17.47l-.35,1-.36.94a4.62,4.62,0,0,1-.19.47l-.2.46-.4.93-.2.46-.1.23-.11.23-.9,1.82a56,56,0,0,1-4.31,7,59.61,59.61,0,0,1-5.4,6.31,58.79,58.79,0,0,1-6.31,5.4,56.3,56.3,0,0,1-7,4.3l-1.82.9-.23.11-.23.1-.47.2-.93.41-.46.2-.47.19-.94.35-.94.36-.47.17-.48.15-1.9.61-1.93.52-.48.13-.48.11-1,.21-1,.21-.48.09-.49.08a51,51,0,0,1-7.76.79l-1,0H77l-1.91-.05-.48,0-.48,0-1-.07-1-.07-.94-.12A52.5,52.5,0,0,1,64,221l-1.78-.49c-.59-.18-1.17-.38-1.75-.57l-.87-.28-.85-.33-.85-.32-.42-.16-.42-.17c-1.1-.49-2.22-.94-3.27-1.5l-.8-.4-.39-.2c-.14-.06-.26-.14-.39-.21l-1.54-.87-.39-.21c-.13-.07-.25-.16-.37-.23l-.74-.47-.74-.47c-.25-.15-.49-.3-.73-.47-.94-.68-1.9-1.31-2.79-2-.44-.36-.9-.7-1.33-1.06l-1.28-1.1-.64-.56c-.21-.18-.4-.38-.61-.57l-1.2-1.16c-.2-.18-.39-.39-.58-.59l-.56-.6-.57-.59-.28-.3-.26-.31-1.06-1.23-.26-.31L36,203l-.5-.63a52.78,52.78,0,0,1-3.59-5.18l-.77-1.33-.38-.66c-.13-.23-.24-.45-.36-.68l-.69-1.34c-.12-.22-.22-.45-.32-.68l-.31-.67a53.86,53.86,0,0,1-2.14-5.42c-.15-.45-.28-.91-.42-1.36l-.2-.67-.1-.33-.09-.34-.34-1.34c-.06-.23-.12-.45-.17-.67l-.14-.67a53.06,53.06,0,0,1-.54-19.43,55.1,55.1,0,0,1,1.85-7.77c.41-1.16.77-2.27,1.21-3.31l.31-.76.15-.38.17-.37.64-1.41.16-.34.16-.33.34-.64q.32-.63.63-1.23c.45-.77.86-1.49,1.26-2.16L33,141.06c.37-.53.72-1,1-1.43l.45-.6.41-.51c.25-.3.47-.56.65-.76C35.89,137.35,36.09,137.16,36.12,137.18Z"/></g><path class="cls-7" d="M373.73,128.51c-.13.06-.5-.44-1.07-1.38-.27-.47-.63-1-1-1.7s-.87-1.4-1.38-2.23c-1-1.63-2.32-3.54-3.87-5.57a67.43,67.43,0,0,0-5.43-6.26c-.51-.53-1-1-1.55-1.53-.13-.13-.25-.25-.39-.37l-.39-.36-.77-.71c-.52-.46-1-.91-1.54-1.34l-.76-.64-.75-.61c-.24-.2-.5-.39-.74-.58l-.73-.56c-.48-.36-.95-.72-1.41-1-.92-.67-1.8-1.26-2.61-1.79-3.23-2.13-5.39-3.21-5.29-3.47s2.5.38,6,2.25c.87.47,1.82,1,2.8,1.63.5.31,1,.65,1.52,1l.78.55c.26.18.53.37.79.57l.8.6c.27.2.53.42.8.63.54.42,1.08.88,1.62,1.35.28.23.54.47.81.72l.41.36.41.38c.53.51,1.08,1,1.6,1.58a53,53,0,0,1,5.49,6.57,50.64,50.64,0,0,1,3.62,6c.44.89.84,1.69,1.14,2.42s.57,1.35.74,1.88C373.72,127.85,373.86,128.45,373.73,128.51Z"/><path class="cls-7" d="M373.56,119.58c-.13,0-.4-.26-.79-.86-.1-.15-.2-.31-.31-.5l-.38-.59c-.26-.42-.54-.91-.89-1.43l-.52-.83c-.18-.29-.39-.58-.59-.88l-.3-.47a1.88,1.88,0,0,1-.16-.23l-.17-.24-.7-1c-1-1.32-2.1-2.72-3.36-4.12s-2.57-2.64-3.79-3.74l-.91-.78-.21-.19a1.81,1.81,0,0,0-.23-.18l-.43-.36c-.28-.22-.55-.46-.82-.66l-.77-.6c-.49-.4-1-.72-1.35-1l-.55-.43-.47-.36c-.56-.44-.84-.74-.78-.86s.47-.06,1.16.18l.56.21c.21.08.42.19.66.3.46.22,1,.46,1.55.79l.88.52c.3.18.6.39.92.6l.48.32a2.2,2.2,0,0,1,.25.17l.24.18,1,.75a33.85,33.85,0,0,1,7.49,8.23l.66,1.07.16.26a2.15,2.15,0,0,1,.14.26l.28.51c.18.34.36.66.51,1l.43.92c.27.58.47,1.14.65,1.62.08.24.17.46.23.68l.16.58C373.66,119.12,373.69,119.53,373.56,119.58Z"/><path class="cls-7" d="M288.6,28.5c-.08.07-.47-.18-1.1-.69l-1.16-.92c-.44-.37-1-.76-1.53-1.2-1.15-.88-2.53-1.89-4.14-2.91a51.76,51.76,0,0,0-5.4-3c-.49-.24-1-.45-1.47-.67l-.37-.16-.36-.15-.72-.3c-.48-.19-1-.38-1.42-.54-.23-.09-.46-.18-.69-.25l-.69-.24-.66-.21-.66-.21L267,16.7c-.82-.23-1.58-.42-2.28-.59-2.81-.66-4.59-.85-4.59-1.06s1.85-.38,4.78,0c.73.1,1.53.23,2.38.42.43.08.86.2,1.32.3l.68.18.7.2.71.21.72.24c.49.16,1,.34,1.48.53l.75.29.38.15.38.16c.5.23,1,.44,1.52.69a39.7,39.7,0,0,1,5.52,3.19,37.6,37.6,0,0,1,4.06,3.24c.54.51,1,1,1.42,1.4a14,14,0,0,1,1,1.12C288.42,28,288.67,28.43,288.6,28.5Z"/><path class="cls-7" d="M286.19,22.3c-.08.07-.35-.07-.77-.39l-.35-.27-.41-.32c-.3-.22-.61-.5-1-.77l-.58-.45-.63-.46-.34-.25-.17-.12-.18-.12-.74-.5c-1-.67-2.16-1.37-3.4-2A39.54,39.54,0,0,0,274,15l-.83-.32-.2-.08-.2-.07-.39-.13-.75-.26-.69-.21c-.44-.16-.85-.26-1.21-.37l-.49-.16-.42-.13c-.5-.16-.78-.31-.77-.41s.32-.15.86-.16h.45c.16,0,.34,0,.53,0a11.59,11.59,0,0,1,1.29.16l.74.13.8.18.42.1.22.06.22.06.89.27a28.64,28.64,0,0,1,3.83,1.61,26.85,26.85,0,0,1,3.51,2.22l.73.58.18.14.17.15.32.28.61.55.53.54a11.63,11.63,0,0,1,.87,1c.13.14.24.28.34.41s.18.25.26.37C286.14,22,286.27,22.24,286.19,22.3Z"/><path class="cls-7" d="M5.42,210.81c.13,0,.48.47,1,1.43.25.49.58,1.07.94,1.76s.79,1.44,1.26,2.29c1,1.69,2.14,3.67,3.58,5.77a70.47,70.47,0,0,0,5.1,6.53c.48.56,1,1.08,1.47,1.61l.37.39.37.38c.24.25.48.51.73.75.5.48,1,1,1.47,1.42l.72.67.72.65c.24.22.48.42.71.62l.7.6c.47.38.91.77,1.36,1.12.88.71,1.73,1.35,2.51,1.92,3.12,2.3,5.22,3.49,5.11,3.74s-2.49-.5-5.9-2.55c-.85-.52-1.77-1.1-2.72-1.78-.48-.33-1-.7-1.46-1.07l-.75-.58-.76-.61-.77-.64-.76-.68c-.53-.45-1-.94-1.55-1.43-.27-.24-.52-.5-.78-.76l-.38-.39c-.14-.12-.26-.26-.39-.39-.51-.54-1-1.08-1.52-1.66a54,54,0,0,1-5.14-6.84,50.55,50.55,0,0,1-3.31-6.15c-.39-.91-.75-1.73-1-2.47s-.5-1.38-.64-1.92C5.4,211.47,5.29,210.86,5.42,210.81Z"/><path class="cls-7" d="M5.13,219.74c.13,0,.39.28.75.9.09.15.18.33.28.52l.34.6c.25.44.5,1,.82,1.48l.48.86c.16.29.35.59.54.91l.28.48.15.24.16.24.64,1c.91,1.37,2,2.83,3.15,4.29s2.43,2.77,3.59,3.93l.86.83.21.2.21.19.41.38c.28.24.53.49.79.71l.74.63c.47.42.92.76,1.29,1.09l.53.46c.17.13.32.26.45.38.54.47.81.79.74.91s-.48,0-1.15-.25l-.55-.24c-.2-.09-.41-.21-.64-.33a17.4,17.4,0,0,1-1.51-.88l-.85-.55c-.29-.2-.58-.42-.89-.65l-.47-.35a2,2,0,0,1-.23-.18l-.24-.19-1-.8a37.26,37.26,0,0,1-3.88-4A35.23,35.23,0,0,1,8,228c-.21-.38-.41-.74-.6-1.1l-.15-.27-.13-.26-.25-.53c-.16-.35-.32-.67-.46-1L6,223.84c-.24-.59-.41-1.16-.56-1.65-.08-.24-.15-.47-.2-.68s-.09-.42-.12-.6C5,220.2,5,219.79,5.13,219.74Z"/><path class="cls-8" d="M167.29,182.53a24.26,24.26,0,0,1-.19,3.21c0,.18,0,.36-.07.55s0,.21,0,.31c-.05.29-.11.58-.16.87s-.05.3-.09.45-.07.3-.1.45-.15.6-.23.9l-.27.91c0,.15-.09.31-.15.46s-.11.3-.17.46-.11.3-.17.46-.11.31-.18.46-.27.61-.4.92l-.17.35-.18.34-.35.69c-.06.12-.13.22-.19.33l-.2.33-.39.65a2.43,2.43,0,0,1-2.55,1.14,2.29,2.29,0,0,1-1-.46l-.14-.1a15.16,15.16,0,0,1-1.32-1l-.21-.19c-.45-.41-.85-.83-1.22-1.24a19.36,19.36,0,0,1-1.91-2.47,21,21,0,0,1-1.36-2.38c-.18-.38-.35-.76-.5-1.13s-.27-.72-.37-1.07-.2-.69-.27-1-.11-.64-.15-.93a5.87,5.87,0,0,1,0-1.58,2.42,2.42,0,0,1,.39-1.08,1.16,1.16,0,0,1,.67-.5,1.34,1.34,0,0,1,.83.07,3.1,3.1,0,0,1,.91.53,9.34,9.34,0,0,1,1,.94c.18.19.36.4.53.62s.38.46.56.71l.59.8c.2.27.41.56.62.87s.59.86.89,1.31l.43.62c.39.58.81,1.18,1.24,1.77l.17-.3c.07-.12.13-.24.2-.35s.14-.24.2-.36.13-.24.19-.35l.37-.72.33-.71c.05-.12.11-.24.17-.36l.14-.36c.1-.24.2-.47.29-.71s.18-.47.26-.7a25.11,25.11,0,0,0,.82-2.72c.11-.44.19-.86.28-1.27s.14-.82.21-1.2.1-.75.14-1.09a4.87,4.87,0,0,0,.05-.51c0-.17,0-.33.05-.49s0-.3,0-.45,0-.28,0-.42,0-.51.05-.74a9.84,9.84,0,0,1,.08-1c0-.25.1-.39.19-.41s.18.09.31.31a7.25,7.25,0,0,1,.44,1c.07.22.15.47.23.74s.08.28.13.43.07.3.11.47.07.33.11.5.08.35.11.54c.06.37.13.77.18,1.19s.09.86.13,1.32S167.29,182,167.29,182.53Z"/><path class="cls-2" d="M167,186.29c0,.1,0,.21,0,.31-.05.29-.11.58-.16.87s-.05.3-.09.45-.07.3-.1.45-.15.6-.23.9l-.27.91c0,.15-.09.31-.15.46s-.11.3-.17.46-.11.3-.17.46-.11.31-.18.46-.27.61-.4.92l-.17.35-.18.34-.35.69c-.06.12-.13.22-.19.33l-.2.33-.39.65a2.43,2.43,0,0,1-2.55,1.14c2.75-2.33,4.78-16.77,4.78-16.77Z"/><path class="cls-5" d="M139.11,259.5a10.65,10.65,0,0,0-1.65,6.07,36.57,36.57,0,0,0,6.45.07,5,5,0,0,0-.52-3,5.6,5.6,0,0,1-.53-3C141.65,259.55,140.33,259.46,139.11,259.5Z"/><path class="cls-5" d="M152.36,258.45a14.46,14.46,0,0,1-.32,6.7,27,27,0,0,0,9.23.37,1.46,1.46,0,0,0-.16-1.72,3,3,0,0,0-1.52-.9,11,11,0,0,1-1.71-.56,3.4,3.4,0,0,1-1.82-3.41A6.41,6.41,0,0,0,152.36,258.45Z"/><path class="cls-13" d="M157.34,258.92a1.29,1.29,0,0,1-1.19,1.11c-1.08.09-2.16.15-3.27.2a1.25,1.25,0,0,1-.58-.11,1.31,1.31,0,0,1-.77-1.32,162.22,162.22,0,0,0-.45-33.62c-.35-3.07-.76-5.88-1.17-8.36q-.3,4.41-.65,8.33c-1.61,18.27-3.92,28.6-5.56,34a1.3,1.3,0,0,1-1.33.92c-1.07-.07-2.12-.15-3.16-.26a1.3,1.3,0,0,1-1.16-1.46c1.71-13.63,2.46-24.5,2.71-32.9,0-1.75.08-3.39.09-4.93q0-2.56,0-4.74,0-.66,0-1.29t0-1.14c0-1.13-.08-2.17-.14-3.12,0-.16,0-.32,0-.47s0-.38,0-.56,0-.23,0-.35c0-.52-.07-1-.11-1.46,0,0,0-.11,0-.16,0-.29,0-.56-.07-.82-.12-1.22-.23-2.17-.32-2.86l9.94.21,6.47.14c0,.26.09.53.13.79a1.13,1.13,0,0,1,0,.18c.09.49.17,1,.25,1.48.17,1.07.33,2.14.48,3.2v0c.1.7.19,1.38.28,2.07h0c.1.79.2,1.58.29,2.37,0,.15,0,.31,0,.47s0,.23,0,.35c.07.71.15,1.42.22,2.13.1,1.07.19,2.13.28,3.17.15,1.88.26,3.71.35,5.51A176.08,176.08,0,0,1,157.34,258.92Z"/><path class="cls-13" d="M152.3,260.12a1.29,1.29,0,0,1-.77-1.32,162.22,162.22,0,0,0-.45-33.62c-.35-3.07-.76-5.88-1.17-8.36l2.81-.7S155.86,242,152.3,260.12Z"/><path class="cls-6" d="M158,214.52a39.5,39.5,0,0,0-17.35-4.73c0-.19,0-.38,0-.56s0-.23,0-.35c0-.52-.07-1-.11-1.46,0,0,0-.11,0-.16,0-.29,0-.56-.07-.82-.12-1.22-.23-2.17-.32-2.86l9.94.21,6.47.14c0,.26.09.53.13.79a1.13,1.13,0,0,1,0,.18c.09.49.17,1,.25,1.48.17,1.07.33,2.14.48,3.2v0c.1.7.19,1.38.28,2.07h0c.1.79.2,1.58.29,2.37C157.91,214.2,157.93,214.36,158,214.52Z"/><path class="cls-2" d="M152.59,183.19a5.87,5.87,0,0,0,0,1.58q.06.43.15.93c.07.32.16.66.27,1s.23.7.37,1.07.32.75.5,1.14a20.3,20.3,0,0,0,1.36,2.37,19.36,19.36,0,0,0,1.91,2.47c.37.41.77.83,1.22,1.24l.21.19a9.06,9.06,0,0,1-.45-2.83,9.24,9.24,0,0,1,1.46-4.9c-.3-.45-.6-.9-.9-1.31s-.41-.6-.61-.87l-.59-.8c-.18-.25-.37-.49-.56-.71s-.35-.43-.53-.62a8.42,8.42,0,0,0-1-.94,3.1,3.1,0,0,0-.91-.53,1.34,1.34,0,0,0-.83-.07,1.16,1.16,0,0,0-.67.5A2.42,2.42,0,0,0,152.59,183.19Z"/><polygon class="cls-14" points="145.13 177.24 146.1 176.87 145.74 178.78 145.13 177.24"/><path class="cls-6" d="M156.73,203.33c.27,1.72.6,3.5,1,5.31-1.38.17-2.76.3-4.15.38a66.25,66.25,0,0,1-13.57-.55c0-.7,0-1.49-.06-2.36-.1-3.15-.28-7.24-.52-10.89-.16-2.36-.35-4.53-.57-6.14,0-.31-.09-.63-.12-1L136.06,190a8.42,8.42,0,0,1-3.17-5.59,43.19,43.19,0,0,1,4.13-2.69h0a23.76,23.76,0,0,1,8.21-3.15h0l.05,0,2.86-1.15c1.1.56,2.34,1.12,3.57,1.68l.82.37c.45.21,1.17.55,1.77.85a4.66,4.66,0,0,1,2,1.73h0l3,4.67a8.08,8.08,0,0,1-3.84,4.77c.15,2.71.41,5.83.87,9.2l.12.9Q156.58,202.45,156.73,203.33Z"/><path class="cls-8" d="M142.29,201.5a4.61,4.61,0,0,1-.78,1.45c-.15.19-.34.39-.55.35s-.41-.44-.53-.74a2,2,0,0,0-1.7-1.32,2.44,2.44,0,0,1-.81-.05.5.5,0,0,1-.17-.1l-.48,0c-.26,0-.53,0-.82-.08s-.61-.08-.93-.14l-.5-.09-.52-.11c-.35-.07-.72-.17-1.1-.26l-1.18-.34c-.4-.14-.82-.27-1.24-.43s-.86-.33-1.3-.51-.89-.39-1.34-.61a26.56,26.56,0,0,1-2.75-1.56,2.23,2.23,0,0,1-1-1.87,2.19,2.19,0,0,1,.33-1.15l.2-.33.48-.8.25-.41.26-.39.27-.4c.09-.13.18-.27.28-.4l.58-.78c.14-.19.29-.38.44-.56a25.76,25.76,0,0,1,2-2.33c.42-.45.87-.85,1.3-1.26s.88-.77,1.31-1.13l.62-.47a8.34,8.34,0,0,0,3,5.25l-.55.46-.44.37c-.38.34-.78.67-1.17,1-.55.48-1.1,1-1.64,1.51l-.76.73-.59.6a1.8,1.8,0,0,0-.19.2l0,0c.67.55,1.35,1.05,2,1.5.33.23.66.44,1,.64s.63.41.94.58.61.37.9.52l.43.25c.14.07.28.14.41.22l.77.41.7.36.26.13a3.29,3.29,0,0,1,3.16-.39,1.82,1.82,0,0,1,1,.79A2.28,2.28,0,0,1,142.29,201.5Z"/><path class="cls-15" d="M142.73,169.19c.42,1.26.85,2.51,1.28,3.76a4.22,4.22,0,0,0,1.41,2.33,2.16,2.16,0,0,0,2.4-.06,8.18,8.18,0,0,1-2.5-3.37,8.91,8.91,0,0,0-.8-1.84A1.91,1.91,0,0,0,142.73,169.19Z"/><path class="cls-8" d="M151,179.23a13.52,13.52,0,0,1-5.73.19,7.88,7.88,0,0,0,.54-3.06.08.08,0,0,0,0,0,8.59,8.59,0,0,0-.15-1.34,8.14,8.14,0,0,0-.41-1.44,9.25,9.25,0,0,0-.69-1.37,9.74,9.74,0,0,1,1.08,0,5.89,5.89,0,0,1,4.66,2.21,11.4,11.4,0,0,0,0,1.31c0,.19,0,.38,0,.57s0,.5.09.74a2,2,0,0,0,0,.26q0,.3.12.6A11.93,11.93,0,0,0,151,179.23Z"/><path class="cls-2" d="M150.36,177a2,2,0,0,0,0,.26c-4.18.15-5.27-4.86-5.27-4.86l.48-.23a5.89,5.89,0,0,1,4.66,2.21,11.4,11.4,0,0,0,0,1.31c0,.19,0,.38,0,.57S150.32,176.73,150.36,177Z"/><path class="cls-15" d="M150.43,165.79a4.75,4.75,0,0,1-.08,3.89l-.62-2.74a1.4,1.4,0,0,1,.13-1.25.41.41,0,0,1,.35-.15C150.34,165.56,150.49,165.67,150.43,165.79Z"/><path class="cls-8" d="M150,165.4a8.67,8.67,0,0,0,1.22,5.35c.55.91,1.3,1.8,1.27,2.85a2.7,2.7,0,0,1-2.91,2.34,5.05,5.05,0,0,1-3.48-2.07,9.53,9.53,0,0,1-2.07-7.13A10.55,10.55,0,0,1,150,165.4Z"/><path class="cls-16" d="M150,172.62a2.84,2.84,0,0,0,1.13-.37.12.12,0,0,1,.18.09.79.79,0,0,1-.16.61.9.9,0,0,1-.79.29c-.22,0-.35-.23-.46-.44A.13.13,0,0,1,150,172.62Z"/><path class="cls-15" d="M144.48,171.25a3.94,3.94,0,0,0,.08-4,11.44,11.44,0,0,0,4.2-.37,3.7,3.7,0,0,0,2.07-1.18,2.2,2.2,0,0,0-.56-3.19,1.64,1.64,0,0,0-1.73-.1c-.46.3-.68.85-1,1.26a4.54,4.54,0,0,1-2.64,1.14,4.34,4.34,0,0,0-2.63,1.17,2.54,2.54,0,0,0-.5,2,3.47,3.47,0,0,0,1,1.84A5,5,0,0,0,144.48,171.25Z"/><path class="cls-7" d="M145.13,177.24a4.28,4.28,0,0,0,4,2.31L148,182.23a6.76,6.76,0,0,1-3.84-3.48Z"/><path class="cls-7" d="M149.17,179.55a2.1,2.1,0,0,0,1.35-1.72l1.21,1.24s.06,2.21-.77,2.94Z"/><path class="cls-5" d="M144.47,170.57h0v0l0,0h.06l0,0,.13-.08.12-.08.24-.14h0l.06,0,.09,0a2.15,2.15,0,0,1,.32-.13l.08,0h0L146,170l.35,0h.07a1.24,1.24,0,0,0,.48.65,1.08,1.08,0,0,0,.79.2l.18,0a.85.85,0,0,0,.22-.09,1.05,1.05,0,0,0,.5-1.09,1.12,1.12,0,0,0-.14-.4.84.84,0,0,0-.15-.18.82.82,0,0,1,.19-.09h0l.28,0a1,1,0,0,0,0,.3,1.26,1.26,0,0,0,.46.7,1.11,1.11,0,0,0,.78.22.85.85,0,0,0,.23,0l.17-.07a.93.93,0,0,0,.33-.26v0a1,1,0,0,0,.21-.78.94.94,0,0,0-.13-.41,1,1,0,0,0-.28-.33l-.12-.08h0a.82.82,0,0,0-.26-.1l-.14,0h-.29l-.2,0a.7.7,0,0,0-.2.08h0a1.1,1.1,0,0,0-.35.26.79.79,0,0,0-.18.29.94.94,0,0,0-.41,0h0a.84.84,0,0,0-.31.19,1,1,0,0,0-.35-.14,1.25,1.25,0,0,0-.43,0l-.15,0a1.28,1.28,0,0,0-.59.38.93.93,0,0,0-.19.4,1,1,0,0,0,0,.25h-.42l-.23,0h0l-.16,0-.08,0a2.48,2.48,0,0,0-.44.2,1.56,1.56,0,0,0-.31.23.82.82,0,0,0-.22.26h0Zm4.55-1.74s0,0,0-.05a.08.08,0,0,1,0,0,.51.51,0,0,1,.15-.23s0,0,.05-.06l.07,0,0,0,0,0,.08,0h0l.16-.06.16,0a.92.92,0,0,1,.33,0h0a.91.91,0,0,1,.25.11h0l0,0a.76.76,0,0,1,.23.24,1,1,0,0,1,.11.32.86.86,0,0,1-.09.55h0l-.06.1a.87.87,0,0,1-.43.3l-.16,0a1,1,0,0,1-1-.8A1.31,1.31,0,0,1,149,168.83Zm-2.41.7a.76.76,0,0,1,.15-.28v0l0,0,.06-.06,0,0,0,0,.07,0,.21-.09.11,0a1,1,0,0,1,.34,0,.78.78,0,0,1,.3.13l.09.06a.79.79,0,0,1,.14.17.85.85,0,0,1-.45,1.3l-.12,0a1,1,0,0,1-1-.74v0a.43.43,0,0,1,0,0A.8.8,0,0,1,146.61,169.53Z"/><path class="cls-8" d="M144.59,170.47a.57.57,0,0,0-.52-.53.77.77,0,0,0-.68.38,1.11,1.11,0,0,0-.08.8,2.11,2.11,0,0,0,.39.72,1.86,1.86,0,0,0,1,.69,1,1,0,0,0,1.07-.39C145.22,171.66,144.59,171.19,144.59,170.47Z"/><path class="cls-17" d="M173.47,259.1c.09-2.67.88-62.61-.57-86.23a12.84,12.84,0,0,0,2.94-24.07l-.4,12.26-10.54-.34.4-12.26a12.83,12.83,0,0,0,1.37,24.21c-3,23.48-6.85,83.31-6.94,86a6.87,6.87,0,1,0,13.74.45Zm-9.43-.83a2.66,2.66,0,1,1,3,2.28A2.67,2.67,0,0,1,164,258.27Z"/><path class="cls-8" d="M165.24,176.74a3,3,0,0,1-.3-1.81,1.67,1.67,0,0,1,1.18-1.31.55.55,0,0,1,.36,0,.52.52,0,0,1,.19.7,1.49,1.49,0,0,1-.58.56,1.43,1.43,0,0,1,.63,1.39,1.39,1.39,0,0,1-1,1.13.49.49,0,0,1-.24,0,.38.38,0,0,1-.23-.3A1,1,0,0,1,165.24,176.74Z"/><path class="cls-12" d="M166.38,172.51l-.37-.14-.49-.21-.6-.28-.69-.36a15.35,15.35,0,0,1-1.61-1,12.87,12.87,0,0,1-3.29-3.65,11.41,11.41,0,0,1-1.18-2.65,13.69,13.69,0,0,1-.55-3.06,13.27,13.27,0,0,1,.21-3.11,12.38,12.38,0,0,1,.88-2.76,13.32,13.32,0,0,1,2.87-4A14.35,14.35,0,0,1,163,150l.65-.44.57-.34.46-.26.35-.18c.18-.1.28-.17.27-.19s-.12,0-.32.07l-.38.12-.5.21-.6.3c-.22.12-.46.25-.7.4a13.75,13.75,0,0,0-1.59,1.18,13,13,0,0,0-3.1,4.08,12.35,12.35,0,0,0-1,2.9,13.08,13.08,0,0,0,.36,6.49,12.1,12.1,0,0,0,1.27,2.77,12.92,12.92,0,0,0,3.54,3.71,15.33,15.33,0,0,0,1.71,1l.74.32.63.23.52.15.39.09q.32.06.33,0S166.57,172.59,166.38,172.51Z"/><path class="cls-12" d="M183.13,159.23a10.34,10.34,0,0,0-.42-2.85,11.31,11.31,0,0,0-.72-1.87,12.33,12.33,0,0,0-1.22-2,14.77,14.77,0,0,0-3.88-3.53c-.3-.18-.58-.35-.9-.51l-.46-.23v.51c-.11,3.43-.17,6.5-.18,8.71a20.51,20.51,0,0,0,.1,3.56,19.37,19.37,0,0,0,.34-3.55c.13-2.09.26-4.95.37-8.17l.39.24a14.92,14.92,0,0,1,3.75,3.34,12.11,12.11,0,0,1,1.21,1.84,11.37,11.37,0,0,1,.77,1.76,12.44,12.44,0,0,1,.6,2.73c0,.33.06.58.08.76s.05.27.07.27,0-.09.07-.27S183.13,159.57,183.13,159.23Z"/><path class="cls-12" d="M151,163.31s-.1-.19-.35-.46a1.65,1.65,0,0,0-.54-.37,1.59,1.59,0,0,0-.83-.11,1.57,1.57,0,0,0-.47.13,2.08,2.08,0,0,0-.43.3,9.24,9.24,0,0,0-.81,1,3.23,3.23,0,0,1-.53.51l-.15.11a.91.91,0,0,1-.17.09,2.26,2.26,0,0,1-.35.17,7.65,7.65,0,0,1-1.52.36,7.49,7.49,0,0,0-1.43.34,2.39,2.39,0,0,0-.59.32,1.88,1.88,0,0,0-.44.45,2.41,2.41,0,0,0-.4,1.1,2.55,2.55,0,0,0,.08,1,4.18,4.18,0,0,0,.7,1.38c.23.3.37.45.35.47s-.2-.1-.47-.37a3.72,3.72,0,0,1-.85-1.41,2.8,2.8,0,0,1-.14-1.15,2.67,2.67,0,0,1,.43-1.27,2.52,2.52,0,0,1,1.18-.92,8,8,0,0,1,1.52-.37,6.9,6.9,0,0,0,1.44-.33l.31-.14.14-.08.14-.09a2.85,2.85,0,0,0,.47-.45,9.91,9.91,0,0,1,.87-1,2,2,0,0,1,.53-.33,1.65,1.65,0,0,1,.56-.14,1.8,1.8,0,0,1,1,.19,1.82,1.82,0,0,1,.56.47,1.29,1.29,0,0,1,.21.4C151,163.25,151,163.3,151,163.31Z"/><path class="cls-12" d="M144.2,178.75s-.15.1-.46.21l-.55.19-.72.27a38.86,38.86,0,0,0-4.09,1.82c-1.55.79-2.91,1.61-3.89,2.21a12.16,12.16,0,0,1-1.6,1,7.24,7.24,0,0,1,1.45-1.19,32.64,32.64,0,0,1,3.86-2.33,26,26,0,0,1,4.18-1.72l.75-.22.57-.13C144,178.75,144.2,178.72,144.2,178.75Z"/><path class="cls-2" d="M135.94,189.9l-.55.46-.44.37c-.38.34-.78.67-1.17,1-.55.48-1.1,1-1.64,1.51l-.76.73-.59.6c4.65-5.26,1.52-9.48,1.52-9.48l.62-.47A8.34,8.34,0,0,0,135.94,189.9Z"/><path class="cls-2" d="M392.68,181.89a1.67,1.67,0,0,1-.08.2h-.38c-.14,0-.29,0-.43,0l-.43,0-.9-.06-.92-.12-.47-.07a4.4,4.4,0,0,1-.47-.1l-1-.21-1-.29-.49-.16-.49-.18-.49-.2a5,5,0,0,1-.49-.2l-1-.47-.48-.26-.48-.28-.48-.28-.47-.32-.47-.31-.23-.17-.23-.17-.9-.72-.95-.88a2.26,2.26,0,0,1-.64-2.19c.28-1.15.68-2.77.79-3.51l.12-.91c0-.3.05-.6.08-.9a8.65,8.65,0,0,0,.05-.88c0-.29,0-.58,0-.87s0-.57,0-.84,0-.56,0-.83,0-.27,0-.4,0-.27,0-.4,0-.52-.06-.78-.06-.5-.09-.75-.05-.49-.1-.73-.07-.46-.11-.69l-.06-.34a3,3,0,0,0-.07-.32c-.08-.44-.16-.85-.26-1.24s-.13-.55-.2-.81a2.29,2.29,0,0,0-.08-.28c-.09-.35-.18-.67-.26-1s-.16-.56-.23-.81l-.09-.35,0-.11a4.11,4.11,0,0,1,.68.21,3.63,3.63,0,0,1,1.29.9l.26.46c.19.32.36.69.55,1.08l.14.28c.14.31.27.64.41,1,.05.11.09.22.14.34l.12.35c.08.24.17.48.25.73s.16.51.23.77.15.54.22.81.13.56.19.85l.09.44c0,.15.05.3.08.45,0,.3.1.6.14.91s.07.63.1,1,.05.65.07,1,0,.67,0,1v1l-.06,1.05a25.8,25.8,0,0,1-.39,2.94.37.37,0,0,1,.05.11l.81.47.2.11.2.11.41.2.4.21.41.18.41.18.41.17.81.3.4.13.4.13.4.13.39.1.78.21.77.16.37.08.37.06.73.13.71.09.34.05.34,0c.36,0,.7.08,1,.1A9.78,9.78,0,0,1,392.68,181.89Z"/><path class="cls-2" d="M380.73,160a1.33,1.33,0,0,1-1,.25,1.45,1.45,0,0,0-1.19-1l-.09,0c-.5-.09-1-.05-1.51-.13a3.38,3.38,0,0,1-2.26-1.67,3.89,3.89,0,0,1,3.08-.71,4.11,4.11,0,0,1,.68.21,3.63,3.63,0,0,1,1.29.9,3.85,3.85,0,0,1,.95,1.82C380.7,159.76,380.72,159.86,380.73,160Z"/><path class="cls-4" d="M391.54,177.41l-1.29,5-4.69-1.25c0-.15,0-.29,0-.44a6.23,6.23,0,0,1,1.61-4.3Z"/><path class="cls-18" d="M399.4,163.59a6.09,6.09,0,0,1,3.2,5,5.33,5.33,0,0,1-2.89,4.85,3.34,3.34,0,0,1,.51,3.78,3.93,3.93,0,0,1-3.37,2,4.35,4.35,0,0,1-3.92-2.11,2.9,2.9,0,0,1,1-3.88,10.35,10.35,0,0,1-1.47-5.23,5.86,5.86,0,0,1,1.84-4.38C395.52,162.53,397.86,162.75,399.4,163.59Z"/><path class="cls-5" d="M408.67,259.62a2.38,2.38,0,0,1-1.07,2.4,18.8,18.8,0,0,1-2.48,1.29,3.21,3.21,0,0,0-1.8,2,20.83,20.83,0,0,0,9-.13,14.78,14.78,0,0,0-.87-6.17C410.39,258.71,409.74,259.63,408.67,259.62Z"/><path class="cls-5" d="M371.48,259.62a2.38,2.38,0,0,1-1.07,2.4,17.63,17.63,0,0,1-2.48,1.29,3.23,3.23,0,0,0-1.8,2,20.87,20.87,0,0,0,9-.13,15,15,0,0,0-.87-6.17C373.21,258.71,372.55,259.63,371.48,259.62Z"/><path class="cls-6" d="M370.8,260.3h4.48c-1.33-26,14.25-47.6,14.44-47.87h0c.11.43,7.74,29.16,18.52,48.07a13.27,13.27,0,0,0,3.85-1.7,200,200,0,0,1-12.15-45.52c0-.18-.05-.36-.08-.55a40.16,40.16,0,0,0-2.28-10,17,17,0,0,0-1.11-2.17l-2.19-4-1.38,0-2.18.05-4.61.11h0S370.3,220.5,370.8,260.3Z"/><path class="cls-8" d="M397.73,169.85a20,20,0,0,0-.57,2.43h0c0,.25-.08.49-.11.73l0,.16a22.39,22.39,0,0,0-.18,2.59v.58h0c0,.17,0,.34,0,.5a19.83,19.83,0,0,0,.19,2.18,4.33,4.33,0,0,1-2.67,1.14,4.66,4.66,0,0,1-2.89-.86,20,20,0,0,0,1.52-3.58v0c.05-.15.09-.31.14-.47s.12-.43.17-.65c0,0,0-.05,0-.07.07-.29.13-.57.19-.86a2,2,0,0,0,0-.24c.09-.5.17-1,.23-1.5A11.55,11.55,0,0,1,397.73,169.85Z"/><path class="cls-4" d="M400.11,182.68a7.93,7.93,0,0,1-1.06,3.54h0l-.16.23c-.49.69-1,1.38-1.49,2.09a20.57,20.57,0,0,0-3.12,8.11,18.58,18.58,0,0,1-8.17.2h0l0-.1,0-.13c-.32-1.46-1.86-9.14.58-14.51.16-.35.34-.7.53-1l0-.05a8.29,8.29,0,0,1,4.3-3.62h0a7.2,7.2,0,0,1,1-.12c1.32,0,2.45-.37,3.76-.3h.07a2.74,2.74,0,0,1,.57.11,3.18,3.18,0,0,1,1.54,1A6.54,6.54,0,0,1,400.11,182.68Z"/><path class="cls-4" d="M394.28,196.66a18.58,18.58,0,0,1-8.17.2h0l0-.1,0-.13c-.32-1.46-1.86-9.14.58-14.51l5.87,1.67S378.24,196.89,394.28,196.66Z"/><path class="cls-2" d="M397.73,169.85a20,20,0,0,0-.57,2.43h0c0,.25-.08.49-.11.73l0,.16a22.39,22.39,0,0,0-.18,2.59,6.91,6.91,0,0,0-3.51-1.18s0-.05,0-.07c.07-.29.13-.57.19-.86a2,2,0,0,0,0-.24c.09-.5.17-1,.23-1.5A11.55,11.55,0,0,1,397.73,169.85Z"/><path class="cls-8" d="M397.39,172.06c-.2.27-.4.55-.57.83-.06.11-.12.22-.17.33l-.15.11a4.78,4.78,0,0,1-2.93.95,2.61,2.61,0,0,1-2.37-1.74,3.1,3.1,0,0,1,.76-2.67c.61-.76,1.38-1.35,2-2.08a4.47,4.47,0,0,0,.78-1.24,2.71,2.71,0,0,0,.22-1.15,4.8,4.8,0,0,0,.8,1.16c.54.6,1.16,1.12,1.65,1.76a3,3,0,0,1,.7,2.25A3.71,3.71,0,0,1,397.39,172.06Z"/><path class="cls-9" d="M393.6,171.33a3.09,3.09,0,0,1-1.14-.62.13.13,0,0,0-.21.06.81.81,0,0,0,.06.68,1,1,0,0,0,.78.47c.25,0,.42-.17.58-.38A.14.14,0,0,0,393.6,171.33Z"/><path class="cls-8" d="M397.56,171.57c.12-.16.29-.33.49-.3a.51.51,0,0,1,.37.43,1.29,1.29,0,0,1-.54,1.35,1.32,1.32,0,0,1-1.46-.05C396.77,172.52,397.21,172.05,397.56,171.57Z"/><path class="cls-8" d="M391.64,178.42a1.6,1.6,0,0,0,1.44.48,6,6,0,0,0,3.9-1.79,2.87,2.87,0,0,0-.57-.11h-.07c-1.31-.07-2.44.26-3.76.3a6,6,0,0,0-1,.12A1.15,1.15,0,0,0,391.64,178.42Z"/><path class="cls-6" d="M375.28,260.3c-1.33-26,14.25-47.6,14.44-47.87l-2.93-2.52S371.05,235.39,375.28,260.3Z"/><path class="cls-8" d="M392.5,183.78c-.42,0-.85,0-1.3.06h-.43l-.44,0-.89,0-.92-.13-.47-.07-.47-.09-1-.22-.47-.14-.5-.15-.49-.16-.49-.18-.49-.19c-.16-.07-.33-.13-.49-.21l-1-.47c-.16-.07-.32-.17-.48-.26l-.48-.28-.48-.28-.47-.31-.47-.32-.23-.17-.23-.17-.9-.72-1-.88a2.23,2.23,0,0,1-.64-2.19c.28-1.15.68-2.76.79-3.51l.12-.91c0-.3,0-.6.08-.9s0-.59.05-.88,0-.58,0-.86v-.85c0-.28,0-.56,0-.83s0-.27,0-.4l0-.4-.06-.78-.09-.75c0-.25-.05-.49-.1-.72s-.08-.47-.11-.7l-.06-.34c0-.11,0-.21-.07-.32-.09-.43-.16-.85-.26-1.23s-.17-.76-.28-1.1-.18-.67-.26-1-.16-.56-.23-.81l-.09-.35a2.12,2.12,0,0,1-.09-.31,4.68,4.68,0,0,1-.11-.5c0-.28,0-.46.07-.51s.24,0,.46.21.23.23.37.38.15.16.22.25.15.19.23.3.33.46.51.73.35.58.54.91.36.69.55,1.08.37.81.55,1.26c.05.11.09.22.14.34l.12.35c.08.24.17.48.25.73s.16.51.23.78.15.53.22.81.13.56.19.84l.09.44c0,.15.05.3.08.45s.1.6.14.92.07.62.1.94.05.65.07,1,0,.67,0,1v1l-.06,1a25.51,25.51,0,0,1-.39,2.94.37.37,0,0,1,.05.11l.81.47.2.12.2.1.41.2.4.21.41.18.41.18.41.17.81.3.4.13.4.13.39.13.4.1.78.21.77.16.37.08.37.06.73.13.71.09.34,0,.34,0,.37,0,.65.06A10.68,10.68,0,0,0,392.5,183.78Z"/><path class="cls-8" d="M378.87,160a3.76,3.76,0,0,0-6-2.52,3.34,3.34,0,0,0,2.25,1.67c.53.09,1.08,0,1.6.15a1.43,1.43,0,0,1,1.19,1A1.32,1.32,0,0,0,378.87,160Z"/><path class="cls-2" d="M392.5,183.78c-.42,0-.85,0-1.3.06h-.43l-.44,0-.89,0-.92-.13-.47-.07-.47-.09-1-.22-.47-.14a7.22,7.22,0,0,0,3.52-1,4.76,4.76,0,0,0,2.09-2.72l.65.06A10.68,10.68,0,0,0,392.5,183.78Z"/><rect class="cls-6" x="293.24" y="212.59" width="5.15" height="53.16"/><rect class="cls-6" x="201.5" y="208.09" width="111.03" height="4.5"/><rect class="cls-6" x="303.96" y="212.59" width="5.15" height="53.16"/><rect class="cls-6" x="205.39" y="212.59" width="5.15" height="53.16"/><path class="cls-6" d="M205.39,212.59h5.15v1.86c-1.72,0-3.43,0-5.15.06Z"/><path class="cls-6" d="M309.11,212.59v4.13c-1.72-.14-3.44-.26-5.15-.38v-3.75Z"/><polygon class="cls-6" points="298.39 212.59 298.39 216.17 293.24 216.02 293.24 212.59 298.39 212.59"/><rect class="cls-6" x="215.45" y="212.59" width="5.15" height="53.16"/><polygon class="cls-6" points="215.45 212.59 220.59 212.59 220.59 214.75 215.45 214.59 215.45 212.59"/><polygon class="cls-10" points="253.31 207.11 253.31 208.09 267.64 208.09 267.64 207.11 264.87 207.11 264.87 194.8 256.07 194.8 256.07 207.11 253.31 207.11"/><path class="cls-10" d="M264.87,194.8v9.64a21.16,21.16,0,0,0-8.8-3V194.8Z"/><rect class="cls-10" x="235.74" y="170.6" width="49.47" height="30.38" transform="translate(520.94 371.57) rotate(180)"/><rect class="cls-12" x="237.85" y="172.44" width="45.24" height="26.69" transform="translate(520.94 371.57) rotate(180)"/><rect class="cls-10" x="235.74" y="206.15" width="26.34" height="1.95" transform="translate(497.82 414.24) rotate(180)"/><rect class="cls-19" x="273.31" y="174.32" width="7.59" height="1.06"/><rect class="cls-19" x="239.84" y="174.32" width="13.85" height="1.06"/><rect class="cls-19" x="239.84" y="176.07" width="13.85" height="1.06"/><rect class="cls-19" x="239.84" y="177.83" width="13.85" height="1.06"/><rect class="cls-19" x="273.31" y="176.07" width="7.59" height="1.06"/><rect class="cls-19" x="273.31" y="177.83" width="7.59" height="1.06"/><path class="cls-20" d="M257.55,187.8l-1.1-.12a4.88,4.88,0,0,0-.71-1.71l.69-.87a.39.39,0,0,0-.05-.52l-.81-.81a.4.4,0,0,0-.53-.05l-.86.69a4.88,4.88,0,0,0-1.71-.71l-.12-1.1a.38.38,0,0,0-.41-.33H250.8a.38.38,0,0,0-.41.33l-.12,1.1a5,5,0,0,0-1.72.71l-.86-.69a.39.39,0,0,0-.52.05l-.81.81a.38.38,0,0,0-.05.52l.69.87a4.88,4.88,0,0,0-.71,1.71l-1.1.12a.38.38,0,0,0-.33.41v1.14a.38.38,0,0,0,.33.41l1.1.12a5,5,0,0,0,.71,1.72l-.69.86a.38.38,0,0,0,.05.52l.81.81a.39.39,0,0,0,.52.05l.86-.69a5,5,0,0,0,1.72.71l.12,1.1a.38.38,0,0,0,.41.33h1.14a.38.38,0,0,0,.41-.33l.12-1.1a4.88,4.88,0,0,0,1.71-.71l.86.69a.4.4,0,0,0,.53-.05l.81-.81a.39.39,0,0,0,.05-.52l-.69-.86a5,5,0,0,0,.71-1.72l1.1-.12a.39.39,0,0,0,.33-.41v-1.14A.39.39,0,0,0,257.55,187.8Zm-6.18,2.78a1.8,1.8,0,1,1,1.8-1.8A1.8,1.8,0,0,1,251.37,190.58Z"/><path class="cls-20" d="M276.38,187.8l-1.1-.12a4.88,4.88,0,0,0-.71-1.71l.69-.87a.38.38,0,0,0-.05-.52l-.81-.81a.39.39,0,0,0-.52-.05l-.86.69a5,5,0,0,0-1.72-.71l-.12-1.1a.38.38,0,0,0-.41-.33h-1.14a.38.38,0,0,0-.41.33l-.12,1.1a4.88,4.88,0,0,0-1.71.71l-.86-.69a.4.4,0,0,0-.53.05l-.81.81a.39.39,0,0,0-.05.52l.69.87a4.88,4.88,0,0,0-.71,1.71l-1.1.12a.38.38,0,0,0-.33.41v1.14a.38.38,0,0,0,.33.41l1.1.12a5,5,0,0,0,.71,1.72l-.69.86a.39.39,0,0,0,.05.52l.81.81a.4.4,0,0,0,.53.05l.86-.69a4.88,4.88,0,0,0,1.71.71l.12,1.1a.38.38,0,0,0,.41.33h1.14a.38.38,0,0,0,.41-.33l.12-1.1a5,5,0,0,0,1.72-.71l.86.69a.39.39,0,0,0,.52-.05l.81-.81a.38.38,0,0,0,.05-.52l-.69-.86a5,5,0,0,0,.71-1.72l1.1-.12a.38.38,0,0,0,.33-.41v-1.14A.38.38,0,0,0,276.38,187.8Zm-6.18,2.78a1.8,1.8,0,1,1,1.81-1.8A1.79,1.79,0,0,1,270.2,190.58Z"/><path class="cls-20" d="M264,187l.79.2a.29.29,0,0,0,.35-.19l.3-.8a.29.29,0,0,0-.12-.37l-.73-.38a4,4,0,0,0,0-1.38l.71-.42a.29.29,0,0,0,.1-.38l-.34-.78a.3.3,0,0,0-.36-.18l-.78.25a3.82,3.82,0,0,0-1-.95l.21-.8a.29.29,0,0,0-.2-.34l-.79-.31a.31.31,0,0,0-.38.13l-.37.73a3.81,3.81,0,0,0-1.39,0l-.42-.71a.29.29,0,0,0-.38-.11l-.77.35a.28.28,0,0,0-.18.35l.25.79a3.81,3.81,0,0,0-1,1l-.79-.21a.3.3,0,0,0-.35.2l-.3.79a.3.3,0,0,0,.12.38l.73.38a4,4,0,0,0,0,1.38l-.71.42a.29.29,0,0,0-.1.38l.34.78a.31.31,0,0,0,.36.18l.78-.25a3.82,3.82,0,0,0,1,1l-.21.8a.3.3,0,0,0,.2.34l.79.3a.29.29,0,0,0,.38-.12l.37-.73a3.81,3.81,0,0,0,1.39,0l.42.71a.29.29,0,0,0,.38.11l.77-.35a.29.29,0,0,0,.18-.35l-.25-.79A4,4,0,0,0,264,187Zm-2-1.65a1.34,1.34,0,1,1-.77-1.74A1.35,1.35,0,0,1,262,185.34Z"/><path class="cls-20" d="M262.86,180l.57.11a2.55,2.55,0,0,0,.3.92l-.4.43a.21.21,0,0,0,0,.28l.39.45a.2.2,0,0,0,.27.05l.48-.33a2.75,2.75,0,0,0,.87.44l0,.58a.21.21,0,0,0,.2.19l.6.05a.21.21,0,0,0,.23-.16l.11-.57a2.84,2.84,0,0,0,.92-.3l.42.39a.2.2,0,0,0,.28,0l.45-.39a.2.2,0,0,0,.05-.27l-.32-.48a2.65,2.65,0,0,0,.44-.87l.58,0a.21.21,0,0,0,.19-.2l0-.59a.2.2,0,0,0-.16-.23l-.56-.11a2.91,2.91,0,0,0-.31-.93l.4-.42a.21.21,0,0,0,0-.28l-.39-.45a.2.2,0,0,0-.27,0l-.48.33a2.55,2.55,0,0,0-.87-.44l0-.58a.21.21,0,0,0-.2-.19l-.6-.05a.21.21,0,0,0-.23.16l-.1.57a2.6,2.6,0,0,0-.93.3l-.42-.39a.2.2,0,0,0-.28,0l-.45.38a.21.21,0,0,0-.05.28l.32.48a2.65,2.65,0,0,0-.44.87l-.57,0a.21.21,0,0,0-.2.2l0,.59A.2.2,0,0,0,262.86,180Zm2.65-1a.95.95,0,1,1-.1,1.33A.94.94,0,0,1,265.51,179Z"/><path class="cls-8" d="M250.62,243.28c-.06,1.56-.16,3.05-.26,4.5s-.22,2.85-.34,4.19c-.25,2.66-.51,5.06-.77,7.08s-.49,3.66-.71,4.79-.45,1.76-.7,1.76-.5-.61-.78-1.72-.61-2.74-1-4.74-.75-4.39-1.13-7c-.19-1.33-.38-2.72-.56-4.16s-.35-2.94-.5-4.45-.31-2.94-.45-4.34c-.09-.83-.17-1.64-.26-2.42-.06-.51-.12-1-.18-1.49s-.11-.9-.17-1.33c-.09-.74-.19-1.44-.28-2.11-.16-1.06-.3-2.05-.44-3s-.25-1.72-.34-2.47l-.06-.54c0-.18,0-.35,0-.51s0-.33,0-.49,0-.3,0-.45,0-.56,0-.81a4,4,0,0,1,.13-.67,1.55,1.55,0,0,1,.6-.91,1.37,1.37,0,0,1,1.08-.15,2.68,2.68,0,0,1,.69.26,3.94,3.94,0,0,1,.77.49l.41.33c.13.12.27.25.41.4a5.92,5.92,0,0,1,.41.45q.21.24.42.51a15.28,15.28,0,0,1,1.58,2.6,21.34,21.34,0,0,1,1.28,3.4,28.62,28.62,0,0,1,.74,3.33c0,.22.07.44.1.66.09.64.17,1.29.23,1.95s.11,1.62.14,2.45C250.7,240.18,250.68,241.72,250.62,243.28Z"/><path class="cls-8" d="M242.06,243.28c-.06,1.56-.15,3.05-.26,4.5s-.22,2.85-.34,4.19c-.25,2.66-.51,5.06-.76,7.08s-.49,3.66-.72,4.79-.45,1.76-.69,1.76-.5-.61-.79-1.72-.61-2.74-1-4.74-.74-4.39-1.13-7c-.19-1.33-.38-2.72-.56-4.16s-.35-2.94-.5-4.45-.3-2.94-.45-4.34-.29-2.69-.44-3.91a1.64,1.64,0,0,0,0-.23c-.09-.7-.18-1.37-.26-2-.06-.41-.11-.81-.17-1.2-.15-1.06-.3-2.05-.43-3s-.25-1.72-.34-2.47c0-.18,0-.36-.06-.54s0-.35,0-.51l0-.49c0-.15,0-.3,0-.45a7,7,0,0,1,0-.81,4,4,0,0,1,.12-.67,1.55,1.55,0,0,1,.6-.91,1.38,1.38,0,0,1,1.08-.15,2.88,2.88,0,0,1,.7.26,4.64,4.64,0,0,1,.77.49l.4.33a5.09,5.09,0,0,1,.41.4l.42.45c.13.16.28.33.41.51a14.66,14.66,0,0,1,1.58,2.6,22.34,22.34,0,0,1,1.29,3.4,30.62,30.62,0,0,1,.78,3.59l.06.4c.1.75.18,1.51.25,2.28s.09,1.4.11,2.12C242.14,240.18,242.12,241.72,242.06,243.28Z"/><path class="cls-2" d="M240.89,230.28a30.62,30.62,0,0,1,.78,3.59,55.38,55.38,0,0,1-7.5-.87c-.06-.41-.11-.81-.17-1.2-.15-1.06-.3-2.05-.43-3s-.25-1.72-.34-2.47c0-.18,0-.36-.06-.54s0-.35,0-.51l0-.49c0-.15,0-.3,0-.45a7,7,0,0,1,0-.81,4,4,0,0,1,.12-.67,1.55,1.55,0,0,1,.6-.91,1.38,1.38,0,0,1,1.08-.15,2.88,2.88,0,0,1,.7.26,4.64,4.64,0,0,1,.77.49l.4.33a5.09,5.09,0,0,1,.41.4l.42.45c.13.16.28.33.41.51a14.66,14.66,0,0,1,1.58,2.6A22.34,22.34,0,0,1,240.89,230.28Z"/><path class="cls-2" d="M250.18,233.61a56.18,56.18,0,0,1-7.34.3c-.09-.74-.19-1.44-.28-2.11-.16-1.06-.3-2.05-.44-3s-.25-1.72-.34-2.47l-.06-.54c0-.18,0-.35,0-.51s0-.33,0-.49,0-.3,0-.45,0-.56,0-.81a4,4,0,0,1,.13-.67,1.55,1.55,0,0,1,.6-.91,1.37,1.37,0,0,1,1.08-.15,2.68,2.68,0,0,1,.69.26,3.94,3.94,0,0,1,.77.49l.41.33c.13.12.27.25.41.4a5.92,5.92,0,0,1,.41.45q.21.24.42.51a15.28,15.28,0,0,1,1.58,2.6,21.34,21.34,0,0,1,1.28,3.4A28.62,28.62,0,0,1,250.18,233.61Z"/><path class="cls-6" d="M250.47,230.79a46.81,46.81,0,0,1-12.62,1.67A49.27,49.27,0,0,1,231,232a5.24,5.24,0,0,0-1.74-1.88c-2.34-1.49-5.36-.57-8.06-1a7.4,7.4,0,0,1-1.72-.51,8.45,8.45,0,0,1-4.13-3.81,8.69,8.69,0,0,1-.83-2.44,8.91,8.91,0,0,1,.52-5A61.84,61.84,0,0,0,232.88,216c1.67,2.46,4.7,3.44,7.53,4h0a10.9,10.9,0,0,1,4.8,2.37A15.56,15.56,0,0,1,250.47,230.79Z"/><path class="cls-2" d="M252.69,206.15a5.12,5.12,0,0,1,4.33-.76,5.67,5.67,0,0,1,3.76,2.72h-8.09Z"/><path class="cls-8" d="M231,183.36a3.36,3.36,0,0,1-.53,1.66,2.18,2.18,0,0,1-2.66.88,17.6,17.6,0,0,0,.72,4.44,29,29,0,0,0-6.31.09,39.22,39.22,0,0,0,.82-8.89,42.44,42.44,0,0,0-.37-4.65,12.25,12.25,0,0,1,8.06-.8,4.46,4.46,0,0,0-.42,3c.16,1,.49,2,.64,3,0,.17,0,.33.05.5A5.34,5.34,0,0,1,231,183.36Z"/><path class="cls-4" d="M253.52,205.54v2.57l-14.31-.06-5.45-7.74s-.83,12.49,1,17.53a28.51,28.51,0,0,1-9.56,1.63,25.53,25.53,0,0,1-10.31-1.68c-.16-4.28-.8-9-1-13.22-.11-2.11-.21-4.24-.17-6.36,0-1.15.08-2.3.21-3.44a1.64,1.64,0,0,1,0-.22,6,6,0,0,1,4.39-4.89l2.76-.76a19.29,19.29,0,0,1,4.53-.66,18.67,18.67,0,0,1,4.7.47h0a8,8,0,0,1,5,3.53c5.32,8.39,7.16,11.67,7.16,11.67Z"/><polygon class="cls-4" points="253.51 208.11 239.21 208.05 233.76 200.31 233.87 198.16 239.66 206.84 253.51 208.11"/><path class="cls-21" d="M246.54,261.55s-1.06.76-1.26,4.2h4.85a10.49,10.49,0,0,0-1.21-4.2Z"/><path class="cls-21" d="M238,261.55s-1.06.76-1.26,4.2h4.85a10.49,10.49,0,0,0-1.21-4.2Z"/><path class="cls-16" d="M231,183.36l-.2,0a.9.9,0,0,1-.52-.51.15.15,0,0,1,.14-.2,2.84,2.84,0,0,0,.58-.05A5.34,5.34,0,0,1,231,183.36Z"/><path class="cls-4" d="M230.88,196a9.34,9.34,0,0,1-4.62,3.84,12.74,12.74,0,0,1-7.67.65,12.58,12.58,0,0,1-4.93-2.32c0-1.15.08-2.3.21-3.44a1.64,1.64,0,0,1,0-.22,6,6,0,0,1,4.39-4.89l2.76-.76a19.29,19.29,0,0,1,4.53-.66,8.54,8.54,0,0,0,5.52,1.95A6.12,6.12,0,0,1,230.88,196Z"/><path class="cls-10" d="M227.82,180a.62.62,0,0,0-.75-.38.88.88,0,0,0-.59.67,1.1,1.1,0,0,0,1.41,1.28,2.42,2.42,0,0,1,.81,2.12,10.79,10.79,0,0,0-.06,2.27c.29,1.46,1.69,2.4,2.43,3.69A5.57,5.57,0,0,1,230,196a10.2,10.2,0,0,1-6.19,2.79,9.69,9.69,0,0,1-4.05-.21,5,5,0,0,1-3.08-2.52,5.72,5.72,0,0,1,.27-4.66,37.48,37.48,0,0,1,2.51-4.1,8.09,8.09,0,0,0,1.45-4.52,34.64,34.64,0,0,0-.81-3.68,6.65,6.65,0,0,1,1.7-5.62,5.83,5.83,0,0,1,5.58-1.6,5.2,5.2,0,0,1,3.75,4.34c0,.53-.77.88-1.25,1.11a6.19,6.19,0,0,0-1.43.72A2.14,2.14,0,0,0,227.82,180Z"/><path class="cls-12" d="M228.17,181.65a.42.42,0,0,1-.42.42.42.42,0,0,1,0-.83A.41.41,0,0,1,228.17,181.65Z"/><path class="cls-22" d="M210.65,265.75a.63.63,0,0,0,.68-.47l7.21-31.3.85-3.65a2.28,2.28,0,0,0-4.44-1,1.55,1.55,0,0,0,0,.21l-.53,3.95-4.26,31.59A.62.62,0,0,0,210.65,265.75Z"/><path class="cls-22" d="M238.65,230.33l.17.77.55,2.35,7.34,31.83a.61.61,0,0,0,.67.47.62.62,0,0,0,.53-.69l-4.36-32.36-.36-2.7-.05-.36c-.41-.37-1.88-.72-4.2-1A2.23,2.23,0,0,0,238.65,230.33Z"/><path class="cls-22" d="M238.94,228.61a2.23,2.23,0,0,0-.29,1.72l.17.77.55,2.35c1.42-.21,2.81-.46,4.18-.75l-.36-2.7-.05-.36C242.73,229.27,241.26,228.92,238.94,228.61Z"/><path class="cls-22" d="M214.38,233.47c1.37.21,2.75.38,4.16.51l.85-3.65a2.28,2.28,0,0,0-4.44-1,1.55,1.55,0,0,0,0,.21Z"/><path class="cls-22" d="M243.14,229.63c-.41-.36-1.88-.71-4.2-1-1.44-.2-3.21-.38-5.26-.54-.61-5.07-1.35-10.77-1.74-13a135,135,0,0,0-3.6-15.14c-1.09-3.66-2.26-7-3.39-9.85a.94.94,0,0,0-.68-.59h0a3.07,3.07,0,0,0-1.17,0h0l-13.32,1.18a2.8,2.8,0,0,0-.71.06h0a3.06,3.06,0,0,0-1.65.94,1.3,1.3,0,0,0-.3,1.22c.75,2.86,1.58,6.08,2.4,9.57,1.07,4.53,2.14,9.52,3.08,14.79.79,4.48,1.42,8.8,1.91,12.83l.17,1.33.12,1,2.26-.05,1.88,0c8.59-.25,15.64-.7,19.9-1.26,2.5-.33,4-.7,4.37-1.1a.25.25,0,0,0,.06-.16A.31.31,0,0,0,243.14,229.63Z"/><path class="cls-12" d="M230.86,174.3s-.26-.29-.77-.75c-.13-.12-.28-.23-.45-.36a5.65,5.65,0,0,0-.57-.37,6.41,6.41,0,0,0-1.51-.62,6.81,6.81,0,0,0-.94-.17,5.79,5.79,0,0,0-1,0,5.33,5.33,0,0,0-2.15.65,5.86,5.86,0,0,0-1.88,1.61c-.07.09-.14.17-.2.26l-.17.28a5.52,5.52,0,0,0-.71,1.88,8.92,8.92,0,0,0-.12,1.36c0,.45,0,.9.08,1.35.08.88.21,1.74.28,2.57,0,.41.05.82.05,1.22a8.68,8.68,0,0,1-.08,1.16,8.79,8.79,0,0,1-.55,2,8.23,8.23,0,0,1-1.58,2.52,3.38,3.38,0,0,1-.83.72s.26-.3.69-.84a7.8,7.8,0,0,0,.72-1,9.9,9.9,0,0,0,.71-1.49,8.89,8.89,0,0,0,.47-1.94c0-.35,0-.73.06-1.11s0-.78-.07-1.18c-.08-.82-.22-1.67-.31-2.57,0-.45-.08-.92-.09-1.39a10.11,10.11,0,0,1,.12-1.44,6,6,0,0,1,1.18-2.61,6.31,6.31,0,0,1,2-1.71,5.64,5.64,0,0,1,2.32-.65,4.92,4.92,0,0,1,1.09,0,5.65,5.65,0,0,1,1,.21,6.18,6.18,0,0,1,1.57.71c.21.13.4.28.57.41s.31.27.43.4l.17.18.14.17.12.15.09.13C230.83,174.21,230.87,174.29,230.86,174.3Z"/><path class="cls-12" d="M273.66,170.45c-1.54,0-3.77-.09-6.53-.12-5.51-.07-13.13-.11-21.55-.11l-9.84,0h-.36v.36c0,6,.08,11.16.14,14.82,0,1.83.06,3.28.1,4.28a7.86,7.86,0,0,0,.12,1.54,7.86,7.86,0,0,0,.12-1.54c0-1,.07-2.45.1-4.28.06-3.59.11-8.62.13-14.47l9.49,0c8.42,0,16,0,21.55-.11,2.76,0,5-.07,6.53-.12a14.77,14.77,0,0,0,2.4-.14A13.9,13.9,0,0,0,273.66,170.45Z"/><path class="cls-7" d="M81.49,12.51c1.75.81,2.87,2.8,4.76,3.23s3.79-1,5.76-1.18a6.51,6.51,0,0,1,5.58,2.72,9.2,9.2,0,0,1-.06,11A9.21,9.21,0,0,1,86.86,30.9c-3.11-1.4-5.38-4.54-8.73-5.19-1.65-.32-3.53,0-4.88-1a4.08,4.08,0,0,1-1-4.55,20.17,20.17,0,0,1,3.31-5.23C76.92,13.11,79.13,11.43,81.49,12.51Z"/><path class="cls-8" d="M98.48,33l-.16,1.38c0,.23,0,.47-.08.7l0,.36c0,.11,0,.23,0,.35a34.45,34.45,0,0,1-.69,3.53c-.08.28-.15.56-.22.83L97,41c-.15.53-.34,1-.51,1.55-.36,1-.73,1.93-1.13,2.78l-.29.62c-.1.21-.2.4-.3.6-.19.39-.4.75-.59,1.1s-.38.67-.57,1l-.27.44a4.81,4.81,0,0,0-.27.41c-.35.52-.68,1-.95,1.3a6.82,6.82,0,0,1-.71.75q-.27.24-.39.18c-.08-.05-.09-.19-.06-.43a7.46,7.46,0,0,1,.24-1c.11-.42.28-.92.44-1.5,0-.14.09-.29.14-.45s.09-.31.13-.48.2-.67.29-1,.2-.75.29-1.15c.05-.19.1-.4.15-.6s.09-.42.14-.63c.19-.86.35-1.78.52-2.74.07-.49.15-1,.21-1.49,0-.25.07-.51.1-.76s0-.52.08-.78c.09-.94.17-1.91.21-2.9l-1.56-.57-.17-.06-2.51-.9c-.85-.31-1.65-.6-2.4-.89s-1.45-.57-2.08-.84-1.2-.54-1.69-.8a10.84,10.84,0,0,1-1.26-.78,3.23,3.23,0,0,1-.74-.75.91.91,0,0,1-.18-.7.93.93,0,0,1,.43-.57,3.1,3.1,0,0,1,1-.37,8.25,8.25,0,0,1,1.53-.15,16.24,16.24,0,0,1,2,.13,22.12,22.12,0,0,1,2.35.44c.49.12,1,.26,1.52.41l1.12.36c.91.32,1.87.68,2.84,1.11s2,.91,3,1.44Z"/><path class="cls-2" d="M92.17,35.12l-2.51-.9c-.85-.31-1.65-.6-2.4-.89s-1.45-.57-2.08-.84-1.2-.54-1.69-.8a10.84,10.84,0,0,1-1.26-.78,3.23,3.23,0,0,1-.74-.75.91.91,0,0,1-.18-.7.93.93,0,0,1,.43-.57,3.1,3.1,0,0,1,1-.37,8.25,8.25,0,0,1,1.53-.15,16.24,16.24,0,0,1,2,.13,22.12,22.12,0,0,1,2.35.44c.49.12,1,.26,1.52.41a6.73,6.73,0,0,0,.27,3A6.66,6.66,0,0,0,92.17,35.12Z"/><path class="cls-8" d="M58.75,26.11c.17-.06.49.33.92,1l.39.57.21.33a3.75,3.75,0,0,0,.24.36l.52.76.62.83.17.22.17.22.37.45c.24.31.53.6.8.92.57.63,1.21,1.25,1.9,1.88.17.17.36.31.54.47l.56.47.59.45c.19.15.39.3.6.44L68,36l.32.21.33.21.34.2.16.11.17.09.7.39.21.13.22.1.44.22.43.22.44.19c.06-.23.13-.46.19-.68.21-.76.4-1.5.59-2.19s.35-1.35.52-1.95.34-1.18.5-1.69c.08-.26.16-.5.25-.73s.17-.45.25-.65a7,7,0,0,1,.52-1,2.4,2.4,0,0,1,.55-.64.84.84,0,0,1,.57-.21.84.84,0,0,1,.53.29,2.18,2.18,0,0,1,.43.75A7.16,7.16,0,0,1,77,31.24c0,.26,0,.54,0,.84A15.47,15.47,0,0,1,76.84,34a18.3,18.3,0,0,1-.46,2.19,21.79,21.79,0,0,1-.77,2.38c-.31.82-.68,1.65-1.1,2.5h0l-.69,1.6-1.55-.6-1-.4-.26-.1-.25-.12-.5-.23-.5-.25c-.17-.08-.33-.18-.5-.27l-.49-.27-.25-.14-.24-.15-.78-.5-.19-.13-.18-.13-.36-.27-.36-.26-.35-.27L65.38,38c-.22-.18-.43-.38-.63-.58l-.61-.58-.57-.59c-.18-.2-.37-.39-.54-.6a21.53,21.53,0,0,1-1.79-2.39c-.25-.39-.5-.77-.7-1.15l-.3-.56c-.05-.09-.1-.18-.14-.27L60,31c-.17-.36-.33-.7-.46-1s-.24-.64-.35-.94c0-.14-.1-.28-.14-.43l-.11-.4c-.07-.26-.12-.49-.17-.7C58.59,26.66,58.59,26.16,58.75,26.11Z"/><path class="cls-23" d="M44.85,114.13a3.42,3.42,0,0,0,2.74,1A6.81,6.81,0,0,0,50.33,114a3,3,0,0,0,1-.8,1.1,1.1,0,0,0,.08-1.2c-.33-.47-1-.41-1.56-.34a16.24,16.24,0,0,1-4.67-.07c-.74-.11-1.41-.47-1.32.56A3.46,3.46,0,0,0,44.85,114.13Z"/><path class="cls-6" d="M72.41,59.54a37.36,37.36,0,0,1,.16-5c0-.38.08-.74.13-1.1s.12-.69.18-1c.13-.66.27-1.28.44-1.86s.36-1.1.56-1.58a10.13,10.13,0,0,1,.66-1.28,6.08,6.08,0,0,1,.74-1,4.38,4.38,0,0,1,.8-.67,2.4,2.4,0,0,1,1.68-.38,3,3,0,0,1,1.61.87,5.07,5.07,0,0,1,.71.85,8.63,8.63,0,0,1,.64,1.1,12,12,0,0,1,.55,1.34c.17.48.34,1,.48,1.55s.27,1.14.39,1.76c.06.31.11.62.16,1s.1.66.15,1c.17,1.36.31,2.85.39,4.45s.14,3.33.18,5.15,0,3.77.06,5.81c0,1.76,0,3.61.07,5.52l0,0,1,1.3,1,1.3,1,1.32c1.53,2,3.06,3.95,4.54,5.83.74.93,1.47,1.85,2.19,2.74L94,89.91,95,91.2l.51.63.52.62,1,1.22L99,96l1.84,2.15,1.7,2,3,3.39,1.22,1.4,1,1.2c.6.73,1.06,1.32,1.35,1.76s.4.72.33.85-.34.09-.78-.1a14.78,14.78,0,0,1-1.81-1c-.38-.24-.8-.51-1.26-.82l-.72-.48-.76-.53-1.67-1.22-1.86-1.4-2-1.59L96.37,99.8l-2.28-2-1.18-1-.61-.53-.6-.56-1.23-1.13c-.41-.38-.82-.78-1.24-1.18-.84-.79-1.68-1.63-2.54-2.47C85,89.2,83.24,87.4,81.51,85.47l-1.13-1.26-1.1-1.27q-.56-.63-1.08-1.26l-1-1.26-.49-.59-.45-1.52h0c-.78-2.27-1.45-4.51-2-6.69s-1-4.31-1.27-6.33A53.67,53.67,0,0,1,72.41,59.54Z"/><path class="cls-6" d="M50.67,113.35c.26.08.8-.81,1.6-2.45l.66-1.37c.23-.5.49-1,.77-1.63.56-1.16,1.16-2.5,1.88-4,.34-.73.71-1.5,1.09-2.29.19-.4.39-.8.59-1.21s.41-.83.62-1.26.43-.85.64-1.29l.33-.67.34-.66L60.6,93.8c.23-.48.49-1,.74-1.43l.76-1.46.77-1.49.8-1.51c.27-.51.54-1,.82-1.53l.4-.78.43-.78L67,81.65l1.71-3.15.41-.78.42-.76.82-1.52c.27-.5.53-1,.79-1.5L72,72.48l.76-1.43c.25-.48.48-1,.73-1.41.49-.93,1-1.83,1.4-2.72.11-.22.22-.45.32-.67l.33-.64.63-1.28.59-1.25c.19-.4.36-.81.55-1.2A51,51,0,0,1,80,57.4a8.46,8.46,0,0,0,1.77-4.68A12.59,12.59,0,0,0,80.65,48l-1.6-4.34c-.43.06-1-.38-1.38-.33a19.76,19.76,0,0,1-2.76.23,9.28,9.28,0,0,1-2.77-.4,36.68,36.68,0,0,1-1.08,11l-.52.68c-.49.66-1,1.36-1.52,2.1-.26.37-.51.76-.76,1.15s-.51.8-.77,1.21l-.77,1.26-.39.65-.38.67c-.5.91-1,1.84-1.52,2.81-.26.48-.5,1-.75,1.48s-.49,1-.73,1.53-.49,1-.74,1.57-.47,1.08-.71,1.62S61,72,60.79,72.53c-.12.28-.24.56-.35.84s-.23.57-.34.85c-.45,1.15-.9,2.32-1.35,3.5s-.83,2.37-1.23,3.54l-.3.87L57,83c-.19.58-.37,1.15-.54,1.72s-.36,1.14-.53,1.7l-.48,1.67c-.15.55-.31,1.1-.46,1.64s-.3,1.07-.43,1.6c-.27,1.06-.53,2.1-.79,3.11-.06.25-.12.5-.19.74s-.11.5-.17.75q-.16.73-.33,1.44c-.1.48-.21.94-.31,1.4s-.21.91-.29,1.35q-.27,1.34-.51,2.55c-.34,1.61-.58,3.09-.79,4.39-.11.64-.21,1.25-.29,1.8s-.14,1.07-.19,1.53C50.43,112.24,50.41,113.28,50.67,113.35Z"/><path class="cls-10" d="M84.46,32.54a12.8,12.8,0,0,1-1.32,2.61c-.41.65-.83,1.29-1.22,1.94a18.56,18.56,0,0,0-2.45,7.39,15.88,15.88,0,0,1-4.1.74,16.41,16.41,0,0,1-3.16-.13,38.46,38.46,0,0,1-1.44-6.7,16.31,16.31,0,0,1,0-4.68,9.21,9.21,0,0,1,.6-2.09A7.24,7.24,0,0,1,76,27.51a6.22,6.22,0,0,1,1-.17c1.17-.1,2.16-.46,3.33-.46a6,6,0,0,1,1,.08,4.51,4.51,0,0,1,2.19.9A4.25,4.25,0,0,1,84.46,32.54Z"/><path class="cls-5" d="M110.28,114.32a3.51,3.51,0,0,0,1-2.74,7,7,0,0,0-1.12-2.74,3,3,0,0,0-.78-1,1,1,0,0,0-1.17-.08c-.45.33-.4,1-.33,1.55a16.6,16.6,0,0,1-.06,4.67c-.11.74-.46,1.42.54,1.33A3.34,3.34,0,0,0,110.28,114.32Z"/><path class="cls-10" d="M81.34,26.94a31,31,0,0,1,8.17,1.35,25,25,0,0,1-1.92,6.16,19,19,0,0,1-3.81-1.35A6,6,0,0,1,81,30.39,3.11,3.11,0,0,1,81.34,26.94Z"/><path class="cls-8" d="M58,24.15c-.39.14-.39.64-.31,1a11.26,11.26,0,0,0,.57,2,4.77,4.77,0,0,0,.86,1.73l.91.19,0,0A2.54,2.54,0,0,0,61,27.74a5.14,5.14,0,0,0,.29-1.39.15.15,0,0,0-.29-.09l-.47.85a7.3,7.3,0,0,1-.84-1.59,2.36,2.36,0,0,0-1.29-1.37A.65.65,0,0,0,58,24.15Z"/><path class="cls-8" d="M90.57,53.26c.38.18.73-.17,1-.5a12.51,12.51,0,0,0,1-1.79,4.88,4.88,0,0,0,.61-1.84l-.51-.77-.06,0a2.56,2.56,0,0,0-1.55.27,5.2,5.2,0,0,0-1.19.78.16.16,0,0,0,.14.27l.94-.27a7.52,7.52,0,0,1-.53,1.71A2.39,2.39,0,0,0,90.3,53,.59.59,0,0,0,90.57,53.26Z"/><path class="cls-8" d="M80.69,21.69v0h0a19.58,19.58,0,0,0-.07,3.59v.05l.06.6h0c-.05.07-1.69,2.59-4.09,2.61l-.11,0h0c-.12-.1-.35-.4-.09-1.09h0c.1-.25.2-.49.28-.74.2-.56.37-1.13.52-1.71l.09-.38q.16-.73.27-1.47l0-.22q.08-.67.12-1.35a7,7,0,0,1,1.26-1A1.14,1.14,0,0,1,80.69,21.69Z"/><path class="cls-2" d="M80.69,21.69v0h0a19.58,19.58,0,0,0-.07,3.59,5.9,5.9,0,0,0-1.14-.39,11.68,11.68,0,0,0-2.2-.32q.16-.73.27-1.47l0-.22q.08-.67.12-1.35a7,7,0,0,1,1.26-1A1.14,1.14,0,0,1,80.69,21.69Z"/><path class="cls-8" d="M80.9,21.21c-.07.28-.16.57-.21.87,0,.11,0,.22,0,.33l-.09.13a4.3,4.3,0,0,1-2.15,1.71,2.32,2.32,0,0,1-2.52-.7,2.8,2.8,0,0,1-.2-2.48c.27-.81.73-1.55,1-2.36A4.05,4.05,0,0,0,77,17.43a2.34,2.34,0,0,0-.18-1,4.3,4.3,0,0,0,1,.71c.64.33,1.32.57,1.93,1a2.68,2.68,0,0,1,1.29,1.65A3.41,3.41,0,0,1,80.9,21.21Z"/><path class="cls-8" d="M81.06,20.4a.54.54,0,0,1,.9,0A.74.74,0,0,1,82,21a1.09,1.09,0,0,1-.58.71,1.13,1.13,0,0,1-.92,0A5.36,5.36,0,0,1,81.06,20.4Z"/><path class="cls-24" d="M80.68,26S79,28.56,76.55,28.56l.89,1.8a8,8,0,0,0,3.9-3.42Z"/><path class="cls-24" d="M76.39,27.42l.28-.74-1.06.94s-.58,1.65.12,2.51l.82-1.57S76.05,28.32,76.39,27.42Z"/><path class="cls-16" d="M77.28,22.1a2.27,2.27,0,0,1-1-.31.1.1,0,0,0-.15.07.59.59,0,0,0,.14.51.72.72,0,0,0,.65.25c.19,0,.3-.19.39-.37A.11.11,0,0,0,77.28,22.1Z"/></g></g></g></svg>