<svg xmlns="http://www.w3.org/2000/svg" xmlns:xlink="http://www.w3.org/1999/xlink" viewBox="0 0 377.11 311.39"><defs><style>.cls-1{isolation:isolate;}.cls-2{fill:#e2e6f7;}.cls-3{fill:#e0b59d;}.cls-4{fill:url(#linear-gradient);}.cls-5{fill:#5d4efa;}.cls-10,.cls-6{opacity:0.3;}.cls-10,.cls-37,.cls-38,.cls-40,.cls-41,.cls-42,.cls-6{mix-blend-mode:multiply;}.cls-6{fill:url(#linear-gradient-2);}.cls-7{fill:#253e8e;}.cls-15,.cls-8{fill:#1a2089;}.cls-9{fill:#f9fbfc;}.cls-10{fill:url(#linear-gradient-3);}.cls-11{fill:#7a92f9;}.cls-12{fill:#1e397c;}.cls-13{fill:url(#linear-gradient-4);}.cls-14,.cls-15{opacity:0.2;}.cls-16{fill:#f2f2f2;}.cls-17{fill:#b56cf7;}.cls-18{fill:url(#linear-gradient-5);}.cls-19{fill:url(#linear-gradient-6);}.cls-20{fill:url(#linear-gradient-7);}.cls-21{fill:url(#linear-gradient-8);}.cls-22{fill:url(#linear-gradient-9);}.cls-23{fill:url(#linear-gradient-10);}.cls-24{fill:url(#linear-gradient-11);}.cls-25{fill:url(#linear-gradient-12);}.cls-26{fill:url(#linear-gradient-13);}.cls-27{fill:url(#linear-gradient-14);}.cls-28{fill:url(#linear-gradient-15);}.cls-29{fill:url(#linear-gradient-16);}.cls-30{fill:url(#linear-gradient-17);}.cls-31{fill:url(#linear-gradient-18);}.cls-32{fill:url(#linear-gradient-19);}.cls-33{fill:url(#linear-gradient-20);}.cls-34{fill:url(#linear-gradient-21);}.cls-35{fill:#4cc2fc;}.cls-36{fill:#fff;}.cls-37,.cls-38{opacity:0.5;}.cls-37{fill:url(#linear-gradient-22);}.cls-38{fill:url(#linear-gradient-23);}.cls-39{fill:#2f4e9b;}.cls-40,.cls-42{opacity:0.4;}.cls-40{fill:url(#linear-gradient-24);}.cls-41{fill:#dce8ef;}.cls-42{fill:url(#linear-gradient-25);}</style><linearGradient id="linear-gradient" x1="15655.27" y1="9567.05" x2="15655.27" y2="9593.36" gradientTransform="matrix(-0.37, -0.93, -0.93, 0.37, 14669.43, 11264.85)" gradientUnits="userSpaceOnUse"><stop offset="0.04" stop-color="#214f95"/><stop offset="1" stop-color="#14408f"/></linearGradient><linearGradient id="linear-gradient-2" x1="32.32" y1="219.17" x2="32.32" y2="206.44" gradientUnits="userSpaceOnUse"><stop offset="0.04" stop-color="#7b8bff"/><stop offset="1" stop-color="#6f80ff"/></linearGradient><linearGradient id="linear-gradient-3" x1="11.34" y1="213.47" x2="20.74" y2="213.47" xlink:href="#linear-gradient-2"/><linearGradient id="linear-gradient-4" x1="12759.09" y1="215.63" x2="12770.52" y2="215.63" gradientTransform="matrix(-1, 0, 0, 1, 12809.19, 0)" xlink:href="#linear-gradient-2"/><linearGradient id="linear-gradient-5" x1="86.05" y1="155.55" x2="144.01" y2="155.55" gradientUnits="userSpaceOnUse"><stop offset="0" stop-color="#acb1f4"/><stop offset="1" stop-color="#a3b0f5"/></linearGradient><linearGradient id="linear-gradient-6" x1="86.05" y1="159.31" x2="129.33" y2="159.31" xlink:href="#linear-gradient-5"/><linearGradient id="linear-gradient-7" x1="76.1" y1="157.49" x2="83.4" y2="157.49" xlink:href="#linear-gradient-5"/><linearGradient id="linear-gradient-8" x1="86.05" y1="169.74" x2="144.01" y2="169.74" xlink:href="#linear-gradient-2"/><linearGradient id="linear-gradient-9" x1="86.05" y1="173.5" x2="129.33" y2="173.5" xlink:href="#linear-gradient-2"/><linearGradient id="linear-gradient-10" x1="76.1" y1="171.68" x2="83.4" y2="171.68" xlink:href="#linear-gradient-2"/><linearGradient id="linear-gradient-11" x1="86.05" y1="183.93" x2="144.01" y2="183.93" xlink:href="#linear-gradient-5"/><linearGradient id="linear-gradient-12" x1="86.05" y1="187.69" x2="129.33" y2="187.69" xlink:href="#linear-gradient-5"/><linearGradient id="linear-gradient-13" x1="76.1" y1="185.87" x2="83.4" y2="185.87" xlink:href="#linear-gradient-5"/><linearGradient id="linear-gradient-14" x1="86.05" y1="212.31" x2="144.01" y2="212.31" xlink:href="#linear-gradient-2"/><linearGradient id="linear-gradient-15" x1="86.05" y1="216.07" x2="129.33" y2="216.07" xlink:href="#linear-gradient-2"/><linearGradient id="linear-gradient-16" x1="76.1" y1="214.25" x2="83.4" y2="214.25" xlink:href="#linear-gradient-2"/><linearGradient id="linear-gradient-17" x1="169.91" y1="112.14" x2="169.91" y2="130.72" xlink:href="#linear-gradient-2"/><linearGradient id="linear-gradient-18" x1="183.94" y1="112.14" x2="183.94" y2="130.72" xlink:href="#linear-gradient-2"/><linearGradient id="linear-gradient-19" x1="197.97" y1="112.14" x2="197.97" y2="130.72" xlink:href="#linear-gradient-2"/><linearGradient id="linear-gradient-20" x1="212" y1="112.14" x2="212" y2="130.72" xlink:href="#linear-gradient-2"/><linearGradient id="linear-gradient-21" x1="12235.58" y1="-3141.33" x2="12235.58" y2="-3114.53" gradientTransform="translate(1218.21 12818.64) rotate(-79.74)" xlink:href="#linear-gradient"/><linearGradient id="linear-gradient-22" x1="13732.32" y1="231.6" x2="13740.54" y2="231.6" gradientTransform="matrix(-1, 0, 0, 1, 14056.92, 0)" xlink:href="#linear-gradient-2"/><linearGradient id="linear-gradient-23" x1="13737.38" y1="225.79" x2="13741.23" y2="225.79" gradientTransform="matrix(-1, 0, 0, 1, 14056.92, 0)" xlink:href="#linear-gradient-2"/><linearGradient id="linear-gradient-24" x1="13074" y1="224.29" x2="13076.44" y2="224.29" gradientTransform="matrix(-1, 0, 0, 1, 13211.36, 0)" xlink:href="#linear-gradient-5"/><linearGradient id="linear-gradient-25" x1="13057.9" y1="221.94" x2="13062.63" y2="221.94" gradientTransform="matrix(-1, 0, 0, 1, 13211.36, 0)" xlink:href="#linear-gradient-5"/></defs><title>cloud_erp_software</title><g class="cls-1"><g id="Layer_2" data-name="Layer 2"><g id="Layer_1-2" data-name="Layer 1"><ellipse class="cls-2" cx="315.13" cy="306.71" rx="29.23" ry="3.8"/><path class="cls-3" d="M30.77,217.42a1.41,1.41,0,0,1,.44-.85c2-1.81,7.29-6.81,8.73-6.14,1.6.75-6.47,9.24-7.39,9S30.57,219.27,30.77,217.42Z"/><path class="cls-3" d="M38,211s1.62-1.51,3-1.14a3,3,0,0,1,2.14,1.73c.13.45-.08,1.22-.36,1s-1.83-1.45-2-.78.86.93.27,1.39-2.17-1.75-2.17-1.75Z"/><path class="cls-3" d="M23.63,200.31a2.51,2.51,0,0,0-.54,2.63c1.4,4.09,6.33,17.72,9.43,16.91,3.64-.95-1.46-12.79-3.37-16C27.56,201.12,25.3,198.69,23.63,200.31Z"/><path class="cls-4" d="M21.78,204.71l.58,1.13,4.95,9.6,2.21-1.16h0L33,212.46a56.54,56.54,0,0,0-2.08-6.72c-1-2.81-1.52-4.83-2.51-5.35-.05,0-3.12-1.08-3.17-1.09a2.37,2.37,0,0,0-.39-.17l-1.11,2Z"/><path class="cls-5" d="M38.64,214.22s-.78,1-1.94,2.24a25,25,0,0,1-4.88,4.24c-1.32.81-2.61,1.24-3.64.82-1.86-.75-3.4-6.53-3.4-6.53l4.14-14s1.82,1.1,4.58,12.82l3.11-2.09Z"/><path class="cls-6" d="M36.7,216.46a25,25,0,0,1-4.88,4.24l-2.15-.14s-1.73-5-1.73-5.14,2.4-7.8,2.4-7.8.11,10.3,1.73,10.37A7.89,7.89,0,0,0,36.7,216.46Z"/><path class="cls-3" d="M18.22,188.58C17.56,191.12,20,196,20,196l-.9,2.61-.58,2.48,3.52,3.1,2.22-3.78.84-2.62s2.48.28,3.23-1.6S32.53,187,27.2,184.6,18.87,186,18.22,188.58Z"/><path class="cls-7" d="M30.16,189.6s-6.09-2.18-6.81-.54-.43,3.1-.92,3.17-1.12-2.87-2.17-2,.34,3.35-.6,4.88c-.35.56-2.27-5.45-1.74-8.1A5.9,5.9,0,0,1,25,182.23c1.61.23,6.47-.47,7.43.62C34,184.63,31,188.56,30.16,189.6Z"/><path class="cls-3" d="M16.83,236a3.69,3.69,0,0,0-4.4,2.93,24.38,24.38,0,0,0-.38,6.76c.49,7.18-.83,15.68,1.67,17.05S19.07,260,19.88,253c.74-6.33,3-13.86,1.4-15.22A13.65,13.65,0,0,0,16.83,236Z"/><path class="cls-3" d="M24.08,235.41A3.67,3.67,0,0,0,20.21,239a24.26,24.26,0,0,0,.69,6.73c1.63,7,1.69,15.61,4.37,16.57s4.6-3.73,4.29-10.77c-.28-6.37,1-14.05-.81-15.13A13.76,13.76,0,0,0,24.08,235.41Z"/><path class="cls-3" d="M15.9,260.51c-3.81-5.37-12.15,20-13.14,27.26S5.21,290,9.94,279.4,17.4,262.63,15.9,260.51Z"/><path class="cls-3" d="M27.2,259.6c-5.61-3.46-3.39,23.13-1.46,30.22s3.1,1.05,3.35-10.51S29.4,261,27.2,259.6Z"/><polygon class="cls-3" points="25.3 290.67 24.8 287.24 28.71 287.41 28.62 290.8 25.3 290.67"/><polygon class="cls-3" points="1.71 289.15 2.66 285.82 6.16 287.57 4.68 290.63 1.71 289.15"/><path class="cls-8" d="M2.35,286.23l3.93,1.87s9.92-20.48,11.36-24,3-15.24,3-15.24L23,262.09c-1.08,10.72,1.36,26.53,1.36,26.53h4.8s.38-17.31.81-27.48c.41-9.45-.15-22.39-.24-24.19v-.06c0-.1,0-.15,0-.15l-16.06-.09H12.37c-.07.17-.13.34-.19.53-3.11,9.3-.49,23.83-.49,23.83C5.45,270.56,2.35,286.23,2.35,286.23Z"/><path class="cls-7" d="M5.27,289.48a16,16,0,0,0,2.15,4.19c1.73,2.57,2.47,2.39,2.3,3.07S0,293.52,0,293.52l2-5.39A28.72,28.72,0,0,1,5.27,289.48Z"/><path class="cls-7" d="M28.62,290.8a21.46,21.46,0,0,0,3.63,3.28c2.49,1.84,3.13,1.43,3.19,2.13s-10.23.21-10.23.21l.09-5.75A24.58,24.58,0,0,1,28.62,290.8Z"/><path class="cls-9" d="M12.36,236.64l17.33,0s.12-5.34.21-11.77c0-.87,0-1.77,0-2.68v-.91c0-1.83,0-3.67.05-5.45,0-1.15,0-2.27,0-3.34,0-4.26,0-7.76-.18-9.08a4.52,4.52,0,0,0-1.39-3l-.15-.11a5.27,5.27,0,0,0-2-1,5.73,5.73,0,0,0-1.63-.26,2.16,2.16,0,0,1-2,1.88c-2,0-3.46-2.08-3.46-2.08a15,15,0,0,0-2.46.24,7.31,7.31,0,0,0-1.89.6,18.12,18.12,0,0,0-2.07,1.21c-1,1.07.1,9.3.21,15.91v.08c0,3.05.13,5.63.17,6.73C13.27,227.13,12.36,236.64,12.36,236.64Z"/><path class="cls-5" d="M24,240.25c.37.81,6.25,1.16,6.69.72s-.43-24.28-.43-24.28c.54-8.87-.09-13.3-.85-15a4,4,0,0,0-2.21-2.19,6,6,0,0,0-2.46-.39s.44,5.85.38,13.84c0,1.77-.09,3.94-.18,6.26C24.52,227.33,23.67,239.63,24,240.25Z"/><path class="cls-5" d="M20.82,218.22c0,1.05-.05,2.18-.08,3.36,0,.92,0,1.87-.08,2.83-.24,7.75-.62,16.2-.84,16.43-.41.41-8,1.18-9.38-.37-.52-.61,2.17-21.27,2.17-23.92a34.15,34.15,0,0,0-.39-4.64c-.18-1.4-.42-2.84-.63-4.28a10.36,10.36,0,0,1,.11-5.09,10.54,10.54,0,0,1,.43-1.08c1.06-2.39,6.92-2.71,6.92-2.71l0,0A24.76,24.76,0,0,1,21,208.84C21,210.39,20.92,214,20.82,218.22Z"/><path class="cls-10" d="M20.74,221.58c0,.92,0,1.87-.08,2.83A14.32,14.32,0,0,1,17.1,224c-2-.52-4-7.89-4.88-12.09-.18-1.4-.42-2.84-.63-4.28a10.36,10.36,0,0,1,.11-5.09Z"/><path class="cls-11" d="M25.07,212.91c0,1.77-.09,3.94-.18,6.26l1.65-12.51-.79-1,.66-.79-1.72-5.77S25.13,204.92,25.07,212.91Z"/><path class="cls-11" d="M19.1,205.26l1,.44-.65,1.55s1.43,7.68,1.3,11.11l0-.15c.1-4.18.16-7.82.15-9.37a24.34,24.34,0,0,0-1.9-10.05l0,0Z"/><path class="cls-12" d="M50,211l-5.85,10.26a.48.48,0,0,1-.51.23l-4.63-1a.47.47,0,0,1-.31-.69l5.9-10.05a.47.47,0,0,1,.48-.23l4.6.82A.46.46,0,0,1,50,211Z"/><path class="cls-13" d="M50,211.14,44.18,221.4a.46.46,0,0,1-.5.23l-4.64-1a.46.46,0,0,1-.3-.69l5.89-10.06a.5.5,0,0,1,.49-.22l4.6.82A.47.47,0,0,1,50,211.14Z"/><path class="cls-3" d="M13.8,214.84S15.7,222.1,18,223c3.85,1.46,17.66-2,17.66-2l-.46-2.86s-14.36.07-14.41,0-1.55-4.54-1.55-4.54Z"/><path class="cls-3" d="M18.38,219.79a1.75,1.75,0,0,1,1.09-.56c3.49-.38,21.09-2.21,22.1-.43,1.12,2-22.4,4.93-23.2,4S16.77,221.58,18.38,219.79Z"/><path class="cls-5" d="M11.59,202.81a3.93,3.93,0,0,1,1.72-2.56c.76-.54,2.37-1.14,3.38.12,1.45,1.82,4.07,16.93,4.31,17.22s13.21.21,13.21.21l.39,4S21.78,224.1,18,223.6c-2.85-.37-4.45-8.64-4.45-8.64C11.77,207.69,11.28,204.7,11.59,202.81Z"/><path class="cls-3" d="M38.4,218.43l-.1-.3h0L39,217a1.9,1.9,0,0,1,.67-.68l1.36-.42a.85.85,0,0,1-.33.63,2.07,2.07,0,0,0-.41.67l.74-.33,1.85-.67a.78.78,0,0,1,1.05.64l.12.91a.46.46,0,0,1-.18.44l-1,.82a5.27,5.27,0,0,1-1.86.94l-2,.24Z"/><g class="cls-14"><path class="cls-8" d="M77.86,38.42v5.31A1.11,1.11,0,0,0,79,44.84h2a.59.59,0,0,1,.56.43,15.54,15.54,0,0,0,1.82,4.07h0L81.67,51a1.12,1.12,0,0,0,0,1.57l3.76,3.76a1.12,1.12,0,0,0,1.57,0l1.73-1.73h0a15.36,15.36,0,0,0,4.54,1.81h0v2.37a1.11,1.11,0,0,0,1.11,1.11H99.7a1.11,1.11,0,0,0,1.1-1.11V56.35h0a15.7,15.7,0,0,0,4.5-1.93h0L107,56.09a1.1,1.1,0,0,0,1.56,0l3.76-3.76a1.1,1.1,0,0,0,0-1.56l-1.42-1.42a.59.59,0,0,1-.09-.71,15.31,15.31,0,0,0,1.48-3.7.6.6,0,0,1,.57-.45h1.91a1.1,1.1,0,0,0,1.11-1.11V38.07A1.11,1.11,0,0,0,114.75,37h-2a.59.59,0,0,1-.56-.43,15.74,15.74,0,0,0-1.57-3.67.59.59,0,0,1,.08-.72l1.35-1.35a1.12,1.12,0,0,0,0-1.57l-3.76-3.76a1.1,1.1,0,0,0-1.56,0L105,27.2h0a15.6,15.6,0,0,0-4.1-1.71.6.6,0,0,1-.45-.57V23a1.11,1.11,0,0,0-1.11-1.11H94A1.11,1.11,0,0,0,92.92,23v2a.57.57,0,0,1-.43.56,15.84,15.84,0,0,0-3.68,1.58.59.59,0,0,1-.71-.09l-1.35-1.35a1.12,1.12,0,0,0-1.57,0l-3.75,3.76a1.1,1.1,0,0,0,0,1.57l1.41,1.41a.61.61,0,0,1,.1.71,15.43,15.43,0,0,0-1.5,3.71.57.57,0,0,1-.56.44H79A1.11,1.11,0,0,0,77.86,38.42Zm11.38-2.21a6.94,6.94,0,0,1,2.88-2.9c8.36-4.49,16.81,3.92,12.35,12.31a7.06,7.06,0,0,1-2.89,2.89C93.22,53,84.82,44.57,89.24,36.21Z"/><circle class="cls-8" cx="96.86" cy="40.9" r="5.59"/></g><g class="cls-14"><polygon class="cls-8" points="245.06 61.63 245.06 42.98 243.12 42.98 243.12 63.57 278.11 63.57 278.11 61.63 245.06 61.63"/><rect class="cls-8" x="246.97" y="56.34" width="3.39" height="3.81"/><rect class="cls-8" x="253.43" y="52.38" width="3.39" height="7.78"/><rect class="cls-8" x="259.89" y="56.34" width="3.39" height="3.81"/><rect class="cls-8" x="266.36" y="48.42" width="3.39" height="11.74"/><rect class="cls-8" x="272.82" y="52.38" width="3.39" height="7.78"/><path class="cls-8" d="M256.14,46.38l3.43,3.11a.74.74,0,0,0,.89.07l8.67-5.69.55.84.76-1.51.77-1.52-1.69.1-1.7.09.52.79L260.13,48l-3.42-3.1a.74.74,0,0,0-.88-.08l-8.36,5.3.77,1.23Z"/></g><g class="cls-14"><circle class="cls-8" cx="169.01" cy="11.3" r="3.03"/><path class="cls-8" d="M167.47,14.89h3.08a3,3,0,0,1,3,3V19a0,0,0,0,1,0,0h-9a0,0,0,0,1,0,0V17.85A3,3,0,0,1,167.47,14.89Z"/><circle class="cls-8" cx="181" cy="11.3" r="3.03"/><path class="cls-8" d="M179.46,14.89h3.08a3,3,0,0,1,3,3V19a0,0,0,0,1,0,0h-9a0,0,0,0,1,0,0V17.85a3,3,0,0,1,3-3Z"/><circle class="cls-8" cx="157.02" cy="11.3" r="3.03"/><path class="cls-8" d="M155.48,14.89h3.08a3,3,0,0,1,3,3V19a0,0,0,0,1,0,0h-9a0,0,0,0,1,0,0V17.85a3,3,0,0,1,3-3Z"/><path class="cls-8" d="M181,5.73a.22.22,0,0,1-.22-.22V.43H157.2V5.51a.22.22,0,0,1-.22.22.21.21,0,0,1-.21-.22V.22A.21.21,0,0,1,157,0H181a.22.22,0,0,1,.22.22V5.51A.22.22,0,0,1,181,5.73Z"/><path class="cls-8" d="M169,5.73a.22.22,0,0,1-.22-.22V.22A.22.22,0,0,1,169,0a.21.21,0,0,1,.21.22V5.51A.21.21,0,0,1,169,5.73Z"/><path class="cls-8" d="M181.76,6a.71.71,0,1,1-.71-.71A.71.71,0,0,1,181.76,6Z"/><path class="cls-8" d="M169.7,6a.71.71,0,1,1-.71-.71A.71.71,0,0,1,169.7,6Z"/><path class="cls-8" d="M157.66,6a.7.7,0,1,1-.7-.71A.7.7,0,0,1,157.66,6Z"/></g><path class="cls-15" d="M372.84,151.06l-15.21-4.79L351.41,166a6.13,6.13,0,0,0,4,7.67l15.21,4.8,6.22-19.71A6.12,6.12,0,0,0,372.84,151.06Zm-18.75,16.52-.25-2.66,1-.09.13,1.39,2.82-1,.33.93Zm1.9-6-.24-2.66,1-.09.13,1.39,2.82-1,.33.93Zm1.9-6-.24-2.66,1-.09.13,1.39,2.82-1,.33.93Zm12.73,16.24-11.13-3.52.42-1.33L371,170.42Zm1.9-6-11.13-3.52.42-1.33,11.13,3.51Zm1.91-6-11.13-3.51.42-1.34,11.13,3.51Z"/><g class="cls-14"><path class="cls-8" d="M331.86,30.48a10.79,10.79,0,0,1,3.83-2.24l.27,1.94,6.26-4.87-7.35-3,.27,2a14.49,14.49,0,0,0-5.55,4.07A13.67,13.67,0,0,0,326.47,36a13.1,13.1,0,0,0,1.72,7.72,12.79,12.79,0,0,0,5.6,5.14,12.25,12.25,0,0,1-4.67-5.6,11.6,11.6,0,0,1-.6-7A11.08,11.08,0,0,1,331.86,30.48Z"/><path class="cls-8" d="M351.33,32.05a12.67,12.67,0,0,0-5.9-5.21,12.23,12.23,0,0,1,5,5.68,11.55,11.55,0,0,1,.63,7.2,11.06,11.06,0,0,1-3.58,5.91,10.65,10.65,0,0,1-3.75,2.07l-.27-1.88-6.23,4.91,7.36,2.94-.3-2.09a14.33,14.33,0,0,0,5.39-3.75A13.72,13.72,0,0,0,353.09,40,13.07,13.07,0,0,0,351.33,32.05Z"/><circle class="cls-8" cx="339.79" cy="38" r="4.73" transform="translate(224.74 359.97) rotate(-76.72)"/></g><rect class="cls-8" x="166.02" y="260.31" width="58.13" height="16.33"/><path class="cls-8" d="M336.25,90V254.32a7.2,7.2,0,0,1-7.19,7.2H61.11a7.2,7.2,0,0,1-7.19-7.2V90a7.18,7.18,0,0,1,7.18-7.19h268A7.18,7.18,0,0,1,336.25,90Z"/><path class="cls-8" d="M336.25,90V245.28H53.92V90a7.18,7.18,0,0,1,7.17-7.19h268A7.18,7.18,0,0,1,336.25,90Z"/><rect class="cls-16" x="60.86" y="89.96" width="268.45" height="147.73"/><path class="cls-8" d="M151.34,275.06h87.49a3.65,3.65,0,0,1,3.65,3.65v1.45a0,0,0,0,1,0,0h-94.8a0,0,0,0,1,0,0v-1.45a3.65,3.65,0,0,1,3.65-3.65Z"/><path class="cls-8" d="M149,136.92H72.87a1.23,1.23,0,0,1-1.23-1.23V98.84a1.24,1.24,0,0,1,1.23-1.24H149a1.24,1.24,0,0,1,1.23,1.24v36.85A1.23,1.23,0,0,1,149,136.92ZM72.87,98.49a.35.35,0,0,0-.35.35v36.85a.35.35,0,0,0,.35.35H149a.35.35,0,0,0,.34-.35V98.84a.35.35,0,0,0-.34-.35Z"/><path class="cls-8" d="M94.6,110.08H86.51v5.34h7.17v3.38H86.51v5.64H94.6v3.48H82.25V106.61H94.6Z"/><path class="cls-8" d="M109.5,106.64c5.13,0,7.69,3,7.69,6.52a6.14,6.14,0,0,1-4.85,6.13l5.09,8.63h-4.94l-4.69-8.29h-2v8.29h-4.26V106.64Zm-.15,3.53h-3.57v6.25h3.57c2.38,0,3.45-1.25,3.45-3.17S111.73,110.17,109.35,110.17Z"/><path class="cls-8" d="M132,119.75h-3.57v8.17h-4.27V106.64H132c5.12,0,7.68,2.89,7.68,6.58C139.63,116.46,137.43,119.75,132,119.75Zm-.19-3.45c2.41,0,3.48-1.19,3.48-3.08s-1.07-3.11-3.48-3.11h-3.38v6.19Z"/><rect class="cls-2" x="72.08" y="145.34" width="77.72" height="81.06" rx="0.82"/><rect class="cls-2" x="157.86" y="153.52" width="159.5" height="72.88" rx="2.13"/><path class="cls-17" d="M177,220.73a25.07,25.07,0,0,1-7.9-1.3l.31-.83c.11.05,12,4.35,18.72-3.29,3-3.37,5.08-8.16,7.1-12.79,2.69-6.14,5.22-11.94,9.46-13,3.33-.8,6.05,2.28,9.21,5.86,4,4.48,8.89,10.07,16.83,10.07,7.68,0,12.09-7.63,16-14.36,3.26-5.64,6.35-11,10.92-11,5,0,8.41,3.84,11.7,7.55s6.43,7.26,11,7.26c9.21,0,21.89-28.21,22-28.49l.81.36c-.52,1.18-13,29-22.82,29-5,0-8.4-3.84-11.69-7.55s-6.44-7.25-11-7.25c-4.06,0-7,5.12-10.15,10.53-4,6.94-8.56,14.81-16.75,14.81-8.34,0-13.42-5.76-17.5-10.38-3.09-3.5-5.53-6.25-8.33-5.58-3.81.92-6.26,6.53-8.86,12.46-2,4.7-4.18,9.55-7.24,13C185.42,219.72,180.87,220.73,177,220.73Z"/><ellipse class="cls-17" cx="303.26" cy="166.42" rx="2.72" ry="2.42"/><ellipse class="cls-17" cx="257.47" cy="180.37" rx="2.72" ry="2.42"/><ellipse class="cls-17" cx="204.79" cy="189.98" rx="2.72" ry="2.42"/><path class="cls-17" d="M283.11,122.11a10.66,10.66,0,0,0,3.28,7.7l-7.11,7.12a20.78,20.78,0,0,1,14.55-35.6v10.06A10.73,10.73,0,0,0,283.11,122.11Z"/><path class="cls-17" d="M314.61,122.11H304.55a10.72,10.72,0,0,0-10.72-10.72V101.33A20.78,20.78,0,0,1,314.61,122.11Z"/><path class="cls-17" d="M314.61,122.11a20.78,20.78,0,0,1-35.33,14.82l7.11-7.12a10.71,10.71,0,0,0,18.16-7.7Z"/><rect class="cls-17" x="233.51" y="112.33" width="32.71" height="2.1"/><rect class="cls-17" x="233.51" y="121.06" width="32.71" height="2.1"/><rect class="cls-17" x="233.51" y="129.78" width="32.71" height="2.1"/><rect class="cls-18" x="86.05" y="154.82" width="57.96" height="1.45"/><rect class="cls-19" x="86.05" y="158.59" width="43.28" height="1.45"/><rect class="cls-20" x="76.1" y="154.82" width="7.29" height="5.33"/><rect class="cls-21" x="86.05" y="169.01" width="57.96" height="1.45"/><rect class="cls-22" x="86.05" y="172.77" width="43.28" height="1.45"/><rect class="cls-23" x="76.1" y="169.01" width="7.29" height="5.33"/><rect class="cls-24" x="86.05" y="183.2" width="57.96" height="1.45"/><rect class="cls-25" x="86.05" y="186.96" width="43.28" height="1.45"/><rect class="cls-26" x="76.1" y="183.2" width="7.29" height="5.33"/><rect class="cls-7" x="86.05" y="197.39" width="57.96" height="1.45"/><rect class="cls-7" x="86.05" y="201.15" width="43.28" height="1.45"/><rect class="cls-7" x="76.1" y="197.39" width="7.29" height="5.33"/><rect class="cls-27" x="86.05" y="211.58" width="57.96" height="1.45"/><rect class="cls-28" x="86.05" y="215.34" width="43.28" height="1.45"/><rect class="cls-29" x="76.1" y="211.58" width="7.29" height="5.33"/><rect class="cls-30" x="168.66" y="122.95" width="2.5" height="11.92"/><rect class="cls-7" x="172.22" y="117.48" width="2.5" height="17.39"/><rect class="cls-31" x="182.69" y="115.15" width="2.5" height="19.72"/><rect class="cls-7" x="186.25" y="113.07" width="2.5" height="21.79"/><rect class="cls-32" x="196.72" y="121.97" width="2.5" height="12.89"/><rect class="cls-7" x="200.29" y="109.99" width="2.5" height="24.87"/><rect class="cls-33" x="210.75" y="106.22" width="2.5" height="28.65"/><rect class="cls-7" x="214.32" y="113.11" width="2.5" height="21.76"/><rect class="cls-2" x="169.11" y="137.02" width="47.26" height="0.95"/><rect class="cls-2" x="169.11" y="140.33" width="47.26" height="0.95"/><path class="cls-3" d="M308.06,229.83a1.71,1.71,0,0,0-1.24.12c-3.2,1.6-19.28,9.76-19.15,11.85.13,2.32,21.84-7.6,22-8.82S310.42,230.46,308.06,229.83Z"/><path class="cls-3" d="M290.57,239.45l-.14-.29h0l-1.24-.33a2,2,0,0,0-1,0l-1.32.3s.25.61.72.58a2,2,0,0,1,.77.2l-.77.28-1.83.84a.8.8,0,0,0-.31,1.21l.56.75a.5.5,0,0,0,.45.19l1.35-.15a5.49,5.49,0,0,0,2-.64l1.67-.92Z"/><path class="cls-3" d="M313.44,212.46a2.56,2.56,0,0,1,1.07,2.52c-.59,4.37-2.81,19-6.07,18.78-3.82-.23-1.08-13.07.18-16.69C309.68,214.05,311.45,211.18,313.44,212.46Z"/><path class="cls-34" d="M316.16,216.49l-.35,1.25-3,10.58-2.44-.72h0l-3.82-1.13a58,58,0,0,1,.74-7.12c.41-3,.56-5.12,1.45-5.84.05,0,2.91-1.71,3-1.73a2.89,2.89,0,0,1,.35-.24l1.51,1.8Z"/><path class="cls-5" d="M301.28,232.52l2,3.63.27.5s4.51-1.6,6-3l.14-.13c1.51-1.52,3.32-6.51,3.32-6.51l-4.21-14.26s-1.7,2-2.22,7.7-.59,8.82-.78,9.32S301.28,232.52,301.28,232.52Z"/><path class="cls-5" d="M303.3,236.15l.27.5s4.51-1.6,6-3l.14-.13L307.51,221s-.15,6.08-.27,8.56S307,235.3,303.3,236.15Z"/><path class="cls-3" d="M320.43,201.08c.22,2.67-2,7.3-2,7.3l.5,3,.12,2.4L315,216.27l-1.59-4.18-.4-2.77s-2.54-.14-3-2.16-3.33-9.25,2.43-10.72S320.21,198.42,320.43,201.08Z"/><path class="cls-3" d="M313.19,245.52a3.76,3.76,0,0,1,4.84,2.34,25.39,25.39,0,0,1,1.34,6.77c.5,7.32,3,15.71.69,17.44s-5.59-2.25-7.39-9.21c-1.63-6.28-5.19-13.37-3.73-15A14,14,0,0,1,313.19,245.52Z"/><path class="cls-3" d="M317.66,268.62C322,263.5,328.24,290,328.6,297.44s-2.67,2-6.55-9.12S316,270.63,317.66,268.62Z"/><path class="cls-3" d="M323.3,271.48s3.06,4.87,5.32,24.76l-3.74,1.39-8.69-24.47Z"/><polygon class="cls-3" points="329.21 299.72 328.62 296.25 324.88 297.63 326.03 300.9 329.21 299.72"/><path class="cls-7" d="M326,300.9a21.72,21.72,0,0,1-2.48,4.31c-1.83,2.58-2.58,2.38-2.42,3.08s10-3,10-3l-1.9-5.54A24.84,24.84,0,0,0,326,300.9Z"/><path class="cls-3" d="M322.73,248.11a3.76,3.76,0,0,1,1.92,5A25,25,0,0,1,321,259c-4.65,5.67-8.58,13.5-11.46,13.17s-2.8-5.47.66-11.77c3.12-5.69,5.68-13.3,7.83-13.46A14.06,14.06,0,0,1,322.73,248.11Z"/><path class="cls-3" d="M308.44,270.93c5.49-3.87,4.87,23.32,3.34,30.64s-3.09,1.26-4-10.47S306.28,272.44,308.44,270.93Z"/><path class="cls-3" d="M313.4,272.55a12.65,12.65,0,0,0-.7,2.37,111.77,111.77,0,0,1-.16,24.81l-4,.5s-4.56-28.6-3.11-31.2S313.4,272.55,313.4,272.55Z"/><polygon class="cls-3" points="312.33 303.26 312.54 299.73 308.59 300.23 308.96 303.67 312.33 303.26"/><path class="cls-7" d="M308.79,302.37a16.12,16.12,0,0,1-3.49,3.28c-2.53,1.88-3.19,1.46-3.25,2.17s10.43.22,10.43.22l-.1-5.86A27.08,27.08,0,0,0,308.79,302.37Z"/><path class="cls-35" d="M308.16,248.92c.9-4.17,7.73-3.34,7.73-3.34s5.22.93,6.8,10.41a101.68,101.68,0,0,1,1.3,13.83s4.22,14,4.94,26.62l-4.61,1.5s-6.72-18.87-8.32-23.77C316,274.17,307.25,253.09,308.16,248.92Z"/><path class="cls-35" d="M310.13,252.34c.77-2.41.79-4.06,1.69-4.64,3.59-2.3,13.91,1.41,13.91,1.41a18,18,0,0,1-2.26,11.36,84.2,84.2,0,0,1-9.87,12.92c1.5,7.23-.78,26.53-.78,26.53l-4.64,0s-4.25-22.44-3.57-29.25C305.09,265.86,307.93,259.17,310.13,252.34Z"/><path class="cls-36" d="M307.75,224.55c0,1.09,0,2.23,0,3.4,0,.66,0,1.33,0,2s0,1.33,0,2,0,1,0,1.56v.92c0,.93,0,1.85,0,2.73.1,6.55.21,12,.21,12l17.66,0s-.93-9.69-.8-13.25c0-1.12.12-3.74.17-6.85v-.08c.11-6.73,1.25-15.13.21-16.21a17.22,17.22,0,0,0-2.11-1.24,7.28,7.28,0,0,0-1.92-.6c-1.29-.24-2.38-.34-2.38-.34s-1.6,2.22-3.65,2.21a2.19,2.19,0,0,1-2.08-1.91,3.94,3.94,0,0,0-.87.08,5.17,5.17,0,0,0-.8.18,3.71,3.71,0,0,0-.39.14,5.09,5.09,0,0,0-1.61.93.72.72,0,0,0-.15.11,4.61,4.61,0,0,0-1.42,3C307.78,216.64,307.74,220.21,307.75,224.55Z"/><path class="cls-5" d="M307.14,253.45c.44.45,5.23.2,5.61-.63.29-.63-.24-13.18-.61-21.49-.07-1.71.84-11.3,1.17-16.69a4,4,0,0,0,0-.49c0-.65-.22-1.33-.31-2.16a1.54,1.54,0,0,1,.18-1.17,2.29,2.29,0,0,0-.73,0l-.41,0h0c-.21,0-.43.08-.68.14s-.43.12-.66.21a4,4,0,0,0-2.26,2.23c-.77,1.77-1.41,6.27-.87,15.28v.05s-.06,1.82-.15,4.46C307.19,240.21,306.82,253.14,307.14,253.45Z"/><path class="cls-5" d="M327.57,252.6c-1.34,1.57-9.13.79-9.55.36-.23-.23-1-8.77-1.45-16.63,0-.05,0-.08,0-.13-.06-1.13-.1-2.25-.15-3.32l0-.68c0-.67,0-1.33-.05-1.95-.1-4.27-.15-14.06-.15-15.64a1.15,1.15,0,0,1,.05-.36c.2-.58,1-.44,2.39-2.73a3.57,3.57,0,0,0,.28-1s.27,0,.7,0h.51a15.82,15.82,0,0,1,1.64.16c1.67.25,3.55.82,4.11,2.09.8,1.79,1,3.13.55,6.3a67.25,67.25,0,0,0-1,9.09C325.37,230.91,328.11,252,327.57,252.6Z"/><path class="cls-37" d="M316.38,232.2c.05,1.28.11,2.63.19,4a4.43,4.43,0,0,0,3.75-.07c2.82-1.61,4.28-9.52,4.28-9.52Z"/><path class="cls-38" d="M319,221.8s-1,6.23-1.87,6.46a2.66,2.66,0,0,1-1.46,0l1.66,1.52s2.13-1.84,2.18-2S319,221.8,319,221.8Z"/><path class="cls-5" d="M316.23,214.25a1.3,1.3,0,0,1,1.16,1.29,13,13,0,0,0,.83-1,12.65,12.65,0,0,0,1.72-3.94h-1a3.6,3.6,0,0,1-.28,1C317.26,213.81,316.43,213.67,316.23,214.25Z"/><path class="cls-5" d="M324.26,226.91s-2.34,7.62-4.68,8.51c-3.92,1.49-13.25-8-13.25-8l2-3.07s9.49,5.63,9.54,5.56.81-4.28.81-4.28Z"/><path class="cls-3" d="M320.32,232.33a1.76,1.76,0,0,0-.73-1c-3-2-18.07-11.84-19.82-10.69-1.94,1.27,17.48,15.14,18.63,14.69S320.94,234.69,320.32,232.33Z"/><path class="cls-5" d="M326.51,214.64a4,4,0,0,0-1.74-2.61c-.78-.54-2.42-1.15-3.45.13-1.48,1.85-3,13.61-3,13.61a16.52,16.52,0,0,1-.68,2.89c-.25.28-2.29-.58-2.29-.58l-2.6,5.13s2.94,3,6.8,2.52c1.7-.22,3.1-3.17,4-5.58.61-1.7,1-3.12,1-3.12.27-1.09.5-2.08.71-3C326.46,218.75,326.78,216.29,326.51,214.64Z"/><path class="cls-3" d="M303.06,221.94l.16-.28h0l-.41-1.22a2,2,0,0,0-.53-.81l-1.27-.71a.9.9,0,0,0,.2.7,2,2,0,0,1,.26.75l-.66-.48-1.71-1.06a.8.8,0,0,0-1.18.42l-.31.88a.47.47,0,0,0,.09.48l.88,1a5.15,5.15,0,0,0,1.65,1.32l1.76.79Z"/><path class="cls-5" d="M312.25,215.55s.58-2,1.06-1.4c0-.65-.22-1.33-.31-2.16a1.54,1.54,0,0,1,.18-1.17,2.29,2.29,0,0,0-.73,0A7.58,7.58,0,0,0,312.25,215.55Z"/><path class="cls-5" d="M315.89,228.4l-2.56,5.09a.39.39,0,0,1-.56.16l-.79-.48a.39.39,0,0,1-.15-.51l2.45-5.09a.39.39,0,0,1,.54-.18l.91.48A.4.4,0,0,1,315.89,228.4Z"/><path class="cls-5" d="M302.09,231.93l2.2,4.47a.19.19,0,0,1-.09.25l-.89.37a.19.19,0,0,1-.24-.09l-2.14-4.37a.18.18,0,0,1,.08-.24l.82-.47A.19.19,0,0,1,302.09,231.93Z"/><path class="cls-39" d="M321.58,203.9c-.11-.78-.7-.77-1-1.69s.29-3-.78-5.38-4.83-1.6-5.58-2.47a1.55,1.55,0,0,0-2.3-.21c-.36.52-.47,1.34-1.67.61s-2.09.3-1.9.89a1.42,1.42,0,0,1-.47,1.93c-1,.78-.77,2.57,1,2.18a2.26,2.26,0,0,1,2.79,1.42,2.31,2.31,0,0,0,1.63.9,9.85,9.85,0,0,0,.27,1.56c.15.73.4,2.23.05,2.7-.47.63-1.38.11-2.16-.58s-1.94.23-1.94.23.78,2.85,1.57,3.07,1.48.26,3.18-.46.52-4.76.35-5.4a2.26,2.26,0,0,0,0-.45,1.16,1.16,0,0,1,2.15-.47c.79,1.17-.48,2.73-.47,3.84s2.67,3.11,4,2.09.74-2.06.55-2.68S321.7,204.69,321.58,203.9Z"/><path class="cls-3" d="M135.91,246.2l15.34-.64.68-26.25-1.06-6.59-7.09-2.61-3.67,1.29a5.83,5.83,0,0,0-4.58,5.7l1,17.91Z"/><path class="cls-3" d="M142.07,206.88v5.28a7.86,7.86,0,0,0,3.72.66c1.41,0,1.72-.66,1.72-.66v-1.95Z"/><path class="cls-3" d="M152.68,224.06c-.68-1.43-11.36,3.2-14.32,4.62s-6,3.13-5.22,4.73,4,.32,7-1.1S153.36,225.48,152.68,224.06Z"/><path class="cls-3" d="M141.46,202.94c0,.19,0,.37,0,.55s0,.12,0,.19c-.13,3.13,1.88,6.48,4.91,6.94h.17c.65.08,3,.28,3.84-.67a7.93,7.93,0,0,0,1.9-4.53,18,18,0,0,0-.25-2.28c0-.44.23-1.8.24-2.4a5.25,5.25,0,0,0-5.2-5.57C142.08,195.18,141.31,199.58,141.46,202.94Z"/><path class="cls-3" d="M133.61,233.94c1.73.44,5.21-9.35,6.38-13.62s1.33-7.83-.78-8.37-3.67,2.67-4.69,7S131.89,233.5,133.61,233.94Z"/><path class="cls-35" d="M132.69,227s1.11-15.84,6.72-15.49-1.92,16.91-1.92,16.91Z"/><path class="cls-5" d="M132.53,227.64l2.45.43.48.09,1.54.27,1.8.32s.32-.8.19-1a3.36,3.36,0,0,0-1.05-.37l-.73-.18c-.62-.14-1.33-.29-2-.41l-.26-.05a7.89,7.89,0,0,0-2.23-.18l-.06,0C132.47,226.76,132.53,227.64,132.53,227.64Z"/><path class="cls-40" d="M134.92,220.14s0,4.29,0,6.59c0,.65,0,1.15,0,1.34l.48.09,1.54.27a1.13,1.13,0,0,1,0-.15c.06-.36.12-.74.17-1.09a9.43,9.43,0,0,0,.14-1.56C137.23,225.27,134.92,220.14,134.92,220.14Z"/><path class="cls-3" d="M148.31,243.16c-1.58.5-2.64,3.18-2.33,5.81a42.81,42.81,0,0,0,1.78,8c2.56,8,4.19,18.54,6.44,18.74s3.49-6.1,2-14.63c-1.39-7.71-2.43-17.74-4-18.4C151.29,242.35,149.69,242.72,148.31,243.16Z"/><path class="cls-3" d="M155.69,274.66c-6.12-2.15-3.35,26-1.3,32.06s2.83-4.3,3.2-14.7S158.1,275.51,155.69,274.66Z"/><polygon class="cls-3" points="153.16 306.65 152.73 303.32 157.29 303.43 157.24 306.79 153.16 306.65"/><path class="cls-3" d="M136.53,245.06c-1.55.54-2.49,3.23-2,5.85a44,44,0,0,0,2.18,8c3,7.94,5.11,18.4,7.37,18.55s3.2-6.16,1.24-14.63c-1.78-7.66-3.32-17.64-5-18.27C139.48,244.2,137.89,244.59,136.53,245.06Z"/><path class="cls-3" d="M145.47,275.53c-5-4.19-11.88,23.32-12,29.71s4-3.08,7.87-12.73S147.44,277.18,145.47,275.53Z"/><polygon class="cls-3" points="132.82 304.33 133.61 300.67 137.85 302.12 136.72 305.56 132.82 304.33"/><path class="cls-7" d="M157.24,306.55s.42,1.2,2.9,2.75,3.14,1.22,3.2,1.8-10.34.1-10.34.1l.16-4.78S157.24,306.43,157.24,306.55Z"/><path class="cls-7" d="M136.85,304.91a10.6,10.6,0,0,0,1.26,3.15c1,1.81,2.32,1.9,2,2.36s-8.54-2.51-8.54-2.51l1.33-4.23Z"/><path class="cls-5" d="M133.27,300.73l4.79,1.67s8.82-19.09,9.23-27.06a56.17,56.17,0,0,0-.28-7.23c-.4-4.71-1.14-10.33-1.8-15-.75-5.23-1.41-9.19-1.41-9.19l-9.4,1s-2.07,3.15-.09,11.9a174.16,174.16,0,0,0,5.63,18.41C140.05,275.65,135.77,285.62,133.27,300.73Z"/><path class="cls-41" d="M141.4,250.55A60.13,60.13,0,0,0,147,268.11c-.4-4.71-1.14-10.33-1.8-15-.17-.6-.26-1-.26-1Z"/><path class="cls-5" d="M153.46,244.05s4.93,17.6,5.14,29.62-1,30-1,30h-5.15s-2.14-21.3-.83-29.18c0,0-10.91-16.69-10.81-30.45"/><path class="cls-35" d="M153.58,244.59s-3-12.94-.68-18.77c0-.1.08-.19.11-.29a10.24,10.24,0,0,0,.45-1.55,15,15,0,0,0,0-5.18c-.2-3.54-1-5.27-2.09-6.26S144,209.79,139.73,211c-2.86.81-6.15,4.18-4.5,14.44a57.18,57.18,0,0,1,.64,11.42,39.9,39.9,0,0,1-1.47,8.09Z"/><path class="cls-3" d="M163.34,230.14c1.37-1.12-4.43-9.65-7.16-13.08s-5.49-5.66-7.15-4.29,0,4.51,2.84,7.85S162,231.26,163.34,230.14Z"/><path class="cls-3" d="M155.76,225.62s3.81,5.11,6.83,5.13c2.21,0,7-10.39,7-10.39l-3.53-1.11s-3.72,6.07-3.81,6.05-2.47-3.21-2.47-3.21Z"/><path class="cls-3" d="M172.48,211.39c-1.38-.75-7.3,9.15-8.86,12s-3,6-1.47,6.83,3.41-2.05,5-4.91S173.85,212.14,172.48,211.39Z"/><path class="cls-3" d="M170,213.67a2,2,0,0,0,.26-1.63,12.68,12.68,0,0,1,0-1.85.89.89,0,0,1,.29-.71c.25-.16.58,0,.86.05a1.48,1.48,0,0,0,1.61-.25c.3-.37.38-1.4.8-1.64a.47.47,0,0,1,.56,0c.78.51.66,1.6.48,2.41a4.54,4.54,0,0,1-1.84,3.07,7.45,7.45,0,0,0-2,1.87"/><path class="cls-42" d="M153,225.53a10.24,10.24,0,0,0,.45-1.55c-.55-.72-2.48-3.06-4.71-5.63C148.52,219.66,149.49,223,153,225.53Z"/><path class="cls-35" d="M147.76,212.86s3.12-2.88,7.66,3.14c3.66,4.87,4.64,6,4.64,6l-4.42,4.17S143.76,217,147.76,212.86Z"/><path class="cls-5" d="M159.91,221.65c-.35-.05-4.95,3.6-4.92,4.14,0,.27.72.79.72.79l4.85-4.13S160.15,221.69,159.91,221.65Z"/><path class="cls-7" d="M152.68,199.19a3.36,3.36,0,0,1-1.48,2.74c-1.37,1.06-2,3.59-2,5.46a16,16,0,0,1,0,1.83,3.36,3.36,0,0,1-.51,1.29c-.2.29-.44.55-.63.85a9.39,9.39,0,0,0-.89,2.76,3,3,0,0,1-1.31,2.08,3.6,3.6,0,0,1-1.6.31c-1.27.05-2.54.1-3.81.05a8.25,8.25,0,0,1-3.51-.66,2.48,2.48,0,0,1-1-2.19,8.71,8.71,0,0,1,.42-3,10.81,10.81,0,0,0,.59-2,20,20,0,0,0-.1-2.32,6.43,6.43,0,0,1,1-3.05,14.67,14.67,0,0,0,1.2-3.26,8,8,0,0,1,1.95-3.35,7.36,7.36,0,0,1,3.95-2.62c2.86-.57,7.28.43,7.69,4A9.08,9.08,0,0,1,152.68,199.19Z"/><path class="cls-15" d="M25.05,91.84a18.36,18.36,0,0,0-11.94,4.39L13.35,95a.83.83,0,0,0-.22-.75L9.66,90.8a.82.82,0,0,0-1.38.42L8,92.62a.83.83,0,0,1-.65.65L6,93.55a.82.82,0,0,0-.42,1.39L9,98.4a.81.81,0,0,0,.74.22L11,98.38a18.48,18.48,0,1,0,14.09-6.54Zm0,33.13A14.64,14.64,0,0,1,14.19,100.5l2.57,2.56a11,11,0,1,0,1-1l-2.57-2.57A14.65,14.65,0,1,1,25.05,125ZM22,108.31a3.64,3.64,0,1,0,1-1l-2.61-2.61a7.32,7.32,0,1,1-1,1Z"/></g></g></g></svg>