<svg xmlns="http://www.w3.org/2000/svg" viewBox="0 0 437.74 264.27"><defs><style>.cls-1{fill:#5d4efa;}.cls-2{fill:#3d4a5d;}.cls-3{fill:#4cc2fc;}.cls-4{fill:#b56cf7;}.cls-5{fill:#006ae6;}.cls-6{fill:#00244f;}</style></defs><title>connected-business</title><g id="Layer_2" data-name="Layer 2"><g id="Layer_1-2" data-name="Layer 1"><rect class="cls-1" x="163.45" y="262.27" width="2" height="2"/><rect class="cls-1" x="167.45" y="262.27" width="2" height="2"/><rect class="cls-1" x="171.45" y="262.27" width="2" height="2"/><rect class="cls-1" x="175.45" y="262.27" width="2" height="2"/><rect class="cls-1" x="179.45" y="262.27" width="2" height="2"/><rect class="cls-1" x="183.45" y="262.27" width="2" height="2"/><rect class="cls-1" x="187.45" y="262.27" width="2" height="2"/><rect class="cls-1" x="191.45" y="262.27" width="2" height="2"/><rect class="cls-1" x="195.45" y="262.27" width="2" height="2"/><rect class="cls-1" x="199.45" y="262.27" width="2" height="2"/><rect class="cls-1" x="203.45" y="262.27" width="2" height="2"/><rect class="cls-1" x="207.45" y="262.27" width="2" height="2"/><rect class="cls-1" x="211.45" y="262.27" width="2" height="2"/><rect class="cls-1" x="215.45" y="262.27" width="2" height="2"/><rect class="cls-1" x="219.45" y="262.27" width="2" height="2"/><rect class="cls-1" x="223.45" y="262.27" width="2" height="2"/><path class="cls-1" d="M102,64c25.12,0,41.12,10.88,41.12,28,0,11.84-7.36,21.28-19.2,24.64C138,119.4,147,130.44,147,145c0,19-16.64,31-43,31H49.06V64Zm-24.64,44.8h23c8.32,0,13.6-4.48,13.6-11.68s-5.28-11.36-13.6-11.36h-23Zm0,45.29h23c10.56,0,17.12-4.64,17.12-12.64,0-7.52-6.56-12.17-17.12-12.17h-23Z"/><path class="cls-1" d="M212.26,64c28.64,0,45.12,14.08,45.12,39,0,26.24-16.48,41.45-45.12,41.45H191.94v31.52H163.46V64Zm-20.32,58.08h18.88c12.48,0,19.68-6.23,19.68-18.08,0-11.68-7.2-17.6-19.68-17.6H191.94Z"/><path class="cls-1" d="M370.18,176.05,370,103.24l-26.88,61.61H324.58L297.7,103.24v72.81H272.26V63.88h31.2l30.4,66.73,30.4-66.73h31V176.05Z"/><path class="cls-2" d="M102.85,155.13H80.38v-2h22.09a36.15,36.15,0,0,0,4.93-.26,16.46,16.46,0,0,0,8.6-3.41,9.78,9.78,0,0,0,2.54-3.27,11.06,11.06,0,0,0,0-9.06,10.38,10.38,0,0,0-.81-1.36l-.34-.43L119,134.1l.38.48a12,12,0,0,1,1,1.65,12.4,12.4,0,0,1,1.11,6.52,12.69,12.69,0,0,1-1.14,4.32,12,12,0,0,1-3,3.91c-2.31,2-5.55,3.31-9.65,3.87A36.57,36.57,0,0,1,102.85,155.13Z"/><path class="cls-2" d="M110,131.06a29.5,29.5,0,0,0-7.18-.73H81.38v.16h-2v-1.16a1,1,0,0,1,1-1h22.43a33,33,0,0,1,7.65.79Z"/><rect class="cls-2" x="79.38" y="138.59" width="2" height="15.54"/><path class="cls-2" d="M102.47,109.85H80.38v-2h21.46c1.17,0,2.37,0,3.53-.11a12.57,12.57,0,0,0,7.73-3.19,9.75,9.75,0,0,0,2.88-6.5,11.06,11.06,0,0,0-.76-5.11,9.88,9.88,0,0,0-.64-1.24l-.32-.48,1.65-1.12.32.47a10,10,0,0,1,.82,1.55,13.43,13.43,0,0,1,.93,6,11.67,11.67,0,0,1-3.49,7.82,14.57,14.57,0,0,1-8.95,3.74C104.52,109.83,103.48,109.85,102.47,109.85Z"/><path class="cls-2" d="M107.62,87.23a27.75,27.75,0,0,0-6.05-.43H81.38V87h-2V85.8a1,1,0,0,1,1-1h21.18a29.24,29.24,0,0,1,6.5.48Z"/><rect class="cls-2" x="79.38" y="94.49" width="2" height="14.35"/><path class="cls-2" d="M108.25,177l0-2,2.1-.06a35,35,0,0,0,3.81-.26l2.06-.18,4.4-.7c1.43-.31,2.91-.63,4.48-1.06a42.75,42.75,0,0,0,10.71-4.6,28,28,0,0,0,9.61-9.54,25.46,25.46,0,0,0,2.83-6.89c.09-.36.15-.76.22-1.16l.12-.71c0-.2.08-.45.12-.71a6.6,6.6,0,0,0,.16-1.11l.16-3.09,0-.93a28.33,28.33,0,0,0-4.81-15.4,26,26,0,0,0-13.28-9.84l-.74-.24c-.43-.14-.84-.28-1.25-.37l-2.14-.51a1,1,0,0,1-.07-1.92l2.08-.67,2-.8a25.21,25.21,0,0,0,6.94-4.55,23.48,23.48,0,0,0,7.26-14.15,24,24,0,0,0-2.57-14.71,26.59,26.59,0,0,0-9.61-9.45A42.77,42.77,0,0,0,121.89,67l-2.77-.61a20.14,20.14,0,0,0-2-.38c-.56-.07-1.1-.16-1.62-.24-.9-.14-1.74-.27-2.52-.32l-3.36-.28L105,65l0-2,4.63.13h.13l3.33.29c.85,0,1.74.19,2.69.33.5.08,1,.17,1.56.24.72.08,1.45.25,2.17.4l2.81.63a44.94,44.94,0,0,1,11.35,4.6,28.45,28.45,0,0,1,10.35,10.2,26.1,26.1,0,0,1,2.81,15.95A25.55,25.55,0,0,1,139,111.18a27.59,27.59,0,0,1-7.51,4.92l-1.06.43.33.11.7.23a28,28,0,0,1,14.34,10.62A30.37,30.37,0,0,1,150.94,144l0,1-.17,3.14a7.46,7.46,0,0,1-.18,1.42c0,.22-.09.43-.12.65s-.08.5-.12.72c-.07.45-.15.9-.26,1.34a27.34,27.34,0,0,1-3,7.42,30.13,30.13,0,0,1-10.27,10.21,45.85,45.85,0,0,1-11.23,4.82c-1.63.44-3.2.78-4.59,1.08l-.33.07-4.25.66-2.11.19c-1.65.16-3,.26-4,.27Z"/><path class="cls-2" d="M75.8,177.05H52.06a1,1,0,0,1-1-1V92.6h2v82.45H75.8Z"/><path class="cls-2" d="M105,65h-53v-.37h-1V64a1,1,0,0,1,1-1h53Z"/><path class="cls-3" d="M300.7,177.05H275.26a1,1,0,0,1-1-1V141.24h2v33.81H299.7V103.24a1,1,0,0,1,.8-1,1,1,0,0,1,1.12.57l26.61,61h17.26l26.62-61a1,1,0,0,1,1.91.4l.16,72.8h-2L372,108l-25,57.24a1,1,0,0,1-.92.6H327.58a1,1,0,0,1-.92-.6L301.7,108v68A1,1,0,0,1,300.7,177.05Z"/><path class="cls-3" d="M336.86,131.61A1,1,0,0,1,336,131L305.82,64.88H276.26V79.14h-2V63.88a1,1,0,0,1,1-1h31.2a1,1,0,0,1,.91.59l29.49,64.72,29.49-64.72a1,1,0,0,1,.91-.59h12.2v2H367.91L337.77,131A1,1,0,0,1,336.86,131.61Z"/><path class="cls-3" d="M398.3,177.05H373.18v-2H397.3V98.52h2v77.53A1,1,0,0,1,398.3,177.05Z"/><rect class="cls-2" x="38.18" y="175.05" width="16" height="2"/><rect class="cls-2" x="156.18" y="175.05" width="49" height="2"/><rect class="cls-2" x="210.68" y="175.05" width="13.5" height="2"/><rect class="cls-2" x="230.68" y="175.05" width="9.5" height="2"/><rect class="cls-3" x="262.93" y="175.05" width="21" height="2"/><rect class="cls-3" x="309.18" y="175.05" width="12" height="2"/><rect class="cls-3" x="360.85" y="175.05" width="17.33" height="2"/><path class="cls-4" d="M148.06,54.35h-4.21a1,1,0,0,1-1-.85L142.47,51a12.94,12.94,0,0,1-3.08-1.28l-2,1.47a1,1,0,0,1-1.3-.1l-3-3a1,1,0,0,1-.1-1.3l1.48-2a13,13,0,0,1-1.29-3.09l-2.47-.39a1,1,0,0,1-.85-1v-4.2a1,1,0,0,1,.85-1l2.47-.39a12.81,12.81,0,0,1,1.29-3.09l-1.48-2a1,1,0,0,1,.1-1.3l3-3a1,1,0,0,1,1.3-.1l2,1.48a12.81,12.81,0,0,1,3.09-1.29l.39-2.47a1,1,0,0,1,1-.85h4.21a1,1,0,0,1,1,.85l.39,2.47a12.64,12.64,0,0,1,3.09,1.29l2-1.48a1,1,0,0,1,1.3.1l3,3a1,1,0,0,1,.11,1.3l-1.48,2a13.19,13.19,0,0,1,1.28,3.09l2.47.39a1,1,0,0,1,.85,1v4.2a1,1,0,0,1-.85,1l-2.47.39a13,13,0,0,1-1.28,3.09l1.48,2a1,1,0,0,1-.11,1.3l-3,3a1,1,0,0,1-1.3.1l-2-1.47A13,13,0,0,1,149.43,51L149,53.5A1,1,0,0,1,148.06,54.35Zm-3.36-2h2.5l.36-2.29a1,1,0,0,1,.77-.82A11,11,0,0,0,152,47.7a1,1,0,0,1,1.13,0L155,49.1l1.76-1.76-1.36-1.87a1,1,0,0,1,0-1.13,11.2,11.2,0,0,0,1.53-3.7,1,1,0,0,1,.82-.77l2.29-.36V37l-2.29-.35a1,1,0,0,1-.82-.78,11.15,11.15,0,0,0-1.53-3.69,1,1,0,0,1,0-1.14l1.36-1.87L155,27.42l-1.87,1.36a1,1,0,0,1-1.13,0,11,11,0,0,0-3.7-1.54,1,1,0,0,1-.77-.82l-.36-2.29h-2.5l-.35,2.29a1,1,0,0,1-.78.82,11,11,0,0,0-3.69,1.54,1,1,0,0,1-1.13,0l-1.88-1.36-1.76,1.76,1.36,1.87a1,1,0,0,1,0,1.14A11,11,0,0,0,135,35.88a1,1,0,0,1-.82.78l-2.29.35v2.5l2.29.36a1,1,0,0,1,.82.77,11,11,0,0,0,1.54,3.7,1,1,0,0,1,0,1.13l-1.36,1.87,1.76,1.76,1.88-1.36a1,1,0,0,1,1.13,0,11,11,0,0,0,3.69,1.54,1,1,0,0,1,.78.82ZM146,47a8.76,8.76,0,1,1,8.77-8.76A8.77,8.77,0,0,1,146,47Zm0-15.52a6.76,6.76,0,1,0,6.77,6.76A6.76,6.76,0,0,0,146,31.5Z"/><path class="cls-4" d="M181.92,51.89l.87-3.24-2.31-1a9.51,9.51,0,0,0-.46-3.45l2-1.59-1.68-2.91-2.36.91a9.81,9.81,0,0,0-2.76-2.13l.27-2.52-3.25-.87-1,2.32a9.78,9.78,0,0,0-3.46.45l-1.59-2-2.91,1.68.91,2.37A9.63,9.63,0,0,0,162,42.66l-2.52-.27-.87,3.24,2.31,1a9.73,9.73,0,0,0,.46,3.45l-2,1.59,1.68,2.91,2.37-.91a9.76,9.76,0,0,0,2.75,2.13L166,58.34l3.25.88,1-2.32a9.76,9.76,0,0,0,3.45-.45l1.59,2,2.91-1.68-.91-2.36a9.77,9.77,0,0,0,2.12-2.76ZM169.1,53.13a6.2,6.2,0,1,1,7.61-4.38A6.2,6.2,0,0,1,169.1,53.13Z"/><path class="cls-3" d="M96.83,188.72h-2V168.34H83v-2H95.83a1,1,0,0,1,1,1Z"/><path class="cls-3" d="M83.16,170.35a3,3,0,1,1,3-3A3,3,0,0,1,83.16,170.35Z"/><rect class="cls-5" x="77.41" y="188.72" width="36.84" height="16.99"/><path class="cls-6" d="M114.25,206.71H77.41a1,1,0,0,1-1-1v-17a1,1,0,0,1,1-1h36.84a1,1,0,0,1,1,1v17A1,1,0,0,1,114.25,206.71Zm-35.84-2h34.84v-15H78.41Z"/><rect class="cls-6" x="81.03" y="193.55" width="15.11" height="2"/><rect class="cls-6" x="99.58" y="193.55" width="3.05" height="2"/><rect class="cls-6" x="105.17" y="193.55" width="5.46" height="2"/><rect class="cls-6" x="81.03" y="198.88" width="5.46" height="2"/><rect class="cls-6" x="89.8" y="198.88" width="15.37" height="2"/><rect class="cls-6" x="107.9" y="198.88" width="2.73" height="2"/><path class="cls-6" d="M39.91,208a1,1,0,0,1-.53-.15l-15.82-9.81a1,1,0,0,1-.47-.85,1,1,0,0,1,.47-.85l15.82-9.82a1,1,0,0,1,1,0l15.82,9.82a1,1,0,0,1,.47.85,1,1,0,0,1-.47.85l-15.82,9.81A1,1,0,0,1,39.91,208ZM26,197.22l13.92,8.64,13.92-8.64-13.92-8.64Z"/><rect class="cls-6" x="55.72" y="196.22" width="21.69" height="2"/><rect class="cls-6" x="32.28" y="195.33" width="10.19" height="1.56"/><rect class="cls-6" x="36.22" y="198.32" width="10.19" height="1.56"/><rect class="cls-6" x="43.43" y="195.33" width="2.98" height="1.56"/><path class="cls-5" d="M77,40.36a4.3,4.3,0,0,0,.2-1.25,4.59,4.59,0,0,0-4.59-4.59,4.47,4.47,0,0,0-1.17.17c0-.06,0-.11,0-.17a4.61,4.61,0,0,0-7.17-3.81,4.56,4.56,0,0,0-8.63,0,4.61,4.61,0,0,0-7.17,3.81,4.59,4.59,0,0,0-4.59,4.59,4.3,4.3,0,0,0,.2,1.25,4.59,4.59,0,0,0,1,9.08H69.17A4.6,4.6,0,0,0,73.76,54h2.3v-4.6a4.59,4.59,0,0,0,1-9.08Z"/><path class="cls-2" d="M25.54,64.22H23.25a1,1,0,0,1-1-1V59.54a5.59,5.59,0,0,1-1.12-10.68,5.4,5.4,0,0,1,0-.56,5.57,5.57,0,0,1,5.83-5.59,5.6,5.6,0,0,1,5.5-4.6,5.49,5.49,0,0,1,2.12.42,5.54,5.54,0,0,1,9.54,0,5.49,5.49,0,0,1,2.12-.42,5.59,5.59,0,0,1,5.51,4.67,5.6,5.6,0,0,1,4.67,5.52,5.4,5.4,0,0,1,0,.56,5.59,5.59,0,0,1-2.11,10.77H31A5.59,5.59,0,0,1,25.54,64.22Zm-1.29-2h1.29a3.59,3.59,0,0,0,3.59-3.59,1,1,0,0,1,1-1H54.25A3.59,3.59,0,0,0,55,50.52a1,1,0,0,1-.75-1.25,3.71,3.71,0,0,0,.15-1,3.6,3.6,0,0,0-3.59-3.6,1,1,0,0,1-1-1,3.59,3.59,0,0,0-3.59-3.59,3.51,3.51,0,0,0-2,.62,1,1,0,0,1-.88.12,1,1,0,0,1-.63-.62,3.56,3.56,0,0,0-6.75,0,1,1,0,0,1-1.5.5,3.51,3.51,0,0,0-2-.62,3.59,3.59,0,0,0-3.59,3.59,1.38,1.38,0,0,1,0,.14,1,1,0,0,1-.37.81,1,1,0,0,1-.88.19,3.67,3.67,0,0,0-.91-.14,3.6,3.6,0,0,0-3.59,3.6,3.71,3.71,0,0,0,.15,1,1,1,0,0,1-.75,1.25,3.59,3.59,0,0,0,.75,7.11,1,1,0,0,1,1,1Z"/><rect class="cls-2" x="65.73" y="19.74" width="2.3" height="2"/><rect class="cls-2" x="70.32" y="19.74" width="2.3" height="2"/><rect class="cls-2" x="74.91" y="19.74" width="2.3" height="2"/><rect class="cls-2" x="22.1" y="72.56" width="2.3" height="2"/><rect class="cls-2" x="26.69" y="72.56" width="2.3" height="2"/><rect class="cls-2" x="31.28" y="72.56" width="2.3" height="2"/><path class="cls-2" d="M23.1,40.26h-2V24.18a5.6,5.6,0,0,1,5.59-5.59H48.5a5.6,5.6,0,0,1,5.6,5.59v5.75h-2V24.18a3.6,3.6,0,0,0-3.6-3.59H26.69a3.59,3.59,0,0,0-3.59,3.59Z"/><path class="cls-2" d="M22.1,41.26h0a1,1,0,0,1-.71-.29L18,37.52l1.41-1.41,2.74,2.74,2.73-2.74,1.42,1.41L22.8,41A1,1,0,0,1,22.1,41.26Z"/><path class="cls-2" d="M41.61,74.56a5.58,5.58,0,0,1-1.85-.32l.67-1.89a3.41,3.41,0,0,0,1.18.21h.46v2h-.46Zm19.52,0H60.07v-2h1.06a3.55,3.55,0,0,0,.73-.08l.4,2A5.35,5.35,0,0,1,61.13,74.56Zm-3.06,0h-2v-2h2Zm-4,0h-2v-2h2Zm-4,0h-2v-2h2Zm-4,0h-2v-2h2Zm18.4-1.11-1.2-1.6a3.69,3.69,0,0,0,1-1.17l1.76.95A5.64,5.64,0,0,1,64.47,73.45ZM37.71,73a5.62,5.62,0,0,1-1.32-2l1.87-.71a3.58,3.58,0,0,0,.85,1.3Zm29-3.66-2-.12c0-.08,0-.15,0-.23V67.25h2V69C66.73,69.08,66.72,69.19,66.72,69.31ZM38,68.63H36v-2h2Zm28.71-3.38h-2v-2h2ZM38,64.63H36v-2h2Zm28.71-3.38h-2v-2h2ZM38,60.63H36v-2h2Zm28.71-3.38h-2v-2h2Z"/><path class="cls-2" d="M68.46,58.19l-2.73-2.74L63,58.19l-1.41-1.42L65,53.33a1,1,0,0,1,1.41,0l3.45,3.44Z"/><path class="cls-3" d="M201.45,226.27h-14a1,1,0,0,1-1-1v-18a1,1,0,0,1,1-1h14a1,1,0,0,1,1,1v18A1,1,0,0,1,201.45,226.27Zm-13-2h12v-16h-12Z"/><path class="cls-3" d="M225.45,226.27h-14a1,1,0,0,1-1-1v-18a1,1,0,0,1,1-1h14a1,1,0,0,1,1,1v18A1,1,0,0,1,225.45,226.27Zm-13-2h12v-16h-12Z"/><path class="cls-3" d="M177.45,260.27h-14a1,1,0,0,1-1-1v-18a1,1,0,0,1,1-1h14a1,1,0,0,1,1,1v18A1,1,0,0,1,177.45,260.27Zm-13-2h12v-16h-12Z"/><path class="cls-3" d="M201.45,260.27h-14a1,1,0,0,1-1-1v-18a1,1,0,0,1,1-1h14a1,1,0,0,1,1,1v18A1,1,0,0,1,201.45,260.27Zm-13-2h12v-16h-12Z"/><path class="cls-3" d="M225.45,260.27h-14a1,1,0,0,1-1-1v-18a1,1,0,0,1,1-1h14a1,1,0,0,1,1,1v18A1,1,0,0,1,225.45,260.27Zm-13-2h12v-16h-12Z"/><rect class="cls-3" x="176.45" y="215.27" width="9" height="2"/><path class="cls-3" d="M183.16,220l-1.42-1.42,2.3-2.29-2.3-2.29,1.42-1.42,3,3a1,1,0,0,1,0,1.42Z"/><rect class="cls-3" x="201.45" y="215.27" width="8" height="2"/><path class="cls-3" d="M207.16,220l-1.42-1.42,2.3-2.29-2.3-2.29,1.42-1.42,3,3a1,1,0,0,1,0,1.42Z"/><rect class="cls-3" x="177.45" y="249.27" width="8" height="2"/><path class="cls-3" d="M183.16,254l-1.42-1.42,2.3-2.29-2.3-2.29,1.42-1.42,3,3a1,1,0,0,1,0,1.42Z"/><rect class="cls-3" x="201.45" y="249.27" width="8" height="2"/><path class="cls-3" d="M207.16,254l-1.42-1.42,2.3-2.29-2.3-2.29,1.42-1.42,3,3a1,1,0,0,1,0,1.42Z"/><path class="cls-3" d="M171.45,239.27h-2v-4a5,5,0,0,1,5-5h40a3,3,0,0,0,3-3v-2h2v2a5,5,0,0,1-5,5h-40a3,3,0,0,0-3,3Z"/><path class="cls-3" d="M170.45,240.27a1,1,0,0,1-.71-.29l-3-3,1.42-1.42,2.29,2.3,2.29-2.3,1.42,1.42-3,3A1,1,0,0,1,170.45,240.27Z"/><rect class="cls-3" x="190.45" y="210.27" width="8" height="2"/><rect class="cls-3" x="190.45" y="214.27" width="8" height="2"/><rect class="cls-3" x="190.45" y="218.27" width="8" height="2"/><rect class="cls-3" x="210.13" y="210.77" width="16.64" height="2" transform="translate(-79.82 151.76) rotate(-32.74)"/><rect class="cls-3" x="217.45" y="203.45" width="2" height="16.64" transform="matrix(0.54, -0.84, 0.84, 0.54, -77.82, 281.01)"/><rect class="cls-3" x="211.45" y="215.27" width="14" height="2"/><rect class="cls-3" x="214.45" y="219.27" width="3" height="2"/><rect class="cls-3" x="219.45" y="219.27" width="3" height="2"/><path class="cls-3" d="M170.45,252.27a4,4,0,1,1,4-4A4,4,0,0,1,170.45,252.27Zm0-6a2,2,0,1,0,2,2A2,2,0,0,0,170.45,246.27Z"/><rect class="cls-3" x="166.45" y="254.27" width="8" height="2"/><rect class="cls-3" x="217.45" y="248.27" width="2" height="5"/><path class="cls-3" d="M222.45,256.27h-2v-2h-4v2h-2v-3a1,1,0,0,1,1-1h6a1,1,0,0,1,1,1Z"/><rect class="cls-3" x="214.45" y="244.27" width="8" height="2"/><path class="cls-3" d="M197.45,252.27h-6a1,1,0,0,1-.89-1.45l3-6a1,1,0,0,1,1.79,0l3,6a1,1,0,0,1,0,1A1,1,0,0,1,197.45,252.27Zm-4.38-2h2.76l-1.38-2.76Z"/><rect class="cls-3" x="190.45" y="254.27" width="8" height="2"/><rect class="cls-3" x="176.45" y="236.27" width="2" height="2"/><rect class="cls-3" x="180.45" y="236.27" width="2" height="2"/><rect class="cls-3" x="184.45" y="236.27" width="2" height="2"/><rect class="cls-3" x="188.45" y="236.27" width="2" height="2"/><rect class="cls-3" x="192.45" y="236.27" width="2" height="2"/><rect class="cls-3" x="196.45" y="236.27" width="2" height="2"/><rect class="cls-3" x="200.45" y="236.27" width="2" height="2"/><rect class="cls-3" x="204.45" y="236.27" width="2" height="2"/><rect class="cls-3" x="208.45" y="236.27" width="2" height="2"/><rect class="cls-3" x="212.45" y="236.27" width="2" height="2"/><rect class="cls-3" x="216.45" y="236.27" width="2" height="2"/><rect class="cls-3" x="220.45" y="236.27" width="2" height="2"/><rect class="cls-3" x="224.45" y="236.27" width="2" height="2"/><rect class="cls-3" x="175.45" y="202.27" width="2" height="2"/><rect class="cls-3" x="179.45" y="202.27" width="2" height="2"/><rect class="cls-3" x="183.45" y="202.27" width="2" height="2"/><rect class="cls-3" x="187.45" y="202.27" width="2" height="2"/><rect class="cls-3" x="191.45" y="202.27" width="2" height="2"/><rect class="cls-3" x="195.45" y="202.27" width="2" height="2"/><rect class="cls-3" x="199.45" y="202.27" width="2" height="2"/><rect class="cls-3" x="203.45" y="202.27" width="2" height="2"/><rect class="cls-3" x="207.45" y="202.27" width="2" height="2"/><rect class="cls-3" x="211.45" y="202.27" width="2" height="2"/><rect class="cls-3" x="215.45" y="202.27" width="2" height="2"/><rect class="cls-3" x="219.45" y="202.27" width="2" height="2"/><rect class="cls-3" x="223.45" y="202.27" width="2" height="2"/><path class="cls-3" d="M173.45,211.27h-10a1,1,0,0,1-1-1v-4a1,1,0,0,1,1-1h10a1,1,0,0,1,1,1v4A1,1,0,0,1,173.45,211.27Zm-9-2h8v-2h-8Z"/><path class="cls-3" d="M173.45,219.27h-10a1,1,0,0,1-1-1v-4a1,1,0,0,1,1-1h10a1,1,0,0,1,1,1v4A1,1,0,0,1,173.45,219.27Zm-9-2h8v-2h-8Z"/><path class="cls-3" d="M173.45,227.27h-10a1,1,0,0,1-1-1v-4a1,1,0,0,1,1-1h10a1,1,0,0,1,1,1v4A1,1,0,0,1,173.45,227.27Zm-9-2h8v-2h-8Z"/><path class="cls-6" d="M399.53,18a9,9,0,1,1,9-9A9,9,0,0,1,399.53,18Zm0-16a7,7,0,1,0,7,7A7,7,0,0,0,399.53,2Z"/><path class="cls-5" d="M387.53,52h-18a1,1,0,0,1-.87-1.49l9-16a1,1,0,0,1,1.75,0l9,16a1,1,0,0,1-.88,1.49Zm-16.29-2h14.58l-7.29-13Z"/><path class="cls-5" d="M430.53,52h-16a1,1,0,0,1-1-1V35a1,1,0,0,1,1-1h16a1,1,0,0,1,1,1V51A1,1,0,0,1,430.53,52Zm-15-2h14V36h-14Z"/><path class="cls-3" d="M399.53,59a26,26,0,0,1-14.11-4.16l1.09-1.68A24,24,0,0,0,413,52.89l1.13,1.65A25.85,25.85,0,0,1,399.53,59Z"/><path class="cls-3" d="M423.52,32a24,24,0,0,0-13.43-20.6L411,9.65A25.94,25.94,0,0,1,425.51,32Z"/><path class="cls-3" d="M373.62,35.08c-.06-.7-.09-1.4-.09-2.08A25.83,25.83,0,0,1,388.09,9.65l.89,1.79A23.87,23.87,0,0,0,375.53,33c0,.63,0,1.28.08,1.92Z"/><rect class="cls-3" x="379.53" y="4" width="9" height="2"/><path class="cls-3" d="M386.24,8.71l-1.41-1.42L387.12,5l-2.29-2.29,1.41-1.42,3,3a1,1,0,0,1,0,1.42Z"/><rect class="cls-3" x="426.53" y="13" width="2" height="9"/><path class="cls-3" d="M427.53,23a1,1,0,0,1-.7-.29l-3-3,1.41-1.42,2.29,2.3,2.3-2.3,1.41,1.42-3,3A1,1,0,0,1,427.53,23Z"/><rect class="cls-3" x="377.53" y="55" width="2" height="9"/><path class="cls-3" d="M380.83,58.71l-2.3-2.3-2.29,2.3-1.41-1.42,3-3a1,1,0,0,1,1.41,0l3,3Z"/><path class="cls-3" d="M399.53,41V39A7,7,0,0,0,403,25.94l1-1.74A9,9,0,0,1,399.53,41Z"/><path class="cls-3" d="M395,39.8A9,9,0,0,1,399.53,23v2A7,7,0,0,0,396,38.07Z"/><path class="cls-3" d="M401.83,43.71l-3-3a1,1,0,0,1-.19-1.16l2-4,1.79.9-1.68,3.35,2.49,2.49Z"/><path class="cls-3" d="M398.43,28.45l-1.79-.9,1.68-3.35-2.49-2.49,1.41-1.42,3,3a1,1,0,0,1,.19,1.16Z"/><rect class="cls-3" x="296.5" y="192.75" width="69.93" height="2"/><polygon class="cls-3" points="360.01 201.69 358.68 200.26 365.69 193.75 358.68 187.24 360.01 185.82 368.54 193.75 360.01 201.69"/><rect class="cls-3" x="317.25" y="205.24" width="69.93" height="2"/><polygon class="cls-3" points="380.76 214.18 379.43 212.75 386.44 206.24 379.43 199.73 380.76 198.31 389.29 206.24 380.76 214.18"/><path class="cls-3" d="M314.75,207.18h-2v-2h2Zm-4,0h-2v-2h2Zm-4,0h-2v-2h2Zm-4,0h-2v-2h2Zm-4,0h-2v-2h2Zm-4,0h-2v-2h2Zm-4,0h-2v-2h2Zm-4,0h-2v-2h2Zm-4,0h-2v-2h2Z"/><path class="cls-3" d="M99,233.27H97v-2h2Zm-4,0H93v-2h2Zm-4,0H89v-2h2Zm-4,0H85v-2h2Zm-4,0H81v-2h2Zm-4,0H77v-2h2Zm-4,0H73v-2h2Zm-4,0H69v-2h2Zm-4,0H65v-2h2Z"/><path class="cls-3" d="M415.82,194.75h-2v-2h2Zm-4,0h-2v-2h2Zm-4,0h-2v-2h2Zm-4,0h-2v-2h2Zm-4,0h-2v-2h2Zm-4,0h-2v-2h2Zm-4,0h-2v-2h2Zm-4,0h-2v-2h2Zm-4,0h-2v-2h2Zm-4,0h-2v-2h2Zm-4,0h-2v-2h2Z"/><path class="cls-3" d="M163.45,217.27h-.89v-2h.89Zm-2.89,0h-2v-2h2Zm-4,0h-2v-2h2Zm-4,0h-2v-2h2Zm-4,0h-2v-2h2Zm-4,0h-2v-2h2Zm-4,0h-2v-2h2Zm-4,0h-2v-2h2Zm-4,0h-2v-2h2Zm-4,0h-2v-2h2Zm-4,0h-2v-2h2Zm-4,0h-2v-2h2Zm-4,0h-2v-2h2Zm-4,0h-2v-2h2Zm-4,0h-2v-2h2Zm-4,0h-2v-2h2Zm-4,0H99.17a4.77,4.77,0,0,1-.76-.06l.3-2a3.44,3.44,0,0,0,.46,0h1.39Zm-4.43-1a5.09,5.09,0,0,1-1.53-1.94l1.83-.81a3,3,0,0,0,.92,1.16Zm0-4.3h-2v-2h2Zm0-4h-2v-2h2Z"/><path class="cls-3" d="M258.19,251.27h-.74v-2h.74a2.92,2.92,0,0,0,.93-.15l.62,1.91A5.07,5.07,0,0,1,258.19,251.27Zm-2.74,0h-2v-2h2Zm-4,0h-2v-2h2Zm-4,0h-2v-2h2Zm-4,0h-2v-2h2Zm-4,0h-2v-2h2Zm-4,0h-2v-2h2Zm-4,0h-2v-2h2Zm-4,0h-2v-2h2Zm34.38-1.57-1.45-1.37a3.15,3.15,0,0,0,.72-1.3l1.93.51A5.08,5.08,0,0,1,261.83,249.7Zm1.36-4.4h-2v-2h2Zm0-4h-2v-2h2Zm0-4h-2v-2h2Zm0-4h-2v-2h2Zm0-4h-2v-2h2Zm0-4h-2v-2h2Zm0-4h-2v-2h2Zm0-4h-2v-2h2Zm0-4h-2v-2h2Zm0-4h-2v-2h2Zm0-4h-2v-2h2Zm0-4h-2v-2h2Zm0-3.89-2-.22a5,5,0,0,1,.89-2.32l1.63,1.16A3,3,0,0,0,263.21,197.41Zm1.66-2.35-.89-1.8a5,5,0,0,1,2.21-.51h.17v2h-.17A3,3,0,0,0,264.87,195.06Zm29.49-.31h-2v-2h2Zm-4,0h-2v-2h2Zm-4,0h-2v-2h2Zm-4,0h-2v-2h2Zm-4,0h-2v-2h2Zm-4,0h-2v-2h2Zm-4,0h-2v-2h2Z"/><rect class="cls-2" x="247.04" y="103.28" width="38.79" height="2"/><circle class="cls-2" cx="247.19" cy="104.28" r="3.01"/><circle class="cls-2" cx="285.67" cy="104.28" r="3.01"/><path class="cls-3" d="M414.53,176.05h-2v-2h2Zm0-4h-2v-2h2Zm0-4h-2v-2h2Zm0-4h-2v-2h2Zm0-4h-2v-2h2Zm0-4h-2v-2h2Zm0-4h-2v-2h2Zm0-4h-2v-2h2Zm0-4h-2v-2h2Zm0-4h-2v-2h2Zm0-4h-2v-2h2Zm0-4h-2v-2h2Zm0-4h-2v-2h2Zm0-4h-2v-2h2Zm0-4h-2v-2h2Zm0-4h-2v-2h2Zm0-4h-2v-2h2Zm0-4h-2v-2h2Zm0-4h-2v-2h2Zm0-4h-2v-2h2Zm0-4h-2v-2h2Zm0-4h-2v-2h2Zm0-4h-2v-2h2Zm0-4h-2v-.59a3.12,3.12,0,0,0-.18-1l1.87-.69a4.86,4.86,0,0,1,.31,1.73Zm-3-2.85a3,3,0,0,0-1.32-.67l.43-2a5,5,0,0,1,2.21,1.11Zm-3.1-.74h-2v-2h2Zm-4,0h-2v-2h2Zm-4,0h-2v-2h2Zm-4,0h-2v-2h2Zm-4,0h-2v-2h2Zm-4,0h-2v-2h2Zm-4,0h-.86v-2h.86Z"/><circle class="cls-3" cx="383.69" cy="79.46" r="3.01" transform="translate(-7.75 61.98) rotate(-9.14)"/><rect class="cls-3" x="408.91" y="175.05" width="8.82" height="2"/><circle class="cls-5" cx="345.27" cy="42.98" r="5.99"/><path class="cls-5" d="M358.62,37.64a6.18,6.18,0,0,0-6-6,6.18,6.18,0,0,0,6-6,6.19,6.19,0,0,0,6,6A6.19,6.19,0,0,0,358.62,37.64Z"/><path class="cls-5" d="M342.78,31.65a6.18,6.18,0,0,0-6-6,6.18,6.18,0,0,0,6-6,6.18,6.18,0,0,0,6,6A6.18,6.18,0,0,0,342.78,31.65Z"/><path class="cls-5" d="M8.49,104.28a6.18,6.18,0,0,0-6-6,6.18,6.18,0,0,0,6-6,6.18,6.18,0,0,0,6,6A6.18,6.18,0,0,0,8.49,104.28Z"/><path class="cls-5" d="M21.84,93a6.18,6.18,0,0,0-6-6,6.18,6.18,0,0,0,6-6,6.18,6.18,0,0,0,6,6A6.18,6.18,0,0,0,21.84,93Z"/><path class="cls-5" d="M6,87a6.19,6.19,0,0,0-6-6,6.18,6.18,0,0,0,6-6,6.19,6.19,0,0,0,6,6A6.19,6.19,0,0,0,6,87Z"/><rect class="cls-5" x="130.55" y="192.75" width="5.23" height="2"/><rect class="cls-5" x="142.68" y="192.75" width="5.23" height="2"/><rect class="cls-5" x="138.24" y="185.07" width="2" height="5.23"/><rect class="cls-5" x="138.24" y="197.2" width="2" height="5.23"/><rect class="cls-5" x="140.91" y="188.46" width="5.23" height="2" transform="translate(-91.93 156.97) rotate(-45)"/><rect class="cls-5" x="132.33" y="197.04" width="5.23" height="2" transform="translate(-100.51 153.43) rotate(-45)"/><rect class="cls-5" x="142.52" y="195.42" width="2" height="5.23" transform="translate(-98 159.47) rotate(-45)"/><rect class="cls-5" x="133.95" y="186.85" width="2" height="5.23" transform="translate(-94.45 150.93) rotate(-45)"/><rect class="cls-5" x="90.02" y="32.18" width="5.23" height="2"/><rect class="cls-5" x="102.15" y="32.18" width="5.23" height="2"/><rect class="cls-5" x="97.7" y="24.5" width="2" height="5.23"/><rect class="cls-5" x="97.7" y="36.63" width="2" height="5.23"/><rect class="cls-5" x="100.37" y="27.89" width="5.23" height="2" transform="translate(9.73 81.28) rotate(-45)"/><rect class="cls-5" x="91.8" y="36.47" width="5.23" height="2" transform="translate(1.16 77.74) rotate(-45)"/><rect class="cls-5" x="101.99" y="34.85" width="2" height="5.23" transform="translate(3.67 83.8) rotate(-45)"/><rect class="cls-5" x="93.41" y="26.28" width="2" height="5.23" transform="translate(7.22 75.22) rotate(-45)"/><path class="cls-5" d="M253.86,62.46a5.35,5.35,0,1,1,5.35-5.34A5.35,5.35,0,0,1,253.86,62.46Zm0-8.69a3.35,3.35,0,1,0,3.35,3.35A3.35,3.35,0,0,0,253.86,53.77Z"/><path class="cls-5" d="M295.66,37.54a6.23,6.23,0,1,1,6.23-6.23A6.24,6.24,0,0,1,295.66,37.54Zm0-10.46a4.23,4.23,0,1,0,4.23,4.23A4.24,4.24,0,0,0,295.66,27.08Z"/><path class="cls-5" d="M117.47,54.31a4.22,4.22,0,1,1,4.22-4.22A4.22,4.22,0,0,1,117.47,54.31Zm0-6.44a2.22,2.22,0,1,0,2.22,2.22A2.23,2.23,0,0,0,117.47,47.87Z"/><path class="cls-5" d="M19.76,184.71a3.09,3.09,0,1,1,3.08-3.08A3.08,3.08,0,0,1,19.76,184.71Zm0-4.17a1.09,1.09,0,1,0,0,2.17,1.09,1.09,0,0,0,0-2.17Z"/><path class="cls-5" d="M434.65,103.68a3.09,3.09,0,1,1,3.09-3.08A3.09,3.09,0,0,1,434.65,103.68Zm0-4.17a1.09,1.09,0,1,0,1.09,1.09A1.09,1.09,0,0,0,434.65,99.51Z"/><path class="cls-5" d="M28.11,123.17a3.58,3.58,0,1,1,3.58-3.57A3.57,3.57,0,0,1,28.11,123.17Zm0-5.15a1.58,1.58,0,1,0,1.58,1.58A1.58,1.58,0,0,0,28.11,118Z"/><path class="cls-5" d="M239.36,78.49h-2v-2h2Zm0-4h-2v-2h2Zm0-4h-2v-2h2Zm0-4h-2v-2h2Zm0-4h-2v-2h2Zm0-4h-2v-2h2Zm0-4h-2v-2h2Zm0-4h-2v-2h2Zm0-4h-2v-2h2Zm0-4h-2v-2h2Zm0-4h-2v-2h2Zm.06-3.79-1.95-.41a5.07,5.07,0,0,1,1.08-2.22l1.53,1.3A2.93,2.93,0,0,0,239.42,34.7Zm1.87-2.19-.72-1.87a5.16,5.16,0,0,1,1.79-.33h.54v2h-.54A3,3,0,0,0,241.29,32.51Zm49.14-.2H288.9v-2h1.53Zm-3.53,0h-2v-2h2Zm-4,0h-2v-2h2Zm-4,0h-2v-2h2Zm-4,0h-2v-2h2Zm-4,0h-2v-2h2Zm-4,0h-2v-2h2Zm-4,0h-2v-2h2Zm-4,0h-2v-2h2Zm-4,0h-2v-2h2Zm-4,0h-2v-2h2Zm-4,0h-2v-2h2Z"/><path class="cls-5" d="M89.88,148.35a1,1,0,0,1-1-1v-11a1,1,0,0,1,.5-.87,1,1,0,0,1,1,0l10.19,5.82a1,1,0,0,1,.5.89,1,1,0,0,1-.55.87l-10.19,5.18A1,1,0,0,1,89.88,148.35Zm1-10.28v7.65l7.09-3.6Z"/><path class="cls-2" d="M164.45,176.05h-2v-.59h2Zm0-2.59h-2v-2h2Zm0-4h-2v-2h2Zm0-4h-2v-2h2Zm0-4h-2v-2h2Zm0-4h-2v-2h2Zm0-4h-2v-2h2Zm0-4h-2v-2h2Zm0-4h-2v-2h2Zm0-4h-2v-2h2Zm0-4h-2v-2h2Zm0-4h-2v-2h2Zm0-4h-2v-2h2Zm0-4h-2v-2h2Zm0-4h-2v-2h2Zm0-4h-2v-2h2Zm0-4h-2v-2h2Zm0-4h-2v-2h2Zm0-4h-2v-2h2Zm0-4h-2v-2h2Zm0-4h-2v-2h2Zm0-4h-2v-2h2Zm0-4h-2v-2h2Zm0-4h-2v-2h2Zm0-4h-2v-2h2Z"/></g></g></svg>