<svg xmlns="http://www.w3.org/2000/svg" viewBox="0 0 346 179.01"><defs><style>.cls-1,.cls-14,.cls-16,.cls-6,.cls-9{fill:#355d8e;}.cls-1{opacity:0.1;}.cls-2,.cls-31{fill:#1a2089;}.cls-17,.cls-3,.cls-4,.cls-9{opacity:0.2;}.cls-10,.cls-4{fill:#6193cd;}.cls-15,.cls-17,.cls-18,.cls-5{fill:#fff;}.cls-6{opacity:0.15;}.cls-7{fill:#5d4efa;}.cls-8{fill:#006ae6;}.cls-11{fill:#b56cf7;}.cls-12,.cls-15,.cls-16,.cls-30{opacity:0.3;}.cls-13,.cls-30{fill:#00244f;}.cls-18,.cls-29{opacity:0.4;}.cls-19{fill:#4c708b;}.cls-20{fill:#eec887;}.cls-21{fill:#eecba5;}.cls-22,.cls-27,.cls-29{fill:#28486c;}.cls-23{fill:#4cc2fc;}.cls-24,.cls-25{fill:#2d4f70;}.cls-25,.cls-28{opacity:0.9;}.cls-26{fill:#1d334a;}.cls-27,.cls-31{opacity:0.7;}.cls-28{fill:#4a6b88;}</style></defs><title>Asset 171</title><g id="Layer_2" data-name="Layer 2"><g id="Layer_1-2" data-name="Layer 1"><path class="cls-1" d="M28.17,178.79c-5.37,0-15.25.25-14-1.12s7.66,0,12.93-.49,10.06-1,15.45-.31,3.93,1.46,1.56,1.68c-4.35.41-5.12.58-7.65.36C29.05,178.26,30.25,178.79,28.17,178.79Z"/><rect class="cls-2" x="149.59" y="141.51" width="34.44" height="23.13"/><rect class="cls-2" x="149.59" y="141.51" width="34.44" height="23.13"/><path class="cls-2" d="M193.48,168.14H140.15a5.59,5.59,0,0,1,3.16-5l6.28-3H184l6.28,3a5.59,5.59,0,0,1,3.16,5Z"/><polygon class="cls-2" points="149.59 149.62 184.04 149.62 184.04 152.12 149.59 151.2 149.59 149.62"/><g class="cls-3"><path class="cls-2" d="M140.15,168.14h53.33a5.59,5.59,0,0,0-2.4-4.59H142.55A5.62,5.62,0,0,0,140.15,168.14Z"/></g><rect class="cls-2" x="86.21" y="53.11" width="161.21" height="96.51" rx="4.14"/><path class="cls-4" d="M241.26,53.11H92.38a6.16,6.16,0,0,0-6.17,6.16V61a6.17,6.17,0,0,1,6.17-6.17H241.26A6.16,6.16,0,0,1,247.42,61V59.27A6.16,6.16,0,0,0,241.26,53.11Z"/><path class="cls-2" d="M241.26,147.48H92.38a6.17,6.17,0,0,1-6.17-6.17v2.14a6.17,6.17,0,0,0,6.17,6.17H241.26a6.16,6.16,0,0,0,6.16-6.17v-2.14A6.16,6.16,0,0,1,241.26,147.48Z"/><rect class="cls-5" x="91.62" y="61.34" width="150.39" height="75.78"/><path class="cls-5" d="M242,61.34v75.78H91.62V61.34H242m.79-.79h-152V137.9h152V60.55Z"/><path class="cls-2" d="M240.24,140.45H93.39a2.55,2.55,0,0,1-2.55-2.55h152A2.56,2.56,0,0,1,240.24,140.45Z"/><rect class="cls-6" x="91.62" y="134.79" width="150.35" height="0.2"/><rect class="cls-6" x="91.62" y="119.29" width="150.35" height="0.2"/><rect class="cls-6" x="91.62" y="103.79" width="150.35" height="0.2"/><rect class="cls-6" x="91.62" y="88.28" width="150.35" height="0.2"/><rect class="cls-6" x="91.62" y="72.78" width="150.35" height="0.2"/><rect class="cls-6" x="124.87" y="61.34" width="0.2" height="73.55"/><rect class="cls-6" x="141.59" y="61.34" width="0.2" height="73.55"/><rect class="cls-6" x="158.3" y="61.34" width="0.2" height="73.55"/><rect class="cls-6" x="175.02" y="61.34" width="0.2" height="73.55"/><rect class="cls-6" x="191.74" y="61.34" width="0.2" height="73.55"/><rect class="cls-6" x="208.46" y="61.34" width="0.2" height="73.55"/><rect class="cls-6" x="225.18" y="61.34" width="0.2" height="73.55"/><rect class="cls-6" x="108.15" y="61.34" width="0.2" height="73.55"/><rect class="cls-7" x="93.99" y="112.66" width="12.04" height="22.22" transform="translate(200.02 247.55) rotate(180)"/><rect class="cls-7" x="110.73" y="108.22" width="12.04" height="26.67" transform="translate(233.49 243.11) rotate(180)"/><rect class="cls-7" x="127.46" y="102.09" width="12.04" height="32.8" transform="translate(266.96 236.98) rotate(180)"/><rect class="cls-7" x="144.19" y="106.05" width="12.04" height="28.84" transform="translate(300.43 240.94) rotate(180)"/><rect class="cls-7" x="160.93" y="109.49" width="12.04" height="25.4" transform="translate(333.9 244.38) rotate(180)"/><rect class="cls-7" x="177.66" y="104.48" width="12.04" height="30.4" transform="translate(367.37 239.37) rotate(180)"/><rect class="cls-7" x="194.4" y="99.63" width="12.04" height="35.26" transform="translate(400.83 234.51) rotate(180)"/><rect class="cls-7" x="211.13" y="89.39" width="12.04" height="45.49" transform="translate(434.3 224.28) rotate(180)"/><rect class="cls-7" x="227.87" y="81.55" width="12.04" height="53.34" transform="translate(467.77 216.44) rotate(180)"/><rect class="cls-7" x="93.99" y="120.03" width="12.04" height="14.86" transform="translate(200.02 254.92) rotate(180)"/><rect class="cls-7" x="110.73" y="117.06" width="12.04" height="17.83" transform="translate(233.49 251.94) rotate(180)"/><rect class="cls-7" x="127.46" y="112.96" width="12.04" height="21.93" transform="translate(266.96 247.85) rotate(180)"/><rect class="cls-7" x="144.19" y="115.61" width="12.04" height="19.28" transform="translate(300.43 250.5) rotate(180)"/><rect class="cls-7" x="160.93" y="117.91" width="12.04" height="16.98" transform="translate(333.9 252.79) rotate(180)"/><rect class="cls-7" x="177.66" y="114.56" width="12.04" height="20.33" transform="translate(367.37 249.45) rotate(180)"/><rect class="cls-7" x="194.4" y="111.31" width="12.04" height="23.57" transform="translate(400.83 246.2) rotate(180)"/><rect class="cls-7" x="211.13" y="104.47" width="12.04" height="30.42" transform="translate(434.3 239.36) rotate(180)"/><rect class="cls-7" x="227.87" y="99.23" width="12.04" height="35.66" transform="translate(467.77 234.11) rotate(180)"/><polygon class="cls-8" points="91.67 106.99 91.57 106.61 116.69 99.91 133.47 93.43 133.53 93.45 149.65 97.74 166.94 101.17 183.98 96.18 200.33 91.65 217.04 80.7 234.23 73.66 234.38 74.02 217.22 81.05 200.47 92.02 184.09 96.55 166.96 101.57 166.91 101.56 149.56 98.13 133.49 93.84 116.82 100.28 91.67 106.99"/><polygon class="cls-8" points="236.33 72.95 232.1 72.48 233.63 74.17 233.73 76.32 236.33 72.95"/><path class="cls-9" d="M141.32,89.81V53.11H93.37a7.19,7.19,0,0,0-7.19,7.19V92.18H139A2.37,2.37,0,0,0,141.32,89.81Z"/><rect class="cls-5" x="57.13" y="37.57" width="79.38" height="49.8" rx="2.35"/><path class="cls-10" d="M136.51,40a2.38,2.38,0,0,0-2.37-2.38H59.51A2.39,2.39,0,0,0,57.13,40v2.53h79.38Z"/><path class="cls-11" d="M86,48V65.56H68.37A17.58,17.58,0,1,0,86,48Z"/><path class="cls-7" d="M68.37,65.56H86L79.47,49.23A17.57,17.57,0,0,0,68.37,65.56Z"/><path class="cls-2" d="M79.47,49.23,86,65.56V48A17.47,17.47,0,0,0,79.47,49.23Z"/><path class="cls-8" d="M79.58,49.51A17.3,17.3,0,0,1,86,48.28h0V48h0a17.47,17.47,0,0,0-6.48,1.25h0l.11.28Z"/><path class="cls-8" d="M86,48v.3A17.28,17.28,0,1,1,68.68,65.56h-.31A17.58,17.58,0,1,0,86,48Z"/><path class="cls-8" d="M68.68,65.56a17.19,17.19,0,0,1,10.9-16.05l-.11-.28a17.57,17.57,0,0,0-11.1,16.33h.31Z"/><rect class="cls-11" x="113.75" y="50.8" width="3.63" height="3.63"/><g class="cls-12"><rect class="cls-11" x="119.66" y="51.82" width="11" height="0.42"/><rect class="cls-11" x="119.66" y="52.99" width="7.04" height="0.42"/></g><rect class="cls-7" x="113.75" y="56.41" width="3.63" height="3.63"/><g class="cls-12"><rect class="cls-7" x="119.66" y="57.44" width="11" height="0.42"/><rect class="cls-7" x="119.66" y="58.6" width="7.04" height="0.42"/></g><rect class="cls-7" x="113.75" y="69.27" width="16.9" height="10.24"/><circle class="cls-5" cx="85.95" cy="65.56" r="7.19" transform="matrix(0.16, -0.99, 0.99, 0.16, 7.47, 139.9)"/><rect class="cls-5" x="182.11" width="60.8" height="38.15" rx="1.44"/><path class="cls-2" d="M242.92,1.82A1.82,1.82,0,0,0,241.1,0H183.93a1.82,1.82,0,0,0-1.82,1.82V3.76h60.81Z"/><path class="cls-13" d="M237.76,20.31l-1.33-.17a.59.59,0,0,1-.47-.32l-.76-1.41a.62.62,0,0,0-1.06-.06l-.62.92a.63.63,0,0,1-1,.06l-.22-.26a.62.62,0,0,0-.95,0l-.09.1a.62.62,0,0,1-1.05-.14l-1.78-4a.62.62,0,0,0-1.15,0l-3.17,8.35a.62.62,0,0,1-1,.27l-.12-.09a.62.62,0,0,0-.89.13l-.3.42-.56-.56h-1.24a.63.63,0,0,0-.61.5l-.18.9a.62.62,0,0,1-1,.33.62.62,0,0,0-1,.18l-1,2a.63.63,0,0,1-.84.26l-.8-.41a.65.65,0,0,0-.56,0l-1.09.55a.63.63,0,0,1-.75-.16l-.31-.37a.62.62,0,0,0-1,.12l0,0a.61.61,0,0,1-.75.31l-1.22-.41a.61.61,0,0,0-.55.09l-1.45,1a.61.61,0,0,1-.57.08l-1-.36a.72.72,0,0,0-.41,0l-1,.35a.6.6,0,0,1-.59-.11l-1-.84a.62.62,0,0,0-.77,0l-1.6,1.24-.08.05L198,30a.62.62,0,0,1-.56,0l-1-.43a.44.44,0,0,0-.15,0l-3.65-.57H190a.78.78,0,0,0-.22,0l-2.64,1a.62.62,0,0,0-.41.58v2.33h51.59V20.92A.62.62,0,0,0,237.76,20.31Z"/><g class="cls-12"><rect class="cls-14" x="186.72" y="28.27" width="51.58" height="0.2"/><rect class="cls-14" x="186.72" y="23.77" width="51.58" height="0.2"/><rect class="cls-14" x="186.72" y="19.27" width="51.58" height="0.2"/><rect class="cls-14" x="186.72" y="14.77" width="51.58" height="0.2"/><rect class="cls-14" x="186.72" y="10.27" width="51.58" height="0.2"/></g><rect class="cls-14" x="186.62" y="10.37" width="0.2" height="22.6"/><rect class="cls-14" x="186.72" y="32.77" width="51.58" height="0.2"/><path class="cls-10" d="M237.76,17l-1.33-.21a.62.62,0,0,1-.47-.41l-.76-1.78a.56.56,0,0,0-1.06-.07l-.62,1.17a.55.55,0,0,1-1,.06l-.22-.32a.54.54,0,0,0-.95,0l-.09.13a.57.57,0,0,1-1.05-.17l-1.78-5a.58.58,0,0,0-1.15,0L224.12,21c-.15.49-.63.66-1,.34l-.12-.12a.55.55,0,0,0-.89.17l-.3.53-.56-.71h-1.24a.68.68,0,0,0-.61.63L219.26,23c-.1.6-.68.84-1,.43a.55.55,0,0,0-1,.21l-1,2.52a.57.57,0,0,1-.84.34l-.8-.52a.5.5,0,0,0-.56,0l-1.09.68a.53.53,0,0,1-.75-.19l-.31-.47a.56.56,0,0,0-1,.16l0,0a.57.57,0,0,1-.75.39L208.86,26a.51.51,0,0,0-.55.1l-1.45,1.29a.55.55,0,0,1-.57.1l-1-.46a.49.49,0,0,0-.41,0l-1,.44a.51.51,0,0,1-.59-.13l-1-1.07a.52.52,0,0,0-.77,0l-1.6,1.57-.08.07L198,29.18a.52.52,0,0,1-.56,0l-1-.55a.47.47,0,0,0-.15-.06l-3.65-.72H190a.54.54,0,0,0-.22.05l-2.64,1.25a.8.8,0,0,0-.41.74v.62a.64.64,0,0,1,.41-.59l2.64-1a.78.78,0,0,1,.22,0h2.69l3.65.57.15.05,1,.43a.62.62,0,0,0,.56,0l1.77-1,.08-.05,1.6-1.25a.62.62,0,0,1,.77,0l1,.85a.62.62,0,0,0,.59.1l1-.35a.72.72,0,0,1,.41,0l1,.36a.61.61,0,0,0,.57-.08l1.45-1a.58.58,0,0,1,.55-.08l1.22.4a.61.61,0,0,0,.75-.31l0,0a.63.63,0,0,1,1-.12l.31.37a.62.62,0,0,0,.75.16l1.09-.54a.61.61,0,0,1,.56,0l.8.41a.63.63,0,0,0,.84-.26l1-2a.62.62,0,0,1,1-.18.62.62,0,0,0,1-.33l.18-.9a.63.63,0,0,1,.61-.5h1.24l.56.56.3-.42a.62.62,0,0,1,.89-.13l.12.09a.62.62,0,0,0,1-.27l3.17-8.35a.62.62,0,0,1,1.15,0l1.78,4a.63.63,0,0,0,1.05.14l.09-.11a.62.62,0,0,1,.95,0l.22.26a.63.63,0,0,0,1-.05l.62-.93a.62.62,0,0,1,1.06.06l.76,1.41a.59.59,0,0,0,.47.32l1.33.17a.63.63,0,0,1,.55.62V17.74A.76.76,0,0,0,237.76,17Z"/><path class="cls-9" d="M210.55,72.92a2.26,2.26,0,0,0-2.26,2.26v42.9a2.26,2.26,0,0,0,2.26,2.26h36.87V72.92Z"/><rect class="cls-5" x="203.72" y="68.34" width="75.58" height="47.42" rx="4.03"/><path class="cls-10" d="M279.3,70.6A2.26,2.26,0,0,0,277,68.34H206a2.26,2.26,0,0,0-2.26,2.26V73H279.3Z"/><rect class="cls-13" x="209.99" y="90.16" width="4.95" height="19.88"/><rect class="cls-13" x="218.26" y="94.04" width="4.95" height="16"/><rect class="cls-13" x="226.53" y="98.03" width="4.95" height="12.01"/><rect class="cls-13" x="234.8" y="97.07" width="4.95" height="12.97"/><rect class="cls-13" x="243.07" y="95.47" width="4.95" height="14.57"/><rect class="cls-13" x="251.35" y="86.07" width="4.95" height="23.97"/><rect class="cls-13" x="259.62" y="79.41" width="4.95" height="30.63"/><rect class="cls-13" x="267.89" y="81.14" width="4.95" height="28.9"/><polygon class="cls-13" points="228.99 94.82 228.96 94.81 220.84 90.8 212.42 86.92 212.5 86.74 220.93 90.62 229.02 94.62 237.26 93.64 245.66 92.05 253.75 82.67 262.07 75.97 262.11 75.98 270.64 77.71 270.6 77.91 262.12 76.19 253.88 82.81 245.76 92.23 245.73 92.24 237.29 93.84 228.99 94.82"/><path class="cls-13" d="M212.32,87.68h0a.85.85,0,0,1-.85-.85h0a.85.85,0,0,1,.85-.85h0a.85.85,0,0,1,.85.85h0A.85.85,0,0,1,212.32,87.68Z"/><path class="cls-13" d="M220.43,91.56h0a.85.85,0,0,1-.85-.85h0a.85.85,0,0,1,.85-.85h0a.85.85,0,0,1,.85.85h0A.85.85,0,0,1,220.43,91.56Z"/><path class="cls-13" d="M229,95.57h0a.85.85,0,0,1-.84-.85h0a.85.85,0,0,1,.84-.85h0a.85.85,0,0,1,.85.85h0A.85.85,0,0,1,229,95.57Z"/><path class="cls-13" d="M237.28,94.66h0a.85.85,0,0,1-.85-.85h0a.85.85,0,0,1,.85-.85h0a.85.85,0,0,1,.84.85h0A.85.85,0,0,1,237.28,94.66Z"/><path class="cls-13" d="M245.55,93h0a.85.85,0,0,1-.85-.85h0a.85.85,0,0,1,.85-.85h0a.85.85,0,0,1,.85.85h0A.85.85,0,0,1,245.55,93Z"/><path class="cls-13" d="M253.65,83.76h0a.85.85,0,0,1-.85-.85h0a.85.85,0,0,1,.85-.84h0a.85.85,0,0,1,.85.84h0A.85.85,0,0,1,253.65,83.76Z"/><path class="cls-13" d="M262.09,76.93h0a.85.85,0,0,1-.84-.85h0a.85.85,0,0,1,.84-.85h0a.85.85,0,0,1,.85.85h0A.85.85,0,0,1,262.09,76.93Z"/><path class="cls-13" d="M270.37,78.65h0a.84.84,0,0,1-.85-.84h0a.85.85,0,0,1,.85-.85h0a.85.85,0,0,1,.84.85h0A.84.84,0,0,1,270.37,78.65Z"/><path class="cls-13" d="M211.49,111.58l-.12.34h-.14l.37-1.08h.16l.37,1.08H212l-.11-.34Zm.35-.11-.11-.31a1.8,1.8,0,0,1,0-.19h0a1.33,1.33,0,0,1,0,.19l-.11.31Z"/><path class="cls-13" d="M212.55,111h0l-.18.1,0-.11.22-.12h.12v1h-.13Z"/><path class="cls-13" d="M220.16,111.58l-.11.34h-.15l.37-1.08h.17l.37,1.08h-.15l-.12-.34Zm.35-.11-.1-.31c0-.07,0-.13-.06-.19h0l-.06.19-.1.31Z"/><path class="cls-13" d="M220.91,111.92v-.08l.12-.11c.26-.26.38-.39.38-.55a.18.18,0,0,0-.2-.2.32.32,0,0,0-.22.09l-.05-.1a.47.47,0,0,1,.3-.11.29.29,0,0,1,.31.31c0,.19-.14.34-.35.55l-.09.08h.47v.12Z"/><path class="cls-13" d="M228.32,111.58l-.11.34h-.15l.37-1.08h.17l.37,1.08h-.15l-.12-.34Zm.35-.11-.1-.31c0-.07,0-.13-.06-.19h0l-.06.19-.1.31Z"/><path class="cls-13" d="M229.11,111.76a.42.42,0,0,0,.23.07c.18,0,.24-.12.23-.21s-.13-.2-.26-.2h-.08v-.11h.08c.1,0,.23,0,.23-.18s0-.15-.18-.15a.31.31,0,0,0-.21.07l0-.11a.48.48,0,0,1,.27-.08c.21,0,.3.12.3.25a.26.26,0,0,1-.19.25h0a.27.27,0,0,1,.23.27c0,.16-.13.31-.38.31a.55.55,0,0,1-.27-.07Z"/><path class="cls-13" d="M236.79,111.58l-.12.34h-.14l.37-1.08h.17l.36,1.08h-.15l-.11-.34Zm.35-.11-.11-.31A1.8,1.8,0,0,1,237,111h0l-.06.19-.1.31Z"/><path class="cls-13" d="M238,111.92v-.28h-.49v-.09l.47-.67h.15v.65h.15v.11h-.15v.28Zm0-.39V111h0c0,.06-.06.1-.09.15l-.25.35H238Z"/><path class="cls-13" d="M244.67,111.58l-.12.34h-.14l.37-1.08h.16l.37,1.08h-.15l-.11-.34Zm.35-.11-.11-.31a1.8,1.8,0,0,1,0-.19h0a1.33,1.33,0,0,1,0,.19l-.11.31Z"/><path class="cls-13" d="M246,111h-.39l0,.27h.08a.4.4,0,0,1,.22.06.27.27,0,0,1,.15.26.36.36,0,0,1-.38.36.52.52,0,0,1-.26-.06l0-.11a.53.53,0,0,0,.22.06.23.23,0,0,0,.25-.23c0-.13-.09-.23-.3-.23h-.14l.06-.5h.5Z"/><path class="cls-13" d="M253.21,111.58l-.11.34H253l.37-1.08h.17l.37,1.08h-.15l-.12-.34Zm.35-.11-.1-.31c0-.07,0-.13-.06-.19h0l-.06.19-.1.31Z"/><path class="cls-13" d="M254.56,111h-.11a.42.42,0,0,0-.36.37h0a.29.29,0,0,1,.25-.12.3.3,0,0,1,.31.33.35.35,0,0,1-.34.37c-.23,0-.37-.17-.37-.44a.65.65,0,0,1,.17-.47.6.6,0,0,1,.34-.16h.1Zm0,.6a.21.21,0,0,0-.21-.24.23.23,0,0,0-.21.13.13.13,0,0,0,0,.06c0,.17.08.3.23.3S254.52,111.73,254.52,111.58Z"/><path class="cls-13" d="M261.47,111.58l-.11.34h-.14l.36-1.08h.17l.37,1.08H262l-.12-.34Zm.36-.11-.11-.31-.06-.19h0c0,.06,0,.13-.05.19l-.11.31Z"/><path class="cls-13" d="M262.9,110.88V111l-.45,1h-.15l.46-.92h-.51v-.12Z"/><path class="cls-13" d="M269.79,111.58l-.12.34h-.14l.37-1.08h.16l.37,1.08h-.15l-.11-.34Zm.35-.11-.11-.31a1.8,1.8,0,0,1,0-.19h0a1.33,1.33,0,0,1-.05.19l-.11.31Z"/><path class="cls-13" d="M270.53,111.66a.3.3,0,0,1,.21-.28h0a.25.25,0,0,1-.16-.23.3.3,0,0,1,.32-.28.27.27,0,0,1,.3.26.25.25,0,0,1-.17.24h0a.29.29,0,0,1,.21.27.31.31,0,0,1-.35.3C270.66,111.94,270.53,111.81,270.53,111.66Zm.56,0c0-.13-.09-.19-.23-.23a.24.24,0,0,0-.19.22.2.2,0,0,0,.21.2A.19.19,0,0,0,271.09,111.65Zm-.39-.52c0,.1.08.16.2.19a.2.2,0,0,0,.16-.19.16.16,0,0,0-.18-.17A.17.17,0,0,0,270.7,111.13Z"/><polygon class="cls-7" points="341.44 117.44 340.91 119.1 340.34 119.52 339.64 120.2 338.94 122.15 339.33 122.44 339.93 121.36 340.08 121.48 339.04 123.54 340.68 123.5 342.04 121.92 342.35 121.06 342.55 119.54 343.18 118.04 341.44 117.44"/><path class="cls-7" d="M345,112.86l-.16.07c-1,.37-1.68-.22-2.43-1.4-1.75-2.74-4.2-5.68-5.83-8.88a2.21,2.21,0,0,1,.73-3.13l.16-.12c1.13-.7,2.17.23,2.77,1.22,2.05,3.4,5.6,9.71,5.6,9.71A1.81,1.81,0,0,1,345,112.86Z"/><path class="cls-7" d="M343.14,119l-2.15-.86a46.36,46.36,0,0,0,1.65-6.57c.23-1.46.81-2.33,1.83-2.1h0a1.9,1.9,0,0,1,1.35,2.77C344.93,114.79,343.14,119,343.14,119Z"/><path class="cls-13" d="M332.07,117.88l-37.59-28.5,3.85-5.12,37.59,28.5a.19.19,0,0,1,0,.27l-3.61,4.81A.19.19,0,0,1,332.07,117.88Z"/><path class="cls-13" d="M339.11,124.8,303.94,98.25a1.84,1.84,0,0,1-.37-2.57l3.33-4.44a1.83,1.83,0,0,1,2.57-.36l35.17,26.56c.91.77,1.47,1.14.86,2l-4.32,5.78C340.57,126,339.92,125.41,339.11,124.8Z"/><path class="cls-13" d="M277.32,50.71c-.61,0-1.22.1-1.83.19a22.2,22.2,0,1,0,1.83-.19Z"/><path class="cls-13" d="M277,45.75c-.75,0-1.49.12-2.24.23a27.2,27.2,0,1,0,2.24-.23Zm4.72,49.3a22.3,22.3,0,1,1-6.26-44.15c.61-.09,1.22-.15,1.83-.19a22.3,22.3,0,0,1,4.43,44.34Z"/><circle class="cls-15" cx="278.62" cy="72.98" r="23.69" transform="translate(1.2 150.39) rotate(-30.27)"/><path class="cls-16" d="M300.82,71.66A22.24,22.24,0,1,1,277.3,50.77,22.25,22.25,0,0,1,300.82,71.66Z"/><path class="cls-17" d="M298.46,71.8a19.87,19.87,0,1,1-21-18.67A19.88,19.88,0,0,1,298.46,71.8Z"/><path class="cls-18" d="M282.09,63.47c7,1.43,12.85,4.72,16.47,8.79,0-.16,0-.31,0-.47a20,20,0,0,0-39.21-4C264.18,63.46,272.86,61.58,282.09,63.47Z"/><path class="cls-19" d="M343.76,122.55c-1.44,2-2.92,3.29-3.31,3s.46-2.1,1.9-4,2.92-3.29,3.31-3S345.2,120.6,343.76,122.55Z"/><rect class="cls-20" x="330.59" y="96.23" width="4.66" height="2.91" transform="translate(194.82 415.97) rotate(-82.9)"/><rect class="cls-21" x="329.97" y="96.6" width="4.78" height="8.4" transform="translate(191.23 418.14) rotate(-82.9)"/><path class="cls-20" d="M329.88,92.06a3.25,3.25,0,1,0,6.17,1.74c.08-.28,1.25-3.88,1.27-4.16l-1-1.44L334,86.8h-2.2a3.09,3.09,0,0,0-1.26,1.81C330.22,89.81,329.93,91.86,329.88,92.06Z"/><path class="cls-22" d="M330.71,87a1.69,1.69,0,0,1,.59-2.15c.23-.13.92-.29,2.34.45s1.55,0,2.4.53a5,5,0,0,1,2,4.58,8.64,8.64,0,0,1-1.57,3.09l-.65,1.23a1.2,1.2,0,0,1-1.21.64l-.91-.12c-.44,0-.66,0-1.07-.23l-.22-.18a2.36,2.36,0,0,1-.54-1.54L332,92a6.73,6.73,0,0,0,.37-1c0-.18-.22-.63-.4-.59s-.34.8-.6.85a.43.43,0,0,1-.35-.23,3.57,3.57,0,0,1,.2-1.42c0-.09-.18-.29-.15-.38.14-.47.53-.94.42-1.24S330.89,87.61,330.71,87Z"/><polygon class="cls-20" points="310.65 101.25 309.07 100.57 308.83 99.9 308.37 99.04 306.69 97.83 306.3 98.12 307.17 99 307.02 99.1 305.33 97.54 304.91 99.12 306.06 100.87 306.79 101.41 308.2 102.02 309.69 102.8 310.65 101.25"/><path class="cls-7" d="M314.42,104.89l-.05-.16c-.29-1,.35-1.65,1.6-2.31,2.87-1.51,6-3.7,9.34-5,1.73-.7,2.75.13,3.05,1l0,.13c.45,1.5-.35,2.19-1.38,2.69-3.57,1.76-10.16,4.77-10.16,4.77A1.8,1.8,0,0,1,314.42,104.89Z"/><path class="cls-7" d="M308.43,102.57l1-2.07a46.21,46.21,0,0,0,6.41,2.2c1.43.36,2.26,1,1.93,2h0a1.89,1.89,0,0,1-2.87,1.11C312.49,104.72,308.43,102.57,308.43,102.57Z"/><path class="cls-2" d="M313.81,176h.09l0,.43h2l-.05-.57h-.07v-2.08h-2.12l0,.28-1,.71-3.09.89s-.25.1-.24.24v.39s0,.06.29.14h3.55l.21-.29.21-.13Z"/><path class="cls-2" d="M333.52,176h.09v.43h2l-.05-.57h-.07l-.46-2.08H333l0,.28-.52.71-3.1.89s-.24.1-.23.24v.39s0,.06.29.14h3.55l.21-.29.21-.13Z"/><polygon class="cls-2" points="337.61 123.86 322.55 123.36 322.57 124.84 321.78 129.17 317.06 152.43 313.14 173.75 316.53 174.32 322.15 153.56 328.46 133.3 328.73 132.85 330.63 153.25 332.37 173.82 335.66 174 335.84 152.8 336.66 132.1 337.55 129.12 337.33 125.51 337.61 123.86"/><path class="cls-7" d="M331.06,97.76l-.36-.05s-2.67-.52-3.56-.59c-2.17-.17-3.41,1.64-3.63,3.38l0,11.22-.37,3-1.18,8.79.56,1.44,14.85.67.45-1.57V116l1-6.93,1.51-5.7c.15-1.25.12-3.38-1.59-4.15a28.66,28.66,0,0,0-3.87-1,7.46,7.46,0,0,1-3.78-.45Z"/><path class="cls-2" d="M15.41,137.48,14,136.64,3.43,175.32a.78.78,0,0,0,.75,1h0a.77.77,0,0,0,.75-.57Z"/><path class="cls-2" d="M4.25,136.64l-1.39.84,10.48,38.25a.78.78,0,0,0,.75.57h0a.77.77,0,0,0,.75-1Z"/><path class="cls-2" d="M78.41,137.48,77,136.64l-10.6,38.68a.78.78,0,0,0,.75,1h0a.77.77,0,0,0,.75-.57Z"/><path class="cls-2" d="M67.25,136.64l-1.38.84,10.47,38.25a.78.78,0,0,0,.75.57h0a.77.77,0,0,0,.75-1Z"/><path class="cls-2" d="M74.78,138H1.3A1.31,1.31,0,0,1,0,136.64H0a1.3,1.3,0,0,1,1.3-1.3H74.78Z"/><path class="cls-2" d="M79.17,138H65.11a1.31,1.31,0,0,1-1.3-1.31h0a1.3,1.3,0,0,1,1.3-1.3H79.17a1.3,1.3,0,0,1,1.3,1.3h0A1.31,1.31,0,0,1,79.17,138Z"/><polygon class="cls-22" points="36.93 135.34 37.71 135.34 38.23 137.95 37.31 137.95 36.93 135.34"/><path class="cls-23" d="M36.14,175.19h-.09l0,.44H33.9L34,175H34l.6-2.42,2.22.22-.06.62.54.44,3.24.93s.25.11.25.25v.41s0,.07-.3.14H36.77l-.22-.29-.22-.14Z"/><polygon class="cls-23" points="37.08 144.52 36.63 141.34 36.91 140.05 21.22 139.57 21.17 143.11 20.87 146.69 23 150.39 37.25 150.85 34.18 172.92 37.52 173.71 42.87 149.37 41.83 146.71 37.08 144.52"/><path class="cls-23" d="M56.59,175.68H56.5l0,.44H54.35l0-.59h.07l.05-2.39,2.27-.21.44,1,.54.44,3.24.93s.25.11.25.25V176s0,.07-.3.14H57.22l-.22-.29-.22-.14Z"/><path class="cls-23" d="M37.08,144.52l-.35-2.5.66-1.56-17,.67.78,2-.3,3.58,1,2.64a2.08,2.08,0,0,0,1.88,1.36l28.5,1.16,1.83,21.88,3.33-.26V150.38l-1.22-2.56Z"/><polygon class="cls-7" points="47.56 101.62 48.83 100.31 48.93 99.57 49.21 98.59 50.66 96.98 51.13 97.2 50.43 98.28 50.61 98.36 51.99 96.39 52.76 97.92 51.98 99.95 51.34 100.66 50.04 101.6 48.98 102.92 47.56 101.62"/><path class="cls-7" d="M42,109.4l-.12-.13c-.81-.74-1.79-.65-3,.21-2.77,2-5.61,3.3-8.44,5.78a2.3,2.3,0,0,0-.51,3.32l.1.17c.83,1.14,2.28,1.56,3.18.76,3-2.69,8.6-7.33,8.6-7.33A1.87,1.87,0,0,0,42,109.4Z"/><path class="cls-7" d="M49.84,102.35l-2-1.53s-6.42,5.93-8.28,8.33c-1,1.22-1.31,2.07-.55,2.86h0a2,2,0,0,0,3.21-.27C44.06,109.59,49.84,102.35,49.84,102.35Z"/><polygon class="cls-7" points="22.74 135.23 26.15 135.19 27.07 135.26 28.19 135.4 29.53 135.3 29.72 134.88 29.13 134.71 28.48 134.67 28.57 134.6 29.96 134.64 31.54 135.13 31.87 134.84 30.49 133.71 28.63 133.05 27.65 133.19 25.63 133.5 22.69 133.55 22.74 135.23"/><path class="cls-7" d="M12.72,135.21l.17,0c1.06.3,1.88-.23,2.56-1.53,1.57-3,4.51-9.5,5.91-13a2.3,2.3,0,0,0-1.05-3.19l-.17-.11a2.22,2.22,0,0,0-3.06,1.17c-1.46,3.76-5.47,14-5.47,14A1.89,1.89,0,0,0,12.72,135.21Z"/><path class="cls-7" d="M24.83,135.34l.61-2.1s-8.11-1.22-11.29-1.48c-1.54-.12-2.44.17-2.63,1.25h0a2,2,0,0,0,2.11,2.43C16.44,135.63,24.83,135.34,24.83,135.34Z"/><rect class="cls-20" x="23.04" y="113.04" width="2.98" height="4.77" transform="translate(-24.23 7.96) rotate(-12.41)"/><path class="cls-20" d="M27.1,109.41a3.61,3.61,0,0,1-1.69,4.77A3.6,3.6,0,0,1,21,111.76c-.11-.28-1.64-3.83-1.69-4.11l.89-1.57,2.26-1.65,2.24-.2A3.21,3.21,0,0,1,26.13,106C26.54,107.14,27,109.21,27.1,109.41Z"/><path class="cls-24" d="M25.77,104.32a1.72,1.72,0,0,0-.81-2.13c-.24-.11-1-.21-2.34.68s-1.58.15-2.39.77a5.08,5.08,0,0,0-1.64,4.86,8.76,8.76,0,0,0,1.9,3l.77,1.19a1.22,1.22,0,0,0,1.3.53l1.1-.22c.45-.09.59-.09.87-.46l.16-.21a2.43,2.43,0,0,0,.46-1.61l-.06-1.28-.23-1,.29-.43.39.81.34-.27c-.13-.26-.1-.88-.33-1.43,0-.09.15-.31.11-.4-.19-.47-.4-.93-.54-1.23A1.65,1.65,0,0,0,25.77,104.32Z"/><path class="cls-25" d="M25.88,108.52s.49,1.38.75,1.46.59-.2.59-.2a2.12,2.12,0,0,1,.18.54,7.07,7.07,0,0,1-.1,2.36,2.3,2.3,0,0,1-1.15,1.09.45.45,0,0,1,0-.1,5.92,5.92,0,0,1,.14-.89,13.42,13.42,0,0,0-.21-2.6c-.1-.25-.53-1.39-.53-1.39Z"/><path class="cls-7" d="M26.76,115.54l.38,0,3.66-.72c2.28.08,3.37,1.87,3.59,3.69l1.51,9.35.39,3.11,1.42,9.72-.77,2-15.77.5-1.06-2,.3-9.11-2-4.63-1.57-6c-.17-1.31-.14-3.54,1.66-4.35a30,30,0,0,1,4.06-1,19.29,19.29,0,0,0,2,0C25.1,116,26.76,115.54,26.76,115.54Z"/><rect class="cls-22" x="28.13" y="156.65" width="1.53" height="16.89" transform="translate(57.79 330.19) rotate(180)"/><path class="cls-14" d="M29.66,166.47h0a0,0,0,0,1,0,0v15.67a0,0,0,0,1,0,0h0a1.53,1.53,0,0,1-1.53-1.53V168A1.53,1.53,0,0,1,29.66,166.47Z" transform="translate(203.2 145.41) rotate(90)"/><path class="cls-26" d="M24.15,176.44a2,2,0,1,0-1.95,2A2,2,0,0,0,24.15,176.44Z"/><path class="cls-14" d="M23.43,176.44a1.23,1.23,0,1,0-1.23,1.24A1.24,1.24,0,0,0,23.43,176.44Z"/><path class="cls-26" d="M30.91,176.44a2,2,0,1,0-2,2A2,2,0,0,0,30.91,176.44Z"/><path class="cls-26" d="M37.67,176.44a2,2,0,1,0-2,2A2,2,0,0,0,37.67,176.44Z"/><path class="cls-14" d="M30.13,176.44a1.24,1.24,0,1,0-1.23,1.24A1.24,1.24,0,0,0,30.13,176.44Z"/><path class="cls-14" d="M36.94,176.44a1.23,1.23,0,1,0-1.23,1.24A1.24,1.24,0,0,0,36.94,176.44Z"/><path class="cls-14" d="M28.9,167.07h0a1.63,1.63,0,0,1,1.63,1.63v4.83a0,0,0,0,1,0,0H27.26a0,0,0,0,1,0,0V168.7A1.63,1.63,0,0,1,28.9,167.07Z"/><path class="cls-27" d="M27.26,173.54s3-.72,3.27-1.53v1.53Z"/><rect class="cls-28" x="28.9" y="158.25" width="0.39" height="8.82"/><path class="cls-14" d="M36.84,155.58a12.44,12.44,0,0,1-15.77-.33Z"/><path class="cls-29" d="M34.11,155.52h0l-13-.26.34.26L33,155.7s.25.14.08.59a3.77,3.77,0,0,1-1.2.81,13.9,13.9,0,0,1-4.62,1,12.76,12.76,0,0,0,9.59-2.52Z"/><path class="cls-13" d="M19.16,155.25l24.49.45a2.76,2.76,0,0,0,3-2.43v-.12c0-1.35-1.07-1.77-2.73-1.77l-24.77-1a2.76,2.76,0,0,0-3,2.43h0A2.76,2.76,0,0,0,19.16,155.25Z"/><g class="cls-12"><path class="cls-13" d="M46.66,153.15c0-1.35-1.07-1.77-2.73-1.77L23,150.53s-.06.37,1.63.46,9.43.65,10.75.65,6.08.34,7.46.49,3.24.39,3.76,1.44c0-.1,0-.2,0-.3Z"/></g><path class="cls-30" d="M19,126.77s3-.37,4.45-.5c1.87-.17,6.9-1,7.93,2.08.95,2.87.63,5.67,1.08,9.6s.53,6,.07,7.45-4.09,1.73-6.27,1.68c-4.07-.09-5.24.1-5.9-1-1-1.76-2-7.64-2.57-9.48S14.78,128.23,19,126.77Z"/><path class="cls-13" d="M22.25,146.83l6.12,0a4,4,0,0,0,.85-.09l2-.47a.51.51,0,0,0,.17-.07c.64-.45.84-1.4.79-2.73a65,65,0,0,0-1.09-7.64l-.45-6c-.56-3.21-1.73-3.56-5.71-3.57l-6.55.48c-3.34.58-3.76,2.72-3.21,5.94L17,138.6C17.5,141.81,18.39,146.84,22.25,146.83Z"/><path class="cls-13" d="M31.1,135.87l-.45-6c-.56-3.21-1.73-3.56-5.71-3.57l-6.34.47a6.34,6.34,0,0,0-1.53.38c-1.11.46-1.63,1.11-1,1a4.61,4.61,0,0,1,2.49-.94c3.06-.31,6.6-.59,7.87-.2,1,.31,1.46,1.21,1.75,2.89l.45,6c.32,1.83,1.29,5.49,1.3,8,0,1.88-.8,2.94-1,3l2.38-.54a.26.26,0,0,0,.12-.05C33.08,145.17,31.65,139.05,31.1,135.87Z"/><polygon class="cls-13" points="25.16 156.64 26.09 156.55 23.11 135.46 22.18 135.55 25.16 156.64"/><path class="cls-2" d="M64.51,134.19H47.59l2.87-9.27a.46.46,0,0,1,.44-.32H66.85a.46.46,0,0,1,.44.59Z"/><polygon class="cls-2" points="64.07 133.24 48.53 133.24 51.02 125.11 66.68 125.11 64.07 133.24"/><polygon class="cls-31" points="64.07 133.24 48.53 133.24 51.02 125.11 66.68 125.11 64.07 133.24"/><path class="cls-2" d="M38.47,134.19h26a0,0,0,0,1,0,0v0a1.15,1.15,0,0,1-1.15,1.15H39.62a1.15,1.15,0,0,1-1.15-1.15v0A0,0,0,0,1,38.47,134.19Z"/><path class="cls-2" d="M52.81,134.19H64.51a0,0,0,0,1,0,0v0a1.15,1.15,0,0,1-1.15,1.15H54a1.15,1.15,0,0,1-1.15-1.15v0A0,0,0,0,1,52.81,134.19Z"/><path class="cls-23" d="M64.47,130l-.59.14a2.34,2.34,0,0,1-.49-.14l-.23-.36a.2.2,0,0,0-.31,0l-.19.23a.2.2,0,0,1-.29,0l-.07-.06a.19.19,0,0,0-.28,0l0,0a.2.2,0,0,1-.31,0l-.53-1a.21.21,0,0,0-.35,0l-.94,2.11a.21.21,0,0,1-.29.07l0,0a.21.21,0,0,0-.27,0l-.09.1-.17-.14h-.37a.18.18,0,0,0-.18.13l-.05.22a.2.2,0,0,1-.31.09.21.21,0,0,0-.29,0l-.31.5a.2.2,0,0,1-.25.07l-.23-.1a.2.2,0,0,0-.17,0l-.33.14a.2.2,0,0,1-.22,0l-.09-.09a.2.2,0,0,0-.31,0h0a.2.2,0,0,1-.23.07l-.36-.1a.25.25,0,0,0-.17,0l-.43.26a.25.25,0,0,1-.17,0l-.3-.09a.24.24,0,0,0-.12,0l-.3.09a.28.28,0,0,1-.18,0l-.31-.21a.21.21,0,0,0-.23,0l-.47.32h0l-.52.25a.2.2,0,0,1-.17,0l-.3-.11h0l-1.09-.14h-.87l-.73.24a.26.26,0,0,0-.16.15l-.18.6H64.09l.9-2.83A1.55,1.55,0,0,0,64.47,130Z"/></g></g></svg>