<svg xmlns="http://www.w3.org/2000/svg" xmlns:xlink="http://www.w3.org/1999/xlink" viewBox="0 0 352.98 265.95"><defs><style>.cls-1{isolation:isolate;}.cls-2{fill:#1a2089;}.cls-3{fill:#b56cf7;}.cls-4{fill:#4cc2fc;}.cls-5{fill:#5d4efa;}.cls-6{fill:#fff;}.cls-7{fill:#f1f1f1;}.cls-8,.cls-9{fill:#334b6d;}.cls-9{opacity:0.54;}.cls-10{fill:#192641;}.cls-11{fill:#00244f;}.cls-12{fill:#6cafe0;}.cls-13{fill:#f2d2c4;}.cls-14{opacity:0.8;fill:url(#linear-gradient);}.cls-14,.cls-15{mix-blend-mode:multiply;}</style><linearGradient id="linear-gradient" x1="-3092.38" y1="3629.97" x2="-3062.92" y2="3629.97" gradientTransform="matrix(0.85, 0.53, -0.53, 0.85, 4647.54, -1346.03)" gradientUnits="userSpaceOnUse"><stop offset="0" stop-color="#9dceeb"/><stop offset="0.25" stop-color="#b9dcf0"/><stop offset="0.51" stop-color="#cee7f5"/><stop offset="0.76" stop-color="#dbeef7"/><stop offset="1" stop-color="#dff0f8"/></linearGradient></defs><title>your-business_needs</title><g class="cls-1"><g id="Layer_2" data-name="Layer 2"><g id="Layer_1-2" data-name="Layer 1"><circle class="cls-2" cx="80.65" cy="61.67" r="34.3" transform="translate(-6.43 9.47) rotate(-6.46)"/><circle class="cls-3" cx="80.42" cy="61.55" r="27.85" transform="translate(-20.85 61.89) rotate(-37.62)"/><circle class="cls-4" cx="80.4" cy="61.54" r="20.06" transform="translate(-15 27.61) rotate(-17.85)"/><rect class="cls-5" x="16.77" y="44.05" width="64.89" height="3.89" transform="translate(25.88 -17.2) rotate(26.67)"/><path class="cls-5" d="M45.51,44.38,18.24,30.68l-3.71-20L37.39,22.19a9.94,9.94,0,0,1,5.31,7.06Z"/><path class="cls-5" d="M45.51,44.38,18.24,30.68,0,39.62,22.86,51.1a9.92,9.92,0,0,0,8.84,0Z"/><circle class="cls-5" cx="80.35" cy="61.63" r="10.62" transform="translate(-15 27.54) rotate(-17.81)"/><circle class="cls-6" cx="311.97" cy="58.68" r="28.25" transform="translate(-2.67 16.64) rotate(-3.04)"/><path d="M312,87.09a29,29,0,0,1-5.13-.46A28.45,28.45,0,0,1,284,53.57l.16,0-.16,0a28.41,28.41,0,1,1,28,33.52Zm0-56.51A28.1,28.1,0,1,0,317,31,28.14,28.14,0,0,0,312,30.58Z"/><path class="cls-5" d="M324.16,18.78c-1.65,2.48-3.34,4.94-5,7.44-.5.78-.92,1-2.07.73a35.1,35.1,0,0,0-7.22-.8c-1.48,0-2-.12-2.41-1.18-1-2.75-2.19-5.44-3.24-8.18-.4-1-1-1.15-2.52-.26A18.42,18.42,0,0,1,293.82,19c-1.95.16-2.48.47-2.23,1.67.62,3,1.09,6,1.72,8.93a1.55,1.55,0,0,1-.71,1.81c-2.11,1.65-4.12,3.43-6.22,5.09a1.63,1.63,0,0,1-1.37.15c-3.08-1.25-6.13-2.56-9.28-3.9a36.38,36.38,0,0,0-6,10.68c-.12.31.32,1,.7,1.31,2.34,1.68,4.72,3.33,7.13,4.9.94.62,1.17,1.2.9,2.51a38.6,38.6,0,0,0-.68,7.28c0,.93-.26,1.28-1,1.57-3.08,1.24-6.15,2.52-9.38,3.86.33,1.66.53,3.31,1,4.88.65,2.2,1.5,4.34,2.25,6.51a1.28,1.28,0,0,0,1.77.94q4.44-1,8.92-1.75a1.75,1.75,0,0,1,1.37.54c1.65,2,3.18,4.07,4.85,6a1.56,1.56,0,0,1,.31,1.93c-1.31,3-2.55,6-3.86,9.14a37.06,37.06,0,0,0,11.42,6.4c1.79-2.7,3.64-5.33,5.33-8.07a2,2,0,0,1,2.49-1c2.49.4,5,.63,7.54.8.83.06,1.27.18,1.6,1,1.18,3.09,2.64,6.58,4,9.85l1.51-.49c3.13-1,6.31-2.07,9.51-3.08,1-.32,1.32-.79,1.06-1.92-.64-2.81-1.06-5.67-1.63-8.49a1.57,1.57,0,0,1,.83-1.9,58.42,58.42,0,0,0,5.92-4.73,1.53,1.53,0,0,1,1.92-.44c2.73,1.19,5.49,2.32,8.22,3.51.88.39,1.46.41,1.95-1a29.36,29.36,0,0,1,4.58-8.38c.81-1.08.68-1.62-.16-2.18-2.5-1.63-4.94-3.34-7.44-5a1.36,1.36,0,0,1-.69-1.64q.61-4.11.9-8.27c.06-.88.2-1.38,1.1-1.73,3-1.21,6-2.52,9.05-3.79l-.05-1.47c-.34-1.41-.6-2.85-1-4.24-.63-2-1.4-4-2.07-5.93-.26-.77-.69-.9-1.45-.73-3.29.7-6.6,1.34-9.58,1.94-2.2-2.55-4.25-4.88-6.24-7.28a1.76,1.76,0,0,1-.26-1.47c1.09-2.77,2.24-5.53,3.47-8.24.57-1.26.23-1.89-2.32-2.4a12.86,12.86,0,0,1-6.66-3.68C325.12,17.37,324.68,18,324.16,18.78Zm10.71,42a24.95,24.95,0,1,1-22.32-27.33A25,25,0,0,1,334.87,60.82Z"/><path class="cls-2" d="M287.26,56a23.18,23.18,0,1,0,25.38-20.73A23.21,23.21,0,0,0,287.26,56Zm39,2.11a15.94,15.94,0,0,1-31.86,1,15.94,15.94,0,0,1,31.86-1Z"/><path class="cls-7" d="M306.45,78.74a21.05,21.05,0,0,0,18.29-5.48l-.28-.3A20.57,20.57,0,0,1,290,54.4l-.41-.08A21,21,0,0,0,306.45,78.74Z"/><path class="cls-7" d="M297.9,41.63a20.55,20.55,0,0,1,12.71-4.1v-.41a21,21,0,0,0-13,4.18Z"/><path class="cls-7" d="M330.47,61.81l.4.07a21,21,0,0,0-7.59-20.22L323,42A20.57,20.57,0,0,1,330.47,61.81Z"/><path class="cls-7" d="M285.87,43.09a28.94,28.94,0,0,0-2.23,26.17l.52-.21a28.3,28.3,0,0,1,41.18-34.7l.29-.48A28.89,28.89,0,0,0,285.87,43.09Z"/><path class="cls-7" d="M337.67,50.93a28.39,28.39,0,0,1-1.19,18.33l.52.22a29,29,0,0,0,1.21-18.7Z"/><rect class="cls-2" x="151.49" y="241.79" width="84.01" height="1.68"/><path class="cls-2" d="M215.92,217.85H171.07s.71,21.67-8,23.94h60.78C215.21,239.52,215.92,217.85,215.92,217.85Z"/><rect class="cls-2" x="76.24" y="56.51" width="234.5" height="161.49" rx="17.87"/><path class="cls-2" d="M76.24,196.3v15.86A5.86,5.86,0,0,0,82.08,218H304.91a5.85,5.85,0,0,0,5.83-5.84V196.3Z"/><rect class="cls-6" x="85.96" y="66.31" width="215.07" height="119.91"/><path class="cls-8" d="M112.12,56.51s8.3,5.92,14.42,9.62h86.67L191,56.54Z"/><path class="cls-9" d="M87.24,56.51s8.29,5.92,14.41,9.62h86.67l-22.25-9.59Z"/><path class="cls-9" d="M141.62,56.51s8.29,5.92,14.41,9.62H242.7l-22.25-9.59Z"/><path class="cls-10" d="M196.87,63.15a2.06,2.06,0,1,1,2.06-2.06A2.07,2.07,0,0,1,196.87,63.15Zm0-3.74a1.68,1.68,0,1,0,1.68,1.68A1.68,1.68,0,0,0,196.87,59.41Z"/><path class="cls-10" d="M190.79,61.09a1.34,1.34,0,1,1-1.34-1.34A1.34,1.34,0,0,1,190.79,61.09Z"/><path class="cls-4" d="M113.87,79.57V204.2a3.33,3.33,0,0,0,3.33,3.33h92a3.33,3.33,0,0,0,3.34-3.33V111L177.76,76.23H117.2A3.34,3.34,0,0,0,113.87,79.57Z"/><path class="cls-11" d="M212.52,111,177.76,76.23v30.55A4.22,4.22,0,0,0,182,111Z"/><rect class="cls-12" x="114.33" y="98.09" width="43.82" height="19.09"/><path class="cls-4" d="M241.48,112.37h52.85c-9.72-23.7-3.91-48.07-3.91-48.07h-32.8l-20-.39S232.87,98.09,241.48,112.37Z"/><path class="cls-4" d="M289.75,95.72a89.82,89.82,0,0,1,.67-31.42h-32.8l-20-.39s-.51,3.67-.89,9.11C241.52,81.44,257.9,93.31,289.75,95.72Z"/><rect class="cls-4" x="254.84" y="59.7" width="20.95" height="7.05" transform="translate(530.62 126.45) rotate(180)"/><path class="cls-4" d="M87.54,121.9V93.35h12.8V78.81a30.61,30.61,0,0,0,0,59.94v-8.83Z"/><polygon class="cls-10" points="87.53 121.9 100.34 129.92 100.34 121.9 87.53 121.9"/><path class="cls-7" d="M131.67,91.27a30.6,30.6,0,0,0-31.33-12.46V93.35H133C132.59,92.64,132.15,92,131.67,91.27Z"/><path class="cls-7" d="M133.1,121.9H100.34v16.85A30.63,30.63,0,0,0,134,122.44l.27-.54Z"/><path class="cls-4" d="M133,93.35H87.54V121.9h46.7A30.6,30.6,0,0,0,133,93.35Z"/><path class="cls-5" d="M71.38,161.48c2.63,0,6,4.1,6.44,8.07,0,.35.35,1.86.74,3.33a28.36,28.36,0,0,0,4.07,9c2.65,3.18,9.34,1.63,13.16.44a7,7,0,0,1,.06,2.8c-.59.3-1.18.59-1.78.87a34.68,34.68,0,0,1-4.5,1.76,17.75,17.75,0,0,1-5,.82,9.11,9.11,0,0,1-4.7-1.19,7.76,7.76,0,0,1-1.79-1.49c-2.15-2.38-4.12-6.52-5.42-10.44-1.1-2.25-2.28-4.4-2.78-5.82C68.13,164.62,69,161.53,71.38,161.48Z"/><path class="cls-10" d="M57.57,262.11a2.75,2.75,0,0,0,2.31-.78v.36s4.64,1.82,5.23,2.67,0,1.65-2.27,1.58c-5.56-.15-5.76-.69-5.76-.69-.56-1.79.06-1.74-.09-3.25A2.83,2.83,0,0,0,57.57,262.11Z"/><path class="cls-10" d="M69.72,260.53a7,7,0,0,0,.74.24,4.12,4.12,0,0,0,2.91-.27c0,.13,0,.21,0,.21a38.39,38.39,0,0,1,7,2.26c3.51,1.55,6,3.42-1.36,2.16s-9.36-1.75-9.3-3.1C69.75,261.63,69.74,261.09,69.72,260.53Z"/><path class="cls-4" d="M77.4,195.92S76,219,75.29,224.85s-1.93,35.39-1.93,35.39l-1.91.66-1.74-.66s-1.24-21.6-1.86-26.3-3.09-31.28-3.26-36S73.53,180.24,77.4,195.92Z"/><path class="cls-4" d="M69.06,197.89S66,219.6,65,225.41s-5.07,35.92-5.07,35.92l-1.44,1L57,261.82s-.41-24.23-.77-29-.5-32.51-.39-37.23S66.12,182,69.06,197.89Z"/><path class="cls-13" d="M65.76,159.72c-.6.11-1.22.13-1.79.22a7.06,7.06,0,0,1-1.71.14c0-.79-.06-1.66,0-2.4,1.16.68,2.37.31,3.55-.15C65.75,158.24,65.73,159,65.76,159.72Z"/><path class="cls-5" d="M56.58,188.72c1.19-4.53,1.59-10.52.52-13.87-2.12-6.66-1-11.36,2.44-13.4a12.31,12.31,0,0,1,2.14-1c.06-.15.12-.31.17-.47a5.11,5.11,0,0,0,.21-1.27c0-.22.58,0,.74,0,.31,0,.61.07.92.08a7.85,7.85,0,0,0,2.27-.34,4.72,4.72,0,0,0,.37,1.56v0A11.07,11.07,0,0,1,71,162c4,3.64,2.45,10.67,4.55,19.86,2.51,11,1.9,14.06,1.9,14.06s-14.54,3-21.57-.29A20.22,20.22,0,0,1,56.58,188.72Z"/><path class="cls-13" d="M68.6,146.89a26.82,26.82,0,0,0,.28,4.3c.33,1.91,1.15,6.66-2.1,6.87s-4.79-.07-5.52-.88-3.55-5.76-2.18-8.32S66.28,142.8,68.6,146.89Z"/><path class="cls-10" d="M58,150.05c0-1.43.51-3.1,1.87-3.53.3-.09,1-1.49,1.4-1.78a5.68,5.68,0,0,1,2.1-1.15,8,8,0,0,1,4-.26,2.89,2.89,0,0,1,2,2.39c.24,2-1.61,2.29-3.17,2.28a7.7,7.7,0,0,0-2.79.38,3.25,3.25,0,0,0-2,1.87,5.1,5.1,0,0,0,0,2.57,10,10,0,0,0,.81,1.83,2,2,0,0,0,1.57.43c.81-.1,3.43-1,4.84-.77l.42-.12a.42.42,0,0,1,.35,0c.32.21.33,1.2.21,1.55a2.83,2.83,0,0,1-.54.91,3.14,3.14,0,0,1-2.6,1.42c-.7.07-1.89.39-2.55.06a1.28,1.28,0,0,1-.68-1,6.6,6.6,0,0,1-.68-.83c-.36-.44-.7-.9-1-1.36a3.77,3.77,0,0,1-.61-1.11,4.52,4.52,0,0,1-.13-.75l0-.32a1,1,0,0,1,0-.24c-.05-.48-.11-1.07-.56-1.23A3.1,3.1,0,0,0,60.3,154l.12.28a.63.63,0,0,1,.24.15A2.19,2.19,0,0,1,61,155a11.19,11.19,0,0,1,.87,2.43.32.32,0,0,1,0,.27c-.11.11-.29,0-.41-.09a8.32,8.32,0,0,1-1.11-1.11l-.08-.09A10.21,10.21,0,0,1,58,150.05Z"/><path class="cls-12" d="M73.35,259.82c0,.4,0,.73,0,.84-.9,1.16-2.44.65-3.66-.05,0-.14,0-.29,0-.43A4.29,4.29,0,0,0,73.35,259.82Z"/><path class="cls-12" d="M59.9,261.13c0,.07,0,.48,0,.56a3.38,3.38,0,0,1-2.42.69l-.46-.15c0-.21,0-.51,0-.73A4.09,4.09,0,0,0,59.9,261.13Z"/><path class="cls-5" d="M59.32,164.67c1.24,2.07-.55,6.65-3.51,8.83-.26.19-1.32,1.12-2.33,2.11h0A26.1,26.1,0,0,0,48.15,183c-1.94,5.22,7.63,12.51,7.63,12.51a7.49,7.49,0,0,1,.91,1.08c.61.87.59,2.07-.13,1.63-1-.62-2.34-1.44-3.57-2.26-2.61-1.75-12.53-7.49-10.13-14.77.93-2.81,3.34-6.27,5.88-9.1,1.3-1.9,2.48-3.83,3.38-4.87C55.33,163.5,58.22,162.82,59.32,164.67Z"/><path class="cls-13" d="M61.29,199.53a.68.68,0,0,0,.56,0l.1-.06a.39.39,0,0,0,.08-.1.28.28,0,0,0,0-.2,1.4,1.4,0,0,0-.09-.17,1.05,1.05,0,0,1,.19.05.45.45,0,0,0,.23,0c.08,0,.16-.09.18-.17s-.12-.29-.2-.4a3.26,3.26,0,0,0-.33-.31.44.44,0,0,0,.2,0,.2.2,0,0,0,.08,0,.3.3,0,0,0,0-.33,1.86,1.86,0,0,0-.78-.86c-.35-.22-.68-.48-1-.69a5.19,5.19,0,0,0-.5-.31,1.84,1.84,0,0,0-.66-.07,10.54,10.54,0,0,0-2.31.24l-.22.07-1-.68L54.68,197l1.07.69v0a1.15,1.15,0,0,0,.51.76,2.63,2.63,0,0,0,.81.34,1.61,1.61,0,0,0,.43.07,4.94,4.94,0,0,0,.94-.05,1.84,1.84,0,0,1,.41,0,.36.36,0,0,1,.28.11,5,5,0,0,0,.64.46.75.75,0,0,0,.13.06,2.28,2.28,0,0,0,1,.21.53.53,0,0,0,.24-.08s.06-.07.11-.06Z"/><path class="cls-5" d="M99,146.27,97,165.87a3.21,3.21,0,0,0-2,2.66l-9.51,93.24a3.23,3.23,0,0,0,2.9,3.52l4.9.47a3.23,3.23,0,0,0,3.52-2.9l9.51-93.24a3.23,3.23,0,0,0-1.42-3l2-19.61L108,147c12.22-.77,22.09-5.94,29.36-15.7a36.85,36.85,0,0,0,7.19-25.82,38.11,38.11,0,0,0-75.53-3C65.94,119.68,75.58,140,97.92,146,97.92,146,98.31,146.13,99,146.27ZM82.23,127.21a30.53,30.53,0,1,1,41.06,7.16A30.4,30.4,0,0,1,82.23,127.21Z"/><path class="cls-11" d="M74.17,105.67a32.55,32.55,0,1,0,35.52-29.29A32.56,32.56,0,0,0,74.17,105.67ZM89.33,84.08a30.13,30.13,0,1,1-7.47,42A30.12,30.12,0,0,1,89.33,84.08Z"/><rect class="cls-12" x="98.96" y="146.8" width="1.1" height="19.14" transform="translate(17.04 -9.62) rotate(6.05)"/><polygon class="cls-12" points="88.31 262.08 87.22 261.96 96.79 168.2 97.89 168.31 88.31 262.08"/><path class="cls-13" d="M106.29,179.83c0-.15,0-.63-.19-.76a1.9,1.9,0,0,0-1-.16,3.72,3.72,0,0,0-.64.08c-.34.1-.75.15-.89.44s0,.35.23.4a.4.4,0,0,0,0,.79c-.65.17-.59.73.1.9-.36-.09-.25.63.07.74a2.08,2.08,0,0,0,1.44.13.82.82,0,0,0,.48-.72A4.34,4.34,0,0,0,106.29,179.83Z"/><path class="cls-14" d="M120.92,87.47a25.06,25.06,0,0,0-3.4-1.78,25.61,25.61,0,0,1-12.1,44.71c.35,1.48.69,3,1,4.44a25.62,25.62,0,0,0,14.46-47.37Z"/><path class="cls-10" d="M331.26,158.08a13.45,13.45,0,0,0,7.49.86c3.89-.79,2.86-10,.88-12.12s-6.32-2.92-7.27-3.07C329.13,143.22,333.53,155.84,331.26,158.08Z"/><path class="cls-13" d="M309.77,180.13c-4,0-8.39-.17-8.39-.17a7.46,7.46,0,0,0,2.16,1.26,32.09,32.09,0,0,0,3.95.09l2.36.13C309.82,181,309.79,180.57,309.77,180.13Z"/><path class="cls-4" d="M335.44,164.77c-1-1.08-3.32-1.89-5.57,2.52s-5.12,11.05-6.38,11.59-7.64,1.26-12.05,1.26l-2.42,0c0,.43,0,.85,0,1.27l3.24.19s7.82,1.43,10,1.61,2.79.72,6.83-4.76S336.43,165.85,335.44,164.77Z"/><path class="cls-13" d="M344.76,221.16s1.42,37.57,1.1,39-2,.1-2,.1l-5.69-43.62L341.8,215Z"/><path class="cls-13" d="M334.85,214s2.25,28.2-2.37,46.38l-1.79,0s-.36-30.47-2.56-44.11l.79-5.6Z"/><path class="cls-10" d="M323.57,263.19a28.86,28.86,0,0,1,5.4-1.73,3.48,3.48,0,0,0,3.76-.34,3.51,3.51,0,0,1,.41,2.08c-.28,1.32-1.84,1.43-8.43,2.22S320.4,264.51,323.57,263.19Z"/><path class="cls-10" d="M337,263.44a28.91,28.91,0,0,1,5.37-1.82,3.47,3.47,0,0,0,3.75-.41,3.54,3.54,0,0,1,.45,2.08c-.25,1.32-1.81,1.45-8.39,2.37S333.84,264.82,337,263.44Z"/><path class="cls-13" d="M345.91,259.45l.27,1.87a16.73,16.73,0,0,1-5,2s.87-1.27-.49-1.3c0,0,3.59-1.39,3.64-2.57S345.91,259.45,345.91,259.45Z"/><path class="cls-13" d="M332.64,259.4l.18,1.89a16.08,16.08,0,0,1-5,1.92s.91-1.31-.45-1.37c0,0,3.6-1.26,3.67-2.44S332.64,259.4,332.64,259.4Z"/><path class="cls-4" d="M345.66,222.15a1.55,1.55,0,0,1-.3.87,1.53,1.53,0,0,1-1.15.32l-16.3,0a322.73,322.73,0,0,1,1.77-34.23,14.91,14.91,0,0,1,.75-3.86,8.07,8.07,0,0,1,10-4.45,9.89,9.89,0,0,1,5.85,7.2C348.49,199,347,211.05,345.66,222.15Z"/><path class="cls-4" d="M344,168.28a16,16,0,0,0-1.5,5.85,24.38,24.38,0,0,0-.28,4c.08,2,4.1,6.39,4.52,10.91,0,.15-4.46,1.63-6.38-1-.72,2.94-9,5.57-11,2.1-.33-.6,1.43-7.95,1.37-8.63-.46-5.31.55-7.68-.12-13-.15-1.2-.76-2.5-.28-3.61,2.14-4.95,1.32-5.51,4.17-6.46s8.3-1.54,9.14-.39C345.94,161.12,344.72,167,344,168.28Z"/><path class="cls-13" d="M310.19,175.52a1.84,1.84,0,0,1,.47-.36c.56-.36,1.33-1.22,2-1.26a8.45,8.45,0,0,1,2.08.57,6.7,6.7,0,0,1,2.54,1.17c.2.15.17.39.2.62s.07.6.11.9a.15.15,0,0,1,0,.07s0,0-.06,0a6.83,6.83,0,0,1-1.5.05l-.69,0c-.19,0-.39.19-.58.23a9.33,9.33,0,0,1-1.83.21,2.19,2.19,0,0,1-1-.14c-.11-.05-1.26-.86-1.3-.89a4.26,4.26,0,0,1-.59-.66A.65.65,0,0,1,310.19,175.52Z"/><path class="cls-13" d="M310.61,174.15s-.79.22-.94.28a31.26,31.26,0,0,0-1.19,3.18s.47.74,1.92-2.28l1.78,0,.62-1.41Z"/><path class="cls-4" d="M342.34,158.69c-3.36-.35-7.09,8.25-7.93,9.86-1.72,3.29-3.88,6.6-5.18,7.72-3,2.54-9.18.34-12.8-1.25a6,6,0,0,0-.38,2.44c.5.37,1.37.77,1.88,1.12a30,30,0,0,0,3.93,2.06,16.52,16.52,0,0,0,4.53,1.55,8.6,8.6,0,0,0,4.55-.38,7.53,7.53,0,0,0,1.9-1.1c2.26-1.8,8.73-12.86,9.41-14.1C344.65,162.23,344.53,158.92,342.34,158.69Z"/><path class="cls-13" d="M334.79,156.29a2.86,2.86,0,0,1-1.05-.18,2.54,2.54,0,0,1-1-.89,8.47,8.47,0,0,1-1.45-4.45,16.92,16.92,0,0,1,.48-4.7,2.32,2.32,0,0,1,.24-.73,1.91,1.91,0,0,1,.77-.69,6,6,0,0,1,4.37-.17,5.7,5.7,0,0,1,2,.91,6.35,6.35,0,0,1,1.19,1.39,6.14,6.14,0,0,1,.88,1.68,6,6,0,0,1,.18,1.64,13.46,13.46,0,0,1-.33,3,3.28,3.28,0,0,1-.54,1.29,5.47,5.47,0,0,1-2.5,1.36A10,10,0,0,1,334.79,156.29Z"/><path class="cls-13" d="M339,158.78c.06.52-3.39.45-3.41.31a31.24,31.24,0,0,0-1.2-6,11.47,11.47,0,0,1,4.88-.39C339.5,152.8,338.89,158.09,339,158.78Z"/><path class="cls-13" d="M340,158.73c0,.32-.41.47-.72.57a31.16,31.16,0,0,0-5.29,1.91,4.11,4.11,0,0,1,0-2.31,9.65,9.65,0,0,1,2.47-.77C337.49,157.91,340.06,158.42,340,158.73Z"/><path class="cls-4" d="M331.79,162.59a25.08,25.08,0,0,0-2.79,4.57c-.81,2,2.14,6.57,2.14,6.57l3.08-5Z"/><polygon class="cls-5" points="317.23 180.14 299.28 180.14 291.76 165.21 292.72 164.72 299.94 179.06 317.23 179.06 317.23 180.14"/><polygon class="cls-5" points="317.23 180.14 299.28 180.14 299.94 179.06 317.23 179.06 317.23 180.14"/><path class="cls-10" d="M331.68,144.59s7.21,8,6.15,16c0,0,3.35-.39,4.75-1.47,0,0-.17-1.56-.26-2a8.6,8.6,0,0,1,1,2.21s2.47-.7,3-1.43c.28-.4.13-1.36.1-1.81a24.76,24.76,0,0,0-.52-3.54c-.9-4.15-3.06-8.68-7-9.95a8.89,8.89,0,0,0-6,.56C332.42,143.33,331,143.88,331.68,144.59Z"/><path class="cls-13" d="M233.71,15.92a7.52,7.52,0,0,0-1.33-1.26c-2-1.44-3.66-.06-4.95,1.46-1,3-4.1,14.33-4.66,15.74-1.39,3.57-2.44,4.42-5.72,5.66A22.59,22.59,0,0,1,209.22,39c-3-.11-4.45-1.14-4.89-1s-2.74,1.35-3.17,2.52-1,1.67-.3,1.6,1.7-1.34,2.66-1.47a27.12,27.12,0,0,1,5.62.43,36.6,36.6,0,0,0,12.59-1.37c2.79-1,4.82-4.7,7.7-9.55s4.44-9.32,4.48-12.32A8.31,8.31,0,0,0,233.71,15.92Z"/><path class="cls-13" d="M226.33,84.18a36.77,36.77,0,0,1,2.36,4.55s-3,3.11-3.17,4,.42,1,2.35.43a12.38,12.38,0,0,0,3.93-2.36c0-1.37-1.49-5.14-2.8-8.18A9.66,9.66,0,0,1,226.33,84.18Z"/><path class="cls-8" d="M227.74,86.72c.33.65.65,1.31.95,2,0,0-5.3,4.92-5.46,5.8s.43,1,2.36.44,6.21-4.18,6.21-4.18a21,21,0,0,0-1.56-5.16A8.91,8.91,0,0,1,227.74,86.72Z"/><path class="cls-13" d="M208.5,84.72a36,36,0,0,1,2.35,4.55s-3,3.1-3.17,4,.43,1,2.36.43A12.38,12.38,0,0,0,214,91.33c0-1.37-1.49-5.15-2.8-8.18A9.91,9.91,0,0,1,208.5,84.72Z"/><path class="cls-10" d="M209.91,87.25c.33.66.64,1.32.94,2,0,0-4.82,4.38-5,5.26s.43,1,2.36.44S214,91.33,214,91.33a21.32,21.32,0,0,0-1.56-5.16A8.89,8.89,0,0,1,209.91,87.25Z"/><path class="cls-13" d="M222.37,6.3a15.73,15.73,0,0,1,1,2.58c.48,1.61,1.66,5.62,4.27,4.54s3.7-1.9,4-2.81.55-5.84-1.5-7.31S222.05.85,222.37,6.3Z"/><path class="cls-13" d="M233.45,14.32c-.16-.41-1.2-1.73-1.51-2.28-.16-.29-.5-1.09-.72-1.2a.64.64,0,0,1-.18-.13,9.21,9.21,0,0,0-1,0c-.93,0-2.25.3-2.13,1.29.11.83,1.35,1.9.7,2.74-.26.33-1,1.84-.78,1.89a4.26,4.26,0,0,0,2-.23A4.44,4.44,0,0,1,233.45,14.32Z"/><path class="cls-4" d="M240.27,28.87C238.13,18.62,236.57,15.53,234,14a6.52,6.52,0,0,0-.72-.21c-.42-.54-1-1.24-1.27-1.64a9.65,9.65,0,0,1-3.36,1.52,1,1,0,0,1-.06,1c-3.4,2.47-4.46,8.62-4.41,10.63.19,6.83-2,20.21-2,20.21,14,7.61,18.66,0,18.66,0S243,42.13,240.27,28.87Z"/><path class="cls-13" d="M235.26,21.31c-2-.5-3.91-1.21-5.91-1.65-.89,4.36-2.46,13.15-2.83,14.4-1.06,3.69-2,4.63-5.18,6.16a22.32,22.32,0,0,1-7.67,2.15c-2.95.16-4.53-.73-5-.57s-2.6,1.6-2.92,2.8-.88,1.76-.15,1.62,1.57-1.49,2.51-1.71a26.43,26.43,0,0,1,5.63-.08,36.69,36.69,0,0,0,12.42-2.52c2.68-1.28,4.37-5.12,6.79-10.21a34.14,34.14,0,0,0,3.25-10.17Z"/><path class="cls-4" d="M234.22,30.44c1.63-4.14,2.38-7.78,2.18-10.33a9.15,9.15,0,0,0-.4-1.95A8,8,0,0,0,234.47,17c-2.23-1.34-3.89.29-5.11,2-.4,1.7-1.17,5.76-1.88,9.52C229.75,29,232,29.81,234.22,30.44Z"/><path class="cls-5" d="M233.45,56.23s-18-.48-24.29,2.52c-2.91,2.06,3,26.11,3,26.11l-2.9,1.51s-11.39-24.71-7.71-32.83,32.73-8.67,32.73-8.67,6.29,1.55,5.66,5.22S239.07,55.74,233.45,56.23Z"/><path class="cls-5" d="M241.29,44.22H222.38A6.72,6.72,0,0,0,222,46c-5,1.47-11.39,4.35-12.11,9.61-1.2,8.84,16.78,29.26,16.78,29.26l2.92-1.29s-13.13-22.34-10.93-25.15c1.2-2.29,11.28-2,11.28-2,8.44,0,10.27-2.32,10.66-4.18C241.56,49.44,241.29,44.22,241.29,44.22Z"/><path class="cls-8" d="M187.45,25.06l10.21,20.11H218.5v1.56H197.24l-10.62-21S186.1,24.74,187.45,25.06Z"/><path class="cls-8" d="M234.22,6.37A2.86,2.86,0,0,0,234,4.66a1.42,1.42,0,0,0-1.45-.77,3.29,3.29,0,0,0-1.18-2.48,2.33,2.33,0,0,0-2.64-.22c0-.31-.29-.52-.58-.66a4.45,4.45,0,0,0-3.07-.4,1.42,1.42,0,0,0-.72.42.69.69,0,0,0-.09.78,1.28,1.28,0,0,0-.54-.18,2.38,2.38,0,0,0-1.66.24,1.21,1.21,0,0,0-.49,1.48A1.52,1.52,0,0,0,220.34,4a1.67,1.67,0,0,0,.35,1.38c.26.45.05,1,.25,1.47a1.27,1.27,0,0,0,1.08.82.88.88,0,0,0,.92-.87,1.12,1.12,0,0,0,1.76-.59,2.63,2.63,0,0,0,2.54.7.77.77,0,0,0,.5.78l.16,0a1.42,1.42,0,0,0,.07.22c.13.35.24.95.7,1a.42.42,0,0,0,.27-.07,1.12,1.12,0,0,1,.27-.43.62.62,0,0,1,.19-.11l0,0h.08a1.37,1.37,0,0,0,0,.35,1,1,0,0,0,.64.88,2.36,2.36,0,0,0,.46,1.45,1.52,1.52,0,0,0,1.35.59,2,2,0,0,0,1.46-1.68,1.36,1.36,0,0,0-.32-1.38A2.72,2.72,0,0,0,234.22,6.37Z"/><rect class="cls-6" x="153.17" y="139.74" width="34.89" height="0.67"/><rect class="cls-6" x="143.25" y="141.4" width="44.81" height="0.67"/><rect class="cls-6" x="143.25" y="143.23" width="44.81" height="0.67"/><rect class="cls-6" x="143.25" y="145.06" width="44.81" height="0.67"/><rect class="cls-6" x="143.25" y="146.84" width="44.81" height="0.67"/><rect class="cls-6" x="153.17" y="149.5" width="34.89" height="0.67"/><rect class="cls-6" x="143.25" y="151.17" width="44.81" height="0.67"/><rect class="cls-6" x="143.25" y="153" width="44.81" height="0.67"/><path class="cls-6" d="M204.14,123.32h-13a.76.76,0,0,1-.76-.76h0a.76.76,0,0,1,.76-.76h13a.76.76,0,0,1,.76.76h0A.76.76,0,0,1,204.14,123.32Z"/><path class="cls-6" d="M204.14,125.92h-13a.76.76,0,0,1-.76-.76h0a.77.77,0,0,1,.76-.76h13a.77.77,0,0,1,.76.76h0A.76.76,0,0,1,204.14,125.92Z"/><path class="cls-6" d="M204.14,128.52h-13a.76.76,0,0,1-.76-.75h0a.76.76,0,0,1,.76-.76h13a.76.76,0,0,1,.76.76h0A.76.76,0,0,1,204.14,128.52Z"/><path class="cls-6" d="M204.14,131.13h-13a.76.76,0,0,1-.76-.76h0a.76.76,0,0,1,.76-.76h13a.76.76,0,0,1,.76.76h0A.76.76,0,0,1,204.14,131.13Z"/><path class="cls-6" d="M189.14,122.5a.59.59,0,1,1-1.17,0,.59.59,0,1,1,1.17,0Z"/><circle class="cls-6" cx="188.56" cy="125.14" r="0.59"/><circle class="cls-6" cx="188.56" cy="127.77" r="0.59"/><circle class="cls-6" cx="188.56" cy="130.37" r="0.59"/><path class="cls-6" d="M277.43,81.9H252.72a1.45,1.45,0,0,1-1.44-1.44h0A1.45,1.45,0,0,1,252.72,79h24.71a1.44,1.44,0,0,1,1.44,1.44h0A1.44,1.44,0,0,1,277.43,81.9Z"/><path class="cls-6" d="M277.43,86.84H252.72a1.45,1.45,0,0,1-1.44-1.44h0A1.45,1.45,0,0,1,252.72,84h24.71a1.44,1.44,0,0,1,1.44,1.44h0A1.44,1.44,0,0,1,277.43,86.84Z"/><path class="cls-6" d="M277.43,91.78H252.72a1.44,1.44,0,0,1-1.44-1.44h0a1.45,1.45,0,0,1,1.44-1.44h24.71a1.44,1.44,0,0,1,1.44,1.44h0A1.43,1.43,0,0,1,277.43,91.78Z"/><path class="cls-6" d="M277.43,96.73H252.72a1.45,1.45,0,0,1-1.44-1.45h0a1.45,1.45,0,0,1,1.44-1.44h24.71a1.44,1.44,0,0,1,1.44,1.44h0A1.44,1.44,0,0,1,277.43,96.73Z"/><path class="cls-6" d="M249,80.35a1.12,1.12,0,1,1-1.12-1.12A1.12,1.12,0,0,1,249,80.35Z"/><path class="cls-6" d="M249,85.35a1.12,1.12,0,1,1-1.12-1.11A1.12,1.12,0,0,1,249,85.35Z"/><path class="cls-6" d="M249,90.34a1.12,1.12,0,1,1-1.12-1.11A1.12,1.12,0,0,1,249,90.34Z"/><path class="cls-6" d="M249,95.28a1.12,1.12,0,1,1-1.12-1.11A1.12,1.12,0,0,1,249,95.28Z"/><path class="cls-6" d="M161.43,134.07H141.87a1.64,1.64,0,0,1-1.64-1.63h0a1.65,1.65,0,0,1,1.64-1.64h19.56a1.65,1.65,0,0,1,1.64,1.64h0A1.64,1.64,0,0,1,161.43,134.07Z"/><path class="cls-6" d="M142.91,132.44a.73.73,0,0,1-1.46,0,.73.73,0,1,1,1.46,0Z"/><path class="cls-12" d="M182.7,126.46a7.5,7.5,0,1,0-12.15,5.87,10.51,10.51,0,0,1-.38-1.82s-.41-3.11-.1-3.42,2.38-.41,3.31-.83a1,1,0,0,0,.67-.79,2.61,2.61,0,0,1-1-2.11,2.11,2.11,0,1,1,4.14,0,2.61,2.61,0,0,1-1,2.11,1,1,0,0,0,.67.79c.93.42,3,.52,3.31.83s-.1,3.42-.1,3.42a11.12,11.12,0,0,1-.42,2A7.51,7.51,0,0,0,182.7,126.46Z"/><path class="cls-7" d="M180.21,127.09c-.31-.31-2.38-.41-3.31-.83a1,1,0,0,1-.67-.79,2.61,2.61,0,0,0,1-2.11,2.11,2.11,0,1,0-4.14,0,2.61,2.61,0,0,0,1,2.11,1,1,0,0,1-.67.79c-.93.42-3,.52-3.31.83s.1,3.42.1,3.42a10.51,10.51,0,0,0,.38,1.82,7.48,7.48,0,0,0,9.14.14,11.12,11.12,0,0,0,.42-2S180.52,127.4,180.21,127.09Z"/><path class="cls-13" d="M215,259.73c.13-1.83.2-3.85.22-5.54a11.55,11.55,0,0,1-3.57,0c.16,1.29.31,3.11.38,4.78A4.58,4.58,0,0,0,215,259.73Z"/><path class="cls-13" d="M206.49,259.64c0-1.62-.1-3.41-.21-5a10.13,10.13,0,0,0-3.49-.41,51.36,51.36,0,0,1,.73,5.33A26.62,26.62,0,0,0,206.49,259.64Z"/><path class="cls-4" d="M209,189.32c5.82-.2,7.91,3.94,7.75,8.36,0,.49-.3,34.83-1.49,57.34-.89,0-2.83-.05-3.72-.06-.55-10.19-5.59-51.84-7.15-57.11C204.39,197.85,203.18,189.53,209,189.32Z"/><path class="cls-4" d="M203.1,189.29c-5.83,0-7.77,4.22-7.45,8.63,0,.49,3.38,36.84,7.18,57.12.89-.06,2.55-.15,3.44-.19.18-10.2.37-51.88,1.74-57.21C208,197.64,208.92,189.29,203.1,189.29Z"/><path class="cls-5" d="M229.5,175.1c-2.32-6.1-11.84-13.63-14.27-15.48a38.48,38.48,0,0,1-3.33,2.84c-.48.43-.94.88-1.38,1.34,3.72,3.07,12.54,10.08,13.9,13.3,2.13,5-6.93,12.42-6.93,12.42s-1.06.2-1.84.44a28.69,28.69,0,0,1-.24,3.34c.62-.42,2.88-1.89,4.87-3.35C222.75,188.13,232.16,182.1,229.5,175.1Z"/><path class="cls-13" d="M217.91,189.16l-.42.36s-1.06.2-1.84.44a28.69,28.69,0,0,1-.24,3.34c.44-.3,1.72-1.14,3.13-2.12A5.54,5.54,0,0,1,217.91,189.16Z"/><path class="cls-13" d="M213.28,155a2.87,2.87,0,0,0-.05-.31c.09-.16.18-.32.26-.48a4.94,4.94,0,0,0-.29-4.63c-1-1.58-4-3.09-5.49-1.38a7.78,7.78,0,0,0-1.23,7.38,2.81,2.81,0,0,0,.68,1,2.28,2.28,0,0,0,1.24.56c.08,1,.29,2,.35,2.92a5.62,5.62,0,0,0,.68,2.93c.43.49,1,.28,1.42.05a4.78,4.78,0,0,0,2.73-2.72,4.19,4.19,0,0,0,.26-1.23,8,8,0,0,0-.15-1.61C213.55,156.65,213.42,155.81,213.28,155Z"/><path class="cls-10" d="M218.16,148.58a2.42,2.42,0,0,0-.51-1,2,2,0,0,0-.16-.8c-.74-1.83-3.77-3.42-6-2.9a5.79,5.79,0,0,0-1.79-.63,2.68,2.68,0,0,0-2.45.76c-.75.89-.08,1.45,0,2.3s-.06,1.58,0,2.44a2.4,2.4,0,0,0,1.41,2.17c.45.15.94.13,1.39.3a1.71,1.71,0,0,1,.7,2.5,3.63,3.63,0,0,0-.57.75,1.34,1.34,0,0,0,0,.69,3.15,3.15,0,0,0,6.22-.28c0-.42,0-.85.05-1.26C216.71,151.8,218.51,150.33,218.16,148.58Z"/><path class="cls-13" d="M166.05,143c.47.31,1.24.56,1.35,1.09s-1.09,1.66-1.07,2.28.52,1.24,1.38,1.83c.43.28.51.68,1,1.19s1.48.13,1.48.13a3.68,3.68,0,0,1,1.49.82c.09,0,.56-.78,1.08-1.32-.32-.27-.35-1.27-.79-1.93,0,0-1.64-2-2.05-2.39a19,19,0,0,0-3.67-2.69C165.14,141.57,165.57,142.64,166.05,143Z"/><path class="cls-5" d="M207,163.36c-.23-.35-.48-.7-.75-1a7.52,7.52,0,0,0-2.94-1.82c-3.69-.2-15.13-.87-16.65-1.29-1.68-.48-12.31-9-14.05-10.57a5.31,5.31,0,0,1-1.19,1.47c2.55,3,9.44,11.2,11,12.82,2,2,4.82,2.7,6.87,3s9.37.7,13.09,2.37l.74.35a9.49,9.49,0,0,0,1.77-1A4.69,4.69,0,0,0,207,163.36Z"/><path class="cls-5" d="M218.9,163.75c-.13-1.23-1.8-2.84-3.12-3.8a8.4,8.4,0,0,0-1.28-.81c.12-.42.15-.76-.35-.87a23.73,23.73,0,0,0-6.15-.4c-1,.12-1.11.46-1.06.9l-.24,0a8.19,8.19,0,0,0-1.35.69,89.39,89.39,0,0,1-9.41.55,14.52,14.52,0,0,0-2.54,6.34c1.49.16,3.91.33,6.26.6a22.38,22.38,0,0,0-1,2.93c-1.73,6.49-1.34,13.53-2.61,20.13-.08.43-1.26,3,.5,3.25h0c2.63,1.45,19.41,1.65,20.17,1.11.28-.2.11-4.06-.25-9.12C217.5,173.55,219.37,168.18,218.9,163.75Z"/><path class="cls-8" d="M196.3,263.23a36.94,36.94,0,0,1,6.93-1.19,8.89,8.89,0,0,0,.34-1.88c0-.57-.11-1.13-.18-1.69a10.11,10.11,0,0,0,3.07-.21,14.33,14.33,0,0,0,.15,1.85c.11.82.21,1.8.3,2.62s.14.9-.42,1.49a1.48,1.48,0,0,1-.31.25c-.8.69-3.28.83-8.88,1C190.17,265.65,192.78,264.22,196.3,263.23Z"/><path class="cls-10" d="M209.54,263.42c.47-.38,1.25-.51,1.69-.94a1.86,1.86,0,0,0,.81-1.36h0c0-.27,0-.57,0-.85v-.07h0c0-.73,0-1.41,0-1.64a9.9,9.9,0,0,0,3.07.05c0,.72,0,1.43,0,2.1s.19,1.26.26,1.88a2.76,2.76,0,0,1-.36,2.3,2.2,2.2,0,0,1-1.72.49c-.69,0-2.57.1-2.79.08C209.75,265.41,207.52,265.06,209.54,263.42Z"/><path class="cls-6" d="M165.15,161.75a1.16,1.16,0,1,0-1.15-1.16A1.16,1.16,0,0,0,165.15,161.75Z"/><path class="cls-6" d="M166.89,163.77a4.22,4.22,0,0,0,.19,1c.07.19.21.5.4.45s.17-.17.2-.35a4,4,0,0,0-.27-1.68,2.12,2.12,0,0,0-1.6-1.41,1.89,1.89,0,0,1-1.34,0,2.12,2.12,0,0,0-1.6,1.41,3.74,3.74,0,0,0-.26,1.68c0,.18.06.31.19.35s.33-.26.4-.45a4.5,4.5,0,0,0,.2-1s.14-.54.18.22a22.2,22.2,0,0,1-.18,2.66,5,5,0,0,0,3.48,0,24.61,24.61,0,0,1-.18-2.66C166.74,163.23,166.89,163.77,166.89,163.77Z"/><path class="cls-6" d="M160.8,165.61a1.15,1.15,0,1,0-1.16-1.15A1.15,1.15,0,0,0,160.8,165.61Z"/><path class="cls-6" d="M161.45,165.63a2,2,0,0,1-1.34,0,2.14,2.14,0,0,0-1.6,1.4,3.91,3.91,0,0,0-.26,1.68c0,.19.06.32.19.35s.33-.25.4-.44a4.5,4.5,0,0,0,.2-1s.14-.54.18.22a22.38,22.38,0,0,1-.18,2.66,5,5,0,0,0,3.48,0,24.82,24.82,0,0,1-.18-2.66c0-.76.19-.22.19-.22a4.22,4.22,0,0,0,.19,1c.07.19.21.49.4.44s.18-.16.2-.35a4,4,0,0,0-.27-1.68A2.12,2.12,0,0,0,161.45,165.63Z"/><path class="cls-6" d="M169.46,165.61a1.15,1.15,0,1,0-1.15-1.15A1.14,1.14,0,0,0,169.46,165.61Z"/><path class="cls-6" d="M171.72,167a2.14,2.14,0,0,0-1.6-1.4,2,2,0,0,1-1.35,0,2.12,2.12,0,0,0-1.59,1.4,4,4,0,0,0-.27,1.68c0,.19.06.32.19.35s.34-.25.41-.44a4.22,4.22,0,0,0,.19-1s.14-.54.19.22a24.82,24.82,0,0,1-.18,2.66,5,5,0,0,0,3.47,0,23,23,0,0,1-.17-2.66c0-.76.18-.22.18-.22a4.5,4.5,0,0,0,.2,1c.06.19.21.49.4.44s.17-.16.19-.35A3.91,3.91,0,0,0,171.72,167Z"/><path class="cls-6" d="M185,185.75a4.48,4.48,0,1,1,4.48-4.48A4.48,4.48,0,0,1,185,185.75Zm0-8.59a4.12,4.12,0,1,0,4.11,4.11A4.12,4.12,0,0,0,185,177.16Z"/><path class="cls-6" d="M182.83,181.4l.1-.09-.08-.12-.12-.07h0c-.08,0-.09,0-.06.15s.08,0,.18.12Zm-.35-.29,0,0a.19.19,0,0,1-.07-.08c-.08-.09-.08-.1-.19,0,.06.11.06.11.22.14Zm-1.35-.91Zm3.45-.63.09-.1-.23,0h0a.46.46,0,0,1,.14.14Zm.77,3.67v-.08a1.79,1.79,0,0,1-1-.39.44.44,0,0,0-.28.12l-.11-.08.09-.1c-.15-.31-.19-.31-.3-.33s-.23,0-.29-.24l-.06-.06a1.34,1.34,0,0,0-.51-.28h-.13l-.26-.16c-.15.15-.19.12-.5-.09a.58.58,0,0,0-.26-.28l0-.07,0-.21a.4.4,0,0,0,.1-.18c-.08,0-.13,0-.22.14l-.11-.06a1.48,1.48,0,0,1,0-.43c.07,0,.07,0,.21-.29.24,0,.24,0,.38.11l.12-.07,0,.12a.16.16,0,0,0,.13,0,2.68,2.68,0,0,0,0,.49l.19-.16-.06-.13a.72.72,0,0,1,.1-.24.3.3,0,0,0,0,.1c.08-.06.18-.09.26-.14l.18,0a1.3,1.3,0,0,1,.23-.27,4,4,0,0,1,.94-.31s0-.09,0-.11l.09-.1a.36.36,0,0,1,.28-.08c.07,0,.07,0,.35-.23a.42.42,0,0,0-.2.05.28.28,0,0,1,0-.12l-.06-.11.05-.13a.36.36,0,0,0-.25,0c-.13-.21-.13-.21-.2-.22v.12h-.13c-.16.18-.35.34-.51.52a1.18,1.18,0,0,1-.14-.5l.29-.15c.41-.26.41-.26.56-.19l.11-.1,0-.08-.16.06a1.43,1.43,0,0,1,0-.29h0c-.16.3-.16.3-.33.29v0a.42.42,0,0,1-.16,0l-.12.05-.06-.05s0-.07-.05-.1h0l-.08,0,0-.08-.1,0a.25.25,0,0,1-.19,0,.5.5,0,0,1,.08-.12.41.41,0,0,0-.22,0l0-.06s0-.06,0-.07a.17.17,0,0,0,0-.06l-.22.11,0,0c-.06,0-.06,0-.21.09l0,0s-.26.17-.26.15l-.09.09s.21,0,.19,0l.11-.06h0s0,0-.13.17l.1,0a9.31,9.31,0,0,0-1.17,1.13.54.54,0,0,1-.1.31c0,.08-.06.14-.08.21l0,.1a1.85,1.85,0,0,1,0,.23h0a1.27,1.27,0,0,1,0,.31c0,.11,0,.27.05.39a2.6,2.6,0,0,1,.92,1.15c-.43.69-.07.89.17,1a1.21,1.21,0,0,0,.05.18,1.82,1.82,0,0,0,.67.46,1.52,1.52,0,0,0,.8,1.09,2.54,2.54,0,0,0,.54.25l0,0,0,0-.08,0c-.07-.1-.07-.1,0-.17s.07-.1.06-.12a1.19,1.19,0,0,0,.26-.11l.07,0,.07-.06a.67.67,0,0,0,0-.28c.49-.31.49-.31.42-.49.28-.3.28-.3.29-.49Zm-.43-4.86v0c-.07,0-.06-.07-.06-.13s-.07-.06-.07-.1l-.08,0c-.06,0-.08,0-.09,0l0-.07-.09.06s0,0,0-.08h0a.22.22,0,0,0-.12.07l0,.08a.15.15,0,0,1,.2.09,1.6,1.6,0,0,0-.16.23.47.47,0,0,0-.16,0h.18l.07.13c.12-.25.2-.2.29-.11a.26.26,0,0,0,.07-.13Zm.2-.77s0-.05,0-.05,0,0,0,0-.08,0-.14,0h-.09s0,.06.06.12c-.15.12-.2.15-.3.15l.08,0c.13,0,.15,0,.18-.08l.06,0,.06-.09c.08,0,.11,0,.15-.15Zm.73-.05h0c-.07.06-.08.06-.12,0l0,0,.08,0-.09,0h0s0,0,0,0,0,0-.05,0,0,0,0,.07-.05,0-.09,0h-.07l-.1,0s0,.07,0,.09,0,0-.05,0a1.59,1.59,0,0,1-.18.22.39.39,0,0,1,.11,0,1.09,1.09,0,0,1,.13.17.22.22,0,0,1,0,.11l.07.08-.08.16v0c0,.08,0,.13.05.2s.1.08.17.08.05,0,0-.09a1.42,1.42,0,0,0,.59-.45s-.13,0-.13-.07,0,0,.14,0l-.1-.14.09,0,0-.08a.74.74,0,0,1-.19-.29Z"/><path class="cls-6" d="M187.05,177.47s-.13-.06-.19,0,0,0,.1.07.12.15.19.21l.16.18-.21-.08-.09-.13c-.06,0-.07,0-.25,0l-.08.06a1.4,1.4,0,0,1,.26.37c0,.1,0,.1.18.27l0,0a1.11,1.11,0,0,0-.07-.13l.13.13h0c0-.1,0-.1-.2-.4h.07l.11.15h.09l0,0c.2.38.2.38.21.47l-.11,0a.19.19,0,0,0,0,.08c-.05,0-.06,0-.17-.15,0,0,0,0,.1.17l-.05.06v.13a.77.77,0,0,1-.22-.1,1.53,1.53,0,0,1-.13-.16l-.06.05s0,.08.2.19v.15l.06.06v0c.06,0,.06,0,.24.28,0,0,0,0-.34,0,.05.11.14.35.14.35l0,.11.41-.15-.09-.19c.09-.08,0-.22.12-.31l.09,0c.2.2.21.21.32.17s0,0-.11-.18l0,0s0,0-.1-.06l0,0c.08,0,.08,0,.48.33,0-.13-.11-.2-.14-.31a1.08,1.08,0,0,0-.13-.35h.07v0a.36.36,0,0,1,0-.07.71.71,0,0,1,.25.24l-.1-.05a1.63,1.63,0,0,0,0,.3l.06.08c0,.05,0,.05.13.12s0-.12,0-.18l0,0,.09.17a.56.56,0,0,1,.12.3h0l-.24.1a.4.4,0,0,1,0,.17c-.12,0-.35-.25-.35-.25a2.45,2.45,0,0,1-.58.25l0,.06-.1,0a4.08,4.08,0,0,1-.56,1.06l.11.09c.06.43.06.43,0,.57.54.48.54.48.66.52a.83.83,0,0,1,.08-.12,4.28,4.28,0,0,0,.46-.13c.44-.14.45-.14.38.79l-.09.27c-.22.35-.34.75-.6,1.09a2,2,0,0,0,.4-.41,4.27,4.27,0,0,0,.37-.56,4.83,4.83,0,0,0,.29-.62,4,4,0,0,0,.17-.66,3.79,3.79,0,0,0,.07-.73,6,6,0,0,0-.23-1.36,3.31,3.31,0,0,0-.27-.62,3.81,3.81,0,0,0-.37-.56,3,3,0,0,0-.46-.5,4.16,4.16,0,0,0-.76-.56Z"/><path class="cls-6" d="M171.08,176.89a4.48,4.48,0,1,0,4.47,4.47A4.48,4.48,0,0,0,171.08,176.89ZM169,179.55h4.17a1.25,1.25,0,0,1,.52.09l-2.54,2-2.52-2A1.2,1.2,0,0,1,169,179.55Zm5.12,3.58h-6s0-2,0-2.8a.73.73,0,0,1,.11-.41l2.74,2.21a.31.31,0,0,0,.2.07.26.26,0,0,0,.19-.07l2.72-2.15a.66.66,0,0,1,.06.25Z"/><g class="cls-15"><path class="cls-6" d="M159.21,180.09a.49.49,0,1,0,.56.48A.53.53,0,0,0,159.21,180.09Z"/></g><g class="cls-15"><path class="cls-6" d="M157.57,180.09a.49.49,0,1,0,.56.48A.53.53,0,0,0,157.57,180.09Z"/></g><g class="cls-15"><path class="cls-6" d="M155.93,180.09a.49.49,0,1,0,.56.48A.53.53,0,0,0,155.93,180.09Z"/></g><g class="cls-15"><path class="cls-6" d="M157.53,176.85c-2.47,0-4.48,1.71-4.48,3.81s2,3.82,4.48,3.82,4.47-1.71,4.47-3.82S160,176.85,157.53,176.85Zm1.52,5.47h-.26c0,.38,0,.89,0,.89l-.95-.89h-1.65a1.73,1.73,0,0,1-1.77-1.68v0a1.72,1.72,0,0,1,1.77-1.68h2.89a1.73,1.73,0,0,1,1.78,1.68v0A1.74,1.74,0,0,1,159.05,182.32Z"/></g><path class="cls-6" d="M144.44,176.85a4.47,4.47,0,1,0,4.48,4.47A4.47,4.47,0,0,0,144.44,176.85Zm1.68,7.46h0l0,0H146l-.12,0h0a1.38,1.38,0,0,1-.91-.3,5.67,5.67,0,0,1-2.09-4.64c0-.68.3-.9.6-1h0a.28.28,0,0,1,.18-.06h0a.6.6,0,0,1,.65.34c.25.49.43,1.23-.12,1.49h-.05l-.1,0h0a.47.47,0,0,0-.17.61,4.26,4.26,0,0,0,.88,1.79c.1.16.25.16.47,0h0l.07,0,.05,0h0a.51.51,0,0,1,.63.13s.23.46.44.83S146.12,184.31,146.12,184.31Z"/></g></g></g></svg>