<svg xmlns="http://www.w3.org/2000/svg" xmlns:xlink="http://www.w3.org/1999/xlink" viewBox="0 0 367.23 289.07"><defs><style>.cls-1{fill:none;}.cls-2{fill:#5d4efa;}.cls-3{fill:#1a2089;}.cls-4{fill:#e3e3e3;}.cls-5,.cls-8{fill:#fff;}.cls-14,.cls-5{opacity:0.2;}.cls-6{opacity:0.3;}.cls-7{fill:#4cc2fc;}.cls-9{clip-path:url(#clip-path);}.cls-10{fill:#e1cc8c;}.cls-11{fill:#c8af74;}.cls-12{fill:#00244f;}.cls-13{fill:#e6d69e;}.cls-15{clip-path:url(#clip-path-2);}.cls-16{clip-path:url(#clip-path-3);}.cls-17{clip-path:url(#clip-path-4);}.cls-18{clip-path:url(#clip-path-5);}.cls-19{clip-path:url(#clip-path-6);}.cls-20{clip-path:url(#clip-path-7);}.cls-21{fill:#b56cf7;}</style><clipPath id="clip-path"><circle class="cls-1" cx="107.35" cy="53.31" r="42.39" transform="translate(47.14 156.95) rotate(-86.25)"/></clipPath><clipPath id="clip-path-2"><path class="cls-2" d="M367,188.75c0,10.4-27.58,18.84-61.61,18.84s-61.62-8.44-61.62-18.84,27.59-18.85,61.62-18.85S367,178.34,367,188.75Z"/></clipPath><clipPath id="clip-path-3"><path class="cls-1" d="M367.23,188.61H342.52v14.44a186,186,0,0,0-74,0V188.61H243.67v29.47h.13s0,.07,0,.13c0,10.4,27.59,18.8,61.62,18.8S367,228.62,367,218.22a1.38,1.38,0,0,0,0-.14h.23Z"/></clipPath><clipPath id="clip-path-4"><path class="cls-2" d="M367,150.75c0,10.4-27.58,18.84-61.61,18.84s-61.62-8.44-61.62-18.84,27.59-18.85,61.62-18.85S367,140.34,367,150.75Z"/></clipPath><clipPath id="clip-path-5"><path class="cls-1" d="M367.23,150.61H342.52v14.44a186,186,0,0,0-74,0V150.61H243.67v29.47h.13s0,.07,0,.13c0,10.4,27.59,18.8,61.62,18.8S367,190.62,367,180.22a1.38,1.38,0,0,0,0-.14h.23Z"/></clipPath><clipPath id="clip-path-6"><path class="cls-2" d="M367,112.75c0,10.4-27.58,18.84-61.61,18.84s-61.62-8.44-61.62-18.84S271.37,93.9,305.4,93.9,367,102.34,367,112.75Z"/></clipPath><clipPath id="clip-path-7"><path class="cls-1" d="M367.23,112.61H342.52v14.44a186,186,0,0,0-74,0V112.61H243.67v29.47h.13s0,.07,0,.13c0,10.4,27.59,18.8,61.62,18.8S367,152.62,367,142.22a1.38,1.38,0,0,0,0-.14h.23Z"/></clipPath></defs><title>databases_are_preferred</title><g id="Layer_2" data-name="Layer 2"><g id="Layer_1-2" data-name="Layer 1"><path class="cls-3" d="M97.42,134.25H28.11a14.62,14.62,0,0,1-14.62-14.64V29.86a10.32,10.32,0,0,0,6.83-9.57A10.11,10.11,0,1,0,7.64,30.07v89.54a20.57,20.57,0,0,0,20.47,20.61H97.42Z"/><path class="cls-3" d="M142.9,261.58a14.7,14.7,0,0,1-14.62,14.74H68.64a10.11,10.11,0,0,0-19.89,2.56,10.14,10.14,0,0,0,19.7,3.41h59.83a20.66,20.66,0,0,0,20.47-20.71V162.66H142.9Z"/><path class="cls-3" d="M286.87,243.5a10.1,10.1,0,0,0-9.38,6.32H215.92a14.63,14.63,0,0,1-14.64-14.63V136.4h-5.85v98.79a20.47,20.47,0,0,0,20.49,20.47H277a10.11,10.11,0,1,0,9.9-12.16Z"/><path class="cls-3" d="M305,0a10.49,10.49,0,0,0-9.05,5.55H206.23a20.73,20.73,0,0,0-20.7,20.56V95.69h6V26.11a14.68,14.68,0,0,1,14.74-14.59H295A10.12,10.12,0,1,0,305,0Z"/><path class="cls-3" d="M339.26,233h-.41a.25.25,0,0,1,0-.12v-9h-39V65.18a7.5,7.5,0,0,0-7.6-7.58H53.54a7.59,7.59,0,0,0-7.7,7.58V223.91H5.37v9a2.8,2.8,0,0,0,.46,1.55,4.68,4.68,0,0,0,4.33,2.27H334.74C337.15,236.67,339,235.49,339.26,233Z"/><rect class="cls-2" x="40.47" y="52.23" width="253.93" height="178.12" rx="7.72"/><path class="cls-2" d="M0,218.66v8.94c0,1.91,2.31,4,4.9,4H329.47a4,4,0,0,0,4.09-4v-8.94Z"/><path class="cls-2" d="M.1,228c.27,2.15,2.38,3.58,4.8,3.58H329.47c2.41,0,4.28-1.43,4.52-3.58Z"/><path class="cls-3" d="M140.06,218.66c1.33,1.91,3.6,3.82,6.18,3.82h41.88c2.58,0,4.85-1.91,6.19-3.82Z"/><rect class="cls-4" x="49.78" y="63.1" width="236.15" height="143.38"/><polygon class="cls-5" points="259.39 206.48 285.93 206.48 285.93 63.1 136.59 63.1 259.39 206.48"/><path class="cls-6" d="M155.46,64.79a42.9,42.9,0,1,1-42.9-42.9A42.9,42.9,0,0,1,155.46,64.79Z"/><rect class="cls-3" x="48.95" y="63.1" width="45.25" height="143.38"/><rect class="cls-7" x="72.11" y="121.48" width="16.59" height="4.42"/><rect class="cls-7" x="64.71" y="132.1" width="24" height="4.42"/><rect class="cls-7" x="68.53" y="142.61" width="20.18" height="4.42"/><rect class="cls-7" x="62.2" y="153.11" width="26.5" height="4.42"/><rect class="cls-7" x="72.11" y="163.62" width="16.59" height="4.3"/><circle class="cls-8" cx="106.93" cy="53.42" r="46.86"/><circle class="cls-2" cx="106.93" cy="53.42" r="42.39" transform="translate(38.82 151.65) rotate(-81.81)"/><g class="cls-9"><path class="cls-10" d="M123.69,61.07h-3.42c-.69,0-3.17.08-3.77-.53a5.51,5.51,0,0,1-.93-3.06V56.05H101.24v1.43c0,.55-.12,2.37-.81,3.06s-3,.53-3.66.53H93.08a11.38,11.38,0,0,0-11.18,11V95.81h52.53V72.1A11,11,0,0,0,123.69,61.07Z"/><path class="cls-11" d="M123.69,61.07h-3.42c-.69,0-3.17.08-3.77-.53a5.51,5.51,0,0,1-.93-3.06V56.05h-6.93V95.81h25.79V72.1A11,11,0,0,0,123.69,61.07Z"/><path class="cls-12" d="M123.8,46.14v-10C123.8,27,117.72,22.7,109,22.7S93,27,93,36.17v10Z"/><path class="cls-13" d="M108.88,24.58c-7.27,0-13.73,3.62-13.73,11.28v9.33h.36c.27,6.92,6,13.33,13.15,13.33s12.87-6.41,13.14-13.33h-.27V35.86C121.53,28.2,116.14,24.58,108.88,24.58Z"/><path class="cls-10" d="M109.05,24.58h-.41V58.32c6.93,0,12.89-6.21,13.16-13.13h-.27V35.86C121.53,28.2,116.31,24.58,109.05,24.58Z"/><path class="cls-13" d="M96.46,44a2,2,0,0,1-1.79,1.95h0A1.93,1.93,0,0,1,93,44V39.74A1.71,1.71,0,0,1,94.67,38h0a1.81,1.81,0,0,1,1.79,1.72Z"/><path class="cls-12" d="M100.21,26.94s6.17,9.69,12.92,11.54c11,3,7.7,18,8.67,13.79.69-3,2.44-14.68,2.17-16.93l-3.46-7.55-7.2-3.21-5.59-1.83-6.22,1.83Z"/><path class="cls-7" d="M123.69,61.07h-3.42c-.69,0-3,.08-3.6-.53,0,0,0,.05,0,0l-8,4.85-7.78-5.76a1.76,1.76,0,0,1-.5.87c-.61.61-2.92.54-3.61.54H93.08a11.38,11.38,0,0,0-11.18,11V95.81h52.53V72.1A11,11,0,0,0,123.69,61.07Z"/><path class="cls-7" d="M123.69,61.07h-3.42c-.69,0-3,.08-3.6-.53,0,0,0,.05,0,0l-8,4.89V95.81h25.79V72.1A11,11,0,0,0,123.69,61.07Z"/><path class="cls-8" d="M110.08,68.3a1.49,1.49,0,1,1-1.49-1.49A1.49,1.49,0,0,1,110.08,68.3Z"/><path class="cls-8" d="M106.5,67.7A1.49,1.49,0,1,1,105,66.21,1.49,1.49,0,0,1,106.5,67.7Z"/><path class="cls-8" d="M103.52,65.31A1.5,1.5,0,1,1,102,63.82,1.5,1.5,0,0,1,103.52,65.31Z"/><path class="cls-8" d="M101.13,62.33a1.49,1.49,0,1,1-1.49-1.49A1.49,1.49,0,0,1,101.13,62.33Z"/><path class="cls-8" d="M110.67,67.7a1.5,1.5,0,1,0,1.5-1.49A1.5,1.5,0,0,0,110.67,67.7Z"/><path class="cls-8" d="M113.66,65.31a1.49,1.49,0,1,0,1.49-1.49A1.49,1.49,0,0,0,113.66,65.31Z"/><path class="cls-8" d="M116,62.33a1.49,1.49,0,1,0,1.49-1.49A1.49,1.49,0,0,0,116,62.33Z"/></g><path class="cls-14" d="M366.63,114.67h-.43c-.32-9.79-28.65-18.34-63.55-18.34-4.58,0-9,.09-13.33.36l-2.13-2.37-33.23,3,9.7,2.94c-14.81,3.33-24.38,8.25-24.57,14.46h-.44v28.65h.45a.45.45,0,0,0,0,.1c0,2.12,1.23,4.13,3.5,6-2.15,1.8-3.37,3.55-3.49,5.7h-.45v28.65h.45s0,.23,0,.29c0,2.34,1.5,4.82,4.25,6.88-2.63,2-4.12,4.06-4.24,6.56h-.45v28.42h.45s0,.13,0,.19c0,10.17,28.45,18.41,63.56,18.41,6.72,0,13.2-.3,19.28-.86l30.46-6.08c8.64-3.14,13.81-7.14,13.81-11.47,0-.06,0-.19,0-.19h.44V197.52h-.44c-.12-2.5-1.61-4.55-4.24-6.51,2.75-2.06,4.25-4.49,4.25-6.83,0-.06,0-.39,0-.39h.44V155.14h-.44c-.12-2.15-1.33-3.91-3.48-5.7,2.26-1.89,3.49-3.89,3.49-6a.68.68,0,0,0,0-.12h.44Z"/><path class="cls-7" d="M367.23,188.57H342.52V203a186.46,186.46,0,0,0-74,0V188.57H243.67v29.49h.13a.3.3,0,0,0,0,.14c0,10.4,27.59,18.81,61.62,18.81S367,228.62,367,218.21a1.42,1.42,0,0,0,0-.15h.23Z"/><path class="cls-2" d="M367,188.75c0,10.4-27.58,18.84-61.61,18.84s-61.62-8.44-61.62-18.84,27.59-18.85,61.62-18.85S367,178.34,367,188.75Z"/><g class="cls-15"><polygon class="cls-3" points="258.2 170.95 358.25 201.93 327.73 211.26 290.42 167.92 258.2 170.95"/></g><g class="cls-16"><path class="cls-3" d="M353.86,242.89H324.25V206.74c22.92-2.89,29.61-6.14,29.61-6.14Z"/></g><path class="cls-3" d="M264.13,197.45c4.52,5.56,24.87,6.06,24.87,6.06l13.57-15.95Z"/><path class="cls-7" d="M367.23,150.57H342.52V165a186.46,186.46,0,0,0-74,0V150.57H243.67v29.49h.13a.3.3,0,0,0,0,.14c0,10.4,27.59,18.81,61.62,18.81S367,190.62,367,180.21a1.42,1.42,0,0,0,0-.15h.23Z"/><path class="cls-2" d="M367,150.75c0,10.4-27.58,18.84-61.61,18.84s-61.62-8.44-61.62-18.84,27.59-18.85,61.62-18.85S367,140.34,367,150.75Z"/><g class="cls-17"><polygon class="cls-3" points="258.2 132.95 358.25 163.93 327.73 173.26 290.42 129.92 258.2 132.95"/></g><g class="cls-18"><path class="cls-3" d="M353.86,204.89H324.25V168.74c22.92-2.89,29.61-6.14,29.61-6.14Z"/></g><path class="cls-3" d="M264.13,159.45c4.52,5.56,24.87,6.06,24.87,6.06l13.57-15.95Z"/><path class="cls-7" d="M367.23,112.57H342.52V127a186.46,186.46,0,0,0-74,0V112.57H243.67v29.49h.13a.3.3,0,0,0,0,.14c0,10.4,27.59,18.81,61.62,18.81S367,152.62,367,142.21a1.42,1.42,0,0,0,0-.15h.23Z"/><path class="cls-2" d="M367,112.75c0,10.4-27.58,18.84-61.61,18.84s-61.62-8.44-61.62-18.84S271.37,93.9,305.4,93.9,367,102.34,367,112.75Z"/><g class="cls-19"><polygon class="cls-3" points="258.2 94.95 358.25 125.93 327.73 135.26 290.42 91.92 258.2 94.95"/></g><g class="cls-20"><path class="cls-3" d="M353.86,166.89H324.25V130.74c22.92-2.89,29.61-6.14,29.61-6.14Z"/></g><path class="cls-3" d="M264.13,121.45c4.52,5.56,24.87,6.06,24.87,6.06l13.57-16Z"/><path class="cls-3" d="M181.52,38.5h51.83a9.48,9.48,0,0,1,9.24,9.8V71.92c0,5.69-4.32,10.75-9.24,10.75H217.52v15.9l-14.1-15.9h-21.9c-4.92,0-8.29-5.06-8.29-10.75V48.3C173.23,42.62,176.6,38.5,181.52,38.5Z"/><path class="cls-8" d="M210.36,68.51V55.71h4c0-3-1.33-5-4-5.87v-5q11.14.75,11.15,14.52v9.16Z"/><path class="cls-8" d="M204.77,52.77v12.8h-4c0,3,1.33,5,4,5.87v5q-11.15-.75-11.15-14.52V52.77Z"/><circle class="cls-7" cx="43.97" cy="130.65" r="26.85" transform="translate(-93.1 145.28) rotate(-77.49)"/><polygon class="cls-8" points="39.16 119.41 39.16 143.34 55.72 131.38 39.16 119.41"/><path class="cls-21" d="M117.84,150.1V124.79h6.69l5.25,9.28a72.45,72.45,0,0,1,4.13,8.67H134a95.29,95.29,0,0,1-.48-10.55v-7.4h5.25V150.1h-6l-5.41-9.76A95.08,95.08,0,0,1,123,131.4l-.12,0c.15,3.34.23,6.91.23,11v7.62Z"/><path class="cls-21" d="M161.58,140.71c0,6.72-4.77,9.8-9.68,9.8-5.37,0-9.5-3.53-9.5-9.46s3.9-9.72,9.8-9.72C157.83,131.33,161.58,135.19,161.58,140.71Zm-13.29.19c0,3.15,1.32,5.52,3.76,5.52,2.21,0,3.64-2.22,3.64-5.52,0-2.74-1.05-5.52-3.64-5.52C149.3,135.38,148.29,138.2,148.29,140.9Z"/><path class="cls-21" d="M165.49,144.2a14.56,14.56,0,0,0,6.34,1.58c2.63,0,4-1.09,4-2.74s-1.2-2.48-4.24-3.57c-4.21-1.46-7-3.79-7-7.47,0-4.32,3.6-7.62,9.57-7.62a15.41,15.41,0,0,1,6.46,1.28l-1.27,4.61a12.2,12.2,0,0,0-5.3-1.2c-2.48,0-3.68,1.13-3.68,2.44,0,1.62,1.43,2.33,4.7,3.57,4.46,1.65,6.57,4,6.57,7.55,0,4.24-3.27,7.84-10.22,7.84a16.55,16.55,0,0,1-7.17-1.54Z"/><path class="cls-21" d="M207.2,154.45a88.14,88.14,0,0,1-10-3.56,5.6,5.6,0,0,0-1.76-.38c-5.71-.37-11-4.58-11-12.84,0-7.58,4.8-13.29,12.35-13.29,7.73,0,12,5.86,12,12.76,0,5.75-2.67,9.8-6,11.31v.15c2,.56,4.13,1,6.12,1.42Zm-4.51-17.08c0-4.62-2.17-8.45-6.08-8.45s-6.16,3.83-6.16,8.56,2.29,8.49,6.12,8.49S202.69,142.33,202.69,137.37Z"/><path class="cls-21" d="M212.49,124.79h5.75v20.5H228.3v4.81H212.49Z"/></g></g></svg>