<svg xmlns="http://www.w3.org/2000/svg" xmlns:xlink="http://www.w3.org/1999/xlink" viewBox="0 0 297.15 189.9"><defs><style>.cls-1{opacity:0.15;}.cls-2{fill:#1a2089;}.cls-3{fill:url(#New_Gradient_Swatch_copy_41);}.cls-4{fill:url(#linear-gradient);}.cls-5{fill:url(#New_Gradient_Swatch_copy_38);}.cls-6{fill:#4cc2fc;}.cls-7{fill:#00244f;}.cls-8{fill:#fff;}.cls-9{fill:url(#linear-gradient-2);}.cls-10{fill:url(#linear-gradient-3);}.cls-11{fill:url(#linear-gradient-4);}.cls-12{fill:#5d4efa;}.cls-13{fill:url(#linear-gradient-5);}.cls-14{fill:url(#linear-gradient-6);}.cls-15{fill:url(#linear-gradient-7);}.cls-16{fill:url(#linear-gradient-8);}.cls-17{fill:url(#linear-gradient-9);}.cls-18{fill:url(#linear-gradient-10);}.cls-19{fill:url(#linear-gradient-11);}.cls-20{fill:url(#linear-gradient-12);}.cls-21{fill:url(#linear-gradient-13);}.cls-22,.cls-23{fill:#b56cf7;}.cls-23{opacity:0.68;}.cls-24{fill:url(#linear-gradient-14);}.cls-25{fill:url(#New_Gradient_Swatch_copy_2);}.cls-26{fill:url(#linear-gradient-15);}.cls-27{fill:url(#linear-gradient-16);}.cls-28{fill:url(#linear-gradient-17);}.cls-29{fill:url(#New_Gradient_Swatch_copy_38-2);}.cls-30{fill:url(#New_Gradient_Swatch_copy_38-3);}.cls-31{fill:url(#New_Gradient_Swatch_copy_41-2);}.cls-32{fill:none;stroke:#fff;stroke-miterlimit:10;}.cls-33{fill:url(#linear-gradient-18);}.cls-34{fill:url(#linear-gradient-19);}.cls-35{fill:url(#New_Gradient_Swatch_copy_38-4);}.cls-36{fill:url(#New_Gradient_Swatch_copy_38-5);}.cls-37{fill:url(#New_Gradient_Swatch_copy_38-6);}.cls-38{fill:url(#linear-gradient-20);}.cls-39{fill:url(#linear-gradient-21);}.cls-40{fill:url(#linear-gradient-22);}.cls-41{fill:url(#linear-gradient-23);}.cls-42{fill:url(#linear-gradient-24);}.cls-43{fill:url(#linear-gradient-25);}.cls-44{fill:url(#linear-gradient-26);}.cls-45{fill:url(#linear-gradient-27);}.cls-46{fill:url(#linear-gradient-28);}.cls-47{fill:url(#linear-gradient-29);}.cls-48{fill:url(#linear-gradient-30);}.cls-49{fill:url(#New_Gradient_Swatch_copy_38-7);}</style><linearGradient id="New_Gradient_Swatch_copy_41" x1="271.77" y1="-19.8" x2="92.36" y2="132.75" gradientUnits="userSpaceOnUse"><stop offset="0" stop-color="#fff"/><stop offset="0.54" stop-color="#dee6f7"/><stop offset="1" stop-color="#c6d4f2"/></linearGradient><linearGradient id="linear-gradient" x1="-79.84" y1="145.87" x2="-71.35" y2="145.87" gradientTransform="translate(322.98 185.93) rotate(76.72)" gradientUnits="userSpaceOnUse"><stop offset="0" stop-color="#e0e0e0"/><stop offset="0.17" stop-color="#e6e6e6"/><stop offset="1" stop-color="#fff"/></linearGradient><linearGradient id="New_Gradient_Swatch_copy_38" x1="-78.84" y1="145.87" x2="-72.35" y2="145.87" gradientTransform="translate(239.24)" gradientUnits="userSpaceOnUse"><stop offset="0" stop-color="#5a5b67"/><stop offset="0.47" stop-color="#414551"/><stop offset="1" stop-color="#29313d"/></linearGradient><linearGradient id="linear-gradient-2" x1="138.78" y1="12.76" x2="143.02" y2="12.76" gradientUnits="userSpaceOnUse"><stop offset="0" stop-color="#00244f"/><stop offset="0.4" stop-color="#004291"/><stop offset="0.81" stop-color="#005fce"/><stop offset="1" stop-color="#006ae6"/></linearGradient><linearGradient id="linear-gradient-3" x1="145.13" y1="12.76" x2="149.38" y2="12.76" xlink:href="#linear-gradient-2"/><linearGradient id="linear-gradient-4" x1="151.26" y1="12.76" x2="155.5" y2="12.76" xlink:href="#linear-gradient-2"/><linearGradient id="linear-gradient-5" x1="-67.2" y1="84.97" x2="23.78" y2="84.97" gradientTransform="translate(239.24)" xlink:href="#linear-gradient-2"/><linearGradient id="linear-gradient-6" x1="-67.2" y1="92.83" x2="23.78" y2="92.83" gradientTransform="translate(239.24)" xlink:href="#linear-gradient-2"/><linearGradient id="linear-gradient-7" x1="-67.2" y1="98.6" x2="23.78" y2="98.6" gradientTransform="translate(239.24)" xlink:href="#linear-gradient-2"/><linearGradient id="linear-gradient-8" x1="-67.2" y1="104.36" x2="23.78" y2="104.36" gradientTransform="translate(239.24)" xlink:href="#linear-gradient-2"/><linearGradient id="linear-gradient-9" x1="-67.2" y1="110.13" x2="23.78" y2="110.13" gradientTransform="translate(239.24)" xlink:href="#linear-gradient-2"/><linearGradient id="linear-gradient-10" x1="-67.2" y1="115.9" x2="23.78" y2="115.9" gradientTransform="translate(239.24)" xlink:href="#linear-gradient-2"/><linearGradient id="linear-gradient-11" x1="-67.2" y1="121.66" x2="23.78" y2="121.66" gradientTransform="translate(239.24)" xlink:href="#linear-gradient-2"/><linearGradient id="linear-gradient-12" x1="-67.2" y1="127.43" x2="23.77" y2="127.43" gradientTransform="translate(239.24)" xlink:href="#linear-gradient-2"/><linearGradient id="linear-gradient-13" x1="-162.75" y1="34.98" x2="-160.19" y2="60.22" gradientTransform="translate(239.24)" gradientUnits="userSpaceOnUse"><stop offset="0" stop-color="#f6f6f6"/><stop offset="1" stop-color="#fff"/></linearGradient><linearGradient id="linear-gradient-14" x1="-157.66" y1="43.15" x2="-157.64" y2="43.19" gradientTransform="translate(238.63 0.51) rotate(-0.01)" gradientUnits="userSpaceOnUse"><stop offset="0" stop-color="#f9eadb"/><stop offset="0.24" stop-color="#eed8c3"/><stop offset="0.75" stop-color="#d0a986"/><stop offset="1" stop-color="#c19166"/></linearGradient><linearGradient id="New_Gradient_Swatch_copy_2" x1="-169.61" y1="-12.79" x2="-23.19" y2="110.02" gradientTransform="translate(239.24)" gradientUnits="userSpaceOnUse"><stop offset="0" stop-color="#fff"/><stop offset="0.35" stop-color="#f2f2fe"/><stop offset="1" stop-color="#d0d0fc"/></linearGradient><linearGradient id="linear-gradient-15" x1="11236.52" y1="119.43" x2="11236.51" y2="119.44" gradientTransform="matrix(-1, 0, 0, 1, 11268.29, 0)" gradientUnits="userSpaceOnUse"><stop offset="0" stop-color="#f3d377"/><stop offset="0.25" stop-color="#efbb67"/><stop offset="0.79" stop-color="#e47e3d"/><stop offset="1" stop-color="#df642b"/></linearGradient><linearGradient id="linear-gradient-16" x1="11234.23" y1="119.91" x2="11232.9" y2="124.81" xlink:href="#linear-gradient-15"/><linearGradient id="linear-gradient-17" x1="1743.04" y1="141.74" x2="1749.2" y2="141.74" gradientTransform="translate(-1691.9)" xlink:href="#linear-gradient-14"/><linearGradient id="New_Gradient_Swatch_copy_38-2" x1="1764.66" y1="175.47" x2="1774.9" y2="175.47" gradientTransform="translate(-1691.9)" xlink:href="#New_Gradient_Swatch_copy_38"/><linearGradient id="New_Gradient_Swatch_copy_38-3" x1="1783.81" y1="174.74" x2="1793.11" y2="174.74" gradientTransform="translate(-1691.9)" xlink:href="#New_Gradient_Swatch_copy_38"/><linearGradient id="New_Gradient_Swatch_copy_41-2" x1="15673.87" y1="2838.44" x2="15675.28" y2="2838.44" gradientTransform="matrix(-0.72, -0.33, -0.41, 0.91, 12552.39, 2651.86)" xlink:href="#New_Gradient_Swatch_copy_41"/><linearGradient id="linear-gradient-18" x1="11227.06" y1="114.88" x2="11234.84" y2="114.88" gradientTransform="matrix(-1, 0, 0, 1, 11268.29, 0)" xlink:href="#linear-gradient-14"/><linearGradient id="linear-gradient-19" x1="11231.1" y1="119.74" x2="11236.18" y2="119.74" gradientTransform="matrix(-1, 0, 0, 1, 11268.29, 0)" xlink:href="#linear-gradient-14"/><linearGradient id="New_Gradient_Swatch_copy_38-4" x1="11224.28" y1="112.62" x2="11236.6" y2="112.62" gradientTransform="matrix(-1, 0, 0, 1, 11268.29, 0)" xlink:href="#New_Gradient_Swatch_copy_38"/><linearGradient id="New_Gradient_Swatch_copy_38-5" x1="5974.51" y1="183.48" x2="5981.97" y2="183.48" gradientTransform="matrix(-1, 0, 0, 1, 6168.42, 0)" xlink:href="#New_Gradient_Swatch_copy_38"/><linearGradient id="New_Gradient_Swatch_copy_38-6" x1="5959.64" y1="183.48" x2="5967.11" y2="183.48" gradientTransform="matrix(-1, 0, 0, 1, 6168.42, 0)" xlink:href="#New_Gradient_Swatch_copy_38"/><linearGradient id="linear-gradient-20" x1="-671.17" y1="94.82" x2="-674.55" y2="96.76" gradientTransform="translate(872.22)" xlink:href="#linear-gradient-14"/><linearGradient id="linear-gradient-21" x1="-671.27" y1="96.36" x2="-671.07" y2="96.36" gradientTransform="translate(872.22)" gradientUnits="userSpaceOnUse"><stop offset="0" stop-color="#7f7f7f"/><stop offset="0.62" stop-color="#545450"/><stop offset="1" stop-color="#3e3e38"/></linearGradient><linearGradient id="linear-gradient-22" x1="200.59" y1="97.06" x2="199.58" y2="101.03" gradientTransform="matrix(1, 0, 0, 1, 0, 0)" xlink:href="#linear-gradient-14"/><linearGradient id="linear-gradient-23" x1="-671.36" y1="96.53" x2="-671.22" y2="96.53" gradientTransform="translate(872.22)" gradientUnits="userSpaceOnUse"><stop offset="0" stop-color="#dbc9b8"/><stop offset="0.27" stop-color="#d1b7a0"/><stop offset="0.82" stop-color="#b68a63"/><stop offset="1" stop-color="#ad7b4e"/></linearGradient><linearGradient id="linear-gradient-24" x1="10676" y1="95.44" x2="10674.08" y2="99.15" gradientTransform="matrix(-1, 0, 0, 1, 10876.29, 0)" xlink:href="#linear-gradient-14"/><linearGradient id="linear-gradient-25" x1="199.33" y1="100.85" x2="200.49" y2="100.85" gradientTransform="matrix(1, 0, 0, 1, 0, 0)" xlink:href="#New_Gradient_Swatch_copy_2"/><linearGradient id="linear-gradient-26" x1="179.22" y1="104.11" x2="181.54" y2="107.45" gradientTransform="matrix(1, 0, 0, 1, 0, 0)" xlink:href="#linear-gradient-14"/><linearGradient id="linear-gradient-27" x1="189.85" y1="166.1" x2="196.73" y2="166.1" gradientTransform="matrix(1, 0, 0, 1, 0, 0)" xlink:href="#linear-gradient-14"/><linearGradient id="linear-gradient-28" x1="201.14" y1="166.22" x2="208.8" y2="166.22" gradientTransform="matrix(1, 0, 0, 1, 0, 0)" xlink:href="#linear-gradient-14"/><linearGradient id="linear-gradient-29" x1="189.97" y1="150.3" x2="190.1" y2="150.3" gradientTransform="matrix(1, 0, 0, 1, 0, 0)" xlink:href="#linear-gradient-21"/><linearGradient id="linear-gradient-30" x1="182.83" y1="84.63" x2="186.56" y2="84.63" gradientTransform="matrix(1, 0, 0, 1, 0, 0)" xlink:href="#linear-gradient-14"/><linearGradient id="New_Gradient_Swatch_copy_38-7" x1="-675.6" y1="101.13" x2="-663.71" y2="101.13" gradientTransform="translate(872.22)" xlink:href="#New_Gradient_Swatch_copy_38"/></defs><title>addressing_privacy_concerns_1</title><g id="Layer_2" data-name="Layer 2"><g id="Layer_1-2" data-name="Layer 1"><ellipse class="cls-1" cx="148.57" cy="181.8" rx="148.57" ry="8.1"/><rect class="cls-2" x="48.61" width="230.07" height="152.7" rx="5.68"/><rect class="cls-3" x="52.53" y="5.23" width="222.22" height="133.81"/><polygon class="cls-2" points="173.88 152.7 163.9 152.7 153.91 152.7 148.96 173.18 163.9 173.18 178.83 173.18 173.88 152.7"/><path class="cls-2" d="M121.42,173.18h85a6.34,6.34,0,0,1,6.34,6.34v0a0,0,0,0,1,0,0H115.08a0,0,0,0,1,0,0v0A6.34,6.34,0,0,1,121.42,173.18Z"/><circle class="cls-4" cx="163.64" cy="145.87" r="4.24" transform="translate(-15.92 271.62) rotate(-76.72)"/><circle class="cls-5" cx="163.64" cy="145.87" r="3.24"/><rect class="cls-6" x="55.77" y="76.35" width="215.38" height="59.74" rx="5.61"/><path class="cls-7" d="M160.4,11.49v6.45H55.77V11.49a3.9,3.9,0,0,1,3.9-3.9H156.5A3.89,3.89,0,0,1,160.4,11.49Z"/><path class="cls-8" d="M160.4,17.94V70.11c0,1.8-1.74,3.26-3.9,3.26H59.67c-2.15,0-3.9-1.46-3.9-3.26V17.94Z"/><rect class="cls-6" x="59.03" y="9.9" width="31.17" height="5.74" rx="2.87"/><path class="cls-9" d="M143,12.76a2.12,2.12,0,1,1-2.12-2.12A2.12,2.12,0,0,1,143,12.76Z"/><path class="cls-10" d="M149.38,12.76a2.13,2.13,0,1,1-2.12-2.12A2.12,2.12,0,0,1,149.38,12.76Z"/><path class="cls-11" d="M155.5,12.76a2.12,2.12,0,1,1-2.12-2.12A2.12,2.12,0,0,1,155.5,12.76Z"/><rect class="cls-12" x="97.72" y="24.45" width="40.88" height="6.57"/><rect class="cls-12" x="97.72" y="33.36" width="55.86" height="3.33"/><rect class="cls-12" x="97.72" y="38.71" width="55.86" height="3.33"/><rect class="cls-12" x="97.72" y="44.06" width="55.86" height="3.33"/><rect class="cls-12" x="97.72" y="49.41" width="55.86" height="3.33"/><rect class="cls-12" x="62.6" y="54.76" width="90.98" height="3.33"/><rect class="cls-12" x="62.6" y="60.11" width="90.98" height="3.33"/><rect class="cls-12" x="62.6" y="65.46" width="90.98" height="3.33"/><rect class="cls-13" x="172.04" y="81.43" width="90.98" height="7.08" rx="3.54"/><rect class="cls-14" x="172.04" y="91.04" width="90.98" height="3.59"/><rect class="cls-15" x="172.04" y="96.8" width="90.98" height="3.59"/><rect class="cls-16" x="172.04" y="102.57" width="90.98" height="3.59"/><rect class="cls-17" x="172.04" y="108.33" width="90.98" height="3.59"/><rect class="cls-18" x="172.04" y="114.1" width="90.98" height="3.59"/><rect class="cls-19" x="172.04" y="119.87" width="90.98" height="3.59"/><rect class="cls-20" x="172.04" y="125.63" width="90.98" height="3.59"/><path class="cls-6" d="M271.15,11.07v6.87L163.9,18V11.07a3.48,3.48,0,0,1,3.48-3.48H267.67A3.48,3.48,0,0,1,271.15,11.07Z"/><path class="cls-8" d="M271.15,17.94v52a3.48,3.48,0,0,1-3.48,3.48H167.38a3.48,3.48,0,0,1-3.48-3.48V18Z"/><rect class="cls-8" x="169.29" y="9.94" width="31.17" height="5.74" rx="2.87"/><circle class="cls-8" cx="251.16" cy="12.8" r="2.12"/><circle class="cls-8" cx="257.51" cy="12.8" r="2.12"/><circle class="cls-8" cx="263.64" cy="12.8" r="2.12"/><rect class="cls-12" x="184.32" y="51.16" width="7.42" height="16.82"/><rect class="cls-12" x="195.89" y="37.44" width="7.42" height="30.54"/><rect class="cls-12" x="207.46" y="45.44" width="7.42" height="22.54"/><rect class="cls-12" x="219.03" y="45.28" width="7.42" height="22.71"/><rect class="cls-12" x="230.6" y="33.84" width="7.42" height="34.15"/><rect class="cls-12" x="242.17" y="26.81" width="7.42" height="41.18"/><circle class="cls-21" cx="76.86" cy="38.71" r="14.25"/><path class="cls-22" d="M74.19,33.73a.84.84,0,0,1-.07.19A.69.69,0,0,0,74.19,33.73Z"/><path class="cls-23" d="M87,48.71a14.25,14.25,0,0,1-20.32,0c.42-.86,1.09-2.26,1.38-2.81.42-.82,4.66-2.2,4.66-2.2h0l1-.5c.63-.39.53-2.55.53-2.56h0c-.28-.32-.5-.6-.61-.72-.36-.36-.27-1.57-.27-1.57a.66.66,0,0,1-.85-.34c-.34-.57-.84-2.61,0-2.41,0,0-.92-3,.58-3.46,0,0,.38-2.63,3.69-2.69s3.58,2.46,3.58,2.46c1.51.51.7,3.69.7,3.69.83-.2.34,1.84,0,2.41a.67.67,0,0,1-.86.34s.09,1.2-.26,1.57c-.12.12-.33.39-.61.71,0,0-.1,2.17.53,2.57h0l1,.5h0c.13,0,4.25,1.39,4.67,2.2C85.93,46.44,86.61,47.85,87,48.71Z"/><polygon class="cls-24" points="80.89 43.7 80.89 43.7 81.07 43.7 80.89 43.7"/><polygon class="cls-12" points="148.96 84.75 148.96 130.62 116.44 110.77 148.96 84.75"/><path class="cls-12" d="M149,131.62H71.32l32.53-19.88,3.27,2.6a4.78,4.78,0,0,0,6.07,0l3.25-2.58Z"/><polygon class="cls-12" points="103.85 111.74 71.32 131.62 71.32 85.75 103.85 111.74"/><path class="cls-2" d="M149,81.82v2.93l-32.52,26-3.25,2.58a4.78,4.78,0,0,1-6.07,0l-3.27-2.6-32.53-26V81.82Z"/><rect class="cls-8" x="257.54" y="148.59" width="1.01" height="2.79"/><rect class="cls-8" x="261.02" y="148.59" width="1.01" height="2.79"/><rect class="cls-8" x="264.51" y="148.59" width="1.01" height="2.79"/><rect class="cls-8" x="268" y="148.59" width="1.01" height="2.79"/><rect class="cls-8" x="271.49" y="148.59" width="1.01" height="2.79"/><path class="cls-25" d="M217.34,41.73l-.19-2-1.93-.41C199.48,36,186.82,28.5,179,22.78A91.09,91.09,0,0,1,165.49,11l-2-2.33-2,2.33c-.19.22-19.48,22-49.72,28.39l-1.94.41-.19,2c-.06.62-1.42,15.39,4.36,34.06a94.42,94.42,0,0,0,15.37,29.83,99.27,99.27,0,0,0,32.9,27.17l1.25.66,1.26-.66a99.23,99.23,0,0,0,32.89-27.17A94.21,94.21,0,0,0,213,75.79C218.76,57.12,217.41,42.35,217.34,41.73Z"/><path class="cls-6" d="M214,43.53l-.18-1.84L212,41.3a91,91,0,0,1-34-15.56,83.72,83.72,0,0,1-12.65-11.09l-1.91-2.18-1.91,2.18c-.18.21-18.27,20.63-46.67,26.65l-1.81.39-.18,1.84c-.06.58-1.33,14.44,4.09,32a88.59,88.59,0,0,0,14.43,28A93.1,93.1,0,0,0,162.28,129l1.18.61,1.18-.61a93.24,93.24,0,0,0,30.88-25.5,88.57,88.57,0,0,0,14.42-28C215.37,58,214.09,44.11,214,43.53ZM205.11,74c-6.75,21.8-20.76,38.58-41.65,49.89-20.82-11.28-34.81-28-41.58-49.69a88.81,88.81,0,0,1-4-28.37A96.66,96.66,0,0,0,152,29.74,96.81,96.81,0,0,0,163.46,20a96.81,96.81,0,0,0,11.45,9.74,96.83,96.83,0,0,0,34.18,16.09A88.21,88.21,0,0,1,205.11,74Z"/><path class="cls-6" d="M205.11,74c-6.75,21.8-20.76,38.58-41.65,49.89-20.82-11.28-34.81-28-41.58-49.69a88.81,88.81,0,0,1-4-28.37A96.66,96.66,0,0,0,152,29.74,96.81,96.81,0,0,0,163.46,20a96.81,96.81,0,0,0,11.45,9.74,96.83,96.83,0,0,0,34.18,16.09A88.21,88.21,0,0,1,205.11,74Z"/><path class="cls-2" d="M175.77,84.46H151.15v-25a12.31,12.31,0,0,1,24.62,0Zm-20.31-4.3h16V59.44a8,8,0,1,0-16,0Z"/><rect class="cls-2" x="142.87" y="71.76" width="41.79" height="25.47" rx="12.73"/><path class="cls-12" d="M165,82.92l-1.5.59-1.5-.59-.77,6.92a.7.7,0,0,0,.69.77H165a.7.7,0,0,0,.69-.77Z"/><circle class="cls-12" cx="163.46" cy="80.94" r="2.56"/><circle class="cls-7" cx="163.53" cy="29.19" r="3.03" transform="translate(108.52 185.94) rotate(-80.78)"/><circle class="cls-7" cx="203.26" cy="50.63" r="3.03" transform="translate(78.7 219.04) rotate(-67.5)"/><circle class="cls-7" cx="123.35" cy="50.63" r="3.03" transform="translate(15.43 128.94) rotate(-58.28)"/><circle class="cls-7" cx="163.76" cy="117.05" r="3.03"/><path class="cls-12" d="M23.3,132.17c0,.42.09.84.15,1.28.11.87.25,1.78.41,2.69s.33,1.83.54,2.75c.16.7.32,1.39.5,2.07.12.46.24.91.38,1.35s.26.88.41,1.32h0c.07.22.14.43.22.64.22.64.46,1.26.71,1.85s.52,1.16.8,1.69a11.39,11.39,0,0,0,2.91,3.8l13.07-5.08h0l7.73-3v-2.8s-1.16.09-3,.29h0l-1,.12-.36,0-1.55.21-.46.06-.92.14-.48.08c-1,.16-2.14.36-3.24.58l-1.06.22h0l-.83.18h0l-1,.25-1,.27c-.5.13-1,.28-1.46.43l-.47.16-.4.14-.36.13-.58.22s1.2-14.49-3.28-18.1a9.57,9.57,0,0,0-6.07-2,2.31,2.31,0,0,0-.18.35C23,125.57,22.91,128.53,23.3,132.17Z"/><path class="cls-12" d="M36.37,122.5a.88.88,0,0,1,0,.38l.21.09a2.38,2.38,0,0,1,.59.38,1.07,1.07,0,0,1,.16.14l.09.09.07.08c0,.06.09.12.13.19a2.12,2.12,0,0,1,.12.2s0,0,0,0,0-.07,0-.12a5.7,5.7,0,0,0-.18-.57,1.21,1.21,0,0,0,0-.14c0-.07-.06-.16-.1-.24a1,1,0,0,0-.07-.15,1.55,1.55,0,0,0-.14-.29,3,3,0,0,0-.18-.3h0c-.37-.39-.63-.63-.74-.73A4.89,4.89,0,0,0,36.37,122.5Z"/><path class="cls-12" d="M31.36,119.57l3.37,5.24a2,2,0,0,1,.36-.86,3.4,3.4,0,0,1,.82-.81h0l.18-.11c-.92-.26-3.62-3.3-4-3.68l0,0a0,0,0,0,1,0,0l-.1,0-.18,0-.07,0h-.07l-.09,0Z"/><path class="cls-26" d="M31.76,119.44h0l.1,0Z"/><path class="cls-27" d="M36.1,123l-.18.11a1.12,1.12,0,0,0,.69-.17l-.21-.09a.88.88,0,0,0,0-.38,4.89,4.89,0,0,1-.12-1c0,.63-.39.12,0,1.07.58,1.4-3.75-2.83-4.1-3.18C32.48,119.73,35.18,122.77,36.1,123Z"/><path class="cls-12" d="M37.14,124.11s7.11,12.09,8.37,15.48l-.23,1.8,1.54-.21.36,0,1-.12h0C44.05,130.16,38.94,124.21,37,122.2a3,3,0,0,1,.18.3,1.55,1.55,0,0,1,.14.29,1,1,0,0,1,.07.15c0,.08.07.17.1.24a1.21,1.21,0,0,1,0,.14,5.7,5.7,0,0,1,.18.57s0,.09,0,.12,0,0,0,0a2.12,2.12,0,0,0-.12-.2c0-.07-.09-.13-.13-.19l-.07-.08-.09-.09a1.07,1.07,0,0,0-.16-.14Z"/><path class="cls-12" d="M23.57,124.19a9.57,9.57,0,0,1,6.07,2c4.48,3.61,3.28,18.1,3.28,18.1l.58-.22.36-.13.4-.14.47-.16c.48-.15,1-.3,1.46-.43.33-.1.67-.18,1-.27l1-.25h0l.83-.19h0l1.06-.22c1.1-.22,2.19-.41,3.24-.58L42,140.61l-5.61-16.09L35.09,124a2,2,0,0,0-.36.86l-3.37-5.24-.18.06-.38.14-.42.15-.62.24-.06,0-.42.17c-.71.3-1.48.65-2.23,1.05l-.33.18-.41.23L26,122c-.12.07-.24.14-.35.22l-.32.22a7.87,7.87,0,0,0-.62.49,5.64,5.64,0,0,0-.5.47,3,3,0,0,0-.24.26l-.12.15-.1.14A1.7,1.7,0,0,0,23.57,124.19Z"/><path class="cls-12" d="M36.25,121.46c.11.1.37.34.74.73h0c1.94,2,7,8,11.19,18.82,1.79-.2,3-.29,3-.29a8.39,8.39,0,0,1,3.17-.77,5.18,5.18,0,0,1,.67.15,29.41,29.41,0,0,1-4.53-1.84C49,137.42,41.9,126,40.76,124.19s-4.35-3.33-4.46-3.37h0s0,.06,0,.09,0,.09,0,.13a.71.71,0,0,0,0,.14A2.83,2.83,0,0,0,36.25,121.46Z"/><path class="cls-28" d="M57.3,141.13,54,142.27l-1.44.63-1.45.63v-2.8a8.39,8.39,0,0,1,3.17-.77,5,5,0,0,1,.67.14h0l.06,0h0A13.54,13.54,0,0,1,57.3,141.13Z"/><path class="cls-12" d="M81,129.08l-4.85,9.14c-2.14-2.6-21.45,4.68-21.45,4.68H52.59l1.44-.63,3.27-1.14,4.44-1.55,7-15.7Z"/><path class="cls-2" d="M68.87,151.61H51.14a28.82,28.82,0,0,0-7.73-5.08l7.73-3,1.45-.63H67.33Z"/><path class="cls-2" d="M94.5,173.51h0l-2.59,2.32L77,157.49c.12-3.86.2-7.83.14-11.17Z"/><path class="cls-2" d="M77,157.49c-.26,8.17-.75,15.82-.75,15.82l-3.48.2-3.72-21,0-.11c0-.28-.09-.55-.15-.82h0l-1.54-8.71H54.73s19.31-7.28,21.45-4.68c.62.74.88,3.93.95,8.1C77.19,149.66,77.11,153.63,77,157.49Z"/><path class="cls-29" d="M83,176.7c-.1.9-3.59,1.16-5.39.73s-1.57-.68-2.55-.3-2.06,0-2.16-.38-.14-3.24-.14-3.24l3.48-.2a2.43,2.43,0,0,1,2,1.13C79.07,175.64,83.09,175.81,83,176.7Z"/><path class="cls-30" d="M98.24,175.49c-1.48,1.12-1.53.78-1.85,1.78s-1.34,1.56-1.67,1.42-2.81-2.86-2.81-2.86l2.59-2.32h0s.37-.44,1.78-.37,4.17-2.93,4.81-2.28S99.71,174.36,98.24,175.49Z"/><path class="cls-31" d="M73.38,133.66c-.22.48-.17,1,.11,1.11s.69-.17.91-.66.17-1-.11-1.11S73.6,133.17,73.38,133.66Z"/><path class="cls-32" d="M36.61,123h0"/><path class="cls-2" d="M35.09,124l1.27.57.78-.41.06-.76a2.38,2.38,0,0,0-.59-.38,1.12,1.12,0,0,1-.69.17h0A3.4,3.4,0,0,0,35.09,124Z"/><path class="cls-2" d="M36.36,124.52,42,140.61l1.44,1.06.48-.08.92-.14.46-.06.24-1.8c-1.26-3.39-8.37-15.48-8.37-15.48Z"/><path class="cls-6" d="M20.65,182.18l45.08-.41c-.12.11,4.93-18.78,3.31-29.23h0l0-.1-.14-.82H51.14a25.55,25.55,0,0,0-3.28-2.6l-.63-.42h0l-.68-.42c-.48-.29-1-.58-1.5-.85l-.8-.4h0l-.84-.39h0c-4.5-2-10.38-2.86-16,1.28-.28-.53-.54-1.1-.8-1.69q-.5-1.19-.93-2.49h0c-.15-.44-.28-.88-.41-1.32s-.26-.89-.38-1.35c-.18-.68-.34-1.37-.5-2.06q-.3-1.4-.54-2.76c-.16-.91-.3-1.82-.41-2.69-.06-.43-.1-.86-.15-1.28-.39-3.63-.35-6.6.09-7.63a2.31,2.31,0,0,1,.18-.35,1.7,1.7,0,0,1,.15-.22l.1-.14.12-.15a3,3,0,0,1,.24-.26,5.64,5.64,0,0,1,.5-.47,7.87,7.87,0,0,1,.62-.49l.32-.22c.11-.08.23-.15.35-.22l.34-.21.41-.23.33-.18c.75-.4,1.52-.75,2.23-1.05l.42-.17.06,0,.62-.24.42-.15.38-.14.18-.06.24-.08.09,0h0l.1,0,.18,0,.1,0a0,0,0,0,0,0,0h0l.54-1.18.28-.58v0h0s-.06-.16-.12-.35c-1.77-.68-12.38-4.32-18.85,3.94C6.88,130.17,10.88,169.34,20.65,182.18Z"/><path class="cls-33" d="M35.55,116.43c.2,0,.61,1.47,1.64,2.25a2.53,2.53,0,0,0,.82.41c1,.26,1.92-2.18,2.53-4.2.09-.29.17-.58.24-.85.27-1,.43-1.71.43-1.71.29-1.17-1.84-2-2.13-1.58s-1.08.53-1.37,1.73-1.13,3.44-1.33,3.33-.42-4.61-2.32-2.72S35.3,116.39,35.55,116.43Z"/><path class="cls-34" d="M32.12,119.31h0l0,0c.33.38,3,3.42,4,3.68.16,0,.27,0,.3-.15a.88.88,0,0,0,0-.38,4.89,4.89,0,0,1-.12-1,2.83,2.83,0,0,1,0-.29.71.71,0,0,1,0-.14s0-.08,0-.13v-.08a4.55,4.55,0,0,1,.9-2.14c-1-.78-1.45-2.21-1.65-2.25L33,117.54h0l-.35.74Z"/><path class="cls-35" d="M31.71,113.11a22.72,22.72,0,0,0,1.11,4.09c.06.19.1.31.12.35h0l2.6-1.11c-.25,0-3.39-1.45-1.49-3.34s2.11,2.6,2.32,2.72,1-2.13,1.33-3.33,1.07-1.33,1.37-1.73,2.42.41,2.13,1.58c0,0-.16.73-.43,1.71-.07.27-.15.56-.24.85a2,2,0,0,0,.7-.78c.28-.55.49-.45,1.75-.67s1.62-3.82-.45-5.16-6.29,0-6.29,0C32,107.81,31.58,111.69,31.71,113.11Z"/><path class="cls-36" d="M186.45,184.05c0,.72.39.9,1.18.9a21.74,21.74,0,0,0,3.34,0c.39-.18,1.37-.76,1.37-.36s.79.53,1.18.36.4-3,.4-3H191s-1,.18-1.18.89S186.45,183.34,186.45,184.05Z"/><path class="cls-37" d="M201.32,184.05c0,.72.39.9,1.18.9a21.75,21.75,0,0,0,3.34,0c.39-.18,1.37-.76,1.37-.36s.79.53,1.18.36.39-3,.39-3h-2.94s-1,.18-1.18.89S201.32,183.34,201.32,184.05Z"/><path class="cls-38" d="M201.15,96.17a.84.84,0,0,0-.18.21c-.06.1-.09.21-.14.31l0,0a.4.4,0,0,1-.09.15.53.53,0,0,1-.12.14c-.24.21-.58,1-1,1.22h0a.61.61,0,0,1-.34.1.77.77,0,0,1-.19,0h0c-.58-.24.69-3.37,1.23-4.62l.18-.41a.08.08,0,0,1,0,0l0-.06c.44-1.09,1.14-1.23,1-.43s-1.18,2.91-.89,3.25.56-1.9,1.29-1.61S201.48,95.88,201.15,96.17Z"/><path class="cls-39" d="M201.15,96.17a2.25,2.25,0,0,0-.19.38v-.17A.84.84,0,0,1,201.15,96.17Z"/><path class="cls-40" d="M201,96.54a7.53,7.53,0,0,0-.26,4.16,6.35,6.35,0,0,0-1,.24l-.15,0a13.28,13.28,0,0,0,.25-1.54,1.28,1.28,0,0,0-.14-.82.8.8,0,0,0-.43-.31h.11a.5.5,0,0,0,.23-.09h0a4.41,4.41,0,0,0,.94-1.12l.05,0,0,0a.5.5,0,0,0,.12-.14.4.4,0,0,0,.09-.15l0,0,.13-.22Z"/><path class="cls-41" d="M201,96.38v.09l-.13.22C200.88,96.59,200.91,96.48,201,96.38Z"/><path class="cls-42" d="M201.15,96.17l-.19.3-.13.22,0,0-.09.15a.53.53,0,0,1-.12.14c-.24.21-.58,1-1,1.22h0a.61.61,0,0,1-.34.1.77.77,0,0,1-.19,0h0c-.58-.24.69-3.37,1.23-4.62l.18-.41a.08.08,0,0,1,0,0l0-.06c.44-1.09,1.14-1.23,1-.43s-1.18,2.91-.89,3.25.56-1.9,1.29-1.61S201.48,95.88,201.15,96.17Z"/><path class="cls-43" d="M200.7,100.7a6.77,6.77,0,0,0-1.16.29A6.77,6.77,0,0,1,200.7,100.7Z"/><path class="cls-44" d="M181.33,105.65l-1.06,1.1c-.05-.1-.12-.22-.75-.53a1.9,1.9,0,0,1-1.34-1.57c-.13-.94,1.07-1.46,1.15-.9a1.92,1.92,0,0,0,1.1,1.28c.33.07.23-1,.56-.75S181.3,105.54,181.33,105.65Z"/><path class="cls-45" d="M196.73,151.91c-.27.77-.51,1.53-.72,2.29-1.31,4.75-2.09,27.7-2.09,27.7h-3l-1-25.08c0-2.11,0-4.29.18-6.51A36.94,36.94,0,0,0,196.73,151.91Z"/><path class="cls-2" d="M208.81,129.16h0l-16.15-.08c.36-2.14.45-.92,2.93-8.07,1.85-5.33-.82-7.43-.82-7.43l-.15-.19c-1,1-2,2-3,2.84-1.3,1.14-2.43,2-2.95,1.85-1.53-.33-6-7.77-6-7.77s-2.38-3.45-2.43-3.54l1.06-1.11c.07.13,2.76,2.41,2.76,2.41h0s3.18,2.53,3.7,2.91c0,0,3.14-2.86,5.34-5.4,1-1.15,1.79-2.08,2-2.36a2.13,2.13,0,0,1,.21-.22,9.56,9.56,0,0,1,2.43-1.29c.49-.19.85-.31.85-.31a5.32,5.32,0,0,1,.65-.3l.25-.1.15,0a6.35,6.35,0,0,1,1-.24,5.51,5.51,0,0,1,1.6,0l.25,0a9.9,9.9,0,0,1,4.11,3.44,4.3,4.3,0,0,1,.37,1.25h0c0,.12.15,2.19.09,4.88a43,43,0,0,1-.68,7.37,4.5,4.5,0,0,0,.3,2.73,24.25,24.25,0,0,1,2,6h0a16,16,0,0,1,.62,2.71Z"/><path class="cls-46" d="M208.78,181.9h-3L203,160.78l-1.88-9.64a12,12,0,0,1,7.37,0c-.11,3.49-.27,6.93-.51,9.65C208,160.78,209,178.3,208.78,181.9Z"/><path class="cls-12" d="M209.36,129.16h-.55l-16.15-.09s-.22,1-.32,1.62h0c0,.06,0,.11,0,.17A187.51,187.51,0,0,0,190,150.31a36.94,36.94,0,0,0,6.69,1.6,6.11,6.11,0,0,0,2.05-.07c.69-.2,1.49-.46,2.36-.7a12,12,0,0,1,7.37,0c.06-1.77.11-3.54.14-5.25h0a51.4,51.4,0,0,0,.72-7.9A31.68,31.68,0,0,0,209.36,129.16Z"/><polygon class="cls-47" points="189.98 150.37 189.97 150.37 190.1 150.24 189.98 150.37"/><path class="cls-2" d="M199.79,99.45a13.28,13.28,0,0,1-.25,1.54l-.25.1a5.32,5.32,0,0,0-.65.3s-.36.12-.85.31a9.56,9.56,0,0,0-2.43,1.29s-4.66-6.64-5.55-8.15c-.69-1.16-4.72-7.77-4.72-7.77l1.47-1.6h0s6.08,6.37,7.13,7.59C196.28,96.05,199.79,99.45,199.79,99.45Z"/><path class="cls-48" d="M186.56,85.47l-1.47,1.6a5.72,5.72,0,0,1-1.41-.77,1.4,1.4,0,0,1-.19-1.42c.15-.36.76-.47.78-.68s-.57-.73-.93-.94-.65-1.06-.44-1.06a13,13,0,0,1,2.45,1.48A17.67,17.67,0,0,1,186.56,85.47Z"/><path class="cls-49" d="M207.23,103.67c.52,1.63,1.22,3.87.34,5.93a3,3,0,0,1-.18.36.7.7,0,0,0-.06.09l-.07.11a1.15,1.15,0,0,1-.14.17,4.12,4.12,0,0,1-2.58,1.33c-4.41.8-6.23-3.6-5.32-6s2.42-2.9,2-3.51a4,4,0,0,1-.48-1.44,7.49,7.49,0,0,1,.26-4.15,2.25,2.25,0,0,1,.19-.38c.33-.29,1.47-1.53.74-1.83s-1,1.93-1.29,1.61.78-2.45.89-3.25-.58-.66-1,.43l0,.06a.08.08,0,0,0,0,0l-.18.41c-.54,1.25-1.81,4.38-1.23,4.62h0a.77.77,0,0,0,.19,0,.8.8,0,0,1,.43.31,1.28,1.28,0,0,1,.14.82,13.28,13.28,0,0,1-.25,1.54l-.25.1a5.32,5.32,0,0,0-.65.3s-.36.12-.85.31c-2.92-3.52.59-6.45.59-6.45a4.14,4.14,0,0,1,.5-2.55,3.69,3.69,0,0,1,2.4-1.64,4.72,4.72,0,0,1,6.32,1.82c.15.2.27.43.42.66C209.93,96.55,205.49,98.32,207.23,103.67Z"/></g></g></svg>