<svg xmlns="http://www.w3.org/2000/svg" viewBox="0 0 286.05 279.14"><defs><style>.cls-1{fill:#1a2089;}.cls-2{fill:#4cc2fc;}.cls-3{fill:#5d4efa;}.cls-4{fill:#fff;}.cls-5{fill:#cddbfd;}.cls-6{fill:#b56cf7;}.cls-7{fill:#e7ae9e;}</style></defs><title>data-storage</title><g id="Layer_2" data-name="Layer 2"><g id="Layer_1-2" data-name="Layer 1"><path class="cls-1" d="M130,13.06h33a0,0,0,0,1,0,0V236a0,0,0,0,1,0,0H129.63a7.75,7.75,0,0,1-7.75-7.75V21.21A8.14,8.14,0,0,1,130,13.06Z" transform="translate(284.91 249.11) rotate(180)"/><path d="M158.56,236.57H121.89a.52.52,0,0,1-.52-.52v-223a.52.52,0,0,1,.52-.52h38.6a3.06,3.06,0,0,1,3,3.05l.09,23.73a.52.52,0,0,1-.52.52h0a.52.52,0,0,1-.52-.52l-.09-23.73a2,2,0,0,0-2-2H122.41v222h36.15a.51.51,0,0,1,.51.52A.52.52,0,0,1,158.56,236.57Z"/><rect class="cls-2" x="18.81" y="30.42" width="115.27" height="197.13" transform="translate(152.9 257.97) rotate(180)"/><rect class="cls-1" x="13.24" y="13.06" width="126.41" height="34.71" transform="translate(152.9 60.84) rotate(180)"/><path class="cls-1" d="M140.17,48.29H12.72V12.54H140.17Zm-126.41-1H139.13V13.58H13.76Z"/><rect class="cls-3" x="15.83" y="15.65" width="121.23" height="29.53" rx="4.97"/><circle class="cls-2" cx="122.71" cy="30.42" r="3.08"/><circle class="cls-2" cx="112.87" cy="30.42" r="3.08"/><circle class="cls-2" cx="103.03" cy="30.42" r="3.08"/><rect class="cls-2" x="86.08" y="20.27" width="5.05" height="20.31" transform="translate(177.21 60.84) rotate(180)"/><rect class="cls-2" x="78.7" y="20.27" width="5.05" height="20.31" transform="translate(162.44 60.84) rotate(180)"/><rect class="cls-2" x="71.31" y="20.27" width="5.05" height="20.31" transform="translate(147.68 60.84) rotate(180)"/><rect class="cls-2" x="63.93" y="20.27" width="5.05" height="20.31" transform="translate(132.91 60.84) rotate(180)"/><rect class="cls-2" x="56.55" y="20.27" width="5.05" height="20.31" transform="translate(118.15 60.84) rotate(180)"/><rect class="cls-2" x="49.17" y="20.27" width="5.05" height="20.31" transform="translate(103.38 60.84) rotate(180)"/><rect class="cls-2" x="41.78" y="20.27" width="5.05" height="20.31" transform="translate(88.62 60.84) rotate(180)"/><rect class="cls-2" x="34.4" y="20.27" width="5.05" height="20.31" transform="translate(73.85 60.84) rotate(180)"/><rect class="cls-2" x="27.02" y="20.27" width="5.05" height="20.31" transform="translate(59.09 60.84) rotate(180)"/><rect class="cls-1" x="13.24" y="50.67" width="126.41" height="34.71"/><rect class="cls-3" x="15.83" y="53.26" width="121.23" height="29.53" rx="4.97"/><circle class="cls-2" cx="122.71" cy="68.03" r="3.08" transform="translate(-12.35 30.01) rotate(-13.28)"/><circle class="cls-2" cx="112.87" cy="68.03" r="3.08" transform="translate(-9.44 18.96) rotate(-9.22)"/><circle class="cls-2" cx="103.03" cy="68.03" r="3.08" transform="translate(-17.93 92.78) rotate(-45)"/><rect class="cls-2" x="86.08" y="57.88" width="5.05" height="20.31" transform="translate(177.21 136.06) rotate(180)"/><rect class="cls-2" x="78.7" y="57.88" width="5.05" height="20.31" transform="translate(162.44 136.06) rotate(180)"/><rect class="cls-2" x="71.31" y="57.88" width="5.05" height="20.31" transform="translate(147.68 136.06) rotate(180)"/><rect class="cls-2" x="63.93" y="57.88" width="5.05" height="20.31" transform="translate(132.91 136.06) rotate(180)"/><rect class="cls-2" x="56.55" y="57.88" width="5.05" height="20.31" transform="translate(118.15 136.06) rotate(180)"/><rect class="cls-2" x="49.17" y="57.88" width="5.05" height="20.31" transform="translate(103.38 136.06) rotate(180)"/><rect class="cls-2" x="41.78" y="57.88" width="5.05" height="20.31" transform="translate(88.62 136.06) rotate(180)"/><rect class="cls-2" x="34.4" y="57.88" width="5.05" height="20.31" transform="translate(73.85 136.06) rotate(180)"/><rect class="cls-2" x="27.02" y="57.88" width="5.05" height="20.31" transform="translate(59.09 136.06) rotate(180)"/><path class="cls-1" d="M115.11,85.9H13.24a.52.52,0,0,1-.52-.51V50.67a.52.52,0,0,1,.52-.51H139.65a.51.51,0,0,1,.52.51v19.8a.52.52,0,0,1-.52.52.52.52,0,0,1-.52-.52V51.19H13.76V84.87H115.11a.52.52,0,1,1,0,1Z"/><rect class="cls-1" x="13.24" y="88.28" width="126.41" height="34.71" transform="translate(152.9 211.28) rotate(180)"/><path class="cls-1" d="M140.17,123.52H12.72V87.77H140.17Zm-126.41-1H139.13V88.8H13.76Z"/><rect class="cls-3" x="15.83" y="90.88" width="121.23" height="29.53" rx="4.97"/><circle class="cls-2" cx="122.71" cy="105.64" r="3.08" transform="translate(-38.76 117.71) rotate(-45)"/><circle class="cls-2" cx="112.87" cy="105.64" r="3.08" transform="translate(-27.92 169.49) rotate(-67.5)"/><circle class="cls-2" cx="103.03" cy="105.64" r="3.08" transform="translate(-21.52 26.5) rotate(-13.28)"/><rect class="cls-2" x="86.08" y="95.49" width="5.05" height="20.31" transform="translate(177.21 211.28) rotate(180)"/><rect class="cls-2" x="78.7" y="95.49" width="5.05" height="20.31" transform="translate(162.44 211.28) rotate(180)"/><rect class="cls-2" x="71.31" y="95.49" width="5.05" height="20.31" transform="translate(147.68 211.28) rotate(180)"/><rect class="cls-2" x="63.93" y="95.49" width="5.05" height="20.31" transform="translate(132.91 211.28) rotate(180)"/><rect class="cls-2" x="56.55" y="95.49" width="5.05" height="20.31" transform="translate(118.15 211.28) rotate(180)"/><rect class="cls-2" x="49.17" y="95.49" width="5.05" height="20.31" transform="translate(103.38 211.28) rotate(180)"/><rect class="cls-2" x="41.78" y="95.49" width="5.05" height="20.31" transform="translate(88.62 211.28) rotate(180)"/><rect class="cls-2" x="34.4" y="95.49" width="5.05" height="20.31" transform="translate(73.85 211.28) rotate(180)"/><rect class="cls-2" x="27.02" y="95.49" width="5.05" height="20.31" transform="translate(59.09 211.28) rotate(180)"/><rect class="cls-1" x="13.24" y="125.9" width="126.41" height="34.71" transform="translate(152.9 286.5) rotate(180)"/><path class="cls-1" d="M140.17,161.13H12.72V125.38H140.17Zm-126.41-1H139.13V126.41H13.76Z"/><rect class="cls-3" x="15.83" y="128.49" width="121.23" height="29.53" rx="4.97"/><circle class="cls-2" cx="122.71" cy="143.25" r="3.08"/><circle class="cls-2" cx="112.87" cy="143.25" r="3.08"/><circle class="cls-2" cx="103.03" cy="143.25" r="3.08"/><rect class="cls-2" x="86.08" y="133.1" width="5.05" height="20.31" transform="translate(177.21 286.5) rotate(180)"/><rect class="cls-2" x="78.7" y="133.1" width="5.05" height="20.31" transform="translate(162.44 286.5) rotate(180)"/><rect class="cls-2" x="71.31" y="133.1" width="5.05" height="20.31" transform="translate(147.68 286.5) rotate(180)"/><rect class="cls-2" x="63.93" y="133.1" width="5.05" height="20.31" transform="translate(132.91 286.5) rotate(180)"/><rect class="cls-2" x="56.55" y="133.1" width="5.05" height="20.31" transform="translate(118.15 286.5) rotate(180)"/><rect class="cls-2" x="49.17" y="133.1" width="5.05" height="20.31" transform="translate(103.38 286.5) rotate(180)"/><rect class="cls-2" x="41.78" y="133.1" width="5.05" height="20.31" transform="translate(88.62 286.5) rotate(180)"/><rect class="cls-2" x="34.4" y="133.1" width="5.05" height="20.31" transform="translate(73.85 286.5) rotate(180)"/><rect class="cls-2" x="27.02" y="133.1" width="5.05" height="20.31" transform="translate(59.09 286.5) rotate(180)"/><rect class="cls-1" x="13.09" y="163.5" width="126.41" height="34.71" transform="translate(152.59 361.71) rotate(180)"/><path class="cls-1" d="M140,198.73H12.57V163H140Zm-126.41-1H139V164H13.61Z"/><rect class="cls-3" x="15.68" y="166.09" width="121.23" height="29.53" rx="4.97"/><circle class="cls-2" cx="122.56" cy="180.85" r="3.08"/><circle class="cls-2" cx="112.72" cy="180.85" r="3.08"/><circle class="cls-2" cx="102.87" cy="180.85" r="3.08"/><rect class="cls-2" x="85.92" y="170.7" width="5.05" height="20.31" transform="translate(176.9 361.71) rotate(180)"/><rect class="cls-2" x="78.54" y="170.7" width="5.05" height="20.31" transform="translate(162.13 361.71) rotate(180)"/><rect class="cls-2" x="71.16" y="170.7" width="5.05" height="20.31" transform="translate(147.37 361.71) rotate(180)"/><rect class="cls-2" x="63.78" y="170.7" width="5.05" height="20.31" transform="translate(132.6 361.71) rotate(180)"/><rect class="cls-2" x="56.39" y="170.7" width="5.05" height="20.31" transform="translate(117.84 361.71) rotate(180)"/><rect class="cls-2" x="49.01" y="170.7" width="5.05" height="20.31" transform="translate(103.08 361.71) rotate(180)"/><rect class="cls-2" x="41.63" y="170.7" width="5.05" height="20.31" transform="translate(88.31 361.71) rotate(180)"/><rect class="cls-2" x="34.25" y="170.7" width="5.05" height="20.31" transform="translate(73.55 361.71) rotate(180)"/><rect class="cls-2" x="26.87" y="170.7" width="5.05" height="20.31" transform="translate(58.78 361.71) rotate(180)"/><rect class="cls-1" x="13.09" y="201.11" width="126.41" height="34.71" transform="translate(152.59 436.93) rotate(180)"/><rect class="cls-3" x="15.68" y="203.7" width="121.23" height="29.53" rx="4.97"/><circle class="cls-2" cx="122.56" cy="218.46" r="3.08" transform="translate(-126.18 248.09) rotate(-67.5)"/><circle class="cls-2" cx="112.72" cy="218.46" r="3.08" transform="translate(-47.18 31.74) rotate(-13.28)"/><circle class="cls-2" cx="102.87" cy="218.46" r="3.08" transform="matrix(0.38, -0.92, 0.92, 0.38, -138.33, 229.9)"/><rect class="cls-2" x="85.92" y="208.31" width="5.05" height="20.31" transform="translate(176.9 436.93) rotate(180)"/><rect class="cls-2" x="78.54" y="208.31" width="5.05" height="20.31" transform="translate(162.13 436.93) rotate(180)"/><rect class="cls-2" x="71.16" y="208.31" width="5.05" height="20.31" transform="translate(147.37 436.93) rotate(180)"/><rect class="cls-2" x="63.78" y="208.31" width="5.05" height="20.31" transform="translate(132.6 436.93) rotate(180)"/><rect class="cls-2" x="56.39" y="208.31" width="5.05" height="20.31" transform="translate(117.84 436.93) rotate(180)"/><rect class="cls-2" x="49.01" y="208.31" width="5.05" height="20.31" transform="translate(103.08 436.93) rotate(180)"/><rect class="cls-2" x="41.63" y="208.31" width="5.05" height="20.31" transform="translate(88.31 436.93) rotate(180)"/><rect class="cls-2" x="34.25" y="208.31" width="5.05" height="20.31" transform="translate(73.55 436.93) rotate(180)"/><rect class="cls-2" x="26.87" y="208.31" width="5.05" height="20.31" transform="translate(58.78 436.93) rotate(180)"/><path d="M254.83,34.5a.5.5,0,0,1-.31-.1C239.44,23,213.16,10,188.44,6.56a.52.52,0,1,1,.14-1C213.49,9,240,22.08,255.14,33.57a.52.52,0,0,1,.11.73A.55.55,0,0,1,254.83,34.5Z"/><path d="M243.92,19.8a.56.56,0,0,1-.32-.11C236.22,13.91,214.93,2.51,196.85,1a.52.52,0,0,1,.09-1c19.37,1.58,40.59,13.62,47.3,18.87a.51.51,0,0,1,.09.73A.53.53,0,0,1,243.92,19.8Z"/><path class="cls-4" d="M181.23,68.27a.49.49,0,0,1-.37-.16.52.52,0,0,1,0-.73l21.65-21.31a.52.52,0,0,1,.73,0,.53.53,0,0,1,0,.74L181.59,68.12A.51.51,0,0,1,181.23,68.27Z"/><path class="cls-4" d="M218.61,62a.5.5,0,0,1-.37-.16.51.51,0,0,1,0-.73l21.64-21.31a.52.52,0,1,1,.73.74L219,61.89A.55.55,0,0,1,218.61,62Z"/><path class="cls-4" d="M191.33,46.47a.52.52,0,0,1-.36-.89l11.39-11.22a.52.52,0,0,1,.74,0,.51.51,0,0,1,0,.73L191.7,46.32A.51.51,0,0,1,191.33,46.47Z"/><path d="M271.15,45.34a.5.5,0,0,1-.51-.5.52.52,0,0,1,.5-.54l2.36-.06a.52.52,0,0,1,.54.5.53.53,0,0,1-.51.54l-2.36.06Z"/><path d="M262.88,45.56a.52.52,0,0,1,0-1l2.36-.07a.52.52,0,1,1,0,1l-2.36.06Z"/><path d="M268.17,42.51a.51.51,0,0,1-.52-.51l0-2.33a.52.52,0,0,1,.51-.53h0a.53.53,0,0,1,.52.52l0,2.32a.52.52,0,0,1-.52.53Z"/><path d="M268.27,50.66a.51.51,0,0,1-.52-.51l0-2.33a.52.52,0,0,1,.51-.53.55.55,0,0,1,.53.52l0,2.33a.51.51,0,0,1-.51.52Z"/><path d="M179.72,7.16a3.35,3.35,0,0,1-1.15-.22,3.25,3.25,0,0,1-1.8-1.75A3.32,3.32,0,0,1,178.42.87,3.16,3.16,0,0,1,180.87.8a3.24,3.24,0,0,1,1.81,1.75A3.31,3.31,0,0,1,181,6.87,3.16,3.16,0,0,1,179.72,7.16Zm0-5.54a2.2,2.2,0,0,0-.87.19,2.28,2.28,0,0,0-1.13,3A2.21,2.21,0,0,0,179,6a2.15,2.15,0,0,0,1.65,0,2.27,2.27,0,0,0,1.12-3,2.22,2.22,0,0,0-1.22-1.19A2.12,2.12,0,0,0,179.72,1.62Zm-1.09-.28h0Z"/><path class="cls-2" d="M219,240.3c-5.68-4.06-11.57-7.84-17.54-11.45-12.14-7.33-24.72-13.89-37.38-20.24-6.67-3.33-13.51-6.36-20.28-9.46s-13.64-6.23-20.47-9.33l-18.71-8.5c-20.76-44.06-43.67-94-40.86-94l212.6-6a9.14,9.14,0,0,1,9.13,9.12V238.05a9.14,9.14,0,0,1-9.13,9.12H228.86C225.64,244.8,222.28,242.62,219,240.3Z"/><path d="M276.4,247.69H228.69l-.14-.1c-1.81-1.33-3.69-2.62-5.51-3.87-1.42-1-2.88-2-4.3-3-5.23-3.74-11-7.48-17.51-11.44-12.79-7.73-26.06-14.55-37.35-20.21-5.15-2.58-10.49-5-15.66-7.36l-4.6-2.1c-6.72-3.09-13.52-6.17-20.47-9.32-5.78-2.63-12.34-5.6-18.71-8.51l-.17-.08-.08-.17C61.2,90.29,62.65,88,63.2,87.13a.69.69,0,0,1,.6-.33l212.59-6a9.66,9.66,0,0,1,9.66,9.64V238.05A9.66,9.66,0,0,1,276.4,247.69Zm-47.37-1H276.4a8.61,8.61,0,0,0,8.61-8.6V90.41a8.61,8.61,0,0,0-8.61-8.6l-212.33,6c-.07,2.24,5.51,17.81,41,93.1,6.31,2.88,12.8,5.82,18.53,8.42,7,3.15,13.75,6.24,20.48,9.32l4.59,2.1c5.18,2.36,10.53,4.79,15.7,7.38,11.31,5.67,24.59,12.51,37.41,20.25,6.58,4,12.33,7.73,17.58,11.48,1.41,1,2.87,2,4.29,3C225.41,244.09,227.25,245.35,229,246.65ZM63.83,87.84h0Z"/><rect class="cls-3" x="48.13" y="81.81" width="232.54" height="164.85" rx="8.61"/><path class="cls-3" d="M272.89,247.36H7a6.41,6.41,0,1,0,0,12.81H272.89a6.41,6.41,0,1,0,0-12.81Z"/><path class="cls-1" d="M63,87.69H265.87a8.05,8.05,0,0,1,8.11,8V232.77a8.05,8.05,0,0,1-8.11,8H63a8.05,8.05,0,0,1-8.1-8V95.68A8,8,0,0,1,63,87.69Z"/><path d="M272.07,247.17H56.73a9.13,9.13,0,0,1-9.12-9.12V90.41a9.13,9.13,0,0,1,9.12-9.12l93.92.09a.52.52,0,1,1,0,1h0l-93.92-.09a8.09,8.09,0,0,0-8.08,8.09V238.05a8.09,8.09,0,0,0,8.08,8.08H272.07a8.1,8.1,0,0,0,8.08-8.08V90.41a8.1,8.1,0,0,0-8.08-8.09H209.61a.52.52,0,1,1,0-1h62.46a9.13,9.13,0,0,1,9.12,9.12V238.05A9.13,9.13,0,0,1,272.07,247.17Z"/><path class="cls-3" d="M273.67,101l.23-5a8.09,8.09,0,0,0-8.19-7.93H64.59A8,8,0,0,0,56.51,96l-.23,6.15Z"/><circle class="cls-5" cx="66.55" cy="96.24" r="2.6"/><circle class="cls-5" cx="74.86" cy="96.06" r="2.6"/><circle class="cls-5" cx="83.86" cy="96.41" r="2.6"/><path class="cls-2" d="M264,241.13,65.5,241l1-139,198.35-.86V240.26A.87.87,0,0,1,264,241.13Z"/><rect class="cls-4" x="76.46" y="147.85" width="29.91" height="7.59"/><rect class="cls-4" x="124.71" y="148.19" width="106.27" height="7.59"/><rect class="cls-4" x="76.11" y="185.63" width="29.91" height="7.59"/><rect class="cls-4" x="124.36" y="185.97" width="106.27" height="7.59"/><rect class="cls-4" x="75.42" y="222.73" width="29.91" height="7.59"/><rect class="cls-4" x="123.67" y="223.07" width="106.27" height="7.59"/><rect class="cls-4" x="124.58" y="161.01" width="27.84" height="7.59"/><rect class="cls-4" x="156.28" y="161.34" width="98.93" height="7.59"/><rect class="cls-4" x="124.23" y="173.49" width="27.84" height="7.59"/><rect class="cls-4" x="155.93" y="173.82" width="98.93" height="7.59"/><rect class="cls-4" x="76.46" y="111.16" width="29.91" height="7.59"/><rect class="cls-4" x="124.71" y="111.5" width="106.27" height="7.59"/><rect class="cls-4" x="124.58" y="124.31" width="27.84" height="7.59"/><rect class="cls-4" x="156.28" y="124.65" width="98.93" height="7.59"/><rect class="cls-4" x="124.23" y="136.79" width="27.84" height="7.59"/><rect class="cls-4" x="155.93" y="137.13" width="98.93" height="7.59"/><rect class="cls-4" x="124.23" y="198.45" width="27.84" height="7.59"/><rect class="cls-4" x="155.93" y="198.79" width="98.93" height="7.59"/><rect class="cls-4" x="123.89" y="210.93" width="27.84" height="7.59"/><rect class="cls-4" x="155.59" y="211.27" width="98.93" height="7.59"/><path d="M200.73,260.68H7a6.95,6.95,0,1,1,0-13.89H272.89a6.95,6.95,0,0,1,1.42,13.75l-.21-1a5.91,5.91,0,0,0-1.21-11.69H7a5.91,5.91,0,1,0,0,11.81H200.73Z"/><circle class="cls-6" cx="183.53" cy="112.6" r="34.44" transform="translate(-29.12 78.81) rotate(-22.5)"/><circle class="cls-4" cx="183.14" cy="94.6" r="4.19"/><path class="cls-4" d="M188.16,132.33h0v-31a.3.3,0,0,0-.32-.29L174.22,101l.08.88a.26.26,0,0,0,.26.23,13.89,13.89,0,0,1,4.64.8.27.27,0,0,1,.17.24v29.28l-1.76.31v.84h12v-.94Z"/><path d="M183.53,147.57a35,35,0,1,1,29.58-16.31.52.52,0,0,1-.88-.56,33.92,33.92,0,1,0-28.7,15.83,34.4,34.4,0,0,0,4.19-.26.53.53,0,0,1,.58.45.52.52,0,0,1-.46.58A34.4,34.4,0,0,1,183.53,147.57Z"/><polygon class="cls-7" points="221.51 263.13 221.27 271.86 217.14 271.86 215.76 262.33 221.51 263.13"/><path d="M221.27,272.38h-4.13a.52.52,0,0,1-.51-.45l-1.39-9.52a.5.5,0,0,1,.15-.44.48.48,0,0,1,.44-.15l5.76.8a.51.51,0,0,1,.44.53l-.24,8.72A.53.53,0,0,1,221.27,272.38Zm-3.68-1h3.17l.22-7.76-4.61-.64Z"/><path d="M200.22,279.14h21.41a1.82,1.82,0,0,0,1.8-2.09,63.78,63.78,0,0,0-1.58-8.22c-.83-2.48-3.54,1.47-3.54,1.47L216.72,269s-14.11,4.13-17.35,8.48A1.06,1.06,0,0,0,200.22,279.14Z"/><path class="cls-4" d="M221.51,278h-20a.52.52,0,1,1,0-1h20a.52.52,0,0,1,0,1Z"/><polygon class="cls-4" points="252.1 253.85 259.95 263.79 264.11 260.68 257.39 249.71 252.1 253.85"/><path class="cls-7" d="M260,264.31a.54.54,0,0,1-.41-.2l-7.84-9.94a.47.47,0,0,1-.11-.38.58.58,0,0,1,.19-.35l5.29-4.13a.5.5,0,0,1,.41-.11.58.58,0,0,1,.35.24l6.72,11a.52.52,0,0,1-.13.68l-4.16,3.12A.5.5,0,0,1,260,264.31Zm-7.11-10.37,7.21,9.13,3.36-2.52-6.16-10.07Z"/><path d="M251.66,278.31c3.59-1.68,12.85-6.39,18.07-12.53a1.54,1.54,0,0,0,0-1.94,21.38,21.38,0,0,0-5.68-5.5s-4.68,1.63-3.43,3.84l-1.7-.27s-7.56,8.48-8.67,15.39A1,1,0,0,0,251.66,278.31Z"/><path class="cls-4" d="M251.83,277a.52.52,0,0,1-.25-1c.11-.06,11-6.16,16.72-12.25a.52.52,0,0,1,.76.72c-5.84,6.2-16.87,12.37-17,12.44A.54.54,0,0,1,251.83,277Z"/><path class="cls-3" d="M219.78,195.21s12,34.66,33,61.49l7.11-5.61s-5.65-18.29-7-20.64-5.14-8.43-6.27-11.62c-3.64-10.37-7.5-30.14-7.5-30.14Z"/><path class="cls-3" d="M202.73,189.46s3.84,26,6,39.68,6.92,35.7,6.92,35.7h6.79s2.24-15,2.78-23.25-2.2-10.64-2.74-17.31S225.36,196,225.36,196L215.3,186.2Z"/><path class="cls-7" d="M204.64,143.55c-1.09-1.09-.87-1.77-.66-1.82a7.63,7.63,0,0,0,1.63-.9c.82-.72,1.09-1.76.6-2.32a1.22,1.22,0,0,0-1.17-.33,6.47,6.47,0,0,0-.66-3.26c-1.25-3.57-4.37-2.83-5.5-1.55-1,1.12-.91,2.08-3,3.16-.21.11-.2.42-.09.62l.56,1.13a1.77,1.77,0,0,1,0,1,8.64,8.64,0,0,0-.67,2.67c.32.6,2.83,1.5,2.83,1.5l4.43,6.69a3.61,3.61,0,0,1-1.59,2.61.62.62,0,0,0,0,1,28.43,28.43,0,0,0,5.07,2.17c3.84,1.35,8-3.68,8-3.68S213.21,152.13,204.64,143.55Z"/><path d="M207.76,156.73a4.73,4.73,0,0,1-1.56-.26,29.73,29.73,0,0,1-5.16-2.22,1.14,1.14,0,0,1-.53-.94,1.12,1.12,0,0,1,.51-1,3.08,3.08,0,0,0,1.34-2.06l-4.23-6.38c-.88-.32-2.59-1-2.94-1.69-.21-.39-.06-1,.49-2.67,0-.14.09-.28.13-.4a1.52,1.52,0,0,0,0-.62l-.57-1.15a1.08,1.08,0,0,1-.09-.81.87.87,0,0,1,.41-.49,4.42,4.42,0,0,0,2.13-2,7.18,7.18,0,0,1,.76-1.08,3.69,3.69,0,0,1,6.38,1.72c.06.18.13.36.19.53a6.15,6.15,0,0,1,.53,2.37,1.64,1.64,0,0,1,1,.51c.69.79.41,2.14-.65,3.06a8.17,8.17,0,0,1-1.62.93,2.15,2.15,0,0,0,.67,1c7.75,7.75,9.38,8.56,9.52,8.62a.5.5,0,0,1,.34.31.52.52,0,0,1-.08.52C214.62,152.82,211.34,156.73,207.76,156.73Zm-11.63-15a9.56,9.56,0,0,0,2.51,1.22.49.49,0,0,1,.26.21l4.43,6.69a.54.54,0,0,1,.09.35,4.13,4.13,0,0,1-1.82,3,.09.09,0,0,0,0,.09.1.1,0,0,0,0,.08,27.23,27.23,0,0,0,5,2.12c2.79,1,5.91-1.91,7-3.07-1.08-.72-3.57-2.78-9.29-8.51-1.09-1.08-1-1.85-.94-2.14a.75.75,0,0,1,.52-.55,7.9,7.9,0,0,0,1.42-.78c.65-.57.81-1.29.55-1.59a.75.75,0,0,0-.69-.16.51.51,0,0,1-.44-.13.47.47,0,0,1-.16-.42,4.86,4.86,0,0,0-.44-2.49c-.06-.18-.14-.37-.2-.56a3,3,0,0,0-2.12-2.22,2.81,2.81,0,0,0-2.5.85,6,6,0,0,0-.65.93,5.38,5.38,0,0,1-2.4,2.27l.55,1.13a2.14,2.14,0,0,1,0,1.41l-.13.41A12.65,12.65,0,0,0,196.13,141.76Zm18.33,10Zm0,0Z"/><path d="M200.13,134.37s-3.92-3.13-2.82-5.64a2.23,2.23,0,0,1,1.06-1.21c1.39-.63,3.18.88,3.58,1.21,3.48,2.9,5.8,3.19,7.27,4.71a4.6,4.6,0,0,1,1.07,3.6,4.53,4.53,0,0,1-1.38,2.65c-1,.89-1.9.64-2.62,1.57s-.3,2.16-.86,2.49-1.39,0-3.63-2.25c1.34-1.5,2-3,1.53-3.72a1.25,1.25,0,0,0-.91-.56,1.21,1.21,0,0,0-.88.56Z"/><path class="cls-7" d="M158.7,139.92l-4.89-2.9a2.94,2.94,0,0,1-1.07-1.14l-1.22-2.34a.36.36,0,0,1,.55-.44l2.71,2.21a3.25,3.25,0,0,0,1.32.64l3.92,1,.9-1.83a1.52,1.52,0,0,1,1.42-.84l-1,4.42,1.19,4.15-3,1Z"/><path d="M159.49,144.3a.59.59,0,0,1-.26-.07.53.53,0,0,1-.25-.35l-.74-3.63-4.69-2.79a3.34,3.34,0,0,1-1.27-1.34l-1.22-2.34a.87.87,0,0,1,.22-1.08.86.86,0,0,1,1.11,0l2.72,2.2a2.7,2.7,0,0,0,1.1.54l3.53.87.71-1.45a2.06,2.06,0,0,1,1.92-1.14.56.56,0,0,1,.39.21.54.54,0,0,1,.09.43l-1,4.29,1.16,4a.52.52,0,0,1-.34.64l-3,1A.45.45,0,0,1,159.49,144.3ZM152.34,134l.86,1.65a2.32,2.32,0,0,0,.88.93l4.89,2.91a.53.53,0,0,1,.24.34l.67,3.29,2-.65-1-3.65a.46.46,0,0,1,0-.26l.82-3.56a1.14,1.14,0,0,0-.26.32l-.89,1.83a.52.52,0,0,1-.59.28l-3.93-1a3.75,3.75,0,0,1-1.51-.74Z"/><path class="cls-7" d="M217.88,100.3s-1.43-1.7-3-1.55a20.05,20.05,0,0,1-2.84.07s.08-1.25.93-1.21l.86,0,.83-.3-3.25-6.59,2.13.36a1.76,1.76,0,0,1,1.08.65l5.38,7Z"/><path d="M217.88,100.82a.53.53,0,0,1-.4-.18A3.57,3.57,0,0,0,215,99.27a21.25,21.25,0,0,1-2.92.07.56.56,0,0,1-.36-.17.53.53,0,0,1-.12-.38c0-.85.54-1.74,1.47-1.69l.75,0,.18-.07L211,91a.51.51,0,0,1,.05-.54.53.53,0,0,1,.5-.2l2.13.36a2.24,2.24,0,0,1,1.4.85l5.38,7a.5.5,0,0,1,.11.39.53.53,0,0,1-.21.35l-2.15,1.53A.47.47,0,0,1,217.88,100.82Zm-2.78-2.6a4.49,4.49,0,0,1,2.85,1.4l1.33-1-5.05-6.56a1.26,1.26,0,0,0-.76-.46l-1.12-.19,2.79,5.68a.51.51,0,0,1,0,.42.52.52,0,0,1-.31.29l-.83.31a.64.64,0,0,1-.2,0l-.85-.05a.3.3,0,0,0-.25.19,17.39,17.39,0,0,0,2.13-.09Z"/><path class="cls-1" d="M194.43,169.39l3,22.85a76.84,76.84,0,0,0,15.88.54S203.15,168.71,194.43,169.39Z"/><path class="cls-1" d="M208.26,193.5a80.28,80.28,0,0,1-10.89-.75.53.53,0,0,1-.44-.45l-3-22.84a.52.52,0,0,1,.47-.59c9-.7,19,22.71,19.42,23.71a.53.53,0,0,1-.44.72C211.64,193.44,209.91,193.5,208.26,193.5Zm-10.35-1.72a77.71,77.71,0,0,0,14.65.54c-1.67-3.75-10.2-22.07-17.54-22.42Z"/><path class="cls-1" d="M162.52,142.81c-1.68,1.18-1.77-.35-3.45.83,3.23,12.81,11.37,24.91,17,26.86,9.65,3.37,15.63-1.79,22.53,3,7.79,5.42,3.38,14.2,12.13,22.7,7.85,7.63,18.56,7.53,20.71,7.51s14.64-.14,18.05-7.51a12.09,12.09,0,0,0,.61-7c-.47-3.43-2.07-6-8-13.34-4.33-5.38-4.93-5.8-6.25-7.55-2.88-3.81-6.16-9.91-7.33-19.69a44,44,0,0,0,5-23.54,44.84,44.84,0,0,0-12.8-27.9q-2.1,1.56-4.22,3.1a35.42,35.42,0,0,1-4.63,42.34c-2.65,2.91-12.9,13.24-28.34,12.33C171.76,154.28,164.89,145.06,162.52,142.81Z"/><path class="cls-1" d="M195.5,153.35s-1.14-2.35,0-2.82,13.81-6.81,15.85-9.6,11.61-1.68,13.59,0-.79,8.59-5.2,11.35S205.94,149.92,195.5,153.35Z"/><path class="cls-1" d="M195.5,153.87a.52.52,0,0,1-.47-.3,4.37,4.37,0,0,1-.44-2.78,1.25,1.25,0,0,1,.72-.74c1.09-.45,13.68-6.77,15.62-9.43.7-1,2.09-1.56,4.14-1.8,3.62-.43,8.68.42,10.2,1.71a3,3,0,0,1,.82,2.63,14.08,14.08,0,0,1-6.08,9.56c-2.16,1.36-5.22,1-9.09.49-4.31-.53-9.68-1.2-15.26.63A.41.41,0,0,1,195.5,153.87Zm21.64-14.13a17.64,17.64,0,0,0-1.95.11c-1.7.2-2.92.7-3.42,1.38-2.22,3-15.39,9.5-16.07,9.78a.21.21,0,0,0-.14.15,2.73,2.73,0,0,0,.24,1.55c5.62-1.72,10.95-1.06,15.25-.53,3.66.46,6.56.82,8.41-.34a13.14,13.14,0,0,0,5.6-8.76,2.09,2.09,0,0,0-.46-1.76C223.63,140.5,220.28,139.74,217.14,139.74Z"/></g></g></svg>