<svg xmlns="http://www.w3.org/2000/svg" xmlns:xlink="http://www.w3.org/1999/xlink" viewBox="0 0 340.57 305.57"><defs><style>.cls-1{fill:#006ae6;}.cls-2{fill:#5d4efa;}.cls-3{fill:#1a2089;}.cls-4{fill:#de9d85;}.cls-5{fill:#e6b38e;}.cls-6{fill:url(#Áåçûìÿííûé_ãðàäèåíò_8);}.cls-7{fill:#292f53;}.cls-8{fill:#6cafe0;}.cls-9{fill:#00244f;}.cls-10{fill:#fff;}.cls-11{fill:#4cc2fc;}.cls-12{fill:url(#Áåçûìÿííûé_ãðàäèåíò_8-2);}.cls-13{fill:#253f5d;}.cls-14{fill:#333;}.cls-15{fill:url(#Áåçûìÿííûé_ãðàäèåíò_5);}.cls-16{fill:#b56cf7;}</style><linearGradient id="Áåçûìÿííûé_ãðàäèåíò_8" x1="5201.02" y1="174.7" x2="5230.34" y2="174.7" gradientTransform="matrix(-1, 0, 0, 1, 5475.03, 0)" gradientUnits="userSpaceOnUse"><stop offset="0" stop-color="#e3eee9"/><stop offset="1" stop-color="#c9e2ed"/></linearGradient><linearGradient id="Áåçûìÿííûé_ãðàäèåíò_8-2" x1="239.01" y1="180.75" x2="256.06" y2="180.75" gradientTransform="matrix(1, 0, 0, 1, 0, 0)" xlink:href="#Áåçûìÿííûé_ãðàäèåíò_8"/><linearGradient id="Áåçûìÿííûé_ãðàäèåíò_5" x1="5231.8" y1="194.54" x2="5231.8" y2="221.2" gradientTransform="matrix(1, 0, 0, -1, -5072.38, 414.21)" gradientUnits="userSpaceOnUse"><stop offset="0" stop-color="#c9e2ed"/><stop offset="0.02" stop-color="#cae3ed"/><stop offset="0.46" stop-color="#dcebea"/><stop offset="0.76" stop-color="#e3eee9"/></linearGradient></defs><title>dedicated_teams</title><g id="Layer_2" data-name="Layer 2"><g id="Layer_1-2" data-name="Layer 1"><polygon class="cls-1" points="268.64 250.34 262.64 206.62 263.74 206.47 269.76 250.34 268.64 250.34"/><polygon class="cls-1" points="232.76 250.34 238.76 206.62 237.66 206.47 231.64 250.34 232.76 250.34"/><path class="cls-2" d="M233.88,203.35s-13.62-31.24-4.19-40.28c5.6-5.36,16-4.58,23.57-3.06a11.16,11.16,0,0,1,9,10.93v32Z"/><path class="cls-3" d="M263.27,163.66a15.86,15.86,0,0,0-8.21-5.69,31.17,31.17,0,0,0-8.65-1.12h-.85c-6.74.2-12.23,4.25-15.2,10.31l-1.5,3,7.86,3.06,1.44-2.29-1.31,18.71h22l-.23-21.54,7.63.13Z"/><path class="cls-4" d="M249.88,154.35l.41,3.11s.18,1.62-2.71,1.62a4.34,4.34,0,0,1-2.42-.59,1.74,1.74,0,0,1-.74-1.69l.89-6.71Z"/><path class="cls-5" d="M229.31,170.39s-3.77,8.35-2.15,10.63,23.13-2.55,23.13-2.55v-2.83L234,176.72l2.27-3.67Z"/><path class="cls-5" d="M268.15,174.57s5.25,3.4,5.25,6-9.6.62-9.6.62Z"/><polygon class="cls-6" points="251.26 167.83 274.01 167.83 267.28 181.56 244.7 181.56 251.26 167.83"/><path class="cls-5" d="M250.6,154.67a3.29,3.29,0,0,0,2.06-.1c3.1-3.23,2.51-13.79,2.51-13.79l-8.77-.24-1.66,6.66a5.75,5.75,0,0,0,1.16,5.06h0A9.23,9.23,0,0,0,250.6,154.67Z"/><path class="cls-7" d="M257.42,139.16a3.4,3.4,0,0,0-3.81-1c-.64.37-2.84-3.26-7.2-3-3,.18-7,4.83-2.08,14.05.32-1,2.55-6.7,4.07-5.65a8.78,8.78,0,0,0,4.34,2,5.93,5.93,0,0,0,5.08-2C258.68,142.35,259.09,141.05,257.42,139.16Z"/><path class="cls-5" d="M244.79,144.44a1.49,1.49,0,0,1,1.91.6,1.29,1.29,0,0,1-.11,1.88,1.5,1.5,0,0,1-1.92-.6A1.28,1.28,0,0,1,244.79,144.44Z"/><path class="cls-7" d="M245.69,134s-1-1.93-4.4-1.19c-6.12,1.66-5.35,9-4.72,12.76a7.16,7.16,0,0,1-1.43,5.61c-3,3.86-7.55,11.3-1.54,15.54a4.68,4.68,0,0,0,3.91.8,4.3,4.3,0,0,0,2.64-2,5,5,0,0,0,.43-3.88c-.28-1-.55-2.34-.16-3,.65-1.17,4.4-3.45,4.64-7s-2-4.89-2.54-8.62c-1-6.55.46-7.38.46-7.38Z"/><polygon class="cls-8" points="243.51 136.71 246.41 135.13 245.69 134.02 242.98 135.61 243.51 136.71"/><path class="cls-2" d="M233.58,208.49h30a4.26,4.26,0,0,0-2.64-4.22c-5.46-1.67-16.52-5.12-24.32-4-2.59.37-4.38,3.58-3.63,6.7A4.58,4.58,0,0,0,233.58,208.49Z"/><path class="cls-9" d="M290.09,249.64l7.22-5.26c1.05-.56,2.39-1,3.37,0a11.25,11.25,0,0,1,1.18,1.4c0,.58-9.88,7.08-9.88,7.08h-.07A3,3,0,0,1,290.09,249.64Z"/><polygon class="cls-9" points="301.86 245.78 291.98 252.86 292.44 253.31 302.2 246.22 301.86 245.78"/><polygon class="cls-10" points="292.94 247.55 293.6 247.08 294.25 248.41 293.62 248.87 292.94 247.55"/><polygon class="cls-10" points="294.34 246.54 294.99 246.07 295.65 247.4 295.02 247.86 294.34 246.54"/><path class="cls-5" d="M287.2,246.28l2.89,3.36h0a2.26,2.26,0,0,0,2-1.35l.06-.14-.71-2.12Z"/><path class="cls-11" d="M248.7,203.19s8.59,12.57,21.36,18.31c3.34,7.81,18.22,26.24,18.22,26.24l3.14-1.71-27-46.7Z"/><path class="cls-9" d="M260.77,248.92l8.92,0c1.19.17,2.51.62,2.74,2a11.29,11.29,0,0,1,.13,1.82c-.32.49-12.16-.07-12.16-.07l0-.06A3,3,0,0,1,260.77,248.92Z"/><polygon class="cls-9" points="272.56 252.71 260.4 252.64 260.51 253.27 272.57 253.27 272.56 252.71"/><polygon class="cls-10" points="264.3 248.9 265.1 248.91 264.85 250.37 264.07 250.37 264.3 248.9"/><polygon class="cls-10" points="266.02 248.9 266.83 248.91 266.58 250.37 265.8 250.37 266.02 248.9"/><path class="cls-5" d="M260.4,244.5l.37,4.42h0a2.24,2.24,0,0,0,2.39.07l.14-.08.77-4Z"/><path class="cls-11" d="M236.85,189.64v3.73a12.14,12.14,0,0,0,10,12,38,38,0,0,0,19.92-1.88c-7.39,12.75-6.46,42.57-6.46,42.57h3.52l15.7-47.75a6.55,6.55,0,0,0-6.16-8.92Z"/><rect class="cls-12" x="239.01" y="179.95" width="17.05" height="1.62"/><path class="cls-10" d="M261.68,173.66a.9.9,0,1,1-.9-.9A.9.9,0,0,1,261.68,173.66Z"/><path class="cls-3" d="M214.31,183.22H328.54a2.08,2.08,0,0,0-2.08-2.08H216.39a2.08,2.08,0,0,0-2.08,2.08Z"/><polygon class="cls-3" points="327.47 256.16 328.75 255.94 322.88 183.15 321.6 183.37 327.47 256.16"/><polygon class="cls-3" points="216.06 256.16 214.78 255.94 220.65 183.15 221.93 183.37 216.06 256.16"/><path class="cls-4" d="M61.87,174.18a4.39,4.39,0,0,0-2-.49H55.62s-1.88-22.7-2.35-33.85c-2.78.11-3.64,10.29-5.15,8-.17-.26-1.73.84-1.9.58l6.42,25a4.27,4.27,0,0,0,4.19,3.45H67.14Z"/><polygon class="cls-4" points="54.82 134 52.68 139.78 46.66 137.12 52.03 129.16 54.82 134"/><path class="cls-5" d="M56.14,135.9a3.32,3.32,0,0,0,1.85.41c3.39-1.9,4.94-10.76,4.94-10.76l-2.51-2.88-5.25.53-2.78,5.09a4.68,4.68,0,0,0,0,4.46h0A9.24,9.24,0,0,0,56.14,135.9Z"/><path class="cls-7" d="M54.36,126.46c.65-.77,1.52-2.84,2.34-2.26.6.43,2.77,1.61,3.52,2,1.78.88,5.3,1.74,6.63-1a3.89,3.89,0,0,0-3.3-5.22c-2.3-.28-5.64,0-6.58-.76-1.57-1.21-3.82-1-4.52.46A16.62,16.62,0,0,0,51.39,126a9.21,9.21,0,0,0,.64,3.2h0Z"/><path class="cls-5" d="M52.46,125.77a1.47,1.47,0,0,1,1.58,1c.31.69.1,1.37-.47,1.53a1.51,1.51,0,0,1-1.59-1C51.68,126.61,51.89,125.92,52.46,125.77Z"/><path class="cls-7" d="M24.7,245.12s0,3.58,7.2,5.72c1.47.44,1,.88,1.27,1.5H24.9l-3.24-3.64-1,.87-2.34-2.3s1.09-3.32,2.87-3.35Z"/><path class="cls-5" d="M26,242l-1.34,3.1h0a3.23,3.23,0,0,1-3.36-1l-.15-.18,1.09-3.18Z"/><path class="cls-3" d="M47.13,134.1c-16-1.76-30.71,28.2-30.71,28.2l19.35,13.58s20.89-19.13,17.5-36A7.18,7.18,0,0,0,47.13,134.1Z"/><path class="cls-7" d="M13.14,246.87s2.3,2.14,7.56,3.48c1.15.3,2.4-.1,2.4,1.81H16.72l-5.3-.92v.92H8.56s-.8-4.68.87-5.29Z"/><path class="cls-5" d="M12.58,243.51l.56,3.36h0a3.22,3.22,0,0,1-3.51.12l-.2-.12.29-3.36Z"/><path class="cls-2" d="M35.77,175.88S46.38,195.14,45,205.33s-19.82,38.53-19.82,38.53l-3.35-1.54S25.54,220.87,29,211c.81-2.34,1.29-4.77.21-7-4.82-9.92-10.88-26.28-10.88-26.28l9.79-7.2Z"/><path class="cls-5" d="M51.86,144.8s8.66,8.75,14.24,12.84c4.56,3.35,14.2,6.32,17.59,7.29A3.09,3.09,0,0,0,86,164.7L89.18,163l9.49.19s0,1.7-5.77,2a15,15,0,0,1-2,2.89,3.27,3.27,0,0,1-2.83,1c-4.28-.53-16.62-2.29-24.9-5.78C53,159.13,42.66,150.57,42.66,150.57Z"/><path class="cls-2" d="M31.21,172.68l-18,72.57H9.25s-3-20.85.42-35.31a19.82,19.82,0,0,0,.41-6.56c-1.94-21.08-.71-34,6.34-41.08Z"/><path class="cls-11" d="M189.78,174.58l-40.73-.22s3.1-12.39,1.94-21.9a12.13,12.13,0,0,0-5.69-8.7c-39.92-25-30.13-53.46-30.13-53.46s4.34-36.2,55.65-39.43C225.52,47.43,222,96,222,96s2.35,27.06-26.12,45.27a16.39,16.39,0,0,0-7.27,11.79A58.58,58.58,0,0,0,189.78,174.58Z"/><path class="cls-2" d="M149.05,174.26,149,188.85c0,5.47,3.52,10,7.88,10l24.8.14c4.36,0,8-4.43,8-9.9l.08-14.59Z"/><polygon class="cls-2" points="159.41 198.85 162.18 205.53 177.6 205.61 181.01 198.96 159.41 198.85"/><path class="cls-10" d="M163.2,116.49c.52,0,1.1,0,1.66,0l-.31,57.79h2.78l.32-58a48.25,48.25,0,0,0,6.14-1.07c0,1.09.05,2.15,0,3.15l-.27,19.12-.51,36.84,2.78,0q.42-30,.83-59.94a23.72,23.72,0,0,0,9-4.8c9.5-9-6.69-18.84-11-6.22-1,2.84-1,6.26-1,9.56a59.91,59.91,0,0,1-6.39,1.45s.07-5.34,0-8.76a8,8,0,0,0-1.9-5.32c-7.16-7.93-22.42-2.3-16.29,9.27C151.81,114.51,157.91,116.45,163.2,116.49Zm13.58-8.57c0-1.4,2-12.52,8.9-6.31a3,3,0,0,1,1,2.58c-.54,3.91-6.1,6.54-10,7.82A34.73,34.73,0,0,1,176.78,107.92ZM152.69,99.4c4.63-2.31,8.35-.11,10.44,2a6.17,6.17,0,0,1,1.79,4.41l0,8.88c-5.18.42-10.19-.91-13.32-5.59C149.43,105.89,149.77,101.2,152.69,99.4Z"/><path class="cls-2" d="M223,41.22a2.15,2.15,0,0,1,0-3l20.67-20.45a2.15,2.15,0,1,1,3,3.06L226,41.24A2.16,2.16,0,0,1,223,41.22Z"/><path class="cls-2" d="M132.19,40.73a2.15,2.15,0,0,0,0-3L111.76,17a2.16,2.16,0,0,0-3.07,3l20.46,20.68A2.15,2.15,0,0,0,132.19,40.73Z"/><path class="cls-2" d="M171.11,33.39A2.15,2.15,0,0,1,169,31.22l.16-29.08a2.16,2.16,0,0,1,4.31,0l-.16,29.08A2.16,2.16,0,0,1,171.11,33.39Z"/><path class="cls-4" d="M22.3,161.5s8,15.94,12.91,16.85,27.16-7.14,27.16-7.14V168l-22.27.53-5.28-10.93Z"/><path class="cls-2" d="M31,142.1C4.6,143.43,7.59,188.28,7.59,188.28H35.87S40.8,171.89,31,142.1Z"/><path class="cls-7" d="M31.75,247.86s0,3.55,7.15,5.69c1.47.43,1,.87,1.26,1.48H32l-3.21-3.61-1,.86L25.42,250s1.08-3.3,2.85-3.33Z"/><path class="cls-5" d="M33.64,243.51l-1.89,4.35h0a3.23,3.23,0,0,1-3.34-1l-.14-.18,1.07-3.16Z"/><path class="cls-4" d="M26.09,134.9l-.89,8.31a5.13,5.13,0,0,0,3.71,2.49c2.54.27,2.74-1.56,2.74-1.56l.58-5.41-3.65-1.38Z"/><path class="cls-5" d="M32.38,140.37a3.17,3.17,0,0,0,1.94-.29c2.63-3.34,1.11-13.29,1.11-13.29l-8.33.58-1,6.45a5.53,5.53,0,0,0,1.56,4.7h0A8.84,8.84,0,0,0,32.38,140.37Z"/><path class="cls-7" d="M30.93,128a17.77,17.77,0,0,0,5.57.61c2.9-.2,1.42-3.55,1.42-3.55a11.26,11.26,0,0,1-5.91-.22c-2.49-.65-3.12-1.21-4.84-.52-2.33.94-2.23,5-2.23,5l.31,8.57.46.6s.65-5.55.83-7.26c.56-.73,1.08-.67,1.46-.43a1.29,1.29,0,0,1,.55,1.23l-.95,8.76s5.32,3,6.79,2.72,1.22-6.87,1.22-6.87a2.62,2.62,0,0,0-3,.39c-1.41,1.27-2.78-.35-2.78-.35Z"/><path class="cls-5" d="M27.31,130.43a1.43,1.43,0,0,1,1.2,1.48c0,.81-.46,1.45-1.09,1.43a1.43,1.43,0,0,1-1.2-1.48C26.19,131.05,26.68,130.41,27.31,130.43Z"/><path class="cls-11" d="M35.87,188.28s13.15,7.38,19.75,16.3a6.55,6.55,0,0,1,.13,7.64L33.63,244.13H28.69s6.53-23.67,14.42-37.64C43.87,201.33,35.87,188.28,35.87,188.28Z"/><path class="cls-4" d="M62.37,168l4,.64,3.74,4s-1.83.89-4.56-1.94c-5.39-.38-3.93-1.35-3.93-1.35Z"/><path class="cls-5" d="M18.07,166.2s8,15.93,12.91,16.85,26.28-9.55,26.28-9.55l.87-3.43-22.26,3.19-5.28-10.93Z"/><path class="cls-7" d="M66.69,249.78s2.29,2.12,7.51,3.45c1.15.3,2.38-.09,2.38,1.8H70.25L65,254.12V255H62.14s-.8-4.65.87-5.25Z"/><path class="cls-5" d="M66.13,246.44l.56,3.34h0a3.22,3.22,0,0,1-3.49.12l-.19-.12-.83-3.34Z"/><path class="cls-5" d="M66.56,171.81A.85.85,0,0,0,66,171l-3.34-1.3a3.59,3.59,0,0,0-2.56,0l-3.3.65-.35.59-.23,3,1-.42,2.11-.27s4.55,3.07,6-.44c.61,3.4,1.57,3,1.57,3Z"/><path class="cls-11" d="M7.59,188.28s-4.11,17.31,33.83,23.26a6.67,6.67,0,0,1,5.41,5c3.25,12.85,15.23,31.27,15.23,31.27H67L59,212.66a12.71,12.71,0,0,0-3.79-6.55L35.87,188.28Z"/><polygon class="cls-3" points="31.28 256.35 24.9 209.86 23.73 210.02 30.09 256.35 31.28 256.35"/><path class="cls-3" d="M33.07,209.94H5.1v-5.5c9.81-4.51,28,2.75,28,2.75Z"/><path class="cls-3" d="M5.1,209.35v-1.18c-.15,0-3.92-.12-3.92-6.28,0-6.67,4.17-16.78,4.21-16.88l-1.09-.45C4.13,185,0,195,0,201.89,0,209.26,5.05,209.35,5.1,209.35Z"/><path class="cls-3" d="M11.58,186.39c-6.87-1.61-7.73-.7-7.73-.7s2.12-8.12.1-13c8.42-4.86,10,.93,10,.93S15.39,178.55,11.58,186.39Z"/><polygon class="cls-3" points="2.35 256.35 8.71 210.02 7.54 209.86 1.16 256.35 2.35 256.35"/><path class="cls-3" d="M113.34,179.06H52.78A2.21,2.21,0,0,1,55,176.84h56.13a2.21,2.21,0,0,1,2.21,2.22Z"/><polygon class="cls-3" points="53.92 256.35 52.56 256.12 58.78 178.98 60.14 179.21 53.92 256.35"/><polygon class="cls-3" points="111.49 256.35 112.84 256.12 106.62 178.98 105.26 179.21 111.49 256.35"/><rect class="cls-11" x="60.14" y="175.79" width="12.72" height="1.06"/><polygon class="cls-11" points="105.33 148.17 107.04 149.95 105.22 160.44 103.48 161.44 105.33 148.17"/><path class="cls-11" d="M96.08,176.62h-9v-1.37h9a4.91,4.91,0,0,0,4.85-4.23l6.17-38,1.35.21-6.16,38A6.3,6.3,0,0,1,96.08,176.62Z"/><polygon class="cls-11" points="107.1 133 106.19 133.71 100.38 168.51 101.19 169.42 107.1 133"/><path class="cls-3" d="M164.15,219.52c-1.65,6.06,2.82,8.72,2.82,8.72H156.13s-2.85-3.62-.23-8.86S165.79,213.45,164.15,219.52Z"/><rect class="cls-9" x="207.91" y="230.42" width="1.41" height="73.98"/><rect class="cls-9" x="185.69" y="230.42" width="1.41" height="73.98"/><rect class="cls-9" x="120.55" y="228.24" width="40.9" height="2.19"/><rect class="cls-9" x="141.81" y="228.24" width="64.39" height="2.19"/><path class="cls-5" d="M194.16,292.59l-1.07,2.8a3.61,3.61,0,0,1-1.47,1.86,14.09,14.09,0,0,1-3.7,1.68c2.16,1.84,5.59-.08,7.55-1.44a4.8,4.8,0,0,0,1.92-2.78l.45-2.12Z"/><path class="cls-13" d="M197.6,294.05a3.06,3.06,0,0,1,1.19,2.6c-.26,1.46-.64,4.88-.64,4.88h-1.5l0-3.19c0-.21-3.21,3.19-3.75,3.19H185s-.52-2.15,4.13-2.84S197.6,294.05,197.6,294.05Z"/><path class="cls-7" d="M201.42,242.66c-19.12-6.29-25.95,0-25.95,0L203.64,250S220.55,248.94,201.42,242.66Z"/><path class="cls-3" d="M203.61,227.63c-4.64.44-4.92-6.56-4.92-6.56l1.92-9S210,227,203.61,227.63Z"/><path class="cls-11" d="M203.61,260S193.5,261.78,186.4,258C199.28,267,198,293.2,198,293.2h-5L176,250h10.46Z"/><path class="cls-5" d="M183,295.61l-1.08,2.8a3.57,3.57,0,0,1-1.46,1.85,14.3,14.3,0,0,1-3.71,1.69c2.16,1.84,5.59-.09,7.55-1.44a4.87,4.87,0,0,0,1.92-2.78l.45-2.12Z"/><path class="cls-13" d="M186.43,297.06a3.11,3.11,0,0,1,1.2,2.61c-.27,1.46-.65,4.88-.65,4.88h-1.5l.05-3.19c0-.21-3.22,3.19-3.76,3.19h-7.94s-.52-2.15,4.14-2.84S186.43,297.06,186.43,297.06Z"/><path class="cls-5" d="M197.6,208.78l-10.38,16.94-17.49-1.38-2.9-1.09c-2.56,0-4,.76-6.11,2.18l-2.47,1.65h10.93a87.06,87.06,0,0,0,16.72,6.22,7.61,7.61,0,0,0,6.52-1.33c4.63-3.61,8.19-10.63,8.19-10.63l3-7.37Z"/><path class="cls-3" d="M208.8,200.56s-11.2,5.21-11.2,8.22c4.14,4.91,3,12.56,3,12.56s7.83,14.76,4.78,24.6c11.06,6.55,18.44-4.1,18.44-4.1s-1.37-27.6-8-39A12.81,12.81,0,0,0,208.8,200.56Z"/><path class="cls-5" d="M196.12,187.75l9.15-1,2,6.23a2,2,0,0,1,.07.26l-.41.31-.06.06-.06,0a6,6,0,0,0-1.93,5.42,10.4,10.4,0,0,1-3.41,1.57,3.9,3.9,0,0,1-2.15.08C196,197.91,196.12,187.75,196.12,187.75Z"/><path class="cls-14" d="M198.41,194.24a7.4,7.4,0,0,1,1.72,5.78c-.4,3.79-.46,7.31.88,8.81.92,1,2.73,1.47,4.27,1.66a4.8,4.8,0,0,1,3.72,3.39c1,2.74,2.3,6.23,4.35,5.75,5.76-1.35,7.42-3,6.09-9.14a13.6,13.6,0,0,0-2.22-5,11.81,11.81,0,0,1-2.16-6.83,16.12,16.12,0,0,0-.47-4.31,7.1,7.1,0,0,0-2.88-2.92,7.82,7.82,0,0,1-3.14-4.75v-.06a6.18,6.18,0,0,0-9.5-3.55,12.32,12.32,0,0,0-4.12,5.52A18.07,18.07,0,0,0,198.41,194.24Z"/><path class="cls-11" d="M223.83,241.84s4.65,9.56-5.19,16.12-32.52-2.46-36.34-2.73c6,11.74,5.19,40.43,5.19,40.43H182s-17.49-48.36-6.83-53.82,33.47-.28,33.47-.28Z"/><path class="cls-2" d="M193.37,261.22h31.27v-6.15c-11-5-31.27,3.08-31.27,3.08Z"/><path class="cls-2" d="M224.64,260.56v-1.32c.18,0,4.39-.14,4.39-7,0-7.46-4.66-18.76-4.71-18.87l1.21-.51c.2.47,4.82,11.66,4.82,19.38C230.35,260.46,224.7,260.56,224.64,260.56Z"/><path class="cls-2" d="M217.4,234.89c7.68-1.8,16,0,16,0s-.28-8.84,2-14.26c-10.75-7.68-20.62,0-20.62,0S213.14,226.13,217.4,234.89Z"/><polygon class="cls-2" points="227.85 304.41 221.91 261.13 220.61 261.31 226.53 304.41 227.85 304.41"/><polygon class="cls-2" points="197.9 304.41 203.81 261.31 202.51 261.13 196.57 304.41 197.9 304.41"/><rect class="cls-9" x="141.1" y="230.42" width="1.41" height="73.98"/><rect class="cls-9" x="120.55" y="230.42" width="1.41" height="73.98"/><rect class="cls-3" x="141.1" y="193.82" width="36.71" height="26.51" rx="0.87" transform="translate(318.92 414.14) rotate(180)"/><rect class="cls-3" x="141.93" y="194.41" width="35.06" height="25.31" rx="0.83" transform="translate(318.92 414.14) rotate(180)"/><path class="cls-10" d="M159.9,194.12a.22.22,0,1,1-.22-.22A.22.22,0,0,1,159.9,194.12Z"/><rect class="cls-15" x="143.36" y="195.69" width="32.11" height="22.83" transform="translate(318.83 414.21) rotate(180)"/><rect class="cls-11" x="143.36" y="195.69" width="32.11" height="2.77" transform="translate(318.83 394.16) rotate(180)"/><polygon class="cls-16" points="159.92 216.9 157.25 216.9 157.35 207.95 160.23 207.95 159.92 216.9"/><polygon class="cls-16" points="164.33 216.9 161.45 216.9 161.03 203.48 164.33 203.48 164.33 216.9"/><rect class="cls-16" x="165.52" y="205.87" width="2.88" height="11.02"/><polygon class="cls-16" points="168.39 216.9 165.52 216.9 165.52 205.87 168.71 205.87 168.39 216.9"/><polygon class="cls-16" points="172.46 216.9 169.58 216.9 169.58 199.48 173.3 199.48 172.46 216.9"/><polygon class="cls-16" points="160.55 200.1 160.97 200.63 155.09 204.1 153.72 202.39 146.34 206.43 146.34 207.43 153.52 203.38 154.9 205.11 161.45 201.24 161.88 201.78 163.14 199.48 160.55 200.1"/><rect class="cls-16" x="146.06" y="212.27" width="7.06" height="0.41"/><rect class="cls-16" x="146.06" y="213.08" width="7.06" height="0.41"/><rect class="cls-16" x="146.06" y="213.89" width="7.06" height="0.41"/><rect class="cls-16" x="146.06" y="214.71" width="7.06" height="0.41"/><rect class="cls-16" x="146.06" y="210.23" width="7.06" height="1.43"/><path class="cls-7" d="M146.06,197.1a.81.81,0,1,1-.81-.81A.8.8,0,0,1,146.06,197.1Z"/><path class="cls-10" d="M148.59,197.1a.81.81,0,1,1-.81-.81A.8.8,0,0,1,148.59,197.1Z"/><rect class="cls-10" x="164.45" y="196.29" width="10.24" height="1.61" transform="translate(339.14 394.19) rotate(180)"/><polygon class="cls-4" points="125.56 176.76 124.35 182.49 118.33 180.82 122.27 172.6 125.56 176.76"/><path class="cls-5" d="M127.06,178.36a3.13,3.13,0,0,0,1.8.13c2.91-2.26,3.14-10.79,3.14-10.79l-2.76-2.36-4.85,1.23-1.9,5.16a4.45,4.45,0,0,0,.65,4.19h0A8.73,8.73,0,0,0,127.06,178.36Z"/><path class="cls-7" d="M124.08,169.74c.5-.81,1-2.87,1.88-2.44.62.32,2.83,1.12,3.58,1.36,1.8.58,5.22.9,6.09-1.84a3.79,3.79,0,0,0-1.24-3.58,3.87,3.87,0,0,0-2.58-.86c-2.2.06-5.3.75-6.28.2-1.65-.91-3.73-.44-4.18,1.06a15.53,15.53,0,0,0-.12,6.05,8.67,8.67,0,0,0,1,2.91h0Z"/><path class="cls-5" d="M122.2,169.36a1.41,1.41,0,0,1,1.62.68c.39.6.28,1.28-.23,1.5a1.41,1.41,0,0,1-1.62-.68C121.58,170.26,121.69,169.58,122.2,169.36Z"/><path class="cls-11" d="M120.94,179.55c-11.2-.63-12.15,9.34-13.09,20.17a204.66,204.66,0,0,0-.25,26h26.08s0-11.55-.28-23.1C133.14,191.42,132.79,180.21,120.94,179.55Z"/><path class="cls-4" d="M132.28,220s2.56-1.77,3.51-1.34.2,2.2.2,2.2Z"/><path class="cls-5" d="M113.94,201.13l-1.22,8.26,20,10-2.18,2.16s-22.42-4-25.59-7-1-14.81-1-14.81Z"/><path class="cls-4" d="M136.3,214.17c4.57-1.61,1.78-17.34,1.78-17.34l-2.7,0S131.73,215.79,136.3,214.17Z"/><path class="cls-5" d="M129.29,221.09l4.71,3c1.89.87,3.57-.49,4.93-2.41a1.77,1.77,0,0,0-1.48-2.8c-1.69,0-3.74.37-4.76.44Z"/><path class="cls-11" d="M138.8,196.84l-3.19,1.91S122.14,177,128.8,182.7A39.12,39.12,0,0,1,138.8,196.84Z"/><path class="cls-7" d="M123,298.76s0,3.12,6.29,5c1.29.39.87.77,1.11,1.31h-7.22l-2.82-3.18-.88.76-2-2s1-2.9,2.5-2.93Z"/><path class="cls-5" d="M124.13,296.05,123,298.76h0a2.85,2.85,0,0,1-2.93-.89l-.13-.16,1-2.78Z"/><path class="cls-11" d="M104,199.7s4.28-19.9,14.38-19.43-4.39,20.86-4.39,20.86Z"/><path class="cls-5" d="M136.24,214.51c6.34-5.12-6.11-31.87-6.11-31.87l-3,.31S127.34,218.41,136.24,214.51Z"/><polygon class="cls-1" points="125.56 180.53 125.18 178.57 120 177.54 118.33 179.62 125.56 180.53"/><path class="cls-5" d="M130.13,182.64l.38-5.1s-2.54-3.9-4.95-2.85c-.44,1.07.33,3.22.33,3.22l1.22,5Z"/><path class="cls-3" d="M133.68,225.72s3.63,22.78,2.78,33.32-12.41,38.08-12.41,38.08l-5-1.46s-.38-18.42,4.55-30.52a11.23,11.23,0,0,0,0-8.3A139,139,0,0,1,118,239.36l.38-13.64Z"/><path class="cls-4" d="M129.81,182.43h.09l.36-4.81c-.34-.49-2.5-3.49-4.51-2.73a6.12,6.12,0,0,0,.38,3v0a3.05,3.05,0,0,0-.54-.08,5.79,5.79,0,0,1-.26-3.23l0-.09.09,0c2.57-1.11,5.15,2.77,5.26,2.94l0,.07-.4,5.39-.3,0A2.64,2.64,0,0,0,129.81,182.43Z"/><path class="cls-7" d="M113.16,300.41s2.26,2.08,7.39,3.39c1.13.29,2.34-.1,2.34,1.77h-6.22l-5.18-.9v.9h-2.8s-.78-4.58.86-5.16Z"/><path class="cls-5" d="M112.61,297.12l.55,3.29h0a3.16,3.16,0,0,1-3.42.11l-.19-.11.27-3.29Z"/><path class="cls-3" d="M126,225.72,113.91,298.1h-4.84s-4.17-19.5-.95-35.25a23.62,23.62,0,0,0,.21-8.3c-3.06-20.33-.73-28.83-.73-28.83Z"/><path class="cls-5" d="M331.82,141.62s9.27,17.87,8.62,21.8-8.62,10.75-8.62,10.75l-1.29-2.23,4.05-9.15-5.22-15Z"/><polygon class="cls-4" points="321.87 133.96 322.63 139.07 327.17 139.07 327.64 131.22 321.87 133.96"/><path class="cls-11" d="M313.55,156.55V142.13c5.84-4.13,10-3.69,10-3.69a18,18,0,0,1,2.6-.11s9.77-.72,8,14.69c-3.89,13.1-2,18.88-2,18.88s-10.17,4.15-15.85,1.23c1.43-3.28-1.2-12.28-2.63-16.65Z"/><path class="cls-7" d="M328.71,136.81s3.87,2.26,3.87,5.85a8.59,8.59,0,0,1-1.88,5.09,7.36,7.36,0,0,0,.19,8.38.76.76,0,0,1,.08.11,3.14,3.14,0,0,1,.64,2.69c-.71,3.4-5.39,3.91-7.2.95a17.42,17.42,0,0,1-1.78-3.9c-.8-2.52,0-4.09,1-5a2.06,2.06,0,0,0,.11-2.93c-1.46-1.49-2.9-3.75-1.07-5.73a17.83,17.83,0,0,0,3.93-6.45Z"/><path class="cls-4" d="M337.33,251.91l-2.73.47c-.56-3.37-9-19.39-9.72-27.71A186.54,186.54,0,0,0,322,205.16l9.11-2.71s2.31,0-.23,18.82C336.55,228.75,338.08,245.71,337.33,251.91Z"/><path class="cls-5" d="M317.69,121.89l8.4-.4,1.5,5.79c0,.09,0,.17.05.25l-.39.26-.06,0-.06,0a5.41,5.41,0,0,0-2.05,4.83,9.38,9.38,0,0,1-3.21,1.25,3.4,3.4,0,0,1-2-.05C317,131.15,317.69,121.89,317.69,121.89Z"/><path class="cls-7" d="M328.74,135.58c-2.18.25,1.28,0-2.18.25-.1-1.84-6-6.63-7.15-7.6a7.11,7.11,0,0,1-2.67-5.47s5.72-6.17,9.43-4.86a6.88,6.88,0,0,1,4.38,4.89C331,124.16,331.81,126.51,328.74,135.58Z"/><path class="cls-5" d="M330.62,195.6s-2.14,12.88-5.12,26.65c3.11,8.31-1.63,31.51-1.71,31.43-.36-.34-2,1.68-2,1.68s-3.45-20.48-4.22-29.71-1.93-20.49-1.93-20.49Z"/><path class="cls-13" d="M324.17,252.38a3,3,0,0,1,1.06,2.5c-.24,1.41-.57,4.69-.57,4.69h-1.34l0-3.06c0-.2-2.85,3.06-3.34,3.06h-7s-.47-2.07,3.67-2.73S324.17,252.38,324.17,252.38Z"/><rect class="cls-3" x="325.68" y="134.85" width="3.9" height="1.96" rx="0.98" transform="translate(655.27 271.66) rotate(180)"/><path class="cls-3" d="M316.62,170s-2.31,13-2.31,19.46c0,3.56,1.64,18.64,1.64,18.64s13.52.4,16.26.4c.35-10.7,4.34-17.75,4.34-26.3,0-6-5.32-11.31-5.32-11.31Z"/><path class="cls-5" d="M290.85,154.9l.61.18a3.78,3.78,0,0,1,2.56,2.53l.14.48a62.89,62.89,0,0,0,11.28,2.6c6.06-17.26,8.11-18.56,8.11-18.56a6.09,6.09,0,0,1,3.92,6c0,4-2.65,15.19-7.69,18.71a4.75,4.75,0,0,1-4.75.32c-8.09-3.84-13.8-7.13-13.8-7.13l-6.12-3.37,2.71-1.42A4.09,4.09,0,0,1,290.85,154.9Z"/><path class="cls-4" d="M334.29,250.05l.19,2.92a2.73,2.73,0,0,1-.48,1.73,11,11,0,0,1-2.12,2.2c2,.66,3.9-1.63,4.88-3.16a3.66,3.66,0,0,0,.53-2.5l-.35-2.3Z"/><path class="cls-7" d="M337.33,251.66s1.8.16,2.09,1.53,1.15,4.13,1.15,4.13l-1,.79-1.38-2.75a41.59,41.59,0,0,1-3.45,4.21h-7.7s0-2.55,4.82-2.67C336.32,256.8,337.33,251.66,337.33,251.66Z"/></g></g></svg>