<svg xmlns="http://www.w3.org/2000/svg" xmlns:xlink="http://www.w3.org/1999/xlink" viewBox="0 0 365.09 215.1"><defs><style>.cls-1{fill:#5d4efa;}.cls-2{fill:url(#linear-gradient);}.cls-3{fill:#b56cf7;}.cls-4{fill:#99b0f6;}.cls-5{fill:#1a2089;}.cls-6,.cls-69{fill:#fff;}.cls-6{opacity:0.78;}.cls-7{fill:#4cc2fc;}.cls-8{fill:#006ae6;}.cls-9{fill:url(#linear-gradient-2);}.cls-10{fill:url(#linear-gradient-3);}.cls-11{fill:url(#linear-gradient-4);}.cls-12{fill:url(#linear-gradient-5);}.cls-13{fill:url(#linear-gradient-6);}.cls-14{fill:url(#linear-gradient-7);}.cls-15{fill:url(#linear-gradient-8);}.cls-16{fill:url(#linear-gradient-9);}.cls-17{fill:url(#linear-gradient-10);}.cls-18{fill:url(#linear-gradient-11);}.cls-19{fill:url(#linear-gradient-12);}.cls-20{fill:url(#linear-gradient-13);}.cls-21{fill:url(#linear-gradient-14);}.cls-22{fill:url(#linear-gradient-15);}.cls-23{fill:url(#linear-gradient-16);}.cls-24{fill:url(#linear-gradient-17);}.cls-25{fill:url(#linear-gradient-18);}.cls-26{fill:url(#linear-gradient-19);}.cls-27{fill:url(#linear-gradient-20);}.cls-28{fill:url(#linear-gradient-21);}.cls-29{fill:url(#linear-gradient-22);}.cls-30{fill:url(#linear-gradient-23);}.cls-31{fill:url(#linear-gradient-24);}.cls-32{fill:url(#linear-gradient-25);}.cls-33{fill:url(#linear-gradient-26);}.cls-34{fill:url(#linear-gradient-27);}.cls-35{fill:url(#linear-gradient-28);}.cls-36{fill:url(#linear-gradient-29);}.cls-37{fill:url(#linear-gradient-30);}.cls-38{fill:url(#linear-gradient-31);}.cls-39{fill:url(#linear-gradient-32);}.cls-40{fill:url(#linear-gradient-33);}.cls-41{fill:url(#linear-gradient-34);}.cls-42{fill:url(#linear-gradient-35);}.cls-43{fill:url(#linear-gradient-36);}.cls-44{fill:url(#linear-gradient-37);}.cls-45{fill:url(#linear-gradient-38);}.cls-46{fill:url(#linear-gradient-39);}.cls-47{fill:url(#linear-gradient-40);}.cls-48{fill:url(#linear-gradient-41);}.cls-49{fill:url(#linear-gradient-42);}.cls-50{fill:url(#linear-gradient-43);}.cls-51{fill:url(#linear-gradient-44);}.cls-52{fill:url(#linear-gradient-45);}.cls-53{fill:url(#linear-gradient-46);}.cls-54{fill:url(#linear-gradient-47);}.cls-55{fill:url(#linear-gradient-48);}.cls-56{fill:url(#linear-gradient-49);}.cls-57{fill:url(#linear-gradient-50);}.cls-58{fill:url(#linear-gradient-51);}.cls-59{fill:url(#linear-gradient-52);}.cls-60{fill:url(#linear-gradient-53);}.cls-61{fill:url(#linear-gradient-54);}.cls-62{fill:url(#linear-gradient-55);}.cls-63{fill:url(#linear-gradient-56);}.cls-64{fill:url(#linear-gradient-57);}.cls-65{fill:url(#linear-gradient-58);}.cls-66{fill:url(#linear-gradient-59);}.cls-67{fill:url(#linear-gradient-60);}.cls-68{fill:url(#linear-gradient-61);}.cls-70{fill:url(#linear-gradient-62);}.cls-71{fill:url(#linear-gradient-63);}.cls-72{fill:#c0cef8;}.cls-73{fill:url(#linear-gradient-64);}.cls-74{fill:url(#linear-gradient-65);}.cls-75{fill:url(#linear-gradient-66);}.cls-76{fill:url(#linear-gradient-67);}.cls-77{fill:url(#linear-gradient-68);}.cls-78{fill:url(#linear-gradient-69);}.cls-79{fill:url(#linear-gradient-70);}.cls-80{fill:url(#linear-gradient-71);}.cls-81{fill:url(#linear-gradient-72);}.cls-82{fill:url(#linear-gradient-73);}.cls-83{fill:url(#linear-gradient-74);}.cls-84{fill:url(#linear-gradient-75);}.cls-85{fill:url(#linear-gradient-76);}.cls-86{fill:url(#linear-gradient-77);}.cls-87{fill:url(#linear-gradient-78);}.cls-88{fill:url(#linear-gradient-79);}.cls-89{fill:url(#linear-gradient-80);}.cls-90{fill:url(#linear-gradient-81);}.cls-91{fill:url(#linear-gradient-82);}.cls-92{fill:url(#linear-gradient-83);}.cls-93{fill:url(#linear-gradient-84);}.cls-94{fill:url(#linear-gradient-85);}.cls-95{fill:url(#linear-gradient-86);}.cls-96{fill:url(#linear-gradient-87);}.cls-97{fill:url(#linear-gradient-88);}.cls-98{fill:url(#linear-gradient-89);}.cls-99{fill:url(#linear-gradient-90);}.cls-100{fill:url(#linear-gradient-91);}.cls-101{fill:url(#linear-gradient-92);}.cls-102{fill:url(#linear-gradient-93);}.cls-103{fill:url(#linear-gradient-94);}.cls-104{fill:url(#linear-gradient-95);}.cls-105{fill:url(#linear-gradient-96);}.cls-106{fill:url(#linear-gradient-97);}.cls-107{fill:url(#linear-gradient-98);}.cls-108{fill:url(#linear-gradient-99);}.cls-109{fill:url(#linear-gradient-100);}.cls-110{fill:url(#linear-gradient-101);}.cls-111{fill:url(#linear-gradient-102);}.cls-112{fill:url(#linear-gradient-103);}.cls-113{fill:url(#linear-gradient-104);}.cls-114{fill:url(#linear-gradient-105);}.cls-115{fill:#00244f;}</style><linearGradient id="linear-gradient" x1="125.71" y1="104.53" x2="278.05" y2="104.53" gradientUnits="userSpaceOnUse"><stop offset="0" stop-color="#dbe1fc"/><stop offset="1" stop-color="#e9edfb"/></linearGradient><linearGradient id="linear-gradient-2" x1="7027.45" y1="12469.83" x2="6970.36" y2="12544.81" gradientTransform="translate(-8557.32 11506.88) rotate(-113.79)" gradientUnits="userSpaceOnUse"><stop offset="0" stop-color="#0f005c"/><stop offset="1" stop-color="#1e168c"/></linearGradient><linearGradient id="linear-gradient-3" x1="14043.75" y1="9800.05" x2="13963.75" y2="9830.7" gradientTransform="translate(-8557.32 11506.88) rotate(-113.79)" gradientUnits="userSpaceOnUse"><stop offset="0" stop-color="#4344dc"/><stop offset="1" stop-color="#5153fa"/></linearGradient><linearGradient id="linear-gradient-4" x1="51.49" y1="45.69" x2="58.34" y2="45.69" xlink:href="#linear-gradient"/><linearGradient id="linear-gradient-5" x1="39.04" y1="51.82" x2="45.67" y2="51.82" xlink:href="#linear-gradient"/><linearGradient id="linear-gradient-6" x1="47.65" y1="71.54" x2="54.44" y2="71.54" xlink:href="#linear-gradient"/><linearGradient id="linear-gradient-7" x1="41.29" y1="74.33" x2="48" y2="74.33" xlink:href="#linear-gradient"/><linearGradient id="linear-gradient-8" x1="35.61" y1="61.18" x2="42.09" y2="61.18" xlink:href="#linear-gradient"/><linearGradient id="linear-gradient-9" x1="38.16" y1="67.68" x2="45.21" y2="67.68" xlink:href="#linear-gradient"/><linearGradient id="linear-gradient-10" x1="45.27" y1="48.78" x2="52.02" y2="48.78" xlink:href="#linear-gradient"/><linearGradient id="linear-gradient-11" x1="44.55" y1="64.84" x2="51.53" y2="64.84" xlink:href="#linear-gradient"/><linearGradient id="linear-gradient-12" x1="48.15" y1="55.47" x2="55.03" y2="55.47" xlink:href="#linear-gradient"/><linearGradient id="linear-gradient-13" x1="54.54" y1="52.62" x2="61.38" y2="52.62" xlink:href="#linear-gradient"/><linearGradient id="linear-gradient-14" x1="41.83" y1="58.32" x2="48.61" y2="58.32" xlink:href="#linear-gradient"/><linearGradient id="linear-gradient-15" x1="50.97" y1="61.99" x2="57.86" y2="61.99" xlink:href="#linear-gradient"/><linearGradient id="linear-gradient-16" x1="57.35" y1="59.15" x2="64.22" y2="59.15" xlink:href="#linear-gradient"/><linearGradient id="linear-gradient-17" x1="32.91" y1="54.79" x2="39.19" y2="54.79" xlink:href="#linear-gradient"/><linearGradient id="linear-gradient-18" x1="36.56" y1="76.73" x2="41.56" y2="76.73" xlink:href="#linear-gradient"/><linearGradient id="linear-gradient-19" x1="73.06" y1="60.6" x2="79.64" y2="60.6" xlink:href="#linear-gradient"/><linearGradient id="linear-gradient-20" x1="33.35" y1="70.1" x2="38.86" y2="70.1" xlink:href="#linear-gradient"/><linearGradient id="linear-gradient-21" x1="30.88" y1="63.59" x2="35.76" y2="63.59" xlink:href="#linear-gradient"/><linearGradient id="linear-gradient-22" x1="63.93" y1="39.82" x2="70.43" y2="39.82" xlink:href="#linear-gradient"/><linearGradient id="linear-gradient-23" x1="54" y1="68.76" x2="60.88" y2="68.76" xlink:href="#linear-gradient"/><linearGradient id="linear-gradient-24" x1="67.18" y1="47.13" x2="73.62" y2="47.13" xlink:href="#linear-gradient"/><linearGradient id="linear-gradient-25" x1="70.18" y1="53.65" x2="76.27" y2="53.65" xlink:href="#linear-gradient"/><linearGradient id="linear-gradient-26" x1="63.77" y1="56.3" x2="70.54" y2="56.3" xlink:href="#linear-gradient"/><linearGradient id="linear-gradient-27" x1="66.71" y1="63.19" x2="73.77" y2="63.19" xlink:href="#linear-gradient"/><linearGradient id="linear-gradient-28" x1="28.18" y1="57.4" x2="33.01" y2="57.4" xlink:href="#linear-gradient"/><linearGradient id="linear-gradient-29" x1="60.37" y1="65.97" x2="67.33" y2="65.97" xlink:href="#linear-gradient"/><linearGradient id="linear-gradient-30" x1="57.71" y1="42.64" x2="64.67" y2="42.64" xlink:href="#linear-gradient"/><linearGradient id="linear-gradient-31" x1="60.86" y1="49.77" x2="67.79" y2="49.77" xlink:href="#linear-gradient"/><linearGradient id="linear-gradient-32" x1="27.38" y1="52.95" x2="29.73" y2="52.95" xlink:href="#linear-gradient"/><linearGradient id="linear-gradient-33" x1="32.43" y1="50.25" x2="34.78" y2="50.25" xlink:href="#linear-gradient"/><linearGradient id="linear-gradient-34" x1="38.85" y1="47.36" x2="41.19" y2="47.36" xlink:href="#linear-gradient"/><linearGradient id="linear-gradient-35" x1="44.93" y1="44.19" x2="47.28" y2="44.19" xlink:href="#linear-gradient"/><linearGradient id="linear-gradient-36" x1="50.93" y1="40.4" x2="53.28" y2="40.4" xlink:href="#linear-gradient"/><linearGradient id="linear-gradient-37" x1="57.76" y1="37.39" x2="60.1" y2="37.39" xlink:href="#linear-gradient"/><linearGradient id="linear-gradient-38" x1="63.41" y1="34.61" x2="65.75" y2="34.61" xlink:href="#linear-gradient"/><linearGradient id="linear-gradient-39" x1="287.39" y1="170.71" x2="297.87" y2="170.71" gradientUnits="userSpaceOnUse"><stop offset="0" stop-color="#e5908c"/><stop offset="1" stop-color="#eab1af"/></linearGradient><linearGradient id="linear-gradient-40" x1="297.05" y1="157.57" x2="316.62" y2="157.57" xlink:href="#linear-gradient-39"/><linearGradient id="linear-gradient-41" x1="294.08" y1="142.8" x2="290.3" y2="154.79" xlink:href="#linear-gradient-39"/><linearGradient id="linear-gradient-42" x1="305.23" y1="135.81" x2="292.35" y2="139.58" xlink:href="#linear-gradient-39"/><linearGradient id="linear-gradient-43" x1="293.39" y1="137.91" x2="303.54" y2="137.91" gradientTransform="matrix(1, 0, 0, 1, 0, 0)" xlink:href="#linear-gradient-2"/><linearGradient id="linear-gradient-44" x1="287.44" y1="144.1" x2="294.25" y2="137.11" xlink:href="#linear-gradient-39"/><linearGradient id="linear-gradient-45" x1="337.28" y1="207.12" x2="340.53" y2="186.71" gradientTransform="matrix(1, 0, 0, 1, 0, 0)" xlink:href="#linear-gradient-3"/><linearGradient id="linear-gradient-46" x1="338.58" y1="207.32" x2="341.82" y2="186.92" gradientTransform="matrix(1, 0, 0, 1, 0, 0)" xlink:href="#linear-gradient-3"/><linearGradient id="linear-gradient-47" x1="336.08" y1="206.92" x2="339.32" y2="186.52" gradientTransform="matrix(1, 0, 0, 1, 0, 0)" xlink:href="#linear-gradient-3"/><linearGradient id="linear-gradient-48" x1="330.18" y1="194.12" x2="340.85" y2="194.12" xlink:href="#linear-gradient-39"/><linearGradient id="linear-gradient-49" x1="328.61" y1="201.08" x2="327.04" y2="225.15" gradientTransform="matrix(1, 0, 0, 1, 0, 0)" xlink:href="#linear-gradient-2"/><linearGradient id="linear-gradient-50" x1="309.55" y1="194.85" x2="332.07" y2="194.85" xlink:href="#linear-gradient-39"/><linearGradient id="linear-gradient-51" x1="323.44" y1="183.1" x2="348.67" y2="183.1" gradientTransform="matrix(1, 0, 0, 1, 0, 0)" xlink:href="#linear-gradient-2"/><linearGradient id="linear-gradient-52" x1="313.46" y1="200.09" x2="311.89" y2="224.16" gradientTransform="matrix(1, 0, 0, 1, 0, 0)" xlink:href="#linear-gradient-2"/><linearGradient id="linear-gradient-53" x1="348.96" y1="151.99" x2="340.34" y2="160.43" gradientTransform="matrix(1, 0, 0, 1, 0, 0)" xlink:href="#linear-gradient-2"/><linearGradient id="linear-gradient-54" x1="334.55" y1="162.21" x2="346.52" y2="188.26" gradientTransform="matrix(1, 0, 0, 1, 0, 0)" xlink:href="#linear-gradient-3"/><linearGradient id="linear-gradient-55" x1="332.08" y1="152.81" x2="335.96" y2="163.69" xlink:href="#linear-gradient-39"/><linearGradient id="linear-gradient-56" x1="329.97" y1="150.32" x2="339.92" y2="157.08" xlink:href="#linear-gradient-39"/><linearGradient id="linear-gradient-57" x1="341.37" y1="144.23" x2="332.74" y2="152.68" gradientTransform="matrix(1, 0, 0, 1, 0, 0)" xlink:href="#linear-gradient-2"/><linearGradient id="linear-gradient-58" x1="330.1" y1="149.51" x2="340.05" y2="156.27" xlink:href="#linear-gradient-39"/><linearGradient id="linear-gradient-59" x1="335.32" y1="164.56" x2="339.54" y2="180.1" xlink:href="#linear-gradient-39"/><linearGradient id="linear-gradient-60" x1="651.69" y1="190.94" x2="638.37" y2="194.59" gradientTransform="translate(-318.63 15.77) rotate(-2.83)" xlink:href="#linear-gradient-2"/><linearGradient id="linear-gradient-61" x1="323.68" y1="165.68" x2="314.24" y2="175.66" gradientTransform="matrix(1, 0, 0, 1, 0, 0)" xlink:href="#linear-gradient-2"/><linearGradient id="linear-gradient-62" x1="296.95" y1="175.1" x2="297.48" y2="179.5" gradientTransform="matrix(1, 0, 0, 1, 0, 0)" xlink:href="#linear-gradient-2"/><linearGradient id="linear-gradient-63" x1="112.75" y1="74.02" x2="-6.26" y2="237.59" gradientTransform="matrix(1, 0, 0, 1, 0, 0)" xlink:href="#linear-gradient-3"/><linearGradient id="linear-gradient-64" x1="11159.16" y1="1090.48" x2="11106.66" y2="1164.54" gradientTransform="matrix(-0.98, -0.17, -0.17, 0.98, 11255.33, 978.71)" gradientUnits="userSpaceOnUse"><stop offset="0" stop-color="#32387f"/><stop offset="1" stop-color="#1a1643"/></linearGradient><linearGradient id="linear-gradient-65" x1="9787.68" y1="212.21" x2="9793.44" y2="212.21" gradientTransform="matrix(-1, 0, 0, 1, 9906.06, 0)" xlink:href="#linear-gradient-2"/><linearGradient id="linear-gradient-66" x1="9802.13" y1="205.53" x2="9781.12" y2="222.02" gradientTransform="matrix(-1, 0, 0, 1, 9906.06, 0)" xlink:href="#linear-gradient-3"/><linearGradient id="linear-gradient-67" x1="9779.96" y1="170.31" x2="9787.64" y2="170.31" gradientTransform="matrix(-1, 0, 0, 1, 9906.06, 0)" xlink:href="#linear-gradient-39"/><linearGradient id="linear-gradient-68" x1="9789.31" y1="205.26" x2="9788.14" y2="215.42" gradientTransform="matrix(-1, 0, 0, 1, 9906.06, 0)" gradientUnits="userSpaceOnUse"><stop offset="0" stop-color="#e7b579"/><stop offset="1" stop-color="#d87861"/></linearGradient><linearGradient id="linear-gradient-69" x1="9805.82" y1="210.27" x2="9784.83" y2="226.76" gradientTransform="matrix(-1, 0, 0, 1, 9906.06, 0)" xlink:href="#linear-gradient-3"/><linearGradient id="linear-gradient-70" x1="9796.44" y1="212.37" x2="9804.73" y2="212.37" gradientTransform="matrix(-1, 0, 0, 1, 9906.06, 0)" xlink:href="#linear-gradient-2"/><linearGradient id="linear-gradient-71" x1="9798.25" y1="206.35" x2="9797.09" y2="216.51" xlink:href="#linear-gradient-68"/><linearGradient id="linear-gradient-72" x1="9812.29" y1="159.97" x2="9775.25" y2="217.45" gradientTransform="matrix(-1, 0, 0, 1, 9906.06, 0)" xlink:href="#linear-gradient-3"/><linearGradient id="linear-gradient-73" x1="9807.3" y1="141.3" x2="9730.14" y2="222.2" gradientTransform="matrix(-1, 0, 0, 1, 9906.06, 0)" xlink:href="#linear-gradient-2"/><linearGradient id="linear-gradient-74" x1="114.74" y1="139.06" x2="116.4" y2="153.38" xlink:href="#linear-gradient-39"/><linearGradient id="linear-gradient-75" x1="11162.85" y1="6165.55" x2="11154.95" y2="6176" gradientTransform="matrix(-0.69, -0.73, -0.73, 0.69, 12255.22, 4037.47)" xlink:href="#linear-gradient-39"/><linearGradient id="linear-gradient-76" x1="11157" y1="6168.07" x2="11166.22" y2="6168.07" gradientTransform="matrix(-0.69, -0.73, -0.73, 0.69, 12255.22, 4037.47)" xlink:href="#linear-gradient-2"/><linearGradient id="linear-gradient-77" x1="11151.39" y1="6173.94" x2="11157.72" y2="6167.44" gradientTransform="matrix(-0.69, -0.73, -0.73, 0.69, 12255.22, 4037.47)" xlink:href="#linear-gradient-39"/><linearGradient id="linear-gradient-78" x1="9788.5" y1="143.78" x2="9779.26" y2="160.75" gradientTransform="matrix(-1, 0, 0, 1, 9906.06, 0)" xlink:href="#linear-gradient-3"/><linearGradient id="linear-gradient-79" x1="9791.87" y1="175.07" x2="9788.56" y2="180.97" gradientTransform="matrix(-1, 0, 0, 1, 9906.06, 0)" xlink:href="#linear-gradient-64"/><linearGradient id="linear-gradient-80" x1="9810.26" y1="144.16" x2="9733.6" y2="224.55" gradientTransform="matrix(-1, 0, 0, 1, 9906.06, 0)" xlink:href="#linear-gradient-2"/><linearGradient id="linear-gradient-81" x1="9819.09" y1="132.02" x2="9814.31" y2="147.66" gradientTransform="matrix(-1, 0, 0, 1, 9906.06, 0)" xlink:href="#linear-gradient-39"/><linearGradient id="linear-gradient-82" x1="9820.69" y1="132.54" x2="9815.92" y2="148.12" gradientTransform="matrix(-1, 0, 0, 1, 9906.06, 0)" xlink:href="#linear-gradient-39"/><linearGradient id="linear-gradient-83" x1="27.97" y1="206.64" x2="-1.41" y2="238.59" gradientTransform="matrix(1, 0, 0, 1, 0, 0)" xlink:href="#linear-gradient-2"/><linearGradient id="linear-gradient-84" x1="18.43" y1="209.01" x2="21.04" y2="209.01" xlink:href="#linear-gradient-39"/><linearGradient id="linear-gradient-85" x1="12.25" y1="189.06" x2="20.87" y2="189.06" gradientTransform="matrix(1, 0, 0, 1, 0, 0)" xlink:href="#linear-gradient-2"/><linearGradient id="linear-gradient-86" x1="21.38" y1="200.58" x2="-8" y2="232.53" gradientTransform="matrix(1, 0, 0, 1, 0, 0)" xlink:href="#linear-gradient-2"/><linearGradient id="linear-gradient-87" x1="9.03" y1="208.88" x2="11.28" y2="208.88" xlink:href="#linear-gradient-39"/><linearGradient id="linear-gradient-88" x1="6.6" y1="188.78" x2="18.85" y2="188.78" gradientTransform="matrix(1, 0, 0, 1, 0, 0)" xlink:href="#linear-gradient-2"/><linearGradient id="linear-gradient-89" x1="45.14" y1="126.01" x2="28.49" y2="150.83" xlink:href="#linear-gradient-39"/><linearGradient id="linear-gradient-90" x1="45.98" y1="126.58" x2="29.33" y2="151.39" xlink:href="#linear-gradient-39"/><linearGradient id="linear-gradient-91" x1="51.87" y1="101.24" x2="42.88" y2="130.54" xlink:href="#linear-gradient-39"/><linearGradient id="linear-gradient-92" x1="0" y1="159.82" x2="16.87" y2="159.82" xlink:href="#linear-gradient-39"/><linearGradient id="linear-gradient-93" x1="21.97" y1="147.83" x2="31.25" y2="186.48" gradientTransform="matrix(1, 0, 0, 1, 0, 0)" xlink:href="#linear-gradient-2"/><linearGradient id="linear-gradient-94" x1="27.78" y1="141.73" x2="25.81" y2="150.41" gradientUnits="userSpaceOnUse"><stop offset="0" stop-color="#df6f63"/><stop offset="1" stop-color="#e5908c"/></linearGradient><linearGradient id="linear-gradient-95" x1="26.75" y1="145.37" x2="25.8" y2="151.04" xlink:href="#linear-gradient-94"/><linearGradient id="linear-gradient-96" x1="15.62" y1="158.05" x2="20.87" y2="158.05" xlink:href="#linear-gradient-39"/><linearGradient id="linear-gradient-97" x1="16.72" y1="141.33" x2="12.39" y2="156.81" xlink:href="#linear-gradient-39"/><linearGradient id="linear-gradient-98" x1="23.12" y1="130.08" x2="15.79" y2="139.57" xlink:href="#linear-gradient-39"/><linearGradient id="linear-gradient-99" x1="-350.98" y1="-2142.56" x2="-348.89" y2="-2130.67" gradientTransform="matrix(0.75, -0.67, 0.67, 0.75, 1698.55, 1492.99)" xlink:href="#linear-gradient-2"/><linearGradient id="linear-gradient-100" x1="21.95" y1="129.17" x2="14.62" y2="138.67" xlink:href="#linear-gradient-39"/><linearGradient id="linear-gradient-101" x1="17.96" y1="115.31" x2="16.01" y2="128.21" gradientTransform="matrix(1, 0, 0, 1, 0, 0)" xlink:href="#linear-gradient-2"/><linearGradient id="linear-gradient-102" x1="17.19" y1="121.12" x2="13.02" y2="136.3" gradientTransform="matrix(1, 0, 0, 1, 0, 0)" xlink:href="#linear-gradient-3"/><linearGradient id="linear-gradient-103" x1="17.04" y1="121.08" x2="12.87" y2="136.26" gradientTransform="matrix(1, 0, 0, 1, 0, 0)" xlink:href="#linear-gradient-3"/><linearGradient id="linear-gradient-104" x1="16.65" y1="120.97" x2="12.48" y2="136.16" gradientTransform="matrix(1, 0, 0, 1, 0, 0)" xlink:href="#linear-gradient-3"/><linearGradient id="linear-gradient-105" x1="16.55" y1="120.94" x2="12.38" y2="136.13" gradientTransform="matrix(1, 0, 0, 1, 0, 0)" xlink:href="#linear-gradient-3"/></defs><title>transformational_workflow_solutions</title><g id="Layer_2" data-name="Layer 2"><g id="Layer_1-2" data-name="Layer 1"><path class="cls-1" d="M282.86,2.25A7.43,7.43,0,0,0,277.53,0L125.68.09a7.4,7.4,0,0,0-7.4,7.64l6,194a7.34,7.34,0,0,0,7.41,7.1H271.84a7.35,7.35,0,0,0,7.41-7.11L285,7.59A7.31,7.31,0,0,0,282.86,2.25Z"/><path class="cls-2" d="M276.14,11.18a6.77,6.77,0,0,0-4.87-2.06L132.48,9.2a6.78,6.78,0,0,0-6.77,7l5.5,177.27a6.7,6.7,0,0,0,6.77,6.48H266.07a6.71,6.71,0,0,0,6.77-6.49l5.21-177.4A6.7,6.7,0,0,0,276.14,11.18Z"/><circle class="cls-3" cx="201.61" cy="28.58" r="15.01" transform="translate(140.66 222.87) rotate(-80.65)"/><circle class="cls-3" cx="201.97" cy="28.58" r="13.95" transform="translate(151.32 226.17) rotate(-83.68)"/><circle class="cls-3" cx="201.61" cy="176.82" r="15.01" transform="translate(-5.22 347.51) rotate(-80.78)"/><circle class="cls-3" cx="201.97" cy="176.82" r="13.95" transform="translate(4.16 358.29) rotate(-83.74)"/><rect class="cls-3" x="189.36" y="68.16" width="24.51" height="24.51" transform="translate(1.98 165.62) rotate(-44.86)"/><rect class="cls-3" x="190.36" y="69.16" width="22.51" height="22.51" transform="translate(1.98 165.62) rotate(-44.86)"/><path class="cls-3" d="M263.39,122.62a9.58,9.58,0,0,1-9.58,9.58H241.4a9.58,9.58,0,0,1-9.58-9.58h0a9.58,9.58,0,0,1,9.58-9.57h12.41a9.58,9.58,0,0,1,9.58,9.57Z"/><path class="cls-3" d="M262.08,122.62a8.8,8.8,0,0,1-8.81,8.87H241.75a8.8,8.8,0,0,1-8.81-8.87h0a8.8,8.8,0,0,1,8.81-8.86h11.52a8.8,8.8,0,0,1,8.81,8.86Z"/><path class="cls-3" d="M217.64,122.62a9.58,9.58,0,0,1-9.58,9.58H195.65a9.58,9.58,0,0,1-9.58-9.58h0a9.58,9.58,0,0,1,9.58-9.57h12.41a9.58,9.58,0,0,1,9.58,9.57Z"/><path class="cls-3" d="M216.33,122.62a8.8,8.8,0,0,1-8.81,8.87H196a8.8,8.8,0,0,1-8.81-8.87h0a8.8,8.8,0,0,1,8.81-8.86h11.52a8.8,8.8,0,0,1,8.81,8.86Z"/><path class="cls-3" d="M170.82,122.62a9.57,9.57,0,0,1-9.57,9.58H148.84a9.58,9.58,0,0,1-9.58-9.58h0a9.58,9.58,0,0,1,9.58-9.57h12.41a9.57,9.57,0,0,1,9.57,9.57Z"/><path class="cls-3" d="M169.52,122.62a8.81,8.81,0,0,1-8.81,8.87H149.19a8.8,8.8,0,0,1-8.81-8.87h0a8.8,8.8,0,0,1,8.81-8.86h11.52a8.81,8.81,0,0,1,8.81,8.86Z"/><path class="cls-3" d="M201.86,59.67a.54.54,0,0,1-.54-.53V45.66a.54.54,0,0,1,1.07,0V59.14A.53.53,0,0,1,201.86,59.67Z"/><polygon class="cls-3" points="203.79 57.01 201.61 60.79 199.43 57.01 203.79 57.01"/><path class="cls-3" d="M201.86,109.68a.54.54,0,0,1-.54-.53V99.22a.54.54,0,1,1,1.07,0v9.93A.53.53,0,0,1,201.86,109.68Z"/><polygon class="cls-3" points="203.79 107.02 201.61 110.79 199.43 107.02 203.79 107.02"/><path class="cls-3" d="M201.15,157.56a.54.54,0,0,1-.54-.53V143.9a.54.54,0,0,1,1.07,0V157A.53.53,0,0,1,201.15,157.56Z"/><polygon class="cls-3" points="203.25 154.9 201.07 158.67 198.89 154.9 203.25 154.9"/><path class="cls-3" d="M153.27,106.13a.53.53,0,0,1-.53-.53V80.24a.53.53,0,0,1,.53-.53h29.26a.53.53,0,0,1,.53.53.53.53,0,0,1-.53.53H153.8V105.6A.53.53,0,0,1,153.27,106.13Z"/><polygon class="cls-3" points="155.2 105.25 153.03 109.02 150.85 105.25 155.2 105.25"/><path class="cls-3" d="M250.8,106.13a.53.53,0,0,1-.53-.53V80.77H221.54a.53.53,0,0,1-.53-.53.53.53,0,0,1,.53-.53H250.8a.53.53,0,0,1,.53.53V105.6A.53.53,0,0,1,250.8,106.13Z"/><polygon class="cls-3" points="248.68 105.25 250.86 109.02 253.04 105.25 248.68 105.25"/><path class="cls-3" d="M250.44,144.26H152.91a.53.53,0,0,1-.53-.53v-9.4a.54.54,0,0,1,1.07,0v8.86h96.46v-8.86a.54.54,0,0,1,1.07,0v9.4A.54.54,0,0,1,250.44,144.26Z"/><rect class="cls-1" x="134.29" y="18" width="41.14" height="4.61" rx="2.25"/><rect class="cls-1" x="134.29" y="28.29" width="41.14" height="4.61" rx="2.25"/><path class="cls-4" d="M343.39,63a.84.84,0,0,1-.78-.54l-1.22-3.19a16.61,16.61,0,0,1-4.53-1.69l-3,1.61a.82.82,0,0,1-1-.13l-3.26-3a.84.84,0,0,1-.19-1l1.38-3.12a16.74,16.74,0,0,1-2-4.39l-3.27-1a.85.85,0,0,1-.59-.77l-.16-4.46a.85.85,0,0,1,.53-.81l3.2-1.22a16.41,16.41,0,0,1,1.69-4.53l-1.61-3a.82.82,0,0,1,.13-1l3-3.26a.83.83,0,0,1,.95-.19l3.13,1.38a16.74,16.74,0,0,1,4.39-2l1-3.27a.85.85,0,0,1,.77-.59l4.45-.16a.82.82,0,0,1,.81.54l1.23,3.19A16.86,16.86,0,0,1,353,28.07l3-1.61a.82.82,0,0,1,1,.13l3.26,3a.83.83,0,0,1,.19.95l-1.39,3.13a16.77,16.77,0,0,1,2,4.39l3.27,1a.85.85,0,0,1,.59.77l.16,4.45a.82.82,0,0,1-.54.81l-3.19,1.23a16.86,16.86,0,0,1-1.69,4.53l1.61,3a.82.82,0,0,1-.13,1l-3,3.26a.84.84,0,0,1-1,.19L354,56.92a16.68,16.68,0,0,1-4.4,2l-1,3.27a.85.85,0,0,1-.78.59l-4.45.16Zm-6.51-6.63.25.14a15.6,15.6,0,0,0,4.75,1.78l.29.06,1.38,3.58,4.13-.15,1.12-3.67.28-.08a15.51,15.51,0,0,0,4.61-2.1l.24-.17,3.52,1.57,2.81-3-1.8-3.39.14-.26a15.54,15.54,0,0,0,1.78-4.74l.05-.29L364,44.19l-.15-4.13-3.67-1.12-.08-.28a15.51,15.51,0,0,0-2.1-4.61l-.17-.25,1.56-3.51-3-2.81L353,29.28l-.26-.15A15.78,15.78,0,0,0,348,27.36l-.29-.06-1.38-3.58-4.13.14-1.12,3.68-.28.08a15.51,15.51,0,0,0-4.61,2.1l-.25.16-3.51-1.56-2.81,3,1.8,3.39-.15.25a15.94,15.94,0,0,0-1.77,4.75l-.06.29-3.58,1.38.14,4.13,3.68,1.12.07.28a15.79,15.79,0,0,0,2.11,4.61l.16.25-1.56,3.51,3,2.81Zm8-2.3a11.28,11.28,0,1,1,11.28-11.68,11.31,11.31,0,0,1-.16,2.4.53.53,0,1,1-1.05-.19,9.83,9.83,0,0,0,.15-2.17A10.21,10.21,0,1,0,345.23,53a10.28,10.28,0,0,0,5.19-1.63.53.53,0,1,1,.57.89,11.17,11.17,0,0,1-5.73,1.8Z"/><path class="cls-4" d="M344.94,47.29a4.49,4.49,0,1,1,4.31-5.74h0a4.49,4.49,0,0,1-3.06,5.56A4.55,4.55,0,0,1,344.94,47.29Zm0-7.91a3.52,3.52,0,0,0-1,.13,3.43,3.43,0,1,0,4.25,2.34h0A3.43,3.43,0,0,0,344.94,39.38Z"/><path class="cls-4" d="M319.24,32.15a.67.67,0,0,1-.53-.26l-.92-1.18a8.19,8.19,0,0,1-2.1-.13l-1.07,1.06a.69.69,0,0,1-.77.13l-1.93-.95a.66.66,0,0,1-.37-.69l.18-1.49a8.32,8.32,0,0,1-1.39-1.57h-1.5a.68.68,0,0,1-.64-.46l-.69-2a.67.67,0,0,1,.22-.76l1.18-.92a8.25,8.25,0,0,1,.14-2.1L308,19.74a.67.67,0,0,1-.13-.78L308.8,17a.68.68,0,0,1,.7-.37l1.48.18a8.34,8.34,0,0,1,1.58-1.39V14a.68.68,0,0,1,.46-.64l2-.7a.68.68,0,0,1,.75.23l.92,1.18a8.22,8.22,0,0,1,2.1.13l1.06-1.05a.67.67,0,0,1,.78-.13l1.93.94a.68.68,0,0,1,.37.69l-.18,1.49a8.08,8.08,0,0,1,1.39,1.58h1.5a.68.68,0,0,1,.64.46l.69,2a.7.7,0,0,1-.22.76l-1.18.92a8.22,8.22,0,0,1-.14,2.1L326.52,25a.68.68,0,0,1,.13.78l-.94,1.92a.7.7,0,0,1-.7.38l-1.48-.19a8.76,8.76,0,0,1-1.58,1.4v1.49a.68.68,0,0,1-.46.64l-2,.7A.78.78,0,0,1,319.24,32.15Zm-.12-1Zm-.85-1.51L319.38,31l1.5-.51V28.7l.25-.15A7.26,7.26,0,0,0,322.9,27l.18-.22,1.79.22.7-1.43-1.27-1.28.06-.29a7.09,7.09,0,0,0,.15-2.34l0-.29,1.43-1.11-.52-1.51h-1.8l-.16-.25a7.24,7.24,0,0,0-1.55-1.76l-.23-.19.22-1.79-1.43-.7-1.28,1.28-.28-.07a7.15,7.15,0,0,0-2.35-.15l-.29,0-1.11-1.42-1.5.52V16l-.25.16a7.21,7.21,0,0,0-1.76,1.55l-.18.23-1.79-.23-.7,1.43,1.27,1.28-.07.29a7.37,7.37,0,0,0-.14,2.34l0,.29-1.43,1.11.52,1.51h1.8l.16.25A7.24,7.24,0,0,0,312.63,28l.23.19L312.64,30l1.43.7,1.28-1.27.28.06a7.14,7.14,0,0,0,2.35.15Zm-4,1.21h0Zm-1.71-.55Zm13.17-4.51Zm-.11-7Zm-16.3-1h0Zm10.83-3.79Zm-3,14.12a5.7,5.7,0,1,1,5.38-7.54,4.81,4.81,0,0,1,.27,1.18.52.52,0,0,1-.46.59.53.53,0,0,1-.59-.47,4.75,4.75,0,0,0-.22-1,4.64,4.64,0,1,0-2.89,5.89,4.58,4.58,0,0,0,2-1.39.53.53,0,0,1,.82.68,5.75,5.75,0,0,1-2.51,1.72A5.63,5.63,0,0,1,317.22,28.05Z"/><circle class="cls-5" cx="281.67" cy="62.97" r="8.73" transform="translate(194.29 338.05) rotate(-84.98)"/><path class="cls-6" d="M274.48,59.87a.53.53,0,0,1-.24-.06.52.52,0,0,1-.23-.7,8.55,8.55,0,0,1,7.66-4.72,8.85,8.85,0,0,1,1.55.14.52.52,0,0,1-.18,1,7,7,0,0,0-1.37-.13,7.5,7.5,0,0,0-6.73,4.15A.52.52,0,0,1,274.48,59.87Z"/><circle class="cls-7" cx="281.86" cy="63.16" r="7.39" transform="translate(188.18 336.4) rotate(-83.71)"/><path class="cls-5" d="M281.14,68.65v-.8a6.44,6.44,0,0,1-2.26-.49.46.46,0,0,1-.25-.55l.2-.75a.47.47,0,0,1,.64-.3,5.5,5.5,0,0,0,2.08.43c.81,0,1.41-.27,1.41-.83s-.47-.81-1.59-1.11c-1.6-.44-2.75-1.13-2.75-2.54s.93-2.25,2.55-2.51v-.8a.47.47,0,0,1,.47-.47h.47a.47.47,0,0,1,.47.47v.72a6.11,6.11,0,0,1,1.78.32.48.48,0,0,1,.3.57l-.19.69a.47.47,0,0,1-.62.31,5,5,0,0,0-1.75-.31c-1,0-1.23.39-1.23.75s.57.74,1.82,1.12c1.77.53,2.51,1.27,2.51,2.6s-.9,2.31-2.65,2.58v.9a.47.47,0,0,1-.47.47h-.47A.47.47,0,0,1,281.14,68.65Z"/><circle class="cls-8" cx="307.38" cy="52.26" r="15.72" transform="translate(53.07 232.66) rotate(-45)"/><circle class="cls-5" cx="307.38" cy="52.26" r="15.2" transform="translate(209.57 348.31) rotate(-81.37)"/><path class="cls-6" d="M294.85,46.47a.53.53,0,0,1-.24-.06.53.53,0,0,1-.23-.7,14.5,14.5,0,0,1,13-8A14.35,14.35,0,0,1,310,38a.52.52,0,0,1-.18,1,14.19,14.19,0,0,0-2.44-.22,13.47,13.47,0,0,0-12.07,7.43A.5.5,0,0,1,294.85,46.47Z"/><circle class="cls-7" cx="307.71" cy="52.59" r="12.86" transform="translate(18.31 169.63) rotate(-31.72)"/><path class="cls-5" d="M306.45,62.16v-1.4a11.45,11.45,0,0,1-3.93-.86.82.82,0,0,1-.45-.95l.36-1.31a.82.82,0,0,1,1.11-.53,9.36,9.36,0,0,0,3.62.76c1.41,0,2.46-.47,2.46-1.45s-.81-1.4-2.77-1.93c-2.78-.76-4.78-2-4.78-4.43,0-2.21,1.62-3.9,4.43-4.36V44.31a.81.81,0,0,1,.81-.82h.82a.82.82,0,0,1,.82.82v1.25a10.71,10.71,0,0,1,3.11.56.81.81,0,0,1,.51,1l-.33,1.21a.8.8,0,0,1-1.07.54,8.57,8.57,0,0,0-3.05-.55c-1.67,0-2.15.69-2.15,1.31s1,1.29,3.17,2c3.1.93,4.38,2.22,4.38,4.53,0,2.12-1.57,4-4.62,4.5v1.57a.81.81,0,0,1-.81.81h-.83A.81.81,0,0,1,306.45,62.16Z"/><circle class="cls-8" cx="318.22" cy="87.37" r="16.18" transform="translate(3.12 185.42) rotate(-32.64)"/><circle class="cls-5" cx="318.22" cy="87.37" r="15.64" transform="translate(126.05 355.65) rotate(-69.74)"/><path class="cls-6" d="M305.33,81.4a.53.53,0,0,1-.24-.06.52.52,0,0,1-.23-.7,14.89,14.89,0,0,1,13.36-8.22,15.15,15.15,0,0,1,2.7.24.52.52,0,0,1,.42.61.53.53,0,0,1-.61.42,13.91,13.91,0,0,0-14.94,7.42A.52.52,0,0,1,305.33,81.4Z"/><circle class="cls-7" cx="318.56" cy="87.71" r="13.24" transform="translate(146.42 369.75) rotate(-74)"/><path class="cls-5" d="M317.26,97.55V96.11a11.82,11.82,0,0,1-4-.87.85.85,0,0,1-.46-1l.37-1.34a.85.85,0,0,1,1.14-.55,9.71,9.71,0,0,0,3.73.79c1.44,0,2.52-.49,2.52-1.5s-.83-1.44-2.84-2c-2.87-.79-4.93-2-4.93-4.56,0-2.28,1.67-4,4.56-4.48V79.19a.84.84,0,0,1,.84-.84H319a.84.84,0,0,1,.84.84v1.29a10.63,10.63,0,0,1,3.2.57.84.84,0,0,1,.52,1l-.34,1.24a.84.84,0,0,1-1.1.57A8.71,8.71,0,0,0,319,83.3c-1.72,0-2.21.71-2.21,1.35s1,1.32,3.26,2c3.19,1,4.51,2.28,4.51,4.66,0,2.18-1.62,4.14-4.75,4.63v1.61a.84.84,0,0,1-.84.84h-.85A.84.84,0,0,1,317.26,97.55Z"/><circle class="cls-8" cx="338.97" cy="65.34" r="11.85" transform="translate(239.32 395.86) rotate(-84.13)"/><circle class="cls-5" cx="338.97" cy="65.34" r="11.46" transform="translate(206.98 384.32) rotate(-78.43)"/><path class="cls-6" d="M329.52,61.1a.46.46,0,0,1-.23-.06.51.51,0,0,1-.23-.7A11.11,11.11,0,0,1,341,54.42a.52.52,0,0,1-.18,1A10,10,0,0,0,330,60.81.51.51,0,0,1,329.52,61.1Z"/><circle class="cls-7" cx="339.22" cy="65.59" r="9.7" transform="matrix(0.11, -0.99, 0.99, 0.11, 238.33, 396.03)"/><path class="cls-5" d="M338.27,72.8V71.74a8.46,8.46,0,0,1-3-.64.61.61,0,0,1-.34-.72l.27-1a.63.63,0,0,1,.84-.41,6.94,6.94,0,0,0,2.73.58c1.06,0,1.85-.36,1.85-1.1s-.61-1-2.08-1.45c-2.11-.57-3.61-1.49-3.61-3.34,0-1.67,1.22-2.94,3.34-3.28V59.34a.61.61,0,0,1,.61-.61h.62a.61.61,0,0,1,.62.61v.95a7.73,7.73,0,0,1,2.34.42.6.6,0,0,1,.38.74l-.24.91a.61.61,0,0,1-.81.41,6.51,6.51,0,0,0-2.3-.42c-1.26,0-1.62.52-1.62,1s.76,1,2.39,1.47c2.33.7,3.3,1.67,3.3,3.41s-1.18,3-3.48,3.4V72.8a.61.61,0,0,1-.62.61h-.61A.61.61,0,0,1,338.27,72.8Z"/><path class="cls-9" d="M38.8,86.51a4.24,4.24,0,0,1-5.59-2.16L18.69,51.4a3.73,3.73,0,0,1,1.73-4.84l46.7-23.5a2.76,2.76,0,0,1,3.74,1.31L88.19,61.83a2.61,2.61,0,0,1-1.31,3.49Z"/><path class="cls-10" d="M34.47,85.2a1.24,1.24,0,0,1-1.69-.78C31.41,79.65,26.47,63.34,19.85,51a1.14,1.14,0,0,1,.49-1.55L67.2,25.72a1.31,1.31,0,0,1,1.75.57c2.7,5.24,13.7,26.86,16.35,35.13a1,1,0,0,1-.56,1.26Z"/><path class="cls-4" d="M35.44,84.14a1.19,1.19,0,0,1-1.63-.75c-1.32-4.59-6.07-20.28-12.44-32.18a1.09,1.09,0,0,1,.47-1.49L66.94,26.9a1.26,1.26,0,0,1,1.69.55c2.58,5,13.17,25.84,15.73,33.8a1,1,0,0,1-.55,1.22Z"/><path class="cls-8" d="M27.49,49.68l-.44.19a.94.94,0,0,1-1.24-.48L23,43a.94.94,0,0,1,.17-1l.76-.79a.94.94,0,0,1,1.57.33l2.52,7A1,1,0,0,1,27.49,49.68Z"/><path class="cls-8" d="M36.29,45.22l-.44.19a.93.93,0,0,1-1.24-.48l-2.84-6.42a1,1,0,0,1,.18-1l.76-.79a.94.94,0,0,1,1.57.33l2.52,7A1,1,0,0,1,36.29,45.22Z"/><path class="cls-8" d="M48.31,39.92l-.44.2a1,1,0,0,1-1.25-.49l-2.83-6.42a1,1,0,0,1,.18-1l.75-.79a1,1,0,0,1,1.58.33l2.51,7A.94.94,0,0,1,48.31,39.92Z"/><path class="cls-8" d="M60,34l-.43.19a1,1,0,0,1-1.25-.48l-2.83-6.42a1,1,0,0,1,.18-1l.75-.79a.94.94,0,0,1,1.57.33l2.52,7A.94.94,0,0,1,60,34Z"/><path class="cls-11" d="M51.57,45.29,53,48.62a1,1,0,0,0,1.33.5l3.39-1.56a1,1,0,0,0,.49-1.3l-1.54-3.5a1,1,0,0,0-1.37-.48L52,44A1,1,0,0,0,51.57,45.29Z"/><path class="cls-12" d="M41.7,55l3.39-1.56a1,1,0,0,0,.5-1.31l-1.31-3a1,1,0,0,0-1.37-.49l-3.32,1.7a1,1,0,0,0-.46,1.29l1.25,2.83A1,1,0,0,0,41.7,55Z"/><path class="cls-13" d="M51.52,68.3l-3.23,1.47a1.07,1.07,0,0,0-.55,1.42l1.34,3a1.08,1.08,0,0,0,1.41.56l3.28-1.36A1.1,1.1,0,0,0,54.35,72L53,68.85A1.08,1.08,0,0,0,51.52,68.3Z"/><path class="cls-14" d="M47.91,74.7l-1.31-3a1.07,1.07,0,0,0-1.42-.54l-3.26,1.48a1.09,1.09,0,0,0-.54,1.41l1.27,2.86a1.07,1.07,0,0,0,1.38.56l3.32-1.38A1.06,1.06,0,0,0,47.91,74.7Z"/><path class="cls-15" d="M42,61.27l-1.08-2.45a1.13,1.13,0,0,0-1.53-.57l-3.1,1.45a1.15,1.15,0,0,0-.57,1.5l1,2.34a1.15,1.15,0,0,0,1.5.59l3.15-1.34A1.15,1.15,0,0,0,42,61.27Z"/><path class="cls-16" d="M45.12,68.36l-1.65-3.73a1.06,1.06,0,0,0-1.39-.55l-3.23,1.37a1.16,1.16,0,0,0-.6,1.52l1.67,3.77a1.06,1.06,0,0,0,1.42.54l3.25-1.52A1.07,1.07,0,0,0,45.12,68.36Z"/><path class="cls-17" d="M48.05,52.08l3.39-1.56a1,1,0,0,0,.49-1.3L50.5,46a1,1,0,0,0-1.36-.48l-3.33,1.7a1,1,0,0,0-.46,1.29l1.37,3.1A1,1,0,0,0,48.05,52.08Z"/><path class="cls-18" d="M51.44,65.4,49.9,61.9a1.09,1.09,0,0,0-1.42-.56l-3.27,1.4a1.07,1.07,0,0,0-.56,1.43l1.58,3.6a1.09,1.09,0,0,0,1.46.55l3.21-1.5A1.08,1.08,0,0,0,51.44,65.4Z"/><path class="cls-19" d="M52.32,52.18l-3.69,1.73A.82.82,0,0,0,48.22,55l1.48,3.36a.83.83,0,0,0,1.08.42l3.75-1.6A.83.83,0,0,0,55,56.08L53.42,52.6A.82.82,0,0,0,52.32,52.18Z"/><path class="cls-20" d="M54.63,52.22,56,55.42a1,1,0,0,0,1.35.53l3.36-1.43a1,1,0,0,0,.54-1.37l-1.46-3.32a1,1,0,0,0-1.39-.52l-3.31,1.55A1,1,0,0,0,54.63,52.22Z"/><path class="cls-21" d="M44.36,61.52l3.75-1.61a.81.81,0,0,0,.43-1.08L47.1,55.56a.82.82,0,0,0-1.1-.41l-3.69,1.72A.82.82,0,0,0,41.9,58l1.39,3.14A.83.83,0,0,0,44.36,61.52Z"/><path class="cls-22" d="M54.89,58.6,51.63,60a1.08,1.08,0,0,0-.57,1.43l1.5,3.39a1.08,1.08,0,0,0,1.45.55l3.22-1.5a1.08,1.08,0,0,0,.53-1.42l-1.45-3.29A1.09,1.09,0,0,0,54.89,58.6Z"/><path class="cls-23" d="M61.42,55.81,57.93,57.3a1,1,0,0,0-.5,1.28L58.94,62a1,1,0,0,0,1.28.48l3.44-1.6a1,1,0,0,0,.48-1.26l-1.46-3.3A1,1,0,0,0,61.42,55.81Z"/><path class="cls-24" d="M35.82,57.65l2.57-1.18a1.39,1.39,0,0,0,.69-1.81l-.95-2.14a1.22,1.22,0,0,0-1.68-.6l-2.81,1.43A1.35,1.35,0,0,0,33,55.1l.79,1.79A1.51,1.51,0,0,0,35.82,57.65Z"/><path class="cls-25" d="M40.28,74.68a1.15,1.15,0,0,0-1.52-.58l-1.13.51a1.6,1.6,0,0,0-1,2l.91,2.07a1.58,1.58,0,0,0,2.11.63l1.22-.51a1.07,1.07,0,0,0,.57-1.41Z"/><path class="cls-26" d="M75.91,57.21l-2.21,1a1.09,1.09,0,0,0-.55,1.43l1.71,3.87a1.08,1.08,0,0,0,1.41.57l2.23-.93a1.6,1.6,0,0,0,1-2l-1.47-3.33A1.59,1.59,0,0,0,75.91,57.21Z"/><path class="cls-27" d="M37.11,73.25l1.09-.51a1.15,1.15,0,0,0,.56-1.5l-1.67-3.8a1.15,1.15,0,0,0-1.5-.59l-1.12.48a1.59,1.59,0,0,0-1,2l1.46,3.33A1.6,1.6,0,0,0,37.11,73.25Z"/><path class="cls-28" d="M33.84,66l1.39-.59a.87.87,0,0,0,.46-1.15l-1.21-2.75a.87.87,0,0,0-1.16-.43l-1.39.65a1.58,1.58,0,0,0-.95,2l.74,1.67A1.58,1.58,0,0,0,33.84,66Z"/><path class="cls-29" d="M66.66,36.48,64.5,37.59A1,1,0,0,0,64,38.93l1.69,3.82a1,1,0,0,0,1.38.53l2.27-1.05a1.59,1.59,0,0,0,1-2l-1.42-3.2A1.61,1.61,0,0,0,66.66,36.48Z"/><path class="cls-30" d="M57.87,65.41l-3.23,1.47a1.09,1.09,0,0,0-.55,1.43l1.44,3.25a1.08,1.08,0,0,0,1.41.56l3.28-1.36a1.08,1.08,0,0,0,.57-1.44L59.31,66A1.08,1.08,0,0,0,57.87,65.41Z"/><path class="cls-31" d="M70,43.89l-2.24,1a1,1,0,0,0-.5,1.35l1.6,3.64a1,1,0,0,0,1.35.54l2.28-1a1.59,1.59,0,0,0,1-2l-1.32-3A1.6,1.6,0,0,0,70,43.89Z"/><path class="cls-32" d="M73.13,50.81l-2.36,1a1,1,0,0,0-.51,1.27l1.33,3a1,1,0,0,0,1.28.48l2.35-1.09a1.58,1.58,0,0,0,1-2l-.91-2.07A1.6,1.6,0,0,0,73.13,50.81Z"/><path class="cls-33" d="M63.85,55.83,65.26,59a1,1,0,0,0,1.29.48L70,57.92a1,1,0,0,0,.47-1.26L69.1,53.57a1,1,0,0,0-1.26-.5l-3.49,1.49A1,1,0,0,0,63.85,55.83Z"/><path class="cls-34" d="M70.57,59.63,67.34,61.1a1.09,1.09,0,0,0-.54,1.43l1.62,3.67a1.08,1.08,0,0,0,1.41.56L73.1,65.4A1.08,1.08,0,0,0,73.68,64L72,60.18A1.1,1.1,0,0,0,70.57,59.63Z"/><path class="cls-35" d="M31.16,59.79l1.35-.62A.87.87,0,0,0,32.94,58l-1.18-2.68a.87.87,0,0,0-1.19-.42l-1.4.71a1.57,1.57,0,0,0-.89,2l.7,1.6A1.61,1.61,0,0,0,31.16,59.79Z"/><path class="cls-36" d="M64.22,62.52,61.05,64a1.14,1.14,0,0,0-.58,1.5L62,68.88a1.08,1.08,0,0,0,1.41.56l3.28-1.36a1.1,1.1,0,0,0,.58-1.44l-1.57-3.57A1.1,1.1,0,0,0,64.22,62.52Z"/><path class="cls-37" d="M57.8,42.11l1.57,3.56a1,1,0,0,0,1.37.52l3.32-1.52a1,1,0,0,0,.52-1.36L63,39.61a1,1,0,0,0-1.42-.5l-3.26,1.66A1,1,0,0,0,57.8,42.11Z"/><path class="cls-38" d="M61,49.26l1.5,3.41a1,1,0,0,0,1.36.54l3.36-1.44a1,1,0,0,0,.54-1.36l-1.56-3.54a1,1,0,0,0-1.39-.52L61.45,47.9A1,1,0,0,0,61,49.26Z"/><path class="cls-39" d="M27.51,52.93l.68,1a.81.81,0,0,0,1,.3l.06,0a.81.81,0,0,0,.41-1.07L29.15,52A.81.81,0,0,0,28,51.67l-.22.13A.82.82,0,0,0,27.51,52.93Z"/><path class="cls-40" d="M32.56,50.23l.67,1.05a.82.82,0,0,0,1,.3l0,0a.8.8,0,0,0,.42-1.06l-.51-1.16A.81.81,0,0,0,33,49l-.22.13A.81.81,0,0,0,32.56,50.23Z"/><path class="cls-41" d="M39,47.34l.67,1a.82.82,0,0,0,1,.3l.05,0a.8.8,0,0,0,.41-1.07l-.5-1.15a.81.81,0,0,0-1.16-.37l-.22.13A.81.81,0,0,0,39,47.34Z"/><path class="cls-42" d="M45.06,44.17l.67,1a.81.81,0,0,0,1,.31l0,0a.81.81,0,0,0,.42-1.06l-.51-1.16a.8.8,0,0,0-1.16-.36l-.22.13A.81.81,0,0,0,45.06,44.17Z"/><path class="cls-43" d="M51.06,40.38l.67,1a.82.82,0,0,0,1,.3l0,0a.8.8,0,0,0,.42-1.06l-.51-1.16a.81.81,0,0,0-1.16-.36l-.22.13A.82.82,0,0,0,51.06,40.38Z"/><path class="cls-44" d="M57.89,37.37l.67,1.05a.82.82,0,0,0,1,.3l0,0A.81.81,0,0,0,60,37.63l-.5-1.16a.83.83,0,0,0-1.17-.36l-.21.13A.81.81,0,0,0,57.89,37.37Z"/><path class="cls-45" d="M63.54,34.59l.67,1a.81.81,0,0,0,1,.3l0,0a.8.8,0,0,0,.41-1.06l-.51-1.16A.81.81,0,0,0,64,33.33l-.21.13A.81.81,0,0,0,63.54,34.59Z"/><path class="cls-8" d="M60.5,52a.3.3,0,0,0-.55,0,4.34,4.34,0,0,0-.22,2.12c0,.84.06,1.67.14,2.51a20.82,20.82,0,0,0,.4,2.61,18.93,18.93,0,0,0-2.53-2.1c-.24-.17-.56.15-.36.38,1.18,1.37,2.44,2.66,3.6,4a.55.55,0,0,0,.92-.56,19.59,19.59,0,0,1-1-4.73c-.07-.77-.11-1.55-.13-2.32A4.25,4.25,0,0,0,60.5,52Z"/><path class="cls-8" d="M61.76,52.87a.39.39,0,0,0,.12.78,4.54,4.54,0,0,1,4.27,6.2,15.48,15.48,0,0,1-2.22,3.89,7.43,7.43,0,0,1-3.39,2.81c-3.32,1.16-5.26-1.86-5.47-4.79a9.79,9.79,0,0,1,2.86-7.58c.26-.26-.1-.71-.36-.45a11.07,11.07,0,0,0-3.25,7c-.2,2.42.4,5.41,2.72,6.67s5.21,0,6.94-1.79c1.89-2,4-5,3.77-7.9S64.86,52.08,61.76,52.87Z"/><path class="cls-8" d="M53.11,56.38a6.42,6.42,0,0,0-1.31-2.1c-.21-.18-.48.06-.47.28a6.24,6.24,0,0,0,.74,2.08c.15.32.34.67.52,1-.87-.93-2-2-3.38-2a5,5,0,0,0-3.34,2.1c-2,2.34-3,5.34-4.69,7.87-1,1.52-2.77,3.13-4.56,1.65a7.09,7.09,0,0,1-2-4.61,11.2,11.2,0,0,1,2.74-8.38c.15-.16-.12-.42-.28-.27A10.74,10.74,0,0,0,34,61.81c0,2.42.79,6.32,3.59,7,3.06.69,5-3.22,6.09-5.39a30.91,30.91,0,0,1,2.63-4.48,5.94,5.94,0,0,1,2.28-2c1.3-.5,2.41.66,3.19,1.55a.59.59,0,0,0,1-.39,3.52,3.52,0,0,1,.21.56c-1,.41-2.3,0-3.11.82a.19.19,0,0,0,.1.34,7,7,0,0,0,3.85-.38.57.57,0,0,0,.32-.57A8.65,8.65,0,0,0,53.11,56.38Z"/><path class="cls-8" d="M65.74,53.83a.76.76,0,0,0,.54-.22L77.05,43.42a5,5,0,0,1,3.45-1.37h36.63a.8.8,0,0,0,0-1.59H80.5A6.55,6.55,0,0,0,76,42.27L65.19,52.46a.8.8,0,0,0,0,1.12A.79.79,0,0,0,65.74,53.83Z"/><path class="cls-8" d="M86.12,37.13h31a.79.79,0,0,0,0-1.58h-31a.79.79,0,1,0,0,1.58Z"/><path class="cls-8" d="M91.17,32.22h26a.8.8,0,0,0,.79-.8.79.79,0,0,0-.79-.79h-26a.79.79,0,0,0-.8.79A.8.8,0,0,0,91.17,32.22Z"/><path class="cls-5" d="M278.2,147.4a.82.82,0,0,1,.16-1.59c3.92-.51,9.66-2,11.54-6.64,3-7.21-3.16-35,24.91-40,25.89-4.59,40.31,3.6,40,27.53C354.48,149.91,317.21,160.78,278.2,147.4Z"/><rect class="cls-1" x="339.55" y="121.72" width="2.51" height="19.65" transform="translate(681.61 263.08) rotate(180)"/><rect class="cls-1" x="335.36" y="128.47" width="2.51" height="12.9" transform="translate(673.22 269.84) rotate(180)"/><rect class="cls-1" x="331.16" y="111.78" width="2.51" height="29.59" transform="translate(664.83 253.14) rotate(180)"/><rect class="cls-1" x="326.96" y="134.26" width="2.51" height="7.11" transform="translate(656.44 275.63) rotate(180)"/><rect class="cls-1" x="322.77" y="115.73" width="2.51" height="25.63" transform="translate(648.04 257.1) rotate(180)"/><rect class="cls-1" x="318.57" y="120.17" width="2.51" height="21.2" transform="translate(639.65 261.54) rotate(180)"/><rect class="cls-1" x="314.37" y="125" width="2.51" height="16.37" transform="translate(631.26 266.36) rotate(180)"/><rect class="cls-1" x="310.18" y="105.79" width="2.51" height="35.57" transform="translate(622.86 247.16) rotate(180)"/><rect class="cls-1" x="305.98" y="109.56" width="2.51" height="31.81" transform="translate(614.47 250.92) rotate(180)"/><rect class="cls-1" x="301.78" y="115.25" width="2.51" height="26.12" transform="translate(606.08 256.62) rotate(180)"/><rect class="cls-1" x="297.59" y="134.92" width="2.51" height="6.45" transform="translate(597.69 276.29) rotate(180)"/><path class="cls-1" d="M297.59,206.13a19.13,19.13,0,0,0-.25,2.1.91.91,0,0,0,.82,1,39.38,39.38,0,0,0,8,.11.41.41,0,0,0,.23-.71,12.77,12.77,0,0,0-7.49-3.18Z"/><path class="cls-1" d="M296.74,204l.86,2.09a.71.71,0,0,0,.72.44,3.33,3.33,0,0,0,.7-.14.92.92,0,0,0,.61-1.14l-.65-2.16Z"/><path class="cls-1" d="M282.77,207.8a9,9,0,0,1,2.38,3.27.78.78,0,0,1-.74,1h-3.52a.84.84,0,0,1-.83-1C280.29,209.87,280.94,207.8,282.77,207.8Z"/><path class="cls-1" d="M280,205.93s.34,1.53.61,2.55a.33.33,0,0,0,.42.22,3.06,3.06,0,0,1,1.29-.24.24.24,0,0,0,.27-.24l0-2.55Z"/><path class="cls-5" d="M289.11,171.47l10.42,31.79s-2,1.31-2.95,1.25L284.2,179s-2.16,15.74-1.11,27l-3.55.27s-5.76-28.88-1.4-38.77Z"/><path class="cls-1" d="M284.27,178.69h0a.09.09,0,0,1-.09-.11l.4-3.21a.12.12,0,0,1,.12-.09.1.1,0,0,1,.08.12l-.4,3.21A.1.1,0,0,1,284.27,178.69Z"/><path class="cls-1" d="M291.06,143.51s-8.44.75-7.25,6.76A82.09,82.09,0,0,0,277,169.39a.61.61,0,0,0,.49.73l14.06,2.4a.75.75,0,0,0,.86-.55l3.36-13,1.31,6,4.15-1.08-3.5-17.74S297.21,143.62,291.06,143.51Z"/><path class="cls-8" d="M295.81,158.41h0a.09.09,0,0,1-.08-.12l1.17-5.38a.1.1,0,0,1,.12-.08.1.1,0,0,1,.08.12l-1.17,5.38A.11.11,0,0,1,295.81,158.41Z"/><path class="cls-46" d="M295,174.42a2,2,0,0,0-1.45-.19l-1,.24a.36.36,0,0,1-.44-.3l-1-9a8.19,8.19,0,0,1-3.69.48l2.33,10.62h8.15Z"/><path class="cls-47" d="M316.62,154.88l-.25-.82a1.62,1.62,0,0,0-.94-1L311,151.23s-.07-.57.94-1a1.34,1.34,0,0,0,.77-1.52s-1.37.63-3.39,1.63a4.72,4.72,0,0,0-2.15,2.33L297.05,165l1.18.82a3.17,3.17,0,0,0,4.59-1.13l5.47-10.49A20.45,20.45,0,0,0,316.62,154.88Z"/><path class="cls-48" d="M293.8,137.76,291.2,145s2.3,1.8,4,1.19l1.3-4.17S295.49,137,293.8,137.76Z"/><path class="cls-49" d="M301.54,135.15c0,.12-2.5,7.08-2.5,7.08l-3.94-1.51,1.38-7S301.54,133.28,301.54,135.15Z"/><path class="cls-50" d="M297.18,135.46l-1,3.6a.78.78,0,0,0,0,.14c0,.3.07,1.31,1.1,1.17a4.87,4.87,0,0,1,2.34,0,.53.53,0,0,1,.27.65,22.32,22.32,0,0,1-1.43,3.21.52.52,0,0,1-.67.22,16.94,16.94,0,0,1-3.38-2,.55.55,0,0,1-.19-.51c.18-.92.69-3.72.71-4.53s-.82-1.33-1.19-1.54a.52.52,0,0,1-.25-.33,1.36,1.36,0,0,1,1.19-1.82.53.53,0,0,0,.42-.63,1.37,1.37,0,0,1,1-1.75,1.92,1.92,0,0,1,2.18.87.53.53,0,0,0,.65.18.41.41,0,0,1,.46.08.52.52,0,0,0,.76-.11,1.56,1.56,0,0,1,1.92-.64c1.79.58,1.7,2.63,1.05,3.75s-2.55.38-3.45-.36a2.27,2.27,0,0,0-2.19,0A.52.52,0,0,0,297.18,135.46Z"/><path class="cls-51" d="M294.54,138.77s1-2,.35-2.62-1.88-.53-1.85,1C293.08,139.13,294.54,138.77,294.54,138.77Z"/><path class="cls-8" d="M288.21,165.78c-.58,0-1-.05-1-.05h-.07L284,151.39a.09.09,0,0,1,.08-.12.09.09,0,0,1,.12.08l3,14.18c.46,0,2.9.2,4.19-.71l-2.66-12.45.55-1.05a.11.11,0,0,1,.15,0,.1.1,0,0,1,0,.14l-.52,1,2.67,12.51-.05,0A6.09,6.09,0,0,1,288.21,165.78Z"/><path class="cls-5" d="M292.18,213.33a.52.52,0,0,1-.24-.05.69.69,0,0,1-.31-.87l12.69-32.21a.59.59,0,0,1,.8-.34.67.67,0,0,1,.31.86l-12.69,32.22A.6.6,0,0,1,292.18,213.33Z"/><path class="cls-5" d="M306.48,213.33a.59.59,0,0,1-.55-.39l-12.7-32.22a.68.68,0,0,1,.32-.86.59.59,0,0,1,.8.34L307,212.41a.68.68,0,0,1-.32.87A.49.49,0,0,1,306.48,213.33Z"/><path class="cls-5" d="M346.22,213.33a.52.52,0,0,1-.24-.05.68.68,0,0,1-.32-.87l12.7-32.21a.58.58,0,0,1,.79-.34.68.68,0,0,1,.32.86l-12.69,32.22A.61.61,0,0,1,346.22,213.33Z"/><path class="cls-5" d="M360.52,213.33a.61.61,0,0,1-.56-.39l-12.69-32.22a.68.68,0,0,1,.32-.86.58.58,0,0,1,.79.34l12.7,32.21a.68.68,0,0,1-.32.87A.52.52,0,0,1,360.52,213.33Z"/><rect class="cls-52" x="337.71" y="191.63" width="1.5" height="16.23"/><path class="cls-53" d="M345,208.17H331.88v-.07a.9.9,0,0,1,.91-.9h11.26a1,1,0,0,1,1,1Z"/><rect class="cls-54" x="330.45" y="187.99" width="16.53" height="4.69" rx="1.61"/><path class="cls-55" d="M327.38,180.81a13,13,0,0,0-4.74,2,1.23,1.23,0,0,0-.55,1.19,53,53,0,0,0,5.6,17.6,1.84,1.84,0,0,1,.18,1.3l-.7,3.29-1.32,1.23h3.38l2.25-6.09-1-.3a1.81,1.81,0,0,1-1.27-1.71l-.11-6.53a7.42,7.42,0,0,0-1.79-4.91l5.4-.27Z"/><path class="cls-56" d="M324.54,208c-.31.41,3.31.94,5.14.06,0,0,2.53-4.41,2.53-6.68,0,0-.2-.47-1.69-.36,0,0-.85,5.22-1.75,5.8a3.54,3.54,0,0,1-2.51.06A5.33,5.33,0,0,0,324.54,208Z"/><path class="cls-57" d="M332.07,188c0-.05-5.81-.69-5.81-.69a13.16,13.16,0,0,1-.41,4.17c-.59,2.42-9.07,12.91-9.07,12.91l.89,2.82a14.33,14.33,0,0,1-8.12.49l5.51-3.31s5.16-17.59,8.32-20.73l5.8-2Z"/><path class="cls-58" d="M345,177.76s3.33,5,3.6,7.21-.91,3.18-4.4,3.33-12.83.15-12.83.15l-8-6.8s5.8-2.08,7.31-2.66S345,177.76,345,177.76Z"/><path class="cls-59" d="M317.33,206.25a1.62,1.62,0,0,1,.31,2s-7.59,1.34-9.65.73c0,0,.43-1,2.75-2.09l-.17.14a.27.27,0,0,0,.18.49A21.09,21.09,0,0,0,317.33,206.25Z"/><path class="cls-60" d="M338.3,149.93c.5.16,2.32.81,2.08,2a.22.22,0,0,0,.27.24,3.35,3.35,0,0,1,3.58.87,2.1,2.1,0,0,1-.34,2.91.21.21,0,0,0,.18.36c1.44-.18,4.56-.22,5.07,2.7a2.92,2.92,0,0,1-2.55,3.72.21.21,0,0,0-.07.39,2.28,2.28,0,0,1,1,2.54c-.41,2.28-4.88,2.1-5.4,2.07l-.09,0-7.16-4.08a.23.23,0,0,1-.1-.15l-1.44-8.34a.19.19,0,0,1,.05-.19l4.75-4.93A.23.23,0,0,1,338.3,149.93Z"/><path class="cls-61" d="M336,177.1a74.14,74.14,0,0,1-5.78-6.14,5.15,5.15,0,0,1-.88-4.67,65.9,65.9,0,0,1,2.56-6.45c.21-.72,4.56-.69,4.56-.69s8.56,5.55,11.92,15l-3.77,1.17a44.1,44.1,0,0,0-4.45-6.13s3.82,5,4,7.11Z"/><path class="cls-62" d="M331.39,155.79c.05.15,1.18,3.91,1.27,4a6.29,6.29,0,0,0,3.62-.57l-1.92-4Z"/><path class="cls-63" d="M333.26,147.88a7.72,7.72,0,0,0-3.45,3.83c-1.39,3-.35,4.33,1,4.52a6.13,6.13,0,0,0,5.33-1.76C338.16,152.56,335.92,146.86,333.26,147.88Z"/><path class="cls-64" d="M334.71,152.89s1.54-4.33-2.3-4.38l-.9.63s-1.41-2.4.9-3.55,5-.2,6,2.92,1.15,5.2-.49,6.69-2.31-.2-2.31-.2.89-1.39.53-2.14-1.2.16-1.2.16Z"/><path class="cls-65" d="M334.67,153.44s.78-2.23,1.82-1.34-.85,2.06-1.59,2.44Z"/><path class="cls-66" d="M328.12,177.38l2.85-2.75,3.94,1.67s3.93.6,6.17,0l2.25-.61,5.07-1.58.8,2.25a1.36,1.36,0,0,1-.5,1.56,9.75,9.75,0,0,1-1.28.8c-.67.29-16.47-.21-16.47-.21Z"/><path class="cls-67" d="M338.9,178.67h0l-16.53,0a.74.74,0,1,1,0-1.48l16.53,0a.74.74,0,0,1,0,1.48Z"/><path class="cls-68" d="M307.48,163.66h13.76a2.64,2.64,0,0,1,2.38,1.51L330,178.66H312.87a1.59,1.59,0,0,1-1.48-1l-4.93-12.48A1.1,1.1,0,0,1,307.48,163.66Z"/><path class="cls-69" d="M305.76,178.14h-16v-1.68h16C305.42,176.46,305.42,178.14,305.76,178.14Z"/><path class="cls-70" d="M290.74,178.14a.85.85,0,1,1,0-1.68h14.51c.55,0,1-.08,1-.18s-.45-.19-1-.19H288.83a.7.7,0,0,0-.7.7v1.07a.66.66,0,0,0,.66.66h16.46c.55,0,1-.08,1-.19s-.45-.19-1-.19Z"/><path class="cls-5" d="M362,179.28a.58.58,0,0,0-.16-.53.78.78,0,0,0-.57-.24H286.84a.91.91,0,0,0-.72.34.68.68,0,0,0-.05.71l.8,1.52a1.17,1.17,0,0,0,1,.56h72.87a.83.83,0,0,0,.84-.6Z"/><path class="cls-1" d="M38.43,210.38h-.21a1.85,1.85,0,0,1-1.62-2L48.14,107.94a1.84,1.84,0,1,1,3.65.42L40.25,208.75A1.83,1.83,0,0,1,38.43,210.38Z"/><path class="cls-1" d="M101.85,210.38a1.83,1.83,0,0,1-1.79-1.44L77.55,108.55a1.84,1.84,0,1,1,3.58-.81l22.51,100.4a1.86,1.86,0,0,1-1.79,2.24Z"/><path class="cls-1" d="M63.83,210.38A1.83,1.83,0,0,1,62,208.54V159a1.84,1.84,0,0,1,3.67,0v49.55A1.84,1.84,0,0,1,63.83,210.38Z"/><path class="cls-71" d="M27.05,96.91l6.46,81.39a3.26,3.26,0,0,0,3.33,3l67.48-1.65a3.26,3.26,0,0,0,3.14-3.76L94.54,94.73A3.27,3.27,0,0,0,91.25,92l-61,1.42A3.24,3.24,0,0,0,27.05,96.91Z"/><path class="cls-72" d="M32.7,95.65l56.6-1.31a3.24,3.24,0,0,1,3.28,2.74l12.19,76.58a3.25,3.25,0,0,1-3.13,3.76L39,179a3.26,3.26,0,0,1-3.32-3L29.54,99.16A3.24,3.24,0,0,1,32.7,95.65Z"/><path class="cls-1" d="M63.19,120.67a.52.52,0,0,1-.45-.76c0-.09,5.09-9.67,9.54-18a.51.51,0,0,1,.69-.22,21,21,0,0,1,10.57,13.61.5.5,0,0,1-.06.38.52.52,0,0,1-.32.24l-19.85,4.78Zm9.75-17.87c-3.54,6.67-7.39,14-8.77,16.59L82.42,115A19.86,19.86,0,0,0,72.94,102.8Z"/><path class="cls-1" d="M57.85,145.21a21.2,21.2,0,0,1-3.94-.38,20.93,20.93,0,1,1,13.71-39.06.5.5,0,0,1,.25.3.53.53,0,0,1,0,.39c-3.6,6.8-7.6,14.38-9,17.05L77.57,119a.52.52,0,0,1,.62.38,21,21,0,0,1-20.34,25.84Zm-.05-40.84a19.89,19.89,0,1,0,19.51,15.74L58,124.78a.51.51,0,0,1-.52-.19.48.48,0,0,1,0-.55c0-.09,4.91-9.33,9.29-17.6a19.77,19.77,0,0,0-5.1-1.71A20.24,20.24,0,0,0,57.8,104.37Z"/><path class="cls-1" d="M57.85,141.27a17.41,17.41,0,0,1-3.2-.3A17,17,0,0,1,61,107.59a16.55,16.55,0,0,1,2,.5.13.13,0,0,1,.09.16.13.13,0,0,1-.16.08,19,19,0,0,0-1.94-.49,16.73,16.73,0,1,0,13.3,19.58,17.44,17.44,0,0,0,.29-3.6.13.13,0,0,1,.13-.13.14.14,0,0,1,.13.13,17.3,17.3,0,0,1-.3,3.65A17,17,0,0,1,57.85,141.27Z"/><path class="cls-1" d="M62.39,110.12h0c-.24-.08-.49-.15-.73-.21a.14.14,0,0,1-.1-.16.13.13,0,0,1,.16-.09c.25.06.5.14.74.21a.14.14,0,0,1,.09.17A.13.13,0,0,1,62.39,110.12Z"/><path class="cls-1" d="M57.86,139.39c-.35,0-.71,0-1.06,0a.13.13,0,0,1,0-.26,12.48,12.48,0,0,0,1.5,0h0a.13.13,0,0,1,0,.26Zm2-.13a.12.12,0,0,1-.13-.11.12.12,0,0,1,.11-.14c.49-.07,1-.16,1.47-.27a.12.12,0,1,1,.06.24,12.4,12.4,0,0,1-1.5.28Zm-4.52-.08h0l-.29,0a12.28,12.28,0,0,1-1.2-.28.13.13,0,0,1-.09-.16.13.13,0,0,1,.16-.08c.38.1.78.2,1.18.27l.28,0a.12.12,0,0,1,.1.15A.13.13,0,0,1,55.31,139.18Zm7.45-.62a.13.13,0,0,1-.12-.08.15.15,0,0,1,.08-.17,13.91,13.91,0,0,0,1.39-.56.13.13,0,0,1,.17.06.13.13,0,0,1-.06.17,14.4,14.4,0,0,1-1.41.58Zm-10.36-.19h0a14.36,14.36,0,0,1-1.39-.62.13.13,0,0,1-.06-.17.13.13,0,0,1,.18-.06,13.77,13.77,0,0,0,1.36.61.14.14,0,0,1,.08.17A.13.13,0,0,1,52.4,138.37Zm13.1-1.08a.15.15,0,0,1-.11-.07.13.13,0,0,1,0-.17c.42-.26.84-.54,1.24-.83a.14.14,0,0,1,.18,0,.13.13,0,0,1,0,.18c-.41.3-.84.59-1.27.85ZM49.71,137l-.07,0c-.43-.28-.84-.58-1.24-.89a.14.14,0,0,1,0-.18.12.12,0,0,1,.18,0,15,15,0,0,0,1.22.87.14.14,0,0,1,0,.18A.14.14,0,0,1,49.71,137Zm18.22-1.51a.13.13,0,0,1-.1,0,.14.14,0,0,1,0-.18c.37-.34.73-.7,1.06-1.07a.14.14,0,0,1,.18,0,.14.14,0,0,1,0,.19c-.34.37-.7.74-1.08,1.08A.11.11,0,0,1,67.93,135.49Zm-20.58-.38-.09,0c-.36-.36-.71-.73-1-1.12a.12.12,0,0,1,0-.18.13.13,0,0,1,.18,0,13.3,13.3,0,0,0,1,1.1.13.13,0,0,1,0,.18A.1.1,0,0,1,47.35,135.11ZM70,133.24a.11.11,0,0,1-.08,0,.13.13,0,0,1,0-.18,12.8,12.8,0,0,0,.82-1.25.13.13,0,1,1,.23.13c-.26.44-.54.86-.84,1.27A.11.11,0,0,1,70,133.24Zm-24.53-.45a.16.16,0,0,1-.11,0c-.28-.42-.54-.86-.78-1.31a.12.12,0,0,1,0-.17.13.13,0,0,1,.17.05c.24.44.5.87.78,1.28a.13.13,0,0,1,0,.18A.08.08,0,0,1,45.42,132.79Zm26.05-2.15h0a.12.12,0,0,1-.06-.17c.2-.45.39-.92.55-1.39a.12.12,0,0,1,.16-.08.12.12,0,0,1,.08.16,14.43,14.43,0,0,1-.56,1.42A.14.14,0,0,1,71.47,130.64ZM44,130.13a.14.14,0,0,1-.12-.07c-.19-.47-.37-1-.51-1.44a.13.13,0,0,1,.08-.16.13.13,0,0,1,.16.09c.15.47.32.95.51,1.41a.12.12,0,0,1-.07.16Zm28.45-2.35h0a.13.13,0,0,1-.09-.16c0-.18.08-.37.11-.55s.11-.62.15-.92a.13.13,0,0,1,.25,0c0,.31-.09.63-.14.94l-.12.56A.14.14,0,0,1,72.44,127.78Zm-29.32-.54a.14.14,0,0,1-.13-.1c-.09-.5-.16-1-.21-1.51a.14.14,0,0,1,.12-.14.12.12,0,0,1,.14.11,12.42,12.42,0,0,0,.21,1.49.13.13,0,0,1-.11.15Zm-.27-3h0a.13.13,0,0,1-.13-.13c0-.5,0-1,.1-1.52a.13.13,0,1,1,.25,0q-.07.75-.09,1.5A.12.12,0,0,1,42.85,124.23Zm.34-3h0a.12.12,0,0,1-.1-.15q.16-.75.39-1.47a.14.14,0,0,1,.16-.09.14.14,0,0,1,.09.17,11.76,11.76,0,0,0-.39,1.44A.13.13,0,0,1,43.19,121.23Zm.93-2.87h0a.13.13,0,0,1-.06-.17,14.37,14.37,0,0,1,.68-1.36.13.13,0,0,1,.17,0,.12.12,0,0,1,0,.18c-.24.43-.47.88-.67,1.33A.13.13,0,0,1,44.12,118.36Zm1.49-2.63a.1.1,0,0,1-.07,0,.13.13,0,0,1,0-.18c.29-.41.61-.81.94-1.19a.13.13,0,0,1,.18,0,.13.13,0,0,1,0,.19,14.78,14.78,0,0,0-.92,1.17A.13.13,0,0,1,45.61,115.73Zm2-2.27a.1.1,0,0,1-.09,0,.13.13,0,0,1,0-.18,13.79,13.79,0,0,1,1.17-1,.14.14,0,0,1,.18,0,.13.13,0,0,1,0,.18c-.39.3-.78.63-1.14,1A.16.16,0,0,1,47.6,113.46Zm2.4-1.83a.14.14,0,0,1-.11-.06.12.12,0,0,1,0-.17c.44-.27.89-.52,1.34-.74a.13.13,0,0,1,.17.06.12.12,0,0,1-.06.17c-.45.22-.89.46-1.31.72A.1.1,0,0,1,50,111.63Zm2.72-1.31a.13.13,0,0,1,0-.25c.47-.17,1-.32,1.45-.45a.13.13,0,1,1,.07.25,14.09,14.09,0,0,0-1.44.44Zm7.45-.72h0c-.5-.08-1-.13-1.49-.16a.12.12,0,0,1-.12-.13.13.13,0,0,1,.13-.13c.51,0,1,.09,1.52.17a.12.12,0,0,1,.1.14A.12.12,0,0,1,60.17,109.6Zm-4.52,0a.13.13,0,0,1-.13-.11.13.13,0,0,1,.11-.15c.5-.07,1-.12,1.52-.14a.12.12,0,0,1,.13.12.12.12,0,0,1-.12.13,12.33,12.33,0,0,0-1.49.15Z"/><path class="cls-1" d="M72.82,124.77h0a.12.12,0,0,1-.12-.13v-.77a.12.12,0,0,1,.12-.13.13.13,0,0,1,.13.13c0,.25,0,.51,0,.77A.13.13,0,0,1,72.82,124.77Z"/><path class="cls-1" d="M57.85,130.68a5.27,5.27,0,0,1-.68,0,6.4,6.4,0,0,1-5.69-7,6.29,6.29,0,0,1,2.33-4.3,6.39,6.39,0,0,1,4.7-1.4,6.54,6.54,0,0,1,.75.13.13.13,0,0,1,.1.15.14.14,0,0,1-.16.1,4.33,4.33,0,0,0-.72-.12A6.14,6.14,0,1,0,64,124.92a6.57,6.57,0,0,0,0-1.33.13.13,0,0,1,.25,0,6.4,6.4,0,0,1-6.35,7.12Z"/><path class="cls-1" d="M65.26,118.43h0a.13.13,0,0,1-.08-.16c.06-.19,6.56-11.55,7.87-13.82a.1.1,0,0,1,.08-.06.09.09,0,0,1,.09,0,20.9,20.9,0,0,1,6.49,6.66.13.13,0,0,1,0,.18.13.13,0,0,1-.17,0,20.57,20.57,0,0,0-6.29-6.5c-2.68,4.68-7.66,13.4-7.78,13.67A.14.14,0,0,1,65.26,118.43Z"/><path class="cls-1" d="M45.18,173.05h-3.1a.69.69,0,0,1-.69-.69v-9.27a.69.69,0,0,1,.69-.69h3.1a.68.68,0,0,1,.68.69v9.27A.68.68,0,0,1,45.18,173.05Zm-2.41-1.38h1.72v-7.89H42.77Z"/><path class="cls-1" d="M51.28,173.05H47.05a.69.69,0,0,1-.69-.69v-15.3a.69.69,0,0,1,.69-.69h4.23a.69.69,0,0,1,.69.69v15.3A.69.69,0,0,1,51.28,173.05Zm-3.54-1.38h2.85V157.75H47.74Z"/><path class="cls-1" d="M59.26,173.05H53.39a.69.69,0,0,1-.69-.69V153.82a.69.69,0,0,1,.69-.69h5.87a.69.69,0,0,1,.69.69v18.54A.69.69,0,0,1,59.26,173.05Zm-5.19-1.38h4.51V154.51H54.07Z"/><path class="cls-1" d="M69.9,173.05h-7a.69.69,0,0,1-.69-.69V149.93a.69.69,0,0,1,.69-.69h7a.69.69,0,0,1,.69.69v22.43A.69.69,0,0,1,69.9,173.05Zm-6.35-1.38h5.67v-21H63.55Z"/><path class="cls-73" d="M94.91,143.8a.66.66,0,0,0,0-.91L64.6,114.22a.26.26,0,0,0-.31,0,.31.31,0,0,0-.07.49l29.89,29.14A.57.57,0,0,0,94.91,143.8Z"/><path class="cls-74" d="M112.62,214.38a.66.66,0,0,1,0-.14c.65-2.72,3.87-4.42,3.87-4.42l1.27.1a10,10,0,0,1,.53,4.54l0,0A28.11,28.11,0,0,1,112.62,214.38Z"/><path class="cls-75" d="M118.28,214.51a.55.55,0,0,1-.4.43,16.22,16.22,0,0,1-4.87-.07.48.48,0,0,1-.39-.49A28.11,28.11,0,0,0,118.28,214.51Z"/><path class="cls-76" d="M123.33,166.11a12.12,12.12,0,0,0,2.76,2.14,23.16,23.16,0,0,1-5,4.77l-.62,1.48-2-2.54A11.26,11.26,0,0,0,123.33,166.11Z"/><path class="cls-77" d="M118.29,207.91l-.54,2.76a.45.45,0,0,1-.37.37,3.38,3.38,0,0,1-.83,0,.56.56,0,0,1-.43-.66l.38-2.45Z"/><path class="cls-78" d="M107.1,214.48a7,7,0,0,0,2.51-.38v.46a.29.29,0,0,1-.27.3l-7.73-.05a.38.38,0,0,1-.28-.55A53.16,53.16,0,0,0,107.1,214.48Z"/><path class="cls-79" d="M101.33,214.26a.09.09,0,0,1,0-.06,9.82,9.82,0,0,1,5.85-3.9l1.65-.06a8.7,8.7,0,0,1,.75,3.86,7,7,0,0,1-2.51.38A53.16,53.16,0,0,1,101.33,214.26Z"/><path class="cls-80" d="M109.17,207.59c0,.13-.25,2.11-.33,2.88a.37.37,0,0,1-.31.34,3.58,3.58,0,0,1-1.13,0,.53.53,0,0,1-.37-.52v-3.11Z"/><path class="cls-81" d="M110.49,171.43a165,165,0,0,0-3.9,36.21.77.77,0,0,0,.58.76,8.14,8.14,0,0,0,1.84.22.7.7,0,0,0,.66-.6c.55-3.47,3.75-23,5.58-26.18,0,0,1.2,17.4.81,26.43a.42.42,0,0,0,.36.44,6.47,6.47,0,0,0,1.48,0,.57.57,0,0,0,.48-.49c.4-2.93,2.68-20.41,2.58-33,0-.71-1.77-3.8-1.77-3.8Z"/><path class="cls-82" d="M104.39,149.84a16.83,16.83,0,0,1,3.06-4.68c4.42.85,11.68,1.61,14.7,2a3.8,3.8,0,0,1,2.44,1.38c2.46,3,7.88,11.33,1.5,19.69a12.12,12.12,0,0,1-2.76-2.14,10.91,10.91,0,0,0-.71-8.11c-.05.26-.12.52-.19.78a50.38,50.38,0,0,0-2.14,13.86.43.43,0,0,1-.26.4c-2.68,1.14-7.84.46-9.58.19a.61.61,0,0,1-.49-.7c.86-6.54-3.51-17.29-4.66-20a1.72,1.72,0,0,0-.84-.88l-.55-.28C104.05,150.86,104.21,150.34,104.39,149.84Z"/><path class="cls-83" d="M117.52,140.89l.31,5.84a.34.34,0,0,1-.25.37,5.75,5.75,0,0,1-4.31-.45A.6.6,0,0,1,113,146l1.4-5.25Z"/><path class="cls-84" d="M114.07,134.5c-.07.08-3,6.21-3,6.21l3.34,1.71,3.61-5.37S115.27,133.31,114.07,134.5Z"/><path class="cls-85" d="M116.52,137.19a.58.58,0,0,1,0,.5l-1.66,2.95-.09.12c-.2.19-.88.76-1.4,0a5,5,0,0,0-1.32-1.51.52.52,0,0,0-.72.25,23.31,23.31,0,0,0-1.14,2.87.57.57,0,0,0,.31.69,14.52,14.52,0,0,0,3.2,1,.53.53,0,0,0,.5-.23c.51-.74,2-2.81,2.44-3.33s1.3-.3,1.68-.19a.49.49,0,0,0,.42-.06,1.27,1.27,0,0,0,.44-1.89.59.59,0,0,1,.17-.77,1.29,1.29,0,0,0,.45-1.77,1.63,1.63,0,0,0-1.8-.94.55.55,0,0,1-.58-.34.34.34,0,0,0-.27-.23.54.54,0,0,1-.42-.64,1.49,1.49,0,0,0-.76-1.66c-1.44-.84-2.71.53-3,1.68s1.29,2,2.31,2.11C116,135.88,116.36,136.74,116.52,137.19Z"/><path class="cls-86" d="M116,141.56s.65-2,1.47-1.92,1.46.94.44,1.92C116.62,142.77,116,141.56,116,141.56Z"/><path class="cls-87" d="M122.89,157.49a18.61,18.61,0,0,0,.68-7l-.3,0a18.3,18.3,0,0,1-.66,6.82Z"/><path class="cls-88" d="M115.39,181.43a.16.16,0,0,0,.15-.12c.33-1.35,2.8-2.83,2.82-2.85a.17.17,0,0,0,.06-.22.16.16,0,0,0-.21-.06c-.1.07-2.6,1.57-3,3a.15.15,0,0,0,.1.19Z"/><path class="cls-89" d="M94.27,147c4.21,1.63,13.18-1.82,13.18-1.82l.61,7.78c-7.18,2.41-11.85,1.7-14.89-.32A11.1,11.1,0,0,1,94.27,147Z"/><path class="cls-90" d="M87.57,139l1.76-.37s.48,5.95,4.4,8.15c.17.09.35.17.54.25a11.1,11.1,0,0,0-1.1,5.64C87,148.51,87.57,139,87.57,139Z"/><path class="cls-91" d="M89.24,139.1l.09-.52a3,3,0,0,0-.61-2.51c-1.4-1.8-2.43-1.14-2.43-1.14a4.87,4.87,0,0,1,.07.73.31.31,0,0,1-.51.23l-2.29-2.24s-.64,3.55,4.27,6Z"/><path class="cls-92" d="M18.68,209s-.3,1.72-.45,3.43a1.17,1.17,0,0,0,1.12,1.27c2.27.09,7.13.28,8.87.2a.38.38,0,0,0,.34-.52.83.83,0,0,0-.44-.46l-8-3.69Z"/><path class="cls-93" d="M18.43,208l.25,2.06A2.56,2.56,0,0,0,21,210l-.58-2.3Z"/><path class="cls-94" d="M18.62,169.28c-.11.53-.57,26.84,2.24,38.63a.4.4,0,0,1-.23.47,6.8,6.8,0,0,1-2.29.46.68.68,0,0,1-.69-.49c-.8-2.74-4.65-16.44-5.15-29.53-.57-14.63,0-.5,0-.5l.32-9Z"/><path class="cls-95" d="M9.45,209.92a12.58,12.58,0,0,0-.95,3.18.72.72,0,0,0,.63.86c.75.07,1.91.17,2.83.16a.72.72,0,0,0,.71-.8,6,6,0,0,0-1.41-3.3Z"/><path class="cls-96" d="M9,207.27l.57,3.11a2,2,0,0,0,1.68.12L11,207.15Z"/><path class="cls-97" d="M7.49,170.08C5.19,184,8,204.39,8.93,208.39a.62.62,0,0,0,.5.47,4.16,4.16,0,0,0,1.8-.07.56.56,0,0,0,.41-.52c.13-3.24-.1-23.08,2-30.92a1.78,1.78,0,0,1,.69-1l4.16-3,.32-4.78Z"/><path class="cls-8" d="M22.14,143.78a65.1,65.1,0,0,0-14.5,1.81c-2,12-.36,25.82-.36,25.82,5.34,1.4,11.36-.86,11.36-.86.89-5,5-19.11,5-19.11a22.81,22.81,0,0,0,8.42-2.67,14.85,14.85,0,0,1-2.92-6.11A23.19,23.19,0,0,1,22.14,143.78Z"/><path class="cls-98" d="M42.5,133.63A1.31,1.31,0,0,0,41,133.2c-1,4.28-6.33,7.76-11.8,9.46a14.85,14.85,0,0,0,2.92,6.11C41.16,143.67,42.5,133.63,42.5,133.63Z"/><path class="cls-99" d="M42.34,133.84c.07.22-.75.57-1.24-.36,0-.44-.28-2.33,0-2.69a35.79,35.79,0,0,1,4.13-4.31.65.65,0,0,1,.08.9L44,128.75a5.94,5.94,0,0,1,.77,1.53,1.85,1.85,0,0,1-.18,1.36,16.24,16.24,0,0,1-.85,1.39A1.83,1.83,0,0,1,42.34,133.84Z"/><path class="cls-100" d="M43.39,129.65l-1.2,1-.38,1,1.08,1.19a14.49,14.49,0,0,1,.62-2.45C43.78,130,43.64,129.77,43.39,129.65Z"/><path class="cls-8" d="M10.29,152.27l-2.65-6.68S1.21,150,.15,155.51A15.3,15.3,0,0,1,5.74,157C6.22,154.39,10.29,152.27,10.29,152.27Z"/><path class="cls-101" d="M15.91,158.55s-7.22,4.08-9.66.59A2.74,2.74,0,0,1,5.74,157a15.3,15.3,0,0,0-5.59-1.5A7.67,7.67,0,0,0,1,160.76c4.27,7.82,15.89-.43,15.89-.43Z"/><path class="cls-102" d="M15.05,163.72,19,149.94a.41.41,0,0,1,.34-.29c.71-.08,2.79-.32,5.18-.52a58.88,58.88,0,0,1,8.22-.27.4.4,0,0,1,.33.58c-1.14,2.3-5.81,11.65-8.15,14.71a.37.37,0,0,1-.33.16l-9.15-.08A.39.39,0,0,1,15.05,163.72Z"/><path class="cls-103" d="M24.92,147.93l2.86-.47a.21.21,0,0,1,.23.26l-.29.86a.19.19,0,0,1-.17.14l-2.75.37a.2.2,0,0,1-.22-.25l.17-.75A.22.22,0,0,1,24.92,147.93Z"/><path class="cls-104" d="M22.77,150.36l.24-1.23a.29.29,0,0,1,.25-.23l5.78-.59a.28.28,0,0,1,.3.35L29,150.19a.28.28,0,0,1-.26.22l-5.64.28A.28.28,0,0,1,22.77,150.36Z"/><path class="cls-105" d="M16,160.39a10.06,10.06,0,0,1-.33-3.06c.22-.81.65-1.84,2.08-1.61a20.85,20.85,0,0,1,3.12.83.82.82,0,0,1-1.17.71l.68.52s-.1.84-1,.39l.63.7a.73.73,0,0,1-1.07.24C18.24,158.67,17.92,160.66,16,160.39Z"/><path class="cls-106" d="M15.16,138.19,13,144.53a.21.21,0,0,0,.1.27,5.13,5.13,0,0,0,5.35-.36,1.06,1.06,0,0,0,.49-.76l.71-5.49Z"/><path class="cls-107" d="M19.93,132.31s2.41,4.54,2.1,6.37-3.29,1.7-5.9.21L14.31,134Z"/><path class="cls-108" d="M16.25,136.49a.2.2,0,0,0,.08-.28,4.7,4.7,0,0,1-.67-1.42s-.43-.28,1.1-.64,3.82-.94,4.31-2.25-.77-4.48-2.73-1.92a.19.19,0,0,1-.3,0,1.92,1.92,0,0,0-2.35-.76,1.77,1.77,0,0,0-1.21,1.7.18.18,0,0,1-.22.19,2.16,2.16,0,0,0-2.51,1.18,1.73,1.73,0,0,0,.12,2.08.18.18,0,0,1-.08.31A1.12,1.12,0,0,0,11,136c.07,1.18,1.39,1.08,1.77,1a.19.19,0,0,1,.16.06,6.36,6.36,0,0,0,3.36,2.06.19.19,0,0,0,.2-.25l-.68-2a.19.19,0,0,1,.1-.23Z"/><path class="cls-109" d="M16.52,136.77s-1.71-1.18-1.84-.19,1.55,1.44,2.37,1.07Z"/><path class="cls-110" d="M22.47,116.3c0-.21-.23-.4-.59-.54.39-.22.61-.45.59-.68,0-.7-2.25-1.09-4.91-.87s-4.76,1-4.71,1.64c0,.21.23.4.6.54-.4.22-.62.45-.6.68s.23.4.6.54c-.4.22-.62.45-.6.68s.23.4.6.54c-.4.22-.62.46-.6.69s.47.55,1.19.71a4.82,4.82,0,0,0,0,.75c.1,1.28,1.54,2.28,3.44,2.28s3.56-1.36,3.57-2.65a5.4,5.4,0,0,0,0-.83c.91-.31,1.46-.68,1.43-1,0-.21-.23-.39-.59-.54.39-.22.61-.45.59-.68s-.23-.39-.59-.54C22.27,116.76,22.49,116.53,22.47,116.3Z"/><path class="cls-111" d="M16.33,120.51a11.93,11.93,0,0,1-2.11-.17.08.08,0,0,1-.05-.08.07.07,0,0,1,.08-.05,13.56,13.56,0,0,0,3.51.11,14.68,14.68,0,0,0,2.94-.51.06.06,0,0,1,.08,0,.07.07,0,0,1,0,.08,15.91,15.91,0,0,1-3,.51C17.28,120.49,16.79,120.51,16.33,120.51Z"/><path class="cls-112" d="M16.35,119.29a10.17,10.17,0,0,1-2.59-.28.07.07,0,0,1,0-.13,12.32,12.32,0,0,0,4,.22,12.42,12.42,0,0,0,3.86-.84.06.06,0,0,1,.08,0,.07.07,0,0,1,0,.09,12.91,12.91,0,0,1-3.9.85C17.28,119.27,16.8,119.29,16.35,119.29Z"/><path class="cls-113" d="M16.33,118.07a9.58,9.58,0,0,1-2.73-.33.07.07,0,0,1,0-.08.06.06,0,0,1,.08,0,11.79,11.79,0,0,0,4.12.26,12.72,12.72,0,0,0,3.86-.84.06.06,0,0,1,.08,0,.07.07,0,0,1,0,.09,12.91,12.91,0,0,1-3.9.85C17.28,118.05,16.79,118.07,16.33,118.07Z"/><path class="cls-114" d="M16.34,116.84a11.64,11.64,0,0,1-2.3-.2.09.09,0,0,1,0-.08.07.07,0,0,1,.08,0,13.35,13.35,0,0,0,3.69.15,13,13,0,0,0,3.84-.83.06.06,0,0,1,0,.11,12.54,12.54,0,0,1-3.88.85C17.28,116.83,16.8,116.84,16.34,116.84Z"/><path class="cls-8" d="M11.07,110.13A8.93,8.93,0,0,0,9.46,107,20.79,20.79,0,0,1,5,95.41c-.46-8,6.68-12.07,13.19-11.53s12.94,5.4,12.24,12.89a17.31,17.31,0,0,1-4.94,10.1,10.91,10.91,0,0,0-2.56,4.54c-.57,2.08-1.94,4.67-5.2,4.83C13.49,116.44,11.74,112.51,11.07,110.13Z"/><path class="cls-115" d="M18.79,114.63l2.27-14.82c.05-.3.2-.51.34-.46s.21.35.17.65v0L19,114.71c0,.11-.08.18-.13.16S18.77,114.74,18.79,114.63Z"/><path class="cls-115" d="M16.42,114.75,14.14,99.93c-.05-.31-.2-.51-.34-.46s-.21.34-.16.65v0l2.6,14.68c0,.11.07.18.12.16A.24.24,0,0,0,16.42,114.75Z"/><path class="cls-115" d="M21.05,98.54a.24.24,0,0,0-.3-.08l-1.27.59L19,97.8a.29.29,0,0,0-.15-.16.32.32,0,0,0-.39.12h0l-1,1.9-1-2.71h0a.28.28,0,0,0-.15-.17.38.38,0,0,0-.48.1l-1.45,2a.17.17,0,0,0,0,.25.26.26,0,0,0,.31,0L16,97.68l1.16,2.58h0a.19.19,0,0,0,.1.1.23.23,0,0,0,.3-.08l1.12-1.79.42.91h0a.24.24,0,0,0,.3.08L21,98.8A.18.18,0,0,0,21.05,98.54Z"/><path class="cls-115" d="M25.52,105.21a.51.51,0,0,1-.31-.11.52.52,0,0,1-.11-.74,17.32,17.32,0,0,0,1-1.59.53.53,0,0,1,.92.54A17.39,17.39,0,0,1,26,105,.53.53,0,0,1,25.52,105.21Z"/><path class="cls-115" d="M27.4,102a.54.54,0,0,1-.21,0,.53.53,0,0,1-.28-.7,13.29,13.29,0,0,0,.31-10,.53.53,0,0,1,1-.44,14.15,14.15,0,0,1-.3,10.92A.54.54,0,0,1,27.4,102Z"/></g></g></svg>