<svg xmlns="http://www.w3.org/2000/svg" xmlns:xlink="http://www.w3.org/1999/xlink" viewBox="0 0 271.96 226.55"><defs><style>.cls-1{isolation:isolate;}.cls-2,.cls-23{fill:#1a2089;}.cls-3{fill:#4cc2fc;}.cls-4{fill:#5d4efa;}.cls-5{fill:#eaf5fa;}.cls-6{fill:#0a63a7;}.cls-7{fill:#cbe0f4;}.cls-21,.cls-8{mix-blend-mode:multiply;}.cls-9{fill:#c9c5c4;}.cls-10{fill:#497dbb;}.cls-11{fill:#cbe1f5;}.cls-12{fill:url(#linear-gradient);}.cls-13{fill:#0e558a;}.cls-14{fill:#233768;}.cls-15{fill:#f7c8c9;}.cls-16{fill:#eda9b2;}.cls-17{fill:#2570b1;}.cls-18{fill:#f7ccd1;}.cls-19{fill:#f6c6c6;}.cls-20,.cls-21{fill:#8cc0e7;}.cls-21{opacity:0.5;}.cls-22{fill:#fff;opacity:0.64;}.cls-23{opacity:0.35;}.cls-24{fill:#b56cf7;}.cls-25{fill:#2571ae;}.cls-26{fill:#f4b4a7;}.cls-27{fill:#233868;}.cls-28{fill:#a4d0ef;}.cls-29{fill:#6ea2d2;}.cls-30{fill:#2570b0;}</style><linearGradient id="linear-gradient" x1="101.91" y1="60.34" x2="114.73" y2="60.34" gradientUnits="userSpaceOnUse"><stop offset="0.06" stop-color="#e0f0fb"/><stop offset="0.9" stop-color="#fff"/></linearGradient></defs><title>minimal_investment</title><g class="cls-1"><g id="Layer_2" data-name="Layer 2"><g id="Layer_1-2" data-name="Layer 1"><path class="cls-2" d="M124.9,17.65a4.38,4.38,0,1,1,4.38-4.38A4.39,4.39,0,0,1,124.9,17.65Zm0-8.23a3.85,3.85,0,1,0,3.84,3.85A3.85,3.85,0,0,0,124.9,9.42Z"/><path class="cls-2" d="M126.76,23.14h-3.64l-.26-1.35a8.4,8.4,0,0,1-2.46-1l-1.13.79L116.7,19l.77-1.12a8.63,8.63,0,0,1-1-2.47l-1.35-.24V11.52l1.34-.25a8.87,8.87,0,0,1,1-2.47l-.78-1.13,2.57-2.57,1.13.77a8.73,8.73,0,0,1,2.46-1l.24-1.35h3.64L127,4.83a8.49,8.49,0,0,1,2.47,1l1.13-.79,2.57,2.57-.77,1.13a8.63,8.63,0,0,1,1,2.47l1.35.24v3.64l-1.34.25a8.6,8.6,0,0,1-1,2.47l.79,1.12-2.57,2.58-1.13-.77a8.66,8.66,0,0,1-2.46,1Zm-3.2-.54h2.75l.22-1.26.18,0a8,8,0,0,0,2.61-1.09l.15-.09,1.05.72,1.95-1.95-.74-1.05.1-.15a8.16,8.16,0,0,0,1.08-2.62l0-.17,1.25-.24V11.91l-1.26-.22,0-.17a8.37,8.37,0,0,0-1.09-2.62l-.1-.15.72-1-1.94-1.95-1.05.74-.15-.1a8.35,8.35,0,0,0-2.62-1.08l-.18,0L126.26,4h-2.75l-.23,1.26-.17,0a8.37,8.37,0,0,0-2.62,1.09l-.14.1-1.06-.72-1.94,1.94.73,1-.09.15a8,8,0,0,0-1.08,2.63l0,.17-1.25.23v2.75l1.26.23,0,.17A7.92,7.92,0,0,0,118,17.73l.09.15-.72,1.05,2,1.94,1-.73.15.1a8.1,8.1,0,0,0,2.62,1.07l.17,0Z"/><path class="cls-2" d="M125.08,26v-.37a13.57,13.57,0,0,0,1.43-.14l.06.36A12.16,12.16,0,0,1,125.08,26Zm-1.47,0a14.05,14.05,0,0,1-1.47-.19l.06-.35a13.61,13.61,0,0,0,1.43.17Zm4.39-.46-.1-.35a12.84,12.84,0,0,0,1.36-.47l.14.34A12.81,12.81,0,0,1,128,25.53Zm-7.3-.07a13.59,13.59,0,0,1-1.39-.51l.14-.34a13.73,13.73,0,0,0,1.35.5Zm10-1.05-.17-.32a13.83,13.83,0,0,0,1.22-.76l.21.29A11.6,11.6,0,0,1,130.73,24.41ZM118,24.28a10.15,10.15,0,0,1-1.24-.81l.22-.29a12.43,12.43,0,0,0,1.2.79Zm15.15-1.58-.24-.27a12.27,12.27,0,0,0,1-1l.27.24A13,13,0,0,1,133.14,22.7Zm-17.53-.17a14.68,14.68,0,0,1-1-1.07l.27-.24a10.94,10.94,0,0,0,1,1Zm19.5-2-.3-.22a11.82,11.82,0,0,0,.76-1.22l.32.18A13.81,13.81,0,0,1,135.11,20.5Zm-21.42-.22a11.52,11.52,0,0,1-.76-1.27l.33-.17a11.85,11.85,0,0,0,.73,1.24Zm22.84-2.38-.34-.14a10.88,10.88,0,0,0,.46-1.36l.36.1C136.87,17,136.71,17.45,136.53,17.9Zm-24.21-.24c-.17-.45-.32-.93-.45-1.4l.36-.1a12.13,12.13,0,0,0,.43,1.37Zm25-2.6L137,15a13.57,13.57,0,0,0,.14-1.43h.37A12.16,12.16,0,0,1,137.32,15.06Zm-25.73-.26a12,12,0,0,1-.12-1.47h.36a11.33,11.33,0,0,0,.12,1.43Zm.24-1.79h-.37a12.12,12.12,0,0,1,.09-1.48l.36,0A13.74,13.74,0,0,0,111.83,13Zm25.26-.88c0-.48-.1-1-.18-1.43l.36-.06a14.2,14.2,0,0,1,.18,1.46Zm-24.94-2-.35-.08a13.6,13.6,0,0,1,.41-1.42l.34.12A13.55,13.55,0,0,0,112.15,10.15Zm24.42-.84a12.07,12.07,0,0,0-.5-1.35l.33-.15a11.57,11.57,0,0,1,.51,1.39ZM113.11,7.45l-.32-.17A12.35,12.35,0,0,1,113.51,6l.31.19A12,12,0,0,0,113.11,7.45Zm22.31-.78c-.24-.41-.51-.81-.79-1.2l.29-.21a12.42,12.42,0,0,1,.81,1.23ZM114.66,5l-.28-.23a14.81,14.81,0,0,1,1-1.1l.25.27A12.19,12.19,0,0,0,114.66,5Zm19.05-.66a13.85,13.85,0,0,0-1-1l.23-.28a11.49,11.49,0,0,1,1.07,1ZM116.72,3l-.23-.29a14.65,14.65,0,0,1,1.22-.84l.19.31A12.37,12.37,0,0,0,116.72,3Zm14.8-.51a11.93,11.93,0,0,0-1.24-.74l.17-.32a13.25,13.25,0,0,1,1.27.75Zm-12.35-1L119,1.19a13.6,13.6,0,0,1,1.38-.54l.11.35A10.83,10.83,0,0,0,119.17,1.53Zm9.8-.34A13.63,13.63,0,0,0,127.6.75l.09-.35a13.56,13.56,0,0,1,1.41.44ZM121.89.62l-.07-.35a12,12,0,0,1,1.46-.22l0,.36C122.84.46,122.36.53,121.89.62Zm4.3-.14a14,14,0,0,0-1.44-.12V0a12.3,12.3,0,0,1,1.48.12Z"/><path class="cls-2" d="M123.72,76.13h-.23v-.67h.23Zm0-1.59h-.23v-.92h.23Zm0-1.83h-.23v-.92h.23Zm0-1.84h-.23V70h.23Zm0-1.83h-.23v-.91h.23Zm0-1.83h-.23v-.92h.23Zm0-1.83h-.23v-.92h.23Zm0-1.83h-.23v-.92h.23Zm0-1.84h-.23V60.8h.23Zm0-1.83h-.23V59h.23Zm0-1.83h-.23v-.92h.23Zm0-1.83h-.23V55.3h.23Zm0-1.84h-.23v-.91h.23Zm0-1.83h-.23v-.91h.23Zm0-1.83h-.23V49.8h.23Zm0-1.83h-.23V48h.23Zm0-1.83h-.23v-.92h.23Zm0-1.84h-.23v-.91h.23Zm0-1.83h-.23v-.91h.23Zm0-1.83h-.23v-.92h.23Zm0-1.83h-.23v-.92h.23Zm0-1.84h-.23V37h.23Zm0-1.83h-.23v-.91h.23Zm0-1.83h-.23v-.92h.23Zm0-1.83h-.23v-.92h.23Zm0-1.83h-.23v-.92h.23Zm0-1.84h-.23v-.91h.23Zm0-1.83h-.23V26h.23Z"/><path class="cls-3" d="M51,161.62v-97C51,59.32,55,55,60,55H212.47c4.92,0,8.92,4.32,8.92,9.64v97Z"/><path class="cls-2" d="M212.47,56.07c4.37,0,7.92,3.84,7.92,8.57v95.91H52V64.64c0-4.73,3.56-8.57,7.93-8.57Zm0-2.14H60c-5.47,0-9.91,4.79-9.91,10.71V162.7H222.38V64.64c0-5.92-4.44-10.71-9.91-10.71Z"/><rect class="cls-4" x="58.9" y="63.49" width="154.63" height="89.65"/><rect class="cls-5" x="61.96" y="67.18" width="25.58" height="4.32"/><rect class="cls-5" x="123.13" y="67.18" width="16.52" height="2.74"/><rect class="cls-5" x="144.71" y="67.18" width="16.52" height="2.74"/><rect class="cls-5" x="166.29" y="67.18" width="16.52" height="2.74"/><rect class="cls-5" x="187.87" y="67.18" width="16.52" height="2.74"/><rect class="cls-3" x="63.02" y="77.25" width="144.41" height="69.52"/><path class="cls-6" d="M248.54,225.45v-4.17h-.62v.4L222.39,165a1,1,0,0,0-.91-.59l-172.88.28a1,1,0,0,0-.93.63L25.29,221.35h-.71v4.19h0v0h0a1,1,0,0,0,1,1l222,0A1,1,0,0,0,248.54,225.45Z"/><path class="cls-2" d="M247.54,222.3l-221.95,0a1,1,0,0,1-.93-1.37l23-57.66a5.5,5.5,0,0,1,.93-1.87l172.88-.29a12.13,12.13,0,0,0,.91,1.84l26.06,57.92A1,1,0,0,1,247.54,222.3Z"/><polygon class="cls-4" points="215.06 197.93 56.84 198.04 67.07 167.23 203.36 167 215.06 197.93"/><path class="cls-7" d="M77.39,196.82H66.68a.45.45,0,0,1-.4-.6L67.54,192a.41.41,0,0,1,.39-.32H78.42a.45.45,0,0,1,.4.58l-1,4.22A.42.42,0,0,1,77.39,196.82Z"/><path class="cls-2" d="M92.61,195.81H81.88a.45.45,0,0,1-.4-.57l.94-4.22a.44.44,0,0,1,.41-.36h10.5a.45.45,0,0,1,.41.55L93,195.43A.44.44,0,0,1,92.61,195.81Z"/><path class="cls-2" d="M161.85,190.6H125.57l-11.33,0H98.73a.44.44,0,0,0-.42.39l-.63,4.22a.45.45,0,0,0,.41.54l15.76,0h59.83a.45.45,0,0,0,.41-.56l-.84-4.24a.43.43,0,0,0-.41-.36Z"/><path class="cls-2" d="M189.89,195.74H179.17a.41.41,0,0,1-.4-.35l-.93-4.23a.46.46,0,0,1,.41-.57h10.49a.42.42,0,0,1,.4.33l1.15,4.23A.46.46,0,0,1,189.89,195.74Z"/><path class="cls-2" d="M206.09,195.72H195.4a.42.42,0,0,1-.4-.32l-1.24-4.24a.46.46,0,0,1,.4-.6h10.47a.41.41,0,0,1,.39.3l1.46,4.24A.45.45,0,0,1,206.09,195.72Z"/><path class="cls-2" d="M85.74,183.47H84.11l-15,0a.43.43,0,0,0-.4.32L67.42,188a.46.46,0,0,0,.4.6h26a.44.44,0,0,0,.41-.38L95,184a.45.45,0,0,0-.41-.55Z"/><path class="cls-2" d="M109.53,188.59H99.17a.45.45,0,0,1-.41-.54l.63-4.22a.45.45,0,0,1,.42-.39h10.13a.45.45,0,0,1,.42.51l-.41,4.23A.45.45,0,0,1,109.53,188.59Z"/><path class="cls-2" d="M125.21,188.57H114.85a.45.45,0,0,1-.42-.5l.33-4.22a.43.43,0,0,1,.41-.42l10.14,0a.44.44,0,0,1,.42.48l-.1,4.22A.44.44,0,0,1,125.21,188.57Z"/><path class="cls-2" d="M140.9,188.56H130.53a.45.45,0,0,1-.42-.46v-4.23a.45.45,0,0,1,.42-.46h10.14a.43.43,0,0,1,.42.43l.22,4.23A.45.45,0,0,1,140.9,188.56Z"/><path class="cls-2" d="M156.58,188.54H146.22a.44.44,0,0,1-.42-.42l-.3-4.23a.44.44,0,0,1,.42-.5h10.13a.44.44,0,0,1,.42.4L157,188A.44.44,0,0,1,156.58,188.54Z"/><path class="cls-2" d="M172.26,188.53H161.91a.44.44,0,0,1-.42-.39l-.61-4.23a.45.45,0,0,1,.41-.54h10.13a.43.43,0,0,1,.41.36l.83,4.24A.45.45,0,0,1,172.26,188.53Z"/><path class="cls-2" d="M187.09,183.35H176.67a.46.46,0,0,0-.41.57l.93,4.24a.42.42,0,0,0,.41.35h26a.47.47,0,0,0,.4-.63l-1.46-4.24a.44.44,0,0,0-.4-.3Z"/><path class="cls-2" d="M83.17,176.27h-12a.43.43,0,0,0-.4.32l-1.25,4.22a.45.45,0,0,0,.4.6H87.9a.43.43,0,0,0,.41-.36l.87-4.22a.46.46,0,0,0-.41-.57Z"/><path class="cls-2" d="M102.65,181.39h-10a.45.45,0,0,1-.41-.55l.79-4.22a.43.43,0,0,1,.41-.37l9.75,0a.45.45,0,0,1,.41.53l-.56,4.23A.44.44,0,0,1,102.65,181.39Z"/><path class="cls-2" d="M117.81,181.37h-10a.44.44,0,0,1-.42-.51l.48-4.23a.42.42,0,0,1,.41-.4l9.76,0a.45.45,0,0,1,.42.49l-.26,4.23A.43.43,0,0,1,117.81,181.37Z"/><path class="cls-2" d="M133,181.35l-10,0a.45.45,0,0,1-.42-.49l.16-4.22a.44.44,0,0,1,.42-.44l9.76,0a.44.44,0,0,1,.42.46l.06,4.23A.45.45,0,0,1,133,181.35Z"/><path class="cls-2" d="M148.11,181.34h-10a.44.44,0,0,1-.42-.45l-.15-4.23a.45.45,0,0,1,.42-.48h9.76a.44.44,0,0,1,.42.42l.37,4.23A.46.46,0,0,1,148.11,181.34Z"/><path class="cls-2" d="M163.26,181.32h-10a.43.43,0,0,1-.41-.41l-.46-4.23a.45.45,0,0,1,.41-.52h9.76a.44.44,0,0,1,.41.38l.68,4.23A.45.45,0,0,1,163.26,181.32Z"/><path class="cls-2" d="M178.4,181.3h-10a.43.43,0,0,1-.41-.37l-.77-4.24a.45.45,0,0,1,.41-.55h9.74a.43.43,0,0,1,.41.35l1,4.23A.46.46,0,0,1,178.4,181.3Z"/><path class="cls-2" d="M193.87,176.12H182.26a.45.45,0,0,0-.4.59l1.07,4.23a.43.43,0,0,0,.41.34h17.78a.46.46,0,0,0,.39-.62l-1.46-4.24a.42.42,0,0,0-.39-.3Z"/><path class="cls-7" d="M82.68,175.22H73.11a.45.45,0,0,1-.4-.6L74,170.41a.41.41,0,0,1,.39-.32l9.35,0a.45.45,0,0,1,.4.58l-1,4.23A.42.42,0,0,1,82.68,175.22Z"/><path class="cls-2" d="M96.3,174.2H86.72a.46.46,0,0,1-.41-.57l1-4.22a.42.42,0,0,1,.4-.36H97a.45.45,0,0,1,.41.55l-.72,4.22A.45.45,0,0,1,96.3,174.2Z"/><path class="cls-2" d="M110.93,174.17l-9.6,0a.45.45,0,0,1-.41-.54l.63-4.22A.44.44,0,0,1,102,169l9.38,0a.46.46,0,0,1,.42.52l-.41,4.22A.44.44,0,0,1,110.93,174.17Z"/><path class="cls-2" d="M125.55,174.15l-9.6,0a.44.44,0,0,1-.42-.5l.32-4.23a.44.44,0,0,1,.42-.42l9.38,0a.44.44,0,0,1,.42.47l-.1,4.23A.44.44,0,0,1,125.55,174.15Z"/><path class="cls-2" d="M140.17,174.13h-9.6a.44.44,0,0,1-.42-.46v-4.23a.45.45,0,0,1,.42-.46H140a.44.44,0,0,1,.42.43l.21,4.23A.45.45,0,0,1,140.17,174.13Z"/><path class="cls-2" d="M154.79,174.11h-9.6a.44.44,0,0,1-.42-.42l-.3-4.23a.44.44,0,0,1,.42-.5l9.38,0a.43.43,0,0,1,.41.4l.53,4.23A.46.46,0,0,1,154.79,174.11Z"/><path class="cls-2" d="M169.41,174.09h-9.59a.43.43,0,0,1-.42-.39l-.61-4.23a.46.46,0,0,1,.41-.54h9.37a.43.43,0,0,1,.41.36l.83,4.24A.45.45,0,0,1,169.41,174.09Z"/><path class="cls-2" d="M184,174.07h-9.58a.44.44,0,0,1-.41-.35l-.92-4.24a.46.46,0,0,1,.41-.57h9.35a.41.41,0,0,1,.4.32l1.15,4.24A.46.46,0,0,1,184,174.07Z"/><path class="cls-2" d="M198.63,174l-9.56,0a.43.43,0,0,1-.4-.32l-1.23-4.24a.45.45,0,0,1,.39-.6l9.34,0a.42.42,0,0,1,.39.3l1.46,4.24A.46.46,0,0,1,198.63,174Z"/><path class="cls-4" d="M172.27,218.31H99.79c-3.28,0-5.8-1-5.61-2.26L96,203.91c.19-1.25,2.82-2.26,5.88-2.26l67.43,0c3.06,0,5.75,1,6,2.26l2.44,12.18C178,217.3,175.55,218.31,172.27,218.31Z"/><g class="cls-8"><rect class="cls-9" x="111.34" y="221.82" width="47.93" height="1.5" rx="0.47"/></g><path class="cls-2" d="M77.39,196.25H66.68a.45.45,0,0,1-.4-.6l1.26-4.22a.41.41,0,0,1,.39-.32H78.42a.45.45,0,0,1,.4.58l-1,4.23A.42.42,0,0,1,77.39,196.25Z"/><path class="cls-2" d="M92.61,195.23H81.88a.45.45,0,0,1-.4-.57l.94-4.22a.43.43,0,0,1,.41-.35h10.5a.45.45,0,0,1,.41.54L93,194.86A.43.43,0,0,1,92.61,195.23Z"/><path class="cls-2" d="M161.85,190H98.73a.45.45,0,0,0-.42.39l-.63,4.22a.45.45,0,0,0,.41.54h75.59a.45.45,0,0,0,.41-.56l-.84-4.23a.44.44,0,0,0-.41-.37Z"/><path class="cls-2" d="M189.89,195.16H179.17a.42.42,0,0,1-.4-.36l-.93-4.23a.46.46,0,0,1,.41-.57h10.49a.42.42,0,0,1,.4.33l1.15,4.24A.45.45,0,0,1,189.89,195.16Z"/><path class="cls-2" d="M206.09,195.15H195.4a.4.4,0,0,1-.4-.32l-1.24-4.23a.46.46,0,0,1,.4-.61h10.47a.41.41,0,0,1,.39.3l1.46,4.24A.46.46,0,0,1,206.09,195.15Z"/><path class="cls-2" d="M85.74,182.89H84.11l-15,0a.43.43,0,0,0-.4.32l-1.26,4.22a.46.46,0,0,0,.4.6h26a.44.44,0,0,0,.41-.38l.72-4.22a.45.45,0,0,0-.41-.55Z"/><path class="cls-2" d="M109.53,188H99.17a.44.44,0,0,1-.41-.53l.63-4.23a.44.44,0,0,1,.42-.38l10.13,0a.46.46,0,0,1,.42.52L110,187.6A.44.44,0,0,1,109.53,188Z"/><path class="cls-2" d="M125.21,188H114.85a.45.45,0,0,1-.42-.5l.33-4.23a.43.43,0,0,1,.41-.42h10.14a.44.44,0,0,1,.42.47l-.1,4.23A.44.44,0,0,1,125.21,188Z"/><path class="cls-2" d="M140.9,188H130.53a.44.44,0,0,1-.42-.46V183.3a.45.45,0,0,1,.42-.46h10.14a.43.43,0,0,1,.42.43l.22,4.24A.44.44,0,0,1,140.9,188Z"/><path class="cls-2" d="M156.58,188H146.22a.45.45,0,0,1-.42-.43l-.3-4.23a.44.44,0,0,1,.42-.5h10.13a.44.44,0,0,1,.42.4l.52,4.23A.45.45,0,0,1,156.58,188Z"/><path class="cls-2" d="M172.26,188H161.91a.43.43,0,0,1-.42-.39l-.61-4.23a.44.44,0,0,1,.41-.53l10.13,0a.43.43,0,0,1,.41.37l.83,4.23A.45.45,0,0,1,172.26,188Z"/><path class="cls-2" d="M187.09,182.78H176.67a.46.46,0,0,0-.41.57l.93,4.23a.43.43,0,0,0,.41.36h26a.46.46,0,0,0,.4-.63l-1.46-4.23a.44.44,0,0,0-.4-.3Z"/><path class="cls-2" d="M83.17,175.69h-12a.43.43,0,0,0-.4.32l-1.25,4.22a.45.45,0,0,0,.4.6H87.9a.43.43,0,0,0,.41-.36l.87-4.22a.45.45,0,0,0-.41-.56Z"/><path class="cls-2" d="M102.65,180.81l-10,0a.45.45,0,0,1-.41-.56l.79-4.22a.43.43,0,0,1,.41-.37h9.75a.45.45,0,0,1,.41.53l-.56,4.22A.43.43,0,0,1,102.65,180.81Z"/><path class="cls-2" d="M117.81,180.8h-10a.45.45,0,0,1-.42-.52l.48-4.23a.42.42,0,0,1,.41-.4h9.76a.44.44,0,0,1,.42.49l-.26,4.22A.43.43,0,0,1,117.81,180.8Z"/><path class="cls-2" d="M133,180.78H123a.44.44,0,0,1-.42-.48l.16-4.23a.44.44,0,0,1,.42-.44l9.76,0a.45.45,0,0,1,.42.46l.06,4.23A.45.45,0,0,1,133,180.78Z"/><path class="cls-2" d="M148.11,180.76h-10a.44.44,0,0,1-.42-.44l-.15-4.23a.44.44,0,0,1,.42-.48l9.76,0a.44.44,0,0,1,.42.42l.37,4.23A.45.45,0,0,1,148.11,180.76Z"/><path class="cls-2" d="M163.26,180.74h-10a.42.42,0,0,1-.41-.4l-.46-4.24a.44.44,0,0,1,.41-.51l9.76,0a.44.44,0,0,1,.41.38l.68,4.24A.45.45,0,0,1,163.26,180.74Z"/><path class="cls-2" d="M178.4,180.72h-10a.43.43,0,0,1-.41-.37l-.77-4.23a.45.45,0,0,1,.41-.55l9.74,0a.43.43,0,0,1,.41.35l1,4.23A.45.45,0,0,1,178.4,180.72Z"/><path class="cls-2" d="M193.87,175.54H182.26a.45.45,0,0,0-.4.58l1.07,4.24a.43.43,0,0,0,.41.34h17.78a.46.46,0,0,0,.39-.62l-1.46-4.24a.42.42,0,0,0-.39-.3Z"/><path class="cls-2" d="M82.68,174.64H73.11a.45.45,0,0,1-.4-.6L74,169.83a.41.41,0,0,1,.39-.32h9.35a.45.45,0,0,1,.4.58l-1,4.22A.42.42,0,0,1,82.68,174.64Z"/><path class="cls-2" d="M96.3,173.62H86.72a.46.46,0,0,1-.41-.57l1-4.22a.41.41,0,0,1,.4-.35l9.37,0a.45.45,0,0,1,.41.55l-.72,4.22A.44.44,0,0,1,96.3,173.62Z"/><path class="cls-2" d="M110.93,173.6h-9.6a.45.45,0,0,1-.41-.54l.63-4.22a.45.45,0,0,1,.41-.39h9.38a.45.45,0,0,1,.42.51l-.41,4.22A.45.45,0,0,1,110.93,173.6Z"/><path class="cls-2" d="M125.55,173.57l-9.6,0a.44.44,0,0,1-.42-.5l.32-4.23a.44.44,0,0,1,.42-.42l9.38,0a.44.44,0,0,1,.42.48l-.1,4.23A.43.43,0,0,1,125.55,173.57Z"/><path class="cls-2" d="M140.17,173.55l-9.6,0a.45.45,0,0,1-.42-.47v-4.22a.44.44,0,0,1,.42-.46l9.38,0a.44.44,0,0,1,.42.44l.21,4.23A.44.44,0,0,1,140.17,173.55Z"/><path class="cls-2" d="M154.79,173.53l-9.6,0a.45.45,0,0,1-.42-.43l-.3-4.23a.44.44,0,0,1,.42-.5h9.38a.43.43,0,0,1,.41.4l.53,4.23A.46.46,0,0,1,154.79,173.53Z"/><path class="cls-2" d="M169.41,173.51h-9.59a.43.43,0,0,1-.42-.38l-.61-4.24a.44.44,0,0,1,.41-.53l9.37,0a.43.43,0,0,1,.41.37l.83,4.23A.45.45,0,0,1,169.41,173.51Z"/><path class="cls-2" d="M184,173.49h-9.58a.43.43,0,0,1-.41-.35l-.92-4.24a.46.46,0,0,1,.41-.57h9.35a.42.42,0,0,1,.4.33l1.15,4.23A.46.46,0,0,1,184,173.49Z"/><path class="cls-2" d="M198.63,173.47h-9.56a.43.43,0,0,1-.4-.32l-1.23-4.24a.45.45,0,0,1,.39-.6l9.34,0a.42.42,0,0,1,.39.3l1.46,4.24A.47.47,0,0,1,198.63,173.47Z"/><path class="cls-4" d="M235.66,84.17c-.67-1.18,3.44-3.83,2.47-6.77-.52-1.58-2.2-2.34-2-4.09.1-1.14.89-1.62.64-2-.38-.63-2.39.07-5.7.86-5.79,1.38-7.06,1-7.63.75a6,6,0,0,1-2.54-2,38.85,38.85,0,0,1-30.58-23.62h0c-2.9,1.25-3.13,4.1-4.94,3.95a19.74,19.74,0,0,1-2.58-1.29c-.29-2.63-.67-3.2-1-3.23-.83-.07-2.48,4-1.13,5.65.47.56,1.12.62,1.29,1.29.23.87-.76,1.27-.8,2.26-.07,1.6,2.53,2,2.9,4,.26,1.41-.81,2.17-.32,2.9s2.22,0,4.19.32c2.53.48,3,2.6,7.1,6.78a32.56,32.56,0,0,0,4.67,4.19c4.55,3.24,7.33,3,8.07,5,.8,2.21-1.13,5-2.91,6.45a9,9,0,0,1-6.73,1.61,10.35,10.35,0,0,1-1.39-.27,38.87,38.87,0,0,0,41.36-2.16C236.78,84.81,235.9,84.61,235.66,84.17Z"/><path class="cls-10" d="M182.24,69.76c.35-1.81,1.58-2.36,1.37-4.19-.26-2.19-2.14-2.36-2.54-5-.21-1.35.16-2.09-.45-3.51a10,10,0,0,0-1.21-1.85,8.62,8.62,0,0,1-1.08-4.64c-.07-1.57-.25-3.53-.54-5.94a39.31,39.31,0,0,0-.91,8.4,38.73,38.73,0,0,0,14,29.83c-1-1.06-2.16-2.32-3.46-3.78C183.92,75.19,181.68,72.6,182.24,69.76Z"/><path class="cls-4" d="M220.07,61.7c1.21-1.45,2.87-1.39,3.55-3.12.39-1-.29-1.5.1-2.36.49-1.09,1.72-1.09,3.82-1.88,3.7-1.4,4.55-3.15,6-2.58,1.05.41.76,1.43,2,2.15,2,1.09,4.88-.06,4.89-.7,0-.34-.79-.49-.75-.81s1.31-.33,2.74-.91c.71-.29,2.3-.94,2.69-2.31.31-1.11-.2-2.51-.92-2.69s-1.37,1.18-2.09,1-1.08-1.52-.75-2.58a2.32,2.32,0,0,1,.45-.82c-.43.14-.87.27-1.31.39a1.33,1.33,0,0,1-.11.91c-.37.72-1.09.6-1.24,1.24-.22.94,1.18,1.84.92,2.25-.14.22-.66.18-1,.06-1.25-.41-1.16-1.82-2.31-2.69-1.34-1-3.35-.55-3.38-.32s3.11.61,3.33,1.88a.7.7,0,0,1-.16.64c-.27.2-.79-.09-1.13-.27C234,47.44,233,46.88,232.06,47c-.7.07-1.17.53-2.1,1.45a4,4,0,0,0-1.34,2.1c-.12.64.1.7,0,1.24a3.14,3.14,0,0,1-3.12,2.31,2.53,2.53,0,0,1-1.72-.81,2.35,2.35,0,0,1-.38-2.47c.68-1.3,2.71-.81,3.12-1.94.28-.78-.61-1.22-.38-2.42.13-.67.47-.79,1-1.67a27.58,27.58,0,0,1-13.94-7.9,2.65,2.65,0,0,0-1.92.65c-.94.92-.46,2.13-1.41,2.58a2.38,2.38,0,0,1-2.7-.93c-.82-1.22,0-3.07.4-4.07.73-1.68,1.47-2,1.29-2.78-.25-1.18-2.09-1.42-2-2.38,0-.36.27-.72.92-1.21-.15-.35-.3-.71-.44-1.08a7.13,7.13,0,0,0-2.31.68c-.56.27-2.11,1-2.26,2.26-.12,1,.74,1.22.8,2.25.14,2-2.74,4.24-3.87,3.71-.14-.07-.25-.18-.63-1-.71-1.61-.76-2.22-1.14-3-.19-.39-1.07-2.22-2.26-2.26-1.51,0-2.5,2.83-2.58,3.07-.39,1.18-.68,3.2.16,3.71.62.36,1.18-.46,2.42-.49,2.26,0,4,2.58,4.52,3.39,1.07,1.64,2,4.2,1.29,4.84-.33.27-1.3,0-3.23-.65s-2.6-1-3.06-.64c-.65.45,0,1.46-.65,2.42-.75,1.18-2.24.5-4.25,1.37a38.85,38.85,0,0,0,30.58,23.62,8.94,8.94,0,0,1-.9-1.45C218.79,67.17,218.4,63.71,220.07,61.7Z"/><path class="cls-2" d="M203.89,17.19c-6,4.47-7.49,6.23-7.1,7.1s2.94.81,3.07,1.77c.1.79-1.5,1.41-1.3,2.1.14.45,1,.57,1.31.62.61.08,1.87.06,2.24-.62s-.63-1.36-.48-2.58a2.87,2.87,0,0,1,1.93-2.26c.85-.25,1.63.08,2.69.82a27.9,27.9,0,0,1-.74-6.37c0-.76,0-1.5.09-2.24l-.17.05A4.56,4.56,0,0,1,203.89,17.19Z"/><path class="cls-4" d="M206.25,24.14c.45.3.94.68,1.51,1.11,1.08.83,1.92,1.48,1.77,1.94s-1,.3-2.2.45c.14.37.29.73.44,1.08h0c2.32-1.7,6.54-2.31,8.06-.56.3.34.55.84,1.13,1,.87.2,1.61-.64,1.89-.4s0,.74-.24,1.33c-.69,1.78-1.1,2.7-1.33,3.31-.76,2-.14,2.29-.73,2.94-.81.89-2.15.55-3.4.56a27.58,27.58,0,0,0,13.94,7.9,2,2,0,0,0,.12-.21c.63-1.23.37-1.58.75-2.26,1-1.72,3.35-.71,4.78-2.36A4.15,4.15,0,0,0,233,35.2c-.63-.93-1.78-1.5-2.1-1.24s.54,1.21.49,2.8c0,.15-.1,2.31-1.4,2.9-1.12.51-2.72-.35-3.5-1.4-1.7-2.29-.34-6.64,2.26-8.22,1.05-.64,2.72-1.08,3.39-.43s0,2.06.64,2.36a1.12,1.12,0,0,0,1.29-.59c.37-.78-.75-1.49-1-3.06-.22-1.37.49-1.66.43-2.8-.08-1.78-1.9-2.62-5.43-5.64-2.51-2.15-3.76-3.23-3.6-3.82.08-.27.38-.49.85-.67a39,39,0,0,0-19.67.14c-.06.74-.09,1.48-.09,2.24A27.9,27.9,0,0,0,206.25,24.14Z"/><path class="cls-4" d="M243.94,42.08c0-.7-1-1.46-2-1.4a2.13,2.13,0,0,0-1.78,1.4c-.33.91.2,1.65.33,2.37.44-.12.88-.25,1.31-.39C242.61,43.14,244,42.9,243.94,42.08Z"/><path class="cls-2" d="M254,59.51a38.88,38.88,0,0,1-33.12,11.38,6,6,0,0,0,2.54,2c.57.23,1.84.63,7.63-.75,3.31-.79,5.32-1.49,5.7-.86.25.42-.54.9-.64,2-.16,1.75,1.52,2.51,2,4.09,1,2.94-3.14,5.59-2.47,6.77.24.44,1.12.64,2.43.58A38.78,38.78,0,0,0,254,59.51Z"/><path class="cls-2" d="M227.1,44.76c-.49.88-.83,1-1,1.67-.23,1.2.66,1.64.38,2.42-.41,1.13-2.44.64-3.12,1.94a2.35,2.35,0,0,0,.38,2.47,2.53,2.53,0,0,0,1.72.81,3.14,3.14,0,0,0,3.12-2.31c.1-.54-.12-.6,0-1.24a4,4,0,0,1,1.34-2.1c.93-.92,1.4-1.38,2.1-1.45.91-.09,2,.47,3.33,1.18.34.18.86.47,1.13.27a.7.7,0,0,0,.16-.64c-.22-1.27-3.38-1.59-3.33-1.88s2-.71,3.38.32c1.15.87,1.06,2.28,2.31,2.69.37.12.89.16,1-.06.26-.41-1.14-1.31-.92-2.25.15-.64.87-.52,1.24-1.24a1.33,1.33,0,0,0,.11-.91,27.87,27.87,0,0,1-13.4.31Z"/><path class="cls-2" d="M251.66,38.36a27.65,27.65,0,0,1-9.85,5.7,2.32,2.32,0,0,0-.45.82c-.33,1.06.12,2.39.75,2.58s1.32-1.17,2.09-1,1.23,1.58.92,2.69c-.39,1.37-2,2-2.69,2.31-1.43.58-2.69.51-2.74.91s.76.47.75.81c0,.64-2.93,1.79-4.89.7-1.28-.72-1-1.74-2-2.15-1.42-.57-2.27,1.18-6,2.58-2.1.79-3.33.79-3.82,1.88-.39.86.29,1.36-.1,2.36-.68,1.73-2.34,1.67-3.55,3.12-1.67,2-1.28,5.47-.11,7.74a8.94,8.94,0,0,0,.9,1.45A38.88,38.88,0,0,0,254,59.51a38.78,38.78,0,0,0-2.32-21.15Z"/><path class="cls-2" d="M224.42,16.06c-.16.59,1.09,1.67,3.6,3.82,3.53,3,5.35,3.86,5.43,5.64.06,1.14-.65,1.43-.43,2.8.27,1.57,1.39,2.28,1,3.06a1.12,1.12,0,0,1-1.29.59c-.6-.3,0-1.72-.64-2.36s-2.34-.21-3.39.43c-2.6,1.58-4,5.93-2.26,8.22.78,1.05,2.38,1.91,3.5,1.4,1.3-.59,1.39-2.75,1.4-2.9,0-1.59-.81-2.53-.49-2.8s1.47.31,2.1,1.24a4.15,4.15,0,0,1-.22,4.73c-1.43,1.65-3.81.64-4.78,2.36-.38.68-.12,1-.75,2.26a2,2,0,0,1-.12.21,27.87,27.87,0,0,0,13.4-.31c-.13-.72-.66-1.46-.33-2.37a2.13,2.13,0,0,1,1.78-1.4c1-.06,2,.7,2,1.4s-1.33,1.06-2.13,2a27.65,27.65,0,0,0,9.85-5.7,38.92,38.92,0,0,0-26.39-23C224.8,15.57,224.5,15.79,224.42,16.06Z"/><path class="cls-11" d="M196.73,86.91a39,39,0,0,1-5.87-4C192.93,85,194.64,86.31,196.73,86.91Z"/><path class="cls-2" d="M204.85,85.57c1.78-1.41,3.71-4.24,2.91-6.45-.74-2-3.52-1.76-8.07-5A32.56,32.56,0,0,1,195,69.93c-4.06-4.18-4.57-6.3-7.1-6.78-2-.37-3.61.55-4.19-.32s.58-1.49.32-2.9c-.37-2.06-3-2.43-2.9-4,0-1,1-1.39.8-2.26-.17-.67-.82-.73-1.29-1.29-1.35-1.64.3-5.72,1.13-5.65.3,0,.68.6,1,3.23a19.74,19.74,0,0,0,2.58,1.29c1.81.15,2-2.7,4.94-3.95h0a38.78,38.78,0,0,1-2.94-14.84,39.53,39.53,0,0,1,.54-6.48,38.78,38.78,0,0,0-10.09,18.68c.29,2.41.47,4.37.54,5.94a8.62,8.62,0,0,0,1.08,4.64,10,10,0,0,1,1.21,1.85c.61,1.42.24,2.16.45,3.51.4,2.64,2.28,2.81,2.54,5,.21,1.83-1,2.38-1.37,4.19-.56,2.84,1.68,5.43,5.16,9.32,1.3,1.46,2.42,2.72,3.46,3.78a39,39,0,0,0,5.87,4,10.35,10.35,0,0,0,1.39.27A9,9,0,0,0,204.85,85.57Z"/><path class="cls-2" d="M194.53,45.9c.61-1,0-2,.65-2.42.46-.33,1.06,0,3.06.64s2.9.92,3.23.65c.76-.64-.22-3.2-1.29-4.84-.54-.81-2.26-3.44-4.52-3.39-1.24,0-1.8.85-2.42.49-.84-.51-.55-2.53-.16-3.71.08-.24,1.07-3.11,2.58-3.07,1.19,0,2.07,1.87,2.26,2.26.38.79.43,1.4,1.14,3,.38.84.49.95.63,1,1.13.53,4-1.73,3.87-3.71-.06-1-.92-1.3-.8-2.25.15-1.23,1.7-2,2.26-2.26a7.13,7.13,0,0,1,2.31-.68,29,29,0,0,1-1.08-3.5c-1.06-.74-1.84-1.07-2.69-.82a2.87,2.87,0,0,0-1.93,2.26c-.15,1.22.87,1.86.48,2.58s-1.63.7-2.24.62c-.35-.05-1.17-.17-1.31-.62-.2-.69,1.4-1.31,1.3-2.1-.13-1-2.65-.84-3.07-1.77s1.08-2.63,7.1-7.1a4.56,4.56,0,0,0,1.54-1.61A38.88,38.88,0,0,0,187.88,26a39.53,39.53,0,0,0-.54,6.48,38.78,38.78,0,0,0,2.94,14.84C192.29,46.4,193.78,47.08,194.53,45.9Z"/><path class="cls-2" d="M209.53,27.19c.15-.46-.69-1.11-1.77-1.94-.57-.43-1.06-.81-1.51-1.11a29,29,0,0,0,1.08,3.5C208.54,27.49,209.39,27.62,209.53,27.19Z"/><path class="cls-2" d="M206.85,29.93c-.12,1,1.72,1.2,2,2.38.18.81-.56,1.1-1.29,2.78-.43,1-1.22,2.85-.4,4.07a2.38,2.38,0,0,0,2.7.93c.95-.45.47-1.66,1.41-2.58a2.65,2.65,0,0,1,1.92-.65,27.5,27.5,0,0,1-5.39-8.14C207.12,29.21,206.89,29.57,206.85,29.93Z"/><path class="cls-2" d="M216.56,36.3c.59-.65,0-.92.73-2.94.23-.61.64-1.53,1.33-3.31.23-.59.45-1.16.24-1.33s-1,.6-1.89.4c-.58-.12-.83-.62-1.13-1-1.52-1.75-5.74-1.14-8.06.56h0a27.5,27.5,0,0,0,5.39,8.14C214.41,36.85,215.75,37.19,216.56,36.3Z"/><path class="cls-2" d="M172.13,32.78a12.92,12.92,0,1,1,12.92-12.92A12.94,12.94,0,0,1,172.13,32.78Zm0-25.56a12.64,12.64,0,1,0,12.64,12.64A12.65,12.65,0,0,0,172.13,7.22Z"/><path class="cls-2" d="M172.13,13.57a12.86,12.86,0,0,1-8.61-3.3l.18-.2a12.67,12.67,0,0,0,8.43,3.22,12.63,12.63,0,0,0,8.24-3.06l.19.21A12.91,12.91,0,0,1,172.13,13.57Z"/><path class="cls-2" d="M180.37,29.73a12.63,12.63,0,0,0-16.67-.16l-.18-.21a12.91,12.91,0,0,1,17,.16Z"/><rect class="cls-2" x="159.35" y="19.58" width="25.56" height="0.28"/><path class="cls-2" d="M170,32.69a19.59,19.59,0,0,1-4.73-12.76A19.13,19.13,0,0,1,170.37,7l.2.18a18.88,18.88,0,0,0-5,12.74,19.29,19.29,0,0,0,4.66,12.57Z"/><path class="cls-2" d="M174.26,32.69l-.21-.19a19.24,19.24,0,0,0,4.66-12.57,18.88,18.88,0,0,0-5-12.74l.2-.18A19.13,19.13,0,0,1,179,19.93,19.59,19.59,0,0,1,174.26,32.69Z"/><rect class="cls-2" x="171.99" y="7.08" width="0.28" height="25.56"/><path class="cls-2" d="M101.15,143.39c0-.66,0-1.45.14-2.26-.84-1.29-1.87-3.08-3-5.07A48.31,48.31,0,0,0,93,140.87c.13,1.51.33,3.59.59,5.9h19.6l.35-.63C108.23,146.09,101,145.55,101.15,143.39Z"/><path class="cls-4" d="M95.48,66.63A15.84,15.84,0,0,0,99.62,76c4.52,5.11,11.33,7.58,13.2,7.8,2.06.26,2.5-10.73,1.91-19.08l-6.87,1.18a5.09,5.09,0,1,1-1.72-10l6.48-1.11c-2.78-5-8.85-8.06-11.84-6.4a10.14,10.14,0,0,0-3.39,2.83C95.29,54,94.85,58.41,95.48,66.63Z"/><path class="cls-12" d="M106.14,55.84a5.09,5.09,0,1,0,1.72,10l6.87-1.18a45.3,45.3,0,0,0-1-7.17,11.24,11.24,0,0,0-1.15-2.8Z"/><path class="cls-4" d="M103.9,99.81A47,47,0,0,1,106,114a58.59,58.59,0,0,1-.52,6.75c.16.89.34,1.82.51,2.77,3.38-.53,13.42-1.65,19.51,2.42a47.66,47.66,0,0,0-3.17-20.1,27.24,27.24,0,0,0-3.78-6.46A31.63,31.63,0,0,0,103.9,99.81Z"/><path class="cls-2" d="M106,123.51c.59,3.25,1.21,6.77,1.69,9.81a24.48,24.48,0,0,1,3,1.8h2.32v-1.54a.22.22,0,0,1,.21-.21H114l10.21-1.55a22.1,22.1,0,0,0,1.29-5.88C119.44,121.86,109.4,123,106,123.51Z"/><path class="cls-2" d="M97.3,134.23c-3.67-6.74-7.7-14.78-7.7-14.78-2.82-5.89-6.09-13.64-6.82-16.38S81.06,92.2,90.13,92.85s12.61,15.26,13.85,20.24c.22.9.82,3.91,1.53,7.65A58.59,58.59,0,0,0,106,114a47,47,0,0,0-2.13-14.18,31.63,31.63,0,0,1,14.68-.44c-5-6.4-12.25-9.78-19.06-11.48V76h.1a15.84,15.84,0,0,1-4.14-9.35c-.63-8.22-.19-12.62,1.91-15.47-6.66.42-13.76,5.94-13.76,12.55,0,5.13,4.28,9.48,9.31,11.36l1.35,11.8c-1.69-.24-3.3-.39-4.77-.47-17.69-1,1.16,56.16,1.16,56.16A18.64,18.64,0,0,1,97.3,134.23ZM94.72,75.62a14.39,14.39,0,0,0,3.1.44V87.5c-.6-.13-1.19-.25-1.78-.35Z"/><path class="cls-4" d="M150,136.17l-36.68.15a.22.22,0,0,1-.21-.2v-1h-2.32a23.23,23.23,0,0,0-2.72.22,34.85,34.85,0,0,1,.58,5.67c-.34,2.53-2.34,3-5.59,2.26-.3-.07-.92-.87-1.73-2.14-.1.81-.1,1.6-.14,2.26-.16,2.16,7.08,2.7,12.43,2.75,2,0,3.79,0,4.77-.09,3.55-.21,21.58-6.57,32.33-7l.14-.15A2.16,2.16,0,0,1,150,136.17Z"/><path class="cls-4" d="M101.29,141.13c.81,1.27,1.43,2.07,1.73,2.14,3.25.74,5.25.27,5.59-2.26a34.85,34.85,0,0,0-.58-5.67,23.23,23.23,0,0,1,2.72-.22,24.48,24.48,0,0,0-3-1.8c-.48-3-1.1-6.56-1.69-9.81-.17-1-.35-1.88-.51-2.77-.71-3.74-1.31-6.75-1.53-7.65-1.24-5-4.77-19.58-13.85-20.24s-8.07,7.49-7.35,10.22,4,10.49,6.82,16.38c0,0,4,8,7.7,14.78a18.64,18.64,0,0,0-6.62,8.33c.47.06,1.31-.66,2.36-1.69a48.31,48.31,0,0,1,5.27-4.81C99.42,138.05,100.45,139.84,101.29,141.13Zm4,1.52a2.43,2.43,0,1,1,2-2.81A2.43,2.43,0,0,1,105.34,142.65Z"/><path class="cls-2" d="M104.52,137.85a2.43,2.43,0,1,0,2.81,2A2.44,2.44,0,0,0,104.52,137.85Z"/><path class="cls-13" d="M150,136.17a2.16,2.16,0,0,0,.86,2.7,2.88,2.88,0,0,0,1.68.51c2.17,0,14.42-2.75,14.19-3.09a.75.75,0,0,0-.22-.19Z"/><path class="cls-4" d="M114,133.36l28.12-.12a1.81,1.81,0,0,1-.43-1.17l.36-3-17.84,2.72Z"/><path class="cls-4" d="M191.21,131.51l3.72-30.41A1.9,1.9,0,0,0,193,99.23l-3,0-39.68.45a1.9,1.9,0,0,0-1.87,1.91L144.73,132a1.89,1.89,0,0,0,.45,1.2l45.29-.2A1.86,1.86,0,0,0,191.21,131.51Z"/><path class="cls-2" d="M145.18,133.23a1.89,1.89,0,0,1-.45-1.2l3.72-30.41a1.9,1.9,0,0,1,1.87-1.91L190,99.26h0l-42.69.48a1.91,1.91,0,0,0-1.88,1.92l-3.35,27.43-.36,3a1.81,1.81,0,0,0,.43,1.17l-28.12.12h-.76a.22.22,0,0,0-.21.21v2.55a.22.22,0,0,0,.21.2l36.68-.15,16.51-.07,25.2-.11a.21.21,0,0,0,.21-.21v-2.54a.21.21,0,0,0-.21-.21h-1.19Z"/><path class="cls-14" d="M150.53,26.18a4.81,4.81,0,0,0-.75-1.76,2.18,2.18,0,0,1-.27.11,3.54,3.54,0,0,0-.55.18l-.33.16-.19.12c.15,0,.26.18.35.41.28.71.41.69.31,1.47a6.35,6.35,0,0,1-1.33,3.38c-.21.28-1.15.09-1.54.16s-1,.86-1.14,1.09-.52,1.58-.6,1.81a7.53,7.53,0,0,0,.19,2.83c.26.78,1.9-.76,2.37-.08.06.08.12.18.25.11a.71.71,0,0,0,.15-.38,17,17,0,0,1,.9-2.78c.43-1.13,1-2.22,1.44-3.33a9.31,9.31,0,0,0,.74-2.35A3,3,0,0,0,150.53,26.18Z"/><polygon class="cls-15" points="151.41 65.7 150.47 68.38 149.17 67.65 150.33 64.63 151.41 65.7"/><polygon class="cls-15" points="162.22 63.67 163.24 66.33 161.77 66.61 160.69 63.56 162.22 63.67"/><polygon class="cls-2" points="148.94 65.71 151.82 66.33 157.3 52.71 153.91 51.3 151.91 52.33 151.37 52.6 152.44 52.94 148.94 65.71"/><path class="cls-2" d="M140,47.74c0-.05.17,5.65,2.26,6.1,3.9.85,13.95-1,13.95-1l4.13,11.86,2.88-.79s-2.6-10.34-3.22-11.52-1.81-3.56-2.54-3.39-10-1.19-10-1.19l-.8-.85Z"/><path class="cls-15" d="M146.29,36c-.08-.3-.61-2.41-.76-3.09a5.3,5.3,0,0,1,.53-2.18,4.83,4.83,0,0,0,2.11,0c.53-.3,2.79-4,2.79-4l-1.76-2.23-1.11-1.16-2.26,2.49-2.78,5.8L143,34.41Z"/><path class="cls-4" d="M143.69,32.66a3.73,3.73,0,0,0,1,1.86c.67.51,1.64,1.47,1.64,1.47a5.59,5.59,0,0,1,.5,2.66c-.11,1.41-.73,4.23-.28,5.42s1.3,2.88,1.3,2.88a20.48,20.48,0,0,1-7.4,1.3l-1.47-.39a28.12,28.12,0,0,0,.73-5.2c-.11-1.42,1.7-7.63,2.15-8.25A14.36,14.36,0,0,1,143.69,32.66Z"/><path class="cls-15" d="M152.5,46.89s-.23-1.63-.68-1.8a6.94,6.94,0,0,0-3.33-.17c-1,.34-5.65-.91-6.05-1.19s.12-3,.12-3l-1.3.39s-.57,3.79-.12,4,6.56,1,7,1.19a3.83,3.83,0,0,0,2.09.22c.34-.22.85-.84,1.08-.73S152.22,47.46,152.5,46.89Z"/><polygon class="cls-4" points="151.68 46.44 143.6 46.82 149.58 47.97 152.03 47.73 151.68 46.44"/><path class="cls-3" d="M151.66,47.82l11.65,1.07a.53.53,0,0,0,.57-.47l1.87-8.19a.52.52,0,0,0-.47-.56L153.63,38.6a.52.52,0,0,0-.57.47l-1.87,8.18A.52.52,0,0,0,151.66,47.82Z"/><path class="cls-4" d="M152.48,47.89,164.13,49a.53.53,0,0,0,.57-.47l1.87-8.19a.53.53,0,0,0-.47-.57l-11.65-1.07a.53.53,0,0,0-.57.47L152,47.33A.52.52,0,0,0,152.48,47.89Z"/><rect class="cls-3" x="143.25" y="47.86" width="21.6" height="0.81" rx="0.25" transform="translate(5.51 -14.96) rotate(5.66)"/><path class="cls-4" d="M142.82,41.77s1.24-8,0-8.14-2,8.36-2,8.36Z"/><path class="cls-16" d="M148.27,29.58h0a2.5,2.5,0,0,1-1-.56.07.07,0,0,0-.11.07,2.42,2.42,0,0,0,1.05.6A.41.41,0,0,1,148.27,29.58Z"/><path class="cls-16" d="M149.05,29a1.4,1.4,0,0,1-.38,0,.07.07,0,1,1,0-.13,1.4,1.4,0,0,0,.44-.06s.06,0,0-.31-.09-.43-.14-.62-.06-.26-.07-.34a.06.06,0,0,1,0-.07.05.05,0,0,1,.07.05,3,3,0,0,0,.08.33c.15.59.24,1,0,1.08Z"/><path class="cls-14" d="M148.35,26.86c.05.1-1.44.14-1.42,0S148.24,26.66,148.35,26.86Z"/><path class="cls-14" d="M149.4,26.86c-.14.15.78.65.8.57S149.56,26.67,149.4,26.86Z"/><path class="cls-14" d="M147.87,27.36c0,.11-.17.27-.24.15S147.84,27.19,147.87,27.36Z"/><path class="cls-14" d="M149.7,27.71c0,.12-.18.27-.24.15S149.67,27.54,149.7,27.71Z"/><path class="cls-14" d="M148.28,23.16l.23.05a.48.48,0,0,0,.33.08l.23.06a3.81,3.81,0,0,1,2.44,3,3,3,0,0,1,0,1.15,9.31,9.31,0,0,1-.74,2.35c-.49,1.11-1,2.2-1.44,3.33a17,17,0,0,0-.9,2.78.78.78,0,0,1-.15.38c-.13.06-.19,0-.25-.11a8.63,8.63,0,0,1-1.13-2.17,2.44,2.44,0,0,1,.06-1.6c.08-.23.16-.46.25-.7s.45-.67.71-.69a1.38,1.38,0,0,0,.83-.66,6.32,6.32,0,0,0,1.33-3.37c.1-.78,0-.76-.31-1.48a.53.53,0,0,0-.84-.33c-.59.26-2.31,1-2.48,1.51a1.55,1.55,0,0,1-.07.23c-.11.25-.26.32-.5.2s-.56,0-.54.43a.64.64,0,0,0,.35.51.57.57,0,0,1,.3.67c-.07.6-.18,1.2-.28,1.8a3.14,3.14,0,0,1-1.85,2.31c-.39.16-.76,1.14-1.18,1.08s-.84,1.23-1.28,1.29c-.17,0-.88,0-.68-1.92a4.45,4.45,0,0,1,.21-2.4c.39-.62.69-1.28,1-1.93a22.3,22.3,0,0,1,2.24-3.52,9.25,9.25,0,0,1,2-1.84,3.73,3.73,0,0,1,1.6-.55C147.93,23.09,148.1,23.18,148.28,23.16Z"/><path class="cls-14" d="M148.2,23.39l.23.05a.49.49,0,0,0,.33.08l.24.05a3.84,3.84,0,0,1,2.48,3,3.12,3.12,0,0,1,0,1.14,9.21,9.21,0,0,1-.72,2.36c-.47,1.11-1,2.21-1.39,3.35a17,17,0,0,0-.87,2.79.78.78,0,0,1-.15.38c-.13.07-.19,0-.25-.11A8.11,8.11,0,0,1,147,34.33a2.38,2.38,0,0,1,0-1.6c.08-.24.16-.47.25-.7s.43-.68.7-.7a1.44,1.44,0,0,0,.82-.67,6.29,6.29,0,0,0,1.29-3.39c.09-.78,0-.76-.33-1.47a.53.53,0,0,0-.84-.33c-.59.28-2.29,1.06-2.46,1.55,0,.07,0,.15-.07.23-.11.24-.26.32-.5.2s-.56,0-.53.43a.61.61,0,0,0,.36.51.58.58,0,0,1,.3.67c-.06.6-.16,1.2-.26,1.8a3.11,3.11,0,0,1-1.82,2.33c-.39.17-.74,1.15-1.17,1.1s-.82,1.24-1.26,1.3c-.18,0-1.39.12-1.2-1.82a7,7,0,0,1,.68-2.49c.38-.62.67-1.29,1-1.94a22.35,22.35,0,0,1,2.2-3.55,9.25,9.25,0,0,1,1.94-1.86,3.72,3.72,0,0,1,1.59-.58C147.85,23.32,148,23.41,148.2,23.39Z"/><path class="cls-17" d="M149.32,66.9l1.65.25a.45.45,0,0,1,.22.08,11.44,11.44,0,0,0,3.15,1.56c.92.07,1.84.92.92,1.06-.74.11-4.74-.14-6.23-.24a.55.55,0,0,1-.5-.6l.17-1.63A.53.53,0,0,1,149.32,66.9Z"/><path class="cls-17" d="M161.54,65.7l1.65-.25a.58.58,0,0,1,.23,0,11.58,11.58,0,0,0,3.48.56c.9-.2,2,.34,1.19.74-.68.33-4.57,1.26-6,1.6a.54.54,0,0,1-.66-.42l-.32-1.61A.54.54,0,0,1,161.54,65.7Z"/><path class="cls-18" d="M250.23,131v0l-1.32,1.28c-.08-.19-.36-1.3-.46-1.53l-.2-.48c-.87-2.08.27-2,.72-2.28s1.36,1.76,1.36,1.76.66-1,.82-.88-.12.48-.36.92-.59,1-.59,1Z"/><path class="cls-4" d="M250.31,131.19c.7,1.11,1.07,10,1.07,10,.71-1.44,3.06-6.41,5-7.47.45-.25.41.08,0,5.8q-.08,1-.12,2.13a19,19,0,0,1-3.67,2.95c-4.09,2.79-4-12.58-4-12.58h0l1.52-1S250.24,131.08,250.31,131.19Z"/><path class="cls-14" d="M266.16,134a2.93,2.93,0,0,1-.63-2.2c0-1.62-.25-7.37-.25-7.37l-6.82,1.2s-.11,0-.14.81a65.1,65.1,0,0,1-.44,7.26c-.3.93.42.93.74.9Z"/><path class="cls-19" d="M264.58,125c.05.71.05,2.06.05,2.06s.25-.3.49-.16-.26,1.67-.61,1.64-.21,0-.21,0-.35,1.4-.87,1.45c-.34,0,.16,1.91.16,1.91s1.06,1.58,2.31,1.44-2,1.34-3.2,1.34a32.49,32.49,0,0,1-4.82-1,17.32,17.32,0,0,0,1.74-.74,2.05,2.05,0,0,0,.65-1.28v-1.46a4.43,4.43,0,0,1-.81-.95c-.07-.25-.19-.72-.19-.72a1.19,1.19,0,0,1-.62-1c-.07-.81-.1-1.11.28-.65a16,16,0,0,1,.48-2.9,12,12,0,0,1,1.3-1.39s1.18-.07,1.48-.07a6.82,6.82,0,0,1,1.44.58l1,1Z"/><path class="cls-2" d="M261.92,133.23l-.76-.09-1.73-.31-.05,3.77,1.38,7.06s2.27-3.68,2.35-3.88,1.48-6.08,1.36-6.23-.5-.71-.5-.71Z"/><path class="cls-20" d="M262.62,134.59c-.3-.56-.8-1.29-.7-1.36l1.95-1.46.53,1.07Z"/><path class="cls-20" d="M261.16,133.14a12.39,12.39,0,0,1-.6,1.45c-.05,0-1.13-1.71-1.13-1.76s.24-1.18.34-1.13S261.16,133.14,261.16,133.14Z"/><path class="cls-19" d="M262.21,175.72a33.63,33.63,0,0,1,.38,5.35A25,25,0,0,1,262,186a5.54,5.54,0,0,0-.42,2.19c.08.88.25,2.61.54,2.74a4.32,4.32,0,0,0,1.9-.22c0-.12,0-3.19-.13-3.61s1.73-5.77,1.77-7.45a32.53,32.53,0,0,1,.67-4.59Z"/><path class="cls-19" d="M261.24,175.43a14.26,14.26,0,0,1,.29,4.33c0,3-.59,3.79-.29,4.67a5.72,5.72,0,0,1,.29,1.6,2.4,2.4,0,0,0-.42,1.39c.09.68.47,2.23-.12,2.53a2.36,2.36,0,0,1-1.69.08,26.69,26.69,0,0,1,.26-2.69l.12-.59s-.29-1.31-.29-1.47-1.56-9.68-1.56-9.68Z"/><path class="cls-14" d="M264,189.33a14.84,14.84,0,0,1,.57,1.74c0,.27.17,1.37-.51,1.47a4.7,4.7,0,0,1-2.15-.18,1.18,1.18,0,0,1-.51-1.2c.14-.65.18-3.16.18-3.16s.29,2.63.74,2.71a4,4,0,0,0,1.33-.15C264.12,190.48,264,189.33,264,189.33Z"/><path class="cls-14" d="M259.28,189.82c-.11.32-.46.51-.43.92s.12,1,.78,1,1.66-.11,1.66-.11.36-2.08.36-2.32a30.74,30.74,0,0,0,.46-3.43,1.47,1.47,0,0,0-.62-.79,6.46,6.46,0,0,1-.07.71c-.05.27-.28.41-.3.82s0,1.57.05,1.86.27.92,0,1.16a1.26,1.26,0,0,1-1,.39A1.34,1.34,0,0,1,259.28,189.82Z"/><path class="cls-2" d="M268.27,155.36c-.13,2.23-.59,9.3-.85,11.23s-.79,7.16-.71,8,.08,1.85.08,1.85-9.59.08-9.63,0,.33-4.8.29-5.1S256,158.39,256,157.25s.59-5.47.59-5.47l1-5.3,6.85-.26Z"/><path class="cls-14" d="M261,122.78c.37.28,1.69.32,2,.53a3.77,3.77,0,0,1,1.29,1.7c.07.55.33,2.06.33,2.06a5.55,5.55,0,0,0,.46-.67c0-.07.14-.65.14-.65a13.42,13.42,0,0,0,0-1.65,3,3,0,0,0-1.35-1.78,4.83,4.83,0,0,0-2.45-.61,1.54,1.54,0,0,0-.75.63.86.86,0,0,0-1.22.32,15.94,15.94,0,0,0-1,3.2l.51,1s.53-2.27.67-2.62A9.54,9.54,0,0,1,261,122.78Z"/><path class="cls-3" d="M267.75,133.65a9.4,9.4,0,0,1-1.95-.37c-.12,0-1.67-1.23-1.67-1.23l-.73,3.41s-2.7,6.82-2.64,8.2.17,5.29.28,6.73,0,4.57,2,5.42,6.23-.81,6.23-.81-1.89-9.1-1.89-9.22-.28-7.78-.2-9.68A4.12,4.12,0,0,1,267.75,133.65Z"/><path class="cls-3" d="M259.46,132.07c0,.2.14,1.69.16,2.35S261,143,261,143s.65,4.45-.66,7.69-1.37,4.83-2.4,4.92-3.18-1.28-3.2-1.35,1-6.81.94-8.41.8-8.06.61-9.65a17.59,17.59,0,0,1-.15-2.55s1.89.11,2.47-.47A4.73,4.73,0,0,0,259.46,132.07Z"/><path class="cls-14" d="M259.27,128.55s.46,1.53,1.49,1.77a7,7,0,0,1-.93,0,11.76,11.76,0,0,1-.91-1.11Z"/><path class="cls-21" d="M256.83,142.6a10.38,10.38,0,0,1-13.61,5.25,8.6,8.6,0,0,1-4.28-11.37,10.38,10.38,0,0,1,13.61-5.25A8.6,8.6,0,0,1,256.83,142.6Z"/><ellipse class="cls-22" cx="240.57" cy="140.18" rx="1.81" ry="1.67" transform="translate(-36.03 108.34) rotate(-23.66)"/><path class="cls-22" d="M242.47,136.14a1,1,0,0,0-1.05-1,1.12,1.12,0,0,0-1.08,1.06,1,1,0,0,0,1,1A1.13,1.13,0,0,0,242.47,136.14Z"/><path class="cls-2" d="M244.18,130.92a11,11,0,0,0-6.09,5.75,9.23,9.23,0,0,0-.21,7,9.1,9.1,0,0,0,4.75,5.06,10.8,10.8,0,0,0,8.32.19,10.93,10.93,0,0,0,6.09-5.75,9.23,9.23,0,0,0,.22-7,9.1,9.1,0,0,0-4.75-5.06A10.82,10.82,0,0,0,244.18,130.92Zm12.65,11.68a10.38,10.38,0,0,1-13.61,5.25,8.6,8.6,0,0,1-4.28-11.37,10.38,10.38,0,0,1,13.61-5.25A8.6,8.6,0,0,1,256.83,142.6Z"/><path class="cls-2" d="M259.44,143.09a.71.71,0,0,0-.37-1l-.3-.12a10,10,0,0,0-5.95-12.37,12.16,12.16,0,0,0-15.34,6.23,10.06,10.06,0,0,0,5.09,13.49,12.17,12.17,0,0,0,14.6-4.12l.3.11a.84.84,0,0,0,1.07-.41l7.67,3.07.9-1.81Zm-1.67-.42-1.11,2.22-.28.39a11.55,11.55,0,0,1-13.86,3.91,9.54,9.54,0,0,1-4.83-12.8,11.53,11.53,0,0,1,14.56-5.92,9.7,9.7,0,0,1,5.19,4.8,9.58,9.58,0,0,1,.46,6.95Z"/><path class="cls-2" d="M257.44,135.27a9.7,9.7,0,0,0-5.19-4.8,11.53,11.53,0,0,0-14.56,5.92,9.54,9.54,0,0,0,4.83,12.8,11.55,11.55,0,0,0,13.86-3.91l.28-.39,1.11-2.22.13-.45A9.58,9.58,0,0,0,257.44,135.27Zm-.4,7.88A10.93,10.93,0,0,1,251,148.9a10.8,10.8,0,0,1-8.32-.19,9.1,9.1,0,0,1-4.75-5.06,9.23,9.23,0,0,1,.21-7,11,11,0,0,1,6.09-5.75,10.82,10.82,0,0,1,8.33.19,9.1,9.1,0,0,1,4.75,5.06A9.23,9.23,0,0,1,257,143.15Z"/><path class="cls-2" d="M257.44,135.27a9.7,9.7,0,0,0-5.19-4.8,11.53,11.53,0,0,0-14.56,5.92,9.54,9.54,0,0,0,4.83,12.8,11.55,11.55,0,0,0,13.86-3.91l.28-.39,1.11-2.22.13-.45A9.58,9.58,0,0,0,257.44,135.27Zm-.4,7.88A10.93,10.93,0,0,1,251,148.9a10.8,10.8,0,0,1-8.32-.19,9.1,9.1,0,0,1-4.75-5.06,9.23,9.23,0,0,1,.21-7,11,11,0,0,1,6.09-5.75,10.82,10.82,0,0,1,8.33.19,9.1,9.1,0,0,1,4.75,5.06A9.23,9.23,0,0,1,257,143.15Z"/><path class="cls-2" d="M257.69,144.32s.64,0,.6.14-.36.91-.9.34Z"/><polygon class="cls-2" points="258.68 144.59 258.87 144.2 260.44 144.8 260.24 145.24 258.68 144.59"/><path class="cls-2" d="M271.19,147.2l-1.44,2.9.73.3a.08.08,0,0,0,.1,0l1.38-2.78a.07.07,0,0,0,0-.09Z"/><path class="cls-2" d="M261.57,143.34a.49.49,0,0,0-.6.23l-.52,1.06-.53,1.07a.39.39,0,0,0,.21.55l9.7,3.88.72-1.45.72-1.45Z"/><polygon class="cls-23" points="260.15 145.74 260.82 144.35 270.42 148.19 269.78 149.55 260.15 145.74"/><path class="cls-18" d="M262,145.07h0l-.34,1.24c-.2,0-.35,0-.6,0s-.52.13-.7.1c-2.23-.34-2-1.61-2-2.15s2.61.1,2.61.1-.5-1.07-.33-1.16.34.36.6.79.58,1,.58,1Z"/><path class="cls-4" d="M261.57,146.77l.5-1.82,6.27.63a36.71,36.71,0,0,1-1.51-8.23,6,6,0,0,1,.88-3.7.11.11,0,0,1,.18,0c5,3.77,4,12.54,2.67,14.56a1.11,1.11,0,0,1-.92.5C268,148.78,261.57,146.77,261.57,146.77Z"/><path class="cls-2" d="M50.06,56l-4-5.64-2.56,1.3a17,17,0,0,0-4.93-3.47l-.41-2.69L32,44.43l-1.62,2.63a14.88,14.88,0,0,0-5.48,1.39l-2-2.09-5.64,4,1.3,2.56A19.76,19.76,0,0,0,15,58.4L12,58.47,11,64.7l2.73,1a19.81,19.81,0,0,0,1.52,6.39l-2.09,2,3.75,5.3,2.79-1a17.45,17.45,0,0,0,5.27,3.24L25,84.61l6.56.84,1-2.73a17.5,17.5,0,0,0,6.05-1.29l2,2.09,5.64-4L45,77a17.52,17.52,0,0,0,3.24-5.26l2.93-.08,1.4-6.46-2.73-1.05A19,19,0,0,0,48,58ZM37,72.62a9.3,9.3,0,1,1,2.24-13A9.3,9.3,0,0,1,37,72.62Z"/><path class="cls-24" d="M46.82,58.29l-4-5.64L40.28,54a16.83,16.83,0,0,0-4.93-3.48l-.41-2.69-6.23-1.07-1.62,2.63a14.86,14.86,0,0,0-5.48,1.38l-2-2.09-5.64,4,1.3,2.56a20.14,20.14,0,0,0-3.57,5.5l-2.93.08L7.73,67,10.46,68A19.69,19.69,0,0,0,12,74.42l-2.09,2,3.75,5.31,2.79-1A17.6,17.6,0,0,0,21.7,84l.07,2.92,6.56.84L29.38,85a17.67,17.67,0,0,0,6.05-1.28l2,2.08,5.65-4-1.31-2.56A17.69,17.69,0,0,0,45,74l2.93-.08,1.4-6.46-2.73-1a19,19,0,0,0-1.85-6.15ZM33.75,74.91A9.3,9.3,0,1,1,36,62,9.3,9.3,0,0,1,33.75,74.91Z"/><path class="cls-2" d="M81,38.12l-3.09-4.37-2,1a12.86,12.86,0,0,0-3.83-2.69L71.81,30,67,29.15l-1.26,2a11.53,11.53,0,0,0-4.25,1.07l-1.53-1.62-4.37,3.09,1,2A15.58,15.58,0,0,0,53.81,40L51.54,40l-.83,4.82,2.12.82a15.17,15.17,0,0,0,1.18,5l-1.62,1.53,2.9,4.11,2.16-.75A13.89,13.89,0,0,0,61.54,58l.06,2.27,5.08.65.82-2.12a13.44,13.44,0,0,0,4.69-1l1.53,1.62,4.37-3.09-1-2a13.44,13.44,0,0,0,2.51-4.09l2.27-.06,1.09-5-2.11-.82a14.9,14.9,0,0,0-1.44-4.77ZM70.88,51a7.21,7.21,0,1,1,1.74-10A7.21,7.21,0,0,1,70.88,51Z"/><path class="cls-24" d="M78.51,39.89l-3.09-4.37-2,1a13.17,13.17,0,0,0-3.83-2.69l-.31-2.09-4.83-.83-1.26,2A11.48,11.48,0,0,0,59,34l-1.53-1.62L53.06,35.5l1,2a15.27,15.27,0,0,0-2.77,4.27L49,41.81l-.83,4.82,2.12.82a15.15,15.15,0,0,0,1.17,4.95l-1.62,1.53L52.78,58l2.16-.75A13.68,13.68,0,0,0,59,59.8l.06,2.27,5.08.65L65,60.61a13.69,13.69,0,0,0,4.69-1l1.53,1.62,4.37-3.09-1-2a13.51,13.51,0,0,0,2.51-4.08L79.35,52l1.09-5-2.12-.82a14.63,14.63,0,0,0-1.43-4.77ZM68.37,52.78a7.21,7.21,0,1,1,1.74-10.05A7.21,7.21,0,0,1,68.37,52.78Z"/><path class="cls-2" d="M52.11,22.36l-2.73-3.87-1.75.9A11.52,11.52,0,0,0,44.24,17L44,15.16l-4.26-.74-1.11,1.81a10,10,0,0,0-3.76.95l-1.35-1.43-3.87,2.72.9,1.76A13.5,13.5,0,0,0,28.06,24l-2,.05-.74,4.27,1.88.72a13.48,13.48,0,0,0,1,4.37L26.8,34.76l2.56,3.64,1.92-.67A12.21,12.21,0,0,0,34.89,40l0,2,4.5.58.72-1.87a12.18,12.18,0,0,0,4.14-.88l1.36,1.43,3.86-2.73-.89-1.75a12.18,12.18,0,0,0,2.22-3.61l2-.06,1-4.42L52,27.92a13.26,13.26,0,0,0-1.27-4.21Zm-9,11.39a6.38,6.38,0,1,1,1.53-8.89A6.37,6.37,0,0,1,43.15,33.75Z"/><path class="cls-24" d="M49.89,23.93l-2.73-3.87L45.41,21A11.9,11.9,0,0,0,42,18.57l-.28-1.84L37.48,16,36.37,17.8a10,10,0,0,0-3.76.94l-1.35-1.43L27.39,20l.9,1.75a13.5,13.5,0,0,0-2.45,3.77l-2,.06-.74,4.26,1.88.73A13.48,13.48,0,0,0,26,35l-1.43,1.35L27.14,40l1.92-.67a12,12,0,0,0,3.61,2.22l0,2,4.5.58.72-1.88a12,12,0,0,0,4.14-.88l1.36,1.43,3.86-2.72-.89-1.76a12.39,12.39,0,0,0,2.22-3.61l2,0,1-4.43-1.87-.72a13.26,13.26,0,0,0-1.27-4.21Zm-9,11.38a6.37,6.37,0,1,1,1.53-8.88A6.37,6.37,0,0,1,40.93,35.31Z"/><path class="cls-2" d="M242.6,164.11l1.21.41a4.34,4.34,0,0,1,1.07.56,2.56,2.56,0,0,1,.76.84,2.42,2.42,0,0,1,.3,1.26,3.93,3.93,0,0,1-.24,1.38,3.33,3.33,0,0,1-.71,1.13,3.45,3.45,0,0,1-1.13.78,4.3,4.3,0,0,1-1.54.32l-.08,2c0,.12-.05.19-.16.19h-.17l.08-2.17a4.86,4.86,0,0,1-1.05-.13,4.06,4.06,0,0,1-.89-.31,4.21,4.21,0,0,1-.75-.49,5,5,0,0,1-.65-.65l.11-.15a.45.45,0,0,1,.07-.07l.09,0a.28.28,0,0,1,.17.1l.27.26c.11.1.24.22.4.34a4.15,4.15,0,0,0,.56.34,4.56,4.56,0,0,0,.74.28,4.39,4.39,0,0,0,.95.12l.25-6c-.38-.12-.76-.26-1.12-.4a4.17,4.17,0,0,1-1-.56,2.64,2.64,0,0,1-.69-.83,2.74,2.74,0,0,1-.26-1.24,3.06,3.06,0,0,1,.22-1.12,2.63,2.63,0,0,1,.63-1,3.35,3.35,0,0,1,1-.68,3.75,3.75,0,0,1,1.4-.27l.06-1.56c0-.12.06-.19.17-.19h.17l-.07,1.75a3.76,3.76,0,0,1,2.72,1.22l-.1.15a.15.15,0,0,1-.13.09c-.07,0-.15-.06-.26-.16a3.2,3.2,0,0,0-.45-.36,3.44,3.44,0,0,0-.72-.36,3,3,0,0,0-1.08-.2Zm-.11-5.33a3.59,3.59,0,0,0-1.23.24,2.8,2.8,0,0,0-.89.58,2.34,2.34,0,0,0-.54.82,2.73,2.73,0,0,0-.18,1,2.23,2.23,0,0,0,.21,1,2.39,2.39,0,0,0,.58.72,3.81,3.81,0,0,0,.84.5c.32.13.65.26,1,.38Zm-.15,11.62a3.71,3.71,0,0,0,1.34-.29,3,3,0,0,0,1-.68,2.81,2.81,0,0,0,.62-1,3.35,3.35,0,0,0,.22-1.19,2.29,2.29,0,0,0-.25-1.1,2.1,2.1,0,0,0-.66-.73,3.65,3.65,0,0,0-.94-.5l-1.09-.38Z"/><path class="cls-2" d="M242,174.24l-.48,0v-.31a10.43,10.43,0,0,0,1.25,0l0,.32C242.57,174.23,242.3,174.24,242,174.24Zm-1.76-.15a10.32,10.32,0,0,1-1.25-.29l.09-.31a9.69,9.69,0,0,0,1.21.29Zm3.83-.06-.06-.31a10.27,10.27,0,0,0,1.21-.32l.1.3A9.21,9.21,0,0,1,244.1,174Zm-6.29-.67a12.46,12.46,0,0,1-1.15-.59l.17-.27a11.45,11.45,0,0,0,1.1.57Zm8.73-.14-.14-.28a10.43,10.43,0,0,0,1.09-.6l.17.26A10.23,10.23,0,0,1,246.54,173.22Zm-10.94-1.17a11.13,11.13,0,0,1-1-.85l.22-.22c.3.29.62.56.94.82Zm13.1-.2-.2-.24a12.34,12.34,0,0,0,.92-.85l.23.22A11.13,11.13,0,0,1,248.7,171.85Zm-14.93-1.6a11.06,11.06,0,0,1-.73-1.06l.27-.16a9.82,9.82,0,0,0,.71,1Zm16.71-.25-.26-.19a10.41,10.41,0,0,0,.69-1l.27.15A11.08,11.08,0,0,1,250.48,170Zm-18-1.94a12.38,12.38,0,0,1-.46-1.2l.31-.1a9.68,9.68,0,0,0,.44,1.17Zm19.32-.29-.29-.12a9.68,9.68,0,0,0,.41-1.18l.31.09A10.22,10.22,0,0,1,251.75,167.77Zm-20.09-2.16c-.07-.42-.12-.85-.15-1.27l.32,0a8.43,8.43,0,0,0,.15,1.23Zm20.79-.31-.32-.05a10.21,10.21,0,0,0,.12-1.24h.31A10.87,10.87,0,0,1,252.45,165.3Zm-20.64-1.6h-.32a11.17,11.17,0,0,1,.08-1.29l.31,0A10.36,10.36,0,0,0,231.81,163.7Zm20.4-.94a10.46,10.46,0,0,0-.19-1.23l.31-.06a8.83,8.83,0,0,1,.19,1.27Zm-20.1-1.53-.31-.08a9.23,9.23,0,0,1,.39-1.23l.29.12A9.15,9.15,0,0,0,232.11,161.23Zm19.57-.9a8.22,8.22,0,0,0-.48-1.15l.29-.14a11,11,0,0,1,.49,1.19ZM233,158.9l-.28-.15a12.26,12.26,0,0,1,.67-1.09l.26.18A9.72,9.72,0,0,0,233,158.9Zm17.58-.8a8.9,8.9,0,0,0-.74-1l.24-.2a8.63,8.63,0,0,1,.77,1Zm-16.15-1.24-.24-.21a11.15,11.15,0,0,1,.92-.9l.21.24A9.16,9.16,0,0,0,234.43,156.86ZM249,156.2a10.45,10.45,0,0,0-1-.79l.19-.26a9.79,9.79,0,0,1,1,.82Zm-12.68-1-.17-.26a11,11,0,0,1,1.1-.66l.15.28A11.79,11.79,0,0,0,236.3,155.23Zm10.66-.49a9.53,9.53,0,0,0-1.12-.53l.11-.3a11.22,11.22,0,0,1,1.16.55Zm-8.44-.65-.11-.29a10.26,10.26,0,0,1,1.23-.37l.07.31A10.11,10.11,0,0,0,238.52,154.09Zm6.13-.28c-.4-.1-.81-.18-1.22-.24l0-.31a8.78,8.78,0,0,1,1.26.25Zm-3.71-.28,0-.31a9.07,9.07,0,0,1,1.28-.06v.32A10.37,10.37,0,0,0,240.94,153.53Z"/><path class="cls-2" d="M242.07,214.23h-.42v-.1h.42Zm0-1.78h-.42v-1.68h.42Zm0-3.36h-.42v-1.68h.42Zm0-3.36h-.42v-1.68h.42Zm0-3.36h-.42v-1.68h.42Zm0-3.36h-.42v-1.67h.42Zm0-3.35h-.42V194h.42Zm0-3.36h-.42v-1.68h.42Zm0-3.36h-.42v-1.68h.42Zm0-3.36h-.42V183.9h.42Zm0-3.36h-.42v-1.68h.42Zm0-3.36h-.42v-1.68h.42Zm0-3.36h-.42v-1.68h.42Z"/><path class="cls-25" d="M137.44,91.65h-3.56v-2a4.93,4.93,0,0,1,1.78-9.52h0a4.93,4.93,0,0,1,1.78,9.52Zm-3.37-.19h3.17V89.55l.07,0a4.73,4.73,0,1,0-6.38-4.43A4.7,4.7,0,0,0,134,89.52l.06,0Z"/><polygon class="cls-25" points="137.88 94.87 133.58 94.87 133.58 91.9 133.77 91.9 133.77 94.67 137.69 94.67 137.69 91.61 137.5 91.61 137.5 91.42 137.88 91.42 137.88 94.87"/><rect class="cls-25" x="134.07" y="92.23" width="4.05" height="0.19"/><rect class="cls-25" x="134.07" y="93.01" width="4.05" height="0.19"/><rect class="cls-25" x="134.07" y="93.79" width="4.05" height="0.19"/><rect class="cls-25" x="134.05" y="84.46" width="0.19" height="2.49"/><rect class="cls-25" x="135.63" y="84.46" width="0.19" height="2.49"/><rect class="cls-25" x="137.21" y="84.46" width="0.19" height="2.49"/><path class="cls-25" d="M135.69,95.8a1,1,0,0,1-1.07-1h.2a.87.87,0,0,0,1.74,0h.19A1,1,0,0,1,135.69,95.8Z"/><path class="cls-25" d="M142.17,87.44a1.46,1.46,0,0,0-.07.19l-.83-.32.06-.16Zm.22-.79-.86-.19a1.16,1.16,0,0,1,0-.18l.87.17C142.42,86.52,142.41,86.58,142.39,86.65Zm-.64,1.73a1.62,1.62,0,0,1-.1.18l-.77-.44L141,88Zm.79-2.75-.88-.06a1.09,1.09,0,0,0,0-.18l.89,0C142.55,85.5,142.55,85.57,142.54,85.63Zm-1.33,3.62-.13.17-.7-.55.11-.15Zm1.33-4.65-.88.07c0-.06,0-.12,0-.17l.88-.1A1.5,1.5,0,0,1,142.54,84.6Zm-2,5.43-.15.14-.6-.64.13-.13Zm1.86-6.44-.87.2c0-.06,0-.12,0-.18l.86-.22A1.46,1.46,0,0,0,142.39,83.59Zm-2.64,7.11-.17.12-.5-.73.15-.1Zm2.33-8.09-.82.32a1.11,1.11,0,0,1-.07-.16l.81-.35A1.08,1.08,0,0,1,142.08,82.61Zm-.45-.93-.76.45a.86.86,0,0,0-.1-.16l.76-.46Zm-.58-.85-.69.56a1.71,1.71,0,0,0-.11-.14l.67-.58Zm-.69-.75-.61.65-.13-.12.58-.67Zm-.81-.64-.5.73-.15-.1.48-.75Zm-.89-.52-.38.8-.17-.08.36-.81Zm-.95-.38-.27.85-.09,0-.08,0,.24-.85.09,0Zm-1.14.65-.18,0,.11-.88.2,0Zm-.89-.07h-.18l0-.89h.21Zm-3.34,11-.49.74-.17-.12.51-.72Zm2.44-11-.17,0-.16-.87.2,0Zm-3.15,10.44-.59.66-.15-.14.61-.64Zm2.28-10.24-.17.05-.28-.84.19-.06ZM131,89l-.68.57-.13-.17.7-.54A1.71,1.71,0,0,0,131,89Zm2.06-9.27-.16.08-.4-.79.18-.09Zm-2.58,8.54-.76.46-.1-.18.77-.44Zm1.8-8.1-.14.11-.52-.72.17-.12Zm-2.2,7.3-.82.34c0-.07-.05-.13-.07-.19l.82-.32A1.22,1.22,0,0,1,130.09,87.44Zm1.5-6.74-.13.12-.62-.64L131,80Zm-1.78,5.89-.86.21c0-.06,0-.13,0-.2l.87-.19C129.78,86.47,129.8,86.53,129.81,86.59ZM131,81.35a1.34,1.34,0,0,1-.11.14l-.7-.54.13-.16Zm-1.31,4.36-.88.08c0-.07,0-.14,0-.21l.89,0A1.09,1.09,0,0,0,129.66,85.71Zm.8-3.62a1.09,1.09,0,0,0-.08.15l-.78-.42.1-.18Zm-.82,2.72-.88,0c0-.07,0-.14,0-.2l.88.07A1.09,1.09,0,0,1,129.64,84.81Zm.43-1.92-.06.17-.84-.31c0-.06.05-.13.08-.19Zm-.31,1-.87-.18a1.46,1.46,0,0,1,.05-.2l.86.21A.85.85,0,0,0,129.76,83.92Z"/><path class="cls-25" d="M135.64,99.78h0V99.6h0l.68,0v.18Zm-.74,0-.71-.06,0-.18c.23,0,.47,0,.7.06Zm2.15-.06,0-.17.7-.1,0,.18Zm-3.57-.1-.71-.13,0-.18.7.14Zm5-.13,0-.17.69-.17,0,.17C138.93,99.37,138.69,99.42,138.46,99.47Zm-6.38-.18q-.35-.09-.69-.21l.06-.17c.22.08.45.15.68.21Zm7.76-.2-.05-.17.66-.24.07.17C140.29,98.94,140.07,99,139.84,99.09Zm-9.12-.26c-.22-.08-.44-.18-.66-.28l.08-.16.65.28Zm10.45-.26-.07-.17c.21-.09.42-.2.63-.31l.08.16C141.6,98.36,141.39,98.47,141.17,98.57Zm-11.75-.34c-.21-.11-.42-.23-.62-.36l.09-.15.61.35Zm13-.33-.09-.16.59-.38.1.15Zm-14.25-.41-.58-.42.11-.15.57.42Zm15.43-.4-.11-.14.56-.44.11.14Zm-16.57-.47-.53-.48.13-.13c.17.16.34.32.52.47Zm17.66-.45-.12-.13.5-.5.13.12Q145,95.92,144.71,96.17ZM126,95.63a6.17,6.17,0,0,1-.48-.54l.14-.11c.15.18.31.36.47.53Zm19.68-.5-.13-.12c.15-.18.3-.36.44-.55l.14.11C146,94.76,145.86,95,145.7,95.13Zm-20.61-.59-.42-.59.15-.1c.13.2.27.39.41.58ZM146.57,94l-.15-.1c.14-.19.26-.39.39-.6l.15.1Q146.78,93.69,146.57,94Zm-22.28-.64c-.12-.2-.24-.41-.35-.62l.16-.09c.1.21.22.42.34.62Zm23-.59-.15-.08c.11-.21.21-.42.31-.63l.16.07C147.53,92.34,147.43,92.55,147.31,92.76Zm-23.69-.67c-.1-.22-.19-.44-.28-.66l.16-.07c.09.22.18.44.28.65Zm24.3-.63-.17-.06c.09-.22.17-.45.25-.67l.17.06C148.09,91,148,91.24,147.92,91.46Zm-24.83-.7-.21-.69.18,0c.06.23.13.46.2.68Zm25.29-.66-.17,0c.06-.23.12-.46.17-.69l.17,0C148.5,89.64,148.44,89.87,148.38,90.1Zm-25.67-.73c0-.23-.09-.46-.13-.7l.18,0c0,.23.08.47.13.7Zm26-.66-.17,0c0-.23.07-.47.09-.7l.18,0C148.76,88.23,148.72,88.47,148.68,88.71ZM122.49,88c0-.24,0-.48-.06-.71h.18c0,.23,0,.47,0,.7Zm26.35-.68h-.18c0-.23,0-.47,0-.7h.18C148.86,86.8,148.85,87,148.84,87.28Zm-26.25-.73h-.18c0-.23,0-.48,0-.71h.18C122.6,86.08,122.59,86.32,122.59,86.55Zm26.07-.69c0-.24,0-.47,0-.71l.17,0q0,.36.06.72Zm-26-.72-.17,0c0-.23.06-.47.09-.71l.18,0C122.72,84.67,122.69,84.91,122.66,85.14Zm25.85-.69c0-.23-.08-.46-.13-.69l.17,0c.06.23.1.47.14.7Zm-25.62-.7-.17,0c0-.23.11-.47.17-.7l.17,0C123,83.29,122.94,83.52,122.89,83.75Zm25.32-.68c-.06-.22-.13-.45-.21-.67l.17-.06q.12.34.21.69Zm-24.94-.68-.17-.06c.08-.23.16-.45.25-.67l.16.06C123.43,81.94,123.34,82.16,123.27,82.39Zm24.49-.66c-.09-.21-.18-.43-.28-.64l.16-.08c.1.22.2.44.29.66Zm-24-.66-.16-.07c.1-.22.21-.44.32-.65l.16.09C124,80.65,123.89,80.86,123.79,81.07Zm23.38-.62-.35-.61.15-.09c.13.2.25.41.36.62Zm-22.71-.63-.15-.09c.12-.2.25-.41.38-.6l.15.1C124.71,79.42,124.58,79.62,124.46,79.82Zm22-.58-.41-.57.14-.11c.15.19.29.39.42.58Zm-21.19-.59-.14-.11.45-.55.14.11Zm20.34-.53c-.15-.18-.31-.36-.47-.53l.13-.12c.16.17.32.35.47.53Zm-19.42-.54-.13-.13c.16-.17.34-.34.51-.5l.12.13C126.5,77.24,126.33,77.41,126.17,77.58Zm18.45-.49-.53-.47.12-.14.53.48ZM127.2,76.6l-.12-.13c.18-.15.37-.31.56-.45l.11.14C127.56,76.3,127.37,76.45,127.2,76.6Zm16.34-.42q-.28-.23-.57-.42l.1-.15.58.42Zm-15.22-.43-.1-.15.6-.38.1.15C128.71,75.49,128.51,75.62,128.32,75.75Zm14.05-.37-.61-.35.08-.16c.21.11.42.23.62.36ZM129.53,75l-.08-.16.64-.31.07.16Zm11.59-.31-.65-.28.07-.16.66.28Zm-10.31-.28-.07-.17c.22-.08.45-.17.68-.24l.05.17Q131.14,74.3,130.81,74.43Zm9-.24c-.22-.08-.45-.15-.68-.21l.05-.17c.23.06.46.13.68.21ZM132.15,74l-.05-.17c.23-.07.46-.12.7-.17l0,.17Zm6.3-.17-.7-.13,0-.18.7.14Zm-4.92-.13,0-.18c.24,0,.47-.07.71-.09l0,.17Zm3.52-.1-.7,0v-.18l.71.06Zm-2.12,0v-.18l.72,0v.18C135.4,73.51,135.17,73.51,134.93,73.53Z"/><path class="cls-2" d="M12.56,111.59l-2.11-3.27L7.6,109.94l.44-5L4,101.14l18.68-2.53Zm-2-3.78,2,3.12,9.18-11.82-17,2.3,3.63,3.33-.39,4.51Z"/><path class="cls-2" d="M10.63,108.21l-.24-.3L21,99.6,8.32,105l-.15-.35,14-6a.18.18,0,0,1,.24.08.19.19,0,0,1,0,.24Z"/><path class="cls-2" d="M12.55,115.68c-.37,0-.74,0-1.1-.05l0-.31a9.4,9.4,0,0,0,1.19.05v.3Zm1.35-.08,0-.3a11.17,11.17,0,0,0,1.18-.19l.07.29A10.17,10.17,0,0,1,13.9,115.6Zm-3.67-.15a12.18,12.18,0,0,1-1.19-.3l.09-.28a11.52,11.52,0,0,0,1.16.28Zm6.06-.37-.09-.29a10.62,10.62,0,0,0,1.11-.43l.13.28A11.36,11.36,0,0,1,16.29,115.08Zm-8.4-.34a11.37,11.37,0,0,1-1.11-.54l.15-.26c.35.19.71.36,1.08.52Zm10.64-.66-.15-.26c.34-.2.68-.42,1-.65l.18.25A11.23,11.23,0,0,1,18.53,114.08Zm-12.79-.52a11.43,11.43,0,0,1-1-.75l.19-.23c.31.26.63.5,1,.73Zm14.78-.91-.2-.23c.29-.26.58-.54.85-.83l.22.2A11.77,11.77,0,0,1,20.52,112.65ZM3.88,112a11.72,11.72,0,0,1-.81-.93l.24-.19c.25.32.51.62.78.91Zm18.3-1.12-.25-.19a9.55,9.55,0,0,0,.67-1l.26.16C22.65,110.18,22.42,110.52,22.18,110.85ZM2.37,110a10.13,10.13,0,0,1-.6-1.07l.27-.13a11.66,11.66,0,0,0,.59,1Zm21.07-1.29-.28-.13a11.55,11.55,0,0,0,.45-1.1l.29.1C23.76,108,23.61,108.37,23.44,108.74Zm-22.15-.9c-.14-.39-.27-.78-.37-1.18l.3-.07a9.35,9.35,0,0,0,.35,1.14Zm23-1.41-.3-.07a11.68,11.68,0,0,0,.22-1.18l.3,0C24.41,105.62,24.33,106,24.24,106.43Zm-23.56-1c-.06-.4-.1-.81-.12-1.22h.3A11.69,11.69,0,0,0,1,105.42ZM24.55,104h-.3v-.32c0-.29,0-.59,0-.88l.3,0c0,.3,0,.6,0,.9C24.56,103.78,24.56,103.89,24.55,104Zm-23.7-.33H.55q0-.61.06-1.23l.3,0A11.71,11.71,0,0,0,.85,103.67Zm23.22-2.06a11.67,11.67,0,0,0-.27-1.17l.29-.08a9.78,9.78,0,0,1,.28,1.19Zm-23-.32-.3-.06c.09-.4.19-.8.31-1.19l.29.1A10.77,10.77,0,0,0,1.09,101.29Zm22.33-2a10.64,10.64,0,0,0-.51-1.08l.27-.15c.19.37.37.74.52,1.12ZM1.81,99l-.28-.12a10.26,10.26,0,0,1,.55-1.1l.26.14C2.15,98.29,2,98.65,1.81,99ZM22.3,97.2a11.33,11.33,0,0,0-.71-1l.23-.2c.26.32.51.65.74,1ZM3,96.93l-.25-.17c.24-.33.49-.66.76-1l.23.2C3.46,96.29,3.21,96.61,3,96.93Zm17.8-1.58a9.48,9.48,0,0,0-.89-.79l.19-.24a12,12,0,0,1,.92.82ZM4.55,95.13l-.21-.22a10.08,10.08,0,0,1,.94-.79l.18.24C5.15,94.6,4.84,94.86,4.55,95.13Zm14.37-1.28c-.33-.21-.68-.42-1-.6L18,93c.36.19.72.4,1.06.62ZM6.45,93.68l-.16-.26a11.21,11.21,0,0,1,1.08-.58l.13.27A10.65,10.65,0,0,0,6.45,93.68Zm10.35-.92a10.84,10.84,0,0,0-1.14-.37l.08-.3a11.46,11.46,0,0,1,1.17.39Zm-8.2-.11-.1-.29c.38-.13.78-.25,1.17-.35l.08.29C9.36,92.4,9,92.52,8.6,92.65Zm5.9-.52A11.71,11.71,0,0,0,13.31,92l0-.3a9.9,9.9,0,0,1,1.22.14Zm-3.58,0,0-.3c.4-.06.81-.09,1.22-.11V92A11.69,11.69,0,0,0,10.92,92.08Z"/><path class="cls-25" d="M135.84,208.83h-.23v-.89h.23Zm0-1.81h-.23v-.91h.23Zm0-1.83h-.23v-.91h.23Zm0-1.83h-.23v-.92h.23Zm0-1.83h-.23v-.92h.23Zm0-1.83h-.23v-.92h.23Zm0-1.84h-.23V197h.23Zm0-1.83h-.23v-.91h.23Zm0-1.83h-.23v-.92h.23Zm0-1.83h-.23v-.92h.23Zm0-1.84h-.23v-.91h.23Zm0-1.83h-.23v-.91h.23Zm0-1.83h-.23V186h.23Zm0-1.83h-.23v-.92h.23Zm0-1.83h-.23v-.92h.23Zm0-1.84h-.23v-.91h.23Zm0-1.83h-.23v-.91h.23Zm0-1.83h-.23v-.92h.23Zm0-1.83h-.23V175h.23Zm0-1.83h-.23v-.92h.23Zm0-1.84h-.23v-.91h.23Zm0-1.83h-.23v-.92h.23Zm0-1.83h-.23v-.92h.23Zm0-1.83h-.23v-.92h.23Zm0-1.84h-.23V164h.23Zm0-1.83h-.23v-.91h.23Zm0-1.83h-.23v-.92h.23Zm0-1.83h-.23v-.92h.23Zm0-1.83h-.23v-.92h.23Zm0-1.84h-.23v-.91h.23Zm0-1.83h-.23V153h.23Zm0-1.83h-.23v-.92h.23Zm0-1.83h-.23v-.92h.23Zm0-1.84h-.23v-.91h.23Zm0-1.83h-.23v-.91h.23Zm0-1.83h-.23v-.92h.23Zm0-1.83h-.23V142h.23Zm0-1.83h-.23v-.92h.23Zm0-1.84h-.23v-.91h.23Zm0-1.83h-.23v-.92h.23Zm0-1.83h-.23v-.92h.23Zm0-1.83h-.23v-.92h.23Zm0-1.84h-.23V131h.23Zm0-1.83h-.23v-.91h.23Zm0-1.83h-.23v-.92h.23Zm0-1.83h-.23v-.92h.23Zm0-1.83h-.23v-.92h.23Zm0-1.84h-.23v-.91h.23Zm0-1.83h-.23V120h.23Zm0-1.83h-.23v-.92h.23Zm0-1.83h-.23v-.92h.23Zm0-1.84h-.23v-.91h.23Zm0-1.83h-.23v-.91h.23Zm0-1.83h-.23v-.92h.23Zm0-1.83h-.23V109h.23Zm0-1.83h-.23v-.92h.23Zm0-1.84h-.23v-.91h.23Zm0-1.83h-.23v-.92h.23Zm0-1.83h-.23v-.92h.23Zm0-1.83h-.23v-.92h.23Z"/><path class="cls-2" d="M14,135.76h0Zm0-.92h-.23v-.92H14ZM14,133h-.23v-.92H14Zm0-1.84h-.23v-.91H14Zm0-1.83h-.23v-.91H14Zm0-1.83h-.23v-.92H14Zm0-1.83h-.23v-.92H14Zm0-1.83h-.23v-.92H14ZM14,122h-.23v-.91H14Zm0-1.83h-.23v-.91H14Zm0-1.83h-.23v-.92H14Zm0-1.83h-.23v-.92H14Z"/><path class="cls-26" d="M11.79,142.14a7.43,7.43,0,0,1,0,2.31c-.12.38-1.09,1.14-.89,1.33s2.93,3.09,3.94,2.95,4-.71,3.92-1.72a6.47,6.47,0,0,0-1.06-2.34A13.73,13.73,0,0,1,16,144c0-.11-.19-1.54-.19-1.54Z"/><path class="cls-19" d="M27.8,199.07,28,201l2.4.06s.66.06.6-.12-.72-2.7-1-2.7A23.62,23.62,0,0,0,27.8,199.07Z"/><path class="cls-19" d="M14,199.55c.46-.16-.3,1.68,0,1.86a1.89,1.89,0,0,0,1.14.42,9.75,9.75,0,0,1,1.08-.06l.54.6-.48-3.06A21.16,21.16,0,0,1,14,199.55Z"/><path class="cls-27" d="M29.42,200.27c.14-.71,1-.06,1.62.66a24.25,24.25,0,0,0,3.12,3,.75.75,0,0,1-.3,1.38,21.21,21.21,0,0,1-4.14-.48c-.3-.24-2.28-.84-2.34-1.32S27.56,201,28,201,29.3,200.87,29.42,200.27Z"/><path class="cls-27" d="M14.72,200.93c.71-.2,1.2.6,1.5.84s.84-.3.84-.12,1,2.82.06,3.3-1.86,1.5-2.76,1.5a12.51,12.51,0,0,1-2.81-.06c0-.18-.3-1.62.24-2.16a15.11,15.11,0,0,0,1.67-2.4A2,2,0,0,1,14.72,200.93Z"/><path class="cls-2" d="M17.9,169.13a11.52,11.52,0,0,0,1.74,4.5c1,1.26,5,11.1,5.28,13.38S27.5,199,27.8,199.07s2.7.12,2.94-.3-.9-13.5-1.44-15.18-4.56-16.14-4.56-16.14Z"/><path class="cls-2" d="M12.26,168.05c0,1.56.18,12.78.36,13.56a24.49,24.49,0,0,1,.72,3.9,59.6,59.6,0,0,0-.24,7.56c.18,2.76.06,6.84.78,7a5.4,5.4,0,0,0,2.88-.24c.24-.3,1-9.9.9-11s-.24-6.36-.12-7.74a54.62,54.62,0,0,1,1.62-7.26c.18-.12,1.14-.9,1.14-.9s-1.44-5.22-1.62-5.22Z"/><path class="cls-19" d="M32,156.23a16.66,16.66,0,0,0,2.33.06,10.78,10.78,0,0,1,1.75-1,2.38,2.38,0,0,1,2.19-.14c.12,0-1.45.3-1.2.43s2.61.46,2.59.55c-.14,1-2.62,2-3,2.15a6.89,6.89,0,0,1-2,.25,1.39,1.39,0,0,0-.65-.37c-.15,0-3.22.49-3.22.37s.58-2.71.58-2.71Z"/><path class="cls-19" d="M16.63,138.39c.2,0,.23.38.29.83a4,4,0,0,1-.22,1.3c0,.16-.61,2.78-1.85,2.94a4.58,4.58,0,0,1-3-.86,6.9,6.9,0,0,1-.67-1.47,3.4,3.4,0,0,1-.64.13c-.19,0-1.56-2.11-.73-2.08s1.5-4.21,1.5-4.21,2.24-.13,2.49-.16a8,8,0,0,1,1.5.38,7.75,7.75,0,0,1,1,.9A18.17,18.17,0,0,1,16.63,138.39Z"/><path class="cls-2" d="M11,140.51c.06,0,.26-.08.26-.19a5,5,0,0,1-.36-1.77c.1-.7-.17-1.85.34-2.19a11,11,0,0,1,2.45-.93,3.71,3.71,0,0,1,1.41,0,2.53,2.53,0,0,1,1.14,1.31,9.2,9.2,0,0,1,.4,1.65s.06-.67.06-1.34a3.21,3.21,0,0,0-.53-1.64c-.17-.22-.56-.33-.59-.38a2.41,2.41,0,0,0-1.82-1.33c-1.16,0-2.6.26-2.9.69s-1.32,1.55-1.38,2.34a4.5,4.5,0,0,0,.37,2C10,138.94,11,140.51,11,140.51Z"/><path class="cls-3" d="M12.46,146.46c2.06.67,2.37.8,2.83.58a15.59,15.59,0,0,1,1.94-1c.09.09,5.13,8.66,5.13,8.79s5.1,13.7,2.52,14.5-5.72,1.26-6.46,1-4.36-1.2-4.36-1.36-2.64-12.44-2.64-12.44l.43-7.69Z"/><path class="cls-4" d="M11.26,144.49s.83.8,1,1a4.52,4.52,0,0,1,.8,2c0,.68.12,10.11.15,10.88s2.67,12.79,2.37,12.88a15,15,0,0,1-3.85-2.86c-.18-.46-1.13-6.85-1.19-7.74s-1.6-4.15-1.66-5.47-2.77-5.75-2.49-6.46S11.26,144.49,11.26,144.49Z"/><path class="cls-4" d="M17.73,144.67s-.38,1.73-.93,2,2.73,7.87,2.76,8.18a82.3,82.3,0,0,0,2.89,8.82c.68,1.16,1.41,6.2,1.66,6.27s2.95-.28,2.95-.28-.8-6.79-1.2-7.78a63.15,63.15,0,0,1-1.6-7.37c-.15-1.29-.46-4.73-.52-6.09s-.12-2.18-.12-2.18A4,4,0,0,0,20.88,145C19.07,144.83,17.73,144.67,17.73,144.67Z"/><path class="cls-4" d="M15.93,143.48c.4,0,1.66.18,1.79.58a7.81,7.81,0,0,0,.49,1.08s-.15,3-.74,2.64-1-.95-.92-1.05a6.82,6.82,0,0,0,.61-2C17,144.43,16,144,16,144Z"/><path class="cls-4" d="M11.57,144.15a12,12,0,0,1,1.63,2.55,2.89,2.89,0,0,1-.62,1.33,25.57,25.57,0,0,1-2.18-3C10.5,145,11.57,144.15,11.57,144.15Z"/><path class="cls-4" d="M23.62,146.21a37.54,37.54,0,0,1,3.16,5.16,4.11,4.11,0,0,0,1.36,2.16,3.32,3.32,0,0,1,.52.21.71.71,0,0,0,.46.89c.67.34,1.93.92,1.75,1.14s-.74,3.5-1.75,3.13-1.85-.55-2.18-.67-.31.27-.53-.22a2.12,2.12,0,0,0-.49-.73s.06,1.1-.52-.19a23.72,23.72,0,0,0-2-3.26l.13-7.8Z"/><path class="cls-4" d="M30.69,155.12c.24.16,1.56.43,1.35.65a2.31,2.31,0,0,0-.89,1.72c0,1,.06,1.75-.1,1.81s-1.47.4-1.53.13a2.41,2.41,0,0,1-.12-1.82C29.76,156.85,30.69,155.12,30.69,155.12Z"/><path class="cls-4" d="M7.43,147.75c-.8.55-7.92,8.53-7.4,11.51.28,1.61,2.59,5.85,5.25,5.73.81,0,2-1.83,2-1.83S4.15,160.81,4.64,159c.4-1.47,4-4.92,3.86-5.27C8.23,153,7.43,147.75,7.43,147.75Z"/><path class="cls-28" d="M9.58,156,7,159a11.33,11.33,0,0,0,1.39.88,37.75,37.75,0,0,0,2.45-3.1C10.77,156.69,9.58,156,9.58,156Z"/><polygon class="cls-29" points="16 160.57 24.2 160.69 17.34 163.47 16.11 163.03 16 160.57"/><path class="cls-30" d="M16.5,163.16l-12.69,0a.57.57,0,0,1-.57-.56l-1.19-9a.57.57,0,0,1,.57-.56l12.69,0a.58.58,0,0,1,.57.57l1.19,9A.57.57,0,0,1,16.5,163.16Z"/><path class="cls-29" d="M15.6,163.16l-12.69,0a.57.57,0,0,1-.56-.57l-1.19-9a.56.56,0,0,1,.56-.56l12.7,0a.57.57,0,0,1,.56.57l1.19,9A.57.57,0,0,1,15.6,163.16Z"/><path class="cls-30" d="M2.45,163.91,17,163.83l7.22-2.25a.3.3,0,0,0,.28-.29V161a.29.29,0,0,0-.29-.29L16.88,163,2.44,163a.3.3,0,0,0-.28.29v.31A.29.29,0,0,0,2.45,163.91Z"/><path class="cls-19" d="M5.89,164.71l2.2-.05,2,.44s3.63-.5,3.85-.66a1.75,1.75,0,0,0,.39-.61l-7.7-.05Z"/></g></g></g></svg>