<svg xmlns="http://www.w3.org/2000/svg" xmlns:xlink="http://www.w3.org/1999/xlink" viewBox="0 0 310.26 271.7"><defs><style>.cls-1{fill:#1a2089;}.cls-2{fill:#5d4efa;}.cls-3{fill:#fff;}.cls-4{fill:#e0ba90;}.cls-5{fill:#4cc2fc;}.cls-6{fill:#0b0d3f;}.cls-7{fill:#e7c8aa;}.cls-8{fill:#96d1f1;}.cls-9{fill:#d3c4ae;}.cls-10{fill:url(#Áåçûìÿííûé_ãðàäèåíò_74);}.cls-11{fill:#b56cf7;}.cls-12{fill:url(#Áåçûìÿííûé_ãðàäèåíò_21);}</style><linearGradient id="Áåçûìÿííûé_ãðàäèåíò_74" x1="82.62" y1="202.85" x2="99.93" y2="176.52" gradientTransform="translate(239.78 351.02) rotate(157.43)" gradientUnits="userSpaceOnUse"><stop offset="0" stop-color="#141a6b"/><stop offset="1" stop-color="#0b0d3f"/></linearGradient><linearGradient id="Áåçûìÿííûé_ãðàäèåíò_21" x1="208.48" y1="31.85" x2="237.15" y2="31.85" gradientUnits="userSpaceOnUse"><stop offset="0" stop-color="#fff"/><stop offset="1" stop-color="#e7eaf7"/></linearGradient></defs><title>internet_of_things </title><g id="Layer_2" data-name="Layer 2"><g id="Layer_1-2" data-name="Layer 1"><rect class="cls-1" x="141.46" y="12.41" width="6.78" height="40.73"/><path class="cls-2" d="M166.46,39.21H123.25a5.32,5.32,0,0,0-5.32,5.33V50h53.85V44.54A5.32,5.32,0,0,0,166.46,39.21Z"/><path class="cls-1" d="M72,90.06a5.32,5.32,0,0,0-5.32,5.33v28.49A5.32,5.32,0,0,0,72,129.2h5.43V90.06Z"/><rect class="cls-2" x="112.89" y="139.11" width="63.93" height="24.73"/><rect class="cls-1" x="86.98" y="170.09" width="13.76" height="22.16"/><path class="cls-1" d="M217.68,90.06h-5.43V129.2h5.43a5.33,5.33,0,0,0,5.33-5.32V95.39A5.33,5.33,0,0,0,217.68,90.06Z"/><path class="cls-1" d="M161.25,46.45H128.46A53.47,53.47,0,0,0,75,99.92V126.3a24.46,24.46,0,0,0,24.46,24.47h90.8a24.46,24.46,0,0,0,24.47-24.47V99.92A53.47,53.47,0,0,0,161.25,46.45Z"/><rect class="cls-2" x="92.17" y="78.04" width="105.37" height="40.59" rx="20.3"/><ellipse class="cls-3" cx="119.27" cy="100.25" rx="10.46" ry="8.33"/><ellipse class="cls-3" cx="170.44" cy="100.25" rx="10.46" ry="8.33"/><path class="cls-3" d="M128.28,126.76c.66,6.91,7.83,12.35,16.57,12.35s15.92-5.44,16.58-12.35Z"/><circle class="cls-2" cx="144.85" cy="8.03" r="8.03"/><path class="cls-2" d="M96.62,225l-5.05-56.21a3,3,0,0,0-3.52-2.71h0a14.41,14.41,0,0,0-11.86,16.58l7.3,44A6.62,6.62,0,0,0,96.62,225Z"/><rect class="cls-1" x="188.96" y="170.09" width="13.76" height="22.16" transform="translate(391.69 362.34) rotate(180)"/><path class="cls-2" d="M201.65,166.11h0a3,3,0,0,0-3.51,2.71l-5,56.21a6.62,6.62,0,0,0,5.32,7.09h0a6.62,6.62,0,0,0,7.81-5.41l7.3-44A14.41,14.41,0,0,0,201.65,166.11Z"/><path class="cls-2" d="M181.13,155.16H108.57a15.31,15.31,0,0,0-15.24,16.73L97,211.81a31.9,31.9,0,0,0,31.76,28.94h32.1a31.89,31.89,0,0,0,31.76-28.94l3.72-39.92A15.31,15.31,0,0,0,181.13,155.16Z"/><path class="cls-4" d="M234.73,173.21l-6,18.43,1.77-1.12-14-1-1.27-.09-.25,2.46,1.27.16,13.91,1.83a1.63,1.63,0,0,0,1.74-1l0-.08,6.88-18.14.76-2-4.12-1.46Z"/><path class="cls-4" d="M207.6,190.1c0,.87,1.75,2,4.33,2.4,2.37.33,4.06-.51,4.16-1.39C216.33,189.15,207.65,188.74,207.6,190.1Z"/><path class="cls-4" d="M211.45,188.59c.16-.35,1.21-.4,2.46,0s1.76,1.11,1.63,1.48C215.25,190.93,211.2,189.13,211.45,188.59Z"/><path class="cls-5" d="M222,189l-.5,7.79s8.77-.51,11.62-4c4-4.84,9.2-18.62,4.82-20.72-4.87-2.32-5.14,9.58-8.75,14.94C227.61,189.37,222,189,222,189Z"/><path class="cls-6" d="M232.9,154.6c3.83-2.74,8.44-.87,9,3.09.8,5.14-.21,9.28,1.07,12.69a25.71,25.71,0,0,1,1.43,10.49c-5.22-7.12-10.62-4.18-13.6-11.33C229.89,167.24,229.24,157.23,232.9,154.6Z"/><polygon class="cls-4" points="234.43 171.93 239 171.93 239 163.18 236.2 163.18 234.43 171.93"/><path class="cls-7" d="M231.05,158.76c-.77,3.58-.2,7.2,2,8s5.56-1.21,7.17-4.76c1.7-3.74.87-6.53-2.14-7.57C234.85,153.32,231.9,154.82,231.05,158.76Z"/><polygon class="cls-4" points="224.99 246.15 228.06 223.91 231.3 201.68 231.89 197.66 240.35 199.49 239.23 203.39 233.02 224.96 226.92 246.56 226.65 247.51 224.85 247.13 224.99 246.15"/><path class="cls-4" d="M243.56,197.66l.15,4.06.82,23.62,10.31,15.38.55.82L254,242.66l-.68-.72-13.18-14.27a1.89,1.89,0,0,1-.46-.95l-.06-.35-4-23.84-.67-4Z"/><polygon class="cls-1" points="242.01 196.91 230.02 196.91 224.85 238.63 231.83 239.64 242.01 196.91"/><path class="cls-1" d="M245.3,196.91H233.78s2.11,26.67,3.83,29.8c2.06,3.76,10.22,12.48,10.22,12.48l5.54-4.28s-5.84-8.26-7.25-12.14S245.3,196.91,245.3,196.91Z"/><path class="cls-8" d="M239.11,171.18s-2.47,2.16-4.93.72c0,0-.84,9-2,12.68s-4,13-4,13l17.53.31C246.28,189.68,243.18,180.35,239.11,171.18Z"/><path class="cls-7" d="M237.33,177.11c1.15,2.14,2.26,4.38,3.27,6.61.51,1.12,1,2.24,1.43,3.37a28.59,28.59,0,0,1,1.1,3.36,7.6,7.6,0,0,1,.17.8l.14.88c.08.6.15,1.2.22,1.81.12,1.22.22,2.46.3,3.69.16,2.48.27,5,.33,7.45l0,1.2,2.32,0,0-1.2c.09-2.53.12-5,.1-7.57,0-1.27,0-2.53-.09-3.81,0-.64-.07-1.28-.12-1.93l-.1-1c0-.35-.09-.71-.16-1.05a31.55,31.55,0,0,0-1-3.83c-.41-1.23-.85-2.43-1.32-3.62-.93-2.39-1.93-4.7-3-7l-.86-1.82-3.68,1.87Z"/><path class="cls-5" d="M239.73,170.13s8.56,12.81,6.81,26.47c0,0,.74,2.68-9,2.31s-10.27-1.7-10.27-1.7a93.28,93.28,0,0,0,6.65-25.62S237.58,171.72,239.73,170.13Z"/><path class="cls-5" d="M240.65,199.49l7.48.92a93.43,93.43,0,0,0-1.4-13.38c-1.4-6.13-4-15.25-8.7-14-6.13,1.62,2.77,13.92,3.41,17.29C242,193,240.65,199.49,240.65,199.49Z"/><path class="cls-7" d="M246.82,213.09c.8-.2,1.37-2.13,1-4.55-.33-2.23-1.53-3.53-2.35-3.39C243.65,205.46,245.58,213.4,246.82,213.09Z"/><path class="cls-7" d="M244.44,210c-.36,0-.69-1-.62-2.23s.53-1.89.9-1.87C245.54,206,245,210.1,244.44,210Z"/><path class="cls-6" d="M218,248.3l1.41-.25h0l5.17-2v0a1.25,1.25,0,0,0,1.14,1.06,2.39,2.39,0,0,0,1.52-.21c0-.05.09-.08.12-.08.34,0,.62.57.62,1.27a2.39,2.39,0,0,1-.08.62v1h-10.3v-1A.44.44,0,0,1,218,248.3Z"/><path class="cls-6" d="M249.56,248.18l.88-1.14h0l2.48-5,0,0a1.23,1.23,0,0,0,1.55,0,2.38,2.38,0,0,0,1-1.17.32.32,0,0,1,0-.14c.26-.23.85,0,1.32.51a2.71,2.71,0,0,1,.36.52l.65.72-7.62,6.93-.66-.72A.44.44,0,0,1,249.56,248.18Z"/><path class="cls-6" d="M237,153.45a5.13,5.13,0,0,1,2.64.55c1.42.73,3.3,2.5,3.67,6.49.35,3.72-1.14,5.54,2,9,3.57,2.72,9.95,2.25,9.21,8.35s-8.82,5.29-10.74,2.25-1.7-5.76-2.77-7.69-2.92-.79-3.85-2.91c-1.09-2,.8-6.47,1.14-7.24a2.35,2.35,0,0,0-1.74-1.9c-2.6-.71-4.77-3.18-4.77-4S234.23,153.45,237,153.45Z"/><ellipse class="cls-7" cx="238" cy="161.39" rx="1.19" ry="0.99" transform="translate(-6.63 312.55) rotate(-65.85)"/><polygon class="cls-4" points="58.74 188.66 53.87 188.66 53.87 179.34 56.84 179.34 58.74 188.66"/><path class="cls-7" d="M62.34,174.62c.82,3.83.21,7.69-2.1,8.52s-5.92-1.29-7.64-5.07c-1.81-4-.93-7,2.28-8.07C58.28,168.83,61.43,170.43,62.34,174.62Z"/><path class="cls-6" d="M55.54,168.65c-3.54.28-5.5,3.49-5.27,6.67.21,3,3.38,4.55,3.38,4.55s1-3,2.76-3.49c2.39-.67,1.36-2.81,2.47-3s3.7-1.17,3.66-2.86C60.9,170.54,59.52,168.34,55.54,168.65Z"/><path class="cls-7" d="M55.89,177a1.08,1.08,0,1,1-1.48-.73A1.18,1.18,0,0,1,55.89,177Z"/><path class="cls-6" d="M55.54,176.32s.27,4.13,1.06,5.7c.69,1.37,3.69,2.78,5.32-.46,0,0-1.65.34-1.47-.36s1.93-.83,1.93-.83a.43.43,0,0,0,.39-.32,3.25,3.25,0,0,0-.13-1.2,15,15,0,0,1-3.23.81c-1.1,0-2.1-.78-3-3.34Z"/><path class="cls-4" d="M69.77,267.47l-4.48-25-3-12.35-3.06-12.36-1-4.21-8.78,2.8,1.58,4,4.63,11.74c1.54,3.92,3.1,7.84,4.62,11.78L67.73,268l.31,1,1.92-.47Z"/><path class="cls-4" d="M53.59,213.62l-.35,4.31-2,24.46-18.5,8.67-.95.45.7,1.82,1-.31,21.2-6.41a2.31,2.31,0,0,0,1.6-1.74l.08-.35,5.39-25.34.9-4.23Z"/><polygon class="cls-1" points="48.08 210.95 64.49 214.13 69.63 263.2 64.12 263.96 48.08 210.95"/><path class="cls-1" d="M47.27,214.22l16.57-2.31s-2.54,30.72-7.5,34.63c-2.75,2.18-18.07,5.85-18.07,5.85l-1.65-4.7s11.53-4.67,12.49-6.11S47.27,214.22,47.27,214.22Z"/><path class="cls-4" d="M59.08,190.37l10.85,15.52-2-.56,12.8-4.86,1.17-.44.92,2.23-1.13.51L69.23,208.4a1.6,1.6,0,0,1-1.92-.48l0-.07-11.55-15-1.27-1.65,3.44-2.53Z"/><path class="cls-2" d="M53.42,193.49c1.6,4.18,9.12,13.47,14.93,15.16,3.45,1,10.94-4.25,10.94-4.25L78.2,201s-5.68,3.77-8.72.87S61,189.73,58.27,189.22C55.84,188.77,52.7,191.61,53.42,193.49Z"/><path class="cls-9" d="M54.2,186.69s2.56,2.24,5.11.75c0,0,.88,9.33,2,13.14s4.44,13.62,4.44,13.62l-18.51.2C46.76,205.88,50,196.2,54.2,186.69Z"/><path class="cls-2" d="M53.32,185.93s-8.88,13.28-7.08,27.44c0,0-.76,2.78,9.32,2.4S66.21,214,66.21,214a97,97,0,0,1-6.9-26.56S55.54,187.58,53.32,185.93Z"/><path class="cls-7" d="M56.21,192.51c-1.27,2.18-2.49,4.46-3.62,6.74-.56,1.14-1.1,2.29-1.59,3.44a30,30,0,0,0-1.26,3.44c-.08.29-.15.55-.21.83l-.17.91c-.1.62-.2,1.24-.28,1.87-.18,1.26-.32,2.54-.45,3.81-.25,2.56-.44,5.15-.59,7.72L48,222.51l-2.42-.06V221.2c0-2.62.05-5.23.16-7.85.06-1.31.13-2.62.23-3.95.05-.66.12-1.32.19-2l.13-1c.06-.36.13-.73.21-1.07a33,33,0,0,1,1.21-3.94c.46-1.26,1-2.5,1.49-3.71,1-2.44,2.17-4.8,3.38-7.18l1-1.86,3.75,2.07Z"/><path class="cls-2" d="M51.83,188.26c-3.21,3.13-5,10.23-6.41,16.12s-.26,14.86-.26,14.86l3.67.16s.21-9.12,1.66-13.07,7.8-12.59,7.18-15.32C57.12,188.61,53.26,186.86,51.83,188.26Z"/><path class="cls-4" d="M87.5,199.13c.28.81-.69,2.26-2.48,3.13s-3.14.38-3.48-.42C80.79,200.07,87.06,197.88,87.5,199.13Z"/><path class="cls-7" d="M46.72,229.76c-.85-.07-1.77-1.93-1.83-4.47-.06-2.34.94-3.88,1.81-3.88C48.63,221.4,48,229.86,46.72,229.76Z"/><path class="cls-7" d="M48.62,226.2c.36-.12.52-1.14.24-2.4S48,222,47.61,222.05C46.78,222.24,48.07,226.38,48.62,226.2Z"/><path class="cls-6" d="M77.11,270.22s-1.27-.33-1.62-.46c-1.4-.5-5-2-5-2a2.15,2.15,0,0,1-1.56.86,3,3,0,0,1-1.46-.19c-.36,0-.67.56-.69,1.29a2.64,2.64,0,0,0,.07.65l0,1,10.69.32,0-1A.47.47,0,0,0,77.11,270.22Z"/><path class="cls-6" d="M33.18,260.79s0-1.31,0-1.68c.07-1.49.44-5.39.44-5.39a2.19,2.19,0,0,1-1.28-1.25,3,3,0,0,1-.24-1.45c-.09-.34-.74-.47-1.43-.28A2.12,2.12,0,0,0,30,251l-1,.26,2.81,10.32,1-.27A.46.46,0,0,0,33.18,260.79Z"/><rect class="cls-10" x="84.48" y="195.2" width="0.77" height="8.47" transform="translate(86.69 416.17) rotate(-157.43)"/><path class="cls-4" d="M85.17,198.17c-.24-.28-1.24,0-2.29.74s-1.33,1.53-1.1,1.84C82.28,201.43,85.56,198.61,85.17,198.17Z"/><path class="cls-11" d="M223.19,6.93c19.9,4,31.66,24.69,29.25,32.14s-17.95,12.07-33.9,14.37c-2.77.4-7.63,1.46-4,8.87,0,0-9.65-4.73-13.2-12.11C195.64,38.36,193.24.86,223.19,6.93Z"/><path class="cls-12" d="M208.37,31.85a3.21,3.21,0,0,1,3.26-3.42,3.17,3.17,0,0,1,3.2,3.42,3.24,3.24,0,1,1-6.46,0Z"/><path class="cls-12" d="M219.6,31.85a3.21,3.21,0,0,1,3.26-3.42,3.16,3.16,0,0,1,3.2,3.42,3.24,3.24,0,1,1-6.46,0Z"/><path class="cls-12" d="M230.83,31.85a3.21,3.21,0,0,1,3.26-3.42,3.16,3.16,0,0,1,3.2,3.42,3.24,3.24,0,1,1-6.46,0Z"/><path class="cls-11" d="M76.67,37.72C70.87,25.34,20,26.51,16.59,39.16c-3,11,13.13,17.56,28.77,24.25,7.48,3.19,13,6.24,12.32,10C71.82,65.23,81.78,48.6,76.67,37.72Z"/><path class="cls-3" d="M36.06,45.87a2.93,2.93,0,0,1,3-3.12A2.89,2.89,0,0,1,42,45.87a2.95,2.95,0,1,1-5.89,0Z"/><path class="cls-3" d="M46.31,45.87a2.93,2.93,0,0,1,3-3.12,3.12,3.12,0,1,1-3,3.12Z"/><path class="cls-3" d="M56.57,45.87a2.93,2.93,0,0,1,3-3.12,3.13,3.13,0,1,1-3,3.12Z"/><path class="cls-11" d="M308.06,101.05c-5.46-9.12-45.26-11.58-53.16-6.94-10,5.9-5,35.82,0,44.32,1.13,1.94,5.5,7.78,10,9.73,0,0-2-3.78.5-6.39,13,2.26,33,3.57,37.06.07C307.78,137.21,313.51,110.17,308.06,101.05Z"/><path class="cls-3" d="M298.54,110.75H262.05a.77.77,0,0,1,0-1.54h36.49a.77.77,0,1,1,0,1.54Z"/><path class="cls-3" d="M302.7,117.68H258.17a.78.78,0,0,1,0-1.55H302.7a.78.78,0,0,1,0,1.55Z"/><path class="cls-3" d="M297.49,124.6H259.62a.77.77,0,1,1,0-1.54h37.87a.77.77,0,0,1,0,1.54Z"/><path class="cls-11" d="M53,118.43c-5.93-6.62-40.84-7-47.7-2.9-10.42,6.14-3,31.59,1.82,34.39a48.84,48.84,0,0,0,5.33,2.54,27.63,27.63,0,0,0,8.1,9.93s-1.56-4.13-1-7.18c8.4,2.92,18.53,5.38,25.43,4.54C56.17,158.38,58.91,125.05,53,118.43Z"/><path class="cls-3" d="M45,128.22H9.42a.78.78,0,0,1,0-1.55H45a.78.78,0,0,1,0,1.55Z"/><path class="cls-3" d="M46.05,139.09H10.48a.77.77,0,1,1,0-1.54H46.05a.77.77,0,1,1,0,1.54Z"/><path class="cls-3" d="M42.06,144.53H20.41a.78.78,0,0,1,0-1.55H42.06a.78.78,0,1,1,0,1.55Z"/><path class="cls-3" d="M46.68,133.65h-39a.77.77,0,1,1,0-1.54h39a.77.77,0,1,1,0,1.54Z"/></g></g></svg>