<svg xmlns="http://www.w3.org/2000/svg" viewBox="0 0 361.77 313.44"><defs><style>.cls-1{fill:#1a2089;}.cls-2{fill:#5d4efa;}.cls-3{fill:#b56cf7;}.cls-4{fill:#fff;}.cls-5{fill:#d8d8f0;}.cls-6{fill:#4cc2fc;}.cls-7{fill:#006ae6;}.cls-8{fill:#191641;}.cls-9{fill:#e1a9c5;}.cls-10{fill:#3a3b4f;}.cls-11{fill:#304376;}.cls-12{fill:#a0681d;}</style></defs><title>cost-effective_methods</title><g id="Layer_2" data-name="Layer 2"><g id="Layer_1-2" data-name="Layer 1"><path class="cls-1" d="M64.61,207.57v-6.68h-2v6.68a1,1,0,0,0,2,0Z"/><path class="cls-2" d="M77,177.28V161.07a6.2,6.2,0,0,0-12.4,0v16.21a6.2,6.2,0,0,0,12.4,0Z"/><circle class="cls-2" cx="70.83" cy="177.27" r="4.79"/><circle class="cls-2" cx="70.83" cy="161.07" r="6.2"/><path class="cls-2" d="M59.85,194.84H64.1a3.25,3.25,0,0,1,3.25,3.25v1.27a3.25,3.25,0,0,1-3.25,3.25H59.85a0,0,0,0,1,0,0v-7.76a0,0,0,0,1,0,0Z" transform="translate(262.33 135.12) rotate(90)"/><path class="cls-1" d="M59.72,195V184.5a3.85,3.85,0,0,1,1.14-2.74l7.23-7.23A3.88,3.88,0,1,1,73.58,180l-6.1,6.1V195a3.88,3.88,0,1,1-7.76,0Z"/><circle class="cls-2" cx="63.6" cy="194.98" r="2.61" transform="translate(-43.1 19.83) rotate(-13.28)"/><circle class="cls-2" cx="70.83" cy="177.27" r="2.61" transform="translate(-27.48 13.64) rotate(-9.22)"/><rect class="cls-1" x="78.9" y="151.49" width="2.78" height="19.33" transform="translate(241.45 80.87) rotate(90)"/><path class="cls-1" d="M90,164.73H70.63v1.1H90Zm-19.32-8.25v1.1H90v-1.1Z"/><path class="cls-1" d="M90,156.48h8.12v1h-1.7a3.64,3.64,0,1,0,0,7.27h1.7v1H90Z"/><circle class="cls-1" cx="70.83" cy="161.16" r="4.68"/><circle class="cls-1" cx="70.83" cy="161.16" r="2.87"/><rect class="cls-1" x="101.58" y="157.4" width="12.36" height="7.51"/><rect class="cls-2" x="95.54" y="154.2" width="8.24" height="13.9" rx="3.45" transform="translate(199.32 322.31) rotate(-180)"/><path class="cls-1" d="M99.49,157.47a1.12,1.12,0,1,0-1.11,1.11A1.12,1.12,0,0,0,99.49,157.47Z"/><path class="cls-1" d="M98.38,159.62a1.11,1.11,0,0,0-1.12,1.11v4.5a1.12,1.12,0,0,0,2.23,0v-4.5A1.11,1.11,0,0,0,98.38,159.62Z"/><rect class="cls-1" x="109.46" y="81.09" width="12.5" height="12.45"/><path class="cls-1" d="M99.74,75.57h31.94a6.65,6.65,0,0,0,6.65-6.65H93.1A6.64,6.64,0,0,0,99.74,75.57Z"/><path class="cls-2" d="M109,75.57h13.47a9.24,9.24,0,0,1,9.24,9.24v1.8a0,0,0,0,1,0,0H99.74a0,0,0,0,1,0,0V84.8A9.24,9.24,0,0,1,109,75.57Z" transform="translate(231.42 162.17) rotate(180)"/><path class="cls-2" d="M88.21,68.92h55A13.48,13.48,0,0,0,156.7,55.44h-82A13.48,13.48,0,0,0,88.21,68.92Z"/><path class="cls-1" d="M108,156l31.39-31.39A7.45,7.45,0,1,1,150,135.18l-31.4,31.39A7.45,7.45,0,1,1,108,156Z"/><path class="cls-1" d="M116.42,164.07a4.17,4.17,0,1,0-5.9,0A4.16,4.16,0,0,0,116.42,164.07Zm31-31a4.17,4.17,0,1,0-5.9,0A4.16,4.16,0,0,0,147.46,133Z"/><path class="cls-2" d="M108.43,108.21l29.24,29.24a10,10,0,0,0,14.09-14.1L122.52,94.11a10,10,0,1,0-14.09,14.1Z"/><path class="cls-2" d="M111.77,97.46a5.58,5.58,0,1,0,7.89,0A5.56,5.56,0,0,0,111.77,97.46Zm28.77,28.76a5.58,5.58,0,1,0,7.88,0A5.58,5.58,0,0,0,140.54,126.22Z"/><rect class="cls-1" x="110.2" y="134.83" width="21.77" height="2.88" transform="translate(-60.89 125.53) rotate(-45)"/><path class="cls-1" d="M113.43,162.53A1.44,1.44,0,0,1,112,161.1V144a1.44,1.44,0,0,1,2.88,0v17.1A1.43,1.43,0,0,1,113.43,162.53Z"/><circle class="cls-1" cx="113.39" cy="143.96" r="0.91"/><path class="cls-1" d="M114.07,160.45a.91.91,0,0,0-1.28,0,.92.92,0,0,0,0,1.29.91.91,0,1,0,1.28-1.29Z"/><path class="cls-3" d="M162.29,55.44a10.16,10.16,0,0,0,0-20.31,10,10,0,0,0-4.16.9c0-.3,0-.6,0-.9A20.29,20.29,0,0,0,124.4,20,27.72,27.72,0,0,0,71.1,35.18c-.33,0-.68,0-1,0a10.16,10.16,0,1,0,0,20.31Z"/><path class="cls-4" d="M113,41.64a2.52,2.52,0,1,1,2.52,2.52A2.52,2.52,0,0,1,113,41.64Zm-1.57-3.89a1.12,1.12,0,0,1-.8-.33,1.13,1.13,0,0,1,0-1.6,6.9,6.9,0,0,1,9.78,0,1.12,1.12,0,0,1,.33.8,1.13,1.13,0,0,1-1.13,1.13,1.14,1.14,0,0,1-.8-.33,4.66,4.66,0,0,0-6.59,0,1.08,1.08,0,0,1-.79.34Zm9.87-2.82a8.18,8.18,0,0,0-11.56,0,1.13,1.13,0,0,1-1.6,0,1.13,1.13,0,0,1,0-1.6,10.44,10.44,0,0,1,14.75,0,1.11,1.11,0,0,1,.33.8,1.09,1.09,0,0,1-.33.8,1.12,1.12,0,0,1-1.59,0Zm-15.64-2.49a1.1,1.1,0,0,1,0-1.59,13.93,13.93,0,0,1,19.72,0,1.12,1.12,0,0,1,0,1.59,1.11,1.11,0,0,1-.8.33,1.09,1.09,0,0,1-.8-.33,11.7,11.7,0,0,0-16.53,0,1.09,1.09,0,0,1-.8.33A1.07,1.07,0,0,1,105.68,32.44Z"/><polygon class="cls-5" points="70.37 154.87 71.31 154.87 71.31 142.38 60.23 131.3 59.56 131.96 70.37 142.77 70.37 154.87"/><polygon class="cls-3" points="59.9 95.86 39.25 95.86 28.92 113.75 39.25 131.63 59.9 131.63 70.22 113.75 59.9 95.86"/><path class="cls-4" d="M46.8,121.27a2.78,2.78,0,1,1,2.77,2.78A2.78,2.78,0,0,1,46.8,121.27ZM45.06,117a1.27,1.27,0,0,1-.88-.36,1.24,1.24,0,0,1,0-1.76,7.62,7.62,0,0,1,10.79,0,1.25,1.25,0,0,1,.36.88A1.23,1.23,0,0,1,54.09,117a1.23,1.23,0,0,1-.88-.36,5.15,5.15,0,0,0-7.27,0,1.25,1.25,0,0,1-.88.36ZM56,113.87a9,9,0,0,0-12.75,0,1.27,1.27,0,0,1-.88.36,1.24,1.24,0,0,1-.88-2.12,11.5,11.5,0,0,1,16.27,0,1.23,1.23,0,0,1,.36.88,1.23,1.23,0,0,1-1.24,1.24A1.25,1.25,0,0,1,56,113.87ZM38.7,111.13a1.24,1.24,0,0,1,0-1.77,15.39,15.39,0,0,1,21.75,0,1.25,1.25,0,0,1-.88,2.13,1.23,1.23,0,0,1-.88-.37,12.9,12.9,0,0,0-18.23,0,1.24,1.24,0,0,1-1.76,0Z"/><rect class="cls-6" x="136.83" y="166.42" width="4.84" height="27.85" transform="translate(365.24 209.4) rotate(135)"/><path class="cls-1" d="M147,165.18H151a0,0,0,0,1,0,0V183.8a0,0,0,0,1,0,0H147a7.79,7.79,0,0,1-7.79-7.79v-3A7.79,7.79,0,0,1,147,165.18Z" transform="translate(371.1 195.27) rotate(135)"/><circle class="cls-6" cx="145.11" cy="174.49" r="4.05"/><path class="cls-1" d="M146.93,176l22-21.95a2.34,2.34,0,1,0-3.31-3.31l-22,21.95a2.34,2.34,0,0,0,3.31,3.31Z"/><path class="cls-1" d="M162.31,167.77,176,154.08a7.41,7.41,0,0,0-10.48-10.49l-13.69,13.7a7.41,7.41,0,1,0,10.48,10.48Z"/><path class="cls-2" d="M121.94,210.82l22.34-22.34a4.62,4.62,0,0,1,6.53,6.53L135,210.82a9.23,9.23,0,0,1-13.06,0Z"/><path class="cls-6" d="M121.44,204.64a4,4,0,0,1,5.68,0l.5.5-5.68,5.68-.5-.5A4,4,0,0,1,121.44,204.64Z"/><circle class="cls-7" cx="117.98" cy="201.61" r="6.19"/><path class="cls-2" d="M108.78,197.66l22.34-22.35a4.61,4.61,0,0,0-6.53-6.52L108.78,184.6a9.23,9.23,0,0,0,0,13.06Z"/><path class="cls-6" d="M115,198.16a4,4,0,0,0,0-5.68l-.5-.5-5.68,5.68.5.5A4,4,0,0,0,115,198.16Z"/><rect class="cls-1" x="175.14" y="133.01" width="4.3" height="18.82" transform="translate(201.95 368.48) rotate(-135)"/><path class="cls-1" d="M178.83,130.65,165.52,144l1.21,1.21L180,131.85Zm10.22,10.23-1.2-1.21L174.54,153l1.21,1.2Z"/><path class="cls-1" d="M189.05,140.88l8.88-8.88-1.13-1.14-1.86,1.87a5.63,5.63,0,1,1-8-8l1.86-1.87-1.14-1.13-8.87,8.88Z"/><circle class="cls-1" cx="170.85" cy="148.83" r="7.23"/><circle class="cls-1" cx="170.85" cy="148.83" r="4.45" transform="translate(-13.25 280.92) rotate(-76.72)"/><rect class="cls-1" x="193.99" y="110.8" width="18.22" height="11.61" transform="translate(-22.97 177.76) rotate(-45)"/><rect class="cls-1" x="188.18" y="114.4" width="12.74" height="21.5" rx="5.33" transform="translate(420.62 76.07) rotate(135)"/><path class="cls-6" d="M198.4,129.37a1.72,1.72,0,1,1-2.44,0A1.72,1.72,0,0,1,198.4,129.37Z"/><path class="cls-6" d="M194.83,128.24a1.72,1.72,0,0,1-2.43,0l-4.92-4.92a1.73,1.73,0,0,1,2.44-2.44l4.91,4.92A1.71,1.71,0,0,1,194.83,128.24Z"/><rect class="cls-1" x="267.11" y="183.86" width="19.32" height="36.98"/><path class="cls-1" d="M252.08,229.37h49.39a10.27,10.27,0,0,1,10.27,10.28H241.81A10.27,10.27,0,0,1,252.08,229.37Z"/><path class="cls-2" d="M252.07,212.31h49.4a0,0,0,0,1,0,0v2.78a14.28,14.28,0,0,1-14.28,14.28H266.36a14.28,14.28,0,0,1-14.28-14.28v-2.78a0,0,0,0,1,0,0Z" transform="translate(553.55 441.68) rotate(180)"/><path class="cls-2" d="M234.25,239.65h85a20.85,20.85,0,0,1,20.86,20.85H213.4A20.85,20.85,0,0,1,234.25,239.65Z"/><path class="cls-1" d="M209.3,121.61H278a11.53,11.53,0,0,0,0-23H209.3a11.53,11.53,0,0,0,0,23Z"/><path class="cls-1" d="M203.24,110.09a6.45,6.45,0,1,0,6.45-6.45A6.45,6.45,0,0,0,203.24,110.09Zm67.88,0a6.45,6.45,0,1,0,6.44-6.45A6.44,6.44,0,0,0,271.12,110.09Z"/><path class="cls-2" d="M261.36,173.45V109.51a15.42,15.42,0,0,1,30.83,0v63.94a15.42,15.42,0,0,1-30.83,0Z"/><path class="cls-2" d="M285.4,172.93a8.63,8.63,0,1,0-8.63,8.62A8.62,8.62,0,0,0,285.4,172.93Zm0-62.9a8.63,8.63,0,1,0-8.63,8.62A8.62,8.62,0,0,0,285.4,110Z"/><rect class="cls-6" x="152.73" y="227.36" width="33.14" height="33.14"/><polygon class="cls-6" points="130.65 217.84 163.79 217.84 168.46 227.36 135.33 227.36 130.65 217.84"/><path class="cls-6" d="M190.53,217.84h-30a5.06,5.06,0,0,0-4.55,2.83l-3.29,6.69h33.14Z"/><rect class="cls-6" x="135.33" y="227.36" width="17.39" height="33.14"/><rect class="cls-6" x="242.34" y="227.36" width="33.14" height="33.14"/><polygon class="cls-6" points="220.26 217.84 253.4 217.84 258.08 227.36 224.94 227.36 220.26 217.84"/><path class="cls-6" d="M280.14,217.84h-30a5.08,5.08,0,0,0-4.55,2.83l-3.28,6.69h33.14Z"/><rect class="cls-6" x="224.94" y="227.36" width="17.39" height="33.14"/><rect class="cls-6" x="64.48" y="227.36" width="33.14" height="33.14"/><polygon class="cls-6" points="42.4 217.84 75.54 217.84 80.22 227.36 47.08 227.36 42.4 217.84"/><path class="cls-6" d="M102.28,217.84h-30a5.09,5.09,0,0,0-4.55,2.83l-3.28,6.69H97.61Z"/><rect class="cls-6" x="47.08" y="227.36" width="17.39" height="33.14"/><path class="cls-2" d="M5.18,260.31h355.4v10.35H5.18a5.18,5.18,0,1,1,0-10.35Z"/><path class="cls-1" d="M361.77,268.82v-6.66H5.18a3.33,3.33,0,0,0,0,6.66Z"/><path class="cls-2" d="M308.1,265.49a1.33,1.33,0,1,0,1.33-1.33A1.34,1.34,0,0,0,308.1,265.49Zm23.21,0a1.33,1.33,0,1,0,1.33-1.33A1.33,1.33,0,0,0,331.31,265.49Zm-11.6,0a1.33,1.33,0,1,0,1.33-1.33A1.33,1.33,0,0,0,319.71,265.49Zm23.2,0a1.33,1.33,0,1,0,1.33-1.33A1.34,1.34,0,0,0,342.91,265.49Zm11.6,0a1.33,1.33,0,1,0,1.33-1.33A1.34,1.34,0,0,0,354.51,265.49Zm-278.45,0a1.33,1.33,0,1,0,1.33-1.33A1.33,1.33,0,0,0,76.06,265.49Zm34.8,0a1.33,1.33,0,1,0,1.33-1.33A1.34,1.34,0,0,0,110.86,265.49Zm-23.2,0A1.33,1.33,0,1,0,89,264.16,1.33,1.33,0,0,0,87.66,265.49Zm11.6,0a1.33,1.33,0,1,0,1.33-1.33A1.34,1.34,0,0,0,99.26,265.49Zm34.81,0a1.33,1.33,0,1,0,1.33-1.33A1.33,1.33,0,0,0,134.07,265.49Zm-11.6,0a1.33,1.33,0,1,0,1.33-1.33A1.33,1.33,0,0,0,122.47,265.49Zm-69.62,0a1.33,1.33,0,1,0,1.33-1.33A1.34,1.34,0,0,0,52.85,265.49Zm-34.8,0a1.33,1.33,0,1,0,1.32-1.33A1.33,1.33,0,0,0,18.05,265.49Zm11.6,0A1.33,1.33,0,1,0,31,264.16,1.33,1.33,0,0,0,29.65,265.49Zm266.85,0a1.33,1.33,0,1,0,1.33-1.33A1.34,1.34,0,0,0,296.5,265.49Zm-232,0a1.33,1.33,0,1,0,1.32-1.33A1.33,1.33,0,0,0,64.46,265.49Zm81.21,0a1.33,1.33,0,1,0,1.33-1.33A1.34,1.34,0,0,0,145.67,265.49Zm-104.42,0a1.33,1.33,0,1,0,1.33-1.33A1.34,1.34,0,0,0,41.25,265.49Zm-34.81,0a1.33,1.33,0,1,0,1.33-1.33A1.34,1.34,0,0,0,6.44,265.49Zm243.65,0a1.33,1.33,0,1,0,1.33-1.33A1.34,1.34,0,0,0,250.09,265.49Zm-11.6,0a1.33,1.33,0,1,0,1.33-1.33A1.34,1.34,0,0,0,238.49,265.49Zm23.21,0a1.33,1.33,0,1,0,1.32-1.33A1.33,1.33,0,0,0,261.7,265.49Zm23.2,0a1.33,1.33,0,1,0,1.33-1.33A1.33,1.33,0,0,0,284.9,265.49Zm-58,0a1.33,1.33,0,1,0,1.33-1.33A1.33,1.33,0,0,0,226.89,265.49Zm-69.62,0a1.33,1.33,0,1,0,1.33-1.33A1.34,1.34,0,0,0,157.27,265.49Zm116,0a1.33,1.33,0,1,0,1.33-1.33A1.33,1.33,0,0,0,273.3,265.49Zm-92.82,0a1.33,1.33,0,1,0,1.33-1.33A1.33,1.33,0,0,0,180.48,265.49Zm34.81,0a1.33,1.33,0,1,0,1.32-1.33A1.33,1.33,0,0,0,215.29,265.49Zm-46.41,0a1.33,1.33,0,1,0,1.32-1.33A1.33,1.33,0,0,0,168.88,265.49Zm34.8,0a1.33,1.33,0,1,0,1.33-1.33A1.34,1.34,0,0,0,203.68,265.49Zm-11.6,0a1.33,1.33,0,1,0,1.33-1.33A1.34,1.34,0,0,0,192.08,265.49Z"/><path class="cls-6" d="M194.81,249.32h-14c1.35,9.07,5.7,20.48,9.07,29.22-1.67,10.21-1.71,19.18-.57,31.17h4.33l5-25.17a35.13,35.13,0,0,0,.12-13Z"/><polygon class="cls-8" points="190.27 309.71 193.65 309.71 196.74 311.79 199.31 312.21 199.39 313.44 190.5 313.44 190.27 309.71"/><path class="cls-2" d="M202.29,239.3l-3.36,1s-6.69-11.55-9.34-17.57l6.45-4.67c3.58,2,4.93,13.42,6.6,19.85Z"/><path class="cls-6" d="M176.92,249.32c-.77,8.9-.18,18.85,0,27.81.25,10.33-.6,20.53,1.5,32.58h4.32l4.71-31.65,2.86-28.74Z"/><polygon class="cls-8" points="179.02 309.71 181.93 309.71 185.02 311.79 187.59 312.21 187.67 313.44 178.78 313.44 179.02 309.71"/><path class="cls-2" d="M196,218.09c-6.37-2.92-16-3.36-22.93,0-.23,7.15,2.8,38.34,2.8,38.34h20.55S196.25,222.36,196,218.09Z"/><path class="cls-1" d="M195.31,243.89H183.16a.63.63,0,0,1-.63-.75l3.06-19.09a.9.9,0,0,1,.86-.74H198.6a.61.61,0,0,1,.62.74l-3.05,19.09A.91.91,0,0,1,195.31,243.89Z"/><polygon class="cls-9" points="187.1 211.79 187.86 218.03 182.07 215.81 183.52 210.04 187.1 211.79"/><path class="cls-9" d="M189.23,211.28c0,1-.95,1.86-2.79,1.16l-3-1.9-1.41-4.22,1.65-3.58,5.48.34Z"/><path class="cls-10" d="M189.17,201.87h-5.28c-2.35,0-3.32,1.72-2.6,4.33l1,3.16c.26.85.32,1.31,1.16,1.61l.12-.31a3.25,3.25,0,0,0-.08-2.43v0c-.23-.56-.16-1.11.15-1.24s.76.22,1,.78a1.64,1.64,0,0,1,.12.51c.42,0,.61-.86.61-2.5l2.31-.62a3.53,3.53,0,0,0,2.41-2.22A.8.8,0,0,0,189.17,201.87Z"/><path class="cls-2" d="M172.16,240.29,169,238.8s-.62-18,4.13-20.71a8.78,8.78,0,0,1,5.18,11l-3.38,10Z"/><path class="cls-2" d="M170.79,236.61,169,238.8a7.26,7.26,0,0,0,.43,2.17,2.09,2.09,0,0,0,2.13,1.31A48.58,48.58,0,0,0,183,239.52l-.22-2.22Z"/><path class="cls-2" d="M202.64,237.94l-5.16-.26-.59,1.51,1.79,2.21a2.35,2.35,0,0,0,4.16-1.75Z"/><path class="cls-9" d="M182.07,238.6v-3.1l2.63-2.62v2.74l-.87,1.47v1.51a.88.88,0,1,1-1.76,0Z"/><path class="cls-9" d="M198.15,238.82l.64-3-2-3.11-.57,2.68.55,1.61-.32,1.49a.88.88,0,0,0,1.73.36Z"/><path class="cls-11" d="M180.52,205.07a4.85,4.85,0,0,1,3.3-6c3.44-.82,6.26.85,6.9,3.58Z"/><path class="cls-11" d="M180.78,205c-.28-2.25.44-4.29,1.6-4.57,1.61-.38,2.91,1.18,3.19,3.43Z"/><rect class="cls-11" x="180.04" y="203.71" width="11.77" height="1.01" rx="0.42" transform="translate(-42.16 48.49) rotate(-13.36)"/><path class="cls-6" d="M251.62,249.32h-14l-5.11,28.74-4.35,31.65h5.11a127,127,0,0,0,8.58-31.3C245.26,269.69,250.28,258.34,251.62,249.32Z"/><path class="cls-12" d="M213.92,238l-3.09,0-1.82.9-.1-.6a1.8,1.8,0,0,1,.78-1.79l.95-.62-2.21-.28-.26-.41,3.42.06,2.37,1.17Z"/><path class="cls-1" d="M236.43,218.09c-3.78,2.51-5.27,10.69-6.89,16.63l-15.64,1.6v2.57a47.92,47.92,0,0,0,15.86,2.17,6.37,6.37,0,0,0,5.21-3.24c2.12-3.75,6-10.8,7.91-15.06Z"/><path class="cls-6" d="M255.54,249.32h-11.3l1.69,28.74,2.78,31.65h5.11C255.93,297.59,256.32,258.38,255.54,249.32Z"/><path class="cls-1" d="M236.9,218.32a29,29,0,0,1,14-2.46c2.95.28,5.3,1.4,8,2.7.23,7.16-1.78,16.3-2.38,22-.42,4-.16,16.26-.16,16.26H236S236.69,222.6,236.9,218.32Z"/><path class="cls-2" d="M236,256.78h3.64l1.41-28.3c0-4.19,2-8.32,3.93-12l.31-.59a27.4,27.4,0,0,0-8.83,2.23C236.22,222.36,236,256.78,236,256.78Zm23.38-38.69a24.55,24.55,0,0,0-8.45-2.23,40.32,40.32,0,0,0-4,17.5v23.42h9.43s-.26-12.21.16-16.26C257.1,234.86,259.58,225.24,259.35,218.09Z"/><path class="cls-1" d="M264.28,260.79V248.65a.61.61,0,0,0-.74-.63l-19.09,3a.92.92,0,0,0-.75.87v12.14a.63.63,0,0,0,.75.63l19.09-3A.92.92,0,0,0,264.28,260.79Z"/><polygon class="cls-12" points="245.36 211.79 244.61 218.03 250.9 215.86 248.94 210.04 245.36 211.79"/><path class="cls-12" d="M243.24,211.28c0,1,.95,1.86,2.79,1.16l3-1.9,1.4-4.22-1.65-3.58-5.48.34Z"/><path class="cls-10" d="M248.58,201.87H243.3a.75.75,0,0,0-.84,1l.8,2,4.68,1.25-.8.56-.52,2.44a1,1,0,0,1-1,.82l-2.33,0,0,1.48c0,1,1.06,1.8,2.86,1a3.59,3.59,0,0,0,1.9-3.77l-.14-.86c.23-.54.66-.88,1-.75s.39.68.16,1.24v0a3.38,3.38,0,0,0,0,2.52l.08.22c.85-.3.9-.76,1.17-1.61l1-3.16C251.89,203.59,250.93,201.84,248.58,201.87Z"/><path class="cls-12" d="M257.7,259.39,256,261.87l-1.86,1.33,1.11.54a2,2,0,0,0,2-.16l1.06-.74,1-3Z"/><path class="cls-1" d="M259.35,218.09c-2.56-1-6.65,2.43-6.36,6.83.26,3.83,5.66,14.27,5.66,14.27l-2.25,20.2,3.64.45a106.31,106.31,0,0,0,4.52-21.29S262.31,219.76,259.35,218.09Z"/><polygon class="cls-8" points="253.08 309.71 249.69 309.71 246.61 311.79 244.03 312.21 243.95 313.44 252.84 313.44 253.08 309.71"/><polygon class="cls-8" points="232.73 309.71 229.35 309.71 226.26 311.79 223.69 312.21 223.61 313.44 232.5 313.44 232.73 309.71"/><path class="cls-7" d="M252.19,205.59a4.85,4.85,0,0,0-3.3-6c-3.44-.82-6.26.85-6.9,3.57Z"/><path class="cls-7" d="M251.93,205.52c.28-2.24-.44-4.28-1.6-4.56-1.61-.38-2.91,1.18-3.19,3.43Z"/><rect class="cls-7" x="240.91" y="204.23" width="11.77" height="1.01" rx="0.42" transform="translate(439.58 460.96) rotate(-166.64)"/><path class="cls-1" d="M44.71,251.51H31.29c-1.23,6.63,1.35,17.59,1.35,27.4-.32,10.15-1,19,1.76,30.89h4.52Z"/><polygon class="cls-8" points="35.11 309.8 37.97 309.8 40.59 311.82 43.03 312.24 42.88 313.44 34.63 313.44 35.11 309.8"/><polygon class="cls-8" points="49.5 309.8 52.37 309.8 54.99 311.82 57.42 312.24 57.27 313.44 49.03 313.44 49.5 309.8"/><path class="cls-1" d="M47.78,242.26H35.1s-3.87,5.58-3.87,9.25c0,8.76,12,19.35,14.56,27.4a110,110,0,0,0,3,30.89h4.75l1.27-30.89S49.17,245.27,47.78,242.26Z"/><polygon class="cls-12" points="43.03 214.28 42.54 218.15 39.35 218.28 39.38 212.92 43.03 214.28"/><path class="cls-2" d="M50.36,254c0-5,.85-30.38-1.93-33.5-3-3.34-11-3.46-17.77-.19C30.42,227.33,28,254,28,254Z"/><path class="cls-12" d="M53.68,237.2,69.6,242l.62,2.71c-4.15.42-15-1-19.4-4.31Z"/><polygon class="cls-12" points="69.6 242.02 73.47 240.42 73.88 240.71 72.88 242.06 77.47 243.78 77.23 244.13 76.34 244.44 74.56 245.69 69.67 244.77 69.6 242.02"/><path class="cls-2" d="M55.27,238.89c-.45,1.4-2.32,3.62-4.45,1.53-2.78-3.15-6.53-10.82-8.5-15.52A3.61,3.61,0,1,1,49,222.19Z"/><path class="cls-12" d="M45,213.58c.12.95-.74,1.9-2.59,1.39l-3.06-1.56-1.78-3.95,1.26-3.65,5.35-.2Z"/><path class="cls-10" d="M40.74,208.59l2.19-.82a3.44,3.44,0,0,0,2.12-2.4.78.78,0,0,0-1-.93l-5.13.51c-2.28.21-3,2-2.1,4.46Z"/><path class="cls-10" d="M36.84,209.41c.84,3.05-1.28,5-3.19,6.5l-2.27,1.69a2.55,2.55,0,0,0-.88,2.94c.46,1.24,2,2.93,5.13,2.62,4-.4,7.38-4.29,6.31-15Z"/><path class="cls-6" d="M35.52,209.68a4.76,4.76,0,0,1,2.86-6.1c3.44-1.24,6.46-.07,7.36,2.41Z"/><path class="cls-1" d="M41.31,207.59c-1.05-1.86-1.08-3.67-.05-4.05,1.43-.51,3.24.65,4.3,2.51Z"/><path class="cls-6" d="M46.44,206.75l-10.57,3.82a.47.47,0,0,1-.61-.28.49.49,0,0,1,.29-.62l10.56-3.82a.48.48,0,0,1,.61.29A.47.47,0,0,1,46.44,206.75Z"/></g></g></svg>