<svg xmlns="http://www.w3.org/2000/svg" viewBox="0 0 96.22 108.54"><defs><style>.cls-1{fill:#1dd3f8;}</style></defs><title>crucial_product_development_areas</title><g id="Layer_2" data-name="Layer 2"><g id="Layer_1-2" data-name="Layer 1"><path class="cls-1" d="M46.85,108.54A9,9,0,0,1,40.67,104a8.56,8.56,0,0,1-.92-5.44,1.28,1.28,0,0,0-.4-1.09c-8.22-4.8-16.48-9.55-24.42-14.14a28.58,28.58,0,0,1-4.77,2.08A8.42,8.42,0,0,1,5.46,69.3a1.2,1.2,0,0,0,.93-1.37q0-13.67,0-27.33c0-.61-.06-1-.76-1.26A8.08,8.08,0,0,1,.05,31.82a7.84,7.84,0,0,1,4.71-8,8.06,8.06,0,0,1,9.37,1.22l.44.36c1.41-.81,2.8-1.63,4.22-2.43a2.16,2.16,0,0,1,3.13.61,2.13,2.13,0,0,1-1,3c-1.18.71-2.37,1.4-3.58,2.05a1,1,0,0,0-.56,1.18,8.45,8.45,0,0,1-5.51,9.5.86.86,0,0,0-.69,1q0,13.94,0,27.87a.87.87,0,0,0,.7,1,8.55,8.55,0,0,1,5.54,9.51,1.3,1.3,0,0,0,.46,1.08c8.17,4.76,16.36,9.47,24.55,14.2l.2.07a8.7,8.7,0,0,1,12.15,0l3.06-1.75C64.38,88.24,71.49,84.11,78.62,80a1.3,1.3,0,0,0,.77-1.65,8.46,8.46,0,0,1,5.37-9.11,1.12,1.12,0,0,0,.9-1.26q0-13.73,0-27.44c0-.64-.1-1-.79-1.23a8.54,8.54,0,0,1-5.45-9.46A1.32,1.32,0,0,0,79,28.8C70.79,24,62.59,19.33,54.4,14.6l-.2-.07a8.7,8.7,0,0,1-12.14,0c-1.43.82-2.88,1.67-4.35,2.49a2.09,2.09,0,0,1-2.31-.11,1.79,1.79,0,0,1-.8-2,3.26,3.26,0,0,1,1.12-1.56A28.26,28.26,0,0,1,39,11.35a1.24,1.24,0,0,0,.76-1.56,8.22,8.22,0,0,1,3.79-8.38,8.11,8.11,0,0,1,9.17,0,8.32,8.32,0,0,1,3.76,8.41c-.07.54-.21,1,.43,1.32q12.3,7.06,24.58,14.16a1.65,1.65,0,0,0,.22.09c2.94-2.67,6.27-3.29,9.86-1.51a7.86,7.86,0,0,1,4.62,8,8.06,8.06,0,0,1-5.37,7.34,1.29,1.29,0,0,0-1,1.44c0,9.07,0,18.15,0,27.23,0,.56,0,1,.71,1.29a8.08,8.08,0,0,1,5.61,7.49,7.84,7.84,0,0,1-4.76,8A8.06,8.06,0,0,1,82,83.38l-.29-.22c-.29.16-.6.31-.9.48Q69,90.45,57.24,97.23a1.24,1.24,0,0,0-.75,1.56,8.55,8.55,0,0,1-6.4,9.53c-.23.06-.46.15-.69.22ZM8.48,35.64a4.24,4.24,0,1,0-4.22-4.13A4.21,4.21,0,0,0,8.48,35.64ZM48.15,12.75a4.25,4.25,0,0,0,4.21-4.26,4.24,4.24,0,0,0-8.47,0A4.25,4.25,0,0,0,48.15,12.75ZM8.51,81.41a4.26,4.26,0,0,0,4.21-4.26A4.18,4.18,0,0,0,8.47,73a4.16,4.16,0,0,0-4.21,4.23A4.23,4.23,0,0,0,8.51,81.41ZM87.76,73a4.19,4.19,0,0,0-4.23,4.22,4.23,4.23,0,1,0,8.46,0A4.16,4.16,0,0,0,87.76,73ZM48.16,104.3a4.26,4.26,0,0,0,4.2-4.27,4.24,4.24,0,0,0-8.47.06A4.26,4.26,0,0,0,48.16,104.3ZM87.68,35.64a4.24,4.24,0,1,0,.07-8.47,4.24,4.24,0,0,0-.07,8.47Z"/><path class="cls-1" d="M75.68,54.3c0,4.73,0,9.46,0,14.19a2.66,2.66,0,0,1-1.48,2.57Q61.87,78.14,49.56,85.28a2.6,2.6,0,0,1-2.88,0Q34.38,78.13,22,71.05a2.69,2.69,0,0,1-1.48-2.58q0-14.19,0-28.38a2.69,2.69,0,0,1,1.49-2.57Q34.4,30.44,46.7,23.3a2.6,2.6,0,0,1,2.87,0q12.32,7.14,24.65,14.23a2.66,2.66,0,0,1,1.47,2.57C75.65,44.83,75.68,49.57,75.68,54.3Zm-50.8-11c0,.31-.06.41-.06.51,0,7.74,0,15.47,0,23.2,0,.68.34.91.81,1.18L45.12,79.46c.26.15.53.26.84.41,0-.22,0-.32,0-.43,0-7.73,0-15.46,0-23.19a1.23,1.23,0,0,0-.79-1.2q-6.43-3.69-12.84-7.4ZM50.25,79.9c.26-.11.36-.13.45-.18Q60.78,73.9,70.85,68.06a1.6,1.6,0,0,0,.56-1.18c0-7.55,0-15.11,0-22.66,0-.26,0-.52-.07-.84l-.47.22q-10,5.77-20,11.52a1.22,1.22,0,0,0-.66,1.27q0,10.13,0,20.23ZM56.5,32.27c-.34-.23-.59-.41-.86-.56-2.25-1.31-4.53-2.59-6.76-3.93a1.31,1.31,0,0,0-1.53,0Q37.57,33.5,27.76,39.13c-.22.13-.43.29-.75.51,2.61,1.51,5.12,2.94,7.6,4.42a1.4,1.4,0,0,0,1.63,0q9.67-5.64,19.4-11.22C55.91,32.67,56.15,32.49,56.5,32.27Zm12.82,7.34c-2.68-1.55-5.2-3-7.67-4.46a1.38,1.38,0,0,0-1.63,0c-5.48,3.19-11,6.36-16.48,9.54L39.67,47c2.77,1.6,5.41,3.15,8.08,4.63a1.43,1.43,0,0,0,1.13-.19q5.84-3.33,11.65-6.7Z"/><path class="cls-1" d="M26.29,19.91a2,2,0,0,1,2-2.08,2.07,2.07,0,0,1,2.15,2.1A2.13,2.13,0,0,1,28.42,22,2.06,2.06,0,0,1,26.29,19.91Z"/><path class="cls-1" d="M65,61.07a2.21,2.21,0,0,1,2.21,1.44A2,2,0,0,1,66.28,65c-1.29.8-2.62,1.53-3.93,2.29-1.13.66-2.25,1.32-3.39,2a2.18,2.18,0,0,1-3.15-.61,2.13,2.13,0,0,1,1-3c2.35-1.38,4.7-2.73,7.06-4.07A7.49,7.49,0,0,1,65,61.07Z"/></g></g></svg>