<svg xmlns="http://www.w3.org/2000/svg" viewBox="0 0 98.92 90.45"><defs><style>.cls-1{fill:#1dd3f8;}</style></defs><title>Distinctive_features</title><g id="Layer_2" data-name="Layer 2"><g id="Layer_1-2" data-name="Layer 1"><path class="cls-1" d="M98.92,70.74C98,74.31,95.48,76,92.05,76.63c-10,2-20,4.05-30,6a13.62,13.62,0,0,1-10.4-2.18c-2.93-1.93-5.79-4-8.72-5.89-3.39-2.23-7-2.86-10.8-1.11-.11,0-.22.12-.4.22l.32.87c.94,2.36.19,4.14-2.18,5.12L18,84.61l-13,5.33c-2.47,1-3.75.55-4.93-1.81V56.44A5.16,5.16,0,0,1,3.32,53.5c4.39-1.74,8.74-3.58,13.11-5.38,2.9-1.2,4.44-.58,5.7,2.26.06.14.13.28.2.43,2.33-.73,4.61-1.51,6.92-2.16,2-.56,4-1,6.1-1.44,1.18-.25,2,.3,2.07,1.27s-.54,1.32-1.59,1.6c-3.85,1-7.68,2.12-11.51,3.19a9,9,0,0,0-.86.36l7.12,17.29c1-.32,1.84-.69,2.76-.93A13.15,13.15,0,0,1,44,71.86c2.88,1.82,5.69,3.76,8.49,5.71a12.12,12.12,0,0,0,9.87,2.08c9.85-2.06,19.73-4,29.59-6a6.87,6.87,0,0,0,2.29-1,3.57,3.57,0,0,0,1.56-4.2A3.67,3.67,0,0,0,92,66q-6.88.43-13.78.92c-3,.2-6,.41-8.95.66a2.67,2.67,0,0,0-1.29.5,6.13,6.13,0,0,1-6,1c-3.42-1.2-6.83-2.46-10.24-3.72-1.06-.38-1.49-1.13-1.18-2s1.12-1.13,2.17-.75C56,63.83,59.23,65,62.49,66.2a4.57,4.57,0,0,0,1.31.32,2.8,2.8,0,0,0,2.88-1.35,3.09,3.09,0,0,0-.42-3.6,4,4,0,0,0-.79-.7c-3.67-2.5-7.36-5-11-7.5-2.53-1.74-5.5-2.08-8.38-2.71-1.1-.24-2.21-.41-3.32-.61s-1.55-.82-1.43-1.71a1.42,1.42,0,0,1,1.89-1.15,65.43,65.43,0,0,1,8.85,1.93,33.92,33.92,0,0,1,6.65,3.63c2.45,1.53,4.76,3.29,7.19,4.87s4.44,3.56,3.94,7.24c.89-.37,1.55-.58,2.15-.9.82-.44,1.58-1,2.38-1.45,3.71-2.21,7.39-4.45,11.13-6.59a6.55,6.55,0,0,1,9.8,4.21,17.91,17.91,0,0,1,0,3.68,7,7,0,0,1,3.57,4.8ZM2.9,87.59c.29-.1.44-.13.59-.19Q16.15,82.2,28.82,77c.84-.34.82-.8.53-1.51q-5-12.06-10-24.16c-.35-.87-.75-1-1.6-.67C13.2,52.59,8.6,54.5,4,56.36A1.5,1.5,0,0,0,2.88,58c0,9.53,0,19.06,0,28.59ZM77.77,63.86l0,.19c4.67-.3,9.34-.6,14-.95.27,0,.66-.48.71-.79a3.7,3.7,0,0,0-5.47-3.93C83.94,60.18,80.86,62,77.77,63.86Z"/><path class="cls-1" d="M64.31,5.47a1.49,1.49,0,0,0,2.29-.3A4,4,0,0,1,68.19,4a2.11,2.11,0,0,1,2.44.92,1,1,0,0,0,1.55.29A1.32,1.32,0,0,1,72.71,5c.85-.15,1.08-.64,1.05-1.49-.05-1.8.71-2.51,2.5-2.53.74,0,1.49,0,2.22,0a2.14,2.14,0,0,1,2.26,2.24c0,.47-.11,1.19.14,1.38A7,7,0,0,0,83,5.44c.17,0,.48-.24.68-.43,1.67-1.59,2.49-1.58,4.14.07L89,6.24a2.16,2.16,0,0,1,0,3.39c-.26.27-.57.51-.88.79a20.83,20.83,0,0,0,.9,2.17c.11.21.56.27.87.35.67.16,1.37.23,2,.45a1,1,0,0,1,.59.71,26.73,26.73,0,0,1,0,4.65c-.12.86-1.1,1.26-2,1.16s-1.62.2-1.82,1.25A7.51,7.51,0,0,1,88,22.48a8.11,8.11,0,0,1,.95.76A2.13,2.13,0,0,1,89,26.55c-.55.58-1.12,1.16-1.71,1.71a2.12,2.12,0,0,1-3.24,0c-.35-.32-.78-.87-1.09-.82a7.78,7.78,0,0,0-2.12.87c-.13.07-.12.47-.13.71,0,2.35-.64,2.91-3,2.94-.61,0-1.43-.35-1.72.58a1.22,1.22,0,0,0,.12,1c.51.62,1.14,1.14,1.69,1.73a2.44,2.44,0,0,1,0,3.62c-1,1-2,2-3,3a2.49,2.49,0,0,1-3.63,0c-.7-.66-1.31-1.74-2.1-1.89s-1.73.65-2.61,1c-.7.3-1.69.38-2,.9s-.11,1.49-.12,2.26c0,2.24-.9,3.14-3.17,3.15-1.13,0-2.26,0-3.38,0a2.59,2.59,0,0,1-2.86-2.89c0-.87.26-1.92-.14-2.55s-1.45-.65-2.22-.95c-.24-.09-.47-.2-.7-.31-1.75-.79-1.75-.79-3.14.6-.25.25-.49.51-.76.74a2.47,2.47,0,0,1-3.49,0c-1.05-1-2.07-2-3.07-3.08a2.42,2.42,0,0,1,0-3.61c.67-.7,1.4-1.33,2-1.92-.62-1.6-1.16-3.07-1.77-4.52a1,1,0,0,0-.73-.41c-.8-.06-1.61,0-2.41,0A2.47,2.47,0,0,1,36,25.73c0-1.41,0-2.83,0-4.25A2.48,2.48,0,0,1,38.57,19c1,0,2.14.3,2.83-.14s.71-1.64,1.07-2.5c.3-.7.66-1.39,1.09-2.29-.61-.55-1.31-1.13-1.94-1.76a2.54,2.54,0,0,1,0-4c.88-.9,1.76-1.79,2.66-2.66a2.5,2.5,0,0,1,3.9,0c.66.65,1.27,1.36,1.79,1.92C51.58,6.84,53,6.3,54.44,5.7A1,1,0,0,0,54.88,5c.06-.8,0-1.61,0-2.41A2.49,2.49,0,0,1,57.55,0c1.38,0,2.77,0,4.15,0a2.48,2.48,0,0,1,2.6,2.53C64.34,3.54,64.31,4.53,64.31,5.47ZM75.52,36.92c-.42-.4-.85-.78-1.27-1.19s-.81-.83-1.23-1.22a1.6,1.6,0,0,1-.26-2.25,4.42,4.42,0,0,0,.83-1.51c.13-.81.33-1.94-.09-2.45-1-1.26-2.71-.92-3.57.49-.12.2-.21.4-.33.59A11.53,11.53,0,1,1,53.65,13.76a11.29,11.29,0,0,1,9.74-1c1.53.51,1.86.37,2.45-1.06a2.66,2.66,0,0,0,.29-.71,1.26,1.26,0,0,0-.15-.82,4.52,4.52,0,0,0-3.06-1.93c-1.24-.17-1.5-.64-1.51-1.94V3H57.8c0,1.19,0,2.34,0,3.49,0,1-.48,1.45-1.41,1.78-1.83.65-3.63,1.41-5.4,2.23-1,.48-1.49.52-2.31-.3s-1.62-1.63-2.32-2.34l-2.62,2.49c.78.77,1.56,1.53,2.33,2.31s.85,1.36.32,2.47a56.34,56.34,0,0,0-2.15,5.23c-.4,1.1-.73,1.51-1.9,1.52H38.92v3.57h3.53c1,0,1.45.5,1.78,1.41.66,1.83,1.41,3.64,2.22,5.41.46,1,.51,1.51-.32,2.32s-1.68,1.56-2.38,2.2l2.64,2.71c.73-.76,1.5-1.59,2.29-2.38S50,36.3,51,36.78c1.77.82,3.57,1.58,5.4,2.24.93.33,1.43.77,1.41,1.77s0,2.31,0,3.52h3.61c0-1.2,0-2.35,0-3.5s.45-1.46,1.38-1.79c1.84-.65,3.64-1.41,5.41-2.23,1-.48,1.5-.54,2.32.28s1.57,1.67,2.33,2.48Zm1.11-33c0,.66,0,1.21,0,1.75a1.6,1.6,0,0,1-1.22,1.54c-1.17.43-2.33.9-3.46,1.43A1.5,1.5,0,0,1,70,8.35c-.39-.42-.72-.9-1.13-1.41l-1,1.1c.42.37.78.64,1.1,1,.85.85.85,1.34.32,2.4a25.4,25.4,0,0,0-1.24,3c-.35,1.05-.73,1.41-1.87,1.43H64.67V17c.53,0,1,0,1.48,0,1.15,0,1.52.35,1.87,1.41a23.17,23.17,0,0,0,1.29,3.09,1.66,1.66,0,0,1-.3,2.26c-.38.33-.81.62-1.33,1l1.23,1.1a12.36,12.36,0,0,1,.89-1.17c.87-.89,1.3-.89,2.39-.34a19.25,19.25,0,0,0,3,1.24,1.68,1.68,0,0,1,1.44,1.76c0,.53,0,1.07,0,1.65L77.85,29c0-.55,0-1,0-1.45,0-1.21.29-1.55,1.48-1.89a5.84,5.84,0,0,0,1.8-.64c1.79-1.28,3.31-1.29,4.52.86l1-1-1.27-1.11a1.63,1.63,0,0,1-.27-2.25,21.16,21.16,0,0,0,1.31-3.19A1.6,1.6,0,0,1,88.14,17h1.65V15.84H88.41c-1.26,0-1.62-.35-2-1.51a24.68,24.68,0,0,0-1.31-3.09,1.58,1.58,0,0,1,.27-2.09c.4-.37.85-.68,1.13-.9L85.72,7,84.54,8.26a1.64,1.64,0,0,1-2.17.27,28.27,28.27,0,0,0-3.28-1.35,1.55,1.55,0,0,1-1.24-1.61V3.88ZM67,28c-.38-.34-.75-.65-1.09-1-1.68-1.68-1.68-2.45,0-4.2.17-.18.43-.46.38-.61a7.65,7.65,0,0,0-.88-2.12c-.18-.25-.89-.15-1.36-.17a2.12,2.12,0,0,1-2.28-2.2,12.63,12.63,0,0,1,0-1.74c0-.61-.21-.83-.81-.91a8.65,8.65,0,1,0-2.27,17.14A8.56,8.56,0,0,0,67,28Z"/><path class="cls-1" d="M77.09,24.26A7.84,7.84,0,0,1,77,8.58a7.49,7.49,0,0,1,6.13,2.74,1.54,1.54,0,0,1,.07,2.31c-.65.56-1.51.42-2.26-.42a5,5,0,0,0-8.54,2,4.86,4.86,0,0,0,2.81,5.72,4.92,4.92,0,0,0,6.07-1.73c.13-.19.23-.39.35-.58a1.43,1.43,0,0,1,2-.58,1.49,1.49,0,0,1,.52,2A7.8,7.8,0,0,1,77.09,24.26Z"/></g></g></svg>