<svg xmlns="http://www.w3.org/2000/svg" viewBox="0 0 69.7 69.68"><defs><style>.cls-1{fill:#1dd3f8;}</style></defs><title>goals_objective</title><g id="Layer_2" data-name="Layer 2"><g id="Layer_1-2" data-name="Layer 1"><path class="cls-1" d="M30.24,69.68c-1.48-.23-3-.39-4.42-.68a31.59,31.59,0,0,1-13.67-6.36c-.6-.47-.72-1-.35-1.53s1-.56,1.61-.06a30.88,30.88,0,0,0,11,5.53A30.18,30.18,0,0,0,54.81,17.43l-.48-.5-4.59,4.59c.74,1,1.56,2,2.26,3.07A22.88,22.88,0,0,1,55.84,37c0,.85-.35,1.34-1,1.35s-1-.48-1.05-1.32a21.21,21.21,0,0,0-5.3-13.72l-.23-.25L43.7,27.65a15.07,15.07,0,1,1-1.57-1.58l4.6-4.61c-.77-.6-1.52-1.24-2.34-1.8a21.57,21.57,0,1,0,8.87,22.65c0-.14.07-.27.11-.4a1,1,0,0,1,1.27-.81,1,1,0,0,1,.7,1.27,35.14,35.14,0,0,1-2,5.68C48.55,56.89,41.06,61.37,31,61a23.61,23.61,0,0,1-1.92-47,23.11,23.11,0,0,1,18.52,5.52l.46.38,4.64-4.64a27.69,27.69,0,0,0-5.83-4.22,30.16,30.16,0,0,0-37.58,46c.16.19.33.37.49.57a1,1,0,0,1,0,1.56A1,1,0,0,1,8.29,59a54,54,0,0,1-3.52-4.75A32,32,0,0,1,7.37,17,31.06,31.06,0,0,1,29.17,5.44a31.58,31.58,0,0,1,23.5,7.14l.42.3c-.07-1.12-.09-2.13-.21-3.13a3.16,3.16,0,0,1,1-2.81C56,4.89,58.08,2.79,60.16.7A1.61,1.61,0,0,1,62,.12a1.67,1.67,0,0,1,1,1.7c0,1,.12,2,.19,3.2l1.26-1.23c.38-.37.73-.75,1.12-1.1A1,1,0,1,1,67,4.12c-.57.61-1.18,1.19-1.77,1.79-.16.15-.3.32-.54.58,1.07.06,2,.16,3,.17a2.09,2.09,0,0,1,2,1.1v1c-.37.42-.72.85-1.12,1.25-1.91,1.93-3.86,3.82-5.75,5.78a3.26,3.26,0,0,1-3,1.07c-1-.12-2-.13-3-.19l.37.48a31.74,31.74,0,0,1,6.7,26.27A32.1,32.1,0,0,1,38.81,69c-1.48.3-3,.46-4.49.69Zm7.31-36a6.48,6.48,0,1,1-1.64-1.62l4.65-4.56a13,13,0,1,0,1.76,18.15C47,40,45.48,32.5,42.11,29.15Zm-3,0a4.31,4.31,0,0,0-5.68.85,4.44,4.44,0,0,0,6.37,6.16A4.26,4.26,0,0,0,36,35.22l-.49.46c-.82.81-1.61,1.66-2.47,2.43a1.4,1.4,0,0,1-1.08.27,1,1,0,0,1-.65-.74,1.56,1.56,0,0,1,.43-1C32.61,35.61,33.57,34.69,34.52,33.75ZM61,2.76l-.6.57c-1.36,1.36-2.67,2.79-4.11,4.06A3.25,3.25,0,0,0,55,10.8a15.91,15.91,0,0,1,.17,2.31c2.05-2,4-4,5.89-5.91a.68.68,0,0,0,.21-.4C61.19,5.5,61.11,4.2,61,2.76ZM56.65,14.54c1.25.09,2.39.2,3.53.22a1.63,1.63,0,0,0,1.07-.38c1.78-1.73,3.53-3.5,5.29-5.26l.36-.43c-1.27-.09-2.44-.2-3.61-.22a1.5,1.5,0,0,0-1,.39c-1.75,1.71-3.47,3.44-5.2,5.17Z"/></g></g></svg>