<svg xmlns="http://www.w3.org/2000/svg" viewBox="0 0 68.66 66.35"><defs><style>.cls-1{fill:#1dd3f8;}</style></defs><title>task_allotment</title><g id="Layer_2" data-name="Layer 2"><g id="Layer_1-2" data-name="Layer 1"><path class="cls-1" d="M68.66,19.63a1.7,1.7,0,0,1-1.52.62H41.67a3,3,0,0,1-.73-.06,1,1,0,0,1,0-1.91,4.24,4.24,0,0,1,.87-.05H66.61V2.07H16.31a10.2,10.2,0,0,1-.07,16.14H36a4.2,4.2,0,0,1,.87.06.88.88,0,0,1,.73.91.91.91,0,0,1-.73,1,3,3,0,0,1-.73.06q-12.81,0-25.61,0A10.12,10.12,0,0,1,9.49,0l.94,0h56.7a1.78,1.78,0,0,1,1.53.59Zm-58.6-1.42a8.1,8.1,0,1,0-8-8.1A8.11,8.11,0,0,0,10.06,18.21Z"/><path class="cls-1" d="M68.66,33.31a1.74,1.74,0,0,1-1.8,1c-1.13,0-2.27,0-3.48,0V65.13c0,.87-.36,1.2-1.25,1.2-2,0-4,0-6,0-.92,0-1.83,0-2.75,0S52,66,52,65V34.3c-1,0-2,0-3,0a6.77,6.77,0,0,1-1,0,1.36,1.36,0,0,1-1-2.17,3.64,3.64,0,0,1,.48-.56L56,23.15c1.22-1.22,2.31-1.22,3.53,0l8.39,8.39a12.21,12.21,0,0,1,.79,1Zm-18.88-1h1.27c.4,0,.8,0,1.2.05A1.92,1.92,0,0,1,54,34.18c0,.27,0,.54,0,.81v29.3h7.31V35.73c0-3.08.36-3.44,3.41-3.44h.75l-7.87-7.87Z"/><path class="cls-1" d="M43,38.83V27.56H18.57a10.19,10.19,0,0,1,0,11.27H27.4a3,3,0,0,1,.8.08A1,1,0,0,1,28,40.82a5,5,0,0,1-.67,0c-3.35,0-6.7,0-10,0a1.84,1.84,0,0,0-1,.32,10.12,10.12,0,1,1-7.61-18,9.74,9.74,0,0,1,7.45,1.92,2,2,0,0,0,1.34.43q13,0,26,0c1.24,0,1.51.26,1.51,1.48v12.4c0,1.17-.29,1.45-1.47,1.45H32.9c-.2,0-.46.07-.59,0A2.17,2.17,0,0,1,31.5,40a.81.81,0,0,1,.61-1,2.68,2.68,0,0,1,.85-.1H43ZM10.13,25.07a8.1,8.1,0,1,0,8.11,8.23A8.13,8.13,0,0,0,10.13,25.07Z"/><path class="cls-1" d="M35.77,59.24v-6H19.83a10.41,10.41,0,0,1,0,5.93c.3,0,.53.05.76.05,1.49,0,3,0,4.49,0,.76,0,1.24.41,1.23,1s-.47,1-1.2,1h-.47c-1.7,0-3.4,0-5.09,0a1,1,0,0,0-.92.5,10.12,10.12,0,1,1-.08-11.14,1.15,1.15,0,0,0,1.13.59H36.21c1.34,0,1.6.26,1.6,1.61v7c0,1.1-.31,1.42-1.38,1.42H30c-.75,0-1.17-.39-1.16-1s.41-1,1.17-1h5.76ZM10.12,64.32A8.1,8.1,0,1,0,2,56.23,8.1,8.1,0,0,0,10.12,64.32Z"/><path class="cls-1" d="M10.17,6.25H9.08a.94.94,0,0,1-1-.91.88.88,0,0,1,.82-1,14.92,14.92,0,0,1,2.41,0,.93.93,0,0,1,.84,1c0,3.2,0,6.39,0,9.59a1,1,0,1,1-2-.05q0-3.85,0-7.71Z"/><path class="cls-1" d="M9.86,37.09c1,0,1.88,0,2.82,0s1.43.84,1,1.49a1.35,1.35,0,0,1-.94.48c-1.56,0-3.12,0-4.68,0-.38,0-1-.21-1.07-.48a1.62,1.62,0,0,1,.17-1.28c.69-1.07,1.51-2,2.24-3.09s1.25-1.8,1.81-2.73a1.4,1.4,0,0,0-.05-1.64,1.44,1.44,0,0,0-1.48-.55,1.42,1.42,0,0,0-1.16,1.07c-.26.74-.77,1-1.36.8s-.75-.75-.54-1.45a3.47,3.47,0,0,1,4.29-2.34,3.32,3.32,0,0,1,2.35,4.29,8.84,8.84,0,0,1-1.07,2.07c-.72,1.1-1.52,2.15-2.28,3.22C9.85,37,9.86,37,9.86,37.09Z"/><path class="cls-1" d="M12.62,56.23a3.49,3.49,0,1,1-6,2.64,1,1,0,0,1,.88-1.15,1,1,0,0,1,1.1.91.13.13,0,0,1,0,.06c.2,1,.73,1.52,1.57,1.48a1.42,1.42,0,0,0,1.37-1.38c.05-.86-.44-1.39-1.47-1.56-.59-.1-1-.4-1-1s.38-.91,1-1c1-.19,1.42-.59,1.48-1.35a1.41,1.41,0,0,0-1.1-1.54,1.45,1.45,0,0,0-1.71.83c-.44,1-.85,1.28-1.47,1s-.77-1-.32-1.92a3.48,3.48,0,1,1,6,3.41C12.91,55.85,12.77,56,12.62,56.23Z"/></g></g></svg>