<svg xmlns="http://www.w3.org/2000/svg" viewBox="0 0 75.14 76.36"><defs><style>.cls-1{fill:#1dd3f8;}</style></defs><title>technical_advancement</title><g id="Layer_2" data-name="Layer 2"><g id="Layer_1-2" data-name="Layer 1"><path class="cls-1" d="M38,76.36a4.88,4.88,0,0,1-3.52-2.71A10,10,0,0,1,34,70.91c0-.48-.17-.64-.65-.63-1.79,0-3.58,0-5.37,0a1.64,1.64,0,0,1-1-.39C26,69,25.08,68,24.12,67a1.06,1.06,0,0,0-.6-.36c-2.95,0-5.91,0-8.95,0v3.57H6.12V46.06H6.9c1.91,0,3.82,0,5.74,0a1,1,0,0,0,.94-.52A3.67,3.67,0,0,0,13.93,41a2.25,2.25,0,0,0-1.32-1.21c-1.38-.4-2.73-.89-4.12-1.36V32.75c0-2.49,0-5,0-7.46,0-.52.12-.79.66-.95,1.26-.37,2.5-.84,3.75-1.22a1.21,1.21,0,0,0,.94-.92,3.56,3.56,0,0,1,.38-1,2.43,2.43,0,0,0-.06-2.93,25.5,25.5,0,0,1-1.44-2.86.85.85,0,0,1,.08-.75c3.13-3.16,6.28-6.3,9.48-9.51,1.37.68,2.75,1.35,4.1,2.06a1.26,1.26,0,0,0,1.37,0,2.89,2.89,0,0,1,.88-.4,2.56,2.56,0,0,0,2.13-2.3c.22-1,.62-1.89.92-2.83.12-.38.27-.57.72-.56,4.28,0,8.55,0,12.83,0a.6.6,0,0,1,.68.49c.4,1.26.85,2.49,1.22,3.75.18.6.44,1,1.1,1.15a1.39,1.39,0,0,1,.55.22,3,3,0,0,0,3.67-.16,16.61,16.61,0,0,1,2.46-1.23.81.81,0,0,1,.74.11q4.59,4.53,9.12,9.12a.92.92,0,0,1,.1.81C64.26,16.74,63.58,18,63,19.26a1.72,1.72,0,0,0,0,1c.11.43.43.8.52,1.23a2.24,2.24,0,0,0,1.92,1.85c1.08.26,2.11.71,3.18,1a.6.6,0,0,1,.49.69q0,6.42,0,12.83a.65.65,0,0,1-.56.72c-1.3.41-2.58.87-3.88,1.28a1.09,1.09,0,0,0-.86.8,4.81,4.81,0,0,1-.5,1.24,2.15,2.15,0,0,0,0,2.53c.58.93,1,2,1.5,2.91.28.49.16.77-.21,1.14C61.8,51.35,59,54.16,56.23,57a9.85,9.85,0,0,0-1.32,2.28c0,.09.09.31.18.44a3.56,3.56,0,0,1,0,4.13.86.86,0,0,0,0,.75,3.6,3.6,0,0,1-2.91,5.63c-2.54.08-5.07,0-7.61,0h-.92c0,.54,0,1-.09,1.47a4.78,4.78,0,0,1-3.82,4.48c-.09,0-.18.08-.27.12ZM54.91,54.5l7.21-7c-.61-1.22-1.26-2.45-1.83-3.71a1.49,1.49,0,0,1,0-1c.52-1.37,1.09-2.71,1.68-4.05a1.35,1.35,0,0,1,.63-.62c1.19-.44,2.39-.83,3.6-1.2a.6.6,0,0,0,.49-.69c0-3.11,0-6.21,0-9.32a.64.64,0,0,0-.54-.73c-1.18-.37-2.36-.75-3.52-1.19a1.31,1.31,0,0,1-.67-.66c-.59-1.31-1.15-2.64-1.66-4a1.54,1.54,0,0,1,0-1.08c.57-1.27,1.22-2.5,1.87-3.79-2.37-2.35-4.7-4.69-7.07-7a.88.88,0,0,0-.75,0c-1.15.54-2.27,1.14-3.41,1.67a1.27,1.27,0,0,1-.88,0c-1.36-.53-2.71-1.1-4-1.7a1.44,1.44,0,0,1-.7-.72c-.43-1.14-.81-2.29-1.17-3.45a.68.68,0,0,0-.78-.57q-4.59,0-9.18,0c-.49,0-.68.18-.82.63C33,5.4,32.64,6.56,32.22,7.69a1.25,1.25,0,0,1-.6.64c-1.36.61-2.74,1.18-4.12,1.72a1.24,1.24,0,0,1-.87,0c-1.15-.53-2.28-1.11-3.4-1.7a.64.64,0,0,0-.89.16c-2.17,2.19-4.34,4.37-6.54,6.53a.69.69,0,0,0-.13,1c.57,1.1,1.14,2.2,1.65,3.33a1.19,1.19,0,0,1,0,.87c-.53,1.36-1.09,2.71-1.69,4.05a1.44,1.44,0,0,1-.72.7c-1.14.43-2.3.79-3.46,1.16-.37.12-.57.27-.56.72,0,3.1,0,6.21,0,9.32a.6.6,0,0,0,.49.69c1.19.36,2.37.75,3.52,1.19a1.42,1.42,0,0,1,.73.7c.6,1.33,1.17,2.68,1.69,4a1.22,1.22,0,0,1,0,.92c-.49,1-1.06,2-1.6,3l-.94,1.75H25a21.72,21.72,0,0,1-7.91-14.9,21,21,0,0,1,5-16,21.69,21.69,0,0,1,28.93-4,20.81,20.81,0,0,1,9,13.31c1.75,8.61-.92,15.82-7.5,21.7a3.74,3.74,0,0,1,3,2.44A3.78,3.78,0,0,1,54.91,54.5ZM43.65,43.63c1,0,2,0,3,0a.9.9,0,0,0,.45-.22A14.42,14.42,0,0,0,52.6,27a14,14,0,0,0-11-9.73,13.81,13.81,0,0,0-13.86,4.82,14.47,14.47,0,0,0,2,20.78c1.35,1.09,2.73.61,4.18.74,0-1.72,0-3.31,0-4.9a1.77,1.77,0,0,0-.45-1.09c-1.3-1.36-2.66-2.68-4-4a1.39,1.39,0,0,1-.4-.81c0-2-.05-4.08,0-6.11A4.68,4.68,0,0,1,32.75,22a24.5,24.5,0,0,1,3.62-.28v6.32c0,.77.26,1,1,1,.94,0,1.89,0,2.83,0,.7,0,1-.31,1-1,0-1.82,0-3.63,0-5.45,0-.26,0-.53,0-.84.86,0,1.66,0,2.44,0a4.84,4.84,0,0,1,4.79,5.12c0,1.89,0,3.78,0,5.67A1.76,1.76,0,0,1,48,33.69c-1.29,1.35-2.63,2.64-3.94,4-.16.17-.38.4-.38.6C43.64,40,43.65,41.78,43.65,43.63Zm-14.19,10C31,52.1,32.57,50.58,34.08,49a1.69,1.69,0,0,1,1.35-.58c3.85,0,7.7,0,11.55,0,.94,0,1.48-.46,1.48-1.2s-.54-1.2-1.48-1.2q-7.23,0-14.46,0a1.38,1.38,0,0,0-.89.38c-1.32,1.27-2.62,2.58-3.9,3.9a1.66,1.66,0,0,1-1.3.55c-3.65,0-7.3,0-10.95,0H14.6V64.25h.85c2.81,0,5.62,0,8.43,0a1.81,1.81,0,0,1,1.49.61c.84.91,1.74,1.77,2.63,2.64.15.15.35.36.53.36,1.78,0,3.56,0,5.36,0v-15l-.19-.13-2.54,2.69Zm-.35-8.17A17,17,0,1,1,50.58,19.34a17,17,0,0,1-.81,25.13l1.17,2.05a19.14,19.14,0,0,0,6.31-20.89,19.38,19.38,0,0,0-37.51,2.31c-1.6,8.46,2.77,16,7.75,19.19ZM34,24.34a2.28,2.28,0,0,0-2.44,2.48c0,1.64,0,3.28,0,4.92a1.35,1.35,0,0,0,.37.82C33,33.73,34.15,34.87,35.31,36a1.28,1.28,0,0,0,.82.36c1.77,0,3.53,0,5.29,0a1.23,1.23,0,0,0,.78-.31c1.22-1.17,2.4-2.37,3.58-3.57a.9.9,0,0,0,.27-.58c0-1.78.05-3.57,0-5.36a2.26,2.26,0,0,0-2.4-2.22,29.52,29.52,0,0,0,0,3.26A3.51,3.51,0,0,1,42.26,31a1.85,1.85,0,0,1-1.31.51,21.36,21.36,0,0,0-3.2,0,3.36,3.36,0,0,1-3.28-1.37,1.86,1.86,0,0,1-.53-1.3C34,27.36,34,25.88,34,24.34ZM12,67.83V48.53H8.54v19.3ZM36.4,50.94c0,.24,0,.42,0,.59V71.27a4.43,4.43,0,0,0,0,.52,2.43,2.43,0,0,0,2.39,2.14,2.39,2.39,0,0,0,2.39-2.2,5.26,5.26,0,0,0,0-1.19,1.06,1.06,0,0,0-.43-.66,3.59,3.59,0,0,1-1.29-5.3.79.79,0,0,0,0-.69,3.58,3.58,0,0,1,0-4.13.8.8,0,0,0,0-.69,3.59,3.59,0,0,1,0-4.19c.1-.14.19-.41.12-.51A3.8,3.8,0,0,1,39,50.94Zm10.86,0h0c-1.56,0-3.13,0-4.69,0a1.24,1.24,0,0,0-1.34,1.21c0,.68.5,1.15,1.32,1.22h9a3.25,3.25,0,0,0,.88-.09,1.16,1.16,0,0,0,.74-1.66,1.41,1.41,0,0,0-1.39-.69Zm.06,9.7c-1.46,0-2.93,0-4.39,0a3.66,3.66,0,0,0-.81.09,1.17,1.17,0,0,0,0,2.27,3.65,3.65,0,0,0,.81.08h8.64c.32,0,.73,0,.94-.13s.73-.69.74-1.06a1.8,1.8,0,0,0-.69-1.1c-.2-.17-.61-.14-.93-.15C50.2,60.58,48.76,60.59,47.32,60.59Zm0-2.42h4.47c.94,0,1.49-.45,1.5-1.18s-.53-1.22-1.45-1.23H42.7c-.93,0-1.48.48-1.47,1.22s.56,1.18,1.5,1.19Zm-.07,7.29H42.73c-.94,0-1.48.44-1.5,1.18s.54,1.22,1.46,1.22c3.05,0,6.11,0,9.16,0,.92,0,1.48-.48,1.46-1.22s-.56-1.18-1.49-1.18ZM36.43,38.8v4.78h4.71V38.8Z"/><path class="cls-1" d="M70.83,76.36a6.5,6.5,0,0,0-.61-.25A3.61,3.61,0,0,1,68,72.05a3.62,3.62,0,1,1,4.83,4.06l-.61.25Zm1.88-3.61a1.18,1.18,0,0,0-1.15-1.21,1.17,1.17,0,0,0-1.23,1.12,1.22,1.22,0,0,0,1.17,1.27A1.25,1.25,0,0,0,72.71,72.75Z"/><path class="cls-1" d="M0,3.61A3.67,3.67,0,0,1,3.7,0,3.68,3.68,0,0,1,7.27,3.66,3.68,3.68,0,0,1,3.65,7.27,3.68,3.68,0,0,1,0,3.61Zm4.82.05A1.21,1.21,0,0,0,3.68,2.43,1.25,1.25,0,0,0,2.43,3.64a1.2,1.2,0,0,0,1.2,1.17A1.17,1.17,0,0,0,4.82,3.66Z"/><path class="cls-1" d="M4.78,25.42H2.48V23.08h2.3Z"/><path class="cls-1" d="M72.69,53.29H70.34V50.94h2.35Z"/><path class="cls-1" d="M2.45,19.35V17H4.81v2.33Z"/><path class="cls-1" d="M72.7,57v2.31H70.35V57Z"/><path class="cls-1" d="M4.78,13.27H2.45V11H4.78Z"/><path class="cls-1" d="M70.34,63.08h2.35v2.34H70.34Z"/></g></g></svg>