<svg xmlns="http://www.w3.org/2000/svg" xmlns:xlink="http://www.w3.org/1999/xlink" viewBox="0 0 247.2 256"><defs><style>.cls-1{fill:#5d4efa;}.cls-2{fill:#292f53;}.cls-3{fill:#e6b38e;}.cls-4{fill:#253f5d;}.cls-5{fill:#6cafe0;}.cls-6{fill:url(#Áåçûìÿííûé_ãðàäèåíò_8);}.cls-7{fill:#de9d85;}.cls-8{fill:url(#Áåçûìÿííûé_ãðàäèåíò_8-2);}.cls-9{fill:#1a2089;}.cls-10{fill:#4cc2fc;}.cls-11{fill:#fff;}.cls-12{fill:#b56cf7;}.cls-13{fill:url(#Áåçûìÿííûé_ãðàäèåíò_8-3);}.cls-14{fill:#006ae6;}.cls-15{fill:#263a5a;}.cls-16{fill:#bad7c6;}</style><linearGradient id="Áåçûìÿííûé_ãðàäèåíò_8" x1="-470.29" y1="196.32" x2="-429.33" y2="196.32" gradientTransform="matrix(1, 0.1, -0.1, 1, 675.17, -6.17)" gradientUnits="userSpaceOnUse"><stop offset="0" stop-color="#e3eee9"/><stop offset="1" stop-color="#c9e2ed"/></linearGradient><linearGradient id="Áåçûìÿííûé_ãðàäèåíò_8-2" x1="194.07" y1="122.56" x2="202.56" y2="122.56" gradientTransform="matrix(1, 0, 0, 1, 0, 0)" xlink:href="#Áåçûìÿííûé_ãðàäèåíò_8"/><linearGradient id="Áåçûìÿííûé_ãðàäèåíò_8-3" x1="0.99" y1="113.38" x2="39.13" y2="113.38" gradientTransform="matrix(1, 0, 0, 1, 0, 0)" xlink:href="#Áåçûìÿííûé_ãðàäèåíò_8"/></defs><title>strategizing</title><g id="Layer_2" data-name="Layer 2"><g id="Layer_1-2" data-name="Layer 1"><polygon class="cls-1" points="155.54 134.14 129.78 93.82 103.38 134.14 117.47 134.14 117.47 198.03 141.45 198.03 141.45 134.14 155.54 134.14"/><polygon class="cls-1" points="89.61 179.6 63.84 139.28 37.44 179.6 51.53 179.6 51.53 243.49 75.51 243.49 75.51 179.6 89.61 179.6"/><rect class="cls-1" x="52.56" y="179.94" width="23.72" height="73.8"/><rect class="cls-1" x="84.62" y="143.04" width="23.72" height="110.7"/><rect class="cls-1" x="118.15" y="162.81" width="23.72" height="90.93"/><polygon class="cls-1" points="164.04 58.1 137.64 98.42 151.74 98.42 151.74 110.1 151.69 110.1 151.69 253.74 175.41 253.74 175.72 98.42 189.81 98.42 164.04 58.1"/><path class="cls-2" d="M185.25,250.69s-2.19,2-7.19,3.31c-1.1.28-2.28-.1-2.28,1.71h6.06l5-.87v.87h2.72s.76-4.45-.83-5Z"/><path class="cls-3" d="M185.55,247.5l-.3,3.19h0a3.07,3.07,0,0,0,3.33.11l.19-.11.56-3.19Z"/><path class="cls-2" d="M211.71,250.69s2.19,2,7.19,3.31c1.09.28,2.28-.1,2.28,1.71h-6.06l-5-.87v.87h-2.72s-.76-4.45.83-5Z"/><path class="cls-3" d="M211.41,247.5l.3,3.19h0a3.07,3.07,0,0,1-3.33.11l-.19-.11-.56-3.19Z"/><path class="cls-4" d="M187.25,161c-3.27,15.83-3.77,32.87-3.84,47.17a378.36,378.36,0,0,0,1.77,39.87h4.71l9.83-65.85s1.08,9.8,2.53,26.4c1.14,13,1.67,24,4.73,39.45h4.73s2.81-45.85,2.81-85.35C203.45,162.71,192.94,161,187.25,161Z"/><path class="cls-3" d="M166.18,92.57l-2.88-2.94a1,1,0,0,1-.26-1l.22-.83a1,1,0,0,1,.48-.63l3.49-2a1,1,0,0,1,1.28.17l.35.37a1,1,0,0,1,.28.72v5.1Z"/><path class="cls-5" d="M165.52,92.58s5.41,20.62,8.79,28.24,15,20.6,15,20.6l7.5-15.5s-10.89-6.71-16-13.21-11.26-21.94-11.26-21.94Z"/><path class="cls-3" d="M233.23,89.9l2.18-3.49a1,1,0,0,0,0-1l-.39-.76a1,1,0,0,0-.6-.52l-3.86-1.26a1,1,0,0,0-1.2.45l-.27.43a1,1,0,0,0-.12.77l1.1,5Z"/><path class="cls-5" d="M195.6,123.05c-8.78,4.64-8.31,38.54-8.31,38.54L215,163.84l-1.72-27.77s12-12.9,15.16-22.88a202.9,202.9,0,0,0,5.43-23.85l-4.21,0s-7.24,17.92-11,22.91-15.44,11.44-15.44,11.44Z"/><path class="cls-6" d="M187.56,161.08c0-3.66.16-26.48,5.48-35.05l-.24-.62c-5.89,8.84-5.81,33.43-5.79,36Z"/><path class="cls-7" d="M201.16,123.09l-.64-4.8-5.44.08-1,5.53.1.12A15.4,15.4,0,0,1,201.16,123.09Z"/><path class="cls-3" d="M204.37,109.43l-2.13,7.23a1.17,1.17,0,0,0-1.37,1.19,1.62,1.62,0,0,0-.25.51,8.64,8.64,0,0,1-6.89,0c-4.42-2,.53-10.29.53-10.29Z"/><path class="cls-2" d="M205.38,115.49a4.64,4.64,0,0,1,1.66-1.75c3.17-1.64,1.23-3.86.52-4.59s-.19-2.44-1.16-3.66c-1.48-1.87-3.59-.81-4.7-1.31s-1.47-2.22-3.36-1.81-2,1.79-2.71,2.22-1.3-1.36-3.38,0c-3.17,2.09,1.49,4.44,1.49,4.44a9.17,9.17,0,0,0,6.34,1.22,1.21,1.21,0,0,1,1.3.68c.57,1.37-.89,7.48-.89,7.48l1.43-.7S204.63,117.91,205.38,115.49Z"/><path class="cls-3" d="M202.45,115.42a1.16,1.16,0,1,1-.26-1.62A1.15,1.15,0,0,1,202.45,115.42Z"/><polygon class="cls-8" points="194.43 121.91 194.07 124.45 202.56 123.61 201.09 120.66 194.43 121.91"/><circle class="cls-1" cx="197.47" cy="49.73" r="49.72" transform="translate(22.67 154.2) rotate(-45)"/><path class="cls-9" d="M164.05,28.71A38.58,38.58,0,1,1,176,82,38.57,38.57,0,0,1,164.05,28.71Z"/><path class="cls-9" d="M226.25,68a34.84,34.84,0,1,0-48.08,10.8A34.84,34.84,0,0,0,226.25,68ZM173.38,34.58a27,27,0,1,1,8.39,37.31A27,27,0,0,1,173.38,34.58Z"/><path class="cls-10" d="M214.56,60.86a21.86,21.86,0,1,0-30.17,6.77A21.86,21.86,0,0,0,214.56,60.86ZM181.39,39.92a17,17,0,1,1,5.26,23.41A17,17,0,0,1,181.39,39.92Z"/><path class="cls-10" d="M184.86,67.1a21.21,21.21,0,1,1,29.27-6.57A21.2,21.2,0,0,1,184.86,67.1Z"/><path class="cls-4" d="M191.83,55.49A7.88,7.88,0,1,1,202.71,53,7.89,7.89,0,0,1,191.83,55.49Z"/><path class="cls-11" d="M193.83,52.34a4.15,4.15,0,1,1,5.73-1.29A4.16,4.16,0,0,1,193.83,52.34Z"/><path class="cls-12" d="M135.05,70.61c-.27,1.6-.72,4,3.38,3.65-3.08,3.17-1.28,4.52-.06,5.41,1.45,1.06,6.21-1.19,10.62-5,2.77-2.42,5.32-4.5,6-6.27.84-1.59-.21-2.19-.4-2.23-1.55-.73-5.57-1.08-9.22-.43C139.92,66.69,135.37,68.68,135.05,70.61Z"/><polygon class="cls-12" points="195.91 49.05 182.71 53.63 183.67 55.77 195.91 49.05"/><path class="cls-12" d="M180.54,53.52,143.74,72l38.52-14.42c1.92-.71,3.11-2.38,2.56-3.58h0C184.29,52.86,182.33,52.62,180.54,53.52Z"/><path class="cls-12" d="M174.28,56.68l1.51,3.37,6.47-2.43c1.92-.71,3.11-2.38,2.56-3.58s-2.49-1.42-4.28-.52Z"/><polygon class="cls-9" points="74.6 255.18 45.34 164.22 47 164.22 76.26 255.18 74.6 255.18"/><polygon class="cls-9" points="59.47 255.18 30.21 164.22 31.87 164.22 61.13 255.18 59.47 255.18"/><polygon class="cls-9" points="54.58 187.84 54.58 189.19 38.91 189.18 38.64 187.83 54.58 187.84"/><polygon class="cls-9" points="51.34 179.02 51.34 180.38 35.67 180.37 35.4 179.01 51.34 179.02"/><polygon class="cls-9" points="48.66 170.21 48.66 171.56 32.99 171.56 32.72 170.2 48.66 170.21"/><polygon class="cls-9" points="57.44 196.76 57.44 198.12 41.76 198.11 41.49 196.75 57.44 196.76"/><polygon class="cls-9" points="60.12 205.69 60.12 207.05 44.44 207.04 44.17 205.68 60.12 205.69"/><polygon class="cls-9" points="62.89 214.96 63.52 216.32 47.85 216.31 47.58 214.96 62.89 214.96"/><polygon class="cls-9" points="65.83 224.24 66.46 225.59 50.79 225.59 50.52 224.23 65.83 224.24"/><polygon class="cls-9" points="68.58 233.31 69.22 234.66 53.54 234.65 53.27 233.3 68.58 233.31"/><polygon class="cls-9" points="70.86 242.57 71.5 243.93 55.82 243.92 55.55 242.56 70.86 242.57"/><polygon class="cls-9" points="1.67 255.18 30.93 164.22 29.26 164.22 0 255.18 1.67 255.18"/><polygon class="cls-9" points="16.8 255.18 46.05 164.22 44.39 164.22 15.13 255.18 16.8 255.18"/><polygon class="cls-9" points="21.68 187.84 21.68 189.19 37.35 189.18 37.62 187.83 21.68 187.84"/><polygon class="cls-9" points="24.92 179.02 24.92 180.38 40.6 180.37 40.86 179.01 24.92 179.02"/><polygon class="cls-9" points="27.6 170.21 27.6 171.56 43.28 171.56 43.54 170.2 27.6 170.21"/><polygon class="cls-9" points="18.82 196.76 18.82 198.12 34.5 198.11 34.77 196.75 18.82 196.76"/><polygon class="cls-9" points="16.14 205.69 16.14 207.05 31.82 207.04 32.09 205.68 16.14 205.69"/><polygon class="cls-9" points="13.37 214.96 12.74 216.32 28.41 216.31 28.68 214.96 13.37 214.96"/><polygon class="cls-9" points="10.43 224.24 9.8 225.59 25.48 225.59 25.74 224.23 10.43 224.24"/><polygon class="cls-9" points="7.68 233.31 7.05 234.66 22.72 234.65 22.99 233.3 7.68 233.31"/><polygon class="cls-9" points="5.4 242.57 4.77 243.93 20.44 243.92 20.71 242.56 5.4 242.57"/><path class="cls-1" d="M22.76,105.17A45.59,45.59,0,0,1,10,110.48a2.66,2.66,0,0,0,.24,3.63A106.44,106.44,0,0,0,24,113.56Z"/><path class="cls-2" d="M43.35,167.79a8.69,8.69,0,0,0,3.58,1.64c.55.14,1.14,0,1.14.86h-3l-2.51-.43v.43H41.18s-.38-2.22.41-2.5Z"/><path class="cls-3" d="M43.2,166.19l.15,1.6h0a1.54,1.54,0,0,1-1.66.05l-.1-.05-.28-1.6Z"/><path class="cls-2" d="M30.2,167.79a8.69,8.69,0,0,0,3.58,1.64c.55.14,1.14,0,1.14.86h-3l-2.51-.43v.43H28s-.37-2.22.42-2.5Z"/><path class="cls-3" d="M30.05,166.19l.15,1.6h0a1.54,1.54,0,0,1-1.66.05l-.09-.05-.28-1.6Z"/><path class="cls-3" d="M51.46,102.85a3.27,3.27,0,0,0,1.75-.73c.89-.61,2.32-2.45,2.71-1.3-.41,1.11-.76,2.47-.76,2.47A3.54,3.54,0,0,1,53,104.62l-2.37.27-.94-.85.22-.44A5.58,5.58,0,0,0,51.46,102.85Z"/><path class="cls-3" d="M52.06,103l.18,0c-.07.14-.13.28-.19.42l-1.25,1.13c-.19-.29-.46-.69-.49-.72l2.21-3s.49.12.26.89A3.57,3.57,0,0,1,52.06,103Z"/><polygon class="cls-7" points="27.27 100.45 28.39 103.38 25.2 104.38 24.58 99.54 27.27 100.45"/><path class="cls-3" d="M28.41,100.73a1.63,1.63,0,0,0,.84-.46c.66-1.86-1.72-5.77-1.72-5.77l-1.93-.26-1.82,2,.64,2.87a2.39,2.39,0,0,0,1.52,1.69h0A4.61,4.61,0,0,0,28.41,100.73Z"/><path class="cls-2" d="M24.56,97.72c0-.51-.37-1.59.14-1.64s1.6-.32,2-.43c1-.26,2.6-1.11,2.2-2.59a2,2,0,0,0-3-.89c-1,.66-2.17,1.87-2.77,1.91-1,.07-1.8.89-1.57,1.69a8.33,8.33,0,0,0,1.7,2.76,4.83,4.83,0,0,0,1.32,1h0Z"/><path class="cls-3" d="M23.6,98.1a.77.77,0,0,1,.93-.17c.35.16.5.5.33.75a.75.75,0,0,1-.92.16C23.59,98.68,23.44,98.35,23.6,98.1Z"/><path class="cls-1" d="M31.54,104c7.35,3.08,18.8-1.36,18.8-1.36l1.38,2.94S38,114,35.14,111,24.18,100.9,31.54,104Z"/><path class="cls-1" d="M26.54,102.94l.33-.08c3.59-.84,8.34,3.32,9.31,6.88L39,123.26l-12.92-.15-3.59-11.84c-.88-3.27-.53-6.44,2.57-7.82A10.37,10.37,0,0,1,26.54,102.94Z"/><path class="cls-13" d="M30.56,103.41l.06.23c2.3,1.3,4.88,3.93,5.47,6.12l2.82,12.79-2.95.8,1.21-.15,2-.53-3.51-13A11.26,11.26,0,0,0,30.56,103.41Z"/><path class="cls-9" d="M39,122.61c3.63,7.19,4.36,43.87,4.36,43.87H41L34.1,133.66s-1.71,10.47-4,33.18c-2.37,0-2-.36-2-.36s-2-23.7-2-43.37C31.61,123.11,36.28,123.35,39,122.61Z"/><polygon class="cls-11" points="27.79 101.73 24.92 102.51 24.75 103.69 28.44 102.69 27.79 101.73"/><polygon class="cls-9" points="48.71 123.95 21.6 109.75 21.68 109.67 39.86 89.42 39.97 89.53 21.87 109.7 48.78 123.81 48.71 123.95"/><path class="cls-9" d="M37.94,88.64a.79.79,0,0,1,1.41-.34c.22.3,14.75,4.81,15.31,8.66a11.68,11.68,0,0,1-.21,4.22A5.63,5.63,0,0,0,55.63,106a10.06,10.06,0,0,1,2.48,5c.5,4.42-9.44,13.48-9.46,13.75a.79.79,0,0,1-.85.72.77.77,0,0,1-.71-.84c0-.07,9.94-9.19,9.47-13.46A8.71,8.71,0,0,0,54.41,107a7.24,7.24,0,0,1-1.49-6.12,9.89,9.89,0,0,0,.18-3.65c-.49-3.47-15-7.89-15-8A.8.8,0,0,1,37.94,88.64Z"/><path class="cls-9" d="M38.25,90a1.16,1.16,0,1,1,1.32-1A1.15,1.15,0,0,1,38.25,90Z"/><path class="cls-9" d="M47.41,126a1.16,1.16,0,1,1,1.32-1A1.15,1.15,0,0,1,47.41,126Z"/><path class="cls-3" d="M19.38,111.74l3.13-.47c1.26-.29,1.78-2.33,1.74-3.77a.28.28,0,0,0-.43-.24,40.74,40.74,0,0,0-4.18,2.54Z"/><path class="cls-1" d="M19.55,108.64a31.72,31.72,0,0,0-5.17.5c-4.79.8-7.85,2.06-7.52,3.7s4.21,2,9,1.23a21.26,21.26,0,0,0,4.66-1.83Z"/><path class="cls-14" d="M19.87,112.43l-.62.29A13,13,0,0,1,15.84,114c-4.94.81-8.59.34-8.89-1.17a1.14,1.14,0,0,1,.21-.91c.52-.75,1.85-1.42,3.92-2a33.87,33.87,0,0,1,3.32-.7,38.38,38.38,0,0,1,4.47-.5l-.05-.18a40,40,0,0,0-4.45.5c-2.81.47-6.37,1.32-7.36,2.76a1.35,1.35,0,0,0-.24,1c.33,1.63,4,2.15,9.1,1.3.24,0,.47-.09.71-.15a17,17,0,0,0,2.75-1.12l.59-.28Z"/><path class="cls-3" d="M148.33,181.65c.43.23.86.44,1.31.64h-.09l-4.07,8.62,1.66,2.41-3.62.46S142,192,142.27,191s6-9.21,6-9.21Z"/><path class="cls-5" d="M157.83,203.08c-3.09-.5-8.92-1.89-9.65-2-2.21-2.17-5.2-8-5.2-8l4.16.28,7.19,7.25a45,45,0,0,1,4,2.61Z"/><path class="cls-3" d="M148,182l-.25-1.95a.48.48,0,0,1,.19-.45l.32-.25a.51.51,0,0,1,.37-.11l1.92.24a.49.49,0,0,1,.44.43l0,.24a.47.47,0,0,1-.1.36l-1.48,1.94Z"/><path class="cls-3" d="M149.41,182.46l1.37-1.07a.47.47,0,0,0,0-.74l-.59-.48c-.16-.12-1.17.28-1.17.28s.08.79,1,.33a.8.8,0,0,0,.23.31,2.13,2.13,0,0,0-1.86,1Z"/><path class="cls-3" d="M161.33,181.24c-.42.23-.86.44-1.3.63l.08,0,4.07,8.62-1.65,2.41,3.61.46s1.51-1.83,1.25-2.8-6-9.21-6-9.21Z"/><path class="cls-5" d="M151.83,202.67c3.1-.5,8.92-1.89,9.65-2,2.21-2.17,5.21-8.05,5.21-8.05l-4.16.28-7.19,7.25a45.55,45.55,0,0,0-4,2.6Z"/><path class="cls-3" d="M161.69,181.6l.24-2a.47.47,0,0,0-.19-.44l-.32-.26a.51.51,0,0,0-.36-.1l-1.93.24a.47.47,0,0,0-.43.43l0,.24a.47.47,0,0,0,.1.36l1.48,1.94Z"/><path class="cls-3" d="M160.25,182.05,158.88,181a.48.48,0,0,1,0-.74l.59-.48c.16-.13,1.17.28,1.17.28s-.08.79-1,.33c0,.13-.22.3-.22.3a2.14,2.14,0,0,1,1.85,1.05Z"/><path class="cls-2" d="M135.22,242l1.41,3.75a1.23,1.23,0,0,1-.4,1.46,4.73,4.73,0,0,1-.74.34c-.26-.05-1.89-5.11-1.89-5.11v0A1.35,1.35,0,0,1,135.22,242Z"/><polygon class="cls-2" points="135.49 247.52 133.6 242.41 133.35 242.55 135.25 247.62 135.49 247.52"/><polygon class="cls-11" points="135.78 243.45 135.91 243.79 135.25 243.92 135.13 243.59 135.78 243.45"/><polygon class="cls-11" points="136.05 244.18 136.18 244.51 135.52 244.64 135.4 244.31 136.05 244.18"/><path class="cls-3" d="M136.79,241.09l-1.57.88h0a1,1,0,0,0,.34,1l.06,0,1.73-.44Z"/><path class="cls-2" d="M149.32,217.45a9.11,9.11,0,0,0-2,4.63c-.26,2,.47,5.07.55,7.52a6.29,6.29,0,0,1-2.7,5.37l-8.42,6.12.56,1.5s11.53-1.73,14.55-6.89,3.75-16.85,3.75-16.85Z"/><path class="cls-4" d="M152.53,218.42s-1.34,1.61-.54,5.35c.51,2.39,2.76,5.39,4.27,7.46a6.58,6.58,0,0,1,.78,5.15c-1.24,6.87.74,15.25.74,15.25h1.6s2.4-12.28,3.12-20.92a25,25,0,0,0-2.76-13.62Z"/><path class="cls-5" d="M149,207.82a23,23,0,0,0,.07-2.88,9.1,9.1,0,0,0-1.4-4.56,5.55,5.55,0,0,1,.94-.94,32.05,32.05,0,0,1,5.42-2.17,10.94,10.94,0,0,0,2.37,2.81,10,10,0,0,0,4.42,2.1c0,.53-.06,1.13-.12,1.83-.45,4.78-.6,13.8-.6,13.8a17,17,0,0,1-5.69,2.13c-3.45.65-5.57.86-6-1A53.54,53.54,0,0,0,149,207.82Z"/><path class="cls-3" d="M153.59,187.49l2.12,2.1a3.65,3.65,0,0,1,1,3.42l-.25,1.12Z"/><path class="cls-2" d="M151,186.69c-5.16,0-3,9.91-3,9.91s.92,6.43,3,9c1.78,2.24,5.28,1.56,6.94.49a6.45,6.45,0,0,1,2.68-1c1.41-.17,3.08-.79,3.08-3.33,0-2.38-2.85-4.23-4.73-5.55a6.23,6.23,0,0,1-2.43-3.6C156,190.19,154.49,186.69,151,186.69Z"/><path class="cls-15" d="M158.07,253.53h4.27c.56.08,1.2.29,1.3.95a4.34,4.34,0,0,1,.06.87c-.15.23-5.81,0-5.81,0l0,0A1.43,1.43,0,0,1,158.07,253.53Z"/><polygon class="cls-4" points="163.7 255.34 157.89 255.31 157.94 255.61 163.71 255.61 163.7 255.34"/><polygon class="cls-11" points="159.76 253.52 160.14 253.52 160.02 254.22 159.65 254.22 159.76 253.52"/><polygon class="cls-11" points="160.58 253.52 160.97 253.52 160.85 254.22 160.47 254.22 160.58 253.52"/><path class="cls-3" d="M157.77,251.63l.3,1.9h0a1.07,1.07,0,0,0,1.14,0l.07,0,.2-1.89Z"/><path class="cls-12" d="M93.56,83.19a.38.38,0,0,0,.59-.21,10.61,10.61,0,0,0,.3-1.93.37.37,0,0,0-.35-.4.39.39,0,0,0-.4.35,9.35,9.35,0,0,1-.28,1.8A.37.37,0,0,0,93.56,83.19Z"/><path class="cls-12" d="M59.92,98.46a.38.38,0,0,1,.4-.36A13.36,13.36,0,0,0,64,97.77a.38.38,0,0,1,.45.28.38.38,0,0,1-.28.46,14.46,14.46,0,0,1-3.88.34.32.32,0,0,1-.2-.07A.39.39,0,0,1,59.92,98.46Zm6-.88a.37.37,0,0,1,.21-.49l.15-.07a17,17,0,0,0,3.07-1.76.38.38,0,1,1,.44.62,18.11,18.11,0,0,1-3.21,1.83l-.16.08a.37.37,0,0,1-.37-.05A.34.34,0,0,1,65.89,97.58ZM71,94.39a.38.38,0,0,1,0-.53,25.79,25.79,0,0,0,2.61-2.69.39.39,0,0,1,.53,0,.37.37,0,0,1,0,.53,28.38,28.38,0,0,1-2.68,2.77.38.38,0,0,1-.47,0Zm4.13-4.45a.38.38,0,0,1-.08-.53l.19-.25c-.32-.29-.62-.59-.91-.91a.38.38,0,1,1,.56-.5c.25.27.52.54.8.79.49-.68,1-1.42,1.52-2.23a.38.38,0,1,1,.63.41c-.55.84-1.07,1.6-1.58,2.31a11.47,11.47,0,0,0,1.49,1,.37.37,0,0,1-.37.65,11.51,11.51,0,0,1-1.56-1l-.17.22a.37.37,0,0,1-.52.08Zm4.16,1.22a.38.38,0,0,1,.47-.25,9.55,9.55,0,0,0,2.22.42,9.36,9.36,0,0,0,1.4,0,.38.38,0,0,1,.4.35.36.36,0,0,1-.34.4,9.53,9.53,0,0,1-1.51,0,9.88,9.88,0,0,1-2.39-.45l-.11,0A.38.38,0,0,1,79.33,91.16ZM73,86.38a11.82,11.82,0,0,1-1.48-3.62.38.38,0,0,1,.28-.45.39.39,0,0,1,.45.29A11,11,0,0,0,73.59,86a.37.37,0,0,1-.12.52.38.38,0,0,1-.42,0A.32.32,0,0,1,73,86.38Zm12.37,5a.38.38,0,0,1,.25-.47,11.59,11.59,0,0,0,3.29-1.62.37.37,0,0,1,.43.61,12.16,12.16,0,0,1-3.5,1.73.38.38,0,0,1-.33,0A.48.48,0,0,1,85.32,91.38Zm-14.11-11a8.6,8.6,0,0,1,.06-1,8.08,8.08,0,0,1,.85-2.82.38.38,0,0,1,.67.35A7.18,7.18,0,0,0,72,79.48a7.42,7.42,0,0,0-.06.94.38.38,0,0,1-.38.38.37.37,0,0,1-.22-.08A.38.38,0,0,1,71.21,80.42Zm7.23,4A13.61,13.61,0,0,0,80,81a.38.38,0,0,1,.46-.27.4.4,0,0,1,.27.47,14.7,14.7,0,0,1-1.59,3.55.36.36,0,0,1-.51.13l0,0A.37.37,0,0,1,78.44,84.39Zm12.1,4a.38.38,0,0,1,0-.53,12,12,0,0,0,1.08-1.28,11.15,11.15,0,0,0,1-1.71.37.37,0,0,1,.5-.17.36.36,0,0,1,.17.5A12.07,12.07,0,0,1,92.23,87a13.67,13.67,0,0,1-1.15,1.37.39.39,0,0,1-.5,0Zm-17-13.18a.38.38,0,0,1,0-.53,4.21,4.21,0,0,1,2.82-1.08,4,4,0,0,1,1.08.18.38.38,0,0,1-.23.72,2.83,2.83,0,0,0-.87-.14,3.38,3.38,0,0,0-2.31.89.38.38,0,0,1-.47,0A.17.17,0,0,1,73.55,75.2Zm6.68,3.68A5.39,5.39,0,0,0,79,75.64a.38.38,0,0,1,.57-.5A6.08,6.08,0,0,1,81,78.85a.38.38,0,0,1-.36.39.4.4,0,0,1-.24-.07A.36.36,0,0,1,80.23,78.88Z"/><path class="cls-12" d="M94.39,78.74a.26.26,0,0,0-.13-.06.37.37,0,0,0-.45.27,10.77,10.77,0,0,0-.31,1.93.38.38,0,0,0,.36.4.37.37,0,0,0,.39-.35,10,10,0,0,1,.29-1.79A.4.4,0,0,0,94.39,78.74Z"/><path class="cls-12" d="M133.74,65.4a.38.38,0,0,1-.52.11,10.59,10.59,0,0,0-3.38-1.38.38.38,0,1,1,.16-.74,11.46,11.46,0,0,1,3.62,1.49h0A.38.38,0,0,1,133.74,65.4ZM128,63.48a.38.38,0,0,1-.4.35,13.32,13.32,0,0,0-3.67.33.37.37,0,0,1-.17-.73,14.47,14.47,0,0,1,3.88-.35.48.48,0,0,1,.2.07A.42.42,0,0,1,128,63.48Zm-6,.87a.37.37,0,0,1-.2.49l-.15.07a17,17,0,0,0-3.08,1.76.37.37,0,0,1-.43-.61,17.83,17.83,0,0,1,3.2-1.84l.17-.07a.4.4,0,0,1,.37,0A.33.33,0,0,1,122.06,64.35Zm-5.14,3.19a.38.38,0,0,1,0,.53,26.81,26.81,0,0,0-2.61,2.69.38.38,0,0,1-.58-.49,27.22,27.22,0,0,1,2.69-2.76.36.36,0,0,1,.47,0ZM112.79,72a.37.37,0,0,1,.08.52l-.19.26a11,11,0,0,1,.91.9.37.37,0,0,1,0,.53.38.38,0,0,1-.53,0,10.06,10.06,0,0,0-.8-.8c-.49.69-1,1.42-1.52,2.23a.36.36,0,0,1-.52.11.38.38,0,0,1-.11-.52c.55-.84,1.07-1.6,1.58-2.31a12.12,12.12,0,0,0-1.49-1,.38.38,0,0,1,.37-.66,12.52,12.52,0,0,1,1.56,1.05l.17-.22a.38.38,0,0,1,.52-.08Zm-4.17-1.23a.38.38,0,0,1-.47.25,9.38,9.38,0,0,0-3.61-.41.38.38,0,0,1-.06-.75,10.88,10.88,0,0,1,1.51,0,10.49,10.49,0,0,1,2.39.45.24.24,0,0,1,.11.06A.38.38,0,0,1,108.62,70.77ZM115,75.55a11.7,11.7,0,0,1,1.49,3.62.37.37,0,1,1-.73.16,11,11,0,0,0-1.4-3.38.38.38,0,0,1,.55-.5A.43.43,0,0,1,115,75.55Zm-12.36-5a.38.38,0,0,1-.26.47,11.3,11.3,0,0,0-3.28,1.63.38.38,0,1,1-.44-.62,12.47,12.47,0,0,1,3.51-1.73.39.39,0,0,1,.33.06A.4.4,0,0,1,102.64,70.55Zm14.11,11a8.72,8.72,0,0,1-.06,1,8,8,0,0,1-.85,2.81.38.38,0,1,1-.67-.35,7.18,7.18,0,0,0,.77-2.55c0-.3,0-.62.06-.94a.37.37,0,0,1,.37-.37.32.32,0,0,1,.22.07A.37.37,0,0,1,116.75,81.52Zm-7.24-4a13.7,13.7,0,0,0-1.5,3.36.39.39,0,0,1-.47.27.37.37,0,0,1-.26-.46,14.58,14.58,0,0,1,1.59-3.56.37.37,0,0,1,.51-.13l0,0A.37.37,0,0,1,109.51,77.55Zm-12.1-4a.37.37,0,0,1,0,.53,11.8,11.8,0,0,0-1.08,1.28,11.24,11.24,0,0,0-1,1.72.38.38,0,1,1-.68-.34,12.65,12.65,0,0,1,1.11-1.82,12.52,12.52,0,0,1,1.15-1.36.37.37,0,0,1,.49,0Zm17,13.18a.38.38,0,0,1,0,.53,4.18,4.18,0,0,1-2.82,1.08,4,4,0,0,1-1.08-.17.37.37,0,0,1-.24-.48.38.38,0,0,1,.47-.24,3.16,3.16,0,0,0,.86.14,3.42,3.42,0,0,0,2.32-.9.36.36,0,0,1,.46,0Zm-6.68-3.67A5.41,5.41,0,0,0,109,86.3a.37.37,0,1,1-.56.49A6.08,6.08,0,0,1,107,83.08a.38.38,0,0,1,.36-.39.41.41,0,0,1,.24.08A.35.35,0,0,1,107.73,83.06Z"/><polygon class="cls-1" points="122.24 159.34 96.48 119.01 70.08 159.34 84.17 159.34 84.17 223.22 108.15 223.22 108.15 159.34 122.24 159.34"/><path class="cls-15" d="M82.53,253.78h6c.8.09,1.7.31,1.85,1a3.82,3.82,0,0,1,.09.92c-.21.25-8.22,0-8.22,0l0,0A1.27,1.27,0,0,1,82.53,253.78Z"/><polygon class="cls-2" points="90.51 255.7 82.29 255.67 82.36 255.99 90.52 255.99 90.51 255.7"/><polygon class="cls-11" points="84.92 253.77 85.47 253.78 85.3 254.51 84.77 254.51 84.92 253.77"/><polygon class="cls-11" points="86.09 253.77 86.63 253.78 86.46 254.51 85.94 254.51 86.09 253.77"/><path class="cls-3" d="M82.12,251.77l.41,2h0a2,2,0,0,0,1.62,0l.09,0,.29-2Z"/><path class="cls-2" d="M68.42,253.78h6c.8.09,1.69.31,1.84,1a3.82,3.82,0,0,1,.09.92c-.21.25-8.22,0-8.22,0l0,0A1.27,1.27,0,0,1,68.42,253.78Z"/><polygon class="cls-2" points="76.39 255.7 68.17 255.67 68.24 255.99 76.4 255.99 76.39 255.7"/><polygon class="cls-11" points="70.81 253.77 71.35 253.78 71.18 254.51 70.65 254.51 70.81 253.77"/><polygon class="cls-11" points="71.97 253.77 72.52 253.78 72.35 254.51 71.82 254.51 71.97 253.77"/><path class="cls-3" d="M68.68,251.77l-.26,2h0a2,2,0,0,0,1.61,0l.1,0,1-2Z"/><path class="cls-3" d="M77.69,184.1l-5,3.25,1.53,3.93a1.19,1.19,0,0,0,.08.16h.43a3.84,3.84,0,0,1,3.17,1.92,6.64,6.64,0,0,0,2.35-.61,2.43,2.43,0,0,0,1.11-.84C81.92,189.11,77.69,184.1,77.69,184.1Z"/><path class="cls-3" d="M84,185.12s.61,5.78-.62,9.45c.57.5,2.66,2.74,3.32-.17S86,184.1,86,184.1Z"/><polygon class="cls-2" points="81.03 184.71 79.86 185.47 80.28 186.34 81.54 185.79 81.03 184.71"/><path class="cls-2" d="M80.34,185.76c.12.27.13.52,0,.57s-.29-.13-.4-.4-.13-.52,0-.57S80.23,185.5,80.34,185.76Z"/><path class="cls-4" d="M95.16,180.45v0a11.85,11.85,0,0,0-1.13-2,9.77,9.77,0,0,1-1.09-1.78l-12.08,7.91.78,1.48,13.52-5A2.62,2.62,0,0,1,95.16,180.45Z"/><polygon class="cls-7" points="76.59 193.35 76.16 196.06 80 196.06 80.28 192.74 76.59 193.35"/><path class="cls-3" d="M86.53,200.09s4.54-1.45,6-3.4-1-12.59-1-12.59l.31-1.91a1.79,1.79,0,0,0-1.75-2.07H88.86a.69.69,0,0,0-.64,1l1.59,3.59s1.2,8.06-.48,8.67a19.25,19.25,0,0,1-4.26.89Z"/><path class="cls-2" d="M78,193.35l-1.17-2.59.76-.48a1.42,1.42,0,0,0,.59-1.67l-.83-2.44s2.37-.29,2.3-2.49c0-1.14-1.56-1.15-1.56-1.15a2.28,2.28,0,0,1-1.92,1.14,3.76,3.76,0,0,0-3.48,2.16c-.78,1.35-.44,3.47.24,5.07a4.59,4.59,0,0,0,3.67,2.45Z"/><path class="cls-9" d="M73.37,215.12a84.68,84.68,0,0,0,1.44,11.51,10.26,10.26,0,0,1-.36,5.3c-2.71,8.06-6.51,20.17-6.51,20.17h3.38S79,237.78,81,230.68a94.17,94.17,0,0,0,2.31-9.36l-2.35-6.2Z"/><path class="cls-3" d="M76.19,189.55a1.13,1.13,0,0,0,.63,1.21c.49.26,1,.14,1.14-.27a1.11,1.11,0,0,0-.63-1.21C76.84,189,76.33,189.14,76.19,189.55Z"/><path class="cls-10" d="M84.4,215.12h-11V201a6,6,0,0,1,5.45-6l7.67-.93s.9,1.38,3.41,4.59a25.84,25.84,0,0,1-6.51,2.73Z"/><path class="cls-9" d="M73.37,215.12s1.56,5.64,7.31,12a7.37,7.37,0,0,1,2.14,5.74L81.64,252.1h3.43s4.18-16,3.28-23.9a36.16,36.16,0,0,0-3.95-13.08Z"/><path class="cls-11" d="M93.3,179.14c.6,1.23,1.4,2.08,1.8,1.88s.25-1.34-.35-2.57-1.4-2.08-1.8-1.88S92.71,177.91,93.3,179.14Z"/><path class="cls-3" d="M83.54,182.77l.1,0a1.56,1.56,0,0,0,1.16.08l.06,0a2,2,0,0,0,1.31-1.32h0a.38.38,0,0,0-.44-.49l-.76.16a1.16,1.16,0,0,0-.73.49Z"/><path class="cls-2" d="M124.42,253.19s.53.73,3,1.36c.54.14,1.13.23,1.13,1.14h-2.45l-2.5-.44v.44h-1.35s-.38-2.22.41-2.5Z"/><path class="cls-3" d="M124.55,251.6l-.13,1.59h0a1.56,1.56,0,0,1-1.66.06l-.09-.06V251.6Z"/><path class="cls-2" d="M111.85,253.51s.53.73,3,1.36c.55.14,1.14.23,1.14,1.13h-2.45l-2.51-.43V256h-1.35s-.38-2.21.41-2.49Z"/><path class="cls-3" d="M112,251.92l-.13,1.59h0a1.52,1.52,0,0,1-1.65.05l-.1-.05v-1.59Z"/><path class="cls-10" d="M125.55,212.55l-.61,39.91H122s-4.43-32.22-3.48-39.91S125.55,212.55,125.55,212.55Z"/><path class="cls-10" d="M122.47,212.54s-1,12.26-3.34,19.05-6.52,20.87-6.52,20.87h-3s5-29.43,3.88-39.92h9Z"/><path class="cls-9" d="M125.09,192.22s3.59,8.36,4.5,8.36c.72,0-.28-6.82-.28-6.82h3s3.78,11.69.78,13.83-9.6-6.05-9.6-6.05Z"/><path class="cls-3" d="M114.41,213.6l1.08,2.69c.52,1.05,2.45,1.08,3.72.74a.26.26,0,0,0,.13-.43,36.54,36.54,0,0,0-3.15-3.18Z"/><path class="cls-9" d="M122.13,190.48a3.36,3.36,0,0,1,2.88,1.6,2.24,2.24,0,0,1,.35,1.14v19.32h-11V194.48s.22-4,4.15-4Z"/><polygon class="cls-16" points="125.18 212.55 125.18 195.2 125.55 195.21 125.55 212.55 125.18 212.55"/><path class="cls-7" d="M118.11,186.78l1.17,4.4a2.8,2.8,0,0,0,2.33.46c1.32-.35,1.06-1.3,1.06-1.3l-.74-2.82h-2.1Z"/><path class="cls-3" d="M122.32,188.31a1.69,1.69,0,0,0,.91-.52c.68-2.18-2-6.87-2-6.87l-4.06,1.89.76,3.42a3,3,0,0,0,1.69,2.05h0A4.77,4.77,0,0,0,122.32,188.31Z"/><path class="cls-2" d="M119.2,182.37a9.41,9.41,0,0,0,2.9-.77c1.42-.66,0-2,0-2a6,6,0,0,1-3,1c-1.37.15-1.8,0-2.52.67-1,.92-.16,2.92-.16,2.92l1.8,4.24.24-.07s-.64-2.63-.87-3.52c.14-.47.41-.54.64-.5a.69.69,0,0,1,.52.51L120,189.4s3.24.48,3.92.06-.71-3.68-.71-3.68a1.42,1.42,0,0,0-1.42.77c-.46.91-1.46.36-1.46.36Z"/><path class="cls-3" d="M131.74,193.76l-.11-.58A4.8,4.8,0,0,0,129,189.9h-1.27l.39,2.72,1.8,1.14Z"/><path class="cls-3" d="M117.86,184.31a.76.76,0,0,1,.89.51.65.65,0,0,1-.27.92.76.76,0,0,1-.89-.51A.65.65,0,0,1,117.86,184.31Z"/><path class="cls-3" d="M128.6,192.32l2.48,1.44s-1.56,0-1.59,0l-2.62-2.2s.19-.38.78-.06A3,3,0,0,1,128.6,192.32Z"/><path class="cls-9" d="M115.56,191.67s-6.2,6.89-6.2,11,5,11.41,5,11.41l2.48-.73s-2.24-9-2.24-11.4,4.61-5.91,4.61-5.91"/><path class="cls-16" d="M114.82,202c0,2.06,1.83,9.6,2.25,11.36l-.36.09c-.53-2.17-2.25-9.43-2.25-11.45,0-2.46,4.49-5.91,4.68-6.05l.22.29S114.82,199.69,114.82,202Z"/><path class="cls-3" d="M130.36,191.78A3,3,0,0,1,129,192c-.72,0-1-.89-1.17-1.37,0-.17-.08-.41.13-.52l1.16-.16Z"/></g></g></svg>