<svg xmlns="http://www.w3.org/2000/svg" xmlns:xlink="http://www.w3.org/1999/xlink" viewBox="0 0 306.37 227.34"><defs><style>.cls-1{fill:#5d4efa;}.cls-2{fill:#006ae6;}.cls-3{fill:#1a2089;}.cls-4{fill:#fff;}.cls-5{fill:#6cafe0;}.cls-6{fill:#00244f;}.cls-7{fill:#de9d85;}.cls-8{fill:#e6b38e;}.cls-9{fill:#292f53;}.cls-10{fill:#4d878a;}.cls-11{fill:#b56cf7;}.cls-12{fill:#253f5d;}.cls-13{fill:#263a5a;}.cls-14{fill:#85bfc3;}.cls-15{fill:#333;}.cls-16{fill:url(#Áåçûìÿííûé_ãðàäèåíò_11);}</style><linearGradient id="Áåçûìÿííûé_ãðàäèåíò_11" x1="158.6" y1="165.83" x2="159.55" y2="165.83" gradientUnits="userSpaceOnUse"><stop offset="0" stop-color="#c9e2ed"/><stop offset="1" stop-color="#e3eee9"/></linearGradient></defs><title>modern automated solutions</title><g id="Layer_2" data-name="Layer 2"><g id="Layer_1-2" data-name="Layer 1"><path class="cls-1" d="M224.46,204.31l.24.42c1-.56,2-1.15,2.91-1.76l-.26-.41C226.4,203.17,225.43,203.76,224.46,204.31Z"/><path class="cls-1" d="M244.13,186.21l.4.27c.63-.93,1.25-1.89,1.83-2.86l-.42-.25C245.37,184.33,244.76,185.29,244.13,186.21Z"/><path class="cls-1" d="M240,191.55l.36.32c.74-.86,1.46-1.74,2.15-2.64l-.38-.29Q241.13,190.28,240,191.55Z"/><path class="cls-1" d="M235.34,196.39l.33.35c.83-.76,1.64-1.56,2.43-2.37l-.35-.34C237,194.84,236.16,195.63,235.34,196.39Z"/><path class="cls-1" d="M212.05,209.55l.14.47c1.08-.32,2.17-.67,3.24-1.05l-.17-.46C214.21,208.89,213.13,209.24,212.05,209.55Z"/><path class="cls-1" d="M218.41,207.29l.19.44c1-.44,2.08-.91,3.09-1.41l-.21-.44C220.47,206.38,219.44,206.85,218.41,207.29Z"/><path class="cls-1" d="M250.36,174.3l.45.17c.4-1.05.78-2.13,1.12-3.21l-.46-.14C251.13,172.18,250.76,173.25,250.36,174.3Z"/><path class="cls-1" d="M254.72,154.56c0-1.13,0-2.27,0-3.4l-.48,0c0,1.11.05,2.25,0,3.37Z"/><path class="cls-1" d="M247.59,180.44l.42.22c.53-1,1-2,1.49-3l-.44-.2C248.6,178.43,248.1,179.45,247.59,180.44Z"/><path class="cls-1" d="M253.7,161.26l.48.07c.15-1.12.28-2.26.37-3.38l-.48,0C254,159,253.85,160.15,253.7,161.26Z"/><path class="cls-1" d="M205.47,211.07l.09.48c1.11-.19,2.23-.42,3.34-.67l-.11-.47C207.69,210.66,206.58,210.88,205.47,211.07Z"/><path class="cls-1" d="M254.49,147.77c-.1-1.13-.24-2.26-.41-3.38l-.48.08c.17,1.1.31,2.23.41,3.34Z"/><path class="cls-1" d="M252.4,167.88l.47.12c.28-1.09.53-2.21.75-3.32l-.47-.09C252.93,165.69,252.68,166.79,252.4,167.88Z"/><path class="cls-1" d="M137,160.9c.15,1.12.33,2.25.54,3.36l.47-.09c-.21-1.1-.39-2.22-.53-3.33Z"/><path class="cls-1" d="M140.28,174.08c.4,1,.84,2.11,1.3,3.15l.44-.2c-.46-1-.89-2.08-1.28-3.12Z"/><path class="cls-1" d="M146.5,186.15c.63.93,1.29,1.87,2,2.77l.39-.3c-.68-.89-1.33-1.81-2-2.74Z"/><path class="cls-1" d="M138.25,167.58c.28,1.1.59,2.2.93,3.28l.46-.14c-.34-1.07-.64-2.17-.92-3.25Z"/><path class="cls-1" d="M150.6,191.57c.73.86,1.5,1.71,2.27,2.52l.36-.33c-.78-.81-1.54-1.65-2.26-2.51Z"/><path class="cls-1" d="M143.05,180.29c.51,1,1.07,2,1.64,3l.42-.25c-.57-1-1.12-2-1.63-3Z"/><path class="cls-1" d="M155.29,196.48c.82.77,1.68,1.53,2.55,2.25l.31-.37c-.86-.72-1.71-1.47-2.53-2.23Z"/><path class="cls-1" d="M182.05,210.3c-1.09-.26-2.19-.55-3.26-.87l-.14.46c1.08.32,2.19.62,3.28.88Z"/><path class="cls-1" d="M194.6,94.63v-.48c-1.14,0-2.28.07-3.4.15l0,.48C192.35,94.7,193.48,94.65,194.6,94.63Z"/><path class="cls-1" d="M253.47,141.05c-.23-1.11-.5-2.22-.8-3.31l-.46.13c.29,1.08.56,2.18.79,3.28Z"/><path class="cls-1" d="M175.42,208.83l.17-.46c-1.05-.38-2.11-.8-3.14-1.24l-.19.45C173.3,208,174.36,208.44,175.42,208.83Z"/><path class="cls-1" d="M208.1,95.48c-1.1-.24-2.22-.45-3.34-.62l-.07.48c1.11.17,2.22.38,3.31.61Z"/><path class="cls-1" d="M188.62,212l.06-.48c-1.11-.14-2.23-.3-3.33-.5l-.09.48C186.37,211.65,187.51,211.82,188.62,212Z"/><path class="cls-1" d="M174.83,98.43l-.17-.45c-1.06.4-2.12.84-3.15,1.3l.2.44C172.73,99.26,173.78,98.83,174.83,98.43Z"/><path class="cls-1" d="M163.29,202.76l.27-.4c-.94-.61-1.87-1.26-2.77-1.92l-.28.39C161.41,201.5,162.35,202.15,163.29,202.76Z"/><path class="cls-1" d="M195.41,212.38v-.49c-1.12,0-2.25,0-3.37-.11l0,.48C193.14,212.33,194.28,212.37,195.41,212.38Z"/><path class="cls-1" d="M169.18,206.15l.22-.44c-1-.5-2-1-3-1.59l-.25.42C167.16,205.1,168.17,205.64,169.18,206.15Z"/><path class="cls-1" d="M187.88,95.13l-.07-.48c-1.11.15-2.24.33-3.35.55l.09.47C185.65,95.46,186.77,95.28,187.88,95.13Z"/><path class="cls-1" d="M181.26,96.4l-.12-.47c-1.1.28-2.2.59-3.27.93l.14.46C179.08,97,180.17,96.68,181.26,96.4Z"/><path class="cls-1" d="M201.34,94.91l0-.48c-1.12-.11-2.26-.19-3.39-.24l0,.49C199.1,94.72,200.23,94.8,201.34,94.91Z"/><path class="cls-1" d="M245.91,122.19c-.59-1-1.22-1.91-1.87-2.84l-.4.28q1,1.38,1.86,2.82Z"/><path class="cls-1" d="M242,116.63c-.7-.89-1.43-1.77-2.18-2.61l-.36.32c.74.84,1.47,1.71,2.16,2.59Z"/><path class="cls-1" d="M230.41,201.05c.91-.67,1.82-1.37,2.69-2.08l-.3-.37c-.87.7-1.77,1.4-2.67,2.06Z"/><path class="cls-1" d="M251.68,134.48c-.36-1.07-.75-2.14-1.17-3.19l-.45.18c.42,1,.81,2.1,1.17,3.17Z"/><path class="cls-1" d="M249.15,128.17c-.48-1-1-2-1.53-3l-.43.23c.53,1,1.05,2,1.52,3Z"/><path class="cls-1" d="M237.5,111.54c-.79-.8-1.62-1.58-2.46-2.34l-.32.36c.83.75,1.65,1.53,2.44,2.32Z"/><path class="cls-1" d="M202.19,212l-.05-.48c-1.11.12-2.24.21-3.36.27l0,.49C199.93,212.24,201.07,212.14,202.19,212Z"/><path class="cls-1" d="M221,99.83c-1-.48-2.07-.94-3.11-1.36l-.18.45c1,.42,2.07.87,3.09,1.35Z"/><path class="cls-1" d="M232.45,107c-.88-.7-1.79-1.39-2.72-2l-.27.4c.91.64,1.81,1.32,2.69,2Z"/><path class="cls-1" d="M226.91,103.09c-1-.6-1.94-1.17-2.93-1.71l-.23.42c1,.54,1.95,1.11,2.9,1.7Z"/><path class="cls-1" d="M214.65,97.28c-1.06-.36-2.16-.69-3.24-1l-.13.46c1.08.3,2.16.63,3.22,1Z"/><path class="cls-1" d="M50.85,38.77l-.36-.47c-1.1.84-2.19,1.73-3.25,2.63l.39.46C48.67,40.49,49.76,39.61,50.85,38.77Z"/><path class="cls-1" d="M29.93,64.17l-.54-.26c-.61,1.24-1.2,2.52-1.74,3.79l.55.24C28.73,66.67,29.32,65.4,29.93,64.17Z"/><path class="cls-1" d="M34,57l-.5-.33C32.77,57.8,32,59,31.35,60.21l.52.3C32.55,59.31,33.28,58.12,34,57Z"/><path class="cls-1" d="M38.92,50.27l-.45-.38c-.89,1.07-1.75,2.19-2.57,3.31l.48.35C37.19,52.44,38.05,51.33,38.92,50.27Z"/><path class="cls-1" d="M65.1,30.27l-.25-.54c-1.26.57-2.53,1.19-3.77,1.83l.28.53C62.58,31.45,63.84,30.84,65.1,30.27Z"/><path class="cls-1" d="M57.73,34.11l-.31-.51c-1.19.71-2.38,1.47-3.53,2.25l.33.49C55.37,35.57,56.54,34.82,57.73,34.11Z"/><path class="cls-1" d="M24.34,79.75l-.58-.13c-.31,1.35-.59,2.73-.82,4.1l.58.1C23.76,82.46,24,81.09,24.34,79.75Z"/><path class="cls-1" d="M22.36,104.57c.16,1.38.36,2.77.6,4.14l.59-.1c-.24-1.36-.44-2.74-.6-4.11Z"/><path class="cls-1" d="M26.69,71.79l-.56-.2c-.47,1.31-.91,2.65-1.3,4l.57.17C25.79,74.42,26.22,73.09,26.69,71.79Z"/><path class="cls-1" d="M22.47,96.21h-.59c0,1.4,0,2.8.12,4.19l.6,0C22.52,99,22.48,97.6,22.47,96.21Z"/><path class="cls-1" d="M72.86,27.31l-.18-.57c-1.32.42-2.66.89-4,1.38l.21.56C70.23,28.19,71.55,27.73,72.86,27.31Z"/><path class="cls-1" d="M23.79,112.81c.32,1.35.68,2.71,1.08,4l.57-.17c-.39-1.32-.75-2.67-1.07-4Z"/><path class="cls-1" d="M22.94,87.93l-.59-.07c-.16,1.38-.28,2.78-.36,4.17l.6,0C22.67,90.69,22.78,89.3,22.94,87.93Z"/><path class="cls-1" d="M166.8,93.45l.59,0c0-1.39-.14-2.8-.27-4.18l-.59.06C166.66,90.68,166.75,92.07,166.8,93.45Z"/><path class="cls-1" d="M166.61,85.1c-.21-1.37-.46-2.76-.75-4.12l-.58.12c.28,1.35.53,2.73.74,4.09Z"/><path class="cls-1" d="M164.87,76.91c-.36-1.34-.77-2.68-1.22-4l-.56.19c.44,1.3.85,2.64,1.21,4Z"/><path class="cls-1" d="M165.84,108.2l.58.12c.14-.79.26-1.58.37-2.37l-.59-.08C166.09,106.65,166,107.42,165.84,108.2Z"/><path class="cls-1" d="M166.63,101.75l.6,0c.1-1.38.17-2.79.2-4.18h-.6C166.81,99,166.74,100.37,166.63,101.75Z"/><path class="cls-1" d="M158.63,61.4c-.67-1.22-1.37-2.44-2.11-3.62l-.51.31c.73,1.18,1.44,2.38,2.09,3.59Z"/><path class="cls-1" d="M149,47.73c-.92-1-1.89-2.06-2.87-3l-.42.42c1,1,1.93,2,2.85,3Z"/><path class="cls-1" d="M162.2,69c-.52-1.3-1.08-2.59-1.68-3.84l-.53.25c.58,1.25,1.14,2.53,1.66,3.81Z"/><path class="cls-1" d="M143.09,41.81c-1-.92-2.12-1.83-3.2-2.69l-.37.47c1.07.85,2.14,1.75,3.17,2.67Z"/><path class="cls-1" d="M154.21,54.29c-.8-1.13-1.64-2.26-2.51-3.36l-.47.37c.86,1.09,1.7,2.21,2.49,3.33Z"/><path class="cls-1" d="M136.54,36.61c-1.14-.8-2.31-1.57-3.49-2.31l-.31.51c1.17.73,2.33,1.5,3.45,2.29Z"/><path class="cls-1" d="M136.34,155.1l.34.48c1.13-.8,2.26-1.64,3.35-2.51l-.38-.47C138.58,153.46,137.46,154.3,136.34,155.1Z"/><path class="cls-1" d="M101.57,24.29c1.37.13,2.76.3,4.12.51l.09-.59c-1.38-.21-2.77-.38-4.16-.51Z"/><path class="cls-1" d="M105.82,167.48l.09.59c1.38-.22,2.76-.47,4.12-.76l-.13-.59C108.56,167,107.19,167.27,105.82,167.48Z"/><path class="cls-1" d="M26.17,120.83c.47,1.31,1,2.62,1.54,3.9l.54-.23c-.54-1.27-1.05-2.58-1.52-3.87Z"/><path class="cls-1" d="M109.89,25l-.12.59c1.35.28,2.7.61,4,1L114,26C112.62,25.59,111.25,25.25,109.89,25Z"/><path class="cls-1" d="M89.21,168.73c1.38.1,2.79.17,4.18.19v-.59c-1.38,0-2.77-.09-4.15-.19Z"/><path class="cls-1" d="M93.27,23.38V24c1.37,0,2.77,0,4.15,0l0-.59C96.06,23.37,94.65,23.35,93.27,23.38Z"/><path class="cls-1" d="M129.3,159.5l.28.52c1.22-.67,2.44-1.38,3.62-2.11l-.32-.51C131.71,158.13,130.51,158.84,129.3,159.5Z"/><path class="cls-1" d="M125.71,30.31l-.25.53c1.24.59,2.48,1.22,3.69,1.88l.29-.52C128.22,31.53,127,30.9,125.71,30.31Z"/><path class="cls-1" d="M84.92,24l.08.59c1.37-.18,2.75-.32,4.13-.43l0-.59C87.7,23.68,86.3,23.83,84.92,24Z"/><path class="cls-1" d="M118,27.18l-.19.56c1.31.44,2.62.93,3.89,1.44l.23-.55C120.6,28.11,119.28,27.62,118,27.18Z"/><path class="cls-1" d="M113.94,165.73l.16.58c1.34-.37,2.68-.79,4-1.23l-.19-.57C116.6,165,115.27,165.37,113.94,165.73Z"/><path class="cls-1" d="M121.8,163.06l.22.55c1.29-.52,2.58-1.09,3.83-1.68l-.25-.54C124.35,162,123.07,162.54,121.8,163.06Z"/><path class="cls-1" d="M97.55,168.28l0,.6c1.38-.06,2.79-.16,4.18-.29l-.06-.59C100.32,168.13,98.93,168.23,97.55,168.28Z"/><path class="cls-1" d="M38.58,142.55c.89,1.07,1.82,2.13,2.77,3.14l.43-.4c-.94-1-1.86-2.06-2.74-3.12Z"/><path class="cls-1" d="M44.28,148.68c1,1,2,1.9,3.1,2.81l.39-.46c-1.05-.89-2.08-1.83-3.08-2.78Z"/><path class="cls-1" d="M44.15,43.75c-1,1-2,2-2.93,3l.43.41c.94-1,1.92-2,2.91-3Z"/><path class="cls-1" d="M29.46,128.54c.62,1.24,1.29,2.49,2,3.69l.52-.29c-.69-1.2-1.35-2.43-2-3.67Z"/><path class="cls-1" d="M33.62,135.81c.76,1.16,1.56,2.32,2.39,3.44l.48-.35c-.82-1.11-1.62-2.26-2.37-3.42Z"/><path class="cls-1" d="M50.64,154.11c1.1.84,2.25,1.66,3.4,2.44l.33-.49c-1.14-.77-2.27-1.59-3.37-2.42Z"/><path class="cls-1" d="M76.71,25.6l.15.58c1.33-.34,2.69-.65,4-.91l-.12-.58C79.43,25,78.05,25.26,76.71,25.6Z"/><path class="cls-1" d="M72.81,165.59c1.32.42,2.68.8,4,1.14l.15-.58c-1.34-.33-2.68-.71-4-1.12Z"/><path class="cls-1" d="M57.57,158.79c1.19.7,2.42,1.39,3.66,2l.27-.52c-1.22-.64-2.44-1.32-3.63-2Z"/><path class="cls-1" d="M65,162.63c1.27.57,2.57,1.1,3.86,1.59l.21-.55c-1.28-.49-2.57-1-3.83-1.58Z"/><path class="cls-1" d="M80.92,167.64c1.36.26,2.75.48,4.13.66l.08-.59c-1.37-.18-2.75-.4-4.1-.66Z"/><path class="cls-2" d="M179.81,87.7l.19.56a15.65,15.65,0,0,0,3.8-1.88l-.34-.49A15.53,15.53,0,0,1,179.81,87.7Z"/><path class="cls-2" d="M186.51,83.18l.45.38a15.65,15.65,0,0,0,2.3-3.55l-.54-.26A15.11,15.11,0,0,1,186.51,83.18Z"/><path class="cls-2" d="M175,88.48h-3.32v.6H175c.29,0,.58,0,.86,0l0-.59Z"/><path class="cls-2" d="M190.16,73.31a15.49,15.49,0,0,1-.22,2.55l.59.1a15.62,15.62,0,0,0,.22-2.65V71.76h-.59Z"/><rect class="cls-2" x="190.16" y="63.42" width="0.6" height="4.17"/><path class="cls-3" d="M247.12,140.55c-.79-.89-5.28-1.54-10.34-1.27a44.17,44.17,0,0,0-5.9-11.42c3-3.23,5.88-7,5.37-9.08-1-4.33-11.05-11.1-12.93-11.21-1.2-.07-4.95,2.75-8.38,6.62a44,44,0,0,0-12.07-4.07c-.14-4.44-.75-9.11-2.62-10.26-3.79-2.33-15.67,0-17.08,1.22-.88.78-1.52,5.25-1.26,10.28A44.05,44.05,0,0,0,170.14,117c-3.14-2.91-6.68-5.54-8.73-5-4.33,1-11.11,11-11.21,12.93-.07,1.12,2.37,4.44,5.82,7.66a43.91,43.91,0,0,0-4.6,12.85c-4,.22-7.9.88-8.93,2.56-2.33,3.79,0,15.67,1.22,17.08.7.79,4.38,1.39,8.78,1.31a43.75,43.75,0,0,0,6.18,12.78c-2.5,2.85-4.54,5.85-4.1,7.67,1,4.33,11.05,11.11,12.93,11.21,1,.06,3.95-2,6.93-5.06a43.82,43.82,0,0,0,13.62,4.48c.25,3.77.93,7.32,2.52,8.29,3.79,2.33,15.67,0,17.08-1.21.79-.71,1.39-4.41,1.31-8.82a43.86,43.86,0,0,0,12.39-6.49c3,2.65,6.15,4.9,8.06,4.44,4.33-1,11.11-11.05,11.21-12.93.07-1.12-2.39-4.47-5.87-7.71a44,44,0,0,0,3.95-12.76c4.24-.18,8.54-.82,9.63-2.6C250.66,153.83,248.37,142,247.12,140.55Zm-50.8,32.88a19.8,19.8,0,1,1,18.34-21.16A19.8,19.8,0,0,1,196.32,173.43Z"/><path class="cls-4" d="M197.07,181.76a28.6,28.6,0,1,1,26.5-30.56A28.63,28.63,0,0,1,197.07,181.76Zm-4-55.81a27.35,27.35,0,1,0,29.22,25.34A27.38,27.38,0,0,0,193.09,126Z"/><path class="cls-4" d="M234.34,142.26l-.56,0a40.38,40.38,0,0,1-71.61,34.95h0l-.53.14a40.91,40.91,0,0,0,72.71-35.05Z"/><path class="cls-4" d="M168.17,123.66a40.21,40.21,0,0,1,24-10.2l.54,0c-.08-.17-.14-.34-.21-.52l-.37,0A40.68,40.68,0,0,0,167.9,123.2Z"/><path class="cls-1" d="M158,85.33c-.87-1.13-6.18-2.28-12.25-2.39a52.52,52.52,0,0,0-6.08-14.16c3.89-3.61,7.63-7.82,7.2-10.41-.87-5.26-12.27-14.22-14.51-14.51-1.43-.18-6.15,2.87-10.59,7.21a52.65,52.65,0,0,0-14.08-5.91c.21-5.31-.12-10.95-2.26-12.49-4.33-3.1-18.73-1.38-20.52,0-1.12.87-2.28,6.15-2.39,12.19A52.57,52.57,0,0,0,68,50.59c-3.52-3.74-7.52-7.2-10-6.78-5.26.86-14.22,12.26-14.51,14.5-.17,1.34,2.46,5.51,6.32,9.66a52.84,52.84,0,0,0-6.61,15c-4.8-.08-9.51.38-10.89,2.31-3.11,4.33-1.38,18.73,0,20.52.77,1,5.12,2,10.38,2.32a52.65,52.65,0,0,0,6.3,15.8c-3.23,3.2-5.92,6.61-5.55,8.83.86,5.26,12.27,14.22,14.51,14.51,1.23.16,4.89-2.08,8.71-5.46a52.69,52.69,0,0,0,15.9,6.52c0,4.53.49,8.82,2.32,10.13,4.33,3.11,18.73,1.38,20.52,0,1-.78,2-5.15,2.32-10.43a52.74,52.74,0,0,0,15.37-6.7c3.32,3.42,6.94,6.38,9.26,6,5.26-.87,14.22-12.27,14.51-14.51.17-1.34-2.48-5.55-6.37-9.72a52.46,52.46,0,0,0,5.81-14.92c5.09.15,10.29-.25,11.75-2.29C161.13,101.51,159.4,87.12,158,85.33Zm-63.55,35a23.74,23.74,0,1,1,23.74-23.73A23.72,23.72,0,0,1,94.47,120.31Z"/><path class="cls-4" d="M94.66,130.34A34.29,34.29,0,1,1,129,96.05,34.33,34.33,0,0,1,94.66,130.34Zm0-67.07a32.79,32.79,0,1,0,32.79,32.78A32.82,32.82,0,0,0,94.66,63.27Z"/><path class="cls-4" d="M142.6,86.28c-.23,0-.45,0-.67-.09a48.41,48.41,0,0,1-88.61,35.68h0q-.33.07-.66.12A49,49,0,0,0,142.6,86.28Z"/><path class="cls-4" d="M65.05,58.4A48.21,48.21,0,0,1,94.66,48.26h.65c-.08-.21-.14-.42-.21-.63h-.44A48.83,48.83,0,0,0,64.77,57.82Z"/><path class="cls-5" d="M183.92,56.23l13.16.32a23.6,23.6,0,0,1-.41-7.1,3.9,3.9,0,0,1,1.92-2.75c13.14-7.68,10.25-17,10.25-17S207.78,18,191.24,16.44c-17.64-1.64-17,14.09-17,14.09s-1,8.72,8,14.88a5.3,5.3,0,0,1,2.23,3.88A19,19,0,0,1,183.92,56.23Z"/><path class="cls-1" d="M197.08,56.51,197,61.23c0,1.77-1.23,3.18-2.64,3.15l-8-.2c-1.41,0-2.53-1.51-2.48-3.27l.11-4.72Z"/><polygon class="cls-1" points="193.5 64.36 192.54 66.49 187.56 66.37 186.52 64.19 193.5 64.36"/><path class="cls-4" d="M197.67,35.6c2.09-3.68-2.79-5.65-5.18-3.15a2.61,2.61,0,0,0-.66,1.7c-.05,1.1-.08,2.83-.08,2.83a19.67,19.67,0,0,1-2.05-.53,9,9,0,0,0-.22-3.1c-1.27-4.12-6.59-1.09-3.61,1.91a7.74,7.74,0,0,0,2.87,1.63q-.15,9.69-.31,19.38l.9,0q.09-6,.19-11.91,0-3.09.1-6.18c0-.32,0-.67,0-1a16.47,16.47,0,0,0,2,.41l-.45,18.74.89,0,.46-18.67.54,0C194.78,37.75,196.77,37.18,197.67,35.6Zm-8.91.54c-1.25-.46-3-1.36-3.16-2.63a1,1,0,0,1,.35-.82c2.27-1.94,2.84,1.67,2.81,2.12A9.84,9.84,0,0,1,188.76,36.14Zm8.14-.71a4.43,4.43,0,0,1-4.36,1.68l.07-2.87a2,2,0,0,1,.63-1.41,2.8,2.8,0,0,1,3.39-.54A2.29,2.29,0,0,1,196.9,35.43Z"/><path class="cls-6" d="M174.48,12.82a.69.69,0,0,0,0-1L168,5a.69.69,0,1,0-1,1l6.48,6.81A.7.7,0,0,0,174.48,12.82Z"/><path class="cls-6" d="M203.82,13.54a.7.7,0,0,1,0-1l6.81-6.48a.69.69,0,0,1,1,0,.7.7,0,0,1,0,1l-6.81,6.48A.7.7,0,0,1,203.82,13.54Z"/><path class="cls-6" d="M191.31,10.79a.68.68,0,0,0,.71-.68l.23-9.4a.7.7,0,1,0-1.39,0l-.23,9.4A.7.7,0,0,0,191.31,10.79Z"/><polygon class="cls-1" points="306.38 226.21 272.85 121.98 270.23 121.98 303.75 226.21 306.38 226.21"/><polygon class="cls-1" points="282.59 226.21 249.06 121.98 246.44 121.98 279.97 226.21 282.59 226.21"/><polygon class="cls-1" points="284.76 159.11 284.76 161.24 260.12 161.23 259.7 159.1 284.76 159.11"/><polygon class="cls-1" points="279.67 145.26 279.67 147.39 255.02 147.37 254.6 145.24 279.67 145.26"/><polygon class="cls-1" points="275.45 131.4 275.45 133.53 250.81 133.52 250.39 131.39 275.45 131.4"/><polygon class="cls-1" points="289.25 173.14 289.25 175.28 264.61 175.26 264.19 173.13 289.25 173.14"/><polygon class="cls-1" points="293.46 187.18 293.46 189.31 268.82 189.29 268.4 187.16 293.46 187.18"/><polygon class="cls-1" points="297.82 201.76 298.82 203.89 274.17 203.88 273.75 201.74 297.82 201.76"/><polygon class="cls-1" points="302.44 216.34 303.44 218.47 278.79 218.46 278.37 216.32 302.44 216.34"/><polygon class="cls-1" points="214.04 226.21 247.57 121.98 244.95 121.98 211.42 226.21 214.04 226.21"/><polygon class="cls-1" points="237.82 226.21 271.35 121.98 268.73 121.98 235.2 226.21 237.82 226.21"/><polygon class="cls-1" points="233.03 159.11 233.03 161.24 257.68 161.23 258.1 159.1 233.03 159.11"/><polygon class="cls-1" points="238.13 145.26 238.13 147.39 262.77 147.37 263.19 145.24 238.13 145.26"/><polygon class="cls-1" points="242.34 131.4 242.34 133.53 266.99 133.52 267.41 131.39 242.34 131.4"/><polygon class="cls-1" points="228.54 173.14 228.54 175.28 253.19 175.26 253.61 173.13 228.54 173.14"/><polygon class="cls-1" points="224.33 187.18 224.33 189.31 248.98 189.29 249.4 187.16 224.33 187.18"/><polygon class="cls-1" points="219.97 201.76 218.98 203.89 243.62 203.88 244.04 201.74 219.97 201.76"/><polygon class="cls-1" points="215.35 216.34 214.36 218.47 239 218.46 239.42 216.32 215.35 216.34"/><path class="cls-7" d="M239.06,82.08s8.94-5.87,11.11-8.78,3.48-17.2-.75-9.4-12,16.93-12,16.93Z"/><path class="cls-7" d="M239.06,82.08v1.7a3.2,3.2,0,0,1-.45,1.65l-1.16,2-1.07-5.8,1.07-.8Z"/><polygon class="cls-7" points="249.01 52 250.38 55.7 254.23 54 250.79 48.91 249.01 52"/><path class="cls-8" d="M248.17,53.21a2.07,2.07,0,0,1-1.18.27c-2.17-1.22-3.16-6.88-3.16-6.88l1.6-1.85,3.36.35,1.77,3.25a3,3,0,0,1,0,2.85h0A5.86,5.86,0,0,1,248.17,53.21Z"/><path class="cls-9" d="M249.31,47.18c-.42-.49-1-1.81-1.5-1.44s-1.77,1-2.25,1.26c-1.14.56-3.39,1.11-4.24-.63a2.57,2.57,0,0,1,.47-2.51,2.63,2.63,0,0,1,1.64-.83c1.47-.17,3.61,0,4.2-.48,1-.77,2.45-.66,2.9.29a10.65,10.65,0,0,1,.67,4,5.81,5.81,0,0,1-.41,2h0Z"/><path class="cls-8" d="M250.52,46.74a.94.94,0,0,0-1,.61c-.2.44-.06.88.3,1a1,1,0,0,0,1-.62C251,47.27,250.89,46.84,250.52,46.74Z"/><polygon class="cls-10" points="221.25 88.25 221.96 88.64 221.96 88.25 221.25 88.25"/><path class="cls-11" d="M231.39,89.87A16.58,16.58,0,0,0,222,88.64c-.08-.38-.71-.39-.71-.39l7.5-2Z"/><path class="cls-11" d="M227.09,84.79a5.43,5.43,0,0,1,2.11-7c4.18-2.63,7.45,3,7.48,3.08l-.58.4c-.11-.21-3-5.09-6.56-2.82a4.56,4.56,0,0,0-1.85,6Z"/><path class="cls-5" d="M255.17,53.22c7.87,4.75,6,26.29,6,26.29H248.08s-1.76-16.93,2.23-24.88A3.48,3.48,0,0,1,255.17,53.22Z"/><path class="cls-11" d="M238.5,87.22l-1.45-5.93a1.07,1.07,0,0,0-1.42-.74l-7.83,3a1.3,1.3,0,0,0-.51,2l4.1,4.8a9,9,0,0,0,4.23-.88A5.84,5.84,0,0,0,238.5,87.22Z"/><path class="cls-9" d="M267.61,128s0,2.29-4.61,3.66c-.94.28-.63.56-.81,1h5.29l2.06-2.32.65.55,1.49-1.47s-.7-2.12-1.83-2.14Z"/><path class="cls-8" d="M266.75,126l.86,2h0a2.06,2.06,0,0,0,2.14-.65l.1-.12-.7-2Z"/><path class="cls-3" d="M255.23,103.78c0,.25,11.71,22.68,11.71,22.68l2.21-1.25s-3.87-18-8.24-25.49a9.15,9.15,0,0,1-1.19-3.63c-.77-7.43-1.3-10.35-1.3-10.35l-4.64,16.86Z"/><path class="cls-8" d="M252.33,67.59s-2.74,4.41-6,6.55-15,3.09-15,3.09l-1.6,1.8a1,1,0,0,1-1,.26l-.34-.13a1.36,1.36,0,0,1-.64-2.07l.7-1a1.59,1.59,0,0,1,1.11-.65l3.22-.37s8.69-2.61,10.71-4.69,4.74-8.4,4.74-8.4Z"/><path class="cls-9" d="M250.73,128.92a11.82,11.82,0,0,1-4.83,2.22c-.74.19-1.54-.07-1.54,1.15h4.08l3.39-.58v.58h1.83s.51-3-.56-3.37Z"/><path class="cls-8" d="M251.09,126.77l-.36,2.15h0A2.08,2.08,0,0,0,253,129l.12-.07-.18-2.15Z"/><path class="cls-3" d="M248.08,79.51l2.85,47.72h2.32s4.44-11.84,2.86-21.18a11.78,11.78,0,0,1,.77-6.69,59.25,59.25,0,0,0,4.31-19.85Z"/><path class="cls-11" d="M221.14,89.69s-2.65,5.62-2.23,8.91c.3,2.31,1.33,2.92,2.12,3.12a2,2,0,0,0,2.09-.84C225.29,97.65,221.14,89.69,221.14,89.69Z"/><polygon class="cls-3" points="20.37 159.09 0 227.34 2.35 227.34 22.72 159.09 20.37 159.09"/><polygon class="cls-3" points="41.7 159.09 21.34 227.34 23.69 227.34 44.05 159.09 41.7 159.09"/><polygon class="cls-3" points="20.47 159.09 20.47 160.98 42.58 160.97 42.92 159.09 20.47 159.09"/><polygon class="cls-3" points="16.69 172.49 16.69 174.55 38.8 174.54 39.18 172.47 16.69 172.49"/><polygon class="cls-3" points="12.78 186.59 11.88 188.65 33.99 188.63 34.37 186.57 12.78 186.59"/><polygon class="cls-3" points="8.63 200.69 7.74 202.75 29.85 202.73 30.23 200.67 8.63 200.69"/><polygon class="cls-3" points="4.75 214.47 3.86 216.53 25.97 216.52 26.34 214.46 4.75 214.47"/><polygon class="cls-3" points="115.41 159.09 135.77 227.34 138.12 227.34 117.76 159.09 115.41 159.09"/><polygon class="cls-3" points="94.07 159.09 114.44 227.34 116.79 227.34 96.42 159.09 94.07 159.09"/><polygon class="cls-3" points="95.2 159.09 95.55 160.97 117.66 160.98 117.66 159.09 95.2 159.09"/><polygon class="cls-3" points="121.44 172.49 121.44 174.55 99.33 174.54 98.95 172.47 121.44 172.49"/><polygon class="cls-3" points="125.35 186.59 126.24 188.65 104.13 188.63 103.75 186.57 125.35 186.59"/><polygon class="cls-3" points="129.49 200.69 130.38 202.75 108.28 202.73 107.9 200.67 129.49 200.69"/><polygon class="cls-3" points="133.37 214.47 134.27 216.53 112.16 216.52 111.78 214.46 133.37 214.47"/><rect class="cls-3" x="16.3" y="157.58" width="107.88" height="3.4"/><path class="cls-12" d="M30.42,153.14a1.93,1.93,0,0,0-.67,1.57c.15.88.36,2.93.36,2.93H31l0-1.92c0-.12,1.79,1.92,2.09,1.92h4.42s.29-1.29-2.3-1.71A9.4,9.4,0,0,1,30.42,153.14Z"/><path class="cls-7" d="M24.09,151.68,24,153.51a1.65,1.65,0,0,0,.3,1.08A6.7,6.7,0,0,0,25.6,156c-1.28.41-2.45-1-3.06-2a2.35,2.35,0,0,1-.33-1.57l.22-1.44Z"/><path class="cls-9" d="M22.19,152.69s-1.13.1-1.31,1-.72,2.58-.72,2.58l.61.49.87-1.71a25.82,25.82,0,0,0,2.15,2.63h4.82s0-1.6-3-1.67C22.82,155.91,22.19,152.69,22.19,152.69Z"/><polygon class="cls-7" points="42.36 68.17 37.01 82.15 33.63 79.64 41.17 66.94 42.36 68.17"/><path class="cls-7" d="M41.69,63.94a2.21,2.21,0,0,0-.48,1.48l-.24,2,.28.31,1,.84c0-.42-.08,0-.08,0l1.52-2.65s1.84-1.18-.48-2.92a.68.68,0,0,0-.77-.05A1.76,1.76,0,0,0,41.69,63.94Z"/><path class="cls-5" d="M30.55,92.25A88.54,88.54,0,0,0,37,82.15l-2.91-3.3L30.55,83Z"/><path class="cls-7" d="M22.19,152.85l1.7.29C24.24,151,29.54,141,30,135.81a118.06,118.06,0,0,1,1.82-12.21l-5.69-1.69s-1.45,0,.14,11.77C22.67,138.36,21.72,149,22.19,152.85Z"/><path class="cls-8" d="M26.38,117.62s1.34,8.06,3.21,16.67c-1.95,5.2,1,19.72,1.07,19.66.22-.21,1.25,1.06,1.25,1.06s2.16-12.81,2.64-18.59.59-12.82.59-12.82Z"/><polygon class="cls-8" points="47.98 67.5 42.63 81.48 39.25 78.97 46.79 66.26 47.98 67.5"/><path class="cls-8" d="M47.31,63.27a2.17,2.17,0,0,0-.48,1.47l-.24,2,.28.32,1,.84c0-.42-.08,0-.08,0l1.52-2.65s1.84-1.18-.48-2.93a.68.68,0,0,0-.77,0A1.73,1.73,0,0,0,47.31,63.27Z"/><polygon class="cls-7" points="31.79 84.9 28.35 84.9 29.72 80.85 32.42 82.51 31.79 84.9"/><path class="cls-5" d="M36.37,89.26a2.3,2.3,0,0,0-.06-.28c3.42-4.4,6.32-7.5,6.32-7.5l-2.9-3.31-6.6,6.27H31.19a3.87,3.87,0,0,0-4.89.62c-.84.86-1.39,3.2-.84,5.66,1.54,6.8.34,10.4.34,10.4l8.89,3.32s.21-5.91.34-10.06v0a4.65,4.65,0,0,1,.73-2.27A4,4,0,0,0,36.37,89.26Z"/><path class="cls-8" d="M33,73.57l-5.66,2,.56,4.22,0,.17.33.07h.05l.05,0A3.87,3.87,0,0,1,31,82.68a6.46,6.46,0,0,0,2.44,0,2.46,2.46,0,0,0,1.29-.55C35.94,79.49,33,73.57,33,73.57Z"/><path class="cls-9" d="M32.88,77.16c-1.53.74-1.17,8.59-1.43,13.93a6.07,6.07,0,0,1-5.14,5.68c-2,.32-4.23.38-5.56-.38.88-.72,5.63-7.72,4.11-17-.2-1.22-.22-4.61,1.83-6.46,2.28-2,7,.63,7,.63S35,76.14,32.88,77.16Z"/><path class="cls-3" d="M34.87,100.93a65.55,65.55,0,0,1,1.19,9.61c0,2-.48,14.38-.48,14.38s-8.46.61-10.1.61c-.41-10.17-2.72-10.48-2.72-15.22a13.5,13.5,0,0,1,1.86-5.88,8.58,8.58,0,0,0,1.18-3.3l.05-.19Z"/><path class="cls-13" d="M106.15,155.08h7c.92.1,2,.36,2.14,1.17a4.74,4.74,0,0,1,.1,1.07c-.25.29-9.52,0-9.52,0l-.05,0A1.47,1.47,0,0,1,106.15,155.08Z"/><polygon class="cls-14" points="115.39 157.31 105.86 157.27 105.95 157.64 115.4 157.64 115.39 157.31"/><polygon class="cls-4" points="108.92 155.07 109.55 155.08 109.35 155.94 108.74 155.94 108.92 155.07"/><polygon class="cls-4" points="110.27 155.07 110.9 155.08 110.7 155.94 110.09 155.94 110.27 155.07"/><path class="cls-8" d="M105.67,152.75l.48,2.33h0a2.28,2.28,0,0,0,1.88,0l.1,0,.34-2.33Z"/><path class="cls-9" d="M89.8,155.08h7c.93.1,2,.36,2.14,1.17a4.74,4.74,0,0,1,.1,1.07c-.25.29-9.52,0-9.52,0l0,0A1.46,1.46,0,0,1,89.8,155.08Z"/><polygon class="cls-14" points="99.04 157.31 89.52 157.27 89.6 157.64 99.05 157.64 99.04 157.31"/><polygon class="cls-4" points="92.57 155.07 93.2 155.08 93 155.94 92.39 155.94 92.57 155.07"/><polygon class="cls-4" points="93.92 155.07 94.55 155.08 94.36 155.94 93.74 155.94 93.92 155.07"/><path class="cls-8" d="M90.11,152.75l-.31,2.33h0a2.28,2.28,0,0,0,1.88,0l.1,0,1.12-2.33Z"/><path class="cls-8" d="M100.54,74.39l-5.76,3.76,1.78,4.55.09.19.38,0h.12a4.44,4.44,0,0,1,3.67,2.23,7.61,7.61,0,0,0,2.72-.71,2.8,2.8,0,0,0,1.29-1C105.44,80.2,100.54,74.39,100.54,74.39Z"/><path class="cls-8" d="M107.87,75.57s.71,6.69-.71,11c.66.57,3.08,3.16,3.84-.2s-.86-11.93-.86-11.93Z"/><polygon class="cls-5" points="104.42 75.1 103.06 75.97 103.54 76.98 105 76.34 104.42 75.1"/><path class="cls-5" d="M103.62,76.32c.13.3.14.6,0,.65s-.34-.15-.47-.46-.15-.6,0-.66S103.48,76,103.62,76.32Z"/><path class="cls-5" d="M120.77,70.17v0a13,13,0,0,0-1.31-2.35,11.11,11.11,0,0,1-1.25-2.06l-14,9.16.91,1.71,15.65-5.78A4.56,4.56,0,0,1,120.77,70.17Z"/><polygon class="cls-7" points="99.27 85.1 98.77 88.25 103.22 88.25 103.54 84.39 99.27 85.1"/><path class="cls-8" d="M110.78,92.9s5.26-1.67,6.9-3.93-1.14-14.58-1.14-14.58l.36-2.21a2.06,2.06,0,0,0-2-2.4h-1.4a.8.8,0,0,0-.74,1.13l1.84,4.16s1.39,9.33-.55,10a21.83,21.83,0,0,1-4.94,1Z"/><path class="cls-13" d="M100.89,85.1l-1.35-3,.88-.55a1.64,1.64,0,0,0,.68-1.93l-1-2.83s2.74-.34,2.66-2.89c0-1.32-1.81-1.32-1.81-1.32a2.63,2.63,0,0,1-2.22,1.31,4.37,4.37,0,0,0-4,2.51c-.9,1.56-.51,4,.27,5.86a5.34,5.34,0,0,0,4.26,2.84Z"/><path class="cls-3" d="M95.54,110.31a98.56,98.56,0,0,0,1.67,13.34,12,12,0,0,1-.41,6.13c-3.14,9.33-7.55,23.36-7.55,23.36h3.92s8.87-16.58,11.16-24.81S107,117.49,107,117.49l-2.72-7.18Z"/><path class="cls-8" d="M98.81,80.7a1.28,1.28,0,0,0,.73,1.4c.56.3,1.15.16,1.31-.31a1.27,1.27,0,0,0-.73-1.4C99.56,80.09,99,80.23,98.81,80.7Z"/><path class="cls-5" d="M108.32,110.31H95.54V93.93A7,7,0,0,1,101.85,87l8.88-1.07s1,1.6,4,5.31a30.16,30.16,0,0,1-7.55,3.16Z"/><path class="cls-3" d="M95.54,110.31s1.81,6.53,8.46,13.85a8.51,8.51,0,0,1,2.49,6.65l-1.37,22.33h4s4.84-18.54,3.8-27.68a42.11,42.11,0,0,0-4.57-15.15Z"/><path class="cls-2" d="M118.63,68.65c.68,1.42,1.62,2.4,2.08,2.18s.28-1.56-.41-3-1.62-2.4-2.08-2.18S117.94,67.22,118.63,68.65Z"/><path class="cls-8" d="M107.32,72.84l.12.06a1.75,1.75,0,0,0,1.33.08l.08,0a2.37,2.37,0,0,0,1.51-1.54h0a.44.44,0,0,0-.51-.56L109,71a1.31,1.31,0,0,0-.84.57Z"/><polygon class="cls-8" points="156.22 155.44 160.22 162.97 155.81 162.75 155.5 155.2 156.22 155.44"/><polygon class="cls-4" points="149.95 152.11 153.64 152.1 155.17 175.95 148.55 175.95 149.95 152.11"/><path class="cls-12" d="M143.17,222.12a1.93,1.93,0,0,0-.74,1.63c.16.92.4,3.06.4,3.06h.94l0-2c0-.13,2,2,2.35,2h5s.33-1.35-2.58-1.78A10.75,10.75,0,0,1,143.17,222.12Z"/><path class="cls-8" d="M145.32,221.21,146,223a2.24,2.24,0,0,0,.91,1.17,9.07,9.07,0,0,0,2.32,1.05c-1.35,1.15-3.5-.05-4.72-.9a3,3,0,0,1-1.2-1.74l-.28-1.33Z"/><path class="cls-12" d="M152.62,222.12a1.93,1.93,0,0,0-.74,1.63c.17.92.4,3.06.4,3.06h.94l0-2c0-.13,2,2,2.35,2h5s.33-1.35-2.59-1.78A10.75,10.75,0,0,1,152.62,222.12Z"/><path class="cls-8" d="M154.78,221.21l.67,1.75a2.29,2.29,0,0,0,.91,1.17,9.24,9.24,0,0,0,2.32,1.05c-1.35,1.15-3.49-.05-4.72-.9a3,3,0,0,1-1.2-1.74l-.28-1.33Z"/><path class="cls-1" d="M147.12,176s-.62,3.57,2.94,21.09c-2.88,9.13,1.74,24.41,1.74,24.41h3.37l2.29-45.5Z"/><path class="cls-5" d="M153.23,152.11l1.2,28.94,4-1.7a42.7,42.7,0,0,1-1.61-13c-.61-5.46,2.49-2.58-1.31-13.09A4,4,0,0,0,153.23,152.11Z"/><path class="cls-7" d="M153.75,149.12l-.47,2.44a1.55,1.55,0,0,1-2.35,1l-1.62-1,2.9-6.57Z"/><path class="cls-1" d="M143.87,176s-4.41,3.57-.84,21.09c-2.89,9.13-.34,24.41-.34,24.41h3l8.51-45.5Z"/><path class="cls-5" d="M150,149.66s-3.73,2.09-4.89,4-1.48,5.84-1.59,9.45c-.14,5-2.54,18-2.54,18h10l.25-28.35Z"/><path class="cls-15" d="M157.3,141.8c-2.26-.57-4.43,1.74-4.43,1.74l-1.7,9.16-2.62-4s-.14-5.48,2.38-9.1c1.81-2.19,5.28-1.56,7,.57a5.43,5.43,0,0,1,.95,3.79c-.11,1.77-.62,11.93-.62,11.93L153.13,152a23.09,23.09,0,0,1,.62-2.91C154.6,145.88,158.82,142.18,157.3,141.8Z"/><path class="cls-8" d="M152.19,143.4a.81.81,0,0,1,1,.51.7.7,0,0,1-.24,1,.82.82,0,0,1-1-.5A.71.71,0,0,1,152.19,143.4Z"/><path class="cls-8" d="M154.61,149.55a1.84,1.84,0,0,0,1.11.14c2-1.42,2.67-7.11,2.67-7.11l-1.55-1.65-3.1.68L152.21,145a3.15,3.15,0,0,0,.13,2.82h0A5.06,5.06,0,0,0,154.61,149.55Z"/><path class="cls-15" d="M157.82,141.68c-.16,1.72-4.95,1.86-4.95,1.86l-.25-2.33,2.79-1.53,2.21,1.33A1.48,1.48,0,0,1,157.82,141.68Z"/><path class="cls-15" d="M157.71,142a3.25,3.25,0,0,0,.49,1.75l.38-.69v-.59l-.37-.47S157.87,141.38,157.71,142Z"/><path class="cls-8" d="M146.08,153.62c-4.83.56-2.55,13-1.51,18.15a2.16,2.16,0,0,0,2.77,1.64c4.2-1.33,10.35-6.83,10.35-6.83l-1-1.23-8.16,1.91S151.68,153,146.08,153.62Z"/><path class="cls-4" d="M155.75,162.42l-1.58,9.77a.47.47,0,0,0,.46.54h6.25a.47.47,0,0,0,.46-.39l1.55-9.77a.47.47,0,0,0-.46-.54h-6.22A.47.47,0,0,0,155.75,162.42Z"/><path class="cls-8" d="M162.68,166.75a4,4,0,0,0-.11-1.27c-.14-.92-.11-2.37-1-1.65a4.74,4.74,0,0,0-1,2.31,2.74,2.74,0,0,0,.59,2.06l.65,1.41A4.06,4.06,0,0,0,162.68,166.75Z"/><path class="cls-16" d="M158.6,165.83a.48.48,0,1,0,.47-.48A.47.47,0,0,0,158.6,165.83Z"/></g></g></svg>