<svg xmlns="http://www.w3.org/2000/svg" viewBox="0 0 271.34 275.27"><defs><style>.cls-1{fill:#5d4efa;}.cls-2{fill:#6078f2;}.cls-3{fill:#4cc2fc;}.cls-4{fill:#fff;}.cls-5{fill:#1a2089;}.cls-6{fill:#e6b38e;}.cls-7{fill:#cddbfd;}.cls-8{fill:#a0b7fc;}.cls-9{fill:#b56cf7;}.cls-10{fill:#006ae6;}.cls-11{fill:#00244f;}</style></defs><title>planning</title><g id="Layer_2" data-name="Layer 2"><g id="Layer_1-2" data-name="Layer 1"><g id="Brainstorming"><path class="cls-1" d="M159.46,21.16c0-7.75-5.93-14-13.24-14a13.43,13.43,0,0,0-12.87,10.73h-.48a19.23,19.23,0,0,0-19.13,19.34,18.74,18.74,0,0,0,.12,2.13,15.21,15.21,0,0,0-11.25,19.93,17.11,17.11,0,0,0-.78,29A17.12,17.12,0,0,0,110,119.55c0,.41-.06.83-.06,1.25a13.87,13.87,0,0,0,18.51,13.09c.71,7.27,7.36,13,15.46,13,8.58,0,15.53-6.38,15.53-14.26a2.09,2.09,0,0,0,0-.25h0V22.23h0C159.44,21.88,159.46,21.52,159.46,21.16Z"/><path class="cls-1" d="M115.14,91.15a.5.5,0,0,1-.11-1,16.71,16.71,0,0,0,12.69-13.66.5.5,0,1,1,1,.15,17.72,17.72,0,0,1-13.44,14.48Z"/><path class="cls-1" d="M128.19,105.7h-.08a.49.49,0,0,1-.41-.56,16.64,16.64,0,0,0-7.21-16.49.49.49,0,0,1-.14-.68.5.5,0,0,1,.69-.14,17.6,17.6,0,0,1,7.86,14.67,17.4,17.4,0,0,1-.22,2.79A.49.49,0,0,1,128.19,105.7Z"/><path class="cls-1" d="M143.77,45.25a.5.5,0,0,1-.42-.77,12.08,12.08,0,0,0-1.54-15.15L140,27.48a.5.5,0,0,1,0-.7.48.48,0,0,1,.7,0l1.85,1.84A13.09,13.09,0,0,1,144.18,45,.49.49,0,0,1,143.77,45.25Z"/><path class="cls-1" d="M133,130.16a.49.49,0,0,1-.21-.94,16.73,16.73,0,0,0,9.49-16,.49.49,0,0,1,.46-.53.5.5,0,0,1,.53.47,17.72,17.72,0,0,1-10.06,17A.49.49,0,0,1,133,130.16Z"/><path class="cls-1" d="M162.71,22.23h0V132.35h0v.25c0,7.88,7,14.26,15.52,14.26,8.1,0,14.75-5.7,15.46-13a13.87,13.87,0,0,0,18.51-13.09c0-.42,0-.84,0-1.25a17.11,17.11,0,0,0,8.18-31.32,17.1,17.1,0,0,0-.78-29,15.18,15.18,0,0,0-11.24-19.93c.07-.7.11-1.41.11-2.13a19.23,19.23,0,0,0-19.13-19.34h-.48A13.42,13.42,0,0,0,175.91,7.12c-7.32,0-13.24,6.29-13.24,14C162.67,21.52,162.68,21.88,162.71,22.23Z"/><path class="cls-1" d="M207,91.15h-.11a17.72,17.72,0,0,1-13.45-14.48.51.51,0,0,1,.42-.57.5.5,0,0,1,.56.42,16.72,16.72,0,0,0,12.69,13.66.5.5,0,0,1-.11,1Z"/><path class="cls-1" d="M193.93,105.7a.49.49,0,0,1-.49-.42,18.63,18.63,0,0,1-.22-2.79,17.6,17.6,0,0,1,7.86-14.67.5.5,0,0,1,.69.14.49.49,0,0,1-.14.68,16.64,16.64,0,0,0-7.21,16.49.48.48,0,0,1-.41.56Z"/><path class="cls-1" d="M180,47.22a.54.54,0,0,1-.35-.14,13.09,13.09,0,0,1,0-18.46l1.85-1.84a.49.49,0,0,1,.7.7l-1.85,1.85a12.06,12.06,0,0,0,0,17,.5.5,0,0,1-.35.85Z"/><path class="cls-1" d="M189.34,128.62a.41.41,0,0,1-.21-.05,17.71,17.71,0,0,1-10-17,.5.5,0,1,1,1,.07,16.73,16.73,0,0,0,9.48,16.05.49.49,0,0,1,.24.66A.48.48,0,0,1,189.34,128.62Z"/><path class="cls-2" d="M171.6,117a1.24,1.24,0,0,1,0-1.4,3.27,3.27,0,0,0,.63-1.89c0-3.07-4.77-5.57-10.66-5.57s-10.65,2.5-10.65,5.57a3.27,3.27,0,0,0,.63,1.89,1.24,1.24,0,0,1,0,1.4,3.29,3.29,0,0,0-.63,1.89c0,1.46,1.08,2.79,2.83,3.78a2.22,2.22,0,0,0-.06.51c0,2.28,3.53,4.13,7.88,4.13s7.89-1.85,7.89-4.13a3,3,0,0,0-.06-.51c1.75-1,2.83-2.32,2.83-3.78A3.29,3.29,0,0,0,171.6,117Z"/><path d="M161.57,127.78c-4.69,0-8.37-2-8.37-4.62a2.09,2.09,0,0,1,0-.25c-1.8-1.1-2.78-2.53-2.78-4a3.82,3.82,0,0,1,.71-2.17.72.72,0,0,0,0-.84,3.82,3.82,0,0,1-.71-2.17c0-3.4,4.89-6.07,11.14-6.07s11.15,2.67,11.15,6.07a3.82,3.82,0,0,1-.71,2.17.72.72,0,0,0,0,.84,3.82,3.82,0,0,1,.71,2.17c0,1.51-1,2.94-2.78,4a2.09,2.09,0,0,1,0,.25C170,125.75,166.27,127.78,161.57,127.78Zm0-19.16c-5.5,0-10.15,2.32-10.15,5.07a2.8,2.8,0,0,0,.54,1.61,1.73,1.73,0,0,1,0,2,2.8,2.8,0,0,0-.54,1.6c0,1.22.91,2.41,2.58,3.35a.5.5,0,0,1,.23.55,1.78,1.78,0,0,0,0,.39c0,2,3.38,3.63,7.38,3.63s7.39-1.66,7.39-3.63a1.35,1.35,0,0,0-.05-.39.5.5,0,0,1,.24-.55c1.66-.94,2.58-2.13,2.58-3.35a2.8,2.8,0,0,0-.54-1.6,1.73,1.73,0,0,1,0-2,2.8,2.8,0,0,0,.54-1.61C171.73,110.94,167.08,108.62,161.57,108.62Z"/><path class="cls-3" d="M190.49,71c0-15.79-13.14-29.26-28.93-29.26A29.16,29.16,0,0,0,132.7,70.56c0,8,3.82,15.49,9.09,20.71a29.68,29.68,0,0,1,7.93,13.63l.07.25a11.41,11.41,0,0,0,11.05,8.55H163A11.41,11.41,0,0,0,174,105.15l0-.15a29.28,29.28,0,0,1,7.81-13.58A28.52,28.52,0,0,0,190.49,71Z"/><path class="cls-3" d="M163,114.19h-2.13a11.9,11.9,0,0,1-11.53-8.91l-.07-.25a29.35,29.35,0,0,0-7.79-13.41c-5.93-5.86-9.3-13.54-9.25-21.06a29.49,29.49,0,0,1,8.71-20.69,29,29,0,0,1,20.65-8.66h0C177.51,41.21,191,54.83,191,71a28.84,28.84,0,0,1-8.77,20.81,28.73,28.73,0,0,0-7.68,13.36l0,.15A11.92,11.92,0,0,1,163,114.19Zm-1.41-72A28.52,28.52,0,0,0,133.2,70.56c0,7.26,3.21,14.68,8.94,20.36a30.16,30.16,0,0,1,8.06,13.86l.07.25a10.92,10.92,0,0,0,10.57,8.17H163A10.93,10.93,0,0,0,173.54,105l0-.15a29.72,29.72,0,0,1,8-13.82A27.88,27.88,0,0,0,190,71C190,55.37,177,42.2,161.56,42.2Z"/><path d="M163.18,110.1h0a.49.49,0,0,1-.49-.5c.06-15.37,9-32.72,10.83-36a8,8,0,0,0,1.26-5,4.48,4.48,0,0,0-3.09-3.88,6.12,6.12,0,0,0-4.79.53c2,2.05,3.44,5.48,2.59,8.46A3,3,0,0,1,167,75.82a3.83,3.83,0,0,1-3.71-1.58c-.72-1-1.58-3.38.75-7.5a6.74,6.74,0,0,1,1.24-1.59l-.26-.17a6,6,0,0,0-5.17-.59,5.69,5.69,0,0,0-1.64,1c2.2,1.46,3.31,5.51,2.85,7.78a4.06,4.06,0,0,1-2.69,3.3,3.3,3.3,0,0,1-3.29-.84c-1.2-1.21-1.49-3.23-.78-5.56a12.67,12.67,0,0,1,2.19-4.34c-3.33-1-5.66.63-6.29,2.18a5.91,5.91,0,0,0,.69,5.58c2.63,3.76,8.78,14.75,9.08,35.45a.49.49,0,0,1-.49.5.51.51,0,0,1-.5-.49c-.3-20.43-6.33-31.2-8.91-34.89a6.85,6.85,0,0,1-.79-6.52c.95-2.35,4.16-3.92,8-2.61a6.68,6.68,0,0,1,2.26-1.43,7,7,0,0,1,6.05.68,5.93,5.93,0,0,1,.54.38,7.17,7.17,0,0,1,5.87-.79,5.55,5.55,0,0,1,3.77,4.67C176,70,175.6,71.8,174.4,74c-1.78,3.28-10.66,20.44-10.72,35.58A.5.5,0,0,1,163.18,110.1Zm-5.67-44a11.26,11.26,0,0,0-2.23,4.26c-.6,2-.4,3.63.53,4.57a2.29,2.29,0,0,0,2.31.59,3.12,3.12,0,0,0,2-2.55C160.52,71,159.46,67.12,157.51,66.06Zm8.58-.27a5.43,5.43,0,0,0-1.16,1.44c-2.06,3.64-1.38,5.6-.8,6.44a2.83,2.83,0,0,0,2.74,1.17,2,2,0,0,0,1.67-1.44C169.3,70.71,168,67.6,166.09,65.79Z"/><path d="M174.82,89.39a.48.48,0,0,1-.42-.23.49.49,0,0,1,.15-.68,23,23,0,0,0,10.12-14.36.5.5,0,0,1,1,.21,23.92,23.92,0,0,1-10.56,15A.42.42,0,0,1,174.82,89.39Z"/><path d="M143.7,86.08a.51.51,0,0,1-.37-.17,23.74,23.74,0,0,1,7.2-37,.49.49,0,1,1,.44.88,22.74,22.74,0,0,0-6.89,35.49.49.49,0,0,1-.05.7A.46.46,0,0,1,143.7,86.08Z"/><path class="cls-4" d="M163.39,117.17a.49.49,0,0,1-.48-.41.48.48,0,0,1,.4-.57c1-.17,1.91-.38,2.81-.63a.49.49,0,1,1,.26,1,28,28,0,0,1-2.9.65Z"/><path class="cls-4" d="M158.9,122.65a.5.5,0,0,1,0-1,20.54,20.54,0,0,0,8.3-1.68.51.51,0,0,1,.66.24.49.49,0,0,1-.24.66,21.44,21.44,0,0,1-8.71,1.77Z"/><path d="M171.58,36.84l-.14,0a.49.49,0,0,1-.34-.61l3.46-12.15a.5.5,0,0,1,1,.28l-3.47,12.14A.49.49,0,0,1,171.58,36.84Z"/><path d="M154,37.84a.5.5,0,0,1-.49-.4L151.1,25.06a.5.5,0,1,1,1-.2l2.45,12.39a.5.5,0,0,1-.39.58Z"/><path d="M128,61.48h-8.06a.5.5,0,1,1,0-1H128a.5.5,0,0,1,0,1Z"/><path d="M133,45.88a.53.53,0,0,1-.24-.06l-9.09-4.93a.49.49,0,0,1,.47-.87l9.1,4.92a.5.5,0,0,1-.24.94Z"/><path d="M195.82,62.8a.5.5,0,1,1,0-1h8.06a.5.5,0,0,1,0,1Z"/><path d="M189.92,48.37a.51.51,0,0,1-.43-.26.49.49,0,0,1,.2-.67l9.09-4.93a.49.49,0,0,1,.47.87l-9.09,4.93A.5.5,0,0,1,189.92,48.37Z"/><path class="cls-5" d="M231.69,179.43v6.81a17.41,17.41,0,0,1-17.13,17.67,17.4,17.4,0,0,0-17.14,17.66,1.56,1.56,0,0,0,1.56,1.57h45.37c14.19,0,25.7-11.85,25.7-26.48V178.55A10.39,10.39,0,0,0,259.83,168h-17A11.27,11.27,0,0,0,231.69,179.43Z"/><rect class="cls-5" x="226.85" y="221.62" width="4.78" height="51.76"/><polygon class="cls-5" points="206.86 272.61 227.99 270.75 229.93 270.75 251.5 272.61 251.5 274.09 206.86 274.09 206.86 272.61"/><polygon class="cls-6" points="236.92 224.06 243.4 228.4 240.12 232.29 232.66 228.64 236.92 224.06"/><path d="M240.12,232.79a.54.54,0,0,1-.22,0l-7.46-3.66a.45.45,0,0,1-.26-.35.49.49,0,0,1,.12-.43l4.26-4.58a.5.5,0,0,1,.64-.08l6.47,4.35a.51.51,0,0,1,.22.35.45.45,0,0,1-.12.38l-3.27,3.89A.49.49,0,0,1,240.12,232.79Zm-6.64-4.3,6.51,3.19,2.67-3.17L237,224.7Z"/><path class="cls-2" d="M242.28,226.44a41.58,41.58,0,0,1,4.23,2.94,2.35,2.35,0,0,1,.5,3.08A91.67,91.67,0,0,1,236.25,246a1.64,1.64,0,0,1-2,.18c-3.37-1.83.23-7.57,2.65-14.94l1.73-.2a2.32,2.32,0,0,0,2-1.64l.77-2.62A.64.64,0,0,1,242.28,226.44Z"/><path d="M235.17,247a2.47,2.47,0,0,1-1.19-.33c-2.91-1.58-1.4-5.45.51-10.36.61-1.56,1.3-3.33,1.91-5.17l.09-.3,2.06-.23a1.81,1.81,0,0,0,1.53-1.29l.77-2.62a1.13,1.13,0,0,1,.69-.74,1.11,1.11,0,0,1,1,.09,42.91,42.91,0,0,1,4.29,3,2.85,2.85,0,0,1,.6,3.73,92.21,92.21,0,0,1-10.82,13.65A2.05,2.05,0,0,1,235.17,247Zm2.07-15.24c-.59,1.74-1.24,3.42-1.82,4.91-2,5.09-3,8-1,9.13a1.13,1.13,0,0,0,1.44-.09,91.1,91.1,0,0,0,10.69-13.48,1.85,1.85,0,0,0-.39-2.43,40.51,40.51,0,0,0-4.18-2.9.13.13,0,0,0-.13,0,.18.18,0,0,0-.09.1l-.77,2.62a2.8,2.8,0,0,1-2.37,2Z"/><path class="cls-4" d="M246.29,229.2l.22.18a2.35,2.35,0,0,1,.5,3.08A91.67,91.67,0,0,1,236.25,246a1.64,1.64,0,0,1-2,.18,4.64,4.64,0,0,1-.74-.58l.3-.34a133.82,133.82,0,0,0,12-15.35Z"/><path d="M235.17,247a2.47,2.47,0,0,1-1.19-.33,5.11,5.11,0,0,1-.85-.65.51.51,0,0,1,0-.7l.31-.34a133,133,0,0,0,12-15.29l.49-.73a.48.48,0,0,1,.72-.11l.23.18a2.85,2.85,0,0,1,.6,3.73,92.21,92.21,0,0,1-10.82,13.65A2.05,2.05,0,0,1,235.17,247Zm-1-1.39a1.74,1.74,0,0,0,.28.19,1.13,1.13,0,0,0,1.44-.09,91.1,91.1,0,0,0,10.69-13.48,1.88,1.88,0,0,0-.2-2.26l-.18.27A132.4,132.4,0,0,1,234.18,245.58Z"/><path d="M235.69,236a.49.49,0,0,1-.49-.46.49.49,0,0,1,.45-.53l3.29-.27a.5.5,0,0,1,.53.46.49.49,0,0,1-.45.53l-3.29.26Z"/><path d="M237.79,238.28h-3.21a.5.5,0,1,1,0-1h3.21a.5.5,0,1,1,0,1Z"/><path class="cls-1" d="M190.73,195.48c-2.66,0-11.67,1.51-11.94,9.76-.09,2.82-2.34,8,14.52,11.3a143.46,143.46,0,0,1,38.42,13.38,2.05,2.05,0,0,0,1.59.16c1.69-.52,5.25-2,5.69-5a1.86,1.86,0,0,0-.76-1.77l-4.15-3,3.94-2.11A20,20,0,0,0,247.69,207a69.43,69.43,0,0,0,2.16-11.76Z"/><polygon class="cls-5" points="116.57 274.4 133.62 215.32 150.66 274.4 154.74 274.4 136.02 207.74 131.21 207.73 112.49 274.4 116.57 274.4"/><path class="cls-6" d="M187.72,259.47a19,19,0,0,0-.48,7.43l-9.68-1.62a8.12,8.12,0,0,0,4.95-5.33l.55-1.88Z"/><path class="cls-6" d="M187.24,267.39h-.08l-9.68-1.62a.49.49,0,0,1-.09-.95,7.74,7.74,0,0,0,4.65-5l.55-1.88a.51.51,0,0,1,.24-.3.55.55,0,0,1,.38,0l4.65,1.4a.51.51,0,0,1,.34.61,18.56,18.56,0,0,0-.47,7.23.46.46,0,0,1-.15.42A.48.48,0,0,1,187.24,267.39Zm-8.07-2.34,7.5,1.25a19.68,19.68,0,0,1,.45-6.49l-3.72-1.12-.41,1.4A8.72,8.72,0,0,1,179.17,265.05Z"/><path class="cls-2" d="M187.59,263.79c.32,1.21,1,4.6,1.21,6.64a2.54,2.54,0,0,1-1.92,2.78c-3.53.88-11.91.66-18.9.83a1.8,1.8,0,0,1-1.72-1.41c-1.26-4,6.27-5,13.69-8.95a6.59,6.59,0,0,0,1.06.71,4.45,4.45,0,0,0,3.87-.07l1.69-1A.7.7,0,0,1,187.59,263.79Z"/><path d="M168,274.53a2.3,2.3,0,0,1-2.16-1.75c-1-3.18,2.65-4.67,7.29-6.55a72.2,72.2,0,0,0,6.64-3l.29-.16.26.22a7,7,0,0,0,1,.65,4,4,0,0,0,3.38-.07l1.69-1a1.2,1.2,0,0,1,1.06-.06,1.18,1.18,0,0,1,.69.8c.33,1.26,1,4.67,1.22,6.71A3,3,0,0,1,187,273.7c-2.68.66-7.92.71-13.47.76-1.85,0-3.75,0-5.54.07Zm12-10.26c-2.24,1.16-4.47,2.07-6.45,2.88-4.76,1.93-7.42,3.14-6.72,5.34a1.31,1.31,0,0,0,1.24,1.05c1.79,0,3.7-.06,5.55-.08,5.25,0,10.67-.09,13.24-.73a2,2,0,0,0,1.55-2.23c-.24-2-.88-5.37-1.2-6.59a.22.22,0,0,0-.12-.14.23.23,0,0,0-.18,0l-1.68,1a5,5,0,0,1-4.36.08A7,7,0,0,1,179.9,264.27Z"/><path class="cls-4" d="M189,271.36s0,.06,0,.07c.16,1.28-1.08,2-2.25,2.56-3.56,1.57-18,.28-18,.28s-1.94,0-2.45-1.14a2.14,2.14,0,0,1-.13-.64,1.94,1.94,0,0,1,.06-.68l.13-.52c2,.78,10.79,1.38,17.21.58a13.16,13.16,0,0,0,5.14-1.94S188.87,270.63,189,271.36Z"/><path d="M179.35,275.27c-4.85,0-10.08-.46-10.6-.5-.27,0-2.27-.06-2.88-1.44a2.55,2.55,0,0,1-.16-.8,2.41,2.41,0,0,1,.07-.84l.13-.52a.47.47,0,0,1,.25-.32.49.49,0,0,1,.41,0c1.92.76,10.64,1.34,17,.55a11.06,11.06,0,0,0,4.38-1.56c.23-.13.43-.25.61-.33a.49.49,0,0,1,.44,0,.5.5,0,0,1,.27.35s.12.7.25,1.43h0l0,.1c.23,1.85-1.79,2.74-2.54,3.07C185.53,275.07,182.52,275.27,179.35,275.27Zm-10.57-1.49h0c.14,0,14.34,1.26,17.74-.24,1.45-.64,2.05-1.27,1.95-2.05v-.05l-.14-.74a12.06,12.06,0,0,1-4.71,1.67c-6.12.76-14.16.28-16.92-.45h0a1.87,1.87,0,0,0-.05.52,1.9,1.9,0,0,0,.09.48c.31.7,1.58.85,2,.85Z"/><path d="M179.14,267.46a.48.48,0,0,1-.3-.11l-2.09-1.65a.5.5,0,0,1,.62-.78l2.08,1.65a.49.49,0,0,1,.08.7A.51.51,0,0,1,179.14,267.46Z"/><path d="M176.31,268.55a.51.51,0,0,1-.31-.11L174.18,267a.5.5,0,0,1-.09-.7.5.5,0,0,1,.7-.08l1.82,1.42a.5.5,0,0,1,.09.7A.52.52,0,0,1,176.31,268.55Z"/><path class="cls-1" d="M208.08,208.37a42.06,42.06,0,0,0-12.85,5.42c-4.75,3.29-9.76,9.57-14.32,42.52a3.9,3.9,0,0,0,2.87,4.1,5.85,5.85,0,0,0,4.88-.75c2.64-1.71,12.59-27.05,18.52-32.43s31-6.52,35.82-13.37-7-6.84-7-6.84Z"/><path class="cls-7" d="M221.72,226a.44.44,0,0,1-.22,0l-1.4-.69c-5.9-2.9-9.45-4.65-20.24-6.54a.5.5,0,0,1-.4-.58.49.49,0,0,1,.57-.4c10.93,1.91,14.53,3.69,20.51,6.63.45.23.91.46,1.4.69a.5.5,0,0,1,.22.67A.49.49,0,0,1,221.72,226Z"/><path class="cls-8" d="M156.52,201.84h45.15a2.37,2.37,0,0,0,2.37-2.37v-.32H154.15v.32A2.37,2.37,0,0,0,156.52,201.84Z"/><path d="M201.67,202.33H156.52a2.87,2.87,0,0,1-2.87-2.86v-.32a.5.5,0,0,1,.5-.5H204a.5.5,0,0,1,.5.5v.32A2.87,2.87,0,0,1,201.67,202.33Zm-47-2.69a1.87,1.87,0,0,0,1.87,1.7h45.15a1.88,1.88,0,0,0,1.87-1.7Z"/><path class="cls-8" d="M154.14,199.2h28.55l-8.44-24.93a3,3,0,0,0-2.51-1.35H147.61a1.5,1.5,0,0,0-1.44,2C146.31,175.3,154.14,199.2,154.14,199.2Z"/><path d="M182.69,199.69H154.14a.51.51,0,0,1-.47-.34c-2.69-8.22-7.83-23.86-8-24.25a2,2,0,0,1,.23-1.8,2,2,0,0,1,1.68-.88h24.13a3.44,3.44,0,0,1,2.92,1.58.39.39,0,0,1,.06.11L183.16,199a.48.48,0,0,1-.06.45A.51.51,0,0,1,182.69,199.69Zm-28.19-1H182l-8.2-24.21a2.48,2.48,0,0,0-2.06-1.07H147.61a1,1,0,0,0-.86.44,1,1,0,0,0-.12.89C146.77,175.11,153.31,195.06,154.5,198.7Z"/><polygon class="cls-4" points="155.96 196.87 179.45 196.87 172.21 175.3 148.79 175.26 155.96 196.87"/><polygon class="cls-9" points="173.15 194.16 175.89 194.16 175.05 191.64 172.31 191.64 173.15 194.16"/><polygon class="cls-9" points="168.05 194.16 170.99 194.16 168.78 187.57 165.86 187.56 168.05 194.16"/><polygon class="cls-9" points="162.36 194.16 165.52 194.16 161.15 181.12 158.02 181.1 162.36 194.16"/><path class="cls-2" d="M205.68,201.64H193.85A3.65,3.65,0,0,1,197.5,198H202A3.64,3.64,0,0,1,205.68,201.64Z"/><path d="M205.68,202.14H193.85a.5.5,0,0,1-.49-.5,4.15,4.15,0,0,1,4.14-4.15H202a4.15,4.15,0,0,1,4.15,4.15A.5.5,0,0,1,205.68,202.14Zm-11.29-1h10.76a3.17,3.17,0,0,0-3.12-2.66H197.5A3.15,3.15,0,0,0,194.39,201.14Z"/><path class="cls-6" d="M210.8,196.06a1.8,1.8,0,0,0-1-.89,7.36,7.36,0,0,1-.9-.42l-4-2.14c-.75-.37-1.83.49-2.61.75-2.37.78-7.26,2.61-6.86,4.33s4.64,1,6.14.61c.34-.09,3.42,1,4.4,1.11a3.22,3.22,0,0,0,2.32-.59,2.1,2.1,0,0,1,1-.23,1.82,1.82,0,0,0,1.43-.68h0a1.57,1.57,0,0,0,.17-1.69Z"/><path d="M206.4,199.92l-.49,0a17.23,17.23,0,0,1-2.64-.66c-.61-.18-1.42-.43-1.65-.45-1.63.4-4.5.94-5.89.09a1.74,1.74,0,0,1-.8-1.07c-.37-1.58,2-3.23,7.18-4.92a6.63,6.63,0,0,0,.7-.32,2.66,2.66,0,0,1,2.29-.41l4,2.15a5.45,5.45,0,0,0,.84.39,2.34,2.34,0,0,1,1.27,1.13h0l.07.16a2.06,2.06,0,0,1-.22,2.22,2.32,2.32,0,0,1-1.83.87,1.57,1.57,0,0,0-.77.18l-.27.15A3.17,3.17,0,0,1,206.4,199.92Zm-4.81-2.12a9.55,9.55,0,0,1,2,.49,17.72,17.72,0,0,0,2.44.62,2.41,2.41,0,0,0,1.74-.36l.31-.17a2.6,2.6,0,0,1,1.23-.29,1.33,1.33,0,0,0,1-.49,1.07,1.07,0,0,0,.12-1.16l-.08-.16a1.31,1.31,0,0,0-.72-.65,6.49,6.49,0,0,1-1-.44l-4-2.14c-.3-.15-.91.16-1.4.41a7.34,7.34,0,0,1-.83.37c-4.75,1.56-6.7,3-6.52,3.75a.68.68,0,0,0,.34.45c.93.57,3.29.26,5.18-.21A.47.47,0,0,1,201.59,197.8Z"/><path class="cls-6" d="M188.84,150.35a.54.54,0,0,1,.83-.23l6.19,4.74a4.33,4.33,0,0,1,1.63,2.74c.17,1.11.46,2.68.91,4.42,1.17,4.49-3.31,8.86-3.55,3.68a28.62,28.62,0,0,0-.58-3.9,3.87,3.87,0,0,1-3.23-3.26,7.89,7.89,0,0,1,.06-2.89,1.6,1.6,0,0,0-.39-1.45C189.83,153.28,188.13,152.15,188.84,150.35Z"/><path d="M196.08,168.55a1.31,1.31,0,0,1-.52-.11c-.73-.32-1.14-1.23-1.2-2.72a25.83,25.83,0,0,0-.51-3.49,5,5,0,0,1-.51-.17,4.21,4.21,0,0,1-2.79-3.45,8.53,8.53,0,0,1,.07-3.07,1.11,1.11,0,0,0-.27-1l-.47-.45c-.88-.84-2.22-2.1-1.5-3.93a1,1,0,0,1,.68-.61,1,1,0,0,1,.91.17l6.19,4.75a4.8,4.8,0,0,1,1.82,3.05c.16,1,.44,2.61.9,4.38a6.34,6.34,0,0,1-1.56,6.11A2,2,0,0,1,196.08,168.55Zm-1.78-7.24h.1a.49.49,0,0,1,.35.37,28.58,28.58,0,0,1,.6,4c.05,1.19.34,1.74.6,1.85s.59-.15.72-.27a5.45,5.45,0,0,0,1.25-5.11,45.46,45.46,0,0,1-.92-4.48,3.75,3.75,0,0,0-1.45-2.41l-6.18-4.75h0s0,0,0,0h0c-.44,1.11.25,1.88,1.27,2.84.18.17.35.33.5.49a2.1,2.1,0,0,1,.52,1.9,7.29,7.29,0,0,0-.06,2.71A3.37,3.37,0,0,0,194.3,161.31Zm-5.46-11Z"/><path d="M195.41,161.09l-.11,0a2.16,2.16,0,0,1-1.79-2.2,1.69,1.69,0,0,0-.29-1.31c-2.1-1.75-1.38-2.85-1.29-3a1.24,1.24,0,0,1,.83-.56,1.75,1.75,0,0,1,1.33.42l1.75,1.41a.5.5,0,0,1-.63.77l-1.72-1.39c-.33-.24-.5-.24-.56-.23s-.09,0-.19.15,0,.72,1.11,1.64a2.58,2.58,0,0,1,.65,2.16c-.08.88,1,1.14,1,1.15a.49.49,0,0,1,.37.59A.5.5,0,0,1,195.41,161.09Zm-2.67-5.93h0Z"/><path d="M219.86,193a.49.49,0,0,1-.49-.43.5.5,0,0,1,.42-.56c.63-.09,1.41-.16,2.32-.25,7.73-.77,23.82-2.37,28.2-15.77a.49.49,0,0,1,.63-.32.48.48,0,0,1,.31.62c-4.58,14-21.1,15.67-29,16.45-.9.09-1.67.17-2.29.25Z"/><path class="cls-3" d="M260.34,165.14c-1.24-2.76-4.56-4.53-7.14-5.55a17,17,0,0,0-5.59-1.15l-6.76-.27a36.6,36.6,0,0,0-8.85.52,18.43,18.43,0,0,0-11.06,6.63c-1.26,1.57-2.37,2.93-2.46,3-3.65,5.16-2.59,4.65-5.23,6.58-4.41,3.21-14.1-12.56-14.1-12.56-1.05-.16-6.13,1.34-5.62,2.53a128.69,128.69,0,0,0,9.58,17c3.31,3.74,9,8.54,14.21,5.6,4.3-2.45,7.2-7.56,9.5-10.07a.36.36,0,0,1,.62.28c-.49,5.64-5.12,12.33-6.53,14.26a1.53,1.53,0,0,1-1,.61l-10.19,1.17a1,1,0,0,0-.45.15,2.35,2.35,0,0,0-1.2,1.79,10.49,10.49,0,0,0,.31,4.19l.35.69a1.66,1.66,0,0,0,1.47.92c5.41.09,29.82.1,36.46.06,6.06,0,8.49-3,11.73-11.52C259.62,186.55,263.67,172.49,260.34,165.14Z"/><path class="cls-10" d="M234.25,202c-9.4,0-20.66,0-24.11-.08a2.18,2.18,0,0,1-1.91-1.19l-.34-.69a10.91,10.91,0,0,1-.36-4.49,2.85,2.85,0,0,1,1.46-2.16,1.6,1.6,0,0,1,.64-.21L219.8,192a1,1,0,0,0,.71-.42c1.36-1.84,5.73-8.17,6.4-13.59-.58.66-1.2,1.48-1.85,2.34-1.93,2.55-4.34,5.72-7.49,7.51-5.68,3.23-11.73-2.19-14.83-5.71a128.38,128.38,0,0,1-9.67-17.1,1,1,0,0,1,.18-1c.95-1.23,4.91-2.33,6-2.17l.23,0,.12.2c.07.11,7.3,11.8,11.85,12.7a1.85,1.85,0,0,0,1.54-.29,7.09,7.09,0,0,0,2.66-2.79c.48-.75,1.19-1.88,2.46-3.66l.1-.14,0,0c.16-.16.67-.75,2.33-2.82a18.91,18.91,0,0,1,11.36-6.81,37.27,37.27,0,0,1,9-.52l6.74.26a17.6,17.6,0,0,1,5.75,1.19c2.66,1,6.1,2.9,7.41,5.8,3.43,7.58-.7,21.78-2,25.17-3.11,8.16-5.61,11.8-12.19,11.84Zm-7.17-25.26a.88.88,0,0,1,.86.94c-.5,5.76-5.2,12.56-6.63,14.51a2,2,0,0,1-1.4.81l-10.19,1.17a.53.53,0,0,0-.26.09,1.9,1.9,0,0,0-1,1.43,10.48,10.48,0,0,0,.26,3.9l.35.69a1.2,1.2,0,0,0,1,.65c5.39.09,29.76.09,36.45.06,5.51,0,7.93-2.44,11.28-11.21,1.18-3.1,5.26-17.21,2-24.4-1.18-2.6-4.39-4.31-6.87-5.28a16.75,16.75,0,0,0-5.43-1.13l-6.76-.26a35.89,35.89,0,0,0-8.74.51,17.9,17.9,0,0,0-10.76,6.45c-1.66,2.07-2.22,2.74-2.47,3-1.23,1.74-1.93,2.84-2.4,3.58a8.16,8.16,0,0,1-2.92,3.07,2.85,2.85,0,0,1-2.32.45c-4.65-.92-11.29-11.24-12.36-12.94-1.23,0-4.68,1.23-4.87,1.88,3,7,9.25,16.51,9.5,16.83,2.9,3.28,8.52,8.37,13.59,5.49,3-1.7,5.31-4.78,7.19-7.25.78-1,1.51-2,2.19-2.73A.85.85,0,0,1,227.08,176.7Z"/><path class="cls-6" d="M239.63,156.23a.93.93,0,0,0-.84-.68l-3-.1a.84.84,0,0,1-.79-.66l-.8-3.39-1.34-.61a.21.21,0,0,1-.11-.27l1.05-2.54c.31-.93.3-2.92.79-2.93,0,0,9.07-4,11,.56a3.06,3.06,0,0,1,.07,2.17l-.48,1.45a6.29,6.29,0,0,0,.11,4.44,16.7,16.7,0,0,0,1.33,2.39,11.41,11.41,0,0,0,2.93,2.6,1,1,0,0,1,.07,1.56,16.81,16.81,0,0,1-3.53,2.35c-2.53,1-3.8,1.28-5.09,1.14a1.91,1.91,0,0,1-1.53-2.61A8.12,8.12,0,0,0,239.63,156.23Z"/><path d="M241.72,164.24a5.37,5.37,0,0,1-.7,0,2.36,2.36,0,0,1-1.74-1.08,2.51,2.51,0,0,1-.21-2.19,7.67,7.67,0,0,0,.09-4.55v0a.41.41,0,0,0-.39-.31l-3-.1a1.36,1.36,0,0,1-1.26-1l-.74-3.16-1.12-.5a.72.72,0,0,1-.36-.92l1.05-2.52a8.06,8.06,0,0,0,.23-1.25c.15-1.05.27-1.89.89-2,.71-.3,6.13-2.51,9.45-1.2a3.77,3.77,0,0,1,2.17,2.06,3.47,3.47,0,0,1,.09,2.52l-.48,1.45a5.86,5.86,0,0,0,.09,4.09,16.78,16.78,0,0,0,1.3,2.31,10.5,10.5,0,0,0,2.79,2.46,1.48,1.48,0,0,1,.1,2.36,17.55,17.55,0,0,1-3.66,2.42A12.57,12.57,0,0,1,241.72,164.24Zm-1.61-8.16a8.58,8.58,0,0,1-.11,5.19,1.49,1.49,0,0,0,.13,1.32,1.31,1.31,0,0,0,1,.63c1.23.13,2.45-.15,4.84-1.11a16.15,16.15,0,0,0,3.41-2.27.46.46,0,0,0,.17-.39.44.44,0,0,0-.21-.37,12,12,0,0,1-3.06-2.75,16.86,16.86,0,0,1-1.38-2.47,6.79,6.79,0,0,1-.12-4.79l.48-1.44a2.48,2.48,0,0,0-.06-1.82,2.81,2.81,0,0,0-1.62-1.53c-3.1-1.22-8.67,1.18-8.76,1.22a6.64,6.64,0,0,0-.24,1.2,8.55,8.55,0,0,1-.28,1.44v0l-.95,2.29,1.09.49a.51.51,0,0,1,.28.34l.8,3.39a.36.36,0,0,0,.33.28l3,.1A1.41,1.41,0,0,1,240.11,156.08Z"/><path d="M232.1,137.88c2.13-.77.07,2.29,7.38-2.46,2.91-1.89,2.4,2.34,3.16,1.85,2.8-1.8,2.7-1.74,4.31-1.79,1.06,0,2.25,1.61,2.47,3,.29,1.88-1.4,6.41-2.71,9.89-.68,1.78-3.16,2.7-4.27.59-.3-.58,1-2.42,0-3.17-1.85-1.39-1.89,1.49-3.32,1.09a19.11,19.11,0,0,1-3.56-1.44c-1.88-.9-3.72,2-5.49-.81C229.14,143.23,229.18,138.94,232.1,137.88Z"/><polygon class="cls-5" points="232.52 273.93 249.56 214.84 266.6 273.93 270.69 273.93 251.96 207.25 247.16 207.25 228.43 273.93 232.52 273.93"/><path class="cls-5" d="M271.34,274.42h-5.11l-16.67-57.79-16.67,57.79h-5.11l19-67.67h5.56Zm-4.37-1H270l-18.44-65.68h-4.06l-18.45,65.69h3.06l17.42-60.38Z"/><rect class="cls-5" x="112.93" y="201.83" width="157.79" height="6.42"/><path class="cls-5" d="M271.22,208.75H112.44v-7.41H271.22Zm-157.79-1h156.8v-5.43H113.43Z"/><path class="cls-5" d="M232.65,207.24a.5.5,0,0,1-.5-.5v-3.57a.5.5,0,1,1,1,0v3.57A.49.49,0,0,1,232.65,207.24Z"/><path class="cls-6" d="M145.61,259.06l-.92,10.4,9.81,1-3.05-4.16a4.68,4.68,0,0,1-.76-3.87l.84-3.35Z"/><path d="M155.56,271.1l-11.4-1.2,1-11.34,7,.05-1,4a4.15,4.15,0,0,0,.67,3.45ZM145.23,269l8.21.87-2.39-3.26a5.17,5.17,0,0,1-.84-4.28l.68-2.74-4.83,0Z"/><path class="cls-2" d="M144,267.68,143.2,272a1.72,1.72,0,0,0,1.47,1.83c2.07.36,10.12,1.46,15.82.42a2.38,2.38,0,0,0,2-1.48c.3-1.19-.45-2.88-2.84-3.77-4.26-1.57-5.88-2.09-8-3.49a1.21,1.21,0,0,0-1.47.43,4.56,4.56,0,0,0-.74,2.26.57.57,0,0,1-.8.53l-3.63-1.57A.75.75,0,0,0,144,267.68Z"/><path d="M154.84,275.15a67.45,67.45,0,0,1-10.25-.87,2.21,2.21,0,0,1-1.89-2.36v-.06l.82-4.27a1.27,1.27,0,0,1,.64-.88,1.24,1.24,0,0,1,1.08,0l3.63,1.56a.09.09,0,0,0,.08,0,.06.06,0,0,0,0-.06,5,5,0,0,1,.82-2.54,1.69,1.69,0,0,1,2.16-.56,27.23,27.23,0,0,0,6.49,2.94l1.35.5c2.68,1,3.51,2.95,3.15,4.35a2.9,2.9,0,0,1-2.39,1.85A32.41,32.41,0,0,1,154.84,275.15ZM143.69,272a1.21,1.21,0,0,0,1.07,1.29c3.19.55,10.58,1.35,15.64.43A1.93,1.93,0,0,0,162,272.6c.25-1-.43-2.4-2.53-3.17l-1.35-.5c-3.31-1.22-4.82-1.77-6.71-3.05-.17-.12-.59.05-.79.32h0a4.07,4.07,0,0,0-.64,1.95,1.07,1.07,0,0,1-1.5,1l-3.63-1.56a.26.26,0,0,0-.22,0,.25.25,0,0,0-.14.18Z"/><path d="M154.68,273.61a52.46,52.46,0,0,1-9.44-.85.49.49,0,0,1-.38-.58.49.49,0,0,1,.58-.39,49.94,49.94,0,0,0,14.47.5.5.5,0,0,1,.56.42.51.51,0,0,1-.43.56A39.58,39.58,0,0,1,154.68,273.61Z"/><path class="cls-6" d="M124.35,255.84a16.91,16.91,0,0,1-2.5,7.17l4.6,3.49,3.48-3.44c-.81-1.12-1.54-3.72-.45-7.15Z"/><path d="M126.49,267.16l-5.31-4,.26-.39a16.63,16.63,0,0,0,2.42-6.94l0-.46,6.27.08-.2.64c-1.09,3.4-.28,5.82.37,6.7l.25.35Zm-4-4.27,3.89,3,2.89-2.86a8.91,8.91,0,0,1-.46-6.6l-4-.05A17.81,17.81,0,0,1,122.51,262.89Z"/><path class="cls-2" d="M121.69,262l-1.9,3.37a1.78,1.78,0,0,0,.74,2.3,67.72,67.72,0,0,0,10,4.93c1.65.61,6.45.94,7.58-.54.76-1,.47-2.28-1.51-3.35-4.44-2.37-5.47-6.05-6.11-6.92-1-1.31-2.64,1-3.09,2.74a.58.58,0,0,1-.94.31l-3.74-3A.71.71,0,0,0,121.69,262Z"/><path d="M134.29,273.64a13,13,0,0,1-3.89-.54,66.79,66.79,0,0,1-10.13-5,2.24,2.24,0,0,1-.93-2.93l0,0,1.9-3.37a1.21,1.21,0,0,1,1.81-.34l3.74,3.05a.1.1,0,0,0,.09,0,.11.11,0,0,0,.06-.07c.33-1.26,1.39-3.23,2.64-3.48a1.29,1.29,0,0,1,1.33.57,6.64,6.64,0,0,1,.5.9,12.45,12.45,0,0,0,5.44,5.88A3.63,3.63,0,0,1,139,270.6a2.16,2.16,0,0,1-.44,1.79C137.84,273.32,136.06,273.64,134.29,273.64Zm-14.06-8a1.25,1.25,0,0,0,.55,1.65,66.41,66.41,0,0,0,10,4.9c1.64.6,6.1.82,7-.38a1.19,1.19,0,0,0,.26-1,2.86,2.86,0,0,0-1.62-1.63,13.3,13.3,0,0,1-5.85-6.3,5.52,5.52,0,0,0-.42-.76c-.16-.22-.27-.2-.34-.18-.6.12-1.55,1.5-1.87,2.74a1.08,1.08,0,0,1-.71.77,1.1,1.1,0,0,1-1-.19l-3.74-3.05a.2.2,0,0,0-.17,0,.21.21,0,0,0-.15.1Z"/><path d="M134.6,271.76a14.09,14.09,0,0,1-3.14-.37,27.49,27.49,0,0,1-10.12-5.05.5.5,0,1,1,.64-.76,26.79,26.79,0,0,0,9.71,4.84,11.08,11.08,0,0,0,4.23.23.51.51,0,0,1,.59.39.48.48,0,0,1-.38.58A7.31,7.31,0,0,1,134.6,271.76Z"/><path class="cls-3" d="M140.26,222.81c.74,8.14-6,27-8.54,33.08a1.84,1.84,0,0,1-1.7,1.19h-5.77a1.69,1.69,0,0,1-1.76-1.63c.07-6.4,3-24.45-1.32-31.17-2.49-3.89-9.87-2.24-12.91-4.09-7.31-4.45-4.56-18.91-4.56-18.91S139.22,211.46,140.26,222.81Z"/><path class="cls-3" d="M130,257.58h-5.77a2.35,2.35,0,0,1-1.65-.68,2,2,0,0,1-.6-1.46c0-1.5.18-3.63.38-6.1.63-7.88,1.58-19.78-1.63-24.79-1.37-2.15-4.48-2.46-7.48-2.76-2-.2-4-.39-5.27-1.18-7.52-4.57-4.9-18.82-4.79-19.42l.1-.53.53.15c1.46.42,35.86,10.4,36.91,21.95.77,8.38-6.11,27.34-8.57,33.32A2.35,2.35,0,0,1,130,257.58ZM104.1,201.92c-.4,2.63-1.73,14.11,4.41,17.84,1.11.67,2.93.85,4.86,1.05,3.08.3,6.58.65,8.22,3.21,3.38,5.29,2.45,16.91,1.78,25.4-.2,2.45-.36,4.56-.38,6a1.07,1.07,0,0,0,.32.76,1.31,1.31,0,0,0,.94.38H130a1.37,1.37,0,0,0,1.24-.89c3.07-7.45,9.19-25.28,8.5-32.85C138.84,212.72,108.53,203.25,104.1,201.92Z"/><path class="cls-3" d="M128.54,202.82s24.09.2,31.69,8.61c6.82,7.56-3.3,41.84-5.42,48.5a1.73,1.73,0,0,1-1.68,1.16h-9a.34.34,0,0,1-.35-.32l1.44-13c1.54-17.3-.34-21-.34-21-1.52-4.9-14.56-4.69-21.65-4.64-22.52.16-15.9-19.62-15.9-19.62Z"/><path class="cls-3" d="M153.13,261.59h-9a.83.83,0,0,1-.84-.82v0l1.44-13c1.49-16.77-.27-20.65-.29-20.68l0-.08c-1.38-4.43-13.94-4.34-20.69-4.29h-.49c-7.09,0-12.11-1.87-14.88-5.68-4.31-5.95-1.61-14.24-1.49-14.59l.11-.35,21.62.3c1,0,24.4.3,32.05,8.77,7.39,8.18-4,44.83-5.31,49A2.22,2.22,0,0,1,153.13,261.59Zm-8.88-1h8.88a1.24,1.24,0,0,0,1.21-.81c4.41-13.85,11.23-41.7,5.52-48-7.36-8.15-31.09-8.44-31.33-8.44h0L107.65,203c-.45,1.61-2.09,8.48,1.45,13.36,2.57,3.54,7.32,5.32,14.07,5.26h.5c7.48-.05,20-.14,21.63,4.95.22.5,1.83,4.74.37,21.18Z"/><path class="cls-6" d="M145.37,187.65c.16,0,3.59.13,3.91,0,1.62-.55,5-1.79,6.63-1.8a23.44,23.44,0,0,0,4.57-.53c.62-.13,1.08.12,1.19.53a1.14,1.14,0,0,1-.93,1.39c-1.08.24-2.15.51-3.06.73-.29.07-.59.08-.31.18.63.22,1.31.57,1.36,1.09.08,1-2.3,3.15-4.91,3.31-2.24.14-2.86-1-3.72-1.13-.14,0-3.87.07-4,0C144.37,191.12,144.46,187.89,145.37,187.65Z"/><path d="M153.44,193.08a4.73,4.73,0,0,1-2.76-.83,2.48,2.48,0,0,0-.65-.31c-.18,0-1.05,0-1.77,0a22.59,22.59,0,0,1-2.3,0,2.53,2.53,0,0,1-1.73-2.64c0-.87.24-1.95,1-2.15a6.87,6.87,0,0,1,1.37,0c.8,0,2.28.07,2.53,0l.54-.19c1.87-.64,4.7-1.61,6.22-1.62a22.9,22.9,0,0,0,4.47-.53,1.42,1.42,0,0,1,1.77.88A1.63,1.63,0,0,1,162,187a1.65,1.65,0,0,1-1.12.78l-2,.47-.22.06a1.33,1.33,0,0,1,.57.94,2.28,2.28,0,0,1-.67,1.51,7.24,7.24,0,0,1-4.7,2.35Zm-3.56-2.14a1.22,1.22,0,0,1,.31,0,2.91,2.91,0,0,1,1,.45,3.94,3.94,0,0,0,2.6.67,6.22,6.22,0,0,0,4-2c.37-.43.44-.7.43-.77s-.23-.39-1-.67a.55.55,0,0,1-.44-.57c0-.4.42-.48.63-.52l.18,0,1.07-.26c.63-.16,1.31-.32,2-.47a.76.76,0,0,0,.49-.32.72.72,0,0,0,.08-.46c0-.17-.3-.24-.62-.18a23,23,0,0,1-4.67.55,27,27,0,0,0-5.9,1.57l-.57.2a13.66,13.66,0,0,1-2.85,0l-1.1,0a2.2,2.2,0,0,0-.23,1.55c.06.34.25,1.14.88,1.29.21,0,1.3,0,2.11,0Z"/><path class="cls-1" d="M127.11,166.89c4.75,3.73,6.3,14.5,9.34,16.93,2.64,2.11,12.07,2.78,12.07,2.78l.07,6.05-8.23.32c-5,.18-9.7-1.83-11.45-3.48-5.84-5.48-18-17.07-21-24.8l8.52-.9A14.38,14.38,0,0,1,127.11,166.89Z"/><path class="cls-1" d="M126.1,185.77a10.27,10.27,0,0,1-.41,4.92,9.3,9.3,0,0,0,2.21,9.59,12.09,12.09,0,0,0,3.5,2.5s-.6,3.7-6.21,4.22c-2.28.21-8.31.71-12.81.67a62.94,62.94,0,0,1-10.73-1l-.87-28.46s-.91-12,7.34-13.58l11.87-.74Z"/><path class="cls-7" d="M126.85,188.56a.52.52,0,0,1-.36-.16,32.52,32.52,0,0,1-5.93-8.7.5.5,0,0,1,.25-.66.5.5,0,0,1,.65.26,32,32,0,0,0,5.76,8.42.5.5,0,0,1,0,.7A.48.48,0,0,1,126.85,188.56Z"/><path d="M126.75,150.41s3,.1,2.58-5.22-6.28-5-8.3-5.73-5.35-5-6.64-6.17-5.24-5.94-13.42-1.4c0,0-1.44,1.36-7-.13-4.8-1.29-13.9,0-12.18,7a8.19,8.19,0,0,0,3.38,4.87c.3.2.64.4,1,.6A3.55,3.55,0,0,1,88,147.19c.23,4.14,2.37,12.45,16.57,7.11a3.41,3.41,0,0,1,3.16.36c1.14.77,2.11,3.11,8.21,3.32,3.92.14,5.86-3.84,7.2-5.56A4.82,4.82,0,0,1,126.75,150.41Z"/><path class="cls-6" d="M125.88,150.42s0,1,0,1.37a7,7,0,0,0,.59,3.2.33.33,0,0,1-.12.41l-1.05.66a.26.26,0,0,0-.14.2c-.1.52-.45,2.44-.58,2.79a1.5,1.5,0,0,1-.72.78,7.48,7.48,0,0,1-2.3-.41s.27-.35-1.19,2.17c-1,1.77,1.17,4.67,1.17,4.67s-8.26,3.33-12.89-.65a.51.51,0,0,1,.21-.85c4.38-1.09,5-3.29,6.68-6.71a.53.53,0,0,1,.45-.25c.74-.07,2.67,0,3.33-3.09a.64.64,0,0,0,0-.24c-.21-.65-1.09-3.78,1.74-2.46a2.43,2.43,0,0,0,3.3-1,.92.92,0,0,1,.55-.39Z"/><path d="M114.78,168.07a9.62,9.62,0,0,1-6.43-2.09,1,1,0,0,1-.3-1,1,1,0,0,1,.71-.74c3.66-.9,4.47-2.57,5.81-5.33.17-.35.35-.73.55-1.12a1,1,0,0,1,.85-.52h.16c.82-.06,2.19-.15,2.72-2.69-.27-.85-.62-2.4.18-3.1q.73-.65,2.25.06a1.92,1.92,0,0,0,2.67-.78,1.4,1.4,0,0,1,.85-.61l1-.23a.46.46,0,0,1,.42.09.47.47,0,0,1,.19.38s0,1,0,1.36a.8.8,0,0,1,0,.22,6.23,6.23,0,0,0,.55,2.79.83.83,0,0,1-.31,1l-1,.61c-.17.93-.46,2.44-.58,2.79a2,2,0,0,1-1,1.08,5,5,0,0,1-2.19-.29c-.2.38-.54,1-1,1.83-.7,1.21.58,3.39,1.13,4.12a.47.47,0,0,1,.08.44.48.48,0,0,1-.29.32A20.55,20.55,0,0,1,114.78,168.07Zm1.2-9.77c-.18.38-.36.73-.52,1.08-1.37,2.81-2.35,4.84-6.46,5.86,3.66,3.15,9.87,1.42,11.79.77-.62-1-1.72-3.13-.83-4.67.79-1.36,1.05-1.84,1.13-2a.49.49,0,0,1,.1-.22.51.51,0,0,1,.68-.12,6.65,6.65,0,0,0,1.86.36,1,1,0,0,0,.4-.47c.08-.2.3-1.29.56-2.71a.79.79,0,0,1,.36-.53l.93-.58a7.32,7.32,0,0,1-.58-3.08v-.18c0-.19,0-.48,0-.75l-.35.09a.35.35,0,0,0-.25.17,2.94,2.94,0,0,1-3.93,1.15c-.68-.32-1.06-.32-1.18-.22s-.19,1.11.12,2.07a.94.94,0,0,1,0,.5c-.69,3.26-2.74,3.41-3.62,3.47H116Z"/><path d="M120.25,155.49l-.24,0a1.57,1.57,0,0,1-1.28-1.3.49.49,0,0,1,.36-.6.51.51,0,0,1,.6.36.71.71,0,0,0,.36.53.69.69,0,0,0,.46,0,.48.48,0,0,1,.61-.06.49.49,0,0,1,.15.68A1.23,1.23,0,0,1,120.25,155.49Zm.19-1Z"/><path d="M126.74,155.28a2.31,2.31,0,0,1-.37,0,.51.51,0,0,1-.41-.58.49.49,0,0,1,.57-.4.75.75,0,0,0,.7-.16,3,3,0,0,0,.58-1.94l-6.5-.13a.51.51,0,0,1-.49-.51.52.52,0,0,1,.51-.49l7,.15a.51.51,0,0,1,.49.46c0,.23.11,2.28-.9,3.19A1.69,1.69,0,0,1,126.74,155.28Z"/><path class="cls-2" d="M120.61,156.25a.5.5,0,0,0-.46-.56.52.52,0,1,0,.46.56Z"/><path class="cls-5" d="M116.85,180.16V187A17.41,17.41,0,0,0,134,204.63a17.41,17.41,0,0,1,17.14,17.66,1.57,1.57,0,0,1-1.57,1.58H104.2C90,223.87,78.5,212,78.5,197.39V179.27a10.38,10.38,0,0,1,10.22-10.53h17A11.25,11.25,0,0,1,116.85,180.16Z"/><path class="cls-5" d="M140.78,217.43a.49.49,0,0,1-.41-.21c-2.28-3.25-5.8-5-10.76-5.47a22.12,22.12,0,0,1-8.48-2.35c-5.49-3-12.78-8.35-12.78-19.93v-1.28c0-10.92-3.71-10.92-9.33-10.92a.5.5,0,1,1,0-1c6.4,0,10.32.57,10.32,11.91v1.28c0,11.05,7,16.17,12.26,19.07a21.32,21.32,0,0,0,8.1,2.22c5.19.45,9.06,2.43,11.49,5.89a.5.5,0,0,1-.13.69A.47.47,0,0,1,140.78,217.43Z"/><rect class="cls-5" x="109.91" y="222.46" width="4.78" height="51.76" transform="translate(224.6 496.68) rotate(180)"/><polygon class="cls-5" points="134.68 273.45 113.55 271.59 111.61 271.59 90.04 273.45 90.04 274.93 134.68 274.93 134.68 273.45"/><polygon class="cls-6" points="21.2 252.58 19.69 263.23 15.8 263.25 15.62 252.77 21.2 252.58"/><path d="M15.81,263.74a.48.48,0,0,1-.5-.48l-.18-10.48a.48.48,0,0,1,.48-.5l5.58-.19a.49.49,0,0,1,.5.56L20.18,263.3a.5.5,0,0,1-.49.43Zm.32-10.49.16,9.5h3l1.37-9.64Z"/><path class="cls-11" d="M19.82,273.42a36.75,36.75,0,0,1-6.82,0,1.88,1.88,0,0,1-1.68-2.18c.47-2.89,1.79-8,3.86-10.33l1,1.46.61-1.5c.09-.17,2.67-.28,2.72,0l.16,1.47,1.46-1.64-.08,5.38a8.16,8.16,0,0,0,.16,1.77l.39,1.85a3.55,3.55,0,0,1-.84,3.14A1.73,1.73,0,0,1,19.82,273.42Z"/><path d="M16.87,274.05c-1.09,0-2.4-.05-3.92-.18a2.35,2.35,0,0,1-1.65-.9,2.44,2.44,0,0,1-.47-1.85c.13-.76,1.29-7.55,4-10.57a.49.49,0,0,1,.4-.17.48.48,0,0,1,.38.21l.5.71.27-.66,0-.07c.36-.6,2.93-.34,3-.33s.6.11.68.53v0l0,.36.72-.81a.51.51,0,0,1,.55-.13.49.49,0,0,1,.31.47l-.08,5.38a7.78,7.78,0,0,0,.16,1.66l.38,1.85a4,4,0,0,1-1,3.58,2.15,2.15,0,0,1-1.27.74h0A27.83,27.83,0,0,1,16.87,274.05Zm2.95-.63ZM15.15,261.7c-1.8,2.47-2.93,7.1-3.34,9.58a1.39,1.39,0,0,0,.28,1.08,1.29,1.29,0,0,0,.95.52,34.49,34.49,0,0,0,6.73,0,1.31,1.31,0,0,0,.65-.43,3,3,0,0,0,.71-2.7l-.38-1.85a8.5,8.5,0,0,1-.18-1.88l.06-4-.57.64a.5.5,0,0,1-.87-.28l-.12-1.18a9.16,9.16,0,0,0-1.89,0l-.52,1.29a.48.48,0,0,1-.4.3.53.53,0,0,1-.47-.2Z"/><path d="M17,272.15a23,23,0,0,1-3.91-.34.51.51,0,0,1-.41-.58.5.5,0,0,1,.58-.4,19.32,19.32,0,0,0,6.38.13.5.5,0,1,1,.2,1A16.17,16.17,0,0,1,17,272.15Z"/><path d="M18.28,268.07H14.76a.5.5,0,0,1,0-1h3.52a.5.5,0,1,1,0,1Z"/><polygon class="cls-6" points="49.06 253.53 50.43 265.95 55.65 267.04 55.34 252.48 49.06 253.53"/><path d="M55.65,267.54h-.1l-5.22-1.1a.49.49,0,0,1-.39-.43l-1.37-12.41A.51.51,0,0,1,49,253l6.27-1a.52.52,0,0,1,.4.11.49.49,0,0,1,.18.37L56.15,267a.5.5,0,0,1-.18.39A.47.47,0,0,1,55.65,267.54Zm-4.77-2,4.26.89-.29-13.36-5.24.87Z"/><path class="cls-11" d="M48.22,271.87c-.11-2.18-.12-6.19,1.21-8.12l4.18,1.49v-.89a.51.51,0,0,1,.46-.54l2.33-.13a5.06,5.06,0,0,1,2.53.52c2.35,1.15,9.47,4.1,10.46,7.42a1.58,1.58,0,0,1-1.5,2c-2.34.07-8,.14-18.1-.2A1.64,1.64,0,0,1,48.22,271.87Z"/><path d="M63.22,274.16c-3.11,0-7.51-.06-13.45-.26a2.11,2.11,0,0,1-2-2h0c-.12-2.26-.11-6.37,1.29-8.42a.5.5,0,0,1,.58-.18l3.51,1.25v-.19a1,1,0,0,1,.94-1l2.32-.13a5.61,5.61,0,0,1,2.78.57l1,.49c3.06,1.43,8.76,4.1,9.69,7.24a2,2,0,0,1-.3,1.75,2.13,2.13,0,0,1-1.65.88C66.9,274.13,65.37,274.16,63.22,274.16Zm-14.5-2.32a1.12,1.12,0,0,0,1.09,1.07c10,.34,15.62.28,18.07.2a1.12,1.12,0,0,0,.87-.46,1,1,0,0,0,.16-.89c-.8-2.71-6.45-5.35-9.16-6.63l-1-.49a4.63,4.63,0,0,0-2.28-.47l-2.32.13a.2.2,0,0,0,0,.05v.89a.52.52,0,0,1-.21.41.51.51,0,0,1-.45.06l-3.8-1.35C48.88,265.78,48.54,268.47,48.72,271.84Z"/><path d="M61.6,272.1a99.57,99.57,0,0,1-11.36-.64.49.49,0,1,1,.11-1,95.05,95.05,0,0,0,16.3.48.5.5,0,0,1,.07,1S64.72,272.1,61.6,272.1Z"/><path d="M60.31,268.55a.45.45,0,0,1-.29-.1l-4-2.89a.49.49,0,0,1-.12-.69.5.5,0,0,1,.69-.11l4,2.89a.5.5,0,0,1,.11.69A.49.49,0,0,1,60.31,268.55Z"/><path class="cls-5" d="M50.69,166.79s7.49,57.54,5.89,91.81l-2.33.24a26.52,26.52,0,0,1-3.78.09l-2.22-.11s-8.92-58.25-13.38-66.9c0,0-12.12,52.49-12.59,65,0,0-5.38.54-7.53-.23-1.16-12.1-1.49-30.82-1.55-38.69-.16-22.51,2-32.74,3.17-37.59,1.08-4.45,2.24-8.07,3.09-10.52l2.84-8.09Z"/><path class="cls-5" d="M35,193.26h-.09a.49.49,0,0,1-.4-.57l.7-3.87a.09.09,0,0,1,0-.05A3.85,3.85,0,0,1,38.16,186l1.16-.24a.5.5,0,0,1,.59.39.49.49,0,0,1-.38.58l-1.17.24a2.87,2.87,0,0,0-2.18,2l-.69,3.85A.49.49,0,0,1,35,193.26Z"/><path class="cls-5" d="M19.64,186.65a.49.49,0,0,1-.08-1c6.36-1.06,7.63-5.89,7.68-6.1a.49.49,0,0,1,1,.24c-.06.23-1.45,5.66-8.48,6.83Z"/><path class="cls-5" d="M51,182.11a.49.49,0,0,1-.2-.05,6.32,6.32,0,0,1-4-5.8.5.5,0,1,1,1,0,5.34,5.34,0,0,0,3.46,4.85.51.51,0,0,1,.26.66A.53.53,0,0,1,51,182.11Z"/><path d="M15.56,171.63c-.68,2.33-1.75,5.55-.56,7.09,2.14,2.81,3.92,2.36,6.57,1.39,5.3-1.93,13.76-5,16.23-3.28l.11-5.2Z"/><path class="cls-1" d="M46,121.78a11.46,11.46,0,0,1,10.35,6.41c2.23,4.55,5.38,16.47,5.5,21.68.22,9.1-7.76,9.62-8,9.63h0c0,.27,1,10.16,1,11.91.14,3.21-5.82,8.22-12.66,5.76s-25.4-7.35-27.29-3.19c0,0,0,0,0,0L22.69,145h0l-6.4.31h0l-5.21-3h0l1.32-5.84c2.51-10,9.22-14.58,17.88-14.62Z"/><path class="cls-6" d="M25.42,144.11c-1.19-.22-.86-1.61-5.07-1.86-12.13-.72-6.25-6.89.7-5.71,2.3.39,3.21,1.88,4.07,2.26C32.4,142,27.81,144.55,25.42,144.11Z"/><path d="M26,144.65a4.65,4.65,0,0,1-.66-.05A2.3,2.3,0,0,1,24.2,144c-.52-.45-1.23-1.07-3.88-1.23-4.12-.24-6.65-1.14-7.31-2.58a1.94,1.94,0,0,1,.32-2c1.11-1.45,4.22-2.66,7.8-2.06a6.78,6.78,0,0,1,3.42,1.73,3.9,3.9,0,0,0,.77.56c4,1.75,4.47,3.33,4.16,4.36C29.11,143.9,27.43,144.65,26,144.65Zm-6.69-7.76c-2.38,0-4.43.84-5.18,1.82a1,1,0,0,0-.21,1c.18.4,1.17,1.7,6.47,2,3,.18,3.84.93,4.47,1.47a1.36,1.36,0,0,0,.66.4c1.1.2,2.76-.35,3-1.21s-1.08-2.06-3.6-3.16a4.39,4.39,0,0,1-1-.71A5.77,5.77,0,0,0,21,137,9.65,9.65,0,0,0,19.3,136.89Z"/><path class="cls-6" d="M40.7,123.49a.61.61,0,0,0-.34-1.07l-.82-.1a2.32,2.32,0,0,1-1.91-1.51l-1.36-10-2.78,1L29.82,110l.33,10.69a2.3,2.3,0,0,1-1.54,2.08l-1.07.38a.65.65,0,0,0-.05,1.21C29.68,125.3,38.58,125.3,40.7,123.49Z"/><path d="M32.86,125.46a17.57,17.57,0,0,1-5.56-.66,1.14,1.14,0,0,1,.07-2.13l1.08-.39a1.77,1.77,0,0,0,1.2-1.62L29.32,110a.5.5,0,0,1,.23-.43.48.48,0,0,1,.49,0l3.49,1.73,2.58-.93a.51.51,0,0,1,.66.4l1.34,10a1.8,1.8,0,0,0,1.49,1.13l.82.1a1.15,1.15,0,0,1,.94.79,1.06,1.06,0,0,1-.34,1.15h0C39.69,125,36.1,125.46,32.86,125.46Zm-2.52-14.67.3,9.87a2.78,2.78,0,0,1-1.86,2.56l-1.08.38a.15.15,0,0,0-.11.14.16.16,0,0,0,.1.15c2.2,1,10.8.84,12.69-.78a.1.1,0,0,0,0-.11.13.13,0,0,0-.11-.09l-.82-.1A2.78,2.78,0,0,1,37.16,121a.29.29,0,0,1,0-.09l-1.27-9.41-2.21.79a.46.46,0,0,1-.38,0Zm10.36,12.7Z"/><path class="cls-6" d="M37.51,102.84c4.73,1.75,3.92,4.81,3.92,4.81a13.43,13.43,0,0,0,.06,2.95c.13.46.89,1.33.93,1.58s-.38.79-1.2,1c0,0-.31,4.1-1.38,4.77s-5.21-.62-5.21-.62l-.7-.27A7.29,7.29,0,0,1,29.67,112S26.65,98.85,37.51,102.84Z"/><path d="M38.81,118.6a17.62,17.62,0,0,1-4.33-.82l0,0-.69-.27a7.8,7.8,0,0,1-4.56-5.41c-.07-.3-1.51-6.75,1.5-9.4,1.53-1.34,3.88-1.45,7-.3,4.72,1.74,4.33,4.86,4.24,5.34a12.21,12.21,0,0,0,0,2.74,4.15,4.15,0,0,0,.47.79,2.27,2.27,0,0,1,.47.87c.06.47-.38,1.1-1.22,1.41-.11,1.16-.5,4.13-1.59,4.81A2.51,2.51,0,0,1,38.81,118.6Zm-4-1.76c1.89.58,4.24,1,4.78.66s1-2.53,1.16-4.38a.49.49,0,0,1,.38-.45,1.33,1.33,0,0,0,.79-.44l-.27-.41a4.2,4.2,0,0,1-.61-1.09,14.38,14.38,0,0,1-.09-3.11s0-.07,0-.1.6-2.66-3.61-4.21c-2.74-1-4.76-1-6,.12-2.58,2.26-1.21,8.34-1.2,8.41a6.85,6.85,0,0,0,4,4.73Z"/><path d="M36,100.62c1.24.31,2.46,1.09,3.1,1.15,1,.12,1.79-1.22,3.1-.73a3,3,0,0,1,2,2.51,2.28,2.28,0,0,1,0,.59c-.24,2.79-2,3.38-2.7,3.51a34.73,34.73,0,0,0-4.92-.18,4,4,0,0,0-2.26,3,.48.48,0,0,1-.45.39.5.5,0,0,1-.53-.41c-.14-.8-.51-2.39-1.32-2.44a1.77,1.77,0,0,0-.91,3,.75.75,0,0,1-.24,1.22,1.36,1.36,0,0,1-1.45-.28s-2.44-4.26-1.28-7.87S34.29,100.22,36,100.62Z"/><path d="M42.56,112.37a.5.5,0,0,1-.34-.86,2.07,2.07,0,0,0,.44-1.33c.05-.88-.24-1.38-.36-1.43a1.51,1.51,0,0,0-.43.94.49.49,0,0,1-.58.39.5.5,0,0,1-.4-.58c.21-1.09.79-1.77,1.47-1.73.26,0,.74.14,1.06.89a3.69,3.69,0,0,1,.23,1.57,3,3,0,0,1-.75,2A.5.5,0,0,1,42.56,112.37Z"/><path d="M39.33,112.65h-.07a1.53,1.53,0,0,1-1.24-.87,3.18,3.18,0,0,1-.35-1.68c.07-1.39.89-2.43,1.85-2.38a1.51,1.51,0,0,1,1.24.88,3.14,3.14,0,0,1,.35,1.67C41,111.62,40.27,112.65,39.33,112.65Zm.13-4c-.34,0-.75.62-.8,1.44a2.2,2.2,0,0,0,.23,1.15c.12.22.28.36.43.36.32,0,.76-.6.8-1.44a2.32,2.32,0,0,0-.22-1.15c-.13-.22-.28-.35-.43-.36Zm-1.29,1.41Z"/><path d="M38.31,109.74h0l-4.52-.41a.49.49,0,1,1,.09-1l4.52.4a.51.51,0,0,1,.45.54A.5.5,0,0,1,38.31,109.74Z"/><path class="cls-6" d="M31.11,129s1.76,2.76,3.34,2.27c.84-.26,1.65-3,2-3.07a6.48,6.48,0,0,0,4.33-3c1.16-2.07.91-3.18.61-3.69a.68.68,0,0,1,0-.75,1.39,1.39,0,0,0,.21-1.33.71.71,0,0,1,0-.57c.29-.68.84-2.26-.23-2.57a.7.7,0,0,0-.77.26,7.57,7.57,0,0,1-1.91,1.89c-1.23.79-2,1.32-2.58,1.67s-.81-2.34-2.08-3.33-1.52-.43-1.63,0,.59.58,1,2.55a14.21,14.21,0,0,1-.17,5.28C33.07,125.77,31.11,129,31.11,129Z"/><path d="M34.06,131.83c-1.68,0-3.19-2.27-3.37-2.56a.49.49,0,0,1,0-.52,19.32,19.32,0,0,0,2.05-4.26c0-.17.06-.37.09-.59a12,12,0,0,0,.08-4.52,4.6,4.6,0,0,0-.73-1.87,1.06,1.06,0,0,1-.25-.91,1.1,1.1,0,0,1,.7-.8,1.92,1.92,0,0,1,1.71.56,5.9,5.9,0,0,1,1.54,2.53c.08.2.17.44.25.61l.94-.61c.38-.25.83-.55,1.37-.89a7.34,7.34,0,0,0,1.77-1.77,1.21,1.21,0,0,1,1.31-.45,1.25,1.25,0,0,1,.83.7,3.39,3.39,0,0,1-.29,2.55.25.25,0,0,0,0,.17A1.84,1.84,0,0,1,41.8,121a.18.18,0,0,0,0,.22c.4.69.63,2-.61,4.18a6.82,6.82,0,0,1-4.49,3.23h0c-.1.15-.26.5-.39.77-.57,1.24-1,2.13-1.7,2.33A1.68,1.68,0,0,1,34.06,131.83ZM31.7,129c.54.75,1.73,2.09,2.61,1.82.3-.1.86-1.3,1.1-1.81.37-.8.54-1.17.88-1.27l.14,0a5.87,5.87,0,0,0,3.9-2.76c1.1-2,.79-2.89.61-3.2a1.19,1.19,0,0,1,0-1.28.89.89,0,0,0,.17-.85,1.19,1.19,0,0,1,0-1,2.67,2.67,0,0,0,.31-1.74.32.32,0,0,0-.21-.17.24.24,0,0,0-.24.08,8.09,8.09,0,0,1-2,2c-.54.34-1,.63-1.35.89s-.89.59-1.26.79a.64.64,0,0,1-.54.06c-.4-.14-.58-.61-.86-1.32a5.12,5.12,0,0,0-1.23-2.11c-.57-.44-.79-.4-.79-.4a.67.67,0,0,0,0,.07L33,117a5.58,5.58,0,0,1,.88,2.22,12.9,12.9,0,0,1-.07,4.89c0,.2-.06.39-.09.55A18.18,18.18,0,0,1,31.7,129Z"/><path class="cls-1" d="M36.91,130.23l-5.33-3.4s-7.21,11.65-12.66,15.61c-2.66,1.92-7.81-.34-7.81-.34s-4.95,19,4.6,21.73C31.62,168.36,36.91,130.23,36.91,130.23Z"/><path class="cls-7" d="M53,160.22c-6,0-14.48-4.65-20.61-9.22a.49.49,0,1,1,.59-.79c6.08,4.53,15.25,9.6,21,9a.49.49,0,1,1,.11,1A10.6,10.6,0,0,1,53,160.22Z"/><path class="cls-7" d="M44.89,145.57c-3.42,0-9.6-2.89-9.89-3a.49.49,0,0,1-.23-.66.5.5,0,0,1,.66-.24c2.08,1,8,3.41,10.2,2.87,4.42-1.09,3.39-6.65,3.35-6.88a.51.51,0,0,1,.39-.59.5.5,0,0,1,.58.4c.45,2.32.18,7-4.09,8A4.07,4.07,0,0,1,44.89,145.57Z"/><path class="cls-7" d="M18.45,143.48a.5.5,0,0,1-.4-.19.52.52,0,0,1,.1-.7c5.7-4.26,12.79-16,12.86-16.11a.5.5,0,0,1,.68-.17.49.49,0,0,1,.17.68c-.29.49-7.26,12-13.11,16.4A.53.53,0,0,1,18.45,143.48Z"/><path class="cls-7" d="M18,164.88c-.22,0-.43,0-.65,0a.49.49,0,0,1,.08-1c11.71,1,18.22-29.86,18.93-33.4l-2-1.3a.5.5,0,0,1-.15-.69.49.49,0,0,1,.68-.15l2.32,1.48a.5.5,0,0,1,.23.51C37.13,131.75,30.81,164.88,18,164.88Z"/><path class="cls-1" d="M56.15,28.66,57.38,32l3.88-.5a14.06,14.06,0,0,0,1.43,2L60.91,37l2.75,2.3L66.76,37A15.46,15.46,0,0,0,69,38l.19,3.9,3.53.61,1.5-3.6a14,14,0,0,0,2.48-.23L78.84,42l3.36-1.24-.51-3.87a14.72,14.72,0,0,0,2-1.43l3.47,1.78,2.29-2.75-2.37-3.1a14.44,14.44,0,0,0,1-2.26l3.91-.19.61-3.53-3.6-1.5a15,15,0,0,0-.23-2.48l3.28-2.12-1.23-3.36-3.87.5a16.28,16.28,0,0,0-1.44-2l1.79-3.47L84.64,8.62,81.53,11a14.33,14.33,0,0,0-2.25-1L79.08,6l-3.52-.61L74.06,9a14.76,14.76,0,0,0-2.48.23L69.46,6,66.1,7.21l.5,3.87a15.8,15.8,0,0,0-2,1.43l-3.47-1.78-2.3,2.75,2.38,3.1a16,16,0,0,0-1.05,2.26l-3.9.2-.62,3.52,3.61,1.5a13.79,13.79,0,0,0,.23,2.48ZM71,15.32A9.21,9.21,0,1,1,65.5,27.14,9.22,9.22,0,0,1,71,15.32Z"/><path class="cls-5" d="M74.34,43.75h-.09l-3.52-.61a.49.49,0,0,1-.41-.46l-.18-3.58a17.24,17.24,0,0,1-1.74-.81l-2.85,2.18a.48.48,0,0,1-.61,0l-2.75-2.3a.48.48,0,0,1-.12-.6l1.63-3.19a14.67,14.67,0,0,1-1.1-1.57l-3.55.47a.49.49,0,0,1-.53-.33l-1.24-3.36a.49.49,0,0,1,.2-.58l3-1.95a13.56,13.56,0,0,1-.17-1.91L57,23.76a.5.5,0,0,1-.3-.54l.62-3.53a.49.49,0,0,1,.46-.41l3.58-.18a15.92,15.92,0,0,1,.8-1.73L60,14.52a.5.5,0,0,1,0-.62l2.29-2.74a.51.51,0,0,1,.61-.13l3.18,1.64a14.26,14.26,0,0,1,1.57-1.1L67.2,8a.49.49,0,0,1,.32-.53l3.36-1.23a.5.5,0,0,1,.59.2l1.94,3a15.6,15.6,0,0,1,1.91-.18L76.7,6a.48.48,0,0,1,.54-.3l3.52.61a.5.5,0,0,1,.41.47l.18,3.58a15.24,15.24,0,0,1,1.74.8L85.94,9a.48.48,0,0,1,.61,0l2.75,2.29a.49.49,0,0,1,.12.61l-1.63,3.18a14.67,14.67,0,0,1,1.1,1.57l3.55-.46a.49.49,0,0,1,.53.32l1.24,3.36a.51.51,0,0,1-.2.59l-3,1.94a13.82,13.82,0,0,1,.17,1.91l3.31,1.37a.51.51,0,0,1,.3.55l-.62,3.52a.49.49,0,0,1-.46.41l-3.58.18a17,17,0,0,1-.8,1.74l2.17,2.84a.5.5,0,0,1,0,.62l-2.29,2.75a.49.49,0,0,1-.61.12L85.4,36.76a17.6,17.6,0,0,1-1.57,1.1l.46,3.55a.5.5,0,0,1-.32.53l-3.36,1.23A.5.5,0,0,1,80,43l-1.94-3a17.82,17.82,0,0,1-1.91.17l-1.38,3.31A.49.49,0,0,1,74.34,43.75Zm-3-1.53L74,42.7l1.35-3.24a.48.48,0,0,1,.45-.3,15.09,15.09,0,0,0,2.4-.22.48.48,0,0,1,.5.21l1.91,3,2.61-1-.45-3.49a.49.49,0,0,1,.24-.49,13.87,13.87,0,0,0,2-1.38.5.5,0,0,1,.55-.06l3.12,1.6,1.78-2.14L88.33,32.4a.5.5,0,0,1,0-.55,14.42,14.42,0,0,0,1-2.18.48.48,0,0,1,.44-.33l3.5-.17.48-2.74-3.24-1.35a.51.51,0,0,1-.3-.46A15,15,0,0,0,90,22.23a.49.49,0,0,1,.22-.51l3-1.9-1-2.62-3.48.46a.53.53,0,0,1-.5-.24,14,14,0,0,0-1.38-2,.49.49,0,0,1-.06-.54l1.6-3.12L86.22,10l-2.79,2.14a.48.48,0,0,1-.54,0,15.53,15.53,0,0,0-2.19-1,.5.5,0,0,1-.32-.44L80.2,7.2l-2.74-.48L76.11,10a.48.48,0,0,1-.45.31,14,14,0,0,0-2.4.22.49.49,0,0,1-.5-.22L70.85,7.32l-2.61,1,.45,3.48a.49.49,0,0,1-.24.49,13.38,13.38,0,0,0-2,1.39.52.52,0,0,1-.55.06l-3.12-1.6L61,14.23,63.16,17a.5.5,0,0,1,0,.55,14.89,14.89,0,0,0-1,2.18.48.48,0,0,1-.44.33l-3.5.17L57.76,23,61,24.34a.51.51,0,0,1,.3.46,15.09,15.09,0,0,0,.22,2.4.49.49,0,0,1-.22.5l-2.95,1.91,1,2.61,3.48-.45a.51.51,0,0,1,.5.24,13.87,13.87,0,0,0,1.38,2,.5.5,0,0,1,.06.55l-1.6,3.12,2.14,1.78,2.79-2.13a.48.48,0,0,1,.54,0,13.57,13.57,0,0,0,2.19,1,.5.5,0,0,1,.32.44Zm4.46-7.8a9.67,9.67,0,1,1,3.34-.59A9.73,9.73,0,0,1,75.75,34.42Zm0-18.42a8.75,8.75,0,0,0-3,.53,8.73,8.73,0,0,0-5.18,11.18,8.73,8.73,0,0,0,8.19,5.72,8.53,8.53,0,0,0,3-.54,8.71,8.71,0,0,0-3-16.89Z"/><path class="cls-1" d="M1,68.57l2.1,5.75,6.64-.87A24.82,24.82,0,0,0,12.19,77l-3,5.94,4.7,3.92,5.31-4.06A26.47,26.47,0,0,0,23,84.54l.34,6.68,6,1L32,86.1a25.55,25.55,0,0,0,4.25-.39l3.63,5.62,5.75-2.11-.87-6.63a24.08,24.08,0,0,0,3.5-2.45l5.94,3,3.92-4.7L54,73.18a26.1,26.1,0,0,0,1.79-3.87L62.48,69l1.05-6-6.17-2.56A25.55,25.55,0,0,0,57,56.14l5.62-3.63-2.11-5.75-6.63.87a24.08,24.08,0,0,0-2.45-3.5l3.05-5.94-4.7-3.92-5.31,4.06a26.1,26.1,0,0,0-3.87-1.79l-.33-6.68-6-1.05L31.65,35a24.52,24.52,0,0,0-4.25.39l-3.63-5.62L18,31.85l.87,6.64a24.08,24.08,0,0,0-3.5,2.45l-5.94-3-3.93,4.7L9.59,47.9A26.47,26.47,0,0,0,7.8,51.76l-6.68.34-1,6,6.17,2.56a25.53,25.53,0,0,0,.38,4.25ZM26.37,45.74A15.76,15.76,0,1,1,17,66,15.76,15.76,0,0,1,26.37,45.74Z"/><path class="cls-5" d="M32.12,94H32l-6-1a.52.52,0,0,1-.41-.47l-.31-6.35a27.47,27.47,0,0,1-3.35-1.55l-5.05,3.86a.48.48,0,0,1-.62,0l-4.7-3.92a.49.49,0,0,1-.12-.61l2.9-5.65a25.21,25.21,0,0,1-2.12-3l-6.31.83a.5.5,0,0,1-.53-.32L3.27,70a.5.5,0,0,1,.2-.59L8.81,66a25.54,25.54,0,0,1-.33-3.68L2.61,59.85a.5.5,0,0,1-.3-.54l1-6a.49.49,0,0,1,.47-.41l6.35-.32a26.66,26.66,0,0,1,1.55-3.34L7.86,44.15a.48.48,0,0,1,0-.61l3.92-4.7a.51.51,0,0,1,.61-.13l5.65,2.9a25.91,25.91,0,0,1,3-2.12l-.82-6.3a.5.5,0,0,1,.32-.53l5.75-2.11a.5.5,0,0,1,.59.19l3.45,5.35a25.56,25.56,0,0,1,3.68-.34l2.43-5.87a.5.5,0,0,1,.55-.29l6,1.05a.49.49,0,0,1,.41.46l.32,6.35A27.33,27.33,0,0,1,47.13,39l5-3.86a.5.5,0,0,1,.62,0l4.7,3.93a.49.49,0,0,1,.13.6l-2.9,5.66a26.28,26.28,0,0,1,2.12,3l6.3-.82a.49.49,0,0,1,.53.32l2.11,5.75a.48.48,0,0,1-.2.58l-5.34,3.45a27.22,27.22,0,0,1,.34,3.68l5.86,2.44a.49.49,0,0,1,.3.54l-1,6a.49.49,0,0,1-.46.41l-6.36.32a24.09,24.09,0,0,1-1.55,3.34l3.87,5.06a.5.5,0,0,1,0,.62l-3.93,4.7a.49.49,0,0,1-.6.12L51,82a25.09,25.09,0,0,1-3,2.12l.82,6.31a.49.49,0,0,1-.32.53l-5.75,2.1a.49.49,0,0,1-.58-.19L38.7,87.52a25.7,25.7,0,0,1-3.68.34l-2.44,5.87A.49.49,0,0,1,32.12,94Zm-5.55-2,5.25.91,2.41-5.8a.51.51,0,0,1,.45-.31,23.61,23.61,0,0,0,4.17-.38.5.5,0,0,1,.5.22L42.76,92l5-1.84L47,83.92a.5.5,0,0,1,.25-.49A24.61,24.61,0,0,0,50.62,81a.5.5,0,0,1,.55-.06l5.59,2.87,3.41-4.09-3.82-5a.5.5,0,0,1,0-.55,25.07,25.07,0,0,0,1.76-3.79.49.49,0,0,1,.44-.32l6.28-.32.92-5.25-5.8-2.41a.5.5,0,0,1-.31-.45,25.66,25.66,0,0,0-.38-4.17.48.48,0,0,1,.22-.5l5.28-3.41-1.83-5-6.24.81a.49.49,0,0,1-.49-.24,24.61,24.61,0,0,0-2.4-3.42.49.49,0,0,1-.06-.55l2.86-5.59-4.09-3.41-5,3.82a.48.48,0,0,1-.54,0,25.53,25.53,0,0,0-3.79-1.76.5.5,0,0,1-.33-.44l-.31-6.29-5.25-.91-2.41,5.8a.5.5,0,0,1-.46.31,25.64,25.64,0,0,0-4.16.38.51.51,0,0,1-.51-.22L26.3,31.62l-5,1.83.81,6.24a.49.49,0,0,1-.24.49,25.33,25.33,0,0,0-3.43,2.4.48.48,0,0,1-.54.06l-5.59-2.86L8.89,43.87l3.83,5a.5.5,0,0,1,0,.55A26.53,26.53,0,0,0,11,53.2a.51.51,0,0,1-.44.33l-6.29.31-.91,5.25,5.8,2.41a.51.51,0,0,1,.3.46,24.59,24.59,0,0,0,.39,4.16.5.5,0,0,1-.22.5L4.34,70l1.84,5,6.23-.81a.5.5,0,0,1,.5.24,24.61,24.61,0,0,0,2.4,3.42.5.5,0,0,1,.06.55L12.5,84l4.09,3.42,5-3.83a.5.5,0,0,1,.55,0,26,26,0,0,0,3.79,1.75.5.5,0,0,1,.32.44Zm8-14a16.28,16.28,0,1,1,5.61-1A16.12,16.12,0,0,1,34.52,78.07ZM29.11,47l.17.46a15.26,15.26,0,1,0,19.59,9.08,15.22,15.22,0,0,0-19.59-9.08Z"/><path class="cls-2" d="M.5,47.09A.46.46,0,0,1,.27,47a.5.5,0,0,1-.22-.67q.51-1,1-1.95l.8-1.59a.5.5,0,0,1,.67-.22.5.5,0,0,1,.21.67l-.8,1.59-1,2A.48.48,0,0,1,.5,47.09Zm3.66-7A.45.45,0,0,1,3.91,40a.49.49,0,0,1-.18-.68,35.76,35.76,0,0,1,2.18-3.37.5.5,0,0,1,.69-.11.51.51,0,0,1,.11.7,34.55,34.55,0,0,0-2.12,3.28A.51.51,0,0,1,4.16,40.06Zm4.7-6.36a.54.54,0,0,1-.35-.14.5.5,0,0,1,0-.7,31,31,0,0,1,3-2.69.5.5,0,0,1,.7.08.5.5,0,0,1-.09.7,28.87,28.87,0,0,0-2.89,2.6A.51.51,0,0,1,8.86,33.7Zm6.22-4.88a.47.47,0,0,1-.42-.24.5.5,0,0,1,.17-.68,32.73,32.73,0,0,1,3.6-1.81.5.5,0,0,1,.39.91,27.66,27.66,0,0,0-3.48,1.76A.58.58,0,0,1,15.08,28.82Zm7.28-3.11a.49.49,0,0,1-.14-1,35.3,35.3,0,0,1,3.91-.9.5.5,0,0,1,.58.4.49.49,0,0,1-.4.57,34.71,34.71,0,0,0-3.81.88ZM42,25h-.09c-1.28-.24-2.59-.42-3.89-.54a.5.5,0,0,1-.44-.55.49.49,0,0,1,.54-.44c1.33.13,2.66.31,4,.55A.49.49,0,0,1,42,25Zm-11.85-.66a.49.49,0,0,1-.5-.45.5.5,0,0,1,.46-.54c1.07-.08,2.18-.12,3.29-.12h.72a.5.5,0,1,1,0,1h-.7c-1.08,0-2.17,0-3.22.11Z"/><path class="cls-2" d="M49.19,20.46l-.13,0a.5.5,0,0,1-.35-.61A23.18,23.18,0,0,1,50.14,16a.49.49,0,1,1,.89.43,22.34,22.34,0,0,0-1.36,3.62A.5.5,0,0,1,49.19,20.46Zm3.4-7.13a.52.52,0,0,1-.29-.09.5.5,0,0,1-.12-.69,26.43,26.43,0,0,1,2.59-3.1.5.5,0,1,1,.71.69,25.21,25.21,0,0,0-2.49,3A.48.48,0,0,1,52.59,13.33ZM58.12,7.7a.5.5,0,0,1-.29-.9,25.22,25.22,0,0,1,3.44-2.12.5.5,0,1,1,.45.89,24.47,24.47,0,0,0-3.31,2A.45.45,0,0,1,58.12,7.7Zm7-3.58a.49.49,0,0,1-.47-.35A.49.49,0,0,1,65,3.15,25,25,0,0,1,69,2.24a.49.49,0,1,1,.14,1,24.37,24.37,0,0,0-3.78.87A.4.4,0,0,1,65.16,4.12Zm11.36-.88h-.07A27.64,27.64,0,0,0,73,3a.5.5,0,0,1-.5-.5A.51.51,0,0,1,73,2h0a27.72,27.72,0,0,1,3.61.29.49.49,0,0,1-.07,1Z"/><path class="cls-9" d="M224.72,51.57l.82,3.48,3.91,0a14.39,14.39,0,0,0,1.18,2.19l-2.19,3.24,2.45,2.61,3.37-2a14.29,14.29,0,0,0,2.11,1.31l-.27,3.9,3.42,1,1.92-3.39a14.84,14.84,0,0,0,2.5.07l1.7,3.52,3.49-.82,0-3.91a14,14,0,0,0,2.2-1.18l3.23,2.19,2.61-2.45-2-3.37a15.79,15.79,0,0,0,1.31-2.11l3.9.27,1-3.42L258,50.79a14.86,14.86,0,0,0,.08-2.5l3.51-1.7-.82-3.49-3.9,0a14.92,14.92,0,0,0-1.18-2.2l2.19-3.24-2.45-2.6-3.37,2a15.9,15.9,0,0,0-2.12-1.31l.28-3.9-3.43-1-1.92,3.39a15.87,15.87,0,0,0-2.49-.07l-1.71-3.51-3.48.82,0,3.9a16,16,0,0,0-2.2,1.18l-3.23-2.19-2.61,2.45,2,3.37a14.07,14.07,0,0,0-1.31,2.12L226,42l-1,3.42,3.4,1.93a14.72,14.72,0,0,0-.07,2.49Zm16.33-11.46a9.21,9.21,0,1,1-6.86,11.07A9.21,9.21,0,0,1,241.05,40.11Z"/><path class="cls-9" d="M239.73,83.3l.55,2.34,2.62,0a9.88,9.88,0,0,0,.79,1.47l-1.47,2.17L243.86,91l2.26-1.33a11.56,11.56,0,0,0,1.42.88l-.18,2.61,2.3.7,1.28-2.28a10.41,10.41,0,0,0,1.68,0L253.76,94l2.34-.55,0-2.62a9,9,0,0,0,1.47-.79l2.17,1.47,1.75-1.64-1.33-2.26a10.85,10.85,0,0,0,.88-1.42l2.61.19.7-2.3-2.28-1.29a10.33,10.33,0,0,0,.05-1.67L264.45,80l-.55-2.34-2.62,0a9.13,9.13,0,0,0-.79-1.48L262,74l-1.64-1.75-2.26,1.34a9.07,9.07,0,0,0-1.42-.88l.19-2.62-2.3-.69-1.29,2.28a9.3,9.3,0,0,0-1.67-.05l-1.15-2.36-2.34.55,0,2.62a10,10,0,0,0-1.48.79l-2.17-1.47-1.75,1.65,1.34,2.25a9.55,9.55,0,0,0-.88,1.42l-2.62-.18-.69,2.3,2.28,1.28a9.38,9.38,0,0,0,0,1.68Zm11-7.68a6.18,6.18,0,1,1-4.6,7.42A6.18,6.18,0,0,1,250.68,75.62Z"/><path class="cls-5" d="M128.37,3.44l-.15,0a.51.51,0,0,1-.32-.63l.77-2.44a.5.5,0,0,1,.62-.33.49.49,0,0,1,.32.62l-.76,2.45A.51.51,0,0,1,128.37,3.44Z"/><path class="cls-5" d="M126.58,9.14a.4.4,0,0,1-.15,0,.49.49,0,0,1-.32-.62l.77-2.44a.49.49,0,0,1,.62-.33.49.49,0,0,1,.32.62l-.76,2.45A.51.51,0,0,1,126.58,9.14Z"/><path class="cls-5" d="M126.24,4.55a.39.39,0,0,1-.15,0l-2.45-.77a.49.49,0,0,1,.3-.94l2.44.76a.5.5,0,0,1,.33.63A.49.49,0,0,1,126.24,4.55Z"/><path class="cls-5" d="M131.93,6.34a.36.36,0,0,1-.14,0l-2.45-.77a.49.49,0,1,1,.3-.94l2.44.76a.51.51,0,0,1,.33.63A.5.5,0,0,1,131.93,6.34Z"/><path class="cls-5" d="M256.89,109.34a3.94,3.94,0,0,1-1.43-.27,4,4,0,0,1-2.24-2.17,4.11,4.11,0,0,1,2.05-5.36,3.91,3.91,0,0,1,3-.08,4,4,0,0,1,2.24,2.17A4.1,4.1,0,0,1,258.5,109,3.92,3.92,0,0,1,256.89,109.34Zm0-7.16a3,3,0,0,0-1.21.26,3.11,3.11,0,0,0-1.54,4.07,3,3,0,0,0,1.68,1.63,2.91,2.91,0,0,0,2.28-.06,3.11,3.11,0,0,0,1.54-4.06,3,3,0,0,0-2.75-1.84Zm-1.41-.19Z"/><path class="cls-5" d="M112.82,19a3.79,3.79,0,0,1-1.4-.27,3.93,3.93,0,0,1-2.2-2.13,4,4,0,0,1,2-5.26,3.83,3.83,0,0,1,3-.08,3.93,3.93,0,0,1,2.2,2.13,4,4,0,0,1-3.6,5.61Zm-1.18-6.76a3,3,0,0,0-1.51,4,3,3,0,0,0,1.65,1.6,2.85,2.85,0,0,0,2.22-.06,3,3,0,0,0,1.51-4,3,3,0,0,0-1.65-1.6A2.85,2.85,0,0,0,111.64,12.2Z"/><path class="cls-5" d="M257.89,120.63a2.8,2.8,0,0,1-1-.18,2.76,2.76,0,0,1-1.54-1.5,2.83,2.83,0,0,1,1.41-3.69,2.69,2.69,0,0,1,2.1-.05,2.78,2.78,0,0,1,1.54,1.49,2.82,2.82,0,0,1-1.41,3.69A2.74,2.74,0,0,1,257.89,120.63Zm-.71-4.46a1.82,1.82,0,0,0-.91,2.39,1.73,1.73,0,0,0,1,1,1.71,1.71,0,0,0,1.33,0,1.83,1.83,0,0,0,.91-2.39,1.81,1.81,0,0,0-1-1A1.75,1.75,0,0,0,257.18,116.17Z"/><path class="cls-5" d="M205.83,14.23a2.59,2.59,0,0,1-1-.19,2.75,2.75,0,0,1-1.54-1.49,2.83,2.83,0,0,1,1.41-3.69,2.69,2.69,0,0,1,2.1,0,2.78,2.78,0,0,1,1.54,1.49A2.82,2.82,0,0,1,207,14,2.75,2.75,0,0,1,205.83,14.23Zm-.7-4.46a1.82,1.82,0,0,0-.91,2.39,1.73,1.73,0,0,0,1,1,1.71,1.71,0,0,0,1.33,0,1.83,1.83,0,0,0-.08-3.36A1.71,1.71,0,0,0,205.13,9.77Z"/><path class="cls-5" d="M89.19,95.35a.49.49,0,0,1-.47-.33l-.27-.77a.5.5,0,0,1,.31-.63.5.5,0,0,1,.63.31l.27.76a.5.5,0,0,1-.3.63ZM87.76,90.8a.5.5,0,0,1-.48-.37c-.34-1.27-.65-2.58-.93-3.89a.5.5,0,0,1,1-.2c.26,1.29.57,2.57.91,3.83a.5.5,0,0,1-.35.61ZM86.15,83a.49.49,0,0,1-.49-.42c-.19-1.31-.35-2.64-.47-4a.51.51,0,0,1,.45-.54.5.5,0,0,1,.54.45c.12,1.31.27,2.63.46,3.91a.5.5,0,0,1-.42.57Zm-.7-7.9a.5.5,0,0,1-.5-.48c0-.76,0-1.54,0-2.31,0-.56,0-1.12,0-1.68a.48.48,0,0,1,.5-.48.49.49,0,0,1,.49.5c0,.56,0,1.11,0,1.66,0,.76,0,1.53,0,2.28a.48.48,0,0,1-.48.51Zm.18-7.92h0a.5.5,0,0,1-.45-.54c.1-1.32.24-2.65.41-4a.5.5,0,1,1,1,.13c-.18,1.3-.31,2.62-.41,3.92A.5.5,0,0,1,85.63,67.21Zm1-7.87h-.09a.5.5,0,0,1-.4-.58c.24-1.31.52-2.62.84-3.91a.49.49,0,0,1,1,.24c-.31,1.27-.59,2.56-.83,3.85A.48.48,0,0,1,86.67,59.34Zm1.87-7.7-.15,0a.5.5,0,0,1-.33-.62c.38-1.27.81-2.55,1.25-3.79a.5.5,0,0,1,.64-.3.49.49,0,0,1,.3.63C89.8,48.77,89.39,50,89,51.28A.49.49,0,0,1,88.54,51.64Zm2.68-7.46a.65.65,0,0,1-.19,0,.5.5,0,0,1-.26-.65c.52-1.23,1.07-2.45,1.66-3.64a.5.5,0,0,1,.89.44c-.58,1.17-1.13,2.38-1.64,3.58A.5.5,0,0,1,91.22,44.18Zm3.49-7.12a.44.44,0,0,1-.24-.07.49.49,0,0,1-.19-.67c.65-1.16,1.35-2.31,2.06-3.43a.5.5,0,1,1,.83.54c-.7,1.09-1.38,2.23-2,3.37A.49.49,0,0,1,94.71,37.06ZM99,30.38a.46.46,0,0,1-.29-.1.5.5,0,0,1-.11-.69c.78-1.08,1.6-2.14,2.44-3.16a.49.49,0,1,1,.76.63c-.82,1-1.63,2.05-2.4,3.11A.49.49,0,0,1,99,30.38Zm5-6.13a.47.47,0,0,1-.33-.14.49.49,0,0,1,0-.7c.9-1,1.84-1.93,2.8-2.85a.49.49,0,0,1,.7,0,.5.5,0,0,1,0,.7c-1,.9-1.87,1.85-2.76,2.81A.52.52,0,0,1,104,24.25Z"/><path class="cls-5" d="M194.28,7.82l-.16,0c-1.24-.42-2.51-.82-3.76-1.19A.51.51,0,0,1,190,6a.5.5,0,0,1,.62-.33c1.27.38,2.54.78,3.8,1.2a.5.5,0,0,1,.31.63A.51.51,0,0,1,194.28,7.82Zm-7.6-2.26-.13,0c-1.27-.32-2.56-.63-3.84-.92a.49.49,0,0,1-.37-.59.5.5,0,0,1,.59-.38c1.29.29,2.59.6,3.87.93a.5.5,0,0,1-.12,1Zm-7.75-1.71h-.09c-1.29-.24-2.6-.45-3.89-.64a.5.5,0,0,1-.42-.56.49.49,0,0,1,.56-.42c1.31.19,2.63.4,3.93.64a.5.5,0,0,1-.09,1Zm-35.5-.29a.5.5,0,0,1-.09-1c1.29-.23,2.62-.44,3.94-.62a.49.49,0,1,1,.13,1c-1.3.18-2.62.39-3.9.62Zm27.65-.86H171c-1.31-.14-2.63-.26-3.93-.35a.5.5,0,0,1-.46-.53.49.49,0,0,1,.53-.46c1.31.09,2.65.21,4,.35a.5.5,0,0,1-.06,1Zm-19.8-.21a.49.49,0,0,1-.49-.45.51.51,0,0,1,.45-.54c1.31-.12,2.65-.21,4-.28a.51.51,0,0,1,.52.47.49.49,0,0,1-.47.52c-1.32.07-2.64.16-3.94.28Zm11.89-.34h0c-1,0-2.09,0-3.12,0h-.83a.49.49,0,0,1-.5-.49.5.5,0,0,1,.49-.5H160c1,0,2.1,0,3.15,0a.49.49,0,0,1,.48.51A.5.5,0,0,1,163.17,2.15Z"/><path class="cls-5" d="M232.86,30.36a.55.55,0,0,1-.34-.13c-1-.89-2-1.77-3-2.63a.5.5,0,0,1,.65-.75c1,.86,2,1.75,3,2.65a.49.49,0,0,1,0,.7A.46.46,0,0,1,232.86,30.36Zm-6-5.15a.5.5,0,0,1-.31-.1c-1-.81-2.09-1.61-3.15-2.38a.49.49,0,0,1,.58-.8c1.08.78,2.15,1.58,3.18,2.4a.49.49,0,0,1,.09.69A.49.49,0,0,1,226.83,25.21Zm-6.43-4.65a.45.45,0,0,1-.27-.08c-1.09-.72-2.21-1.44-3.33-2.13a.49.49,0,0,1,.52-.84c1.13.69,2.26,1.41,3.36,2.14a.5.5,0,0,1,.13.69A.47.47,0,0,1,220.4,20.56Z"/></g></g></g></svg>