<svg xmlns="http://www.w3.org/2000/svg" xmlns:xlink="http://www.w3.org/1999/xlink" viewBox="0 0 464.53 293.32"><defs><style>.cls-1{fill:#4cc2fc;}.cls-2{fill:#fff;}.cls-3{fill:#1a2089;}.cls-4{fill:#b56cf7;}.cls-5{fill:#5d4efa;}.cls-6{fill:#6cafe0;}.cls-7{fill:#292f53;}.cls-8{fill:#e6b38e;}.cls-9{fill:#253f5d;}.cls-10{fill:#00244f;}.cls-11{fill:#de9d85;}.cls-12{fill:#263a5a;}.cls-13{fill:url(#Áåçûìÿííûé_ãðàäèåíò_11);}.cls-14{fill:#30666a;}</style><linearGradient id="Áåçûìÿííûé_ãðàäèåíò_11" x1="3028.4" y1="222.84" x2="3029.5" y2="222.84" gradientTransform="matrix(-1, 0, 0, 1, 3345.05, 0)" gradientUnits="userSpaceOnUse"><stop offset="0" stop-color="#c9e2ed"/><stop offset="1" stop-color="#e3eee9"/></linearGradient></defs><title>implementation_1</title><g id="Layer_2" data-name="Layer 2"><g id="Layer_1-2" data-name="Layer 1"><rect class="cls-1" x="46.31" y="69.89" width="361.07" height="214.82"/><rect class="cls-2" x="221.15" y="86.03" width="169.03" height="128.81"/><rect class="cls-2" x="64.36" y="86.03" width="141.74" height="128.81"/><path class="cls-3" d="M341.56,120.52a37,37,0,0,0-13.5-12c.15,4.36-1.18,8.67-4.71,11.55a24.78,24.78,0,0,1,12.1,24.76,8.77,8.77,0,0,1,2.16-.68l1.46-.07c.58-.82,1.13-1.65,1.66-2.51a13.23,13.23,0,0,1,1.19-2.15l.05,0c.14-.29.28-.57.41-.86,1.11-2.33,3.3-.6,5.33-1.56C346.65,128.56,344.33,124.56,341.56,120.52Z"/><path class="cls-3" d="M306.19,173.9h.32c-.15-.76-.32-1.52-.53-2.27-.09-.33-.19-.65-.28-1l0-.08-.84-2.72a6.28,6.28,0,0,1-.27-2.37A24.74,24.74,0,0,1,292.4,158a36.56,36.56,0,0,1-7.2,5.85,12.94,12.94,0,0,1-2.91,1.4c4.52,5.44,12.43,9.8,18.77,11.94C302.92,175.4,303.53,173.9,306.19,173.9Z"/><path class="cls-3" d="M293.71,159.4a24.79,24.79,0,0,1,32.22-37.57l5.49-11.31c-13.06-8.49-27.1-8.3-41.54.34a37.17,37.17,0,0,0-9.66,51.68,35.86,35.86,0,0,0,3.13,4Z"/><path class="cls-3" d="M346.68,139l-12.46-.4a23,23,0,0,1-11.89,25.24,24.76,24.76,0,0,1-18.27,1.83l-3,11.54c8.67,2.12,14.49,2,21.19-.25a37.91,37.91,0,0,0,12-6.62C344.1,162.27,348.33,151.75,346.68,139Z"/><rect class="cls-3" x="362.52" y="96.89" width="15.43" height="1.7"/><rect class="cls-3" x="362.52" y="100.29" width="15.43" height="1.7"/><rect class="cls-3" x="362.52" y="103.69" width="15.43" height="1.7"/><rect class="cls-3" x="362.52" y="107.08" width="15.43" height="1.7"/><rect class="cls-3" x="257.25" y="192.2" width="33.43" height="1.7"/><rect class="cls-3" x="257.25" y="195.6" width="33.43" height="1.7"/><rect class="cls-3" x="257.25" y="199" width="33.43" height="1.7"/><rect class="cls-3" x="257.25" y="202.39" width="33.43" height="1.7"/><rect class="cls-3" x="344.87" y="190.23" width="17.73" height="1.7"/><rect class="cls-3" x="344.87" y="193.62" width="17.73" height="1.7"/><rect class="cls-3" x="344.87" y="197.02" width="17.73" height="1.7"/><rect class="cls-3" x="344.87" y="200.42" width="17.73" height="1.7"/><rect class="cls-3" x="240.56" y="103.69" width="17.73" height="1.7"/><rect class="cls-3" x="240.56" y="107.08" width="17.73" height="1.7"/><rect class="cls-3" x="240.56" y="110.48" width="17.73" height="1.7"/><rect class="cls-3" x="240.56" y="113.87" width="17.73" height="1.7"/><rect class="cls-3" x="342.47" y="111.33" width="19.27" height="1.7" transform="translate(16.15 266.11) rotate(-42.29)"/><rect class="cls-3" x="272.74" y="181.26" width="19.27" height="1.7" transform="translate(-36.3 288.63) rotate(-51.3)"/><rect class="cls-3" x="269.25" y="103.82" width="1.7" height="19.27" transform="translate(22.34 269.79) rotate(-55.04)"/><rect class="cls-3" x="341.12" y="170.59" width="1.7" height="19.27" transform="translate(-29.82 286.03) rotate(-43.68)"/><rect class="cls-3" x="243.22" y="146.32" width="7.28" height="7.28"/><rect class="cls-3" x="254.26" y="148.26" width="13.35" height="3.64"/><rect class="cls-3" x="243.22" y="157.14" width="7.28" height="7.28"/><rect class="cls-3" x="254.26" y="159.09" width="13.35" height="3.64"/><rect class="cls-3" x="243.22" y="167.97" width="7.28" height="7.28"/><rect class="cls-3" x="254.26" y="169.91" width="13.35" height="3.64"/><rect class="cls-2" x="221.15" y="228.11" width="169.03" height="42.7"/><rect class="cls-4" x="81.22" y="115.05" width="29.5" height="2.12"/><rect class="cls-4" x="81.22" y="119.29" width="29.5" height="2.12"/><rect class="cls-4" x="81.22" y="123.52" width="29.5" height="2.12"/><rect class="cls-4" x="81.22" y="127.76" width="29.5" height="2.12"/><path class="cls-4" d="M83.92,151.5a2,2,0,1,0,.64,2.78H111v-2.45H84.33A2.2,2.2,0,0,0,83.92,151.5Z"/><path class="cls-4" d="M83.92,144.6a2,2,0,1,0,.54,2.93H111v-2.45H84.46A2.07,2.07,0,0,0,83.92,144.6Z"/><path class="cls-4" d="M84.46,138.56a2.07,2.07,0,0,0-.54-.48,2,2,0,0,0-2.69.72A2,2,0,0,0,84.46,141H111v-2.45Z"/><rect class="cls-4" x="80.27" y="97.26" width="31.4" height="11.57"/><rect class="cls-4" x="132.88" y="130.91" width="3.4" height="23.63"/><rect class="cls-4" x="150" y="121.66" width="3.33" height="32.88"/><rect class="cls-4" x="138.43" y="117.09" width="3.64" height="37.46"/><rect class="cls-4" x="155.64" y="95.76" width="3.31" height="58.78"/><rect class="cls-4" x="144.32" y="106.25" width="3.52" height="48.29"/><rect class="cls-4" x="162.41" y="146.23" width="3.4" height="8.31"/><rect class="cls-4" x="179.53" y="140.57" width="3.33" height="13.97"/><rect class="cls-4" x="167.96" y="128.68" width="3.64" height="25.86"/><rect class="cls-4" x="185.16" y="137.74" width="3.31" height="16.8"/><rect class="cls-4" x="173.84" y="113.4" width="3.52" height="41.14"/><rect class="cls-4" x="80.95" y="170.87" width="7.28" height="7.28"/><rect class="cls-4" x="91.99" y="172.81" width="49.01" height="3.64"/><rect class="cls-4" x="80.95" y="181.69" width="7.28" height="7.28"/><rect class="cls-4" x="91.99" y="183.64" width="28.07" height="3.64"/><rect class="cls-4" x="80.95" y="192.52" width="7.28" height="7.28"/><rect class="cls-4" x="91.99" y="194.46" width="35.99" height="3.64"/><rect class="cls-5" x="233.34" y="234.66" width="7.28" height="7.28"/><rect class="cls-5" x="244.38" y="236.6" width="49.01" height="3.64"/><rect class="cls-5" x="233.34" y="245.49" width="7.28" height="7.28"/><rect class="cls-5" x="244.38" y="247.43" width="28.07" height="3.64"/><rect class="cls-5" x="233.34" y="256.31" width="7.28" height="7.28"/><rect class="cls-5" x="244.38" y="258.25" width="35.99" height="3.64"/><polygon class="cls-4" points="174.15 178.8 176.86 166.5 164.44 169.09 167.06 171.71 155.17 183.6 159.64 188.07 171.53 176.18 174.15 178.8"/><rect class="cls-4" x="159.15" y="192.34" width="6.86" height="11.83"/><rect class="cls-4" x="168.91" y="185.89" width="6.86" height="18.28"/><rect class="cls-4" x="178.59" y="177.28" width="7.41" height="26.89"/><rect class="cls-2" x="98.13" y="195.45" width="42.7" height="106.4" transform="translate(368.12 129.17) rotate(90)"/><polygon class="cls-3" points="99.15 251.04 106.51 240.29 114.69 248.38 130.81 232.6 148.9 256.68 116.86 260.78 97.11 256.17 99.15 251.04"/><polygon class="cls-1" points="72.59 261.55 84.64 245.2 94.9 257.57 97.11 258.47 106.92 255.4 116.86 239.13 130.81 252.84 151.31 229.78 161.13 261.55 72.59 261.55"/><polygon class="cls-5" points="72.59 261.55 80.76 253.35 89.34 256.93 98.34 248.23 106.92 255.4 121.75 239.82 138.8 255.4 161.09 239.82 161.13 261.55 72.59 261.55"/><rect class="cls-5" x="304.75" y="246.96" width="29.5" height="1.7"/><rect class="cls-5" x="304.75" y="250.36" width="29.5" height="1.7"/><rect class="cls-5" x="304.75" y="253.75" width="29.5" height="1.7"/><rect class="cls-5" x="304.75" y="257.15" width="29.5" height="1.7"/><rect class="cls-5" x="304.75" y="238.45" width="29.5" height="5.97"/><rect class="cls-5" x="345.86" y="246.96" width="29.5" height="1.7"/><rect class="cls-5" x="345.86" y="250.36" width="29.5" height="1.7"/><rect class="cls-5" x="345.86" y="253.75" width="29.5" height="1.7"/><rect class="cls-5" x="345.86" y="257.15" width="29.5" height="1.7"/><rect class="cls-5" x="345.86" y="238.45" width="29.5" height="5.97"/><rect class="cls-3" x="46.31" y="48.09" width="361.07" height="21.8"/><path class="cls-1" d="M385.23,58.83a4.95,4.95,0,1,0,4.95-4.94A4.95,4.95,0,0,0,385.23,58.83Z"/><path class="cls-2" d="M369.79,58.83a4.95,4.95,0,1,0,4.95-4.94A4.95,4.95,0,0,0,369.79,58.83Z"/><polygon class="cls-3" points="428.88 289.83 379.3 135.68 382.12 135.68 431.7 289.83 428.88 289.83"/><polygon class="cls-3" points="403.24 289.83 353.65 135.68 356.48 135.68 406.06 289.83 403.24 289.83"/><polygon class="cls-3" points="394.96 175.71 394.96 178.01 368.4 177.99 367.94 175.69 394.96 175.71"/><polygon class="cls-3" points="389.47 160.77 389.47 163.07 362.9 163.06 362.45 160.76 389.47 160.77"/><polygon class="cls-3" points="384.93 145.84 384.93 148.13 358.36 148.12 357.91 145.82 384.93 145.84"/><polygon class="cls-3" points="399.8 190.84 399.8 193.13 373.24 193.12 372.78 190.82 399.8 190.84"/><polygon class="cls-3" points="404.35 205.96 404.35 208.26 377.78 208.25 377.32 205.95 404.35 205.96"/><polygon class="cls-3" points="409.04 221.68 410.12 223.98 383.55 223.97 383.1 221.67 409.04 221.68"/><polygon class="cls-3" points="414.02 237.4 415.1 239.7 388.53 239.68 388.08 237.38 414.02 237.4"/><polygon class="cls-3" points="418.69 252.77 419.76 255.06 393.19 255.05 392.74 252.75 418.69 252.77"/><polygon class="cls-3" points="422.55 268.47 423.63 270.77 397.06 270.75 396.61 268.45 422.55 268.47"/><path class="cls-6" d="M417.46,186.47l-2,5.22c-.17.73-.2,1.6.56,2a6.15,6.15,0,0,0,1,.48c.36-.08,2.64-7.13,2.64-7.13l0,0A1.87,1.87,0,0,0,417.46,186.47Z"/><polygon class="cls-7" points="417.08 194.2 419.72 187.07 420.07 187.27 417.41 194.33 417.08 194.2"/><polygon class="cls-2" points="416.67 188.53 416.5 189 417.41 189.18 417.58 188.72 416.67 188.53"/><polygon class="cls-2" points="416.29 189.54 416.12 190.01 417.03 190.19 417.2 189.73 416.29 189.54"/><path class="cls-8" d="M415.27,185.23l2.19,1.24h0a1.39,1.39,0,0,1-.48,1.41l-.08.06-2.42-.62Z"/><path class="cls-5" d="M397.8,152.28a12.58,12.58,0,0,1,2.73,6.45c.37,2.74-.66,7.08-.77,10.48a8.77,8.77,0,0,0,3.77,7.49l11.74,8.53-.79,2.09s-16.06-2.41-20.28-9.6S389,154.23,389,154.23Z"/><path class="cls-8" d="M407.14,143.41l6,13.49a8.24,8.24,0,0,1,3.56,1.24,2.54,2.54,0,0,1,.38,2.32.82.82,0,0,1-1.36.48,5.71,5.71,0,0,0-2.08-1.31,2.52,2.52,0,0,1-1.94-1.31l-8.66-13.58Z"/><path class="cls-8" d="M376.69,116.3l-3.09-2.65,2.4-13.07,3.72-1.9a1.07,1.07,0,0,0-1.32-.42,3.42,3.42,0,0,1-1.7.13s-.69-.86.63-1.45c.74-.5,1.23,0,3.38-.08,0-.33-2.83-1.12-2.83-1.12-.88-.28-3.14,1.46-3.14,1.46a1.65,1.65,0,0,0-.29.71l-.35,2.42s-4.8,13.16-4.8,14.56,2.69,3.33,2.69,3.33Z"/><path class="cls-5" d="M393.33,153.64s1.86,2.24.74,7.45c-.71,3.33-3.84,7.51-5.94,10.4-1.51,2.06-1.54,4.66-1.09,7.18,1.72,9.57-1,21.26-1,21.26h-2.24s-3.35-17.13-4.34-29.16a34.77,34.77,0,0,1,3.85-19Z"/><rect class="cls-3" x="373.76" y="96.86" width="7.09" height="1.87" transform="translate(-10.2 55.81) rotate(-8.35)"/><rect class="cls-3" x="373.39" y="97.39" width="0.65" height="1.87" transform="translate(-10.32 55.3) rotate(-8.35)"/><path class="cls-3" d="M373.67,99.28c-.52.07-.95,0-1.07-.8s.28-1,.79-1.08Z"/><polygon class="cls-3" points="380.95 98.21 382.31 97.39 382.21 96.72 380.68 96.36 380.95 98.21"/><polygon class="cls-3" points="382.31 97.39 382.9 96.96 382.21 96.72 382.31 97.39"/><rect class="cls-3" x="374.06" y="98" width="6.85" height="0.43" transform="matrix(0.99, -0.15, 0.15, 0.99, -10.26, 55.83)"/><rect class="cls-3" x="373.93" y="97.1" width="6.85" height="0.43" transform="translate(-10.13 55.8) rotate(-8.34)"/><path class="cls-3" d="M398.81,127.18c4,2.93,8.69,17,8.69,17l-3.51,2-5.7-7.82s-.55,9.05.81,16c-.62,2.61-3.58,2.31-8.38,1.4a23.73,23.73,0,0,1-7.94-3s-.2-12.57-.83-19.24.61-7.37-1.07-7.15c-3.75-2.13-9.89-9-9.89-9l5.7-1.11L389,123.49A53.48,53.48,0,0,1,398.81,127.18Z"/><path class="cls-8" d="M391.85,110.51l-3,2.93a5.14,5.14,0,0,0-1.41,4.77l.35,1.56Z"/><path class="cls-7" d="M395.44,109.4c7.19,0,4.13,13.82,4.13,13.82s-1.28,9-4.13,12.56c-2.47,3.11-7.36,2.18-9.67.68a8.88,8.88,0,0,0-3.74-1.38c-2-.23-4.29-1.1-4.29-4.64,0-3.33,4-5.9,6.59-7.74a8.66,8.66,0,0,0,3.39-5C388.56,114.28,390.6,109.4,395.44,109.4Z"/><path class="cls-6" d="M385.63,202.41H380c-.74.1-1.57.39-1.71,1.24a7.53,7.53,0,0,0-.08,1.14c.2.31,7.6,0,7.6,0l0,0A1.88,1.88,0,0,0,385.63,202.41Z"/><polygon class="cls-9" points="378.25 204.78 385.85 204.74 385.79 205.13 378.24 205.13 378.25 204.78"/><polygon class="cls-2" points="383.42 202.4 382.91 202.41 383.07 203.32 383.56 203.32 383.42 202.4"/><polygon class="cls-2" points="382.34 202.4 381.83 202.41 381.99 203.32 382.48 203.32 382.34 202.4"/><path class="cls-8" d="M386,199.93l-.38,2.48h0a1.42,1.42,0,0,1-1.5.05l-.09-.05-.27-2.48Z"/><path class="cls-8" d="M378.4,98.26a1.07,1.07,0,0,1,1.32.42l-2.47,1.26-.11,0a11.25,11.25,0,0,0-1.64-.6A22.56,22.56,0,0,1,378.4,98.26Z"/><path class="cls-8" d="M120.69,82.71l.44,2.59h0a2.51,2.51,0,0,1-2.7.09l-.15-.09-.64-2.59Z"/><path class="cls-10" d="M100,22.88c2.29,7.58,10,19.22,10,19.22l-6.09-2.49-4.3-9.94S97.67,15.3,100,22.88Z"/><path class="cls-5" d="M116.52,53.33l4.8,29.61h-4.27s-9.59-26.64-10.6-34.48c0-4.43,9.7,0,9.7,0Z"/><polygon class="cls-11" points="100.61 10.91 99.02 15.04 95.57 12.54 97.9 7.68 100.61 10.91"/><path class="cls-8" d="M101.91,11.6a2.38,2.38,0,0,0,1.35,0c2-1.91,1.51-8.29,1.51-8.29l-2.23-1.54L99,3,98,7a3.34,3.34,0,0,0,.81,3.07h0A6.54,6.54,0,0,0,101.91,11.6Z"/><path class="cls-7" d="M99.64,4.36a1.36,1.36,0,0,1,1.72-.68,12,12,0,0,0,1.66.5c1.38.29,4,.27,4.39-1.84S105.12.42,105.12.42l-3.63.25A6.59,6.59,0,0,1,98.36.1a1.48,1.48,0,0,0-1.84,1c-.41,1.19,0,3.21.38,4.51a6.35,6.35,0,0,0,1,2.1h0Z"/><path class="cls-8" d="M97.59,5.26a1.09,1.09,0,0,1,1.27.39c.33.42.3.93-.06,1.13a1,1,0,0,1-1.26-.38C97.2,6,97.23,5.47,97.59,5.26Z"/><path class="cls-7" d="M121.21,85s0,2.75,5.53,4.4c1.13.34.77.68,1,1.15h-6.36l-2.49-2.79-.77.66-1.79-1.76s.31-2.55,1.67-2.58C119.11,84.49,121.21,85,121.21,85Z"/><path class="cls-8" d="M105.51,81.91l-1,2.38h0a2.5,2.5,0,0,1-2.58-.79l-.12-.13.84-2.45Z"/><path class="cls-1" d="M99.78,13.88s.44-.68-3.47-2.69c-5.89,5.88-7.82,28.42-7.82,28.42h15.39C104.4,26.75,99.78,13.88,99.78,13.88Z"/><path class="cls-8" d="M115,39a.67.67,0,0,0-.32-.74l-2.51-1.46a2.9,2.9,0,0,0-2.06-.33l-2.72.11L107,37l-.57,2.4.87-.21,1.72,0s3.26,3,4.88.39c.07,2.8.89,2.59.89,2.59Z"/><path class="cls-5" d="M88.49,39.61l-.23,1.91v.08a7.53,7.53,0,0,0,5.52,8,68.05,68.05,0,0,0,15.85,2.81c-5.8,7.45-7.41,28.37-7.41,28.37L106,82.15,120.4,47.74a3.81,3.81,0,0,0-2.72-5.19l-13.8-2.94Z"/><path class="cls-1" d="M98.11,21.24a31.32,31.32,0,0,0-4.55,5.32,2,2,0,0,0,.18,2.38c3.21,3.69,14.63,7.24,14.63,7.24l-.74,4.17s-16.21-3.19-21.95-9C79.79,25.49,95,13.15,95,13.15"/><path class="cls-2" d="M93.76,26.68a1.77,1.77,0,0,0,.15,2.11c1.47,1.69,5.37,3.49,8.77,4.79,0,.21,0,.22,0,.47-3.57-1.34-7.51-3.12-9.11-5a2.21,2.21,0,0,1-.2-2.65A30.72,30.72,0,0,1,98,21.08l.31.33A31.25,31.25,0,0,0,93.76,26.68Z"/><path class="cls-2" d="M89.06,33.72c6.23,3.35,15.35,5.76,18.6,6.44a3.65,3.65,0,0,1-.09.44c-3.14-.64-12.17-3-18.57-6.36A3,3,0,0,1,89.06,33.72Z"/><polygon class="cls-6" points="121.04 44.03 125.84 26.87 124.96 26.63 120.39 42.98 106.61 40.59 106.45 41.49 121.04 44.03"/><path class="cls-7" d="M104.71,83.76s-.22,2.77,5.3,4.42c1.14.34.77.68,1,1.15h-6.35l-2.49-2.79-.78.66-1.79-1.76s.84-2.55,2.2-2.58C102.91,83.25,104.71,83.76,104.71,83.76Z"/><path class="cls-12" d="M205.15,289.34H213c1,.11,2.21.41,2.41,1.31a5.61,5.61,0,0,1,.11,1.2c-.28.33-10.7,0-10.7,0l-.05,0A1.66,1.66,0,0,1,205.15,289.34Z"/><polygon class="cls-7" points="215.53 291.84 204.83 291.8 204.92 292.21 215.54 292.21 215.53 291.84"/><polygon class="cls-2" points="208.26 289.33 208.97 289.34 208.75 290.3 208.06 290.3 208.26 289.33"/><polygon class="cls-2" points="209.78 289.33 210.49 289.34 210.27 290.3 209.58 290.3 209.78 289.33"/><path class="cls-8" d="M204.61,286.72l.54,2.62h0a2.55,2.55,0,0,0,2.11.05l.12-.05.37-2.62Z"/><path class="cls-7" d="M186.77,289.34h7.87c1,.11,2.21.41,2.4,1.31a5,5,0,0,1,.11,1.2c-.27.33-10.7,0-10.7,0l0,0A1.65,1.65,0,0,1,186.77,289.34Z"/><polygon class="cls-7" points="197.16 291.84 186.45 291.8 186.54 292.21 197.17 292.21 197.16 291.84"/><polygon class="cls-2" points="189.89 289.33 190.59 289.34 190.37 290.3 189.69 290.3 189.89 289.33"/><polygon class="cls-2" points="191.4 289.33 192.11 289.34 191.89 290.3 191.2 290.3 191.4 289.33"/><path class="cls-8" d="M187.11,286.72l-.34,2.62h0a2.55,2.55,0,0,0,2.11.05l.12-.05,1.26-2.62Z"/><path class="cls-8" d="M198.85,198.66l-6.48,4.22,2,5.11c0,.08.07.14.1.21H195a5,5,0,0,1,4.13,2.5,8.67,8.67,0,0,0,3.06-.8,3.12,3.12,0,0,0,1.44-1.09C204.35,205.18,198.85,198.66,198.85,198.66Z"/><path class="cls-8" d="M207.08,200s.8,7.51-.8,12.3c.74.64,3.46,3.56,4.32-.22s-1-13.4-1-13.4Z"/><polygon class="cls-5" points="203.2 199.45 201.68 200.43 202.22 201.56 203.85 200.84 203.2 199.45"/><path class="cls-5" d="M202.3,200.81c.15.35.16.68,0,.74s-.38-.17-.53-.51-.17-.68,0-.74S202.15,200.47,202.3,200.81Z"/><path class="cls-5" d="M221.58,193.9v0a14.8,14.8,0,0,0-1.47-2.64,13,13,0,0,1-1.41-2.31L203,199.2l1,1.92,17.6-6.5A4.33,4.33,0,0,1,221.58,193.9Z"/><polygon class="cls-11" points="197.42 210.69 196.85 214.22 201.86 214.22 202.22 209.89 197.42 210.69"/><path class="cls-8" d="M210.35,219.46s5.91-1.89,7.76-4.42-1.28-16.38-1.28-16.38l.4-2.5a2.32,2.32,0,0,0-2.27-2.69l-1.58,0a.91.91,0,0,0-.83,1.28l2.08,4.67s1.56,10.49-.63,11.29a24.38,24.38,0,0,1-5.55,1.15Z"/><path class="cls-7" d="M199.24,210.69l-1.52-3.37,1-.62a1.88,1.88,0,0,0,.77-2.18l-1.09-3.18s3.08-.37,3-3.24c0-1.48-2-1.49-2-1.49a3,3,0,0,1-2.5,1.48,4.91,4.91,0,0,0-4.53,2.81c-1,1.77-.57,4.52.31,6.59a6,6,0,0,0,4.79,3.2Z"/><path class="cls-3" d="M193.23,239a110.26,110.26,0,0,0,1.87,15,13.44,13.44,0,0,1-.47,6.89c-3.53,10.49-8.48,26.26-8.48,26.26h4.41s10-18.64,12.54-27.88,3-12.18,3-12.18L203.06,239Z"/><path class="cls-8" d="M196.9,205.75a1.43,1.43,0,0,0,.82,1.57c.63.33,1.29.18,1.47-.36a1.43,1.43,0,0,0-.82-1.57C197.74,205.06,197.08,205.22,196.9,205.75Z"/><path class="cls-5" d="M207.58,239H193.23V220.61a7.8,7.8,0,0,1,7.08-7.78l10-1.21s1.17,1.8,4.44,6a33.7,33.7,0,0,1-8.48,3.55Z"/><path class="cls-3" d="M193.23,239s2,7.33,9.5,15.56a9.63,9.63,0,0,1,2.8,7.48L204,287.16h4.47s5.44-20.84,4.27-31.11a47.23,47.23,0,0,0-5.14-17Z"/><path class="cls-5" d="M219.17,192.2c.77,1.6,1.82,2.69,2.34,2.44s.31-1.75-.46-3.35-1.82-2.7-2.34-2.45S218.4,190.6,219.17,192.2Z"/><path class="cls-8" d="M206.46,196.91l.13.07a2,2,0,0,0,1.5.09l.09,0a2.67,2.67,0,0,0,1.7-1.72h0a.49.49,0,0,0-.57-.64l-1,.21a1.51,1.51,0,0,0-.94.64Z"/><polygon class="cls-8" points="319.4 210.84 314.78 219.53 319.87 219.29 320.23 210.56 319.4 210.84"/><polygon class="cls-2" points="326.65 206.99 322.39 206.98 320.62 234.54 328.26 234.54 326.65 206.99"/><path class="cls-9" d="M334.48,287.91a2.24,2.24,0,0,1,.86,1.88c-.19,1.06-.47,3.53-.47,3.53h-1.08l0-2.31c0-.15-2.32,2.31-2.71,2.31h-5.74s-.38-1.55,3-2.06A12.41,12.41,0,0,0,334.48,287.91Z"/><path class="cls-8" d="M332,286.85l-.77,2a2.6,2.6,0,0,1-1.06,1.34,10.41,10.41,0,0,1-2.68,1.22c1.56,1.33,4-.06,5.46-1a3.47,3.47,0,0,0,1.38-2l.33-1.54Z"/><path class="cls-9" d="M323.56,287.91a2.24,2.24,0,0,1,.86,1.88c-.2,1.06-.47,3.53-.47,3.53h-1.08l0-2.31c0-.15-2.33,2.31-2.72,2.31h-5.73s-.38-1.55,3-2.06A12.47,12.47,0,0,0,323.56,287.91Z"/><path class="cls-8" d="M321.07,286.85l-.78,2a2.56,2.56,0,0,1-1.06,1.34,10.15,10.15,0,0,1-2.67,1.22c1.55,1.33,4-.06,5.45-1a3.53,3.53,0,0,0,1.39-2l.32-1.54Z"/><path class="cls-3" d="M329.92,234.55s.72,4.12-3.4,24.37c3.33,10.55-2,28.21-2,28.21h-3.89L318,234.55Z"/><path class="cls-5" d="M322.85,207l-1.38,33.45-4.58-2a49.43,49.43,0,0,0,1.87-15c.7-6.31-2.88-3,1.5-15.13A4.76,4.76,0,0,1,322.85,207Z"/><path class="cls-11" d="M322.26,203.53l.53,2.82a1.8,1.8,0,0,0,2.72,1.19l1.88-1.18-3.36-7.6Z"/><path class="cls-3" d="M333.67,234.55s5.1,4.12,1,24.37c3.33,10.55.39,28.21.39,28.21h-3.49l-9.84-52.58Z"/><path class="cls-5" d="M326.65,204.15s4.31,2.42,5.64,4.58,1.72,6.75,1.84,10.92c.17,5.73,2.94,20.78,2.94,20.78H325.53l-.29-32.77Z"/><path class="cls-7" d="M318.15,195.07c2.61-.66,5.12,2,5.12,2l2,10.57,3-4.65s.17-6.33-2.75-10.52c-2.09-2.53-6.1-1.8-8.13.66a6.25,6.25,0,0,0-1.1,4.38c.13,2.05.71,13.8.71,13.8l6-4.43a27.32,27.32,0,0,0-.71-3.37C321.27,199.79,316.4,195.52,318.15,195.07Z"/><path class="cls-8" d="M324.06,196.92a1,1,0,0,0-1.12.59.8.8,0,0,0,.29,1.14.93.93,0,0,0,1.11-.58A.82.82,0,0,0,324.06,196.92Z"/><path class="cls-8" d="M321.25,204a2.07,2.07,0,0,1-1.27.16c-2.27-1.64-3.09-8.22-3.09-8.22l1.8-1.91,3.58.79,1.76,3.91a3.58,3.58,0,0,1-.15,3.25h0A5.71,5.71,0,0,1,321.25,204Z"/><path class="cls-7" d="M317.55,194.93c.19,2,5.72,2.16,5.72,2.16l.29-2.7-3.22-1.77-2.56,1.53A1.82,1.82,0,0,0,317.55,194.93Z"/><path class="cls-7" d="M317.68,195.32a3.83,3.83,0,0,1-.57,2l-.44-.8v-.68l.44-.54S317.49,194.58,317.68,195.32Z"/><path class="cls-8" d="M331.12,208.73c5.58.65,2.94,15.06,1.74,21a2.51,2.51,0,0,1-3.2,1.9c-4.86-1.54-12-7.9-12-7.9l1.13-1.42,9.43,2.2S324.64,208,331.12,208.73Z"/><path class="cls-10" d="M319.94,218.91l1.83,11.29a.54.54,0,0,1-.53.62H314a.55.55,0,0,1-.54-.45l-1.79-11.29a.54.54,0,0,1,.53-.62h7.19A.53.53,0,0,1,319.94,218.91Z"/><path class="cls-8" d="M311.93,223.91a4.57,4.57,0,0,1,.13-1.47c.17-1.07.12-2.74,1.21-1.91a5.53,5.53,0,0,1,1.15,2.67,3.15,3.15,0,0,1-.69,2.38l-.75,1.64A4.73,4.73,0,0,1,311.93,223.91Z"/><path class="cls-13" d="M316.65,222.84a.54.54,0,0,1-.55.55.55.55,0,0,1-.55-.55.55.55,0,0,1,.55-.55A.55.55,0,0,1,316.65,222.84Z"/><path class="cls-7" d="M20.54,289.3s.72,1,4.1,1.86c.75.19,1.55.32,1.55,1.55H22.85l-3.42-.59v.59H17.59s-.52-3,.56-3.41Z"/><path class="cls-8" d="M20.71,287.13l-.17,2.17h0a2.08,2.08,0,0,1-2.26.08l-.13-.08v-2.17Z"/><path class="cls-7" d="M3.4,289.73s.72,1,4.1,1.86c.75.19,1.55.32,1.55,1.55H5.71l-3.42-.59v.59H.45s-.52-3,.56-3.41Z"/><path class="cls-8" d="M3.57,287.57l-.17,2.16h0a2.08,2.08,0,0,1-2.26.08L1,289.73v-2.16Z"/><path class="cls-3" d="M22.08,233.86l-.84,54.45h-4s-6-44-4.75-54.45S22.08,233.86,22.08,233.86Z"/><path class="cls-3" d="M17.88,233.85s-1.38,16.73-4.55,26-8.9,28.47-8.9,28.47H.32s6.86-40.16,5.29-54.46H17.88Z"/><path class="cls-5" d="M21.46,206.14s4.89,11.4,6.13,11.4c1,0-.38-9.31-.38-9.31h4.1s5.15,16,1.05,18.87-13.09-8.25-13.09-8.25Z"/><path class="cls-8" d="M6.88,235.3,8.36,239c.71,1.44,3.34,1.48,5.08,1a.36.36,0,0,0,.17-.59,50.57,50.57,0,0,0-4.3-4.34Z"/><path class="cls-5" d="M19.27,203.78s2.56,1.73,2.56,3.72v26.35h-15V209.21s.3-5.48,5.66-5.48S19.27,203.78,19.27,203.78Z"/><polygon class="cls-14" points="21.58 233.86 21.58 210.19 22.07 210.21 22.07 233.86 21.58 233.86"/><path class="cls-11" d="M13.85,197.9v6.21a3.79,3.79,0,0,0,2.9,1.42c1.87,0,1.87-1.35,1.87-1.35v-4l-2.77-.72Z"/><path class="cls-8" d="M18.85,201.38a2.33,2.33,0,0,0,1.39-.36c1.66-2.64-.23-9.76-.23-9.76l-6,1.08-.2,4.77a4,4,0,0,0,1.51,3.29h0A6.34,6.34,0,0,0,18.85,201.38Z"/><path class="cls-7" d="M16.82,192.46a12.67,12.67,0,0,0,4.1,0c2.1-.37.76-2.69.76-2.69a8.32,8.32,0,0,1-4.32.31c-1.86-.28-2.36-.64-3.56,0-1.62.86-1.23,3.8-1.23,3.8l.89,6.21h.34s.08-3.69.08-5c.35-.57.73-.57,1-.43a.93.93,0,0,1,.5.85V202s4.1,1.77,5.15,1.45.34-5.1.34-5.1a1.91,1.91,0,0,0-2.13.52c-.93,1-2.05,0-2.05,0Z"/><path class="cls-8" d="M30.52,208.23l-.14-.79A6.52,6.52,0,0,0,26.72,203H25l.54,3.71L28,208.23Z"/><path class="cls-8" d="M14.39,194.55a1,1,0,0,1,1,1c.08.59-.22,1.09-.69,1.13a1,1,0,0,1-1-1A.89.89,0,0,1,14.39,194.55Z"/><path class="cls-8" d="M26.24,206.27l3.38,2s-2.12,0-2.16,0l-3.58-3s.26-.53,1.07-.08A4.18,4.18,0,0,1,26.24,206.27Z"/><path class="cls-5" d="M8.46,205.38S0,214.78,0,220.41,6.87,236,6.87,236l3.39-1S7.2,222.69,7.2,219.43s6.28-8.06,6.28-8.06"/><path class="cls-14" d="M7.44,219.43c0,2.81,2.49,13.1,3.08,15.49l-.5.13C9.3,232.09,7,222.19,7,219.43c0-3.35,6.12-8.06,6.38-8.26l.3.4C13.57,211.61,7.44,216.32,7.44,219.43Z"/><path class="cls-8" d="M28.64,205.53a4.05,4.05,0,0,1-1.89.31c-1,0-1.43-1.21-1.6-1.87-.06-.23-.11-.56.18-.71l1.58-.22Z"/><path class="cls-8" d="M434.62,202.62a3.23,3.23,0,0,1,.15,2.33l-.43,3-.52.35-1.94.8a2.05,2.05,0,0,0,0-1.21l-.85-3.14s-1.32-5.28,2.27-5.05c0-4.31,1.18-3.6,1.18-3.6l.08,3.72Z"/><path class="cls-3" d="M443.55,213.08s-2.51,9.58-4.65,9.75-4.36-15.17-4.36-15.17l-2.91.36s-1.13,22,5.4,22.45,7.38-4.48,7.38-4.48Z"/><path class="cls-3" d="M443.82,239.26H460.9V213.33c-4.88-7.44-11-5.41-11-5.41s-5.53.1-6.39,5.16C443.55,216.75,443.82,239.26,443.82,239.26Z"/><path class="cls-11" d="M451.93,204.47l.26,3.67-.12.11a3.18,3.18,0,0,1-4.32.06h0l-.06-2.76Z"/><path class="cls-8" d="M453.28,196.81l-.31,6.06a.93.93,0,0,0-.84,1.19,1.15,1.15,0,0,0-.11.45,7,7,0,0,1-5.39,1.26c-3.84-.74-1.52-8.15-1.52-8.15Z"/><path class="cls-7" d="M455.2,201.36a3.78,3.78,0,0,1,1-1.67c2.18-1.88.23-3.25-.46-3.69s-.61-1.88-1.59-2.65c-1.51-1.18-3,.05-3.93-.13s-1.56-1.46-3-.78-1.25,1.78-1.7,2.24-1.28-.82-2.64.65c-2.08,2.23,2,3.18,2,3.18a7.38,7.38,0,0,0,5.19-.23,1,1,0,0,1,1.14.28c.71,1,.72,6,.72,6l1-.82A2.74,2.74,0,0,0,455.2,201.36Z"/><path class="cls-8" d="M452.9,201.86a.93.93,0,1,1-.51-1.21A.92.92,0,0,1,452.9,201.86Z"/><path class="cls-7" d="M447.69,288.14s-1,1.34-5.49,2.49c-1,.26-2.08.43-2.08,2.08h4.48l4.58-.8v.8h2.47s.69-4-.76-4.57Z"/><path class="cls-8" d="M447.46,285.24l.23,2.9h0a2.8,2.8,0,0,0,3,.11l.17-.11v-2.9Z"/><path class="cls-7" d="M460.41,288.14s-1,1.34-5.5,2.49c-1,.26-2.07.43-2.07,2.08h4.48l4.57-.8v.8h2.47s.69-4-.75-4.57Z"/><path class="cls-8" d="M460.18,285.24l.23,2.9h0a2.8,2.8,0,0,0,3,.11l.17-.11v-2.9Z"/><path class="cls-6" d="M460.88,213.33s5.12,11.81-1.41,17.84-15.39,5-15.39,5v-3.4s8-.68,10.58-6-1-10-1-10"/><path class="cls-8" d="M444.6,235.71l-4.08.09c-1.66-.09-2.77-2.57-3-4.41A.37.37,0,0,1,438,231a51.91,51.91,0,0,1,5.88,2.32Z"/><path class="cls-5" d="M443.82,239.26c-5.09,14.37,2.87,46.21,2.87,46.21h4.54s-2.14-45.14,3.76-46.21Z"/><path class="cls-3" d="M455.57,223.17a9.06,9.06,0,0,1-.91,3.57c-2.57,5.36-11,6.07-11,6.07v3.43s9.28,1,15.81-5.07a11.08,11.08,0,0,0,3.31-8Z"/><path class="cls-9" d="M455.53,223.69l.54-.24a10.92,10.92,0,0,0-2-7l-.4.32A10.34,10.34,0,0,1,455.53,223.69Z"/><path class="cls-8" d="M433.84,203.07s.94-.28,1.09-2,1-1.19,1-1.19-.42,6.78-1.5,7S433.84,203.07,433.84,203.07Z"/><path class="cls-5" d="M448.84,239.26c-1.38,17.63,9.87,46.21,9.87,46.21h5.39s-3.66-18.28-3.73-35.43a89.47,89.47,0,0,1,.53-10.78Z"/></g></g></svg>