<svg xmlns="http://www.w3.org/2000/svg" viewBox="0 0 104.38 104.38"><defs><style>.cls-1{fill:#1dd3f8;}</style></defs><title>NLP and AI</title><g id="Layer_2" data-name="Layer 2"><g id="Layer_1-2" data-name="Layer 1"><path class="cls-1" d="M104.38,66.66v1.23a2.54,2.54,0,0,1-2.71,1.53c-5.33,0-10.66,0-16,0H84.4c0,2.23,0,4.33,0,6.43a8.53,8.53,0,0,1-5.77,8,12.35,12.35,0,0,1-3.48.56c-1.88.09-3.77,0-5.65,0V96.16c.16,0,.23.06.29.06,1.91,0,3.81,0,5.71,0a1.43,1.43,0,0,0,1.55-.9,5.94,5.94,0,0,1,6.72-3A6.1,6.1,0,0,1,84.33,104l-1,.34h-2a6.59,6.59,0,0,1-4.76-4.08H68.09c-2.1,0-2.76-.64-2.76-2.72,0-4,0-8,0-11.92V84.47H54.23c0,1.41,0,2.73,0,4a1.43,1.43,0,0,0,.89,1.56,6,6,0,0,1,3,6.92,6.11,6.11,0,1,1-8.75-7c.31-.17.76-.49.77-.75.08-1.58,0-3.17,0-4.78H39.05v1.3c0,3.94,0,7.88,0,11.82,0,2.07-.67,2.72-2.76,2.72-2.58,0-5.17,0-7.75,0-.29,0-.75.1-.84.3A6.76,6.76,0,0,1,23,104.38H21L20,104a6.12,6.12,0,1,1,7.48-8.61c.18.32.49.78.75.79,2.23.06,4.46,0,6.73,0V84.39H29.14A8.77,8.77,0,0,1,20,75.22V69.4H18.7c-5.37,0-10.73,0-16.1,0A2.5,2.5,0,0,1,0,67.89V66.66a3.06,3.06,0,0,1,2.94-1.35c5.26,0,10.52,0,15.79,0h1.2V54.23c-1.4,0-2.75,0-4.1,0a1.43,1.43,0,0,0-1.56.9,6,6,0,0,1-7.59,2.76,6.12,6.12,0,1,1,7.68-8.53c.16.3.42.76.65.77,1.65.07,3.3,0,4.9,0V39.05H18.63c-5.23,0-10.46,0-15.69,0A3.06,3.06,0,0,1,0,37.72V36.49A2.48,2.48,0,0,1,2.6,35C8,35,13.33,35,18.7,35H20c0-1.55,0-3,0-4.39a20.85,20.85,0,0,1,.29-4A8.61,8.61,0,0,1,28.58,20c2.1,0,4.19,0,6.31,0V8.15c-2.06,0-4,0-6,0A1.44,1.44,0,0,0,27.34,9a5.93,5.93,0,0,1-6.72,3A6.09,6.09,0,0,1,20.05.34L21,0h2A6.59,6.59,0,0,1,27.8,4.08h8.48c2.14,0,2.77.64,2.77,2.81,0,3.94,0,7.88,0,11.82,0,.39,0,.78,0,1.19h11V14.79c-3.3-1.82-4.6-4.32-3.83-7.36a6.11,6.11,0,0,1,11.82,0c.77,3-.52,5.53-3.79,7.34v5.12h11V18.6c0-3.9,0-7.81,0-11.71,0-2.17.63-2.81,2.77-2.81h8.48A6.55,6.55,0,0,1,81.34,0h2l1.05.37A6.11,6.11,0,0,1,84,12a6.15,6.15,0,0,1-7-3c-.17-.31-.49-.77-.74-.78-2.23-.06-4.46,0-6.7,0V20h5.68c5.51,0,9.21,3.71,9.22,9.2V35h1.28c5.33,0,10.66,0,16,0a2.54,2.54,0,0,1,2.7,1.53v1a2.54,2.54,0,0,1-2.69,1.56c-5.33,0-10.67,0-16,0H84.48V50.12h5.15c.16-.3.29-.57.44-.84a6.11,6.11,0,1,1,6.07,9A6.18,6.18,0,0,1,90,55.05c-.16-.3-.42-.77-.65-.78-1.64-.07-3.29,0-4.91,0v11.1h1.28c5.23,0,10.46,0,15.69,0A3.08,3.08,0,0,1,104.38,66.66ZM24.06,52.09q0,11.5,0,23c0,3.29,1.9,5.2,5.17,5.2H75.09c3.36,0,5.23-1.88,5.23-5.24V29.22c0-3.31-1.87-5.18-5.17-5.18H29.29c-3.39,0-5.23,1.85-5.23,5.22Zm-2-48a2,2,0,1,0,2,2A2.06,2.06,0,0,0,22,4.08Zm60.31,0a2,2,0,1,0,2,2A2.06,2.06,0,0,0,82.34,4.08ZM54.22,9a2,2,0,1,0-2.09,2A2.05,2.05,0,0,0,54.22,9Zm-2,88.47a2,2,0,1,0-2-2.09A2.05,2.05,0,0,0,52.18,97.44Zm-28.13.79A2,2,0,1,0,22,100.3,2.06,2.06,0,0,0,24.05,98.23Zm60.34,0a2,2,0,1,0-2.09,2A2.06,2.06,0,0,0,84.39,98.27ZM9,50.16a2,2,0,0,0-.05,4.06A2,2,0,1,0,9,50.16Zm88.48,2a2,2,0,0,0-2-2,2,2,0,1,0,0,4.06A2,2,0,0,0,97.45,52.16Z"/><path class="cls-1" d="M33.91,70.5H70.46V33.83H69.38c-2.58,0-5.16,0-7.74,0a2.1,2.1,0,0,1-2.31-2.05,2.06,2.06,0,0,1,2.32-2q5.34,0,10.7,0A2,2,0,0,1,74.61,32q0,20.13,0,40.26a2.08,2.08,0,0,1-2.35,2.31H32.11a2.07,2.07,0,0,1-2.34-2.32q0-20.13,0-40.26a2,2,0,0,1,2.28-2.26q5.34,0,10.7,0a2.06,2.06,0,0,1,2.3,2,2.08,2.08,0,0,1-2.32,2c-2.92,0-5.83,0-8.82,0Z"/><path class="cls-1" d="M47.86,42a2.54,2.54,0,0,1,2.69,1.95q2.76,7.32,5.53,14.66c.13.35.28.69.38,1a2,2,0,0,1-1.22,2.56A2,2,0,0,1,52.66,61c-.31-.68-.49-1.42-.83-2.07a1.24,1.24,0,0,0-.85-.61c-1.91,0-3.81,0-5.71,0a1.26,1.26,0,0,0-.86.59,19.61,19.61,0,0,0-.76,1.89,2,2,0,1,1-3.79-1.46c1.41-3.75,2.84-7.48,4.26-11.22.58-1.52,1.16-3,1.75-4.56A2.29,2.29,0,0,1,47.86,42Zm2.2,12.21-1.93-5.1-1.94,5.1Z"/><path class="cls-1" d="M64.75,52.14c0,2.69,0,5.37,0,8a2,2,0,1,1-4.06,0c0-.31,0-.61,0-.92V45.51c0-.44,0-.88,0-1.32a2,2,0,1,1,4.06,0C64.78,46.84,64.75,49.49,64.75,52.14Z"/><path class="cls-1" d="M54.22,31.79a2,2,0,1,1-4.06,0,2,2,0,0,1,4.06,0Z"/></g></g></svg>