<svg xmlns="http://www.w3.org/2000/svg" viewBox="0 0 97.9 97.86"><defs><style>.cls-1{fill:#1dd3f8;}</style></defs><title>NoSql Database</title><g id="Layer_2" data-name="Layer 2"><g id="Layer_1-2" data-name="Layer 1"><path class="cls-1" d="M35.9,75H34.54Q20,75,5.49,75C2,75,0,73.06,0,69.53V57.81c0-3.7,1.89-5.6,5.56-5.62h1V48.93c-.63,0-1.19,0-1.76,0A4.86,4.86,0,0,1,0,44.15Q0,37.52,0,30.9a4.86,4.86,0,0,1,4.84-4.8c.5,0,1,0,1.59,0V22.83c-.55,0-1.11,0-1.68,0A4.87,4.87,0,0,1,0,18.05Q0,11.42,0,4.8A4.88,4.88,0,0,1,5.17,0H63.06c3.47,0,5.45,2,5.46,5.42V17.35c0,3.52-2,5.47-5.49,5.48-.3,0-.6,0-1,0V26.1c.59,0,1.16,0,1.72,0a4.49,4.49,0,0,1,4,2.41,1.53,1.53,0,0,0,1.59.88c6.77.21,13.51.75,20,2.85a30.87,30.87,0,0,1,6,2.86A5.21,5.21,0,0,1,97.9,40q-.08,23.6,0,47.19a5.7,5.7,0,0,1-2.57,5,24.52,24.52,0,0,1-8.9,3.61,88.47,88.47,0,0,1-23.79,2,69.58,69.58,0,0,1-17.58-2.59,33.35,33.35,0,0,1-6-2.56,5.79,5.79,0,0,1-3.24-5.76C36,83,35.9,79.05,35.9,75Zm3.26-14.88c0,3.64.05,7.17,0,10.7a2.45,2.45,0,0,0,1.42,2.57A53.24,53.24,0,0,0,47,76a64.78,64.78,0,0,0,15.38,2.17,85.68,85.68,0,0,0,22.87-1.76,23.91,23.91,0,0,0,8.13-3.12A2.45,2.45,0,0,0,94.63,71c0-3.33,0-6.66,0-10,0-.27,0-.55-.07-.9-4.3,2.39-8.89,3.39-13.57,4.1A93.59,93.59,0,0,1,60.15,65C53,64.49,45.83,63.61,39.16,60.14ZM94.61,44c-1.85.74-3.58,1.54-5.37,2.11a68.84,68.84,0,0,1-18.36,2.78,83.79,83.79,0,0,1-23.37-2c-2.83-.7-5.56-1.81-8.35-2.73,0,3.38,0,7,0,10.56A2.17,2.17,0,0,0,40.36,57,49.57,49.57,0,0,0,47,59.69,73,73,0,0,0,66.86,62a72.27,72.27,0,0,0,20.65-2.48,36.67,36.67,0,0,0,5.94-2.58,2.34,2.34,0,0,0,1.11-1.65C94.66,51.49,94.61,47.72,94.61,44Zm0,32.44c-4.35,2.43-8.94,3.43-13.61,4.14a96.76,96.76,0,0,1-20.83.79,64.09,64.09,0,0,1-15.61-2.64c-1.82-.59-3.57-1.39-5.4-2.11,0,3.53,0,7.09,0,10.65a2.33,2.33,0,0,0,1.31,2.42A50.05,50.05,0,0,0,47,92.31a72.69,72.69,0,0,0,19.87,2.28c6.94,0,13.85-.48,20.55-2.46a38.14,38.14,0,0,0,6-2.61,2.3,2.3,0,0,0,1.1-1.66C94.66,84.1,94.61,80.33,94.61,76.4ZM34.24,19.57H63.08c1.62,0,2.17-.53,2.17-2.11q0-6.06,0-12.13c0-1.51-.57-2.07-2.11-2.07H5.35c-1.52,0-2.07.56-2.07,2.1V17.3c0,1.79.49,2.27,2.31,2.27Zm32.61,13A79.17,79.17,0,0,0,47,34.88a19,19,0,0,0-7,3c-1.14.88-1.17,1.72,0,2.52a17.66,17.66,0,0,0,3.67,1.94,53.77,53.77,0,0,0,15,3A90.49,90.49,0,0,0,84.28,44a25.53,25.53,0,0,0,9-3.27c1.73-1.14,1.8-2.22,0-3.18a33.66,33.66,0,0,0-6.46-2.66C80.3,33.07,73.59,32.67,66.85,32.61ZM62.1,29.36H5.44c-1.64,0-2.16.53-2.16,2.22V43.4c0,1.78.5,2.27,2.32,2.27H34.84c.33,0,.66,0,1.06-.05,0-1.9.08-3.73,0-5.56a5.09,5.09,0,0,1,2.62-5,35.66,35.66,0,0,1,6.55-3C50.58,30.31,56.33,29.76,62.1,29.36ZM35.86,55.5l-.42,0H5.19c-1.32,0-1.9.61-1.91,1.95,0,4,0,8,0,12,0,1.86.48,2.33,2.35,2.33H35.86Zm13-32.6H19.67v3.15H48.9ZM19.63,52.12H35.81V49H19.63ZM9.85,26h6.4V22.89H9.85ZM9.87,49v3.13h6.41V49ZM52.25,26h6.42V22.9H52.25Z"/><path class="cls-1" d="M65.31,75V71.84h3.14V75Z"/><path class="cls-1" d="M65.33,53.86h3.13V57H65.33Z"/><path class="cls-1" d="M65.33,86.49h3.13v3.13H65.33Z"/><path class="cls-1" d="M16.33,11.46c0,1,0,2,0,3.06a1.62,1.62,0,0,1-1.77,1.78q-3.11,0-6.22,0a1.61,1.61,0,0,1-1.78-1.77q0-3.1,0-6.21A1.62,1.62,0,0,1,8.32,6.53q3.11,0,6.21,0A1.63,1.63,0,0,1,16.32,8.3C16.35,9.35,16.33,10.41,16.33,11.46ZM9.82,13H13V9.87H9.82Z"/><path class="cls-1" d="M29.37,11.45c0,1,0,2,0,3,0,1.28-.61,1.89-1.86,1.91-2,0-4,0-6,0a1.67,1.67,0,0,1-1.9-1.87c0-2,0-4,0-6a1.66,1.66,0,0,1,1.86-1.9c2,0,4,0,6,0,1.31,0,1.89.61,1.9,2C29.38,9.48,29.37,10.46,29.37,11.45ZM22.91,9.84V13H26V9.84Z"/><path class="cls-1" d="M32.68,9.72V6.58H55.39V9.72Z"/><path class="cls-1" d="M55.42,13.12v3.14H32.68V13.12Z"/><path class="cls-1" d="M62,6.58V9.71H58.8V6.58Z"/><path class="cls-1" d="M62,13.12v3.14H58.81V13.12Z"/><path class="cls-1" d="M29.37,37.43c0,1,0,2,0,3.06,0,1.28-.6,1.9-1.86,1.91q-3,0-6.11,0a1.65,1.65,0,0,1-1.81-1.85c0-2,0-4.08,0-6.12a1.63,1.63,0,0,1,1.85-1.8c2,0,4.07,0,6.11,0a1.64,1.64,0,0,1,1.81,1.85C29.39,35.46,29.37,36.45,29.37,37.43Zm-6.46-1.5v3.15H26V35.93Z"/><path class="cls-1" d="M16.32,37.61c0,1,0,2,0,3.06a1.61,1.61,0,0,1-1.73,1.73c-2.1,0-4.21,0-6.31,0a1.6,1.6,0,0,1-1.73-1.73q0-3.15,0-6.32a1.59,1.59,0,0,1,1.72-1.72c2.11,0,4.21,0,6.32,0a1.6,1.6,0,0,1,1.73,1.72C16.35,35.44,16.32,36.52,16.32,37.61ZM13,35.94H9.87v3.13H13Z"/><path class="cls-1" d="M16.33,63.64c0,1,0,2,0,3.06a1.62,1.62,0,0,1-1.76,1.79q-3.12,0-6.22,0a1.61,1.61,0,0,1-1.79-1.76c0-2.07,0-4.14,0-6.22a1.61,1.61,0,0,1,1.76-1.79q3.11,0,6.22,0a1.65,1.65,0,0,1,1.79,1.87C16.34,61.6,16.33,62.62,16.33,63.64ZM13,62H9.88v3.12H13Z"/><path class="cls-1" d="M24.49,68.5c-1.06,0-2.11,0-3.16,0a1.6,1.6,0,0,1-1.73-1.72q0-3.15,0-6.32a1.58,1.58,0,0,1,1.72-1.72c2.1,0,4.21,0,6.31,0a1.58,1.58,0,0,1,1.73,1.71c0,2.11,0,4.21,0,6.32a1.59,1.59,0,0,1-1.71,1.73C26.59,68.52,25.54,68.5,24.49,68.5Zm1.58-6.45H22.93v3.14h3.14Z"/></g></g></svg>