<svg xmlns="http://www.w3.org/2000/svg" viewBox="0 0 97.85 97.64"><defs><style>.cls-1{fill:#1dd3f8;}</style></defs><title>Product_management</title><g id="Layer_2" data-name="Layer 2"><g id="Layer_1-2" data-name="Layer 1"><path class="cls-1" d="M22.78,76.44V58.6c-1.5,0-3,0-4.4,0a1.84,1.84,0,0,1-1.88-.93,1.81,1.81,0,0,1,.33-2c2-3,4.05-6,6-9.06a2.21,2.21,0,0,1,2-1.07c2.82,0,5.64,0,8.46,0a3.79,3.79,0,0,0,2.9-2.94,2,2,0,0,0-2.06-1.94c-2,0-4,0-6,0-1.53,0-2.09-.56-2.09-2.08q0-6.06,0-12.11c0-1.53.55-2.08,2.08-2.09,1.94,0,3.88,0,5.81,0a2,2,0,0,0,2.12-1.26,2,2,0,0,0-.62-2.29q-2.1-2.07-4.18-4.17c-1-1-1-1.8,0-2.8Q35.62,9.55,40,5.2c1-1,1.8-1,2.88,0C44.25,6.61,45.62,8,47,9.35a2,2,0,0,0,2.38.63,2,2,0,0,0,1.21-2.15c0-2,0-3.93,0-5.9C50.57.6,51.17,0,52.51,0H64.94c1.33,0,1.92.6,1.93,1.94,0,2,0,3.93,0,5.9A2,2,0,0,0,68.09,10a2,2,0,0,0,2.37-.65c1.38-1.39,2.78-2.79,4.18-4.17a1.67,1.67,0,0,1,2.74,0q4.41,4.38,8.79,8.78c1,1,1,1.78-.06,2.8q-2,2-4,4c-.72.7-1.26,1.43-.81,2.5a2.13,2.13,0,0,0,2.32,1.25c1.91,0,3.81,0,5.71,0,1.39,0,2,.6,2,2q0,6.15,0,12.31c0,1.38-.6,2-2,2-2,0-3.94,0-5.92,0a2,2,0,0,0-2.06,1.18,2.1,2.1,0,0,0,.59,2.39,3.38,3.38,0,0,0,3.16,1.35,23.42,23.42,0,0,1,4.27,0,2.65,2.65,0,0,1,1.77.9c2.17,3.08,4.24,6.22,6.31,9.36.91,1.39.19,2.69-1.47,2.72-1.49,0-3,0-4.65,0V88.8c0,1.88-.47,2.36-2.32,2.36H55.43a18.92,18.92,0,0,1-.21,3,4.56,4.56,0,0,1-4.29,3.47c-6,0-11.89.07-17.83-.18a23.54,23.54,0,0,1-11.68-4.13,3.34,3.34,0,0,0-1.68-.51c-5.84,0-11.68,0-17.53,0C.54,92.78,0,92.26,0,90.62V75.36c0-1.7.77-2.3,2.47-2,5.09,1,10.17,2.1,15.28,3A30,30,0,0,0,22.78,76.44ZM44.67,37c.16.39.29.7.41,1a14.56,14.56,0,0,0,6.12,7.13,3.42,3.42,0,0,0,1.62.44q5.91.06,11.82,0a3.22,3.22,0,0,0,1.52-.4A14.63,14.63,0,0,0,69.9,23.07l-.46-.54L71.54,20a18,18,0,0,1-.42,25.52h7.52a.82.82,0,0,0-.06-.32,5.26,5.26,0,0,1,5.07-7.79c1.45.08,2.9,0,4.35,0V27.68H86.81c-1.29,0-2.58,0-3.87,0a5,5,0,0,1-4.55-3.07,4.82,4.82,0,0,1,.81-5.5c1.16-1.31,2.44-2.51,3.49-3.58l-6.87-7c-1.06,1.08-2.13,2.22-3.24,3.31A5,5,0,0,1,68,13.33a5.17,5.17,0,0,1-4.43-5.28c0-1.57,0-3.15,0-4.71H53.82c0,1.68,0,3.27,0,4.86a5.09,5.09,0,0,1-1.31,3.44,5.17,5.17,0,0,1-7.62.2c-1.16-1.12-2.24-2.32-3.26-3.38l-7.08,7c1.12,1.06,2.33,2.14,3.45,3.31a5.2,5.2,0,0,1-3.76,8.85c-1.62,0-3.23,0-4.83,0v9.64c.09.06.11.1.14.1,1.63,0,3.26,0,4.89,0a5.19,5.19,0,0,1,5,4.08,6,6,0,0,1-.62,4h7.48c-2.65-3-4-5.22-4.58-7.57ZM62.05,52.7V87.82H88V58.6H86.87c-6.48,0-13,0-19.45,0a2.33,2.33,0,0,1-2.2-1.16C64.24,55.92,63.2,54.41,62.05,52.7ZM58.63,87.87V52.73c-1.11,1.64-2.12,3.09-3.05,4.58a2.53,2.53,0,0,1-2.43,1.31c-8.59,0-17.19,0-25.78,0H26.15V76.72a40,40,0,0,1,4.45,1.74c1.4.73,2.64,1.76,4,2.62a2.06,2.06,0,0,0,1,.3c1.76,0,3.53,0,5.29,0a4.71,4.71,0,0,1,4.6,3.76,14.36,14.36,0,0,1,0,2.71Zm-24.36,0h6.18c1.21,0,1.94-.63,1.95-1.61s-.73-1.63-1.92-1.64c-1.8,0-3.6-.05-5.4,0a3.32,3.32,0,0,1-2.54-1c-3.67-3.38-8.09-4.28-12.92-3.83v9.42a10.62,10.62,0,0,1,2.9.89A23.68,23.68,0,0,0,36.2,94.42H49c.55,0,1.09,0,1.63,0a1.6,1.6,0,0,0,1.51-1.62,1.62,1.62,0,0,0-1.53-1.6c-.3,0-.61,0-.92,0H34.27Zm23-39.06H56c-9.41,0-18.82,0-28.23-.05-1.75,0-2.9.36-3.72,2a39.39,39.39,0,0,1-2.45,3.74c-.16.24-.29.5-.44.77l.19,0q15.54,0,31.09,0a1,1,0,0,0,.76-.33C54.52,53,55.84,51,57.29,48.84Zm6.11,0c1.38,2.07,2.66,3.94,3.88,5.84a1.36,1.36,0,0,0,1.32.68c7.89,0,15.77,0,23.65,0,.25,0,.5,0,.89-.06-1.33-2-2.59-3.82-3.78-5.71a1.53,1.53,0,0,0-1.49-.76c-6.42,0-12.84,0-19.26,0Zm-60.08,28V89.46h13c0-3.18,0-6.3,0-9.41a.87.87,0,0,0-.51-.66C11.66,78.53,7.54,77.72,3.32,76.88Z"/><path class="cls-1" d="M58.74,22.79a9.77,9.77,0,1,1-9.81,9.64A9.79,9.79,0,0,1,58.74,22.79Zm6.5,9.77a6.53,6.53,0,1,0-6.56,6.51A6.53,6.53,0,0,0,65.24,32.56Z"/><path class="cls-1" d="M40.86,71.66H52.13v3.17H40.86Z"/><path class="cls-1" d="M35.93,68.3V65.17h6.39V68.3Z"/><path class="cls-1" d="M32.69,71.67h4.77V74.8H32.69Z"/><path class="cls-1" d="M48.87,68.32H45.74V65.18h3.13Z"/></g></g></svg>