<svg xmlns="http://www.w3.org/2000/svg" viewBox="0 0 97.89 97.9"><defs><style>.cls-1{fill:#1dd3f8;}</style></defs><title>RPA Solution</title><g id="Layer_2" data-name="Layer 2"><g id="Layer_1-2" data-name="Layer 1"><path class="cls-1" d="M91.31,78.32v3.19a49.17,49.17,0,0,1-5.7-.05,4.7,4.7,0,0,1-4-4.77c0-2.08,0-4.15,0-6.22,0-1.29-.59-1.92-1.84-1.93-4.11,0-8.22,0-12.33,0-.13,0-.26,0-.44,0V71.8c1.51,0,3.06,0,4.61,0a4.88,4.88,0,0,1,3.3,1.11,5,5,0,0,1,1.82,4q0,7.75,0,15.5c0,1.67.52,2.19,2.18,2.19H91.27v3.21c-.27,0-.56,0-.85,0q-5.86,0-11.73,0a4.92,4.92,0,0,1-5.28-5.28V77.32c0-1.75-.5-2.25-2.23-2.26H67.13c-.25,1-.23,2.12-.78,2.68s-1.7.56-2.72.85c0,.29,0,.75,0,1.22a1.64,1.64,0,0,0,1.79,1.77c1.52,0,3,0,4.65,0v3.19a48.38,48.38,0,0,1-5.65,0A4.71,4.71,0,0,1,60.37,80c0-.51,0-1,0-1.57H57.1V92.46c0,1.65.54,2.17,2.21,2.17H70.08v3.22c-.33,0-.66,0-1,0-3.16,0-6.32,0-9.48,0-3.89,0-5.77-1.85-5.77-5.71V78.38H50.63V88H47.35V78.4H44.07V97.84H40.83V78.39h-3.3c0,3.08,0,6.13,0,9.18a7.51,7.51,0,0,1-.16,1.71A4.8,4.8,0,0,1,32.8,93c-1.63,0-3.26,0-5,0V89.74h4.31c1.59,0,2.13-.55,2.13-2.16v-9c-1-.27-2.12-.26-2.71-.82s-.53-1.64-.8-2.65c-1.53,0-3.29-.1-5,0-1,.09-1.26,1-1.25,1.93,0,3.91,0,7.82,0,11.73,0,1.46,0,2.92,0,4.38a4.81,4.81,0,0,1-4.63,4.68c-4.38.07-8.76,0-13.22,0V94.63h12c2.24,0,2.62-.38,2.62-2.57V77.17c0-3.38,2-5.36,5.4-5.37h4.32V68.54H27.48c-3,0-6.05,0-9.07,0-1.53,0-2.07.56-2.08,2.1,0,2,0,3.94,0,5.91a4.89,4.89,0,0,1-5,5c-1.55,0-3.1,0-4.71,0V78.32c1.45,0,2.89,0,4.34,0s2.13-.54,2.14-2.14c0-1.94,0-3.88,0-5.81a4.88,4.88,0,0,1,5.06-5.09c4.25,0,8.49,0,12.81,0V62.05H.1V58.78H31V55.54h-8V52.26h8V49H29.85c-5.26,0-10.53-.13-15.79,0-8,.23-12.65-5-13.72-11.28A18.79,18.79,0,0,1,2.06,25.44,11.4,11.4,0,0,1,7.7,20.21a1.66,1.66,0,0,0,.83-.88c2.07-5.91,9.11-10.26,15.35-9.4a28.25,28.25,0,0,1,4.06.88,1.11,1.11,0,0,0,1.44-.43A27,27,0,0,1,38.3,2.77c7.85-4,15.65-3.45,23.35.43a24.58,24.58,0,0,1,8.52,7.14c.44.58.79.58,1.43.37C76,9.22,80.23,9.43,84,12.5a11,11,0,0,1,3.85,6.43c.12.53.26.79.85.92a11.48,11.48,0,0,1,9.14,12.61,17.93,17.93,0,0,1-14.7,16.2,20.16,20.16,0,0,1-3.64.29C75.34,49,71.2,49,67,49V52.2h8v3.24H67v3.28H97.8V62H66.94v3.28H68c3.84,0,7.68,0,11.52,0a4.92,4.92,0,0,1,5.3,5.26c0,1.94,0,3.87,0,5.81,0,1.39.6,2,2,2S89.75,78.32,91.31,78.32Zm-74-47.06c.42-.31.76-.53,1.07-.79,3.1-2.58,2.6-7.44-1-8.93a5.85,5.85,0,0,0-6.17.67,4.14,4.14,0,0,1-1.24.67,8.44,8.44,0,0,0-5.43,5,15.8,15.8,0,0,0-.91,9.48c.85,4.26,3.72,8.56,10.36,8.37,5.29-.16,10.6,0,15.9,0h.87c.3-1.05.3-2.19.87-2.74s1.72-.51,2.63-.73c.18-2.68-.16-3-2.86-3H13.13V35.94c6.72,0,13.38-.07,20,0a4.72,4.72,0,0,1,4.36,4.61c0,.59,0,1.19,0,1.77h3.31V32.73h3.28v9.65h3.24V13.13h3.24V42.37h3.28V32.72h3.28v9.67h3.22c0-1.61,0-3.17,0-4.72a4.89,4.89,0,0,1,5-5H75v3.26H73.8c-2.75,0-5.5,0-8.26,0-.92,0-1.75.34-1.82,1.26-.14,1.74,0,3.49,0,5,1,.28,2.13.26,2.65.81s.55,1.7.81,2.7H79.72A14.7,14.7,0,0,0,94.56,32.39a8.31,8.31,0,0,0-5.31-9c-.4-.14-.82-.22-1.22-.33-1.29,4.11-3.83,6.32-7.32,6.42-2.95.09-6.06-1.78-7-4.26l2.69-1.43c.27.35.47.66.72.93a4.2,4.2,0,0,0,4.52,1.35,4.14,4.14,0,0,0,3.14-3.52,8.24,8.24,0,0,0-6.55-9.28,10.84,10.84,0,0,0-6.92,1.08,2.09,2.09,0,0,1-2.52-.24,5.74,5.74,0,0,0-6-.81,4.86,4.86,0,0,0-3.16,5.61,6,6,0,0,0,3,4.19l-1.43,2.8a8.76,8.76,0,0,1-4.92-8.36c.47-5.14,3.68-7.47,8.73-8-5.6-4.64-11.73-6.9-18.82-6a19.83,19.83,0,0,0-11.78,6c5.34.6,8.2,3.22,8.67,7.78.35,3.44-2,7.55-5,8.5L36.84,23.1l.45-.34c.14-.1.29-.19.42-.29a5.59,5.59,0,0,0,2.19-5.11c-.43-4.49-6.21-5.64-8.85-3.49a2.79,2.79,0,0,1-3.25.36c-3.28-1.34-6.62-1.73-10-.11a12.68,12.68,0,0,0-4.64,3.59c6.45.46,9.56,2.55,10.26,6.81.66,4-1.37,8.05-4.8,9.5ZM63.58,45.78H34.35V75H63.58Z"/><path class="cls-1" d="M16.39,52.28h3.12v3.14H16.39Z"/><path class="cls-1" d="M81.52,55.45H78.37V52.29h3.15Z"/><path class="cls-1" d="M3.2,81.56H.1V78.39H3.2Z"/><path class="cls-1" d="M97.79,81.56h-3.1V78.39h3.1Z"/><path class="cls-1" d="M50.53,91.42v3.14H47.38V91.42Z"/><path class="cls-1" d="M3.22,97.85H.09V94.7H3.22Z"/><path class="cls-1" d="M97.79,97.87h-3.1V94.7h3.1Z"/><path class="cls-1" d="M47.37,6.61H50.5V9.76H47.37Z"/><path class="cls-1" d="M40.87,26.17H44v3.17H40.87Z"/><path class="cls-1" d="M53.86,29.31v-3.1H57v3.1Z"/><path class="cls-1" d="M81.53,32.74v3.12H78.36V32.74Z"/><path class="cls-1" d="M6.62,36H9.74v3.17H6.62Z"/><path class="cls-1" d="M44.1,55.49V52.23c1.82,0,3.64,0,5.46,0a1.68,1.68,0,0,0,1.84-1,4.62,4.62,0,0,1,5-2.23,4.94,4.94,0,0,1,4,4A4.71,4.71,0,0,1,58,58a1.47,1.47,0,0,0-.88,1.58c0,3.66,0,7.33,0,11v1.17H53.84V68.48c0-3.06,0-6.12,0-9.17a1.23,1.23,0,0,0-.65-1.2,7.69,7.69,0,0,1-2-2,1.24,1.24,0,0,0-1.2-.66C48.07,55.51,46.11,55.49,44.1,55.49Zm13-1.67a1.63,1.63,0,1,0-1.56,1.66A1.64,1.64,0,0,0,57.1,53.82Z"/><path class="cls-1" d="M37.6,52.28h3.14v3.13H37.6Z"/></g></g></svg>