<svg xmlns="http://www.w3.org/2000/svg" viewBox="0 0 97.87 97.81"><defs><style>.cls-1{fill:#1dd3f8;}</style></defs><title>SAP ERP Software</title><g id="Layer_2" data-name="Layer 2"><g id="Layer_1-2" data-name="Layer 1"><path class="cls-1" d="M25.08,24.11l2-2.54L32.62,26V23.32c0-1.54.55-2.11,2.06-2.11q14.28,0,28.54,0c1.45,0,2,.58,2,2.05,0,.75,0,1.5,0,2.25,0,.06,0,.13.06.4l5.43-4.33,2.05,2.52-4.32,3.46c-1,.86-2.52,1.52-3,2.63s-.18,2.72-.19,4.11v13H75v3.28H65.24v1c0,5.09,0,10.19,0,15.28a1.62,1.62,0,0,0,.72,1.44c2.27,1.78,4.51,3.6,6.85,5.47l-2,2.53-5.51-4.38c0,1.11,0,2,0,2.92a1.65,1.65,0,0,1-1.84,1.82H34.45a1.65,1.65,0,0,1-1.83-1.83c0-.44,0-.89,0-1.33V71.91l-5.49,4.38-2.05-2.53c2.09-1.67,4.07-3.36,6.17-4.89a3.19,3.19,0,0,0,1.4-3c-.07-5.06,0-10.12,0-15.3H22.91V47.34h9.65c0-.36.06-.65.06-.94,0-5.13,0-10.26,0-15.39a1.62,1.62,0,0,0-.71-1.44C29.66,27.79,27.42,26,25.08,24.11ZM61.9,34.21V24.55h-26v9.66Zm-26,13h26V37.58h-26Zm26,3.39H36v9.65h26Zm-26,22.69h26V63.66h-26Z"/><path class="cls-1" d="M21.27,17.93H24.4v3.22H14.76V18h3.13V14.68H13.68c-2.65,0-3.89-1.22-3.89-3.84,0-2.44,0-4.89,0-7.34A3.25,3.25,0,0,1,13.3,0H25.83a3.27,3.27,0,0,1,3.53,3.48c0,2.58,0,5.17,0,7.75a3.27,3.27,0,0,1-3.47,3.44H21.27ZM26.05,3.34H13.13v8H26.05Z"/><path class="cls-1" d="M83.14,17.91v3.23H73.45V18h3.14V14.68H72.11a3.31,3.31,0,0,1-3.61-3.61V3.63A3.28,3.28,0,0,1,72.08,0H84.52a3.28,3.28,0,0,1,3.55,3.55c0,2.52,0,5,0,7.55a3.28,3.28,0,0,1-3.54,3.57H80v3.23ZM71.81,11.35H84.73v-8H71.81Z"/><path class="cls-1" d="M11.47,53.83v3.23h3.14v3.23H5V57.12H8.1V53.83h-4c-3,0-4.1-1.14-4.1-4.14,0-2.34,0-4.69,0-7A3.25,3.25,0,0,1,3.5,39.15H16a3.28,3.28,0,0,1,3.53,3.57c0,2.52,0,5,0,7.55A3.27,3.27,0,0,1,16,53.82ZM3.34,42.45v8H16.26v-8Z"/><path class="cls-1" d="M89.75,55.46V58.7h3.16V62H83.24V58.74h3.13V55.46H81.92a3.31,3.31,0,0,1-3.63-3.59q0-3.78,0-7.54a3.27,3.27,0,0,1,3.56-3.55H94.28a3.29,3.29,0,0,1,3.58,3.54c0,2.55,0,5.09,0,7.64a3.27,3.27,0,0,1-3.52,3.49C92.85,55.47,91.35,55.46,89.75,55.46Zm-8.16-3.35h13v-8h-13Z"/><path class="cls-1" d="M21.25,91.41v3.15h3.14v3.23H14.74V94.65h3.14V91.34H13.4a3.31,3.31,0,0,1-3.61-3.61c0-2.51,0-5,0-7.54a3.28,3.28,0,0,1,3.58-3.53H25.8a3.29,3.29,0,0,1,3.56,3.56q0,3.77,0,7.54a3.3,3.3,0,0,1-3.64,3.58H21.54C21.48,91.35,21.41,91.38,21.25,91.41ZM13.1,88H26V80H13.1Z"/><path class="cls-1" d="M79.94,91.34v3.21h3.17v3.26H73.47V94.62h3.14V91.34H72.38c-2.64,0-3.87-1.23-3.88-3.85,0-2.45,0-4.9,0-7.34A3.25,3.25,0,0,1,72,76.66H84.56a3.27,3.27,0,0,1,3.51,3.5c0,2.58,0,5.16,0,7.74a3.26,3.26,0,0,1-3.47,3.43C83.08,91.35,81.55,91.34,79.94,91.34ZM71.81,88H84.73V80H71.81Z"/><path class="cls-1" d="M58.67,27.8v3.14H45.75V27.8Z"/><path class="cls-1" d="M39.19,30.92V27.79h3.14v3.13Z"/><path class="cls-1" d="M58.67,40.85V44H45.75V40.85Z"/><path class="cls-1" d="M42.35,44H39.22V40.85h3.13Z"/><path class="cls-1" d="M45.72,57V53.88H58.63V57Z"/><path class="cls-1" d="M39.19,57V53.88h3.14V57Z"/><path class="cls-1" d="M58.67,66.94v3.14H45.75V66.94Z"/><path class="cls-1" d="M42.33,70.1H39.21V66.92h3.12Z"/></g></g></svg>