<svg xmlns="http://www.w3.org/2000/svg" viewBox="0 0 104.18 97.65"><defs><style>.cls-1{fill:#1dd3f8;}</style></defs><title>UX Design</title><g id="Layer_2" data-name="Layer 2"><g id="Layer_1-2" data-name="Layer 1"><path class="cls-1" d="M0,4.46c.11-.23.23-.47.33-.71A5.58,5.58,0,0,1,5.42,0H98.2a5.83,5.83,0,0,1,4.4,1.74,5.24,5.24,0,0,1,1.56,3.66c0,5.63,0,11.25,0,16.88A1.54,1.54,0,0,1,102.69,24c-.93,0-1.55-.65-1.56-1.74,0-2.23,0-4.46,0-6.77H3.05V37.56c0,.2,0,.41,0,.61.05.87-.09,1.66-1,2S.5,40,0,39.26ZM3.06,12.3h98.06c0-2.31,0-4.55,0-6.78a2.32,2.32,0,0,0-.77-1.67,5,5,0,0,0-2.52-.76Q52.07,3,6.37,3.06a6.91,6.91,0,0,0-1,0A2.45,2.45,0,0,0,3.08,5.44C3,7.7,3.06,10,3.06,12.3Z"/><path class="cls-1" d="M0,45.36c.52-.67,1.08-1.25,2-.89s1,1.13,1,2q0,12.36,0,24.71c0,2.35.91,3.26,3.26,3.26H97.85c2.35,0,3.27-.91,3.27-3.24q0-20.39,0-40.78a5.78,5.78,0,0,1,0-1,1.42,1.42,0,0,1,1.45-1.31,1.44,1.44,0,0,1,1.55,1.3,4.7,4.7,0,0,1,0,.92v41c0,3.89-2.3,6.19-6.2,6.19q-45.41,0-90.83,0c-3.49,0-6-1.08-7.15-4.5Z"/><path class="cls-1" d="M19.32,50.6V45.24c0-1.84.44-2.28,2.27-2.28H50.5V38.84H42.21c-1.37,0-1.92-.54-1.92-1.9q0-7.83,0-15.66c0-1.39.53-1.94,1.88-1.94q9.91,0,19.83,0c1.36,0,1.89.55,1.89,1.94V36.94c0,1.36-.55,1.89-1.93,1.9H53.68V43H82.49c2,0,2.36.4,2.36,2.39V50.6h8.24c1.58,0,2,.47,2,2.08q0,7.68,0,15.36c0,1.54-.48,2-2,2H73.51c-1.49,0-2-.47-2-1.94q0-7.79,0-15.56c0-1.49.47-2,1.95-2h8.26V46.08h-28V50.6h8.34c1.28,0,1.83.53,1.83,1.77q0,8,0,16a1.51,1.51,0,0,1-1.67,1.72H42a1.51,1.51,0,0,1-1.67-1.73q0-8,0-16A1.52,1.52,0,0,1,42,50.61c2.44,0,4.88,0,7.32,0H50.5V46.07h-28V50.6h8.24c1.47,0,1.95.48,1.95,2,0,5.19,0,10.38,0,15.56v.21c-.06,1.21-.54,1.73-1.77,1.73h-20c-1.26,0-1.78-.54-1.79-1.83q0-7.88,0-15.76c0-1.38.52-1.86,2-1.87h8.33ZM43.38,35.73H60.76V22.44H43.38Zm-13.85,18H12.15V66.93H29.53ZM74.65,66.92H92V53.74H74.65ZM60.78,67V53.73H43.41V67Z"/><path class="cls-1" d="M13.17,90.13c1.74,1.44,3.34,2.79,5,4.11a1.74,1.74,0,0,0,1,.33q29.1,0,58.18,0c.14,0,.27,0,.49,0V91.73c-.43,0-.89-.06-1.35-.06H21.66a7.08,7.08,0,0,1-1.22,0,1.49,1.49,0,0,1,0-3,11.4,11.4,0,0,1,1.31,0H77.86V85.68h-12c-1.26,0-2-.58-1.94-1.55s.71-1.49,1.92-1.49q13.59,0,27.16,0c1.43,0,2,.53,2,2,0,3.59,0,7.19,0,10.78,0,1.77-.47,2.24-2.22,2.24H62.4q-21.78,0-43.54,0a3.55,3.55,0,0,1-2.49-.88c-2-1.74-4.12-3.43-6.18-5.14-1.25-1-1.25-1.95,0-3,2.13-1.78,4.25-3.58,6.44-5.3a3.21,3.21,0,0,1,1.82-.68q19.68-.06,39.36,0a3,3,0,0,1,.9.09,1.5,1.5,0,0,1-.21,2.93,10.47,10.47,0,0,1-1.12,0q-18.87,0-37.74,0a2.81,2.81,0,0,0-2,.74C16.21,87.66,14.73,88.84,13.17,90.13ZM81,85.73v8.81H91.8V85.73Z"/><path class="cls-1" d="M10,5.68a2,2,0,1,1-2,2.06A2,2,0,0,1,10,5.68Z"/><path class="cls-1" d="M26.8,5.68a2,2,0,1,1,0,4.07,2,2,0,0,1,0-4.07Z"/><path class="cls-1" d="M20.4,7.67a2,2,0,0,1-2,2.08,2.09,2.09,0,0,1-2.08-2,2.06,2.06,0,0,1,2-2A2,2,0,0,1,20.4,7.67Z"/><path class="cls-1" d="M52,27.52c-1.62,0-3.25,0-4.87,0-1.1,0-1.78-.64-1.76-1.54a1.56,1.56,0,0,1,1.72-1.49q4.92,0,9.85,0A1.56,1.56,0,0,1,58.72,26,1.53,1.53,0,0,1,57,27.51C55.35,27.54,53.69,27.52,52,27.52Z"/><path class="cls-1" d="M52.09,30.66c1.62,0,3.25,0,4.87,0,1.11,0,1.78.62,1.76,1.53A1.56,1.56,0,0,1,57,33.7c-3.28,0-6.57,0-9.85,0a1.57,1.57,0,0,1-1.76-1.56c0-.89.7-1.46,1.81-1.48C48.84,30.65,50.46,30.66,52.09,30.66Z"/><path class="cls-1" d="M20.83,64.92c-1.63,0-3.25,0-4.88,0-1.13,0-1.75-.57-1.74-1.52a1.5,1.5,0,0,1,1.68-1.51c3.32,0,6.63,0,10,0a1.5,1.5,0,0,1,1.64,1.55c0,.9-.62,1.47-1.68,1.48C24.14,64.93,22.49,64.92,20.83,64.92Z"/><path class="cls-1" d="M20.85,55.73h4.88c1.11,0,1.76.59,1.76,1.52s-.67,1.52-1.77,1.53H16c-1.12,0-1.76-.6-1.76-1.54s.64-1.5,1.77-1.51Z"/><path class="cls-1" d="M83.41,64.92c-1.65,0-3.31,0-5,0-1.12,0-1.76-.58-1.75-1.52a1.52,1.52,0,0,1,1.68-1.51c3.32,0,6.63,0,9.95,0A1.49,1.49,0,0,1,90,63.42c0,.92-.61,1.48-1.67,1.49C86.66,64.93,85,64.92,83.41,64.92Z"/><path class="cls-1" d="M83.42,55.73H88.2c1.13,0,1.76.57,1.77,1.51s-.65,1.53-1.76,1.54H78.46c-1.11,0-1.77-.6-1.77-1.53s.65-1.51,1.76-1.52Z"/><path class="cls-1" d="M52,58.78H47.31c-1.17,0-1.89-.61-1.89-1.53s.71-1.52,1.89-1.52h9.55c1.19,0,1.9.59,1.9,1.52s-.73,1.52-1.9,1.53Z"/><path class="cls-1" d="M52.08,64.92c-1.63,0-3.25,0-4.88,0-1.09,0-1.78-.6-1.78-1.51a1.6,1.6,0,0,1,1.8-1.53H57a1.59,1.59,0,0,1,1.78,1.55c0,.9-.68,1.49-1.79,1.5C55.33,64.93,53.71,64.92,52.08,64.92Z"/></g></g></svg>