<svg xmlns="http://www.w3.org/2000/svg" viewBox="0 0 16 16"><defs><style>.cls-1{fill:#b56cf7;}.cls-2{fill:#1a2089;}.cls-3{fill:#5d4efa;}.cls-4{fill:#4cc2fc;}</style></defs><title>favicon_1</title><g id="Layer_2" data-name="Layer 2"><g id="Layer_1-2" data-name="Layer 1"><path class="cls-1" d="M15.81,5.15a1.61,1.61,0,0,0-1.59-.94,1.63,1.63,0,0,1-.54,0,2.19,2.19,0,0,1-.9-.55,2.43,2.43,0,0,1-1-2A1.36,1.36,0,0,0,11.24.46,1.65,1.65,0,0,0,9,.39a1.62,1.62,0,0,0-.43,2.06,1.54,1.54,0,0,0,1.44.89,2.1,2.1,0,0,1,1.67.7,4.68,4.68,0,0,0,.43.46,2.24,2.24,0,0,1,.26,2.38c-.58.82-1.22,1.61-2.39,1.53H9.93A1.6,1.6,0,0,0,8.51,9.55a1.56,1.56,0,0,0,.43,1.75,1.6,1.6,0,0,0,1.77.34,1.61,1.61,0,0,0,1-1.59,1.77,1.77,0,0,1,.37-1.2,5.73,5.73,0,0,1,.63-.67,1.91,1.91,0,0,1,1.55-.62A1.54,1.54,0,0,0,15.58,7,1.63,1.63,0,0,0,15.81,5.15ZM10.65,2.23a.78.78,0,0,1-1.09,0,.77.77,0,0,1,0-1.1.76.76,0,0,1,1.1,0A.76.76,0,0,1,10.65,2.23Zm0,8.41a.78.78,0,0,1-1.09,0,.77.77,0,0,1,0-1.1.78.78,0,0,1,1.08,0A.77.77,0,0,1,10.63,10.64Zm4.23-4.23a.76.76,0,0,1-1.09,0,.77.77,0,0,1,0-1.12.78.78,0,0,1,1.09,1.11Z"/><path class="cls-2" d="M5.88,12.61a1.83,1.83,0,0,1-1.16-.33c-.19-.14-.36-.3-.53-.45h0L4,11.61a2.21,2.21,0,0,1-.13-2.93A2.8,2.8,0,0,1,6,7.54,1.63,1.63,0,0,0,7.47,5.29a1.66,1.66,0,0,0-2.13-1A1.61,1.61,0,0,0,4.23,5.94a1.88,1.88,0,0,1-.54,1.39c-.2.21-.4.41-.62.61a1.66,1.66,0,0,1-1.24.47,1.69,1.69,0,0,0-1.32.51,1.67,1.67,0,0,0,1.24,2.84,1.74,1.74,0,0,1,1.11.31,4.84,4.84,0,0,1,1.06,1.06,1.84,1.84,0,0,1,.3,1.17,1.66,1.66,0,0,0,1.32,1.63,1.68,1.68,0,1,0,.34-3.32ZM5.34,5.32a.8.8,0,0,1,1.11,0,.77.77,0,0,1,0,1.09.74.74,0,0,1-1.08,0A.77.77,0,0,1,5.34,5.32Zm-3.09,5.3a.78.78,0,0,1-1.1,0A.77.77,0,1,1,2.24,9.54.76.76,0,0,1,2.25,10.62Zm4.19,4.2a.77.77,0,1,1,0-1.08A.74.74,0,0,1,6.44,14.82Z"/><path class="cls-3" d="M15.1,8.64a1.68,1.68,0,0,0-2.46,1.51,1.91,1.91,0,0,1-.32,1.16c-.14.18-.31.35-.46.53h0l-.2.21a2.23,2.23,0,0,1-2.94.12A2.8,2.8,0,0,1,7.57,10,1.63,1.63,0,0,0,5.32,8.56a1.67,1.67,0,0,0-1,2.13A1.63,1.63,0,0,0,6,11.79a1.93,1.93,0,0,1,1.39.54L8,13a1.68,1.68,0,0,1,.47,1.24A1.65,1.65,0,0,0,9,15.51a1.6,1.6,0,0,0,1.65.42,1.63,1.63,0,0,0,1.18-1.66,1.71,1.71,0,0,1,.31-1.1,4.84,4.84,0,0,1,1.06-1.06,1.88,1.88,0,0,1,1.18-.31A1.64,1.64,0,0,0,16,10.49,1.68,1.68,0,0,0,15.1,8.64Zm-8.61,2a.8.8,0,0,1-1.13,0A.78.78,0,0,1,6.45,9.56.75.75,0,0,1,6.49,10.65Zm4.17,4.22a.77.77,0,1,1-1.09-1.09.77.77,0,1,1,1.09,1.09Zm4.21-4.2a.78.78,0,0,1-1.1,0,.78.78,0,0,1,0-1.1.77.77,0,0,1,1.09,0A.78.78,0,0,1,14.87,10.67Z"/><path class="cls-4" d="M11.7,5.35a1.63,1.63,0,0,0-1.61-1.14,2.07,2.07,0,0,1-1.48-.57A2.62,2.62,0,0,1,7.55,1.52,1.56,1.56,0,0,0,6.22,0,1.67,1.67,0,0,0,4.4.91a1.54,1.54,0,0,0-.18.87,1.63,1.63,0,0,1-.31,1.06A4.64,4.64,0,0,1,2.85,3.9a1.88,1.88,0,0,1-1.18.31A1.63,1.63,0,0,0,.05,5.49a1.68,1.68,0,1,0,3.31.36,2,2,0,0,1,.18-.94,4.58,4.58,0,0,1,.64-.8l.37-.33A2.18,2.18,0,0,1,7,3.6,4.15,4.15,0,0,1,8.15,4.77a1.66,1.66,0,0,1,.27,1,1.62,1.62,0,0,0,.73,1.49A1.69,1.69,0,0,0,11.7,5.35ZM2.24,6.41a.76.76,0,0,1-1.1,0,.75.75,0,0,1,0-1.09.78.78,0,0,1,1.1,0A.74.74,0,0,1,2.24,6.41Zm4.2-4.19a.78.78,0,0,1-1.1,0A.78.78,0,1,1,6.47,1.15.76.76,0,0,1,6.44,2.22Zm4.22,4.2a.78.78,0,0,1-1.11-1.1.81.81,0,0,1,1.11,0A.78.78,0,0,1,10.66,6.42Z"/><path class="cls-2" d="M.4,13.88a1.08,1.08,0,0,1,1.55,0,1.08,1.08,0,0,1,0,1.55,1.08,1.08,0,0,1-1.55,0A1.06,1.06,0,0,1,.4,13.88Z"/><path class="cls-2" d="M1.53,14.29a.51.51,0,0,0-.74,0A.53.53,0,0,0,.8,15a.51.51,0,0,0,.72,0A.52.52,0,0,0,1.53,14.29Z"/><path class="cls-4" d="M.4.33A1.09,1.09,0,0,1,2,.34a1.08,1.08,0,0,1,0,1.55,1.08,1.08,0,0,1-1.55,0A1.06,1.06,0,0,1,.4.33Z"/><path class="cls-4" d="M1.53.74a.53.53,0,0,0-.74,0,.53.53,0,0,0,0,.75.51.51,0,0,0,.72,0A.52.52,0,0,0,1.53.74Z"/><path class="cls-3" d="M14,13.88a1.09,1.09,0,1,1,0,1.53A1.08,1.08,0,0,1,14,13.88Z"/><path class="cls-3" d="M15.13,14.29a.51.51,0,0,0-.74,0,.53.53,0,0,0,0,.75.52.52,0,0,0,.73,0A.53.53,0,0,0,15.13,14.29Z"/><path class="cls-1" d="M14,.34a1.09,1.09,0,0,1,1.55,0,1.07,1.07,0,0,1,0,1.52,1.07,1.07,0,0,1-1.55,0A1.06,1.06,0,0,1,14,.34Z"/><path class="cls-1" d="M15.15.74a.53.53,0,0,0-.75,0,.54.54,0,0,0,0,.75.52.52,0,0,0,.74,0A.54.54,0,0,0,15.15.74Z"/></g></g></svg>