<svg xmlns="http://www.w3.org/2000/svg" viewBox="0 0 157.91 176.73"><defs><style>.cls-1{fill:#1a2089;}</style></defs><title>get_in_touch</title><g id="Layer_2" data-name="Layer 2"><g id="Layer_1-2" data-name="Layer 1"><path class="cls-1" d="M103.11,0c.47.17.93.36,1.42.51a12.82,12.82,0,0,1,9.3,12.12c.07,2.62,0,5.26,0,8.07h40.32c3,0,3.74.78,3.74,3.81v70c0,3-.77,3.8-3.74,3.8H113.86v2.22c0,20.64-.16,41.28.08,61.91.1,8.27-6,14.33-14.35,14.27-28.4-.2-56.8-.07-85.2-.08C5.24,176.65,0,171.38,0,162.18V15.75C0,6.49,2.37,3.09,11,0Zm5.57,20.63c0-2.37,0-4.55,0-6.73,0-5.68-3.05-8.72-8.73-8.72H13.87c-5.52,0-8.69,3.13-8.69,8.63q0,74.52,0,149c0,5.49,3.18,8.63,8.7,8.63H100c5.67,0,8.72-3,8.72-8.74q0-31.22,0-62.44V98.48h-5.17V141.9c0,2.95-.74,3.7-3.63,3.7H14c-2.78,0-3.61-.82-3.62-3.58q0-20.09,0-40.19a5.6,5.6,0,0,1,.2-1.69,2.34,2.34,0,0,1,2.63-1.77,2.39,2.39,0,0,1,2.29,2.2,12.28,12.28,0,0,1,0,1.72q0,18,0,36.05v2H98.21v-42H47.74c-2.94,0-3.69-.73-3.69-3.63V24.32c0-2.89.75-3.62,3.7-3.62h50.5V15.64H15.53V18q0,36,0,71.93c0,2.06-.92,3.22-2.51,3.24S10.36,92,10.36,90q0-38.2,0-76.42c0-2.31.94-3.21,3.28-3.21h86.59c2.43,0,3.26.87,3.28,3.36,0,2.28,0,4.56,0,6.92Zm44,5.34H49.25a7.76,7.76,0,0,0,3.37,6.36L95.27,64.82c4.09,3.12,7.31,3.11,11.41,0L124,51.64q12.42-9.47,24.84-18.9C151,31,152.62,29,152.65,26Zm0,67.1a8.16,8.16,0,0,0-3.5-6.45q-9.9-7.5-19.76-15l-11.55-8.8c-2.63,2-5.19,3.93-7.74,5.89-6.46,4.93-11.87,4.94-18.33,0-2.59-2-5.19-3.94-7.79-5.91C73.33,70.93,62.76,79,52.22,87a7.33,7.33,0,0,0-3,6ZM122.14,59.52,152.6,82.71V36.31ZM49.33,36.33V82.7L79.77,59.52Z"/><path class="cls-1" d="M57.05,150.78c3.33,0,6.66,0,10,0a7.76,7.76,0,1,1,.08,15.51q-10.17.06-20.34,0a7.76,7.76,0,1,1,.09-15.51C50.27,150.76,53.66,150.78,57.05,150.78Zm-.18,10.35c3.27,0,6.54,0,9.82,0,2,0,3.21-1,3.21-2.57S68.69,156,66.7,156q-9.73,0-19.46,0c-2,0-3.17.95-3.18,2.57s1.13,2.58,3.16,2.59C50.44,161.14,53.65,161.13,56.87,161.13Z"/></g></g></svg>