<svg xmlns="http://www.w3.org/2000/svg" viewBox="0 0 134.5 146.41"><defs><style>.cls-1,.cls-9{opacity:0.2;}.cls-2,.cls-3,.cls-4,.cls-5,.cls-6,.cls-7,.cls-8{fill:#b56cf7;}.cls-3{opacity:0.83;}.cls-4{opacity:0.67;}.cls-16,.cls-221,.cls-5{opacity:0.5;}.cls-6{opacity:0.33;}.cls-7{opacity:0.17;}.cls-219,.cls-8{opacity:0;}.cls-10,.cls-221{fill:#4cc2fc;}.cls-11{fill:#96aac9;}.cls-12{fill:#0eb5e3;}.cls-13{isolation:isolate;}.cls-14{fill:#5d4efa;}.cls-15{fill:#f7f7f7;}.cls-17{fill:#c5f9ff;}.cls-100,.cls-102,.cls-104,.cls-106,.cls-108,.cls-110,.cls-112,.cls-114,.cls-116,.cls-118,.cls-120,.cls-122,.cls-124,.cls-126,.cls-128,.cls-130,.cls-132,.cls-134,.cls-136,.cls-138,.cls-140,.cls-142,.cls-144,.cls-146,.cls-148,.cls-150,.cls-152,.cls-154,.cls-156,.cls-158,.cls-160,.cls-162,.cls-164,.cls-166,.cls-168,.cls-170,.cls-172,.cls-174,.cls-176,.cls-178,.cls-18,.cls-180,.cls-182,.cls-184,.cls-186,.cls-188,.cls-190,.cls-192,.cls-194,.cls-196,.cls-198,.cls-20,.cls-200,.cls-202,.cls-204,.cls-206,.cls-208,.cls-210,.cls-212,.cls-214,.cls-216,.cls-218,.cls-22,.cls-220,.cls-24,.cls-26,.cls-28,.cls-30,.cls-32,.cls-34,.cls-36,.cls-38,.cls-40,.cls-42,.cls-44,.cls-46,.cls-48,.cls-50,.cls-52,.cls-54,.cls-56,.cls-58,.cls-60,.cls-62,.cls-64,.cls-66,.cls-68,.cls-70,.cls-72,.cls-74,.cls-76,.cls-78,.cls-80,.cls-82,.cls-84,.cls-86,.cls-88,.cls-90,.cls-92,.cls-94,.cls-96,.cls-98{fill:#fff;}.cls-18{opacity:0.6;}.cls-19{opacity:0.99;}.cls-20{opacity:0.6;}.cls-21{opacity:0.98;}.cls-22{opacity:0.61;}.cls-23{opacity:0.97;}.cls-24{opacity:0.61;}.cls-25{opacity:0.96;}.cls-26{opacity:0.62;}.cls-27{opacity:0.95;}.cls-28{opacity:0.62;}.cls-29{opacity:0.94;}.cls-30{opacity:0.62;}.cls-31{opacity:0.93;}.cls-32{opacity:0.63;}.cls-33{opacity:0.92;}.cls-34{opacity:0.63;}.cls-35{opacity:0.91;}.cls-36{opacity:0.64;}.cls-37{opacity:0.9;}.cls-38{opacity:0.64;}.cls-39{opacity:0.89;}.cls-40{opacity:0.64;}.cls-41{opacity:0.88;}.cls-42{opacity:0.65;}.cls-43{opacity:0.87;}.cls-44{opacity:0.65;}.cls-45{opacity:0.86;}.cls-46{opacity:0.66;}.cls-47{opacity:0.85;}.cls-48{opacity:0.66;}.cls-49{opacity:0.84;}.cls-50{opacity:0.66;}.cls-51{opacity:0.83;}.cls-52{opacity:0.67;}.cls-53{opacity:0.82;}.cls-54{opacity:0.67;}.cls-55{opacity:0.81;}.cls-56{opacity:0.68;}.cls-57{opacity:0.8;}.cls-58{opacity:0.68;}.cls-59{opacity:0.79;}.cls-60{opacity:0.68;}.cls-61{opacity:0.78;}.cls-62{opacity:0.69;}.cls-63{opacity:0.77;}.cls-64{opacity:0.69;}.cls-65{opacity:0.76;}.cls-66{opacity:0.7;}.cls-67{opacity:0.75;}.cls-68{opacity:0.7;}.cls-69{opacity:0.74;}.cls-70{opacity:0.7;}.cls-71{opacity:0.73;}.cls-72{opacity:0.71;}.cls-73{opacity:0.72;}.cls-74{opacity:0.71;}.cls-75{opacity:0.71;}.cls-76{opacity:0.71;}.cls-77{opacity:0.7;}.cls-78{opacity:0.72;}.cls-79{opacity:0.69;}.cls-80{opacity:0.72;}.cls-81{opacity:0.68;}.cls-82{opacity:0.73;}.cls-83{opacity:0.67;}.cls-84{opacity:0.73;}.cls-85{opacity:0.66;}.cls-86{opacity:0.73;}.cls-87{opacity:0.65;}.cls-88{opacity:0.74;}.cls-89{opacity:0.64;}.cls-90{opacity:0.74;}.cls-91{opacity:0.63;}.cls-92{opacity:0.75;}.cls-93{opacity:0.62;}.cls-94{opacity:0.75;}.cls-95{opacity:0.61;}.cls-96{opacity:0.75;}.cls-97{opacity:0.6;}.cls-98{opacity:0.76;}.cls-99{opacity:0.59;}.cls-100{opacity:0.76;}.cls-101{opacity:0.58;}.cls-102{opacity:0.77;}.cls-103{opacity:0.57;}.cls-104{opacity:0.77;}.cls-105{opacity:0.56;}.cls-106{opacity:0.77;}.cls-107{opacity:0.55;}.cls-108{opacity:0.78;}.cls-109{opacity:0.54;}.cls-110{opacity:0.78;}.cls-111{opacity:0.53;}.cls-112{opacity:0.79;}.cls-113{opacity:0.52;}.cls-114{opacity:0.79;}.cls-115{opacity:0.51;}.cls-116{opacity:0.79;}.cls-117{opacity:0.5;}.cls-118{opacity:0.8;}.cls-119{opacity:0.5;}.cls-120{opacity:0.8;}.cls-121{opacity:0.49;}.cls-122{opacity:0.81;}.cls-123{opacity:0.48;}.cls-124{opacity:0.81;}.cls-125{opacity:0.47;}.cls-126{opacity:0.81;}.cls-127{opacity:0.46;}.cls-128{opacity:0.82;}.cls-129{opacity:0.45;}.cls-130{opacity:0.82;}.cls-131{opacity:0.44;}.cls-132{opacity:0.83;}.cls-133{opacity:0.43;}.cls-134{opacity:0.83;}.cls-135{opacity:0.42;}.cls-136{opacity:0.83;}.cls-137{opacity:0.41;}.cls-138{opacity:0.84;}.cls-139{opacity:0.4;}.cls-140{opacity:0.84;}.cls-141{opacity:0.39;}.cls-142{opacity:0.85;}.cls-143{opacity:0.38;}.cls-144{opacity:0.85;}.cls-145{opacity:0.37;}.cls-146{opacity:0.85;}.cls-147{opacity:0.36;}.cls-148{opacity:0.86;}.cls-149{opacity:0.35;}.cls-150{opacity:0.86;}.cls-151{opacity:0.34;}.cls-152{opacity:0.87;}.cls-153{opacity:0.33;}.cls-154{opacity:0.87;}.cls-155{opacity:0.32;}.cls-156{opacity:0.87;}.cls-157{opacity:0.31;}.cls-158{opacity:0.88;}.cls-159{opacity:0.3;}.cls-160{opacity:0.88;}.cls-161{opacity:0.29;}.cls-162{opacity:0.89;}.cls-163{opacity:0.28;}.cls-164{opacity:0.89;}.cls-165{opacity:0.27;}.cls-166{opacity:0.89;}.cls-167{opacity:0.26;}.cls-168{opacity:0.9;}.cls-169{opacity:0.25;}.cls-170{opacity:0.9;}.cls-171{opacity:0.24;}.cls-172{opacity:0.9;}.cls-173{opacity:0.23;}.cls-174{opacity:0.91;}.cls-175{opacity:0.22;}.cls-176{opacity:0.91;}.cls-177{opacity:0.21;}.cls-178{opacity:0.92;}.cls-179{opacity:0.2;}.cls-180{opacity:0.92;}.cls-181{opacity:0.19;}.cls-182{opacity:0.92;}.cls-183{opacity:0.18;}.cls-184{opacity:0.93;}.cls-185{opacity:0.17;}.cls-186{opacity:0.93;}.cls-187{opacity:0.16;}.cls-188{opacity:0.94;}.cls-189{opacity:0.15;}.cls-190{opacity:0.94;}.cls-191{opacity:0.14;}.cls-192{opacity:0.94;}.cls-193{opacity:0.13;}.cls-194{opacity:0.95;}.cls-195{opacity:0.12;}.cls-196{opacity:0.95;}.cls-197{opacity:0.11;}.cls-198{opacity:0.96;}.cls-199{opacity:0.1;}.cls-200{opacity:0.96;}.cls-201{opacity:0.09;}.cls-202{opacity:0.96;}.cls-203{opacity:0.08;}.cls-204{opacity:0.97;}.cls-205{opacity:0.07;}.cls-206{opacity:0.97;}.cls-207{opacity:0.06;}.cls-208{opacity:0.98;}.cls-209{opacity:0.05;}.cls-210{opacity:0.98;}.cls-211{opacity:0.04;}.cls-212{opacity:0.98;}.cls-213{opacity:0.03;}.cls-214{opacity:0.99;}.cls-215{opacity:0.02;}.cls-216{opacity:0.99;}.cls-217{opacity:0.01;}.cls-218{opacity:1;}.cls-222{fill:#6afce5;}.cls-223{opacity:0.1;}.cls-224{fill:#53d5ea;}.cls-225{fill:#1a2089;}.cls-226{fill:#efb185;}.cls-227{fill:#feffff;}.cls-228{fill:#dd9569;}.cls-229{fill:#f2b78f;}.cls-230{fill:#e6a376;}.cls-231{fill:#b4b9bc;}.cls-232{fill:#7d8183;}.cls-233{fill:#e3e5e5;}.cls-234{fill:#bdbbbb;}.cls-235{fill:#d2d0d0;}.cls-236{fill:#d5dfe6;}.cls-237{fill:#e9f0f4;}.cls-238{fill:#e8a476;}.cls-239{fill:#db9669;}.cls-240{fill:#f1b287;}</style></defs><title>industries_we_serve</title><g id="Layer_2" data-name="Layer 2"><g id="Layer_1-2" data-name="Layer 1"><path class="cls-1" d="M114.81,80.12C88.55,65,46,65,19.7,80.12s-26.27,39.75,0,54.92,68.85,15.16,95.11,0S141.07,95.29,114.81,80.12Z"/><path class="cls-2" d="M117.48,32.29l.5.29a.52.52,0,0,0,.5,0l.51-.29a.5.5,0,0,0,0-.86l-.5-.3a.52.52,0,0,0-.5,0l-.5.29A.5.5,0,0,0,117.48,32.29Z"/><path class="cls-3" d="M117.5,27.11l.5.29a.5.5,0,0,0,.49,0l.51-.29a.5.5,0,0,0,0-.86l-.5-.29a.48.48,0,0,0-.49,0l-.51.29A.5.5,0,0,0,117.5,27.11Z"/><path class="cls-4" d="M117.51,21.93l.5.29a.52.52,0,0,0,.5,0l.5-.29a.5.5,0,0,0,0-.86l-.5-.29a.5.5,0,0,0-.5,0l-.51.29A.5.5,0,0,0,117.51,21.93Z"/><path class="cls-5" d="M117.52,16.75l.5.29a.5.5,0,0,0,.5,0l.5-.29a.49.49,0,0,0,0-.86l-.5-.29a.52.52,0,0,0-.5,0l-.5.29A.49.49,0,0,0,117.52,16.75Z"/><path class="cls-6" d="M117.53,11.57l.5.3a.5.5,0,0,0,.5,0l.51-.29a.5.5,0,0,0,0-.86l-.5-.29a.52.52,0,0,0-.5,0l-.5.29A.5.5,0,0,0,117.53,11.57Z"/><path class="cls-7" d="M117.55,6.39l.5.3a.48.48,0,0,0,.49,0l.51-.29a.5.5,0,0,0,0-.86l-.5-.29a.48.48,0,0,0-.49,0l-.51.28A.5.5,0,0,0,117.55,6.39Z"/><path class="cls-8" d="M117.56,1.21l.5.3a.5.5,0,0,0,.5,0l.5-.29a.5.5,0,0,0,0-.86l-.51-.29a.48.48,0,0,0-.49,0l-.51.28A.5.5,0,0,0,117.56,1.21Z"/><path class="cls-2" d="M17.92,32.29l.5.29a.52.52,0,0,0,.5,0l.5-.29a.49.49,0,0,0,0-.86l-.5-.3a.52.52,0,0,0-.5,0l-.5.29A.49.49,0,0,0,17.92,32.29Z"/><path class="cls-3" d="M17.93,27.11l.5.29a.52.52,0,0,0,.5,0l.51-.29a.5.5,0,0,0,0-.86l-.5-.29a.5.5,0,0,0-.5,0l-.5.29A.5.5,0,0,0,17.93,27.11Z"/><path class="cls-4" d="M18,21.93l.5.29a.5.5,0,0,0,.49,0l.51-.29a.5.5,0,0,0,0-.86l-.5-.29a.48.48,0,0,0-.49,0l-.51.29A.5.5,0,0,0,18,21.93Z"/><path class="cls-5" d="M18,16.75l.5.29a.5.5,0,0,0,.5,0l.5-.29a.5.5,0,0,0,0-.86l-.5-.29a.52.52,0,0,0-.5,0l-.51.29A.5.5,0,0,0,18,16.75Z"/><path class="cls-6" d="M18,11.57l.5.3a.5.5,0,0,0,.5,0l.5-.29a.49.49,0,0,0,0-.86l-.5-.29a.52.52,0,0,0-.5,0l-.5.29A.49.49,0,0,0,18,11.57Z"/><path class="cls-7" d="M18,6.39l.5.3a.5.5,0,0,0,.5,0l.51-.29a.5.5,0,0,0,0-.86L19,5.25a.5.5,0,0,0-.5,0l-.5.28A.5.5,0,0,0,18,6.39Z"/><path class="cls-8" d="M18,1.21l.5.3a.48.48,0,0,0,.49,0l.51-.29a.5.5,0,0,0,0-.86L19,.07a.48.48,0,0,0-.49,0L18,.35A.5.5,0,0,0,18,1.21Z"/><path class="cls-2" d="M9.44,64.78l.5.29a.5.5,0,0,0,.5,0l.5-.28a.51.51,0,0,0,0-.87l-.5-.29a.5.5,0,0,0-.5,0l-.51.29A.5.5,0,0,0,9.44,64.78Z"/><path class="cls-3" d="M9.45,59.6l.5.29a.5.5,0,0,0,.5,0l.5-.28a.49.49,0,0,0,0-.86l-.5-.3a.5.5,0,0,0-.5,0l-.5.29A.49.49,0,0,0,9.45,59.6Z"/><path class="cls-4" d="M9.46,54.42l.5.29a.5.5,0,0,0,.5,0l.51-.28a.5.5,0,0,0,0-.86l-.5-.3a.5.5,0,0,0-.5,0l-.5.29A.5.5,0,0,0,9.46,54.42Z"/><path class="cls-5" d="M9.48,49.24l.5.29a.48.48,0,0,0,.49,0l.51-.28a.5.5,0,0,0,0-.86l-.5-.3a.48.48,0,0,0-.49,0l-.51.29A.5.5,0,0,0,9.48,49.24Z"/><path class="cls-6" d="M9.49,44.06l.5.29a.52.52,0,0,0,.5,0l.5-.29a.5.5,0,0,0,0-.86l-.5-.3a.5.5,0,0,0-.5,0l-.51.29A.5.5,0,0,0,9.49,44.06Z"/><path class="cls-7" d="M9.5,38.88l.5.29a.52.52,0,0,0,.5,0l.5-.29A.49.49,0,0,0,11,38l-.5-.3a.5.5,0,0,0-.5,0l-.5.29A.49.49,0,0,0,9.5,38.88Z"/><path class="cls-8" d="M9.51,33.7,10,34a.52.52,0,0,0,.5,0l.51-.29a.5.5,0,0,0,0-.86l-.5-.29a.47.47,0,0,0-.5,0l-.5.29A.5.5,0,0,0,9.51,33.7Z"/><path class="cls-2" d="M129.35,70.64l.5.29a.52.52,0,0,0,.5,0l.5-.29a.5.5,0,0,0,0-.86l-.5-.29a.5.5,0,0,0-.5,0l-.51.29A.5.5,0,0,0,129.35,70.64Z"/><path class="cls-3" d="M129.36,65.46l.5.29a.52.52,0,0,0,.5,0l.5-.29a.49.49,0,0,0,0-.86l-.5-.29a.5.5,0,0,0-.5,0l-.5.29A.49.49,0,0,0,129.36,65.46Z"/><path class="cls-4" d="M129.37,60.28l.5.29a.5.5,0,0,0,.5,0l.51-.29a.5.5,0,0,0,0-.86l-.5-.29a.52.52,0,0,0-.5,0l-.5.29A.5.5,0,0,0,129.37,60.28Z"/><path class="cls-5" d="M129.39,55.1l.5.3a.48.48,0,0,0,.49,0l.51-.29a.5.5,0,0,0,0-.86l-.5-.29a.5.5,0,0,0-.49,0l-.51.29A.5.5,0,0,0,129.39,55.1Z"/><path class="cls-6" d="M129.4,49.92l.5.3a.5.5,0,0,0,.5,0l.5-.29a.5.5,0,0,0,0-.86l-.5-.29a.52.52,0,0,0-.5,0l-.51.29A.5.5,0,0,0,129.4,49.92Z"/><path class="cls-7" d="M129.41,44.74l.5.3a.5.5,0,0,0,.5,0l.5-.29a.49.49,0,0,0,0-.86l-.5-.29a.5.5,0,0,0-.5,0l-.5.28A.49.49,0,0,0,129.41,44.74Z"/><path class="cls-8" d="M129.42,39.56l.5.3a.5.5,0,0,0,.5,0l.51-.29a.5.5,0,0,0,0-.86l-.5-.29a.5.5,0,0,0-.5,0l-.5.28A.5.5,0,0,0,129.42,39.56Z"/><g class="cls-9"><path d="M100.31,89c18.75,10.83,18.85,28.38.22,39.2s-48.93,10.83-67.69,0S14,99.79,32.62,89,81.55,78.14,100.31,89Z"/></g><path class="cls-10" d="M99.77,73.88c17,9.79,17,25.65.19,35.44s-44.23,9.79-61.18,0-17-25.65-.2-35.44S82.81,64.09,99.77,73.88Z"/><path class="cls-11" d="M93.81,76.44c-6.57-3.79-15.24-5.88-24.44-5.88S51.52,72.65,45,76.44c-6.81,4-10.56,9.33-10.55,15.11,0,.13,0,.27,0,.4.18,5.67,4,10.91,10.69,14.8,6.57,3.79,15.25,5.88,24.44,5.88s17.85-2.09,24.38-5.88,10.36-9,10.54-14.67v-.44C104.51,85.82,100.71,80.42,93.81,76.44Zm7.17,16c0,4.47-3.12,8.75-8.79,12C86,108.15,77.79,110,69.59,110s-16.4-1.8-22.67-5.42C41.17,101.21,38,96.89,38,92.39c0-.15,0-.3,0-.44s0-.27,0-.4c0-4.47,3.11-8.75,8.79-12,6.22-3.61,14.4-5.42,22.59-5.42S85.78,75.89,92,79.5C97.8,82.82,101,87.14,101,91.65c0,.13,0,.27,0,.42h0C101,92.22,101,92.35,101,92.49Z"/><path class="cls-12" d="M104.51,92.08c-.18-5.66-4-10.91-10.7-14.8-6.57-3.79-15.24-5.88-24.44-5.88S51.52,73.49,45,77.29,34.64,86.33,34.46,92c0,.15,0,.3,0,.44,0,5.83,3.81,11.23,10.7,15.2,6.57,3.8,15.25,5.89,24.44,5.89s17.85-2.09,24.38-5.89c6.81-4,10.55-9.32,10.54-15.11ZM38,92c.19-4.32,3.29-8.42,8.78-11.6,6.22-3.62,14.4-5.42,22.59-5.42S85.78,76.73,92,80.35c5.58,3.21,8.73,7.36,8.93,11.72h0c0,.14,0,.27,0,.41,0,4.47-3.12,8.75-8.79,12C86,108.15,77.79,110,69.59,110s-16.4-1.8-22.67-5.42C41.17,101.21,38,96.89,38,92.39,38,92.24,38,92.09,38,92Z"/><g class="cls-13"><g class="cls-13"><path class="cls-14" d="M112.54,91.72l0,10.57c0,6.37-4.21,12.73-12.58,17.6-16.84,9.78-44.23,9.78-61.19,0C30.21,115,26,108.49,26,102l0-10.56c0,6.45,4.24,12.92,12.77,17.84,16.95,9.79,44.34,9.79,61.18,0C108.33,104.46,112.52,98.1,112.54,91.72Z"/></g></g><path class="cls-15" d="M82.89,84.44c8.54,4.93,8.58,12.93.09,17.86s-22.29,4.93-30.82,0-8.59-12.93-.11-17.86S74.35,79.51,82.89,84.44Z"/><g class="cls-16"><path class="cls-15" d="M86.35,82.16c10.47,6,10.52,15.84.12,21.88s-27.31,6-37.77,0-10.53-15.85-.14-21.88S75.89,76.11,86.35,82.16Z"/></g><path class="cls-17" d="M79.86,85.29c6.86,4,6.9,10.38.08,14.34s-17.9,4-24.76,0-6.89-10.38-.08-14.34S73,81.33,79.86,85.29Z"/><path class="cls-18" d="M57.09,86.23C51.26,89.61,51.28,95,57,98.36s15.11,3.39,20.95,0,5.81-8.78.06-12.13S62.88,82.89,57.09,86.23Z"/><g class="cls-19"><path class="cls-20" d="M57.09,85.73c-5.83,3.38-5.81,8.79-.07,12.13s15.11,3.39,20.95,0,5.81-8.78.06-12.13S62.88,82.39,57.09,85.73Z"/></g><g class="cls-21"><path class="cls-22" d="M57.09,85.23C51.26,88.61,51.28,94,57,97.35s15.11,3.39,20.95,0,5.81-8.77.06-12.12S62.88,81.88,57.09,85.23Z"/></g><g class="cls-23"><path class="cls-24" d="M57.09,84.72c-5.83,3.38-5.81,8.79-.07,12.13s15.11,3.39,20.95,0,5.81-8.78.06-12.13S62.88,81.38,57.09,84.72Z"/></g><g class="cls-25"><path class="cls-26" d="M57.09,84.22C51.26,87.6,51.28,93,57,96.35s15.11,3.38,20.95,0,5.81-8.78.06-12.13S62.88,80.88,57.09,84.22Z"/></g><g class="cls-27"><path class="cls-28" d="M57.09,83.72C51.26,87.1,51.28,92.5,57,95.84s15.11,3.39,20.95,0,5.81-8.78.06-12.12S62.88,80.37,57.09,83.72Z"/></g><g class="cls-29"><path class="cls-30" d="M57.09,83.21C51.26,86.59,51.28,92,57,95.34s15.11,3.39,20.95,0,5.81-8.78.06-12.13S62.88,79.87,57.09,83.21Z"/></g><g class="cls-31"><path class="cls-32" d="M57.09,82.71c-5.83,3.38-5.81,8.79-.07,12.13s15.11,3.38,20.95,0,5.81-8.78.06-12.13S62.88,79.36,57.09,82.71Z"/></g><g class="cls-33"><path class="cls-34" d="M57.09,82.2C51.26,85.58,51.28,91,57,94.33s15.11,3.39,20.95,0,5.81-8.78.06-12.13S62.88,78.86,57.09,82.2Z"/></g><g class="cls-35"><path class="cls-36" d="M57.09,81.7c-5.83,3.38-5.81,8.79-.07,12.13s15.11,3.38,20.95,0,5.81-8.78.06-12.13S62.88,78.36,57.09,81.7Z"/></g><g class="cls-37"><path class="cls-38" d="M57.09,81.2C51.26,84.58,51.28,90,57,93.32s15.11,3.39,20.95,0,5.81-8.77.06-12.12S62.88,77.85,57.09,81.2Z"/></g><g class="cls-39"><path class="cls-40" d="M57.09,80.69c-5.83,3.38-5.81,8.79-.07,12.13s15.11,3.39,20.95,0S83.78,84,78,80.69,62.88,77.35,57.09,80.69Z"/></g><g class="cls-41"><path class="cls-42" d="M57.09,80.19C51.26,83.57,51.28,89,57,92.32s15.11,3.38,20.95,0,5.81-8.78.06-12.13S62.88,76.85,57.09,80.19Z"/></g><g class="cls-43"><path class="cls-44" d="M57.09,79.69c-5.83,3.37-5.81,8.78-.07,12.12s15.11,3.39,20.95,0S83.78,83,78,79.69,62.88,76.34,57.09,79.69Z"/></g><g class="cls-45"><path class="cls-46" d="M57.09,79.18C51.26,82.56,51.28,88,57,91.31s15.11,3.39,20.95,0,5.81-8.78.06-12.13S62.88,75.84,57.09,79.18Z"/></g><g class="cls-47"><path class="cls-48" d="M57.09,78.68c-5.83,3.38-5.81,8.78-.07,12.13s15.11,3.38,20.95,0S83.78,82,78,78.68,62.88,75.33,57.09,78.68Z"/></g><g class="cls-49"><path class="cls-50" d="M57.09,78.17C51.26,81.55,51.28,87,57,90.3s15.11,3.39,20.95,0,5.81-8.78.06-12.13S62.88,74.83,57.09,78.17Z"/></g><g class="cls-51"><path class="cls-52" d="M57.09,77.67c-5.83,3.38-5.81,8.79-.07,12.13s15.11,3.38,20.95,0S83.78,81,78,77.67,62.88,74.33,57.09,77.67Z"/></g><g class="cls-53"><path class="cls-54" d="M57.09,77.17C51.26,80.55,51.28,86,57,89.3s15.11,3.38,20.95,0,5.81-8.78.06-12.13S62.88,73.82,57.09,77.17Z"/></g><g class="cls-55"><path class="cls-56" d="M57.09,76.66C51.26,80,51.28,85.45,57,88.79s15.11,3.39,20.95,0S83.78,80,78,76.66,62.88,73.32,57.09,76.66Z"/></g><g class="cls-57"><path class="cls-58" d="M57.09,76.16C51.26,79.54,51.28,85,57,88.29s15.11,3.38,20.95,0,5.81-8.78.06-12.13S62.88,72.81,57.09,76.16Z"/></g><g class="cls-59"><path class="cls-60" d="M57.09,75.66C51.26,79,51.28,84.44,57,87.78s15.11,3.39,20.95,0S83.78,79,78,75.66,62.88,72.31,57.09,75.66Z"/></g><g class="cls-61"><path class="cls-62" d="M57.09,75.15c-5.83,3.38-5.81,8.79-.07,12.13s15.11,3.38,20.95,0,5.81-8.78.06-12.13S62.88,71.81,57.09,75.15Z"/></g><g class="cls-63"><path class="cls-64" d="M57.09,74.65C51.26,78,51.28,83.43,57,86.78s15.11,3.38,20.95,0S83.78,78,78,74.65,62.88,71.3,57.09,74.65Z"/></g><g class="cls-65"><path class="cls-66" d="M57.09,74.14c-5.83,3.38-5.81,8.79-.07,12.13s15.11,3.39,20.95,0,5.81-8.78.06-12.13S62.88,70.8,57.09,74.14Z"/></g><g class="cls-67"><path class="cls-68" d="M57.09,73.64C51.26,77,51.28,82.43,57,85.77s15.11,3.38,20.95,0S83.78,77,78,73.64,62.88,70.3,57.09,73.64Z"/></g><g class="cls-69"><path class="cls-70" d="M57.09,73.14c-5.83,3.37-5.81,8.78-.07,12.13s15.11,3.38,20.95,0,5.81-8.78.06-12.13S62.88,69.79,57.09,73.14Z"/></g><g class="cls-71"><path class="cls-72" d="M57.09,72.63C51.26,76,51.28,81.42,57,84.76s15.11,3.39,20.95,0S83.78,76,78,72.63,62.88,69.29,57.09,72.63Z"/></g><g class="cls-73"><path class="cls-74" d="M57.09,72.13c-5.83,3.38-5.81,8.79-.07,12.13s15.11,3.38,20.95,0,5.81-8.78.06-12.13S62.88,68.78,57.09,72.13Z"/></g><g class="cls-75"><path class="cls-76" d="M57.09,71.63C51.26,75,51.28,80.41,57,83.75s15.11,3.39,20.95,0S83.78,75,78,71.63,62.88,68.28,57.09,71.63Z"/></g><g class="cls-77"><path class="cls-78" d="M57.09,71.12c-5.83,3.38-5.81,8.79-.07,12.13s15.11,3.38,20.95,0,5.81-8.78.06-12.13S62.88,67.78,57.09,71.12Z"/></g><g class="cls-79"><path class="cls-80" d="M57.09,70.62C51.26,74,51.28,79.4,57,82.75s15.11,3.38,20.95,0S83.78,74,78,70.62,62.88,67.27,57.09,70.62Z"/></g><g class="cls-81"><path class="cls-82" d="M57.09,70.12c-5.83,3.37-5.81,8.78-.07,12.12s15.11,3.39,20.95,0,5.81-8.78.06-12.12S62.88,66.77,57.09,70.12Z"/></g><g class="cls-83"><path class="cls-84" d="M57.09,69.61C51.26,73,51.28,78.4,57,81.74s15.11,3.38,20.95,0S83.78,73,78,69.61,62.88,66.27,57.09,69.61Z"/></g><g class="cls-85"><path class="cls-86" d="M57.09,69.11c-5.83,3.37-5.81,8.78-.07,12.13s15.11,3.38,20.95,0,5.81-8.78.06-12.13S62.88,65.76,57.09,69.11Z"/></g><g class="cls-87"><path class="cls-88" d="M57.09,68.6C51.26,72,51.28,77.39,57,80.73s15.11,3.38,20.95,0S83.78,72,78,68.6,62.88,65.26,57.09,68.6Z"/></g><g class="cls-89"><path class="cls-90" d="M57.09,68.1c-5.83,3.38-5.81,8.79-.07,12.13s15.11,3.38,20.95,0,5.81-8.78.06-12.13S62.88,64.75,57.09,68.1Z"/></g><g class="cls-91"><path class="cls-92" d="M57.09,67.6C51.26,71,51.28,76.38,57,79.72s15.11,3.39,20.95,0,5.81-8.78.06-12.12S62.88,64.25,57.09,67.6Z"/></g><g class="cls-93"><path class="cls-94" d="M57.09,67.09c-5.83,3.38-5.81,8.79-.07,12.13s15.11,3.38,20.95,0,5.81-8.78.06-12.13S62.88,63.75,57.09,67.09Z"/></g><g class="cls-95"><path class="cls-96" d="M57.09,66.59C51.26,70,51.28,75.37,57,78.72s15.11,3.38,20.95,0,5.81-8.78.06-12.13S62.88,63.24,57.09,66.59Z"/></g><g class="cls-97"><path class="cls-98" d="M57.09,66.09c-5.83,3.37-5.81,8.78-.07,12.12s15.11,3.38,20.95,0,5.81-8.78.06-12.12S62.88,62.74,57.09,66.09Z"/></g><g class="cls-99"><path class="cls-100" d="M57.09,65.58C51.26,69,51.28,74.37,57,77.71s15.11,3.38,20.95,0,5.81-8.78.06-12.13S62.88,62.24,57.09,65.58Z"/></g><g class="cls-101"><path class="cls-102" d="M57.09,65.08c-5.83,3.37-5.81,8.78-.07,12.13s15.11,3.38,20.95,0,5.81-8.78.06-12.13S62.88,61.73,57.09,65.08Z"/></g><g class="cls-103"><path class="cls-104" d="M57.09,64.57C51.26,68,51.28,73.36,57,76.7s15.11,3.38,20.95,0,5.81-8.78.06-12.13S62.88,61.23,57.09,64.57Z"/></g><g class="cls-105"><path class="cls-106" d="M57.09,64.07c-5.83,3.38-5.81,8.79-.07,12.13s15.11,3.38,20.95,0,5.81-8.78.06-12.13S62.88,60.72,57.09,64.07Z"/></g><g class="cls-107"><path class="cls-108" d="M57.09,63.57c-5.83,3.37-5.81,8.78-.07,12.12s15.11,3.39,20.95,0,5.81-8.78.06-12.12S62.88,60.22,57.09,63.57Z"/></g><g class="cls-109"><path class="cls-110" d="M57.09,63.06c-5.83,3.38-5.81,8.79-.07,12.13s15.11,3.38,20.95,0,5.81-8.78.06-12.13S62.88,59.72,57.09,63.06Z"/></g><g class="cls-111"><path class="cls-112" d="M57.09,62.56c-5.83,3.37-5.81,8.78-.07,12.13s15.11,3.38,20.95,0,5.81-8.78.06-12.13S62.88,59.21,57.09,62.56Z"/></g><g class="cls-113"><path class="cls-114" d="M57.09,62.06c-5.83,3.37-5.81,8.78-.07,12.12s15.11,3.38,20.95,0,5.81-8.78.06-12.12S62.88,58.71,57.09,62.06Z"/></g><g class="cls-115"><path class="cls-116" d="M57.09,61.55c-5.83,3.38-5.81,8.79-.07,12.13s15.11,3.38,20.95,0,5.81-8.78.06-12.13S62.88,58.21,57.09,61.55Z"/></g><g class="cls-117"><path class="cls-118" d="M57.09,61.05c-5.83,3.37-5.81,8.78-.07,12.13s15.11,3.38,20.95,0,5.81-8.78.06-12.13S62.88,57.7,57.09,61.05Z"/></g><g class="cls-119"><path class="cls-120" d="M57.09,60.54c-5.83,3.38-5.81,8.79-.07,12.13s15.11,3.38,20.95,0,5.81-8.78.06-12.13S62.88,57.2,57.09,60.54Z"/></g><g class="cls-121"><path class="cls-122" d="M57.09,60c-5.83,3.37-5.81,8.79-.07,12.13s15.11,3.38,20.95,0S83.78,63.39,78,60,62.88,56.69,57.09,60Z"/></g><g class="cls-123"><path class="cls-124" d="M57.09,59.54c-5.83,3.37-5.81,8.78-.07,12.12S72.13,75,78,71.66s5.81-8.78.06-12.12S62.88,56.19,57.09,59.54Z"/></g><g class="cls-125"><path class="cls-126" d="M57.09,59c-5.83,3.38-5.81,8.79-.07,12.13s15.11,3.38,20.95,0S83.78,62.38,78,59,62.88,55.69,57.09,59Z"/></g><g class="cls-127"><path class="cls-128" d="M57.09,58.53c-5.83,3.37-5.81,8.78-.07,12.13S72.13,74,78,70.66s5.81-8.78.06-12.13S62.88,55.18,57.09,58.53Z"/></g><g class="cls-129"><path class="cls-130" d="M57.09,58c-5.83,3.37-5.81,8.78-.07,12.12s15.11,3.38,20.95,0S83.78,61.37,78,58,62.88,54.68,57.09,58Z"/></g><g class="cls-131"><path class="cls-132" d="M57.09,57.52c-5.83,3.38-5.81,8.79-.07,12.13S72.13,73,78,69.65s5.81-8.78.06-12.13S62.88,54.18,57.09,57.52Z"/></g><g class="cls-133"><path class="cls-134" d="M57.09,57c-5.83,3.37-5.81,8.78-.07,12.13s15.11,3.38,20.95,0S83.78,60.37,78,57,62.88,53.67,57.09,57Z"/></g><g class="cls-135"><path class="cls-136" d="M57.09,56.51c-5.83,3.38-5.81,8.79-.07,12.13S72.13,72,78,68.64s5.81-8.78.06-12.13S62.88,53.17,57.09,56.51Z"/></g><g class="cls-137"><path class="cls-138" d="M57.09,56c-5.83,3.37-5.81,8.79-.07,12.13s15.11,3.38,20.95,0S83.78,59.36,78,56,62.88,52.66,57.09,56Z"/></g><g class="cls-139"><path class="cls-140" d="M57.09,55.51c-5.83,3.37-5.81,8.78-.07,12.12S72.13,71,78,67.63s5.81-8.78.06-12.12S62.88,52.16,57.09,55.51Z"/></g><g class="cls-141"><path class="cls-142" d="M57.09,55c-5.83,3.38-5.81,8.79-.07,12.13s15.11,3.38,20.95,0S83.78,58.35,78,55,62.88,51.66,57.09,55Z"/></g><g class="cls-143"><path class="cls-144" d="M57.09,54.5c-5.83,3.37-5.81,8.78-.07,12.13S72.13,70,78,66.63s5.81-8.78.06-12.13S62.88,51.15,57.09,54.5Z"/></g><g class="cls-145"><path class="cls-146" d="M57.09,54c-5.83,3.37-5.81,8.78-.07,12.12s15.11,3.38,20.95,0S83.78,57.34,78,54,62.88,50.65,57.09,54Z"/></g><g class="cls-147"><path class="cls-148" d="M57.09,53.49c-5.83,3.37-5.81,8.79-.07,12.13S72.13,69,78,65.62s5.81-8.78.06-12.13S62.88,50.15,57.09,53.49Z"/></g><g class="cls-149"><path class="cls-150" d="M57.09,53c-5.83,3.37-5.81,8.78-.07,12.13s15.11,3.37,20.95,0S83.78,56.33,78,53,62.88,49.64,57.09,53Z"/></g><g class="cls-151"><path class="cls-152" d="M57.09,52.48c-5.83,3.38-5.81,8.79-.07,12.13S72.13,68,78,64.61s5.81-8.78.06-12.13S62.88,49.14,57.09,52.48Z"/></g><g class="cls-153"><path class="cls-154" d="M57.09,52c-5.83,3.37-5.81,8.79-.07,12.13s15.11,3.38,20.95,0S83.78,55.33,78,52,62.88,48.63,57.09,52Z"/></g><g class="cls-155"><path class="cls-156" d="M57.09,51.48c-5.83,3.37-5.81,8.78-.07,12.13S72.13,67,78,63.61s5.81-8.79.06-12.13S62.88,48.13,57.09,51.48Z"/></g><g class="cls-157"><path class="cls-158" d="M57.09,51c-5.83,3.37-5.81,8.79-.07,12.13s15.11,3.38,20.95,0S83.78,54.32,78,51,62.88,47.63,57.09,51Z"/></g><g class="cls-159"><path class="cls-160" d="M57.09,50.47c-5.83,3.37-5.81,8.78-.07,12.13S72.13,66,78,62.6s5.81-8.78.06-12.13S62.88,47.12,57.09,50.47Z"/></g><g class="cls-161"><path class="cls-162" d="M57.09,50c-5.83,3.37-5.81,8.78-.07,12.12s15.11,3.38,20.95,0S83.78,53.31,78,50,62.88,46.62,57.09,50Z"/></g><g class="cls-163"><path class="cls-164" d="M57.09,49.46c-5.83,3.37-5.81,8.79-.07,12.13S72.13,65,78,61.59s5.81-8.78.06-12.13S62.88,46.12,57.09,49.46Z"/></g><g class="cls-165"><path class="cls-166" d="M57.09,49c-5.83,3.37-5.81,8.78-.07,12.13s15.11,3.37,20.95,0S83.78,52.3,78,49,62.88,45.61,57.09,49Z"/></g><g class="cls-167"><path class="cls-168" d="M57.09,48.45c-5.83,3.38-5.81,8.79-.07,12.13S72.13,64,78,60.58s5.81-8.78.06-12.13S62.88,45.11,57.09,48.45Z"/></g><g class="cls-169"><path class="cls-170" d="M57.09,48c-5.83,3.37-5.81,8.78-.07,12.13s15.11,3.38,20.95,0S83.78,51.3,78,48,62.88,44.6,57.09,48Z"/></g><g class="cls-171"><path class="cls-172" d="M57.09,47.45c-5.83,3.37-5.81,8.78-.07,12.13S72.13,63,78,59.58s5.81-8.79.06-12.13S62.88,44.1,57.09,47.45Z"/></g><g class="cls-173"><path class="cls-174" d="M57.09,46.94c-5.83,3.37-5.81,8.79-.07,12.13s15.11,3.38,20.95,0,5.81-8.78.06-12.13S62.88,43.6,57.09,46.94Z"/></g><g class="cls-175"><path class="cls-176" d="M57.09,46.44c-5.83,3.37-5.81,8.78-.07,12.13s15.11,3.37,20.95,0,5.81-8.78.06-12.13S62.88,43.09,57.09,46.44Z"/></g><g class="cls-177"><path class="cls-178" d="M57.09,45.94c-5.83,3.37-5.81,8.78-.07,12.12s15.11,3.38,20.95,0,5.81-8.78.06-12.12S62.88,42.59,57.09,45.94Z"/></g><g class="cls-179"><path class="cls-180" d="M57.09,45.43c-5.83,3.37-5.81,8.79-.07,12.13s15.11,3.38,20.95,0,5.81-8.78.06-12.13S62.88,42.08,57.09,45.43Z"/></g><g class="cls-181"><path class="cls-182" d="M57.09,44.93c-5.83,3.37-5.81,8.78-.07,12.13s15.11,3.37,20.95,0,5.81-8.79.06-12.13S62.88,41.58,57.09,44.93Z"/></g><g class="cls-183"><path class="cls-184" d="M57.09,44.42c-5.83,3.37-5.81,8.79-.07,12.13s15.11,3.38,20.95,0,5.81-8.78.06-12.13S62.88,41.08,57.09,44.42Z"/></g><g class="cls-185"><path class="cls-186" d="M57.09,43.92c-5.83,3.37-5.81,8.78-.07,12.13s15.11,3.38,20.95,0,5.81-8.78.06-12.13S62.88,40.57,57.09,43.92Z"/></g><g class="cls-187"><path class="cls-188" d="M57.09,43.42c-5.83,3.37-5.81,8.78-.07,12.13s15.11,3.37,20.95,0,5.81-8.79.06-12.13S62.88,40.07,57.09,43.42Z"/></g><g class="cls-189"><path class="cls-190" d="M57.09,42.91C51.26,46.28,51.28,51.7,57,55S72.13,58.42,78,55s5.81-8.78.06-12.13S62.88,39.57,57.09,42.91Z"/></g><g class="cls-191"><path class="cls-192" d="M57.09,42.41c-5.83,3.37-5.81,8.78-.07,12.13s15.11,3.37,20.95,0,5.81-8.78.06-12.13S62.88,39.06,57.09,42.41Z"/></g><g class="cls-193"><path class="cls-194" d="M57.09,41.91C51.26,45.28,51.28,50.69,57,54S72.13,57.41,78,54s5.81-8.78.06-12.12S62.88,38.56,57.09,41.91Z"/></g><g class="cls-195"><path class="cls-196" d="M57.09,41.4c-5.83,3.37-5.81,8.79-.07,12.13s15.11,3.38,20.95,0,5.81-8.78.06-12.13S62.88,38.05,57.09,41.4Z"/></g><g class="cls-197"><path class="cls-198" d="M57.09,40.9C51.26,44.27,51.28,49.68,57,53S72.13,56.4,78,53s5.81-8.79.06-12.13S62.88,37.55,57.09,40.9Z"/></g><g class="cls-199"><path class="cls-200" d="M57.09,40.4c-5.83,3.36-5.81,8.78-.07,12.12s15.11,3.38,20.95,0,5.81-8.78.06-12.12S62.88,37.05,57.09,40.4Z"/></g><g class="cls-201"><path class="cls-202" d="M57.09,39.89C51.26,43.26,51.28,48.67,57,52S72.13,55.39,78,52s5.81-8.78.06-12.13S62.88,36.54,57.09,39.89Z"/></g><g class="cls-203"><path class="cls-204" d="M57.09,39.39c-5.83,3.37-5.81,8.78-.07,12.13s15.11,3.37,20.95,0,5.81-8.79.06-12.13S62.88,36,57.09,39.39Z"/></g><g class="cls-205"><path class="cls-206" d="M57.09,38.88C51.26,42.25,51.28,47.67,57,51S72.13,54.39,78,51s5.81-8.78.06-12.13S62.88,35.54,57.09,38.88Z"/></g><g class="cls-207"><path class="cls-208" d="M57.09,38.38c-5.83,3.37-5.81,8.78-.07,12.13s15.11,3.37,20.95,0,5.81-8.78.06-12.13S62.88,35,57.09,38.38Z"/></g><g class="cls-209"><path class="cls-210" d="M57.09,37.88C51.26,41.24,51.28,46.66,57,50S72.13,53.38,78,50s5.81-8.78.06-12.12S62.88,34.53,57.09,37.88Z"/></g><g class="cls-211"><path class="cls-212" d="M57.09,37.37c-5.83,3.37-5.81,8.79-.07,12.13s15.11,3.38,20.95,0,5.81-8.78.06-12.13S62.88,34,57.09,37.37Z"/></g><g class="cls-213"><path class="cls-214" d="M57.09,36.87C51.26,40.24,51.28,45.65,57,49S72.13,52.37,78,49s5.81-8.79.06-12.13S62.88,33.52,57.09,36.87Z"/></g><g class="cls-215"><path class="cls-216" d="M57.09,36.37c-5.83,3.36-5.81,8.78-.07,12.12s15.11,3.38,20.95,0,5.81-8.78.06-12.12S62.88,33,57.09,36.37Z"/></g><g class="cls-217"><path class="cls-218" d="M57.09,35.86C51.26,39.23,51.28,44.64,57,48S72.13,51.36,78,48s5.81-8.78.06-12.13S62.88,32.51,57.09,35.86Z"/></g><g class="cls-219"><path class="cls-220" d="M57.09,35.36c-5.83,3.37-5.81,8.78-.07,12.13s15.11,3.37,20.95,0,5.81-8.79.06-12.13S62.88,32,57.09,35.36Z"/></g><path class="cls-221" d="M109.55,26.4A20.83,20.83,0,0,1,98.62,40.51v8.3s10.54-5.92,11.07-12.12Z"/><path class="cls-221" d="M36.38,44.29S24.33,38.62,22.66,25.7l-.86,9s0,10.48,14.8,16.14Z"/><path class="cls-221" d="M50.77,15.27v3.11s8-2.74,22.5-1.5V14.19A55.1,55.1,0,0,0,50.77,15.27Z"/><path class="cls-221" d="M22.12,50.82A34,34,0,0,1,34.55,38.35c5.56-3,12.7-6,19.71-6.9l-.09-12A54.85,54.85,0,0,0,35,25.17C23.63,31.3,20.76,40,22.12,50.82Z"/><path class="cls-221" d="M109.79,52.14C112.6,41.67,109.6,32.85,98.52,26a52.12,52.12,0,0,0-13.8-5.8l-.41,13.18a52.13,52.13,0,0,1,13.8,5.81A32.82,32.82,0,0,1,109.79,52.14Z"/><path class="cls-221" d="M80.69,32.75l.41-13.19A73,73,0,0,0,58,19.08L57.6,32.26A72.75,72.75,0,0,1,80.69,32.75Z"/><path class="cls-10" d="M96.29,52.17C97,40,81.75,16,55.58,25.14c-15,5.24-18.47,13.69-2.56,25.32,0,0-.18,6.5,12.31,5.47,0,0,8-.34,13.47,3.77C84.55,64,96,57.67,96.29,52.17Z"/><path class="cls-222" d="M48.21,31.45S52.37,27.24,58,27a53.76,53.76,0,0,1,6,.24c4.64.35,10.28.54,14.89-1.4l-1.23-.56c-4.38,1.85-9.06,1.28-13.59.94A53.08,53.08,0,0,0,58,26a17,17,0,0,0-10.48,4.77Z"/><path class="cls-222" d="M65.24,26.7l.88-.14a2.21,2.21,0,0,1,.06-.56c.21-.35,1.93-1.6,6.43-2.32L71,23.35c-3.86.62-5.23,1.14-5.74,2.29A1.12,1.12,0,0,0,65.24,26.7Z"/><path class="cls-222" d="M78.77,34.4l1-.74c-1.59-2.34-6-5.67-8.51-6.78l-.72-.32-1.3.55c.54.25,1.09.48,1.62.71A24.29,24.29,0,0,1,78.77,34.4Z"/><path class="cls-222" d="M93.49,40.6l-.56-1.09a23.44,23.44,0,0,1-4.13-1.2,5.79,5.79,0,0,1-2.47-2.07,6.75,6.75,0,0,0-3.59-2.68,4.63,4.63,0,0,0-5.19,1.89l.88.54a3.6,3.6,0,0,1,4-1.44,5.74,5.74,0,0,1,3.06,2.33,6.68,6.68,0,0,0,2.92,2.4A29.72,29.72,0,0,0,93.49,40.6Z"/><path class="cls-222" d="M88,38.43c2.62-5-4.81-9.09-5.12-9.26l-.49.9c.07,0,6.85,3.75,4.7,7.88Z"/><path class="cls-222" d="M91.84,58.42c.22-.19,4.72-4,2.71-8a14.24,14.24,0,0,0-3.16-4c-1.1-1.06-1.89-1.82-1.85-2.89,0-1.71-1.55-3.34-3.14-4.08a3.55,3.55,0,0,0-4,.3l.68.76A2.69,2.69,0,0,1,86,40.35c1.45.67,2.57,2,2.54,3.11,0,1.52,1,2.51,2.16,3.66a13.11,13.11,0,0,1,3,3.74c1.67,3.37-3.48,8.46-3.53,8.5Z"/><path class="cls-222" d="M95.57,46.08l-.42-1.44c-2.55-2.11-6-.72-6.13-.65l.37,1S93.77,43.5,95.57,46.08Z"/><path class="cls-222" d="M88.63,56.53c4.34-4,4.21-8.2,4.2-8.23l-1.07-.22h0l.11.58c0,.11-1.3,4.47-3.75,6.63Z"/><path class="cls-223" d="M78.8,59.7c-5.43-4.11-13.47-3.77-13.47-3.77C52.84,57,53,50.46,53,50.46,42.84,43,40.61,36.89,44.24,32.06a36.35,36.35,0,0,1,7.32-3.39C77.73,19.51,93,43.5,92.27,55.7A6.14,6.14,0,0,1,91,58.87C87.13,61.18,82.06,62.16,78.8,59.7Z"/><path class="cls-10" d="M88.59,57.55c.75-12.19-11.46-35.07-40.7-27-6.14,1.69-18.48,13.69-2.57,25.32,0,0-.17,6.5,12.31,5.47a46.23,46.23,0,0,1,13.24,6.47C79.72,74.31,88.26,63.05,88.59,57.55Z"/><path class="cls-224" d="M44.41,55.15l.91.69s-1.07-3.05-.07-4.64c.52-.83,1.68-1.21,3.45-1.15l.74,0c4.17.16,6.91.26,8.27-1.35.89-1.06,1-2.7.49-5.33-1-4.77-.77-8,.71-9.73,1-1.14,2.62-1.62,4.83-1.46,4.5.34,6.15,3.33,6.81,12.27.14,1.84,1.79,3.82,4.21,5,1.89,1,6,3.32,12.51-.81l-.35-1c-6.07,3.84-10,1.75-11.7.88-2.4-1.21-3.56-3-3.65-4.21-.6-8.23-2-12.78-7.75-13.21-2.55-.19-4.47.41-5.69,1.8-1.72,2-2,5.45-.93,10.62.47,2.26.38,3.67-.28,4.46-1,1.23-3.72,1.13-7.43,1l-.75,0c-2.16-.07-3.63.47-4.37,1.64A4.65,4.65,0,0,0,44.41,55.15Z"/><path class="cls-224" d="M60.93,55.87l1-.09c-.68-7.12-10-6.66-10.05-6.65l.06,1C52.29,50.14,60.34,49.75,60.93,55.87Z"/><path class="cls-224" d="M56.81,41.46l1-.2c0-.08-1.83-8.62-10-8.24l0,1C55.19,33.68,56.75,41.15,56.81,41.46Z"/><path class="cls-224" d="M47.18,39.45c1.16-4,5.9-4,6-4v-1s-5.55.09-6.93,4.76Z"/><path class="cls-224" d="M77.8,58l.38-1c-9.94-3.88-6.83-12.75-6.69-13.13l-1-.35C70.49,43.67,66.94,53.77,77.8,58Z"/><path class="cls-224" d="M72.25,60.85l.7-.75C70.06,57.44,72.28,53,72.3,53l-.91-.47C71.28,52.71,68.8,57.68,72.25,60.85Z"/><path class="cls-224" d="M70,39.6l.83-.59s-3.47-4.8-8-3l.38,1C67,35.46,70,39.57,70,39.6Z"/><path class="cls-224" d="M76.18,66.51c4.66-.42,4.83-4,5.85-7.31a11.19,11.19,0,0,1,1.16-3.13,5.72,5.72,0,0,1,5.2-2.74l-.18-1a6.22,6.22,0,0,0-5.93,3.27,19.07,19.07,0,0,0-1.23,3.32c-1,3.29-2.93,7.11-6.92,7.47Z"/><path class="cls-224" d="M74.52,49.13l1-.09c-.34-3.93,6.17-4.78,6.23-4.79l-.12-1C81.34,43.27,74.09,44.23,74.52,49.13Z"/><path class="cls-224" d="M76.76,45.57l.87-.54c-1.87-3,1.11-7,1.14-7L78,37.4C77.82,37.58,74.52,41.93,76.76,45.57Z"/><path class="cls-224" d="M46.56,49.85l.93-.44c-1-2-1.49-2.37-3.32-3.64l-1.27-.89c-2.53-1.82-.78-5.3-.76-5.34l-.91-.47c-.77,1.49-1.52,4.78,1.08,6.65l1.28.89C45.36,47.85,45.73,48.11,46.56,49.85Z"/><path class="cls-224" d="M40.13,46.62a5.43,5.43,0,0,0,2.77-.9l-.58-.85a4,4,0,0,1-2.72.66c-.65-.14-1.67-1.4-2.09-2.13l.1,1.61c.56,1,.83,1.31,1.77,1.53A3.82,3.82,0,0,0,40.13,46.62Z"/><path class="cls-224" d="M60.79,61.18c.12,0,.19-.07.29-.18.36-.37,0-.74-.18-.89l0,0-2.43-2.21a2.93,2.93,0,0,1-1.12-2.35c.15-1.83,2.37-3.32,2.39-3.33l-.56-.86c-.11.07-2.66,1.78-2.85,4.11a3.84,3.84,0,0,0,1.45,3.18c1.27,1.18,2,1.85,2.44,2.19l.11.11h0A.89.89,0,0,0,60.79,61.18Z"/><path class="cls-224" d="M52.36,57.8a2.89,2.89,0,0,1,4.21-1.14l.56-.86a3.9,3.9,0,0,0-5.64,1.45Z"/><path class="cls-224" d="M58.35,45.65s2.44-2.58,4.76-2.58h0a2.86,2.86,0,0,1,2.16,1l.75-.69A3.87,3.87,0,0,0,63.15,42c-2.75,0-5.44,2.79-5.55,2.91Z"/><path class="cls-224" d="M49.47,43.4c2.81-2.69.2-7.34.09-7.54l-.89.51s2.32,4.16.09,6.29Z"/><path class="cls-224" d="M79.42,63.82l.72-.73a4.68,4.68,0,0,0-5.35-.64l.46.92A3.61,3.61,0,0,1,79.42,63.82Z"/><path class="cls-224" d="M67.21,57.77c.92-1.72,3.69-1.44,3.72-1.44l.12-1c-.15,0-3.51-.36-4.74,2Z"/><path class="cls-10" d="M88.59,57.55c-.33,5.5-8.45,16-16,11.29a91.59,91.59,0,0,0-15-7.53c-12.48,1-12.31-5.47-12.31-5.47-10-7.33-8.83-14.79-5-19.74-2.54,7.94,5.8,14.8,8.4,17.64,2.84,3.12,6.31,2.45,10.67,1.95s3.85,1.88,14.29,5.16c8.65,2.73,13.53-3.53,15-5.75A18.25,18.25,0,0,1,88.59,57.55Z"/><path class="cls-221" d="M22.32,40C20.61,53.6,23.52,64.37,37.68,72.2a64.18,64.18,0,0,0,13.77,5.51V61.85a63.67,63.67,0,0,1-13.77-5.51C30.88,52.58,24.71,44.83,22.32,40Z"/><path class="cls-221" d="M110.26,40c-2.32,4.74-8.79,11.72-15.43,15.49A60.94,60.94,0,0,1,84.67,60L84.8,75.9A60.51,60.51,0,0,0,95,71.38C108.88,63.49,111.33,52.14,110.26,40Z"/><path class="cls-221" d="M80.8,77.31V61.43a94,94,0,0,1-26.54,1.71V79A94,94,0,0,0,80.8,77.31Z"/><path class="cls-221" d="M42.66,19.92s-10.84,2.95-15.82,9.3v-6S31,19,42.66,14.59Z"/><path class="cls-221" d="M79.13,11.91v5.84s11.22.42,25,9.78V20.18S95.57,14.27,79.13,11.91Z"/><path class="cls-10" d="M29.08,29.22a28.79,28.79,0,0,1,2.64-1.92,55.27,55.27,0,0,1,7.53-4.18c1.62-.74,3.41-1.48,5.34-2.17a56.68,56.68,0,0,1,6.17-1.83,64.61,64.61,0,0,1,6.78-1.25,66.64,66.64,0,0,1,7.09-.52,64.68,64.68,0,0,1,7.12.32c1.17.09,2.32.3,3.46.44s2.25.4,3.35.6a58.67,58.67,0,0,1,6.22,1.63c1,.28,1.93.61,2.83.94s1.78.62,2.6,1c1.65.7,3.16,1.31,4.45,2S97.1,25.4,98,25.93l2.84,1.6L97.9,26.11c-.91-.49-2.08-1-3.4-1.54S91.66,23.43,90,22.78c-.82-.33-1.71-.58-2.61-.89s-1.84-.61-2.82-.86c-2-.57-4-1-6.19-1.48-1.09-.18-2.19-.41-3.31-.56s-2.27-.31-3.42-.39a62.82,62.82,0,0,0-7-.26,67.62,67.62,0,0,0-7,.44A66.29,66.29,0,0,0,51,20a68.4,68.4,0,0,0-11.48,3.67c-1.62.71-3.1,1.37-4.38,2s-2.38,1.27-3.27,1.8C30,28.51,29.08,29.22,29.08,29.22Z"/><path class="cls-10" d="M35.66,55.09a30.72,30.72,0,0,0,2.71,1.48,60,60,0,0,0,7.5,3.12c1.6.52,3.33,1.08,5.21,1.51S54.93,62,57,62.34a57.8,57.8,0,0,0,6.42.57,57,57,0,0,0,6.65-.23l1.67-.15,1.65-.23c1.1-.13,2.18-.37,3.26-.58a56.63,56.63,0,0,0,6.22-1.67c2-.68,3.88-1.38,5.64-2.17l1.3-.57L91,56.7c.81-.42,1.61-.78,2.33-1.2,1.46-.85,2.83-1.56,4-2.32s2.18-1.35,3-1.94l2.53-1.78-2.42,1.94c-.75.63-1.75,1.29-2.87,2.09S95.09,55.1,93.65,56c-.72.45-1.52.83-2.31,1.28q-.61.31-1.23.66l-1.3.61a52.56,52.56,0,0,1-5.66,2.33,57.73,57.73,0,0,1-6.31,1.76c-1.09.22-2.19.48-3.31.62l-1.68.25-1.69.17a54.8,54.8,0,0,1-6.77.16,57.14,57.14,0,0,1-6.52-.64,49.59,49.59,0,0,1-6-1.29c-1.88-.5-3.61-1.11-5.21-1.69a54,54,0,0,1-7.4-3.46A26.7,26.7,0,0,1,35.66,55.09Z"/><path class="cls-10" d="M107.5,58.88a13.78,13.78,0,0,1-.92,2A21.85,21.85,0,0,1,105.22,63a14.17,14.17,0,0,1-.94,1.26c-.36.42-.7.9-1.13,1.32L101.84,67c-.47.46-1,.88-1.51,1.35A35.29,35.29,0,0,1,96.85,71l-2,1.19a19,19,0,0,1-2.08,1.14,40.76,40.76,0,0,1-4.41,2l-2.27.83c-.76.27-1.55.45-2.31.67l-2.28.63c-.74.22-1.51.31-2.25.47-1.49.27-2.92.6-4.3.74L71.1,79a26.22,26.22,0,0,1-3.29.18l-2.53,0-2.21,0,2.2-.21,2.51-.22c1-.09,2.07-.17,3.26-.37l3.83-.55a19.73,19.73,0,0,0,2.06-.41l2.16-.45c.72-.17,1.48-.27,2.22-.5l2.23-.65c.75-.23,1.52-.42,2.26-.69L88,74.36a37.47,37.47,0,0,0,4.35-1.87,18.29,18.29,0,0,0,2.06-1.08l2-1.14L98.18,69l.88-.6.81-.65c.52-.44,1.06-.83,1.53-1.27l1.35-1.28c.44-.4.78-.86,1.17-1.25a15,15,0,0,0,1-1.17,19.83,19.83,0,0,0,1.48-2c.37-.59.67-1.05.83-1.39S107.5,58.88,107.5,58.88Z"/><path class="cls-225" d="M101,80.87a2.14,2.14,0,0,0-2,2.2c-.1,2.12,1.1,11.44,3.2,13.45s2.41-2.33,2.41-2.33S104.39,80.67,101,80.87Z"/><path class="cls-226" d="M112.52,96.52a9.11,9.11,0,0,0,4.35.11c1.81-.57,1.4-.67,1.28-.95-.24-.6-2.57-.63-3-.78s.39-.42.59-.7.63-.59.5-.7-.48-.24-1.17.23a14.67,14.67,0,0,1-2.4,1Z"/><path class="cls-14" d="M113.06,94.54a4.54,4.54,0,0,0-.23,1.13,2.67,2.67,0,0,0,.26,1.35s-8.52,1-10.56-.27c0,0-1.79-3.34,1.42-3.92Z"/><path class="cls-14" d="M103.24,97a1.21,1.21,0,0,1-.68-.27l0,0h0c-.09-.07-.18-.13-.28-.22-2.1-2-3.3-11.33-3.2-13.45a2.66,2.66,0,0,1,.24-1c.49,2.41,2.79,13.5,3.75,13.78s7.46.4,9.82.45a2.52,2.52,0,0,0,.23.71S106.05,97.84,103.24,97Z"/><path class="cls-14" d="M110.22,122.61s-.48,1.68.7,2.11a10.15,10.15,0,0,1,2.6,1.28c.45.36,5.53,2.52,6.16,1.5s-.89-2.18-1.28-2.54-3.84-3.34-3.84-3.34Z"/><path class="cls-14" d="M106.11,125.54s-.47,1.67.71,2.1a10.33,10.33,0,0,1,2.6,1.28c.45.36,5.53,2.52,6.15,1.5s-.89-2.18-1.27-2.54-3.84-3.34-3.84-3.34Z"/><path class="cls-225" d="M101.72,98.38s12.45,7.82,12.8,9.82.29,13.71.29,13.71-3.19,1.37-4.73.51l-1.29-11s-9.79-7.23-10.22-7.5S101.72,98.38,101.72,98.38Z"/><path class="cls-225" d="M98.57,103.88c.43.27,10.22,7.5,10.22,7.5l1.29,11a4.24,4.24,0,0,0,2.83.09c-.43-3.35-1.42-10.74-1.77-12.61-.47-2.44-10.51-8.22-10.51-8.22l-2,1.91C98.53,103.75,98.52,103.85,98.57,103.88Z"/><path class="cls-225" d="M101.73,98.68s-1.43,4.27-2.18,5.2c0,0,10,5.27,10.45,7.81s1.14,13.44,1.14,13.44a6.22,6.22,0,0,1-5.22.38s-1.12-8.36-1.23-11.73c0,0-15-4-13.93-12.21A10.56,10.56,0,0,0,101.73,98.68Z"/><path class="cls-225" d="M104.69,113.78c.11,3.37,1.23,11.73,1.23,11.73a6.51,6.51,0,0,0,1.46.34c-.08-1.3-.19-3-.32-5.28-.5-8.44-1.8-8.28-1.8-8.28-9.54-4.3-11.47-8.42-11.47-8.42L90.73,102C90.17,109.93,104.69,113.78,104.69,113.78Z"/><path class="cls-14" d="M95.31,81.65s-4.74,2.42-4.86,2.78-1.35,1.25.41,5.42c0,0,2.35,4.53,1.17,9.06a27.32,27.32,0,0,1-1.3,4s2.11,3.13,8,.95a8.44,8.44,0,0,0,3.81-3.38,30.94,30.94,0,0,1,.19-8.39c.74-4.53,1.16-10.4-1.41-11.18C101.35,80.9,100.7,80.11,95.31,81.65Z"/><path class="cls-227" d="M97,80.2s3.45,1.81,1.92,4.41l1.62.9S102.11,81,97,80.2Z"/><path class="cls-226" d="M94.77,78.36s1.45,2.21.3,3.7c-.65.83.87,2.8,3.46,2.64,0,0,1.15-.28,1-.7a2.54,2.54,0,0,1,.53-2.21C100.5,81.06,94.77,78.36,94.77,78.36Z"/><path class="cls-228" d="M95.07,82.06a.61.61,0,0,0-.14.34,4.82,4.82,0,0,1,2.83-1.06L95.3,78.62l-.24-.12-.08.24C95.34,79.44,95.93,81,95.07,82.06Z"/><path class="cls-229" d="M99.56,84c-.24-1.51.12-1.49.53-2.21.11-.21-.24-.55-.81-1a1.65,1.65,0,0,0-.42.47A4.64,4.64,0,0,0,98,84.7a2.44,2.44,0,0,0,.54,0C98.84,84.66,99.64,84.47,99.56,84Z"/><path class="cls-226" d="M94.23,77.13a7.62,7.62,0,0,0,2.64,4.24c1.78,1.17,3.85,1.94,4.23-.18.3-1.69,1.13-6-.36-6.85-1.92-1.11-2.63-2.48-4.85-1.66A3.6,3.6,0,0,0,94.23,77.13Z"/><path class="cls-230" d="M94.23,77.13a6.55,6.55,0,0,0,2.63,4.28,8,8,0,0,0,1.68.89,8.07,8.07,0,0,1-1.76-1.74c-.72-.85,1.09-.52-.15-2.68-.42-.74,1.64.21,2.1.2,2.74-.07,2.53-1.64,2.59-2.3a4.54,4.54,0,0,0-.23-.81l-.26-.5-.09-.13a8.54,8.54,0,0,0-.89-1c-1.17,0-4.5.09-4.57.11s-.62.79-1.15,1.53A4.35,4.35,0,0,0,94.23,77.13Z"/><path class="cls-225" d="M95.43,80A5.26,5.26,0,0,1,94,75a3.42,3.42,0,0,1,3-2.66,4,4,0,0,1,4.59,2.44c.3.78.1,2.51-3,1.7-.44-.11-1.61-.27-2,.11a1.61,1.61,0,0,0-.26,1.67c.18.53-.28.58-.35.47s-.65-1.6-1.21-1S95.37,79.85,95.43,80Z"/><path class="cls-225" d="M95.43,80c-.06-.1-1.17-1.71-.67-2.24s1.15.91,1.21,1,.53.06.35-.47a1.61,1.61,0,0,1,.26-1.67c.38-.34,1.41-.16,2-.11-.51-.32-1.53-.44-1.9-1.29a3,3,0,0,0-1.81-1.87A3.58,3.58,0,0,0,94,75,5.26,5.26,0,0,0,95.43,80Z"/><path class="cls-227" d="M95.42,81.34a4.51,4.51,0,0,0,3.48,3.27l-.85,2.06S92.77,84,95.42,81.34Z"/><path class="cls-225" d="M90.45,84.43c-.12.37-1.35,1.25.41,5.42a16.22,16.22,0,0,1,1,9c-.45,1.94-.66,1.48-1.39,3.13-.43.94,1.57,2.39,3.53,2.57,1-2.4.73-2.38,1.16-5A11.49,11.49,0,0,0,92.33,89.4c-2.59-3.18-1.5-4.41-1.56-5.25A1.06,1.06,0,0,0,90.45,84.43Z"/><path class="cls-225" d="M101.59,74.78s.46,2.81-3.12,1.79A4.12,4.12,0,0,1,96,74.44a1.61,1.61,0,0,0-1.17-1,3.8,3.8,0,0,1,3.42-1.18,6,6,0,0,1,2.65,1.39C101.16,73.83,100.68,75,101.59,74.78Z"/><g class="cls-13"><polygon class="cls-231" points="95.54 104.13 95.5 104.58 102.03 109.23 102.08 108.78 95.54 104.13"/><polygon class="cls-232" points="102.08 108.78 102.03 109.23 114.23 103.63 114.27 103.17 102.08 108.78"/><polygon class="cls-233" points="95.54 104.13 102.08 108.78 114.27 103.17 107.74 98.52 95.54 104.13"/></g><g class="cls-13"><polygon class="cls-234" points="104.03 101.05 103.55 100.59 101.51 108.76 102 109.21 104.03 101.05"/><polygon class="cls-235" points="116.79 95.19 116.3 94.74 103.55 100.59 104.03 101.05 116.79 95.19"/><polygon class="cls-236" points="104.03 101.05 102 109.21 114.75 103.34 116.79 95.19 104.03 101.05"/><polygon class="cls-237" points="104.03 101.05 104.03 101.05 114.75 103.34 116.79 95.19 104.03 101.05"/></g><path class="cls-226" d="M97.78,104.62s2.35,2.84,5.19,2.82c0,0,.13-.71-1-1.2a2.18,2.18,0,0,1-1.41-1.66c0-.14,1,0,1.44,0s1.05-.42,0-.69a17.57,17.57,0,0,0-3.77-1S97,103.83,97.78,104.62Z"/><path class="cls-14" d="M92.42,83.74a4.16,4.16,0,0,0-3.34,2c-.93,1.91-3.55,10.93-2.42,13.61s11.18,5.88,11.18,5.88a2.86,2.86,0,0,1,.86-2.79L90.52,97S94.46,85,92.42,83.74Z"/><path class="cls-14" d="M90.52,97l8.18,5.42a2.92,2.92,0,0,0-.45.53c-2-1.14-8.53-4.92-9.07-5.93s3.06-11.2,3.63-12.76C93.82,87,90.52,97,90.52,97Z"/><path class="cls-14" d="M22.68,122.47a6,6,0,0,1-.88,2.67c-.74.94-4.2,3.12-3.94,4.07s2.76,1,4.31-.6,2-1.85,2.62-2a1.59,1.59,0,0,0,.9-2.45A6.8,6.8,0,0,1,22.68,122.47Z"/><path class="cls-14" d="M27.11,125.67a6.21,6.21,0,0,1-1.1,2.74c-.85.94-4.61,3-4.39,4s2.82,1.23,4.55-.34,2.17-1.81,2.88-1.93a1.67,1.67,0,0,0,1.1-2.5A7.22,7.22,0,0,1,27.11,125.67Z"/><path class="cls-225" d="M36.22,99.74s-12.48,7-13.23,9.2c-1.09,3.17-.89,5.31-.36,13.15l0,1.85a3.29,3.29,0,0,0,3.35.42c.54-.28,0-5.44.86-8.31a22.42,22.42,0,0,0,0-4.31s10.07-3.5,12.42-5.66S36.22,99.74,36.22,99.74Z"/><path class="cls-225" d="M46.83,102s2,4.48-3.3,7.22c-5.6,2.89-11.53,6.39-11.53,6.39a30.07,30.07,0,0,1-.29,5.68c-.6,2.89-1.47,6.67-1.47,6.67s-2.4,1-3.76-.35c0,0-.13-13.9,1.5-15.46s9.8-7.78,9.8-7.78l-1.56-4.58Z"/><path class="cls-225" d="M43.53,109.17c-5.6,2.89-11.53,6.39-11.53,6.39a30.07,30.07,0,0,1-.29,5.68c-.6,2.89-1,6.53-1,6.53a7.49,7.49,0,0,1-1.46.31c.83-3.73,1.2-12,1.58-13.57.47-1.89,6.39-3.92,10.59-6.14a8.41,8.41,0,0,0,4.39-6.64l1,.22S48.82,106.43,43.53,109.17Z"/><path class="cls-225" d="M22.2,121.84c-.52-7.85-.3-9.73.79-12.9.75-2.2,13.23-9.2,13.23-9.2a17.24,17.24,0,0,1,1.45,1.33c-3.36,1.66-11.43,5.85-12.93,8.67C23,113,24.3,122,24.13,124.61a8.43,8.43,0,0,1-1.82-.45Z"/><path class="cls-226" d="M30.63,97s-1.75-.3-2.51.33-1.34.84-1.67,1.5.06,1,.64,1a5.73,5.73,0,0,0,2.42-.89,2.18,2.18,0,0,1,1.32-.47C31.11,98.42,31.47,97.57,30.63,97Z"/><path class="cls-14" d="M38.29,83.48c-.86-.1-2.23.39-2.18,2.65s.27,8.62.27,8.62-5.87,1.75-6.52,2.06a1.56,1.56,0,0,1,.9,1.76s6.79.13,8-1.5S41.78,83.87,38.29,83.48Z"/><path class="cls-14" d="M48.23,88s-2-3.52-10.13-4.68c0,0-1.29-.53-1.17,3.65a4.6,4.6,0,0,1-1,2.18c-.42.55-1.55,2.64.92,5.15,0,0,1,3.74-.19,6.15-1,2.15,4.31,4.25,8.83,3.82.56-.06,1.8-.43,1.31-2.36S45.13,96.56,46,93,48.83,89.82,48.23,88Z"/><path class="cls-225" d="M48.23,88c.6,1.82-1.28,1.4-2.19,5s.24,7,.73,8.93-.75,2.3-1.31,2.36a14.33,14.33,0,0,1-2.27,0c1.59-3.48-.45-9.79-.55-13.27a5.64,5.64,0,0,1,3.24-5.14A7.28,7.28,0,0,1,48.23,88Z"/><path class="cls-225" d="M39.55,76.83s.53,4.18.78,8.17a1.33,1.33,0,0,1-1.64,1.31s-3-4.73-.6-9.42a4.49,4.49,0,0,1,6.69-1.38Z"/><path class="cls-238" d="M38.69,82.32a3.87,3.87,0,0,1,.78,3.5c-.18.51-.63,2.56,2.48,1.71,0,0,3.22-1.65,2.25-2.62-.65-.65-1.28-1.59-.34-4.93Z"/><path class="cls-239" d="M44.2,84.91a.52.52,0,0,1,.16.32,5.79,5.79,0,0,1-5-1.48l3.84-3.42h0l.49.35C43,83.46,43.6,84.31,44.2,84.91Z"/><path class="cls-240" d="M39.19,76.39s-.84.29-.86,2.77c0,.28-.44.64-.55,1.32s-.26,3.45,1.34,3.75a5,5,0,0,0,5-3.33C45.05,78.11,42.66,74.54,39.19,76.39Z"/><path class="cls-225" d="M39.35,77.38s7.12,2.6,1.79,11.77c0,0,3.71.36,5.36-2.84.79-1.54.47-4.64.23-7.59,0,0-.83-4.55-4.63-3.86C42.1,74.86,39.58,75.82,39.35,77.38Z"/><path class="cls-225" d="M39.35,77.38s-1.25-.23-1.85,2.06c0,0,.19-6.47,6.32-4.52C43.82,74.92,40.17,75.1,39.35,77.38Z"/><path class="cls-240" d="M42.69,81.38s.43-1.38,1.22-1c.25.13.52.42.14,1.12s-1.15,1.36-1.78,1.28Z"/><g class="cls-13"><polygon class="cls-231" points="39.85 104.32 39.88 104.69 34.44 108.57 34.41 108.2 39.85 104.32"/><polygon class="cls-232" points="34.41 108.2 34.44 108.57 24.27 103.9 24.24 103.53 34.41 108.2"/><polygon class="cls-233" points="39.85 104.32 34.41 108.2 24.24 103.53 29.68 99.64 39.85 104.32"/></g><g class="cls-13"><polygon class="cls-234" points="32.77 101.75 33.18 101.38 34.87 108.18 34.47 108.56 32.77 101.75"/><polygon class="cls-235" points="22.14 96.87 22.55 96.49 33.18 101.38 32.77 101.75 22.14 96.87"/><polygon class="cls-236" points="32.77 101.75 34.47 108.56 23.84 103.67 22.14 96.87 32.77 101.75"/><polygon class="cls-237" points="32.77 101.75 32.77 101.75 23.84 103.67 22.14 96.87 32.77 101.75"/></g><path class="cls-14" d="M39,100.37s-1.76.24-2.3,1.06a8.77,8.77,0,0,0-1.42,2.41c-.12.73,0,1,.59.77a10,10,0,0,0,2.62-2.09c.69-.78.85-.7,1.12-.83S39.94,100.64,39,100.37Z"/><path class="cls-14" d="M39.58,101.69c-.27.13-.43,0-1.12.83a10,10,0,0,1-2.62,2.09l-.21,0c.39-.51,1.06-1.38,1.66-2.12A5.49,5.49,0,0,1,39.71,101,.63.63,0,0,1,39.58,101.69Z"/><path class="cls-14" d="M47.39,87.08c-.86-.11-2.23.34-2.23,2.62s.1,8.61.1,8.61-5.9,1.64-6.55,1.94a1.24,1.24,0,0,1,.85,1.56s6.8.48,8-1.13S50.87,87.54,47.39,87.08Z"/><path class="cls-14" d="M38.71,100.25c.65-.3,6.55-1.94,6.55-1.94s-.09-6.34-.1-8.61,1.37-2.73,2.23-2.62a1.54,1.54,0,0,1,.61.22l.06.09s-1.94,1.1-1.8,5.24,1.94,6.42-1.46,7.13l-5.33,1.11A1.41,1.41,0,0,0,38.71,100.25Z"/></g></g></svg>