<svg xmlns="http://www.w3.org/2000/svg" viewBox="0 0 95.52 26.95"><defs><style>.cls-1{fill:#333;}.cls-2{fill:#9874af;}.cls-3{fill:#31357f;}.cls-4{fill:#5e5fa6;}.cls-5{fill:#55baf0;}</style></defs><title>logo_black</title><g id="Layer_2" data-name="Layer 2"><g id="Layer_1-2" data-name="Layer 1"><g id="Layer_1-2-2" data-name="Layer 1-2"><path class="cls-1" d="M54.79,22.41H52.28a1,1,0,0,1-.68-.22,1.41,1.41,0,0,1-.4-.53l-1.29-3.55h-7.2l-1.29,3.55a1.15,1.15,0,0,1-.39.51,1,1,0,0,1-.68.24H37.8L44.65,5H48Zm-5.71-6.59L47,10c-.1-.25-.21-.57-.33-.91s-.23-.73-.33-1.14c-.1.42-.22.8-.33,1.14s-.21.62-.33.93l-2.11,5.77h5.56Z"/><path class="cls-1" d="M59.61,6.44a1.83,1.83,0,0,1-.15.73,2.21,2.21,0,0,1-.41.6,1.91,1.91,0,0,1-.62.39,1.72,1.72,0,0,1-.74.15A1.83,1.83,0,0,1,57,8.16a1.73,1.73,0,0,1-.6-.39,2.17,2.17,0,0,1-.4-.6,1.83,1.83,0,0,1-.15-.73A1.93,1.93,0,0,1,56,5.69a2.17,2.17,0,0,1,.4-.6A1.88,1.88,0,0,1,57,4.7a1.76,1.76,0,0,1,.72-.16,1.93,1.93,0,0,1,.75.15,2.08,2.08,0,0,1,.61.42,1.81,1.81,0,0,1,.42.6A1.83,1.83,0,0,1,59.61,6.44Zm-.4,3.6V22.41h-3V10Z"/><path class="cls-1" d="M81.43,5V22.41H78.57V11.15c0-.45,0-.93.07-1.46l-5.27,9.9a1.22,1.22,0,0,1-1.14.71h-.47a1.22,1.22,0,0,1-1.14-.71L65.29,9.65c0,.26,0,.53.07.78s0,.5,0,.71V22.41H62.52V5H65a2.48,2.48,0,0,1,.38,0,.67.67,0,0,1,.28.06,1,1,0,0,1,.24.15,1.45,1.45,0,0,1,.19.29l5.23,9.68c.13.26.26.51.38.79s.23.55.35.85l.35-.85a8.34,8.34,0,0,1,.38-.8L77.9,5.52a1.31,1.31,0,0,1,.2-.28.51.51,0,0,1,.23-.15L78.61,5h2.82Z"/><path class="cls-1" d="M95.52,19.72v2.67H85.32V5h3.24V19.72Z"/><path class="cls-2" d="M26.59,8.68a2.71,2.71,0,0,0-2.67-1.6A2.54,2.54,0,0,1,23,7a3.46,3.46,0,0,1-1.51-.93,4,4,0,0,1-1.7-3.4A2.33,2.33,0,0,0,18.92.78,2.76,2.76,0,0,0,15.23.66a2.72,2.72,0,0,0-.75,3.46A2.58,2.58,0,0,0,16.9,5.63a3.5,3.5,0,0,1,2.81,1.18c.25.25.46.55.73.78a3.77,3.77,0,0,1,.45,4c-1,1.39-2.06,2.72-4,2.59a.38.38,0,0,0-.15,0,2.67,2.67,0,0,0-2.39,1.89A2.65,2.65,0,0,0,15,19a2.72,2.72,0,0,0,3,.57A2.75,2.75,0,0,0,19.8,16.9a3.05,3.05,0,0,1,.62-2,11.44,11.44,0,0,1,1.06-1.14,3.24,3.24,0,0,1,2.6-1,2.57,2.57,0,0,0,2.14-1A2.67,2.67,0,0,0,26.59,8.68ZM17.92,3.75a1.32,1.32,0,1,1,0-1.86h0a1.3,1.3,0,0,1,0,1.84Zm0,14.16A1.3,1.3,0,1,1,16,16.09l.06-.07a1.34,1.34,0,0,1,1.83,0,1.31,1.31,0,0,1,0,1.85ZM25,10.8a1.29,1.29,0,0,1-1.83,0h0a1.32,1.32,0,0,1,0-1.87l0,0A1.31,1.31,0,0,1,25,10.8Z"/><path class="cls-3" d="M9.89,21.23A3.12,3.12,0,0,1,8,20.68c-.32-.23-.6-.51-.9-.76l0,0c-.12-.11-.23-.25-.35-.35a3.73,3.73,0,0,1-.21-4.94c1-1.06,2-1.95,3.64-1.92a2.73,2.73,0,0,0,2.43-3.78A2.82,2.82,0,0,0,9,7.25,2.72,2.72,0,0,0,7.14,10a3.25,3.25,0,0,1-.91,2.33c-.35.35-.69.7-1.05,1a2.85,2.85,0,0,1-2.09.8A2.8,2.8,0,0,0,.87,15a2.69,2.69,0,0,0-.71,2.79A2.74,2.74,0,0,0,3,19.8a2.9,2.9,0,0,1,1.85.52,7.61,7.61,0,0,1,1.79,1.79,3.08,3.08,0,0,1,.52,2,2.78,2.78,0,0,0,2.2,2.74,2.84,2.84,0,1,0,1.38-5.51,3.1,3.1,0,0,0-.81-.08ZM9,9a1.31,1.31,0,0,1,1.87,1.84,1.24,1.24,0,0,1-1.77.09l-.05,0A1.33,1.33,0,0,1,9,9ZM3.79,17.88A1.3,1.3,0,0,1,2,17.93l0,0a1.3,1.3,0,1,1,1.85,0ZM10.84,25a1.3,1.3,0,1,1,0-1.84l0,0a1.26,1.26,0,0,1,0,1.79Z"/><path class="cls-4" d="M25.4,14.55a2.81,2.81,0,0,0-3.8,1.17,2.72,2.72,0,0,0-.33,1.37A3.09,3.09,0,0,1,20.72,19c-.23.32-.51.6-.76.9h0a3.76,3.76,0,0,0-.35.34,3.72,3.72,0,0,1-4.94.22,4.74,4.74,0,0,1-1.92-3.65A2.72,2.72,0,0,0,9,14.43,2.8,2.8,0,0,0,7.29,18,2.71,2.71,0,0,0,10,19.85a3.24,3.24,0,0,1,2.34.92c.35.34.7.68,1,1a2.84,2.84,0,0,1,.78,2.09A2.87,2.87,0,0,0,15,26.12a2.71,2.71,0,0,0,2.79.7,2.75,2.75,0,0,0,2-2.79,2.88,2.88,0,0,1,.51-1.86,8.53,8.53,0,0,1,1.81-1.79,3.17,3.17,0,0,1,2-.51,2.76,2.76,0,0,0,2.73-2.21A2.83,2.83,0,0,0,25.4,14.55ZM10.92,17.93A1.34,1.34,0,0,1,9,18H9a1.31,1.31,0,0,1,1.84-1.87A1.25,1.25,0,0,1,11,17.88s0,0-.05.05Zm7,7.11a1.3,1.3,0,1,1-1.88-1.8l0,0A1.3,1.3,0,0,1,18,25ZM25,18a1.31,1.31,0,0,1-1.93-1.76l.08-.08a1.27,1.27,0,0,1,1.81,0l0,0a1.27,1.27,0,0,1,0,1.82l0,0Z"/><path class="cls-5" d="M19.68,9A2.75,2.75,0,0,0,17,7.1a3.49,3.49,0,0,1-2.49-1,4.41,4.41,0,0,1-1.79-3.57A2.57,2.57,0,0,0,10.46.06,2.75,2.75,0,0,0,7.41,1.53,2.58,2.58,0,0,0,7.1,3a2.68,2.68,0,0,1-.52,1.79A7.42,7.42,0,0,1,4.79,6.57a3.14,3.14,0,0,1-2,.51A2.79,2.79,0,0,0,.08,9.24a2.83,2.83,0,0,0,5.49,1.35,3,3,0,0,0,.08-.73A3.39,3.39,0,0,1,6,8.26,8,8,0,0,1,7,6.92l.63-.55a3.69,3.69,0,0,1,4.06-.31,7.08,7.08,0,0,1,2,2,2.81,2.81,0,0,1,.47,1.71,2.71,2.71,0,0,0,1.22,2.5A2.84,2.84,0,0,0,19.68,9ZM3.78,10.8a1.29,1.29,0,0,1-1.83,0l0,0a1.29,1.29,0,0,1,0-1.8l0,0A1.31,1.31,0,0,1,3.78,9h0a1.28,1.28,0,0,1,0,1.8l0,0Zm7.06-7.06a1.31,1.31,0,1,1,0-1.83l0,0A1.31,1.31,0,0,1,10.84,3.74Zm7.09,7.09a1.32,1.32,0,1,1,0-1.87A1.31,1.31,0,0,1,17.93,10.83Z"/><path class="cls-3" d="M.68,23.37a1.82,1.82,0,0,1,2.57,0l0,0a1.81,1.81,0,0,1,0,2.56L3.24,26A1.81,1.81,0,0,1,.67,26l0,0a1.8,1.8,0,0,1,0-2.53Z"/><path class="cls-3" d="M2.58,24.07a.9.9,0,0,0-1.26,0h0a.91.91,0,0,0,0,1.26.88.88,0,0,0,1.24-1.26Z"/><path class="cls-5" d="M.68.57a1.82,1.82,0,0,1,2.57,0l0,0a1.81,1.81,0,0,1,0,2.56l-.06.06a1.82,1.82,0,0,1-2.57,0l0,0A1.8,1.8,0,0,1,.63.61Z"/><path class="cls-5" d="M2.58,1.25a.89.89,0,0,0-1.26,0,.91.91,0,0,0,0,1.26A.88.88,0,0,0,2.58,1.25Z"/><path class="cls-4" d="M23.54,23.37a1.84,1.84,0,1,1,0,2.6h0a1.82,1.82,0,0,1,0-2.58Z"/><path class="cls-4" d="M25.47,24.07a.9.9,0,0,0-1.26,0h0a.93.93,0,0,0,0,1.26.89.89,0,0,0,1.23,0A.9.9,0,0,0,25.47,24.07Z"/><path class="cls-2" d="M23.54.57a1.83,1.83,0,0,1,2.58,0l0,0a1.8,1.8,0,0,1,0,2.56h0a1.81,1.81,0,0,1-2.56.06l0-.05A1.78,1.78,0,0,1,23.48.63Z"/><path class="cls-2" d="M25.5,1.25a.9.9,0,0,0-1.28,0h0a.93.93,0,0,0,0,1.26.91.91,0,0,0,1.26,0A.93.93,0,0,0,25.5,1.25Z"/></g></g></g></svg>