<svg xmlns="http://www.w3.org/2000/svg" xmlns:xlink="http://www.w3.org/1999/xlink" viewBox="0 0 355.39 356.4"><defs><style>.cls-1{fill:#1a2089;}.cls-2{fill:url(#Áåçûìÿííûé_ãðàäèåíò_32);}.cls-3{fill:url(#Áåçûìÿííûé_ãðàäèåíò_32-2);}.cls-4{fill:#5d4efa;}.cls-5{fill:url(#Áåçûìÿííûé_ãðàäèåíò_38);}.cls-6{fill:#ffb0c1;}.cls-7{fill:url(#Áåçûìÿííûé_ãðàäèåíò_32-3);}.cls-8{fill:url(#Áåçûìÿííûé_ãðàäèåíò_32-4);}.cls-9{fill:url(#Áåçûìÿííûé_ãðàäèåíò_38-2);}.cls-10{fill:url(#Áåçûìÿííûé_ãðàäèåíò_269);}.cls-11{fill:url(#Áåçûìÿííûé_ãðàäèåíò_38-3);}.cls-12{fill:#798599;}.cls-13{fill:#4cc2fc;}.cls-14{fill:url(#linear-gradient);}.cls-15{fill:url(#linear-gradient-2);}.cls-16{fill:#fff;}.cls-17{opacity:0.85;}.cls-18{fill:#ecf1f5;}.cls-19{fill:#b56cf7;}.cls-20{fill:url(#linear-gradient-3);}.cls-21{opacity:0.33;}.cls-22{fill:#bbdbed;}.cls-23{fill:url(#Áåçûìÿííûé_ãðàäèåíò_334);}.cls-24{fill:url(#Áåçûìÿííûé_ãðàäèåíò_334-2);}.cls-25{fill:#ffb4c4;}.cls-26{fill:url(#Áåçûìÿííûé_ãðàäèåíò_2);}.cls-27{fill:url(#Áåçûìÿííûé_ãðàäèåíò_2-2);}.cls-28{fill:url(#Áåçûìÿííûé_ãðàäèåíò_2-3);}.cls-29{fill:url(#Áåçûìÿííûé_ãðàäèåíò_2-4);}.cls-30{fill:url(#Áåçûìÿííûé_ãðàäèåíò_2-5);}.cls-31{fill:#091946;}.cls-32{fill:url(#Áåçûìÿííûé_ãðàäèåíò_38-4);}.cls-33{fill:url(#Áåçûìÿííûé_ãðàäèåíò_2-6);}.cls-34{fill:url(#Áåçûìÿííûé_ãðàäèåíò_2-7);}.cls-35{fill:url(#Áåçûìÿííûé_ãðàäèåíò_2-8);}.cls-36{opacity:0.06;}.cls-37{fill:#002e61;}.cls-38{fill:#14407f;}.cls-39{fill:#3074a7;}.cls-40{fill:url(#Áåçûìÿííûé_ãðàäèåíò_2-9);}.cls-41{fill:url(#Áåçûìÿííûé_ãðàäèåíò_2-10);}.cls-42{fill:url(#Áåçûìÿííûé_ãðàäèåíò_2-11);}.cls-43{fill:url(#Áåçûìÿííûé_ãðàäèåíò_38-5);}.cls-44{fill:url(#Áåçûìÿííûé_ãðàäèåíò_2-12);}.cls-45{fill:url(#Áåçûìÿííûé_ãðàäèåíò_38-6);}.cls-46{fill:url(#Áåçûìÿííûé_ãðàäèåíò_333);}</style><linearGradient id="Áåçûìÿííûé_ãðàäèåíò_32" x1="7708.99" y1="233.47" x2="7712.99" y2="233.47" gradientTransform="matrix(-1, 0, 0, 1, 7961.25, 0)" gradientUnits="userSpaceOnUse"><stop offset="0" stop-color="#ffb0c1"/><stop offset="0.32" stop-color="#ffabbc"/><stop offset="0.72" stop-color="#ff9cac"/><stop offset="1" stop-color="#ff8d9d"/></linearGradient><linearGradient id="Áåçûìÿííûé_ãðàäèåíò_32-2" x1="7723.45" y1="223.67" x2="7727.46" y2="223.67" xlink:href="#Áåçûìÿííûé_ãðàäèåíò_32"/><linearGradient id="Áåçûìÿííûé_ãðàäèåíò_38" x1="7718.08" y1="128.33" x2="7714.23" y2="155.54" gradientTransform="matrix(-1, 0, 0, 1, 7961.25, 0)" gradientUnits="userSpaceOnUse"><stop offset="0" stop-color="#091946"/><stop offset="0.81" stop-color="#1a3474"/></linearGradient><linearGradient id="Áåçûìÿííûé_ãðàäèåíò_32-3" x1="7752.6" y1="145.21" x2="7750.33" y2="149.47" xlink:href="#Áåçûìÿííûé_ãðàäèåíò_32"/><linearGradient id="Áåçûìÿííûé_ãðàäèåíò_32-4" x1="7715.68" y1="134.88" x2="7723.14" y2="134.88" xlink:href="#Áåçûìÿííûé_ãðàäèåíò_32"/><linearGradient id="Áåçûìÿííûé_ãðàäèåíò_38-2" x1="7716.98" y1="128.16" x2="7713.13" y2="155.32" xlink:href="#Áåçûìÿííûé_ãðàäèåíò_38"/><linearGradient id="Áåçûìÿííûé_ãðàäèåíò_269" x1="7722.08" y1="131.52" x2="7731.06" y2="136.79" gradientTransform="matrix(-1, 0, 0, 1, 7961.25, 0)" gradientUnits="userSpaceOnUse"><stop offset="0" stop-color="#ffb0c1"/><stop offset="0.32" stop-color="#ffabbc"/><stop offset="0.44" stop-color="#ffa7b8"/><stop offset="0.77" stop-color="#f9a"/><stop offset="1" stop-color="#ff8d9d"/></linearGradient><linearGradient id="Áåçûìÿííûé_ãðàäèåíò_38-3" x1="7713.56" y1="133.59" x2="7729.34" y2="122.58" xlink:href="#Áåçûìÿííûé_ãðàäèåíò_38"/><linearGradient id="linear-gradient" x1="2521.26" y1="2028.75" x2="2570" y2="2028.75" gradientTransform="translate(-6284.43 -5000.98) scale(2.53)" gradientUnits="userSpaceOnUse"><stop offset="0" stop-color="#1a2089"/><stop offset="1" stop-color="#5d4efa"/></linearGradient><linearGradient id="linear-gradient-2" x1="2515.68" y1="2008.47" x2="2575.38" y2="2008.47" xlink:href="#linear-gradient"/><linearGradient id="linear-gradient-3" x1="69.18" y1="173.7" x2="48.45" y2="194.42" gradientTransform="matrix(1, 0, 0, 1, 0, 0)" xlink:href="#linear-gradient"/><linearGradient id="Áåçûìÿííûé_ãðàäèåíò_334" x1="6.71" y1="299.51" x2="11.17" y2="299.51" gradientUnits="userSpaceOnUse"><stop offset="0" stop-color="#ff9ca8"/><stop offset="1" stop-color="#ffb0c1"/></linearGradient><linearGradient id="Áåçûìÿííûé_ãðàäèåíò_334-2" x1="24.3" y1="307.8" x2="29.64" y2="307.8" xlink:href="#Áåçûìÿííûé_ãðàäèåíò_334"/><linearGradient id="Áåçûìÿííûé_ãðàäèåíò_2" x1="16.33" y1="198.11" x2="20.88" y2="192.97" gradientUnits="userSpaceOnUse"><stop offset="0" stop-color="#ffb0c1"/><stop offset="1" stop-color="#ff9ca8"/></linearGradient><linearGradient id="Áåçûìÿííûé_ãðàäèåíò_2-2" x1="7366.08" y1="-207.31" x2="7367.88" y2="-207.31" gradientTransform="matrix(-0.99, 0.12, 0.12, 0.99, 7392.92, -502.11)" xlink:href="#Áåçûìÿííûé_ãðàäèåíò_2"/><linearGradient id="Áåçûìÿííûé_ãðàäèåíò_2-3" x1="4091.03" y1="2142.83" x2="4091.05" y2="2143.05" gradientTransform="matrix(1.31, -4.75, 4.76, 1.31, -15490.75, 16822.3)" xlink:href="#Áåçûìÿííûé_ãðàäèåíò_2"/><linearGradient id="Áåçûìÿííûé_ãðàäèåíò_2-4" x1="3990.75" y1="2082.16" x2="3990.76" y2="2082.49" gradientTransform="matrix(1.8, -4.59, 4.6, 1.8, -16700.64, 14777.97)" xlink:href="#Áåçûìÿííûé_ãðàäèåíò_2"/><linearGradient id="Áåçûìÿííûé_ãðàäèåíò_2-5" x1="1207.18" y1="-237.25" x2="1208.02" y2="-235.54" gradientTransform="matrix(-0.01, 1, 1, 0.01, 310.14, -1006.62)" xlink:href="#Áåçûìÿííûé_ãðàäèåíò_2"/><linearGradient id="Áåçûìÿííûé_ãðàäèåíò_38-4" x1="11.51" y1="180.77" x2="26.58" y2="180.77" gradientTransform="matrix(1, 0, 0, 1, 0, 0)" xlink:href="#Áåçûìÿííûé_ãðàäèåíò_38"/><linearGradient id="Áåçûìÿííûé_ãðàäèåíò_2-6" x1="199.68" y1="194.8" x2="202.61" y2="194.8" xlink:href="#Áåçûìÿííûé_ãðàäèåíò_2"/><linearGradient id="Áåçûìÿííûé_ãðàäèåíò_2-7" x1="199.5" y1="190.73" x2="203.32" y2="190.73" xlink:href="#Áåçûìÿííûé_ãðàäèåíò_2"/><linearGradient id="Áåçûìÿííûé_ãðàäèåíò_2-8" x1="200.75" y1="191.76" x2="214.01" y2="191.76" xlink:href="#Áåçûìÿííûé_ãðàäèåíò_2"/><linearGradient id="Áåçûìÿííûé_ãðàäèåíò_2-9" x1="3461.66" y1="6610.39" x2="3460.72" y2="6609.58" gradientTransform="matrix(-0.97, 0.24, -0.24, -0.97, 5039.17, 5847.74)" xlink:href="#Áåçûìÿííûé_ãðàäèåíò_2"/><linearGradient id="Áåçûìÿííûé_ãðàäèåíò_2-10" x1="3459.24" y1="6611.51" x2="3458.95" y2="6610.64" gradientTransform="matrix(-0.97, 0.24, -0.24, -0.97, 5039.17, 5847.74)" xlink:href="#Áåçûìÿííûé_ãðàäèåíò_2"/><linearGradient id="Áåçûìÿííûé_ãðàäèåíò_2-11" x1="4235.6" y1="238.23" x2="4230.45" y2="233.89" gradientTransform="matrix(-1, 0, 0, 1, 4334.85, 0)" xlink:href="#Áåçûìÿííûé_ãðàäèåíò_2"/><linearGradient id="Áåçûìÿííûé_ãðàäèåíò_38-5" x1="7719.51" y1="226.15" x2="7722.79" y2="218.48" gradientTransform="matrix(-1, 0, 0, 1, 7820.1, 0)" xlink:href="#Áåçûìÿííûé_ãðàäèåíò_38"/><linearGradient id="Áåçûìÿííûé_ãðàäèåíò_2-12" x1="4209.37" y1="243.11" x2="4207.13" y2="245.31" gradientTransform="matrix(-1, 0, 0, 1, 4334.85, 0)" xlink:href="#Áåçûìÿííûé_ãðàäèåíò_2"/><linearGradient id="Áåçûìÿííûé_ãðàäèåíò_38-6" x1="7729.1" y1="216.86" x2="7722.68" y2="214.63" gradientTransform="matrix(-1, 0, 0, 1, 7820.1, 0)" xlink:href="#Áåçûìÿííûé_ãðàäèåíò_38"/><linearGradient id="Áåçûìÿííûé_ãðàäèåíò_333" x1="46.68" y1="203.75" x2="52.04" y2="216.87" gradientUnits="userSpaceOnUse"><stop offset="0" stop-color="#ffb4c4"/><stop offset="1" stop-color="#ffcad5"/></linearGradient></defs><title>novel_work_solutions</title><g id="Layer_2" data-name="Layer 2"><g id="Layer_1-2" data-name="Layer 1"><path class="cls-1" d="M235.79,224.39s3.46-.95,3.78,5.28a1.07,1.07,0,0,1-.67,1.07l-5.93,2a32.56,32.56,0,0,1-6.07,3c-2.25.61-3.64-.11-4-.57-.5-3,3.46-3.9,4.92-5s5.9-5.49,6.72-5.78A1.43,1.43,0,0,1,235.79,224.39Z"/><path class="cls-1" d="M229.45,232.12c1.17-.89,4.24-3.87,5.84-5.17a3.45,3.45,0,0,0,1.69,0,3.65,3.65,0,0,0,1.3-.58,2.36,2.36,0,0,1,.71.21,9.94,9.94,0,0,1,.58,3.11,1.07,1.07,0,0,1-.67,1.07l-5.93,2a32.56,32.56,0,0,1-6.07,3,5.88,5.88,0,0,1-2.31.19C225.17,233.81,228.21,233.06,229.45,232.12Z"/><path class="cls-1" d="M253.54,238.61c-.06.08-5.88,8.12-6.82,9s-3.67,2-4.31,0c-.54-3.32,2-6.19,3.72-9.67a12.56,12.56,0,0,1,2.5-3.93c1.16-1.17,3-1.17,4.41.29A8.65,8.65,0,0,1,253.54,238.61Z"/><path class="cls-1" d="M246.23,248c.29-2.7,2.31-5.2,3.76-8.13a12.44,12.44,0,0,1,2.5-3.93,2.78,2.78,0,0,1,.89-.61,9.37,9.37,0,0,1,.16,3.32c-.06.08-5.88,8.12-6.82,9A3.46,3.46,0,0,1,246.23,248Z"/><path class="cls-2" d="M248.26,230.75c0,.06.19,4.39.19,4.39s.16,1.22,2,1.22,1.83-1.22,1.83-1.22v-4.57Z"/><path class="cls-3" d="M233.79,221c0,.06.2,4.39.2,4.39s.15,1.23,2,1.23,1.82-1.23,1.82-1.23v-4.56Z"/><path class="cls-1" d="M233.72,166.09a67.36,67.36,0,0,0-2.89,29.46c-1.07,7,1.78,17.56,2.89,27.34,1.15,1,3.33.44,4.24.09.08-10.59,1.93-16.76-.21-26.15,1.5-2.57,7.05-22.2,7.05-22.2Z"/><path class="cls-1" d="M234.32,195.83c2.39-5.42,5.6-19.5,5.6-19.5V176l4.84-1.18c-.48,1.68-5.58,19.61-7,22.06,2.14,9.39.29,15.56.21,26.15a7.09,7.09,0,0,1-2.23.45C235.52,219.37,234.87,206.36,234.32,195.83Z"/><path class="cls-4" d="M214.5,150s7.92.52,11.44-1.67c2.05-1.27,6.58-12.69,11.69-12.15s2.13,5.84-.38,8.14-5.32,7.34-9.09,9.22-13.4.4-13.4.4Z"/><path class="cls-4" d="M214.62,151.83c2,.08,9,.24,13.4-1,4.22-1.14,2.07-11.79,11.69-13.95a1.89,1.89,0,0,1,.47.59c-.09.88-.19,2-.32,3.23a12,12,0,0,1-2.61,3.55c-2.51,2.3-5.32,7.34-9.09,9.22s-13.4.4-13.4.4Z"/><path class="cls-5" d="M255,171.5c8.86-4-1.47-21.39-2.36-23.7a49.11,49.11,0,0,1-2.1-7c-.54-2.41-.88-4.84-1.36-7.26a29.32,29.32,0,0,0-2.12-6.84,9.59,9.59,0,0,0-3.85-4.6,5,5,0,0,0-2.54-.54c-.05,0-.05.06,0,.07h0a2.8,2.8,0,0,0-2.05,1.89,6.49,6.49,0,0,0,.28,3.49,21.51,21.51,0,0,1,.73,4c.39,5.19-1.73,10-2.55,15.06A35.66,35.66,0,0,0,239,165.08C242.15,168.46,250.32,173.64,255,171.5Z"/><path class="cls-1" d="M245.71,166.09s-5.81.74-6.58,3.81.41,19.06,4.26,30.94c-.93,6.07,3.89,20.15,4.58,30.83a6.32,6.32,0,0,0,4.66-.1c.34-10.34,3.85-19.19-1.45-29.36C250.9,196.48,264.54,166.65,245.71,166.09Z"/><path class="cls-1" d="M253.15,169.1c6.79,7.83-2.2,28.45-2,33.11,5.3,10.17,1.79,19,1.45,29.36a7.14,7.14,0,0,1-2.32.5A196.3,196.3,0,0,0,248,199.73a139.08,139.08,0,0,0,0-29.59Z"/><path class="cls-4" d="M238.34,135.58a21.07,21.07,0,0,1,16.81,5.88c2,1.84-3.48,11.52-4,16.55s2.12,10.77,1.53,11.62-5.71,4.54-13.95,1.45c-4.72-1.77-5.41-4.29-5.41-4.29l1.55-12.36s-4.75-2.12-3.42-5.84,1.64-4.28,2-8.41S238.34,135.58,238.34,135.58Z"/><path class="cls-6" d="M238.39,140c-.85,2.5.34,4.84,2.67,5.22a5.5,5.5,0,0,0,5.73-3.82c.85-2.49-.34-4.83-2.67-5.22A5.52,5.52,0,0,0,238.39,140Z"/><path class="cls-4" d="M249.45,147a5.81,5.81,0,0,0-1.16,2.52c-.21,1.37-.33,4.86-2.08,5.77-2.11,1.1-5-.12-7.51-.42,4.46,2.51,8,11.71,10.75,11.25,1.84-.32,1.41-13.32,1.41-13.32Z"/><path class="cls-7" d="M210.64,150.48c-.14-1.1-1.27-2.14-1-3.06s1.1-.15,1.24.21.58,2.47.58,2.47S210.78,151.58,210.64,150.48Z"/><path class="cls-6" d="M228.48,153.21l1.54-.43a.64.64,0,0,1,.62.15l1.08,1s-.81.79-.85.84-1.94-.87-1.94-.87Z"/><path class="cls-6" d="M223.94,152.07c.45-1,5.65,1.5,7.71,1.85,1.15.86,3.56,3.24,3.56,3.24l1.93,1.39-2.09,2.28-1.77-1.48s-2.5-.25-2.92-.4a17.35,17.35,0,0,1-2.7-1.47c-.27-.27-.39-.79.16-.83-.56-.11-.79-1,.11-1-.7-.23-.59-1.13.26-1C227.18,153.93,223.48,153,223.94,152.07Z"/><path class="cls-4" d="M233.72,160l2.37-2.79s10.33,9.4,11.89,8.18.32-16,1-19.52c.43-2.22,1.83-5.18,4.33-5.18,2.71,0,3.64,3.67,3.57,8.36s-.55,21.6-5.82,23.4C244.74,174.61,233.72,160,233.72,160Z"/><path class="cls-8" d="M240.6,138.58s.64,1.26,2.84.79,2.13-1.54,2.13-1.54l-2.27-7.54-5.19,1.7Z"/><path class="cls-9" d="M249.86,137.61l-.09-.06a0,0,0,0,0,0,0c-.9-.75-1.92-1.37-2.75-2.19s-1.3-1.69-2-2.48a4.56,4.56,0,0,0-2.7-1.44c-.71-.13-1.69.26-1.69,1a.12.12,0,0,0,.05.09,5.5,5.5,0,0,0,.7,2.3,3.08,3.08,0,0,0,2,1.42,30.43,30.43,0,0,0,3.18.46,26,26,0,0,1,3.28,1A.06.06,0,0,0,249.86,137.61Z"/><path class="cls-6" d="M239.67,130.12S241,134.3,241,134.8c0,1-1.21,2.57-3.35,4-1.15.75-1.74.16-1.74.16a7.24,7.24,0,0,1-2.54-3.2c-.23-.52-.37-1.5-.54-2.07-.26-.87-1.21-1.84-1.32-2.71-.46-3.82,5.46-5.28,6.6-3.82A10.05,10.05,0,0,1,239.67,130.12Z"/><path class="cls-10" d="M236.85,126.59a1.74,1.74,0,0,1,1.22.53,10.05,10.05,0,0,1,1.6,3S241,134.3,241,134.8c0,.85-1.24,2.71-3.69,4.15-1.07.47-.37-2.14-1.07-3.78-.22-.52-.36-1.5-.53-2.07-.27-.87-1.22-1.84-1.32-2.71A3.73,3.73,0,0,1,236.85,126.59Z"/><path class="cls-11" d="M231.6,131.43c-.54-1.93,2.59.56,4.26-1.11a3.67,3.67,0,0,0,3.81,2c.23.46,1.72-.58,1.84.09.37,2,3.35,2.38,3.29.09-.09-3.13,1.88-4.14.77-7.74-.75-2.43-5-6.72-8.83-4.29-2.79-1.18-4.6,2.28-5.88,4.11C229.84,126,229.61,129.55,231.6,131.43Z"/><path class="cls-6" d="M240.09,131.15c1.25-.43,1.57,3.63.64,3.43C239.41,134.29,238.86,131.57,240.09,131.15Z"/><path class="cls-4" d="M223.41,162.58l-4.64-16.9a.68.68,0,0,0-.32-.42l-10-6.28a.18.18,0,0,0-.19,0h0l-.5.34.58.3,5.63,17.05a.89.89,0,0,0,.35.46l8.38,5.49c0,.12.13.57.13.57l.48-.32.05,0h0A.25.25,0,0,0,223.41,162.58Z"/><path class="cls-1" d="M207.66,139.54,213.43,157a.92.92,0,0,0,.35.47l8.73,5.72a.26.26,0,0,0,.39-.28L218.26,146a.76.76,0,0,0-.31-.43l-10-6.27A.18.18,0,0,0,207.66,139.54Z"/><path class="cls-12" d="M219,147.48h0a.14.14,0,0,1-.18-.1l-.21-.78a.14.14,0,0,1,.1-.18h0a.14.14,0,0,1,.18.1l.21.78A.14.14,0,0,1,219,147.48Z"/><path class="cls-12" d="M217,144.51c0-.06-.06-.1-.13-.1s-.14,0-.14.09.06.1.13.1S217,144.56,217,144.51Z"/><path class="cls-12" d="M216.63,144.3c0-.06-.06-.1-.13-.1s-.14,0-.14.09.06.1.13.1S216.63,144.35,216.63,144.3Z"/><path class="cls-12" d="M216.27,144.09a.12.12,0,0,0-.13-.1c-.08,0-.14,0-.14.09s.06.1.13.1S216.27,144.14,216.27,144.09Z"/><path class="cls-12" d="M215.91,143.88a.12.12,0,0,0-.13-.1c-.08,0-.14,0-.14.1s.06.09.13.09A.11.11,0,0,0,215.91,143.88Z"/><path class="cls-12" d="M215.55,143.67a.12.12,0,0,0-.13-.1c-.08,0-.14,0-.14.1s.06.09.13.09A.11.11,0,0,0,215.55,143.67Z"/><path class="cls-12" d="M210.65,140.6s-.06-.1-.14-.1-.13,0-.13.09.06.1.13.1S210.65,140.65,210.65,140.6Z"/><path class="cls-12" d="M210.29,140.39s-.06-.1-.14-.1-.13,0-.13.09.06.1.13.1S210.29,140.44,210.29,140.39Z"/><path class="cls-12" d="M209.93,140.18c0-.05-.06-.1-.14-.1s-.13,0-.13.1.06.09.13.09A.11.11,0,0,0,209.93,140.18Z"/><path class="cls-12" d="M209.57,140c0-.05-.06-.1-.14-.1s-.13,0-.13.1.06.09.13.1S209.57,140,209.57,140Z"/><path class="cls-12" d="M209.21,139.76s-.06-.1-.14-.1-.13,0-.13.1.06.09.13.1S209.21,139.81,209.21,139.76Z"/><path class="cls-4" d="M216,149.84c.32.9,0,1.43-.77,1.19a3.62,3.62,0,0,1-2-2.05c-.32-.89,0-1.42.78-1.18A3.61,3.61,0,0,1,216,149.84Z"/><path class="cls-6" d="M212.49,153.91a0,0,0,1,1,0-.09c1.1.35,3.89.35,3.89-.13s-3-.58-4.27-1.06c0,0,0-.11,0-.09,1.26.48,4.11.51,4,.11s-2.4-.49-4.43-1.3c-.05,0,0-.11,0-.09.77.31,3.86,1,3.93.49s-2.22-1-2.88-1.34-1-.53-1.56-.78a4.11,4.11,0,0,0-.68-.16c-.62-.07-.85.7-.23,1.38-.68.7.33,1.66.33,1.66s-.54.67.61,1.44c-.27.22,0,.86.75,1.17s3.33-.06,3.33-.37S213.57,154.26,212.49,153.91Z"/><path class="cls-13" d="M148.48,236.57A29.52,29.52,0,0,1,119,207.05a28.86,28.86,0,0,1,.45-5h58.14a29.89,29.89,0,0,1,.45,5A29.52,29.52,0,0,1,148.48,236.57Z"/><path class="cls-4" d="M112.3,204.65c0,10.86,16.31,19.66,36.42,19.66s36.42-8.8,36.42-19.66S168.83,185,148.72,185,112.3,193.79,112.3,204.65Z"/><path class="cls-13" d="M112.3,198.45c0,10.86,16.31,19.66,36.42,19.66s36.42-8.8,36.42-19.66-16.31-19.66-36.42-19.66S112.3,187.59,112.3,198.45Z"/><path class="cls-4" d="M112.3,195.05c0,10.86,16.31,19.66,36.42,19.66s36.42-8.8,36.42-19.66-16.31-19.66-36.42-19.66S112.3,184.19,112.3,195.05Z"/><path class="cls-13" d="M112.3,188.85c0,10.86,16.31,19.66,36.42,19.66s36.42-8.8,36.42-19.66-16.31-19.66-36.42-19.66S112.3,178,112.3,188.85Z"/><path class="cls-4" d="M112.3,185.45c0,10.86,16.31,19.66,36.42,19.66s36.42-8.8,36.42-19.66-16.31-19.66-36.42-19.66S112.3,174.59,112.3,185.45Z"/><ellipse class="cls-13" cx="148.72" cy="179.25" rx="36.42" ry="19.66"/><path class="cls-4" d="M112.3,175.39c0,10.86,16.31,19.66,36.42,19.66s36.42-8.8,36.42-19.66-16.31-19.66-36.42-19.66S112.3,164.53,112.3,175.39Z"/><path class="cls-13" d="M112.3,170.11c0,10.86,16.31,19.66,36.42,19.66s36.42-11.26,36.42-19.66c0-10.86-16.31-19.66-36.42-19.66S112.3,159.25,112.3,170.11Z"/><path class="cls-14" d="M150.6,68.48V67.05l-1,.82-1.34-.82V69L88.06,119.35s17.78,22.85,21,29.38.8,17.83,4.25,22.54c3.84,8.63,18.23,15,35.4,15,16.9,0,31.11-6.22,35.22-14.64h0c3.5-4.68,1.78-11.84,5.85-22.94s14.44-19,21-29.38C216.66,110.12,162.59,75.91,150.6,68.48Z"/><path class="cls-15" d="M74,75.44a75.44,75.44,0,1,1,75.44,75.44A75.44,75.44,0,0,1,74,75.44Z"/><ellipse class="cls-1" cx="148.72" cy="166.66" rx="36.42" ry="19.66"/><path class="cls-16" d="M114.21,98.19c.37,6.92,3.73,10.36,9.26,9.58l14.4,60.6a.81.81,0,0,0,.35.52h0l2,1.76s.6-2.51.6-2.6a4.33,4.33,0,0,0-.49-.65,2.42,2.42,0,0,0,.17-1.47L126,105a1.18,1.18,0,0,0-.2-.72l-1.2-4.38.87-1.28-1.71-1.55a.68.68,0,0,0-.25-.23h0a1.17,1.17,0,0,0-1.26.39,3,3,0,0,0-.93,2.59l1.2,4.36c-4.45-.37-5.43-4.85-5.59-7.78a24.54,24.54,0,0,1,.7-6.76l1.14-1,4.38-6,8.1-7.85-2.54.41a12.59,12.59,0,0,1,4.82-1.36c-.16.37-.31.76-.46,1.14-3.48,9.11-3.47,18.85,0,22.67,2.08,2.28,4.39,2,6.33.54h1.18l4.61-6.65.36-4.16a6.79,6.79,0,0,0-.57.73c.93-4.19.79-8.78-1-12.26a10.76,10.76,0,0,0-4.35-4.64c3-3.85,7.51-9.56,7.73-9.62s.12-.52.05-1A21.93,21.93,0,0,1,150,59.33c3.54-1.41,6-.48,7.59,1.29a61.65,61.65,0,0,0-4.93,10.16c-3.59,9.66-3.18,16.88,1.07,18.81a4,4,0,0,0,2.74.27h0c.13-.1,3.33-.13,3.33-.13l4.34-9.22V79l-1.42,2a36.32,36.32,0,0,0,.66-15.1,21.58,21.58,0,0,0-1.49-5.14c2.43-2.83,8.2-9.55,8.27-9.55a3.07,3.07,0,0,0,.17-.88,9,9,0,0,1,2.72-.88c6.17-.82,8.14,5.86,7.37,12.4-.53,4.45-2.6,10.51-6.71,13.79l.91-4.36,1.27-.43.89-2.08L175,67.12h0a.69.69,0,0,0-.7-.19A2.76,2.76,0,0,0,172.6,69L157,156.32a1.38,1.38,0,0,0,.31,1.4h0l1.89,1.74s.75-1.42.9-1.6a7.08,7.08,0,0,0-.15-1.86l-.56.37a3.69,3.69,0,0,0,.21-.64l13.31-76.16a16.65,16.65,0,0,0,1.48-1.1l2.9-.56,4-4.84,1.68-8.67-.62.45a32,32,0,0,0,.75-4c.95-7.94-1.5-16-9.1-15-4.76.63-10,5.38-14.28,11.57-2.34-2.46-5.54-3-9.31-1.54-6.12,2.45-11.45,7.54-15.11,14.31-4.78,0-10.24,3.17-14.61,8.15a22,22,0,0,0-2.91,4.4h0v0A32.16,32.16,0,0,0,114.21,98.19Zm39.46-22.92.61.22,1.42-4,4-7.31a21,21,0,0,1,1.06,3.92c1.2,6.86-.24,14.59-2.27,17.23a2.23,2.23,0,0,1-3,.75C152.12,84.53,152.66,79.3,153.67,75.27ZM134.18,79h.63l2.07-4.35s.08-.09.2-.25a8.82,8.82,0,0,1,4.42,4.31c2.69,5.11.9,12.28-1.36,15.28-2.07,2.75-4,1.44-4.9.41C132.81,91.76,132.47,85.52,134.18,79Z"/><path class="cls-16" d="M155.59,91.32c-4.25-1.94-4.66-9.14-1.07-18.81a60.49,60.49,0,0,1,4.93-10.16c-1.64-1.78-4-2.71-7.6-1.29a25.32,25.32,0,0,0-12.29,11.12,9.94,9.94,0,0,1,6.24,5.39c3.16,6,1.32,15.28-2.38,20.18-2.18,2.88-5.55,4.83-8.48,1.62-3.49-3.82-3.5-13.56,0-22.67.15-.39.3-.77.46-1.14-3.9.21-8.23,2.84-11.74,6.83-3,3.43-5.15,10.35-4.86,15.75.19,3.42,1.49,9,8.13,7.6.71-.14,1.12.55.9,1.55a2.75,2.75,0,0,1-1.69,2.08c-6,1.23-9.65-2.22-10-9.45-.37-6.75,2.4-15.3,6.44-19.9,4.37-5,9.83-8.18,14.61-8.15,3.65-6.77,9-11.86,15.11-14.31,3.77-1.51,7-.93,9.31,1.53,4.32-6.18,9.52-10.93,14.28-11.56,7.6-1,10,7.07,9.1,15-1,8.09-5,15.48-10.29,18.83-.77.47-1.37.13-1.41-.77a3.1,3.1,0,0,1,1.3-2.48c4.79-3,7.16-9.73,7.73-14.54.78-6.54-1.19-13.22-7.36-12.4C171,51.7,166.65,55.74,163,61a19.62,19.62,0,0,1,2.24,6.61c1.37,7.83-.16,17.05-3.55,21.46a8,8,0,0,1-2.19,2A4.07,4.07,0,0,1,155.59,91.32Zm1.26-18.5c-1.1,3-4.31,12.77.49,15a2.23,2.23,0,0,0,3-.75c2-2.64,3.46-10.37,2.27-17.23a19.08,19.08,0,0,0-1.73-5.4A54.3,54.3,0,0,0,156.85,72.82Zm-19.62,4.24c-2.95,7.72-3,15.93-.11,19.08.94,1,2.83,2.34,4.9-.41,2.26-3,4-10.17,1.36-15.28a8.46,8.46,0,0,0-5.61-4.7C137.57,76.21,137.39,76.65,137.23,77.06Z"/><path class="cls-16" d="M160.15,159.41a3.13,3.13,0,0,0,1.3-1.95l15.62-87.29c.21-1-.2-1.68-.92-1.51a2.74,2.74,0,0,0-1.67,2.1l-15.63,87.29c-.21,1,.21,1.68.92,1.51A1.2,1.2,0,0,0,160.15,159.41Z"/><path class="cls-16" d="M141,170.54a1.92,1.92,0,0,0,.38-.29,3,3,0,0,0,.92-2.59L125.77,99.13c-.21-.76-1-.83-1.68-.16a3,3,0,0,0-.92,2.59l16.57,68.54C139.92,170.72,140.45,170.88,141,170.54Z"/><g class="cls-17"><polygon class="cls-13" points="97.93 178.6 97.93 232.48 96.87 233.12 25.52 190.69 24.18 137.22 25.25 136.57 97.93 178.6"/><polygon class="cls-18" points="96.87 179.24 96.87 233.12 24.18 191.22 24.18 137.22 96.87 179.24"/><path class="cls-19" d="M57.93,200.07c-1.14-3.34-.16-6,2.19-6s5.18,2.71,6.33,6,.17,6-2.19,6S59.08,203.41,57.93,200.07Z"/><path class="cls-19" d="M42.85,191.21c-1.15-3.33-.17-6,2.18-6s5.19,2.71,6.33,6,.17,6-2.18,6S44,194.55,42.85,191.21Z"/><path class="cls-20" d="M33.27,153.57l2.64,8.17c.23.71.8,1,1,.59l1.16-2.27c.23-.44.8-.11,1,.59l1.46,4.54c.23.71.8,1,1,.59h0c.23-.45.8-.12,1,.59L43.83,170c.23.71.8,1,1,.59l1.75-3.41c.22-.44.79-.12,1,.59l.59,1.81c.23.71.8,1,1,.59l1.94-3.77c.23-.44.8-.12,1,.59l2.27,7c.22.7.79,1,1,.58l2.72-5.3c.23-.45.8-.12,1,.59l1.52,4.71c.23.7.8,1,1,.59l2.48-4.84c.23-.45.8-.12,1,.59l2.41,7.46c.22.7.79,1,1,.59l1.45-2.83c.23-.45.8-.12,1,.59l2.36,7.29c.22.71.79,1,1,.59l.16-.31c.23-.45.8-.12,1,.58l1.1,3.4c.22.71.79,1,1,.59l2-3.83c.23-.44.8-.12,1,.59l2.92,9c.23.71.8,1,1,.59l.58-1.11c.22-.45.79-.12,1,.58l4.51,14c.23.7,0,1.26-.51,1l-4.09-2.35-6-3.41L28,173.93a1.51,1.51,0,0,1-.59-1.2V172l-.17-9a.74.74,0,0,1,.08-.41L32.25,153C32.48,152.54,33.05,152.87,33.27,153.57Z"/><path class="cls-4" d="M90.37,207.71c.07,0,.13,0,.13-.11a.33.33,0,0,0-.13-.26c-1.36-.78-3-4.34-4.68-7.79-1.75-3.71-3.57-7.55-5.18-8.47s-2.8-.19-3.92.52-2,1.29-3.3.57-2.21-2.7-3.42-5c-1.48-2.87-3.15-6.12-5.45-7.43a4.74,4.74,0,0,0-4.91-.28,2.74,2.74,0,0,1-2.73.12c-1.12-.65-2.31-2.95-3.56-5.39-1.41-2.72-2.86-5.54-4.42-6.44-2.07-1.18-3.79,1.87-5.3,4.56-1.17,2.07-2.27,4-3.23,3.47s-1.87-3.8-2.89-7.27c-1.52-5.15-3.25-11-5.78-12.44-.07,0-.13,0-.13.11a.33.33,0,0,0,.13.26c2.38,1.36,4.06,7.07,5.55,12.11,1.11,3.75,2.06,7,3.12,7.6s2.19-1.29,3.44-3.52c1.49-2.62,3.17-5.6,5.09-4.5,1.46.83,2.87,3.58,4.24,6.23s2.52,4.89,3.74,5.59a2.87,2.87,0,0,0,2.87-.1,4.62,4.62,0,0,1,4.77.26c2.2,1.26,3.83,4.43,5.27,7.23,1.2,2.32,2.33,4.52,3.6,5.25s2.38.13,3.46-.56,2.22-1.41,3.76-.53,3.28,4.62,5,8.25S88.9,206.87,90.37,207.71Z"/></g><g class="cls-21"><path class="cls-22" d="M57.25,200.26h0c-.78-2.27-.69-4.41.25-5.72a3.06,3.06,0,0,1,2.55-1.29c2.7,0,5.81,2.91,7.08,6.63.78,2.27.69,4.4-.25,5.72a3.06,3.06,0,0,1-2.55,1.29C61.63,206.89,58.52,204,57.25,200.26Zm1.21-5c-.71,1-.75,2.78-.1,4.66h0c1.08,3.16,3.82,5.83,6,5.83a1.85,1.85,0,0,0,1.59-.79c.71-1,.75-2.78.1-4.66-1.08-3.16-3.82-5.84-6-5.84A1.85,1.85,0,0,0,58.46,195.22Z"/></g><path class="cls-13" d="M5.47,302l.16,3.74s2.47,2.33,4.59,1,2-3.36,2.66-4,4-1.86,4.9-2.69A7.73,7.73,0,0,0,20,296.33c.07-1-.77-2.48-2.15-2.27s-4.91,2.53-5.07,2.53-2.88,1.34-2.88,1.34l-3.48,2.25A2.09,2.09,0,0,0,5.47,302Z"/><path class="cls-13" d="M15.58,299.28c-.15,0-2.89,1.35-2.89,1.35l-.47.3a2.73,2.73,0,0,1-2.81,2.66,3.2,3.2,0,0,1-.78-.1,2.15,2.15,0,0,0-.35,1.25l.1,2.42a2.73,2.73,0,0,0,1.84-.34c2.11-1.3,2-3.36,2.66-4s4-1.86,4.9-2.69a8.85,8.85,0,0,0,2-3.08C18.19,297.67,15.71,299.28,15.58,299.28Z"/><path class="cls-23" d="M6.71,301.16s.39,1.12,2.23,1.12,2.23-1.12,2.23-1.12v-4.43H6.71Z"/><path class="cls-13" d="M23.34,311.66V316a4.07,4.07,0,0,0,4.14.55,19,19,0,0,1,5-1.79c1.19-.18,5.79-.81,7.95-2.43s2.49-2.58,2.49-2.58a2.7,2.7,0,0,0-2.39-2.07c-2.21-.46-6.21.4-6.21.4l-6.12.7-3.26.83A2.15,2.15,0,0,0,23.34,311.66Z"/><path class="cls-13" d="M42.73,310c-2.2-.46-6.2.41-6.2.41l-6.12.7-.95.24A2.65,2.65,0,0,1,27,312.78a3,3,0,0,1-.93-.15,2.11,2.11,0,0,0-.53,1.39v2.84a3.5,3.5,0,0,0,1.94-.33,19,19,0,0,1,5-1.79c1.19-.18,5.79-.81,7.95-2.43A9.1,9.1,0,0,0,42.77,310Z"/><path class="cls-24" d="M24.3,310.76s.46,1.29,2.53,1.29c1.7,0,2.06-1,2.06-1l.75-6.63-5.2-.83Z"/><path class="cls-25" d="M7.9,197a4.56,4.56,0,0,0-4,3.31c-1,3.21-4.84,15.61-3.75,18.47s10.3,6.95,10.3,6.95l1.06-4.55L6.4,217.74l2.86-6.6Z"/><path class="cls-4" d="M2.48,212.36c2.59.84,5.2,1.72,7.86,2.33.81.19,1.62.36,2.44.54l.34-1.47L7.65,197a5,5,0,0,0-3.93,3.54c-.6,1.86-2.13,6.82-3.1,11.21Z"/><path class="cls-1" d="M8.68,235.48s-4.1,2.32-4.1,10.28c0,5.6,3.58,9.45,2.65,18.7-.91,2.35-3.41,7.92-3.18,13.35s1.81,17.32,2,21.4c2.68,2.77,6.24.26,6.5-.91.69-18.34,5.75-27.85,5.75-27.85s3.9-17.27,2.42-24.78S8.68,235.48,8.68,235.48Z"/><path class="cls-1" d="M21,248l-5.21,3.14L13.12,265s-5.33,9-3.55,35.36a4,4,0,0,0,3-2.09c.69-18.34,5.75-27.85,5.75-27.85S21.48,256.24,21,248Z"/><path class="cls-1" d="M14.5,239.9s-2.72,1.85-1.81,8.71c1.27,9.64,10.07,20.15,10.41,27.16-2.15,6.23-2,9.85-2.38,12.91s1.83,11.09,2.39,20c5.2,3.17,7.35-1.13,7.35-1.13l4.41-32.69s1.26-27.65-2.79-34.21S14.5,239.9,14.5,239.9Z"/><path class="cls-1" d="M29.06,273.71l-1.73,36.11a4.52,4.52,0,0,0,3.13-2.24l4.41-32.69s1.26-27.65-2.79-34.21a5.75,5.75,0,0,0-1-1.24l-8.75,1.26Z"/><path class="cls-4" d="M31.88,208.12S22.64,196.77,9,196.77c-3.74,0-5.11,4.42-4,10.07,1,5.08,3.14,11.47,2.94,17.49C7.73,232.75,7.11,237,7.11,237a14.79,14.79,0,0,0,12.57,6.56c8.6-.11,12.2-3,12.2-3l-1.61-11.2.39-7.93Z"/><path class="cls-4" d="M30.37,228.9l.4-8.13.92-10-10.77-1.88-.16,19.25,1.73,15.19c6.67-.65,9.53-3,9.53-3Z"/><path class="cls-26" d="M24.26,195.17h-1.9l-1.19,5.2s-1.32,1.36-4.23.4-2.75-2.44-2.75-2.44.2-5.81.26-5.83l8-1.56,1.66,3.34Z"/><path class="cls-25" d="M26.16,182.5l.78,4.25a1,1,0,0,1-.08.65l-.48,1.07.31,1.5a1.1,1.1,0,0,1,0,.57c-.33,1-1.41,4.16-1.89,4.47s-1.52.26-1.5-2.09,0-5.92,0-5.92Z"/><path class="cls-25" d="M31.31,215.69a71,71,0,0,0,3.08-8.06,103,103,0,0,1,12.52,7.27l9.24-7.55,3.27,2.11s-6.1,9.2-8.23,11.57-2.84,1.77-4.48,1.63c-5.59-.47-11.69-2.8-16.44-5C30.62,217,31,216.34,31.31,215.69Z"/><path class="cls-27" d="M56.92,204.92l-.85-3.71a.87.87,0,0,1,.22-.81L57.6,199l.24,2.09a1.13,1.13,0,0,1,0,.32Z"/><path class="cls-28" d="M57.14,202l.67-4.47c0-.06,2.26-3.64,2.26-3.64a1,1,0,0,1,.31,1.38c-.24.57-1.31,3-1.31,3l-.85,4.6Z"/><path class="cls-29" d="M60.38,196.13l-2,5.26,1.28.27L61.49,197a28.88,28.88,0,0,0,1.69-2.38c.28-.55-.37-1.29-.37-1.29s-2.4,2.71-2.43,2.76"/><path class="cls-30" d="M62.75,198.8l-1.58,3.1a6.91,6.91,0,0,0-1.47.16,3.12,3.12,0,0,1-.41.06l0,0a1.67,1.67,0,0,0-.17-.52.25.25,0,0,0,.14-.1l2.92-4,2.93-2.31a1.25,1.25,0,0,1-.06,1.61A12,12,0,0,1,62.75,198.8Z"/><path class="cls-25" d="M61.4,206.5a6.14,6.14,0,0,1-1.88,2.77l-6,8.75,1.54-8,1.08-2.72c0-.06,1-6.33,1.28-6.58.53-.43.78.14,1.26-.18s.78,0,1,0h0c.59.08.39-.14,1-.09s.71.59,1.1.72l1.47-1.53,2.22-1.09s.57.73-.48,1.53l-1.06.6-1.33,2.21S61.9,204.8,61.4,206.5Z"/><path class="cls-4" d="M32.52,216.4a38.16,38.16,0,0,0,2.12-4.65,34.56,34.56,0,0,0,1-3.52c-5.71-2.83-10.63-4.41-13-2.12s-1.95,6.06.1,7.57c1.39,1,3.3,2.07,8.86,4.56C31.9,217.62,32.21,217,32.52,216.4Z"/><path class="cls-31" d="M26.26,180.21a4.58,4.58,0,0,1,.23,2.45,9.74,9.74,0,0,0-.66,2.54,10.77,10.77,0,0,1,0,2.19c-.16.48-.85.77-1,1.39a10.7,10.7,0,0,0,0,2.38l-1.22.46s-.06-.85-.59-.81c-1.57.13-2.12,5.65-4.74,5.61a6.51,6.51,0,0,1-4-1.29s-2.84-3.54-3-6.43,0-6.35.9-7.4,6-4.4,6-4.4a6.54,6.54,0,0,1,5.07,0A4.8,4.8,0,0,1,26.26,180.21Z"/><path class="cls-32" d="M26.51,182.55a4.72,4.72,0,0,0-.25-2.34,4.8,4.8,0,0,0-3.08-3.31,6.54,6.54,0,0,0-5.07,0s-5.06,3.35-6,4.4a3.85,3.85,0,0,0-.64,1.69C16.64,185.59,20.85,186.21,26.51,182.55Z"/><path class="cls-25" d="M23.88,191.64s-.4-2-1.25-1.91S22,191,22.1,191.58a11.74,11.74,0,0,0,.62,1.68c.19.53.78.3.91-.36Z"/><path class="cls-33" d="M199.68,193.74s.46,1.52.46,1.52v2.65h1.26l.8-2.92a21.41,21.41,0,0,0,.4-2.28c0-.08-.19-.79-.29-1a6.69,6.69,0,0,0-1.79,0Z"/><path class="cls-6" d="M202.24,300.84v9.83a29.1,29.1,0,0,1-3.15,1.12c-.39,0-1.69-1.74-1.69-1.74V298.23Z"/><polygon class="cls-6" points="217.86 291.13 217.11 299.72 214.75 301.33 212.88 300.46 214.25 288.4 217.86 291.13"/><path class="cls-6" d="M202.44,197.75l.16-2.63.88-1.9a1.65,1.65,0,0,0,0-1.34l-.37-.79-3-1.36a1.86,1.86,0,0,0-1.81.15,1.64,1.64,0,0,0-.75.9c-.25.91,1.15,2.95,2.19,3.54s1.72-2.33,2.31-2.38-1.58,3.72-1.41,5.3S202.44,197.75,202.44,197.75Z"/><path class="cls-34" d="M199.64,190.33v0c-.06-.24-.09-.48-.13-.73a2,2,0,0,1,.63.16l3,1.36.21.45c-1.25.39-2.47.46-2.92.11A3.18,3.18,0,0,1,199.64,190.33Z"/><path class="cls-4" d="M218.23,225.34s4.53,5.37,4.28,11.12-2.5,6.66-2.5,6.66-1.5,11.32-3.83,17.06c7.16,11.32,3.08,19.73,2.08,32.8l-5.38-.5s0-18.57-5.77-31.38c-3.33-12.07-.34-34.05-.34-34.05Z"/><path class="cls-4" d="M212.24,244.34l-6-13c-.69,7-1.6,21,.82,29.73,5.74,12.81,5.77,31.38,5.77,31.38l3.54.33c1.18-15.36-3.22-32-3.22-32Z"/><path class="cls-4" d="M214,230a16.89,16.89,0,0,1,2.6,8.83c-.16,4.73-3.28,9-8.27,12.12-1.71,6.49-5.66,17.76-6.16,19.5,4.79,11.58.75,18,.72,33.76-1.59,0-5.81-.36-5.81-.36L192.7,259.9s-.32-20.79,4.7-29.27S214,230,214,230Z"/><path class="cls-4" d="M198,259.68c0-5.58,6.6-28.54,6.6-28.54l-1.35-4.38a7.51,7.51,0,0,0-5.86,3.87c-5,8.48-4.7,29.27-4.7,29.27l4.39,43.91s1.12.1,2.42.19C199,290.36,198,263.8,198,259.68Z"/><path class="cls-1" d="M203.5,202.73c-1.2-1.43-3.31-1.69-4.41-.5-3.19,2-11.53,13.75-13.21,17.05s.62,5.22,2.61,5.22,10-3,10-3l.64-5.72-2.82.43s6.19-6.1,7.23-7.4A4.79,4.79,0,0,0,203.5,202.73Z"/><polygon class="cls-1" points="196.27 216.23 190.81 221.49 198.85 218.89 199.09 215.79 196.27 216.23"/><path class="cls-1" d="M220.61,192.55c2.26,2.37,1.07,6.34.2,7.24s-12.31,12.89-15,14.25-3.89.11-4.45-1-1.88-16.6-1.88-16.6l3.67-.48,1.79,11,8.1-13.07S217.14,188.89,220.61,192.55Z"/><path class="cls-1" d="M220,192.52a3.07,3.07,0,0,0-1.84-.81c-1.91-.17-6.29.08-11.71,4.52l-7.32,6c-1.26,1,.46,11.66-.28,16s-1.41,12.59-1.41,12.59,3.74,3.73,13.59,1.4,7.24-6.91,7.24-6.91-2.89-8.39-.75-15.21C219.52,203.67,224.32,196.6,220,192.52Z"/><path class="cls-1" d="M197.4,230.85s1.87,1.85,6.42,2.12a132.72,132.72,0,0,0,1.41-14.82,90,90,0,0,0-.63-12.49h-6c.06,3.78.69,9.63.19,12.6C198.07,222.64,197.4,230.85,197.4,230.85Z"/><path class="cls-1" d="M197.85,214.66h-9.07c3.22-4.73,8.05-11,10.31-12.43,1.1-1.19,3.21-.93,4.41.5a4.79,4.79,0,0,1,0,6.1C202.8,209.71,199.76,212.77,197.85,214.66Z"/><path class="cls-1" d="M218.14,298.23h-1.53s-.34,2.31-1.73,2.09-1.44-4.81-1.44-4.81h-.83l-1.1,1.05s-4.17-2.94-6.38-1.36c-.51.82.22,1.93.22,1.93l10.2,9.28s2,.32,2.59-.32C218.26,304.48,218.14,298.23,218.14,298.23Z"/><path class="cls-1" d="M215.13,301a3.34,3.34,0,0,1-2.44-2.4,4.74,4.74,0,0,1-.12-.94l-1-.84-1.93,1.05a10.54,10.54,0,0,0-4.66-1.8,3.09,3.09,0,0,0,.36,1.05l10.2,9.28s.33,0,.77.07c0-1.48,0-3.88,0-5.44A3.29,3.29,0,0,1,215.13,301Z"/><path class="cls-1" d="M203.42,309.44h-1.64s-.34,2.15-2.18,1.89-2.2-4.67-2.2-4.67l-.89.16-.38,1.2s-3.5.47-3.6.44-7.26-1.29-8.84,1.42c.12,2.25,11.43,4.95,18,5.41a1.46,1.46,0,0,0,1.66-1.37Z"/><path class="cls-1" d="M183.86,310.33c1.43,2.15,11.7,4.53,17.81,5a1.12,1.12,0,0,0,.32,0l-.16-5.81h-.05s-.34,2.15-2.18,1.89c-.74-.1-1.23-.89-1.57-1.79l-2-1.25-1.27,1.36s-3.51.48-3.6.44S186.51,309.26,183.86,310.33Z"/><path class="cls-35" d="M201,191.35s4.59,0,5.38.76.78,2.33,1,4.67,6.82,2.31,6.62-1.3a48.24,48.24,0,0,0-.5-5.66l-6.28-4.69-6.47,4.51Z"/><path class="cls-6" d="M201.45,176.56a34.51,34.51,0,0,0-2.34,4.34,23.61,23.61,0,0,0,.61,4.53,1.82,1.82,0,0,0-.61,1.26c0,.74.61,3.82,1.45,4.47s4.39-.18,5.79-1.77a10.29,10.29,0,0,0,2-4.7C208.31,184.4,201.45,176.56,201.45,176.56Z"/><path class="cls-4" d="M199,178.77a9.38,9.38,0,0,1,4.76-5.4,15.1,15.1,0,0,1,5.89-1.2c16.32,1.73,8,28,7.58,29a5.68,5.68,0,0,0-1.6.65c-.08-.83-.32-2.49-.32-2.49a25.4,25.4,0,0,0-.27,3.4c-2.06,1.31-5.91,3.18-7.12,3.11-.86,0,1-14.94.24-14.89-.17,0-1.78.39-1.9.42a5.19,5.19,0,0,1-.91-1.73l-2.19-.72-.14-.08s0,0,0-.05a1,1,0,0,0,.21-.66c-.19-1.81-1.66-2.85-2.91-4a8.69,8.69,0,0,1-1-1.14A6.23,6.23,0,0,1,199,178.77Z"/><path class="cls-6" d="M203.7,189c.33-1.05,1.34-2.19,2.43-1.24s-1.21,4.24-2.33,3.58C203.47,191.1,203.38,190,203.7,189Z"/><g class="cls-36"><path class="cls-37" d="M318.64,261.26l34.7-19.43a4,4,0,0,0,.25-6.89L332.16,221a11.31,11.31,0,0,0-12-.36l-36,20.87a4.05,4.05,0,0,0,.14,7.07l23.37,12.81A11.29,11.29,0,0,0,318.64,261.26Z"/></g><polygon class="cls-4" points="298.26 176.8 296.67 177.63 288.88 243.52 288.91 245.7 290.5 244.87 299.85 177.67 298.26 176.8"/><polygon class="cls-4" points="296.67 177.63 287.29 244.35 288.91 245.7 298.26 178.5 296.67 177.63"/><polygon class="cls-13" points="338.19 145.63 348.47 201.77 346.95 202.57 311.63 180.83 300.12 125.72 301.32 124.92 338.19 145.63"/><polygon class="cls-1" points="336.8 146.43 347.07 202.57 310.23 181.63 299.92 125.72 336.8 146.43"/><polygon class="cls-4" points="333.55 147.63 350.32 238.47 348.8 239.27 330.71 147.9 332.11 147.1 333.55 147.63"/><polygon class="cls-4" points="332.15 148.43 348.92 239.27 347.52 238.51 330.71 147.9 332.15 148.43"/><polygon class="cls-4" points="309.91 132.79 326.68 223.63 325.16 224.43 307.07 133.06 308.47 132.26 309.91 132.79"/><polygon class="cls-4" points="308.51 133.59 325.28 224.43 323.88 223.67 307.07 133.06 308.51 133.59"/><polygon class="cls-1" points="299.92 125.72 298.33 126.55 290.54 192.44 325.85 214.45 327.44 213.63 336.8 146.43 299.92 125.72"/><polygon class="cls-4" points="322.7 190.7 321.11 191.53 313.32 257.42 313.35 259.6 314.94 258.77 324.3 191.57 322.7 190.7"/><polygon class="cls-4" points="321.11 191.53 311.73 258.25 313.35 259.6 322.7 192.4 321.11 191.53"/><polygon class="cls-13" points="298.33 126.55 288.94 193.27 325.85 214.45 335.2 147.26 298.33 126.55"/><polygon class="cls-1" points="287.81 124.96 347.62 158.13 340.69 216.47 338.74 217.41 338.52 215.23 280.98 182.41 287.28 129.39 285.86 125.9 287.81 124.96"/><polygon class="cls-13" points="345.67 159.07 285.86 125.9 279.04 183.36 338.74 217.41 345.67 159.07"/><path class="cls-4" d="M300.61,155.83a5.71,5.71,0,0,0-1.71-1.6,2.89,2.89,0,0,0-3-.06l-2.41-9.52a6.39,6.39,0,0,1,6.53.18,13,13,0,0,1,4.1,4Z"/><path class="cls-1" d="M302.84,165a14.91,14.91,0,0,0-1.73-8.46l3.5-7c3,4.78,4.63,11.88,4.12,18.81Z"/><path class="cls-1" d="M292.94,145l2.42,9.56a8,8,0,0,0-2.31,4.89l-5.88-3.36C288.05,150.75,290.2,146.83,292.94,145Z"/><path class="cls-4" d="M300.21,171.16c1.2-.88,2.13-2.67,2.51-5.07l5.91,3.38,0,.37c-.69,5.82-2.83,10.16-5.63,12.25Z"/><path class="cls-4" d="M292.66,160.35a15.32,15.32,0,0,0,1.41,7.85L290,176.36a33.6,33.6,0,0,1-3.29-19c0-.13,0-.24.05-.36Z"/><path class="cls-1" d="M294.8,169.17a6.21,6.21,0,0,0,2.07,2.15,2.9,2.9,0,0,0,2.77.17l2.78,11a6.4,6.4,0,0,1-6.88,0,14.06,14.06,0,0,1-4.84-5.15Z"/><path class="cls-38" d="M330.91,164.55l-3.51,7a7,7,0,0,0-1.58-1.87l1.3-9.29A14.4,14.4,0,0,1,330.91,164.55Z"/><path class="cls-39" d="M328.61,174.35a12.79,12.79,0,0,0-.76-2l3.53-7a27.5,27.5,0,0,1,2.52,6.14Z"/><path class="cls-1" d="M326.36,159.87c.06,0,.11.08.16.11l-1.3,9.28c-2.7-1.52-5.34,1.05-5.9,5.75s1.19,9.8,3.9,11.35,5.36-1,5.92-5.74a16,16,0,0,0-.26-5.23l5.28-2.86a35.31,35.31,0,0,1,.79,12.35c-1.24,10.4-7.08,16.07-13.06,12.65s-9.82-14.6-8.58-25S320.39,156.46,326.36,159.87Z"/><polygon class="cls-16" points="112.55 247.51 124.12 253.85 130.74 236.21 119.17 229.86 112.55 247.51"/><path class="cls-4" d="M128.91,237.45a.26.26,0,0,0,.22-.13.25.25,0,0,0-.1-.33l-9.31-5.1a.24.24,0,0,0-.24.42l9.32,5.11A.2.2,0,0,0,128.91,237.45Z"/><path class="cls-4" d="M128.43,238.54a.25.25,0,0,0,.22-.12.24.24,0,0,0-.1-.33L119.24,233a.24.24,0,0,0-.33.1.26.26,0,0,0,.09.33l9.32,5.1A.2.2,0,0,0,128.43,238.54Z"/><path class="cls-4" d="M127.94,239.59a.24.24,0,0,0,.21-.12.24.24,0,0,0-.1-.33L118.74,234a.24.24,0,0,0-.23.43l9.31,5.1A.27.27,0,0,0,127.94,239.59Z"/><path class="cls-1" d="M100.17,336.33c-.51,2-4.23,4.27-6.53,7.25-1,1.32-1.74,2.63-2.91,3.28-2,1.14-4.44.91-4.8-.3-.55-1.92.06-6.4.06-6.4s.34-1.39,2.77-1.49c.4,0,2.16-1.44,4-2.37C98,333.57,100.67,334.29,100.17,336.33Z"/><path class="cls-1" d="M90.42,341.39a2.77,2.77,0,0,0,1.52-1.21s0,0,0,0l.14,0c.39,0,2.16-1.43,4-2.37a17.82,17.82,0,0,1,4.12-1.6c0,.06,0,.12,0,.18-.51,2-4.23,4.27-6.53,7.25-1,1.32-1.74,2.63-2.91,3.28a6,6,0,0,1-1.57.61,25.35,25.35,0,0,1,.15-5.73A5.93,5.93,0,0,0,90.42,341.39Z"/><path class="cls-1" d="M105.67,347.6a5.89,5.89,0,0,0-2.82,1.4c-.88,1-1.11,5.36.46,6.89s6-.84,10.12-.92c7.82-.15,11.57-2.33,11-4.57-.67-2.48-10.89-2.09-10.89-2.09Z"/><path class="cls-1" d="M104.52,351.14a6.36,6.36,0,0,0,2.31.12,4,4,0,0,0,2.33-1.12l5.82.53s6.32-.25,9.34.86c-.73,1.79-4.4,3.32-10.89,3.44-3.73.07-7.76,2-9.63,1.23-.39-1.85-.09-4.14.51-4.84Z"/><path class="cls-6" d="M91,334.41v4.28s-.1,2.18-2,2.18a1.81,1.81,0,0,1-2-1.6v-5.7Z"/><path class="cls-6" d="M108.71,344.22v4.09a2.26,2.26,0,0,1-2.09,2.09C104,350.51,104,349,104,349v-6.29Z"/><path class="cls-13" d="M90.17,266.12A16.52,16.52,0,0,0,85.83,277c0,6.35,2.14,9.51,2.14,9.51s.57,10.44,2.2,15.22c-7.14,11.8-2.12,14.34-3.66,32.34-.16,2,4.82,3,5.2,0a145,145,0,0,1,5.43-26s10.26-25.32,5.71-34.64C99.56,266.68,90.17,266.12,90.17,266.12Z"/><path class="cls-13" d="M94.92,285.65l8.4,1.35a120.42,120.42,0,0,1-6.18,21.07,145,145,0,0,0-5.43,26A2.19,2.19,0,0,1,89.29,336c.34-22.51,1.86-27.38,5.08-34.07C93.71,295,94.92,285.65,94.92,285.65Z"/><path class="cls-13" d="M93.91,271.93s-2.68,6.19-1.5,11.75,5.56,7.8,6.74,9c0,7.91,2.93,18,3.06,22-3.27,9.75.49,16.82,1.06,29.74.1,2.15,4.72,3,6.26,0,0-8.32,1.53-30.22,1.53-30.22s6.48-24.29-2.13-41.59C106.18,267,93.91,271.93,93.91,271.93Z"/><path class="cls-13" d="M108.93,272.55c8.61,17.3,2.13,41.59,2.13,41.59s-1.53,21.9-1.53,30.22a3.52,3.52,0,0,1-2.69,1.89c-3.73-26.52,0-32.24,0-32.24s1.13-13.58.78-21.87S104,272.3,104,272.3l3.34-1.46A4.15,4.15,0,0,1,108.93,272.55Z"/><path class="cls-40" d="M114.76,244.34l.59-.47a20.53,20.53,0,0,0,1.77-1.72c.12-.14.24-.28.35-.43-.13-.69,1-2.27,1.34-2.69,3.61-1.19,2.38-2.41,2.38-2.41l-3.68,1.69s-1.92,4.14-2.07,4.48Z"/><path class="cls-41" d="M115.51,241.78c.54-.25.54.95,1,.62a17.84,17.84,0,0,0,2-1.46c.14-.12.27-.25.4-.38,0-.7,1.34-2.11,1.68-2.48,3.68,0,2.35-1.42,2.35-1.42l-4.34,1.21Z"/><path class="cls-6" d="M114.57,245c0-.06-.82-2.49-.82-2.49s.39-.12,1.28-.46,1.81-2.28,1.81-2.28l3.89-2.57,4.2.63s.71,1.91-3.12.38c-.45.39-2.43,2-1.85,2.58s3.07-2.39,4.69-.55a21.67,21.67,0,0,0-5.34,3.52Z"/><path class="cls-4" d="M115.5,241.66a3.8,3.8,0,0,1,1.17,1.16,3.45,3.45,0,0,1,.36,1.59s-16,7.19-16.89,6.71c-4.38-2.43-13.21-7.41-13.15-7.39s-2.89-3.21-1.23-5.64c2.81-4.12,7.74.06,7.74.06l7.17,6.5C101.45,245.22,115.5,241.66,115.5,241.66Z"/><path class="cls-1" d="M115.49,243.7a8.08,8.08,0,0,0-1.12-1.76l1.13-.28a3.8,3.8,0,0,1,1.17,1.16,3.45,3.45,0,0,1,.36,1.59l-1.21.54A4.45,4.45,0,0,0,115.49,243.7Z"/><path class="cls-4" d="M112.46,248.73s-7.5-6.27-12.22-8.39-17-9.21-13.92,3.93c.61,2.64,4.48,11.41,4.25,15.19a56,56,0,0,1-1.11,7.63s-.23,5.63,6.61,7a28.93,28.93,0,0,0,13.22-.76l.19-9Z"/><path class="cls-4" d="M106.6,251.56S106,262,105.82,266.9a64.39,64.39,0,0,1-.78,7.33l4.25-.92.23-9.17.52-7.3Z"/><path class="cls-1" d="M93.94,240.54c-.34,1.12,1.24,2.61,3.54,3.32s4.44.37,4.78-.76-1.23-2.62-3.53-3.33S94.29,239.41,93.94,240.54Z"/><path class="cls-42" d="M105,236.54l-3,.68s-.52,3.76-.74,5-1.48,1.78-3.86,1-3-1.63-2.9-2.89.21-4.71.21-4.71l7.68-4.75,2.21,1.5Z"/><path class="cls-6" d="M106.58,224c-.09-1.42,1.57,3.2,1.57,3.79s-.21,1.24-.21,1.74.21.88.21,1.41c0,1.21-2.4,5.64-3.11,5.64s-1.41-1.74-1.41-1.74l-.54-4.1Z"/><path class="cls-1" d="M106.28,227.58s2.52-3.2.75-5.71a8.36,8.36,0,0,0-9.59-3.26,8.57,8.57,0,0,0-5.37,4.75,4.43,4.43,0,0,0-4.35,4.22c-.6,6.26,6.73,8.3,6.94,10.61h0c2.21.57,4.37,2,6-1.9a6.06,6.06,0,0,1,2.81-2.39c2.92-1.63,2.31-4,2.31-4A4.11,4.11,0,0,0,106.28,227.58Z"/><path class="cls-43" d="M102.43,225.54s4.1-2.26,3-4.26-4.71-3.22-6.64-2.56.25,2.1-.16,3.9a4,4,0,0,1-4.24,2.55C92,225,94.37,229.69,102.43,225.54Z"/><path class="cls-6" d="M125.18,249.47v-1.06h0a26.62,26.62,0,0,0-.16-4.55c.78-.08,1.48,1,1.39,2.66,0,.12,0,.33.08.41s.26-.14.26-.14l1.88-5,1.46,3.82a1.69,1.69,0,0,1-.19,1.57l-1.74,2.47L127.08,252a20,20,0,0,1-2.58-1.27A12.48,12.48,0,0,0,125.18,249.47Z"/><path class="cls-6" d="M104.28,234.23s.37-1.68-.8-1.83-1,1.91,0,2.83C103.88,235.67,104.28,234.23,104.28,234.23Z"/><path class="cls-4" d="M109.33,247.45a6,6,0,0,0-2.77,4.87c.07,3.14,3.84,19.46,9.26,19.71s11.37-18.31,11.94-21.1c.37-1.78-2.3-2.09-3-1.08-1.26,1.65-7.67,11.54-7.67,11.54S114.57,245.8,109.33,247.45Z"/><path class="cls-1" d="M127.63,251.48A3.9,3.9,0,0,0,127,251a5.2,5.2,0,0,0-2.72-.47c.2-.29.37-.52.49-.68.71-1,3.38-.7,3,1.08C127.73,251.07,127.68,251.26,127.63,251.48Z"/><path class="cls-4" d="M117.08,261.39l.81,4.58s5-8,3.73-9S117.08,261.39,117.08,261.39Z"/><polygon class="cls-1" points="126.08 240.7 114.97 236.3 115.44 235.23 126.62 239.65 127.51 240.62 126.08 240.7"/><polygon class="cls-44" points="126.75 246.79 128.28 245.92 128.09 243.24 126.75 246.79"/><path class="cls-4" d="M92.68,223.91c.28.69,1.64.78,3,.21s2.31-1.58,2-2.26-1.63-.78-3-.21S92.41,223.23,92.68,223.91Z"/><path class="cls-1" d="M87.79,218.41a5.42,5.42,0,1,1,5.42,5.42A5.42,5.42,0,0,1,87.79,218.41Z"/><path class="cls-45" d="M93,214.29c-.43.81.19,2,1.38,2.61s2.5.49,2.93-.32-.19-2-1.38-2.61S93.38,213.49,93,214.29Z"/><path class="cls-4" d="M34.6,211.85a1,1,0,0,1,0-.1,34.56,34.56,0,0,0,1-3.52c-5.71-2.83-10.63-4.41-13-2.12a3.79,3.79,0,0,0-.31.39Z"/><path class="cls-25" d="M31.31,215.69a71,71,0,0,0,3.08-8.06,103,103,0,0,1,12.52,7.27l9.24-7.55,3.27,2.11s-6.1,9.2-8.23,11.57-2.84,1.77-4.48,1.63c-5.59-.47-11.69-2.8-16.44-5C30.62,217,31,216.34,31.31,215.69Z"/><path class="cls-46" d="M62.19,202.24c-.57-.77-3.09-1.19-4.89-1.15-.38,1.31-1.12,6.21-1.15,6.26l-9.24,7.55a103,103,0,0,0-12.52-7.27l-.12.35-.52,3.65s11.35,6.85,12.94,6.78,11-9.61,11.66-11.06S62.91,203.22,62.19,202.24Z"/></g></g></svg>