<svg xmlns="http://www.w3.org/2000/svg" viewBox="0 0 336.5 94.91"><defs><style>.cls-1{fill:#f2f2f2;}</style></defs><title>white_logo</title><g id="Layer_2" data-name="Layer 2"><g id="Layer_1-2" data-name="Layer 1"><path class="cls-1" d="M193,78.94h-8.82a3.53,3.53,0,0,1-2.4-.76,5,5,0,0,1-1.4-1.87l-4.55-12.5H150.46l-4.56,12.5a4.14,4.14,0,0,1-1.34,1.81,3.71,3.71,0,0,1-2.4.82h-9l24.13-61.39h11.62ZM172.89,55.75,165.41,35.3c-.35-.87-.76-2-1.17-3.21s-.82-2.57-1.17-4c-.35,1.46-.76,2.8-1.17,4a30.78,30.78,0,0,1-1.16,3.27l-7.42,20.33h19.57Z"/><path class="cls-1" d="M210,22.69a6.36,6.36,0,0,1-.53,2.57,7.47,7.47,0,0,1-1.46,2.1,6.88,6.88,0,0,1-2.16,1.4,6.61,6.61,0,0,1-2.63.53,6.36,6.36,0,0,1-2.57-.53,6.6,6.6,0,0,1-2.1-1.4,6.83,6.83,0,0,1-1.4-2.1,6.36,6.36,0,0,1-.53-2.57,6.61,6.61,0,0,1,.53-2.63,6.76,6.76,0,0,1,1.4-2.11,6.6,6.6,0,0,1,2.1-1.4A6.35,6.35,0,0,1,203.2,16a6.6,6.6,0,0,1,2.63.52A7.65,7.65,0,0,1,208,18a6.75,6.75,0,0,1,1.46,2.11A6.61,6.61,0,0,1,210,22.69Zm-1.4,12.67V78.94H198.06V35.36Z"/><path class="cls-1" d="M286.85,17.55V78.94H276.8V39.28c0-1.58.06-3.28.24-5.14L258.46,69a4.25,4.25,0,0,1-4,2.51H252.8a4.25,4.25,0,0,1-4-2.51L230,34c.06.93.18,1.87.24,2.74s.06,1.76.06,2.52V78.94H220.26V17.55h8.64a11.14,11.14,0,0,1,1.35.05,2.67,2.67,0,0,1,1,.24,2.38,2.38,0,0,1,.82.52,5.08,5.08,0,0,1,.7,1l18.4,34.11c.47.93.94,1.81,1.34,2.8s.82,1.93,1.23,3c.41-1,.82-2,1.23-3a30.54,30.54,0,0,1,1.34-2.81l18.11-34a5.29,5.29,0,0,1,.7-1,1.74,1.74,0,0,1,.82-.52,4.78,4.78,0,0,1,1-.24c.35,0,.82-.06,1.34-.06h8.59Z"/><path class="cls-1" d="M336.5,69.48v9.4H300.58V17.55H312V69.48Z"/><path class="cls-1" d="M93.68,30.57c-1.87-3.85-5.08-5.66-9.41-5.61a10,10,0,0,1-3.21-.29,12.54,12.54,0,0,1-5.32-3.27c-3.56-3.21-6.42-6.72-6-12a8.24,8.24,0,0,0-3.1-6.66,9.73,9.73,0,0,0-13-.41A9.58,9.58,0,0,0,51,14.51a9.08,9.08,0,0,0,8.52,5.31A12.36,12.36,0,0,1,69.44,24c.87.88,1.63,1.93,2.57,2.75,3.44,3,3.62,11.1,1.57,14.07-3.44,4.91-7.24,9.58-14.19,9.12a1.6,1.6,0,0,0-.53.06,9.39,9.39,0,0,0-8.41,6.65A9.33,9.33,0,0,0,53,67a9.53,9.53,0,0,0,10.52,2,9.69,9.69,0,0,0,6.25-9.47,10.7,10.7,0,0,1,2.16-7.12,40.2,40.2,0,0,1,3.74-4,11.48,11.48,0,0,1,9.17-3.68,9,9,0,0,0,7.53-3.44C95,38,95.55,34.37,93.68,30.57ZM63.13,13.22a4.65,4.65,0,1,1,0-6.54A4.59,4.59,0,0,1,63.13,13.22ZM63,63.11a4.59,4.59,0,1,1-6.31-6.66,4.71,4.71,0,0,1,6.43,0A4.6,4.6,0,0,1,63,63.11ZM88.07,38.05a4.55,4.55,0,0,1-6.48.06,4.65,4.65,0,0,1,0-6.66,4.63,4.63,0,0,1,6.48,6.6Z"/><path class="cls-1" d="M34.85,74.79A11,11,0,0,1,28,72.86c-1.11-.81-2.1-1.81-3.15-2.68l.06-.06c-.41-.41-.82-.88-1.23-1.23-4.91-4.15-4.67-13.38-.76-17.41,3.56-3.73,7.07-6.89,12.85-6.77,6.54.06,10.92-6.78,8.53-13.32a9.88,9.88,0,0,0-12.62-5.84,9.61,9.61,0,0,0-6.54,9.7,11.26,11.26,0,0,1-3.21,8.23c-1.23,1.23-2.4,2.45-3.68,3.62a10,10,0,0,1-7.36,2.81,10,10,0,0,0-7.83,3A9.52,9.52,0,0,0,.57,62.76a9.62,9.62,0,0,0,9.81,7,10.32,10.32,0,0,1,6.54,1.81,27.78,27.78,0,0,1,6.31,6.31c1.52,2,1.81,4.44,1.81,7a9.78,9.78,0,0,0,7.77,9.64,10,10,0,1,0,2-19.69ZM31.64,31.56a4.63,4.63,0,0,1,6.6,6.49,4.43,4.43,0,0,1-6.42.17A4.66,4.66,0,0,1,31.64,31.56ZM13.36,63a4.56,4.56,0,0,1-6.54.06A4.58,4.58,0,1,1,13.36,63ZM38.18,87.93a4.58,4.58,0,1,1,0-6.42A4.46,4.46,0,0,1,38.18,87.93Z"/><path class="cls-1" d="M89.47,51.25a9.91,9.91,0,0,0-14.54,8.94A11,11,0,0,1,73,67.08c-.82,1.11-1.81,2.1-2.69,3.15l-.06,0c-.41.41-.87.81-1.22,1.22-4.15,4.91-13.38,4.68-17.41.76-3.74-3.56-6.89-7.07-6.78-12.85.06-6.54-6.77-10.92-13.31-8.53A9.88,9.88,0,0,0,25.68,63.4a9.62,9.62,0,0,0,9.7,6.54,11.29,11.29,0,0,1,8.24,3.22c1.22,1.22,2.45,2.39,3.62,3.68A10,10,0,0,1,50,84.2a10,10,0,0,0,3,7.82,9.5,9.5,0,0,0,9.81,2.46,9.62,9.62,0,0,0,7-9.82,10.32,10.32,0,0,1,1.81-6.54A28.4,28.4,0,0,1,78,71.81c2-1.52,4.44-1.81,7-1.81a9.75,9.75,0,0,0,9.64-7.77A10.07,10.07,0,0,0,89.47,51.25Zm-51,11.92a4.74,4.74,0,0,1-6.72.17,4.62,4.62,0,0,1,6.48-6.6A4.44,4.44,0,0,1,38.48,63.17ZM63.19,88.23a4.59,4.59,0,1,1-6.49-6.49,4.59,4.59,0,1,1,6.49,6.49Zm24.94-25a4.59,4.59,0,1,1-6.49-6.48,4.49,4.49,0,0,1,6.43,0A4.55,4.55,0,0,1,88.13,63.28Z"/><path class="cls-1" d="M69.32,31.74A9.65,9.65,0,0,0,59.8,25,12.17,12.17,0,0,1,51,21.58c-3.68-3.39-6.55-7-6.31-12.56C44.9,4.69,41.28,1,36.84.2c-5.2-.94-8.59,1.57-10.75,5.2A9.24,9.24,0,0,0,25,10.54a9.39,9.39,0,0,1-1.81,6.3,26.62,26.62,0,0,1-6.31,6.31c-2,1.52-4.44,1.81-6.95,1.81a9.77,9.77,0,0,0-9.64,7.6A9.95,9.95,0,1,0,19.9,34.72,11.69,11.69,0,0,1,21,29.11a27.66,27.66,0,0,1,3.74-4.73c.58-.53,1.4-1.23,2.22-1.93a13,13,0,0,1,14.31-1.11,24.94,24.94,0,0,1,7,7,9.75,9.75,0,0,1,1.64,6,9.58,9.58,0,0,0,4.32,8.82A10,10,0,0,0,69.32,31.74Zm-56,6.31a4.56,4.56,0,0,1-6.54.06,4.49,4.49,0,0,1,0-6.49,4.62,4.62,0,0,1,6.54,0A4.49,4.49,0,0,1,13.3,38.05ZM38.18,13.16A4.6,4.6,0,1,1,31.7,6.62a4.66,4.66,0,0,1,6.66.18A4.56,4.56,0,0,1,38.18,13.16Zm25,25a4.65,4.65,0,1,1-6.61-6.55,4.65,4.65,0,0,1,6.61,6.55Z"/><path class="cls-1" d="M2.38,82.33a6.42,6.42,0,0,1,9.17,0,6.39,6.39,0,0,1-.12,9.23,6.41,6.41,0,0,1-9.17-.17A6.3,6.3,0,0,1,2.38,82.33Z"/><path class="cls-1" d="M9.09,84.78a3.13,3.13,0,0,0-4.44,0,3.21,3.21,0,0,0,.06,4.44,3.12,3.12,0,0,0,4.38-4.44Z"/><path class="cls-1" d="M2.38,2A6.42,6.42,0,0,1,11.55,2a6.39,6.39,0,0,1-.12,9.23,6.42,6.42,0,0,1-9.17-.18A6.3,6.3,0,0,1,2.38,2Z"/><path class="cls-1" d="M9.09,4.4a3.15,3.15,0,0,0-4.44,0,3.21,3.21,0,0,0,.06,4.44A3.12,3.12,0,0,0,9.09,4.4Z"/><path class="cls-1" d="M82.93,82.33a6.48,6.48,0,1,1-.12,9.11A6.42,6.42,0,0,1,82.93,82.33Z"/><path class="cls-1" d="M89.71,84.78a3.13,3.13,0,0,0-4.44,0,3.2,3.2,0,0,0,0,4.44,3.11,3.11,0,0,0,4.33,0A3.15,3.15,0,0,0,89.71,84.78Z"/><path class="cls-1" d="M82.93,2A6.42,6.42,0,0,1,92.1,2a6.38,6.38,0,0,1,.06,9.05,6.37,6.37,0,0,1-9.17.06A6.3,6.3,0,0,1,82.93,2Z"/><path class="cls-1" d="M89.82,4.4a3.17,3.17,0,0,0-4.5-.06,3.27,3.27,0,0,0,0,4.44,3.19,3.19,0,0,0,4.44.06A3.25,3.25,0,0,0,89.82,4.4Z"/></g></g></svg>