<svg xmlns="http://www.w3.org/2000/svg" xmlns:xlink="http://www.w3.org/1999/xlink" viewBox="0 0 334.03 222.5"><defs><style>.cls-1,.cls-2,.cls-9{fill:#1a2089;}.cls-2,.cls-3,.cls-4,.cls-5,.cls-6,.cls-7{clip-rule:evenodd;}.cls-23,.cls-3{fill:none;}.cls-10,.cls-4,.cls-45{fill:#4cc2fc;}.cls-14,.cls-16,.cls-5{fill:#b56cf7;}.cls-24,.cls-26,.cls-6{fill:#00244f;}.cls-28,.cls-30,.cls-7{fill:#6cafe0;}.cls-8{fill:#5d4efa;}.cls-10,.cls-11,.cls-14,.cls-19,.cls-20,.cls-21,.cls-22,.cls-24,.cls-28,.cls-32,.cls-33,.cls-36,.cls-37,.cls-39,.cls-43,.cls-46,.cls-8,.cls-9{fill-rule:evenodd;}.cls-11,.cls-18,.cls-21,.cls-32{fill:#fff;}.cls-11{opacity:0.22;}.cls-12{clip-path:url(#clip-path);}.cls-13{clip-path:url(#clip-path-2);}.cls-15{clip-path:url(#clip-path-3);}.cls-17{clip-path:url(#clip-path-4);}.cls-19{fill:#fafaff;}.cls-20{fill:#006ae6;}.cls-21{opacity:0.28;}.cls-22{fill:#352c82;}.cls-23{stroke:#53409d;stroke-miterlimit:22.93;stroke-width:0.22px;}.cls-25{clip-path:url(#clip-path-5);}.cls-27{clip-path:url(#clip-path-6);}.cls-29{clip-path:url(#clip-path-7);}.cls-31{fill:#e6e5fd;}.cls-33{fill:#e29d95;}.cls-34{clip-path:url(#clip-path-8);}.cls-35{fill:url(#linear-gradient);}.cls-36{fill:#c29380;}.cls-37{fill:#333;}.cls-38{clip-path:url(#clip-path-9);}.cls-39{fill:#2d448e;}.cls-40{clip-path:url(#clip-path-10);}.cls-41{clip-path:url(#clip-path-11);}.cls-42{fill:url(#linear-gradient-2);}.cls-43{fill:#e5b9a7;}.cls-44{clip-path:url(#clip-path-12);}.cls-46{fill:#e4b9a6;}.cls-47{clip-path:url(#clip-path-13);}.cls-48{fill:url(#linear-gradient-3);}</style><clipPath id="clip-path"><rect class="cls-1" x="137.75" y="191.68" width="47.18" height="16.96"/></clipPath><clipPath id="clip-path-2"><path class="cls-2" d="M162.28,106.2a20.27,20.27,0,0,1,14.62,34.3l5.87,5.87A28.56,28.56,0,0,0,162.28,97.9l-1.1,0v8.31c.36,0,.73,0,1.1,0"/></clipPath><clipPath id="clip-path-3"><path class="cls-5" d="M133.71,126.47A28.54,28.54,0,0,0,145,149.25l5.09-6.56A20.26,20.26,0,0,1,142,126.47l-3.54-1.75Z"/></clipPath><clipPath id="clip-path-4"><path class="cls-5" d="M158.65,154.81a29,29,0,0,0,3.63.23,28.45,28.45,0,0,0,20.49-8.67l-5.87-5.87a20.22,20.22,0,0,1-14.62,6.23,21.36,21.36,0,0,1-2.41-.14,20.21,20.21,0,0,1-11.92-5.8l-5.87,5.88a28.51,28.51,0,0,0,16.57,8.14"/></clipPath><clipPath id="clip-path-5"><path class="cls-6" d="M304.73,129.78a10.81,10.81,0,0,1,7.79,18.29l3.13,3.13a15.23,15.23,0,0,0-10.92-25.85l-.59,0v4.43l.59,0"/></clipPath><clipPath id="clip-path-6"><path class="cls-6" d="M289.5,140.59a15.19,15.19,0,0,0,6,12.14l2.71-3.5a10.8,10.8,0,0,1-4.32-8.64l-1.89-.94Z"/></clipPath><clipPath id="clip-path-7"><path class="cls-7" d="M302.79,155.7a15.55,15.55,0,0,0,1.94.12,15.17,15.17,0,0,0,10.92-4.62l-3.13-3.13a10.75,10.75,0,0,1-7.79,3.32,11,11,0,0,1-1.29-.07,10.8,10.8,0,0,1-6.35-3.09L294,151.36a15.26,15.26,0,0,0,8.83,4.34"/></clipPath><clipPath id="clip-path-8"><path class="cls-3" d="M237.92,142.34c3.32-8.15,7-10,7.62-10a4.5,4.5,0,0,0-.56.26,139,139,0,0,0-2.23,15.45c-1.35,2-3.71,4.23-5.91,4-4.86-.49-5.21-15.25-4.78-19.59l4.32.36a32.23,32.23,0,0,0,1.54,9.47"/></clipPath><linearGradient id="linear-gradient" x1="240.92" y1="149.34" x2="235.77" y2="133.84" gradientUnits="userSpaceOnUse"><stop offset="0" stop-color="#7c938d"/><stop offset="1" stop-color="#94a7a3"/></linearGradient><clipPath id="clip-path-9"><path class="cls-6" d="M30.72,158.8c-3.84.49-5.63,1.51-15.56-.61,2.61-16.9-8.18-19.53.06-31.87a11.21,11.21,0,0,1,2.92-.91c5.15-.72,8.33-.74,11.79,2.16.83,1.77-.37,14.56.79,31.23"/></clipPath><clipPath id="clip-path-10"><path class="cls-6" d="M2.22,132.16A27.48,27.48,0,0,0,6.58,132c.32,1.3.7,2.66,1.14,3.9s1.94,5.31,4.57,7.3c-1.36,1.7-3.29,3.31-5.16,3.35a3.27,3.27,0,0,1-1-.18C2.19,145.06.21,137.19,0,132a18.29,18.29,0,0,0,2.22.14"/></clipPath><clipPath id="clip-path-11"><path class="cls-3" d="M18.58,125.75a8.56,8.56,0,0,0,3,.07c.36-1.41.38-2.27.61-3.48a5.35,5.35,0,0,1-3.33,1.48l-.23,1.5Z"/></clipPath><linearGradient id="linear-gradient-2" x1="20.48" y1="123.77" x2="20.16" y2="125.34" gradientUnits="userSpaceOnUse"><stop offset="0" stop-color="#dca591"/><stop offset="1" stop-color="#e5b9a7"/></linearGradient><clipPath id="clip-path-12"><path class="cls-4" d="M242.4,49.12c.74-18.62,9.34-32.91,11.41-35.36.37.78,5.06,5.16,5.76,5.8a88.36,88.36,0,0,1,2.25,28.78c-2.41-.47-16-.41-19.42.78"/></clipPath><clipPath id="clip-path-13"><path class="cls-3" d="M258.41,11.34a26,26,0,0,1,.16-2.82,7.75,7.75,0,0,0,1.34.4,5.87,5.87,0,0,1,.61-1.87,12.06,12.06,0,0,0,4,.93h0c.33,1.3,1.12,5.92.27,6.53-.33.21-1.42,0-1.63,0s-1.07,2.31-1.52,2.53a4.73,4.73,0,0,1-1.65-.86c-.33.52-1,1.7-1.46,2.51a49.22,49.22,0,0,1-4.69-4.79,13.29,13.29,0,0,1,.7-2l1.32-.63c-.24-.72-.61-2.62.53-2.9,1.35-.33,1.7,2.14,2.05,3"/></clipPath><linearGradient id="linear-gradient-3" x1="256.35" y1="15.16" x2="262.68" y2="10.88" gradientUnits="userSpaceOnUse"><stop offset="0" stop-color="#ddad99"/><stop offset="1" stop-color="#e4b9a6"/></linearGradient></defs><title>end_product_1</title><g id="Layer_2" data-name="Layer 2"><g id="Layer_1-2" data-name="Layer 1"><path class="cls-8" d="M46.58,57.59A10.87,10.87,0,1,1,33,64.74a10.87,10.87,0,0,1,13.61-7.15m18.73,5.2,7.2-6.65L71.07,53.4l-1.44-2.74-9.56,2.16a22.28,22.28,0,0,0-4.85-4L55.61,39l-3-.92-2.95-.92-5.24,8.28a22.67,22.67,0,0,0-6.28.58l-6.66-7.2-2.73,1.44-2.74,1.44,2.15,9.57a22.32,22.32,0,0,0-4,4.85l-9.79-.39-.92,3-.92,3,8.29,5.23a22,22,0,0,0,.58,6.29L14.2,79.8l1.44,2.74,1.43,2.74,9.57-2.16a22.28,22.28,0,0,0,4.85,4L31.11,97l3,.91,2.95.92,5.24-8.28a22.67,22.67,0,0,0,6.28-.58l6.66,7.2,2.74-1.44,2.73-1.44-2.15-9.56a22.56,22.56,0,0,0,4-4.85l9.79.38.92-3,.92-3-8.29-5.23A22,22,0,0,0,65.31,62.79Z"/><path class="cls-8" d="M101.41,62.12A14.93,14.93,0,1,1,120.1,52.3a14.93,14.93,0,0,1-18.69,9.82M75.68,55,65.8,64.11l2,3.76,2,3.77,13.14-3a30.3,30.3,0,0,0,6.66,5.55L89,87.67l4,1.26,4.06,1.26,7.19-11.37A31.15,31.15,0,0,0,113,78l9.14,9.89,3.76-2,3.76-2-3-13.14a30.54,30.54,0,0,0,5.55-6.66l13.45.53,1.26-4.06,1.26-4.05-11.37-7.2a31,31,0,0,0-.8-8.63l9.89-9.14-2-3.76-2-3.76-13.14,3a30.82,30.82,0,0,0-6.66-5.55l.53-13.45-4.06-1.26-4.06-1.26-7.19,11.38a30.7,30.7,0,0,0-8.63.79L89.59,7.81l-3.76,2-3.76,2L85,24.9a31.36,31.36,0,0,0-5.55,6.66L66,31l-1.26,4.05-1.26,4.06,11.38,7.19A30.67,30.67,0,0,0,75.68,55Z"/><path class="cls-9" d="M55.42,60.27H267.27a6.86,6.86,0,0,1,6.84,6.84V184.84a6.86,6.86,0,0,1-6.84,6.84H55.42a6.86,6.86,0,0,1-6.84-6.84V67.11a6.86,6.86,0,0,1,6.84-6.84"/><path class="cls-10" d="M55.26,66.36H267.42a.59.59,0,0,1,.59.6V185a.59.59,0,0,1-.59.6H55.26a.6.6,0,0,1-.59-.6V67a.6.6,0,0,1,.59-.6"/><path class="cls-11" d="M97.13,66.36H125L91.5,185.59H63.6ZM79,66.36H90.48L57,185.59H55.19c-.28,0-.52-.34-.52-.75V152.93Z"/><path class="cls-9" d="M122.2,213.23h78.29v-.12c0-3.56-2.28-6.46-5.08-6.46H127.28c-2.8,0-5.08,2.9-5.08,6.46Z"/><rect class="cls-1" x="137.75" y="191.68" width="47.18" height="16.96"/><g class="cls-12"><rect class="cls-1" x="137.75" y="191.68" width="47.18" height="16.96"/></g><path class="cls-9" d="M162.28,106.2a20.27,20.27,0,0,1,14.62,34.3l5.87,5.87A28.56,28.56,0,0,0,162.28,97.9l-1.1,0v8.31c.36,0,.73,0,1.1,0"/><g class="cls-13"><rect class="cls-1" x="161.18" y="97.9" width="29.67" height="48.48"/></g><path class="cls-14" d="M133.71,126.47A28.54,28.54,0,0,0,145,149.25l5.09-6.56A20.26,20.26,0,0,1,142,126.47l-3.54-1.75Z"/><g class="cls-15"><rect class="cls-16" x="133.71" y="124.72" width="16.42" height="24.53"/></g><path class="cls-14" d="M162.28,97.9a28.57,28.57,0,0,0-28.57,28.57H142a20.27,20.27,0,0,1,20.26-20.27Z"/><path class="cls-14" d="M158.65,154.81a29,29,0,0,0,3.63.23,28.45,28.45,0,0,0,20.49-8.67l-5.87-5.87a20.22,20.22,0,0,1-14.62,6.23,21.36,21.36,0,0,1-2.41-.14,20.21,20.21,0,0,1-11.92-5.8l-5.87,5.88a28.51,28.51,0,0,0,16.57,8.14"/><g class="cls-17"><rect class="cls-16" x="142.08" y="140.5" width="40.69" height="14.53"/></g><rect class="cls-16" x="89.31" y="165.2" width="144.06" height="3.55"/><rect class="cls-18" x="89.31" y="165.2" width="67.77" height="3.55"/><polygon class="cls-19" points="89.31 165.2 116.31 165.2 114.86 168.74 89.31 168.74 89.31 165.2"/><path class="cls-9" d="M325,95.28H284.5a9.09,9.09,0,0,0-9.07,9.07v102a9.09,9.09,0,0,0,9.07,9.07H325a9.09,9.09,0,0,0,9.07-9.07v-102A9.09,9.09,0,0,0,325,95.28"/><path class="cls-20" d="M278.74,112.29v90.43a5.77,5.77,0,0,0,5.76,5.76H325a5.77,5.77,0,0,0,5.76-5.76V108.41a5.79,5.79,0,0,0-5.76-5.77H284.5a5.78,5.78,0,0,0-5.76,5.77Z"/><path class="cls-21" d="M288.82,208.48h19.1l22.8-29.27V154.69ZM278.74,200v2.77a5.76,5.76,0,0,0,2.4,4.67l49.58-63.65V133.21Z"/><path class="cls-22" d="M310.5,99.15h-9.69a.51.51,0,1,0,0,1h9.69a.51.51,0,1,0,0-1ZM298,98.38a1.28,1.28,0,1,0,1.28,1.28A1.28,1.28,0,0,0,298,98.38Z"/><path class="cls-23" d="M310.5,99.15h-9.69a.51.51,0,1,0,0,1h9.69a.51.51,0,1,0,0-1ZM298,98.38a1.28,1.28,0,1,0,1.28,1.28A1.28,1.28,0,0,0,298,98.38Z"/><path class="cls-24" d="M304.73,129.78a10.81,10.81,0,0,1,7.79,18.29l3.13,3.13a15.23,15.23,0,0,0-10.92-25.85l-.59,0v4.43l.59,0"/><g class="cls-25"><rect class="cls-26" x="304.14" y="125.35" width="15.82" height="25.85"/></g><path class="cls-24" d="M289.5,140.59a15.19,15.19,0,0,0,6,12.14l2.71-3.5a10.8,10.8,0,0,1-4.32-8.64l-1.89-.94Z"/><g class="cls-27"><rect class="cls-26" x="289.5" y="139.65" width="8.75" height="13.08"/></g><path class="cls-24" d="M304.73,125.35a15.23,15.23,0,0,0-15.23,15.24h4.43a10.8,10.8,0,0,1,10.8-10.81Z"/><path class="cls-28" d="M302.79,155.7a15.55,15.55,0,0,0,1.94.12,15.17,15.17,0,0,0,10.92-4.62l-3.13-3.13a10.75,10.75,0,0,1-7.79,3.32,11,11,0,0,1-1.29-.07,10.8,10.8,0,0,1-6.35-3.09L294,151.36a15.26,15.26,0,0,0,8.83,4.34"/><g class="cls-29"><rect class="cls-30" x="293.96" y="148.07" width="21.69" height="7.75"/></g><path class="cls-31" d="M296.18,168.41v-1.06l3.47-4.16a.18.18,0,0,1,.15-.06h.71a.19.19,0,0,1,.19.19v4.07h.79a.18.18,0,0,1,.19.18v.83a.19.19,0,0,1-.19.19h-.79v1.22a.2.2,0,0,1-.19.19h-1.06a.2.2,0,0,1-.19-.19V168.6h-2.91A.19.19,0,0,1,296.18,168.41Zm3.14-1v-1.85l-1.58,1.85Z"/><path class="cls-31" d="M302.2,169.61c.58-.76,2.05-2.75,2.63-3.65a1.47,1.47,0,0,0,.26-.75.77.77,0,0,0-.87-.72,1.43,1.43,0,0,0-1,.5.18.18,0,0,1-.27,0l-.61-.62a.19.19,0,0,1,0-.26,2.85,2.85,0,0,1,2-1,2,2,0,0,1,2.25,2,2.51,2.51,0,0,1-.38,1.29c-.32.57-1.14,1.63-1.6,2.29h1.75a.18.18,0,0,1,.18.18v.9a.19.19,0,0,1-.18.19h-4a.19.19,0,0,1-.19-.19Z"/><path class="cls-31" d="M307.26,164.27a1.34,1.34,0,1,1,1.34,1.34A1.33,1.33,0,0,1,307.26,164.27Zm4.14-1.13a.21.21,0,0,1,.17-.1h.76a.18.18,0,0,1,.17.27l-3.43,6.59a.3.3,0,0,1-.17.1h-.74a.18.18,0,0,1-.17-.27Zm-2.46,1.13a.35.35,0,0,0-.69,0,.35.35,0,1,0,.69,0Zm3,3.14a1.35,1.35,0,1,1-1.34,1.35A1.34,1.34,0,0,1,311.93,167.41Zm0,1.68a.34.34,0,1,0-.34-.33A.35.35,0,0,0,311.93,169.09Z"/><path class="cls-32" d="M308.6,164.62a.35.35,0,1,1,0-.69.35.35,0,0,1,0,.69m-.61,5.11a.18.18,0,0,0,.17.27h.74a.3.3,0,0,0,.17-.1l3.43-6.59a.18.18,0,0,0-.17-.27h-.76a.21.21,0,0,0-.17.1Zm.61-4.12a1.34,1.34,0,1,0-1.34-1.34A1.33,1.33,0,0,0,308.6,165.61Zm-2.15-1.24-4.25,5.45a.19.19,0,0,0,.19.18h4a.2.2,0,0,0,.19-.19v-.9a.19.19,0,0,0-.19-.18h-1.74c.46-.66,1.28-1.72,1.6-2.29a2.61,2.61,0,0,0,.38-1.29A2,2,0,0,0,306.45,164.37Zm4.3,5,1.5-1.93a1.65,1.65,0,0,0-.32,0,1.35,1.35,0,0,0-1.34,1.35A1.33,1.33,0,0,0,310.75,169.38Z"/><path class="cls-8" d="M235.86,221.07c0,.32-.31,1.53,5.58,1.38a8.53,8.53,0,0,1,2-.7c.15,0,.3.66.3.66.73.1,2.85.26,3-.39a4.69,4.69,0,0,0-1.11-4h-.19c0,.26-.4,1.12-1.14,1.06a2.73,2.73,0,0,1-1.87-1.3c-.42.14-2.52,2.43-4.12,2.68s-2.27-.24-2.49.63"/><path class="cls-33" d="M242.47,217.76l-.17-2.24,3.16,0,0,2.44,0,.15c-.1.34-.48,1-1.11.91a2.74,2.74,0,0,1-1.69-1Z"/><path class="cls-8" d="M254.12,221.07c0,.32-.31,1.53,5.57,1.38a8.53,8.53,0,0,1,2-.7c.15,0,.3.66.3.66.74.1,2.85.26,3-.39a4.75,4.75,0,0,0-1.11-4h-.2c0,.26-.4,1.12-1.14,1.06a2.68,2.68,0,0,1-1.86-1.3c-.43.14-2.53,2.43-4.12,2.68s-2.28-.24-2.49.63"/><path class="cls-33" d="M260.73,217.76l-.18-2.24,3.16,0,0,2.44,0,.15a1.18,1.18,0,0,1-1.11.91,2.74,2.74,0,0,1-1.69-1Z"/><path class="cls-8" d="M261.85,164a60.83,60.83,0,0,1-20.28-1.24c.86-15.83,2.91-28.6,3.41-30.16a10.6,10.6,0,0,1,2.82-.87c5-.7,9-.23,12.32,2.57.8,1.71,2.37,21,1.73,29.7"/><path class="cls-10" d="M248.29,163.89a199.29,199.29,0,0,0,3.29,25.54c-2.32,9.5-4.68,21.24-5.26,26.65l-5.38-.1c-.13-9.28-.41-33.12.61-52.73,0-.16,0-.33,0-.49,2.41.52,4.66.88,6.72,1.13"/><path class="cls-10" d="M251.58,189.43a199.29,199.29,0,0,1-3.29-25.54,55.87,55.87,0,0,0,13.56.11c-.16,4.91-.56,36.7,2.68,52.08h-5.19a151.3,151.3,0,0,1-7.76-26.65"/><path class="cls-8" d="M256.64,133.77c-.76.36-2.26,4.57-1.87,6.87s3.92,8.16,4.8,9.92a8.85,8.85,0,0,0,5.11,2.57c1.15.33,2.06-2.09,2.38-3.55-1.47-4.38-6.34-14.79-7.22-15.45a3.93,3.93,0,0,0-3.2-.36"/><g class="cls-34"><rect class="cls-35" x="231.63" y="132.34" width="13.9" height="19.93"/></g><path class="cls-8" d="M237.92,142.34c3.32-8.15,7-10,7.62-10a4.5,4.5,0,0,0-.56.26,139,139,0,0,0-2.23,15.45c-.19.27-.39.55-.61.82-2.69-2-4.27-6.52-4.46-7.22h0q.12.36.24.69"/><path class="cls-36" d="M232.48,132.54a24.54,24.54,0,0,1,.82-5.94l2.31.86a33.68,33.68,0,0,0,.14,5.36Z"/><path class="cls-33" d="M234.84,129.25c.9.32,2.84.42,3.36-.74a2.62,2.62,0,0,0-1.2-3.32,2.66,2.66,0,0,0-3.92,1.45c-.57,1.76,1.36,2.44,1.76,2.61"/><path class="cls-37" d="M251.46,118a5.93,5.93,0,0,1,5.4,5.39,6,6,0,0,1-3.83,6.77v-1.43c1.1-.28,2.06-1.83,1.39-2.49-.46-.44-1.38.27-1.69,1l.12-2.29-1.07-.34.23-1.79c-2.92-.2-8.28-1.06-7.59-5.41a3,3,0,0,1,3.87-2.64,5.59,5.59,0,0,1,3.18,3.2"/><path class="cls-33" d="M247.67,130.3c-2.27-.84-1.59-7.39-1.39-9A13.36,13.36,0,0,0,252,122.8l-.23,1.79,1.07.34-.12,2.29c.31-.76,1.23-1.47,1.69-1,.67.66-.29,2.21-1.39,2.49v1h0v2.18c-.29,1.13-4.54,1.75-5.36,1.21Z"/><path class="cls-36" d="M247.67,132V130.3c1.76.65,4.1-.19,4.5-1-.28.86-2,2.5-4.5,2.77"/><path class="cls-8" d="M240.44,141.67,249.27,162l1.46,3.38c1.18,2.72,2.84,7.35,8.33,10.37l-3,1.93,1,2.24-10.32,4.48-1.22-2.81-5,1.3c1.67-6,2.36-7.37,0-12.8l-1.57-3.62-8.82-20.35-1.68-3.89c-1.31-3-4-9.19-9.95-11.25l6.42-4.14L239,123.21c-1.06,3.61-2.48,7.85-1.14,12.42Z"/><path class="cls-8" d="M217,110.3l1.54,10.41a.27.27,0,0,0,.08.16c3.42,3.44,10.77,2.44,13.83-2a.28.28,0,0,0,0-.2L231,108.1a.56.56,0,0,1,.26-.57.6.6,0,0,1,.63,0c5.67,4.18,8.73,11.26,6.87,16.48-1,2.72-4.18,5.61-8.86,7.17s-10.74.91-14.26-1.79c-5.51-4.3-3.33-15.12.44-19.41a.56.56,0,0,1,.58-.17.55.55,0,0,1,.4.46"/><path class="cls-8" d="M260.43,194.59,259,185.15A.28.28,0,0,0,259,185c-3.1-3.12-9.77-2.22-12.55,1.85a.3.3,0,0,0,0,.18l1.41,9.56a.48.48,0,0,1-.24.51.5.5,0,0,1-.56,0c-5.15-3.8-7.93-10.22-6.24-15,.88-2.46,3.8-5.09,8-6.5s9.75-.83,12.94,1.62c5,3.9,3,13.72-.4,17.62a.5.5,0,0,1-.53.15.51.51,0,0,1-.36-.42"/><path class="cls-10" d="M232.19,136.77h0a3.17,3.17,0,0,0-1.64,4.15L243,169.56a3.15,3.15,0,1,0,5.78-2.51l-12.41-28.64a3.16,3.16,0,0,0-4.14-1.64"/><path class="cls-33" d="M245.82,151.78l-2.15-.21c-.89-.93-2-2.66-2.62-2.85-4.16-1.3-4,4.06-2.16,4.89a7.63,7.63,0,0,0,4.32.37l2.08.35Z"/><path class="cls-8" d="M261.94,149.28c-3.83-.11-12.57,1.3-16,1.93l-.76,3.69c2.07.44,18.17,1.46,19.08.87a9,9,0,0,0,1.88-4.58c-.22-.6-3.4-1.92-4.2-1.91"/><path class="cls-24" d="M7.92,136.4c3.44-8.44,7.21-10.35,7.88-10.35a3.64,3.64,0,0,0-.58.27c-.34,1.06-.83,6.65-1.75,15.43-.19.28-1,1.12-1.18,1.4-2.79-2.11-4.42-6.74-4.62-7.47h0c.08.24.16.48.25.72"/><path class="cls-24" d="M30.72,158.8c-3.84.49-5.63,1.51-15.56-.61,2.61-16.9-8.18-19.53.06-31.87a11.21,11.21,0,0,1,2.92-.91c5.15-.72,8.33-.74,11.79,2.16.83,1.77-.37,14.56.79,31.23"/><g class="cls-38"><rect class="cls-26" x="6.98" y="124.67" width="23.78" height="35.64"/></g><path class="cls-36" d="M2.29,126.22c0-1.6.43-5.16,1-5.71l2.25.48a33.7,33.7,0,0,0,.14,5.55A30,30,0,0,0,6.58,132a27.48,27.48,0,0,1-4.36.21c-.05-2.46,0-4.64.07-5.94"/><path class="cls-33" d="M6.9,119.93c.24-.89.42-3.46-.6-3.88s-2.56.61-3.1,1.84-1,3.47,1,4c1.75.43,2.55-1.52,2.69-1.92"/><path class="cls-33" d="M12.63,214.43c-.31-4.4-.48-8.84-.64-13.25-.52-13.78-.52-29.21,3.17-43,1,.15,2.13.34,3.49.5a205.87,205.87,0,0,0,3.4,26.42c-3.8,8.93-6.37,21.71-6.31,29.56l-.32-.31a1.06,1.06,0,0,1-1.15.72h0c-.09.14-.19.32-.34.59-.47.8-.81,1.27-1.16,1.79s-.24.57-.61,1-.13.72-1,.84-1,.17-1.1.12.23-1.38.23-1.38a11.08,11.08,0,0,0,2.35-3.56"/><path class="cls-39" d="M30.48,218.61c.07,0,.55-.07.65-.35-.08-.65-.05-3.3-.3-5-.11-.77-.5-.92-.64-1.44a3.59,3.59,0,0,0-1.91,1.81c-.93,1.86-1.08,4.38-2.5,4.78a1,1,0,0,1-1.12-.43c-.33.42-2.27.9-2,1.45.11.22,1.77,1,4.17.08,1.2-.55.83-2.73,3.11-4.54Z"/><path class="cls-33" d="M24.66,218c.48-.45,2-4.38,2.81-5.3h0c-6.38-17.16-10.92-35.28-10.57-54.24,6.34.77,11.1.9,14,.54,4,20.28-4.67,30.7-1.28,50.67l.42,2.22a3.71,3.71,0,0,0-1.77,1.76c-.93,1.86-1.08,4.38-2.5,4.78a1,1,0,0,1-1.09-.37l0-.06"/><path class="cls-8" d="M21,189c-.31,2.95-3.16,19.71-3.09,20.34-3,.84-4.12,1.44-5.51,1.48-1.87-17.53-.56-42.06,3.11-55.8.55.08.77.15,1.39.24C21.33,167,25,174.33,21,189"/><path class="cls-39" d="M16.1,218.61c.07,0,.55-.07.65-.35-.08-.65-.05-3.3-.3-5-.11-.77-.5-.92-.64-1.44a3.59,3.59,0,0,0-1.91,1.81c-.92,1.86-1.07,4.38-2.5,4.78a1,1,0,0,1-1.12-.43c-.33.42-2.27.9-2,1.45.11.22,1.78,1,4.17.08,1.2-.55.83-2.73,3.12-4.54Z"/><path class="cls-24" d="M2.22,132.16A27.48,27.48,0,0,0,6.58,132c.32,1.3.7,2.66,1.14,3.9s1.94,5.31,4.57,7.3c-1.36,1.7-3.29,3.31-5.16,3.35a3.27,3.27,0,0,1-1-.18C2.19,145.06.21,137.19,0,132a18.29,18.29,0,0,0,2.22.14"/><g class="cls-40"><rect class="cls-26" y="131.95" width="12.29" height="14.54"/></g><g class="cls-41"><rect class="cls-42" x="18.58" y="122.34" width="3.62" height="3.76"/></g><path class="cls-43" d="M18.87,123.82a5.35,5.35,0,0,0,3.33-1.48c1.65-2.23,2.33-6.82-.54-8.43a5,5,0,0,0-4.45-.14c-.31.19-1.7,1.39-1.71,4.51s1,5.36,3.19,5.53h.18"/><path class="cls-8" d="M30.84,209.34c-1.15.62-2.77,2.26-3.88,2.29-7.79-15.77-10.36-41.4-10.09-56.38,6.34.77,11.11.9,14,.53,5.64,16.49-1.23,24,0,53.56"/><path class="cls-33" d="M29,133.91c-.78.38-4-1.65-3.59.72s5,8.45,5.94,10.27a93.52,93.52,0,0,1-2.58,16.81l-.76,2.1a10.26,10.26,0,0,0-2.85,2.35,16.93,16.93,0,0,0-1.2,4.32c.44.15,4.18-.46,4.89-1.36a7.92,7.92,0,0,0,1.47-4.24l.88-2c1.83-3.71,6.47-16.3,7-18.87-1.47-4.46-7.4-7.29-8.32-8s-.37-2.46-.84-2.14"/><path class="cls-24" d="M31.91,154.53l-.92-.34-.69-.29a14.54,14.54,0,0,1-1.34-.65c.71-1.55,2.27-8.06,2.34-8.34h0c-.91-1.82-5.54-7.89-5.94-10.27-.24-1.41-.05-5.78,1.22-6.4.47-.32,2.44-1.34,3.35-.66,1.33,1,7.46,14.25,8.18,16.44a112.14,112.14,0,0,1-3.77,11.13,10.79,10.79,0,0,1-2.43-.61"/><path class="cls-37" d="M22.2,122.34c-.51,2.71-1.47,11.85-2.65,14.21,3.78,1.19,8.37.61,10.67-.93-2.13-4.21-2.23-16.49-4.35-21.11-1.71-3.72-7.46-5-10-1.16-1.09,1.63-1.46,3.83-1.89,6.22-.09,3.33.62,5.32,1.92,6.45a21.82,21.82,0,0,1,2.76-.68l.23-1.52h-.18c-2.18-.17-3.21-2.4-3.19-5.53s1.4-4.32,1.71-4.51c.19.9,2.62,4.7,5.3,5.61a10,10,0,0,1-.31,3"/><path class="cls-33" d="M272.53,88.11l.16-2.13a6.93,6.93,0,0,0,3.12.62l-.11,2.22c-.87.47-2.76-.31-3.17-.71"/><path class="cls-24" d="M281.21,91.78l.13,0c0,.1.1.45.1.45-4,.57-6.4-.85-7-.87l-.06.44-2.76-.47.13-.9.15-.07a4.51,4.51,0,0,1,.63-2.23c.42.41,2.08,1.08,2.94.56a1.3,1.3,0,0,1,.41-.72l.21.19c.06,0,.27,0,.58.22A17.16,17.16,0,0,0,278.82,90c1,.54,2,.75,2.33,1.22a1.06,1.06,0,0,1,.06.52"/><path class="cls-10" d="M242.4,49.12c.74-18.62,9.34-32.91,11.41-35.36.37.78,5.06,5.16,5.76,5.8a88.36,88.36,0,0,1,2.25,28.78c-2.41-.47-16-.41-19.42.78"/><g class="cls-44"><rect class="cls-45" x="242.4" y="13.76" width="20.71" height="35.36"/></g><path class="cls-24" d="M256.36,8.36c-1.14.28-.77,2.18-.53,2.9l-1.32.63c-1.8-3.17-1.06-9.6,2.52-10.42.57-1.88,5-1.92,5.46-.34,2.11-.3,3.57,1.87,3.39,2.62,1.75,0,2,4.25-1.39,4.23h0a12.06,12.06,0,0,1-4-.93,5.87,5.87,0,0,0-.61,1.87,7.75,7.75,0,0,1-1.34-.4,26,26,0,0,0-.16,2.82c-.35-.84-.7-3.31-2.05-3"/><path class="cls-46" d="M254.64,20c-2.73-.47-6.46,2.47-7.83,12-.81,4.23-.24,11.09-.15,11.91,2,1,13.6,2.06,21.59.21a5.87,5.87,0,0,0,4.34,2.07,5.72,5.72,0,0,0,3.83-2c.37.3,3.1,3.81,3.42,3.71.51-.16-2.28-5.76-5-6.48-1.41-.37-3.61-.29-7.32.85a50.79,50.79,0,0,0-14.63-3.68c2.68-4,6.67-15,1.78-18.59"/><path class="cls-10" d="M255.06,34.23A21.69,21.69,0,0,0,247,31.07c1.47-8.8,5.05-11.55,7.69-11.09,3.61,2.65,2.38,9.33.42,14.25"/><path class="cls-10" d="M249.61,31.7a21.62,21.62,0,0,0-2.66-.63c1.42-8.52,4.83-11.37,7.44-11.12a37.81,37.81,0,0,0-4.78,11.75"/><g class="cls-47"><rect class="cls-48" x="253.81" y="7.05" width="11.8" height="11.68"/></g><path class="cls-36" d="M260,16.22c-.17.27-.43.7-.71,1.18a10.18,10.18,0,0,1-2.11-4.06A8.53,8.53,0,0,0,260,16.22"/><path class="cls-1" d="M266.5,47a.62.62,0,0,0-.11,1.23l19.07,2.09a.63.63,0,0,0,.63-.39h0l5.09-15.72a.61.61,0,0,0-.35-.8.62.62,0,0,0-.8.36l-5.76,14.89Z"/><path class="cls-8" d="M281,52.4l9.36,34.85-4.19.6s-11.06-12.45-15-26.25c-2,.17-17.59,1.8-17.85,1s1.15-4.81,4-6,11.25-3,11.25-3,4,0,4,.81,8.4-2,8.4-2"/><path class="cls-8" d="M242.4,49.12c0,1.87.51,13.46,10.64,13.76s16.56-4.24,20.19-4.34c-.56,10,.39,16.91-.73,27.34a7.33,7.33,0,0,0,4.56.61c1-5.64,9-25.22,9.21-35.74-3.21-1.06-22.25-3-25-2.82-7.8-.12-15,0-18.86,1.19"/><path class="cls-33" d="M287.65,89.34l-.58-1.62,3.21-.46.56,1.44c-.61.78-2.66.84-3.19.64"/><path class="cls-24" d="M297.07,89.18l.11-.08c.07.08.28.37.28.37-3.42,2.14-6.2,1.82-6.76,2l.13.42-2.72.69-.25-.87.12-.13a4.46,4.46,0,0,1-.33-2.29c.54.2,2.34.14,2.91-.68a1.26,1.26,0,0,1,.09-.82l.26.08a.85.85,0,0,1,.62,0,16.79,16.79,0,0,0,2.65.66c1.12.09,2.17-.14,2.62.17a1,1,0,0,1,.27.46"/></g></g></svg>