<svg xmlns="http://www.w3.org/2000/svg" viewBox="0 0 272.5 304.44"><defs><style>.cls-1{fill:#1a2089;}.cls-2{fill:#fff;}.cls-3{fill:#5d4efa;}.cls-4{fill:#29abe2;}.cls-5{fill:#b56cf7;}.cls-6{fill:#cddbfd;}.cls-7{fill:#6078f2;}.cls-8{fill:#e7ae9e;}</style></defs><title>how_nlp_works</title><g id="Layer_2" data-name="Layer 2"><g id="Layer_1-2" data-name="Layer 1"><g id="Business_Intelligence" data-name="Business Intelligence"><path class="cls-1" d="M162.12,199.28l.61-159.72a3.91,3.91,0,0,1,3.88-3.9l102-.46a3.85,3.85,0,0,1,3.86,3.87l-.61,159.72a3.91,3.91,0,0,1-3.88,3.9l-102,.46A3.84,3.84,0,0,1,162.12,199.28Z"/><path class="cls-2" d="M153.7,193.15l.56-146.6a3.92,3.92,0,0,1,3.88-3.91l102-.46A3.84,3.84,0,0,1,264,46.05l-.56,146.6a3.92,3.92,0,0,1-3.88,3.91l-102,.46A3.85,3.85,0,0,1,153.7,193.15Z"/><path class="cls-3" d="M149.38,192.49l.55-146.6a3.91,3.91,0,0,1,3.88-3.9l102-.46a3.83,3.83,0,0,1,3.85,3.87L259.15,192a3.92,3.92,0,0,1-3.88,3.9l-102,.46A3.84,3.84,0,0,1,149.38,192.49Z"/><path class="cls-1" d="M143.69,202.45l.63-165.89a3.91,3.91,0,0,1,3.88-3.91l102-.46a3.85,3.85,0,0,1,3.85,3.87L253.46,202a3.91,3.91,0,0,1-3.88,3.9l-102,.46A3.83,3.83,0,0,1,143.69,202.45Z"/><path d="M111.77,229.25c.43-.24.87-.48,1.31-.7a116.69,116.69,0,0,1,12.25-4.9c15.21-5.53,30.89-9.59,46.4-14.2,5.48-1.63,11-3.24,16.49-4.74C209.47,160.16,247.69,79,244.12,79L37.36,71a8.93,8.93,0,0,0-8.93,8.91V224.27a8.94,8.94,0,0,0,8.93,8.92l74.71-5.06Z"/><polygon class="cls-1" points="173.23 214.77 120.51 214.77 105.55 269.37 188.19 269.37 173.23 214.77"/><path class="cls-1" d="M188.19,269.86H105.55a.49.49,0,0,1-.39-.19.47.47,0,0,1-.08-.43l15-54.6a.5.5,0,0,1,.48-.36h52.72a.5.5,0,0,1,.48.36l14.95,54.6a.5.5,0,0,1-.08.43A.49.49,0,0,1,188.19,269.86Zm-82-1h81.34l-14.69-53.61h-52Z"/><rect class="cls-1" x="33.03" y="71.54" width="227.27" height="161.16" rx="8.41"/><path class="cls-1" d="M197.16,263.78H96.58a5.1,5.1,0,1,0,0,10.19H197.16a5.1,5.1,0,1,0,0-10.19Z"/><path class="cls-1" d="M197.16,274.47H96.58a5.59,5.59,0,1,1,0-11.18H197.16a5.59,5.59,0,1,1,0,11.18ZM96.58,264.27a4.61,4.61,0,1,0,0,9.21H197.16a4.61,4.61,0,1,0,0-9.21Z"/><path d="M260.14,161.82a.49.49,0,0,1-.5-.49V80.12a7.93,7.93,0,0,0-7.92-7.92h-15.1a.5.5,0,0,1,0-1h15.1a8.92,8.92,0,0,1,8.91,8.91v81.21A.49.49,0,0,1,260.14,161.82Z"/><path d="M186.63,233.36H41.28a8.92,8.92,0,0,1-8.91-8.91V80.12a8.92,8.92,0,0,1,8.91-8.91h8.86a.5.5,0,0,1,0,1H41.28a7.93,7.93,0,0,0-7.92,7.92V224.45a7.93,7.93,0,0,0,7.92,7.92H186.63a.49.49,0,0,1,.49.49A.5.5,0,0,1,186.63,233.36Z"/><rect class="cls-4" x="40.6" y="79.1" width="212.47" height="146.36" rx="4.18"/><rect class="cls-5" x="68.16" y="186.32" width="12.58" height="34.86"/><polygon class="cls-5" points="95.81 221.19 96.14 173.17 83.56 173.17 83.23 221.19 95.81 221.19"/><polygon class="cls-5" points="110.89 221.19 111.12 176.78 98.54 176.78 98.31 221.19 110.89 221.19"/><polygon class="cls-5" points="125.96 221.19 126.4 160.34 113.82 160.34 113.39 221.19 125.96 221.19"/><polygon class="cls-5" points="141.04 221.19 141.47 144.55 128.89 144.55 128.47 221.19 141.04 221.19"/><polygon class="cls-5" points="156.12 221.19 156.87 149.16 144.29 149.16 143.55 221.19 156.12 221.19"/><polygon class="cls-5" points="171.49 221.19 172.44 137.32 159.86 137.32 158.91 221.19 171.49 221.19"/><polygon class="cls-5" points="186.85 221.19 188.13 133.37 175.55 133.37 174.27 221.19 186.85 221.19"/><polygon class="cls-5" points="202.21 221.19 203.03 156.72 190.45 156.72 189.63 221.19 202.21 221.19"/><polygon class="cls-5" points="217.58 221.19 218.69 170.87 206.11 170.87 205 221.19 217.58 221.19"/><polygon class="cls-5" points="232.94 221.19 233.57 177.44 220.99 177.44 220.37 221.19 232.94 221.19"/><polygon class="cls-5" points="248.31 221.19 249 175.8 236.43 175.8 235.73 221.19 248.31 221.19"/><path class="cls-5" d="M150.34,142.28a.5.5,0,0,1-.33-.12l-9.38-8.28a.5.5,0,0,1,0-.7.49.49,0,0,1,.69,0l9,8,21.91-24.91a.51.51,0,0,1,.34-.17.52.52,0,0,1,.36.12l11.8,10.42,14-15.89a.5.5,0,0,1,.74.66l-14.3,16.26a.54.54,0,0,1-.34.16.48.48,0,0,1-.36-.12L172.62,117.2l-21.91,24.91a.51.51,0,0,1-.34.17Z"/><path class="cls-5" d="M69.38,179.48a.45.45,0,0,1-.32-.13.48.48,0,0,1,0-.69l19-21.61a.51.51,0,0,1,.34-.17.53.53,0,0,1,.36.13l12.85,11.34,30.67-34.88a.49.49,0,0,1,.7-.05.5.5,0,0,1,0,.7l-31,35.25a.51.51,0,0,1-.34.17.48.48,0,0,1-.36-.12L88.43,158.07,69.75,179.31A.48.48,0,0,1,69.38,179.48Z"/><path class="cls-5" d="M86.26,157.38a1.83,1.83,0,0,1,1.86-2.11,2.46,2.46,0,0,1,2.38,2.11,1.82,1.82,0,0,1-1.85,2.1A2.47,2.47,0,0,1,86.26,157.38Z"/><path class="cls-5" d="M88.12,155.27a2.46,2.46,0,0,1,2.38,2.11,1.82,1.82,0,0,1-1.85,2.1,2.47,2.47,0,0,1-2.39-2.1,1.83,1.83,0,0,1,1.86-2.11Zm0-1a2.83,2.83,0,0,0-2.16.95,2.88,2.88,0,0,0-.68,2.27,3.45,3.45,0,0,0,3.37,3,2.81,2.81,0,0,0,2.83-3.22,3.45,3.45,0,0,0-3.36-3Z"/><path class="cls-5" d="M148.27,141.7a1.83,1.83,0,0,1,1.86-2.1,2.46,2.46,0,0,1,2.38,2.1,1.82,1.82,0,0,1-1.85,2.11A2.47,2.47,0,0,1,148.27,141.7Z"/><path class="cls-5" d="M150.13,139.6a2.46,2.46,0,0,1,2.38,2.1,1.82,1.82,0,0,1-1.85,2.11,2.47,2.47,0,0,1-2.39-2.11,1.83,1.83,0,0,1,1.86-2.1Zm0-1a2.81,2.81,0,0,0-2.83,3.22,3.44,3.44,0,0,0,3.36,3,2.81,2.81,0,0,0,2.83-3.22,3.44,3.44,0,0,0-3.36-3Z"/><path class="cls-5" d="M170.64,116.27a1.82,1.82,0,0,1,1.85-2.11,2.47,2.47,0,0,1,2.39,2.11,1.82,1.82,0,0,1-1.85,2.1A2.47,2.47,0,0,1,170.64,116.27Z"/><path class="cls-5" d="M172.49,114.16a2.47,2.47,0,0,1,2.39,2.11,1.82,1.82,0,0,1-1.85,2.1,2.47,2.47,0,0,1-2.39-2.1,1.82,1.82,0,0,1,1.85-2.11Zm0-1a2.84,2.84,0,0,0-2.16,1,2.88,2.88,0,0,0-.67,2.27,3.45,3.45,0,0,0,3.37,3,2.82,2.82,0,0,0,2.83-3.22,3.45,3.45,0,0,0-3.37-3Z"/><path class="cls-5" d="M182.9,127.09a1.82,1.82,0,0,1,1.85-2.1,2.47,2.47,0,0,1,2.39,2.1,1.82,1.82,0,0,1-1.85,2.11A2.47,2.47,0,0,1,182.9,127.09Z"/><path class="cls-5" d="M184.75,125a2.47,2.47,0,0,1,2.39,2.1,1.82,1.82,0,0,1-1.85,2.11,2.47,2.47,0,0,1-2.39-2.11,1.82,1.82,0,0,1,1.85-2.1Zm0-1a2.81,2.81,0,0,0-2.83,3.22,3.45,3.45,0,0,0,3.37,3,2.81,2.81,0,0,0,2.15-.95,2.85,2.85,0,0,0,.68-2.27,3.44,3.44,0,0,0-3.37-3Z"/><path class="cls-5" d="M196.51,111.62a1.82,1.82,0,0,1,1.85-2.11,2.47,2.47,0,0,1,2.39,2.11,1.82,1.82,0,0,1-1.85,2.1A2.47,2.47,0,0,1,196.51,111.62Z"/><path class="cls-5" d="M198.36,109.51a2.47,2.47,0,0,1,2.39,2.11,1.82,1.82,0,0,1-1.85,2.1,2.47,2.47,0,0,1-2.39-2.1,1.82,1.82,0,0,1,1.85-2.11Zm0-1a2.81,2.81,0,0,0-2.83,3.22,3.45,3.45,0,0,0,3.37,3,2.82,2.82,0,0,0,2.15-.95,2.87,2.87,0,0,0,.68-2.27,3.45,3.45,0,0,0-3.37-3Z"/><path class="cls-5" d="M99.65,168.8a1.82,1.82,0,0,1,1.85-2.1,2.46,2.46,0,0,1,2.38,2.1,1.82,1.82,0,0,1-1.85,2.11A2.46,2.46,0,0,1,99.65,168.8Z"/><path class="cls-5" d="M101.5,166.7a2.46,2.46,0,0,1,2.38,2.1,1.82,1.82,0,0,1-1.85,2.11,2.46,2.46,0,0,1-2.38-2.11,1.82,1.82,0,0,1,1.85-2.1Zm0-1a2.81,2.81,0,0,0-2.83,3.22,3.45,3.45,0,0,0,3.36,3,2.81,2.81,0,0,0,2.83-3.22,3.45,3.45,0,0,0-3.36-3Z"/><path class="cls-5" d="M134.29,129.64a1.83,1.83,0,0,1,1.86-2.1,2.46,2.46,0,0,1,2.38,2.1,1.82,1.82,0,0,1-1.85,2.11A2.48,2.48,0,0,1,134.29,129.64Z"/><path class="cls-5" d="M136.15,127.54a2.46,2.46,0,0,1,2.38,2.1,1.82,1.82,0,0,1-1.85,2.11,2.48,2.48,0,0,1-2.39-2.11,1.83,1.83,0,0,1,1.86-2.1Zm0-1a2.8,2.8,0,0,0-2.83,3.21,3.43,3.43,0,0,0,3.36,3,2.8,2.8,0,0,0,2.83-3.21,3.44,3.44,0,0,0-3.36-3Z"/><path class="cls-5" d="M66.81,179.15A1.82,1.82,0,0,1,68.66,177a2.47,2.47,0,0,1,2.39,2.11,1.83,1.83,0,0,1-1.86,2.1A2.46,2.46,0,0,1,66.81,179.15Z"/><path class="cls-5" d="M68.66,177a2.47,2.47,0,0,1,2.39,2.11,1.83,1.83,0,0,1-1.86,2.1,2.46,2.46,0,0,1-2.38-2.1A1.82,1.82,0,0,1,68.66,177Zm0-1a2.81,2.81,0,0,0-2.83,3.22,3.45,3.45,0,0,0,3.36,3A2.81,2.81,0,0,0,72,179a3.44,3.44,0,0,0-3.36-3Z"/><path class="cls-5" d="M112.73,108.05H52.84c-.38,0-.75-.73-.79-1.64l-.14-4c0-.74.19-1.31.49-1.31h59.9c.38,0,.75.91.78,1.82l.14,3.87C113.25,107.56,113,108.05,112.73,108.05Z"/><path class="cls-5" d="M112.27,120.87h-60c-.34,0-.68-.71-.71-1.53L51.36,115c0-.66.15-1.31.42-1.31h60c.34,0,.7.92.73,1.74l.16,4.28C112.72,120.33,112.55,120.87,112.27,120.87Z"/><path d="M181,299.3a.5.5,0,0,1-.49-.43.48.48,0,0,1,.42-.55,82.52,82.52,0,0,0,34.24-12.74.49.49,0,1,1,.54.82,83.41,83.41,0,0,1-34.64,12.89Z"/><path d="M149.86,296.52c-1.6,0-2.51,0-2.56,0a.49.49,0,0,1-.48-.51.5.5,0,0,1,.52-.48c.36,0,36.7,1.36,61.34-13.9a.49.49,0,1,1,.52.83C188.13,295.48,158.65,296.52,149.86,296.52Z"/><path d="M7.44,165.41h0a.49.49,0,0,1-.45-.54,133.08,133.08,0,0,1,14.2-49.12.49.49,0,0,1,.88.45A132.16,132.16,0,0,0,7.93,165,.49.49,0,0,1,7.44,165.41Z"/><path d="M2.65,155.91H2.57a.49.49,0,0,1-.4-.57A133.37,133.37,0,0,1,8.25,131.9a.49.49,0,1,1,.92.33,133.18,133.18,0,0,0-6,23.26A.5.5,0,0,1,2.65,155.91Z"/><path class="cls-2" d="M242,118l-20.57,20.25Z"/><path d="M221.43,138.75a.49.49,0,0,1-.35-.15.49.49,0,0,1,0-.7l20.56-20.25a.5.5,0,0,1,.7.7L221.78,138.6A.49.49,0,0,1,221.43,138.75Z"/><path class="cls-2" d="M241.86,106.88,231,117.54Z"/><path d="M231,118a.51.51,0,0,1-.36-.15.49.49,0,0,1,0-.69l10.82-10.66a.49.49,0,1,1,.7.7l-10.83,10.66A.49.49,0,0,1,231,118Z"/><path d="M116.7,289a.51.51,0,0,1-.34-.14.5.5,0,0,1,0-.7l1.55-1.62a.49.49,0,0,1,.7,0,.5.5,0,0,1,0,.7l-1.55,1.62A.52.52,0,0,1,116.7,289Z"/><path d="M111.27,294.66a.48.48,0,0,1-.34-.13.5.5,0,0,1,0-.7l1.56-1.62a.48.48,0,0,1,.69,0,.49.49,0,0,1,0,.7l-1.55,1.62A.51.51,0,0,1,111.27,294.66Z"/><path d="M112.79,289.07a.49.49,0,0,1-.34-.14l-1.58-1.55a.5.5,0,0,1,.69-.71l1.58,1.56a.49.49,0,0,1,0,.7A.5.5,0,0,1,112.79,289.07Z"/><path d="M118.31,294.51a.52.52,0,0,1-.35-.14l-1.57-1.56a.48.48,0,0,1,0-.69.49.49,0,0,1,.7,0l1.58,1.55a.5.5,0,0,1,0,.7A.49.49,0,0,1,118.31,294.51Z"/><path d="M259.75,252.59a3.39,3.39,0,0,1-1.25-.24,3.5,3.5,0,0,1-2-1.9,3.62,3.62,0,0,1,1.8-4.72h0a3.48,3.48,0,0,1,2.67-.07,3.55,3.55,0,0,1,2,1.91,3.61,3.61,0,0,1-1.8,4.71A3.4,3.4,0,0,1,259.75,252.59Zm-1-6a2.62,2.62,0,0,0-1.29,3.43,2.5,2.5,0,0,0,1.41,1.37,2.39,2.39,0,0,0,1.91-.05,2.61,2.61,0,0,0,1.3-3.42,2.53,2.53,0,0,0-1.42-1.38,2.48,2.48,0,0,0-1.91,0Z"/><rect class="cls-3" x="123.03" y="54.57" width="108.18" height="47.03" rx="4.03"/><path d="M227.18,102.09H127.06a4.53,4.53,0,0,1-4.53-4.52v-39a4.53,4.53,0,0,1,4.53-4.53H227.18a4.53,4.53,0,0,1,4.52,4.53v39A4.53,4.53,0,0,1,227.18,102.09Zm-100.12-47a3.55,3.55,0,0,0-3.54,3.54v39a3.55,3.55,0,0,0,3.54,3.54H227.18a3.54,3.54,0,0,0,3.53-3.54v-39a3.54,3.54,0,0,0-3.53-3.54Z"/><path class="cls-2" d="M228.07,61.67H126.44a.49.49,0,0,1-.49-.49.5.5,0,0,1,.49-.5H228.07a.5.5,0,0,1,.49.5A.49.49,0,0,1,228.07,61.67Z"/><path class="cls-2" d="M130.21,57.67a1,1,0,0,1-2.07,0,1,1,0,1,1,2.07,0Z"/><path class="cls-2" d="M134.35,57.67a1,1,0,1,1-1-1A1,1,0,0,1,134.35,57.67Z"/><path class="cls-2" d="M138.48,57.67a1,1,0,0,1-2.07,0,1,1,0,1,1,2.07,0Z"/><path class="cls-2" d="M228.07,58.05h-5.92a.49.49,0,1,1,0-1h5.92a.49.49,0,1,1,0,1Z"/><path class="cls-2" d="M219.52,58.05H152.75a.49.49,0,0,1,0-1h66.77a.49.49,0,1,1,0,1Z"/><path class="cls-2" d="M146.17,58.05h-4.93a.49.49,0,0,1,0-1h4.93a.49.49,0,1,1,0,1Z"/><rect class="cls-2" x="129.4" y="67.26" width="26.31" height="26.31"/><rect class="cls-6" x="160.64" y="67.26" width="5.59" height="5.92"/><rect class="cls-2" x="170.18" y="67.26" width="55.25" height="5.92"/><rect class="cls-6" x="160.64" y="77.79" width="5.59" height="5.59"/><rect class="cls-2" x="170.18" y="77.46" width="55.25" height="5.92"/><rect class="cls-6" x="160.64" y="87.98" width="5.59" height="5.92"/><rect class="cls-2" x="170.18" y="87.98" width="55.25" height="5.59"/><path class="cls-3" d="M85.8,74.48a1,1,0,0,1,0-1.1,2.54,2.54,0,0,0,.49-1.47c0-2.4-3.72-4.35-8.31-4.35s-8.32,2-8.32,4.35a2.54,2.54,0,0,0,.49,1.47,1,1,0,0,1,0,1.1A2.56,2.56,0,0,0,69.66,76c0,1.14.84,2.18,2.21,3a1.74,1.74,0,0,0-.05.39c0,1.78,2.76,3.22,6.16,3.22s6.15-1.44,6.15-3.22a1.74,1.74,0,0,0,0-.39c1.37-.78,2.21-1.82,2.21-3A2.56,2.56,0,0,0,85.8,74.48Z"/><path class="cls-3" d="M78,83c-3.73,0-6.65-1.63-6.65-3.71a.66.66,0,0,1,0-.14A3.93,3.93,0,0,1,69.17,76a3.09,3.09,0,0,1,.57-1.75.45.45,0,0,0,0-.54,3,3,0,0,1-.57-1.75c0-2.71,3.87-4.84,8.81-4.84s8.8,2.13,8.8,4.84a3,3,0,0,1-.57,1.75.48.48,0,0,0,0,.54h0A3.09,3.09,0,0,1,86.78,76a3.92,3.92,0,0,1-2.16,3.21v.14C84.62,81.38,81.7,83,78,83Zm0-15c-4.24,0-7.82,1.77-7.82,3.86a2.08,2.08,0,0,0,.4,1.2,1.46,1.46,0,0,1,0,1.65,2.07,2.07,0,0,0-.4,1.19c0,.92.69,1.81,2,2.53l.33.18-.09.36a1.41,1.41,0,0,0,0,.28C72.32,80.78,74.91,82,78,82s5.66-1.25,5.66-2.73a1,1,0,0,0,0-.28l-.08-.36.32-.18c1.26-.72,2-1.61,2-2.53a2.15,2.15,0,0,0-.4-1.19h0a1.43,1.43,0,0,1,0-1.65,2.15,2.15,0,0,0,.4-1.2C85.8,69.82,82.22,68.05,78,68.05Z"/><path class="cls-7" d="M100.54,38.55c0-12.32-10.25-22.83-22.57-22.83A22.77,22.77,0,0,0,55.44,38.24a23,23,0,0,0,7.1,16.17,23.33,23.33,0,0,1,6.19,10.64l0,.2a8.9,8.9,0,0,0,8.62,6.66h1.66a8.92,8.92,0,0,0,8.63-6.66l0-.12a22.77,22.77,0,0,1,6.09-10.61A22.21,22.21,0,0,0,100.54,38.55Z"/><path class="cls-7" d="M79.06,72.41H77.4a9.41,9.41,0,0,1-9.1-7l0-.19a22.73,22.73,0,0,0-6.06-10.42A23.44,23.44,0,0,1,55,38.24,23.07,23.07,0,0,1,61.77,22,22.76,22.76,0,0,1,78,15.23h0c12.5,0,23.07,10.68,23.07,23.32a22.67,22.67,0,0,1-6.88,16.33,22.27,22.27,0,0,0-6,10.37l0,.12A9.42,9.42,0,0,1,79.06,72.41ZM78,16.21a22.17,22.17,0,0,0-22,22,22.48,22.48,0,0,0,7,15.81A23.66,23.66,0,0,1,69.2,64.93l.06.19a8.41,8.41,0,0,0,8.14,6.3h1.66a8.41,8.41,0,0,0,8.15-6.3l0-.12a23.34,23.34,0,0,1,6.23-10.83,21.67,21.67,0,0,0,6.58-15.62C100.05,26.44,89.94,16.21,78,16.21Z"/><path d="M79.23,69.21h0a.49.49,0,0,1-.49-.49c.05-12,7.06-25.59,8.47-28.19a6.1,6.1,0,0,0,1-3.83,3.42,3.42,0,0,0-2.34-3,4.72,4.72,0,0,0-3.53.34,7.12,7.12,0,0,1,2,6.61,2.44,2.44,0,0,1-2,1.75,3.1,3.1,0,0,1-3-1.27c-.57-.83-1.27-2.71.58-6a4.91,4.91,0,0,1,.9-1.17l-.1-.06a4.54,4.54,0,0,0-3.94-.45,4.31,4.31,0,0,0-1.14.64c1.68,1.23,2.51,4.34,2.15,6.1a3.27,3.27,0,0,1-2.17,2.66,2.69,2.69,0,0,1-2.67-.68c-1-1-1.2-2.59-.64-4.45a9.93,9.93,0,0,1,1.63-3.3c-2.46-.64-4.17.54-4.63,1.69a4.51,4.51,0,0,0,.53,4.25c2,2.94,6.87,11.54,7.11,27.73a.51.51,0,0,1-.49.5h0a.49.49,0,0,1-.49-.49c-.23-15.91-4.93-24.3-6.93-27.17a5.44,5.44,0,0,1-.64-5.19c.76-1.87,3.29-3.13,6.29-2.13a5.49,5.49,0,0,1,1.76-1.09,5.59,5.59,0,0,1,4.81.54l.37.26a5.73,5.73,0,0,1,4.61-.59,4.38,4.38,0,0,1,3,3.73A6.93,6.93,0,0,1,88.08,41c-1.39,2.56-8.31,15.93-8.35,27.72A.51.51,0,0,1,79.23,69.21Zm-4.4-34.34a8.49,8.49,0,0,0-1.66,3.22c-.46,1.49-.32,2.75.39,3.46a1.68,1.68,0,0,0,1.69.43,2.33,2.33,0,0,0,1.49-1.9C77,38.6,76.22,35.72,74.83,34.87Zm6.67-.2a4.39,4.39,0,0,0-.81,1c-1.58,2.8-1.07,4.28-.63,4.92a2.08,2.08,0,0,0,2,.87,1.46,1.46,0,0,0,1.22-1A6.19,6.19,0,0,0,81.5,34.67Z"/><path d="M88.31,53.05a.48.48,0,0,1-.41-.23.49.49,0,0,1,.15-.68A17.75,17.75,0,0,0,95.9,41a.5.5,0,0,1,.59-.38.49.49,0,0,1,.37.59A18.78,18.78,0,0,1,88.58,53,.56.56,0,0,1,88.31,53.05Z"/><path d="M64,50.46a.49.49,0,0,1-.37-.16,18.65,18.65,0,0,1,5.65-29.08.5.5,0,0,1,.44.89A17.64,17.64,0,0,0,64.4,49.64a.5.5,0,0,1,0,.7A.52.52,0,0,1,64,50.46Z"/><path class="cls-2" d="M79.4,74.73a.49.49,0,0,1-.49-.41.5.5,0,0,1,.4-.57,19.9,19.9,0,0,0,2.18-.49.5.5,0,0,1,.61.34.49.49,0,0,1-.34.61,21.76,21.76,0,0,1-2.28.52Z"/><path class="cls-2" d="M75.89,79a.49.49,0,0,1-.49-.49.5.5,0,0,1,.49-.5,15.89,15.89,0,0,0,6.43-1.29.49.49,0,1,1,.42.89A17,17,0,0,1,75.9,79Z"/><path d="M78.09,10.84h0a.48.48,0,0,1-.48-.5L77.8.48A.5.5,0,0,1,78.29,0h0a.5.5,0,0,1,.49.5l-.21,9.86A.48.48,0,0,1,78.09,10.84Z"/><path d="M49.53,30.92h-6.3a.49.49,0,0,1,0-1h6.3a.5.5,0,0,1,0,1Z"/><path d="M55.33,17.76a.46.46,0,0,1-.23-.06L48,13.85a.48.48,0,0,1-.2-.66.49.49,0,0,1,.67-.2l7.1,3.84a.49.49,0,0,1,.2.67A.49.49,0,0,1,55.33,17.76Z"/><path d="M106.43,30.92a.5.5,0,0,1,0-1h6.29a.49.49,0,1,1,0,1Z"/><path d="M100.62,17.76a.49.49,0,0,1-.43-.26.49.49,0,0,1,.2-.67L107.48,13a.49.49,0,0,1,.67.2.48.48,0,0,1-.2.66l-7.09,3.85A.53.53,0,0,1,100.62,17.76Z"/><path class="cls-4" d="M12.22,271.42c-1.45,5-3.73,11.82-1.21,15.12,4.58,6,8.38,5,14,3,11.3-4.12,29.33-10.63,34.59-7l.24-11.08Z"/><path class="cls-1" d="M94.74,289.53c-1.95-14.52-3.41-23.82-3.41-23.82L25.75,254.32,19.2,272.89c-2,5.62-4.64,13.94-7.15,24.17-.19.8-.42,1.73-.65,2.73A2.63,2.63,0,0,0,13.58,303a146.31,146.31,0,0,0,79.75-10.93A2.41,2.41,0,0,0,94.74,289.53Z"/><path class="cls-3" d="M77,165.18a24.44,24.44,0,0,1,22.06,13.64c4.75,9.71,11.47,35.13,11.73,46.23.46,19.39-16.54,20.49-17,20.52,0,0,0,0,0,0,0,.56,2,21.64,2.19,25.38.29,6.84-12.4,17.52-27,12.26s-54.14-15.66-58.16-6.78c0,0,0,0,0,0L27.4,214.76s0,0,0,0l-13.64.66h0L2.62,209h0l2.81-12.47c5.35-21.3,19.65-31.07,38.11-31.15Z"/><path class="cls-8" d="M33.24,212.76c-2.55-.47-1.85-3.43-10.81-4-25.86-1.54-13.33-14.67,1.48-12.17,4.91.83,6.85,4,8.69,4.81C48.1,208.2,38.33,213.7,33.24,212.76Z"/><path d="M34.49,213.36a8.36,8.36,0,0,1-1.34-.11h0A4.27,4.27,0,0,1,31,212c-1.17-1-2.76-2.39-8.6-2.74-8.45-.5-13.81-2.35-15.11-5.19a3.6,3.6,0,0,1,.62-3.79c2.3-3,9-5.37,16.09-4.17a14,14,0,0,1,7,3.56A8.56,8.56,0,0,0,32.8,201c8.15,3.55,9.14,6.64,8.54,8.6C40.63,211.92,37.33,213.36,34.49,213.36Zm-1.16-1.08c2.57.47,6.41-.83,7.07-3s-2.24-4.9-8-7.41a9.28,9.28,0,0,1-2-1.43,12.87,12.87,0,0,0-6.55-3.35c-6.77-1.14-13,1-15.13,3.8a2.6,2.6,0,0,0-.51,2.78c.53,1.17,3,3.94,14.27,4.62,6.18.36,7.91,1.88,9.18,3a3.47,3.47,0,0,0,1.69,1Z"/><path class="cls-8" d="M65.8,168.81a1.31,1.31,0,0,0-.72-2.28l-1.76-.21a4.91,4.91,0,0,1-4.06-3.22l-2.89-21.33-5.93,2.12L42.6,140l.7,22.8A4.88,4.88,0,0,1,40,167.24l-2.3.81a1.38,1.38,0,0,0-.09,2.58C42.32,172.66,61.28,172.68,65.8,168.81Z"/><path d="M49.2,172.49c-5.06,0-9.73-.53-11.75-1.41a1.87,1.87,0,0,1,.13-3.49l2.29-.82a4.35,4.35,0,0,0,2.94-4L42.11,140a.49.49,0,0,1,.23-.43.46.46,0,0,1,.48,0l7.65,3.78,5.73-2a.48.48,0,0,1,.42,0,.5.5,0,0,1,.24.35L59.74,163a4.4,4.4,0,0,0,3.64,2.85l1.76.21a1.81,1.81,0,0,1,1,3.15h0C63.36,171.54,55.93,172.49,49.2,172.49Zm-6.08-31.67.68,22a5.35,5.35,0,0,1-3.6,4.91l-2.29.82a.88.88,0,0,0-.06,1.66c4.3,1.88,23.25,2,27.63-1.74h0a.79.79,0,0,0,.24-.83A.81.81,0,0,0,65,167l-1.76-.21a5.38,5.38,0,0,1-4.47-3.54.44.44,0,0,1,0-.1L56,142.44l-5.35,1.91a.48.48,0,0,1-.39,0Z"/><path class="cls-8" d="M59,124.81c10.1,3.71,8.36,10.25,8.36,10.25a28.36,28.36,0,0,0,.14,6.28c.28,1,1.89,2.83,2,3.38s-.8,1.67-2.55,2.07c0,0-.66,8.73-2.95,10.16s-11.1-1.32-11.1-1.32L51.38,155c-4.78-1.92-7.7-5.9-9.09-10.83C42.29,144.21,35.86,116.29,59,124.81Z"/><path d="M61.8,157.85a37.76,37.76,0,0,1-9.09-1.75h0l-1.48-.59c-4.59-1.85-7.84-5.7-9.37-11.15-.14-.6-3.15-14,3-19.46,3.09-2.72,7.91-2.91,14.32-.55h0c9.9,3.65,8.83,10.12,8.68,10.79A26.68,26.68,0,0,0,68,141.2a8.61,8.61,0,0,0,1.08,1.86,4.9,4.9,0,0,1,.9,1.59c.11.84-.9,2-2.57,2.52-.17,1.83-.92,8.8-3.16,10.2A4.81,4.81,0,0,1,61.8,157.85ZM53,155.17c2.41.75,9,2.43,10.68,1.36,1.51-.95,2.47-6.5,2.72-9.78a.48.48,0,0,1,.38-.44C68.34,146,69,145,69,144.79a8.17,8.17,0,0,0-.73-1.18A8.59,8.59,0,0,1,67,141.47a28.57,28.57,0,0,1-.16-6.45.29.29,0,0,1,0-.09c.06-.25,1.46-6.16-8.06-9.66h0c-6-2.23-10.53-2.1-13.33.36-5.73,5.05-2.75,18.34-2.72,18.47,1.45,5.12,4.49,8.76,8.79,10.48Z"/><path d="M55.67,120.08c2.65.65,5.25,2.3,6.62,2.45,2.21.24,3.81-2.6,6.6-1.57a6.5,6.5,0,0,1,4.19,5.35,5.17,5.17,0,0,1,0,1.25c-.51,6-4.24,7.23-5.76,7.5,0,0-8.76-.81-10.47-.4s-4.07,2.88-4.82,6.41a1.05,1.05,0,0,1-1,.83h0A1.08,1.08,0,0,1,50,141c-.29-1.7-1.09-5.1-2.81-5.2-2-.12-4.58,3.86-1.95,6.35a1.58,1.58,0,0,1-.49,2.58,2.93,2.93,0,0,1-3.11-.57s-5.19-9.1-2.72-16.78S52.14,119.22,55.67,120.08Z"/><path d="M69.77,144.56a.49.49,0,0,1-.37-.16.5.5,0,0,1,0-.7,5,5,0,0,0,1.12-3.22,6.35,6.35,0,0,0-.39-2.68c-.25-.58-.58-.93-.9-1-.5,0-1.23.88-1.53,2.44a.49.49,0,0,1-.57.39.49.49,0,0,1-.4-.57c.38-2,1.41-3.31,2.55-3.25a2.18,2.18,0,0,1,1.76,1.56,7.21,7.21,0,0,1,.46,3.11,5.91,5.91,0,0,1-1.43,3.9A.46.46,0,0,1,69.77,144.56Z"/><path d="M62.88,145.14h-.11a2.75,2.75,0,0,1-2.19-1.58,6.32,6.32,0,0,1-.67-3.28h0c.14-2.63,1.61-4.62,3.35-4.54a2.72,2.72,0,0,1,2.18,1.58,6.2,6.2,0,0,1,.68,3.28C66,143.18,64.57,145.14,62.88,145.14Zm.27-8.42c-1.13,0-2.15,1.63-2.25,3.61h0a5.15,5.15,0,0,0,.55,2.75,1.79,1.79,0,0,0,1.37,1.07c1.15.06,2.21-1.59,2.31-3.6a5.22,5.22,0,0,0-.55-2.75,1.76,1.76,0,0,0-1.37-1.07Zm-2.75,3.59h0Z"/><path d="M60.72,139h0L51,138.08a.49.49,0,1,1,.09-1l9.63.86a.5.5,0,0,1,0,1Z"/><path class="cls-8" d="M45.36,180.58s3.75,5.88,7.13,4.84c1.77-.55,3.51-6.35,4.21-6.55,2.27-.66,6.58-1.74,9.23-6.47,2.47-4.42,1.93-6.78,1.3-7.86a1.49,1.49,0,0,1,0-1.6,3,3,0,0,0,.46-2.85,1.52,1.52,0,0,1,0-1.2c.63-1.46,1.79-4.83-.47-5.49a1.52,1.52,0,0,0-1.65.56,16.46,16.46,0,0,1-4.07,4c-2.62,1.67-4.19,2.81-5.51,3.56-1.13.64-1.72-5-4.43-7.1-2.41-1.88-3.23-.93-3.47-.05s1.25,1.23,2.1,5.43c1,4.91,0,9-.35,11.25C49.53,173.68,45.36,180.58,45.36,180.58Z"/><path d="M51.67,186c-3.37,0-6.58-5-6.73-5.2a.49.49,0,0,1,0-.52c0-.07,4.12-6.83,4.46-9.3,0-.36.11-.77.19-1.23a26.16,26.16,0,0,0,.16-9.85,10.59,10.59,0,0,0-1.65-4.19,1.72,1.72,0,0,1-.44-1.47A1.79,1.79,0,0,1,48.78,153c.8-.27,1.83.1,3.12,1.11,1.57,1.22,2.46,3.49,3.11,5.15a9.25,9.25,0,0,0,.86,1.86c.71-.41,1.5-.94,2.5-1.6.82-.55,1.76-1.17,2.91-1.9a15.54,15.54,0,0,0,3.93-3.91,2,2,0,0,1,2.19-.75,2.21,2.21,0,0,1,1.42,1.19c.65,1.38,0,3.47-.64,5a1,1,0,0,0,0,.81,3.33,3.33,0,0,1-.5,3.31,1,1,0,0,0,0,1.08c.79,1.34,1.21,3.88-1.29,8.35-2.64,4.72-6.93,6-9.23,6.62l-.23.06a13.16,13.16,0,0,0-1,1.89c-1.13,2.43-2.09,4.31-3.29,4.68A3.2,3.2,0,0,1,51.67,186Zm-5.73-5.48c1.14,1.68,4.06,5.11,6.4,4.39.88-.27,2-2.61,2.69-4.16s1.06-2.26,1.54-2.4l.28-.08c2.32-.67,6.21-1.79,8.65-6.15s1.84-6.45,1.3-7.37a2,2,0,0,1,0-2.13,2.48,2.48,0,0,0,.42-2.37,2,2,0,0,1,0-1.59c.79-1.84,1-3.36.64-4.17a1.17,1.17,0,0,0-.8-.66,1,1,0,0,0-1.11.38,17.05,17.05,0,0,1-4.21,4.17c-1.13.72-2.06,1.34-2.88,1.88-1.06.7-1.89,1.25-2.64,1.68a.83.83,0,0,1-.7.07c-.6-.21-1-1.11-1.49-2.47-.61-1.55-1.44-3.68-2.79-4.74s-1.95-1-2.21-.94a.85.85,0,0,0-.48.64c0,.12,0,.24.31.67a11.37,11.37,0,0,1,1.79,4.53A26.79,26.79,0,0,1,50.56,170c-.07.45-.14.85-.19,1.21C50.05,173.55,46.73,179.24,45.94,180.56Z"/><path class="cls-3" d="M57.72,183.18l-11.36-7.24S31,200.77,19.37,209.2c-5.66,4.1-16.64-.72-16.64-.72S-7.81,249,12.54,254.79C46.44,264.44,57.72,183.18,57.72,183.18Z"/><path class="cls-6" d="M92,246.54c-12.81,0-31.23-10.28-43.66-19.54a.48.48,0,0,1-.1-.69.49.49,0,0,1,.69-.1C62,235.93,81.64,246.8,94.17,245.44a.49.49,0,0,1,.54.44.49.49,0,0,1-.44.54A21.44,21.44,0,0,1,92,246.54Z"/><path class="cls-6" d="M74.69,215.32c-7.1,0-20.18-6.12-20.79-6.41a.49.49,0,1,1,.42-.89c.16.07,16.2,7.59,22.12,6.13C86.39,211.72,84,199,84,198.84a.49.49,0,0,1,.39-.58.5.5,0,0,1,.58.39c0,.14,2.56,13.81-8.3,16.46A8,8,0,0,1,74.69,215.32Z"/><path class="cls-6" d="M18.38,210.87a.49.49,0,0,1-.3-.89c12.24-9.14,27.4-34.24,27.56-34.49a.48.48,0,0,1,.67-.17.49.49,0,0,1,.17.68c-.15.25-15.42,25.51-27.81,34.77A.45.45,0,0,1,18.38,210.87Z"/><path class="cls-6" d="M17.4,256.48q-.66,0-1.32-.06a.49.49,0,0,1-.45-.53.49.49,0,0,1,.53-.45c14,1.21,24.37-18.45,30.64-35.16a252.49,252.49,0,0,0,10.37-36.87l-4.67-3a.49.49,0,1,1,.53-.83L58,182.76a.49.49,0,0,1,.22.51,252.23,252.23,0,0,1-10.47,37.35c-4,10.78-8.45,19.27-13.07,25.25C29.2,252.91,23.4,256.48,17.4,256.48Z"/><path class="cls-7" d="M251,245.69l1.55-5.93-5.94-3.08a26.45,26.45,0,0,0,0-4.27l5.9-3.15-1.62-5.91-6.7.3A25.61,25.61,0,0,0,242,220l3.54-5.68L241.15,210l-5.64,3.6a25.37,25.37,0,0,0-3.71-2.1l.22-6.7-5.93-1.55-3.08,6a25.35,25.35,0,0,0-4.27,0l-3.15-5.9-5.91,1.62.31,6.69a26.17,26.17,0,0,0-3.69,2.16l-5.68-3.55-4.31,4.37,3.61,5.63a25.13,25.13,0,0,0-2.11,3.72l-6.7-.23-1.55,5.94,5.95,3.07a25.47,25.47,0,0,0,0,4.28l-5.9,3.14,1.62,5.92,6.69-.31a26.07,26.07,0,0,0,2.16,3.68l-3.54,5.69,4.36,4.31,5.63-3.61a26.06,26.06,0,0,0,3.72,2.11l-.23,6.69,5.94,1.55,3.08-5.95a24.35,24.35,0,0,0,4.27,0l3.15,5.91,5.91-1.63-.31-6.69a24.63,24.63,0,0,0,3.68-2.16l5.69,3.55,4.31-4.36-3.61-5.64a25.52,25.52,0,0,0,2.11-3.72ZM217,250a15.79,15.79,0,1,1,19.27-11.29A15.79,15.79,0,0,1,217,250Z"/><path d="M214.45,264.06h-.12l-5.93-1.55a.49.49,0,0,1-.37-.5l.21-6.37a27.29,27.29,0,0,1-3.22-1.82l-5.36,3.43a.5.5,0,0,1-.61-.06l-4.36-4.31a.5.5,0,0,1-.08-.62l3.38-5.41a24.2,24.2,0,0,1-1.87-3.19l-6.37.3a.5.5,0,0,1-.5-.36l-1.62-5.92a.49.49,0,0,1,.24-.56l5.62-3a26.85,26.85,0,0,1,0-3.7l-5.66-2.93a.5.5,0,0,1-.25-.56l1.55-5.94a.49.49,0,0,1,.5-.36l6.37.21a25.24,25.24,0,0,1,1.82-3.22l-3.43-5.36a.48.48,0,0,1,.06-.61l4.31-4.37a.5.5,0,0,1,.61-.07l5.41,3.37a26.79,26.79,0,0,1,3.19-1.86l-.29-6.37a.5.5,0,0,1,.36-.5l5.92-1.62a.48.48,0,0,1,.56.24l3,5.62a25.35,25.35,0,0,1,3.7,0l2.93-5.66a.49.49,0,0,1,.56-.25l5.93,1.55a.49.49,0,0,1,.37.5l-.21,6.36a26.75,26.75,0,0,1,3.22,1.83l5.36-3.43a.48.48,0,0,1,.61.06l4.36,4.31a.49.49,0,0,1,.08.61L241,217.35a26.86,26.86,0,0,1,1.87,3.19l6.37-.29a.5.5,0,0,1,.5.36l1.62,5.91a.5.5,0,0,1-.24.57l-5.62,3a26.84,26.84,0,0,1,0,3.7l5.66,2.93a.49.49,0,0,1,.25.56l-1.55,5.93a.5.5,0,0,1-.5.37l-6.37-.21a26.69,26.69,0,0,1-1.82,3.22l3.43,5.36a.49.49,0,0,1-.06.61l-4.31,4.36a.47.47,0,0,1-.61.07l-5.42-3.37a26,26,0,0,1-3.18,1.87l.29,6.37a.5.5,0,0,1-.36.5L225.08,264a.49.49,0,0,1-.56-.24l-3-5.62a25.37,25.37,0,0,1-3.7,0l-2.93,5.67A.5.5,0,0,1,214.45,264.06ZM209,261.64,214.2,263l2.89-5.6a.49.49,0,0,1,.48-.26,25.47,25.47,0,0,0,4.19,0,.48.48,0,0,1,.48.26l3,5.55,5.16-1.41-.3-6.3a.53.53,0,0,1,.28-.47,25.14,25.14,0,0,0,3.62-2.11.48.48,0,0,1,.54,0l5.35,3.34,3.76-3.8-3.4-5.31a.5.5,0,0,1,0-.54,25,25,0,0,0,2.07-3.65.48.48,0,0,1,.46-.28l6.3.21,1.35-5.17-5.6-2.9a.49.49,0,0,1-.26-.47,25.47,25.47,0,0,0,0-4.19.48.48,0,0,1,.26-.48l5.56-3-1.42-5.16-6.3.29a.51.51,0,0,1-.47-.28,25.58,25.58,0,0,0-2.11-3.61.48.48,0,0,1,0-.54l3.34-5.35-3.8-3.76-5.3,3.4a.52.52,0,0,1-.55,0,24.47,24.47,0,0,0-3.64-2.07.49.49,0,0,1-.29-.46l.21-6.3-5.17-1.36-2.89,5.6a.51.51,0,0,1-.48.27,24.41,24.41,0,0,0-4.19,0,.51.51,0,0,1-.48-.26l-3-5.56-5.16,1.42L209,209a.48.48,0,0,1-.28.46,26.65,26.65,0,0,0-3.61,2.12.48.48,0,0,1-.54,0l-5.35-3.33-3.76,3.8,3.4,5.3a.52.52,0,0,1,0,.55,25.39,25.39,0,0,0-2.07,3.64.48.48,0,0,1-.46.29l-6.3-.22-1.35,5.18,5.59,2.89a.49.49,0,0,1,.27.48,25.47,25.47,0,0,0,0,4.19.49.49,0,0,1-.26.48l-5.56,3,1.42,5.15,6.3-.29a.48.48,0,0,1,.46.28,26.76,26.76,0,0,0,2.12,3.62.48.48,0,0,1,0,.54l-3.33,5.35,3.8,3.76,5.3-3.4a.5.5,0,0,1,.55,0,25.39,25.39,0,0,0,3.64,2.07.48.48,0,0,1,.29.46Zm10.51-13.25a16.36,16.36,0,0,1-4.15-.54h0a16.16,16.16,0,1,1,4.15.54Zm0-31.59a15.3,15.3,0,0,0-3.87,30.1h0a15.3,15.3,0,1,0,3.87-30.1Z"/><path class="cls-7" d="M271.53,193l.39-4.19-4.36-1.42a17.16,17.16,0,0,0-.49-2.88l3.64-2.79L269,177.9l-4.49.95a17.44,17.44,0,0,0-1.87-2.25l1.77-4.24-3.43-2.43L257.53,173a16.91,16.91,0,0,0-2.74-1l-.59-4.55-4.18-.39-1.42,4.36a17.27,17.27,0,0,0-2.89.49l-2.78-3.64L239.11,170l.95,4.49a17.44,17.44,0,0,0-2.25,1.87l-4.23-1.77L231.15,178l3.06,3.41a16.91,16.91,0,0,0-1,2.74l-4.55.59-.39,4.18,4.36,1.42a18.36,18.36,0,0,0,.49,2.89L229.47,196l1.75,3.82,4.49-1a17.44,17.44,0,0,0,1.87,2.25l-1.77,4.23,3.43,2.43,3.41-3.06a16.91,16.91,0,0,0,2.74,1l.59,4.55,4.19.39,1.42-4.36a18.23,18.23,0,0,0,2.88-.49l2.79,3.64,3.81-1.75-.95-4.49a17.44,17.44,0,0,0,2.25-1.87l4.24,1.77,2.43-3.43L266,196.32a16.91,16.91,0,0,0,1-2.74Zm-22.44,6.66a10.82,10.82,0,1,1,11.77-9.77A10.83,10.83,0,0,1,249.09,199.65Z"/><path d="M248.85,209.61h0l-4.18-.39a.49.49,0,0,1-.44-.43l-.55-4.23a16.64,16.64,0,0,1-2.21-.81l-3.17,2.85a.48.48,0,0,1-.61,0l-3.43-2.42a.5.5,0,0,1-.17-.6l1.64-3.93a18.46,18.46,0,0,1-1.5-1.81l-4.17.88a.49.49,0,0,1-.55-.28l-1.76-3.81a.5.5,0,0,1,.15-.6l3.38-2.59a17.55,17.55,0,0,1-.39-2.32l-4.05-1.32a.49.49,0,0,1-.34-.51l.39-4.18a.5.5,0,0,1,.43-.45l4.23-.55a16.64,16.64,0,0,1,.81-2.21l-2.85-3.16a.5.5,0,0,1,0-.62l2.42-3.42a.5.5,0,0,1,.6-.17l3.93,1.64a18.56,18.56,0,0,1,1.81-1.51l-.88-4.17a.5.5,0,0,1,.27-.55l3.82-1.75a.48.48,0,0,1,.6.15l2.59,3.38a17.55,17.55,0,0,1,2.32-.39l1.32-4.06a.49.49,0,0,1,.51-.33l4.18.39a.49.49,0,0,1,.45.42l.55,4.23a20,20,0,0,1,2.21.81l3.16-2.84a.5.5,0,0,1,.62,0l3.42,2.43a.49.49,0,0,1,.17.59l-1.64,3.94a18.56,18.56,0,0,1,1.51,1.81l4.17-.89a.51.51,0,0,1,.55.28l1.75,3.82a.48.48,0,0,1-.15.6l-3.38,2.58a17.83,17.83,0,0,1,.39,2.32l4.06,1.32a.5.5,0,0,1,.33.52l-.39,4.18a.48.48,0,0,1-.42.44l-4.23.55a18.22,18.22,0,0,1-.82,2.21l2.85,3.17a.48.48,0,0,1,0,.61l-2.43,3.43a.49.49,0,0,1-.59.17l-3.94-1.64a18.46,18.46,0,0,1-1.81,1.5l.89,4.17a.5.5,0,0,1-.28.55l-3.82,1.76a.51.51,0,0,1-.6-.15L253,204.83a18.12,18.12,0,0,1-2.32.39l-1.32,4.05A.49.49,0,0,1,248.85,209.61Zm-3.75-1.34,3.4.32,1.3-4a.49.49,0,0,1,.43-.33,17.24,17.24,0,0,0,2.8-.48.5.5,0,0,1,.52.18l2.54,3.33,3.1-1.43-.87-4.1a.51.51,0,0,1,.2-.51,18,18,0,0,0,2.19-1.81.48.48,0,0,1,.53-.1l3.87,1.61,2-2.79-2.81-3.11a.51.51,0,0,1-.08-.54,16.66,16.66,0,0,0,1-2.67.47.47,0,0,1,.41-.35l4.16-.54.31-3.4-4-1.3a.5.5,0,0,1-.34-.43,17.23,17.23,0,0,0-.47-2.8.51.51,0,0,1,.17-.52l3.33-2.54-1.42-3.1-4.11.87a.49.49,0,0,1-.5-.2,19,19,0,0,0-1.82-2.19.48.48,0,0,1-.1-.53l1.61-3.87-2.78-2-3.12,2.81a.49.49,0,0,1-.53.08,17.4,17.4,0,0,0-2.67-1,.48.48,0,0,1-.36-.41l-.54-4.16L249,166l-1.3,4a.48.48,0,0,1-.42.34,17.35,17.35,0,0,0-2.81.47.49.49,0,0,1-.51-.17l-2.54-3.33-3.1,1.42.86,4.11a.46.46,0,0,1-.2.5,18.13,18.13,0,0,0-2.18,1.82.49.49,0,0,1-.54.1l-3.87-1.61-2,2.78,2.8,3.12a.49.49,0,0,1,.08.53,16.38,16.38,0,0,0-1,2.67.5.5,0,0,1-.42.36l-4.15.54-.32,3.4,4,1.29a.5.5,0,0,1,.33.43,17.36,17.36,0,0,0,.48,2.81.48.48,0,0,1-.18.51l-3.33,2.54,1.43,3.1,4.1-.86a.48.48,0,0,1,.51.2,17.16,17.16,0,0,0,1.81,2.18.49.49,0,0,1,.1.54l-1.61,3.87,2.78,2,3.12-2.8a.51.51,0,0,1,.54-.08,15.72,15.72,0,0,0,2.67,1,.49.49,0,0,1,.35.42Zm25.11-16.87h0Zm-21.43,7.2c-.35,0-.7,0-1.06,0a11.3,11.3,0,1,1,1.06,0Zm0-21.63a10.32,10.32,0,0,0-.94,20.59h0c.33,0,.65.05,1,.05a10.32,10.32,0,0,0,.95-20.6C249.4,177,249.08,177,248.75,177Z"/><path class="cls-1" d="M197.27,138.32a18.62,18.62,0,1,0,4,26A18.61,18.61,0,0,0,197.27,138.32Zm2,24.35a15.61,15.61,0,1,1-3.39-21.82A15.61,15.61,0,0,1,199.3,162.67Z"/><path class="cls-1" d="M156.92,195.45h0a2.59,2.59,0,0,1-.56-3.61l19.52-26.7,4.17,3.05-19.52,26.7A2.59,2.59,0,0,1,156.92,195.45Z"/><path class="cls-2" d="M195.25,164.47a.48.48,0,0,1-.38-.18.5.5,0,0,1,.07-.7,13,13,0,0,0,3.55-15.92.51.51,0,0,1,.22-.67.49.49,0,0,1,.66.23,13.71,13.71,0,0,1,1.45,6.2,13.93,13.93,0,0,1-5.26,10.94A.5.5,0,0,1,195.25,164.47Z"/><path class="cls-2" d="M196.09,144.11a.46.46,0,0,1-.33-.13,13.13,13.13,0,0,0-3.86-2.52.48.48,0,0,1-.26-.64.51.51,0,0,1,.65-.27,13.86,13.86,0,0,1,4.14,2.71.49.49,0,0,1-.34.85Z"/><path class="cls-2" d="M186.85,167.41a14,14,0,0,1-13.91-12.51.5.5,0,0,1,1-.1,13,13,0,0,0,14.67,11.51.48.48,0,0,1,.55.42.5.5,0,0,1-.42.56A14.71,14.71,0,0,1,186.85,167.41Z"/></g></g></g></svg>