<svg xmlns="http://www.w3.org/2000/svg" xmlns:xlink="http://www.w3.org/1999/xlink" viewBox="0 0 370.12 233.87"><defs><style>.cls-1{fill:#30666a;}.cls-2{fill:#5d4efa;}.cls-3{fill:#4d878a;}.cls-4{fill:#1a2089;}.cls-5{fill:#4cc2fc;}.cls-6{fill:#fff;}.cls-7{fill:#e2a428;}.cls-8{fill:#b56cf7;}.cls-9{fill:#00244f;}.cls-10{fill:#3a666b;}.cls-11{fill:#6cafe0;}.cls-12{fill:#e6b48e;}.cls-13{fill:#e2a329;}.cls-14{fill:#2a3052;}.cls-15{fill:#253e5c;}.cls-16{fill:#d68427;}.cls-17{fill:#006ae6;}.cls-18{fill:#de9d84;}.cls-19{fill:url(#Áåçûìÿííûé_ãðàäèåíò_9);}.cls-20{fill:#b9d7c5;}.cls-21{fill:#85bfc3;}.cls-22{fill:#de9d85;}.cls-23{fill:#e6b38e;}.cls-24{fill:#292f53;}.cls-25{fill:#253f5d;}.cls-26{fill:#f5d977;}.cls-27{fill:url(#Áåçûìÿííûé_ãðàäèåíò_8);}.cls-28{fill:url(#Áåçûìÿííûé_ãðàäèåíò_8-2);}.cls-29{fill:url(#Áåçûìÿííûé_ãðàäèåíò_8-3);}.cls-30{fill:url(#Áåçûìÿííûé_ãðàäèåíò_8-4);}</style><linearGradient id="Áåçûìÿííûé_ãðàäèåíò_9" x1="227.21" y1="136.12" x2="231.1" y2="136.12" gradientUnits="userSpaceOnUse"><stop offset="0" stop-color="#e2eee8"/><stop offset="1" stop-color="#c9e2ec"/></linearGradient><linearGradient id="Áåçûìÿííûé_ãðàäèåíò_8" x1="170.34" y1="135.56" x2="170.77" y2="135.56" gradientTransform="translate(9.29 282.04) rotate(-80.73)" gradientUnits="userSpaceOnUse"><stop offset="0" stop-color="#e3eee9"/><stop offset="1" stop-color="#c9e2ed"/></linearGradient><linearGradient id="Áåçûìÿííûé_ãðàäèåíò_8-2" x1="173.74" y1="135.02" x2="174.5" y2="135.02" gradientTransform="matrix(1, 0, 0, 1, 0, 0)" xlink:href="#Áåçûìÿííûé_ãðàäèåíò_8"/><linearGradient id="Áåçûìÿííûé_ãðàäèåíò_8-3" x1="161.38" y1="140.61" x2="171.98" y2="140.61" gradientTransform="matrix(1, 0, 0, 1, 0, 0)" xlink:href="#Áåçûìÿííûé_ãðàäèåíò_8"/><linearGradient id="Áåçûìÿííûé_ãðàäèåíò_8-4" x1="157.24" y1="139.52" x2="165.66" y2="139.52" gradientTransform="matrix(1, 0, 0, 1, 0, 0)" xlink:href="#Áåçûìÿííûé_ãðàäèåíò_8"/></defs><title>creative_business_solutions</title><g id="Layer_2" data-name="Layer 2"><g id="Layer_1-2" data-name="Layer 1"><rect class="cls-1" x="134.97" y="60.7" width="4.79" height="26.43" transform="translate(-15.95 102.67) rotate(-38.91)"/><path class="cls-1" d="M144.51,85.12l-.11.09S128.33,66.6,127.8,64.65s.22-4.87,1.3-1.05S144.51,85.12,144.51,85.12Z"/><path class="cls-2" d="M80.23,65.63A40.3,40.3,0,1,0,86.26,9,40.31,40.31,0,0,0,80.23,65.63Zm3.52-2.85a35.78,35.78,0,1,1,50.32,5.35A35.78,35.78,0,0,1,83.75,62.78Z"/><path class="cls-3" d="M177,126.09a1.55,1.55,0,0,1-2.18-.23l-36-44.59a1.48,1.48,0,0,1,.15-2.08l3.16-2.55a1.48,1.48,0,0,1,2.06.29l36,44.59a1.55,1.55,0,0,1-.23,2.18Z"/><polygon class="cls-4" points="169.72 14.94 187.39 20.67 183.44 5.55 169.72 14.94"/><polygon class="cls-4" points="93.09 46.03 93.09 29.72 103.03 29.72 103.03 40.68 93.09 46.03"/><polygon class="cls-4" points="105.17 39.38 105.17 23.58 115.11 23.58 115.11 36.09 105.17 39.38"/><polygon class="cls-4" points="128.72 42.71 128.72 15.02 118.79 15.02 118.79 40.91 128.72 42.71"/><polygon class="cls-4" points="141.32 51.68 141.32 27.5 131.63 27.5 131.63 50.41 141.32 51.68"/><path class="cls-4" d="M155.09,49.06V22.11h-9.7V50.74l7.19,1.17A8.37,8.37,0,0,0,155.09,49.06Z"/><path class="cls-4" d="M177,15.62c-3,4.74-6.1,9.36-9.45,13.82a125,125,0,0,1-8.41,10.07c-1.43,1.53-2.91,3-4.46,4.42-.77.7-1.56,1.39-2.37,2s-1.07.86-2.05,1.55a32.59,32.59,0,0,1-4.74,2.77l-.19.09-.36.15c-.39.14-.77.28-1.17.41a16.08,16.08,0,0,1-2,.49c.07,0-.7.07-.87.08-.37,0-.74,0-1.11,0-.14,0-.81-.11-.66-.08a7.93,7.93,0,0,1-1-.23c-.16,0-.92-.33-.8-.27-.23-.11-.45-.21-.67-.33s-.68-.41-1-.63l-.26-.19c-.17-.15-.35-.29-.52-.45-1.8-1.63-2.64-3.17-4.38-5.09A29.7,29.7,0,0,0,124,38.76a24.18,24.18,0,0,0-16.46-3c-6.3.92-11.64,4-15.07,9.4a40.57,40.57,0,0,0-3.44,7.34c-.68,1.8-1.3,3.56-2,5.17h5.52a70.11,70.11,0,0,1,3.48-8.42,15.07,15.07,0,0,1,10.45-8.08c5.28-1.2,10.61-.74,15.18,2.17a26.38,26.38,0,0,1,5.61,5,41.52,41.52,0,0,0,4.38,5,13.38,13.38,0,0,0,9.56,3.25,22.3,22.3,0,0,0,10.21-3.73c7.2-4.59,13-11.25,18.26-17.92A193.11,193.11,0,0,0,183,15.62Z"/><polygon class="cls-5" points="303.15 63.61 215.95 63.82 216.07 11.97 303.14 11.87 303.15 63.61"/><polygon class="cls-4" points="303.21 18.57 303.22 11.67 216.03 11.53 216.06 18.57 303.21 18.57"/><path class="cls-6" d="M294.92,15a1.43,1.43,0,0,0,1.45,1.66A2,2,0,0,0,298.22,15a1.42,1.42,0,0,0-1.44-1.66A2,2,0,0,0,294.92,15Z"/><path class="cls-6" d="M290.19,15a1.42,1.42,0,0,0,1.44,1.65A2,2,0,0,0,293.48,15,1.42,1.42,0,0,0,292,13.34,2,2,0,0,0,290.19,15Z"/><rect class="cls-6" x="226.48" y="23.98" width="51.34" height="0.9"/><rect class="cls-6" x="226.48" y="33.1" width="51.34" height="0.9"/><rect class="cls-6" x="226.48" y="48.67" width="8.11" height="0.9"/><rect class="cls-6" x="240.45" y="48.67" width="15.32" height="0.9"/><rect class="cls-6" x="240.45" y="52.38" width="15.32" height="0.9"/><rect class="cls-7" x="260.63" y="48.67" width="17.19" height="0.9"/><rect class="cls-6" x="226.48" y="36.71" width="51.34" height="0.9"/><rect class="cls-6" x="226.48" y="56.09" width="51.34" height="0.9"/><rect class="cls-6" x="280.51" y="23.98" width="12.01" height="0.9"/><rect class="cls-6" x="226.48" y="27.71" width="9.48" height="0.9"/><rect class="cls-6" x="226.48" y="40.17" width="11.23" height="0.65"/><rect class="cls-6" x="258.01" y="27.71" width="19.81" height="0.9"/><rect class="cls-6" x="258.01" y="43.66" width="19.81" height="0.9"/><rect class="cls-6" x="280.51" y="27.71" width="12.01" height="0.9"/><rect class="cls-6" x="280.51" y="36.71" width="12.01" height="0.9"/><rect class="cls-6" x="280.51" y="43.66" width="12.01" height="0.9"/><rect class="cls-2" x="97.63" y="55.69" width="172.1" height="117.31"/><path class="cls-8" d="M214.17,88.28a32.71,32.71,0,0,0-11.89-10.55c.13,3.85-1,7.65-4.15,10.18a21.88,21.88,0,0,1,10.66,21.82,8,8,0,0,1,1.91-.6l1.28-.06c.51-.72,1-1.46,1.46-2.21a12,12,0,0,1,1.05-1.89l0,0,.36-.75c1-2.06,2.9-.54,4.69-1.38C218.66,95.37,216.62,91.85,214.17,88.28Z"/><path class="cls-8" d="M183,135.32h.28c-.13-.67-.28-1.34-.47-2l-.24-.85,0-.08c-.25-.79-.5-1.59-.74-2.39a5.62,5.62,0,0,1-.24-2.09,21.75,21.75,0,0,1-10.71-6.56,32.75,32.75,0,0,1-6.35,5.15,11.81,11.81,0,0,1-2.56,1.24c4,4.79,11,8.63,16.53,10.51C180.12,136.65,180.66,135.32,183,135.32Z"/><path class="cls-8" d="M172,122.54a21.84,21.84,0,0,1,28.39-33.1l4.84-10c-11.51-7.49-23.88-7.32-36.61.29a32.75,32.75,0,0,0-8.51,45.54,33.88,33.88,0,0,0,2.76,3.49Z"/><path class="cls-8" d="M219.59,102.79l-11.07-.18a21.84,21.84,0,0,1-27.19,25.1l-2.85,10.54c7.68,1.81,12.85,1.61,18.84-.53a34.92,34.92,0,0,0,10.77-6.21C217,124,220.87,114.36,219.59,102.79Z"/><rect class="cls-6" x="232.64" y="67.47" width="13.6" height="1.5"/><rect class="cls-6" x="232.64" y="70.46" width="13.6" height="1.5"/><rect class="cls-6" x="232.64" y="73.45" width="13.6" height="1.5"/><rect class="cls-6" x="232.64" y="76.44" width="13.6" height="1.5"/><rect class="cls-6" x="139.88" y="151.45" width="29.46" height="1.5"/><rect class="cls-6" x="139.88" y="154.44" width="29.46" height="1.5"/><rect class="cls-6" x="139.88" y="157.44" width="29.46" height="1.5"/><rect class="cls-6" x="139.88" y="160.43" width="29.46" height="1.5"/><rect class="cls-6" x="217.09" y="149.71" width="15.62" height="1.5"/><rect class="cls-6" x="217.09" y="152.7" width="15.62" height="1.5"/><rect class="cls-6" x="217.09" y="155.69" width="15.62" height="1.5"/><rect class="cls-6" x="217.09" y="158.69" width="15.62" height="1.5"/><rect class="cls-6" x="125.17" y="73.45" width="15.62" height="1.5"/><rect class="cls-6" x="125.17" y="76.44" width="15.62" height="1.5"/><rect class="cls-6" x="125.17" y="79.43" width="15.62" height="1.5"/><rect class="cls-6" x="125.17" y="82.43" width="15.62" height="1.5"/><rect class="cls-6" x="214.98" y="80.18" width="16.98" height="1.5" transform="translate(3.7 171.42) rotate(-42.29)"/><rect class="cls-6" x="153.53" y="141.81" width="16.98" height="1.5" transform="translate(-50.53 179.88) rotate(-51.3)"/><rect class="cls-6" x="150.45" y="73.57" width="1.5" height="16.98" transform="translate(-2.69 158.95) rotate(-55.04)"/><rect class="cls-6" x="213.78" y="132.4" width="1.5" height="16.98" transform="translate(-37.93 187.14) rotate(-43.68)"/><rect class="cls-6" x="127.52" y="111.02" width="6.42" height="6.42"/><rect class="cls-6" x="137.25" y="112.73" width="11.76" height="3.21"/><rect class="cls-6" x="127.52" y="120.56" width="6.42" height="6.42"/><rect class="cls-6" x="137.25" y="122.27" width="11.76" height="3.21"/><rect class="cls-6" x="127.52" y="130.1" width="6.42" height="6.42"/><rect class="cls-6" x="137.25" y="131.81" width="11.76" height="3.21"/><rect class="cls-4" x="252.33" y="40.46" width="85.71" height="87.34"/><rect class="cls-6" x="304.44" y="50.84" width="25.88" height="1.86"/><rect class="cls-6" x="304.44" y="54.56" width="25.88" height="1.86"/><rect class="cls-6" x="304.44" y="58.27" width="25.88" height="1.86"/><rect class="cls-6" x="304.44" y="61.99" width="25.88" height="1.86"/><path class="cls-6" d="M262.37,61.43a1.72,1.72,0,0,0-2.36.63,1.74,1.74,0,0,0,.63,2.36,1.72,1.72,0,0,0,2.3-.55h23.17V61.72H262.73A1.48,1.48,0,0,0,262.37,61.43Z"/><path class="cls-6" d="M262.37,55.38a1.73,1.73,0,0,0-1.73,3,1.72,1.72,0,0,0,2.2-.42h23.27V55.8H262.85A1.77,1.77,0,0,0,262.37,55.38Z"/><path class="cls-6" d="M262.85,50.08a1.77,1.77,0,0,0-.48-.42,1.72,1.72,0,1,0,.47,2.57h23.27V50.08Z"/><rect class="cls-6" x="272.23" y="99.7" width="2.98" height="20.73"/><rect class="cls-6" x="287.25" y="91.59" width="2.92" height="28.84"/><rect class="cls-6" x="277.1" y="87.58" width="3.19" height="32.86"/><rect class="cls-6" x="292.19" y="68.87" width="2.9" height="51.57"/><rect class="cls-6" x="282.26" y="78.07" width="3.09" height="42.36"/><rect class="cls-6" x="298.13" y="113.14" width="2.98" height="7.29"/><rect class="cls-6" x="313.15" y="108.18" width="2.92" height="12.26"/><rect class="cls-6" x="303" y="97.75" width="3.19" height="22.68"/><rect class="cls-6" x="318.09" y="105.69" width="2.9" height="14.74"/><rect class="cls-6" x="308.16" y="84.35" width="3.09" height="36.09"/><polygon class="cls-4" points="83.27 92.82 65.11 64.39 46.49 92.82 56.43 92.82 56.43 137.87 73.33 137.87 73.33 92.82 83.27 92.82"/><polygon class="cls-4" points="36.78 124.87 18.61 96.44 0 124.87 9.94 124.87 9.94 169.92 26.84 169.92 26.84 124.87 36.78 124.87"/><rect class="cls-9" x="33.27" y="99.1" width="16.73" height="78.05"/><polygon class="cls-4" points="89.26 39.2 70.65 67.64 80.58 67.64 80.59 75.87 80.55 75.87 80.55 177.15 97.28 177.15 97.49 67.64 107.43 67.64 89.26 39.2"/><polygon class="cls-4" points="59.79 110.58 41.62 82.15 23.01 110.58 32.95 110.58 32.95 155.63 49.85 155.63 49.85 110.58 59.79 110.58"/><rect class="cls-4" x="291.48" y="142.18" width="28.52" height="55.43"/><polygon class="cls-10" points="320 142.18 329.25 137.42 329.25 191.83 320 197.61 320 142.18"/><polygon class="cls-5" points="291.48 142.18 282.24 137.42 282.24 191.83 291.48 197.61 291.48 142.18"/><polygon class="cls-2" points="282.24 137.42 293.8 132.66 320 132.66 329.25 137.42 320 142.18 291.48 142.18 282.24 137.42"/><rect class="cls-4" x="312.61" y="106.92" width="22.27" height="96.48"/><polygon class="cls-5" points="334.87 106.92 342.1 102.4 342.1 197.92 334.87 203.4 334.87 106.92"/><polygon class="cls-5" points="312.61 106.92 305.39 102.4 305.39 197.92 312.61 203.4 312.61 106.92"/><polygon class="cls-2" points="305.39 102.4 314.41 97.89 334.87 97.89 342.1 102.4 334.87 106.92 312.61 106.92 305.39 102.4"/><rect class="cls-4" x="344.39" y="155.06" width="19.43" height="50.83"/><polygon class="cls-5" points="363.81 155.06 370.12 151.81 370.12 201.95 363.81 205.89 363.81 155.06"/><polygon class="cls-5" points="344.39 155.06 338.09 151.81 338.09 201.95 344.39 205.89 344.39 155.06"/><polygon class="cls-2" points="338.09 151.81 345.96 148.56 363.81 148.56 370.12 151.81 363.81 155.06 344.39 155.06 338.09 151.81"/><rect class="cls-9" x="324.38" y="174.99" width="19.43" height="37.76"/><polygon class="cls-5" points="343.8 174.99 350.1 171.74 350.1 208.81 343.8 212.75 343.8 174.99"/><polygon class="cls-5" points="324.38 174.99 318.07 171.74 318.07 208.81 324.38 212.75 324.38 174.99"/><polygon class="cls-2" points="318.07 171.74 325.95 168.5 343.8 168.5 350.1 171.74 343.8 174.99 324.38 174.99 318.07 171.74"/><polygon class="cls-4" points="120.9 178.84 95.34 191.22 95.34 116 120.9 103.68 120.9 178.84"/><polygon class="cls-2" points="70.04 178.84 95.6 191.22 95.6 116 70.04 103.68 70.04 178.84"/><polygon class="cls-5" points="95.6 116 120.9 103.68 95.34 93.37 70.04 103.68 95.6 116"/><polygon class="cls-4" points="89.24 192.84 63.68 205.21 63.68 142.49 89.24 130.16 89.24 192.84"/><polygon class="cls-2" points="38.38 192.84 63.94 205.21 63.94 142.49 38.38 130.16 38.38 192.84"/><polygon class="cls-5" points="63.94 142.49 89.24 130.16 63.68 119.86 38.38 130.16 63.94 142.49"/><polygon class="cls-4" points="57.22 205.24 31.66 217.62 31.66 171.65 57.22 159.33 57.22 205.24"/><polygon class="cls-2" points="6.36 205.24 31.92 217.62 31.92 171.65 6.36 159.33 6.36 205.24"/><polygon class="cls-5" points="31.92 171.65 57.22 159.33 31.66 149.02 6.36 159.33 31.92 171.65"/><polygon class="cls-4" points="276.53 173.46 276.53 194.41 190.89 204.18 209.27 176.03 276.53 173.46"/><path class="cls-4" d="M227.65,193.45c-.52-.13-1-.27-1.53-.44H194.61V177.42H105.25v22.11c0,12.21,38.65,22.1,86.33,22.1,19.69,0,37.84-1.68,52.36-4.52V194.93c-1.44-.09-2.88-.13-4.32-.18A56.62,56.62,0,0,1,227.65,193.45Z"/><path class="cls-5" d="M216,181.61l60.51-8.15h0c-7.3-10.32-42.55-18.14-84.95-18.14-47.68,0-86.33,9.89-86.33,22.1s38.65,22.11,86.33,22.11c19.94,0,38.31-1.73,52.92-4.64Z"/><path class="cls-4" d="M279.94,220.15s24.2-5.26,34.1-16.5c0-5.79-.12-21-.12-21l-34,11.4Z"/><polygon class="cls-4" points="251.55 186.12 251.55 204.79 279.94 220.15 279.94 197.81 251.55 186.12"/><path class="cls-5" d="M313.92,182.68c-26.08,2.09-62.37,3.44-62.37,3.44L281,200.05C301.06,196,313.92,189.73,313.92,182.68Z"/><path class="cls-9" d="M311.89,129.5l-1.12,3a1,1,0,0,0,.32,1.15,3.18,3.18,0,0,0,.59.27,35.58,35.58,0,0,0,1.49-4v0A1.06,1.06,0,0,0,311.89,129.5Z"/><polygon class="cls-9" points="311.68 133.88 313.17 129.84 313.37 129.96 311.86 133.96 311.68 133.88"/><polygon class="cls-9" points="311.45 130.67 311.35 130.94 311.86 131.04 311.96 130.78 311.45 130.67"/><polygon class="cls-9" points="311.23 131.24 311.13 131.51 311.65 131.61 311.75 131.35 311.23 131.24"/><path class="cls-9" d="M310.65,128.8l1.24.7h0a.78.78,0,0,1-.27.8l-.05,0-1.36-.35Z"/><path class="cls-11" d="M300.76,110.15a7,7,0,0,1,1.54,3.65c.21,1.55-.37,4-.43,5.93A5,5,0,0,0,304,124l6.65,4.83-.44,1.19s-9.1-1.37-11.49-5.44-3-13.3-3-13.3Z"/><path class="cls-12" d="M306.05,105.12l3.42,7.64a4.6,4.6,0,0,1,2,.7,1.45,1.45,0,0,1,.22,1.32.47.47,0,0,1-.77.27,3.33,3.33,0,0,0-1.18-.75,1.44,1.44,0,0,1-1.1-.73l-4.9-7.7Z"/><path class="cls-12" d="M288.81,89.77l-1.75-1.5,1.36-7.4,2.1-1.08a.61.61,0,0,0-.75-.23,2,2,0,0,1-1,.07s-.39-.49.36-.82c.42-.28.7,0,1.92,0,0-.18-1.61-.63-1.61-.63-.5-.16-1.78.83-1.78.83a.94.94,0,0,0-.16.4l-.2,1.37s-2.72,7.45-2.72,8.24,1.52,1.89,1.52,1.89Z"/><path class="cls-11" d="M298.23,110.91s1,1.27.42,4.22c-.4,1.89-2.18,4.26-3.37,5.89a5.18,5.18,0,0,0-.61,4.07c1,5.42-.59,12-.59,12h-1.26s-1.9-9.69-2.46-16.51a19.59,19.59,0,0,1,2.18-10.75Z"/><rect class="cls-13" x="287.15" y="78.76" width="4.01" height="1.06" transform="translate(-8.45 42.81) rotate(-8.35)"/><rect class="cls-6" x="286.59" y="79.41" width="1.06" height="0.37" transform="translate(250.05 375.23) rotate(-98.35)"/><path class="cls-14" d="M287.09,80.13c-.29,0-.53,0-.6-.45s.16-.56.45-.61Z"/><polygon class="cls-6" points="291.22 79.53 291.99 79.06 291.93 78.68 291.06 78.48 291.22 79.53"/><polygon class="cls-15" points="291.99 79.06 292.32 78.82 291.93 78.68 291.99 79.06"/><rect class="cls-16" x="287.32" y="79.41" width="3.88" height="0.24" transform="translate(-8.48 42.79) rotate(-8.34)"/><rect class="cls-16" x="287.24" y="78.9" width="3.88" height="0.24" transform="translate(-8.4 42.78) rotate(-8.34)"/><path class="cls-17" d="M301.33,95.93c2.26,1.66,4.92,9.64,4.92,9.64l-2,1.12L301,102.25a42.47,42.47,0,0,0,.46,9.07c-.36,1.47-2,1.31-4.75.79a13.42,13.42,0,0,1-4.49-1.68s-.12-7.12-.47-10.89.34-4.18-.61-4.06c-2.12-1.2-5.6-5.08-5.6-5.08l3.23-.63,6.95,4.08A29.78,29.78,0,0,1,301.33,95.93Z"/><path class="cls-12" d="M297.39,86.49l-1.68,1.66a2.91,2.91,0,0,0-.79,2.7l.19.89Z"/><path class="cls-15" d="M299.42,85.87c4.08,0,2.34,7.82,2.34,7.82s-.72,5.07-2.34,7.11c-1.4,1.76-4.16,1.23-5.47.39a5,5,0,0,0-2.12-.78,2.42,2.42,0,0,1-2.43-2.63c0-1.89,2.25-3.34,3.73-4.38a4.88,4.88,0,0,0,1.92-2.84C295.53,88.63,296.68,85.87,299.42,85.87Z"/><path class="cls-9" d="M293.87,138.53H290.7c-.41.06-.88.22-1,.71a3.4,3.4,0,0,0-.05.64,34.33,34.33,0,0,0,4.31,0v0A1.06,1.06,0,0,0,293.87,138.53Z"/><polygon class="cls-9" points="289.69 139.87 294 139.85 293.96 140.07 289.69 140.07 289.69 139.87"/><polygon class="cls-9" points="292.62 138.53 292.33 138.53 292.42 139.04 292.69 139.04 292.62 138.53"/><polygon class="cls-9" points="292 138.53 291.72 138.53 291.81 139.04 292.08 139.04 292 138.53"/><path class="cls-9" d="M294.08,137.12l-.21,1.41h0a.81.81,0,0,1-.85,0l0,0-.15-1.41Z"/><path class="cls-12" d="M289.77,79.56a.61.61,0,0,1,.75.23l-1.4.72-.06,0a6.11,6.11,0,0,0-.93-.33A11.55,11.55,0,0,1,289.77,79.56Z"/><path class="cls-14" d="M235.12,174.65s.42.57,2.39,1.08c.43.11.9.18.9.9h-1.95l-2-.35v.35H233.4s-.3-1.76.33-2Z"/><path class="cls-12" d="M235.22,173.38l-.1,1.27h0a1.23,1.23,0,0,1-1.32,0l-.07,0v-1.27Z"/><path class="cls-14" d="M225.14,174.9s.42.58,2.39,1.08c.43.11.9.18.9.9h-1.94l-2-.34v.34h-1.08s-.3-1.76.33-2Z"/><path class="cls-12" d="M225.24,173.64l-.1,1.26h0a1.21,1.21,0,0,1-1.32,0l-.07,0v-1.26Z"/><path class="cls-9" d="M236,142.37l-.48,31.7h-2.31s-3.52-25.59-2.77-31.7S236,142.37,236,142.37Z"/><path class="cls-9" d="M233.57,142.37s-.8,9.73-2.65,15.12-5.18,16.58-5.18,16.58h-2.39s4-23.38,3.08-31.7h7.14Z"/><path class="cls-17" d="M235.65,126.23s2.85,6.64,3.57,6.64-.22-5.42-.22-5.42h2.39s3,9.29.61,11-7.62-4.81-7.62-4.81Z"/><path class="cls-12" d="M227.17,143.21l.86,2.13c.41.84,1.94.86,2.95.59a.2.2,0,0,0,.1-.34,28.62,28.62,0,0,0-2.5-2.53Z"/><path class="cls-17" d="M233.3,124.85a2.68,2.68,0,0,1,2.29,1.27,1.87,1.87,0,0,1,.28.91v15.34h-8.71V128s.18-3.19,3.29-3.19Z"/><polygon class="cls-6" points="235.72 142.37 235.72 128.6 236.01 128.61 236.01 142.37 235.72 142.37"/><path class="cls-18" d="M230.11,121.91l.93,3.5a2.2,2.2,0,0,0,1.84.36c1.05-.28.85-1,.85-1l-.59-2.25h-1.66Z"/><path class="cls-12" d="M233.45,123.12a1.25,1.25,0,0,0,.72-.41c.54-1.73-1.58-5.45-1.58-5.45l-3.23,1.5.61,2.71a2.34,2.34,0,0,0,1.33,1.63h0A3.75,3.75,0,0,0,233.45,123.12Z"/><path class="cls-14" d="M231,118.41a7.62,7.62,0,0,0,2.31-.61c1.12-.53,0-1.63,0-1.63a4.86,4.86,0,0,1-2.38.82c-1.09.12-1.43,0-2,.53-.78.73-.12,2.32-.12,2.32l1.43,3.36.19,0s-.5-2.09-.69-2.8c.11-.37.32-.43.51-.39a.56.56,0,0,1,.41.4l1,3.63s2.58.39,3.12.05-.57-2.92-.57-2.92a1.11,1.11,0,0,0-1.13.61c-.36.72-1.15.28-1.15.28Z"/><path class="cls-12" d="M240.93,127.45l-.08-.46a3.83,3.83,0,0,0-2.13-2.6h-1l.32,2.16,1.43.9Z"/><path class="cls-12" d="M229.91,120a.62.62,0,0,1,.71.4.53.53,0,0,1-.22.74.6.6,0,0,1-.7-.41A.52.52,0,0,1,229.91,120Z"/><path class="cls-12" d="M238.43,126.31l2,1.14s-1.24,0-1.26,0l-2.09-1.74s.15-.31.63,0A2.4,2.4,0,0,1,238.43,126.31Z"/><path class="cls-17" d="M228.09,125.8s-4.93,5.47-4.93,8.75,4,9,4,9l2-.58s-1.78-7.15-1.78-9.05,3.66-4.69,3.66-4.69"/><path class="cls-19" d="M227.5,134c0,1.64,1.45,7.63,1.79,9l-.3.07c-.42-1.72-1.78-7.48-1.78-9.09,0-1.95,3.56-4.69,3.71-4.8l.18.23S227.5,132.16,227.5,134Z"/><path class="cls-17" d="M237.15,123a5.22,5.22,0,0,0,1.37,3.68.53.53,0,0,0,.39.16,1.47,1.47,0,0,0,.66-.2.62.62,0,0,0,.37-.34.27.27,0,0,0-.06-.28,3.86,3.86,0,0,1-1.08-2.85A2.14,2.14,0,0,0,237.15,123Z"/><path class="cls-17" d="M239.74,126.59a.44.44,0,0,0,.2-.25.27.27,0,0,0-.06-.28,3.86,3.86,0,0,1-1.08-2.85A1.85,1.85,0,0,0,238,123,5.89,5.89,0,0,0,239.74,126.59Z"/><path class="cls-17" d="M238.52,124.63c.1.29.28.5.39.46s.13-.31,0-.6-.27-.5-.39-.46S238.42,124.34,238.52,124.63Z"/><polygon class="cls-17" points="238.53 124.04 238.65 124 238.65 124.06 238.57 124.1 238.53 124.04"/><polygon class="cls-17" points="238.88 125.1 239.03 125.05 238.86 125.04 238.88 125.1"/><path class="cls-17" d="M238.62,124.6c.1.29.27.5.39.46s.13-.31,0-.6-.28-.5-.39-.46S238.52,124.3,238.62,124.6Z"/><path class="cls-17" d="M236.4,121.34l-.24,0a.78.78,0,0,0-.7.86l.07.61a.81.81,0,0,0,.9.67l.24,0Z"/><path class="cls-17" d="M243.55,121.05c.21,1.66,0,3.06-.47,3.12s-1-1.24-1.24-2.9,0-3.06.48-3.12S243.34,119.39,243.55,121.05Z"/><polygon class="cls-17" points="241.67 120.16 242.4 120.52 242.52 121.49 241.9 122.21 241.5 120.97 241.67 120.16"/><path class="cls-17" d="M241.84,121.27a4.9,4.9,0,0,1,.28-3h0a13.94,13.94,0,0,1-5.85,3.1l.27,2.12s4.45-.81,6.31.6h0A5,5,0,0,1,241.84,121.27Z"/><path class="cls-17" d="M242.55,121c0,.27,0,.49,0,.5s-.12-.21-.15-.48,0-.49,0-.5S242.52,120.72,242.55,121Z"/><path class="cls-12" d="M239.83,125.88a2.2,2.2,0,0,1-1.1.18c-.57,0-.83-.7-.93-1.09,0-.13-.06-.32.11-.41l.92-.13Z"/><path class="cls-12" d="M82.27,156.75l.25,1.51h0a1.46,1.46,0,0,1-1.57.05l-.09-.05-.37-1.51Z"/><path class="cls-20" d="M70.18,121.86c1.34,4.42,5.84,11.21,5.84,11.21l-3.55-1.46L70,125.81S68.84,117.43,70.18,121.86Z"/><path class="cls-11" d="M79.83,139.61l2.8,17.27H80.14s-5.59-15.54-6.18-20.1c0-2.59,5.66,0,5.66,0Z"/><polygon class="cls-18" points="70.56 114.88 69.63 117.28 67.62 115.83 68.97 112.99 70.56 114.88"/><path class="cls-12" d="M71.32,115.28a1.42,1.42,0,0,0,.78,0c1.17-1.12.88-4.84.88-4.84l-1.3-.9-2.05.75L69,112.6a2,2,0,0,0,.47,1.79h0A3.85,3.85,0,0,0,71.32,115.28Z"/><path class="cls-14" d="M70,111.06a.8.8,0,0,1,1-.4,6,6,0,0,0,1,.29c.81.17,2.31.16,2.56-1.07s-1.33-1.12-1.33-1.12l-2.12.15a4,4,0,0,1-1.83-.34.86.86,0,0,0-1.07.57,5.32,5.32,0,0,0,.22,2.63A3.73,3.73,0,0,0,69,113h0Z"/><path class="cls-12" d="M68.8,111.58a.61.61,0,0,1,.73.23.43.43,0,0,1,0,.66.63.63,0,0,1-.74-.22C68.57,112,68.59,111.7,68.8,111.58Z"/><path class="cls-14" d="M82.57,158.1s0,1.6,3.23,2.56c.66.2.44.4.57.67H82.66l-1.45-1.63-.45.39-1.05-1s.18-1.49,1-1.5C81.35,157.78,82.57,158.1,82.57,158.1Z"/><path class="cls-12" d="M73.42,156.28l-.61,1.39h0a1.47,1.47,0,0,1-1.5-.46l-.07-.08.49-1.43Z"/><path class="cls-9" d="M70.07,116.61s.26-.4-2-1.57c-3.43,3.43-4.56,16.57-4.56,16.57h9A45.44,45.44,0,0,0,70.07,116.61Z"/><path class="cls-12" d="M78.94,131.26a.41.41,0,0,0-.19-.44L77.29,130a1.73,1.73,0,0,0-1.2-.2l-1.58.07-.21.25L74,131.5l.5-.13,1,0s1.9,1.77,2.84.23c0,1.63.52,1.51.52,1.51Z"/><path class="cls-11" d="M63.49,131.61l-.14,1.12v0a4.4,4.4,0,0,0,3.22,4.68,39.49,39.49,0,0,0,9.24,1.63c-3.38,4.35-4.32,16.55-4.32,16.55l2.18.79,8.43-20.07a2.22,2.22,0,0,0-1.59-3l-8-1.72Z"/><path class="cls-9" d="M69.1,120.9a17.93,17.93,0,0,0-2.65,3.1,1.16,1.16,0,0,0,.1,1.39c1.87,2.15,8.53,4.22,8.53,4.22L74.65,132s-9.45-1.86-12.8-5.21,5.45-10.65,5.45-10.65"/><path class="cls-21" d="M66.56,124.07a1,1,0,0,0,.09,1.23c.85,1,3.13,2,5.12,2.8a2.42,2.42,0,0,0,0,.27c-2.09-.78-4.39-1.82-5.32-2.89a1.31,1.31,0,0,1-.12-1.55A18.67,18.67,0,0,1,69,120.8l.18.2A18.19,18.19,0,0,0,66.56,124.07Z"/><path class="cls-21" d="M63.82,128.18a47.54,47.54,0,0,0,10.85,3.75,2.07,2.07,0,0,1-.06.26,47,47,0,0,1-10.83-3.71A2.72,2.72,0,0,1,63.82,128.18Z"/><polygon class="cls-6" points="82.47 134.19 85.27 124.18 84.76 124.04 82.09 133.58 74.06 132.18 73.97 132.71 82.47 134.19"/><path class="cls-14" d="M73,157.36S72.82,159,76,159.94c.66.2.45.39.57.67H72.9L71.45,159l-.45.39-1-1s.48-1.49,1.28-1.5C71.9,157.06,73,157.36,73,157.36Z"/><polygon class="cls-22" points="165.9 132.46 164.83 134.84 163.09 133.27 164.32 129.8 165.9 132.46"/><path class="cls-23" d="M166.51,132.61a1.27,1.27,0,0,0,.73-.07c1.06-1.2.69-4.71.69-4.71l-1.23-1.07-1.89.88-.49,1.94a3.14,3.14,0,0,0,.48,2.24h0A3.37,3.37,0,0,0,166.51,132.61Z"/><path class="cls-24" d="M168,128a5.35,5.35,0,0,1-3.3,1.14c-.46,0-.4-.08-.41.74a4,4,0,0,1-.51,1.69l-1.07-.3s-1.33-4.81,1.57-5.55A2.89,2.89,0,0,1,168,128Z"/><path class="cls-25" d="M165.54,156.22s-.63.34-.53.88.25,1.4.25,1.4h.38v-.64a.1.1,0,0,1,.15-.08l.73.53a1,1,0,0,0,.56.19H170s0-.94-1.73-1.2A6.17,6.17,0,0,1,165.54,156.22Z"/><path class="cls-23" d="M166.39,155.18l.38,1.09a1,1,0,0,0,.43.55,4,4,0,0,0,1.1.48c-.64.55-1.66,0-2.24-.4a1.42,1.42,0,0,1-.57-.83l-.23-.89Z"/><polygon class="cls-26" points="162.71 131.25 162.41 131.86 163.54 132.09 163.78 131.55 162.71 131.25"/><path class="cls-24" d="M162.45,131.74a4.63,4.63,0,0,0-3.24,1.34,5.1,5.1,0,0,0-.74,2.09,1.69,1.69,0,0,1-.78,1.11c-1.11.68-3.11,2.26-1.37,4,2.32,2.36,3.77.23,3.77.23l3.54-8.54Z"/><rect class="cls-7" x="170.57" y="134.86" width="3.26" height="0.86" transform="translate(-19.55 29.51) rotate(-9.27)"/><rect class="cls-27" x="170.12" y="135.41" width="0.86" height="0.3" transform="translate(276.86 -54.61) rotate(80.73)"/><path class="cls-24" d="M170.4,135.14c-.24,0-.42.12-.36.5s.26.4.5.37Z"/><polygon class="cls-28" points="173.74 134.6 174.45 134.77 174.5 135.08 173.88 135.45 173.74 134.6"/><polygon class="cls-24" points="174.45 134.77 174.77 134.87 174.5 135.08 174.45 134.77"/><rect class="cls-26" x="172.12" y="133.51" width="0.2" height="3.15" transform="translate(277.81 -56.64) rotate(80.74)"/><rect class="cls-26" x="172.19" y="133.92" width="0.2" height="3.15" transform="translate(278.27 -56.37) rotate(80.73)"/><path class="cls-24" d="M161.42,146.32s4.7-3.66,7.27-2.4-2.56,11.87-2.56,11.87a4.78,4.78,0,0,1-1.23-2.42,7.89,7.89,0,0,1,0-3.35l-2.49,4.51Z"/><path class="cls-23" d="M173,134.63c-.14-.37-.2-.46-.57-.31a1.5,1.5,0,0,0-.76.75l-.92,2h0a6.18,6.18,0,0,1,.66.78l.13-.15,1.05-.78c.37-.27.85-.63.9-1.09S173.14,135,173,134.63Z"/><path class="cls-23" d="M164.08,129a.53.53,0,0,1,.69.18.46.46,0,0,1,0,.67.54.54,0,0,1-.69-.18A.45.45,0,0,1,164.08,129Z"/><path class="cls-24" d="M152.28,154s-.07-.71-.61-.82l-1.4-.28-.14.35.59.25a.1.1,0,0,1,0,.17L150,154l-.67,2.36c-.13.46.34,1.27.34,1.27s.6.91,1.17.91h1a.46.46,0,0,0-.12-.49c-.37-.43-1.14-1.08-1-1.89A3,3,0,0,1,152.28,154Z"/><path class="cls-23" d="M152.92,155.13l-1.14-.06a.86.86,0,0,0-.68.2c-.29.33-.2,1.13-.24,1.71a1.92,1.92,0,0,1,.6-2.8,1.47,1.47,0,0,1,1-.22l.91.13Z"/><path class="cls-29" d="M161.38,139.44s1.65,4.9,3.82,5.19,6.78-7.28,6.78-7.28l-1.12-.54-5,3.94-2-4.17"/><path class="cls-30" d="M163.32,132.72l1.56,2a12.79,12.79,0,0,1,.78,4.4,3,3,0,0,1-.83,1.9,48.7,48.7,0,0,0-3.41,5.3l-4.18-1.83s2.51-8.68,3.72-10.27S163.32,132.72,163.32,132.72Z"/><path class="cls-24" d="M157.24,144.49a5.69,5.69,0,0,0-3.05,4c-.51,2.94,5.48,7.53,5.48,7.53s-1.14-2-7-2.16a7.63,7.63,0,0,0-.85,1.31c10.27,6.85,14.18,6.16,14.88,3.25s-5.26-12.15-5.26-12.15Z"/><polygon class="cls-22" points="345.26 181.04 345.46 183.63 347.99 183.73 346.97 179.74 345.26 181.04"/><path class="cls-23" d="M344.18,181.52a1.4,1.4,0,0,1-.78-.19c-.92-1.34.13-5,.13-5l1.48-.63,1.88,1.18.11,2.43a2,2,0,0,1-.84,1.68h0A3.89,3.89,0,0,1,344.18,181.52Z"/><path class="cls-24" d="M346.6,178.28c-.11-.4-.05-1.35-.47-1.28s-1.34.09-1.69.09c-.84,0-2.32-.32-2.32-1.59a1.62,1.62,0,0,1,2.21-1.36c.92.32,2.13,1,2.62.93.82-.17,1.63.31,1.62,1a7,7,0,0,1-.76,2.57,4,4,0,0,1-.84,1.09h0Z"/><path class="cls-23" d="M347.44,178.38a.61.61,0,0,0-.78.07c-.24.2-.29.5-.1.66a.64.64,0,0,0,.78-.07C347.58,178.84,347.63,178.54,347.44,178.38Z"/><path class="cls-23" d="M338.14,183a2.53,2.53,0,0,0-.92-1.06c-.64-.49-2.26-1.13-1.55-1.61.86.07,1.89,0,1.89,0a2.81,2.81,0,0,1,1.43,1.22l.76,1.57s-.35.78-.36.82L339,184A4.27,4.27,0,0,0,338.14,183Z"/><path class="cls-23" d="M338.1,182.6a.59.59,0,0,0,0-.13l.34.05c.35.22.72.43,1.08.64l-.38.47-2.63-.93s0-.36.55-.35A2.68,2.68,0,0,1,338.1,182.6Z"/><polygon class="cls-17" points="342.12 188.39 338.05 184.61 339.45 182.52 345.01 185.14 342.59 189.39 342.12 188.39"/><path class="cls-17" d="M346.63,182.09c5.79-1.2,4.78,18,4.78,18h-9.16s-.13-3.34-.47-7.58C341.5,188.9,343.51,184.85,346.63,182.09Z"/><path class="cls-24" d="M343.61,231.8a7.29,7.29,0,0,1-3,1.36c-.45.11-.94,0-.94.71h2.49l2.08-.36v.36h1.12s.32-1.84-.34-2.07Z"/><path class="cls-23" d="M343.74,230.48l-.13,1.32h0a1.26,1.26,0,0,0,1.37,0l.08,0,.23-1.32Z"/><path class="cls-23" d="M330.62,188.1a2.62,2.62,0,0,1-1.25-.67c-.62-.51-1.6-1.94-1.91-1.15.26.83.47,1.84.47,1.84a2.8,2.8,0,0,0,1.5,1.12l1.71.39s.67-.52.71-.53l-.15-.34A4,4,0,0,1,330.62,188.1Z"/><path class="cls-23" d="M330.18,188.16h-.13l.12.32.87.91c.14-.19.36-.46.37-.47l-1.5-2.36s-.35.05-.21.62A2.71,2.71,0,0,0,330.18,188.16Z"/><path class="cls-24" d="M352.43,230a7.22,7.22,0,0,1-3,1.36c-.46.12-1,0-1,.71H351l2.08-.36V232h1.12s.31-1.83-.34-2.07Z"/><path class="cls-23" d="M352.55,228.64l-.12,1.31h0a1.24,1.24,0,0,0,1.37.05l.08-.05.23-1.31Z"/><path class="cls-9" d="M351.41,200.07s-.73,3.88-.08,11.92a14.83,14.83,0,0,0,1,4.15c1.76,4.52,2,12.87,2,12.87h-2l-7.12-20.35Z"/><path class="cls-17" d="M348,188.42s-1.58,5.9-5.87,6.44S330.75,190,330.75,190l.78-1.55,7.46,2.09a2.54,2.54,0,0,0,2.9-1.23l2.24-4.14Z"/><path class="cls-9" d="M342.25,200.07l1.33,30.76h1.8s2-7.17,1.88-12.83a13,13,0,0,1,.92-5.23,48.11,48.11,0,0,0,3.23-12.7Z"/><polygon class="cls-11" points="326.48 185.14 332.97 190.02 340.38 184.22 334.33 179.74 326.48 185.14"/><path class="cls-17" d="M335.1,191.24a4.56,4.56,0,0,1,.39-1.71l-4-1.11-.78,1.55a38.1,38.1,0,0,0,4.53,2.9A5.67,5.67,0,0,1,335.1,191.24Z"/><path class="cls-21" d="M347.88,188.39c0,.06-1.61,5.83-5.78,6.36-3.89.49-10.18-4.05-11.15-4.77a1.19,1.19,0,0,1-.15.18c.93.7,6.65,4.86,10.68,4.86a4.63,4.63,0,0,0,.65,0c4.32-.55,6-6.47,6-6.53Z"/><path class="cls-23" d="M329.51,189.26l1.4.32a4.13,4.13,0,0,1,.51-1,4.44,4.44,0,0,1-.8-.53,2.6,2.6,0,0,1-1.24-.66,5.72,5.72,0,0,1,.15,1.53A2.64,2.64,0,0,1,329.51,189.26Z"/><path class="cls-23" d="M331.32,188.77l-1.41-2.21s-.35.05-.21.62a2.71,2.71,0,0,0,.48,1h-.13l.12.32.83.88A5.54,5.54,0,0,1,331.32,188.77Z"/><path class="cls-23" d="M337.69,181.77h-.05a1.93,1.93,0,0,1,.55.74,4.51,4.51,0,0,1,.47.4,3.07,3.07,0,0,1,.07-.42A4.65,4.65,0,0,1,337.69,181.77Z"/><path class="cls-23" d="M338,182a2.63,2.63,0,0,0-.86-.16c-.58,0-.55.35-.55.35l2.12.75a3,3,0,0,1,.07-.43A4,4,0,0,1,338,182Z"/><polygon class="cls-6" points="345.26 183.46 345.26 182.19 347.38 181.31 348.15 182.29 345.26 183.46"/></g></g></svg>