<svg xmlns="http://www.w3.org/2000/svg" viewBox="0 0 74.52 74.53"><defs><style>.cls-1{fill:#1dd3f8;}</style></defs><title>attribute_listing</title><g id="Layer_2" data-name="Layer 2"><g id="Layer_1-2" data-name="Layer 1"><path class="cls-1" d="M18.09,55.26h2.34v-.83c0-4.06,0-8.12,0-12.17a1.27,1.27,0,0,1,.5-1.17c1.64-1.13,2-2.68,2-4.64-.13-7.15-.05-14.32-.05-21.48,0-1.39-.35-1.74-1.72-1.74H19.2A9.64,9.64,0,1,1,8.52,2.48a9.71,9.71,0,0,1,10.69,8.34h2.3a3.59,3.59,0,0,1,3.73,3.74q0,10.59,0,21.19v.8l.21.16c.81-.86,1.6-1.75,2.45-2.57A1.79,1.79,0,0,1,29,33.68c2.33,0,4.65,0,7,0V19.17a9.66,9.66,0,0,1-7.14-4.89,9.27,9.27,0,0,1-1-6.6,9.62,9.62,0,0,1,19,1.24,9.69,9.69,0,0,1-8.34,10.25V33.61H49.28V14.86c0-2.6,1.44-4,4-4h2a9.64,9.64,0,0,1,19.2,1.63,9.62,9.62,0,0,1-19.15.81,22.61,22.61,0,0,0-2.73,0c-.72.09-1,.69-1,1.4,0,2.1,0,4.21,0,6.31V33.65h2.38v16.8h2.36V31.28h-2.3V29a18.88,18.88,0,0,1,3,0,2.25,2.25,0,0,1,1.76,2.46v19h2.4V30.49c0-2.61-1.44-4-4-4H54.14V24.1a35,35,0,0,1,4.35,0A5.9,5.9,0,0,1,63.7,30.2q0,12.4,0,24.79a16.87,16.87,0,0,1-.05,2.25,6,6,0,0,1-6,5.27c-3.28,0-6.56,0-9.84,0h-.84v2.41h3c2.72,0,4.14,1.4,4.14,4.1v1.65a3.61,3.61,0,0,1-3.85,3.86c-4.6,0-9.21,0-13.82,0h-12a3.64,3.64,0,0,1-4-4c0-.7,0-1.4,0-2.1A3.59,3.59,0,0,1,24,64.92c1.17,0,2.35,0,3.59,0V62.51h-.78c-3.23,0-6.46,0-9.69,0a6,6,0,0,1-6.3-6.27q0-13,0-25.91a6,6,0,0,1,6.29-6.28c1.07,0,2.15,0,3.27,0v2.4H17.09a3.61,3.61,0,0,0-3.87,3.84v26a3.59,3.59,0,0,0,3.66,3.82H41.67l.35,0V57.7H18.53c-2,0-2.9-.88-2.9-2.86V31.7c0-1.93.91-2.84,2.84-2.84h1.92v2.38h-2.3Zm12-11.95h-7.2V55.26h19.2c0-.77,0-1.49,0-2.21a2.42,2.42,0,0,1,2.53-2.56c1.78,0,3.56,0,5.34,0h1.69V36.1H30.07Zm14.46,9.61V60.1c4.52,0,9,0,13.47,0a3.39,3.39,0,0,0,3.24-3c.13-1.35,0-2.73,0-4.13ZM27.59,67.32c-1.2,0-2.35,0-3.5,0a1.18,1.18,0,0,0-1.25,1.29c0,.6,0,1.2,0,1.8,0,1.36.35,1.71,1.74,1.71H50a4.51,4.51,0,0,0,.52,0,1.17,1.17,0,0,0,1.2-1.19c0-.82,0-1.65,0-2.47a1.1,1.1,0,0,0-1.1-1.12c-1.22,0-2.44,0-3.64,0A2.64,2.64,0,0,1,44,69.72q-6.75,0-13.51,0A2.64,2.64,0,0,1,27.59,67.32Zm16.85-4.76H30.11v4.72H44.44ZM62.85,9.65a8.18,8.18,0,0,0,0,4.75H67a8.18,8.18,0,0,0,0-4.75ZM35.2,12h4.12a8.31,8.31,0,0,0,0-4.74H35.2A8.4,8.4,0,0,0,35.2,12ZM7.56,9.64a8.3,8.3,0,0,0,0,4.76h4.11a8.13,8.13,0,0,0,0-4.76ZM42,7.22V12c.51,0,1.13,0,1.75,0a.63.63,0,0,0,.45-.36,6.56,6.56,0,0,0,0-4,.63.63,0,0,0-.44-.37C43.1,7.19,42.48,7.22,42,7.22ZM14.31,9.62v4.81a14.82,14.82,0,0,0,1.62,0c.22,0,.56-.27.59-.46a12.08,12.08,0,0,0,.23-2.74c-.13-1.6-.2-1.59-1.78-1.59Zm55.3,4.81a14.66,14.66,0,0,0,1.61,0c.22,0,.57-.27.59-.46a12,12,0,0,0,.24-2.74c-.13-1.6-.2-1.59-1.78-1.59h-.66Zm-37-7.21a14.82,14.82,0,0,0-1.62,0,.84.84,0,0,0-.59.46,13.45,13.45,0,0,0-.21,2.82c.13,1.51.21,1.51,1.7,1.51h.72Zm27.65,7.21V9.62c-.52,0-1.12,0-1.72,0A.62.62,0,0,0,58,10a6.63,6.63,0,0,0,0,4.13.57.57,0,0,0,.42.31C59.07,14.45,59.69,14.43,60.21,14.43Zm-55.29,0V9.62c-.52,0-1.15,0-1.76,0a.64.64,0,0,0-.44.38,6.44,6.44,0,0,0,0,4,.69.69,0,0,0,.49.41C3.79,14.46,4.39,14.43,4.92,14.43ZM24.65,40.81h2.93V37.89ZM37.26,3.05,36.19,4.76h2.17ZM10.7,16.89H8.51l1.11,1.69Zm55.31,0H63.8l1.11,1.72ZM38.36,14.46H36.15l1.12,1.73ZM8.51,7.18h2.21L9.62,5.47Zm55.3,0H66l-1.1-1.7ZM34.23,3.23l-.13-.16L31.89,4.71C33.52,5,33.53,4.94,34.23,3.23ZM42.52,4.6,40.4,3.08C41,4.86,41,4.86,42.52,4.6ZM6.6,5.65l-.15-.18L4.36,7C5.85,7.27,5.85,7.27,6.6,5.65ZM15,16.93c-1.72-.21-2.1.08-2.35,1.71Zm44.62.13,2.11,1.51C61,16.56,61.5,16.78,59.66,17.06Zm10.5,0c-1.54-.32-1.94,0-2.18,1.59ZM40.28,16l.12.17,2.12-1.55C41,14.38,41,14.38,40.28,16Zm-6.18.17c-.5-1.81-.78-2-2.15-1.57Zm34-10.69c.48,1.78.78,2,2.15,1.57ZM6.46,18.58l.14-.18c-.8-1.73-.8-1.73-2.34-1.44ZM61.87,5.63l-.13-.16L59.51,7.14C61.5,7.27,61,7.49,61.87,5.63ZM14.87,7,12.76,5.48C13.55,7.51,13,7.26,14.87,7Z"/><path class="cls-1" d="M33.62,28.91v2.31H27.71V28.91Z"/><path class="cls-1" d="M33.62,24.1v2.31H27.71V24.1Z"/><path class="cls-1" d="M46.85,28.91v2.3H40.91v-2.3Z"/><path class="cls-1" d="M46.84,24.09V26.4H40.92V24.09Z"/><path class="cls-1" d="M25.28,48V45.72H49.22V48Z"/><path class="cls-1" d="M32.49,43.23V40.91H49.22v2.32Z"/><path class="cls-1" d="M27.59,52.87h-2.3V50.53h2.3Z"/><path class="cls-1" d="M30.08,52.86V50.54h2.33v2.32Z"/><path class="cls-1" d="M37.25,50.54v2.29H34.91V50.54Z"/><path class="cls-1" d="M49.23,57.69H46.94V55.35h2.29Z"/><path class="cls-1" d="M54.05,57.67H51.74V55.34h2.31Z"/><path class="cls-1" d="M56.55,55.33h2.31v2.34H56.55Z"/></g></g></svg>