<svg xmlns="http://www.w3.org/2000/svg" viewBox="0 0 84.31 84.3"><defs><style>.cls-1{fill:#1dd3f8;}</style></defs><title>conceptualizing</title><g id="Layer_2" data-name="Layer 2"><g id="Layer_1-2" data-name="Layer 1"><path class="cls-1" d="M49.72,0c.88.17,1.76.29,2.63.5C61.15,2.63,66.87,8,69.44,16.71a1.42,1.42,0,0,0,1,1.09q11.81,4.11,13.69,16.49a4.85,4.85,0,0,0,.16.63v3.29c-.39,1.62-.64,3.29-1.18,4.86a18.2,18.2,0,0,1-6.4,8.81l-.84-1.05c-.29-.37-.57-.73-.7-.91a55.2,55.2,0,0,0,3.86-4.8A16.74,16.74,0,0,0,68.73,20.24,2.15,2.15,0,0,1,67,18.39,19,19,0,0,0,55.5,4.47c-6.63-2.84-13-2.07-19,1.93a17.39,17.39,0,0,0-5.68,6.19,2.55,2.55,0,0,1-2.67,1.51A15.32,15.32,0,0,0,13.8,23.7,18.08,18.08,0,0,0,12.87,27a2.16,2.16,0,0,1-1.6,1.84A12.55,12.55,0,0,0,8.33,51.09l.64.43L7.56,53.89a13.26,13.26,0,0,1-4.28-3.68A15.34,15.34,0,0,1,9.53,26.52a1.29,1.29,0,0,0,.78-1A17.89,17.89,0,0,1,23.14,12a25.32,25.32,0,0,1,4.45-.7,1.34,1.34,0,0,0,1.12-.66A22.06,22.06,0,0,1,42.63.63C43.82.34,45.05.21,46.26,0Z"/><path class="cls-1" d="M46.45,38H49.1v2.8H46.36v2c0,1.84-.34,2.18-2.14,2.21l-.62,0-.12,1.35h-2.7L40.66,45h-1c-1.23,0-1.73-.5-1.76-1.75,0-.74,0-1.48,0-2.22a1.26,1.26,0,0,0-.13-.23h-2.6V38h2.61c.36-.75-.08-1-.55-1.19a11.21,11.21,0,1,1,16.14-9.73A10.91,10.91,0,0,1,47,36.82C46.37,37.16,46.36,37.15,46.45,38Zm-3-.05a3.4,3.4,0,0,0,.05-.68c-.2-1.49.45-2.24,1.87-2.79a8.33,8.33,0,1,0-5.9.28,1.6,1.6,0,0,1,1.22,1.71c0,.48,0,1,0,1.48Zm-2.7,2.91v1.3h2.7v-1.3Z"/><path class="cls-1" d="M78.57,84.3H56.3c0-.08-.1-.13-.1-.18,0-3.59-.13-7.19.12-10.77a9.51,9.51,0,0,1,9.08-8.62,24.93,24.93,0,0,1,5.73.25,9.2,9.2,0,0,1,7.38,8.25C78.78,76.88,78.57,80.56,78.57,84.3ZM59,81.48H75.78c0-2.58.1-5.13,0-7.66a6.63,6.63,0,0,0-5.57-6.16,23.77,23.77,0,0,0-4.92-.1,6.79,6.79,0,0,0-5.84,4.63C58.54,75.23,59.2,78.34,59,81.48Z"/><path class="cls-1" d="M28,84.29H5.59c0-.69,0-1.34,0-2,0-3.1-.1-6.22.18-9.29a9.51,9.51,0,0,1,9-8.28,24.5,24.5,0,0,1,5.81.26,9.59,9.59,0,0,1,7.52,9.48c.09,3.15,0,6.31,0,9.46A3.06,3.06,0,0,1,28,84.29Zm-2.85-2.8a1.73,1.73,0,0,0,.08-.33c0-2.2.08-4.39,0-6.58-.15-3.49-2-6-5.17-6.78a20.44,20.44,0,0,0-5.31-.24,6.76,6.76,0,0,0-6.25,6c-.15,1.83-.1,3.67-.13,5.5,0,.79,0,1.57,0,2.39Z"/><path class="cls-1" d="M30.92,84.29c0-3.42,0-6.79,0-10.16a8.16,8.16,0,0,1,.16-1.47,9.65,9.65,0,0,1,9-7.93,24.8,24.8,0,0,1,6,.36,9.45,9.45,0,0,1,7.18,9c.06,3.29,0,6.58,0,9.87a1.42,1.42,0,0,1-.06.28Zm2.86-2.82H50.5c0-2.63.18-5.22,0-7.78a6.2,6.2,0,0,0-4.83-5.8,19.7,19.7,0,0,0-5.38-.34,6.7,6.7,0,0,0-6.42,6.06C33.63,76.2,33.78,78.81,33.78,81.47Z"/><path class="cls-1" d="M16.83,49.22a7,7,0,1,1-7,7A7,7,0,0,1,16.83,49.22ZM16.88,52a4.18,4.18,0,0,0-4.24,4.13A4.21,4.21,0,1,0,16.88,52Z"/><path class="cls-1" d="M42.13,49.22a7,7,0,1,1-7,7A7.05,7.05,0,0,1,42.13,49.22Zm0,2.81a4.21,4.21,0,1,0,4.22,4.16A4.22,4.22,0,0,0,42.12,52Z"/><path class="cls-1" d="M74.44,56.19a7,7,0,1,1-7-7A7.07,7.07,0,0,1,74.44,56.19Zm-7-4.16a4.21,4.21,0,1,0,4.21,4.17A4.21,4.21,0,0,0,67.42,52Z"/><path class="cls-1" d="M43.49,11.28V14H40.78V11.28Z"/><path class="cls-1" d="M29.42,25.39v2.7h-2.7v-2.7Z"/><path class="cls-1" d="M57.54,28.11H54.87V25.38h2.67Z"/><path class="cls-1" d="M32.22,14.94l1.91,1.83-2,1.87L30.3,16.79Z"/><path class="cls-1" d="M52,18.59l-1.8-1.79,2-1.75,1.73,1.75Z"/><path class="cls-1" d="M42.1,19.77v2.69a4.37,4.37,0,0,0-4.22,4.2H35.24C34.84,23.17,38.24,19.72,42.1,19.77Z"/></g></g></svg>