<svg xmlns="http://www.w3.org/2000/svg" viewBox="0 0 82.29 78.63"><defs><style>.cls-1{fill:#1dd3f8;}</style></defs><title>customer_feedback</title><g id="Layer_2" data-name="Layer 2"><g id="Layer_1-2" data-name="Layer 1"><path class="cls-1" d="M82.29,12.11a1.86,1.86,0,0,1-1.71.8q-15.73,0-31.47,0c-.32,0-.74,0-.92-.15s-.73-.82-.69-1.2.57-.73.94-1c.13-.11.41,0,.63,0q15.81,0,31.63,0a1.62,1.62,0,0,1,1.59.83Z"/><path class="cls-1" d="M82.29,7.12a1.9,1.9,0,0,1-1.72.79q-15.69,0-31.39,0a3.62,3.62,0,0,1-.87-.08,1.1,1.1,0,0,1-.86-1.2A1.11,1.11,0,0,1,48.51,5.5a3.85,3.85,0,0,1,.48,0H80.7a1.6,1.6,0,0,1,1.59.84Z"/><path class="cls-1" d="M82.29,62.34a1.58,1.58,0,0,1-1.58.86q-15.85,0-31.71,0a3.77,3.77,0,0,1-.48,0,1.19,1.19,0,0,1-.14-2.34,4.29,4.29,0,0,1,.88,0q15.62,0,31.23,0a1.92,1.92,0,0,1,1.8.78Z"/><path class="cls-1" d="M82.29,39.8a1.94,1.94,0,0,1-1.81.78q-15.62,0-31.22,0a5.42,5.42,0,0,1-.57,0,1.26,1.26,0,0,1-1.26-1.2,1.22,1.22,0,0,1,1.33-1.2c1.2,0,2.41,0,3.61,0q14.09,0,28.18,0a1.66,1.66,0,0,1,1.74.86Z"/><path class="cls-1" d="M82.29,34.81a2,2,0,0,1-1.82.76H49.22a4.56,4.56,0,0,1-.64,0,1.22,1.22,0,0,1-1.14-1.22,1.2,1.2,0,0,1,1.2-1.16c.21,0,.43,0,.64,0H80.45a2.13,2.13,0,0,1,1.84.71Z"/><path class="cls-1" d="M82.29,67.34a1.58,1.58,0,0,1-1.58.86H49c-.22,0-.51.06-.63-.06-.35-.31-.86-.69-.88-1.07s.39-.86.74-1.15.67-.13,1-.13H80.48a2,2,0,0,1,1.81.76Z"/><path class="cls-1" d="M11.93,23.63A11.93,11.93,0,0,1,.09,12.88,11.86,11.86,0,0,1,8.69.14c.93-.26,1.57,0,1.78.69s-.15,1.32-1.12,1.62A9.56,9.56,0,1,0,15,2.6c-.28-.1-.57-.17-.84-.28A1.12,1.12,0,0,1,13.45.91,1.12,1.12,0,0,1,14.93.06a15.23,15.23,0,0,1,2.76,1.09,12,12,0,0,1-5.76,22.48Z"/><path class="cls-1" d="M12,55a12,12,0,0,1,3.36,23.46c-1,.29-1.64,0-1.9-.75s.2-1.24,1.21-1.55A9.56,9.56,0,1,0,8.88,76c.26.09.52.15.77.25a1.2,1.2,0,1,1-.72,2.29,11.77,11.77,0,0,1-4.35-2.16A12,12,0,0,1,12,55Z"/><path class="cls-1" d="M12.13,51.33A12,12,0,0,1,10,27.54a12,12,0,0,1,13.38,8.17c.18.59.14,1.14-.37,1.43a1.46,1.46,0,0,1-1.25.11A2.24,2.24,0,0,1,21,36.12,9.38,9.38,0,0,0,13.71,30,9.51,9.51,0,0,0,2.62,37.38a9.55,9.55,0,0,0,18.59,4.36c0-.15.07-.31.12-.46a1.21,1.21,0,0,1,1.44-1,1.19,1.19,0,0,1,.88,1.49,11,11,0,0,1-2,4.59A11.8,11.8,0,0,1,12.13,51.33Z"/><path class="cls-1" d="M30,11.7c0-1.56,0-3.12,0-4.67,0-1.17.37-1.55,1.53-1.55,3,0,6.05,0,9.08,0A2.43,2.43,0,0,0,42,4.93c.72-.57,1.34-1.24,2-1.86a1.22,1.22,0,1,1,1.64,1.76c-.9.87-1.85,1.7-2.73,2.6a1.6,1.6,0,0,0-.44,1c0,2.57,0,5.15,0,7.72,0,1.33-.39,1.71-1.73,1.71h-9c-1.28,0-1.65-.38-1.66-1.69Zm2.45,3.71H40v-5.2c-.26.22-.45.36-.61.52-.69.64-1.36,1.29-2.05,1.92-.85.78-1.4.77-2.19-.05-.58-.6-1.14-1.21-1.71-1.81l-.93-1Zm3.79-5.1L38.74,8H34.08Z"/><path class="cls-1" d="M36.26,33.15h4.66c1.08,0,1.49.43,1.49,1.53q0,4.66,0,9.33c0,1.12-.43,1.55-1.56,1.56H31.54c-1.09,0-1.51-.43-1.51-1.51,0-3.14,0-6.27,0-9.41,0-1.11.39-1.49,1.5-1.5ZM32.51,35.6v7.5H40V35.6Z"/><path class="cls-1" d="M30,67c0-1.55,0-3.11,0-4.66,0-1.11.4-1.53,1.48-1.53H40.9c1.08,0,1.51.44,1.51,1.53q0,4.69,0,9.41c0,1-.43,1.47-1.47,1.47q-4.72,0-9.47,0c-1,0-1.44-.41-1.44-1.47C30,70.13,30,68.55,30,67Zm2.45,3.77H40V63.25H32.47Z"/><path class="cls-1" d="M58.67,15.48c3.29,0,6.58,0,9.87,0a1.86,1.86,0,0,1,1.27.6A1.14,1.14,0,0,1,69,17.85a3.52,3.52,0,0,1-.8,0H48.65a1.22,1.22,0,0,1-1.21-1.24,1.18,1.18,0,0,1,1.27-1.16c2.36,0,4.71,0,7.07,0Z"/><path class="cls-1" d="M58.73,45.57H49.18c-.34,0-.8,0-1-.15s-.72-.83-.67-1.2.57-.72.94-1c.13-.1.41,0,.62,0H68.33a4.52,4.52,0,0,1,.64,0,1.18,1.18,0,0,1,.25,2.27,3.28,3.28,0,0,1-.94.12Z"/><path class="cls-1" d="M58.73,73.2H49.34a4.3,4.3,0,0,1-1-.06,1.17,1.17,0,0,1,0-2.29,2.8,2.8,0,0,1,.71-.06H68.33a3,3,0,0,1,.79.07,1.08,1.08,0,0,1,.85,1.2,1.07,1.07,0,0,1-.9,1.08,5,5,0,0,1-.95.06Z"/><path class="cls-1" d="M12,17.23a4.41,4.41,0,0,1-3.44-1.61,1.25,1.25,0,0,1,0-1.85,1.21,1.21,0,0,1,1.76.24,2,2,0,0,0,3.25,0,1.2,1.2,0,1,1,1.86,1.52A4.29,4.29,0,0,1,12,17.23Z"/><path class="cls-1" d="M12,68.86a4.24,4.24,0,0,1,3.46,1.63,1.24,1.24,0,0,1,0,1.74,1.21,1.21,0,0,1-1.72-.11c-1.4-1.2-2-1.19-3.46.06a1.2,1.2,0,0,1-1.77-1.61A4.27,4.27,0,0,1,12,68.86Z"/><path class="cls-1" d="M11.92,44.93c-.8,0-1.6,0-2.4,0s-1.37-.52-1.34-1.27.5-1.13,1.35-1.14q2.45,0,4.89,0c.84,0,1.33.45,1.35,1.16s-.5,1.23-1.36,1.25S12.75,44.93,11.92,44.93Z"/><path class="cls-1" d="M8.71,9.34c0,.26,0,.53,0,.8a1.12,1.12,0,0,1-1.13,1.13,1.1,1.1,0,0,1-1.22-1,8,8,0,0,1,0-1.76A1.13,1.13,0,0,1,7.59,7.41,1.14,1.14,0,0,1,8.71,8.62c0,.24,0,.48,0,.72Z"/><path class="cls-1" d="M8.72,37.06c0,.24,0,.48,0,.72a1.19,1.19,0,0,1-2.38.07,8.55,8.55,0,0,1,0-1.6,1.15,1.15,0,0,1,1.28-1.14,1.14,1.14,0,0,1,1.1,1.23C8.73,36.58,8.72,36.82,8.72,37.06Z"/><path class="cls-1" d="M8.71,64.71c0,.24,0,.49,0,.72a1.17,1.17,0,0,1-1.16,1.19,1.19,1.19,0,0,1-1.22-1.14,10.68,10.68,0,0,1,0-1.6A1.2,1.2,0,1,1,8.72,64c0,.24,0,.48,0,.72Z"/><path class="cls-1" d="M17.63,64.72a5.79,5.79,0,0,1-.06.91,1.17,1.17,0,0,1-2.33-.11,11.77,11.77,0,0,1,0-1.68,1.08,1.08,0,0,1,1.15-1.09,1.1,1.1,0,0,1,1.2,1A8.79,8.79,0,0,1,17.63,64.72Z"/><path class="cls-1" d="M15.2,9.32a6.11,6.11,0,0,1,.06-1,1.07,1.07,0,0,1,1.11-.95,1.05,1.05,0,0,1,1.19.95,9.38,9.38,0,0,1,0,1.91,1.07,1.07,0,0,1-1.16,1,1.11,1.11,0,0,1-1.17-1.07,6.46,6.46,0,0,1,0-.88Z"/><path class="cls-1" d="M15.24,37a8.61,8.61,0,0,1,0-.88,1.09,1.09,0,0,1,1.13-1,1,1,0,0,1,1.18.94,8.8,8.8,0,0,1,0,1.92,1.08,1.08,0,0,1-1.16,1,1.11,1.11,0,0,1-1.17-1.07,6.46,6.46,0,0,1,0-.88Z"/></g></g></svg>