<svg xmlns="http://www.w3.org/2000/svg" viewBox="0 0 62.27 62.27"><defs><style>.cls-1{fill:#1dd3f8;}</style></defs><title>data_visualization</title><g id="Layer_2" data-name="Layer 2"><g id="Layer_1-2" data-name="Layer 1"><path class="cls-1" d="M31.14,62.27H3.46C1.16,62.27,0,61.1,0,58.78V3.49C0,1.15,1.16,0,3.52,0H58.75c2.39,0,3.52,1.14,3.52,3.55V58.78c0,2.34-1.16,3.49-3.52,3.49ZM60.26,8.08H2V58.69c0,1.32.25,1.57,1.57,1.57h55.1c1.33,0,1.58-.25,1.58-1.56V8.08ZM2,6h58.2a.9.9,0,0,0,0-.16c0-.75,0-1.5,0-2.26C60.26,2.25,60,2,58.69,2H3A1,1,0,0,0,2,3C2,4,2,5,2,6Z"/><path class="cls-1" d="M32.53,19.42l-4.28-2.33a4,4,0,0,1-3.07,1.47,13.49,13.49,0,0,1-1.83-.37.93.93,0,0,0-.64.1c-1,.82-1.89,1.7-2.87,2.53-.32.27-.17.48-.06.75a4,4,0,1,1-7.71,1.32,13.62,13.62,0,0,1,.33-1.67c-1.05-.62-2.17-1.25-3.26-1.94a2.19,2.19,0,0,0-1.88-.39A2.85,2.85,0,0,1,4.19,17.2a3,3,0,1,1,5.67-.72c0,.25-.13.49-.21.78,1.33.78,2.65,1.57,4,2.34a.63.63,0,0,0,.5,0,4.13,4.13,0,0,1,3.69-.1.71.71,0,0,0,.59-.06c1.06-.92,2.09-1.86,3.17-2.83a4.24,4.24,0,0,1-.4-2.9,4,4,0,0,1,7.9,1,.89.89,0,0,0,.58.94c1.28.66,2.53,1.38,3.81,2a.94.94,0,0,0,.73.06,4,4,0,0,1,5.53,1.72l.14.2c.69-.34,1.39-.67,2-1a.77.77,0,0,0,.24-.56,8,8,0,1,1,2.38,5.8,12.52,12.52,0,0,1-1.74-2.65,4.66,4.66,0,0,1-.28-.62c-.75.37-1.48.72-2.19,1.1a.79.79,0,0,0-.27.46,4,4,0,1,1-7.65-2.35C32.45,19.65,32.48,19.56,32.53,19.42ZM49.21,12.2a5.8,5.8,0,0,0-4.68,3.92,5.9,5.9,0,0,0,.78,5.45c1.3-1.29,2.52-2.52,3.73-3.75a.77.77,0,0,0,.17-.44C49.22,15.67,49.21,14,49.21,12.2ZM46.73,23a6,6,0,0,0,6.19.45,5.89,5.89,0,0,0,3.24-4.37H50.92a.75.75,0,0,0-.48.21C49.22,20.5,48,21.71,46.73,23Zm4.51-6H56.1c-.27-2.4-2.81-4.88-4.86-4.79Zm-15.1,6.19a2,2,0,1,0-2-2A2,2,0,0,0,36.14,23.22Zm-13-8.66a2,2,0,1,0,2-2A2,2,0,0,0,23.09,14.56Zm-7,6.53a2,2,0,0,0-2,1.95,2,2,0,1,0,4,.06A2,2,0,0,0,16.1,21.09ZM6.9,15a1,1,0,0,0-1,1,1,1,0,0,0,1,.95,1,1,0,0,0,1-1A1,1,0,0,0,6.9,15Z"/><path class="cls-1" d="M22.55,58.25h-9a3.47,3.47,0,0,1-.56,0,1,1,0,0,1,0-2c.21,0,.42,0,.63,0H31.06A1.53,1.53,0,0,0,32.64,55c.38-1.52.73-3,1.16-4.55A3.57,3.57,0,0,1,34.61,49q8.85-8.9,17.74-17.76c1.61-1.61,3.26-1.61,4.87,0,.4.4.81.79,1.19,1.21a3,3,0,0,1,0,4.05c-.15.18-.32.34-.48.5q-8.87,8.85-17.72,17.7a3.49,3.49,0,0,1-1.32.76c-1.2.35-2.42.65-3.65.91a3,3,0,0,0-1.9,1.08,2.18,2.18,0,0,1-2,.83C28.45,58.23,25.5,58.25,22.55,58.25ZM39.8,52.1,52.44,39.46,49.8,36.81,37.15,49.45ZM53.33,33l3,3a2.78,2.78,0,0,1,.33-.51c.72-.74.73-1.2,0-1.92l-1.06-1.06a1.05,1.05,0,0,0-1.69,0A6.8,6.8,0,0,1,53.33,33ZM35.7,51l-.84,3.36,3.36-.84ZM52,34.6l-.65.48,2.72,2.73.66-.47Z"/><path class="cls-1" d="M18.08,35.15H5.4C4.33,35.15,4,34.84,4,33.77s0-2.3,0-3.45c0-.82.37-1.19,1.19-1.19H30.94c.82,0,1.19.37,1.2,1.19,0,1.17,0,2.34,0,3.51,0,1-.34,1.32-1.32,1.32Zm12-2V31.18h-24v1.93Z"/><path class="cls-1" d="M17.07,38.17H5.53a3.3,3.3,0,0,1-.63,0,1,1,0,0,1,0-2,3.47,3.47,0,0,1,.56,0H28.68a3.6,3.6,0,0,1,.57,0,1,1,0,0,1,0,2,3.3,3.3,0,0,1-.63,0Z"/><path class="cls-1" d="M15.13,39.17h9.54a2.6,2.6,0,0,1,.56,0,1,1,0,0,1,0,2,2.6,2.6,0,0,1-.56,0H5.46a2.6,2.6,0,0,1-.56,0,1,1,0,0,1,0-2,2.6,2.6,0,0,1,.56,0Z"/><path class="cls-1" d="M4,54.23c0-.94,0-1.88,0-2.82s.37-1.19,1.19-1.19H9.85c.82,0,1.19.37,1.2,1.19v5.65c0,.82-.38,1.19-1.2,1.19H5.21c-.82,0-1.18-.37-1.19-1.19S4,55.18,4,54.23Zm5-2H6.07v3.94H9Z"/><path class="cls-1" d="M11.05,44.19H5.27c-.79,0-1.25-.38-1.25-1s.46-1,1.25-1H16.82c.79,0,1.25.38,1.25,1s-.46,1-1.25,1Z"/><path class="cls-1" d="M17.14,53.23H20.9c.74,0,1.19.4,1.19,1s-.45,1-1.19,1H13.24c-.74,0-1.18-.4-1.18-1s.44-1,1.19-1Z"/><path class="cls-1" d="M14.11,50.22c.31,0,.63,0,.94,0a1,1,0,0,1,0,2q-1,0-2,0a1,1,0,1,1,0-2Z"/><path class="cls-1" d="M20.62,44.19c-1.05,0-1.51-.29-1.53-1s.47-1,1.53-1H21a1,1,0,1,1,0,2Z"/><path class="cls-1" d="M5,5A1,1,0,0,1,4,4,1,1,0,0,1,6,4,1,1,0,0,1,5,5Z"/><path class="cls-1" d="M9,4.05A1,1,0,1,1,7,4a1,1,0,1,1,2,.06Z"/><path class="cls-1" d="M11.06,3a1,1,0,0,1,1,1,1,1,0,0,1-1,1,1,1,0,0,1-1-1A1,1,0,0,1,11.06,3Z"/><path class="cls-1" d="M40.77,49.68a1,1,0,0,1-1.11-1.35,1.49,1.49,0,0,1,.36-.5l6.07-6.09a2.18,2.18,0,0,1,.28-.25,1,1,0,0,1,1.31.11,1,1,0,0,1,.1,1.27,1.62,1.62,0,0,1-.25.28q-3,3-6.08,6.07A3.37,3.37,0,0,1,40.77,49.68Z"/><path class="cls-1" d="M49.74,38.44A1,1,0,0,1,50.63,40a4.56,4.56,0,0,1-1,1,.87.87,0,0,1-1.2-.1.86.86,0,0,1-.19-1.18C48.64,39.15,49.05,38.55,49.74,38.44Z"/></g></g></svg>