<svg xmlns="http://www.w3.org/2000/svg" viewBox="0 0 81.26 78.69"><defs><style>.cls-1{fill:#1dd3f8;}</style></defs><title>exploring_ideas</title><g id="Layer_2" data-name="Layer 2"><g id="Layer_1-2" data-name="Layer 1"><path class="cls-1" d="M0,55.05a6.21,6.21,0,0,1,3-4c-1.37-1.88-1.43-4-1.39-6.12,0-1.61,0-3.22,0-4.83a4.82,4.82,0,0,1,5.11-5c1.72,0,3.44,0,5.16,0A4.76,4.76,0,0,1,16.85,40c0,2.27,0,4.55,0,6.82a7.33,7.33,0,0,1-1.07,3.88c.9,1.06,1.77,2,2.56,3,1.53,2,3,4,4.53,6a1.21,1.21,0,0,0,1.12.56c1.32,0,2.64,0,4.08,0a22.39,22.39,0,0,0,0-3c-.51-3.76,1.58-5.82,4.63-7.28l.6-.3c-.85-3.46-.45-6.93-.41-10.37a4.59,4.59,0,0,1,4.64-4.24c3-.05,6.08,0,9.12,0,.93,0,1.39.44,1.4,1.36,0,3.49,0,7,0,10.48a21.42,21.42,0,0,1-.38,2.58c.8.44,1.65.85,2.45,1.35,2.07,1.29,3.34,3,3.12,5.62-.1,1.2,0,2.42,0,3.76,1.57,0,3.09,0,4.61,0,.2,0,.41-.3.57-.5,1.56-2.07,3.1-4.15,4.69-6.2.73-.95,1.56-1.82,2.42-2.82-1-1.55-1.13-3.49-1.09-5.47,0-1.74,0-3.49,0-5.23a4.77,4.77,0,0,1,4.92-4.9c1.8,0,3.59,0,5.39,0a4.67,4.67,0,0,1,4.85,4.47,67.14,67.14,0,0,1,0,7.77,20.35,20.35,0,0,1-1,3.88,5.22,5.22,0,0,1,.45.33A5.44,5.44,0,0,1,81.24,56c0,2.62,0,5.24,0,7.85,0,.93-.45,1.45-1.21,1.43s-1.16-.52-1.16-1.4c0-2.57,0-5.13,0-7.7a3.07,3.07,0,0,0-1.85-3,1.16,1.16,0,0,0-.93,0,7.59,7.59,0,0,1-8.33-.1,1.11,1.11,0,0,0-.92-.08A3.43,3.43,0,0,0,65.7,54c-2,2.56-3.92,5.12-5.83,7.72a2.19,2.19,0,0,1-2,1c-2.51,0-5,0-7.53,0a2.13,2.13,0,0,0-2,1.47,2.08,2.08,0,0,0,.75,2.4,2.7,2.7,0,0,0,1.39.45c3.26,0,6.51,0,9.76,0a2.53,2.53,0,0,0,2.09-1.24L67,59.56a1.33,1.33,0,0,1,.14-.19c.56-.72,1.25-.89,1.83-.43A1.23,1.23,0,0,1,69,60.77c-1.12,1.5-2.29,3-3.37,4.51a2.69,2.69,0,0,0-.5,1.5c0,2.85,0,5.71,0,8.56v.91H78.87V71.42c0-.66,0-1.32,0-2a1.18,1.18,0,0,1,1.17-1.17,1.15,1.15,0,0,1,1.18,1.14c0,2.7,0,5.4,0,8.1a1.12,1.12,0,0,1-1.09,1.15,3.37,3.37,0,0,1-.55,0q-39,0-77.9,0A1.79,1.79,0,0,1,0,77.9V69c.42-.5.87-1,1.61-.66s.78.91.77,1.58c0,1.13,0,2.27,0,3.41v2.9H16.15v-.84c0-2.91,0-5.81,0-8.72a2.58,2.58,0,0,0-.46-1.36c-1.14-1.59-2.34-3.13-3.51-4.69a1,1,0,0,1,0-1.45,1.85,1.85,0,0,1,1.24-.42c.29,0,.62.38.83.66q2.49,3.24,4.92,6.51A2.42,2.42,0,0,0,21.22,67c3.14,0,6.29,0,9.43,0a3.09,3.09,0,0,0,1-.15A2.11,2.11,0,0,0,33,64.44a2.07,2.07,0,0,0-2.09-1.79c-2.57,0-5.13,0-7.69,0a2,2,0,0,1-1.81-.9c-1.92-2.59-3.87-5.15-5.82-7.72a4.49,4.49,0,0,0-.69-.75,1.25,1.25,0,0,0-1.64-.11,7.26,7.26,0,0,1-7.95.09,1.15,1.15,0,0,0-1.37,0,3.19,3.19,0,0,0-1.59,2.84c0,2.51,0,5,0,7.53,0,.68-.1,1.3-.83,1.54A1.27,1.27,0,0,1,0,64.41ZM18.57,76.24H62.68v-6.8H18.57ZM50.8,60.16c0-1.25-.09-2.52,0-3.77A3.38,3.38,0,0,0,49,53a15.42,15.42,0,0,0-2.25-1.16A.91.91,0,0,0,46,52a7.59,7.59,0,0,1-11,.13.89.89,0,0,0-.71-.21A37.07,37.07,0,0,0,31.14,54a1.74,1.74,0,0,0-.64,1.14c-.07,1.68,0,3.37,0,5.12a4.67,4.67,0,0,1,4.2,2A4.74,4.74,0,0,1,35,66.93H46.22C45,63.89,46.54,60.32,50.8,60.16Zm-15.6-17c0,1.32,0,2.56,0,3.8a5.2,5.2,0,0,0,9.9,2c.9-1.88.41-3.86.56-5.82Zm31.58-1.73a4,4,0,0,0,3-.87,1.18,1.18,0,0,1,2,.91c0,.48.09.95.18,1.42.51,2.69,2.13,3.8,4.78,3.24a.8.8,0,0,0,.52-.57c0-1.9.06-3.8,0-5.71a2.37,2.37,0,0,0-2.37-2.39c-1.9,0-3.81,0-5.71,0a2.38,2.38,0,0,0-2.36,2.39C66.76,40.37,66.78,40.87,66.78,41.45Zm-52.31,0c0-.5,0-1,0-1.44a2.41,2.41,0,0,0-2.55-2.53c-1.79,0-3.59,0-5.39,0A2.37,2.37,0,0,0,4,39.82C4,41.75,4,43.68,4,45.61a.68.68,0,0,0,.32.52c1.87.41,3.88.22,4.69-2.19a10.5,10.5,0,0,0,.45-2.16c.17-1.51,1-1.91,2.23-1.05A3.69,3.69,0,0,0,14.47,41.44Zm-10,7.2A5.14,5.14,0,0,0,9.32,52a5.08,5.08,0,0,0,4.91-3.78A27.57,27.57,0,0,0,14.55,44l-2.87-.47C10.38,47.64,8.92,48.68,4.45,48.64ZM66.78,44c0,1,0,2,0,3a5.21,5.21,0,0,0,9.82,2.2,5.29,5.29,0,0,0,.21-.61c-4,.47-6.37-1.34-7.24-5.08ZM45.61,37.47h-.86c-2.46,0-4.92-.07-7.37,0a2.38,2.38,0,0,0-2.06,3.21H45.61Z"/><path class="cls-1" d="M41.22,9.44H61.14A5.71,5.71,0,0,1,67,14.06a6.67,6.67,0,0,1,.1,1.34q0,5.48,0,11a5.62,5.62,0,0,1-4,5.72.65.65,0,0,0-.51.74c0,1.19,0,2.38,0,3.57,0,.65,0,1.3-.74,1.61s-1.19-.12-1.66-.59c-1.47-1.48-3-2.94-4.42-4.44a1.79,1.79,0,0,0-1.44-.62c-1.8,0-3.6,0-5.4,0-.91,0-1.47-.47-1.47-1.2S48.06,30,49,30c2.12,0,4.23,0,6.35,0a2.49,2.49,0,0,1,1.45.6c1,.86,1.85,1.82,2.77,2.73.17.18.37.34.7.64,0-1,0-1.8,0-2.61,0-1,.36-1.31,1.34-1.4a3.3,3.3,0,0,0,3.17-3.4q0-5.68,0-11.35a3.22,3.22,0,0,0-3.26-3.38c-6.66,0-13.32,0-20,0a1.43,1.43,0,0,0-.28.07v.8c0,2.43,0,4.86,0,7.3a7.29,7.29,0,0,1-7.56,7.77,2.43,2.43,0,0,0-.38,0A3,3,0,0,0,36.36,30c2.19,0,4.39,0,6.58,0,1,0,1.53.42,1.53,1.2s-.54,1.18-1.55,1.18H36.5a5.7,5.7,0,0,1-5.64-4,.68.68,0,0,0-.78-.56c-5.15,0-10.31,0-15.47,0a1.5,1.5,0,0,0-.93.44C12.1,29.76,10.56,31.32,9,32.88c-.46.46-.95.8-1.61.52s-.75-.88-.74-1.52c0-1.38,0-2.75,0-4.16l-.54-.15a7.22,7.22,0,0,1-5.47-7Q.6,13.91.66,7.29A7.21,7.21,0,0,1,8,0Q20.91,0,33.84,0a7.24,7.24,0,0,1,7.38,7.23C41.24,7.93,41.22,8.61,41.22,9.44ZM9.05,29.23l.19.09c1.06-1.07,2.14-2.13,3.17-3.23a2.21,2.21,0,0,1,1.75-.71q9.81,0,19.6,0a4.85,4.85,0,0,0,5.08-5q0-6.47,0-12.93a4.85,4.85,0,0,0-5.05-5.05q-12.85,0-25.71,0A4.85,4.85,0,0,0,3,7.44q0,6.47,0,12.93a4.83,4.83,0,0,0,4.68,5c.94.08,1.33.47,1.34,1.41S9.05,28.42,9.05,29.23Z"/><path class="cls-1" d="M20.91,15.07c-3.55,0-7.09,0-10.63,0a2,2,0,0,1-1.11-.29,1.12,1.12,0,0,1,.35-2,2.64,2.64,0,0,1,.93-.11H31.79c.83,0,1.38.54,1.35,1.24a1.21,1.21,0,0,1-1.36,1.13H20.91Z"/><path class="cls-1" d="M20.89,8.83H10.5a3.23,3.23,0,0,1-.94-.09,1.07,1.07,0,0,1-.81-1.21,1.09,1.09,0,0,1,1-1,5.63,5.63,0,0,1,.71,0H31.41c.21,0,.43,0,.64,0a1.08,1.08,0,0,1,1.07,1.07,1.1,1.1,0,0,1-.9,1.22,3.61,3.61,0,0,1-.87.06Z"/><path class="cls-1" d="M15.46,19c1.71,0,3.43,0,5.14,0,1,0,1.52.43,1.5,1.21s-.53,1.16-1.48,1.16H10.17c-.63,0-1.23-.19-1.34-.85a1.81,1.81,0,0,1,.39-1.25,1.46,1.46,0,0,1,1-.27C12,19,13.72,19,15.46,19Z"/></g></g></svg>