<svg xmlns="http://www.w3.org/2000/svg" viewBox="0 0 132.81 118.49"><defs><style>.cls-1{fill:#4cc2fc;}</style></defs><title>application_development_1</title><g id="Layer_2" data-name="Layer 2"><g id="Layer_1-2" data-name="Layer 1"><path class="cls-1" d="M127.57,28H5.17v80.64c0,3.52,1.12,4.65,4.62,4.65H122.91c3.52,0,4.66-1.13,4.66-4.62v-26a10.6,10.6,0,0,1,0-1.38,2.55,2.55,0,0,1,2.31-2.2,2.44,2.44,0,0,1,2.7,1.87,6.39,6.39,0,0,1,.16,1.64c0,8.8-.08,17.61,0,26.41a9.11,9.11,0,0,1-9.53,9.48q-56.91-.13-113.82,0C3.49,118.44,0,115,0,109V9.44C0,3.5,3.52,0,9.46,0H123.28c5.91,0,9.49,3.56,9.49,9.45q0,20.81,0,41.62c0,.33,0,.65,0,1a2.65,2.65,0,0,1-2.67,2.62,2.61,2.61,0,0,1-2.51-2.75c0-5.17,0-10.33,0-15.49Zm0-5.31c0-4.54,0-9,0-13.38,0-2.84-1.27-4.1-4.15-4.1H9.32c-2.9,0-4.13,1.22-4.15,4.11,0,4,0,8.11,0,12.17a10.37,10.37,0,0,0,.12,1.2Z"/><path class="cls-1" d="M99.78,74c-1.29-1.21-2.33-2.12-3.31-3.09C93,67.48,89.47,64,86,60.49A8.35,8.35,0,0,1,90.9,46.32a7.65,7.65,0,0,1,6.72,2.19c6.61,6.54,13.22,13.1,19.73,19.74,3.26,3.33,3.05,8.34-.35,11.8-4.56,4.63-9.18,9.19-13.77,13.79C101.5,95.56,99.79,97.31,98,99a8.36,8.36,0,1,1-11.83-11.8c4-4.07,8.06-8.09,12.11-12.12A12.93,12.93,0,0,1,99.78,74Zm-11.26,19a3.69,3.69,0,0,0,2.56,3.25c1.49.44,2.57-.25,3.56-1.25L112.73,77c2.32-2.32,2.31-3.76,0-6.06L95.82,54c-.62-.62-1.22-1.27-1.89-1.82A3,3,0,0,0,90.21,52a3,3,0,0,0-1.32,3.36,5.46,5.46,0,0,0,1.33,2c4.63,4.69,9.31,9.33,14,14,2.07,2.07,2.07,3.14,0,5.2-4.69,4.7-9.41,9.37-14.06,14.1A14.68,14.68,0,0,0,88.52,93.08Z"/><path class="cls-1" d="M33.06,73.77c4.77,4.75,9.23,9.15,13.62,13.61a8.32,8.32,0,0,1-1.23,12.86,8.17,8.17,0,0,1-10.21-.75Q25.19,89.62,15.31,79.55c-3.22-3.29-3-8.25.41-11.67,4.23-4.3,8.52-8.54,12.79-12.81,2-2,4.09-4.13,6.16-6.15,3.62-3.53,8.74-3.59,12.1-.16s3.17,8.49-.31,12q-6,6-12,12A10.9,10.9,0,0,1,33.06,73.77ZM40.94,51a18.38,18.38,0,0,0-2.82,1.85C32,58.9,25.91,65,19.81,71.1c-2.07,2.08-2.08,3.62,0,5.67l18.1,18.09A7.51,7.51,0,0,0,39.12,96a3.08,3.08,0,0,0,4.79-2.52,4.84,4.84,0,0,0-1.39-2.85c-4.63-4.76-9.36-9.42-14.05-14.11-1.93-1.94-1.94-3.11,0-5L42.32,57.57a8.5,8.5,0,0,0,1.1-1.23,2.66,2.66,0,0,0,.1-3.24A15.21,15.21,0,0,0,40.94,51Z"/><path class="cls-1" d="M79.42,56.43c-.46,2.1-1.07,4.93-1.71,7.76q-3.3,14.52-6.61,29.06c-1.29,5.66-6.23,8.65-11.25,6.8a8.34,8.34,0,0,1-5.23-9.81q4.08-18.18,8.27-36.33a8.39,8.39,0,0,1,9-6.55C76.19,47.85,79.42,51.41,79.42,56.43Zm-5.22-.31c0-2-1.17-3.37-2.73-3.56a3.2,3.2,0,0,0-3.58,2.72q-4.08,17.88-8.12,35.77c-.5,2.21.43,3.83,2.36,4.26s3.3-.72,3.8-2.89q3.45-15.06,6.88-30.12C73.31,60.11,73.8,57.91,74.2,56.12Z"/><path class="cls-1" d="M127.58,67.11A2.59,2.59,0,1,1,130,69.79,2.57,2.57,0,0,1,127.58,67.11Z"/><path class="cls-1" d="M81.74,16.58H61.28a6,6,0,0,1-1.64-.16,2.37,2.37,0,0,1-1.79-2.49,2.31,2.31,0,0,1,1.76-2.36,6.09,6.09,0,0,1,1.77-.19H102c2.41,0,3.65.89,3.67,2.59s-1.25,2.63-3.63,2.63Z"/><path class="cls-1" d="M45.82,16.58c-2.51,0-3.76-.89-3.73-2.65s1.24-2.57,3.67-2.57,3.79.93,3.75,2.65S48.22,16.58,45.82,16.58Z"/><path class="cls-1" d="M20.21,16.57c-2.47,0-3.75-.91-3.7-2.66s1.28-2.55,3.69-2.55c.32,0,.65,0,1,0a2.6,2.6,0,1,1,0,5.2C20.85,16.59,20.53,16.57,20.21,16.57Z"/><path class="cls-1" d="M33,16.56c-.41,0-.83,0-1.24,0a2.59,2.59,0,0,1,0-5.17,16.29,16.29,0,0,1,2.21,0,2.6,2.6,0,1,1,0,5.2c-.32,0-.65,0-1,0Z"/><path class="cls-1" d="M116.22,14.11a2.62,2.62,0,0,1-2.63,2.46,2.6,2.6,0,1,1,.13-5.19A2.6,2.6,0,0,1,116.22,14.11Z"/></g></g></svg>