<svg xmlns="http://www.w3.org/2000/svg" viewBox="0 0 240 234.09"><defs><style>.cls-1{fill:#4cc2fc;}.cls-2{fill:none;stroke:#4cc2fc;stroke-miterlimit:10;stroke-width:3px;}</style></defs><title>nlp_ai</title><g id="Layer_2" data-name="Layer 2"><g id="Layer_1-2" data-name="Layer 1"><path class="cls-1" d="M26.46,65.87A13.42,13.42,0,1,1,39.87,52.46,13.43,13.43,0,0,1,26.46,65.87Zm0-20.32a6.91,6.91,0,1,0,6.91,6.91A6.92,6.92,0,0,0,26.46,45.55Z"/><path class="cls-1" d="M226.59,106A13.42,13.42,0,1,1,240,92.54,13.43,13.43,0,0,1,226.59,106Zm0-20.33a6.91,6.91,0,1,0,6.91,6.91A6.92,6.92,0,0,0,226.59,85.63Z"/><path class="cls-1" d="M62.42,229.71A13.41,13.41,0,1,1,75.83,216.3,13.43,13.43,0,0,1,62.42,229.71Zm0-20.32a6.91,6.91,0,1,0,6.91,6.91A6.92,6.92,0,0,0,62.42,209.39Z"/><path class="cls-1" d="M208.6,182a10.35,10.35,0,1,1,10.34-10.34A10.36,10.36,0,0,1,208.6,182Zm0-15.4a5.06,5.06,0,1,0,5.05,5.06A5.07,5.07,0,0,0,208.6,166.55Z"/><path class="cls-1" d="M126.11,223.27a9.79,9.79,0,1,1,9.79-9.79A9.81,9.81,0,0,1,126.11,223.27Zm0-14.3a4.51,4.51,0,1,0,4.5,4.51A4.52,4.52,0,0,0,126.11,209Z"/><path class="cls-1" d="M13.41,119a13.41,13.41,0,1,1,13.41-13.41A13.42,13.42,0,0,1,13.41,119Zm0-20.32a6.91,6.91,0,1,0,6.91,6.91A6.92,6.92,0,0,0,13.41,98.64Z"/><path class="cls-1" d="M13.3,177.62a9.8,9.8,0,1,1,9.79-9.79A9.81,9.81,0,0,1,13.3,177.62Zm0-14.3a4.51,4.51,0,1,0,4.51,4.51A4.51,4.51,0,0,0,13.3,163.32Z"/><path class="cls-1" d="M161.23,234.09a13.42,13.42,0,1,1,13.41-13.42A13.43,13.43,0,0,1,161.23,234.09Zm0-20.33a6.91,6.91,0,1,0,6.9,6.91A6.92,6.92,0,0,0,161.23,213.76Z"/><rect class="cls-1" x="124.48" y="170.99" width="3.25" height="35.35"/><path class="cls-1" d="M155,212.49l-9.11-17a9.24,9.24,0,0,1-1.08-4.31V171h3.25v20.24a5.81,5.81,0,0,0,.7,2.77l9.1,16.95Z"/><rect class="cls-1" x="104.16" y="170.99" width="3.25" height="25.88"/><path class="cls-1" d="M71.74,211.94l-1.83-2.69,11.37-7.72a5.86,5.86,0,0,0,2.56-4.84V171h3.25v25.7a9.09,9.09,0,0,1-4,7.53Z"/><rect class="cls-1" x="35.07" y="124.25" width="25.6" height="3.25"/><path class="cls-1" d="M19,163.3l-2.45-2.14,11.78-13.48a9.08,9.08,0,0,1,6.85-3.11H60.67v3.25H35.14a5.84,5.84,0,0,0-4.4,2Z"/><rect class="cls-1" x="23.57" y="103.93" width="37.1" height="3.25"/><path class="cls-1" d="M60.67,86.86H49.13a9.11,9.11,0,0,1-8-4.67L30,62.12l2.84-1.58L44,80.61a5.85,5.85,0,0,0,5.11,3H60.67Z"/><rect class="cls-1" x="171.22" y="124.25" width="39.33" height="3.25"/><path class="cls-1" d="M203.36,165.69l-8.65-14.95a5.89,5.89,0,0,0-5.07-2.92H171.22v-3.25h18.42a9.13,9.13,0,0,1,7.88,4.54l8.65,14.95Z"/><path class="cls-1" d="M209,107.18H171.22v-3.25H209a5.85,5.85,0,0,0,3.86-1.46L217.88,98l2.15,2.45L215,104.92A9.08,9.08,0,0,1,209,107.18Z"/><rect class="cls-1" x="171.22" y="83.61" width="24.12" height="3.25"/><path class="cls-1" d="M125.92,20.68a10.34,10.34,0,1,1,10.34-10.34A10.35,10.35,0,0,1,125.92,20.68Zm0-15.4A5.06,5.06,0,1,0,131,10.34,5.07,5.07,0,0,0,125.92,5.28Z"/><path class="cls-1" d="M85.6,34.18a9.79,9.79,0,1,1,9.79-9.79A9.81,9.81,0,0,1,85.6,34.18Zm0-14.3a4.51,4.51,0,1,0,4.5,4.51A4.51,4.51,0,0,0,85.6,19.88Z"/><path class="cls-1" d="M172.44,33.1a13.41,13.41,0,1,1,13.41-13.41A13.43,13.43,0,0,1,172.44,33.1Zm0-20.32a6.91,6.91,0,1,0,6.91,6.91A6.92,6.92,0,0,0,172.44,12.78Z"/><rect class="cls-1" x="124.28" y="18.17" width="3.66" height="42.27"/><path class="cls-1" d="M148.26,60.44H144.6v-24a9.34,9.34,0,0,1,5.49-8.48l12.41-5.58,1.5,3.33-12.41,5.59a5.66,5.66,0,0,0-3.33,5.15Z"/><rect class="cls-1" x="103.96" y="43.37" width="3.66" height="17.07"/><rect class="cls-1" x="83.64" y="31.58" width="3.66" height="28.86"/><path class="cls-1" d="M105.92,45.23A6.22,6.22,0,1,1,112.13,39,6.22,6.22,0,0,1,105.92,45.23Zm0-8.36A2.15,2.15,0,1,0,108.07,39,2.15,2.15,0,0,0,105.92,36.87Z"/><path class="cls-1" d="M30.88,132.09a6.22,6.22,0,1,1,6.22-6.22A6.22,6.22,0,0,1,30.88,132.09Zm0-8.37A2.15,2.15,0,1,0,33,125.87,2.16,2.16,0,0,0,30.88,123.72Z"/><path class="cls-1" d="M199.52,91.45a6.22,6.22,0,1,1,6.22-6.22A6.22,6.22,0,0,1,199.52,91.45Zm0-8.37a2.15,2.15,0,1,0,2.16,2.15A2.15,2.15,0,0,0,199.52,83.08Z"/><path class="cls-1" d="M105.78,207.26a6.22,6.22,0,1,1,6.22-6.21A6.22,6.22,0,0,1,105.78,207.26Zm0-8.37a2.16,2.16,0,1,0,2.16,2.16A2.16,2.16,0,0,0,105.78,198.89Z"/><path class="cls-1" d="M214.73,132.09a6.22,6.22,0,1,1,6.22-6.22A6.22,6.22,0,0,1,214.73,132.09Zm0-8.37a2.15,2.15,0,1,0,2.16,2.15A2.16,2.16,0,0,0,214.73,123.72Z"/><path class="cls-2" d="M152.77,60.44H79.13A18.56,18.56,0,0,0,60.57,79v73.64a18.56,18.56,0,0,0,18.56,18.56h73.63a18.56,18.56,0,0,0,18.56-18.56V79A18.56,18.56,0,0,0,152.77,60.44ZM159.18,151a8.07,8.07,0,0,1-8.06,8.06H80.77A8.07,8.07,0,0,1,72.71,151V80.64a8.07,8.07,0,0,1,8.06-8.07h70.35a8.07,8.07,0,0,1,8.06,8.07Z"/><path class="cls-1" d="M125.25,135.32a.44.44,0,0,0,.32-.13.4.4,0,0,0,.13-.2l-.08-.35L112,97.35v0a1.3,1.3,0,0,0-.47-.71,1.57,1.57,0,0,0-1-.29H102a1.54,1.54,0,0,0-1,.29,1.3,1.3,0,0,0-.47.71l0,.09L86.82,134.67a1.33,1.33,0,0,0,0,.26s0,.12.14.26a.34.34,0,0,0,.26.13h7.14c.78,0,1-.33,1.15-.69l2.4-6.45h16.66l2.47,6.45a1,1,0,0,0,1.09.69ZM99.68,121.46l6.57-18.65,6.57,18.65Z"/><path class="cls-1" d="M140.36,96.3h-7.79a.63.63,0,0,0-.45.19.52.52,0,0,0-.17.44V134.7a.57.57,0,0,0,.19.43.6.6,0,0,0,.43.19h7.79a.68.68,0,0,0,.51-.18.53.53,0,0,0,.17-.44V96.93a.52.52,0,0,0-.17-.44A.69.69,0,0,0,140.36,96.3Z"/></g></g></svg>