<svg xmlns="http://www.w3.org/2000/svg" viewBox="0 0 140.58 140.56"><defs><style>.cls-1{fill:#4cc2fc;}</style></defs><title>nosql</title><g id="Layer_2" data-name="Layer 2"><g id="Layer_1-2" data-name="Layer 1"><path class="cls-1" d="M140.58,134.79c-.89,2.85-2.54,4.94-5.61,5.59a9.92,9.92,0,0,1-2,.17H92c-4.78,0-7.68-2.9-7.69-7.69,0-5.17,0-10.33,0-15.58a10.24,10.24,0,0,0-1.12-.12c-1.88,0-3.75,0-5.63,0a7,7,0,0,1-7.28-7.41q0-17.62,0-35.27V72.73H61v1.51C61,82,60.9,89.7,61,97.43a7.48,7.48,0,0,1-3.21,6.46c-3.5,2.61-7.57,3.85-11.75,4.66-12,2.34-23.93,2.3-35.69-1.26A30.74,30.74,0,0,1,3,103.67a6.7,6.7,0,0,1-3-6.11C.05,78.71,0,59.86,0,41a7.5,7.5,0,0,1,2.84-5.7,22.12,22.12,0,0,1,9.22-4.67,66.59,66.59,0,0,1,38.12.43A20.74,20.74,0,0,1,58,35.26a7.84,7.84,0,0,1,2.91,6.1c0,8.55,0,17.11,0,25.66,0,.22,0,.45,0,.79h9.3V31.22c0-5,2.86-7.8,7.85-7.82h6.19V8.65c0-5,1.15-6.75,5.73-8.65h16.74c3.2,1.09,5.3,3.08,5.65,6.61.22,2.19.87,2.74,3.08,2.74h17.25a10.11,10.11,0,0,1,1.91.13c3.2.56,4.94,2.67,5.88,5.61V36.51c-1.4,4.3-4.46,5.76-8.83,5.72-13.26-.12-26.52,0-39.79,0-4.7,0-7.6-2.94-7.62-7.64,0-2.09,0-4.18,0-6.45h-6C75.7,28.1,75,28.8,75,31.4V67.92c3,0,5.69,0,8.43,0,.26,0,.52,0,.93-.09V66.29c0-3.24,0-6.49,0-9.74a7.07,7.07,0,0,1,7.33-7.37q6.72,0,13.45,0a7,7,0,0,1,7.32,6.52c.3,2.38.83,2.84,3.28,2.84,5.76,0,11.52,0,17.29,0,3.8,0,6.14,1.73,7.35,5.35a1.52,1.52,0,0,0,.22.34V85.65c-1.16,3.52-3.41,5.71-7.27,5.72q-20.85,0-41.71,0a7,7,0,0,1-7.26-7.31c0-3.29,0-6.58,0-9.87V72.7H75v37.08c0,1.28.49,2.43,1.81,2.52,2.48.16,5,0,7.55,0,0-2.3,0-4.49,0-6.68a7,7,0,0,1,7-7.26c4.71-.11,9.42-.1,14.13,0a6.88,6.88,0,0,1,6.93,6.31c.35,2.65.82,3.05,3.54,3.06,5.71,0,11.43,0,17.14,0,3.78,0,6,1.68,7.26,5.28a1.41,1.41,0,0,0,.23.33Zm-28.17-97.3c6.82,0,13.63,0,20.44,0,2.26,0,3.05-.8,3.05-3.06q0-8.64,0-17.28c0-2.32-.79-3.1-3.16-3.1-5.89,0-11.79,0-17.69,0a6.9,6.9,0,0,1-7.22-6.57c-.24-2.12-1-2.78-3.09-2.78H92.26C89.76,4.68,89,5.43,89,8v26.2c0,2.59.73,3.31,3.37,3.31Zm-.06,49.21h20.44c2.32,0,3.11-.81,3.11-3.16,0-5.62,0-11.24,0-16.87,0-2.78-.67-3.44-3.51-3.44-5.8,0-11.61,0-17.41,0a6.88,6.88,0,0,1-7.15-6.5c-.24-2.22-.94-2.86-3.17-2.86H92.31c-2.52,0-3.29.75-3.29,3.26V83.45c0,2.49.78,3.25,3.31,3.25Zm.09,49.18H132.6c2.56,0,3.3-.73,3.3-3.23q0-8.5,0-17c0-2.44-.73-3.17-3.19-3.18-5.76,0-11.52,0-17.28,0-4.43,0-7.1-2.41-7.62-6.77-.23-1.94-1-2.61-3-2.62q-6.37,0-12.75,0c-2.26,0-3.06.82-3.07,3.06v26.61c0,2.35.79,3.13,3.13,3.14ZM4.7,48.55c0,3.69,0,7.57,0,11.46A2.74,2.74,0,0,0,6,62.67,24.46,24.46,0,0,0,10.62,65c11.7,3.75,23.59,3.76,35.49,1.22a44.65,44.65,0,0,0,8.27-3.15,3.27,3.27,0,0,0,1.93-3.46c-.14-3,0-5.95,0-8.92V48.53C39,55.77,22,55.75,4.7,48.55Zm51.57,19C48,71.67,39.33,72.58,30.51,72.59S12.93,71.67,4.7,67.52c0,3.84,0,7.53,0,11.22a2.76,2.76,0,0,0,1.43,2.75A33,33,0,0,0,12,84.22a68.43,68.43,0,0,0,34.43.65,39.1,39.1,0,0,0,8.08-3.21,3.43,3.43,0,0,0,1.64-2.43C56.37,75.4,56.27,71.55,56.27,67.51ZM4.7,86.62c0,3.53,0,7.18,0,10.84a2.77,2.77,0,0,0,1.41,2.76,32.47,32.47,0,0,0,5.81,2.69c11.16,3.25,22.46,3.23,33.79.94a25.17,25.17,0,0,0,8.79-3.32,3.41,3.41,0,0,0,1.82-3.26c-.12-2.93,0-5.86,0-8.78V86.6A71,71,0,0,1,4.7,86.62ZM30.41,49.19l.05.37c4.66-.61,9.34-1.06,14-1.86a22.68,22.68,0,0,0,10.07-4.08c2.33-1.78,2.41-3.51,0-5.16a21.76,21.76,0,0,0-6-3,60.71,60.71,0,0,0-35.76-.11A24.59,24.59,0,0,0,6,38.83c-1.89,1.29-1.84,2.87,0,4.3a19.22,19.22,0,0,0,4.55,2.71C16.9,48.46,23.61,49.13,30.41,49.19Z"/><path class="cls-1" d="M96,23.38A2.32,2.32,0,0,1,93.73,21a2.4,2.4,0,0,1,2.33-2.24,2.32,2.32,0,0,1,2.31,2.36A2.24,2.24,0,0,1,96,23.38Z"/><path class="cls-1" d="M98.37,30.42a2.26,2.26,0,0,1-2.31,2.34,2.34,2.34,0,0,1-2.33-2.35A2.38,2.38,0,0,1,96,28.12,2.29,2.29,0,0,1,98.37,30.42Z"/><path class="cls-1" d="M96.07,68a2.32,2.32,0,0,1,.06,4.63A2.32,2.32,0,1,1,96.07,68Z"/><path class="cls-1" d="M98.37,79.65A2.33,2.33,0,0,1,96,82a2.4,2.4,0,0,1-2.3-2.41A2.31,2.31,0,0,1,96,77.35,2.24,2.24,0,0,1,98.37,79.65Z"/><path class="cls-1" d="M98.37,128.9A2.32,2.32,0,0,1,96,131.18a2.4,2.4,0,0,1-2.25-2.32,2.35,2.35,0,0,1,2.36-2.33A2.26,2.26,0,0,1,98.37,128.9Z"/><path class="cls-1" d="M93.74,119.33a2.31,2.31,0,0,1,2.5-2.15,2.23,2.23,0,0,1,2.12,2.5,2.33,2.33,0,0,1-2.4,2.13A2.39,2.39,0,0,1,93.74,119.33Z"/><path class="cls-1" d="M11.74,56.25a2.28,2.28,0,0,1,2.31,2.35,2.35,2.35,0,0,1-2.25,2.31A2.43,2.43,0,0,1,9.39,58.6,2.35,2.35,0,0,1,11.74,56.25Z"/><path class="cls-1" d="M11.8,79.62a2.36,2.36,0,0,1-2.41-2.29A2.41,2.41,0,0,1,11.74,75a2.34,2.34,0,0,1,2.31,2.24A2.29,2.29,0,0,1,11.8,79.62Z"/><path class="cls-1" d="M14.05,96.05a2.27,2.27,0,0,1-2.36,2.3A2.31,2.31,0,0,1,9.4,96.1a2.39,2.39,0,0,1,2.31-2.4A2.35,2.35,0,0,1,14.05,96.05Z"/></g></g></svg>