<svg xmlns="http://www.w3.org/2000/svg" viewBox="0 0 222.35 250.58"><defs><style>.cls-1{fill:#4cc2fc;}</style></defs><title>product_management</title><g id="Layer_2" data-name="Layer 2"><g id="Layer_1-2" data-name="Layer 1"><path class="cls-1" d="M108.22,250.58c-.69-.21-1.37-.44-2.07-.63a20.14,20.14,0,0,1-14.43-24.48c.11-.47.25-.93.45-1.67L35.41,191l-1.81,1.64A20.06,20.06,0,0,1,.05,176.13a19.8,19.8,0,0,1,14.06-17.34c1.77-.53,2.24-1.26,2.23-3q-.09-30.45,0-60.92c0-1.67-.29-2.51-2.15-3.06A19.78,19.78,0,0,1,.06,74.51,20,20,0,0,1,33.68,58.06c1.33,1.27,2.17,1.29,3.69.4Q63.67,43.15,90.08,28c1.64-.94,2-1.72,1.56-3.58a20,20,0,1,1,39,0c-.43,1.88,0,2.65,1.59,3.57Q158.63,43.15,185,58.42c.63.36,1.27.7,2,1.11,3.73-3.79,8.05-6.34,13.43-6.8a20,20,0,0,1,8,39c-2,.61-2.42,1.46-2.42,3.38q.1,30.21,0,60.43c0,2,.55,2.73,2.45,3.36,7.82,2.6,12.57,8.15,13.7,16.26s-1.92,14.53-8.5,19.32c-1.6,1.15-3.26,1.55-5,.29-2.17-1.62-2-4.34.54-6.14a12.78,12.78,0,0,0-3.83-23.07A12.79,12.79,0,0,0,191,172a12.62,12.62,0,0,0,2.75,15.39c.67.59,1.46,1.05,2.14,1.63a3.51,3.51,0,0,1,.85,4.82,3.45,3.45,0,0,1-4.91,1.17c-1.72-1.07-3.25-2.43-5-3.8-.47.25-1.12.54-1.74.9q-26.46,15.27-52.93,30.52c-1.45.84-2,1.49-1.55,3.37,2.57,11.16-4.17,21.6-15.42,24.18a7.88,7.88,0,0,0-1.1.44Zm18.14-33.28a2.43,2.43,0,0,0,.61-.16q27.41-15.81,54.83-31.62c1.26-.72,1.33-1.42,1-2.74a20,20,0,0,1,13.9-24.1c1.65-.47,2-1.18,2-2.69q-.06-30.7,0-61.4c0-1.5-.29-2.22-1.95-2.7a19.79,19.79,0,0,1-13.95-23.61c.45-1.93,0-2.69-1.59-3.6Q154.58,49.43,128,34.06c-.54-.32-1.12-.56-1.71-.85a20.16,20.16,0,0,1-15.24,6.89c-6.11,0-11.12-2.62-15.25-6.94L41,64.77a5.67,5.67,0,0,1-.63.36c-1.43.56-1.24,1.53-.94,2.78A19.85,19.85,0,0,1,25.69,91.85c-1.73.5-2.08,1.23-2.08,2.85q.08,30.58,0,61.16c0,1.63.37,2.35,2.08,2.86a19.78,19.78,0,0,1,13.75,23.93c-.4,1.64,0,2.29,1.36,3q17,9.7,33.89,19.52l21.07,12.17C105.65,207.41,118.55,209,126.36,217.3ZM123.86,20a12.72,12.72,0,1,0-12.68,12.82A12.77,12.77,0,0,0,123.86,20ZM111.23,243.23a12.72,12.72,0,1,0-12.8-12.69A12.76,12.76,0,0,0,111.23,243.23ZM215,72.73A12.63,12.63,0,0,0,202.27,60a12.7,12.7,0,0,0-.12,25.39A12.6,12.6,0,0,0,215,72.73ZM19.68,85.35A12.68,12.68,0,1,0,7.35,72,12.6,12.6,0,0,0,19.68,85.35ZM7.34,177.9a12.6,12.6,0,0,0,12.74,12.68,12.68,12.68,0,1,0,0-25.36A12.59,12.59,0,0,0,7.34,177.9Z"/><path class="cls-1" d="M165.08,98.41c-4.25,2.45-8,4.53-11.66,6.81a3.31,3.31,0,0,0-1,2.44c-.08,6.77-.15,13.54,0,20.31a8.12,8.12,0,0,1-4.72,8.09c-3.38,1.79-6.62,3.85-10,5.71-4.44,2.47-8.52.11-8.57-5-.06-5.7,0-11.4,0-17.67-2.62,1.5-4.91,2.81-7.19,4.13s-5.54,2.21-6.68,4.23-.46,5.36-.47,8.12q0,23.24,0,46.48v3.26c1.13-.59,1.83-.93,2.51-1.32,15-8.63,29.9-17.3,44.89-25.86a5,5,0,0,0,2.91-5.08c-.15-4.48-.06-9,0-13.46,0-2.94,1.31-4.54,3.6-4.6s3.71,1.56,3.73,4.66c0,4.9,0,9.79,0,14.68a10.23,10.23,0,0,1-5.44,9.46q-25.17,14.57-50.38,29.07a10.47,10.47,0,0,1-11.14-.12L55.51,164a10.57,10.57,0,0,1-5.65-9.84q0-28.86,0-57.73a10.55,10.55,0,0,1,5.7-9.81q25-14.4,49.94-28.83a10.51,10.51,0,0,1,11.15-.08Q141.83,72.19,167,86.74a10.26,10.26,0,0,1,5.41,9.49c0,8.15,0,16.31,0,24.46,0,2.84-1.43,4.55-3.66,4.53s-3.65-1.75-3.66-4.59c0-6.45,0-12.89,0-19.33Zm-57.61,86.87V173.72c0-14.76,0-29.52,0-44.27a3.69,3.69,0,0,0-1.26-2.74Q82.75,113,59.21,99.54c-.54-.31-1.13-.54-1.85-.88-.07.68-.14,1.15-.14,1.62,0,17.86,0,35.72,0,53.57a4.27,4.27,0,0,0,2.5,4.07Q82.47,171,105.19,184.16C105.8,184.5,106.45,184.78,107.47,185.28Zm18-72.46-2.36-1.42c-14.44-8.36-29-16.6-43.27-25.18-3.35-2-5.85-2.42-9.08,0C67.78,88.39,64.39,90,60.87,92c16.51,9.52,32.57,18.82,48.69,28a4.15,4.15,0,0,0,3.41-.12C117.07,117.74,121.05,115.34,125.43,112.82ZM98.61,70.22c1,.62,1.71,1,2.41,1.45C115.45,80,130,88.27,144.25,96.85c3.38,2,5.92,2.36,9.08,0A81.77,81.77,0,0,1,161.41,92C145,82.49,129,73.24,113,64.11a4.43,4.43,0,0,0-3.62,0C105.79,65.92,102.4,68,98.61,70.22Zm-16,9.26c16.56,9.58,32.76,19,49,28.3a2.46,2.46,0,0,0,2,.29c2.57-1.36,5.06-2.87,7.62-4.36-.26-.3-.34-.46-.47-.53q-24.18-14-48.4-28a2.61,2.61,0,0,0-2.17,0C87.66,76.46,85.31,77.91,82.58,79.48ZM145,110c-2.88,1.66-5.41,3.09-7.89,4.59a1.6,1.6,0,0,0-.61,1.19c0,5.91,0,11.82,0,18.26,2.93-1.71,5.45-3.13,7.92-4.64a1.63,1.63,0,0,0,.59-1.21C145.06,122.25,145,116.34,145,110Z"/></g></g></svg>