<svg xmlns="http://www.w3.org/2000/svg" viewBox="0 0 204.3 183.61"><defs><style>.cls-1{fill:#4cc2fc;}</style></defs><title>rpa</title><g id="Layer_2" data-name="Layer 2"><g id="Layer_1-2" data-name="Layer 1"><path class="cls-1" d="M56.1,62.78A2.63,2.63,0,0,1,58,61.08a2.25,2.25,0,0,1,2.62,2.31c0,2.22,0,4.45,0,6.78h4.65V68.89c0-5-.06-9.92,0-14.88a11.32,11.32,0,0,1,9.5-11.17,15.08,15.08,0,0,1,2.69-.17q10.39,0,20.81,0h1.41c0-.41.07-.75.07-1.09,0-2.48,0-5,0-7.44a1.15,1.15,0,0,0-.92-1.31,9.06,9.06,0,0,1-6-9.47,9.19,9.19,0,1,1,12.49,9.41,1.38,1.38,0,0,0-1.06,1.62c0,2.72,0,5.44,0,8.28.54,0,1,0,1.39,0,7.11,0,14.23,0,21.35,0a11.34,11.34,0,0,1,11.42,8.81,14.56,14.56,0,0,1,.34,3.3c0,5.1,0,10.21,0,15.4h4.52c0-.36.06-.74.06-1.12,0-1.8,0-3.59,0-5.39a2.35,2.35,0,0,1,2.27-2.61,2.32,2.32,0,0,1,2.35,2.54q0,8.94,0,17.89a2.34,2.34,0,0,1-2.33,2.56,2.37,2.37,0,0,1-2.29-2.61c0-2.15,0-4.3,0-6.52h-4.59v1.15c0,4.81,0,9.63,0,14.45a11.49,11.49,0,0,1-12,11.93H77.24A11.45,11.45,0,0,1,65.32,90.59c0-4.81,0-9.63,0-14.44V74.92H60.68V79.4c0,.75,0,1.51,0,2.26A2.22,2.22,0,0,1,58.94,84a2.26,2.26,0,0,1-2.61-1.21c-.07-.12-.16-.23-.23-.35Zm46-15.53H77.38c-4.61,0-7.48,2.85-7.48,7.44V90.37c0,4.6,2.87,7.5,7.44,7.5h49.49c4.58,0,7.49-2.89,7.49-7.46q0-17.84,0-35.68c0-4.6-2.88-7.48-7.47-7.48Zm0-18.46a4.55,4.55,0,0,0,4.6-4.55,4.6,4.6,0,0,0-9.2,0A4.52,4.52,0,0,0,102.11,28.79Z"/><path class="cls-1" d="M79.13,65.62a9.19,9.19,0,1,1,18.37.11,9.19,9.19,0,0,1-18.37-.11Zm9.2-4.57a4.61,4.61,0,0,0-.06,9.21,4.61,4.61,0,1,0,.06-9.21Z"/><path class="cls-1" d="M106.73,65.66a9.19,9.19,0,1,1,18.38,0,9.19,9.19,0,0,1-18.38,0Zm4.58,0a4.61,4.61,0,1,0,4.55-4.65A4.64,4.64,0,0,0,111.31,65.7Z"/><path class="cls-1" d="M102.13,84.07c3.77,0,7.55,0,11.32,0A2.28,2.28,0,0,1,115.8,87a2.41,2.41,0,0,1-2.62,1.63h-17c-1.76,0-3.52,0-5.28,0a2.3,2.3,0,1,1,0-4.57C94.58,84.06,98.36,84.07,102.13,84.07Z"/><path class="cls-1" d="M0,141.28V17.59a3,3,0,0,0,.27-.54C3,5.75,10.17,0,21.72,0H183.11c12.56,0,21.18,8.61,21.18,21.17q0,58.24,0,116.5c0,12.5-8.7,21.15-21.22,21.15s-25.14,0-37.71,0h-2.13v16.71c.74,0,1.38.09,2,.09,3.86,0,7.71,0,11.57,0,2.78,0,4.5,1.58,4.52,4s-1.71,3.94-4.47,4H48.36c-.47,0-.93,0-1.4,0a4,4,0,0,1-.24-7.93c1.45-.11,2.92,0,4.38,0H61V158.82H58.48c-12.77,0-25.53,0-38.3,0A20.15,20.15,0,0,1,1,144.89C.63,143.7.34,142.48,0,141.28Zm196.31-22.46v-2.19q0-47.68,0-95.36C196.31,13,191.31,8,183,8H21.25C13,8,8,13,8,21.27v97.55ZM135.05,158.9c-.64,0-1-.07-1.43-.07-4.46,0-8.91,0-13.37,0a4,4,0,0,1-4.06-4.05,4.06,4.06,0,0,1,4-3.89c.66,0,1.33,0,2,0h61.45c6.35,0,11.52-3.86,12.31-10,.59-4.55.12-9.23.12-13.83H8v10.51c0,8.25,5,13.29,13.31,13.29H77.94c1.93,0,3.86,0,5.79,0,2.56.05,4.35,1.69,4.37,4s-1.78,3.95-4.3,4c-1.6,0-3.19,0-4.79,0h-9.7v16.66h65.74Z"/><path class="cls-1" d="M102.21,141.79c-1.6,0-3.2.07-4.79,0a3.78,3.78,0,0,1-3.74-3.66A3.66,3.66,0,0,1,97.11,134a91.74,91.74,0,0,1,10,0,3.69,3.69,0,0,1,3.56,4,3.8,3.8,0,0,1-3.83,3.79C105.27,141.86,103.74,141.79,102.21,141.79Z"/><path class="cls-1" d="M106.16,154.87a4,4,0,0,1-3.89,3.94,4,4,0,1,1-.11-7.95A3.94,3.94,0,0,1,106.16,154.87Z"/></g></g></svg>