<svg xmlns="http://www.w3.org/2000/svg" viewBox="0 0 142.82 133.59"><defs><style>.cls-1{fill:#4cc2fc;}</style></defs><title>sap</title><g id="Layer_2" data-name="Layer 2"><g id="Layer_1-2" data-name="Layer 1"><path class="cls-1" d="M131.29,112.86c3,0,5.83,0,8.65,0,2.06,0,2.86.81,2.87,2.88,0,3.22,0,6.43,0,9.64a8,8,0,0,1-8.21,8.19q-63.2,0-126.37,0a8,8,0,0,1-8.2-8.2c0-3.26,0-6.53,0-9.79,0-1.88.84-2.71,2.73-2.72,2.87,0,5.74,0,8.78,0V36.67c0-5.78,3.23-9,9-9h15A1.44,1.44,0,0,0,37,26.82a3.1,3.1,0,0,1,2-1.29c1.64-.3,3.34-.32,5-.46.69-.06,1.36.06,1.75-.86s-.06-1.32-.54-1.86Q43.63,20.46,42,18.54c-1.15-1.36-1.14-2.41.1-3.67q4.6-4.66,9.26-9.26c1.27-1.25,2.28-1.28,3.67-.14s2.7,2.3,4.06,3.44a1.61,1.61,0,0,0,2.63-1c.2-1.71.31-3.44.45-5.16C62.33.78,63.08,0,65,0h13c1.81,0,2.6.8,2.73,2.61s.17,3.36.39,5A2,2,0,0,0,82,9a1.9,1.9,0,0,0,1.6-.23c1.31-1,2.5-2.08,3.75-3.13,1.53-1.27,2.52-1.28,3.9.08q4.6,4.56,9.15,9.16c1.29,1.3,1.29,2.35.07,3.78s-2.24,2.5-3.25,3.84A1.9,1.9,0,0,0,97,24.06a1.89,1.89,0,0,0,1.29,1c1.66.24,3.36.21,5,.49a3.12,3.12,0,0,1,2.09,1.21c.46.91,1,.94,1.8.94h15c5.93,0,9.1,3.19,9.1,9.17v76Zm-108.21-7h96.6V39.23H105.82c0,.59,0,1.11,0,1.63,0,2.23-.65,2.92-2.86,3.11-1.57.14-3.16.17-4.73.39a1.94,1.94,0,0,0-1.3.94,1.88,1.88,0,0,0,.19,1.6c1,1.34,2.16,2.56,3.23,3.86s1.1,2.46-.11,3.69Q95.63,59.1,91,63.71a2.41,2.41,0,0,1-3.69.12c-1.31-1.12-2.58-2.3-3.94-3.36a1.7,1.7,0,0,0-1.45-.26A1.76,1.76,0,0,0,81,61.45c-.21,1.66-.27,3.34-.39,5-.13,1.83-.91,2.63-2.71,2.64-4.36,0-8.73,0-13.09,0-1.72,0-2.51-.8-2.66-2.53s-.22-3.45-.47-5.16a2,2,0,0,0-1-1.3,1.75,1.75,0,0,0-1.47.31c-1.4,1.1-2.69,2.31-4,3.45a2.37,2.37,0,0,1-3.58-.09q-4.71-4.65-9.36-9.37a2.32,2.32,0,0,1-.12-3.57c1.12-1.37,2.34-2.67,3.41-4.09a2,2,0,0,0,.25-1.6,1.68,1.68,0,0,0-1.26-.79c-1.66-.2-3.34-.24-5-.38-2.13-.19-2.77-.9-2.81-3,0-.56,0-1.12,0-1.69H23.08ZM89,10.24c-1.28,1.08-2.65,2.2-4,3.38a2.62,2.62,0,0,1-3.17.43,29.93,29.93,0,0,0-3.31-1.37,2.66,2.66,0,0,1-2-2.65c-.07-1.76-.26-3.52-.39-5.31H66.61c-.14,1.87-.29,3.63-.4,5.4a2.66,2.66,0,0,1-1.95,2.55A25.25,25.25,0,0,0,61.09,14a2.89,2.89,0,0,1-3.67-.44c-1.29-1.19-2.67-2.28-3.93-3.34L46.72,17c1.18,1.37,2.39,2.8,3.63,4.19a2.61,2.61,0,0,1,.45,3.17,28.43,28.43,0,0,0-1.3,3.19A2.58,2.58,0,0,1,47,29.45c-1.85.11-3.69.33-5.54.5v9.51c1.91.13,3.72.28,5.53.39a2.67,2.67,0,0,1,2.62,2,20.68,20.68,0,0,0,1.29,3,2.69,2.69,0,0,1-.46,3.29c-1.21,1.35-2.35,2.76-3.33,3.92l6.79,6.77c1.15-1,2.48-2.09,3.74-3.26a2.75,2.75,0,0,1,3.53-.51,12.94,12.94,0,0,0,2.77,1.17,3,3,0,0,1,2.33,3.17c0,1.66.26,3.31.39,4.9h9.53c.14-1.85.31-3.61.39-5.38a2.6,2.6,0,0,1,1.92-2.55,23.32,23.32,0,0,0,3.06-1.24A2.71,2.71,0,0,1,85,55.7C86.24,56.88,87.6,58,88.74,59l6.79-6.76c-1.06-1.24-2.18-2.6-3.35-3.94a2.55,2.55,0,0,1-.37-3,19.6,19.6,0,0,0,1.35-3.17,2.91,2.91,0,0,1,3.06-2.28c1.61-.07,3.23-.22,4.89-.34V29.94c-1.79-.16-3.5-.36-5.21-.45a2.66,2.66,0,0,1-2.61-2A24,24,0,0,0,92,24.25a2.68,2.68,0,0,1,.45-3.4c1.18-1.29,2.29-2.65,3.32-3.85Zm49.17,107.28H87c-.58,2.31-1.15,4.58-1.74,6.84-.47,1.82-1.09,2.32-2.91,2.32h-22c-1.74,0-2.37-.52-2.82-2.25-.6-2.3-1.18-4.61-1.75-6.85H4.62v6.72c0,3.61,1.08,4.69,4.74,4.69H133.53a13.84,13.84,0,0,0,1.44,0,3.34,3.34,0,0,0,3.19-3.14C138.25,123.1,138.18,120.37,138.18,117.52Zm-122-4.76h110.5a6.61,6.61,0,0,0,.05-.67q0-38,0-76c0-2.46-1.39-3.82-3.85-3.83-5.33,0-10.65,0-16,0a7.71,7.71,0,0,0-.95.12v2.17h15.17c2.65,0,3.31.67,3.31,3.32v69.38c0,2.64-.67,3.31-3.31,3.31H21.74c-2.64,0-3.3-.67-3.3-3.32V58q0-10.29,0-20.58c0-2.07.81-2.87,2.88-2.87h15.3v-2.3H20.71c-3.44,0-4.58,1.13-4.58,4.56v76Zm66.11,4.8H60.57L61.7,122H81.14C81.51,120.53,81.86,119.1,82.24,117.56Z"/><path class="cls-1" d="M85.22,34.63A13.81,13.81,0,1,1,71.49,20.74,13.83,13.83,0,0,1,85.22,34.63ZM71.4,43.77a9.22,9.22,0,1,0-9.2-9.26A9.24,9.24,0,0,0,71.4,43.77Z"/><path class="cls-1" d="M100.34,73.37q-13.94,0-27.88,0H50.65c-1.17,0-1.62.46-1.62,1.64V99.49c0,1,.22,1.2,1.22,1.2H68c1.21,0,6.4,0,7.45,0a2.19,2.19,0,0,0,1.74-.73q12-12.06,24.09-24.11a9.33,9.33,0,0,0,.73-.93v-.62A1.61,1.61,0,0,0,100.34,73.37ZM50.59,86.57l.55.58a8.6,8.6,0,0,0,3.3,2c.87.32,1.75.6,2.62.94.19.07.33.29.5.44a2,2,0,0,1-.63.37,5.59,5.59,0,0,1-3.5-.55c-.25-.12-.49-.26-.73-.38-.67-.33-1-.22-1.35.42-.23.42-.45.85-.67,1.28,0,0,0,0-.09,0ZM75.92,99a.73.73,0,0,1-.48.12H50.62V94.61c.68.26,1.31.55,2,.75a10.88,10.88,0,0,0,7.06,0,1,1,0,0,1,.53.08,4.45,4.45,0,0,0,.77.22c1.38,0,2.76,0,4.14,0,.68,0,.89-.16,1.1-.79.16-.46.31-.93.43-1.27h4.46c.12.35.26.77.4,1.2.24.73.41.86,1.19.86h5.9l.66,0C78.07,96.89,77,98,75.92,99Zm4.81-4.88V90.87l3.64-.39Zm1.77-5a12.18,12.18,0,0,1-1.35,0c-2.2,0-2,.09-2,2,0,.93,0,1.86,0,2.85l-.52,0c-1.76,0-3.52,0-5.28,0-.35,0-.52-.09-.61-.44a11.89,11.89,0,0,0-.41-1.28.78.78,0,0,0-1.08-.58,8.7,8.7,0,0,1-4.64,0c-.76-.21-1,0-1.28.71-.19.51-.24,1.22-.61,1.48s-1.06.08-1.61.08H61.87c0-.15.09-.26.07-.34a2.35,2.35,0,0,0-.29-.87c-.26-.29-.63-.19-.94,0a6.31,6.31,0,0,1-2.48,1.21,10.55,10.55,0,0,1-6.64-.88l.88-1.75a7.2,7.2,0,0,0,3.7.91,5,5,0,0,0,1.89-.4,1.73,1.73,0,0,0,.16-3.14,21.27,21.27,0,0,0-2.56-1.07c-.77-.31-1.55-.58-2.29-1a3.43,3.43,0,0,1-2-3.27,3.6,3.6,0,0,1,2-3.3,8.4,8.4,0,0,1,5.79-.62c.8.16,1.59.43,2.47.67l-1,1.76c-.69-.2-1.34-.42-2-.57a6.22,6.22,0,0,0-3.12,0A1.76,1.76,0,0,0,54.12,83,1.52,1.52,0,0,0,55,84.64c.89.48,1.84.86,2.76,1.26s1.77.68,2.61,1.1a3.09,3.09,0,0,1,1.71,2.16c.1.41.27.75.76.78s.72-.32.87-.73q1.68-4.47,3.35-8.94c.13-.36.29-.52.69-.5.79,0,1.59,0,2.38,0a.59.59,0,0,1,.66.47q2,5.36,3.93,10.71c0,.13.09.26.14.39a.76.76,0,0,0,.91.58c.47-.09.62-.42.62-.87V85c0-1.61,0-3.21,0-4.81,0-.1,0-.2,0-.3,1.82,0,3.61,0,5.39,0a10,10,0,0,1,2.1.28c2.24.54,3.32,2.06,3.25,4.49C87.05,87.33,85.42,88.92,82.5,89.17Zm6-3c0-.55.13-1.27.13-2a5.39,5.39,0,0,0-3.76-5.36,8.09,8.09,0,0,0-2.37-.5c-2.2-.1-4.41-.09-6.62-.12-.88,0-1.12.24-1.12,1.14v7.11a.73.73,0,0,1-.25-.39c-.86-2.32-1.71-4.65-2.57-7-.3-.8-.4-.88-1.29-.88H67c-.8,0-.93.09-1.21.84q-1.41,3.75-2.81,7.5c-.06.15-.13.3-.22.5a7.8,7.8,0,0,0-3.61-2.32c-.92-.34-1.84-.67-2.76-1a3.59,3.59,0,0,1-.69-.43l.05-.16c.31,0,.62-.13.94-.15a7.67,7.67,0,0,1,3.64.81c.71.33,1,.21,1.4-.47.51-.88,1-1.75,1.52-2.64.38-.7.25-1.06-.47-1.4A13.44,13.44,0,0,0,57.17,78a8.26,8.26,0,0,0-4.71,1.13,19.67,19.67,0,0,0-1.83,1.52V74.93H99.82Z"/><path class="cls-1" d="M83.17,82.06a5.91,5.91,0,0,0-3.42-.44c-.44,0-.62.39-.62.82v2c0,.67,0,1.34,0,2,0,.45.23.82.69.8A13.55,13.55,0,0,0,82.67,87a2.37,2.37,0,0,0,1.82-2.31A2.5,2.5,0,0,0,83.17,82.06Zm-.4,3c-.49.75-1.29.6-2.06.63V83.12c.73,0,1.5-.09,2,.58A1.12,1.12,0,0,1,82.77,85.06Z"/><path class="cls-1" d="M69.6,83.78a.77.77,0,0,0-1.45,0c-.58,1.67-1.11,3.36-1.63,5a.78.78,0,0,0,.65,1.08c.53.13,1.08.22,1.67.34.58-.12,1.21-.21,1.82-.36a.7.7,0,0,0,.56-.91C70.71,87.24,70.18,85.5,69.6,83.78Zm-1.37,4.81.59-1.86h.09l.59,1.87Z"/></g></g></svg>