<svg xmlns="http://www.w3.org/2000/svg" viewBox="0 0 292.72 311.4"><defs><style>.cls-1{fill:#4cc2fc;}</style></defs><title>ux</title><g id="Layer_2" data-name="Layer 2"><g id="Layer_1-2" data-name="Layer 1"><path class="cls-1" d="M229.08,311.4H74.85a16.63,16.63,0,0,1-16.62-16.6V143.23a3,3,0,0,1,3-3H131V89.46H61.23a3,3,0,0,1-3-3v-59a16.63,16.63,0,0,1,16.62-16.6H229.08a16.63,16.63,0,0,1,16.62,16.6V185a3,3,0,0,1-3,3H195.48v51.32H242.7a3,3,0,0,1,3,3V294.8A16.63,16.63,0,0,1,229.08,311.4ZM64.23,146.23V294.8a10.63,10.63,0,0,0,10.62,10.6H229.08a10.62,10.62,0,0,0,10.62-10.6V245.33H192.48a3,3,0,0,1-3-3V185a3,3,0,0,1,3-3H239.7V27.46a10.62,10.62,0,0,0-10.62-10.6H74.85a10.63,10.63,0,0,0-10.62,10.6v56H134a3,3,0,0,1,3,3v56.77a3,3,0,0,1-3,3Z"/><path class="cls-1" d="M242.7,58.76H61.23a3,3,0,0,1-3-3V27.46a16.63,16.63,0,0,1,16.62-16.6H229.08a16.63,16.63,0,0,1,16.62,16.6v28.3A3,3,0,0,1,242.7,58.76Zm-178.47-6H239.7V27.46a10.62,10.62,0,0,0-10.62-10.6H74.85a10.63,10.63,0,0,0-10.62,10.6Z"/><path class="cls-1" d="M229.08,311.4H74.85a16.63,16.63,0,0,1-16.62-16.6V256.08a3,3,0,0,1,3-3H242.7a3,3,0,0,1,3,3V294.8A16.63,16.63,0,0,1,229.08,311.4ZM64.23,259.08V294.8a10.63,10.63,0,0,0,10.62,10.6H229.08a10.62,10.62,0,0,0,10.62-10.6V259.08Z"/><path class="cls-1" d="M152,295.17a13,13,0,1,1,13-13A13,13,0,0,1,152,295.17Zm0-20a7,7,0,1,0,7,7A7,7,0,0,0,152,275.13Z"/><path class="cls-1" d="M165.68,35.67H138.26a3,3,0,0,1,0-6h27.42a3,3,0,0,1,0,6Z"/><path class="cls-1" d="M255.31,60.93a3,3,0,0,1-3-3V16.6A10.75,10.75,0,0,0,241.69,6H184.31a3,3,0,0,1,0-6h57.38a16.63,16.63,0,0,1,16.62,16.6V57.93A3,3,0,0,1,255.31,60.93Z"/><path class="cls-1" d="M134,146.23H23.63a3,3,0,0,1-3-3V86.46a3,3,0,0,1,3-3H134a3,3,0,0,1,3,3v56.77A3,3,0,0,1,134,146.23Zm-107.38-6H131V89.46H26.63Z"/><path class="cls-1" d="M69.36,104.73H37.82a3,3,0,0,1,0-6H69.36a3,3,0,0,1,0,6Z"/><path class="cls-1" d="M104.05,117.85H37.82a3,3,0,1,1,0-6h66.23a3,3,0,0,1,0,6Z"/><path class="cls-1" d="M104.05,128.9H37.82a3,3,0,1,1,0-6h66.23a3,3,0,0,1,0,6Z"/><path class="cls-1" d="M48.2,162.54H3a3,3,0,0,1,0-6H48.2a3,3,0,1,1,0,6Z"/><path class="cls-1" d="M48.2,175.68H3a3,3,0,0,1,0-6H48.2a3,3,0,0,1,0,6Z"/><path class="cls-1" d="M48.2,188.82H3a3,3,0,0,1,0-6H48.2a3,3,0,0,1,0,6Z"/><path class="cls-1" d="M48.2,202H3a3,3,0,0,1,0-6H48.2a3,3,0,1,1,0,6Z"/><path class="cls-1" d="M48.2,215.1H3a3,3,0,0,1,0-6H48.2a3,3,0,1,1,0,6Z"/><path class="cls-1" d="M48.2,228.24H3a3,3,0,0,1,0-6H48.2a3,3,0,0,1,0,6Z"/><path class="cls-1" d="M227.7,146.49H178.82a3,3,0,0,1-3-3V86.2a3,3,0,0,1,3-3H227.7a3,3,0,0,1,3,3v57.29A3,3,0,0,1,227.7,146.49Zm-45.88-6H224.7V89.2H181.82Z"/><path class="cls-1" d="M253.21,245.33H192.48a3,3,0,0,1-3-3V185a3,3,0,0,1,3-3h68.59a3,3,0,0,1,3,3v37.72a3,3,0,0,1-4,2.83l-10.73-3.78L255.92,241a3.09,3.09,0,0,1,.29,1.29A3,3,0,0,1,253.21,245.33Zm-57.73-6H249l-7.32-21.46a3,3,0,0,1,3.83-3.8l12.56,4.42V188H195.48Z"/><path class="cls-1" d="M259.87,264.93a3.34,3.34,0,0,1-.7-.08,3,3,0,0,1-2.14-2l-15.35-45a3,3,0,0,1,3.83-3.8L290.72,230a3,3,0,0,1,1.09,5L262,264.08A3,3,0,0,1,259.87,264.93Zm-10.52-43.15,11.83,34.68,23-22.41Z"/><path class="cls-1" d="M287.62,260.81a3,3,0,0,1-1.9-.67l-12.81-10.45A3,3,0,1,1,276.7,245l12.81,10.45a3,3,0,0,1-1.89,5.32Z"/><path class="cls-1" d="M163.33,241.34h-1.14a3,3,0,0,1,0-6h1.14a10.6,10.6,0,0,0,3-.42,3,3,0,1,1,1.68,5.76A16.59,16.59,0,0,1,163.33,241.34Zm-19.14,0h-5a3,3,0,0,1,0-6h5a3,3,0,0,1,0,6Zm-23,0h-5a3,3,0,1,1,0-6h5a3,3,0,0,1,0,6Zm-23,0h-5a3,3,0,1,1,0-6h5a3,3,0,0,1,0,6Zm-19.17-9a3,3,0,0,1-2.81-2,16.55,16.55,0,0,1-1-5.74v-.2a3,3,0,1,1,6,0v.2a10.43,10.43,0,0,0,.66,3.66,3,3,0,0,1-1.78,3.85A2.9,2.9,0,0,1,79,232.38Zm98-5.11a3,3,0,0,1-3-3v-5a3,3,0,1,1,6,0v5A3,3,0,0,1,177,227.27ZM78.18,209.48a3,3,0,0,1-3-3v-5a3,3,0,1,1,6,0v5A3,3,0,0,1,78.18,209.48ZM177,204.27a3,3,0,0,1-3-3v-5a3,3,0,1,1,6,0v5A3,3,0,0,1,177,204.27ZM78.18,186.48a3,3,0,0,1-3-3v-5a3,3,0,1,1,6,0v5A3,3,0,0,1,78.18,186.48ZM177,181.27a3,3,0,0,1-3-3v-4.05c0-.25,0-.49,0-.74a3,3,0,1,1,6-.41c0,.38,0,.76,0,1.15v4.05A3,3,0,0,1,177,181.27ZM84.54,165.69a3,3,0,0,1-1.61-5.53,16.49,16.49,0,0,1,5.62-2.28,3,3,0,0,1,1.68.14,3,3,0,0,1,1.62-.47h5a3,3,0,0,1,0,6h-5a3,3,0,0,1-1.08-.2,3,3,0,0,1-1,.41,10.58,10.58,0,0,0-3.59,1.46A3,3,0,0,1,84.54,165.69Zm81.3-1.91a2.65,2.65,0,0,1-.56-.05,10.56,10.56,0,0,0-1.95-.18h-2.48a3,3,0,1,1,0-6h2.48a17.42,17.42,0,0,1,3.06.28,3,3,0,0,1-.55,5.95Zm-23-.23h-5a3,3,0,1,1,0-6h5a3,3,0,0,1,0,6Zm-23,0h-5a3,3,0,1,1,0-6h5a3,3,0,0,1,0,6Z"/></g></g></svg>