<svg xmlns="http://www.w3.org/2000/svg" xmlns:xlink="http://www.w3.org/1999/xlink" viewBox="0 0 308.33 214.83"><defs><style>.cls-1{fill:url(#linear-gradient);}.cls-2{fill:#4cc2fc;}.cls-3,.cls-4{fill:#1a2089;}.cls-4,.cls-5{opacity:0.33;}.cls-6{fill:#5d4efa;}.cls-7{fill:url(#linear-gradient-2);}.cls-10,.cls-41,.cls-8{fill:#fff;}.cls-8{opacity:0.71;}.cls-9{opacity:0.81;}.cls-11{fill:url(#linear-gradient-3);}.cls-12{fill:url(#linear-gradient-4);}.cls-13{fill:url(#linear-gradient-5);}.cls-14{fill:url(#linear-gradient-6);}.cls-15{fill:url(#linear-gradient-7);}.cls-16{fill:url(#linear-gradient-8);}.cls-17{fill:url(#linear-gradient-9);}.cls-18{fill:url(#linear-gradient-10);}.cls-19{fill:url(#linear-gradient-11);}.cls-20{fill:#8395f0;}.cls-21{fill:url(#linear-gradient-12);}.cls-22{fill:#c0cef8;}.cls-23{fill:url(#linear-gradient-13);}.cls-24{fill:url(#linear-gradient-14);}.cls-25{fill:url(#linear-gradient-15);}.cls-26{fill:url(#linear-gradient-16);}.cls-27{fill:url(#linear-gradient-17);}.cls-28{fill:url(#linear-gradient-18);}.cls-29{fill:url(#linear-gradient-19);}.cls-30{fill:url(#linear-gradient-20);}.cls-31{fill:url(#linear-gradient-21);}.cls-32{fill:url(#linear-gradient-22);}.cls-33{fill:#99b0f6;}.cls-34{fill:url(#linear-gradient-23);}.cls-35{fill:url(#linear-gradient-24);}.cls-36{fill:url(#linear-gradient-25);}.cls-37{fill:url(#linear-gradient-26);}.cls-38{fill:url(#linear-gradient-27);}.cls-39{fill:url(#linear-gradient-28);}.cls-40{fill:url(#linear-gradient-29);}.cls-41{opacity:0.82;}.cls-42{fill:url(#linear-gradient-30);}.cls-43{fill:url(#linear-gradient-31);}.cls-44{fill:url(#linear-gradient-32);}.cls-45{fill:url(#linear-gradient-33);}.cls-46{fill:url(#linear-gradient-34);}.cls-47{fill:url(#linear-gradient-35);}.cls-48{fill:url(#linear-gradient-36);}.cls-49{fill:url(#linear-gradient-37);}.cls-50{fill:url(#linear-gradient-38);}.cls-51{fill:url(#linear-gradient-39);}.cls-52{fill:url(#linear-gradient-40);}.cls-53{fill:url(#linear-gradient-41);}.cls-54{fill:url(#linear-gradient-42);}.cls-55{fill:url(#linear-gradient-43);}.cls-56{fill:url(#linear-gradient-44);}.cls-57{fill:url(#linear-gradient-45);}.cls-58{fill:url(#linear-gradient-46);}.cls-59{fill:url(#linear-gradient-47);}.cls-60{fill:url(#linear-gradient-48);}.cls-61{fill:url(#linear-gradient-49);}.cls-62{fill:url(#linear-gradient-50);}.cls-63{fill:url(#linear-gradient-51);}.cls-64{fill:url(#linear-gradient-52);}.cls-65{fill:url(#linear-gradient-53);}.cls-66{fill:url(#linear-gradient-54);}.cls-67{fill:url(#linear-gradient-55);}.cls-68{fill:url(#linear-gradient-56);}.cls-69{fill:url(#linear-gradient-57);}.cls-70{fill:url(#linear-gradient-58);}.cls-71{fill:url(#linear-gradient-59);}.cls-72{fill:url(#linear-gradient-60);}.cls-73{fill:url(#linear-gradient-61);}</style><linearGradient id="linear-gradient" x1="247.34" y1="30.99" x2="29.68" y2="196.72" gradientUnits="userSpaceOnUse"><stop offset="0" stop-color="#0f005c"/><stop offset="1" stop-color="#1e168c"/></linearGradient><linearGradient id="linear-gradient-2" x1="40.21" y1="103.18" x2="89.62" y2="103.18" gradientUnits="userSpaceOnUse"><stop offset="0" stop-color="#dbe1fc"/><stop offset="1" stop-color="#e9edfb"/></linearGradient><linearGradient id="linear-gradient-3" x1="32.15" y1="211.25" x2="42.91" y2="211.25" xlink:href="#linear-gradient"/><linearGradient id="linear-gradient-4" x1="32.15" y1="213.18" x2="42.91" y2="213.18" gradientUnits="userSpaceOnUse"><stop offset="0" stop-color="#89d6fc"/><stop offset="1" stop-color="#3d42f1"/></linearGradient><linearGradient id="linear-gradient-5" x1="13.24" y1="211.28" x2="18.28" y2="211.28" xlink:href="#linear-gradient"/><linearGradient id="linear-gradient-6" x1="13.24" y1="213.57" x2="18.13" y2="213.57" xlink:href="#linear-gradient-4"/><linearGradient id="linear-gradient-7" x1="15.37" y1="207.8" x2="18.64" y2="207.8" gradientUnits="userSpaceOnUse"><stop offset="0" stop-color="#e5908c"/><stop offset="1" stop-color="#eab1af"/></linearGradient><linearGradient id="linear-gradient-8" x1="32.7" y1="207.59" x2="35.42" y2="207.59" xlink:href="#linear-gradient-7"/><linearGradient id="linear-gradient-9" x1="39.47" y1="165.69" x2="28.32" y2="180.11" gradientUnits="userSpaceOnUse"><stop offset="0" stop-color="#ad286b"/><stop offset="1" stop-color="#45296b"/></linearGradient><linearGradient id="linear-gradient-10" x1="77.46" y1="107.66" x2="74.54" y2="112.87" xlink:href="#linear-gradient-7"/><linearGradient id="linear-gradient-11" x1="42.74" y1="129.12" x2="40.76" y2="139.01" xlink:href="#linear-gradient-7"/><linearGradient id="linear-gradient-12" x1="13.46" y1="157.96" x2="54.37" y2="157.96" xlink:href="#linear-gradient-2"/><linearGradient id="linear-gradient-13" x1="71.89" y1="152.95" x2="37.51" y2="159.2" xlink:href="#linear-gradient-7"/><linearGradient id="linear-gradient-14" x1="39.78" y1="118.32" x2="43.74" y2="130.72" xlink:href="#linear-gradient-7"/><linearGradient id="linear-gradient-15" x1="39.07" y1="121.15" x2="46.93" y2="131.27" xlink:href="#linear-gradient"/><linearGradient id="linear-gradient-16" x1="36.97" y1="119.22" x2="40.93" y2="131.61" xlink:href="#linear-gradient-7"/><linearGradient id="linear-gradient-17" x1="73.76" y1="105.59" x2="70.84" y2="110.8" xlink:href="#linear-gradient-7"/><linearGradient id="linear-gradient-18" x1="110.89" y1="144.57" x2="117.11" y2="144.57" xlink:href="#linear-gradient"/><linearGradient id="linear-gradient-19" x1="111.52" y1="141.69" x2="114.04" y2="141.69" xlink:href="#linear-gradient-7"/><linearGradient id="linear-gradient-20" x1="124.11" y1="144.47" x2="133.86" y2="144.47" xlink:href="#linear-gradient"/><linearGradient id="linear-gradient-21" x1="124.26" y1="140.57" x2="126.76" y2="140.57" xlink:href="#linear-gradient-7"/><linearGradient id="linear-gradient-22" x1="119.27" y1="101.61" x2="106.46" y2="116.92" gradientUnits="userSpaceOnUse"><stop offset="0" stop-color="#08003a"/><stop offset="1" stop-color="#0f0055"/></linearGradient><linearGradient id="linear-gradient-23" x1="141.03" y1="67.17" x2="150.34" y2="67.17" xlink:href="#linear-gradient-7"/><linearGradient id="linear-gradient-24" x1="165.88" y1="39.43" x2="161.2" y2="52.79" xlink:href="#linear-gradient-7"/><linearGradient id="linear-gradient-25" x1="172.75" y1="41.84" x2="168.06" y2="55.2" xlink:href="#linear-gradient-7"/><linearGradient id="linear-gradient-26" x1="139.48" y1="54.07" x2="119.98" y2="89.89" xlink:href="#linear-gradient-7"/><linearGradient id="linear-gradient-27" x1="2842.15" y1="2623.16" x2="2833.54" y2="2634.56" gradientTransform="translate(-3701.48 -443.39) rotate(-35.22)" xlink:href="#linear-gradient-7"/><linearGradient id="linear-gradient-28" x1="2835.57" y1="2625.91" x2="2845.87" y2="2625.91" gradientTransform="translate(-3701.48 -443.39) rotate(-35.22)" xlink:href="#linear-gradient"/><linearGradient id="linear-gradient-29" x1="2829.54" y1="2632.19" x2="2836.45" y2="2625.1" gradientTransform="translate(-3701.48 -443.39) rotate(-35.22)" xlink:href="#linear-gradient-7"/><linearGradient id="linear-gradient-30" x1="225.91" y1="104.99" x2="221.85" y2="108.9" xlink:href="#linear-gradient-7"/><linearGradient id="linear-gradient-31" x1="204.67" y1="192.84" x2="220.04" y2="192.84" xlink:href="#linear-gradient-7"/><linearGradient id="linear-gradient-32" x1="225.79" y1="158.49" x2="218.18" y2="207.94" xlink:href="#linear-gradient-4"/><linearGradient id="linear-gradient-33" x1="209.69" y1="156.01" x2="202.09" y2="205.46" xlink:href="#linear-gradient-4"/><linearGradient id="linear-gradient-34" x1="195.35" y1="193.99" x2="204.25" y2="193.99" xlink:href="#linear-gradient-7"/><linearGradient id="linear-gradient-35" x1="203.09" y1="90.3" x2="195.12" y2="105.53" xlink:href="#linear-gradient-7"/><linearGradient id="linear-gradient-36" x1="198.05" y1="135.79" x2="203.49" y2="135.79" xlink:href="#linear-gradient-7"/><linearGradient id="linear-gradient-37" x1="206.7" y1="128.76" x2="246.33" y2="131.45" xlink:href="#linear-gradient-7"/><linearGradient id="linear-gradient-38" x1="213.21" y1="126.37" x2="199.27" y2="154.27" xlink:href="#linear-gradient"/><linearGradient id="linear-gradient-39" x1="69.25" y1="43.01" x2="56.12" y2="71.46" xlink:href="#linear-gradient"/><linearGradient id="linear-gradient-40" x1="263.9" y1="193.79" x2="275.77" y2="193.79" xlink:href="#linear-gradient-7"/><linearGradient id="linear-gradient-41" x1="277.36" y1="174.45" x2="275.17" y2="185.07" xlink:href="#linear-gradient"/><linearGradient id="linear-gradient-42" x1="249.96" y1="194.6" x2="275.01" y2="194.6" xlink:href="#linear-gradient-7"/><linearGradient id="linear-gradient-43" x1="261.61" y1="171.21" x2="259.43" y2="181.83" xlink:href="#linear-gradient"/><linearGradient id="linear-gradient-44" x1="275.04" y1="146.78" x2="279.1" y2="159.91" xlink:href="#linear-gradient-7"/><linearGradient id="linear-gradient-45" x1="281.27" y1="140.87" x2="275.96" y2="148.06" xlink:href="#linear-gradient-7"/><linearGradient id="linear-gradient-46" x1="300.92" y1="128.59" x2="292.01" y2="135.15" xlink:href="#linear-gradient"/><linearGradient id="linear-gradient-47" x1="283.62" y1="142.61" x2="278.31" y2="149.79" xlink:href="#linear-gradient-7"/><linearGradient id="linear-gradient-48" x1="288.43" y1="163.19" x2="284.52" y2="170.85" xlink:href="#linear-gradient-7"/><linearGradient id="linear-gradient-49" x1="307.21" y1="137.13" x2="298.3" y2="143.69" xlink:href="#linear-gradient"/><linearGradient id="linear-gradient-50" x1="62.6" y1="4.42" x2="65.1" y2="21.52" xlink:href="#linear-gradient-7"/><linearGradient id="linear-gradient-51" x1="50" y1="6.26" x2="52.5" y2="23.36" xlink:href="#linear-gradient-7"/><linearGradient id="linear-gradient-52" x1="109.12" y1="12.47" x2="113.22" y2="12.47" xlink:href="#linear-gradient-7"/><linearGradient id="linear-gradient-53" x1="109.46" y1="19.03" x2="114.24" y2="19.03" xlink:href="#linear-gradient-7"/><linearGradient id="linear-gradient-54" x1="108.86" y1="8.22" x2="99.38" y2="20.21" xlink:href="#linear-gradient-7"/><linearGradient id="linear-gradient-55" x1="122.88" y1="25.39" x2="105.07" y2="40.2" xlink:href="#linear-gradient-7"/><linearGradient id="linear-gradient-56" x1="109.44" y1="-0.39" x2="109.23" y2="5.55" xlink:href="#linear-gradient-7"/><linearGradient id="linear-gradient-57" x1="107.88" y1="-2.63" x2="110.08" y2="9.93" xlink:href="#linear-gradient"/><linearGradient id="linear-gradient-58" x1="106.6" y1="-0.49" x2="106.4" y2="5.45" xlink:href="#linear-gradient-7"/><linearGradient id="linear-gradient-59" x1="114" y1="-8.97" x2="110.04" y2="-0.22" gradientUnits="userSpaceOnUse"><stop offset="0" stop-color="#4344dc"/><stop offset="1" stop-color="#5153fa"/></linearGradient><linearGradient id="linear-gradient-60" x1="113.54" y1="-9.18" x2="109.58" y2="-0.43" xlink:href="#linear-gradient-59"/><linearGradient id="linear-gradient-61" x1="119.07" y1="20.81" x2="101.25" y2="35.61" xlink:href="#linear-gradient-7"/></defs><title>application_tracking_system</title><g id="Layer_2" data-name="Layer 2"><g id="Layer_1-2" data-name="Layer 1"><path class="cls-1" d="M12.9,30.72l246-4.16A17.25,17.25,0,0,1,276.2,45l-8.47,145.63a15,15,0,0,1-14.68,14.29L16.56,207.27A10.9,10.9,0,0,1,5.67,196.65L0,44.65A13.29,13.29,0,0,1,12.9,30.72Z"/><path class="cls-2" d="M16.67,34.43l239.61-4A16.58,16.58,0,0,1,273.1,48l-8.25,138.55a14.45,14.45,0,0,1-14.29,13.6L20.23,202.4a10.49,10.49,0,0,1-10.6-10.11L4.12,47.68A12.77,12.77,0,0,1,16.67,34.43Z"/><path class="cls-3" d="M9.19,56.63a.81.81,0,0,1,0-1.61l258.23-.56h0a.8.8,0,1,1,0,1.6L9.19,56.63Z"/><path class="cls-4" d="M73.15,197.44a.81.81,0,0,1-.8-.79L70.16,41.89a.8.8,0,1,1,1.6,0L74,196.63a.8.8,0,0,1-.79.81Z"/><path class="cls-4" d="M142.54,197.44a.8.8,0,0,1-.8-.8V38.73a.8.8,0,1,1,1.6,0V196.64A.8.8,0,0,1,142.54,197.44Z"/><path class="cls-4" d="M211.79,197.44a.81.81,0,0,1-.81-.79L209,38.74a.81.81,0,0,1,.8-.82.8.8,0,0,1,.81.8l2,157.91a.8.8,0,0,1-.79.81Z"/><path class="cls-3" d="M15.52,48h0c0,2.06.76,3.73,1.69,3.73H58.59c.94,0,1.69-1.67,1.69-3.73h0c0-2.06-.75-3.73-1.69-3.73H17.21C16.28,44.22,15.52,45.89,15.52,48Z"/><path class="cls-3" d="M79,48h0c0,2.06.93,3.73,2.07,3.73h50.57c1.14,0,2.07-1.67,2.07-3.73h0c0-2.06-.93-3.73-2.07-3.73H81.1C80,44.22,79,45.89,79,48Z"/><path class="cls-3" d="M149.4,47.39h0c0,2.06,1,3.74,2.16,3.74h52.52c1.19,0,2.15-1.68,2.15-3.74h0c0-2.06-1-3.73-2.15-3.73H151.56C150.37,43.66,149.4,45.33,149.4,47.39Z"/><path class="cls-3" d="M218.28,47.39h0c0,2.06.76,3.74,1.7,3.74h41.37c.94,0,1.7-1.68,1.7-3.74h0c0-2.06-.76-3.73-1.7-3.73H220C219,43.66,218.28,45.33,218.28,47.39Z"/><g class="cls-5"><path class="cls-3" d="M262,91.39h-.11L220.26,90.3a3.28,3.28,0,0,1-3.21-3.3V64.77A2.74,2.74,0,0,1,219.78,62h45a2.75,2.75,0,0,1,2,.88,2.79,2.79,0,0,1,.73,2.06l-1.64,22.78A3.9,3.9,0,0,1,262,91.39ZM219.78,62.68a2.09,2.09,0,0,0-2.09,2.09V87a2.64,2.64,0,0,0,2.59,2.66l41.65,1.09a3.25,3.25,0,0,0,3.35-3l1.64-22.78a2.12,2.12,0,0,0-.56-1.59,2.08,2.08,0,0,0-1.54-.66Z"/><path class="cls-3" d="M261.78,70h0l-34.1-.93a.31.31,0,0,1-.31-.32.32.32,0,0,1,.33-.32l34.09.93a.31.31,0,0,1,.31.33A.31.31,0,0,1,261.78,70Z"/><path class="cls-3" d="M224.24,70.34h0a1.92,1.92,0,0,1-1.92-1.92,1.93,1.93,0,0,1,1.92-1.92h0a1.87,1.87,0,0,1,1.35.57,1.83,1.83,0,0,1,.56,1.36A1.92,1.92,0,0,1,224.24,70.34Zm0-3.2a1.27,1.27,0,0,0-.9.38,1.32,1.32,0,0,0-.38.9,1.28,1.28,0,0,0,1.28,1.28h0a1.28,1.28,0,0,0,1.28-1.28,1.28,1.28,0,0,0-1.27-1.28Z"/><path class="cls-3" d="M262,76.59h0l-34.09-.92a.32.32,0,0,1-.31-.33.33.33,0,0,1,.33-.32L262,76a.32.32,0,0,1,0,.64Z"/><path class="cls-3" d="M224.43,76.94h0a1.92,1.92,0,0,1-1.35-3.28,1.9,1.9,0,0,1,1.35-.56h0a1.87,1.87,0,0,1,1.35.57,1.92,1.92,0,0,1,0,2.71A1.88,1.88,0,0,1,224.43,76.94Zm0-3.2a1.28,1.28,0,0,0,0,2.56h0a1.3,1.3,0,0,0,.91-.37,1.26,1.26,0,0,0,.37-.9,1.29,1.29,0,0,0-1.28-1.29Z"/><path class="cls-3" d="M247.89,82.81h0l-19.83-.54a.34.34,0,0,1-.32-.33.32.32,0,0,1,.33-.31l19.83.53a.34.34,0,0,1,.32.33A.33.33,0,0,1,247.89,82.81Z"/><path class="cls-3" d="M224.62,83.55h0a2,2,0,0,1-1.36-.57,1.92,1.92,0,0,1,1.36-3.28h0a2,2,0,0,1,1.36.57,1.92,1.92,0,0,1-1.36,3.28Zm0-3.2a1.28,1.28,0,0,0-1.28,1.27,1.28,1.28,0,0,0,1.28,1.28h0a1.26,1.26,0,0,0,.9-.37,1.23,1.23,0,0,0,.38-.9,1.26,1.26,0,0,0-1.28-1.28Z"/></g><g class="cls-5"><path class="cls-3" d="M260,127.7h-.1l-39.73-1.64a3.27,3.27,0,0,1-3.2-3.29V100.53a2.74,2.74,0,0,1,2.73-2.74l43.11.55a2.73,2.73,0,0,1,2,.88,2.7,2.7,0,0,1,.73,2.06l-1.63,22.78A3.92,3.92,0,0,1,260,127.7ZM219.68,98.44a2.09,2.09,0,0,0-2.08,2.09v22.24a2.63,2.63,0,0,0,2.58,2.65l39.73,1.64a3.28,3.28,0,0,0,3.35-3l1.63-22.79A2.11,2.11,0,0,0,262.8,99Z"/><path class="cls-3" d="M259.76,106.3h0l-32.16-1.48a.31.31,0,0,1-.31-.33.32.32,0,0,1,.34-.31l32.16,1.48a.32.32,0,0,1,.31.33A.33.33,0,0,1,259.76,106.3Z"/><path class="cls-3" d="M224.15,106.1h0a1.9,1.9,0,0,1-1.35-.56,1.92,1.92,0,0,1,1.36-3.28h0a1.93,1.93,0,0,1,1.92,1.93h0a1.87,1.87,0,0,1-.57,1.35A1.9,1.9,0,0,1,224.15,106.1Zm0-3.2a1.28,1.28,0,0,0-1.28,1.28,1.3,1.3,0,0,0,.37.91,1.27,1.27,0,0,0,.91.37h0a1.26,1.26,0,0,0,.9-.37,1.28,1.28,0,0,0-.9-2.19Zm1.6,1.29Z"/><path class="cls-3" d="M260,112.9h0l-32.16-1.47a.33.33,0,0,1,0-.65L260,112.26a.32.32,0,0,1,0,.64Z"/><path class="cls-3" d="M224.34,112.7h0a1.91,1.91,0,0,1-1.91-1.92,1.94,1.94,0,0,1,.56-1.36,1.9,1.9,0,0,1,1.36-.56h0a1.93,1.93,0,0,1,1.92,1.93A1.93,1.93,0,0,1,224.34,112.7Zm0-3.2a1.28,1.28,0,0,0-.91.38,1.28,1.28,0,0,0,.9,2.18h0a1.28,1.28,0,0,0,0-2.56Z"/><path class="cls-3" d="M247.8,118.57h0L228,118a.32.32,0,0,1-.31-.33.32.32,0,0,1,.33-.31l19.83.53a.34.34,0,0,1,.31.33A.33.33,0,0,1,247.8,118.57Z"/><path class="cls-3" d="M224.52,119.31h0a2,2,0,0,1-1.36-.57,1.92,1.92,0,0,1,0-2.72,1.9,1.9,0,0,1,1.35-.56h0a2,2,0,0,1,1.35.57,1.84,1.84,0,0,1,.56,1.36,1.94,1.94,0,0,1-.56,1.36A1.9,1.9,0,0,1,224.52,119.31Zm0-3.2a1.28,1.28,0,0,0-1.28,1.27,1.3,1.3,0,0,0,.38.91,1.26,1.26,0,0,0,.9.37h0a1.29,1.29,0,0,0,.91-.37,1.26,1.26,0,0,0,.37-.9,1.29,1.29,0,0,0-.37-.91,1.26,1.26,0,0,0-.9-.37Z"/></g><g class="cls-5"><path class="cls-3" d="M83.22,102.9a3.9,3.9,0,0,1-3.64-4L78.2,69.75A3.33,3.33,0,0,1,81,66.08l50.34-3.25a2.76,2.76,0,0,1,2.09.79,3.74,3.74,0,0,1,1.11,2.76l-.41,30c0,2.7-1.89,4.87-4.22,4.95L83.33,102.9ZM78.84,69.72l1.38,29.15a3.3,3.3,0,0,0,3.09,3.39l46.62-1.58c2-.06,3.56-2,3.59-4.32l.42-30a3.1,3.1,0,0,0-.91-2.29,2.14,2.14,0,0,0-1.61-.61L81.08,66.72a2.7,2.7,0,0,0-2.24,3Z"/><path class="cls-3" d="M90.29,74.52a.32.32,0,0,1-.32-.31.33.33,0,0,1,.31-.33l38.17-1.24h0a.32.32,0,0,1,.32.31.34.34,0,0,1-.31.33L90.3,74.52Z"/><path class="cls-3" d="M86.42,76.45a2,2,0,0,1-1.3-.51,2.54,2.54,0,0,1-.81-1.78,2.34,2.34,0,0,1,2-2.55,1.93,1.93,0,0,1,1.41.51,2.54,2.54,0,0,1,.81,1.78h0a2.33,2.33,0,0,1-2,2.55Zm0-4.2h-.07A1.69,1.69,0,0,0,85,74.13a1.9,1.9,0,0,0,.6,1.33,1.28,1.28,0,0,0,1,.35,1.69,1.69,0,0,0,1.39-1.88h0a1.86,1.86,0,0,0-.6-1.33A1.29,1.29,0,0,0,86.42,72.25Z"/><path class="cls-3" d="M90.91,83.16a.32.32,0,0,1,0-.64l38.17-1.24a.32.32,0,0,1,.33.31.33.33,0,0,1-.31.33L90.92,83.16Z"/><path class="cls-3" d="M87,85.09a2,2,0,0,1-1.3-.51,2.54,2.54,0,0,1-.81-1.78,2.34,2.34,0,0,1,2-2.55,1.93,1.93,0,0,1,1.41.51,2.56,2.56,0,0,1,.81,1.78h0a2.32,2.32,0,0,1-2,2.55Zm0-4.2H87a1.7,1.7,0,0,0-1.4,1.88,1.9,1.9,0,0,0,.6,1.33,1.28,1.28,0,0,0,1,.35,1.69,1.69,0,0,0,1.39-1.88h0a1.9,1.9,0,0,0-.6-1.33A1.29,1.29,0,0,0,87,80.89Z"/><path class="cls-3" d="M91.53,91.81a.33.33,0,0,1,0-.65l22.2-.72h0a.33.33,0,0,1,.32.31.32.32,0,0,1-.31.33l-22.2.73Z"/><path class="cls-3" d="M87.66,93.73a2,2,0,0,1-1.3-.51,2.54,2.54,0,0,1-.81-1.78,2.34,2.34,0,0,1,2-2.55A1.94,1.94,0,0,1,89,89.4a2.58,2.58,0,0,1,.81,1.79h0a2.32,2.32,0,0,1-2,2.54Zm0-4.2h-.08a1.71,1.71,0,0,0-1.39,1.88,1.89,1.89,0,0,0,.6,1.33,1.28,1.28,0,0,0,.95.35,1.69,1.69,0,0,0,1.39-1.87,1.93,1.93,0,0,0-.6-1.34A1.34,1.34,0,0,0,87.66,89.53Z"/></g><g class="cls-5"><path class="cls-3" d="M84.69,129.84c-1.94,0-3.54-1.11-3.65-2.57l-1.38-17.93a1.89,1.89,0,0,1,.5-1.4,3.32,3.32,0,0,1,2.35-1l50.34-2a3.51,3.51,0,0,1,2.58.89,1.9,1.9,0,0,1,.61,1.43l-.41,18.44c0,1.73-1.89,3.12-4.22,3.17l-46.62,1ZM133,105.58h-.13l-50.34,2a2.71,2.71,0,0,0-1.9.79,1.29,1.29,0,0,0-.34.92l1.38,17.94c.09,1.12,1.48,2,3.1,2l46.62-1c2,0,3.56-1.16,3.59-2.54l.41-18.45a1.31,1.31,0,0,0-.42-.95A2.84,2.84,0,0,0,133,105.58Z"/><path class="cls-3" d="M91.76,112.38a.32.32,0,0,1,0-.64l38.17-.76a.31.31,0,0,1,.32.31.32.32,0,0,1-.31.33l-38.17.76Z"/><path class="cls-3" d="M87.88,113.57a1.92,1.92,0,0,1-2.1-1.52,1.36,1.36,0,0,1,.36-1,2.32,2.32,0,0,1,1.64-.69A2,2,0,0,1,90,111.86h0a1.36,1.36,0,0,1-.37,1,2.3,2.3,0,0,1-1.63.7Zm0-2.58H87.8a1.71,1.71,0,0,0-1.18.48.72.72,0,0,0-.2.53c0,.53.75,1,1.55.93a1.69,1.69,0,0,0,1.19-.49.74.74,0,0,0,.2-.53h0C89.32,111.4,88.65,111,87.89,111Z"/><path class="cls-3" d="M92.38,117.7a.31.31,0,0,1-.32-.31.31.31,0,0,1,.31-.33l38.17-.77h0a.32.32,0,0,1,.32.32.31.31,0,0,1-.31.32l-38.17.77Z"/><path class="cls-3" d="M88.5,118.89a1.93,1.93,0,0,1-2.1-1.52,1.35,1.35,0,0,1,.36-1,2.33,2.33,0,0,1,1.64-.7,2,2,0,0,1,2.22,1.52h0a1.37,1.37,0,0,1-.37,1,2.3,2.3,0,0,1-1.63.69Zm0-2.59h-.09a1.67,1.67,0,0,0-1.18.49.7.7,0,0,0-.2.53c0,.53.75,1,1.55.92a1.73,1.73,0,0,0,1.19-.48.76.76,0,0,0,.2-.53h0C89.94,116.71,89.27,116.3,88.51,116.3Z"/><path class="cls-3" d="M93,123a.33.33,0,0,1,0-.65l22.2-.44a.32.32,0,1,1,0,.64L93,123Z"/><path class="cls-3" d="M89.12,124.2a1.92,1.92,0,0,1-2.1-1.52,1.32,1.32,0,0,1,.36-1A2.29,2.29,0,0,1,89,121a2,2,0,0,1,2.22,1.52,1.33,1.33,0,0,1-.37,1,2.3,2.3,0,0,1-1.63.7Zm0-2.58H89a1.71,1.71,0,0,0-1.18.48.73.73,0,0,0-.2.53c0,.54.75,1,1.55.93a1.69,1.69,0,0,0,1.18-.48.74.74,0,0,0,.21-.54h0C90.56,122,89.89,121.62,89.13,121.62Z"/></g><g class="cls-5"><path class="cls-3" d="M85.24,158.89c-1.94,0-3.53-1.11-3.65-2.57l-1.37-17.94a1.82,1.82,0,0,1,.5-1.39,3.3,3.3,0,0,1,2.35-1l50.33-2a3.51,3.51,0,0,1,2.58.89,1.94,1.94,0,0,1,.62,1.42l-.41,18.45c0,1.73-1.9,3.12-4.23,3.17l-46.61,1Zm48.33-24.26h-.14l-50.34,2a2.7,2.7,0,0,0-1.89.78,1.26,1.26,0,0,0-.35.92l1.38,17.94c.09,1.13,1.48,2,3.1,2l46.62-1c2,0,3.56-1.16,3.59-2.55l.42-18.44a1.29,1.29,0,0,0-.43-.95A2.82,2.82,0,0,0,133.57,134.63Z"/><path class="cls-3" d="M92.31,141.43a.32.32,0,0,1,0-.64l38.17-.77a.34.34,0,0,1,.33.32.32.32,0,0,1-.32.32l-38.16.77Z"/><path class="cls-3" d="M88.44,142.62a1.94,1.94,0,0,1-2.11-1.52,1.39,1.39,0,0,1,.36-1,2.33,2.33,0,0,1,1.64-.7,2,2,0,0,1,2.22,1.52h0a1.36,1.36,0,0,1-.36,1,2.28,2.28,0,0,1-1.64.69Zm0-2.59h-.08a1.69,1.69,0,0,0-1.19.49.72.72,0,0,0-.2.53c0,.53.75.95,1.55.92a1.69,1.69,0,0,0,1.19-.48.72.72,0,0,0,.2-.53h0C89.87,140.45,89.21,140,88.44,140Z"/><path class="cls-3" d="M92.93,146.75a.32.32,0,0,1,0-.64l38.17-.77a.34.34,0,0,1,.33.31.32.32,0,0,1-.32.33l-38.16.77Z"/><path class="cls-3" d="M89.06,147.93A1.94,1.94,0,0,1,87,146.41a1.36,1.36,0,0,1,.36-1,2.29,2.29,0,0,1,1.64-.7,2,2,0,0,1,2.22,1.52h0a1.32,1.32,0,0,1-.36,1,2.29,2.29,0,0,1-1.64.7Zm0-2.58H89a1.73,1.73,0,0,0-1.19.48.74.74,0,0,0-.2.54c0,.53.75.94,1.55.92a1.73,1.73,0,0,0,1.19-.48.73.73,0,0,0,.2-.53h0C90.49,145.76,89.83,145.35,89.06,145.35Z"/><path class="cls-3" d="M93.55,152.06a.32.32,0,0,1-.32-.31.33.33,0,0,1,.31-.33l22.2-.44a.32.32,0,0,1,.33.31.33.33,0,0,1-.32.33l-22.19.44Z"/><path class="cls-3" d="M89.68,153.25a1.94,1.94,0,0,1-2.11-1.52,1.4,1.4,0,0,1,.36-1,2.32,2.32,0,0,1,1.64-.69,2,2,0,0,1,2.22,1.51,1.35,1.35,0,0,1-.36,1,2.33,2.33,0,0,1-1.64.7Zm0-2.59H89.6a1.69,1.69,0,0,0-1.19.48.72.72,0,0,0-.2.53c0,.53.75.95,1.55.93a1.69,1.69,0,0,0,1.19-.49.72.72,0,0,0,.2-.53h0C91.11,151.08,90.45,150.66,89.68,150.66Z"/></g><g class="cls-5"><path class="cls-3" d="M153.64,97.23A3.64,3.64,0,0,1,150,93.76l-1.38-25a3,3,0,0,1,2.85-3.19l50.34-2.78a3,3,0,0,1,2.26.84,3.06,3.06,0,0,1,.94,2.25l-.42,25.67a4.35,4.35,0,0,1-4.21,4.29l-46.62,1.35ZM202,63.46h-.14L151.5,66.25a2.39,2.39,0,0,0-2.25,2.52l1.38,25a3,3,0,0,0,3.1,2.86l46.62-1.36a3.69,3.69,0,0,0,3.59-3.65l.41-25.67A2.39,2.39,0,0,0,202,63.46Z"/><path class="cls-3" d="M160.71,72.93a.32.32,0,0,1-.32-.31.32.32,0,0,1,.31-.33l38.17-1.07a.33.33,0,0,1,.32.32.32.32,0,0,1-.31.33l-38.16,1.06Z"/><path class="cls-3" d="M156.84,74.58a2.11,2.11,0,0,1-1.57-3.53,2.1,2.1,0,0,1,3-.16,2.12,2.12,0,0,1-1.3,3.69Zm0-3.59h-.08a1.42,1.42,0,0,0-1,.49,1.48,1.48,0,0,0,1.17,2.46,1.47,1.47,0,0,0,1.39-1.55,1.5,1.5,0,0,0-.49-1A1.48,1.48,0,0,0,156.84,71Z"/><path class="cls-3" d="M161.33,80.33A.32.32,0,0,1,161,80a.31.31,0,0,1,.31-.33l38.17-1.07a.32.32,0,0,1,.32.31.31.31,0,0,1-.31.33l-38.16,1.07Z"/><path class="cls-3" d="M157.46,82a2.09,2.09,0,0,1-1.41-.54,2.12,2.12,0,0,1-.7-1.47,2.08,2.08,0,0,1,.54-1.52,2,2,0,0,1,1.46-.7,2.12,2.12,0,0,1,2.22,2h0a2.12,2.12,0,0,1-2,2.23Zm0-3.6h-.08a1.45,1.45,0,0,0-1,.48,1.47,1.47,0,0,0-.38,1.07,1.44,1.44,0,0,0,.49,1,1.47,1.47,0,0,0,2.45-1.18A1.49,1.49,0,0,0,157.46,78.38Z"/><path class="cls-3" d="M162,87.73a.32.32,0,0,1-.32-.31.31.31,0,0,1,.31-.33l22.2-.62a.32.32,0,0,1,.33.31.34.34,0,0,1-.32.33L162,87.73Z"/><path class="cls-3" d="M158.08,89.38a2.12,2.12,0,1,1,2.11-2.23,2.08,2.08,0,0,1-.54,1.52,2.11,2.11,0,0,1-1.46.71Zm0-3.6H158a1.48,1.48,0,0,0-1.39,1.56,1.47,1.47,0,0,0,1.55,1.39,1.45,1.45,0,0,0,1-.48,1.5,1.5,0,0,0,.38-1.07h0a1.48,1.48,0,0,0-.49-1A1.44,1.44,0,0,0,158.08,85.78Z"/></g><g class="cls-5"><path class="cls-3" d="M154.65,134.59a3.64,3.64,0,0,1-3.64-3.47l-1.38-25a3,3,0,0,1,2.85-3.19l50.33-2.78a3,3,0,0,1,2.27.84,3.09,3.09,0,0,1,.93,2.25L205.6,129a4.35,4.35,0,0,1-4.22,4.29l-46.62,1.35Zm-4.38-28.46,1.38,25a3,3,0,0,0,3.09,2.86l46.62-1.36a3.69,3.69,0,0,0,3.6-3.65l.41-25.67a2.39,2.39,0,0,0-.74-1.78,2.36,2.36,0,0,0-1.78-.66l-50.34,2.78a2.32,2.32,0,0,0-1.64.79,2.39,2.39,0,0,0-.6,1.73Z"/><path class="cls-3" d="M161.72,110.29a.33.33,0,0,1-.32-.31.33.33,0,0,1,.32-.33l38.16-1.07a.34.34,0,0,1,.33.32.33.33,0,0,1-.31.33l-38.17,1.06Z"/><path class="cls-3" d="M157.85,111.94a2.12,2.12,0,1,1,2.11-2.23h0a2.11,2.11,0,0,1-2,2.23Zm0-3.59h-.08a1.47,1.47,0,0,0-1.38,1.55,1.45,1.45,0,0,0,.48,1,1.44,1.44,0,0,0,1.06.38,1.47,1.47,0,0,0,1.39-1.55h0A1.47,1.47,0,0,0,157.85,108.35Z"/><path class="cls-3" d="M162.34,117.69a.33.33,0,0,1-.32-.31.32.32,0,0,1,.31-.33L200.5,116a.33.33,0,0,1,.33.31.32.32,0,0,1-.31.33l-38.17,1.07Z"/><path class="cls-3" d="M158.47,119.34a2.12,2.12,0,1,1,2.11-2.23h0a2.11,2.11,0,0,1-2,2.23Zm0-3.6h-.08a1.34,1.34,0,1,0,.08,0Z"/><path class="cls-3" d="M163,125.09a.33.33,0,0,1-.32-.31.32.32,0,0,1,.31-.33l22.2-.62a.32.32,0,0,1,.33.31.32.32,0,0,1-.31.33l-22.2.62Z"/><path class="cls-3" d="M159.09,126.74a2.12,2.12,0,1,1,2.11-2.23,2.08,2.08,0,0,1-.54,1.52,2,2,0,0,1-1.45.71Zm0-3.6H159a1.48,1.48,0,0,0-1.38,1.56,1.46,1.46,0,0,0,1.54,1.39,1.45,1.45,0,0,0,1.39-1.55h0a1.47,1.47,0,0,0-1.47-1.4Z"/></g><g class="cls-5"><path class="cls-3" d="M155.67,172a3.64,3.64,0,0,1-3.65-3.47l-1.38-25a3,3,0,0,1,2.85-3.19l50.34-2.78a2.94,2.94,0,0,1,2.26.84,3.06,3.06,0,0,1,.94,2.25l-.42,25.67a4.35,4.35,0,0,1-4.21,4.29L155.78,172Zm-4.39-28.46,1.38,25a3,3,0,0,0,3.1,2.86L202.38,170A3.69,3.69,0,0,0,206,166.3l.42-25.67a2.42,2.42,0,0,0-.74-1.78,2.38,2.38,0,0,0-1.79-.66L153.53,141a2.39,2.39,0,0,0-2.25,2.52Z"/><path class="cls-3" d="M162.74,147.65a.32.32,0,0,1-.32-.31.32.32,0,0,1,.31-.33L200.9,146a.33.33,0,0,1,.33.31.34.34,0,0,1-.32.33l-38.16,1.06Z"/><path class="cls-3" d="M158.87,149.3a2.11,2.11,0,0,1-1.57-3.53,2.1,2.1,0,0,1,3-.16,2.12,2.12,0,0,1,.7,1.46h0a2.12,2.12,0,0,1-2,2.23Zm0-3.59h-.08a1.42,1.42,0,0,0-1,.49,1.48,1.48,0,0,0,1.17,2.46,1.47,1.47,0,0,0,1.39-1.55h0a1.5,1.5,0,0,0-.49-1A1.48,1.48,0,0,0,158.87,145.71Z"/><path class="cls-3" d="M163.36,155.05a.32.32,0,0,1-.32-.31.31.31,0,0,1,.31-.33l38.17-1.07h0a.31.31,0,0,1,.32.31.31.31,0,0,1-.31.33l-38.16,1.07Z"/><path class="cls-3" d="M159.49,156.7a2.12,2.12,0,1,1,2.11-2.23h0a2.12,2.12,0,0,1-2,2.23Zm0-3.6h-.08A1.48,1.48,0,1,0,161,154.5,1.49,1.49,0,0,0,159.49,153.1Z"/><path class="cls-3" d="M164,162.45a.32.32,0,0,1-.32-.31.31.31,0,0,1,.31-.33l22.2-.62a.32.32,0,0,1,.33.31.34.34,0,0,1-.32.33l-22.19.62Z"/><path class="cls-3" d="M160.11,164.1a2.13,2.13,0,0,1-2.11-2,2.11,2.11,0,0,1,.54-1.53,2.08,2.08,0,0,1,1.46-.7,2.12,2.12,0,0,1,.22,4.24Zm0-3.6H160a1.48,1.48,0,0,0-.9,2.58,1.43,1.43,0,0,0,1.06.37,1.47,1.47,0,0,0,.9-2.57A1.44,1.44,0,0,0,160.11,160.5Z"/></g><g class="cls-5"><path class="cls-3" d="M17.61,95.59A3.64,3.64,0,0,1,14,92.13l-1.38-25A3,3,0,0,1,15.43,64l50.34-2.78A3,3,0,0,1,68,62,3.06,3.06,0,0,1,69,64.28L68.55,90a4.34,4.34,0,0,1-4.21,4.29L17.72,95.59ZM13.22,67.13l1.38,25A3,3,0,0,0,17.7,95L64.32,93.6a3.71,3.71,0,0,0,3.59-3.66l.41-25.67a2.38,2.38,0,0,0-2.52-2.44L15.47,64.61a2.39,2.39,0,0,0-2.25,2.52Z"/><path class="cls-3" d="M24.68,71.29a.31.31,0,0,1-.32-.31.32.32,0,0,1,.31-.33l38.17-1.06a.31.31,0,0,1,.32.31.32.32,0,0,1-.31.33L24.69,71.29Z"/><path class="cls-3" d="M20.81,72.94a2.12,2.12,0,1,1,2.11-2.23h0a2.12,2.12,0,0,1-2,2.23Zm0-3.59h-.08a1.51,1.51,0,1,0,.08,0Z"/><path class="cls-3" d="M25.3,78.69a.32.32,0,0,1-.32-.31.32.32,0,0,1,.31-.33L63.46,77a.33.33,0,0,1,0,.65L25.31,78.69Z"/><path class="cls-3" d="M21.43,80.34a2.11,2.11,0,0,1-1.57-3.53,2.1,2.1,0,0,1,3-.16,2.12,2.12,0,0,1,.7,1.46h0a2.12,2.12,0,0,1-2,2.23Zm0-3.59h-.08a1.49,1.49,0,0,0-1,.48A1.51,1.51,0,0,0,20,78.3a1.47,1.47,0,0,0,2.56.91,1.49,1.49,0,0,0,.38-1.07h0a1.5,1.5,0,0,0-.49-1A1.48,1.48,0,0,0,21.43,76.75Z"/><path class="cls-3" d="M25.92,86.09a.32.32,0,0,1-.32-.31.31.31,0,0,1,.31-.33l22.2-.62a.32.32,0,0,1,.33.31.33.33,0,0,1-.32.33l-22.19.62Z"/><path class="cls-3" d="M22.05,87.74a2.12,2.12,0,0,1-1.57-3.54,2.08,2.08,0,0,1,1.46-.7,2.13,2.13,0,0,1,1.52.55,2.08,2.08,0,0,1,.7,1.46,2.12,2.12,0,0,1-2,2.23Zm0-3.6H22a1.48,1.48,0,0,0,.16,2.95,1.46,1.46,0,0,0,1-.49,1.49,1.49,0,0,0,.38-1.07h0a1.5,1.5,0,0,0-.49-1A1.48,1.48,0,0,0,22.05,84.14Z"/></g><path class="cls-6" d="M41,83.41,89.25,83A1.7,1.7,0,0,1,91,84.69l-.22,37A1.7,1.7,0,0,1,89,123.38c-8.72-.26-47.43-1.41-49.14-1.34s-.77-29.66-.52-37A1.7,1.7,0,0,1,41,83.41Z"/><path class="cls-7" d="M89.05,122h0c-6.93-.21-41.84-1.25-48.23-1.34h-.14l0-.13c-.6-3.41-.59-17.34,0-35.47a.37.37,0,0,1,.35-.35l48.23-.43a.38.38,0,0,1,.36.36l-.21,37A.36.36,0,0,1,89.05,122Zm-48.11-1.65c6.74.1,41.22,1.12,48.11,1.33h0s0,0,0,0l.22-37,0-.2v.16L41,85.07a0,0,0,0,0,0,0C40.39,103,40.37,116.78,40.94,120.39Z"/><rect class="cls-8" x="42.05" y="87.77" width="44.77" height="3.39" rx="1.69"/><g class="cls-9"><path class="cls-10" d="M73.33,117.3a.81.81,0,0,1-.62-.29l-1.09-1.29a9.56,9.56,0,0,1-2.39-.07l-1.15,1.25a.83.83,0,0,1-.93.19l-2.24-1a.83.83,0,0,1-.48-.81l.15-1.69a9.59,9.59,0,0,1-1.64-1.73l-1.7.06a.81.81,0,0,1-.79-.52l-.88-2.29a.81.81,0,0,1,.24-.91l1.3-1.09a9.49,9.49,0,0,1,.06-2.38l-1.25-1.16a.82.82,0,0,1-.19-.92l1-2.24a.79.79,0,0,1,.81-.48l1.69.14A9.59,9.59,0,0,1,65,98.43l-.06-1.7a.81.81,0,0,1,.52-.78l2.29-.88a.8.8,0,0,1,.91.23l1.09,1.3a9.49,9.49,0,0,1,2.38.06l1.16-1.24a.8.8,0,0,1,.92-.19l2.24,1a.81.81,0,0,1,.48.81l-.14,1.7a9.21,9.21,0,0,1,1.64,1.72l1.7-.06a.81.81,0,0,1,.78.52l.88,2.29a.8.8,0,0,1-.23.91l-1.3,1.09a9.55,9.55,0,0,1-.06,2.39l1.24,1.16a.79.79,0,0,1,.19.92l-1,2.24a.84.84,0,0,1-.81.48l-1.69-.15a10,10,0,0,1-1.73,1.65l.06,1.69a.83.83,0,0,1-.52.79l-2.29.88A.93.93,0,0,1,73.33,117.3Zm-1.18-3,1.33,1.58,1.65-.64-.07-2.06.29-.2a7.89,7.89,0,0,0,1.94-1.84l.22-.29,2,.18.72-1.63-1.51-1.4.07-.35a8.32,8.32,0,0,0,.07-2.68l0-.35,1.58-1.32-.64-1.66-2.06.07-.2-.29a8.12,8.12,0,0,0-1.85-1.94l-.28-.22.18-2L74,96.54l-1.4,1.51L72.21,98a8.32,8.32,0,0,0-2.68-.07l-.35,0-1.33-1.58L66.19,97l.08,2.06-.3.2A8.51,8.51,0,0,0,64,101.13l-.21.28-2-.17L61,102.86l1.51,1.41-.06.34a8.32,8.32,0,0,0-.07,2.68l0,.35L60.89,109l.64,1.66,2.06-.07.2.29a8.3,8.3,0,0,0,1.85,1.94l.28.21-.18,2.06,1.63.72,1.4-1.51.35.06a8,8,0,0,0,2.68.07Zm-11-3.71Zm19.5-7.51Zm-.56-1.46Zm-18.7-.46Zm12.76-4.92Zm-6.55-.16Zm3,16.57a6.56,6.56,0,1,1,6.13-8.92,7.08,7.08,0,0,1,.36,1.35.64.64,0,0,1-.54.73.63.63,0,0,1-.73-.53,5.26,5.26,0,0,0-3.07-4,5.28,5.28,0,1,0-.25,9.75,5.32,5.32,0,0,0,2.26-1.68.65.65,0,0,1,.9-.11.64.64,0,0,1,.11.9A6.53,6.53,0,0,1,73,112.26,6.41,6.41,0,0,1,70.61,112.7Z"/><path class="cls-10" d="M70.67,109a2.82,2.82,0,1,1,.47-5.6A2.86,2.86,0,0,1,73,104.53h0a2.82,2.82,0,0,1,.47,2.11A2.83,2.83,0,0,1,70.67,109Zm0-4.36a1.56,1.56,0,0,0-.88.28,1.54,1.54,0,0,0,1.77,2.51,1.5,1.5,0,0,0,.63-1,1.52,1.52,0,0,0-.26-1.15h0a1.56,1.56,0,0,0-1-.63Z"/><path class="cls-10" d="M52.53,106.19h-.06L51.29,106a.56.56,0,0,1-.48-.44l-.15-.71a4.68,4.68,0,0,1-.87-.5l-.69.24a.58.58,0,0,1-.63-.19l-.72-.93a.56.56,0,0,1,0-.65l.4-.61a4.11,4.11,0,0,1-.27-1l-.66-.32a.57.57,0,0,1-.31-.57L47,99.21a.56.56,0,0,1,.44-.48l.71-.15a4.68,4.68,0,0,1,.5-.87L48.44,97a.57.57,0,0,1,.19-.63l.93-.72a.56.56,0,0,1,.65,0l.61.4a4.11,4.11,0,0,1,1-.27l.32-.66a.6.6,0,0,1,.58-.31l1.17.15a.58.58,0,0,1,.48.44l.15.71a4.18,4.18,0,0,1,.87.5l.69-.24a.55.55,0,0,1,.62.19l.73.93a.56.56,0,0,1,0,.65l-.4.61a4.11,4.11,0,0,1,.27,1L58,100a.57.57,0,0,1,.31.57l-.15,1.17a.54.54,0,0,1-.44.48l-.71.16a4.68,4.68,0,0,1-.5.87l.24.69a.55.55,0,0,1-.19.62l-.93.73a.56.56,0,0,1-.65,0l-.61-.4a4.11,4.11,0,0,1-1,.27l-.32.65A.56.56,0,0,1,52.53,106.19Zm-.35-.74Zm-.48-.33.6.08.42-.87.27,0a3.58,3.58,0,0,0,1.19-.33l.24-.11.81.53.48-.38-.32-.91.17-.21a3.91,3.91,0,0,0,.61-1.07l.09-.25.94-.2.08-.6-.87-.43,0-.26a3.58,3.58,0,0,0-.33-1.19l-.11-.24.53-.81-.38-.48-.91.32-.2-.17a4.12,4.12,0,0,0-1.08-.61l-.25-.09-.2-.94-.6-.08-.42.87-.27,0A3.82,3.82,0,0,0,51,97l-.24.12-.81-.53-.48.38.32.91-.17.2A4.12,4.12,0,0,0,49,99.17l-.09.25-.94.2-.08.6.87.42,0,.27a3.58,3.58,0,0,0,.33,1.19l.11.24-.53.8.38.48.91-.31.2.17a4.12,4.12,0,0,0,1.08.61l.25.09Zm-.29,0Zm-2.62-1.37Zm-.26-.34Zm0-.46h0Zm-.88-2.83h0Zm9-2.49h0Zm-.41-.78Zm-6.52-.37Zm2.88-.69Zm0,8.06-.42,0a3.3,3.3,0,0,1-2.21-1.26,3.33,3.33,0,0,1,3-5.35,3.3,3.3,0,0,1,2.21,1.26,2.9,2.9,0,0,1,.38.6.49.49,0,0,1-.23.64.48.48,0,0,1-.64-.22,2.34,2.34,0,0,0-.26-.43,2.37,2.37,0,1,0-2.16,3.8,2.34,2.34,0,0,0,1.75-.48,2.44,2.44,0,0,0,.75-1,.48.48,0,0,1,.62-.28.48.48,0,0,1,.27.62,3.29,3.29,0,0,1-3.09,2.13Z"/></g><path class="cls-11" d="M36.2,213.42c2.5.11,4.93,0,6.55,0A32.9,32.9,0,0,0,35,209.14l-2-.12a8,8,0,0,0-.9,3.31C32.51,212.73,33.45,213.29,36.2,213.42Z"/><path class="cls-12" d="M42.77,213.39h0c-1.62.08-4,.15-6.55,0-2.75-.13-3.69-.69-4-1.09l0,.32a.93.93,0,0,0,.84,1c2,.15,7.14.5,9.6.37A.34.34,0,0,0,42.77,213.39Z"/><path class="cls-13" d="M18.27,212.75a18.09,18.09,0,0,0-.71-3.31c-.35-.69-1.57,0-1.57,0a3.3,3.3,0,0,0-1.26,1.06L13.32,213a.51.51,0,0,0-.08.29l4.89.17A1,1,0,0,0,18.27,212.75Z"/><path class="cls-14" d="M13.24,213.25a.56.56,0,0,0,.54.54l3.49.1a1,1,0,0,0,.86-.47Z"/><path class="cls-15" d="M18.64,205.53c0,.14-.67,3.2-.95,4.54a.76.76,0,0,1-.79.62l-.7-.06a.92.92,0,0,1-.8-.89,12.46,12.46,0,0,1,.36-4.31C16.36,204.22,18.64,205.53,18.64,205.53Z"/><path class="cls-16" d="M32.7,206.4c.27,0-.11,1.4.3,2.79a.71.71,0,0,0,.65.56c.21,0,.46,0,.71,0a.8.8,0,0,0,.73-.71l.33-3.59Z"/><path class="cls-6" d="M40.28,168.25c-.12.59-4.39,25.49-4.65,38.38a.45.45,0,0,1-.38.42,8.42,8.42,0,0,1-2.62,0,.32.32,0,0,1-.26-.29c-.14-2.4-1.34-22.7.12-32.26,0,0-12.13,25.55-14,32.6a.36.36,0,0,1-.37.27,9,9,0,0,1-2.46-.43.65.65,0,0,1-.41-.76c1-4.22,8.23-33.26,13.13-39.66Z"/><path class="cls-17" d="M32.49,174.65a.16.16,0,0,1-.11-.05.16.16,0,0,1,0-.22L34,172.72a.15.15,0,0,1,.22,0,.16.16,0,0,1,0,.23l-1.62,1.66A.17.17,0,0,1,32.49,174.65Z"/><path class="cls-3" d="M55.31,137.06a15.38,15.38,0,0,1-8.08,0c-3.55-.93-10.55-2.47-15.32-1.61l-.4,12.48,16.31,1.86.14-3.31s9.91-1.43,15.27-8a26.44,26.44,0,0,1-3-4.06A12.93,12.93,0,0,1,55.31,137.06Z"/><path class="cls-18" d="M66.11,124.76l-1.25-.55s.06,6.28-4.62,10.27a26.44,26.44,0,0,0,3,4.06C65.88,135.33,67.41,130.88,66.11,124.76Z"/><path class="cls-19" d="M39.72,128.53s-.95,5.64-1.08,7.42c0,0,4.57,1.26,5.77.58l-.15-6.83Z"/><path class="cls-20" d="M13.76,145.45,54,145.18a1.66,1.66,0,0,1,1.67,1.67l-.17,22.25a1.67,1.67,0,0,1-1.71,1.64L14,169.54a1.66,1.66,0,0,1-1.6-1.63l-.27-20.78A1.66,1.66,0,0,1,13.76,145.45Z"/><path class="cls-21" d="M53.89,169.4,14,168.2a.31.31,0,0,1-.3-.31l-.27-20.78a.33.33,0,0,1,.09-.23.31.31,0,0,1,.22-.09l40.28-.27a.31.31,0,0,1,.32.32l-.17,22.24A.31.31,0,0,1,53.89,169.4Zm-39.84-1.52,39.84,1.2.16-22.25-40.28.28Z"/><path class="cls-22" d="M16.09,149.34h0c0,.72.41,1.3.93,1.3H51.28c.51,0,.93-.58.93-1.3h0c0-.72-.42-1.3-.93-1.3H17C16.5,148,16.09,148.62,16.09,149.34Z"/><path class="cls-22" d="M16.25,152.56H30.68a.92.92,0,0,1,.92.92v11.91a.93.93,0,0,1-1,.93l-14.13-.39a.92.92,0,0,1-.89-.91l-.3-11.51A.92.92,0,0,1,16.25,152.56Z"/><path class="cls-22" d="M34.61,152.85h16.1a.72.72,0,0,1,.64.78h0a.72.72,0,0,1-.64.78H34.61a.72.72,0,0,1-.63-.78h0A.72.72,0,0,1,34.61,152.85Z"/><path class="cls-22" d="M34,157h0a.72.72,0,0,0,.63.78H50.72a.72.72,0,0,0,.63-.78v-.48a.71.71,0,0,0-.65-.78l-16.1.48A.72.72,0,0,0,34,157Z"/><path class="cls-3" d="M35.91,142.19l-4-6.73s-8.37,7.17-10.9,17.13l4.44,2.79C27.27,152.13,30.44,147.8,35.91,142.19Z"/><path class="cls-23" d="M27.16,170.17a1.07,1.07,0,0,1-1-.63,26.86,26.86,0,0,0-1.82-3.47,2.32,2.32,0,0,1,1.43,0c.91.21,1.68-.16,1.7-.67l-4.25-1.82c-.15-.43-.77-2.87,2.19-8.16L21,152.59a21.35,21.35,0,0,0,.36,12.15s.84,4.87,2.53,5.85,4.27-.4,4.27-.4Z"/><path class="cls-24" d="M44.85,123.32a22.3,22.3,0,0,1,1.62,5.32c.1,1.84.5,3-1.62,3.39A4.5,4.5,0,0,1,40,129.52s-1.51-2.81-1.17-4S44.85,123.32,44.85,123.32Z"/><path class="cls-25" d="M40.71,128.21H41s-1.1-2.26-.13-2.66,4.81-1.18,5.64-2.54a2.54,2.54,0,0,0-1-3.49.14.14,0,0,0-.18.07l-.09.17a.15.15,0,0,1-.27,0h0a.14.14,0,0,0-.25,0c-.26.41-.94,1.07-2.79,1.41-2.61.48-4.34,1.54-4.38,3.35a.14.14,0,0,1-.22.11c-.2-.11-.5-.17-.92.18-.71.6-.42,2.17,1.15,3.45a.14.14,0,0,1,0,.23c-.29.19-.71.63.39,1.22a2.89,2.89,0,0,0,2,.47.13.13,0,0,0,.11-.15l-.1-1.6a.15.15,0,0,1,.15-.15Z"/><path class="cls-26" d="M40.77,128.55s-.58-2.23-1.58-1.61.52,2.5,1.33,2.58Z"/><path class="cls-27" d="M61.39,119.52v2.53s2,2.61,4.72,2.71c0,0,2.36-.16,2.28-1.9l-3.77-.72a17.88,17.88,0,0,1-2-.7S62.27,119.6,61.39,119.52Z"/><path class="cls-6" d="M278.94,135.54s31.8-15.71,21.4-27.28-29.79-6.94-30.77,5.24S292.18,122.81,278.94,135.54Z"/><path class="cls-10" d="M297.65,111.57h-14a.32.32,0,0,1,0-.64h14a.32.32,0,1,1,0,.64Z"/><path class="cls-10" d="M279.45,111.57h-4.17a.32.32,0,0,1,0-.64h4.17a.32.32,0,1,1,0,.64Z"/><path class="cls-10" d="M298.12,114.41h-5.27a.32.32,0,0,1-.32-.32.32.32,0,0,1,.32-.32h5.27a.32.32,0,0,1,.32.32A.32.32,0,0,1,298.12,114.41Z"/><path class="cls-10" d="M285.12,114.41h-9.37a.32.32,0,0,1-.32-.32.33.33,0,0,1,.32-.32h9.37a.33.33,0,0,1,.32.32A.32.32,0,0,1,285.12,114.41Z"/><path class="cls-10" d="M298.59,117.26h-14a.33.33,0,0,1,0-.65h14a.33.33,0,0,1,0,.65Z"/><path class="cls-10" d="M281.08,117.26h-4.85a.33.33,0,0,1,0-.65h4.85a.33.33,0,0,1,0,.65Z"/><path class="cls-3" d="M149.85,214.83a1,1,0,0,1-1-.79l-16.56-87.66a1,1,0,0,1,.87-1.09,1.06,1.06,0,0,1,1.23.78l16.56,87.65a1,1,0,0,1-.87,1.1Z"/><path class="cls-3" d="M94,214.83a.75.75,0,0,1-.21,0,1,1,0,0,1-.83-1.12l19.52-86.51a1.07,1.07,0,0,1,1.25-.75,1,1,0,0,1,.84,1.12L95,214.07A1.05,1.05,0,0,1,94,214.83Z"/><path class="cls-3" d="M137.21,148H108.92a1,1,0,1,1,0-1.9h28.29a1,1,0,1,1,0,1.9Z"/><path class="cls-3" d="M136.7,148H109.43a1,1,0,1,1,0-1.9H136.7a1,1,0,1,1,0,1.9Z"/><path class="cls-3" d="M137.21,163.89H108.92a1,1,0,1,1,0-1.9h28.29a1,1,0,1,1,0,1.9Z"/><path class="cls-3" d="M139.78,163.89h-34.3a1,1,0,1,1,0-1.9h34.3a1,1,0,1,1,0,1.9Z"/><path class="cls-3" d="M137.21,179.74H108.92a1,1,0,1,1,0-1.9h28.29a1,1,0,1,1,0,1.9Z"/><path class="cls-3" d="M143.06,179.74H102a1,1,0,1,1,0-1.9h41.07a1,1,0,1,1,0,1.9Z"/><path class="cls-3" d="M137.21,195.59H98.69a1,1,0,1,1,0-1.9h38.52a1,1,0,1,1,0,1.9Z"/><path class="cls-3" d="M145.71,195.59h-47a1,1,0,1,1,0-1.9h47a1,1,0,1,1,0,1.9Z"/><path class="cls-28" d="M111.76,142.38a9.58,9.58,0,0,0-.87,4.14.51.51,0,0,0,.49.53h5.41a.32.32,0,0,0,.3-.42,8.65,8.65,0,0,0-3.41-4.53Z"/><path class="cls-29" d="M111.52,140.32l.31,2.56a.47.47,0,0,0,.42.42,4,4,0,0,0,1.14,0,.78.78,0,0,0,.65-.78V140Z"/><path class="cls-30" d="M125.12,142.1a7.59,7.59,0,0,0-1,3.81,1,1,0,0,0,1,.94h8.39a.4.4,0,0,0,.23-.73,36.35,36.35,0,0,0-7-4Z"/><path class="cls-31" d="M124.26,139.34l.65,3.16a.65.65,0,0,0,.77.51,2.45,2.45,0,0,0,.74-.31.75.75,0,0,0,.33-.76l-.67-3.83Z"/><path class="cls-6" d="M112.72,95.35a9.05,9.05,0,0,0-2.69,4.4c-.43,2.4,1.2,41.46,1.2,41.46s2.27.38,3.44-.33c0,0,1.38-25.35,2.44-31.2,0,0,5.52,26.25,7,31,0,0,2.18.27,2.88-.15,0,0-1.44-34-3.26-40.09Z"/><path class="cls-32" d="M117,108.85a.25.25,0,0,1-.23-.18l-.94-3.6-2-1.29a.23.23,0,0,1-.07-.33.24.24,0,0,1,.33-.07l2.08,1.33a.24.24,0,0,1,.1.14l1,3.7a.23.23,0,0,1-.17.29Z"/><path class="cls-33" d="M135.08,72.78c-9.54-.79-12,1.18-12,1.18l4.58,7.24S137,81,143.72,75.84a16.35,16.35,0,0,1-2.69-4A12.56,12.56,0,0,1,135.08,72.78Z"/><path class="cls-34" d="M150,58.78a.29.29,0,0,0-.55-.11l-1.22,2.6a2.7,2.7,0,0,0-.22,1.61l.43,1.51a2.61,2.61,0,0,1-.53,2.07A18.07,18.07,0,0,1,141,71.82a16.35,16.35,0,0,0,2.69,4,16.45,16.45,0,0,0,5.72-8,1.28,1.28,0,0,0,.9-1.27Z"/><path class="cls-3" d="M138.22,77c-3.36-3.62-9.76-5.26-13.46-5.93a3.41,3.41,0,0,0-3.8,2.16c-1.66,4.47-6.19,16.13-7.07,18.13-.72,1.64-1.48,3.25-2,4.25a1.2,1.2,0,0,0,.56,1.61,87.64,87.64,0,0,0,11,3.86.78.78,0,0,0,1-.75,2.41,2.41,0,0,1,.35-1.25l8.6-14.35c5.37,6,10.07,6.5,13.67,5.19a27.45,27.45,0,0,1-1.19-5.63C140.59,83.35,138.22,77,138.22,77Z"/><path class="cls-35" d="M154.73,83.27l-1-1.28c-3.11,2.14-5.72,2.64-7.85,2.28a27.45,27.45,0,0,0,1.19,5.63C151.87,88.19,154.73,83.27,154.73,83.27Z"/><path class="cls-36" d="M154.05,83.29l5.43.21,5-2.78c-.72-.45-4.77.47-4.77.47s-4.24-.65-5.38-.65c-.95,0-.82,1.37-.75,1.84,0,.09,0,.15,0,.15Z"/><path class="cls-37" d="M129.85,64.41l-2.86,7s3.29,2.27,5.93,2l1.43-6.27Z"/><path class="cls-38" d="M134.68,59.65c.07.09,2.07,7.33,2.07,7.33L132.6,68l-2.92-6.58S133.59,58.1,134.68,59.65Z"/><path class="cls-39" d="M131.24,62.46,132.51,66a.52.52,0,0,0,.06.13c.18.24.83,1,1.6.32a4.81,4.81,0,0,1,2-1.34.55.55,0,0,1,.61.38,23.88,23.88,0,0,1,.7,3.5.54.54,0,0,1-.43.57,17.49,17.49,0,0,1-4,.33.54.54,0,0,1-.45-.31c-.4-.87-1.61-3.49-2.06-4.17s-1.46-.62-1.9-.58a.56.56,0,0,1-.39-.13,1.38,1.38,0,0,1-.09-2.21.52.52,0,0,0,0-.76,1.38,1.38,0,0,1-.18-2.05,2,2,0,0,1,2.33-.56.52.52,0,0,0,.63-.23.43.43,0,0,1,.44-.21.53.53,0,0,0,.56-.53,1.58,1.58,0,0,1,1.22-1.66c1.82-.56,3,1.19,3.06,2.5s-1.89,1.81-3.07,1.72c-.9-.06-1.56.82-1.83,1.25A.57.57,0,0,0,131.24,62.46Z"/><path class="cls-40" d="M131,66.75s-.29-2.28-1.24-2.39-1.86.67-.92,1.94C130,67.89,131,66.75,131,66.75Z"/><path class="cls-3" d="M152.12,52.94l49.34-.31a2,2,0,0,1,2,1.92l-.2,25.59A2,2,0,0,1,201.2,82l-48.8-1.38a2,2,0,0,1-2-1.87l-.33-23.91A2,2,0,0,1,152.12,52.94Z"/><path class="cls-8" d="M201.26,80.47l-48.81-1.38a.36.36,0,0,1-.34-.33l-.32-23.91a.31.31,0,0,1,.1-.24.33.33,0,0,1,.24-.1l49.34-.31a.34.34,0,0,1,.35.34l-.21,25.59A.35.35,0,0,1,201.26,80.47Zm.21-26.11v.16l-49.33.31.29,23.92,0,0,48.81,1.38.23-25.61Z"/><path class="cls-8" d="M155,58.05h0a1.35,1.35,0,0,0,1.14,1.49h42a1.35,1.35,0,0,0,1.14-1.49h0a1.36,1.36,0,0,0-1.14-1.5h-42A1.36,1.36,0,0,0,155,58.05Z"/><path class="cls-41" d="M155.17,61.12h17.67A1.1,1.1,0,0,1,174,62.18v13.7A1.11,1.11,0,0,1,172.81,77L155.5,76.5a1.11,1.11,0,0,1-1.1-1L154,62.21A1.1,1.1,0,0,1,155.17,61.12Z"/><path class="cls-8" d="M177.66,61.46h19.72a.84.84,0,0,1,.78.89h0a.85.85,0,0,1-.78.9H177.66a.85.85,0,0,1-.78-.9h0A.84.84,0,0,1,177.66,61.46Z"/><path class="cls-8" d="M176.88,66.19h0a.85.85,0,0,0,.78.9h19.72a.85.85,0,0,0,.78-.9v-.55a.85.85,0,0,0-.8-.9l-19.72.56A.85.85,0,0,0,176.88,66.19Z"/><path class="cls-42" d="M199.12,115.08s-10.14,13,1.43,26.2l4.35-.41s-8.38-13.45-4.65-24.17l6.17.45,3.41-2.22Z"/><path class="cls-3" d="M169.21,85.89l48.16-2.49a1.55,1.55,0,0,1,1.77,1.27l1.08,29.16a1.56,1.56,0,0,1-1.68,1.41c-8.72.18-47.43,1-49.14,1.13S167.59,93,167.59,87.25A1.54,1.54,0,0,1,169.21,85.89Z"/><path class="cls-10" d="M170.17,115.31l0-.12c-.72-2.67-1.2-13.64-1.22-28a.34.34,0,0,1,.34-.31l48.17-2.49a.4.4,0,0,1,.24.07.32.32,0,0,1,.13.23l1.08,29.17a.32.32,0,0,1-.33.32h0c-6.94.15-41.88.89-48.24,1.1Zm47.28-30.57h0l-48.16,2.49h0c0,14.07.48,24.9,1.18,27.74,6.68-.21,41.21-.94,48.11-1.09h0l-1.09-29.15Z"/><path class="cls-8" d="M200.69,89.26h0c0,.74.3,1.32.6,1.31l13.39-.6c.3,0,.52-.62.49-1.36h0c0-.73-.3-1.32-.61-1.31l-13.38.6C200.87,87.91,200.65,88.52,200.69,89.26Z"/><path class="cls-8" d="M200.75,92.89h0a.62.62,0,0,0,.57.65l13.39-.6a.61.61,0,0,0,.52-.69h0a.63.63,0,0,0-.58-.65l-13.39.6A.61.61,0,0,0,200.75,92.89Z"/><path class="cls-8" d="M200.75,95.67h0a.62.62,0,0,0,.57.65l13.39-.6a.61.61,0,0,0,.52-.69h0a.63.63,0,0,0-.58-.65l-13.39.6A.61.61,0,0,0,200.75,95.67Z"/><path class="cls-41" d="M182.4,111.85h-.53a.64.64,0,0,1-.64-.56l-1.17-10.05a.68.68,0,0,1,.14-.48.67.67,0,0,1,.43-.24,4.46,4.46,0,0,0,1.76-.63,5.16,5.16,0,0,0,.84-1.7,11.27,11.27,0,0,1,1.88-3.56,6.52,6.52,0,0,0,1.25-4.7A2,2,0,0,1,187.57,88c.48-.19,1.44-.28,2.49,1.16,1.31,1.81.74,4.25.36,5.86a7.74,7.74,0,0,0-.24,1.27v0a7.88,7.88,0,0,0,2.7-.17l1.43-.2c1.66-.19,3.61-.12,4,2.16a2.47,2.47,0,0,1-.66,2.1,2.82,2.82,0,0,1,1.13,2,2.45,2.45,0,0,1-.58,1.59,2.36,2.36,0,0,1,.74,2.28,2.78,2.78,0,0,1-.88,1.54,1.45,1.45,0,0,1,.37,1c0,1.11-1.38,2.22-3.2,2.64C193,111.82,184.63,111.85,182.4,111.85Zm-1-10.17,1,8.89c2.24,0,10.45,0,12.49-.51,1.44-.33,2.19-1.09,2.2-1.43,0-.13-.24-.28-.6-.39a.64.64,0,0,1,.12-1.25,1.38,1.38,0,0,0,1-1.1,1.21,1.21,0,0,0-.77-1.37.64.64,0,0,1-.34-.53.61.61,0,0,1,.27-.56,1.68,1.68,0,0,0,.65-1.13c0-.6-.68-1.14-1.22-1.49a.65.65,0,0,1-.3-.56.66.66,0,0,1,.32-.54,1.46,1.46,0,0,0,.74-1.38c-.1-.63-.21-1.36-2.56-1.09l-1.38.2c-1.72.27-3.07.48-3.78-.16a1.25,1.25,0,0,1-.4-1,8.65,8.65,0,0,1,.27-1.49c.34-1.47.82-3.48-.15-4.82-.37-.51-.74-.79-1-.72a.78.78,0,0,0-.42.58,8,8,0,0,1-1.56,5.69,10.18,10.18,0,0,0-1.65,3.16A4.76,4.76,0,0,1,183.1,101,5.69,5.69,0,0,1,181.41,101.68Z"/><path class="cls-43" d="M204.67,178.66s8.22,17.91,12.53,25.33c0,0,.86,4.67,0,6.14l-.73.32,3.41-.1s.3-6.28.07-6.63a.88.88,0,0,0-.71-.33s-1.46-11.57-5.69-14l-4.1-14.11Z"/><path class="cls-44" d="M215,211.33c0,.09,2.66,0,4.11,0a1.14,1.14,0,0,0,1.1-.91l1.09-5.74a1,1,0,0,0-.78-1.2l-.61-.14a3.3,3.3,0,0,0-.6,2.32c.28,1.12.52,4-.17,4.38a10.43,10.43,0,0,1-2.69.39S215.07,210.59,215,211.33Z"/><path class="cls-45" d="M196.89,211.44a.3.3,0,0,0,.15.56c2.42,0,7.85-.1,8.33-.3s-.23-2.5-1.12-3.26l-4.94,1.62Z"/><path class="cls-46" d="M195.35,177.52s5.31,25.69,6.82,30.7l-3.56,2.23s1.78-.3,3.1-.39a4.57,4.57,0,0,0,2.54-1.62l-.43-.68s-1.33-25.55-1-28.45Z"/><path class="cls-47" d="M182.17,117.6s-.73,13.36,11.43,20.19l-2.92,6.68s-11-6.66-10.61-24.84a2.13,2.13,0,0,0-.52-1.42l-2.34-2.71a4.23,4.23,0,0,1-.9-3.77l.31-1.23a.65.65,0,0,1,.94-.4l.25.14a4.26,4.26,0,0,1,1.76,2l1.15,2.57a2.47,2.47,0,0,0,2.47,1.45l.71-.06Z"/><path class="cls-6" d="M193.18,136.79c2,.56,8.93,2.38,13.24,2.3L203.78,154l.21,2.43-8.62,0A67.53,67.53,0,0,0,191,148c-.56-.81-.14-1.78.17-2.71l-.43-.29a1.18,1.18,0,0,1-.47-1.34l2.1-6.42A.64.64,0,0,1,193.18,136.79Z"/><path class="cls-3" d="M194.68,155.13l.17,1.47s-2.44,7.3,1.21,24.33c0,0,7.92,2.25,14.42-3.12,0,0-1.84-16.08-2.34-16.83-2.49-3.73-4.15-4.54-4.15-4.54l-.08-1.61S197,156.09,194.68,155.13Z"/><path class="cls-48" d="M198.05,138s1.8-5.52,1.8-5.52l2.62.23,1,6.23S199.39,139.75,198.05,138Z"/><path class="cls-49" d="M201.84,123.82c-.17.11-5.6,2.35-4.43,8a1.06,1.06,0,0,0,.6.76,9.25,9.25,0,0,0,4.56.75c2.84-.29,4.7-5.25,4.62-6.69S203.57,122.74,201.84,123.82Z"/><path class="cls-50" d="M203.49,121.63c-.14,0-3.13,1.06-1.65,3.23s2,3.44,1.34,4.4-2.05.37-1.93,2.17a1,1,0,0,1-.43.92c-1.34.9-4.59,3.68-1.37,7.65a1,1,0,0,1,.12,1.13c-.95,1.7-2.93,6.66,4.25,9.42s9.67-1.92,10.39-3.78a1,1,0,0,1,1-.63c.78,0,1.88-.09,1.83-1.13a2.63,2.63,0,0,0-.89-1.66,1,1,0,0,1,.19-1.56,1.94,1.94,0,0,0,1-1.2c.43-1.59-.43-6.36-5-7.17a1.07,1.07,0,0,1-.84-.81v0a1,1,0,0,1,.36-1,2.56,2.56,0,0,0,.91-3.34,3.77,3.77,0,0,0-2.93-2.22,1,1,0,0,1-.81-1.19C209.29,123.35,209,120.91,203.49,121.63Z"/><path class="cls-6" d="M279.69,77.22l-8.28-3.57a2.14,2.14,0,0,0-2,.15l-7.63,4.79a2.14,2.14,0,0,1-3.26-2l.84-9a2.1,2.1,0,0,0-.75-1.83L251.71,60a2.13,2.13,0,0,1,.9-3.71l8.8-2A2.14,2.14,0,0,0,262.92,53l3.36-8.36a2.13,2.13,0,0,1,3.81-.29l4.6,7.75a2.1,2.1,0,0,0,1.69,1l9,.62a2.13,2.13,0,0,1,1.46,3.53l-6,6.77A2.1,2.1,0,0,0,280.4,66l2.2,8.75A2.13,2.13,0,0,1,279.69,77.22Z"/><path class="cls-2" d="M260.86,65.26A4.19,4.19,0,0,0,260,64.2l-4.52-3.78a1.61,1.61,0,0,1,.69-2.81l5.74-1.29a4.17,4.17,0,0,0,3-2.53l2.2-5.46a1.6,1.6,0,0,1,1.37-1,1.62,1.62,0,0,1,1.52.79l1.53,2.59-.4.23-1.53-2.59a1.16,1.16,0,0,0-2.07.16L265.26,54a4.64,4.64,0,0,1-3.3,2.8l-5.74,1.29a1.16,1.16,0,0,0-.49,2l4.51,3.77a4.41,4.41,0,0,1,1,1.19Z"/><path class="cls-2" d="M262.49,75.43a1.61,1.61,0,0,1-1.6-1.76l.42-4.49.45,0-.42,4.49a1.13,1.13,0,0,0,.55,1.09,1.14,1.14,0,0,0,1.22,0l5-3.13a4.69,4.69,0,0,1,4.32-.33l5.4,2.33a1.15,1.15,0,0,0,1.58-1.34L278,66.62a4.67,4.67,0,0,1,1-4.21L282.87,58a1.15,1.15,0,0,0-.79-1.91l-5.87-.4a4.74,4.74,0,0,1-1.74-.47l.2-.41a4.26,4.26,0,0,0,1.57.42l5.87.4a1.62,1.62,0,0,1,1.1,2.68l-3.89,4.42a4.21,4.21,0,0,0-.92,3.79l1.44,5.71a1.61,1.61,0,0,1-2.21,1.87l-5.4-2.33a4.25,4.25,0,0,0-3.89.29l-5,3.13A1.57,1.57,0,0,1,262.49,75.43Z"/><rect class="cls-2" x="271.48" y="50.69" width="0.46" height="1.78" transform="translate(11.64 145.65) rotate(-30.64)"/><path class="cls-51" d="M60.49,79.39l-3.76-1.62a1,1,0,0,0-.9.07L52.36,80a1,1,0,0,1-1.47-.91L51.27,75a1,1,0,0,0-.34-.84l-3.15-2.62a1,1,0,0,1,.41-1.69l4-.9a1,1,0,0,0,.69-.58l1.52-3.8a1,1,0,0,1,1.73-.13L58.22,68a1,1,0,0,0,.77.47l4.09.28a1,1,0,0,1,.66,1.61L61,73.42a1,1,0,0,0-.21.88l1,4A1,1,0,0,1,60.49,79.39Z"/><path class="cls-8" d="M51.94,74a1.9,1.9,0,0,0-.41-.48l-2.06-1.72a.74.74,0,0,1,.31-1.28l2.61-.58a1.89,1.89,0,0,0,1.35-1.15l1-2.48a.74.74,0,0,1,.63-.46.71.71,0,0,1,.68.36l.7,1.17-.18.11-.7-1.18a.53.53,0,0,0-.94.07l-1,2.49a2.12,2.12,0,0,1-1.5,1.27l-2.61.58a.52.52,0,0,0-.22.92l2,1.72a2.12,2.12,0,0,1,.46.53Z"/><path class="cls-8" d="M52.68,78.58a.73.73,0,0,1-.38-.11.72.72,0,0,1-.35-.69l.19-2,.21,0-.19,2a.5.5,0,0,0,.24.49.52.52,0,0,0,.56,0l2.27-1.42a2.12,2.12,0,0,1,2-.15l2.45,1.06a.53.53,0,0,0,.55-.08.51.51,0,0,0,.17-.53l-.65-2.59a2.1,2.1,0,0,1,.46-1.91l1.77-2a.53.53,0,0,0,.09-.55.51.51,0,0,0-.45-.32l-2.67-.19a2,2,0,0,1-.79-.21l.09-.18a2,2,0,0,0,.71.19l2.67.18a.72.72,0,0,1,.63.45.71.71,0,0,1-.13.76l-1.76,2a1.9,1.9,0,0,0-.42,1.72l.65,2.6a.73.73,0,0,1-1,.85L57.1,76.91a1.89,1.89,0,0,0-1.76.14l-2.27,1.42A.77.77,0,0,1,52.68,78.58Z"/><rect class="cls-8" x="56.76" y="67.34" width="0.21" height="0.81" transform="translate(-26.58 38.43) rotate(-30.64)"/><rect class="cls-3" x="281.29" y="191.02" width="1.67" height="18.05"/><path class="cls-3" d="M275.9,208.33h12.45a1.09,1.09,0,0,1,1.09,1.09v0a0,0,0,0,1,0,0H274.81a0,0,0,0,1,0,0v0a1.09,1.09,0,0,1,1.09-1.09Z"/><rect class="cls-3" x="273.22" y="186.97" width="18.38" height="5.21" rx="1.8"/><path class="cls-52" d="M269.8,179a14.43,14.43,0,0,0-5.27,2.25,1.39,1.39,0,0,0-.62,1.32,59.14,59.14,0,0,0,6.24,19.58,2.06,2.06,0,0,1,.2,1.44l-.79,3.66-1.46,1.37h3.76l2.5-6.77-1.07-.34a2,2,0,0,1-1.41-1.89l-.12-7.27a8.32,8.32,0,0,0-2-5.47l6-.29Z"/><path class="cls-53" d="M266.64,209.26c-.35.45,3.68,1,5.71.06,0,0,2.82-4.91,2.82-7.43,0,0-.22-.52-1.88-.4,0,0-.94,5.81-1.94,6.46s-2.8.07-2.8.07A5.8,5.8,0,0,0,266.64,209.26Z"/><path class="cls-54" d="M275,187c0-.06-6.46-.77-6.46-.77a14.8,14.8,0,0,1-.45,4.64c-.65,2.69-10.09,14.35-10.09,14.35l1,3.14a15.85,15.85,0,0,1-9,.54l6.14-3.68s5.74-19.56,9.26-23.05l6.44-2.23Z"/><path class="cls-2" d="M289.43,175.59s3.71,5.51,4,8-1,3.53-4.9,3.7-14.26.17-14.26.17l-8.86-7.57s6.45-2.3,8.13-3S289.43,175.59,289.43,175.59Z"/><path class="cls-55" d="M258.62,207.27a1.81,1.81,0,0,1,.35,2.18s-8.44,1.5-10.74.82c0,0,.48-1.08,3.06-2.32l-.19.15a.31.31,0,0,0,.2.55C253,208.55,256.52,208.24,258.62,207.27Z"/><path class="cls-6" d="M279.41,174.86A84.59,84.59,0,0,1,273,168a5.78,5.78,0,0,1-1-5.2,70.71,70.71,0,0,1,2.85-7.17c.24-.81,5.08-.78,5.08-.78s9.51,6.18,13.25,16.65l-4.2,1.3A48.59,48.59,0,0,0,284,166s4.25,5.62,4.4,7.91Z"/><path class="cls-56" d="M274.26,151.15c.05.17,1.32,4.35,1.42,4.44a7.12,7.12,0,0,0,4-.63l-2.13-4.46Z"/><path class="cls-57" d="M276.34,142.36a8.52,8.52,0,0,0-3.83,4.25c-1.55,3.3-.39,4.82,1.06,5a6.84,6.84,0,0,0,5.93-2C281.8,147.56,279.3,141.22,276.34,142.36Z"/><path class="cls-58" d="M278,147.93s1.72-4.82-2.55-4.88l-1,.7s-1.56-2.67,1-3.94a5.48,5.48,0,0,1,7.51,3.32c1.09,3.47.45,5.71-1.37,7.37s-2.57-.23-2.57-.23,1-1.55.58-2.38-1.33.17-1.33.17Z"/><path class="cls-59" d="M278.43,148.46s.87-2.48,2-1.49-.94,2.29-1.77,2.71Z"/><path class="cls-60" d="M270.63,175.16l3.17-3,4.38,1.85s4.36.67,6.86,0l2.5-.68,5.64-1.75.89,2.5a1.49,1.49,0,0,1-.55,1.73,9.6,9.6,0,0,1-1.43.89c-.74.33-18.32-.22-18.32-.22Z"/><path class="cls-61" d="M282.57,143.68a1,1,0,0,1,.58-1.63c2.51-.39,6.33,0,7.93,5.37,1.81,6,3,9.05,4.19,9.58a1,1,0,0,1,.05,1.81,4.19,4.19,0,0,1-2.61.09C283.48,156.87,285.79,147,282.57,143.68Z"/><path class="cls-6" d="M282.62,176.6h0l-18.39,0a.82.82,0,0,1-.82-.82.81.81,0,0,1,.82-.82l18.39,0a.82.82,0,0,1,0,1.64Z"/><path class="cls-6" d="M247.67,159.91H263a2.93,2.93,0,0,1,2.64,1.67l7.07,15h-19a1.76,1.76,0,0,1-1.65-1.12l-5.49-13.89A1.22,1.22,0,0,1,247.67,159.91Z"/><path class="cls-20" d="M258.45,167.6c.33,1,.09,2-.55,2.24s-1.41-.47-1.74-1.5-.09-2,.54-2.23S258.12,166.57,258.45,167.6Z"/><path class="cls-3" d="M308.32,177.27a.68.68,0,0,0-.16-.58.77.77,0,0,0-.59-.26H230.85a.88.88,0,0,0-.73.37.75.75,0,0,0-.06.79l.83,1.69a1.18,1.18,0,0,0,1.06.63h75.1a.86.86,0,0,0,.86-.67Z"/><path class="cls-3" d="M235.15,212.82a.58.58,0,0,1-.26,0,.7.7,0,0,1-.36-.91l14.12-33.58a.67.67,0,0,1,.89-.36.69.69,0,0,1,.35.9l-14.12,33.59A.67.67,0,0,1,235.15,212.82Z"/><path class="cls-3" d="M251.06,212.82a.67.67,0,0,1-.62-.41l-14.12-33.59a.69.69,0,0,1,.35-.9.67.67,0,0,1,.89.36l14.12,33.58a.7.7,0,0,1-.36.91A.58.58,0,0,1,251.06,212.82Z"/><path class="cls-3" d="M290.76,212.82a.65.65,0,0,1-.27,0,.7.7,0,0,1-.35-.91l14.12-33.58a.66.66,0,0,1,.88-.36.69.69,0,0,1,.35.9l-14.12,33.59A.66.66,0,0,1,290.76,212.82Z"/><path class="cls-3" d="M306.66,212.82a.67.67,0,0,1-.62-.41l-14.12-33.59a.69.69,0,0,1,.36-.9.66.66,0,0,1,.88.36l14.12,33.58a.7.7,0,0,1-.35.91A.65.65,0,0,1,306.66,212.82Z"/><path class="cls-3" d="M65.09,5a2.09,2.09,0,0,0,0-.24.64.64,0,0,0-.22-.52A18.6,18.6,0,0,0,56.2,0a.58.58,0,0,0-.58.24A13.29,13.29,0,0,1,57.2.58,19.17,19.17,0,0,1,65.09,5Z"/><path class="cls-3" d="M57.2.58A13.29,13.29,0,0,0,55.62.25a.57.57,0,0,0,0,.64,3.48,3.48,0,0,0,.27.39c.72.9,6.51,6.83,6.51,6.83a6.14,6.14,0,0,0,2.4-.1,12.09,12.09,0,0,0,.3-3A19.17,19.17,0,0,0,57.2.58Z"/><path class="cls-62" d="M64.87,11.2V7.67A.69.69,0,0,0,64.4,7a2.73,2.73,0,0,0-1.73,0,1,1,0,0,0-.63.86l-.27,3.3Z"/><path class="cls-3" d="M50.85,8.07a.82.82,0,0,0-.23-.34A46.34,46.34,0,0,0,45.16,9.4c-3.67,1.3-4.74,2.43-5,3a22,22,0,0,0,10.27.16l1-.47A19.4,19.4,0,0,0,50.85,8.07Z"/><path class="cls-3" d="M45.16,9.4a46.34,46.34,0,0,1,5.46-1.67A.71.71,0,0,0,50,7.58c-1.82.38-7.33,1.67-10.21,4a.46.46,0,0,0,.15.8l.16,0C40.42,11.83,41.49,10.7,45.16,9.4Z"/><path class="cls-63" d="M53.3,14.26l-2.16-2.58a.78.78,0,0,0-.87-.25,2.84,2.84,0,0,0-1.24.83.73.73,0,0,0-.11.83l1.57,3Z"/><path class="cls-2" d="M61.3,10a10.5,10.5,0,0,1,4.1,0S67.32,21.53,67,25.25L61.3,26.41S61.14,13.38,61.3,10Z"/><path class="cls-2" d="M84.65,30.23s-18.6,1-26.16.52a2.08,2.08,0,0,1-1.72-1.15c-1.62-3.24-6.48-13-6.9-13.89a9.58,9.58,0,0,1,3.43-1.88s6.89,7.67,7.18,11.58c0,0,16-4.59,17.53-4.55s6.41,2.2,6.41,2.2Z"/><path class="cls-64" d="M109.46,15.72s-.69-1.42-.09-2.16,2.72-3.07,2.72-3.07l.25-1.6.88,2.61-1.88,3.93S110.23,16.62,109.46,15.72Z"/><path class="cls-65" d="M114.24,22.33a29.94,29.94,0,0,0-2.9-6.9l-1.88.29.92,6.52C111.09,22.45,113,22.94,114.24,22.33Z"/><path class="cls-6" d="M115.45,28.67a38.22,38.22,0,0,0-1.21-6.34c-1.21.61-3.15.12-3.86-.09l.27,1.87-.71-2.52a14.65,14.65,0,0,0-5.25-7.68l-1.77-1.34c-1.74-1.32-4.51-.86-6.29.41-3.93,2.81-9.78,7.52-11.77,9.15a1.47,1.47,0,0,1-1.52.2L83,22.18a.45.45,0,0,0-.63.46l.85,7.74,13.52-.15c1.62,0,6.32-.17,7.06-1.61l1.25-3.07a24.41,24.41,0,0,0,8.71,4.7A1.41,1.41,0,0,0,115.45,28.67Z"/><path class="cls-66" d="M106.43,8.41l-4.16,4a.74.74,0,0,0,0,1c1.28,1.52,2.38,2.33,3.29,2.39a1.09,1.09,0,0,0,1-.51l2.21-3.49Z"/><polygon class="cls-67" points="114.35 28.31 117.92 26.92 122.08 30.23 114.64 30.25 114.35 28.31"/><path class="cls-68" d="M112.93,7.48s-.57,4-2.1,5.22-4.52.3-5.53-2.71l2-5.14Z"/><path class="cls-69" d="M107.09,8.18a.19.19,0,0,0,.25-.16,5.23,5.23,0,0,1,.48-1.59s-.15-.53,1.32.26,3.67,2,5,1.26,2.55-4.06-.8-3.43a.2.2,0,0,1-.23-.21,2,2,0,0,0-1.31-2.25,1.86,1.86,0,0,0-2.16.49.2.2,0,0,1-.31,0,2.27,2.27,0,0,0-2.81-.85c-1.2.53-1.38,1.27-1.36,1.73a.2.2,0,0,1-.28.19,1.19,1.19,0,0,0-1.53.45c-.78,1,.34,1.83.67,2.05a.19.19,0,0,1,.09.16,6.82,6.82,0,0,0,1.2,4,.19.19,0,0,0,.33-.06l.86-2a.2.2,0,0,1,.24-.11Z"/><path class="cls-70" d="M107.1,8.59s-.52-2.13-1.32-1.44.21,2.22,1.12,2.51Z"/><path class="cls-6" d="M101.12,17.6s.16-4.94-1.87-5c-2.52-.12-6.57,1.7-4.16,8.94,1.33,4,3.34,7,8.85,8.22a8.19,8.19,0,0,1,1.86-4.23A11.16,11.16,0,0,1,101.12,17.6Z"/><path class="cls-71" d="M105.55,25.5a.15.15,0,0,1-.11,0,10.73,10.73,0,0,1-4.52-7.84v0c0-1.32-.18-4.76-1.68-4.83a4.92,4.92,0,0,0-2.15.38.19.19,0,0,1-.26-.1.2.2,0,0,1,.1-.26,5.45,5.45,0,0,1,2.33-.42c2.15.11,2.07,4.85,2.06,5.23a10.33,10.33,0,0,0,4.35,7.55.2.2,0,0,1,0,.28A.21.21,0,0,1,105.55,25.5Z"/><path class="cls-72" d="M102.19,29.42h-.07c-4.57-1.58-6.17-4.7-7.22-7.85a16.78,16.78,0,0,1-.54-2,.2.2,0,0,1,.16-.23.2.2,0,0,1,.23.16,16.49,16.49,0,0,0,.53,2c1,3,2.56,6.08,7,7.6a.2.2,0,0,1-.06.38Z"/><path class="cls-73" d="M115.36,30.23V28.31a17.92,17.92,0,0,1-9.55-2.82,8.19,8.19,0,0,0-1.86,4.23A40.68,40.68,0,0,0,115.36,30.23Z"/><path class="cls-2" d="M108.48,30.89h0l17.07,0a.76.76,0,0,0,.76-.77.75.75,0,0,0-.76-.76l-17.07,0a.76.76,0,0,0,0,1.52Z"/><path class="cls-2" d="M140.94,15.39H126.72A2.71,2.71,0,0,0,124.27,17L117.7,30.89h17.67a1.66,1.66,0,0,0,1.53-1.05L142,17A1.14,1.14,0,0,0,140.94,15.39Z"/><path class="cls-2" d="M130.92,22.54c-.31,1-.08,1.89.51,2.08s1.32-.44,1.63-1.39.08-1.89-.51-2.08S131.23,21.58,130.92,22.54Z"/></g></g></svg>