<svg xmlns="http://www.w3.org/2000/svg" viewBox="0 0 238.63 220.47"><defs><style>.cls-1{fill:#1a2089;}.cls-2{fill:#4cc2fc;}.cls-3{fill:#b56cf7;}.cls-4{fill:#263a5a;}.cls-5{fill:#292f53;}.cls-6{fill:#fff;}.cls-7{fill:#e6b38e;}.cls-8{fill:#de9d85;}.cls-9{fill:#5d4efa;}.cls-10{fill:#4d878a;}.cls-11{fill:#006ae6;}.cls-12{fill:#00244f;}.cls-13{fill:#e2a428;}.cls-14{fill:#253f5d;}.cls-15{fill:#d88627;}</style></defs><title>qualified_candidates</title><g id="Layer_2" data-name="Layer 2"><g id="Layer_1-2" data-name="Layer 1"><path class="cls-1" d="M210.12,42.37h-.65l-.32.32v-.32H173.68V75.79H138.21v34.95H102.74v35H67.28v34.95H31.81v35.47H210.43ZM67.28,181.18h.26l-.26.26Z"/><polygon class="cls-2" points="236.79 220.47 204.48 120.01 206.32 120.01 238.63 220.47 236.79 220.47"/><polygon class="cls-2" points="220.08 220.47 187.77 120.01 189.61 120.01 221.92 220.47 220.08 220.47"/><polygon class="cls-2" points="214.69 146.1 214.69 147.6 197.37 147.59 197.08 146.09 214.69 146.1"/><polygon class="cls-2" points="211.11 136.37 211.11 137.87 193.79 137.86 193.5 136.36 211.11 136.37"/><polygon class="cls-2" points="208.15 126.63 208.15 128.13 190.84 128.12 190.54 126.63 208.15 126.63"/><polygon class="cls-2" points="217.84 155.96 217.84 157.46 200.53 157.45 200.23 155.95 217.84 155.96"/><polygon class="cls-2" points="220.8 165.82 220.8 167.32 203.49 167.31 203.19 165.81 220.8 165.82"/><polygon class="cls-2" points="223.86 176.06 224.56 177.56 207.25 177.55 206.95 176.05 223.86 176.06"/><polygon class="cls-2" points="227.11 186.3 227.81 187.8 210.5 187.79 210.2 186.29 227.11 186.3"/><polygon class="cls-2" points="230.15 196.32 230.85 197.82 213.53 197.81 213.24 196.31 230.15 196.32"/><polygon class="cls-2" points="232.67 206.55 233.37 208.05 216.05 208.04 215.76 206.54 232.67 206.55"/><polygon class="cls-3" points="192.32 6.56 199 17.44 211.09 20.36 203.09 30.28 203.76 42.48 192.14 38.14 180.47 42.35 181.28 30.16 173.39 20.15 185.52 17.36 192.32 6.56"/><polygon class="cls-3" points="152.48 40.13 159.16 51.01 171.25 53.93 163.25 63.85 163.93 76.05 152.3 71.71 140.63 75.91 141.44 63.73 133.55 53.71 145.68 50.93 152.48 40.13"/><polygon class="cls-3" points="117.89 75.31 124.56 86.19 136.66 89.11 128.66 99.03 129.33 111.23 117.7 106.89 106.03 111.09 106.84 98.91 98.96 88.89 111.08 86.11 117.89 75.31"/><polygon class="cls-3" points="82.28 110.17 88.96 121.05 101.05 123.97 93.05 133.9 93.72 146.09 82.1 141.76 70.42 145.96 71.24 133.77 63.35 123.76 75.48 120.97 82.28 110.17"/><polygon class="cls-3" points="48.82 144.67 55.5 155.55 67.59 158.47 59.59 168.39 60.26 180.59 48.64 176.25 36.96 180.46 37.78 168.27 29.89 158.25 42.02 155.47 48.82 144.67"/><path class="cls-4" d="M14.32,217H20.2c.78.08,1.65.3,1.79,1a3.62,3.62,0,0,1,.09.89c-.21.25-8,0-8,0l0,0A1.23,1.23,0,0,1,14.32,217Z"/><polygon class="cls-5" points="22.08 218.88 14.08 218.84 14.15 219.15 22.09 219.15 22.08 218.88"/><polygon class="cls-6" points="16.64 217 17.17 217 17.01 217.72 16.5 217.72 16.64 217"/><polygon class="cls-6" points="17.78 217 18.31 217 18.14 217.72 17.63 217.72 17.78 217"/><path class="cls-7" d="M13.91,215.05l.41,2h0a1.91,1.91,0,0,0,1.57,0l.09,0,.29-1.95Z"/><path class="cls-5" d="M.58,217H6.46c.78.08,1.65.3,1.8,1a3.9,3.9,0,0,1,.08.89c-.21.25-8,0-8,0l0,0A1.22,1.22,0,0,1,.58,217Z"/><polygon class="cls-5" points="8.34 218.88 0.34 218.84 0.41 219.15 8.35 219.15 8.34 218.88"/><polygon class="cls-6" points="2.91 217 3.44 217 3.27 217.72 2.76 217.72 2.91 217"/><polygon class="cls-6" points="4.04 217 4.57 217 4.41 217.72 3.89 217.72 4.04 217"/><path class="cls-7" d="M.84,215.05l-.26,2h0a1.93,1.93,0,0,0,1.58,0l.09,0,.94-1.95Z"/><path class="cls-7" d="M9.61,149.21l-4.84,3.16,1.49,3.82c0,.06,0,.11.07.16h.43a3.71,3.71,0,0,1,3.08,1.87,6.37,6.37,0,0,0,2.29-.6,2.31,2.31,0,0,0,1.07-.81C13.72,154.09,9.61,149.21,9.61,149.21Z"/><path class="cls-7" d="M15.76,150.2s.6,5.62-.6,9.2c.56.48,2.59,2.66,3.23-.17s-.72-10-.72-10Z"/><polygon class="cls-1" points="12.86 149.8 11.72 150.54 12.13 151.39 13.35 150.85 12.86 149.8"/><path class="cls-1" d="M12.19,150.83c.11.26.12.5,0,.55s-.28-.13-.4-.39-.12-.51,0-.55S12.08,150.57,12.19,150.83Z"/><path class="cls-1" d="M26.6,145.66v0a11.7,11.7,0,0,0-1.11-2,9.55,9.55,0,0,1-1.05-1.73l-11.76,7.7.76,1.44L26.6,146.2A4.86,4.86,0,0,1,26.6,145.66Z"/><polygon class="cls-8" points="8.54 158.21 8.12 160.85 11.86 160.85 12.13 157.61 8.54 158.21"/><path class="cls-7" d="M18.2,164.76s4.42-1.4,5.81-3.3-1-12.25-1-12.25l.3-1.86a1.74,1.74,0,0,0-1.7-2H20.47a.68.68,0,0,0-.62,1l1.55,3.5s1.17,7.84-.46,8.44a18.64,18.64,0,0,1-4.15.86Z"/><path class="cls-5" d="M9.9,158.21l-1.14-2.52.74-.47a1.37,1.37,0,0,0,.58-1.62l-.81-2.38s2.3-.28,2.23-2.43c0-1.1-1.52-1.11-1.52-1.11a2.2,2.2,0,0,1-1.86,1.11,3.66,3.66,0,0,0-3.39,2.1c-.76,1.32-.43,3.38.23,4.93a4.49,4.49,0,0,0,3.58,2.39Z"/><path class="cls-1" d="M5.41,179.39a82.74,82.74,0,0,0,1.39,11.2,10,10,0,0,1-.34,5.16C3.82,203.59.12,215.38.12,215.38H3.41s7.46-13.94,9.38-20.85,2.25-9.1,2.25-9.1l-2.29-6Z"/><path class="cls-7" d="M8.15,154.51a1.09,1.09,0,0,0,.61,1.18c.48.25,1,.13,1.11-.27a1.07,1.07,0,0,0-.62-1.17C8.78,154,8.29,154.12,8.15,154.51Z"/><path class="cls-9" d="M16.14,179.39H5.41V165.62a5.83,5.83,0,0,1,5.29-5.81l7.47-.91s.87,1.35,3.32,4.47A25.42,25.42,0,0,1,15.15,166Z"/><path class="cls-1" d="M5.41,179.39s1.51,5.49,7.1,11.64a7.16,7.16,0,0,1,2.09,5.59l-1.15,18.76h3.34S20.86,199.8,20,192.12a35.33,35.33,0,0,0-3.84-12.73Z"/><path class="cls-1" d="M24.8,144.38c.58,1.2,1.36,2,1.75,1.83s.24-1.31-.34-2.5-1.36-2-1.75-1.83S24.22,143.19,24.8,144.38Z"/><path class="cls-7" d="M15.3,147.91l.1.05a1.55,1.55,0,0,0,1.12.07l.07,0a2.06,2.06,0,0,0,1.27-1.29h0a.37.37,0,0,0-.43-.48l-.74.16a1.11,1.11,0,0,0-.71.48Z"/><path class="cls-7" d="M163.35,30.62l-.26.53a2.17,2.17,0,0,0,0,1.86h0a.62.62,0,0,0,.54.36s2.79.79,2.58,0A1.94,1.94,0,0,0,165,32.29l.39-1.32Z"/><path class="cls-10" d="M169.45,17a29.45,29.45,0,0,1-2.59,3.2c-.35.38-.73.81-1.15,1.21l.66.62-3,8.55,2.06.35a102.24,102.24,0,0,0,6.18-9.39C172.11,20.5,171,18.76,169.45,17Z"/><polygon class="cls-8" points="160.02 7.93 160.66 10.74 157.63 11.24 157.69 6.75 160.02 7.93"/><path class="cls-7" d="M161,8.33a1.55,1.55,0,0,0,.83-.31c.83-1.61-.83-5.47-.83-5.47l-1.72-.48-1.91,1.55.21,2.7a2.19,2.19,0,0,0,1.16,1.73h0A4.25,4.25,0,0,0,161,8.33Z"/><path class="cls-5" d="M157.9,5.1c.06-.47-.13-1.5.34-1.48s1.5-.08,1.88-.13c.92-.12,2.52-.68,2.34-2.08A1.88,1.88,0,0,0,161.17.06a1.91,1.91,0,0,0-1.33.15c-1,.48-2.22,1.43-2.77,1.39-.92-.07-1.76.57-1.65,1.34a7.74,7.74,0,0,0,1.2,2.72,7.75,7.75,0,0,0,1.07,1.09h0Z"/><path class="cls-7" d="M157,5.32a.7.7,0,0,1,.87,0c.3.19.39.51.21.71a.7.7,0,0,1-.87,0C156.89,5.85,156.8,5.52,157,5.32Z"/><path class="cls-1" d="M159.19,10.56c5.89,0,5.84,8.79,5.84,8.79l-.16,12.17h-12l-.21-12.94S153.31,10.56,159.19,10.56Z"/><path class="cls-1" d="M152.85,18.74s-7-.61-8.59-3.66S156,4.53,156,4.53L157.19,6s-3.88,5.59-7.19,6.87c3.13-1.06,6.89-1.87,6.89-1.87l-1.48,6.39Z"/><path class="cls-8" d="M156,4.53a4.29,4.29,0,0,1,3-1.79,16.33,16.33,0,0,0,3-.51.22.22,0,0,1,.29.25C162,3.86,161.52,4,158.92,5c-1.54.63-1.84,1.33-1.84,1.33Z"/><path class="cls-5" d="M166.61,72.84a8.58,8.58,0,0,0,3.54,1.62c.54.14,1.12,0,1.12.85h-3l-2.48-.43v.43h-1.34s-.37-2.19.41-2.47Z"/><path class="cls-7" d="M166.35,71.27l.26,1.57h0a1.5,1.5,0,0,1-1.64,0l-.09,0,.14-1.57Z"/><path class="cls-2" d="M164.87,31.52l1.9,40.27h-2.24S161,59.31,161,53.59a6,6,0,0,0-.22-1.69c-2-7.13-3.9-20.38-3.9-20.38Z"/><path class="cls-5" d="M156.41,72.84A8.58,8.58,0,0,0,160,74.46c.54.14,1.12,0,1.12.85h-3l-2.48-.43v.43h-1.34s-.37-2.19.41-2.47Z"/><path class="cls-7" d="M156.15,71.27l.26,1.57h0a1.48,1.48,0,0,1-1.63,0l-.1,0,.14-1.57Z"/><path class="cls-2" d="M152.9,31.52s-1.08,11.05.61,18.43a8,8,0,0,1,.19,2.54,71,71,0,0,0,.65,19.3h2l5.93-40.27Z"/><polygon class="cls-6" points="156.89 11.04 157.52 9.78 160.44 9.78 161.11 10.89 156.89 11.04"/><path class="cls-1" d="M161.11,10.89c3.66,0,11.82,7.92,10.48,10.69A102.24,102.24,0,0,1,165.41,31l-2.06-.35,3-8.55-5.6-5.29S157.46,10.89,161.11,10.89Z"/><path class="cls-11" d="M164.75,30.72A2,2,0,0,1,165,30s0-.05,0-.07l.14-10.62a15.75,15.75,0,0,0-.58-4c-.07.1-.13.21-.2.3a16.54,16.54,0,0,1,.52,3.72Z"/><path class="cls-7" d="M84.73,75.7l1.55-1.3a.48.48,0,0,0,.17-.46l-.06-.42a.52.52,0,0,0-.21-.33L84.57,72a.53.53,0,0,0-.63,0l-.19.16a.51.51,0,0,0-.17.34L83.34,75Z"/><path class="cls-8" d="M83.34,75l-.29-1.77a.49.49,0,0,1,.52-.56l.77.05c.21,0,.69,1,.69,1s-.62.54-1-.43a.86.86,0,0,1-.39.07,2.18,2.18,0,0,1,.66,2.09Z"/><path class="cls-1" d="M85.05,75.74s-3.63,9.83-5.65,13.39-8.32,9.36-8.32,9.36l-2.92-7.94s5.65-2.76,8.45-5.7,6.56-10.19,6.56-10.19Z"/><path class="cls-7" d="M52.18,69.93l-.9-1.81a.5.5,0,0,1,0-.5l.23-.35a.5.5,0,0,1,.31-.22l1.95-.43a.51.51,0,0,1,.57.27l.11.23a.5.5,0,0,1,0,.38l-.78,2.38Z"/><path class="cls-7" d="M53.72,69.88l1-1.5a.48.48,0,0,0-.25-.72l-.73-.27c-.19-.06-1,.67-1,.67s.35.74,1.06,0a.81.81,0,0,0,.32.22,2.2,2.2,0,0,0-1.44,1.65Z"/><path class="cls-9" d="M42,133.14a10.84,10.84,0,0,0-1.7,4.23c-.15.65,0,1.35-.89,1.35v-3.57l.45-3H39.4v-1.61s2.29-.45,2.59.49Z"/><path class="cls-9" d="M43.64,133l-1.65.18h0a2,2,0,0,1-.06-2l.06-.11,1.65-.67Z"/><path class="cls-9" d="M60.42,107.18a38,38,0,0,0-1.58,13.74,3.75,3.75,0,0,1-3.09,4c-5.81,1.1-12.44,5.35-12.44,5.35v3s17.95-1.62,21.69-4.18,5.51-19.25,5.51-19.25Z"/><path class="cls-1" d="M68.87,89.2c4.07,2.69,2.21,19.25,2.21,19.25L58.66,107,60,94.72s-5.66-6.89-6.73-11.93a116.23,116.23,0,0,1-1.62-13H54s2.56,10.36,4.17,13,7,6.34,7,6.34Z"/><path class="cls-6" d="M71,108.19c.18-1.79,1.19-13-1-17.41l.15-.29c2.46,4.6,1.23,16.63,1.1,17.89Z"/><path class="cls-9" d="M85.21,142.5a10.28,10.28,0,0,0,4.23,1.95c.65.17,1.35,0,1.35,1H87.22l-3-.52v.52H82.64s-.45-2.63.49-3Z"/><path class="cls-9" d="M85,140.62l.18,1.88h0a1.81,1.81,0,0,1-2,.07l-.11-.07-.67-1.88Z"/><path class="cls-8" d="M66.15,89l.54-2.31,2.66.29.2,2.75,0,.06A7.6,7.6,0,0,0,66.15,89Z"/><path class="cls-7" d="M65.23,82.11l.7,3.64a.57.57,0,0,1,.61.65.63.63,0,0,1,.1.27A4.29,4.29,0,0,0,70,87c2.26-.77.23-5.06.23-5.06Z"/><path class="cls-5" d="M64.45,85a2.14,2.14,0,0,0-.73-.93c-1.47-1-.41-1.95,0-2.28s.21-1.18.74-1.73c.82-.84,1.8-.23,2.37-.42s.82-1,1.73-.72.9,1,1.21,1.22.71-.61,1.66.17c1.45,1.17-.94,2.09-.94,2.09a4.56,4.56,0,0,1-3.17.3.58.58,0,0,0-.66.27c-.35.64.07,3.7.07,3.7L66,86.29A1.69,1.69,0,0,1,64.45,85Z"/><path class="cls-7" d="M65.89,85.14a.56.56,0,0,0,.77.2.56.56,0,0,0,.21-.78.57.57,0,1,0-1,.58Z"/><path class="cls-9" d="M71.08,108.45s9,8.56,9.8,10.66,4.17,21.66,4.17,21.66H82.49s-5.13-8.34-6.7-14.89A6.74,6.74,0,0,0,71.23,121c-14.16-4.38-12.57-14-12.57-14Z"/><polygon class="cls-12" points="69.5 88.7 69.55 89.96 65.44 89.14 66.3 87.77 69.5 88.7"/><path class="cls-12" d="M227,133.31l-1.44,3.8a1.27,1.27,0,0,0,.41,1.49,4.58,4.58,0,0,0,.75.34c.26-.05,1.92-5.19,1.92-5.19v0A1.36,1.36,0,0,0,227,133.31Z"/><polygon class="cls-12" points="226.76 138.94 228.68 133.75 228.94 133.89 227 139.04 226.76 138.94"/><polygon class="cls-12" points="226.46 134.81 226.34 135.16 227 135.28 227.13 134.95 226.46 134.81"/><polygon class="cls-12" points="226.19 135.55 226.06 135.89 226.72 136.02 226.85 135.69 226.19 135.55"/><path class="cls-12" d="M225.44,132.41l1.6.9h0a1,1,0,0,1-.36,1l-.05,0-1.76-.45Z"/><path class="cls-2" d="M212.7,108.39a9.15,9.15,0,0,1,2,4.7c.27,2-.47,5.16-.56,7.64a6.42,6.42,0,0,0,2.75,5.46l8.56,6.22-.57,1.52s-11.72-1.76-14.79-7-3.8-17.12-3.8-17.12Z"/><path class="cls-7" d="M219.52,101.92l4.4,9.83a5.9,5.9,0,0,1,2.59.91,1.86,1.86,0,0,1,.28,1.69.6.6,0,0,1-1,.35,4.26,4.26,0,0,0-1.52-1,1.81,1.81,0,0,1-1.41-.95l-6.32-9.9Z"/><path class="cls-7" d="M197.32,82.16l-2.25-1.93,1.74-9.53,2.72-1.38a.78.78,0,0,0-1-.3,2.5,2.5,0,0,1-1.23.09s-.51-.63.45-1.06c.54-.36.9,0,2.47-.06,0-.24-2.06-.81-2.06-.81-.65-.21-2.29,1.06-2.29,1.06a1.24,1.24,0,0,0-.21.52l-.26,1.76s-3.5,9.59-3.5,10.62,2,2.42,2,2.42Z"/><path class="cls-2" d="M209.45,109.38s1.35,1.63.54,5.43c-.52,2.42-2.8,5.48-4.33,7.58a6.65,6.65,0,0,0-.8,5.23c1.26,7-.75,15.5-.75,15.5h-1.63s-2.44-12.48-3.16-21.26a25.21,25.21,0,0,1,2.8-13.83Z"/><rect class="cls-13" x="195.18" y="67.99" width="5.17" height="1.37" transform="translate(-7.87 29.43) rotate(-8.35)"/><rect class="cls-6" x="194.47" y="68.82" width="1.37" height="0.47" transform="translate(155.15 272.17) rotate(-98.35)"/><path class="cls-5" d="M195.11,69.75c-.37.06-.69,0-.78-.58s.21-.73.58-.78Z"/><polygon class="cls-6" points="200.42 68.98 201.41 68.38 201.34 67.89 200.22 67.63 200.42 68.98"/><polygon class="cls-14" points="201.41 68.38 201.85 68.07 201.34 67.89 201.41 68.38"/><rect class="cls-15" x="195.4" y="68.82" width="4.99" height="0.31" transform="matrix(0.99, -0.14, 0.14, 0.99, -7.91, 29.42)"/><rect class="cls-15" x="195.31" y="68.17" width="4.99" height="0.31" transform="translate(-7.82 29.4) rotate(-8.34)"/><path class="cls-9" d="M213.44,90.09c2.91,2.14,6.33,12.41,6.33,12.41l-2.55,1.43-4.16-5.7a55.59,55.59,0,0,0,.59,11.67c-.45,1.9-2.61,1.68-6.1,1a17.26,17.26,0,0,1-5.79-2.17s-.15-9.16-.6-14,.44-5.37-.79-5.21C197.64,88,193.16,83,193.16,83l4.16-.81,9,5.25A38.85,38.85,0,0,1,213.44,90.09Z"/><path class="cls-7" d="M208.37,77.94l-2.16,2.14a3.73,3.73,0,0,0-1,3.47l.26,1.14Z"/><path class="cls-5" d="M211,77.14c5.25,0,3,10.07,3,10.07s-.94,6.53-3,9.15c-1.8,2.27-5.36,1.59-7,.5a6.51,6.51,0,0,0-2.72-1c-1.43-.17-3.13-.8-3.13-3.38,0-2.43,2.9-4.3,4.8-5.64a6.32,6.32,0,0,0,2.48-3.66C206,80.69,207.46,77.14,211,77.14Z"/><path class="cls-12" d="M203.83,144.93h-4.07c-.54.08-1.14.28-1.24.91a4.88,4.88,0,0,0-.06.82c.14.23,5.54,0,5.54,0l0,0A1.37,1.37,0,0,0,203.83,144.93Z"/><polygon class="cls-12" points="198.46 146.65 204 146.62 203.95 146.91 198.45 146.91 198.46 146.65"/><polygon class="cls-12" points="202.22 144.92 201.85 144.92 201.97 145.59 202.32 145.59 202.22 144.92"/><polygon class="cls-12" points="201.44 144.92 201.07 144.92 201.18 145.59 201.54 145.59 201.44 144.92"/><path class="cls-12" d="M204.11,143.12l-.28,1.81h0a1,1,0,0,1-1.09,0l-.06,0-.2-1.81Z"/><path class="cls-7" d="M198.56,69a.78.78,0,0,1,1,.3l-1.81.92-.07,0a8.75,8.75,0,0,0-1.2-.44A15.17,15.17,0,0,1,198.56,69Z"/><path class="cls-8" d="M148.81,194.72a91.53,91.53,0,0,1-.15,22.85c0-.11-1.26,0-1.26,0s-1.74-13.7-2.15-18.27,0-4.88,0-4.88S147.23,183.45,148.81,194.72Z"/><polygon class="cls-9" points="149.22 165.64 153.07 168.1 154.7 164.71 149.72 159.01 149.22 165.64"/><polygon class="cls-7" points="128.88 143.08 133.6 155.41 136.61 153.16 129.88 141.82 128.88 143.08"/><path class="cls-7" d="M128.61,138.89a1.94,1.94,0,0,1,.69,1.21l.58,1.72-.18.32-.82.94a1.17,1.17,0,0,0-.32-.64L127.28,141s-2.11-2.46-.14-3.29c-1.16-2.28-.33-2.22-.33-2.22l1,1.95Z"/><path class="cls-7" d="M128.31,139.34s.43-.4.05-1.35.19-.88.19-.88,1.58,3.71,1.07,4.13S128.31,139.34,128.31,139.34Z"/><path class="cls-9" d="M142.41,157.94l-1.42.11-4.8-5.59-2.59,2.95a78.14,78.14,0,0,0,5.86,9.13c.2,1,1.23,10.46,1.23,10.46H149s-1.33-7,1-10.86S142.41,157.94,142.41,157.94Z"/><path class="cls-7" d="M145.13,194.72a91,91,0,0,1-.15,22.85c0-.11-1.25,0-1.25,0s-1.74-13.7-2.15-18.27,0-4.88,0-4.88S143.56,183.45,145.13,194.72Z"/><path class="cls-7" d="M142.1,149.24l4.8,1.68-.48,3.57a.8.8,0,0,1,0,.15l-.27.06H146a3.28,3.28,0,0,0-2.24,2.24,5.6,5.6,0,0,1-2.08,0,2.21,2.21,0,0,1-1.09-.47C139.61,154.26,142.1,149.24,142.1,149.24Z"/><path class="cls-5" d="M142,152.25a3.18,3.18,0,0,1,.1,2.76,4.6,4.6,0,0,0-.16,3.77,5,5,0,0,0,1.75,1.59,2.72,2.72,0,0,1,1.28,2c.1,1.16.21,2.59,1.21,2.94,2.89,1,4,.9,4.34-1.52a4.93,4.93,0,0,0-.25-2.36,4.22,4.22,0,0,1,.09-3.16,5.59,5.59,0,0,0,.55-1.89,4,4,0,0,0-1-2,4,4,0,0,1-.85-2.9,3.73,3.73,0,0,0-1.11-3.28c-2-1.69-6.37,1-6.37,1A4.23,4.23,0,0,0,142,152.25Z"/><path class="cls-7" d="M154.7,164.71l1.85,1.92c1.23,1.27,1.61,3,.13,4l-6,4.8.55,1a2.55,2.55,0,0,1-.22,2.74l-.64.84-1.41-4.86,4.38-5.48a1,1,0,0,0-.23-1.63h0Z"/><path class="cls-2" d="M140.69,175a20.28,20.28,0,0,0-1.22,6.37c0,1.76,1.52,15,1.52,15h7.93c-.54-9.8,2.43-11,2.43-15.24,0-3-2.34-6.16-2.34-6.16Z"/><path class="cls-5" d="M148.66,216.09a1.47,1.47,0,0,1,.56,1.24c-.12.69-.3,2.32-.3,2.32h-.71l0-1.52c0-.1-1.53,1.52-1.79,1.52h-3.77s-.25-1,2-1.35A8.17,8.17,0,0,0,148.66,216.09Z"/><path class="cls-4" d="M144.63,216.09a1.47,1.47,0,0,1,.57,1.24c-.13.69-.31,2.32-.31,2.32h-.71l0-1.52c0-.1-1.53,1.52-1.78,1.52h-3.77s-.25-1,2-1.35A8.17,8.17,0,0,0,144.63,216.09Z"/></g></g></svg>