<svg xmlns="http://www.w3.org/2000/svg" viewBox="0 0 395.01 182.51"><defs><style>.cls-1{isolation:isolate;}.cls-2{fill:#4cc2fc;}.cls-3{fill:#1a2089;}.cls-19,.cls-4{fill:#d9e4fc;}.cls-5{fill:#29abe2;}.cls-6{fill:#6e83b9;}.cls-7{fill:#5d4efa;}.cls-8{fill:#74b7f7;}.cls-20,.cls-9{fill:#fff;}.cls-10{fill:#95acdf;}.cls-11{fill:#343942;}.cls-12{fill:#bec9e0;}.cls-13{fill:#c4d4f5;}.cls-14{fill:#b9ceea;}.cls-14,.cls-19{opacity:0.5;mix-blend-mode:multiply;}.cls-15{fill:#e7ae9e;}.cls-16{fill:#006ae6;}.cls-17{fill:#263243;}.cls-18{fill:#00244f;}.cls-20{opacity:0.3;}.cls-21{fill:#c58170;}.cls-22{fill:#3d4a5d;}.cls-23{fill:#637bbf;}.cls-24{fill:#5b9fbe;}.cls-25{fill:#7f9ffb;}.cls-26{fill:#4b59ab;}</style></defs><title>job_board</title><g class="cls-1"><g id="Layer_2" data-name="Layer 2"><g id="Layer_1-2" data-name="Layer 1"><path class="cls-2" d="M69.19,6.46H294.87a8,8,0,0,1,8,8V175a0,0,0,0,1,0,0H61.21a0,0,0,0,1,0,0V14.44a8,8,0,0,1,8-8Z"/><path class="cls-3" d="M76.24,6.46H301.92a8,8,0,0,1,8,8V175a0,0,0,0,1,0,0H68.26a0,0,0,0,1,0,0V14.44a8,8,0,0,1,8-8Z"/><path class="cls-4" d="M309.89,175.28a.23.23,0,0,1-.23-.23V14A7.27,7.27,0,0,0,302.4,6.7H75.76a.24.24,0,0,1,0-.47H302.4A7.74,7.74,0,0,1,310.13,14V175.05A.23.23,0,0,1,309.89,175.28Z"/><path class="cls-5" d="M73.91,160V14a1.85,1.85,0,0,1,1.85-1.85H302.4A1.85,1.85,0,0,1,304.25,14V160Z"/><path class="cls-3" d="M120.6,182.51H354.16a7.46,7.46,0,0,0,7.46-7.46h0a7.46,7.46,0,0,0-7.46-7.46H120.6a7.46,7.46,0,0,0-7.46,7.46h0A7.46,7.46,0,0,0,120.6,182.51Z"/><path class="cls-2" d="M61.21,175.05a7.46,7.46,0,0,1,7.46-7.46h103.7a7.46,7.46,0,1,1,0,14.92H68.67A7.46,7.46,0,0,1,61.21,175.05Z"/><path class="cls-6" d="M85.1,177.18h8.69a2.13,2.13,0,0,0,2.12-2.13h0a2.12,2.12,0,0,0-2.12-2.13H85.1A2.12,2.12,0,0,0,83,175.05h0A2.13,2.13,0,0,0,85.1,177.18Zm16.27-2.13h0a2.14,2.14,0,0,0,2.13,2.13h8.68a2.13,2.13,0,0,0,2.13-2.13h0a2.13,2.13,0,0,0-2.13-2.13H103.5A2.13,2.13,0,0,0,101.37,175.05ZM76,172.92a2.13,2.13,0,1,0,2.13,2.13A2.12,2.12,0,0,0,76,172.92Z"/><rect class="cls-7" x="73.91" y="31.6" width="230.35" height="14.25"/><path class="cls-8" d="M94,28.06A6.06,6.06,0,1,1,100.06,22,6.07,6.07,0,0,1,94,28.06Zm0-11.64A5.59,5.59,0,1,0,99.59,22,5.59,5.59,0,0,0,94,16.42Z"/><path class="cls-9" d="M193.14,26.52h-84A4.52,4.52,0,0,1,104.59,22h0a4.52,4.52,0,0,1,4.52-4.52h84A4.53,4.53,0,0,1,197.66,22h0A4.52,4.52,0,0,1,193.14,26.52Z"/><path class="cls-10" d="M193.14,26.52H175.8v-9h17.34A4.53,4.53,0,0,1,197.66,22h0A4.52,4.52,0,0,1,193.14,26.52Z"/><path class="cls-11" d="M267,22.24H234.4a.23.23,0,0,1-.23-.24.23.23,0,0,1,.23-.23H267a.23.23,0,0,1,.24.23A.24.24,0,0,1,267,22.24Z"/><path class="cls-11" d="M281.56,22.24H269.37a.23.23,0,0,1-.23-.24.23.23,0,0,1,.23-.23h12.19a.23.23,0,0,1,.23.23A.23.23,0,0,1,281.56,22.24Z"/><path class="cls-11" d="M290.78,25.12A3.12,3.12,0,1,1,293.9,22,3.12,3.12,0,0,1,290.78,25.12Zm0-5.76A2.65,2.65,0,1,0,293.43,22,2.65,2.65,0,0,0,290.78,19.36Z"/><path class="cls-12" d="M89.62,40.4a1.68,1.68,0,1,1,1.67-1.68A1.68,1.68,0,0,1,89.62,40.4Zm0-2.88a1.21,1.21,0,1,0,1.2,1.2A1.21,1.21,0,0,0,89.62,37.52Z"/><path class="cls-12" d="M121,39H93.41a.24.24,0,0,1-.24-.24.23.23,0,0,1,.24-.23H121a.23.23,0,0,1,.24.23A.24.24,0,0,1,121,39Z"/><path class="cls-12" d="M136.47,40.4a1.68,1.68,0,1,1,1.68-1.68A1.68,1.68,0,0,1,136.47,40.4Zm0-2.88a1.21,1.21,0,1,0,1.21,1.2A1.2,1.2,0,0,0,136.47,37.52Z"/><path class="cls-12" d="M167.88,39H140.26a.23.23,0,0,1-.23-.24.23.23,0,0,1,.23-.23h27.62a.23.23,0,0,1,.23.23A.23.23,0,0,1,167.88,39Z"/><path class="cls-12" d="M183.33,40.4A1.68,1.68,0,1,1,185,38.72,1.68,1.68,0,0,1,183.33,40.4Zm0-2.88a1.21,1.21,0,1,0,1.2,1.2A1.2,1.2,0,0,0,183.33,37.52Z"/><path class="cls-12" d="M214.73,39H187.12a.24.24,0,0,1-.24-.24.23.23,0,0,1,.24-.23h27.61a.23.23,0,0,1,.24.23A.24.24,0,0,1,214.73,39Z"/><path class="cls-12" d="M230.19,40.4a1.68,1.68,0,1,1,1.67-1.68A1.68,1.68,0,0,1,230.19,40.4Zm0-2.88a1.21,1.21,0,1,0,1.2,1.2A1.21,1.21,0,0,0,230.19,37.52Z"/><path class="cls-12" d="M261.59,39H234a.24.24,0,0,1-.24-.24.23.23,0,0,1,.24-.23h27.61a.23.23,0,0,1,.24.23A.24.24,0,0,1,261.59,39Z"/><path class="cls-3" d="M89.62,63.66A1.68,1.68,0,1,1,91.29,62,1.68,1.68,0,0,1,89.62,63.66Zm0-2.88A1.21,1.21,0,1,0,90.82,62,1.21,1.21,0,0,0,89.62,60.78Z"/><path class="cls-3" d="M121,62.22H93.41a.23.23,0,0,1-.24-.23.24.24,0,0,1,.24-.24H121a.24.24,0,0,1,.24.24A.23.23,0,0,1,121,62.22Z"/><path class="cls-3" d="M89.62,70.71A1.68,1.68,0,1,1,91.29,69,1.68,1.68,0,0,1,89.62,70.71Zm0-2.88A1.21,1.21,0,1,0,90.82,69,1.21,1.21,0,0,0,89.62,67.83Z"/><path class="cls-3" d="M121,69.27H93.41a.23.23,0,0,1-.24-.23.24.24,0,0,1,.24-.24H121a.24.24,0,0,1,.24.24A.23.23,0,0,1,121,69.27Z"/><path class="cls-3" d="M89.62,77.76a1.67,1.67,0,1,1,1.67-1.67A1.68,1.68,0,0,1,89.62,77.76Zm0-2.87a1.2,1.2,0,1,0,1.2,1.2A1.21,1.21,0,0,0,89.62,74.89Z"/><path class="cls-3" d="M121,76.33H93.41a.24.24,0,0,1-.24-.24.23.23,0,0,1,.24-.23H121a.23.23,0,0,1,.24.23A.24.24,0,0,1,121,76.33Z"/><path class="cls-3" d="M89.62,103.62A1.68,1.68,0,1,1,91.29,102,1.68,1.68,0,0,1,89.62,103.62Zm0-2.88a1.21,1.21,0,1,0,1.2,1.21A1.21,1.21,0,0,0,89.62,100.74Z"/><path class="cls-3" d="M121,102.18H93.41a.24.24,0,1,1,0-.47H121a.24.24,0,1,1,0,.47Z"/><path class="cls-3" d="M89.62,110.67A1.68,1.68,0,1,1,91.29,109,1.68,1.68,0,0,1,89.62,110.67Zm0-2.88a1.21,1.21,0,1,0,1.2,1.21A1.21,1.21,0,0,0,89.62,107.79Z"/><path class="cls-3" d="M121,109.23H93.41a.23.23,0,0,1-.24-.23.24.24,0,0,1,.24-.24H121a.24.24,0,0,1,.24.24A.23.23,0,0,1,121,109.23Z"/><path class="cls-3" d="M89.62,143.58a1.68,1.68,0,1,1,1.67-1.68A1.68,1.68,0,0,1,89.62,143.58Zm0-2.88a1.21,1.21,0,1,0,1.2,1.2A1.21,1.21,0,0,0,89.62,140.7Z"/><path class="cls-3" d="M121,142.14H93.41a.24.24,0,0,1-.24-.24.23.23,0,0,1,.24-.23H121a.23.23,0,0,1,.24.23A.24.24,0,0,1,121,142.14Z"/><path class="cls-3" d="M89.62,150.63A1.68,1.68,0,1,1,91.29,149,1.68,1.68,0,0,1,89.62,150.63Zm0-2.88a1.21,1.21,0,1,0,1.2,1.2A1.21,1.21,0,0,0,89.62,147.75Z"/><path class="cls-3" d="M121,149.19H93.41a.24.24,0,1,1,0-.47H121a.24.24,0,1,1,0,.47Z"/><path class="cls-3" d="M89.62,117.72a1.68,1.68,0,1,1,1.67-1.67A1.68,1.68,0,0,1,89.62,117.72Zm0-2.88a1.21,1.21,0,1,0,1.2,1.21A1.21,1.21,0,0,0,89.62,114.84Z"/><path class="cls-3" d="M121,116.28H93.41a.23.23,0,0,1-.24-.23.24.24,0,0,1,.24-.24H121a.24.24,0,0,1,.24.24A.23.23,0,0,1,121,116.28Z"/><path class="cls-3" d="M109.07,56.08H89.79a1.85,1.85,0,1,1,0-3.69h19.28a1.85,1.85,0,0,1,0,3.69ZM89.79,52.86a1.38,1.38,0,1,0,0,2.75h19.28a1.38,1.38,0,0,0,0-2.75Z"/><path class="cls-3" d="M109.07,96H89.79a1.85,1.85,0,1,1,0-3.69h19.28a1.85,1.85,0,0,1,0,3.69ZM89.79,92.82a1.38,1.38,0,1,0,0,2.75h19.28a1.38,1.38,0,0,0,0-2.75Z"/><path class="cls-3" d="M109.07,136H89.79a1.85,1.85,0,1,1,0-3.69h19.28a1.85,1.85,0,0,1,0,3.69Zm-19.28-3.22a1.38,1.38,0,1,0,0,2.75h19.28a1.38,1.38,0,0,0,0-2.75Z"/><path class="cls-9" d="M139.37,50.75V101.4h2.87a1.39,1.39,0,0,1,2.78,0h1.53a1.4,1.4,0,0,1,2.79,0h1.53a1.39,1.39,0,0,1,2.78,0h1.53a1.4,1.4,0,0,1,2.79,0h1.53a1.39,1.39,0,0,1,2.78,0h1.53a1.4,1.4,0,0,1,2.79,0h1.53a1.39,1.39,0,1,1,2.78,0h1.54a1.39,1.39,0,1,1,2.78,0h1.53a1.4,1.4,0,0,1,2.79,0h1.53a1.39,1.39,0,0,1,2.78,0h2.87V50.75Z"/><path class="cls-8" d="M145.25,63.26a1.68,1.68,0,1,1,1.67-1.67A1.68,1.68,0,0,1,145.25,63.26Zm0-2.88a1.21,1.21,0,1,0,1.2,1.21A1.21,1.21,0,0,0,145.25,60.38Z"/><path class="cls-8" d="M179.47,61.82H149a.23.23,0,0,1-.24-.23.24.24,0,0,1,.24-.24h30.43a.24.24,0,0,1,.24.24A.23.23,0,0,1,179.47,61.82Z"/><path class="cls-11" d="M179.47,68.87H149a.23.23,0,0,1-.24-.23.24.24,0,0,1,.24-.24h30.43a.24.24,0,0,1,.24.24A.23.23,0,0,1,179.47,68.87Z"/><path class="cls-11" d="M179.47,71.22H149a.23.23,0,0,1-.24-.23.24.24,0,0,1,.24-.24h30.43a.24.24,0,0,1,.24.24A.23.23,0,0,1,179.47,71.22Z"/><path class="cls-11" d="M179.47,73.57H149a.23.23,0,0,1-.24-.23.24.24,0,0,1,.24-.24h30.43a.24.24,0,0,1,.24.24A.23.23,0,0,1,179.47,73.57Z"/><path class="cls-11" d="M179.47,75.92H149a.23.23,0,0,1-.24-.23.24.24,0,0,1,.24-.24h30.43a.24.24,0,0,1,.24.24A.23.23,0,0,1,179.47,75.92Z"/><path class="cls-11" d="M179.47,78.28H149a.24.24,0,0,1-.24-.24.23.23,0,0,1,.24-.23h30.43a.23.23,0,0,1,.24.23A.24.24,0,0,1,179.47,78.28Z"/><path class="cls-11" d="M155,80.63h-6a.24.24,0,0,1-.24-.24.23.23,0,0,1,.24-.23h6a.23.23,0,0,1,.23.23A.23.23,0,0,1,155,80.63Z"/><path class="cls-8" d="M167.05,92.54H151.8a3,3,0,1,1,0-6h15.25a3,3,0,0,1,0,6ZM151.8,87a2.53,2.53,0,1,0,0,5h15.25a2.53,2.53,0,0,0,0-5Z"/><path class="cls-8" d="M176.71,92.54H175a3,3,0,0,1,0-6h1.75a3,3,0,1,1,0,6ZM175,87a2.53,2.53,0,0,0,0,5h1.75a2.53,2.53,0,1,0,0-5Z"/><path class="cls-13" d="M186.38,52.81H184.5a.23.23,0,0,1-.24-.23.24.24,0,0,1,.24-.24h1.88a.23.23,0,0,1,.23.24A.23.23,0,0,1,186.38,52.81Zm-3.76,0h-1.88a.23.23,0,0,1-.24-.23.24.24,0,0,1,.24-.24h1.88a.23.23,0,0,1,.23.24A.23.23,0,0,1,182.62,52.81Zm-3.76,0H177a.23.23,0,0,1-.24-.23.24.24,0,0,1,.24-.24h1.88a.23.23,0,0,1,.23.24A.23.23,0,0,1,178.86,52.81Zm-3.76,0h-1.88a.23.23,0,0,1-.24-.23.24.24,0,0,1,.24-.24h1.88a.23.23,0,0,1,.23.24A.23.23,0,0,1,175.1,52.81Zm-3.76,0h-1.88a.23.23,0,0,1-.24-.23.24.24,0,0,1,.24-.24h1.88a.23.23,0,0,1,.23.24A.23.23,0,0,1,171.34,52.81Zm-3.76,0h-1.89a.23.23,0,0,1-.23-.23.23.23,0,0,1,.23-.24h1.89a.23.23,0,0,1,.23.24A.23.23,0,0,1,167.58,52.81Zm-3.77,0h-1.88a.23.23,0,0,1-.23-.23.23.23,0,0,1,.23-.24h1.88a.24.24,0,0,1,.24.24A.23.23,0,0,1,163.81,52.81Zm-3.76,0h-1.88a.23.23,0,0,1-.23-.23.23.23,0,0,1,.23-.24h1.88a.24.24,0,0,1,.24.24A.23.23,0,0,1,160.05,52.81Zm-3.76,0h-1.88a.23.23,0,0,1-.23-.23.23.23,0,0,1,.23-.24h1.88a.24.24,0,0,1,.24.24A.23.23,0,0,1,156.29,52.81Zm-3.76,0h-1.88a.23.23,0,0,1-.23-.23.23.23,0,0,1,.23-.24h1.88a.24.24,0,0,1,.24.24A.23.23,0,0,1,152.53,52.81Zm-3.76,0h-1.88a.23.23,0,0,1-.23-.23.23.23,0,0,1,.23-.24h1.88a.24.24,0,0,1,.24.24A.23.23,0,0,1,148.77,52.81Zm-3.76,0h-1.88a.23.23,0,0,1-.23-.23.23.23,0,0,1,.23-.24H145a.24.24,0,0,1,.24.24A.23.23,0,0,1,145,52.81Zm-3.76,0h-1.88a.23.23,0,0,1-.24-.23.24.24,0,0,1,.24-.24h1.88a.23.23,0,0,1,.23.24A.23.23,0,0,1,141.25,52.81Z"/><path class="cls-9" d="M243.49,50.75V101.4h2.87a1.39,1.39,0,0,1,2.78,0h1.53a1.4,1.4,0,0,1,2.79,0H255a1.39,1.39,0,1,1,2.78,0h1.53a1.4,1.4,0,0,1,2.79,0h1.53a1.39,1.39,0,1,1,2.78,0h1.53a1.4,1.4,0,0,1,2.79,0h1.53a1.39,1.39,0,0,1,2.78,0h1.53a1.4,1.4,0,0,1,2.79,0h1.53a1.39,1.39,0,1,1,2.78,0h1.53a1.4,1.4,0,0,1,2.79,0h2.87V50.75Z"/><path class="cls-8" d="M249.36,63.26A1.68,1.68,0,1,1,251,61.59,1.67,1.67,0,0,1,249.36,63.26Zm0-2.88a1.21,1.21,0,1,0,1.21,1.21A1.21,1.21,0,0,0,249.36,60.38Z"/><path class="cls-8" d="M283.59,61.82H253.15a.23.23,0,0,1-.23-.23.23.23,0,0,1,.23-.24h30.44a.23.23,0,0,1,.23.24A.23.23,0,0,1,283.59,61.82Z"/><path class="cls-11" d="M283.59,68.87H253.15a.23.23,0,0,1-.23-.23.23.23,0,0,1,.23-.24h30.44a.23.23,0,0,1,.23.24A.23.23,0,0,1,283.59,68.87Z"/><path class="cls-11" d="M283.59,71.22H253.15a.23.23,0,0,1-.23-.23.23.23,0,0,1,.23-.24h30.44a.23.23,0,0,1,.23.24A.23.23,0,0,1,283.59,71.22Z"/><path class="cls-11" d="M283.59,73.57H253.15a.23.23,0,0,1-.23-.23.23.23,0,0,1,.23-.24h30.44a.23.23,0,0,1,.23.24A.23.23,0,0,1,283.59,73.57Z"/><path class="cls-11" d="M283.59,75.92H253.15a.23.23,0,0,1-.23-.23.23.23,0,0,1,.23-.24h30.44a.23.23,0,0,1,.23.24A.23.23,0,0,1,283.59,75.92Z"/><path class="cls-11" d="M283.59,78.28H253.15a.23.23,0,0,1-.23-.24.23.23,0,0,1,.23-.23h30.44a.23.23,0,0,1,.23.23A.23.23,0,0,1,283.59,78.28Z"/><path class="cls-11" d="M259.14,80.63h-6a.23.23,0,0,1-.23-.24.23.23,0,0,1,.23-.23h6a.23.23,0,0,1,.24.23A.24.24,0,0,1,259.14,80.63Z"/><path class="cls-8" d="M271.17,92.54H255.92a3,3,0,1,1,0-6h15.25a3,3,0,0,1,0,6ZM255.92,87a2.53,2.53,0,1,0,0,5h15.25a2.53,2.53,0,0,0,0-5Z"/><path class="cls-8" d="M280.83,92.54h-1.75a3,3,0,0,1,0-6h1.75a3,3,0,0,1,0,6ZM279.08,87a2.53,2.53,0,0,0,0,5h1.75a2.53,2.53,0,0,0,0-5Z"/><path class="cls-13" d="M290.5,52.81h-1.88a.23.23,0,0,1-.24-.23.24.24,0,0,1,.24-.24h1.88a.23.23,0,0,1,.23.24A.23.23,0,0,1,290.5,52.81Zm-3.76,0h-1.88a.23.23,0,0,1-.24-.23.24.24,0,0,1,.24-.24h1.88a.23.23,0,0,1,.23.24A.23.23,0,0,1,286.74,52.81Zm-3.76,0H281.1a.23.23,0,0,1-.24-.23.24.24,0,0,1,.24-.24H283a.23.23,0,0,1,.23.24A.23.23,0,0,1,283,52.81Zm-3.76,0h-1.88a.23.23,0,0,1-.24-.23.24.24,0,0,1,.24-.24h1.88a.23.23,0,0,1,.23.24A.23.23,0,0,1,279.22,52.81Zm-3.77,0h-1.88a.23.23,0,0,1-.23-.23.23.23,0,0,1,.23-.24h1.88a.24.24,0,0,1,.24.24A.23.23,0,0,1,275.45,52.81Zm-3.76,0h-1.88a.23.23,0,0,1-.23-.23.23.23,0,0,1,.23-.24h1.88a.24.24,0,0,1,.24.24A.23.23,0,0,1,271.69,52.81Zm-3.76,0h-1.88a.23.23,0,0,1-.23-.23.23.23,0,0,1,.23-.24h1.88a.24.24,0,0,1,.24.24A.23.23,0,0,1,267.93,52.81Zm-3.76,0h-1.88a.23.23,0,0,1-.23-.23.23.23,0,0,1,.23-.24h1.88a.24.24,0,0,1,.24.24A.23.23,0,0,1,264.17,52.81Zm-3.76,0h-1.88a.23.23,0,0,1-.23-.23.23.23,0,0,1,.23-.24h1.88a.24.24,0,0,1,.24.24A.23.23,0,0,1,260.41,52.81Zm-3.76,0h-1.88a.23.23,0,0,1-.23-.23.23.23,0,0,1,.23-.24h1.88a.24.24,0,0,1,.24.24A.23.23,0,0,1,256.65,52.81Zm-3.76,0H251a.23.23,0,0,1-.24-.23.24.24,0,0,1,.24-.24h1.88a.24.24,0,0,1,.24.24A.23.23,0,0,1,252.89,52.81Zm-3.76,0h-1.88a.23.23,0,0,1-.24-.23.24.24,0,0,1,.24-.24h1.88a.23.23,0,0,1,.23.24A.23.23,0,0,1,249.13,52.81Zm-3.76,0h-1.88a.23.23,0,0,1-.24-.23.24.24,0,0,1,.24-.24h1.88a.23.23,0,0,1,.23.24A.23.23,0,0,1,245.37,52.81Z"/><path class="cls-9" d="M243.49,106.1v50.65h2.87a1.39,1.39,0,0,1,2.78,0h1.53a1.4,1.4,0,0,1,2.79,0H255a1.39,1.39,0,0,1,2.78,0h1.53a1.4,1.4,0,0,1,2.79,0h1.53a1.39,1.39,0,0,1,2.78,0h1.53a1.4,1.4,0,0,1,2.79,0h1.53a1.39,1.39,0,0,1,2.78,0h1.53a1.4,1.4,0,0,1,2.79,0h1.53a1.39,1.39,0,1,1,2.78,0h1.53a1.4,1.4,0,0,1,2.79,0h2.87V106.1Z"/><path class="cls-8" d="M249.36,118.62a1.68,1.68,0,1,1,1.68-1.68A1.68,1.68,0,0,1,249.36,118.62Zm0-2.88a1.21,1.21,0,1,0,1.21,1.2A1.2,1.2,0,0,0,249.36,115.74Z"/><path class="cls-8" d="M283.59,117.18H253.15a.23.23,0,0,1-.23-.24.23.23,0,0,1,.23-.23h30.44a.23.23,0,0,1,.23.23A.23.23,0,0,1,283.59,117.18Z"/><path class="cls-11" d="M283.59,124.23H253.15a.23.23,0,0,1-.23-.24.23.23,0,0,1,.23-.23h30.44a.23.23,0,0,1,.23.23A.23.23,0,0,1,283.59,124.23Z"/><path class="cls-11" d="M283.59,126.58H253.15a.23.23,0,0,1-.23-.24.23.23,0,0,1,.23-.23h30.44a.23.23,0,0,1,.23.23A.23.23,0,0,1,283.59,126.58Z"/><path class="cls-11" d="M283.59,128.93H253.15a.23.23,0,0,1-.23-.24.23.23,0,0,1,.23-.23h30.44a.23.23,0,0,1,.23.23A.23.23,0,0,1,283.59,128.93Z"/><path class="cls-11" d="M283.59,131.28H253.15a.24.24,0,0,1,0-.47h30.44a.24.24,0,0,1,0,.47Z"/><path class="cls-11" d="M283.59,133.63H253.15a.24.24,0,0,1,0-.47h30.44a.24.24,0,0,1,0,.47Z"/><path class="cls-11" d="M259.14,136h-6a.24.24,0,0,1,0-.47h6a.24.24,0,1,1,0,.47Z"/><path class="cls-8" d="M271.17,147.9H255.92a3,3,0,1,1,0-6h15.25a3,3,0,0,1,0,6Zm-15.25-5.52a2.53,2.53,0,1,0,0,5.05h15.25a2.53,2.53,0,0,0,0-5.05Z"/><path class="cls-8" d="M280.83,147.9h-1.75a3,3,0,0,1,0-6h1.75a3,3,0,0,1,0,6Zm-1.75-5.52a2.53,2.53,0,0,0,0,5.05h1.75a2.53,2.53,0,0,0,0-5.05Z"/><path class="cls-13" d="M290.5,108.17h-1.88a.24.24,0,0,1-.24-.24.23.23,0,0,1,.24-.23h1.88a.23.23,0,0,1,.23.23A.23.23,0,0,1,290.5,108.17Zm-3.76,0h-1.88a.24.24,0,0,1-.24-.24.23.23,0,0,1,.24-.23h1.88a.23.23,0,0,1,.23.23A.23.23,0,0,1,286.74,108.17Zm-3.76,0H281.1a.24.24,0,0,1-.24-.24.23.23,0,0,1,.24-.23H283a.23.23,0,0,1,.23.23A.23.23,0,0,1,283,108.17Zm-3.76,0h-1.88a.24.24,0,0,1-.24-.24.23.23,0,0,1,.24-.23h1.88a.23.23,0,0,1,.23.23A.23.23,0,0,1,279.22,108.17Zm-3.77,0h-1.88a.23.23,0,0,1-.23-.24.23.23,0,0,1,.23-.23h1.88a.23.23,0,0,1,.24.23A.24.24,0,0,1,275.45,108.17Zm-3.76,0h-1.88a.23.23,0,0,1-.23-.24.23.23,0,0,1,.23-.23h1.88a.23.23,0,0,1,.24.23A.24.24,0,0,1,271.69,108.17Zm-3.76,0h-1.88a.23.23,0,0,1-.23-.24.23.23,0,0,1,.23-.23h1.88a.23.23,0,0,1,.24.23A.24.24,0,0,1,267.93,108.17Zm-3.76,0h-1.88a.23.23,0,0,1-.23-.24.23.23,0,0,1,.23-.23h1.88a.23.23,0,0,1,.24.23A.24.24,0,0,1,264.17,108.17Zm-3.76,0h-1.88a.23.23,0,0,1-.23-.24.23.23,0,0,1,.23-.23h1.88a.23.23,0,0,1,.24.23A.24.24,0,0,1,260.41,108.17Zm-3.76,0h-1.88a.23.23,0,0,1-.23-.24.23.23,0,0,1,.23-.23h1.88a.23.23,0,0,1,.24.23A.24.24,0,0,1,256.65,108.17Zm-3.76,0H251a.24.24,0,0,1-.24-.24.23.23,0,0,1,.24-.23h1.88a.23.23,0,0,1,.24.23A.24.24,0,0,1,252.89,108.17Zm-3.76,0h-1.88a.24.24,0,0,1-.24-.24.23.23,0,0,1,.24-.23h1.88a.23.23,0,0,1,.23.23A.23.23,0,0,1,249.13,108.17Zm-3.76,0h-1.88a.24.24,0,0,1-.24-.24.23.23,0,0,1,.24-.23h1.88a.23.23,0,0,1,.23.23A.23.23,0,0,1,245.37,108.17Z"/><rect class="cls-9" x="191.43" y="120.2" width="47.36" height="39.8"/><path class="cls-8" d="M197.31,132.72A1.68,1.68,0,1,1,199,131,1.68,1.68,0,0,1,197.31,132.72Zm0-2.88a1.21,1.21,0,1,0,1.2,1.2A1.21,1.21,0,0,0,197.31,129.84Z"/><path class="cls-8" d="M231.53,131.28H201.1a.24.24,0,1,1,0-.47h30.43a.24.24,0,0,1,0,.47Z"/><path class="cls-11" d="M231.53,138.33H201.1a.23.23,0,0,1-.24-.23.24.24,0,0,1,.24-.24h30.43a.23.23,0,0,1,.23.24A.23.23,0,0,1,231.53,138.33Z"/><path class="cls-11" d="M231.53,140.68H201.1a.23.23,0,0,1-.24-.23.24.24,0,0,1,.24-.24h30.43a.23.23,0,0,1,.23.24A.23.23,0,0,1,231.53,140.68Z"/><path class="cls-11" d="M231.53,143H201.1a.23.23,0,0,1-.24-.23.24.24,0,0,1,.24-.24h30.43a.23.23,0,0,1,.23.24A.23.23,0,0,1,231.53,143Z"/><path class="cls-11" d="M231.53,145.38H201.1a.23.23,0,0,1-.24-.23.24.24,0,0,1,.24-.24h30.43a.23.23,0,0,1,.23.24A.23.23,0,0,1,231.53,145.38Z"/><path class="cls-11" d="M231.53,147.73H201.1a.23.23,0,0,1-.24-.23.24.24,0,0,1,.24-.24h30.43a.23.23,0,0,1,.23.24A.23.23,0,0,1,231.53,147.73Z"/><path class="cls-11" d="M207.08,150.08h-6a.23.23,0,0,1-.24-.23.24.24,0,0,1,.24-.24h6a.24.24,0,0,1,.24.24A.23.23,0,0,1,207.08,150.08Z"/><path class="cls-13" d="M238.44,122.27h-1.88a.24.24,0,1,1,0-.47h1.88a.24.24,0,0,1,0,.47Zm-3.76,0H232.8a.24.24,0,1,1,0-.47h1.88a.24.24,0,0,1,0,.47Zm-3.76,0H229a.24.24,0,1,1,0-.47h1.88a.24.24,0,0,1,0,.47Zm-3.76,0h-1.88a.24.24,0,1,1,0-.47h1.88a.24.24,0,0,1,0,.47Zm-3.76,0h-1.89a.24.24,0,0,1,0-.47h1.89a.24.24,0,0,1,0,.47Zm-3.77,0h-1.88a.24.24,0,0,1,0-.47h1.88a.24.24,0,1,1,0,.47Zm-3.76,0H214a.24.24,0,0,1,0-.47h1.88a.24.24,0,1,1,0,.47Zm-3.76,0h-1.88a.24.24,0,0,1,0-.47h1.88a.24.24,0,1,1,0,.47Zm-3.76,0h-1.88a.24.24,0,0,1,0-.47h1.88a.24.24,0,1,1,0,.47Zm-3.76,0h-1.88a.24.24,0,0,1,0-.47h1.88a.24.24,0,1,1,0,.47Zm-3.76,0H199a.24.24,0,0,1,0-.47h1.88a.24.24,0,1,1,0,.47Zm-3.76,0h-1.88a.24.24,0,1,1,0-.47h1.88a.24.24,0,1,1,0,.47Zm-3.76,0h-1.88a.24.24,0,1,1,0-.47h1.88a.24.24,0,0,1,0,.47Z"/><path class="cls-9" d="M191.43,50.75V115.5h2.87a1.39,1.39,0,0,1,2.78,0h1.53a1.4,1.4,0,0,1,2.79,0h1.53a1.39,1.39,0,0,1,2.78,0h1.53a1.4,1.4,0,0,1,2.79,0h1.53a1.39,1.39,0,0,1,2.78,0h1.53a1.4,1.4,0,0,1,2.79,0h1.53a1.39,1.39,0,1,1,2.78,0h1.53a1.4,1.4,0,0,1,2.79,0h1.53a1.4,1.4,0,0,1,2.79,0h1.53a1.39,1.39,0,1,1,2.78,0h2.87V50.75Z"/><path class="cls-8" d="M197.31,63.26A1.68,1.68,0,1,1,199,61.59,1.68,1.68,0,0,1,197.31,63.26Zm0-2.88a1.21,1.21,0,1,0,1.2,1.21A1.21,1.21,0,0,0,197.31,60.38Z"/><path class="cls-8" d="M231.53,61.82H201.1a.23.23,0,0,1-.24-.23.24.24,0,0,1,.24-.24h30.43a.23.23,0,0,1,.23.24A.23.23,0,0,1,231.53,61.82Z"/><path class="cls-11" d="M231.53,68.87H201.1a.23.23,0,0,1-.24-.23.24.24,0,0,1,.24-.24h30.43a.23.23,0,0,1,.23.24A.23.23,0,0,1,231.53,68.87Z"/><path class="cls-11" d="M231.53,71.22H201.1a.23.23,0,0,1-.24-.23.24.24,0,0,1,.24-.24h30.43a.23.23,0,0,1,.23.24A.23.23,0,0,1,231.53,71.22Z"/><path class="cls-11" d="M231.53,73.57H201.1a.23.23,0,0,1-.24-.23.24.24,0,0,1,.24-.24h30.43a.23.23,0,0,1,.23.24A.23.23,0,0,1,231.53,73.57Z"/><path class="cls-11" d="M231.53,75.92H201.1a.23.23,0,0,1-.24-.23.24.24,0,0,1,.24-.24h30.43a.23.23,0,0,1,.23.24A.23.23,0,0,1,231.53,75.92Z"/><path class="cls-11" d="M231.53,78.28H201.1a.24.24,0,0,1-.24-.24.23.23,0,0,1,.24-.23h30.43a.23.23,0,0,1,.23.23A.23.23,0,0,1,231.53,78.28Z"/><path class="cls-11" d="M216.49,80.63H201.1a.24.24,0,0,1-.24-.24.23.23,0,0,1,.24-.23h15.39a.23.23,0,0,1,.23.23A.23.23,0,0,1,216.49,80.63Z"/><path class="cls-11" d="M231.53,86.27H201.1a.24.24,0,0,1-.24-.24.23.23,0,0,1,.24-.23h30.43a.23.23,0,0,1,.23.23A.23.23,0,0,1,231.53,86.27Z"/><path class="cls-11" d="M231.53,88.62H201.1a.24.24,0,0,1-.24-.24.23.23,0,0,1,.24-.23h30.43a.23.23,0,0,1,.23.23A.23.23,0,0,1,231.53,88.62Z"/><path class="cls-11" d="M231.53,91H201.1a.24.24,0,0,1-.24-.24.23.23,0,0,1,.24-.23h30.43a.23.23,0,0,1,.23.23A.23.23,0,0,1,231.53,91Z"/><path class="cls-11" d="M231.53,93.32H201.1a.24.24,0,0,1-.24-.24.23.23,0,0,1,.24-.23h30.43a.23.23,0,0,1,.23.23A.23.23,0,0,1,231.53,93.32Z"/><path class="cls-11" d="M225.89,95.67H201.1a.24.24,0,0,1-.24-.24.23.23,0,0,1,.24-.23h24.79a.23.23,0,0,1,.23.23A.23.23,0,0,1,225.89,95.67Z"/><path class="cls-8" d="M219.11,107.59H203.86a3,3,0,0,1,0-6h15.25a3,3,0,0,1,0,6Zm-15.25-5.53a2.53,2.53,0,0,0,0,5.06h15.25a2.53,2.53,0,0,0,0-5.06Z"/><path class="cls-8" d="M228.77,107.59H227a3,3,0,0,1,0-6h1.75a3,3,0,0,1,0,6ZM227,102.06a2.53,2.53,0,0,0,0,5.06h1.75a2.53,2.53,0,0,0,0-5.06Z"/><path class="cls-13" d="M238.44,52.81h-1.88a.23.23,0,0,1-.24-.23.24.24,0,0,1,.24-.24h1.88a.23.23,0,0,1,.23.24A.23.23,0,0,1,238.44,52.81Zm-3.76,0H232.8a.23.23,0,0,1-.24-.23.24.24,0,0,1,.24-.24h1.88a.23.23,0,0,1,.23.24A.23.23,0,0,1,234.68,52.81Zm-3.76,0H229a.23.23,0,0,1-.24-.23.24.24,0,0,1,.24-.24h1.88a.23.23,0,0,1,.23.24A.23.23,0,0,1,230.92,52.81Zm-3.76,0h-1.88a.23.23,0,0,1-.24-.23.24.24,0,0,1,.24-.24h1.88a.23.23,0,0,1,.23.24A.23.23,0,0,1,227.16,52.81Zm-3.76,0h-1.89a.23.23,0,0,1-.23-.23.24.24,0,0,1,.23-.24h1.89a.23.23,0,0,1,.23.24A.23.23,0,0,1,223.4,52.81Zm-3.77,0h-1.88a.23.23,0,0,1-.23-.23.23.23,0,0,1,.23-.24h1.88a.24.24,0,0,1,.24.24A.23.23,0,0,1,219.63,52.81Zm-3.76,0H214a.23.23,0,0,1-.23-.23.23.23,0,0,1,.23-.24h1.88a.24.24,0,0,1,.24.24A.23.23,0,0,1,215.87,52.81Zm-3.76,0h-1.88a.23.23,0,0,1-.23-.23.23.23,0,0,1,.23-.24h1.88a.24.24,0,0,1,.24.24A.23.23,0,0,1,212.11,52.81Zm-3.76,0h-1.88a.23.23,0,0,1-.23-.23.23.23,0,0,1,.23-.24h1.88a.24.24,0,0,1,.24.24A.23.23,0,0,1,208.35,52.81Zm-3.76,0h-1.88a.23.23,0,0,1-.23-.23.23.23,0,0,1,.23-.24h1.88a.24.24,0,0,1,.24.24A.23.23,0,0,1,204.59,52.81Zm-3.76,0H199a.23.23,0,0,1-.23-.23.23.23,0,0,1,.23-.24h1.88a.24.24,0,0,1,.24.24A.23.23,0,0,1,200.83,52.81Zm-3.76,0h-1.88a.23.23,0,0,1-.24-.23.24.24,0,0,1,.24-.24h1.88a.24.24,0,0,1,.24.24A.23.23,0,0,1,197.07,52.81Zm-3.76,0h-1.88a.23.23,0,0,1-.24-.23.24.24,0,0,1,.24-.24h1.88a.23.23,0,0,1,.23.24A.23.23,0,0,1,193.31,52.81Z"/><rect class="cls-9" x="139.37" y="106.1" width="47.36" height="53.91"/><path class="cls-8" d="M145.25,118.62a1.68,1.68,0,1,1,1.67-1.68A1.68,1.68,0,0,1,145.25,118.62Zm0-2.88a1.21,1.21,0,1,0,1.2,1.2A1.21,1.21,0,0,0,145.25,115.74Z"/><path class="cls-8" d="M179.47,117.18H149a.24.24,0,0,1-.24-.24.23.23,0,0,1,.24-.23h30.43a.23.23,0,0,1,.24.23A.24.24,0,0,1,179.47,117.18Z"/><path class="cls-11" d="M179.47,124.23H149a.24.24,0,0,1-.24-.24.23.23,0,0,1,.24-.23h30.43a.23.23,0,0,1,.24.23A.24.24,0,0,1,179.47,124.23Z"/><path class="cls-11" d="M179.47,126.58H149a.24.24,0,0,1-.24-.24.23.23,0,0,1,.24-.23h30.43a.23.23,0,0,1,.24.23A.24.24,0,0,1,179.47,126.58Z"/><path class="cls-11" d="M179.47,128.93H149a.24.24,0,0,1-.24-.24.23.23,0,0,1,.24-.23h30.43a.23.23,0,0,1,.24.23A.24.24,0,0,1,179.47,128.93Z"/><path class="cls-11" d="M179.47,131.28H149a.24.24,0,1,1,0-.47h30.43a.24.24,0,1,1,0,.47Z"/><path class="cls-11" d="M179.47,133.63H149a.24.24,0,1,1,0-.47h30.43a.24.24,0,1,1,0,.47Z"/><path class="cls-11" d="M155,136h-6a.24.24,0,1,1,0-.47h6a.24.24,0,0,1,0,.47Z"/><path class="cls-11" d="M179.47,141.62H149a.23.23,0,0,1-.24-.23.24.24,0,0,1,.24-.24h30.43a.24.24,0,0,1,.24.24A.23.23,0,0,1,179.47,141.62Z"/><path class="cls-11" d="M179.47,144H149a.23.23,0,0,1-.24-.23.24.24,0,0,1,.24-.24h30.43a.24.24,0,0,1,.24.24A.23.23,0,0,1,179.47,144Z"/><path class="cls-11" d="M179.47,146.32H149a.23.23,0,0,1-.24-.23.24.24,0,0,1,.24-.24h30.43a.24.24,0,0,1,.24.24A.23.23,0,0,1,179.47,146.32Z"/><path class="cls-11" d="M179.47,148.67H149a.23.23,0,0,1-.24-.23.24.24,0,0,1,.24-.24h30.43a.24.24,0,0,1,.24.24A.23.23,0,0,1,179.47,148.67Z"/><path class="cls-11" d="M164.43,151H149a.23.23,0,0,1-.24-.23.24.24,0,0,1,.24-.24h15.39a.23.23,0,0,1,.23.24A.23.23,0,0,1,164.43,151Z"/><path class="cls-11" d="M179.47,153.37H149a.23.23,0,0,1-.24-.23.24.24,0,0,1,.24-.24h30.43a.24.24,0,0,1,.24.24A.23.23,0,0,1,179.47,153.37Z"/><path class="cls-11" d="M179.47,155.72H149a.23.23,0,0,1-.24-.23.24.24,0,0,1,.24-.24h30.43a.24.24,0,0,1,.24.24A.23.23,0,0,1,179.47,155.72Z"/><path class="cls-11" d="M179.47,158.07H149a.23.23,0,0,1-.24-.23.24.24,0,0,1,.24-.24h30.43a.24.24,0,0,1,.24.24A.23.23,0,0,1,179.47,158.07Z"/><path class="cls-13" d="M186.38,108.17H184.5a.24.24,0,0,1-.24-.24.23.23,0,0,1,.24-.23h1.88a.23.23,0,0,1,.23.23A.23.23,0,0,1,186.38,108.17Zm-3.76,0h-1.88a.24.24,0,0,1-.24-.24.23.23,0,0,1,.24-.23h1.88a.23.23,0,0,1,.23.23A.23.23,0,0,1,182.62,108.17Zm-3.76,0H177a.24.24,0,0,1-.24-.24.23.23,0,0,1,.24-.23h1.88a.23.23,0,0,1,.23.23A.23.23,0,0,1,178.86,108.17Zm-3.76,0h-1.88a.24.24,0,0,1-.24-.24.23.23,0,0,1,.24-.23h1.88a.23.23,0,0,1,.23.23A.23.23,0,0,1,175.1,108.17Zm-3.76,0h-1.88a.24.24,0,0,1-.24-.24.23.23,0,0,1,.24-.23h1.88a.23.23,0,0,1,.23.23A.23.23,0,0,1,171.34,108.17Zm-3.76,0h-1.89a.23.23,0,0,1-.23-.24.23.23,0,0,1,.23-.23h1.89a.23.23,0,0,1,.23.23A.23.23,0,0,1,167.58,108.17Zm-3.77,0h-1.88a.23.23,0,0,1-.23-.24.23.23,0,0,1,.23-.23h1.88a.23.23,0,0,1,.24.23A.24.24,0,0,1,163.81,108.17Zm-3.76,0h-1.88a.23.23,0,0,1-.23-.24.23.23,0,0,1,.23-.23h1.88a.23.23,0,0,1,.24.23A.24.24,0,0,1,160.05,108.17Zm-3.76,0h-1.88a.23.23,0,0,1-.23-.24.23.23,0,0,1,.23-.23h1.88a.23.23,0,0,1,.24.23A.24.24,0,0,1,156.29,108.17Zm-3.76,0h-1.88a.23.23,0,0,1-.23-.24.23.23,0,0,1,.23-.23h1.88a.23.23,0,0,1,.24.23A.24.24,0,0,1,152.53,108.17Zm-3.76,0h-1.88a.23.23,0,0,1-.23-.24.23.23,0,0,1,.23-.23h1.88a.23.23,0,0,1,.24.23A.24.24,0,0,1,148.77,108.17Zm-3.76,0h-1.88a.23.23,0,0,1-.23-.24.23.23,0,0,1,.23-.23H145a.23.23,0,0,1,.24.23A.24.24,0,0,1,145,108.17Zm-3.76,0h-1.88a.24.24,0,0,1-.24-.24.23.23,0,0,1,.24-.23h1.88a.23.23,0,0,1,.23.23A.23.23,0,0,1,141.25,108.17Z"/><rect class="cls-14" x="206.45" y="30.82" width="56" height="27.41" rx="5.04"/><rect class="cls-3" x="203.63" y="27.52" width="56" height="27.41" rx="5.04"/><path class="cls-9" d="M211.07,42.56a3.09,3.09,0,0,1-.09.85.4.4,0,0,1-.44.29.88.88,0,0,1-.49-.13l-.29,1.07a2.27,2.27,0,0,0,.52.17,2.76,2.76,0,0,0,.57.06,1.63,1.63,0,0,0,.71-.14,1.14,1.14,0,0,0,.45-.42,1.68,1.68,0,0,0,.25-.64,4.32,4.32,0,0,0,.07-.84V37.71h-1.26Zm6.45-4a2,2,0,0,0-.78-.74,2.33,2.33,0,0,0-1.13-.26,2.1,2.1,0,0,0-1.87.94,5,5,0,0,0-.61,2.73,7.68,7.68,0,0,0,.14,1.51,3.38,3.38,0,0,0,.44,1.16,2.18,2.18,0,0,0,.77.74,2.33,2.33,0,0,0,1.13.25,2.11,2.11,0,0,0,1.87-.93,4.92,4.92,0,0,0,.63-2.73,7.12,7.12,0,0,0-.15-1.52A3.41,3.41,0,0,0,217.52,38.56Zm-1,4.57a.93.93,0,0,1-.88.59.75.75,0,0,1-.53-.19,1.27,1.27,0,0,1-.36-.52,2.85,2.85,0,0,1-.2-.79,7.74,7.74,0,0,1-.06-1c0-1.67.38-2.5,1.15-2.5a.82.82,0,0,1,.56.2,1.5,1.5,0,0,1,.36.53,3.36,3.36,0,0,1,.19.8,7.43,7.43,0,0,1,.06,1A4.67,4.67,0,0,1,216.49,43.13Zm6.21-1.56a1.19,1.19,0,0,0-.38-.33,1.7,1.7,0,0,0-.46-.18V41a1.43,1.43,0,0,0,.47-.26,1.52,1.52,0,0,0,.32-.4,1.9,1.9,0,0,0,.18-.49,2.94,2.94,0,0,0,0-.51,1.82,1.82,0,0,0-.18-.87,1.32,1.32,0,0,0-.49-.53,1.77,1.77,0,0,0-.71-.26,4.72,4.72,0,0,0-.85-.07c-.33,0-.65,0-1,0s-.59.07-.82.11V44.7a3.86,3.86,0,0,0,.51.09l.53.05h.84a3.24,3.24,0,0,0,.89-.12,2.06,2.06,0,0,0,.74-.37,1.94,1.94,0,0,0,.51-.65,2.28,2.28,0,0,0,.18-.94,2.43,2.43,0,0,0-.09-.7A1.57,1.57,0,0,0,222.7,41.57Zm-2.58-2.83a3.64,3.64,0,0,1,.59,0,1.34,1.34,0,0,1,.35,0,.73.73,0,0,1,.29.15.7.7,0,0,1,.19.29,1.13,1.13,0,0,1,.07.44,1,1,0,0,1-.2.65,1.17,1.17,0,0,1-.5.36l-.24,0-.25,0h-.3Zm1.33,4.74a.93.93,0,0,1-.69.27h-.36a1.18,1.18,0,0,1-.28-.05v-2h.52a2.6,2.6,0,0,1,.4,0,.83.83,0,0,1,.35.14.73.73,0,0,1,.24.3,1.3,1.3,0,0,1,.09.53A1.07,1.07,0,0,1,221.45,43.48Zm7.46-2.28a3.67,3.67,0,0,0-.62-.5c-.23-.14-.43-.28-.62-.42a2.22,2.22,0,0,1-.48-.42.7.7,0,0,1-.19-.49.57.57,0,0,1,.21-.48,1,1,0,0,1,.6-.16,2.8,2.8,0,0,1,.73.1,1.79,1.79,0,0,1,.51.22l.39-1.11a2.23,2.23,0,0,0-.73-.27,4.21,4.21,0,0,0-1-.11,2.85,2.85,0,0,0-.79.11,1.74,1.74,0,0,0-.65.33,1.64,1.64,0,0,0-.43.59,2.22,2.22,0,0,0-.15.87,2,2,0,0,0,.19.93,2.54,2.54,0,0,0,.48.67,3.61,3.61,0,0,0,.62.49l.63.41a2.48,2.48,0,0,1,.47.43.81.81,0,0,1,.2.55c0,.52-.34.78-1,.78a2.37,2.37,0,0,1-.76-.12,3,3,0,0,1-.55-.24l-.41,1.14a2.87,2.87,0,0,0,.72.27,4.37,4.37,0,0,0,1.09.12,2.73,2.73,0,0,0,.89-.13,1.94,1.94,0,0,0,.69-.39,1.61,1.61,0,0,0,.45-.65,2.57,2.57,0,0,0,.15-.92,2,2,0,0,0-.19-.92A2.6,2.6,0,0,0,228.91,41.2Zm2.62.57h2.05V40.6h-2.05V38.87h2.26V37.71h-3.52v7h3.56V43.58h-2.3Zm4.63-4.11-2,7.09h1.26l.41-1.61h1.66l.44,1.61h1.32l-2-7.09Zm-.11,4.45.4-1.63.17-1.11h0l.16,1.1.4,1.64Zm6.38-.38a1.67,1.67,0,0,0,.88-.74,2.73,2.73,0,0,0,.31-1.39,2.17,2.17,0,0,0-.19-1,1.68,1.68,0,0,0-.52-.62,1.92,1.92,0,0,0-.73-.31,3.86,3.86,0,0,0-.84-.08c-.23,0-.5,0-.82,0a5.81,5.81,0,0,0-.88.13v7h1.26V41.84l.55.13,1.23,2.78h1.46l-1.3-2.7Zm-.38-1a.88.88,0,0,1-.71.29h-.44V38.82l.25,0h.31a.71.71,0,0,1,.63.29,1.22,1.22,0,0,1,.2.74A1.37,1.37,0,0,1,242.05,40.69Zm5.68,2.94a1.82,1.82,0,0,1-.61.09,1.25,1.25,0,0,1-.68-.18A1.39,1.39,0,0,1,246,43a2.71,2.71,0,0,1-.27-.79,5.27,5.27,0,0,1-.09-1,3.67,3.67,0,0,1,.38-1.89,1.17,1.17,0,0,1,1.06-.61,2.68,2.68,0,0,1,.61.06,1.83,1.83,0,0,1,.45.15l.25-1.11a2.71,2.71,0,0,0-.6-.18,3.6,3.6,0,0,0-.86-.09,2.62,2.62,0,0,0-.95.18,2,2,0,0,0-.84.58,3.09,3.09,0,0,0-.6,1.13,5.93,5.93,0,0,0-.22,1.77,6.18,6.18,0,0,0,.2,1.73,3.19,3.19,0,0,0,.55,1.14,2.1,2.1,0,0,0,.82.62,2.79,2.79,0,0,0,1,.18,3.69,3.69,0,0,0,.87-.1,1.57,1.57,0,0,0,.7-.32l-.25-1.07A1.9,1.9,0,0,1,247.73,43.63Zm4.5-5.92V40.6H250.3V37.71H249v7h1.26v-3h1.93v3h1.27v-7Z"/><polygon class="cls-15" points="138.64 157.84 138.33 163.11 141.42 162.93 142.11 157.97 138.64 157.84"/><path class="cls-16" d="M138.23,161.54h3.53c-.11,3.67,4.38,4.09,5.32,4.64a1.31,1.31,0,0,1,0,1.7H140.7c-.3-.86-.49-1.76-1.17-1.76-.21,0-.5,1.57-.62,1.76h-1.59C137.18,165.28,138.2,163.09,138.23,161.54Z"/><path class="cls-16" d="M134.9,103.62l8.9.39c3.78,7.14,2.34,17.55,1.82,24.77,0,.53-.13,2.66-.19,3.26-.84,8.86-3.07,21.88-2.85,26.34h-4.19c-1.65-8.51-3.5-20.71-2.18-28.78a4.35,4.35,0,0,0,.07-2.78C133.61,118.92,130.62,110.6,134.9,103.62Z"/><path class="cls-16" d="M125,104.88c.28-.47,1-1.51,1.77-2.75H143a6.88,6.88,0,0,1,.9,4.72c-1,4.31-7.6,9.36-10.34,9.89-3.82.72-7.77-3.15-8.67-4.87A8.19,8.19,0,0,1,125,104.88Z"/><path class="cls-16" d="M122.21,134.42c-.32-10.23-3.54-22.55,3.32-30.41l8.29,2.66c2.14,8.77-2.38,19.72-4.24,27.13Z"/><polygon class="cls-15" points="109.19 149.88 105.98 152.86 107.15 155.41 110.44 152.45 109.19 149.88"/><path class="cls-16" d="M107,151.76l1.12,3c-3.35,2.53-2.32,6.67-2.52,7.88-.07.45-1,1.34-1.54,1.21l-2-5.46c.69-.88,1.44-1.68,1.22-2.26-.06-.18-1.57.7-1.78.73l-.5-1.36C103.32,153.54,105.62,152.84,107,151.76Z"/><path class="cls-16" d="M124,130.4l5.61,3.4c-5.51,6.08-14.56,14.79-18.66,19.09l-3-2.87C113.14,141.22,118.77,133.87,124,130.4Z"/><path class="cls-17" d="M133.75,118.34h-.05a.24.24,0,0,1-.19-.27l1-6a.25.25,0,0,1,.11-.16,13.9,13.9,0,0,0,3.07-2.86.24.24,0,0,1,.33,0,.23.23,0,0,1,0,.33A14.7,14.7,0,0,1,135,112.3l-1,5.85A.24.24,0,0,1,133.75,118.34Z"/><path class="cls-17" d="M133.65,112.28a.17.17,0,0,1-.12,0l-5-3a.24.24,0,0,1-.08-.33.23.23,0,0,1,.32-.07l5,3a.23.23,0,0,1,.08.32A.22.22,0,0,1,133.65,112.28Z"/><path class="cls-18" d="M137.59,76.86c2.8,1.26,5.42,3.88,14.66,10.32A73.78,73.78,0,0,0,156.3,76l2.4.89c.37,4.94-1.89,12.86-5.45,15.42a3,3,0,0,1-.92-.08c-6.72-1.58-14.61-7.39-16.85-10.71C133.39,78.38,135.8,76.06,137.59,76.86Z"/><path class="cls-18" d="M128.84,95.49q-1-3.69-2-7.36a48.46,48.46,0,0,1-1.65-7.42,2.86,2.86,0,0,1,.26-1.92,3,3,0,0,1,1.93-1,69.37,69.37,0,0,1,8-1.27c2.42-.24,5.1,3,6.63,5.47,1.75,2.8.27,10,0,12.62-.21,1.95,1.21,6,2.48,10.71H124.16C125.77,100.21,129.2,96.79,128.84,95.49Z"/><path class="cls-3" d="M107,118.06h0a5.91,5.91,0,0,0,8.33,0l57-57L164,52.73l-57,57A5.89,5.89,0,0,0,107,118.06Z"/><circle class="cls-3" cx="190.06" cy="35.02" r="35.02"/><circle class="cls-4" cx="190.06" cy="35.02" r="30.5"/><path class="cls-16" d="M180.31,22.13V47.92a6.81,6.81,0,0,0,6.81,6.81h26.22a30.49,30.49,0,0,0,0-39.41H187.12A6.81,6.81,0,0,0,180.31,22.13Z"/><path class="cls-9" d="M191.73,37.67a6.68,6.68,0,0,1-.17,1.7.81.81,0,0,1-.87.59,1.87,1.87,0,0,1-1-.26l-.58,2.13a4.88,4.88,0,0,0,1,.34,5.54,5.54,0,0,0,1.15.12,3.06,3.06,0,0,0,1.4-.29,2.35,2.35,0,0,0,.91-.83,3.8,3.8,0,0,0,.49-1.28,8.6,8.6,0,0,0,.15-1.68V28h-2.53Zm12.86-8A4.09,4.09,0,0,0,203,28.24a4.52,4.52,0,0,0-2.24-.52,4.15,4.15,0,0,0-3.73,1.87A9.87,9.87,0,0,0,195.84,35a15.44,15.44,0,0,0,.28,3,6.92,6.92,0,0,0,.88,2.31,4.32,4.32,0,0,0,1.54,1.47,4.63,4.63,0,0,0,2.26.51,4.21,4.21,0,0,0,3.72-1.87A9.81,9.81,0,0,0,205.77,35a14.57,14.57,0,0,0-.29-3A7,7,0,0,0,204.59,29.7Zm-2.05,9.12A1.86,1.86,0,0,1,200.8,40a1.6,1.6,0,0,1-1.08-.38,2.94,2.94,0,0,1-.71-1,6.08,6.08,0,0,1-.4-1.58,15.26,15.26,0,0,1-.12-2q0-5,2.31-5a1.59,1.59,0,0,1,1.1.39,2.82,2.82,0,0,1,.71,1.07,6.4,6.4,0,0,1,.39,1.58,14.81,14.81,0,0,1,.12,1.93A9.14,9.14,0,0,1,202.54,38.82Zm12.38-3.12a2.64,2.64,0,0,0-.76-.66,3.6,3.6,0,0,0-.91-.36v-.12a2.64,2.64,0,0,0,.93-.52,2.56,2.56,0,0,0,.64-.79,3.93,3.93,0,0,0,.35-1,5.17,5.17,0,0,0,.11-1,3.67,3.67,0,0,0-.36-1.73,2.69,2.69,0,0,0-1-1.05,3.7,3.7,0,0,0-1.42-.52,9.35,9.35,0,0,0-1.7-.15c-.64,0-1.28,0-1.93.09s-1.19.14-1.64.22V42a7.29,7.29,0,0,0,1,.18l1.05.09.95,0H211a6.48,6.48,0,0,0,1.78-.24,4.09,4.09,0,0,0,1.47-.75,3.42,3.42,0,0,0,1-1.29,4.35,4.35,0,0,0,.37-1.88,4.45,4.45,0,0,0-.19-1.39A3.36,3.36,0,0,0,214.92,35.7Zm-5.14-5.63A6.15,6.15,0,0,1,211,30a2.71,2.71,0,0,1,.71.09,1.42,1.42,0,0,1,.57.3,1.39,1.39,0,0,1,.38.57,2.56,2.56,0,0,1,.14.89,2,2,0,0,1-.41,1.3,2.41,2.41,0,0,1-1,.72,3.69,3.69,0,0,1-.47.07l-.52,0h-.58Zm2.65,9.45a1.87,1.87,0,0,1-1.38.54l-.72,0a2.27,2.27,0,0,1-.55-.09V36h1a5.32,5.32,0,0,1,.81.06,1.61,1.61,0,0,1,.69.27,1.46,1.46,0,0,1,.48.6,2.54,2.54,0,0,1,.18,1A2.16,2.16,0,0,1,212.43,39.52Z"/><path class="cls-19" d="M217.87,40.54c-2,9.64-8.93,18.47-21,22.24a22.86,22.86,0,0,1-13.6,0c-12.07-3.77-19-12.6-21-22.24C181.91,54.05,200.38,53.29,217.87,40.54Z"/><path class="cls-20" d="M166.86,15.24l43,43c.61-.52,1.21-1.06,1.78-1.64a30.2,30.2,0,0,0,8-13.89L182.39,5.5a30.39,30.39,0,0,0-13.9,8C167.92,14,167.38,14.63,166.86,15.24Zm-5.4,9.2,39.19,39.19a30.17,30.17,0,0,0,7.09-3.75L165.2,17.35A29.94,29.94,0,0,0,161.46,24.44Z"/><path class="cls-9" d="M171.11,54.21a.2.2,0,0,1-.16-.07,27.06,27.06,0,0,1,0-38.23.23.23,0,1,1,.33.33,26.59,26.59,0,0,0,0,37.57.24.24,0,0,1-.17.4Z"/><path class="cls-9" d="M202.06,11.29a.19.19,0,0,1-.1,0,26.42,26.42,0,0,0-8.33-2.56,26.71,26.71,0,0,0-13.56,1.7.23.23,0,1,1-.18-.43,27.1,27.1,0,0,1,22.28.87.24.24,0,0,1,.1.32A.23.23,0,0,1,202.06,11.29Z"/><path class="cls-9" d="M209,16.31a.2.2,0,0,1-.16-.07,26.63,26.63,0,0,0-4.18-3.41.24.24,0,1,1,.26-.4,27.72,27.72,0,0,1,4.25,3.48.24.24,0,0,1-.17.4Z"/><path class="cls-18" d="M128.82,79.87c1.58,2.6,2.32,4.83,6.19,15,1.43-1.71,4.29-3.39,5.65-5.59l1.78,1.88c-1.19,3.59-4.93,9.59-8,9a2.49,2.49,0,0,1-2.15-.89c-4.63-5.12-7.84-14.37-7.8-18.38C124.56,77.17,127.8,78.19,128.82,79.87Z"/><path class="cls-3" d="M134.88,100.48a18.91,18.91,0,0,1-1.58-.2.24.24,0,0,1-.14-.3.24.24,0,0,1,.31-.14,2.45,2.45,0,0,0,1,.13h.06c2.7.5,6.42-5,7.7-8.87a.24.24,0,0,1,.3-.15.23.23,0,0,1,.14.3C141.52,94.7,138,100.48,134.88,100.48Z"/><path class="cls-3" d="M131.42,85.68a.23.23,0,0,1-.22-.15A33.58,33.58,0,0,0,128.62,80a.22.22,0,0,1,.08-.32.23.23,0,0,1,.32.08,32.86,32.86,0,0,1,2.61,5.61.22.22,0,0,1-.13.3Z"/><path class="cls-15" d="M144.1,92.53c-1.15.69-2.65.56-3.16-.31-1-1.73-.77-3.65,1-4.61.57-.31,1.19-.54,1.76-.83,1.13-.6.8.44.21,1.12-.41.48-1.46.57-.92,1.13.36.37,1.14.24,2.35-1C145.77,89.69,146.13,91.31,144.1,92.53Z"/><path class="cls-15" d="M136.59,69.35a16.26,16.26,0,0,0-.48,7.7,7.88,7.88,0,0,1-5.51,0,50.8,50.8,0,0,1,1.34-7.89Z"/><path class="cls-15" d="M138.73,65.5c.46.89.26,2.45.22,3.43a14,14,0,0,1-.47,3.16c-.18.62-.28,1.33-1,1.5s-1.93-.51-2.61-.86a5.69,5.69,0,0,1-3.14-4.57c-.27-1.89-.26-4.34,2.1-4.76,1.28-.23,3.44,0,4.36,1,.32.35.34.85.63,1.23C138.76,65.75,138.76,65.64,138.73,65.5Z"/><path class="cls-21" d="M135.88,73.56l-.08,0A8.11,8.11,0,0,1,133.3,72a.24.24,0,0,1,0-.34.24.24,0,0,1,.33,0A7.62,7.62,0,0,0,136,73.11a.22.22,0,0,1,.13.3A.23.23,0,0,1,135.88,73.56Z"/><path class="cls-22" d="M141.24,64.42a2.85,2.85,0,0,1-3.34,1.94c-2.39-.72-3.47-1.8-4.59-1.24s-.58,1.92-.45,2.82a4.9,4.9,0,0,1-1.41,3.76l-.15,0c0-.65-.46-1.4-.57-2.06a12.45,12.45,0,0,1,0-2.59c0-1.65-.7-3.51.91-4.72,1.21-.91,2.87.18,4.16-.29C138.43,61.05,141.57,63.33,141.24,64.42Z"/><path class="cls-22" d="M130.72,65.92c-.34,2.2-1.79,4.15-3.44,6.32-.9,1.18-2.12,2-2.34,3.6a5.1,5.1,0,0,0,2,4.38c1.07.9,2.69,1.81,3.83.67a9.8,9.8,0,0,0,2.44-4c.62-2,.38-5.53-.36-8.93C132,65.35,130.72,65.92,130.72,65.92Z"/><path class="cls-15" d="M160.53,75.84c.42-.34,1.66-3.74,1.31-4.78-.12-.27-.88.64-1.17,1.49-.39,1.13-4.37,3.17-4.51,4-.19,1,.65,1.4,1.54,1.22A8.21,8.21,0,0,0,160.53,75.84Z"/><polygon class="cls-16" points="313.28 158.78 314.2 163.13 317.53 162.96 316.95 158.16 313.28 158.78"/><polygon class="cls-16" points="293.17 159.41 293.08 163.1 296.41 162.94 296.8 158.79 293.17 159.41"/><path class="cls-16" d="M289.38,165.77a4.62,4.62,0,0,0,3.28-3.45h4.1a22.47,22.47,0,0,1,.81,5.27h-2.44l-.51-1.29-1.09,1.29h-6.12C287.41,165.73,288.7,165.86,289.38,165.77Z"/><path class="cls-16" d="M317.81,161.92l-4.09.36c-.24,1.74-2.78,3.41-4.61,3.66-.68.09-2.66-.18-2.66,1.68h6.8l1.19-.11,1.87-1.46.62,1.24,2.43-.22A22.17,22.17,0,0,0,317.81,161.92Z"/><path class="cls-16" d="M303.49,106.38l6.82-4.07c5.62,6.82,1.8,20.2,1,30.7,3.54,5.14,5.29,14.49,6.12,27.08l-3.8.69c-1-4.87-6.81-18.23-9.57-26.68C302.53,126.84,301,115.78,303.49,106.38Z"/><path class="cls-16" d="M294.51,105.62l7.53-2.54c4.08,7.91.92,20.32-2.09,30.46,2.34,5.78-1.34,15.1-3.17,27.52l-3.86-.13c.09-5,.7-19.26-.21-28.11C292.79,125.42,291.74,115.48,294.51,105.62Z"/><path class="cls-16" d="M301.9,115.44h-.07l-5.47-1.68a.23.23,0,0,1-.16-.29.24.24,0,0,1,.29-.16L302,115a.25.25,0,0,1,.16.29A.26.26,0,0,1,301.9,115.44Z"/><path class="cls-16" d="M308.38,134.32a.24.24,0,0,1-.11-.44l1.26-.7-1.94-.15a.23.23,0,0,1-.21-.25.24.24,0,0,1,.25-.22l2.71.21a.26.26,0,0,1,.22.19.23.23,0,0,1-.12.25l-1.94,1.08Z"/><path class="cls-16" d="M297.39,135.29a.24.24,0,0,1-.16-.41l1-1-1.92.33a.23.23,0,0,1-.27-.19.24.24,0,0,1,.19-.27l2.69-.47a.24.24,0,0,1,.25.13.23.23,0,0,1-.05.28l-1.62,1.51A.21.21,0,0,1,297.39,135.29Z"/><path class="cls-16" d="M302.48,124.29a.23.23,0,0,1-.23-.21c-.25-2.4-.43-4.84-.53-7.25a.22.22,0,0,1,.22-.24.24.24,0,0,1,.25.22c.1,2.4.28,4.83.53,7.22a.24.24,0,0,1-.21.26Z"/><path class="cls-3" d="M294.23,79.43a2.89,2.89,0,0,0-5.26-.76c-1.31,2.68-3.26,6.08-3.79,17.36a42.49,42.49,0,0,1-7.59-2.42L276,96.78c3.11,2.41,12.61,5.74,14,1.9C292.43,92.2,294.87,87.11,294.23,79.43Z"/><path class="cls-3" d="M290.1,83.11c-.6-1.61-1.89-2.68-1.3-4.09.84-2,4.56-5.19,9.06-5.24,5.91-.07,11.83,2.67,12.44,4.91a24.87,24.87,0,0,1,.66,6.65c-.4,9.25.44,16.51,2.31,22.93l-20.11,1.9C292.21,97,293,90.86,290.1,83.11Z"/><path class="cls-23" d="M290.85,85.62a.23.23,0,0,1-.22-.16L289.46,82a.23.23,0,0,1,.14-.3.24.24,0,0,1,.3.15l1.18,3.5a.24.24,0,0,1-.15.3Z"/><path class="cls-15" d="M295.24,68.3h4.7a37.2,37.2,0,0,0,.56,5.9c-1.34,1.94-3,2.37-5.35,1.93A48.08,48.08,0,0,1,295.24,68.3Z"/><path class="cls-22" d="M292.11,64.25c0,2,.81,5.23,1.67,6,.07-1.3.59-7.54.36-7.86C293.42,61.47,292.11,63.18,292.11,64.25Z"/><path class="cls-15" d="M297.88,71.67a2.71,2.71,0,0,1-2.76.68,3.08,3.08,0,0,1-1.33-2,21.56,21.56,0,0,1-.81-4.58,5.23,5.23,0,0,1,.24-2.36,3.59,3.59,0,0,1,4-1.92,4.35,4.35,0,0,1,3.49,4.39A8,8,0,0,1,297.88,71.67Z"/><path class="cls-22" d="M292.24,61.74a2.64,2.64,0,0,0,2.47,1.6,14.09,14.09,0,0,1,5.48,0,3.78,3.78,0,0,0-3.13-3.49C293.21,59.22,291.9,60.59,292.24,61.74Z"/><path class="cls-22" d="M301.41,62.66a1.41,1.41,0,0,0-2.1-.84,1.88,1.88,0,0,0-.87,1.64c0,.34-.16,3.91.6,3.9.09-.33.65-1.22.87-1.22.51,0,.36,1.11-.08,2a1.77,1.77,0,0,0-.14,1,6,6,0,0,0,.36,1.5,16.54,16.54,0,0,0,.93-1.94c.58-1,.29-2,.42-3.15A5.49,5.49,0,0,0,301.41,62.66Z"/><path class="cls-22" d="M294.81,72.86c-.73,0-1.66-2.09-1.41-4.13.71-1.08,2.51-1.07,4.59,0l.53-2.42.52,1.07.16,2.9a7.67,7.67,0,0,1-1.32,1.41A5.51,5.51,0,0,1,294.81,72.86Z"/><path class="cls-9" d="M300.3,73l-3.46,3.26,3.93,3.12,1-4.49Zm-6.46,6.38,3-3.12L295,73.49,294,75Z"/><path class="cls-3" d="M309.94,78c-1.92-2.36-4.78,1-5.13,3-.52,2.87-.7,5,2.58,14.4-1.27-.49-2.68-1-4.16-1.74l-1.55,3.17c3.1,2.41,5.12,4.56,7.95,4.11.86-.14,2.82-.87,3.26-2a2.76,2.76,0,0,0,.53-1.55C313.49,90.46,313.46,84.84,309.94,78Z"/><path class="cls-23" d="M308.88,101.19c-2.1,0-3.81-1.39-5.92-3.09-.45-.37-.93-.75-1.43-1.13a.24.24,0,0,1-.06-.29L303,93.5a.24.24,0,0,1,.31-.11C304.66,94,306,94.54,307,95c-3.1-9-2.95-11.11-2.42-14a.23.23,0,0,1,.27-.19A.22.22,0,0,1,305,81c-.52,2.91-.66,5,2.57,14.28a.23.23,0,0,1-.05.25.26.26,0,0,1-.25,0c-1.08-.41-2.49-1-4-1.65L302,96.71c.45.35.88.69,1.28,1,2.37,1.91,4.08,3.3,6.34,2.93a6.68,6.68,0,0,0,1.85-.67.23.23,0,0,1,.32.09.24.24,0,0,1-.09.32,7,7,0,0,1-2,.72A5.39,5.39,0,0,1,308.88,101.19Z"/><rect class="cls-18" x="275.63" y="83.94" width="26.05" height="12.75" rx="2.34"/><path class="cls-9" d="M279.09,90.93a1.82,1.82,0,0,1,0,.4.2.2,0,0,1-.21.14.46.46,0,0,1-.23-.06l-.13.49a.85.85,0,0,0,.24.08,1.24,1.24,0,0,0,.27,0,.67.67,0,0,0,.33-.07.63.63,0,0,0,.21-.19.82.82,0,0,0,.11-.3,1.61,1.61,0,0,0,0-.39V88.68h-.59Zm3-1.86a1,1,0,0,0-.36-.34,1.09,1.09,0,0,0-.53-.12,1,1,0,0,0-.87.44,2.32,2.32,0,0,0-.28,1.27,3.73,3.73,0,0,0,.06.7,1.9,1.9,0,0,0,.21.54.9.9,0,0,0,.36.34,1.05,1.05,0,0,0,.52.12,1,1,0,0,0,.87-.43,2.27,2.27,0,0,0,.3-1.27,3.79,3.79,0,0,0-.07-.71A1.9,1.9,0,0,0,282.09,89.07Zm-.48,2.13a.43.43,0,0,1-.41.28.37.37,0,0,1-.25-.09.72.72,0,0,1-.16-.24,1.34,1.34,0,0,1-.1-.37c0-.14,0-.3,0-.46,0-.78.17-1.16.53-1.16a.37.37,0,0,1,.26.09.61.61,0,0,1,.17.24,1.82,1.82,0,0,1,.09.37,3.44,3.44,0,0,1,0,.46A2.11,2.11,0,0,1,281.61,91.2Zm2.89-.73a.7.7,0,0,0-.39-.23v0a.66.66,0,0,0,.22-.12.9.9,0,0,0,.15-.19,1.43,1.43,0,0,0,.08-.22,1,1,0,0,0,0-.24.83.83,0,0,0-.08-.41.59.59,0,0,0-.23-.24,1,1,0,0,0-.33-.13,2.6,2.6,0,0,0-.4,0l-.45,0-.38,0v3.23l.24,0,.24,0h.39a1.86,1.86,0,0,0,.42,0,1,1,0,0,0,.34-.18.89.89,0,0,0,.24-.3,1.15,1.15,0,0,0,.08-.44,1,1,0,0,0,0-.32A.9.9,0,0,0,284.5,90.47Zm-1.2-1.31.27,0,.17,0a.4.4,0,0,1,.13.07.34.34,0,0,1,.09.14.56.56,0,0,1,0,.2.5.5,0,0,1-.09.31.6.6,0,0,1-.23.16l-.11,0h-.26Zm.62,2.21a.44.44,0,0,1-.32.12h-.17l-.13,0v-.93h.24l.19,0a.44.44,0,0,1,.16.06.26.26,0,0,1,.11.14.55.55,0,0,1,.05.25A.54.54,0,0,1,283.92,91.37Zm3.47-1.07a2.26,2.26,0,0,0-.29-.23l-.29-.19a1.46,1.46,0,0,1-.22-.2.33.33,0,0,1-.09-.23.25.25,0,0,1,.1-.22.45.45,0,0,1,.28-.07,1.27,1.27,0,0,1,.34,0,.7.7,0,0,1,.23.11l.19-.52a1,1,0,0,0-.34-.13,2.14,2.14,0,0,0-.45,0,1.5,1.5,0,0,0-.37,0,.72.72,0,0,0-.3.16.79.79,0,0,0-.2.27,1,1,0,0,0-.07.4,1,1,0,0,0,.09.44,1.16,1.16,0,0,0,.22.31l.29.23c.11.06.2.13.29.19a1.07,1.07,0,0,1,.22.2.37.37,0,0,1,.09.25c0,.25-.15.37-.47.37a1,1,0,0,1-.35-.06,1.22,1.22,0,0,1-.25-.11l-.2.53a1,1,0,0,0,.34.12,1.88,1.88,0,0,0,.51.06,1.31,1.31,0,0,0,.41-.06.83.83,0,0,0,.32-.18.81.81,0,0,0,.21-.3,1.14,1.14,0,0,0,.07-.43.94.94,0,0,0-.09-.43A1.21,1.21,0,0,0,287.39,90.3Zm1.22.27h.95V90h-.95v-.81h1.05v-.54H288V92h1.66v-.55h-1.07Zm2.15-1.92L289.81,92h.58l.2-.75h.77l.2.75h.62l-1-3.31Zm-.05,2.08.19-.76.07-.52h0l.08.52.19.76Zm3-.18a.8.8,0,0,0,.41-.34,1.39,1.39,0,0,0,.14-.65,1,1,0,0,0-.09-.46.73.73,0,0,0-.24-.28.88.88,0,0,0-.34-.15,1.67,1.67,0,0,0-.39,0l-.38,0a2.52,2.52,0,0,0-.41.06V92H293V90.6l.25.06.57,1.3h.68l-.6-1.26Zm-.18-.48a.42.42,0,0,1-.33.13H293v-1l.11,0h.15a.33.33,0,0,1,.29.14.6.6,0,0,1,.1.34A.62.62,0,0,1,293.5,90.07Zm2.64,1.36a.74.74,0,0,1-.28,0,.6.6,0,0,1-.54-.33,1,1,0,0,1-.12-.36,2.35,2.35,0,0,1,0-.47,1.67,1.67,0,0,1,.17-.88.54.54,0,0,1,.5-.28,1.23,1.23,0,0,1,.28,0,1,1,0,0,1,.21.07l.11-.52a1.25,1.25,0,0,0-.27-.08,1.64,1.64,0,0,0-.4,0,1.42,1.42,0,0,0-.45.08,1,1,0,0,0-.39.28,1.5,1.5,0,0,0-.28.52,2.74,2.74,0,0,0-.1.82,3.12,3.12,0,0,0,.09.81,1.46,1.46,0,0,0,.26.53.92.92,0,0,0,.38.28,1.23,1.23,0,0,0,.47.09,1.92,1.92,0,0,0,.41,0,.73.73,0,0,0,.32-.15l-.12-.49A1,1,0,0,1,296.14,91.43Zm2.1-2.75V90h-.9V88.68h-.59V92h.59V90.57h.9V92h.59V88.68Z"/><path class="cls-15" d="M303.63,92.47c.4.34.4.94.52,1.45a6.06,6.06,0,0,1,.39,1.75,2.86,2.86,0,0,1-.52,1.22,1,1,0,0,1-.22.28.87.87,0,0,1-.35.13,8,8,0,0,1-3.44,0,.91.91,0,0,1-.53-.25.94.94,0,0,1-.12-.62c.05-1.24.1-2.47.16-3.71,0-.23,0-.51.23-.63a.62.62,0,0,1,.42-.07c.62,0,1.19.43,1.78.38S303.1,92,303.63,92.47Z"/><path class="cls-15" d="M277.65,92.73c0-.23,0-.51-.24-.63A.6.6,0,0,0,277,92c-.55,0-1,.37-1.59.37a5.75,5.75,0,0,0-.41,3.72,1.56,1.56,0,0,0,1.8,1.26l.37-.07a.67.67,0,0,0,.64-.87Z"/><path class="cls-23" d="M310.52,96.69l-.07,0-3.13-1.1a.23.23,0,0,1-.16-.26.23.23,0,0,1,.23-.19l3.13-.07h0a.24.24,0,1,1,0,.47l-1.84,0,1.91.67a.24.24,0,0,1,.15.3A.26.26,0,0,1,310.52,96.69Z"/><path class="cls-16" d="M21.57,150.57c2.91-10.23,6.88-19.38,6.56-30.38L16,120.31c-1,9.36-1.27,21.82-1.57,29.22Z"/><polygon class="cls-16" points="16.05 178.56 12.79 178.56 12.98 174.84 16.39 174.65 16.05 178.56"/><path class="cls-16" d="M12.3,177.94c-.68,3.06-3.75,2.62-4.17,3.33-.16.27-.14.48,0,1.24h6a1.31,1.31,0,0,1,.8-1c0,.1,0,.38.09,1h1.41c.15-1.55-.08-2.49-.07-4.57Z"/><path class="cls-16" d="M14.39,149.53c.35,8.88-1.51,22.44-1.92,27.39l3.85.37c2.68-12.57,7.43-22.21,5.28-28.1Z"/><path class="cls-16" d="M37.25,152c-4.85-9.46-11.79-16.57-12.38-28.51l12-2.26c2.82,9,5.52,21.15,7.26,28.35Z"/><polygon class="cls-16" points="42.25 178.56 45.52 178.56 45.32 174.84 41.91 174.65 42.25 178.56"/><path class="cls-16" d="M46,177.94c.69,3.06,3.76,2.62,4.18,3.33.16.27.14.48,0,1.24h-6a1.33,1.33,0,0,0-.8-1c0,.1,0,.38-.09,1H41.93c-.15-1.55.08-2.49.07-4.57Z"/><path class="cls-16" d="M44.09,149.53C43.74,158.41,45.6,172,46,176.92l-3.93-.07c-2.68-12.58-7.35-21.77-5.2-27.66Z"/><path class="cls-16" d="M30.55,130.71h-7.4a.23.23,0,0,1-.23-.23.23.23,0,0,1,.23-.24h5.68l-9.43-2.63a.23.23,0,0,1-.16-.27.23.23,0,0,1,.25-.2l13.59,1.12a.24.24,0,1,1,0,.47l-11.14-.92,8.71,2.44a.23.23,0,0,1-.06.46Z"/><path class="cls-16" d="M40.35,152.28l-.11,0-2.89-1.49a.23.23,0,0,1-.12-.27.21.21,0,0,1,.23-.17l3.94.13a.22.22,0,0,1,.22.24.22.22,0,0,1-.24.23l-2.88-.1,2,1a.23.23,0,0,1-.11.44Z"/><path class="cls-16" d="M18,151.52a.24.24,0,0,1-.11-.45l2-1-2.88.09h0a.24.24,0,0,1-.24-.23.25.25,0,0,1,.23-.24l3.93-.13a.23.23,0,0,1,.24.18A.24.24,0,0,1,21,150l-2.9,1.48A.19.19,0,0,1,18,151.52Z"/><path class="cls-3" d="M34.71,97.6c-3.71-.61-7.37-6.93-5-7,3.25-.1,16.38-8.08,16-10.81,1,1.4,6,3.54,5,5.24C48.33,89,41.91,94.86,34.71,97.6Z"/><path class="cls-3" d="M16.05,97.6c3.71-.61,7.62-7.07,5.26-7.15-3.25-.11-16.62-7.94-16.19-10.67-1,1.4-6,3.54-5,5.24C2.43,89,8.84,94.86,16.05,97.6Z"/><path class="cls-3" d="M15.12,114.76c-.31-6.53-.45-13.12.72-19.55a5.55,5.55,0,0,1,1.6-3.49,5.77,5.77,0,0,1,2.14-.92c3.61-1,9.79-.65,13.48.57,3.1,1,2,3.79,2.37,6.69.72,5.19.21,10.55,1.57,15.6.62,2.34,1.63,4.56,2.37,6.86.14.43,0,3.11-2,3.11H16C11.47,123.63,15.23,117.15,15.12,114.76Z"/><path class="cls-22" d="M22.42,80.58a8.16,8.16,0,0,1-.24,3.13,3.38,3.38,0,0,0-.31,1.84,1.17,1.17,0,0,0,.32.61c.21.18.5.17.69.37s.33.85.71,1.1a1.28,1.28,0,0,0,1.67-1.52A11,11,0,0,0,24.79,85a3.62,3.62,0,0,1-.17-1.46,1.48,1.48,0,0,0-1-1.56C23.3,81.91,22.66,80.34,22.42,80.58Z"/><path class="cls-15" d="M28.26,85.16h-4.4a49.69,49.69,0,0,1-.54,5.67,11.1,11.1,0,0,0,5,1.8C28.11,91,28.27,85.31,28.26,85.16Z"/><path class="cls-15" d="M25.78,88.31a2.57,2.57,0,0,0,2.58.64,2.84,2.84,0,0,0,1.24-1.89,20,20,0,0,0,.77-4.28,5,5,0,0,0-.23-2.2,3.35,3.35,0,0,0-3.79-1.8,4,4,0,0,0-3.25,4.1A7.46,7.46,0,0,0,25.78,88.31Z"/><path class="cls-21" d="M27.66,89.34a3.55,3.55,0,0,1-2-.85,7.5,7.5,0,0,1-1.5-1.67.24.24,0,0,1,.4-.26,6.55,6.55,0,0,0,1.4,1.56,2.6,2.6,0,0,0,2.1.7.24.24,0,0,1,.29.17.23.23,0,0,1-.17.28A1.61,1.61,0,0,1,27.66,89.34Z"/><path class="cls-22" d="M22.32,83.53a5.36,5.36,0,0,0,.07-3.11c-.31-2.31,1.11-2.71,1.72-2.44a2.8,2.8,0,0,1,2.71-1.16c1.26.2,2.14,1.2,4.29,1.1-.57,1.06.1,3.16-2.45,2.56s-2.37.4-3.3.52c.07,3.47-1,1.89-.94,2.91C24.5,86.28,22,85.66,22.32,83.53Z"/><rect class="cls-5" x="13.92" y="59.66" width="26.05" height="12.75" rx="2.34"/><path class="cls-9" d="M17.38,66.66a1.79,1.79,0,0,1,0,.39.2.2,0,0,1-.21.14.46.46,0,0,1-.23-.06l-.13.5a.84.84,0,0,0,.24.07,1.24,1.24,0,0,0,.27,0,.67.67,0,0,0,.33-.07.54.54,0,0,0,.21-.19.82.82,0,0,0,.11-.3,2.13,2.13,0,0,0,0-.39V64.4h-.59Zm3-1.87a1.16,1.16,0,0,0-.36-.34,1.09,1.09,0,0,0-.53-.12,1,1,0,0,0-.87.44A2.32,2.32,0,0,0,18.34,66a3.73,3.73,0,0,0,.06.7,1.65,1.65,0,0,0,.21.54.9.9,0,0,0,.36.34,1.05,1.05,0,0,0,.52.12,1,1,0,0,0,.87-.43A2.25,2.25,0,0,0,20.65,66a3.84,3.84,0,0,0-.06-.71A1.9,1.9,0,0,0,20.38,64.79Zm-.48,2.13a.43.43,0,0,1-.41.28.37.37,0,0,1-.25-.09.6.6,0,0,1-.16-.24,1.34,1.34,0,0,1-.1-.37A3.33,3.33,0,0,1,19,66c0-.78.18-1.16.54-1.16a.37.37,0,0,1,.26.09.69.69,0,0,1,.17.25,1.54,1.54,0,0,1,.09.37A3.19,3.19,0,0,1,20,66,2.11,2.11,0,0,1,19.9,66.92Zm2.89-.73a.65.65,0,0,0-.18-.15L22.4,66v0a.78.78,0,0,0,.22-.12.7.7,0,0,0,.15-.19,1.43,1.43,0,0,0,.08-.22,1.94,1.94,0,0,0,0-.24,1,1,0,0,0-.08-.41.66.66,0,0,0-.23-.24.81.81,0,0,0-.33-.12,1.75,1.75,0,0,0-.4,0l-.45,0-.38,0v3.23l.23,0,.25,0h.39a1.86,1.86,0,0,0,.42,0,1,1,0,0,0,.34-.18.73.73,0,0,0,.24-.3,1.15,1.15,0,0,0,.08-.44,1,1,0,0,0,0-.32A.9.9,0,0,0,22.79,66.19Zm-1.2-1.31.27,0,.17,0,.13.07a.34.34,0,0,1,.09.14.56.56,0,0,1,0,.2.5.5,0,0,1-.09.31.59.59,0,0,1-.24.17h-.36Zm.62,2.21a.46.46,0,0,1-.33.12h-.16l-.13,0v-.94h.24l.19,0a.44.44,0,0,1,.16.06.31.31,0,0,1,.11.14.57.57,0,0,1,0,.25A.53.53,0,0,1,22.21,67.09ZM25.68,66a2.17,2.17,0,0,0-.29-.24l-.29-.19a1.07,1.07,0,0,1-.22-.2.32.32,0,0,1-.09-.23.26.26,0,0,1,.1-.22.45.45,0,0,1,.28-.07,1.27,1.27,0,0,1,.34,0,.7.7,0,0,1,.23.11l.19-.52a1.11,1.11,0,0,0-.35-.13,2,2,0,0,0-.44,0,1.44,1.44,0,0,0-.37,0,.86.86,0,0,0-.3.16.68.68,0,0,0-.2.27,1.15,1.15,0,0,0,0,.84,1.16,1.16,0,0,0,.22.31,1.63,1.63,0,0,0,.29.23l.29.19a1.07,1.07,0,0,1,.22.2.37.37,0,0,1,.09.25c0,.25-.16.37-.47.37a1,1,0,0,1-.35-.06,1.07,1.07,0,0,1-.26-.11l-.19.53a1.27,1.27,0,0,0,.34.13,2.41,2.41,0,0,0,.5,0,1.33,1.33,0,0,0,.42-.06.83.83,0,0,0,.32-.18.81.81,0,0,0,.21-.3,1.14,1.14,0,0,0,.07-.43.94.94,0,0,0-.09-.43A1.16,1.16,0,0,0,25.68,66Zm1.22.26h1v-.54h-1v-.81H28V64.4H26.31v3.28H28v-.55H26.9Zm2.15-1.91-.95,3.3h.58l.19-.75h.78l.2.75h.62l-1-3.3ZM29,66.45l.18-.76.08-.52h0l.08.52.18.76Zm3-.18a.74.74,0,0,0,.4-.34,1.28,1.28,0,0,0,.15-.65,1,1,0,0,0-.09-.46.73.73,0,0,0-.24-.28,1,1,0,0,0-.34-.15,2.58,2.58,0,0,0-.39,0l-.38,0a2.52,2.52,0,0,0-.41.06v3.25h.59V66.32l.25.06.57,1.3h.68l-.6-1.26Zm-.18-.48a.39.39,0,0,1-.33.13h-.2v-1l.11,0h.14a.33.33,0,0,1,.3.13.59.59,0,0,1,.09.34A.62.62,0,0,1,31.79,65.79Zm2.64,1.36a.78.78,0,0,1-.28,0,.57.57,0,0,1-.32-.09.61.61,0,0,1-.22-.23,1.35,1.35,0,0,1-.13-.37,3.3,3.3,0,0,1,0-.47,1.68,1.68,0,0,1,.18-.88.53.53,0,0,1,.49-.28l.29,0a.66.66,0,0,1,.21.08l.11-.52a1.15,1.15,0,0,0-.28-.09,2.15,2.15,0,0,0-.4,0,1.36,1.36,0,0,0-.44.08,1,1,0,0,0-.39.28,1.35,1.35,0,0,0-.28.52,2.74,2.74,0,0,0-.1.82,3.12,3.12,0,0,0,.09.81,1.46,1.46,0,0,0,.26.53,1,1,0,0,0,.38.29,1.4,1.4,0,0,0,.47.08,1.81,1.81,0,0,0,.4,0,1,1,0,0,0,.33-.15l-.12-.5A1,1,0,0,1,34.43,67.15Zm2.09-2.75v1.35h-.89V64.4H35v3.28h.59V66.29h.89v1.39h.59V64.4Z"/><path class="cls-3" d="M42.26,69.46c3.93,2.9,9.15,10.6,8.48,15.22-.15,1-1.28,2.92-2.76,2.65-1.92-.35-3.21-8.91-8-16.11Z"/><path class="cls-15" d="M42.68,68.89a7.15,7.15,0,0,0-.78-2.14c-.8-1.72-.33-2-.35-3,0-.77-1,0-1.15.34A7.48,7.48,0,0,0,40,67c-.22.36-1.18-.1-1.43-.44-.1-.15-.15-.35-.37-.27s-.39.7-.38.94S38,70.42,38,71c.07,1.35,1,1.39,2.32,1.12A2.84,2.84,0,0,0,42.68,68.89Z"/><path class="cls-3" d="M11.38,69.65C6,73.1-.23,80,0,84.63c0,1,2.6,3.22,2.6,3.22,1.95-.18,4.38-8.39,11.06-16Z"/><path class="cls-15" d="M15.73,66.3c-.22-.08-.26.12-.37.27-.24.34-1.21.8-1.43.44a7.53,7.53,0,0,0,.62-2.92c-.06-.37-.68-1.45-1-.73-.38,1,0,1.4-1.38,2.73a11.8,11.8,0,0,0-1,2.8,2.82,2.82,0,0,0,2.36,3.24c1.29.27,2.25.23,2.32-1.12,0-.59.19-3.43.2-3.77S16,66.4,15.73,66.3Z"/><path class="cls-24" d="M5.66,84.14a.2.2,0,0,1-.11,0,.23.23,0,0,1-.09-.32l.61-1.11-2.54,1a.23.23,0,0,1-.3-.13.24.24,0,0,1,.13-.31L6.51,82a.25.25,0,0,1,.27.06.23.23,0,0,1,0,.27L5.87,84A.27.27,0,0,1,5.66,84.14Z"/><path class="cls-24" d="M45.68,83.74a.23.23,0,0,1-.22-.15l-.78-2.07a.23.23,0,0,1,.06-.26.24.24,0,0,1,.27,0l2,1a.24.24,0,0,1,.1.32.23.23,0,0,1-.32.1l-1.49-.76.57,1.5a.24.24,0,0,1-.13.31Z"/><path class="cls-24" d="M17,99.11a.23.23,0,0,1-.17-.07l-1.5-1.49a.23.23,0,0,1,0-.33.24.24,0,0,1,.33,0l1.5,1.49a.23.23,0,0,1,0,.33A.23.23,0,0,1,17,99.11Z"/><path class="cls-5" d="M377.58,153.13c1.6-10.46,6.6-23.73,1.47-31l-7.11,3.53c-3.22,9.17-2.53,20.32-1.61,27.67Z"/><polygon class="cls-5" points="391.92 174.88 391.1 172.72 388.57 174.38 389.7 176.74 391.92 174.88"/><path class="cls-5" d="M370.33,153.29c5.48,7,15.56,17.56,18.12,21.81l3.34-1.95c-5.19-11.77-9.69-19.4-14.88-22.92Z"/><path class="cls-5" d="M389,116.58c.43.87.85,1.76,1.22,2.67a5.4,5.4,0,0,1,.59,3.06,5.48,5.48,0,0,1-2,2.83,43.62,43.62,0,0,1-7.3,5.38,4.23,4.23,0,0,1-2.68.82,3.93,3.93,0,0,1-1.28-.5,21.18,21.18,0,0,1-3.62-2.46,6.65,6.65,0,0,1-1.63-1.8,8,8,0,0,1-.71-2.08c-.15-.67-.29-1.35-.43-2Z"/><polygon class="cls-5" points="387.57 172.85 387.26 177.73 384.41 177.55 384.39 172.59 387.57 172.85"/><path class="cls-5" d="M387.73,176.17H384.2c-.75,3.66-5.33,4.08-6.41,4.64-.4.2-.78,1.3-.39,1.7h6.38c.5-.86.89-1.76,1.58-1.76.2,0,.13,1.57.21,1.76h1.58C387.91,179.9,387.4,177.71,387.73,176.17Z"/><path class="cls-5" d="M386.8,180.81c3.22-.61,2.89-3.25,2.34-4.72l3-1.87c.54,1.48,2.13,3.07,2.88,5.67l-1.35.85c-.17-.12-.94-1.49-1.11-1.39-.58.37-.44,1.34-.41,2.34l-1.31.82h-4.42C386,182.11,386.41,181,386.8,180.81Z"/><path class="cls-5" d="M389.33,117.23l-7.94,4.06c-3.69,8.78-1.1,19.73-.54,27.13.67,8.89,3.19,23.39,3.1,26.24l3.87.46c2.08-10.43,2.66-20.14.29-26.07C390.23,138.81,394.81,125.08,389.33,117.23Z"/><path class="cls-5" d="M380,141.24a.25.25,0,0,1-.24-.21,69.72,69.72,0,0,1,.19-16.85.23.23,0,1,1,.46.08,69.27,69.27,0,0,0-.18,16.73.23.23,0,0,1-.21.25Z"/><path class="cls-5" d="M379.45,130.86h-.05a11.8,11.8,0,0,1-3.84-2.29l-.72-.53a.24.24,0,0,1,.28-.38l.72.54a11.88,11.88,0,0,0,3.65,2.2.24.24,0,0,1,0,.47Z"/><path class="cls-5" d="M383.33,168.75a.22.22,0,0,1-.23-.2l-1.86-14a.24.24,0,0,1,.2-.27.24.24,0,0,1,.26.2l1.86,14a.23.23,0,0,1-.2.26Z"/><path class="cls-5" d="M388,174.2h0a.25.25,0,0,1-.2-.27l1.06-6.67a.23.23,0,0,1,.26-.19.24.24,0,0,1,.2.27L388.28,174A.24.24,0,0,1,388,174.2Z"/><path class="cls-5" d="M375.15,153a.2.2,0,0,1-.16-.07.23.23,0,0,1,0-.33l1.22-1.25-2.32.48a.23.23,0,1,1-.09-.46l3.07-.63a.23.23,0,0,1,.25.12.21.21,0,0,1,0,.27l-1.75,1.8A.23.23,0,0,1,375.15,153Z"/><path class="cls-5" d="M386.08,150.84a.21.21,0,0,1-.15-.05.24.24,0,0,1,0-.33l.93-1.14-1.64.13a.23.23,0,0,1-.25-.22.23.23,0,0,1,.21-.25l2.19-.17a.24.24,0,0,1,.23.13.23.23,0,0,1,0,.25l-1.28,1.57A.25.25,0,0,1,386.08,150.84Z"/><path class="cls-3" d="M375.13,91.77c-3.51.83-10.52,5.26-14.69,10.33a47.2,47.2,0,0,1-7.76-9.39l-2.25,2.48c5,11,9.24,12.86,10.36,12.44a1.59,1.59,0,0,0,.52-.35c11.38-8,13.54-9.23,15.89-11.6C378.58,94.29,378.79,90.9,375.13,91.77Z"/><path class="cls-3" d="M372.31,95.64a5.63,5.63,0,0,1,6-4.44c2.67-.22,7.05-.73,8.88,1.81a6.57,6.57,0,0,1,1,4,19.31,19.31,0,0,1-1.89,7.11,9.71,9.71,0,0,0-1.19,4.25c.07,1.7,1.07,3.2,1.95,4.65.71,1.15,1.36,2.34,2,3.56l-17.8,5.9C369.4,113.55,369.17,104.15,372.31,95.64Z"/><path class="cls-25" d="M370.71,101.6h0a.23.23,0,0,1-.18-.27,36.27,36.27,0,0,1,1.79-6.21.23.23,0,1,1,.43.17,37.52,37.52,0,0,0-1.76,6.13A.24.24,0,0,1,370.71,101.6Z"/><path class="cls-3" d="M388.16,95.76c-.58-3.72-3.64-2.24-4.4-.44-1.19,2.8-1.6,5.1-3.95,15.63a14.24,14.24,0,0,0-3.19-1.72l-2.92,2.27c1.48,2.08,5.74,4.55,6.08,4.63a2.81,2.81,0,0,0,3.29-1.07C386.93,109.33,388.78,99.72,388.16,95.76Z"/><path class="cls-25" d="M380.84,116.49a4.56,4.56,0,0,1-1.11-.14c-.47-.09-4.73-2.62-6.22-4.71a.24.24,0,0,1,.05-.32l2.92-2.27a.21.21,0,0,1,.23,0,15.19,15.19,0,0,1,2.94,1.53c.33-1.48.63-2.79.89-4,1.11-5,1.67-7.53,2.27-9.42a.25.25,0,0,1,.3-.15.24.24,0,0,1,.15.3c-.6,1.86-1.16,4.37-2.27,9.37-.28,1.26-.59,2.69-.95,4.31a.28.28,0,0,1-.15.17.28.28,0,0,1-.22,0,14.07,14.07,0,0,0-3-1.64l-2.63,2a21.66,21.66,0,0,0,5.81,4.35,2.54,2.54,0,0,0,3-1,25.39,25.39,0,0,0,2.37-4.55.23.23,0,0,1,.31-.12.22.22,0,0,1,.12.3,25.75,25.75,0,0,1-2.41,4.64A2.78,2.78,0,0,1,380.84,116.49Z"/><path class="cls-15" d="M379.31,86.58l3.49-1.19C382.49,86.76,382,92,382,92c-.57.79-2.47.37-3.51,0A12.24,12.24,0,0,1,379.31,86.58Z"/><path class="cls-15" d="M377.62,78.72c2.71-.33,5.52,1.14,5.69,4.41.22,4.23-5.38,6.44-6,6.4C374.36,89.32,374.18,79.14,377.62,78.72Z"/><path class="cls-21" d="M378.63,89.34a.23.23,0,0,1-.21-.13.24.24,0,0,1,.11-.32A10.07,10.07,0,0,0,381.35,87a.24.24,0,0,1,.33,0,.23.23,0,0,1,0,.33,10.58,10.58,0,0,1-2.94,2Z"/><path class="cls-22" d="M382.46,85.43c-1.95-.53-1-2.38-1.7-2.89s-6.47-.3-7-.87c-2.35-2.65,3.46-5.55,4.11-5.73,3.59-1,2.14,1,4.2,1.53a8.46,8.46,0,0,1,2.07.42c3.65,2.11,1.19,5.53,1.38,6.19s2.31,2.1,2,4.16a3.28,3.28,0,0,0,.32,2.78c.51.72,1.36,1.47.78,2.42-.68,1.13-2.6,1.32-3.79,1.24C380.07,94.34,381.92,86,382.46,85.43Z"/><rect class="cls-26" x="351.25" y="94.57" width="26.05" height="12.75" rx="2.34" transform="translate(136.87 -201) rotate(37.53)"/><path class="cls-9" d="M356.31,95.61a1.1,1.1,0,0,1-.27.29.19.19,0,0,1-.25,0,.43.43,0,0,1-.14-.19l-.41.31a1.28,1.28,0,0,0,.14.21,1.8,1.8,0,0,0,.2.19.59.59,0,0,0,.3.14.53.53,0,0,0,.28,0,.75.75,0,0,0,.28-.17,1.48,1.48,0,0,0,.26-.29l1.45-1.89-.46-.36Zm3.52.36a1,1,0,0,0-.43-.91.93.93,0,0,0-.95-.18,2.29,2.29,0,0,0-1,.83,3.32,3.32,0,0,0-.38.6,1.49,1.49,0,0,0-.16.55,1,1,0,0,0,.07.49,1.12,1.12,0,0,0,.35.41,1,1,0,0,0,.95.19,2.3,2.3,0,0,0,1-.83,3.37,3.37,0,0,0,.37-.6A1.57,1.57,0,0,0,359.83,96Zm-1.68,1.39a.43.43,0,0,1-.49,0,.32.32,0,0,1-.14-.22.57.57,0,0,1,0-.29,1.48,1.48,0,0,1,.15-.35,3.77,3.77,0,0,1,.26-.39c.47-.61.85-.81,1.13-.59a.32.32,0,0,1,.15.23.63.63,0,0,1,0,.3,1.67,1.67,0,0,1-.15.35,4,4,0,0,1-.25.37A2,2,0,0,1,358.15,97.36Zm2.74,1.18a.79.79,0,0,0-.05-.22.82.82,0,0,0-.12-.2l0,0a.52.52,0,0,0,.25,0,.54.54,0,0,0,.22,0l.21-.13a.93.93,0,0,0,.16-.18.84.84,0,0,0,.18-.37.61.61,0,0,0,0-.33.8.8,0,0,0-.19-.3,1.89,1.89,0,0,0-.29-.27c-.12-.09-.24-.18-.37-.26l-.33-.19-2,2.56a1.29,1.29,0,0,0,.16.18l.18.16.17.15.14.1a1.31,1.31,0,0,0,.36.21,1,1,0,0,0,.38.07.71.71,0,0,0,.37-.1,1,1,0,0,0,.33-.29,1.28,1.28,0,0,0,.17-.29A.8.8,0,0,0,360.89,98.54Zm-.16-1.77.23.15a.68.68,0,0,1,.12.12.35.35,0,0,1,.06.14.3.3,0,0,1,0,.16.41.41,0,0,1-.1.18.42.42,0,0,1-.26.18.53.53,0,0,1-.28,0l-.1-.06-.1-.06-.11-.09Zm-.85,2.13a.45.45,0,0,1-.33-.1l-.13-.11-.09-.09.57-.74.19.15.14.12a.6.6,0,0,1,.09.15.28.28,0,0,1,0,.18.5.5,0,0,1-.11.22A.53.53,0,0,1,359.88,98.9Zm3.4,1.27a1.58,1.58,0,0,0-.09-.36l-.11-.33a1.88,1.88,0,0,1-.06-.29.4.4,0,0,1,.07-.24.25.25,0,0,1,.22-.11.39.39,0,0,1,.26.11,1.14,1.14,0,0,1,.25.24,1,1,0,0,1,.12.23l.46-.3a1.18,1.18,0,0,0-.19-.31,2,2,0,0,0-.33-.31,1.5,1.5,0,0,0-.32-.19,1,1,0,0,0-.33-.06.84.84,0,0,0-.33.1,1.1,1.1,0,0,0-.3.28.88.88,0,0,0-.19.39,1.28,1.28,0,0,0,0,.39,2,2,0,0,0,.09.35,3.43,3.43,0,0,1,.12.33,1.11,1.11,0,0,1,0,.3.34.34,0,0,1-.08.25c-.15.2-.35.2-.6,0a1.45,1.45,0,0,1-.24-.26,2.35,2.35,0,0,1-.14-.25l-.47.31a1.41,1.41,0,0,0,.19.3,1.57,1.57,0,0,0,.37.35,1.12,1.12,0,0,0,.36.21,1,1,0,0,0,.37,0,1,1,0,0,0,.35-.11,1.27,1.27,0,0,0,.32-.3,1,1,0,0,0,.19-.39A1.28,1.28,0,0,0,363.28,100.17Zm.81,1,.75.58.33-.43-.75-.58.49-.63.83.63.33-.43-1.3-1-2,2.6,1.32,1,.33-.43-.85-.65Zm2.87-.21-2.77,2,.47.36.61-.48.61.47-.3.72.49.38,1.26-3.2Zm-1.3,1.62.6-.49.38-.36h0l-.26.45-.31.72Zm2.46,1.67a.81.81,0,0,0,.53,0,1.22,1.22,0,0,0,.51-.42,1.18,1.18,0,0,0,.21-.42.76.76,0,0,0,0-.37.73.73,0,0,0-.18-.32,1.5,1.5,0,0,0-.29-.27,2.3,2.3,0,0,0-.31-.22,2.16,2.16,0,0,0-.36-.2l-2,2.57.47.36.82-1.07.17.2-.34,1.37.54.41.29-1.36Zm.15-.49a.42.42,0,0,1-.34-.1l-.16-.12.61-.8.1.06.12.08a.36.36,0,0,1,.15.29.63.63,0,0,1-.13.33A.73.73,0,0,1,368.27,103.71Zm1.27,2.69a.79.79,0,0,1-.25-.14.58.58,0,0,1-.21-.26.85.85,0,0,1,0-.32,1.17,1.17,0,0,1,.13-.37,2.59,2.59,0,0,1,.25-.4,1.73,1.73,0,0,1,.68-.59.54.54,0,0,1,.56.08,1,1,0,0,1,.21.19.76.76,0,0,1,.12.19l.41-.35a1.87,1.87,0,0,0-.17-.23,2.62,2.62,0,0,0-.29-.28,1.2,1.2,0,0,0-.41-.2.82.82,0,0,0-.47,0,1.41,1.41,0,0,0-.54.24,3,3,0,0,0-.59.59,2.93,2.93,0,0,0-.41.7,1.42,1.42,0,0,0-.12.57,1,1,0,0,0,.13.46,1.1,1.1,0,0,0,.32.36,1.71,1.71,0,0,0,.35.21.77.77,0,0,0,.35.08l.21-.47A.93.93,0,0,1,369.54,106.4Zm3.33-.91-.82,1.07-.71-.55.82-1.07-.46-.36-2,2.6.47.36.84-1.1.71.55-.84,1.1.46.36,2-2.6Z"/><path class="cls-15" d="M372.71,111.57a1.23,1.23,0,0,1,0-1.47c.19-.25.48-.4.67-.66s.22-.68-.06-.82a.29.29,0,0,0-.27,0c-.14.1-.11.3-.12.46s-.1.38-.26.34a.26.26,0,0,1-.11-.07,1.1,1.1,0,0,1,.06-1.43,3.27,3.27,0,0,1,1.33-.8,3,3,0,0,0,1.31-.82.64.64,0,0,1,.25-.24c.21-.1.44.08.59.25a8.28,8.28,0,0,1,1.53,3.54.82.82,0,0,1,0,.35.76.76,0,0,1-.37.42l-1.39,1C374.89,112.29,373.6,112.72,372.71,111.57Z"/><path class="cls-15" d="M351.25,96a1.24,1.24,0,0,0,1.45-.26c.21-.24.3-.56.51-.8s.63-.35.82-.1a.3.3,0,0,1,.05.27c-.07.15-.27.17-.43.2s-.35.19-.28.33a.43.43,0,0,0,.09.1,1.1,1.1,0,0,0,1.39-.35,3.23,3.23,0,0,0,.51-1.46,3.09,3.09,0,0,1,.55-1.45.85.85,0,0,0,.19-.3c0-.22-.17-.41-.37-.52a8.36,8.36,0,0,0-3.77-.8.82.82,0,0,0-.35,0,.8.8,0,0,0-.35.45c-.22.51-.44,1-.67,1.55C350.12,94,350,95.32,351.25,96Z"/></g></g></g></svg>