<svg xmlns="http://www.w3.org/2000/svg" xmlns:xlink="http://www.w3.org/1999/xlink" viewBox="0 0 331.2 273.94"><defs><style>.cls-1{opacity:0.17;fill:url(#linear-gradient);}.cls-19,.cls-2,.cls-20{fill:#1a2089;}.cls-3{fill:#4cc2fc;}.cls-4{fill:#fff;}.cls-5{fill:#dde9f7;}.cls-6{fill:url(#linear-gradient-2);}.cls-7{fill:#5d4efa;}.cls-8{fill:url(#linear-gradient-3);}.cls-9{fill:#2b3663;}.cls-10{fill:#e5e4e4;}.cls-11{fill:url(#linear-gradient-4);}.cls-12{fill:url(#linear-gradient-5);}.cls-13{fill:#2c3563;}.cls-14{fill:url(#linear-gradient-6);}.cls-15{fill:url(#linear-gradient-7);}.cls-16{fill:url(#linear-gradient-8);}.cls-17{fill:url(#linear-gradient-9);}.cls-18{fill:url(#linear-gradient-10);}.cls-19{opacity:0.27;}.cls-20{opacity:0.49;}.cls-21{fill:url(#linear-gradient-11);}.cls-22{fill:url(#linear-gradient-12);}.cls-23{fill:url(#linear-gradient-13);}.cls-24{fill:url(#linear-gradient-14);}.cls-25{fill:#322920;}.cls-26{fill:url(#linear-gradient-15);}.cls-27{fill:url(#linear-gradient-16);}.cls-28{fill:url(#linear-gradient-17);}.cls-29{fill:url(#linear-gradient-18);}.cls-30{fill:url(#linear-gradient-19);}.cls-31{fill:url(#linear-gradient-20);}.cls-32{fill:url(#linear-gradient-21);}.cls-33{fill:url(#linear-gradient-22);}.cls-34{fill:url(#linear-gradient-23);}.cls-35{fill:url(#linear-gradient-24);}.cls-36{fill:url(#linear-gradient-25);}.cls-37{fill:url(#linear-gradient-26);}.cls-38{fill:url(#linear-gradient-27);}.cls-39{fill:#e6e6e7;}.cls-40{fill:url(#linear-gradient-28);}.cls-41{fill:#b56cf7;}.cls-42{fill:url(#linear-gradient-29);}.cls-43{fill:url(#linear-gradient-30);}.cls-44{fill:url(#linear-gradient-31);}.cls-45{fill:url(#linear-gradient-32);}.cls-46{fill:url(#linear-gradient-33);}.cls-47{fill:url(#linear-gradient-34);}.cls-48{fill:url(#linear-gradient-35);}.cls-49{fill:url(#linear-gradient-36);}</style><linearGradient id="linear-gradient" x1="13423.88" y1="710.24" x2="13538.63" y2="994.27" gradientTransform="matrix(-0.92, -0.01, -0.01, 1.07, 12529.41, -608.13)" gradientUnits="userSpaceOnUse"><stop offset="0" stop-color="#d9e8f6"/><stop offset="1" stop-color="#b0cbea"/></linearGradient><linearGradient id="linear-gradient-2" x1="-492.09" y1="1052.81" x2="-470.46" y2="1052.81" gradientTransform="translate(577.28 -1011.52) rotate(-0.02)" gradientUnits="userSpaceOnUse"><stop offset="0" stop-color="#455c8b"/><stop offset="1" stop-color="#1c2d48"/></linearGradient><linearGradient id="linear-gradient-3" x1="9098.49" y1="48.73" x2="9107" y2="48.73" gradientTransform="matrix(-1, 0.03, 0.03, 1, 9170.24, -96.88)" gradientUnits="userSpaceOnUse"><stop offset="0" stop-color="#eed1d7"/><stop offset="1" stop-color="#dbacb5"/></linearGradient><linearGradient id="linear-gradient-4" x1="9056.34" y1="27.96" x2="9068.13" y2="27.96" gradientTransform="matrix(-1, 0.05, 0.05, 1, 9086.84, -200.55)" xlink:href="#linear-gradient-3"/><linearGradient id="linear-gradient-5" x1="4467.81" y1="-943.26" x2="4479.7" y2="-943.26" gradientTransform="translate(-4054.84 2112.99) rotate(-13.99)" gradientUnits="userSpaceOnUse"><stop offset="0" stop-color="#d1b9bf"/><stop offset="1" stop-color="#c89fa8"/></linearGradient><linearGradient id="linear-gradient-6" x1="4471.73" y1="-960.5" x2="4485.26" y2="-960.5" gradientTransform="translate(-4054.84 2112.99) rotate(-13.99)" gradientUnits="userSpaceOnUse"><stop offset="0" stop-color="#eed1d8"/><stop offset="1" stop-color="#dbacb6"/></linearGradient><linearGradient id="linear-gradient-7" x1="4473.59" y1="-963.06" x2="4471.06" y2="-963.06" xlink:href="#linear-gradient-6"/><linearGradient id="linear-gradient-8" x1="-912.37" y1="2133.7" x2="-876.1" y2="2129.97" gradientTransform="translate(1512.48 -1626.62) rotate(16.01)" gradientUnits="userSpaceOnUse"><stop offset="0" stop-color="#415b8c"/><stop offset="1" stop-color="#172a4b"/></linearGradient><linearGradient id="linear-gradient-9" x1="731.49" y1="-1093.21" x2="739.37" y2="-1091.8" gradientTransform="matrix(0.83, 0, 0, 1, -544.12, 1268.39)" xlink:href="#linear-gradient-8"/><linearGradient id="linear-gradient-10" x1="8481.95" y1="-5526.08" x2="8504.79" y2="-5526.08" gradientTransform="matrix(-0.52, 0.73, 0.85, 0.43, 9268.65, -3664.39)" xlink:href="#linear-gradient-6"/><linearGradient id="linear-gradient-11" x1="5458.73" y1="11514.74" x2="5473.71" y2="11522.78" gradientTransform="matrix(-0.36, 0.93, -0.93, -0.36, 12755.13, -830.01)" xlink:href="#linear-gradient-6"/><linearGradient id="linear-gradient-12" x1="-7556.91" y1="785.94" x2="-7578.61" y2="785.17" gradientTransform="translate(7875.47 -297.4) rotate(2.08)" gradientUnits="userSpaceOnUse"><stop offset="0" stop-color="#eed1d8"/><stop offset="1" stop-color="#daacb5"/></linearGradient><linearGradient id="linear-gradient-13" x1="-7574.06" y1="791.77" x2="-7602.94" y2="790.75" xlink:href="#linear-gradient-12"/><linearGradient id="linear-gradient-14" x1="429.63" y1="659.05" x2="431.52" y2="659.05" gradientTransform="matrix(1, 0.07, -0.07, 1, -133.68, -554.99)" gradientUnits="userSpaceOnUse"><stop offset="0" stop-color="#7ea4d6"/><stop offset="1" stop-color="#5372ab"/></linearGradient><linearGradient id="linear-gradient-15" x1="431.99" y1="650.8" x2="432.33" y2="650.8" gradientTransform="matrix(1, 0.07, -0.07, 1, -133.68, -554.99)" gradientUnits="userSpaceOnUse"><stop offset="0" stop-color="#dbeaf8"/><stop offset="1" stop-color="#b1cdeb"/></linearGradient><linearGradient id="linear-gradient-16" x1="430.37" y1="653.73" x2="432.65" y2="653.73" xlink:href="#linear-gradient-14"/><linearGradient id="linear-gradient-17" x1="430.22" y1="652.85" x2="431.61" y2="652.85" xlink:href="#linear-gradient-15"/><linearGradient id="linear-gradient-18" x1="430.24" y1="656.56" x2="431.7" y2="656.56" xlink:href="#linear-gradient-15"/><linearGradient id="linear-gradient-19" x1="429.63" y1="662.35" x2="430.26" y2="662.35" xlink:href="#linear-gradient-15"/><linearGradient id="linear-gradient-20" x1="428.5" y1="662.7" x2="439.9" y2="662.7" gradientTransform="matrix(1, 0.07, -0.07, 1, -133.68, -554.99)" xlink:href="#linear-gradient-6"/><linearGradient id="linear-gradient-21" x1="406.29" y1="656.56" x2="410.04" y2="656.56" gradientTransform="matrix(1, 0.07, -0.07, 1, -133.68, -554.99)" xlink:href="#linear-gradient-6"/><linearGradient id="linear-gradient-22" x1="406.48" y1="655.24" x2="410.17" y2="655.24" gradientTransform="matrix(1, 0.07, -0.07, 1, -133.68, -554.99)" xlink:href="#linear-gradient-6"/><linearGradient id="linear-gradient-23" x1="406.94" y1="657.72" x2="410.57" y2="657.72" gradientTransform="matrix(1, 0.07, -0.07, 1, -133.68, -554.99)" xlink:href="#linear-gradient-6"/><linearGradient id="linear-gradient-24" x1="408.25" y1="658.67" x2="411.1" y2="658.67" gradientTransform="matrix(1, 0.07, -0.07, 1, -133.68, -554.99)" xlink:href="#linear-gradient-6"/><linearGradient id="linear-gradient-25" x1="14302.5" y1="89.18" x2="14326.77" y2="89.18" gradientTransform="matrix(-1, 0.01, 0.01, 1, 14588.81, -149.28)" xlink:href="#linear-gradient-5"/><linearGradient id="linear-gradient-26" x1="15242.24" y1="191.21" x2="15244.1" y2="200.24" gradientTransform="matrix(-1, -0.01, -0.01, 1, 15519.17, 82.4)" gradientUnits="userSpaceOnUse"><stop offset="0" stop-color="#7ea4d6"/><stop offset="1" stop-color="#506ea8"/></linearGradient><linearGradient id="linear-gradient-27" x1="4375.37" y1="-2983.5" x2="4359.54" y2="-2985.24" gradientTransform="matrix(0.85, -0.52, 0.52, 0.85, -1899.59, 4923.39)" xlink:href="#linear-gradient-6"/><linearGradient id="linear-gradient-28" x1="-7398.15" y1="162.68" x2="-7426.45" y2="161.69" gradientTransform="translate(7688.93)" gradientUnits="userSpaceOnUse"><stop offset="0" stop-color="#415b8b"/><stop offset="1" stop-color="#1f2b4a"/></linearGradient><linearGradient id="linear-gradient-29" x1="190.03" y1="260.11" x2="225.28" y2="260.11" gradientTransform="matrix(1, 0, 0, 1, 0, 0)" xlink:href="#linear-gradient-6"/><linearGradient id="linear-gradient-30" x1="190.63" y1="260.57" x2="225.88" y2="260.57" gradientTransform="matrix(1, 0, 0, 1, 0, 0)" xlink:href="#linear-gradient-15"/><linearGradient id="linear-gradient-31" x1="203.44" y1="262.14" x2="208.22" y2="262.14" gradientTransform="matrix(1, 0, 0, 1, 0, 0)" xlink:href="#linear-gradient-15"/><linearGradient id="linear-gradient-32" x1="208.83" y1="262.14" x2="213.52" y2="262.14" gradientTransform="matrix(1, 0, 0, 1, 0, 0)" xlink:href="#linear-gradient-15"/><linearGradient id="linear-gradient-33" x1="-168.15" y1="141.07" x2="-190.83" y2="163.75" gradientTransform="translate(290.93 111.03) rotate(-0.11)" xlink:href="#linear-gradient-8"/><linearGradient id="linear-gradient-34" x1="-194.29" y1="145.54" x2="-164.69" y2="147.68" gradientTransform="translate(290.93 111.03) rotate(-0.11)" xlink:href="#linear-gradient-8"/><linearGradient id="linear-gradient-35" x1="-182.59" y1="134.85" x2="-179.8" y2="143.01" gradientTransform="translate(290.93 111.03) rotate(-0.11)" xlink:href="#linear-gradient-8"/><linearGradient id="linear-gradient-36" x1="-179.47" y1="152.22" x2="-182.16" y2="154.9" gradientTransform="translate(290.93 111.03) rotate(-0.11)" xlink:href="#linear-gradient-8"/></defs><title>administrative_solutions</title><g id="Layer_2" data-name="Layer 2"><g id="Layer_1-2" data-name="Layer 1"><path class="cls-1" d="M26.21,122.61c11.33-3.88,24.65-9.62,27.34-23.15,2.27-11.36-4.36-22.34-5.69-33.88-1.35-11.74,3.37-24.19,11.69-30.87a24.24,24.24,0,0,1,28.61-1.47C98.71,40.25,105,55.37,116.77,59c7.8,2.38,16.18-1.17,22.72-6.77s11.69-13.11,17.28-20c10.34-12.73,22.69-23.67,36.93-29s30.54-4.39,43.1,5a42.82,42.82,0,0,1,11.49,13.42c5,9,15.4,11.36,22.93,5.15a46,46,0,0,1,4.12-3c8.06-5.28,18.91-7.38,26-.45,4.77,4.68,6.66,12.5,6.32,19.82S305,57.47,302.68,64.28c-5.09,14.91-10.63,29.91-12.22,45.86s1.38,33.41,11.17,44.53c8.51,9.65,21.54,14.06,27,26.41,3.67,8.3,3,18.44.59,27.41-4.77,18.11-16.1,33.72-30.55,42.08-15.15,8.77-32.59,9.52-49.43,10.11-54.17,1.87-54.36-10.24-84.25-27.26-28.46-16.19-72.59,27.13-99.27,26.52C56,259.71,42.22,251,41.09,240.07c-1.2-11.62,5.34-23.1,3.65-34.63-2-13.63-14.08-21.14-24.44-27.61S-1.37,160.84.14,147.1,14.88,126.48,26.21,122.61Z"/><path class="cls-2" d="M262.85,15.77c0-4.78,5.1-8.49,9.88-8.49A8.65,8.65,0,0,1,281,18.43H262.32C262.08,17.64,262.85,16.64,262.85,15.77Z"/><path class="cls-3" d="M178.35,143.74c10.19-1.16,9.71-14.87,9.71-14.87l-.06-105,0,0A17.65,17.65,0,0,1,205.39,7.28H273.2c-10.19,1.16-9.71,14.86-9.71,14.86l.06,105,0,0a17.66,17.66,0,0,1-17.36,16.62H178.35Z"/><path class="cls-2" d="M148.88,54.66H216.7a17.65,17.65,0,0,1,17.35,16.62s0,0,0,0L234,128.87s-.48,13.71,9.72,14.87H175.93a17.66,17.66,0,0,1-17.36-16.62l0,0,.06-57.63S159.08,55.82,148.88,54.66Z"/><path class="cls-3" d="M215.69,54.65H147.88a17.65,17.65,0,0,0-17.36,16.61l0,0,.59,127.63s.48,13.7-9.72,14.87h67.82a17.64,17.64,0,0,0,17.35-16.61l0,0L206,69.52S205.5,55.82,215.69,54.65Z"/><path class="cls-2" d="M177.08,200.47h-75a17.65,17.65,0,0,0,16.84,13.26h67.81C178.72,212.82,177.31,204.12,177.08,200.47Z"/><polygon class="cls-2" points="165.2 124.57 167.32 125.67 166.91 123.34 168.63 121.69 166.25 121.35 165.19 119.24 164.13 121.36 161.76 121.7 163.48 123.34 163.08 125.67 165.2 124.57"/><polygon class="cls-2" points="174.64 124.56 176.77 125.65 176.36 123.33 178.07 121.67 175.7 121.34 174.63 119.22 173.58 121.34 171.2 121.69 172.92 123.33 172.52 125.66 174.64 124.56"/><rect class="cls-2" x="135.37" y="107.42" width="18.25" height="18.25"/><path class="cls-4" d="M149.31,123.74c-.2-4.36-2.27-7.8-4.81-7.8s-4.62,3.44-4.81,7.8Z"/><path class="cls-4" d="M147.31,112.16a2.81,2.81,0,1,1-2.81-2.81A2.81,2.81,0,0,1,147.31,112.16Z"/><rect class="cls-2" x="161.92" y="107.61" width="15.07" height="1.22"/><rect class="cls-2" x="182.47" y="107.61" width="9.71" height="1.22"/><rect class="cls-2" x="161.76" y="111.79" width="10.91" height="1.22"/><rect class="cls-2" x="161.76" y="115.48" width="24.89" height="1.22"/><rect class="cls-2" x="187.85" y="111.79" width="10.91" height="1.22"/><rect class="cls-2" x="191.31" y="115.48" width="6.52" height="1.22"/><rect class="cls-2" x="176.63" y="111.79" width="7.03" height="1.22"/><polygon class="cls-2" points="165.2 91.92 167.32 93.02 166.91 90.7 168.63 89.05 166.25 88.71 165.19 86.59 164.13 88.71 161.76 89.06 163.48 90.7 163.08 93.03 165.2 91.92"/><polygon class="cls-2" points="174.64 91.91 176.77 93.01 176.36 90.68 178.07 89.03 175.7 88.69 174.63 86.58 173.58 88.7 171.2 89.04 172.92 90.69 172.52 93.01 174.64 91.91"/><polygon class="cls-2" points="184.09 91.9 186.21 92.99 185.8 90.67 187.52 89.02 185.15 88.68 184.08 86.57 183.02 88.68 180.65 89.03 182.37 90.67 181.97 93 184.09 91.9"/><rect class="cls-2" x="135.37" y="74.77" width="18.25" height="18.25"/><path class="cls-4" d="M149.31,91.1c-.2-4.37-2.27-7.8-4.81-7.8s-4.62,3.43-4.81,7.8Z"/><path class="cls-4" d="M147.31,79.52a2.81,2.81,0,1,1-2.81-2.82A2.81,2.81,0,0,1,147.31,79.52Z"/><rect class="cls-2" x="161.92" y="74.97" width="15.07" height="1.22"/><rect class="cls-2" x="181.26" y="74.97" width="15.37" height="1.22"/><rect class="cls-2" x="161.76" y="79.14" width="10.91" height="1.22"/><rect class="cls-2" x="161.76" y="82.84" width="10.01" height="1.22"/><rect class="cls-2" x="175.62" y="82.86" width="13.72" height="1.22"/><rect class="cls-2" x="176.38" y="79.14" width="7.03" height="1.22"/><rect class="cls-2" x="193.11" y="82.86" width="3.51" height="1.22"/><polygon class="cls-2" points="165.2 157.21 167.32 158.31 166.91 155.98 168.63 154.33 166.25 154 165.19 151.88 164.13 154 161.76 154.34 163.48 155.99 163.08 158.31 165.2 157.21"/><polygon class="cls-2" points="174.64 157.2 176.77 158.29 176.36 155.97 178.07 154.32 175.7 153.98 174.63 151.87 173.58 153.99 171.2 154.33 172.92 155.97 172.52 158.3 174.64 157.2"/><rect class="cls-2" x="135.37" y="140.06" width="18.25" height="18.25"/><path class="cls-4" d="M149.31,156.39c-.2-4.37-2.27-7.81-4.81-7.81s-4.62,3.44-4.81,7.81Z"/><path class="cls-4" d="M147.31,144.8A2.81,2.81,0,1,1,144.5,142,2.81,2.81,0,0,1,147.31,144.8Z"/><rect class="cls-2" x="161.92" y="140.26" width="15.07" height="1.22"/><rect class="cls-2" x="182.47" y="140.26" width="9.71" height="1.22"/><rect class="cls-2" x="197.5" y="140.26" width="6.25" height="1.22"/><rect class="cls-2" x="161.76" y="144.43" width="10.91" height="1.22"/><rect class="cls-2" x="161.76" y="148.13" width="24.89" height="1.22"/><rect class="cls-2" x="187.85" y="144.43" width="4.32" height="1.22"/><rect class="cls-2" x="196.37" y="144.43" width="4.32" height="1.22"/><rect class="cls-2" x="191.31" y="148.13" width="10.47" height="1.22"/><rect class="cls-2" x="176.63" y="144.43" width="7.03" height="1.22"/><polygon class="cls-2" points="165.2 189.86 167.32 190.95 166.91 188.63 168.63 186.98 166.25 186.64 165.19 184.53 164.13 186.64 161.76 186.99 163.48 188.63 163.08 190.96 165.2 189.86"/><rect class="cls-2" x="135.37" y="172.71" width="18.25" height="18.25"/><path class="cls-4" d="M149.31,189c-.2-4.37-2.27-7.8-4.81-7.8s-4.62,3.43-4.81,7.8Z"/><path class="cls-4" d="M147.31,177.45a2.81,2.81,0,1,1-2.81-2.82A2.81,2.81,0,0,1,147.31,177.45Z"/><rect class="cls-2" x="161.92" y="172.9" width="15.07" height="1.22"/><rect class="cls-2" x="182.47" y="172.9" width="15.79" height="1.22"/><rect class="cls-2" x="161.76" y="177.08" width="10.91" height="1.22"/><rect class="cls-2" x="161.76" y="180.77" width="24.89" height="1.22"/><rect class="cls-2" x="187.85" y="177.08" width="4.32" height="1.22"/><rect class="cls-2" x="176.63" y="177.08" width="7.03" height="1.22"/><path class="cls-2" d="M118.55,26.41c-6.55-5.21-49.39,5.43-50,6.09-1.65,1.69-.11,7.61,1.83,13.11l-5.69,14.5,10.08-3.42a1.71,1.71,0,0,0,1.6,1.13H115C116,57.82,127.6,33.6,118.55,26.41Z"/><path class="cls-5" d="M94,34.55a9.1,9.1,0,1,0,9.25,9.09A9.16,9.16,0,0,0,94,34.55Z"/><path class="cls-6" d="M106.88,34.09a1.22,1.22,0,0,0-1.73,0L93,46.3l-5.26-5.25A1.22,1.22,0,1,0,86,42.77l6.1,6.1a1.24,1.24,0,0,0,1.75,0l13.06-13.06A1.23,1.23,0,0,0,106.88,34.09Z"/><path class="cls-7" d="M82.43,141.79c3.71,4.24,7.76,9.4,21,18.6,0,.45,8.28-.69,7.93-1.26-15.36-25-28.89-40.67-29.9-41.48S81.56,140.79,82.43,141.79Z"/><path class="cls-8" d="M71.9,258.47l-.57,9.38a2,2,0,0,0,0,3.21c1.87,1.58,6.36,2,7.34,1.64,2.06-.73-4.08-4.13-4.08-4.13L75.29,257Z"/><path class="cls-2" d="M84.36,173.63c0-.86-.15-2.95-.15-2.95-7.9-12.26-24-1.59-26.95,2,11.35,15.86,13.52,94.4,13.52,94.4s4.46.11,4.7,0C87.31,224.84,84.75,181.37,84.36,173.63Z"/><path class="cls-9" d="M74.89,268.12s8.74,2,9.23,3.9c.78,3-12.22,2-13.81.28s.41-3.84.41-3.84S72.29,270,74.89,268.12Z"/><path class="cls-10" d="M75.6,268.56a4.19,4.19,0,0,0-1.2,1.56C74.38,270.7,76.81,268.31,75.6,268.56Z"/><path class="cls-10" d="M77.39,269.15a4,4,0,0,0-1.18,1.55C76.19,271.28,78.59,268.9,77.39,269.15Z"/><path class="cls-10" d="M79.07,269.59a3.51,3.51,0,0,0-1,1.37C78.06,271.48,80.11,269.39,79.07,269.59Z"/><path class="cls-11" d="M35.34,258.88l-3,8.92a2,2,0,0,0-.79,3.12c1.4,2,10.14,2.45,11.18,2.37,2.17-.18-7.38-3.94-7.38-3.94L39,258.3Z"/><path class="cls-2" d="M69.14,180.8c.18-.84.85-5.23.85-5.23-4.46-13.88-20.24-5.48-24.07-2.76C47.42,196,32,266.29,32,266.29s4.59.47,4.85.43C59.49,229,67.51,188.38,69.14,180.8Z"/><path class="cls-9" d="M36.07,267.83s8.55,2.65,8.9,4.59c.54,3.1-12.06.75-13.79-.78-2.12-1.9,1.21-4.53,1.21-4.53S33.33,269.52,36.07,267.83Z"/><path class="cls-10" d="M36.74,268.32a4.13,4.13,0,0,0-1.31,1.47C35.36,270.36,38,268.16,36.74,268.32Z"/><path class="cls-10" d="M38.48,269a4.18,4.18,0,0,0-1.3,1.46C37.12,271.08,39.7,268.89,38.48,269Z"/><path class="cls-10" d="M40.12,269.61A3.44,3.44,0,0,0,39,270.9C39,271.42,41.17,269.49,40.12,269.61Z"/><path class="cls-12" d="M53.79,106.54l-.13,15s7.61,4.76,11,4.31c3.88-.53-3.24-20-3.24-20Z"/><path class="cls-7" d="M82.48,118.81c-2.34-3.07-18.7-6-18.46-4.79.07.35.27,2.21-2.83,3.86-4.35,2.29-7.52-1.42-7.52-1.42-4.7.41-14.74,3.73-16.15,7.18-3.25,8,2.36,19,8.59,55.66.72,4.22,30.17-3.32,38.1-8.62C87.83,141.92,85.81,123.21,82.48,118.81Z"/><path class="cls-13" d="M59.21,117c-.29.58-2.84,4-2.84,4l5.28,2.39s6.66,24.1,7.43,42.39c1.28,2.73,2,3.29,2,3.29l1.82-3.29s-1.27-25.66-9-43.46c0,0,.51-3.89.51-3.89Z"/><path class="cls-7" d="M49.27,117.29s2,3.48,7.71,5.77c.6-1.09,3.54-5.3,3.54-5.3l4.95,2.44A7.25,7.25,0,0,0,67.2,114,11.68,11.68,0,0,0,64,113.6s-3.15,5.25-10.78,2.56A37.77,37.77,0,0,0,49.27,117.29Z"/><path class="cls-14" d="M57.17,89.21c-.53.41-7.88,5.18-3.44,15.21,1.5,5,8.89,6.22,11.09-1.1S63,84.64,57.17,89.21Z"/><path class="cls-13" d="M53.16,92s2.21-9.92,13-7.39a2.18,2.18,0,0,1,1.21.71c1.13,1.37-.76,2.89-2.42,3.15,2.43-.26,4.68,2,1.06,3.35,1.1.57.84,3-1.07,3.56,0-.19-.63-3.14-2.81-3.7-1.31-.34-4.94-.9-6.23.27-2.75,2.5-3.64,6.88-3.64,6.88S51.94,94.62,53.16,92Z"/><path class="cls-15" d="M53.35,96.33s-2.6-2.11-2.37.8a2.24,2.24,0,0,0,2.4,2.16Z"/><path class="cls-13" d="M61.94,102.28a1,1,0,0,0-.74-.33l-.53,0a1,1,0,0,0-.85.32c-1.43,1.51-3.92,3.11-5.91-1.07-.94-2.14-1.54-2-1.54-2s-2.94,11.95,5.78,15.56c5.35,2.22,12.32-4.56,7-13.21C64.32,104,62.93,103.35,61.94,102.28Z"/><path class="cls-16" d="M46,178.54l-.13,3.36s33.75-5.76,38.43-10.58c.16-.13.06-1.46.06-1.46S57.5,178.17,46,178.54Z"/><rect class="cls-17" x="65.84" y="174.23" width="6.75" height="3.24" rx="1.62" transform="translate(-38.79 20.77) rotate(-13.37)"/><path class="cls-18" d="M112.47,160.83c-.47-.76.63-.3-.82-1.94s-3.37-1.88-4.36-2.23a27.22,27.22,0,0,1-4.84,2.1l.69.62c1.2,2,1,2.64,1.72,3.37.48.51,2.11.35,2.9.36a9.4,9.4,0,0,0,4.15-.89C113.11,161.6,112.57,161,112.47,160.83Z"/><rect class="cls-2" x="47.02" y="157.88" width="74.53" height="10.48" transform="translate(-49.62 37.49) rotate(-19.5)"/><rect class="cls-2" x="106.31" y="147.14" width="11.46" height="12.31" transform="translate(-44.75 46.19) rotate(-19.5)"/><rect class="cls-2" x="43.23" y="169.4" width="12.39" height="12.14" rx="1.27" transform="translate(-55.78 26.6) rotate(-19.52)"/><path class="cls-19" d="M171.54,181.24A45.68,45.68,0,1,1,213.39,132,45.69,45.69,0,0,1,171.54,181.24Z"/><path class="cls-20" d="M190,117.12c11.51,12.64,13.9,29.95,6.9,42.29C209,147.3,208,126,194.51,111.15c-13.86-15.24-35.72-17.92-48.82-6a28,28,0,0,0-5.5,6.88c.31-.3.62-.61.95-.91C154.24,99.2,176.1,101.89,190,117.12Z"/><path class="cls-2" d="M151.67,90a48.49,48.49,0,1,0,61.9,29.52A48.5,48.5,0,0,0,151.67,90Zm2,5.51a42.65,42.65,0,1,1-26,54.44A42.65,42.65,0,0,1,153.62,95.51Z"/><path class="cls-2" d="M113.87,143.13l5.79,16.36a2.71,2.71,0,0,0,3.46,1.65h0a2.73,2.73,0,0,0,1.66-3.46L119,141.32a2.71,2.71,0,0,0-3.46-1.65h0A2.7,2.7,0,0,0,113.87,143.13Z"/><path class="cls-21" d="M35.84,166l9.92,4.06s1.74-1.33,2.68-2c.46-.33,1.21-.31,2.71-.21,2.08.15,3.83.78,3.57,2.85A12.48,12.48,0,0,1,53,175.18c-1.51,2-4.56,1.73-6,1.49a2.55,2.55,0,0,1-1.28-.61l-.86-.73-10.78-3.65Z"/><path class="cls-7" d="M39.67,147.15c-6.27,5.28-5.89,5.61-6.27,7-.32,1.16.65,10.17,12.75,14.1.1,0-2,7.5-2,7.5s-22.33-3.94-23.46-17.31,17-35.2,17-35.2S40.17,146.72,39.67,147.15Z"/><path class="cls-22" d="M280.49,155.45c2.59,3.29,11,10.62,13.06,18.72,2.54,10.16,4.36,37.62-4.34,95.44.57,1.6-3.74.07-3.74.07s-3.29-30.64-9.73-86.38C275.6,182,280.49,155.45,280.49,155.45Z"/><path class="cls-23" d="M262.88,162.22c1.26.05-2,62.53-17.59,108.46,2.1,3.24,3.48.46,3.48.46s14.9-24.14,21.8-47.29c6.41-19.5,7.85-23.75,9.82-39.94,1.9-15.7-2.13-19.93-2.13-19.93Z"/><path class="cls-2" d="M236,128.22c1.28,1.57,12.29,8.43,15.9,9.37,2.3.6,11.35-19.42,11.35-19.42l4.38,15.55S262.06,143.46,253,146c-3.44,1.08-17.43-10.85-20.08-14.79C233.78,130.06,235.16,129.35,236,128.22Z"/><polygon class="cls-24" points="248.22 135.41 248.81 135.62 250.48 130.27 249.5 129.9 248.22 135.41"/><path class="cls-25" d="M248.16,136.8h0s.05,0,.06,0l.07-.28a0,0,0,0,0,0-.06h0a0,0,0,0,0,0,0l-.08.28A.06.06,0,0,0,248.16,136.8Z"/><path class="cls-26" d="M251.42,125h0a.15.15,0,0,0,.18-.12l.1-.35a.18.18,0,0,0-.09-.21h0a.14.14,0,0,0-.18.11l-.09.35A.18.18,0,0,0,251.42,125Z"/><path class="cls-27" d="M249.34,130.11l1.21.46,1.39-5.17a.68.68,0,0,0-.34-.82h0a.74.74,0,0,0-.94.6Z"/><path class="cls-28" d="M249.39,128.7h0s.28,0,.51-.39a2.28,2.28,0,0,0,.07-1.08,7.43,7.43,0,0,1,0-1.34,1.14,1.14,0,0,1,.88-1.08.16.16,0,0,0,.1-.17.11.11,0,0,0-.13-.12,1.43,1.43,0,0,0-1.09,1.34,9.2,9.2,0,0,0,0,1.4,2.15,2.15,0,0,1,0,.89c-.15.26-.3.26-.3.26a.14.14,0,0,0-.12.15C249.3,128.63,249.33,128.69,249.39,128.7Z"/><path class="cls-29" d="M249.26,130.18l1.26.48s.09,0,.11-.07h0a.12.12,0,0,0-.06-.14l-1.25-.48a.09.09,0,0,0-.11.07h0A.12.12,0,0,0,249.26,130.18Z"/><path class="cls-30" d="M248.83,135.58l-.57,1c0,.05-.1,0-.1,0l.06-1.22A.55.55,0,0,1,248.83,135.58Z"/><path class="cls-31" d="M257.12,138l-3.16-1.9s-.9-3.58-1.67-3.83-4-.71-4.58-.43-.87,4,0,5.38,7.94,4.35,9.69,4.47S257.12,138,257.12,138Z"/><path class="cls-7" d="M246.83,123l9,24.09a2.63,2.63,0,0,1-2.61,3.52L236.81,150a2.67,2.67,0,0,1-2.46-1.83l-7.92-24.52a2.63,2.63,0,0,1,2.73-3.4l15.33,1A2.68,2.68,0,0,1,246.83,123Z"/><path class="cls-7" d="M246.38,123.15,255.45,147a2.59,2.59,0,0,1-2.6,3.47l-16.46-.6a2.69,2.69,0,0,1-2.47-1.82L226,123.77a2.6,2.6,0,0,1,2.73-3.36l15.33,1A2.67,2.67,0,0,1,246.38,123.15Z"/><path class="cls-7" d="M239.22,121.42l-.93-2.64a.62.62,0,0,0-.53-.41l-5.3-.48a.62.62,0,0,0-.65.76l.68,2.73a.59.59,0,0,0,.55.46l5.55.4A.62.62,0,0,0,239.22,121.42Z"/><path class="cls-7" d="M242.56,123.27s1.35-1.67-4.67-2c-4.16-.22-7.87-.9-7,1.15Z"/><path class="cls-7" d="M233.43,118.91l3.67.25s-.49-3.55-3.13-3.35C232,116,233.43,118.91,233.43,118.91Zm.34-1.83a.65.65,0,0,1,.72-.55.64.64,0,0,1,.63.65.68.68,0,0,1-1.35-.1Z"/><path class="cls-32" d="M227.87,128s-2.81-.58-2.55.77,3.3.4,3.61-.07S229.15,127.9,227.87,128Z"/><path class="cls-33" d="M228.09,126.66s-2.81.12-2.49,1c.48,1.31,3.31.17,3.59-.34S229.35,126.46,228.09,126.66Z"/><path class="cls-34" d="M228.34,129.15s-2.84-.53-2.43,1c.28,1.07,3.15.28,3.46-.19S229.62,129.05,228.34,129.15Z"/><path class="cls-35" d="M229.16,130.31s-2.42-.22-2,.88c.32.86,2.37.25,2.65-.24S230.19,130.12,229.16,130.31Z"/><path class="cls-36" d="M274.89,104.66s-.45,5.72-2,8.9c-1.28,2.59-2.61,2.26-6.23,3.94-8.05,3.71,10.11,11.4,14.68,9.44,8.53-3.66,7.54-7,7.54-7s-5.75-1.93-7.44-5.29c-1-2.07-.14-4.72.26-7C282.24,104.56,274.89,104.66,274.89,104.66Z"/><path class="cls-2" d="M262.9,118.67c1.16-2.09,7-3,7-2.91.38,2.22,2.11,7.47,3.43,7.69,2.23.37,8.59-8,8.59-8,1.18-.58,9.19,3.12,9.35,4.25-.74,5.32-1.73,18.75-1.84,28.81.3,7.08.53,10.26,1,12.77.67,3.69-28.09,4.08-27.82.25.87-12.65-.6-20.75-1.07-26.63C261.17,130.2,261.33,121.49,262.9,118.67Z"/><path class="cls-37" d="M281.79,115s-3.77,5.56-7.89,8.31a25.49,25.49,0,0,1-3.5-8.11,5.38,5.38,0,0,0-2.54,1.19c.23-.09.54,6.85.54,6.85a4.36,4.36,0,0,1,5.36,2.1c.05-1,5.26-2.59,8.37-1.12.09.1,2.8-5,3.06-8C284.73,115.68,281.79,115,281.79,115Z"/><path class="cls-13" d="M290.23,91.56c3.82.54,5.37,3.19,6,9.49.55,5.5,9.81,6.81,8.3,3.84s-2.69.7-2.8.4c-.18-.49.55-4.68,4.34-2,3.12,2.22,1.47,7.92-2.74,9.3-7.19,2.36-14.09-1.06-14.74-8.67-.44-5.25,1.8-9.29-3.24-9.55-.51,0-1.61-1.13-.84,0C284.51,94.35,284.38,90.74,290.23,91.56Z"/><path class="cls-13" d="M292.16,90.81c4.41,2.22,5.34,3,5.1,6.32s-1.42,7.93,2.87,9.09c-.82.13-4.6-1.55-3.8-7.92.74-5.93-4.58-7.3-6.46-7.24s-4.52,2.19-4.81,2.77c0,0-1.2.53-.41-.64A6,6,0,0,1,292.16,90.81Z"/><path class="cls-38" d="M269.39,106.89c2.92,7.82,11,7,12.24,1.44a22,22,0,0,0,.69-2.31.78.78,0,0,0,1.11-.35l.75-1.44a3.9,3.9,0,0,0,.59-1.5,1.46,1.46,0,0,0-1.79-1.55,1,1,0,0,0-.28.12A12.24,12.24,0,0,0,276.78,92C270.07,87.47,266.47,99.08,269.39,106.89Z"/><path class="cls-13" d="M275.54,89c3.57-.66,9.21.2,11.42,6.61a13.87,13.87,0,0,1-.53,10c-.93,1.81-2.81,4.79-5.74,4.88a10.16,10.16,0,0,0,1.12-2.66c.36-1.25.16-2,.51-2.29.69-.67,1.46-2.72.71-3.49-.91-.92-2.56,1.47-2.56,1.47s-7.12-.38-9.31-7.11a9.53,9.53,0,0,0-2.78,4.47C267.92,102.3,265.16,91,275.54,89Z"/><path class="cls-2" d="M290.66,118.93s-1.45-3.66-7.19,7.21-7.66,14.69-10.88,15c-2.76.32-16.67-4.56-16.67-4.56a8.38,8.38,0,0,0-1.65,4.37c.37,1.26,11,7.5,19.44,8.67s17.37-15.93,18.17-19.28C293.27,124.52,292.25,120.33,290.66,118.93Z"/><path class="cls-3" d="M262.93,160.65s-4.26,26.57-6.88,49c-.16,1.39,19.47,8.06,42.55.8,1-.33.91-42.32-8.36-48.49Z"/><path class="cls-13" d="M245.92,268.7s-8.3,1.23-8.89,3c-.95,2.8,11.27,2.72,12.87,1.26s-.1-3.61-.1-3.61S248.22,270.66,245.92,268.7Z"/><path class="cls-39" d="M245.23,269.06a4,4,0,0,1,1,1.54C246.22,271.15,244.11,268.74,245.23,269.06Z"/><path class="cls-39" d="M243.52,269.48a3.82,3.82,0,0,1,1,1.54C244.49,271.56,242.41,269.16,243.52,269.48Z"/><path class="cls-39" d="M241.92,269.77a3.29,3.29,0,0,1,.83,1.35C242.72,271.6,241,269.51,241.92,269.77Z"/><path class="cls-13" d="M285.38,268.7s-8.3,1.23-8.9,3c-.94,2.8,11.28,2.72,12.88,1.26s-.1-3.61-.1-3.61S287.67,270.66,285.38,268.7Z"/><path class="cls-39" d="M284.69,269.06a3.88,3.88,0,0,1,1,1.54C285.68,271.15,283.57,268.74,284.69,269.06Z"/><path class="cls-39" d="M283,269.48a3.82,3.82,0,0,1,1,1.54C283.94,271.56,281.87,269.16,283,269.48Z"/><path class="cls-39" d="M281.38,269.77a3.29,3.29,0,0,1,.83,1.35C282.18,271.6,280.42,269.51,281.38,269.77Z"/><path class="cls-40" d="M262.52,163v-2.65s17.09,1.86,28.15.29a11.45,11.45,0,0,1,.11,1.77S275.86,165.73,262.52,163Z"/><path class="cls-2" d="M240.28,42.07c6.52-5.18,49.17,5.41,49.81,6.07,1.65,1.68.11,7.58-1.82,13l5.27,15.07-9.64-4a1.69,1.69,0,0,1-1.6,1.13H243.78C242.86,73.35,231.27,49.24,240.28,42.07Z"/><path class="cls-4" d="M268.42,69.2c-.17-3.88-2-6.93-4.27-6.93s-4.1,3-4.27,6.93Z"/><path class="cls-4" d="M266.65,58.91a2.5,2.5,0,1,1-2.5-2.5A2.5,2.5,0,0,1,266.65,58.91Z"/><path class="cls-4" d="M259.07,61.35c-.17-3.88-2-6.93-4.27-6.93s-4.1,3-4.27,6.93Z"/><circle class="cls-4" cx="254.8" cy="51.06" r="2.5"/><path class="cls-4" d="M277.78,61.35c-.18-3.88-2-6.93-4.27-6.93s-4.1,3-4.27,6.93Z"/><path class="cls-4" d="M276,51.06a2.5,2.5,0,1,1-2.49-2.5A2.49,2.49,0,0,1,276,51.06Z"/><path class="cls-41" d="M226.16,247.71H202.84c-1.4-1.84-3.09-3.73-4.1-3.73h-8.58a1.24,1.24,0,0,0-1.23,1.23v27.44a1.24,1.24,0,0,0,1.23,1.23h36a1.24,1.24,0,0,0,1.23-1.23V248.94A1.24,1.24,0,0,0,226.16,247.71Z"/><rect class="cls-42" x="190.03" y="248.91" width="35.25" height="22.4"/><rect class="cls-43" x="190.63" y="249.37" width="35.25" height="22.4"/><rect class="cls-4" x="191.16" y="249.84" width="35.25" height="22.4"/><path class="cls-41" d="M187.77,251.35h26.57c1.68-1.58,3.71-3.21,4.89-3.21h10c.79,0,1.37.48,1.29,1.06l-3,23.62a1.35,1.35,0,0,1-1.36,1.06H190.23a1.33,1.33,0,0,1-1.35-1.06l-2.39-20.41C186.42,251.82,187,251.35,187.77,251.35Z"/><path class="cls-44" d="M208.22,263.12a1.37,1.37,0,0,1-.13.56,2,2,0,0,1-.4.58,2.05,2.05,0,0,1-.69.47,2.43,2.43,0,0,1-1,.18,3,3,0,0,1-.77-.09,1.77,1.77,0,0,1-.63-.25,2,2,0,0,1-.52-.44,2.43,2.43,0,0,1-.37-.57,2.84,2.84,0,0,1-.22-.66,3.69,3.69,0,0,1-.08-.76,3.42,3.42,0,0,1,.19-1.15,2.61,2.61,0,0,1,.54-.88,2.42,2.42,0,0,1,.82-.55,2.63,2.63,0,0,1,1-.19,2.5,2.5,0,0,1,1.15.26,2,2,0,0,1,.78.64,1.24,1.24,0,0,1,.27.72.48.48,0,0,1-.13.33.43.43,0,0,1-.32.14.41.41,0,0,1-.31-.1,1.16,1.16,0,0,1-.23-.34,1.65,1.65,0,0,0-.5-.59,1.24,1.24,0,0,0-.71-.2,1.27,1.27,0,0,0-1.06.51,2.33,2.33,0,0,0-.4,1.44,2.62,2.62,0,0,0,.18,1,1.4,1.4,0,0,0,2,.59,1.41,1.41,0,0,0,.49-.68.9.9,0,0,1,.17-.34.38.38,0,0,1,.33-.14.47.47,0,0,1,.33.14A.45.45,0,0,1,208.22,263.12Z"/><path class="cls-45" d="M210,260.08l1.22,3.59,1.21-3.61a4.13,4.13,0,0,1,.15-.4.55.55,0,0,1,.15-.2.53.53,0,0,1,.56,0,.55.55,0,0,1,.19.18.53.53,0,0,1,.06.23.55.55,0,0,1,0,.18,1.21,1.21,0,0,1-.05.18,1.34,1.34,0,0,0-.07.18l-1.3,3.5c0,.14-.09.26-.13.39a1.31,1.31,0,0,1-.17.31.76.76,0,0,1-.24.23.7.7,0,0,1-.37.09.72.72,0,0,1-.37-.09.66.66,0,0,1-.24-.23,1.38,1.38,0,0,1-.17-.32c0-.12-.09-.24-.14-.38L209,260.42a1.34,1.34,0,0,0-.07-.18l-.06-.2a1.41,1.41,0,0,1,0-.18.48.48,0,0,1,.15-.34.52.52,0,0,1,.38-.15.45.45,0,0,1,.39.17A2,2,0,0,1,210,260.08Z"/><path class="cls-46" d="M123.39,253.62l-23.3,0A2.11,2.11,0,0,0,98,255.79l0,16a2.12,2.12,0,0,0,2.13,2.11l23.3,0a2.12,2.12,0,0,0,2.12-2.12l0-16A2.11,2.11,0,0,0,123.39,253.62Z"/><path class="cls-47" d="M124.45,251.35,99,251.4a1.81,1.81,0,0,0-1.81,1.82l0,9.58a1.81,1.81,0,0,0,1.82,1.81l25.42-.05a1.81,1.81,0,0,0,1.81-1.82v-9.58A1.82,1.82,0,0,0,124.45,251.35Z"/><path class="cls-48" d="M105.82,252.55V251a2.68,2.68,0,0,1,2.68-2.7h3.8A2.71,2.71,0,0,1,115,251v1.51h1.81V251a4.5,4.5,0,0,0-4.52-4.5H108.5A4.5,4.5,0,0,0,104,251v1.51Z"/><path class="cls-2" d="M122.06,253.61l-23.3,0a2.12,2.12,0,0,0-2.12,2.12l0,16a2.12,2.12,0,0,0,2.12,2.12l23.3-.05a2.12,2.12,0,0,0,2.12-2.12l0-16A2.14,2.14,0,0,0,122.06,253.61Z"/><path class="cls-3" d="M123.12,251.34l-25.43,0a1.82,1.82,0,0,0-1.81,1.82l0,9.58a1.82,1.82,0,0,0,1.82,1.82l25.42-.05a1.83,1.83,0,0,0,1.82-1.82l0-9.59A1.82,1.82,0,0,0,123.12,251.34Z"/><path class="cls-49" d="M110.43,262.76a1.28,1.28,0,0,0-1.26,1.27v1.81a1.27,1.27,0,0,0,2.53,0V264A1.27,1.27,0,0,0,110.43,262.76Z"/></g></g></svg>