<svg xmlns="http://www.w3.org/2000/svg" viewBox="0 0 254.46 255.6"><defs><style>.cls-1{fill:#1a2089;}.cls-2{fill:#5d4efa;}.cls-3{fill:#fff;}.cls-4{fill:#4cc2fc;}.cls-5{fill:#6078f2;}.cls-6{fill:#e7ae9e;}.cls-7{fill:#29abe2;}.cls-8{fill:#a0b7fc;}.cls-9{fill:#cddbfd;}.cls-10{fill:#1b1464;}</style></defs><title>exceptional_work_experience</title><g id="Layer_2" data-name="Layer 2"><g id="Layer_1-2" data-name="Layer 1"><g id="Human_resources" data-name="Human resources"><path d="M10.29,63.17a2.47,2.47,0,0,1-.3-4.93,2.52,2.52,0,0,1,1.83.5,2.48,2.48,0,0,1-1.22,4.41h0A1.62,1.62,0,0,1,10.29,63.17Zm.25-.47h0Zm-.24-3.56h-.2a1.52,1.52,0,0,0-1,.59,1.54,1.54,0,0,0-.32,1.15,1.56,1.56,0,0,0,3.09-.39,1.52,1.52,0,0,0-.59-1A1.59,1.59,0,0,0,10.3,59.14Z"/><path d="M6.63,75a3.12,3.12,0,1,1,1.93-5.58A3.12,3.12,0,0,1,7,75Zm0-5.32-.27,0a2.18,2.18,0,0,0-1.91,2.45,2.18,2.18,0,0,0,2.45,1.91h0a2.23,2.23,0,0,0,1.47-.83,2.2,2.2,0,0,0-1.74-3.55Z"/><path d="M179.65,226.54a.43.43,0,0,1-.19,0l-1.8-.83a.46.46,0,1,1,.38-.83l1.8.83a.45.45,0,0,1-.19.87Z"/><path d="M186,229.45a.45.45,0,0,1-.19,0l-1.8-.82a.47.47,0,0,1-.23-.62.46.46,0,0,1,.61-.22l1.81.83a.45.45,0,0,1,.22.61A.46.46,0,0,1,186,229.45Z"/><path d="M180.06,231.65a.43.43,0,0,1-.19,0,.47.47,0,0,1-.23-.61l.82-1.81a.47.47,0,0,1,.61-.23.46.46,0,0,1,.23.61l-.82,1.81A.45.45,0,0,1,180.06,231.65Z"/><path d="M182.93,225.32a.43.43,0,0,1-.19,0,.47.47,0,0,1-.23-.61l.82-1.81a.46.46,0,0,1,.84.38l-.82,1.81A.46.46,0,0,1,182.93,225.32Z"/><path d="M2.33,95.11A.52.52,0,0,1,2,95,.47.47,0,0,1,2,94.37L3.4,92.54a.46.46,0,0,1,.65-.08.45.45,0,0,1,.07.64L2.69,94.94A.48.48,0,0,1,2.33,95.11Z"/><path d="M7.35,88.7a.46.46,0,0,1-.29-.1A.45.45,0,0,1,7,88l1.43-1.84a.46.46,0,0,1,.73.57L7.71,88.52A.45.45,0,0,1,7.35,88.7Z"/><path d="M9.7,94.2a.53.53,0,0,1-.29-.1L7.57,92.68A.47.47,0,0,1,7.49,92,.46.46,0,0,1,8.14,92L10,93.37a.46.46,0,0,1,.08.65A.49.49,0,0,1,9.7,94.2Z"/><path d="M3.25,89.21A.51.51,0,0,1,3,89.12L1.13,87.69A.46.46,0,0,1,1.05,87,.47.47,0,0,1,1.7,87l1.84,1.43a.45.45,0,0,1,.08.64A.46.46,0,0,1,3.25,89.21Z"/><path d="M242.3,35.37a.45.45,0,0,1-.46-.46V32.55a.46.46,0,0,1,.46-.47.47.47,0,0,1,.46.47v2.36A.46.46,0,0,1,242.3,35.37Z"/><path d="M242.3,40.89a.46.46,0,0,1-.46-.46V38.06a.46.46,0,0,1,.46-.46.47.47,0,0,1,.46.46v2.37A.47.47,0,0,1,242.3,40.89Z"/><path d="M240.72,37h-2.37a.47.47,0,0,1-.46-.46.46.46,0,0,1,.46-.46h2.37a.45.45,0,0,1,.46.46A.46.46,0,0,1,240.72,37Z"/><path d="M246.24,37h-2.37a.47.47,0,0,1-.46-.46.46.46,0,0,1,.46-.46h2.37a.46.46,0,0,1,.46.46A.47.47,0,0,1,246.24,37Z"/><path d="M141.48,240.52c-1.7,0-3.38-.07-5-.21a.46.46,0,0,1-.42-.5.47.47,0,0,1,.5-.42c11.69,1,24.39-1.54,36.72-7.29a.46.46,0,0,1,.62.22.48.48,0,0,1-.23.62A76.77,76.77,0,0,1,141.48,240.52Z"/><path d="M138.58,246.74a57.29,57.29,0,0,1-20.07-3.54.46.46,0,0,1-.27-.59.47.47,0,0,1,.59-.28c18.58,6.9,36.75,2.27,48.72-2.82a.45.45,0,0,1,.61.24.46.46,0,0,1-.25.6A75.83,75.83,0,0,1,138.58,246.74Z"/><path d="M129.74,239.92a2.54,2.54,0,0,1-2.32-3.55,2.62,2.62,0,0,1,3.38-1.4,2.49,2.49,0,0,1,1.37,1.37,2.52,2.52,0,0,1,0,2A2.63,2.63,0,0,1,129.74,239.92Zm.09-4.22a1.71,1.71,0,0,0-1.56,1,1.65,1.65,0,0,0,0,1.27,1.61,1.61,0,0,0,.87.87,1.7,1.7,0,0,0,2.18-.92,1.65,1.65,0,0,0,0-1.27,1.58,1.58,0,0,0-.87-.87A1.67,1.67,0,0,0,129.83,235.7Z"/><path class="cls-1" d="M163,156.11l-50.78-7.59c-.33,0-.44.31-.44.6v43.21c0,4.13-28.85,14.88-29.13,14.34l0,4.57c0,.85.71,1.43,1.7,1.6l43.23,7.91a14.9,14.9,0,0,0,5.72-1.19l23.41-9.86A10.73,10.73,0,0,0,163.5,200V156.71A.57.57,0,0,0,163,156.11Z"/><path class="cls-2" d="M106.6,146v43.22a11,11,0,0,1-7,10l-15.79,6.74c-1,.44-.79,1.63.46,1.82l43.39,7.91a14.5,14.5,0,0,0,5.65-1.13l17.49-7.36a11.06,11.06,0,0,0,7.11-10V153.91a.34.34,0,0,0-.36-.32L107,145.68A.35.35,0,0,0,106.6,146Z"/><path d="M125.12,215.68H125l-40.9-7.45a1.63,1.63,0,0,1-1.48-1.3,1.36,1.36,0,0,1,.92-1.4l15.79-6.74a10.65,10.65,0,0,0,6.77-9.56v-9.06a.45.45,0,0,1,.46-.46.46.46,0,0,1,.46.46v9.06a11.55,11.55,0,0,1-7.33,10.4l-15.79,6.75c-.25.1-.39.27-.36.44s.25.43.71.5l40.91,7.45a.46.46,0,0,1-.08.92Z"/><path class="cls-1" d="M241.91,190.74,236.24,196,31.1,160.53a5.83,5.83,0,0,1-4.84-5.85l2.17-131L35.22,20a6.35,6.35,0,0,1,4.08-.64l199.39,36a6.28,6.28,0,0,1,5.16,6.19l.05,124.59A6.29,6.29,0,0,1,241.91,190.74Z"/><path class="cls-2" d="M231.68,196.72,30.6,160.41a5.25,5.25,0,0,1-4.32-5.17V28.82a5.25,5.25,0,0,1,6.18-5.17L233.54,60a5.25,5.25,0,0,1,4.32,5.17V191.55A5.25,5.25,0,0,1,231.68,196.72Z"/><path d="M76.67,169.3h-.08l-38.61-7a.46.46,0,0,1-.37-.54.46.46,0,0,1,.53-.37l38.62,7a.47.47,0,0,1,.37.54A.46.46,0,0,1,76.67,169.3Z"/><path d="M214,194.09h-.08l-35.34-6.39a.45.45,0,0,1-.37-.53.46.46,0,0,1,.54-.37L214,193.18a.46.46,0,0,1,.37.53A.46.46,0,0,1,214,194.09Z"/><path d="M26,90.09h0a.45.45,0,0,1-.46-.46V28.88a5.71,5.71,0,0,1,6.72-5.62l1.78.32a.46.46,0,0,1,.37.54.46.46,0,0,1-.53.37l-1.78-.32a4.72,4.72,0,0,0-3.92,1,4.78,4.78,0,0,0-1.72,3.67V89.63A.46.46,0,0,1,26,90.09Z"/><path class="cls-3" d="M126.57,136.83,40.75,122.17a4.91,4.91,0,0,1-4-4.67V3.84a3.26,3.26,0,0,1,4-3.32l85.82,14.66a4.93,4.93,0,0,1,4,4.67V133.52A3.26,3.26,0,0,1,126.57,136.83Z"/><path class="cls-4" d="M111.57,57.94l-51-8.71a2.69,2.69,0,0,1-2.16-2.55h0a1.78,1.78,0,0,1,2.16-1.81l51,8.71a2.68,2.68,0,0,1,2.16,2.55h0A1.77,1.77,0,0,1,111.57,57.94Z"/><path class="cls-4" d="M120.52,84.9l-61-10.42a2.7,2.7,0,0,1-2.16-2.55h0a1.78,1.78,0,0,1,2.16-1.81l61,10.42a2.68,2.68,0,0,1,2.16,2.55h0A1.79,1.79,0,0,1,120.52,84.9Z"/><path class="cls-4" d="M51.48,70.77A2.15,2.15,0,0,1,48.87,73a3.24,3.24,0,0,1-2.62-3.08,2.16,2.16,0,0,1,2.62-2.2A3.25,3.25,0,0,1,51.48,70.77Z"/><path class="cls-4" d="M120.74,75.59l-61-10.43a2.67,2.67,0,0,1-2.16-2.54h0a1.78,1.78,0,0,1,2.16-1.82l61,10.43a2.68,2.68,0,0,1,2.16,2.55h0A1.79,1.79,0,0,1,120.74,75.59Z"/><path class="cls-4" d="M51.71,61.46a2.15,2.15,0,0,1-2.62,2.19,3.25,3.25,0,0,1-2.62-3.09,2.16,2.16,0,0,1,2.62-2.19A3.25,3.25,0,0,1,51.71,61.46Z"/><path class="cls-4" d="M120.35,94.77l-61-10.43a2.67,2.67,0,0,1-2.16-2.55h0A1.78,1.78,0,0,1,59.36,80l61,10.43A2.68,2.68,0,0,1,122.51,93h0A1.79,1.79,0,0,1,120.35,94.77Z"/><ellipse class="cls-4" cx="48.7" cy="80.19" rx="2.41" ry="2.86" transform="translate(-40.65 51.59) rotate(-40.98)"/><path class="cls-4" d="M120.18,104.47,59.19,94A2.68,2.68,0,0,1,57,91.49h0a1.79,1.79,0,0,1,2.16-1.81l61,10.42a2.68,2.68,0,0,1,2.16,2.55h0A1.78,1.78,0,0,1,120.18,104.47Z"/><path class="cls-4" d="M51.15,90.34a2.15,2.15,0,0,1-2.61,2.19,3.25,3.25,0,0,1-2.62-3.09,2.15,2.15,0,0,1,2.62-2.19A3.25,3.25,0,0,1,51.15,90.34Z"/><path class="cls-4" d="M120,114.84,59,104.41a2.68,2.68,0,0,1-2.16-2.55h0A1.79,1.79,0,0,1,59,100.05l61,10.43a2.68,2.68,0,0,1,2.16,2.54h0A1.79,1.79,0,0,1,120,114.84Z"/><path class="cls-4" d="M51,100.71a2.16,2.16,0,0,1-2.62,2.19,3.25,3.25,0,0,1-2.62-3.09,2.15,2.15,0,0,1,2.62-2.19A3.26,3.26,0,0,1,51,100.71Z"/><path class="cls-4" d="M119.85,124.7l-61-10.42a2.68,2.68,0,0,1-2.16-2.55h0a1.79,1.79,0,0,1,2.16-1.81l61,10.42a2.68,2.68,0,0,1,2.16,2.55h0A1.77,1.77,0,0,1,119.85,124.7Z"/><path class="cls-4" d="M50.82,110.57a2.16,2.16,0,0,1-2.62,2.2,3.25,3.25,0,0,1-2.61-3.09,2.15,2.15,0,0,1,2.61-2.19A3.24,3.24,0,0,1,50.82,110.57Z"/><path class="cls-3" d="M71.14,26.44c0-7.83,6.28-13.11,14-11.79a17.46,17.46,0,0,1,14,16.6c0,7.83-6.29,13.11-14,11.79a17.45,17.45,0,0,1-14-16.6Z"/><path class="cls-5" d="M75.29,37.47A16.94,16.94,0,0,0,85,43a12.2,12.2,0,0,0,9.69-2.23A36.28,36.28,0,0,0,85,37.7a31.93,31.93,0,0,0-9.7-.23Z"/><path class="cls-6" d="M87.69,23.76l-.14,0a4.62,4.62,0,0,0-.84.61,6.72,6.72,0,0,1-3,1.23c-.67.12-2.71-.17-3.15.21s-.15,2.06-.15,2.73a5.77,5.77,0,0,0,1.81,4.07v4.06a3.59,3.59,0,0,0,2.88,3.41A2.38,2.38,0,0,0,88,37.71v-4a4,4,0,0,0,2-3.54V27.38C89.9,26.33,89.15,23.27,87.69,23.76Z"/><path d="M87.36,43.67a17,17,0,0,1-12.79-6.33A17.07,17.07,0,0,1,70.45,25a12.3,12.3,0,0,1,4.32-8.45C80.24,12,89,13.27,94.7,19.37a.47.47,0,0,1,0,.65A.48.48,0,0,1,94,20c-5.37-5.75-13.57-6.95-18.67-2.75a11.38,11.38,0,0,0-4,7.83,16.16,16.16,0,0,0,3.91,11.67c5.31,6.34,14,7.9,19.33,3.49a11.71,11.71,0,0,0,4-9.94.47.47,0,0,1,.44-.49.46.46,0,0,1,.48.44A12.62,12.62,0,0,1,95.2,41,12.22,12.22,0,0,1,87.36,43.67Z"/><path d="M85.56,40.63a3.66,3.66,0,0,1-.57-.05,4.06,4.06,0,0,1-3.26-3.86V32.66a.46.46,0,0,1,.46-.46.47.47,0,0,1,.46.46v4.06a3.1,3.1,0,0,0,2.5,3,1.9,1.9,0,0,0,2.34-2V33.85a.47.47,0,0,1,.46-.46.46.46,0,0,1,.46.46v3.86a2.89,2.89,0,0,1-1,2.26A2.85,2.85,0,0,1,85.56,40.63Z"/><path d="M91.39,25a5.56,5.56,0,0,0-.82-2.79,3.16,3.16,0,0,0-.79-.76,4.57,4.57,0,0,0-2.34-.73,5.6,5.6,0,0,1-1.15-.07,7.75,7.75,0,0,1-1-.36C82,19,77.63,21.07,79,25l1.36,4.06c.39,8.79,9.48,8.84,9.59,1.55.25-.78.49-1.57.73-2.35.17-.52.31-1,.43-1.56A5.05,5.05,0,0,0,91.39,25Z"/><path class="cls-6" d="M85.14,33.18c2.12.36,3.85-.9,3.85-2.82V28.31a4.4,4.4,0,0,0-3.72-4l-4-.68V29a4.32,4.32,0,0,0,2.25,3.56Z"/><path d="M85.85,33.7a4.29,4.29,0,0,1-.79-.07l-.08,0L83.39,33l-.07,0a4.77,4.77,0,0,1-2.49-4V23.63a.46.46,0,0,1,.17-.36.49.49,0,0,1,.37-.1l4,.68a4.89,4.89,0,0,1,4.1,4.46v2.05a3.23,3.23,0,0,1-1.14,2.5A3.8,3.8,0,0,1,85.85,33.7Zm-.59-1a3,3,0,0,0,2.45-.58,2.28,2.28,0,0,0,.81-1.79V28.31a3.91,3.91,0,0,0-3.33-3.55l-3.43-.59V29a3.85,3.85,0,0,0,2,3.14Z"/><path d="M68.66,127.4h-.08l-27.9-4.77a5.38,5.38,0,0,1-4.34-5.12V3.84a3.8,3.8,0,0,1,1.31-3,3.86,3.86,0,0,1,3.18-.8l85.82,14.67A5.4,5.4,0,0,1,131,19.85V53.38a.47.47,0,0,1-.93,0V19.85a4.43,4.43,0,0,0-3.57-4.21L40.68,1a2.93,2.93,0,0,0-2.43.6,2.89,2.89,0,0,0-1,2.27V117.5a4.45,4.45,0,0,0,3.57,4.22l27.9,4.76a.47.47,0,0,1,.38.53A.46.46,0,0,1,68.66,127.4Z"/><path class="cls-3" d="M227,154.61l-85.81-14.67a4.91,4.91,0,0,1-4-4.67V21.61a3.26,3.26,0,0,1,4-3.32L227,33a4.91,4.91,0,0,1,4,4.67V151.29A3.26,3.26,0,0,1,227,154.61Z"/><path class="cls-7" d="M151.91,88.54a2.16,2.16,0,0,1-2.62,2.2,3.26,3.26,0,0,1-2.62-3.09,2.16,2.16,0,0,1,2.62-2.19A3.24,3.24,0,0,1,151.91,88.54Z"/><ellipse class="cls-7" cx="149.51" cy="78.79" rx="2.41" ry="2.86" transform="translate(-15.03 117.36) rotate(-40.98)"/><ellipse class="cls-7" cx="149.12" cy="97.96" rx="2.41" ry="2.86" transform="translate(-27.7 121.8) rotate(-40.98)"/><ellipse class="cls-7" cx="148.96" cy="107.66" rx="2.41" ry="2.86" transform="translate(-34.1 124.07) rotate(-40.98)"/><path class="cls-7" d="M151.41,118.48a2.17,2.17,0,0,1-2.62,2.2,3.25,3.25,0,0,1-2.61-3.09,2.16,2.16,0,0,1,2.61-2.2A3.25,3.25,0,0,1,151.41,118.48Z"/><path class="cls-4" d="M212,75.72,161,67a2.68,2.68,0,0,1-2.16-2.55h0A1.79,1.79,0,0,1,161,62.64l51,8.72a2.67,2.67,0,0,1,2.15,2.55h0A1.78,1.78,0,0,1,212,75.72Z"/><path class="cls-4" d="M220.94,102.67,160,92.25a2.67,2.67,0,0,1-2.16-2.55h0A1.78,1.78,0,0,1,160,87.89l61,10.42a2.7,2.7,0,0,1,2.16,2.55h0A1.78,1.78,0,0,1,220.94,102.67Z"/><path class="cls-4" d="M221.16,93.36l-61-10.42A2.69,2.69,0,0,1,158,80.39h0a1.78,1.78,0,0,1,2.16-1.81l61,10.42a2.68,2.68,0,0,1,2.16,2.55h0A1.78,1.78,0,0,1,221.16,93.36Z"/><path class="cls-4" d="M220.77,112.54l-61-10.42a2.7,2.7,0,0,1-2.16-2.55h0a1.78,1.78,0,0,1,2.16-1.81l61,10.42a2.68,2.68,0,0,1,2.16,2.55h0A1.78,1.78,0,0,1,220.77,112.54Z"/><path class="cls-4" d="M220.61,122.24l-61-10.42a2.7,2.7,0,0,1-2.16-2.55h0a1.78,1.78,0,0,1,2.16-1.81l61,10.42a2.68,2.68,0,0,1,2.16,2.55h0A1.79,1.79,0,0,1,220.61,122.24Z"/><path class="cls-4" d="M220.44,132.61l-61-10.42a2.68,2.68,0,0,1-2.16-2.55h0a1.77,1.77,0,0,1,2.16-1.81l61,10.42a2.68,2.68,0,0,1,2.16,2.55h0A1.79,1.79,0,0,1,220.44,132.61Z"/><path class="cls-4" d="M220.27,142.48l-61-10.42a2.7,2.7,0,0,1-2.16-2.55h0a1.79,1.79,0,0,1,2.16-1.82l61,10.43a2.67,2.67,0,0,1,2.16,2.55h0A1.78,1.78,0,0,1,220.27,142.48Z"/><path class="cls-7" d="M151.24,128.35a2.15,2.15,0,0,1-2.61,2.19,3.24,3.24,0,0,1-2.62-3.09,2.16,2.16,0,0,1,2.62-2.19A3.25,3.25,0,0,1,151.24,128.35Z"/><path class="cls-3" d="M170.23,43.81c0-7.82,6.27-13.08,14-11.76a17.4,17.4,0,0,1,14,16.55c0,7.81-6.27,13.08-14,11.76a17.41,17.41,0,0,1-14-16.55Z"/><path d="M186.61,61a14.74,14.74,0,0,1-2.45-.21,17.91,17.91,0,0,1-14.39-17,13.55,13.55,0,0,1,.88-4.88.47.47,0,0,1,.6-.26.46.46,0,0,1,.26.59,12.67,12.67,0,0,0-.82,4.55A17,17,0,0,0,184.32,59.9a11.1,11.1,0,0,0,13.47-11.3,17,17,0,0,0-13.63-16.1,11.4,11.4,0,0,0-10.41,3.18.45.45,0,0,1-.65,0,.47.47,0,0,1,0-.65,12.29,12.29,0,0,1,11.24-3.45,17.9,17.9,0,0,1,14.39,17,12.33,12.33,0,0,1-4.25,9.64A12,12,0,0,1,186.61,61Z"/><path class="cls-8" d="M174.63,54.85a16.87,16.87,0,0,0,9.61,5.51,12.1,12.1,0,0,0,9.61-2.22,35.92,35.92,0,0,0-9.61-3.06,31.34,31.34,0,0,0-9.61-.23Z"/><path class="cls-3" d="M184.32,57.48h0a2.75,2.75,0,0,1-2.21-2.61V43.48l4.42.76V55.63a1.82,1.82,0,0,1-2.21,1.85Z"/><path d="M192.88,49.48c-.27-3.59,1.27-5.53-2.19-10.12-3.59-4.75-6.66-2.5-6.66-2.5s-2.57-2.59-5.93,1.33c-3,3.46.83,7.67-.45,9.92S172,51,172,51a16.61,16.61,0,0,0,3.11,4.57l18.29,3.13s3.78-3.51,3.78-4.69C197.22,54,193.16,53.06,192.88,49.48Z"/><path class="cls-1" d="M174.63,54.85a16.87,16.87,0,0,0,9.61,5.51,12.1,12.1,0,0,0,9.61-2.22,35.92,35.92,0,0,0-9.61-3.06A31.34,31.34,0,0,0,174.63,54.85Z"/><path d="M186.59,61a14.42,14.42,0,0,1-2.43-.21,17.27,17.27,0,0,1-9.87-5.65l-.57-.64.85-.12a31.51,31.51,0,0,1,9.75.22,36.49,36.49,0,0,1,9.73,3.1l.67.32-.59.46A12.06,12.06,0,0,1,186.59,61Zm-11-5.82a16.22,16.22,0,0,0,8.73,4.7A11.74,11.74,0,0,0,193,58.22a35.56,35.56,0,0,0-8.79-2.69A31.23,31.23,0,0,0,175.59,55.2Z"/><path class="cls-6" d="M184.54,40.19l-.15,0-4.5,3.8v2.51a5.54,5.54,0,0,0,2.22,4.3v4.1a2.75,2.75,0,0,0,2.21,2.61,1.82,1.82,0,0,0,2.21-1.85v-4a3.7,3.7,0,0,0,2.36-3.6V45.33A5.41,5.41,0,0,0,184.54,40.19Z"/><path d="M184.7,58a3.42,3.42,0,0,1-.45,0,3.24,3.24,0,0,1-2.6-3.07v-4a.46.46,0,0,1,.46-.46.45.45,0,0,1,.46.46v4A2.27,2.27,0,0,0,184.4,57a1.37,1.37,0,0,0,1.67-1.4V51.72a.47.47,0,0,1,.93,0v3.91A2.29,2.29,0,0,1,184.7,58Z"/><path d="M185.15,52.31a4.92,4.92,0,0,1-.84-.07.46.46,0,0,1-.38-.53.47.47,0,0,1,.54-.38,3.25,3.25,0,0,0,4-3.32V45.33a4.93,4.93,0,0,0-3.77-4.65l-4.31,3.58v2.21a5.14,5.14,0,0,0,2.42,4.2.46.46,0,0,1-.49.78,6.08,6.08,0,0,1-2.85-5V44a.45.45,0,0,1,.16-.35l4.66-3.86a.48.48,0,0,1,.37-.1l.21.05a5.86,5.86,0,0,1,4.52,5.55V48a4.29,4.29,0,0,1-1.47,3.34A4.21,4.21,0,0,1,185.15,52.31Z"/><path d="M227.66,155.13a5,5,0,0,1-.75-.07l-46.47-7.94a.46.46,0,0,1-.38-.53.47.47,0,0,1,.53-.38l46.48,7.94a2.93,2.93,0,0,0,2.43-.59,2.89,2.89,0,0,0,1-2.27V37.63a4.45,4.45,0,0,0-3.58-4.22L141.1,18.75a2.8,2.8,0,0,0-3.42,2.86V57.68a.46.46,0,0,1-.92,0V21.61a3.81,3.81,0,0,1,1.31-3,3.87,3.87,0,0,1,3.18-.8L227.07,32.5a5.41,5.41,0,0,1,4.34,5.13V151.29a3.79,3.79,0,0,1-1.32,3A3.69,3.69,0,0,1,227.66,155.13Z"/><path class="cls-3" d="M171,189.27,85.2,174.6a4.92,4.92,0,0,1-4-4.67V56.27a3.27,3.27,0,0,1,4-3.32L171,67.62A4.91,4.91,0,0,1,175,72.29V186A3.26,3.26,0,0,1,171,189.27Z"/><path class="cls-4" d="M156,110.38l-51-8.72a2.67,2.67,0,0,1-2.16-2.55h0A1.78,1.78,0,0,1,105,97.3L156,106a2.68,2.68,0,0,1,2.16,2.55h0A1.79,1.79,0,0,1,156,110.38Z"/><path class="cls-4" d="M165,137.33l-61-10.42a2.68,2.68,0,0,1-2.16-2.55h0a1.79,1.79,0,0,1,2.16-1.81L165,133a2.68,2.68,0,0,1,2.16,2.55h0A1.77,1.77,0,0,1,165,137.33Z"/><path class="cls-4" d="M95.93,123.2a2.16,2.16,0,0,1-2.62,2.2,3.25,3.25,0,0,1-2.61-3.09,2.15,2.15,0,0,1,2.61-2.19A3.24,3.24,0,0,1,95.93,123.2Z"/><path class="cls-4" d="M165.19,128l-61-10.42a2.69,2.69,0,0,1-2.16-2.55h0a1.78,1.78,0,0,1,2.16-1.81l61,10.42a2.69,2.69,0,0,1,2.16,2.55h0A1.78,1.78,0,0,1,165.19,128Z"/><ellipse class="cls-4" cx="93.54" cy="113.45" rx="2.41" ry="2.86" transform="matrix(0.75, -0.66, 0.66, 0.75, -51.48, 89.14)"/><path class="cls-4" d="M164.8,147.2l-61-10.42a2.7,2.7,0,0,1-2.16-2.55h0a1.78,1.78,0,0,1,2.16-1.81l61,10.42a2.69,2.69,0,0,1,2.16,2.55h0A1.79,1.79,0,0,1,164.8,147.2Z"/><path class="cls-4" d="M95.77,133.07a2.17,2.17,0,0,1-2.62,2.2,3.25,3.25,0,0,1-2.62-3.09,2.17,2.17,0,0,1,2.62-2.2A3.26,3.26,0,0,1,95.77,133.07Z"/><path class="cls-4" d="M164.63,156.9l-61-10.42a2.68,2.68,0,0,1-2.16-2.55h0a1.77,1.77,0,0,1,2.16-1.81l61,10.42a2.68,2.68,0,0,1,2.16,2.55h0A1.79,1.79,0,0,1,164.63,156.9Z"/><ellipse class="cls-4" cx="92.98" cy="142.32" rx="2.41" ry="2.86" transform="translate(-70.55 95.86) rotate(-40.98)"/><path class="cls-4" d="M164.46,167.27l-61-10.42a2.7,2.7,0,0,1-2.16-2.55h0a1.78,1.78,0,0,1,2.16-1.81l61,10.42a2.67,2.67,0,0,1,2.16,2.55h0A1.78,1.78,0,0,1,164.46,167.27Z"/><path class="cls-4" d="M95.43,153.14a2.16,2.16,0,0,1-2.61,2.2,3.25,3.25,0,0,1-2.62-3.09,2.17,2.17,0,0,1,2.62-2.2A3.25,3.25,0,0,1,95.43,153.14Z"/><path class="cls-4" d="M164.3,177.14l-61-10.42a2.68,2.68,0,0,1-2.16-2.55h0a1.78,1.78,0,0,1,2.16-1.82l61,10.43a2.68,2.68,0,0,1,2.16,2.55h0A1.79,1.79,0,0,1,164.3,177.14Z"/><path class="cls-4" d="M95.27,163a2.15,2.15,0,0,1-2.62,2.19A3.24,3.24,0,0,1,90,162.11a2.16,2.16,0,0,1,2.62-2.19A3.25,3.25,0,0,1,95.27,163Z"/><path class="cls-3" d="M115.27,78.45c0-7.67,6.15-12.83,13.74-11.54a17.08,17.08,0,0,1,13.74,16.23c0,7.67-6.15,12.83-13.74,11.54a17.08,17.08,0,0,1-13.74-16.23Z"/><path class="cls-4" d="M119.34,89.24a16.61,16.61,0,0,0,9.48,5.42,11.91,11.91,0,0,0,9.48-2.18,35.43,35.43,0,0,0-9.48-3,30.8,30.8,0,0,0-9.48-.22Z"/><path d="M133.25,73.41a4.57,4.57,0,0,0-2.09-1l-4.36-.74a3.34,3.34,0,0,0-2.63.59l-.23.18a3.52,3.52,0,0,0-1,4l1.44,4.26,9.19,1.52,1.3-4.17A4.51,4.51,0,0,0,133.25,73.41Z"/><path class="cls-6" d="M131.05,74.82h0L124.32,78v2.52a5.7,5.7,0,0,0,1.76,4v4a3.52,3.52,0,0,0,2.82,3.33,2.33,2.33,0,0,0,2.82-2.37V85.6a3.87,3.87,0,0,0,1.91-3.47V79.37A5.59,5.59,0,0,0,131.05,74.82Z"/><path d="M129.38,92.33a2.56,2.56,0,0,1-.55,0,4,4,0,0,1-3.21-3.78V84.61h.92V88.5A3,3,0,0,0,129,91.37a1.86,1.86,0,0,0,2.28-1.91V85.69h.92v3.77a2.84,2.84,0,0,1-1,2.22A2.78,2.78,0,0,1,129.38,92.33Z"/><path d="M129.76,86.56a5.27,5.27,0,0,1-.87-.07.45.45,0,0,1-.37-.53.46.46,0,0,1,.53-.38,3.38,3.38,0,0,0,4.11-3.45V79.37a5.12,5.12,0,0,0-4.11-4.86l-4.27-.73v6.76a5.33,5.33,0,0,0,2.51,4.36.45.45,0,0,1,.14.63.46.46,0,0,1-.63.15,6.27,6.27,0,0,1-2.94-5.14V73.23a.48.48,0,0,1,.16-.35.45.45,0,0,1,.37-.1l4.81.82a6.08,6.08,0,0,1,4.89,5.77v2.76a4.41,4.41,0,0,1-1.52,3.44A4.32,4.32,0,0,1,129.76,86.56Z"/><path d="M131.12,95.3a16.69,16.69,0,0,1-12.66-6.37c-5.18-6.34-5.26-15-.18-19.73a.46.46,0,0,1,.63.67c-4.72,4.4-4.61,12.52.26,18.48,5.11,6.26,13.59,7.92,18.9,3.69a11,11,0,0,0,4-7.57A15.71,15.71,0,0,0,138.42,73a16.21,16.21,0,0,0-10.34-5.94.46.46,0,0,1-.4-.51.48.48,0,0,1,.52-.4,17.09,17.09,0,0,1,10.93,6.27A16.64,16.64,0,0,1,143,84.57,11.67,11.67,0,0,1,131.12,95.3Z"/><path d="M171.69,189.79a3.81,3.81,0,0,1-.75-.07L85.12,175.06a5.41,5.41,0,0,1-4.34-5.13V137.1a.47.47,0,0,1,.93,0v32.83a4.45,4.45,0,0,0,3.57,4.22l85.81,14.66a2.8,2.8,0,0,0,3.42-2.86V72.29a4.45,4.45,0,0,0-3.57-4.22L85.12,53.41a2.79,2.79,0,0,0-3.41,2.86v57.17a.47.47,0,0,1-.93,0V56.27a3.73,3.73,0,0,1,4.5-3.77l85.81,14.66a5.39,5.39,0,0,1,4.34,5.13V186a3.78,3.78,0,0,1-1.31,3A3.73,3.73,0,0,1,171.69,189.79Z"/><polygon class="cls-6" points="242.5 232.35 244.1 243.55 248.18 243.56 248.37 232.55 242.5 232.35"/><path d="M248.18,244H244.1a.47.47,0,0,1-.46-.4l-1.59-11.2a.46.46,0,0,1,.11-.37.44.44,0,0,1,.36-.15l5.87.2a.46.46,0,0,1,.44.47l-.19,11A.46.46,0,0,1,248.18,244Zm-3.68-.93h3.23l.17-10.1-4.86-.17Z"/><path class="cls-1" d="M244,254.26a38.06,38.06,0,0,0,7.17,0,2,2,0,0,0,1.76-2.28c-.49-3-1.87-8.4-4-10.86l-1.07,1.53-.64-1.58c-.1-.17-2.81-.29-2.87,0l-.16,1.55-1.54-1.72.09,5.65a8.32,8.32,0,0,1-.18,1.86l-.4,2a3.74,3.74,0,0,0,.88,3.3A1.83,1.83,0,0,0,244,254.26Z"/><path class="cls-1" d="M247.06,254.87a29.63,29.63,0,0,1-3.15-.16,2.15,2.15,0,0,1-1.3-.76,4.17,4.17,0,0,1-1-3.7l.4-1.95a8,8,0,0,0,.17-1.76l-.09-5.65a.47.47,0,0,1,.81-.32l.84,1,.06-.51v0c.07-.4.52-.48.67-.51s2.69-.27,3,.32l0,.06.32.8.58-.84a.5.5,0,0,1,.36-.19.48.48,0,0,1,.37.15c2.8,3.18,4,10.29,4.16,11.09a2.47,2.47,0,0,1-.48,1.9,2.38,2.38,0,0,1-1.7.92C249.58,254.81,248.21,254.87,247.06,254.87Zm-4-12.76.07,4.41a8.58,8.58,0,0,1-.19,2l-.4,2a3.27,3.27,0,0,0,.76,2.89,1.42,1.42,0,0,0,.73.48h0a38.16,38.16,0,0,0,7.08,0,1.5,1.5,0,0,0,1-.57,1.54,1.54,0,0,0,.3-1.19c-.43-2.64-1.65-7.58-3.57-10.17l-.73,1a.47.47,0,0,1-.43.19.46.46,0,0,1-.37-.29l-.56-1.39a10.33,10.33,0,0,0-2.08,0l-.14,1.3a.48.48,0,0,1-.32.39.46.46,0,0,1-.48-.13Z"/><path d="M246.88,252.87a15.25,15.25,0,0,1-3-.24.46.46,0,0,1,.18-.9,20,20,0,0,0,6.74-.14.46.46,0,0,1,.53.38.46.46,0,0,1-.37.53A23.75,23.75,0,0,1,246.88,252.87Z"/><path d="M249.28,248.57h-3.71a.46.46,0,0,1-.46-.46.47.47,0,0,1,.46-.46h3.71a.47.47,0,0,1,.46.46A.46.46,0,0,1,249.28,248.57Z"/><polygon class="cls-6" points="213.21 233.35 211.77 246.4 206.28 247.55 206.62 232.25 213.21 233.35"/><path d="M206.28,248a.45.45,0,0,1-.29-.1.48.48,0,0,1-.17-.37l.34-15.3a.46.46,0,0,1,.16-.35.5.5,0,0,1,.37-.1l6.6,1.11a.45.45,0,0,1,.38.5l-1.44,13a.46.46,0,0,1-.36.4L206.38,248Zm.79-15.22L206.76,247l4.59-1,1.35-12.29Z"/><path class="cls-1" d="M214.1,252.63c.12-2.29.12-6.5-1.27-8.53l-4.39,1.56v-.94a.54.54,0,0,0-.5-.56l-2.45-.15a5.38,5.38,0,0,0-2.66.55c-2.46,1.21-10,4.32-11,7.81a1.66,1.66,0,0,0,1.57,2.09c2.47.07,8.4.15,19-.22A1.71,1.71,0,0,0,214.1,252.63Z"/><path d="M198.33,255c-2.26,0-3.87,0-4.93-.06a2.19,2.19,0,0,1-1.69-.89,2.05,2.05,0,0,1-.31-1.79c1-3.27,6.95-6.08,10.16-7.58l1.07-.51a5.86,5.86,0,0,1,2.89-.6l2.45.15a1,1,0,0,1,.93,1V245l3.77-1.35a.46.46,0,0,1,.54.18c1.46,2.13,1.47,6.44,1.35,8.81h0a2.15,2.15,0,0,1-2.1,2C206.22,254.92,201.6,255,198.33,255Zm6.87-10.51A4.83,4.83,0,0,0,203,245l-1.09.51c-2.86,1.34-8.81,4.14-9.67,7a1.14,1.14,0,0,0,.18,1,1.24,1.24,0,0,0,1,.51c2.58.07,8.47.14,19-.22a1.25,1.25,0,0,0,1.21-1.18h0c.19-3.59-.18-6.44-1-7.94l-4,1.43a.48.48,0,0,1-.42-.05.48.48,0,0,1-.2-.38v-.94a.14.14,0,0,0-.05-.11l-2.45-.14Zm8.9,8.16Z"/><path d="M200,252.81c-3.27,0-5.34-.15-5.38-.15a.46.46,0,0,1,.07-.92,101.41,101.41,0,0,0,17.14-.52.47.47,0,0,1,.51.41.46.46,0,0,1-.4.51A106.08,106.08,0,0,1,200,252.81Z"/><path class="cls-1" d="M201.39,249.08a.45.45,0,0,1-.37-.2.46.46,0,0,1,.1-.64l4.23-3a.46.46,0,0,1,.64.1.47.47,0,0,1-.1.65l-4.23,3A.46.46,0,0,1,201.39,249.08Z"/><path class="cls-1" d="M211.5,142.15s-7.87,60.5-6.2,96.53l2.46.25a27.71,27.71,0,0,0,4,.1l2.33-.12s9.39-61.25,14.07-70.34c0,0,12.75,55.19,13.24,68.38,0,0,5.66.57,7.92-.25,1.21-12.72,1.57-32.41,1.63-40.68.17-23.67-2.09-34.42-3.33-39.52-1.14-4.68-2.36-8.49-3.26-11.06l-3-8.5Z"/><path class="cls-1" d="M228,169.92a.47.47,0,0,1-.46-.38l-.72-4a3.07,3.07,0,0,0-2.34-2.18l-1.23-.25a.47.47,0,0,1-.36-.55.47.47,0,0,1,.55-.36l1.22.26a4,4,0,0,1,3.05,2.85s0,0,0,0l.73,4.08a.45.45,0,0,1-.37.53Z"/><path class="cls-1" d="M244.15,163h-.08c-7.35-1.22-8.85-7.08-8.86-7.14a.45.45,0,0,1,.34-.55.46.46,0,0,1,.55.33c.06.22,1.39,5.33,8.12,6.45a.46.46,0,0,1-.07.92Z"/><path class="cls-1" d="M211.14,158.19a.46.46,0,0,1-.18-.88,5.75,5.75,0,0,0,3.67-5.17.46.46,0,1,1,.92,0,6.69,6.69,0,0,1-4.22,6A.43.43,0,0,1,211.14,158.19Z"/><path d="M248.44,147.23c.71,2.45,1.83,5.84.59,7.46-2.26,3-4.13,2.48-6.92,1.47-5.57-2-14.46-5.24-17.06-3.46l-.11-5.47Z"/><path class="cls-2" d="M216.48,94.83a12,12,0,0,0-10.88,6.73c-2.35,4.79-5.66,17.32-5.79,22.8-.23,9.57,8.16,10.11,8.4,10.12h0c0,.27-1,10.67-1.08,12.52-.15,3.37,6.12,8.64,13.31,6.05s26.7-7.73,28.69-3.35h0L241,119.28h0l6.73.32h0l5.48-3.17h0l-1.39-6.15C249.15,99.77,242.09,95,233,94.9Z"/><path class="cls-6" d="M238.07,118.3c1.25-.23.91-1.69,5.33-2,12.76-.76,6.58-7.23-.73-6-2.42.41-3.38,2-4.29,2.37C230.74,116.05,235.56,118.76,238.07,118.3Z"/><path d="M237.47,118.81c-1.49,0-3.23-.77-3.61-2-.32-1,.17-2.69,4.34-4.51a4.06,4.06,0,0,0,.83-.6,7,7,0,0,1,3.56-1.8c3.74-.63,7,.63,8.14,2.13a2,2,0,0,1,.34,2.1c-.69,1.5-3.33,2.43-7.64,2.68-2.81.17-3.56.83-4.11,1.3a2.33,2.33,0,0,1-1.17.65h0A3.82,3.82,0,0,1,237.47,118.81Zm7-8.16a10.69,10.69,0,0,0-1.76.14,6.18,6.18,0,0,0-3.12,1.61,5.22,5.22,0,0,1-1.05.74c-2.69,1.17-4.12,2.44-3.83,3.39s2.07,1.53,3.24,1.32h0a1.5,1.5,0,0,0,.73-.44c.65-.57,1.54-1.34,4.66-1.53,5.61-.33,6.67-1.72,6.86-2.14a1.09,1.09,0,0,0-.23-1.15C249.2,111.54,247,110.65,244.5,110.65Z"/><path class="cls-6" d="M222,96.62a.64.64,0,0,1,.35-1.13l.87-.1a2.41,2.41,0,0,0,2-1.59l1.43-10.52,2.92,1,3.87-1.91-.35,11.25a2.41,2.41,0,0,0,1.62,2.18l1.13.4a.69.69,0,0,1,0,1.28C233.59,98.52,224.24,98.53,222,96.62Z"/><path d="M230.24,98.64c-3.39,0-7.14-.48-8.53-1.67h0a1.07,1.07,0,0,1-.34-1.15,1.12,1.12,0,0,1,.94-.79l.86-.1a2,2,0,0,0,1.61-1.24l1.42-10.47a.49.49,0,0,1,.22-.34.48.48,0,0,1,.39,0l2.74,1L233.24,82a.5.5,0,0,1,.46,0,.49.49,0,0,1,.21.41l-.35,11.24a2,2,0,0,0,1.31,1.74l1.13.4a1.14,1.14,0,0,1,.08,2.13A18.48,18.48,0,0,1,230.24,98.64Zm-7.94-2.37c2,1.71,11.08,1.84,13.41.82a.22.22,0,0,0,0-.41l-1.13-.41a2.85,2.85,0,0,1-1.92-2.6l.32-10.5-3.17,1.57a.5.5,0,0,1-.36,0L227,83.9l-1.35,10a.36.36,0,0,1,0,.1,2.86,2.86,0,0,1-2.39,1.88l-.86.11a.18.18,0,0,0-.17.14.17.17,0,0,0,.05.18Z"/><path class="cls-6" d="M225.36,74.91c-5,1.83-4.12,5.06-4.12,5.06a13.53,13.53,0,0,1-.07,3.1c-.13.48-.93,1.39-1,1.66s.39.83,1.26,1c0,0,.32,4.31,1.45,5s5.48-.65,5.48-.65l.73-.3a7.64,7.64,0,0,0,4.48-5.34S236.77,70.71,225.36,74.91Z"/><path d="M224,91.42a2.63,2.63,0,0,1-1.32-.26c-1.14-.71-1.53-3.87-1.65-5-.88-.31-1.34-1-1.27-1.44a2.44,2.44,0,0,1,.47-.88,4.4,4.4,0,0,0,.51-.85,13.78,13.78,0,0,0,.05-2.91c-.09-.47-.52-3.73,4.42-5.55h0c3.25-1.2,5.7-1.09,7.29.31,3.14,2.76,1.63,9.51,1.56,9.8a8.1,8.1,0,0,1-4.76,5.66l-.73.3h0A18.49,18.49,0,0,1,224,91.42Zm-3.31-6.64a1.37,1.37,0,0,0,.88.52.48.48,0,0,1,.36.42c.13,1.69.6,4.25,1.24,4.65s3.35-.15,5.08-.69l.71-.28a7.24,7.24,0,0,0,4.21-5s1.45-6.48-1.28-8.88c-1.32-1.16-3.46-1.21-6.36-.14h0c-4.49,1.66-3.86,4.4-3.83,4.51s0,.06,0,.08a14.92,14.92,0,0,1-.08,3.26,4.7,4.7,0,0,1-.64,1.12C220.88,84.46,220.74,84.67,220.68,84.78Zm4.68-9.87h0Z"/><path d="M227,72.58c-1.31.32-2.59,1.14-3.26,1.21-1.09.11-1.88-1.29-3.26-.78a3.24,3.24,0,0,0-2.07,2.64,3.18,3.18,0,0,0,0,.62c.25,2.94,2.09,3.56,2.84,3.7a37.82,37.82,0,0,1,5.17-.2,4.22,4.22,0,0,1,2.37,3.17.52.52,0,0,0,.48.4h0a.52.52,0,0,0,.56-.43c.14-.84.54-2.51,1.39-2.56a1.87,1.87,0,0,1,1,3.13.78.78,0,0,0,.24,1.28,1.44,1.44,0,0,0,1.53-.29s2.56-4.49,1.34-8.27S228.74,72.15,227,72.58Z"/><path d="M220.05,84.87a.45.45,0,0,1-.31-.12,3.12,3.12,0,0,1-.78-2.07,3.81,3.81,0,0,1,.25-1.63c.31-.75.79-.89,1-.9.69,0,1.27.66,1.48,1.77a.45.45,0,0,1-.36.54.46.46,0,0,1-.54-.36c-.14-.72-.44-1-.53-1h0s-.15.08-.26.34a3,3,0,0,0-.17,1.22,2.29,2.29,0,0,0,.48,1.44.46.46,0,0,1-.31.8Z"/><path d="M223.45,85.16c-1,0-1.75-1.06-1.82-2.45A3.34,3.34,0,0,1,222,81a1.56,1.56,0,0,1,1.26-.89c1-.06,1.8,1,1.88,2.44a3.32,3.32,0,0,1-.36,1.73,1.58,1.58,0,0,1-1.26.9ZM223.31,81h0a.69.69,0,0,0-.5.41,2.44,2.44,0,0,0-.25,1.24c0,.93.53,1.59.91,1.58a.68.68,0,0,0,.5-.42,2.44,2.44,0,0,0,.25-1.24C224.16,81.67,223.7,81,223.31,81Z"/><path d="M224.51,82.1a.46.46,0,0,1,0-.92l4.75-.42a.46.46,0,1,1,.09.92l-4.75.42Z"/><path class="cls-6" d="M232.09,102.42s-1.85,2.9-3.52,2.39c-.87-.27-1.73-3.13-2.08-3.23a6.85,6.85,0,0,1-4.55-3.19c-1.22-2.18-.95-3.35-.64-3.88a.73.73,0,0,0,0-.79,1.44,1.44,0,0,1-.22-1.4.78.78,0,0,0,0-.6c-.31-.72-.88-2.38.24-2.71a.77.77,0,0,1,.81.28,7.85,7.85,0,0,0,2,2c1.29.83,2.06,1.39,2.71,1.76s.85-2.46,2.19-3.5c1.19-.93,1.59-.46,1.71,0s-.62.61-1,2.68a14.77,14.77,0,0,0,.17,5.55C230,99,232.09,102.42,232.09,102.42Z"/><path d="M229,105.33a1.68,1.68,0,0,1-.54-.08c-.68-.21-1.18-1.18-1.76-2.42a7.21,7.21,0,0,0-.42-.84h0a7.15,7.15,0,0,1-4.69-3.37c-1.28-2.29-1-3.62-.64-4.33a.27.27,0,0,0,0-.3,1.89,1.89,0,0,1-.26-1.85.28.28,0,0,0,0-.22,3.58,3.58,0,0,1-.31-2.64,1.32,1.32,0,0,1,.84-.7,1.21,1.21,0,0,1,1.31.45,7.71,7.71,0,0,0,1.88,1.88l1.44.93c.41.27.74.5,1,.68.09-.18.21-.47.3-.7a6.17,6.17,0,0,1,1.6-2.64,2,2,0,0,1,1.74-.58,1.12,1.12,0,0,1,.7.8,1,1,0,0,1-.25.9,4.87,4.87,0,0,0-.78,2,12.59,12.59,0,0,0,.08,4.79c0,.22.07.43.09.61a20.86,20.86,0,0,0,2.17,4.5.48.48,0,0,1,0,.49C232.29,103,230.72,105.33,229,105.33Zm-7.49-15.88h-.07a.41.41,0,0,0-.27.2,2.84,2.84,0,0,0,.33,1.88,1.23,1.23,0,0,1,0,1,1,1,0,0,0,.19,1,1.19,1.19,0,0,1,0,1.28c-.24.42-.48,1.41.64,3.42a6.22,6.22,0,0,0,4.14,2.93l.14,0c.34.09.51.47.9,1.3.25.54.85,1.83,1.19,1.93,1,.3,2.27-1.17,2.83-2a19.59,19.59,0,0,1-2.14-4.6c0-.18-.06-.37-.09-.59a13.67,13.67,0,0,1-.08-5.12,5.91,5.91,0,0,1,.92-2.31l.12-.19c0-.07-.06-.12-.09-.13s-.24-.07-.89.43A5.47,5.47,0,0,0,228,92.14c-.28.73-.47,1.21-.86,1.35a.63.63,0,0,1-.52,0c-.38-.22-.8-.49-1.32-.84l-1.42-.93a8.3,8.3,0,0,1-2.13-2.11A.32.32,0,0,0,221.49,89.45Z"/><path class="cls-2" d="M226,103.71l5.61-3.57s7.57,12.24,13.31,16.4c2.79,2,8.21-.36,8.21-.36s5.2,20-4.84,22.85C231.55,143.79,226,103.71,226,103.71Z"/><path class="cls-9" d="M209.13,135.18a11.42,11.42,0,0,1-1.19-.06.46.46,0,0,1-.41-.51.47.47,0,0,1,.51-.41c6.12.67,15.77-4.67,22.17-9.44a.47.47,0,0,1,.65.09.46.46,0,0,1-.1.65C224.33,130.29,215.47,135.18,209.13,135.18Z"/><path class="cls-9" d="M217.6,119.78a4.46,4.46,0,0,1-1-.11c-5.55-1.36-4.27-8.3-4.25-8.37a.46.46,0,0,1,.54-.37.46.46,0,0,1,.36.54c-.05.25-1.13,6.15,3.57,7.31,2.36.57,8.57-2,10.77-3a.46.46,0,0,1,.39.83C227.67,116.74,221.18,119.78,217.6,119.78Z"/><path class="cls-9" d="M245.4,117.58a.49.49,0,0,1-.28-.09c-6.14-4.59-13.46-16.7-13.77-17.22a.46.46,0,0,1,.79-.47c.07.12,7.53,12.47,13.53,17a.46.46,0,0,1,.1.65A.46.46,0,0,1,245.4,117.58Z"/><path class="cls-9" d="M245.88,140.08c-13.43,0-20.06-34.78-20.34-36.29a.46.46,0,0,1,.2-.47l2.45-1.56a.46.46,0,0,1,.63.14.46.46,0,0,1-.14.64l-2.18,1.39c.71,3.53,7.56,36.27,20,35.2a.46.46,0,0,1,.5.42.45.45,0,0,1-.42.5C246.33,140.07,246.1,140.08,245.88,140.08Z"/><path d="M43.38,86.32c3.7-2.81,7.28-5.77,12.31-5.4,2.48.18,2.94.77,5.43-.22,1-.4,2.43-2,3.64-1.45,1.63.7,2.1,4.38,1.31,7.35s-3.45,4.81-5,7.3a64.61,64.61,0,0,1-8,10.45c-3.21,3.41-6.34,7.41-6.52,12.09-.16,4.24,2.13,8.18,2.77,12.37C50.83,139,43,145.72,34,148a17,17,0,0,1-10.75-.53c-5.69-2.46-5.42-6.84-7.74-11.63-.95-2-2.76-3.33-4.23-4.94-4.45-4.84-8.3-18.61,1.11-20.57,2.35-.49,5,.25,7.08-.87,2.9-1.54,2.6-4.72,3.59-7.35a16.83,16.83,0,0,1,5.12-6.71C32.77,91.64,38.66,89.9,43.38,86.32Z"/><path class="cls-10" d="M19.35,235a55.41,55.41,0,0,0-4.14,10.93c-.44,1.81,0,2.84.44,4.31.6,2.12,1.27,3.11,1,3.71-.61,1.26-7.63,1-10-2.89-.74-1.22-.9-3,.33-9.41,1.26-6.57.79-7.59,1.76-8.39C11.81,230.72,18.5,234.48,19.35,235Z"/><path class="cls-10" d="M14.31,255c-2.45,0-6.33-1-8-3.77-.83-1.35-1-3.16.27-9.74.51-2.67.74-4.44.89-5.61.23-1.79.31-2.46,1-3,3.19-2.63,9.81.95,11.11,1.7l.37.21-.19.39A55.19,55.19,0,0,0,15.65,246a5.87,5.87,0,0,0,.27,3.47c.06.2.12.4.18.62.22.77.45,1.4.63,1.9.35.95.58,1.58.31,2.13s-1.44.87-2.32.91Zm-2.79-22.21a3.82,3.82,0,0,0-2.47.75c-.41.35-.48.73-.7,2.46-.15,1.18-.38,3-.9,5.66-1.19,6.22-1,8-.39,9.09,1.57,2.59,5.48,3.41,7.57,3.33,1.06-.05,1.53-.3,1.58-.4s-.11-.76-.34-1.41-.43-1.17-.66-2q-.09-.32-.18-.6a6.65,6.65,0,0,1-.27-4,54.8,54.8,0,0,1,4-10.63C17.55,234.51,14.2,232.83,11.52,232.83Z"/><path class="cls-10" d="M15.22,253.7h0c-2.93-.26-5-1.33-6.24-3.2-2.23-3.43-.61-8.25-.54-8.45a.46.46,0,0,1,.59-.29.45.45,0,0,1,.28.59S7.73,247,9.72,250c1,1.62,2.91,2.55,5.54,2.78a.46.46,0,0,1,0,.92Z"/><path class="cls-10" d="M51.19,243.26s.36,2.83-.83,9.33c-.17.93.82,1.7,1.77,1.78a193.89,193.89,0,0,0,20.46.71,1.55,1.55,0,0,0,1.37-1c1.4-4.07-9.74-5.38-10.19-8.14C63,241,51.19,243.26,51.19,243.26Z"/><path class="cls-10" d="M68.94,255.6c-7.88,0-15.85-.68-16.85-.77a2.63,2.63,0,0,1-1.83-1,1.65,1.65,0,0,1-.35-1.35c1.16-6.35.83-9.15.82-9.18l0-.43.42-.08c.34-.07,8.29-1.57,11.65.78a3.34,3.34,0,0,1,1.48,2.27c.15.92,2.36,1.87,4.32,2.71,3.18,1.36,6.78,2.91,5.84,5.65a2,2,0,0,1-1.78,1.32C71.4,255.58,70.17,255.6,68.94,255.6Zm-17.26-12a40,40,0,0,1-.86,9,.77.77,0,0,0,.17.62,1.74,1.74,0,0,0,1.18.62,198.22,198.22,0,0,0,20.41.71,1.06,1.06,0,0,0,.94-.7c.67-1.93-2.39-3.24-5.34-4.51-2.48-1.06-4.63-2-4.86-3.4a2.46,2.46,0,0,0-1.09-1.67C59.58,242.5,53.33,243.37,51.68,243.64Z"/><path class="cls-10" d="M67.57,253.9c-7,0-14.26-1-15.35-1.73a.46.46,0,0,1-.14-.64.47.47,0,0,1,.64-.14c.93.6,10.85,2,18.93,1.45a.45.45,0,0,1,.49.43.46.46,0,0,1-.42.49C70.39,253.86,69,253.9,67.57,253.9Z"/><path class="cls-2" d="M69.58,141.89s-1,68.06,2.28,98.74a8.16,8.16,0,0,1-8.57,9,21.07,21.07,0,0,1-5.5-1.14,29.45,29.45,0,0,0-11.09-1.74,4.51,4.51,0,0,1-4.76-4.53c0-13.21.37-46.55,2.76-60.55,0,0-10.16,29.46-18.49,55.48a7.11,7.11,0,0,1-7.16,4.93A32.29,32.29,0,0,1,4.73,237.8,9.37,9.37,0,0,1,.38,227c4.51-15.43,18.31-55.41,48-88.93Z"/><path class="cls-9" d="M42.85,188.88a.3.3,0,0,1-.13,0,.46.46,0,0,1-.31-.57c1.21-4,4.32-12.23,6.84-18.54a12,12,0,0,1,8.43-7.26.46.46,0,0,1,.56.34.47.47,0,0,1-.35.56,11.11,11.11,0,0,0-7.79,6.71c-2.5,6.28-5.61,14.43-6.81,18.45A.46.46,0,0,1,42.85,188.88Z"/><path class="cls-6" d="M116,97.92a1,1,0,0,0-.35-1.43,1,1,0,0,0-1.15.19l-4.87,4.71-.52-.1a1.81,1.81,0,0,0-2.13,1.54s.06,3-.85,4.2c-4.68,6.08-15.4,16.74-17.06,16.74s-4.74-1.66-4.74-1.66L71,124.72s6.87,10.89,18.59,8.28c9.88-2.19,18.83-18.33,21.41-23.36a3.11,3.11,0,0,1,1.41-1.39,3.39,3.39,0,0,0,.7-.49l2-1.82a2.46,2.46,0,0,0,.63-2.73l-.48-1.19a3.73,3.73,0,0,1,.41-3.57Z"/><path d="M86,133.86c-9.69,0-15.36-8.8-15.43-8.9a.46.46,0,0,1,.31-.7l13.38-2.6a.49.49,0,0,1,.31,0s2.88,1.6,4.51,1.6c1.39-.09,11.77-10.17,16.7-16.56.66-.86.76-3.11.75-3.91,0,0,0,0,0-.07a2.27,2.27,0,0,1,2.67-1.93l.29.06,4.7-4.55a1.44,1.44,0,0,1,1.68-.27,1.46,1.46,0,0,1,.74.94,1.43,1.43,0,0,1-.22,1.17h0l-.38.52a3.3,3.3,0,0,0-.36,3.13l.48,1.19a2.92,2.92,0,0,1-.74,3.25l-2,1.82a3.71,3.71,0,0,1-.8.56,2.63,2.63,0,0,0-1.21,1.19c-2.55,5-11.63,21.36-21.72,23.6A16.34,16.34,0,0,1,86,133.86ZM71.76,125c1.6,2.16,8,9.68,17.7,7.53s18.6-18.25,21.09-23.13a3.69,3.69,0,0,1,1.61-1.59,3.3,3.3,0,0,0,.61-.42l2-1.83a2,2,0,0,0,.51-2.21l-.48-1.19a4.2,4.2,0,0,1,.46-4l.37-.53a.48.48,0,0,0,.08-.42.51.51,0,0,0-.26-.33.54.54,0,0,0-.62.11L110,101.72a.48.48,0,0,1-.41.13l-.52-.1a1.32,1.32,0,0,0-1,.23,1.27,1.27,0,0,0-.54.88c0,.47,0,3.22-.94,4.45-4.42,5.74-15.41,16.92-17.43,16.92-1.66,0-4.17-1.29-4.81-1.63ZM116,97.92Z"/><path class="cls-1" d="M75.62,110.17a12.11,12.11,0,0,0-10-5l-22.72.32a3.7,3.7,0,0,0-3.65,3.66l-.15,13.52L36.82,144c10.26-7.64,21-1.1,26.93.9s7.82-.71,7.82-.71L71,128.07a.45.45,0,0,1,.83-.27,21.44,21.44,0,0,0,6.54,6.39,1.38,1.38,0,0,0,2-.6c1.61-3.57,4.69-6,4.92-11.16a3.65,3.65,0,0,0-1.34-3A50.32,50.32,0,0,1,75.62,110.17Z"/><rect class="cls-9" x="15.77" y="134.1" width="44.34" height="29.22" rx="3.28" transform="translate(-67.3 37) rotate(-28.98)"/><rect class="cls-3" x="18.69" y="136.02" width="40.86" height="29.22" rx="10.67" transform="translate(-68.08 37.81) rotate(-28.98)"/><rect class="cls-4" x="17.33" y="138.39" width="45.97" height="29.22" rx="3.28" transform="translate(-69.08 38.69) rotate(-28.98)"/><path class="cls-6" d="M45.51,158.11l-5.28-2.82s4.87.68,4.33-1c-.29-.85-.71-.81-1.81-.83-.81,0-2.19-.09-3.44-.16a6.7,6.7,0,0,1-4.92-2.65c-3.4-4.54-5-10.86-4.37-13.49.48-1.91,2.37-4.52,3.73-6.62-3.53-2.79-5.18-2.74-8.75-5.19C21.5,131.21,21.09,137,21.4,139c1.32,8.27,9.72,15.24,12.33,17.23a18.41,18.41,0,0,1,1.43,1.22c1.8,1.75,5.24,4.66,7.68,4C46.27,160.59,45.51,158.11,45.51,158.11Z"/><path d="M42.13,162c-2.37,0-5.22-2.25-7.29-4.25a16.19,16.19,0,0,0-1.39-1.2c-2.6-2-11.16-9.07-12.5-17.51-.38-2.39.28-8.27,3.66-13.9a.42.42,0,0,1,.29-.21.45.45,0,0,1,.36.07,28.78,28.78,0,0,0,3.94,2.24,23.4,23.4,0,0,1,4.83,3,.45.45,0,0,1,.1.61l-.69,1.05a21.83,21.83,0,0,0-3,5.43c-.66,2.6,1,8.75,4.29,13.1a6.23,6.23,0,0,0,4.58,2.47c1.57.09,2.75.15,3.42.16h.17c1,0,1.69,0,2.06,1.15a1,1,0,0,1-.17,1,3.5,3.5,0,0,1-2.48.69l3.38,1.8A.51.51,0,0,1,46,158a2.91,2.91,0,0,1-.28,2.13A4,4,0,0,1,43,161.89,3.23,3.23,0,0,1,42.13,162Zm-17-36c-3.41,5.92-3.53,11.38-3.29,12.86,1.29,8.11,9.62,15,12.14,16.93a16.62,16.62,0,0,1,1.48,1.26c3,2.9,5.63,4.33,7.24,3.93a3.21,3.21,0,0,0,2.14-1.34,2,2,0,0,0,.24-1.25L40,155.7a.47.47,0,0,1-.22-.55.46.46,0,0,1,.5-.31c1.58.22,3.49.18,3.82-.22,0,0,0-.05,0-.17-.16-.47-.2-.49-1.2-.5h-.18c-.69,0-1.85-.06-3.46-.16A7.17,7.17,0,0,1,34,151c-3.4-4.56-5.16-11.09-4.45-13.88a22.74,22.74,0,0,1,3.1-5.72l.46-.68a22.75,22.75,0,0,0-4.34-2.61A28.8,28.8,0,0,1,25.15,126Z"/><path class="cls-1" d="M42.65,105.55A12.13,12.13,0,0,0,33.48,110a131.38,131.38,0,0,0-10,13.83,1.86,1.86,0,0,0-.08,1.88c2.28,4.28,6.5,3.71,9.73,5.61a1.07,1.07,0,0,0,1.44-.31,36.86,36.86,0,0,1,6.12-6.69l3.13-18.77Z"/><path class="cls-6" d="M59.1,85.2c.63.52,1,.66,1.5,1.16,1,1,1.94,4,3.69,4.58.18,1-.59,1.08-.89,1.62.22.47.58,2.69,1,4a1,1,0,0,1-.57,1.16,8.55,8.55,0,0,1-2.61.59s-5,5.66.09,9.56c0,0-4.74,3.9-10.12-1.79-.94-1,3.41-9.8,3.41-9.8-.15,0-2.09-.8-2.3-2.4-.07-.59.06-1.53.59-1.73s1.39.32,1.93,1.43a7,7,0,0,0,.34-1,2.62,2.62,0,0,0,.1-1.46C60.06,89.87,55.71,85.16,59.1,85.2Z"/><path d="M57.28,109.67c-1.84,0-4.1-.72-6.46-3.22-.41-.44-.55-1.44,1.26-5.77.71-1.71,1.49-3.36,1.86-4.12A3.63,3.63,0,0,1,51.81,94c-.1-.72.06-1.91.88-2.21a1.87,1.87,0,0,1,2,.82l0-.07c.25-.89.14-1.13.14-1.13a.45.45,0,0,1,.29-.65c2.29-.62,2.21-2,2.13-3.4a2.68,2.68,0,0,1,.4-2.11,1.91,1.91,0,0,1,1.47-.49.48.48,0,0,1,.29.1c.26.22.47.36.68.51a5.73,5.73,0,0,1,.85.68,8.12,8.12,0,0,1,1.21,1.77c.64,1.11,1.36,2.37,2.31,2.7a.48.48,0,0,1,.3.35,1.55,1.55,0,0,1-.63,1.61l-.19.17c.1.34.21.87.38,1.65s.33,1.57.5,2.2A1.43,1.43,0,0,1,64,98.2a9.06,9.06,0,0,1-2.55.6c-.47.58-2.17,2.91-1.94,5.33a4.91,4.91,0,0,0,2.07,3.42.47.47,0,0,1,.18.36.45.45,0,0,1-.16.36A7.3,7.3,0,0,1,57.28,109.67Zm-4.19-17H53c-.19.07-.36.67-.29,1.24.17,1.34,1.92,2,2,2a.45.45,0,0,1,.25.64c-1.94,3.92-3.81,8.59-3.46,9.3,4.09,4.33,7.73,2.81,9,2a5.56,5.56,0,0,1-1.94-3.67c-.31-3.17,2.16-6,2.27-6.16a.46.46,0,0,1,.31-.15,8.11,8.11,0,0,0,2.47-.56.51.51,0,0,0,.3-.61c-.19-.66-.37-1.51-.52-2.26A16.6,16.6,0,0,0,63,92.75a.45.45,0,0,1,0-.41,2.08,2.08,0,0,1,.5-.58c.22-.18.34-.29.35-.51a7.11,7.11,0,0,1-2.52-3,8.14,8.14,0,0,0-1-1.57,5.46,5.46,0,0,0-.74-.59c-.18-.12-.37-.26-.6-.44a1,1,0,0,0-.64.2c-.22.24-.19.82-.15,1.43.07,1.34.19,3.32-2.4,4.21a4.13,4.13,0,0,1-.19,1.26,6.41,6.41,0,0,1-.36,1.07.44.44,0,0,1-.41.26.46.46,0,0,1-.42-.25C54,93,53.36,92.62,53.09,92.62Z"/><path class="cls-3" d="M57.19,97.77a5.84,5.84,0,0,0,3.84.61Z"/><path d="M60,98.94a6.1,6.1,0,0,1-3-.78.46.46,0,0,1-.15-.63.45.45,0,0,1,.63-.15,5.42,5.42,0,0,0,3.51.54.46.46,0,0,1,.17.91A5.81,5.81,0,0,1,60,98.94Z"/><path class="cls-5" d="M154.32,151.28h0c-.75,0-1.5,0-2.23-.09-.51,0-1-.08-1.5-.12a.47.47,0,0,1-.41-.5.45.45,0,0,1,.5-.42c.49,0,1,.09,1.48.12q1.07.09,2.16.09a.46.46,0,0,1,.46.46A.47.47,0,0,1,154.32,151.28Zm3.67-.22a.46.46,0,0,1-.46-.4.47.47,0,0,1,.41-.52,32.67,32.67,0,0,0,3.58-.61.46.46,0,0,1,.55.34.45.45,0,0,1-.35.55,34.42,34.42,0,0,1-3.67.64Zm-11-.42h-.06c-1.26-.18-2.49-.39-3.66-.62a.47.47,0,0,1-.36-.55.46.46,0,0,1,.54-.36c1.15.23,2.36.44,3.6.62a.46.46,0,0,1,.4.52A.46.46,0,0,1,147,150.64Zm18.19-1.19a.48.48,0,0,1-.44-.32.46.46,0,0,1,.3-.58c1.12-.38,2.27-.81,3.4-1.3a.46.46,0,0,1,.37.85c-1.16.49-2.33.94-3.49,1.32A.32.32,0,0,1,165.17,149.45Zm-25.4-.28h-.12c-1.24-.34-2.43-.73-3.55-1.15a.46.46,0,0,1-.26-.59.45.45,0,0,1,.59-.27c1.09.41,2.25.78,3.46,1.12a.46.46,0,0,1,.32.57A.45.45,0,0,1,139.77,149.17Zm-6.88-2.6a.46.46,0,0,1-.2,0,27.89,27.89,0,0,1-3.22-1.91.46.46,0,1,1,.53-.76,28.2,28.2,0,0,0,3.1,1.85.46.46,0,0,1,.21.62A.48.48,0,0,1,132.89,146.57Zm39.05,0a.46.46,0,0,1-.21-.87c1.05-.56,2.12-1.17,3.17-1.82a.46.46,0,0,1,.48.78c-1.06.66-2.15,1.29-3.23,1.85A.39.39,0,0,1,171.94,146.55Zm6.26-3.88a.46.46,0,0,1-.26-.84c1-.7,1.95-1.45,2.9-2.22a.46.46,0,0,1,.65.07.45.45,0,0,1-.07.64c-1,.79-1.95,1.55-2.95,2.26A.44.44,0,0,1,178.2,142.67Zm-51.31-.31a.44.44,0,0,1-.32-.13,20.71,20.71,0,0,1-2.46-2.84.46.46,0,0,1,.74-.54,20.28,20.28,0,0,0,2.36,2.72.46.46,0,0,1,0,.65A.47.47,0,0,1,126.89,142.36Zm57-4.35a.49.49,0,0,1-.34-.14.47.47,0,0,1,0-.66c.89-.82,1.77-1.67,2.62-2.55a.46.46,0,0,1,.65,0,.45.45,0,0,1,0,.65c-.86.89-1.75,1.76-2.66,2.59A.47.47,0,0,1,183.92,138Zm-61.33-1.59a.45.45,0,0,1-.41-.25,26.85,26.85,0,0,1-1.4-3.48.46.46,0,1,1,.87-.28,24.9,24.9,0,0,0,1.36,3.35.47.47,0,0,1-.21.62A.52.52,0,0,1,122.59,136.42Zm66.46-3.7a.5.5,0,0,1-.3-.11.47.47,0,0,1-.05-.65c.8-.93,1.58-1.88,2.31-2.84a.46.46,0,1,1,.73.56c-.74,1-1.53,1.94-2.34,2.88A.48.48,0,0,1,189.05,132.72Zm-59.19-3a.47.47,0,0,1-.42-.27.46.46,0,0,1,.22-.61,6.08,6.08,0,0,0,2.52-2.25.47.47,0,0,1,.64-.15.48.48,0,0,1,.14.64,7,7,0,0,1-2.9,2.59A.53.53,0,0,1,129.86,129.68Zm-9.61-.23a.46.46,0,0,1-.45-.36c-.25-1.12-.47-2.25-.65-3.21,0-.15-.05-.29-.07-.44a.45.45,0,0,1,.38-.52.46.46,0,0,1,.53.38c0,.14,0,.27.07.41.18,1,.39,2.07.64,3.18a.46.46,0,0,1-.35.55Zm73.28-2.59a.42.42,0,0,1-.26-.08.47.47,0,0,1-.13-.64c.69-1,1.34-2.06,1.94-3.1a.47.47,0,0,1,.63-.17.46.46,0,0,1,.17.63c-.61,1.06-1.27,2.12-2,3.16A.47.47,0,0,1,193.53,126.86Zm-59.75-3.06h-.06a.46.46,0,0,1-.39-.52,11.07,11.07,0,0,0,.08-1.3,10.32,10.32,0,0,0-.24-2.21.46.46,0,0,1,.91-.19,11.37,11.37,0,0,1,.25,2.4,11,11,0,0,1-.09,1.42A.46.46,0,0,1,133.78,123.8Zm-14.31-1.64h-.06a.46.46,0,0,1-.39-.52,12.23,12.23,0,0,1,1-3.66.47.47,0,0,1,.62-.23.46.46,0,0,1,.22.61,11.47,11.47,0,0,0-1,3.4A.46.46,0,0,1,119.47,122.16Zm77.75-1.68a.45.45,0,0,1-.2,0,.46.46,0,0,1-.21-.62c.54-1.11,1-2.24,1.46-3.34a.46.46,0,0,1,.6-.26.45.45,0,0,1,.26.59c-.44,1.13-.94,2.28-1.5,3.41A.45.45,0,0,1,197.22,120.48Zm-65-3.72a.48.48,0,0,1-.39-.21,6.08,6.08,0,0,0-2.55-2.21.46.46,0,0,1,.37-.85A7,7,0,0,1,132.6,116a.47.47,0,0,1-.13.64A.49.49,0,0,1,132.22,116.76Zm-9.63-1.12a.44.44,0,0,1-.33-.15.45.45,0,0,1,0-.65A6.21,6.21,0,0,1,124,113.7a9.35,9.35,0,0,1,1.82-.58.46.46,0,0,1,.54.36.46.46,0,0,1-.36.54,8.35,8.35,0,0,0-1.63.53,5.12,5.12,0,0,0-1.41,1A.48.48,0,0,1,122.59,115.64Z"/></g></g></g></svg>