<svg xmlns="http://www.w3.org/2000/svg" viewBox="0 0 250.09 248.94"><defs><style>.cls-1{fill:#1a2089;}.cls-2{fill:#5d4efa;}.cls-3{fill:#cddbfd;}.cls-4{fill:#4cc2fc;}.cls-5{fill:#6078f2;}.cls-6{fill:#e7ae9e;}.cls-7{fill:#fff;}</style></defs><title>enhanced_productivity</title><g id="Layer_2" data-name="Layer 2"><g id="Layer_1-2" data-name="Layer 1"><g id="Self_management" data-name="Self management"><path class="cls-1" d="M97.5,215.36,74.38,236.17l-.07,0L17,236a.08.08,0,0,1-.06-.15l23-20.64a.11.11,0,0,1,.07,0l57.44,0A.09.09,0,0,1,97.5,215.36Z"/><path class="cls-1" d="M74.31,236.65,17,236.45a.54.54,0,0,1-.37-.94l23-20.65a.55.55,0,0,1,.37-.14l57.44,0a.54.54,0,0,1,.38.94L74.68,236.5A.56.56,0,0,1,74.31,236.65Zm-.24-.82ZM18,235.54l56.19.2,22.31-20.07-56.36,0Zm22.25-20Zm57-.51Z"/><path class="cls-1" d="M97.56,215.23v12.54l-23,20.67a.13.13,0,0,1-.23-.08V236.19S97.22,215.25,97.56,215.23Z"/><path class="cls-1" d="M74.49,248.94a.54.54,0,0,1-.25-.06.58.58,0,0,1-.35-.52V236.19a.45.45,0,0,1,.15-.33c.06-.06,5.79-5.3,11.48-10.48,11.64-10.59,11.77-10.59,12-10.6a.45.45,0,0,1,.33.12.47.47,0,0,1,.14.33v12.54a.45.45,0,0,1-.15.34l-23,20.67A.61.61,0,0,1,74.49,248.94Zm.31-12.55v11.25l22.3-20.07V216.18C94.18,218.71,82.72,229.14,74.8,236.39Z"/><path class="cls-2" d="M74.35,248.48l-57.45-.19L17,236l57.4.15Z"/><path d="M74.35,248.94h0l-57.45-.2a.46.46,0,0,1-.32-.13.45.45,0,0,1-.14-.33l0-12.24a.47.47,0,0,1,.46-.46h0l57.4.16a.45.45,0,0,1,.45.45v12.29a.46.46,0,0,1-.13.32A.45.45,0,0,1,74.35,248.94Zm-57-1.11,56.54.19V236.64l-56.49-.15Z"/><path class="cls-1" d="M172.13,173.46l-23.32,21-63.15-.2a.1.1,0,0,1-.08-.16l23-20.66Z"/><path class="cls-1" d="M148.81,194.89h0l-63.15-.2a.55.55,0,0,1-.52-.35.52.52,0,0,1,.14-.6l23-20.66a.45.45,0,0,1,.31-.12h0l63.57,0a.44.44,0,0,1,.42.3.45.45,0,0,1-.12.5l-23.32,21A.42.42,0,0,1,148.81,194.89Zm-62.22-1.1,62,.19L171,173.91l-62.22,0Z"/><path class="cls-1" d="M172.13,173.48v53.69l-23,20.68a.14.14,0,0,1-.24-.09V194.44S171.8,173.49,172.13,173.48Z"/><path class="cls-1" d="M149.06,248.34a.57.57,0,0,1-.25-.06.57.57,0,0,1-.34-.52V194.44a.48.48,0,0,1,.14-.34c.06,0,5.79-5.3,11.49-10.47,11.64-10.59,11.76-10.6,12-10.61a.46.46,0,0,1,.33.13.44.44,0,0,1,.14.33v53.69a.45.45,0,0,1-.15.34l-23,20.67A.59.59,0,0,1,149.06,248.34Zm.32-53.7V247L171.68,227V174.43C168.75,177,157.3,187.39,149.38,194.64Z"/><path class="cls-2" d="M148.92,247.88l-63.42-.19c.14.12,0-53.41,0-53.41l63.37.16Z"/><path class="cls-2" d="M148.92,248.34h0l-63.41-.2a.42.42,0,0,1-.31-.11.47.47,0,0,1-.14-.43c.1-1.42.07-35.42,0-53.31a.49.49,0,0,1,.13-.33.48.48,0,0,1,.32-.13h0l63.37.15a.47.47,0,0,1,.46.46v53.44a.45.45,0,0,1-.14.33A.46.46,0,0,1,148.92,248.34ZM86,247.24l62.49.19V194.89L86,194.74c0,2.45,0,14.33,0,26.22,0,7.75,0,13.93,0,18.36,0,2.51,0,4.6,0,6.06C86,246.26,86,246.85,86,247.24Z"/><path class="cls-3" d="M112.49,227.25a.45.45,0,0,1-.34-.15.46.46,0,0,1,0-.64l18.37-16.52a.45.45,0,1,1,.6.67l-18.36,16.52A.46.46,0,0,1,112.49,227.25Z"/><path class="cls-3" d="M111.84,214.81a.45.45,0,0,1-.34-.15.46.46,0,0,1,0-.64l5.84-5.25a.45.45,0,1,1,.6.68l-5.83,5.25A.48.48,0,0,1,111.84,214.81Z"/><path class="cls-1" d="M249.53,200.2,226.42,221l-64-.2c-.07,0-.1-.07-.06-.11l23-20.71,64,0A.12.12,0,0,1,249.53,200.2Z"/><path class="cls-1" d="M226.42,221.44h0l-64-.2a.52.52,0,0,1-.5-.34.53.53,0,0,1,.14-.57l23-20.71a.52.52,0,0,1,.31-.12h0l64,.05a.58.58,0,0,1,.55.37.55.55,0,0,1-.16.61h0l-23.1,20.79A.48.48,0,0,1,226.42,221.44Zm-63-1.11,62.82.2,22.31-20.07-63-.05Zm86.1-20.13Zm-.3-.34Z"/><path class="cls-1" d="M249.63,200v27.6l-23,20.73c-.06.05-.18,0-.18-.07V221S249.3,200,249.63,200Z"/><path class="cls-1" d="M226.53,248.83a.59.59,0,0,1-.23-.05.56.56,0,0,1-.33-.5V221a.41.41,0,0,1,.15-.33c.06-.06,5.78-5.3,11.48-10.48,11.64-10.59,11.77-10.59,12-10.6a.46.46,0,0,1,.34.12.47.47,0,0,1,.14.33v27.6a.46.46,0,0,1-.15.33l-23,20.73A.53.53,0,0,1,226.53,248.83Zm.35-27.65v26.3l22.3-20.07V201C246.26,203.5,234.8,213.93,226.88,221.18Z"/><path class="cls-2" d="M226.42,248.48l-64.08-.19c.14.12,0-27.46,0-27.46l64,.15Z"/><path class="cls-2" d="M226.42,248.94h0l-64.06-.2a.47.47,0,0,1-.32-.12.43.43,0,0,1-.13-.45c.08-1,.06-16.85,0-27.34a.46.46,0,0,1,.13-.32.45.45,0,0,1,.32-.14h0l64,.16a.45.45,0,0,1,.45.45v27.5a.46.46,0,0,1-.13.32A.45.45,0,0,1,226.42,248.94Zm-63.6-1.11L226,248v-26.6l-63.12-.15c0,1.64,0,7.45,0,13.25,0,4,0,7.16,0,9.44C162.86,246.06,162.85,247.2,162.82,247.83Z"/><path class="cls-3" d="M206.52,237.26a.46.46,0,0,1-.3-.8l5.83-5.24a.45.45,0,1,1,.61.67l-5.84,5.25A.42.42,0,0,1,206.52,237.26Z"/><path class="cls-2" d="M46.81,99.91a74.66,74.66,0,1,1,74.66,74.65A74.65,74.65,0,0,1,46.81,99.91Z"/><path d="M196.12,100.36a.45.45,0,0,1-.45-.45,74.63,74.63,0,0,0-47.73-69.34.45.45,0,0,1-.26-.59.44.44,0,0,1,.58-.26,75.14,75.14,0,0,1,48.32,70.19A.46.46,0,0,1,196.12,100.36Z"/><path class="cls-4" d="M61.5,99.91a60,60,0,1,1,60,60,60,60,0,0,1-60-60Z"/><path class="cls-2" d="M75.34,99.91A46.13,46.13,0,1,1,121.47,146,46.13,46.13,0,0,1,75.34,99.91Z"/><path class="cls-4" d="M91.68,99.91a29.79,29.79,0,1,1,29.79,29.78A29.79,29.79,0,0,1,91.68,99.91Z"/><path class="cls-5" d="M147.53,170.34a.46.46,0,0,1-.16-.88,74.2,74.2,0,0,0,32.52-23.81.46.46,0,1,1,.72.56,75.16,75.16,0,0,1-32.92,24.1A.41.41,0,0,1,147.53,170.34Z"/><path class="cls-5" d="M77.41,114.08a.46.46,0,0,1-.43-.32,46.59,46.59,0,0,1-2.09-13.85.45.45,0,1,1,.9,0,45.76,45.76,0,0,0,2.06,13.58.46.46,0,0,1-.3.57Z"/><path class="cls-5" d="M166.65,91.06a.44.44,0,0,1-.44-.36,45.84,45.84,0,0,0-15.69-26,.45.45,0,0,1-.06-.64.46.46,0,0,1,.64-.06,46.71,46.71,0,0,1,16,26.56.46.46,0,0,1-.35.54Z"/><path class="cls-5" d="M75.34,100.36a.45.45,0,0,1-.45-.45,46.63,46.63,0,0,1,60.78-44.38.46.46,0,0,1-.27.87A45.7,45.7,0,0,0,75.79,99.91.45.45,0,0,1,75.34,100.36Z"/><path class="cls-4" d="M158.34,168.81c7.32,2.1,15.18,4.08,16.55,5.28a8.39,8.39,0,0,1,3.08,6.23c.25,3-.36,11.3-9.89,12.33s-32.46-4.08-43.43-10a10.66,10.66,0,0,1-4-5.19l-5.43.89c3.3,3.89,3.69,8.23-4.1,10.15-9.5,2.34-20.48,4.49-25.22,5.12a21.08,21.08,0,0,1-5.83,0C63,191.1,68.8,177.45,71.25,175.52a44.37,44.37,0,0,1,4.68-3.77l.79-.56a65.7,65.7,0,0,1,12-6.19c12.07-4.85,15.71-14.83,15.71-14.83L123.35,149l16.55,3s.32,10.52,12.08,14.9c1.75.64,3.77,1.18,5.83,1.77Z"/><path d="M83.11,194.26A21,21,0,0,1,80,194C71.7,192.82,69,189,68.19,186c-1.25-4.69,1.38-9.69,2.78-10.8a7.37,7.37,0,0,0,.56-.49,37.23,37.23,0,0,1,4.15-3.29l.78-.56a66.38,66.38,0,0,1,12.12-6.24A28,28,0,0,0,104,150a.43.43,0,0,1,.39-.29l18.89-1.2h.11l16.55,3a.44.44,0,0,1,.37.43c0,.1.47,10.27,11.79,14.48,1.38.51,2.92,1,4.55,1.41l1.25.35a.43.43,0,0,1,.24.18.39.39,0,0,1,.28,0l4.5,1.26c6.86,1.91,11.12,3.14,12.23,4.11a8.87,8.87,0,0,1,3.24,6.53c.09,1.19.62,11.64-10.3,12.82a28.93,28.93,0,0,1-2.93.14c-11,0-30.86-4.84-40.77-10.19l0,0a11.15,11.15,0,0,1-4-5.06l-4.28.7c1.62,2.13,2.19,4.14,1.64,5.85-.66,2-2.84,3.52-6.48,4.42-9.62,2.37-20.6,4.51-25.26,5.13A21.28,21.28,0,0,1,83.11,194.26Zm21.67-43.65a29.17,29.17,0,0,1-15.86,14.81,66.76,66.76,0,0,0-12,6.14l-.77.56a35.77,35.77,0,0,0-4.06,3.23l-.61.53c-1.22,1-3.59,5.6-2.46,9.84,1.05,3.95,4.89,6.51,11.09,7.42a20.15,20.15,0,0,0,5.7,0c4.63-.62,15.57-2.75,25.17-5.11,3.31-.82,5.27-2.1,5.82-3.82.64-2-.71-4.13-2-5.6a.45.45,0,0,1-.08-.45.47.47,0,0,1,.35-.29l5.44-.89a.46.46,0,0,1,.51.32,10.21,10.21,0,0,0,3.77,4.93c10.55,5.68,33.52,11,43.15,9.93,9.86-1.06,9.64-10,9.49-11.83a8,8,0,0,0-2.93-5.93c-1-.88-6.53-2.42-11.87-3.91l-4.51-1.27a.43.43,0,0,1-.24-.17.53.53,0,0,1-.28,0l-1.25-.36c-1.65-.46-3.21-.9-4.62-1.43-10.65-4-12.15-13-12.35-14.93l-16.15-2.94Z"/><path class="cls-6" d="M108.55,187.43s11.33-3.17,18.87-6.75c6.87-3.27,18.66-9.71,21.85-11.43a10.49,10.49,0,0,1,8.71-.65c2.49.76,4.41,1,4.16-1.18-.2-1.68-2.41-.67-5.43-3.2s-7.18-3.71-11.09-.37-9.51-.44-12.58-1.18-5.66,1.6-5.86,5-13.75,10.06-13.75,10.06Z"/><path d="M108.55,187.89a.46.46,0,0,1-.41-.66l4.88-9.75a.53.53,0,0,1,.21-.21c5.15-2.55,13.36-7.42,13.5-9.67A6,6,0,0,1,129,163a4.86,4.86,0,0,1,4.11-.8,21.48,21.48,0,0,1,2.66.93c3,1.21,6.77,2.7,9.53.34,3.53-3,7.79-2.89,11.67.37a9.12,9.12,0,0,0,3.62,1.84c1,.28,1.84.52,2,1.66a1.91,1.91,0,0,1-.54,1.82c-.82.68-2.27.43-4.2-.15a10,10,0,0,0-8.36.61l-1.4.75c-4.3,2.33-14.38,7.79-20.48,10.69-7.48,3.55-18.83,6.75-18.94,6.78Zm5.22-9.87-4.35,8.69a139.45,139.45,0,0,0,17.8-6.44c6.08-2.89,16.14-8.34,20.43-10.66l1.41-.76a11,11,0,0,1,9.05-.68c.76.23,2.75.83,3.36.32a1.14,1.14,0,0,0,.22-1c-.06-.48-.29-.59-1.32-.89a9.76,9.76,0,0,1-4-2c-1.66-1.39-6-4.21-10.5-.37-3.18,2.72-7.39,1-10.46-.18a19.27,19.27,0,0,0-2.53-.9,4,4,0,0,0-3.36.65,5.17,5.17,0,0,0-1.94,3.89C127.43,171.07,115.7,177.06,113.77,178Z"/><path class="cls-6" d="M123.47,181.47a68.5,68.5,0,0,1-17.55-8,5.65,5.65,0,0,0-2.47-.82,20.2,20.2,0,0,1-10-3.76c-5.15-3.89-8.88-1.88-9.86-1.32s-5.4,1.6-2.45-3.25,6.37-4.91,9.08-4.4,6.61,2.33,9.42,1.81,7-3.81,9.26-2.15,1.39,2,3.06,5.14,11.15,5.78,11.15,5.78Z"/><path d="M123.47,181.93l-.11,0a70.12,70.12,0,0,1-17.68-8,5.15,5.15,0,0,0-2.27-.76,20.68,20.68,0,0,1-10.29-3.84c-3.24-2.46-6.56-2.91-9.35-1.29-.68.4-2.79,1-3.72.05-.72-.74-.51-2,.65-3.93,3.11-5.11,6.74-5.15,9.56-4.61a29.19,29.19,0,0,1,2.91.78c2.12.64,4.53,1.36,6.33,1a15.57,15.57,0,0,0,3.17-1.18c2.35-1,4.79-2.13,6.45-.89a4.83,4.83,0,0,1,2.12,2.82,17,17,0,0,0,1.07,2.48c1.3,2.46,8.28,4.84,10.87,5.55a.45.45,0,0,1,.33.42l.42,10.94a.45.45,0,0,1-.46.47ZM87.28,166.14a10.65,10.65,0,0,1,6.39,2.43,19.69,19.69,0,0,0,9.82,3.66,6.22,6.22,0,0,1,2.67.89A71.68,71.68,0,0,0,123,180.87l-.39-10c-1.71-.49-9.52-2.9-11.1-5.91a16.83,16.83,0,0,1-1.13-2.6,4,4,0,0,0-1.8-2.39c-1.24-.92-3.42.05-5.54,1a16.34,16.34,0,0,1-3.37,1.24c-2,.38-4.54-.37-6.76-1a29.08,29.08,0,0,0-2.83-.76c-2.68-.51-5.8-.41-8.6,4.19-.85,1.4-1.14,2.45-.78,2.82s2,.15,2.61-.2A7.88,7.88,0,0,1,87.28,166.14Z"/><path class="cls-4" d="M157.81,168.65c7.43,2.13,15.69,4.22,17.08,5.44a8.39,8.39,0,0,1,3.08,6.23c.25,3-.36,11.3-9.89,12.33s-32.46-4.08-43.43-10c0,0-7.25-4.69-2.91-11.8,0,0,.33-3.75,18.61-1A47.84,47.84,0,0,0,157.81,168.65Z"/><path d="M165.2,193.24c-11,0-30.86-4.84-40.77-10.19l0,0c-.08,0-7.52-5-3.09-12.35a1.91,1.91,0,0,1,.73-1c1.62-1.25,6.11-2.32,18.39-.35,1.91.31,8.69.78,11.09,0a.45.45,0,0,1,.57.29.46.46,0,0,1-.29.58c-2.7.9-9.67.35-11.52.05-13-2.1-16.71-.58-17.68.17a1.28,1.28,0,0,0-.41.47.66.66,0,0,1-.06.2c-4,6.54,2.31,10.88,2.75,11.17,10.54,5.68,33.52,11,43.15,9.93,9.86-1.06,9.64-10,9.49-11.83a8,8,0,0,0-2.93-5.93c-1-.89-6.67-2.47-12.14-4l-4.24-1.19-.94-.27-1.14-.32a.45.45,0,0,1,.25-.87l1.14.32.94.26c1.41.41,2.84.8,4.24,1.2,6.07,1.69,11.32,3.16,12.49,4.19a8.87,8.87,0,0,1,3.24,6.53c.09,1.19.62,11.64-10.3,12.82A28.93,28.93,0,0,1,165.2,193.24Z"/><path class="cls-4" d="M76.72,171.19a47.16,47.16,0,0,0-5.47,4.33c-2.46,1.94-8.28,15.76,9.2,18.12a20,20,0,0,0,5.46,0c4.73-.63,15.72-2.78,25.23-5.12,12.53-3.09,4-13.76-4.12-14.8s-13.08.15-25-1.53C80.31,171.94,76.72,171.19,76.72,171.19Z"/><path d="M83.07,194.27a19.67,19.67,0,0,1-2.68-.18c-8.56-1.16-11.35-5-12.19-8.09-1.28-4.7,1.36-9.73,2.77-10.84.14-.1.33-.28.58-.51a39.83,39.83,0,0,1,4.31-3.43c.12-.08.46-.31.77-.5l.48-.32a.46.46,0,0,1,.63.13.45.45,0,0,1-.13.63l-.48.32-.75.49a39.68,39.68,0,0,0-4.22,3.36l-.63.55c-1.23,1-3.61,5.63-2.45,9.88,1.09,4,5,6.57,11.43,7.43a19.91,19.91,0,0,0,5.34,0c4.63-.62,15.58-2.75,25.18-5.11,4.07-1,6.15-2.87,6-5.4-.21-3.67-5.19-7.89-10.06-8.51a77.31,77.31,0,0,0-9.72-.51,112.11,112.11,0,0,1-11.42-.54.47.47,0,0,1-.41-.5.45.45,0,0,1,.5-.4,113,113,0,0,0,11.34.53,79.25,79.25,0,0,1,9.82.52c5.35.68,10.62,5.23,10.86,9.36.1,1.72-.64,4.84-6.7,6.33-9.63,2.37-20.61,4.51-25.27,5.13A21.86,21.86,0,0,1,83.07,194.27Z"/><path class="cls-6" d="M25.77,112.64A27,27,0,0,0,29,116c1.56,1.39,5.22,2.52,8.92,2.79A15.4,15.4,0,0,1,44,120.5s2.9-3.58,1.81-3.81a6.8,6.8,0,0,1-4-2.88,13.85,13.85,0,0,0-2.22-3.55c-1.39-1.66-2.47-2.59-3.6-2.88a3.07,3.07,0,0,0-2.48.94,1,1,0,0,0,0,1c-4.89.63-2.69,3-2.69,3-1.05-.38-3.09-2.77-3.91-3.37s-1.08-.69-1.51-.4c-.63.42-.08,1.25-.08,1.25L26.51,111C25.32,110.88,25.29,112,25.77,112.64Zm7-1.23c0-.33,1.71-.3,2.35-.71s.36-.73.36-.73c1.74.14,1,2.74-.71,3A1.88,1.88,0,0,1,32.8,111.41Z"/><path d="M44,121a.46.46,0,0,1-.22-.06,15.4,15.4,0,0,0-5.94-1.63c-3.87-.28-7.57-1.45-9.2-2.9a27.07,27.07,0,0,1-3.27-3.45h0a1.7,1.7,0,0,1-.22-1.78,1.18,1.18,0,0,1,.44-.41l-.55-.63,0,0a1.31,1.31,0,0,1,.21-1.88c.71-.48,1.24-.16,2,.42a14.45,14.45,0,0,1,1.3,1.2c.42.42.93.91,1.39,1.33a2,2,0,0,1,.09-.47c.3-.83,1.27-1.38,2.95-1.67a1.17,1.17,0,0,1,.2-.92,3.43,3.43,0,0,1,2.95-1.11c1.18.3,2.29,1.18,3.84,3a12.65,12.65,0,0,1,2,3c.09.19.18.38.29.58a6.36,6.36,0,0,0,3.66,2.65.74.74,0,0,1,.56.48c.31.88-1.18,2.92-2.1,4A.46.46,0,0,1,44,121Zm-17.75-9.48a.36.36,0,0,0-.31.12.81.81,0,0,0,.16.78h0a25.94,25.94,0,0,0,3.15,3.31c1.47,1.31,5,2.41,8.65,2.67a16.36,16.36,0,0,1,6,1.57,10.35,10.35,0,0,0,1.72-2.81A7.19,7.19,0,0,1,41.47,114c-.11-.22-.21-.41-.3-.6a11.51,11.51,0,0,0-1.87-2.87c-1.42-1.69-2.39-2.48-3.36-2.73a2.64,2.64,0,0,0-2,.77c-.11.15,0,.46.06.52a.45.45,0,0,1-.33.68c-2.13.28-2.64.84-2.75,1.16-.17.48.33,1,.33,1a.45.45,0,0,1-.48.74,10.93,10.93,0,0,1-2.83-2.32,15.73,15.73,0,0,0-1.19-1.11c-.76-.55-.82-.51-1-.4s0,.51,0,.61l1.06,1.21a.45.45,0,0,1-.4.75Zm8.27,1.92a2.06,2.06,0,0,1-1.37-.51,2.38,2.38,0,0,1-.84-1.46c0-.56.61-.66,1.33-.79a4.23,4.23,0,0,0,1.22-.31.7.7,0,0,0,.19-.16.48.48,0,0,1,0-.39.45.45,0,0,1,.45-.25A1.42,1.42,0,0,1,37,111a2.49,2.49,0,0,1-2.1,2.42Zm-1.22-1.77a1.94,1.94,0,0,0,.48.61,1.16,1.16,0,0,0,.92.24A1.57,1.57,0,0,0,36,111a.53.53,0,0,0-.14-.39,1.6,1.6,0,0,1-.51.49,4.46,4.46,0,0,1-1.56.45Zm1.81-1.37v0Z"/><path class="cls-7" d="M33.43,108.85s.14,1.32,2.14,1.13Z"/><path d="M35.19,110.46c-1.61,0-2.15-1-2.21-1.56a.45.45,0,1,1,.9-.1c0,.09.18.87,1.64.73a.46.46,0,1,1,.09.91Z"/><path class="cls-6" d="M222.94,106.74l1.08-1.41s.52-.93-.18-1.33c-.48-.28-.77-.16-1.6.54s-2.83,3.41-3.94,3.9c0,0,2.2-2.67-3.1-3a1.1,1.1,0,0,0,0-1.1,3.23,3.23,0,0,0-2.72-.82c-1.19.39-2.28,1.46-3.64,3.35a14.71,14.71,0,0,0-2.12,4c-.58,1.37-2.41,2.34-3.9,2.76-1.16.33,2.21,3.94,2.21,3.94a25,25,0,0,1,6.3-1.64c3.94-.56,7.78-2,9.35-3.64a27.75,27.75,0,0,0,3.19-3.86C224.32,107.69,224.2,106.49,222.94,106.74Zm-8.74,2.64c-1.82-.1-2.83-2.83-1-3.11,0,0-.27.36.44.75s2.55.24,2.56.59A2,2,0,0,1,214.2,109.38Z"/><path d="M205,118a.44.44,0,0,1-.33-.15c-1.07-1.14-2.81-3.2-2.55-4.16a.77.77,0,0,1,.55-.53c1.43-.4,3.11-1.34,3.6-2.5.1-.22.18-.44.27-.64a13.33,13.33,0,0,1,1.9-3.41c1.52-2.09,2.64-3.11,3.87-3.51a3.6,3.6,0,0,1,3.21,1,1.3,1.3,0,0,1,.27,1c1.83.18,2.9.69,3.28,1.55a1.94,1.94,0,0,1,.14.55c.48-.48,1-1.08,1.45-1.58A15.67,15.67,0,0,1,222,104.2c.79-.68,1.33-1,2.11-.6a1.39,1.39,0,0,1,.35,2l0,.06-.57.74a1.22,1.22,0,0,1,.52.42,1.78,1.78,0,0,1-.1,1.89,29.52,29.52,0,0,1-3.25,3.93c-1.64,1.67-5.5,3.19-9.61,3.77a25.39,25.39,0,0,0-6.18,1.6A.45.45,0,0,1,205,118Zm-2-4a10.61,10.61,0,0,0,2.11,3,27.17,27.17,0,0,1,6.12-1.55c3.87-.55,7.61-2,9.09-3.51a27.34,27.34,0,0,0,3.13-3.79.94.94,0,0,0,.12-.88c-.11-.15-.36-.13-.55-.09a.44.44,0,0,1-.48-.21.44.44,0,0,1,0-.51l1-1.38c.05-.11.25-.54,0-.7s-.29-.17-1.07.5a17,17,0,0,0-1.2,1.28,11.59,11.59,0,0,1-2.85,2.68.45.45,0,0,1-.55-.14.47.47,0,0,1,0-.56s.52-.66.29-1.19c-.15-.33-.74-.91-3.06-1a.43.43,0,0,1-.37-.23.44.44,0,0,1,0-.43s.19-.4,0-.59a2.86,2.86,0,0,0-2.24-.69c-1,.34-2,1.26-3.42,3.18a12.52,12.52,0,0,0-1.79,3.23c-.09.2-.17.42-.27.65C206.47,112.53,204.59,113.55,203,114Zm11.31-4.18h-.15a2.67,2.67,0,0,1-2.39-2.41,1.5,1.5,0,0,1,1.37-1.61.46.46,0,0,1,.46.22.49.49,0,0,1,0,.41,1.06,1.06,0,0,0,.24.18,4.85,4.85,0,0,0,1.34.25c.8.08,1.44.14,1.46.71a2.56,2.56,0,0,1-.78,1.6A2.19,2.19,0,0,1,214.32,109.84Zm-.09-.91a1.32,1.32,0,0,0,1-.35,1.94,1.94,0,0,0,.49-.73l-.58-.07a4.57,4.57,0,0,1-1.69-.36,1.59,1.59,0,0,1-.59-.51.61.61,0,0,0-.16.48,1.74,1.74,0,0,0,1.54,1.54Zm-.64-2.38h0Z"/><path class="cls-7" d="M215.37,104.92s-.06,1.43-2.21,1.37Z"/><path d="M213.28,106.74h-.13a.44.44,0,0,1-.44-.46.45.45,0,0,1,.46-.45c1.62,0,1.74-.84,1.74-.94a.47.47,0,0,1,.48-.42.45.45,0,0,1,.43.47S215.72,106.74,213.28,106.74Z"/><path class="cls-1" d="M117.21,86.57a9.27,9.27,0,0,0-5.28,1.7,21.87,21.87,0,0,1-9.66,3.34c-8,1.1-14.59,3.58-23.23,10.91-13.54,11.48-12,15.2-35,11.3l-2.85,7.74s6,5.86,17.44,6.79c0,0,20.24,2.78,34.16-10.22a2.3,2.3,0,0,1,3.48.43,45.32,45.32,0,0,1,6.63,19.11,36.35,36.35,0,0,1,.17,8.48c-.9,6.65-.41,8.31-.41,8.31s20.95,10.11,37.63-.47c0,0,.8-2.22-.18-14.63-.56-7.18,3.17-16.38,5.24-21a2.32,2.32,0,0,1,3.72-.7,44.29,44.29,0,0,0,31.86,12,49.86,49.86,0,0,0,25.61-10.4l-3.67-7.1s-27.45,9.13-39.94-7.15c-2.54-3.33-9.27-12.6-19.84-14C135,90,131.63,89.35,129.6,88.22a13.46,13.46,0,0,0-6.6-1.67Z"/><path d="M112.23,73.13c-1.13-.52-1.72.34-3.4.1a5.88,5.88,0,0,1-4.49-3.54,7.41,7.41,0,0,1,.71-6.22,7.7,7.7,0,0,1,4.16-3.38c2.33-.87,2.92.25,5.58-.57,2.17-.66,2.39-1.47,4.32-2,1.61-.44,6.52-.26,7.26,2.3.79,2.74.18,3.18.87,5.5.42,1.39,1.09,1.56,1.57,2.64,1.19,2.66-1.29,6.66-4.18,8.21C120.71,78.26,114.18,74,112.23,73.13Z"/><path class="cls-6" d="M115.8,77.61l-.94,7.46c-.77,3.33-4.93,4.87-4.93,4.87,6.65,5.11,14.92,4.63,21.62-.41,0,0-4.48-1.08-5.42-5.38l-1.93-11Z"/><path d="M120.25,94a17.25,17.25,0,0,1-10.6-3.7.47.47,0,0,1-.17-.43.49.49,0,0,1,.29-.36S113.69,88,114.41,85l.94-7.44a.47.47,0,0,1,.24-.34l8.4-4.46a.45.45,0,0,1,.41,0,.47.47,0,0,1,.25.33l1.93,11c.86,3.94,5,5,5.08,5a.47.47,0,0,1,.34.35.48.48,0,0,1-.17.46A19.31,19.31,0,0,1,120.25,94Zm-9.42-4c5.94,4.18,13.37,4,19.74-.36a7.74,7.74,0,0,1-4.89-5.43l-1.82-10.41-7.63,4.06-.92,7.23a.06.06,0,0,1,0,0C114.69,87.84,112.12,89.4,110.83,90Zm4-5Z"/><path class="cls-6" d="M123.24,74.66s3-1.1,1.85-3.54a1.66,1.66,0,0,0-2.9-.65s-1.64-6-5.17-3.65A24.74,24.74,0,0,1,110.16,70a42.79,42.79,0,0,0,3.41,10.06c1.33,2.43,3,4.13,5,3.32,5.49-2.2,4.64-8.73,4.64-8.73Z"/><path d="M117.57,84.06c-1.55,0-3-1.26-4.4-3.77a42.72,42.72,0,0,1-3.46-10.19.45.45,0,0,1,.33-.53,24.75,24.75,0,0,0,6.73-3.13,2.94,2.94,0,0,1,2.74-.46c1.59.6,2.53,2.69,2.92,3.75a2.18,2.18,0,0,1,1.47-.32,2.35,2.35,0,0,1,1.61,1.53,2.63,2.63,0,0,1,.09,2.19,3.91,3.91,0,0,1-1.88,1.81c.08,1.42.06,6.87-5,8.88A3.21,3.21,0,0,1,117.57,84.06Zm-6.88-13.73A40.78,40.78,0,0,0,114,79.86c1.46,2.66,3,3.71,4.46,3.11,5.1-2,4.39-8,4.36-8.25a.46.46,0,0,1,.29-.49h0a3.23,3.23,0,0,0,1.68-1.46,1.75,1.75,0,0,0-.08-1.46c-.27-.6-.59-.93-1-1a1.61,1.61,0,0,0-1.22.49.46.46,0,0,1-.76-.21s-.88-3.13-2.56-3.76a2.07,2.07,0,0,0-1.92.36A25.74,25.74,0,0,1,110.69,70.33Z"/><polygon class="cls-1" points="71.71 57.53 46.58 53.5 59.38 19.61 84.5 23.64 71.71 57.53"/><polygon class="cls-1" points="43.18 52.43 23.02 44.37 34.93 12.77 54.97 21.18 43.18 52.43"/><path class="cls-5" d="M46.63,53.51a2.82,2.82,0,0,1-3.45-1.08L55.05,20.74a2.81,2.81,0,0,0,3.41,1.2Z"/><path d="M47.24,51.82a2.8,2.8,0,0,1-3.44-1.08L55.54,19.4A2.79,2.79,0,0,0,59,20.59Z"/><path d="M46.18,52.5A3.18,3.18,0,0,1,43.4,51a.43.43,0,0,1,0-.38L55.11,19.24a.45.45,0,0,1,.83,0,2.37,2.37,0,0,0,2.84,1,.45.45,0,0,1,.6.57L47.67,52a.49.49,0,0,1-.24.25A3,3,0,0,1,46.18,52.5Zm1.06-.68ZM44.3,50.69a2.4,2.4,0,0,0,2.59.78L58.23,21.23a3.37,3.37,0,0,1-2.56-.89Z"/><polygon class="cls-4" points="24.74 43.28 43.78 50.93 45.11 49.8 55.84 21.16 53.59 20.27 36.02 10.74 24.16 38.94 24.74 43.28"/><path class="cls-4" d="M43.86,51.45,24.32,43.6l-.63-4.72,0-.12L35.8,10.1l18,9.76,2.64,1L45.49,50.07ZM25.15,43,43.69,50.4l1-.87L55.26,21.42l-1.89-.75L36.25,11.38,24.63,39Z"/><path class="cls-4" d="M24.18,38.82a.2.2,0,0,0,.12.26C26,39.67,37.92,44,42.15,47.4l3,2.4L56.32,19.89,54,17.9c-3.75-3.16-14.22-7.17-17.58-8.41a1.12,1.12,0,0,0-1.44.66Z"/><path class="cls-4" d="M45.31,50.55l-3.44-2.8c-4.2-3.4-16.35-7.76-17.72-8.24a.62.62,0,0,1-.37-.34.65.65,0,0,1,0-.51L34.5,10a1.59,1.59,0,0,1,2-.93c3.19,1.18,13.89,5.27,17.72,8.49l2.6,2.2ZM24.7,38.74c2.74,1,13.65,5,17.74,8.31l2.46,2L55.78,20l-2.12-1.78C50,15.12,39.37,11.08,36.22,9.91a.69.69,0,0,0-.87.4Zm-.09.24Z"/><path class="cls-4" d="M45.11,49.8l2.3,2,23.07,3.78L81.87,24.64l-1.66-2.86a.22.22,0,0,0-.22-.11c-.94.11-6.28.7-8.49.13a22.6,22.6,0,0,0-10.41-.14l-4.41.93Z"/><path d="M70.77,56.07,47.22,52.21l-2.66-2.28,11.8-27.74,4.64-1a23.16,23.16,0,0,1,10.62.15c1.64.43,5.51.19,8.32-.15a.66.66,0,0,1,.66.34l1.77,3.05-.07.2ZM47.61,51.35l22.57,3.7L81.37,24.68l-1.48-2.54c-1.33.15-6.32.67-8.5.1a22.32,22.32,0,0,0-10.2-.14L57,23,45.66,49.67Z"/><path class="cls-4" d="M55.56,48.42A23.25,23.25,0,0,1,60,49c4.84,1.15,9,2.4,9,2.4l11.1-29.61a.3.3,0,0,0-.19-.39c-1-.31-4.63-1.36-8.72-2.33A24.26,24.26,0,0,0,60.59,19l-4.28.9L45.1,49.8l4.5-.92a24.36,24.36,0,0,1,6-.46Z"/><path class="cls-4" d="M69,51.89a.3.3,0,0,1-.13,0L67,51.34a48.86,48.86,0,0,0-13.3-1.85H50.16A.47.47,0,0,1,49.7,49a.46.46,0,0,1,.46-.45h3.58a49.53,49.53,0,0,1,13.55,1.89l1.43.41L79.6,21.83c-1.19-.36-4.64-1.35-8.52-2.27a24,24,0,0,0-10.39-.13l-4,.85L45.53,50a.46.46,0,0,1-.59.26.45.45,0,0,1-.26-.58L55.89,19.73a.43.43,0,0,1,.33-.28l4.28-.91a25,25,0,0,1,10.79.13c4.11,1,7.73,2,8.74,2.34a.72.72,0,0,1,.46.38.78.78,0,0,1,0,.6L69.42,51.6A.46.46,0,0,1,69,51.89Z"/><path class="cls-1" d="M74.57,25.27a.32.32,0,0,1-.13,0l-.68-.19c-1.27-.37-2.18-.63-4.65-1.22a24,24,0,0,0-10.39-.12.45.45,0,1,1-.18-.89A24.81,24.81,0,0,1,69.32,23c2.49.59,3.41.86,4.69,1.22l.68.2a.45.45,0,0,1,.32.56A.46.46,0,0,1,74.57,25.27Z"/><path class="cls-1" d="M73.63,29l-.12,0c-1.62-.46-2.77-.77-5.71-1.46a23.91,23.91,0,0,0-10.38-.13.45.45,0,0,1-.54-.35.46.46,0,0,1,.35-.54A25,25,0,0,1,68,26.66c3,.7,4.12,1,5.75,1.48a.45.45,0,0,1,.31.56A.46.46,0,0,1,73.63,29Z"/><path class="cls-1" d="M71.76,32.49h-.13c-1.27-.37-2-.54-3.6-.91l-1.69-.4a23.35,23.35,0,0,0-5.46-.64h0a.45.45,0,0,1-.45-.45.46.46,0,0,1,.46-.46,24.61,24.61,0,0,1,5.67.66l1.68.4c1.62.38,2.36.55,3.65.92a.45.45,0,0,1,.31.56A.45.45,0,0,1,71.76,32.49Z"/><path class="cls-1" d="M70.84,36.39l-.13,0-1.08-.31c-1.22-.36-2.48-.73-4.73-1.26a23.91,23.91,0,0,0-10.38-.13.45.45,0,0,1-.54-.35.45.45,0,0,1,.35-.53,24.81,24.81,0,0,1,10.78.12c2.28.54,3.55.91,4.77,1.28L71,35.5a.45.45,0,0,1,.31.56A.45.45,0,0,1,70.84,36.39Z"/><path class="cls-1" d="M67.67,39h-.11c-1.39-.37-2.75-.71-4-1a24,24,0,0,0-10.39-.12.46.46,0,0,1-.54-.35.46.46,0,0,1,.35-.54,24.86,24.86,0,0,1,10.79.13c1.3.31,2.67.65,4.06,1a.45.45,0,0,1,.32.56A.44.44,0,0,1,67.67,39Z"/><path class="cls-1" d="M62,41.29h-.1a23.57,23.57,0,0,0-9.86,0,.46.46,0,0,1-.54-.35.46.46,0,0,1,.35-.54,24.54,24.54,0,0,1,10.24,0,.44.44,0,0,1,.35.54A.45.45,0,0,1,62,41.29Z"/><path class="cls-1" d="M66,46.39h-.13c-1.54-.44-2.27-.61-4.68-1.19l-.58-.13a24,24,0,0,0-10.39-.13.45.45,0,1,1-.18-.89,25,25,0,0,1,10.78.13l.58.14c2.43.57,3.16.75,4.72,1.19a.45.45,0,0,1,.31.56A.45.45,0,0,1,66,46.39Z"/><path class="cls-1" d="M45.12,18.82a.49.49,0,0,1-.23-.06A56.81,56.81,0,0,0,37.09,15a.47.47,0,0,1-.27-.59.46.46,0,0,1,.59-.26A58,58,0,0,1,45.35,18a.45.45,0,0,1-.23.85Z"/><path class="cls-1" d="M49.35,28.38a.43.43,0,0,1-.35-.17c-2.15-2.69-5.74-4.6-8.93-6.18a.45.45,0,0,1-.21-.61.46.46,0,0,1,.61-.2c3.28,1.62,7,3.58,9.24,6.43a.47.47,0,0,1-.07.64A.52.52,0,0,1,49.35,28.38Z"/><path class="cls-1" d="M47.57,33.48a.43.43,0,0,1-.31-.13,30.05,30.05,0,0,0-8.45-5.58c-2.07-1-3.27-1.54-4.44-2l-1-.45a.46.46,0,0,1-.24-.6.45.45,0,0,1,.6-.23l1,.44c1.18.51,2.39,1,4.49,2.06a31,31,0,0,1,8.67,5.75.46.46,0,0,1,0,.64A.47.47,0,0,1,47.57,33.48Z"/><path class="cls-1" d="M46.49,37.13a.44.44,0,0,1-.32-.13A23.63,23.63,0,0,0,39,32.34l-1.2-.59C36.61,31.17,35.34,30.56,34,30a.45.45,0,0,1-.23-.6.47.47,0,0,1,.61-.23c1.31.61,2.58,1.22,3.78,1.81l1.19.58a24.61,24.61,0,0,1,7.42,4.83.46.46,0,0,1,0,.65A.44.44,0,0,1,46.49,37.13Z"/><path class="cls-1" d="M45.16,40.59a.47.47,0,0,1-.33-.14A24.26,24.26,0,0,0,38,36l-1.64-.83a.46.46,0,0,1-.19-.62.45.45,0,0,1,.61-.19l1.63.83a25.58,25.58,0,0,1,7.08,4.63.46.46,0,0,1-.32.78Z"/><path class="cls-1" d="M44,44.45a.43.43,0,0,1-.36-.17c-2.13-2.68-10-6.12-13.79-7.3a.44.44,0,0,1-.3-.56.45.45,0,0,1,.57-.3c3.66,1.13,11.87,4.63,14.23,7.6a.46.46,0,0,1-.07.64A.51.51,0,0,1,44,44.45Z"/><path d="M70.48,56a.45.45,0,0,1-.43-.3l-1.51-4a.46.46,0,0,1,.86-.32l1.5,4a.46.46,0,0,1-.26.59Z"/><path class="cls-4" d="M174.58,19.35A39.86,39.86,0,0,0,198,49.26a.31.31,0,0,0,.23,0c1.65-.45,20.75-6.11,32.53-32a.34.34,0,0,0-.24-.48c-2.71-.52-17.72-3.72-23.91-11.22a.34.34,0,0,0-.55,0c-1.47,2.21-9.76,13-31.19,13.4A.34.34,0,0,0,174.58,19.35Z"/><path class="cls-1" d="M198.18,49.75a.71.71,0,0,1-.32-.07,39.51,39.51,0,0,1-19.15-17.29,39.78,39.78,0,0,1-4.58-13h0a.79.79,0,0,1,.77-.91c21.22-.41,29.4-11.07,30.83-13.2A.79.79,0,0,1,207,5.25c6.07,7.34,20.76,10.51,23.65,11.07a.75.75,0,0,1,.55.41.82.82,0,0,1,0,.7c-11.8,26-30.71,31.72-32.83,32.29A.76.76,0,0,1,198.18,49.75ZM175.05,19.41A38.91,38.91,0,0,0,179.5,32a38.63,38.63,0,0,0,18.69,16.88,40,40,0,0,0,12.28-6.38c8.29-6.05,15-14.55,19.86-25.27-3.23-.64-17.71-3.85-23.93-11.24C204.71,8.4,196.23,19,175.05,19.41Z"/><path class="cls-1" d="M223.67,20h-.1c-9.34-2.06-17.95-8.53-18-8.6a.46.46,0,0,1-.09-.64.45.45,0,0,1,.64-.08c.08.06,8.53,6.41,17.68,8.44a.45.45,0,0,1-.1.89Z"/><path class="cls-1" d="M221.32,25.12l-.11,0a37.76,37.76,0,0,1-12.81-6.29.46.46,0,0,1-.1-.64.47.47,0,0,1,.64-.1,36.81,36.81,0,0,0,12.5,6.15.46.46,0,0,1,.32.56A.45.45,0,0,1,221.32,25.12Z"/><path class="cls-1" d="M205.88,16.68a.48.48,0,0,1-.3-.11,33.62,33.62,0,0,1-3-2.86.45.45,0,1,1,.68-.6,34.5,34.5,0,0,0,2.91,2.77.45.45,0,0,1,0,.64A.43.43,0,0,1,205.88,16.68Z"/><path class="cls-1" d="M217.22,29.89a.57.57,0,0,1-.18,0,43.72,43.72,0,0,1-17.69-13.72.45.45,0,1,1,.75-.5A43.06,43.06,0,0,0,217.4,29a.45.45,0,0,1-.18.87Z"/><path class="cls-1" d="M213.46,34.18a.41.41,0,0,1-.21,0A45.33,45.33,0,0,1,195.7,17.87a.46.46,0,0,1,.19-.62.45.45,0,0,1,.61.18,44.31,44.31,0,0,0,17.18,15.9.45.45,0,0,1-.22.85Z"/><path class="cls-1" d="M208.63,38.14a.41.41,0,0,1-.21,0,32.41,32.41,0,0,1-6.28-4.32.45.45,0,1,1,.59-.69,31.7,31.7,0,0,0,6.11,4.2.46.46,0,0,1-.21.86Z"/><path class="cls-1" d="M199.4,30.92a.46.46,0,0,1-.34-.15,43.67,43.67,0,0,1-7.41-11.11.46.46,0,0,1,.24-.6.45.45,0,0,1,.59.24,42.93,42.93,0,0,0,7.25,10.86.46.46,0,0,1,0,.64A.47.47,0,0,1,199.4,30.92Z"/><path class="cls-1" d="M197.56,41.6h0a.46.46,0,0,1-.45-.46l0-2.46a.18.18,0,0,0,0-.13.17.17,0,0,0-.13,0l-3.44.28a1.08,1.08,0,0,1-.94-.42,1.06,1.06,0,0,1-.16-1l.16-.46a.15.15,0,0,0,0-.18.16.16,0,0,0-.17-.06,1.05,1.05,0,0,1-1.22-.56,1.08,1.08,0,0,1,.28-1.33l.67-.55a.19.19,0,0,0,.06-.21.18.18,0,0,0-.16-.11l-3.59,0a.46.46,0,1,1,0-.91L192,33a1.07,1.07,0,0,1,1,.71,1.09,1.09,0,0,1-.33,1.22l-.67.55a.16.16,0,0,0,0,.22.14.14,0,0,0,.19.09,1.09,1.09,0,0,1,1.27,1.42l-.17.47a.18.18,0,0,0,0,.17.15.15,0,0,0,.15.06l3.43-.28a1.08,1.08,0,0,1,1.17,1.1l0,2.45A.45.45,0,0,1,197.56,41.6Z"/><ellipse class="cls-1" cx="123.41" cy="16.52" rx="16.43" ry="16.52" transform="translate(0.77 38.03) rotate(-17.57)"/><ellipse class="cls-4" cx="121" cy="17.03" rx="16.43" ry="16.52" transform="translate(0.5 37.32) rotate(-17.57)"/><path class="cls-4" d="M121.07,34a17,17,0,0,1-14.94-9,17,17,0,0,1,6.85-23,16.87,16.87,0,0,1,22.88,7A17,17,0,0,1,129,32,16.71,16.71,0,0,1,121.07,34Zm-.15-33a15.76,15.76,0,0,0-7.51,1.91,16.1,16.1,0,0,0,3,29.54,15.75,15.75,0,0,0,12.12-1.22,16.08,16.08,0,0,0,6.48-21.74h0a16,16,0,0,0-9.52-7.81A16.3,16.3,0,0,0,120.92,1Z"/><path class="cls-1" d="M129.73,22.73a.53.53,0,0,1-.24-.06l-8.73-5.25a.45.45,0,0,1-.2-.27l-2.13-7.5a.45.45,0,0,1,.87-.25l2.08,7.33L130,21.89a.45.45,0,0,1,.16.62A.47.47,0,0,1,129.73,22.73Z"/><path class="cls-1" d="M115.64,5a1.07,1.07,0,0,1-.43,1.43,1.05,1.05,0,0,1-1-1.86A1,1,0,0,1,115.64,5Z"/><path class="cls-1" d="M110.38,9.28a1.06,1.06,0,0,1,.34,1.45,1,1,0,0,1-1.44.34,1.05,1.05,0,1,1,1.1-1.79Z"/><path class="cls-1" d="M108.07,15.52a1.06,1.06,0,1,1-1.08,1A1.06,1.06,0,0,1,108.07,15.52Z"/><path class="cls-1" d="M109,22.37a1.06,1.06,0,1,1-.43,1.43A1.07,1.07,0,0,1,109,22.37Z"/><path class="cls-1" d="M113.43,27.55a1.05,1.05,0,0,1,1.44-.34,1.07,1.07,0,0,1,.35,1.46,1.06,1.06,0,0,1-1.79-1.12Z"/><path class="cls-1" d="M119.77,30a1,1,0,0,1,1.08-1,1.06,1.06,0,0,1,1,1.09,1,1,0,1,1-2.09-.07Z"/><path class="cls-1" d="M126.46,28.94a1.07,1.07,0,0,1,.43-1.43,1.05,1.05,0,1,1-.43,1.43Z"/><path class="cls-1" d="M131.72,24.66a1.07,1.07,0,0,1-.34-1.46,1,1,0,0,1,1.44-.33,1.05,1.05,0,1,1-1.1,1.79Z"/><path class="cls-1" d="M134,18.42a1.06,1.06,0,1,1,1.08-1A1.06,1.06,0,0,1,134,18.42Z"/><path class="cls-1" d="M133,11.69a1.05,1.05,0,0,1-1-1.86,1,1,0,0,1,1.42.43A1.07,1.07,0,0,1,133,11.69Z"/><path class="cls-1" d="M128.67,6.39a1.05,1.05,0,0,1-1.44.34,1.05,1.05,0,1,1,1.44-.34Z"/><path class="cls-1" d="M122.33,3.94a1,1,0,0,1-1.08,1,1.06,1.06,0,0,1-1-1.09,1,1,0,0,1,1.08-1A1.06,1.06,0,0,1,122.33,3.94Z"/><path class="cls-4" d="M24.73,95.37l-.05-.59a1.16,1.16,0,0,0-1-1.06l-.9-.11a1.17,1.17,0,0,1-1-.8,2.77,2.77,0,0,0-.1-.26,1.18,1.18,0,0,1,.22-1.19l.67-.77a1.16,1.16,0,0,0,.09-1.43l-.31-.46a1.18,1.18,0,0,0-1.43-.41l-.84.36a1.18,1.18,0,0,1-1.24-.2l-.18-.15a1.18,1.18,0,0,1-.41-1.15l.22-1a1.17,1.17,0,0,0-.66-1.3l-.46-.22a1.15,1.15,0,0,0-1.43.36l-.58.77a1.18,1.18,0,0,1-1.16.45l-.21,0a1.2,1.2,0,0,1-1-.81l-.29-.91a1.17,1.17,0,0,0-1.23-.82l-.51.05a1.19,1.19,0,0,0-1,1l-.13,1a1.16,1.16,0,0,1-.77,1l-.22.08a1.16,1.16,0,0,1-1.23-.22l-.67-.61a1.16,1.16,0,0,0-1.48-.09L5,86.15a1.17,1.17,0,0,0-.4,1.38l.39,1a1.18,1.18,0,0,1-.2,1.19l-.17.21a1.15,1.15,0,0,1-1.17.43l-.89-.19a1.18,1.18,0,0,0-1.32.67L1,91.33a1.17,1.17,0,0,0,.35,1.41l.76.6a1.16,1.16,0,0,1,.43,1.14c0,.1,0,.19,0,.29a1.18,1.18,0,0,1-.78.94L.8,96A1.17,1.17,0,0,0,0,97.24l.06.58a1.16,1.16,0,0,0,1,1.06L2,99a1.2,1.2,0,0,1,1,.79l.09.27a1.15,1.15,0,0,1-.21,1.18l-.68.77a1.19,1.19,0,0,0-.08,1.44l.31.46a1.18,1.18,0,0,0,1.43.41l.84-.36a1.18,1.18,0,0,1,1.24.2l.18.15a1.19,1.19,0,0,1,.4,1.15l-.21,1a1.18,1.18,0,0,0,.65,1.3l.47.22a1.18,1.18,0,0,0,1.43-.36l.58-.77a1.17,1.17,0,0,1,1.15-.45l.22,0a1.19,1.19,0,0,1,.95.8l.28.92a1.17,1.17,0,0,0,1.24.81l.51,0a1.16,1.16,0,0,0,1-1l.14-1a1.15,1.15,0,0,1,.77-1l.22-.09a1.18,1.18,0,0,1,1.23.23l.67.61a1.16,1.16,0,0,0,1.48.08l.45-.32a1.18,1.18,0,0,0,.39-1.39l-.38-.95a1.19,1.19,0,0,1,.19-1.19l.18-.22a1.17,1.17,0,0,1,1.17-.42l.89.19a1.18,1.18,0,0,0,1.31-.67l.25-.54a1.16,1.16,0,0,0-.35-1.4l-.76-.6a1.16,1.16,0,0,1-.43-1.14c0-.1,0-.2,0-.3a1.18,1.18,0,0,1,.78-.94l.92-.31A1.16,1.16,0,0,0,24.73,95.37ZM12.91,102.6a6.14,6.14,0,0,1-6.68-5.68A6.34,6.34,0,0,1,11.83,90a6.14,6.14,0,0,1,6.68,5.68A6.36,6.36,0,0,1,12.91,102.6Z"/><path class="cls-4" d="M54.24,75.94,54,74.87a1.42,1.42,0,0,0-1.44-1.06L51,73.88a1.46,1.46,0,0,1-1.33-.77c-.09-.17-.18-.34-.28-.5a1.45,1.45,0,0,1,0-1.49l.87-1.42A1.44,1.44,0,0,0,50,68l-.75-.75a1.41,1.41,0,0,0-1.8-.19l-1.27.83a1.45,1.45,0,0,1-1.55,0l-.45-.27a1.46,1.46,0,0,1-.75-1.3l.06-1.67a1.42,1.42,0,0,0-1.06-1.42l-1-.27a1.44,1.44,0,0,0-1.65.74l-.71,1.42a1.44,1.44,0,0,1-1.31.78h-.5A1.45,1.45,0,0,1,36,65.11l-.73-1.41A1.41,1.41,0,0,0,33.6,63l-1,.27a1.43,1.43,0,0,0-1,1.44l.08,1.66a1.43,1.43,0,0,1-.74,1.31l-.45.28a1.47,1.47,0,0,1-1.55,0l-1.28-.82a1.41,1.41,0,0,0-1.79.21l-.74.76a1.43,1.43,0,0,0-.18,1.75l.88,1.42a1.45,1.45,0,0,1,0,1.49c-.1.16-.19.33-.28.5a1.45,1.45,0,0,1-1.32.78L22.7,74a1.43,1.43,0,0,0-1.43,1.08L21,76.13a1.44,1.44,0,0,0,.72,1.61l1.41.75a1.44,1.44,0,0,1,.75,1.3c0,.2,0,.4,0,.61a1.46,1.46,0,0,1-.74,1.31l-1.41.77A1.41,1.41,0,0,0,21,84.09l.28,1.08a1.44,1.44,0,0,0,1.45,1.06l1.52-.07a1.42,1.42,0,0,1,1.33.76c.09.17.19.34.29.51a1.43,1.43,0,0,1,0,1.48L25,90.34a1.44,1.44,0,0,0,.21,1.74l.74.76a1.44,1.44,0,0,0,1.8.19l1.27-.84a1.45,1.45,0,0,1,1.55,0l.45.26a1.43,1.43,0,0,1,.75,1.3l0,1.67a1.41,1.41,0,0,0,1.05,1.43l1,.26a1.42,1.42,0,0,0,1.64-.73L36.15,95a1.45,1.45,0,0,1,1.31-.79H38a1.45,1.45,0,0,1,1.33.77L40,96.34a1.43,1.43,0,0,0,1.65.72l1-.28a1.42,1.42,0,0,0,1-1.43l-.07-1.67a1.43,1.43,0,0,1,.74-1.31l.45-.27a1.43,1.43,0,0,1,1.54,0l1.28.82a1.44,1.44,0,0,0,1.8-.21l.74-.77a1.43,1.43,0,0,0,.18-1.74l-.89-1.42a1.45,1.45,0,0,1,0-1.49l.29-.51A1.41,1.41,0,0,1,51,86l1.53,0A1.44,1.44,0,0,0,54,85l.27-1.08a1.43,1.43,0,0,0-.71-1.61l-1.41-.76a1.44,1.44,0,0,1-.76-1.29c0-.2,0-.41,0-.61a1.42,1.42,0,0,1,.74-1.31l1.4-.77A1.43,1.43,0,0,0,54.24,75.94ZM39.88,88.43a8.47,8.47,0,0,1-10.43-6.11A8.75,8.75,0,0,1,35.4,71.6a8.47,8.47,0,0,1,10.43,6.11A8.76,8.76,0,0,1,39.88,88.43Z"/><path class="cls-4" d="M34.15,97.6a2,2,0,0,1-.48-.06l-1-.26A1.87,1.87,0,0,1,31.3,95.4l.06-1.67a1,1,0,0,0-.52-.89l-.47-.27a1,1,0,0,0-1.06,0L28,93.41a1.89,1.89,0,0,1-2.37-.25l-.75-.76a1.89,1.89,0,0,1-.26-2.3l.86-1.42a1,1,0,0,0,0-1l-.3-.52a1,1,0,0,0-.91-.53l-1.52.07a1.89,1.89,0,0,1-1.91-1.39l-.28-1.08a1.86,1.86,0,0,1,.91-2.13l1.41-.77a1,1,0,0,0,.5-.9c0-.21,0-.42,0-.63a1,1,0,0,0-.52-.89l-1.41-.75A1.88,1.88,0,0,1,20.55,76l.28-1.07a1.89,1.89,0,0,1,1.89-1.42l1.53,0a1,1,0,0,0,.9-.53c.09-.18.19-.35.29-.52a1,1,0,0,0,0-1l-.88-1.42a1.87,1.87,0,0,1,.24-2.3l.74-.77a1.88,1.88,0,0,1,2.37-.27l1.28.82a1,1,0,0,0,1.06,0l.46-.28a1,1,0,0,0,.51-.9l-.07-1.66a1.87,1.87,0,0,1,1.37-1.9l1-.27a1.89,1.89,0,0,1,2.18,1l.73,1.41a1,1,0,0,0,.91.52h.52a1,1,0,0,0,.9-.54l.72-1.42a1.89,1.89,0,0,1,2.17-1l1,.27A1.87,1.87,0,0,1,44,64.64l0,1.67a1,1,0,0,0,.51.89,4.39,4.39,0,0,1,.47.27,1,1,0,0,0,1.06,0l1.27-.83a1.89,1.89,0,0,1,2.38.25l.74.76a1.86,1.86,0,0,1,.27,2.29l-.87,1.43a1,1,0,0,0,0,1c.1.17.2.34.29.52a1,1,0,0,0,.91.52l1.53-.07a1.89,1.89,0,0,1,1.9,1.4l.29,1.07A1.88,1.88,0,0,1,53.76,78l-1.4.77a1,1,0,0,0-.51.89c0,.21,0,.43,0,.63a1,1,0,0,0,.51.89l1.41.76A1.86,1.86,0,0,1,54.72,84l-.27,1.08a1.89,1.89,0,0,1-1.89,1.41L51,86.46a1,1,0,0,0-.9.53c-.1.18-.19.36-.3.53a1,1,0,0,0,0,1L50.72,90a1.87,1.87,0,0,1-.24,2.3l-.73.76a1.9,1.9,0,0,1-2.37.28l-1.28-.82a1,1,0,0,0-1.06,0l-.47.27a1,1,0,0,0-.51.9l.08,1.67a1.88,1.88,0,0,1-1.37,1.89l-1,.27a1.89,1.89,0,0,1-2.18-.94l-.73-1.41a1,1,0,0,0-.91-.53h-.52a1,1,0,0,0-.9.53l-.71,1.42A1.91,1.91,0,0,1,34.15,97.6Zm-4.31-6.09a1.93,1.93,0,0,1,1,.28l.44.26a1.9,1.9,0,0,1,1,1.71l-.06,1.67a1,1,0,0,0,.72,1l1,.26a1,1,0,0,0,1.12-.5l.72-1.42a1.88,1.88,0,0,1,1.7-1H38a1.87,1.87,0,0,1,1.74,1l.73,1.41a1,1,0,0,0,1.13.49l1-.27a1,1,0,0,0,.71-1l-.07-1.67a1.87,1.87,0,0,1,1-1.73l.44-.26a1.91,1.91,0,0,1,2,0l1.28.82a1,1,0,0,0,1.22-.14l.74-.76A1,1,0,0,0,50,90.44L49.07,89a1.89,1.89,0,0,1,0-2c.09-.16.19-.33.27-.49a1.92,1.92,0,0,1,1.74-1l1.53.06a1,1,0,0,0,1-.74l.27-1.07a1,1,0,0,0-.48-1.1L51.94,82a1.91,1.91,0,0,1-1-1.71c0-.19,0-.39,0-.59a1.89,1.89,0,0,1,1-1.72l1.41-.77a1,1,0,0,0,.47-1.1L53.51,75a1,1,0,0,0-1-.72L51,74.33a1.89,1.89,0,0,1-1.76-1L49,72.84a1.87,1.87,0,0,1,0-2l.87-1.43a1,1,0,0,0-.14-1.19L49,67.52a1,1,0,0,0-1.23-.13l-1.27.83a1.89,1.89,0,0,1-2,0L44,68a1.9,1.9,0,0,1-1-1.72l.06-1.66a1,1,0,0,0-.72-1l-1-.26a1,1,0,0,0-1.12.5l-.72,1.42a1.88,1.88,0,0,1-1.7,1h0c-.16,0-.32,0-.48,0a1.9,1.9,0,0,1-1.75-1l-.73-1.42a1,1,0,0,0-1.12-.48l-1,.27a1,1,0,0,0-.7,1l.07,1.66a1.9,1.9,0,0,1-1,1.73l-.43.26a1.91,1.91,0,0,1-2,0l-1.28-.82a1,1,0,0,0-1.23.14l-.73.77a1,1,0,0,0-.13,1.19L26.21,71a1.9,1.9,0,0,1,0,2l-.28.5a1.87,1.87,0,0,1-1.74,1l-1.52,0a1,1,0,0,0-1,.73l-.28,1.08a1,1,0,0,0,.49,1.1l1.41.75a1.89,1.89,0,0,1,1,1.7,5.8,5.8,0,0,0,0,.59,1.89,1.89,0,0,1-1,1.73l-1.4.76A1,1,0,0,0,21.47,84l.29,1.07a1,1,0,0,0,1,.72l1.52-.07a1.88,1.88,0,0,1,1.75,1c.09.17.18.33.28.49a1.91,1.91,0,0,1,0,2l-.87,1.42a1,1,0,0,0,.14,1.19l.74.76a1,1,0,0,0,1.23.13l1.28-.84A1.84,1.84,0,0,1,29.84,91.51Zm7.79-2.31A8.71,8.71,0,0,1,33.29,88,9.08,9.08,0,0,1,29,82.44a9.21,9.21,0,0,1,6.26-11.27A8.7,8.7,0,0,1,42,72a9.07,9.07,0,0,1,4.28,5.61A9.22,9.22,0,0,1,40,88.87h0A8.74,8.74,0,0,1,37.63,89.2Zm2.25-.77ZM37.65,71.75a7.76,7.76,0,0,0-2.13.29A8.3,8.3,0,0,0,29.89,82.2a8.21,8.21,0,0,0,3.85,5,7.78,7.78,0,0,0,6,.74,8.31,8.31,0,0,0,5.63-10.16,8.18,8.18,0,0,0-3.86-5A7.91,7.91,0,0,0,37.65,71.75Z"/><circle class="cls-4" cx="229.46" cy="75.37" r="18.62" transform="translate(118.3 289.79) rotate(-80.78)"/><path class="cls-4" d="M229.46,94.44a19.07,19.07,0,1,1,19.07-19.07A19.09,19.09,0,0,1,229.46,94.44Zm0-37.23a18.17,18.17,0,1,0,18.16,18.16A18.19,18.19,0,0,0,229.46,57.21Z"/><circle class="cls-4" cx="229.46" cy="75.37" r="15.62" transform="translate(-11.38 93.55) rotate(-22.5)"/><path class="cls-4" d="M242.59,84.29a.42.42,0,0,1-.24-.07.47.47,0,0,1-.14-.63,14.72,14.72,0,0,0,1.8-3.93.46.46,0,1,1,.88.26A16.34,16.34,0,0,1,243,84.08.46.46,0,0,1,242.59,84.29Z"/><path class="cls-4" d="M243.52,69a.45.45,0,0,1-.41-.26,15.17,15.17,0,0,0-25.89-2.34.46.46,0,1,1-.74-.54,16.08,16.08,0,0,1,27.45,2.49.46.46,0,0,1-.21.61A.45.45,0,0,1,243.52,69Z"/><path class="cls-4" d="M229.46,91.45a16.08,16.08,0,0,1-14-23.94.45.45,0,0,1,.79.45,15.17,15.17,0,0,0,13.24,22.58.46.46,0,0,1,0,.91Z"/><path class="cls-1" d="M228,86.4V83.83a10.78,10.78,0,0,1-4.6-1.16l.81-3.16a9.58,9.58,0,0,0,4.49,1.19c1.54,0,2.59-.6,2.59-1.68s-.86-1.67-2.86-2.35c-2.9-1-4.87-2.33-4.87-5,0-2.38,1.68-4.24,4.57-4.81V64.34h2.65v2.38a9.76,9.76,0,0,1,3.92.89L234,70.67a9,9,0,0,0-3.9-.92c-1.75,0-2.32.75-2.32,1.51s.94,1.46,3.24,2.33c3.22,1.13,4.52,2.62,4.52,5s-1.71,4.46-4.81,5V86.4Z"/><path d="M225.69,162a2.38,2.38,0,0,1-1.38-.44,2.42,2.42,0,0,1-1-1.57,2.45,2.45,0,0,1,.4-1.82h0a2.45,2.45,0,0,1,3.39-.61,2.48,2.48,0,0,1,1,1.57,2.44,2.44,0,0,1-.4,1.82,2.38,2.38,0,0,1-1.57,1A2.18,2.18,0,0,1,225.69,162Zm0-4a1.52,1.52,0,0,0-1.25.65h0a1.5,1.5,0,0,0-.25,1.14,1.52,1.52,0,0,0,1.77,1.24,1.55,1.55,0,0,0,1-.63,1.51,1.51,0,0,0,.25-1.15,1.48,1.48,0,0,0-.63-1A1.54,1.54,0,0,0,225.7,158.08Zm-1.63.39h0Z"/><path class="cls-3" d="M10.25,194.08a2,2,0,1,1,.49,2.75A2,2,0,0,1,10.25,194.08Z"/><path class="cls-3" d="M10.25,16a2,2,0,1,1,.49,2.76A2,2,0,0,1,10.25,16Z"/><path d="M233.19,141.47a1.77,1.77,0,0,1-1-.32,1.81,1.81,0,0,1-.45-2.53h0a1.81,1.81,0,1,1,1.48,2.85Zm0-2.71a.91.91,0,0,0-.75.38h0a.91.91,0,0,0,.23,1.26.9.9,0,0,0,1.26-.22.9.9,0,0,0-.74-1.42Zm-1.12.12Z"/><path d="M212.71,174.5a.45.45,0,0,1-.29-.8l1.46-1.25a.46.46,0,0,1,.64.05.45.45,0,0,1-.05.64L213,174.39A.45.45,0,0,1,212.71,174.5Z"/><path d="M208.07,178.46a.46.46,0,0,1-.34-.16.45.45,0,0,1,.05-.64l1.47-1.26a.45.45,0,1,1,.58.7l-1.46,1.25A.48.48,0,0,1,208.07,178.46Z"/><path d="M209.77,174.27a.47.47,0,0,1-.34-.16l-1.25-1.47a.45.45,0,0,1,0-.64.46.46,0,0,1,.64.05l1.25,1.47a.46.46,0,0,1-.05.64A.48.48,0,0,1,209.77,174.27Z"/><path d="M213.73,178.91a.48.48,0,0,1-.35-.16l-1.25-1.47a.46.46,0,0,1,.05-.64.45.45,0,0,1,.64.05l1.25,1.47a.45.45,0,0,1,0,.64A.46.46,0,0,1,213.73,178.91Z"/><path d="M36.86,160.92a.46.46,0,0,1-.46-.45l0-1.92a.46.46,0,0,1,.91,0l.05,1.93a.46.46,0,0,1-.44.47Z"/><path d="M37,167a.46.46,0,0,1-.45-.44l-.05-1.93a.46.46,0,0,1,.44-.47.47.47,0,0,1,.47.45l0,1.92A.47.47,0,0,1,37,167Z"/><path d="M32.9,163.1a.45.45,0,0,1-.46-.44.47.47,0,0,1,.45-.47l1.93-.05a.45.45,0,0,1,.46.45.44.44,0,0,1-.44.46l-1.93,0Z"/><path d="M39,163a.45.45,0,0,1-.45-.45A.44.44,0,0,1,39,162l1.93,0a.45.45,0,0,1,.46.44.46.46,0,0,1-.44.47L39,163Z"/></g></g></g></svg>