<svg xmlns="http://www.w3.org/2000/svg" viewBox="0 0 288.39 316.16"><defs><style>.cls-1{isolation:isolate;}.cls-2{fill:#f9f9fd;}.cls-3{fill:#4cc2fc;}.cls-4{fill:#1a1b3a;}.cls-5{fill:#1a2089;}.cls-6{mix-blend-mode:multiply;}.cls-7{fill:#dfdbe1;}.cls-8{fill:#d9e4fb;}.cls-9{fill:#ecf1fd;}.cls-10{fill:#e7c3b8;}.cls-11{fill:#5d4efa;}.cls-12{fill:#deaa9d;}.cls-13{fill:#96b1f6;}</style></defs><title>compliance_assured</title><g class="cls-1"><g id="Layer_2" data-name="Layer 2"><g id="Layer_1-2" data-name="Layer 1"><circle class="cls-2" cx="200.48" cy="21.1" r="17.34"/><path class="cls-3" d="M200.48,0a21.1,21.1,0,1,1-21.1,21.1A21.1,21.1,0,0,1,200.48,0Zm17.34,21.1a17.34,17.34,0,1,0-17.34,17.34A17.34,17.34,0,0,0,217.82,21.1Z"/><path class="cls-4" d="M202.12,21.1a1.35,1.35,0,1,1-1.35-1.35A1.36,1.36,0,0,1,202.12,21.1Z"/><path class="cls-4" d="M210.79,27.65a.3.3,0,0,1-.16,0l-10-6.26a.29.29,0,0,1-.12-.36l4.63-10.4a.29.29,0,0,1,.53.23L201.13,21l9.81,6.12a.28.28,0,0,1,.09.4A.28.28,0,0,1,210.79,27.65Z"/><path class="cls-4" d="M200.48,9.25a.29.29,0,0,1-.29-.29V6.84a.29.29,0,0,1,.58,0V9A.29.29,0,0,1,200.48,9.25Z"/><path class="cls-4" d="M200.48,37a.29.29,0,0,1-.29-.29V34.58a.29.29,0,0,1,.58,0V36.7A.29.29,0,0,1,200.48,37Z"/><path class="cls-4" d="M187.67,22.06h-2.12a.29.29,0,1,1,0-.58h2.12a.29.29,0,0,1,0,.58Z"/><path class="cls-4" d="M215.41,22.06h-2.12a.29.29,0,0,1,0-.58h2.12a.29.29,0,1,1,0,.58Z"/><path class="cls-5" d="M288.39,58.59V213.91a7.37,7.37,0,0,1-7.34,7.35H30.75a7.37,7.37,0,0,1-7.34-7.35V58.59a7.36,7.36,0,0,1,7.34-7.34h250.3A7.36,7.36,0,0,1,288.39,58.59ZM277,209V63.56H34.77V209Z"/><rect class="cls-3" x="34.77" y="63.56" width="242.27" height="145.39"/><polygon class="cls-5" points="183.45 279 122.48 279 125.42 215.69 180.52 215.69 183.45 279"/><rect class="cls-5" x="108.42" y="271.97" width="89.11" height="9.38" rx="2.37"/><rect class="cls-5" x="168.86" y="113.23" width="9.56" height="9.56"/><rect class="cls-5" x="227.79" y="113.23" width="9.56" height="9.56"/><rect class="cls-5" x="242.92" y="113.23" width="9.56" height="9.56"/><rect class="cls-5" x="183.99" y="113.23" width="38.22" height="9.56"/><rect class="cls-5" x="168.86" y="129.99" width="9.56" height="9.56"/><rect class="cls-5" x="227.79" y="129.99" width="9.56" height="9.56"/><rect class="cls-5" x="242.92" y="129.99" width="9.56" height="9.56"/><rect class="cls-5" x="183.99" y="129.99" width="38.22" height="9.56"/><rect class="cls-5" x="168.86" y="146.76" width="9.56" height="9.56"/><rect class="cls-5" x="227.79" y="146.76" width="9.56" height="9.56"/><rect class="cls-5" x="242.92" y="146.76" width="9.56" height="9.56"/><rect class="cls-5" x="183.99" y="146.76" width="38.22" height="9.56"/><rect class="cls-5" x="168.86" y="163.53" width="9.56" height="9.56"/><rect class="cls-5" x="227.79" y="163.53" width="9.56" height="9.56"/><rect class="cls-5" x="242.92" y="163.53" width="9.56" height="9.56"/><rect class="cls-5" x="183.99" y="163.53" width="38.22" height="9.56"/><path class="cls-5" d="M175.74,101.38h-2.67V80.77h-7.28V78.39H183v2.38h-7.28Z"/><path class="cls-5" d="M200.92,101.38l-2.86-7.31h-9.21L186,101.38h-2.7L192.4,78.3h2.25l9,23.08Zm-3.69-9.72-2.67-7.12c-.35-.9-.7-2-1.07-3.32a29.07,29.07,0,0,1-1,3.32l-2.7,7.12Z"/><path class="cls-5" d="M222.15,101.38h-3l-6.17-10.11-6.29,10.11h-2.83l7.64-12-7.12-11h2.95L213,87.5l5.75-9.11h2.85l-7.12,10.88Z"/><rect class="cls-5" x="229.4" y="83.56" width="23.7" height="1.34"/><rect class="cls-5" x="229.4" y="78.07" width="23.7" height="1.34"/><rect class="cls-5" x="229.4" y="89.05" width="23.7" height="1.34"/><rect class="cls-5" x="229.4" y="94.54" width="23.7" height="1.34"/><rect class="cls-5" x="229.4" y="100.03" width="23.7" height="1.34"/><rect class="cls-5" x="168.26" y="179.6" width="43.32" height="1.34"/><rect class="cls-5" x="168.26" y="186.85" width="43.32" height="1.34"/><rect class="cls-5" x="168.26" y="194.1" width="43.32" height="1.34"/><rect class="cls-5" x="220.06" y="182.2" width="30.52" height="12.24"/><path class="cls-2" d="M232.07,187.48a2,2,0,0,1-.67,1.65,2.92,2.92,0,0,1-1.93.57h-.61v2.39h-1.42v-6.7h2.14a2.86,2.86,0,0,1,1.86.52A1.92,1.92,0,0,1,232.07,187.48Zm-3.21,1.06h.47a1.55,1.55,0,0,0,1-.26.89.89,0,0,0,.33-.75.9.9,0,0,0-.28-.74,1.25,1.25,0,0,0-.85-.24h-.65Z"/><path class="cls-2" d="M237.44,192.09l-.48-1.6h-2.45l-.48,1.6h-1.54l2.37-6.73h1.74l2.37,6.73Zm-.82-2.79c-.45-1.44-.71-2.26-.76-2.45a3.93,3.93,0,0,1-.12-.45c-.1.39-.39,1.36-.87,2.9Z"/><path class="cls-2" d="M241.9,188.15l1.4-2.76h1.53l-2.22,4.09v2.61H241.2v-2.56L239,185.39h1.54Z"/><g class="cls-6"><rect class="cls-7" x="25.93" y="51.14" width="128.7" height="189.84"/></g><path class="cls-8" d="M152.8,16.25c8.21,0,6.9,29.59,6.9,34.84l-15.45,0v-.34C144.25,28.41,144.57,16.25,152.8,16.25Z"/><path class="cls-9" d="M25.58,16.25H152.8c-8.23,0-8.55,12.16-8.55,34.52V227.3H17V50.77C17,28.41,17.35,16.25,25.58,16.25Z"/><rect class="cls-3" x="28.86" y="61.94" width="101.09" height="1.97"/><rect class="cls-3" x="28.86" y="74.1" width="101.09" height="1.97"/><rect class="cls-3" x="28.86" y="86.27" width="101.09" height="1.97"/><rect class="cls-3" x="28.86" y="98.43" width="101.09" height="1.97"/><rect class="cls-3" x="40.7" y="110.21" width="30.84" height="1.97"/><rect class="cls-3" x="40.7" y="114.3" width="30.84" height="1.97"/><rect class="cls-3" x="40.7" y="119.21" width="30.84" height="1.97"/><rect class="cls-3" x="40.7" y="124.13" width="30.84" height="1.97"/><rect class="cls-3" x="76.99" y="110.92" width="14.46" height="14.46"/><rect class="cls-3" x="96.64" y="110.92" width="14.46" height="14.46"/><rect class="cls-3" x="116.29" y="110.92" width="14.46" height="14.46"/><rect class="cls-3" x="40.7" y="140.78" width="30.84" height="1.97"/><rect class="cls-3" x="40.7" y="144.87" width="30.84" height="1.97"/><rect class="cls-3" x="40.7" y="149.79" width="30.84" height="1.97"/><rect class="cls-3" x="40.7" y="154.7" width="30.84" height="1.97"/><rect class="cls-3" x="76.99" y="141.49" width="14.46" height="14.46"/><rect class="cls-3" x="96.64" y="141.49" width="14.46" height="14.46"/><rect class="cls-3" x="116.29" y="141.49" width="14.46" height="14.46"/><rect class="cls-3" x="40.7" y="172.34" width="30.84" height="1.97"/><rect class="cls-3" x="40.7" y="176.43" width="30.84" height="1.97"/><rect class="cls-3" x="40.7" y="181.35" width="30.84" height="1.97"/><rect class="cls-3" x="40.7" y="186.26" width="30.84" height="1.97"/><rect class="cls-3" x="76.99" y="173.05" width="14.46" height="14.46"/><rect class="cls-3" x="96.64" y="173.05" width="14.46" height="14.46"/><rect class="cls-3" x="116.29" y="173.05" width="14.46" height="14.46"/><rect class="cls-3" x="28.2" y="200.01" width="103.22" height="1.97"/><rect class="cls-3" x="28.2" y="208.88" width="103.22" height="1.97"/><path class="cls-3" d="M34.78,122.76H32.7v-5.71l0-.93,0-1a8.32,8.32,0,0,1-.72.68l-1.13.91-1-1.25,3.17-2.53h1.71Z"/><path class="cls-3" d="M36.52,154H29.63v-1.45l2.48-2.5c.73-.76,1.21-1.28,1.43-1.57a3.26,3.26,0,0,0,.49-.8,2,2,0,0,0,.15-.77,1.11,1.11,0,0,0-.33-.88,1.24,1.24,0,0,0-.87-.29,2.59,2.59,0,0,0-1.12.26,6.08,6.08,0,0,0-1.12.75l-1.13-1.34a6.79,6.79,0,0,1,1.2-.88,4.38,4.38,0,0,1,1.05-.39,4.91,4.91,0,0,1,1.26-.14,3.73,3.73,0,0,1,1.64.34,2.59,2.59,0,0,1,1.1.94,2.51,2.51,0,0,1,.39,1.39,3.43,3.43,0,0,1-.24,1.28,5.23,5.23,0,0,1-.74,1.22A20,20,0,0,1,33.5,151l-1.27,1.19v.09h4.29Z"/><path class="cls-3" d="M36.14,178.22a2.32,2.32,0,0,1-.56,1.57,2.9,2.9,0,0,1-1.57.89v0a3.08,3.08,0,0,1,1.8.73,2,2,0,0,1,.62,1.55,2.66,2.66,0,0,1-1,2.22,4.82,4.82,0,0,1-2.95.79,7.19,7.19,0,0,1-2.84-.53V183.7a5.87,5.87,0,0,0,1.26.47,4.91,4.91,0,0,0,1.36.19,2.66,2.66,0,0,0,1.52-.35,1.29,1.29,0,0,0,.49-1.13,1,1,0,0,0-.56-1,4.1,4.1,0,0,0-1.81-.29h-.75V180h.76a3.54,3.54,0,0,0,1.68-.3,1.09,1.09,0,0,0,.53-1c0-.75-.47-1.12-1.4-1.12a3.41,3.41,0,0,0-1,.16,5.07,5.07,0,0,0-1.12.56l-1-1.43a5.33,5.33,0,0,1,3.21-1,4.09,4.09,0,0,1,2.42.62A2,2,0,0,1,36.14,178.22Z"/><path class="cls-5" d="M39.62,48.13H36.93V37.7H33.49V35.46h9.57V37.7H39.62Z"/><path class="cls-5" d="M52.77,48.13l-.92-3H47.23l-.92,3h-2.9l4.48-12.72h3.28l4.49,12.72Zm-1.56-5.27-1.44-4.63c-.1-.36-.18-.65-.23-.85-.19.74-.73,2.56-1.64,5.48Z"/><path class="cls-5" d="M67.5,48.13H64.43l-2.94-4.79-3,4.79H55.66l4.21-6.53-3.94-6.14h3L61.63,40l2.67-4.56h2.9l-4,6.28Z"/><path class="cls-5" d="M76.35,48.13H73.71V35.46H81v2.2H76.35v3.27h4.3v2.19h-4.3Z"/><path class="cls-5" d="M95,41.78a6.89,6.89,0,0,1-1.56,4.84,6.76,6.76,0,0,1-8.94,0,6.92,6.92,0,0,1-1.56-4.86,6.81,6.81,0,0,1,1.56-4.83,5.88,5.88,0,0,1,4.49-1.67,5.8,5.8,0,0,1,4.47,1.68A6.91,6.91,0,0,1,95,41.78Zm-9.25,0a5.3,5.3,0,0,0,.81,3.2,2.84,2.84,0,0,0,2.41,1.07c2.14,0,3.22-1.42,3.22-4.27s-1.07-4.28-3.2-4.28a2.84,2.84,0,0,0-2.42,1.08A5.27,5.27,0,0,0,85.7,41.78Z"/><path class="cls-5" d="M100.27,43.27v4.86H97.58V35.46h3.69a6.28,6.28,0,0,1,3.82.94,3.77,3.77,0,0,1,.63,4.85A4.07,4.07,0,0,1,104,42.61c1.9,2.85,3.15,4.69,3.72,5.52h-3l-3-4.86Zm0-2.18h.86a3.32,3.32,0,0,0,1.88-.43,1.5,1.5,0,0,0,.61-1.33A1.41,1.41,0,0,0,103,38a3.79,3.79,0,0,0-1.92-.38h-.81Z"/><path class="cls-5" d="M114.66,48.13l-3-9.94h-.08c.11,2,.17,3.37.17,4.05v5.89h-2.4V35.46H113l3,9.69H116l3.18-9.69h3.66V48.13h-2.51v-6c0-.28,0-.61,0-1s.05-1.36.12-2.95h-.08l-3.26,9.92Z"/><polygon class="cls-5" points="135.4 190.18 134.51 191.08 133.36 189.93 134.25 189.05 134.25 189.04 135.4 190.18"/><polygon class="cls-5" points="123.22 178.01 134.25 189.04 134.25 189.05 133.36 189.93 122.32 178.91 123.22 178.01"/><polygon class="cls-5" points="123.22 178.01 122.32 178.91 121.42 177.55 121.94 177.09 123.22 178.01"/><polygon class="cls-5" points="121.94 177.09 121.42 177.55 120.37 175.96 121.94 177.09"/><path class="cls-10" d="M130,181.16a4.32,4.32,0,0,1,.24,6.36c-1.73,1.81-1.81,1.65-2.47,3.71s-1.58,6.25-7.21,13.76a12,12,0,0,1-4.1-3.19l0,0c.23-.22.44-.43.61-.62,2.39-2.64,7.68-10.48,7.51-11.56s-1.49-4.21-1-5.77,1.49-1.82,1.82-1.66l.33.17s-.91,1.65-.66,2.48a1.47,1.47,0,0,0,2.47.41c1-.91,0-2.81-.49-3.47l-.5-.66A2.65,2.65,0,0,1,130,181.16Z"/><path class="cls-4" d="M127,312.38c2.64.44,3.85,3,3.3,3.3s-12.21.77-12.87.22a5,5,0,0,1-.71-2.3c.75,0,7.24.52,8,.21s.88-1.65.88-1.65l0-.09A12.16,12.16,0,0,0,127,312.38Z"/><path class="cls-10" d="M125.55,312.16s-.11,1.32-.88,1.65-7.22-.16-8-.21c-.23-1.38-.38-3-.51-3.86,0-.32-.43-1.59-1-3.44a13.39,13.39,0,0,0,5.4-.64c.12.64.21,1.13.26,1.44.45,2.91,2.55,4.31,4.76,5Z"/><path class="cls-11" d="M104.19,218.05l0,.09a9.35,9.35,0,0,1-.08,6.19c-.58,1.56-2.15,3.38-3.14,11.55-2.06,1.07-9.16-.17-9.16-.17s-.37-4.32-.65-9.37c-.33-6.09-.53-13.24.24-15.14.24-.61.45-1.16.63-1.64.38.63,2.87,4.35,7.31,3.29a5.75,5.75,0,0,0,1.05-.33c5.13-2,13-7.82,16-10.76l0,0a12,12,0,0,0,4.1,3.19l-.71.93A40.56,40.56,0,0,1,104.19,218.05Z"/><path class="cls-5" d="M103.63,274.21c-3-4.88-7.65-10.91-10.65-17.39-4.18-9-1.13-21.11-1.13-21.11s7.1,1.24,9.16.17c2.53,4.48,6.38,24.57,10,32.71,3.31,7.42,8.27,30.41,9.54,37.07a13.39,13.39,0,0,1-5.4.64c-2.29-7.07-7.67-22.66-9-26.93A23.72,23.72,0,0,0,103.63,274.21Z"/><path class="cls-10" d="M104.81,311.47s.41,1.74-.09,1.82-7.09-.33-7.09-.33h-.2c0-2,.47-4.69-.05-6.35a15,15,0,0,0,5.17.08c.06,1.77.11,2.83.11,2.83l.44.88A3,3,0,0,0,104.81,311.47Z"/><path class="cls-5" d="M103.63,274.21c-1.73,7.94-1.32,25.6-1.08,32.48a15,15,0,0,1-5.17-.08c-4.79-18.16-3.63-29.11-3.63-32.52s-2.75-9.35-4.52-21.46,2.62-16.92,2.62-16.92-3,12.08,1.13,21.11C96,263.3,100.63,269.33,103.63,274.21Z"/><path class="cls-10" d="M98.29,206.5a7,7,0,0,1-5.38.09,7.15,7.15,0,0,1-1.39-.74c.38-.39,2-2.26,1.65-6.2-2-1.24-1.24-5.2,1.49-4a6.47,6.47,0,0,1,4.77-4.13,10.68,10.68,0,0,1,1.69,2.94c1.21,3.19.8,9.43-1.43,11.23A6.46,6.46,0,0,1,98.29,206.5Z"/><path class="cls-4" d="M90.59,189a5.57,5.57,0,0,1,3.71-.6,8.32,8.32,0,0,1,5.13,3.11,6.47,6.47,0,0,0-4.77,4.13c-2.73-1.16-3.47,2.8-1.49,4,.36,3.94-1.27,5.81-1.65,6.2A9.09,9.09,0,0,1,88,200.91a14.92,14.92,0,0,1-.71-3.95C87.17,193.55,88.23,190.32,90.59,189Z"/><path class="cls-12" d="M98.29,206.5c0,.16-.46,4.45,1.09,6.35-4.44,1.06-6.93-2.66-7.31-3.29a15.68,15.68,0,0,0,.84-3A7,7,0,0,0,98.29,206.5Z"/><path class="cls-4" d="M97.63,313s6.6.41,7.09.33.09-1.82.09-1.82A35.14,35.14,0,0,0,109,312.6c3,.66,2.09,2.64,2.09,2.64s-11.28.94-12.93.11c-.61-.3-.77-1.22-.77-2.39Z"/><path class="cls-11" d="M91.44,211.2c-.77,1.9-.57,9.05-.24,15.14-.51,1.32-3.45,8.94-4,10.45a19.43,19.43,0,0,0-.63,2.35l-.2,0a5.26,5.26,0,0,0-3.8-1C83.51,227,91.44,211.2,91.44,211.2Z"/><path class="cls-4" d="M90.59,189c-2.36,1.35-3.42,4.58-3.27,8-4,1.64-11.27-3.56-5.54-10C86.77,181.32,90.32,188.39,90.59,189Z"/><path class="cls-10" d="M86.32,239.1l.2,0c-.94,4.11-2.32,11.8-1.93,12.25.68.81,1.32,3.47,1.65,5,.23,1.1-1-.5-1.49-1.57s-1-1.13-.58,1,3.08,3.31,3.08,3.75-2.31.66-4.17-1.22a6,6,0,0,1-1.44-6.16c.55-2-.11-3,.88-14.08A5.26,5.26,0,0,1,86.32,239.1Z"/><path class="cls-11" d="M45.73,179.51a5.53,5.53,0,0,1-.66-.2,6,6,0,0,1-.63-.29h0a5.82,5.82,0,0,1-2.26-7.24c1.18-3.1,4.39-4.76,7.17-3.7s4.07,4.43,2.89,7.53A5.83,5.83,0,0,1,45.73,179.51Zm5.15-4.42a4,4,0,1,0-5.24,2.7A4.18,4.18,0,0,0,50.88,175.09Z"/><path class="cls-13" d="M48.77,169.59a4.42,4.42,0,1,1-5.23,2.7A4.18,4.18,0,0,1,48.77,169.59Z"/><path class="cls-11" d="M45.73,179.51l-5.39,14.15-1.29-.49L44.44,179a6,6,0,0,0,.63.29A5.53,5.53,0,0,0,45.73,179.51Z"/><path class="cls-10" d="M47.15,183c1.26,1.93-2.53,5.47-2.41,8l-4.51-.27s-.84-3.49-.42-4.93S43,182.84,43,182.84s-2.59,3.43-.78,3.67,2.4-4,2.4-4S45.89,181,47.15,183Z"/><path class="cls-11" d="M40.23,190.66l4.51.27s-.63,17.77-8.39,19.39c-4.75,1-8.9-3.17-11.39-6.53h0c-.39-7.19-.59-14.74-.59-14.74,1,.45,5.68,13.16,10.1,12.8S40.23,190.66,40.23,190.66Z"/><path class="cls-4" d="M29.41,293.18c.24.42,6.85,4.21,6.62,4.63s-12,.06-12.69-.06c-.46-.08-.41-2.64-.31-4.46C23.79,293.32,27.69,293.79,29.41,293.18Z"/><path class="cls-10" d="M29.17,292.76l.24.42c-1.72.61-5.62.14-6.38.11,0-.87.11-1.58.12-1.75l5.72-.1Z"/><path class="cls-11" d="M25,203.79c.29,5.46.69,10.7,1.2,12.3-9.65,3.52-16.95.54-16.95.54s-.13-8.1-.48-15.42c-.24-5-.58-9.6-1.06-11.09L12,187.68a8.23,8.23,0,0,0,8.39.45s3.43.36,4,.91c0,0,.2,7.55.59,14.74Z"/><path class="cls-4" d="M16,164.68a45,45,0,0,0,7.85.45A19.82,19.82,0,0,1,22,168.64a10.9,10.9,0,0,1-4.95,4.43c-1.17-1.35-2.88.45-2.88,1.62s.27,3.16,2.61,2.71c0,3-1.89,6.86-1.89,6.86a7.4,7.4,0,0,1-2.5-.28c-5.47-1.61-8.5-9.49-4.09-14.07C7.94,166.85,11.1,164.05,16,164.68Z"/><path class="cls-10" d="M22,168.65s2,6.39.45,10.55a7.13,7.13,0,0,1-2.3,3.27,8.87,8.87,0,0,1-5.27,1.79s1.89-3.88,1.89-6.86c-2.34.45-2.61-1.53-2.61-2.71s1.71-3,2.88-1.62A10.9,10.9,0,0,0,22,168.64Z"/><path class="cls-4" d="M11.49,293.36c.24.42,6.86,4.21,6.62,4.63s-12,.06-12.69-.06c-.46-.08-.41-2.64-.31-4.46C5.86,293.5,9.76,294,11.49,293.36Z"/><path class="cls-12" d="M14.89,184.26a8.87,8.87,0,0,0,5.27-1.79l.05.07a12.87,12.87,0,0,0,.18,5.59,8.23,8.23,0,0,1-8.39-.45c.72-.9.36-3.61.36-3.61l0-.09A7.4,7.4,0,0,0,14.89,184.26Z"/><path class="cls-10" d="M11.25,292.94l.24.42c-1.73.61-5.63.14-6.38.11.06-1,.13-1.8.13-1.8v-.13l5.72-.09v.16Z"/><path class="cls-5" d="M23.15,291.54h-.78S21.29,245,17.93,230.46c-.12,6.14-5.89,61-5.89,61l-1.09,0-5.72.09H4.7S5.9,271.71,7,258.72c.59-7,1.19-18.72,1.62-28,.16-3.51.3-6.68.4-9.11.08-1.94.15-3.42.18-4.24,0-.47,0-.73,0-.73s7.3,3,17-.54c5.36,15.93,3.19,75.34,3.19,75.34h-.48Z"/><path class="cls-11" d="M9.12,217.36h.06c0,.82-.1,2.3-.18,4.24H8.94L7.49,223A20.76,20.76,0,0,1,0,206.8a24.64,24.64,0,0,1,7.66-16.68c.48,1.49.82,6.11,1.06,11.09H8.67A13.66,13.66,0,0,0,9.12,217.36Z"/><path class="cls-10" d="M8.94,221.59H9c-.1,2.43-.24,5.6-.4,9.11H8.49a11.18,11.18,0,0,1-2.08-3.33c-.27-1.27,1.35-3.16,1.08-4.42Z"/><path class="cls-11" d="M199.75,212.79C204,223,199.24,226.62,193.4,228a18,18,0,0,1-4.32.39,50.92,50.92,0,0,1-11-1.7l.22-3a68.62,68.62,0,0,0,10.47-2.2c2.42-.78,4.38-1.78,4.56-3,.49-3-4.35-6.54-5.2-7.13a111.85,111.85,0,0,0-1.38-12.86A28.88,28.88,0,0,1,199.75,212.79Z"/><path class="cls-4" d="M185.23,311.1s6.49.57,7.43-.06l.14,0a5.11,5.11,0,0,1,.17,1.14c-.06.89-6.27.44-6.27.44l-1-.27c-.57-.16-.61-.52-.52-1.22Z"/><path class="cls-3" d="M192.07,302.68h-6.73S184,291.1,182.56,278s-3.07-34.4-3.07-34.4-1.89,12.54-2.68,22.09-1.36,36.66-1.36,36.66l-5.65.1h-1s-1.68-19.33-1.43-37.94a279.5,279.5,0,0,1,2.82-35l19,.67C190.16,233.1,192.07,302.68,192.07,302.68Z"/><path class="cls-10" d="M191.07,302.8a24.47,24.47,0,0,0,.8,4.28l-.12,0c-.79.6-5.65.2-6.11.15.18-1.69.41-3.46.47-4.32v-.25h5Z"/><path class="cls-10" d="M186.52,185.15s1.81-.4,1.71,1.84a2.16,2.16,0,0,1-2.31,2.07c.16-1.4.3-2.77.41-3.92Z"/><path class="cls-11" d="M174.65,196.78c1,.67,9.16,1.19,10,.06,0,0,1.79.32,2.09,1.63a111.85,111.85,0,0,1,1.38,12.86c.25,3.41.46,7,.64,10.09a68.62,68.62,0,0,1-10.47,2.2c-1.77-.23-4-3.36-4.84-2.93s1.5,2.59,1.5,2.59a6.69,6.69,0,0,1-3.56-.16,6,6,0,0,0-.84-.22c.09-1.38.22-3,.37-5,.12-1.52.26-3.22.42-5.12.81-9.27,2-13.32,2.75-15A4.1,4.1,0,0,1,174.65,196.78Z"/><path class="cls-4" d="M185.21,311.1c.07-.48.19-1.12.26-2,0-.57.1-1.21.17-1.87.46.05,5.32.45,6.11-.15l.12,0c.35,1.45.72,2.93.93,3.93l-.14,0c-.94.63-7.43.06-7.43.06Z"/><path class="cls-4" d="M174.66,189.31a31.28,31.28,0,0,1,9.63.17s1-4.35.47-6.5c-6.8-1-8.91-2.82-8.91-2.82A23.65,23.65,0,0,0,174.66,189.31ZM179.85,175c7.3.46,6.8,6.5,6.8,6.5l-.05.59c0,.17-.11,1.37-.27,3-.11,1.15-.25,2.52-.41,3.92-.39,3.53-.89,7.2-1.3,7.78-.81,1.13-9,.61-10-.06-.55-.36-.9-4.69-1.11-8.61-.07-1.46-.13-2.86-.18-4-.05-1.45-.07-2.43-.07-2.43S172.55,174.57,179.85,175Z"/><path class="cls-5" d="M178,226.67a50.92,50.92,0,0,0,11,1.7c.07,1.19.09,1.88.09,1.88l-19-.67s0-.79.12-3.4C173,227.21,176.76,227.37,178,226.67Z"/><path class="cls-10" d="M184.29,189.48a31.28,31.28,0,0,0-9.63-.17,23.65,23.65,0,0,1,1.19-9.15S178,182,184.76,183C185.26,185.13,184.29,189.48,184.29,189.48Z"/><path class="cls-10" d="M175.53,306.73c-1.63.68-6.13,0-6.13,0,.53-.82.41-4,.4-4.22l5.65-.1s.16,2.17.14,4.36Z"/><path class="cls-4" d="M175.53,306.73h.06a19,19,0,0,1-.26,3.47l-.14,0c-.48.15-12.81.59-14.19.65,0-.79.27-1.73.9-1.91,1.12-.32,6.94-1.38,7.5-2.23C169.4,306.69,173.9,307.41,175.53,306.73Z"/><path class="cls-4" d="M175.19,310.18l.14,0c-.12.56-.28.94-.52,1-1.22.5-13.32.72-13.62.7-.13,0-.22-.52-.19-1.11C162.38,310.77,174.71,310.33,175.19,310.18Z"/><path class="cls-11" d="M173.88,197.75l.18.08c-.72,1.67-1.94,5.72-2.75,15-.16,1.9-.3,3.6-.42,5.12h-.14s-6.48,7.36-14.35,5.3-9.51-22-9.51-22l5-.93s1,13.25,8,13.85C166.15,214.71,172.55,200.8,173.88,197.75Z"/><path class="cls-10" d="M171.36,223.12a6.69,6.69,0,0,0,3.56.16s-2.33-2.15-1.5-2.59,3.07,2.7,4.84,2.93l-.22,3c-1.28.7-5.06.54-7.72-.49a5.38,5.38,0,0,1-2.34-1.52c-1.56-2,.71-2.16,2.54-1.76A6,6,0,0,1,171.36,223.12Z"/><path class="cls-10" d="M173.36,184.19c0,1.12.11,2.52.18,4h0s-2.44-.18-2.21-2.41,2-1.57,2-1.57Z"/><path class="cls-4" d="M152.29,169.81a.39.39,0,1,1-.06.78l-13.27-1a.39.39,0,0,1-.36-.43.39.39,0,0,1,.42-.36Z"/><path class="cls-4" d="M152.14,172a.39.39,0,1,1-.06.78l-13.27-.95a.4.4,0,0,1-.37-.43.39.39,0,0,1,.42-.36Z"/><path class="cls-4" d="M152,174.14a.41.41,0,0,1,.37.42.4.4,0,0,1-.43.37l-13.27-1a.39.39,0,1,1,.06-.78Z"/><path class="cls-10" d="M151.42,188.3c.92.07.49,12,.49,12l-5,.93s-1.43-4.53-1.21-5.7,4.2-1.42,4.2-1.42S150.5,188.24,151.42,188.3Z"/><polygon class="cls-4" points="272.88 193.09 273.93 194.52 268.81 198.25 261.58 203.51 260.69 201.94 265.06 198.77 272.88 193.09"/><path class="cls-10" d="M262.8,191c4.35-.43,5.7,3.95,5.26,4.16s-2.29-2.4-3.7-2.2-.94,2.6-2.63,3.34-3.53.76-4.33,1.15a9.51,9.51,0,0,1-1.77-3C258.65,192.9,258.45,191.43,262.8,191Z"/><path class="cls-10" d="M265.06,198.77l-4.37,3.17.89,1.57,7.23-5.26,0,0a10.18,10.18,0,0,1-2.83,4.85c-2.46,2.31-5.41,3.63-7.49,3.33l0-4.19s4.67-4.74,6.43-3.61Z"/><path class="cls-11" d="M257.4,197.45c.17.19.27.28.27.28s-4,3.48-6.72,3.83v.06a42.35,42.35,0,0,1-4.27-.8c0-1.42,0-2.82-.08-4.13h0a62.86,62.86,0,0,0,9-2.26A9.51,9.51,0,0,0,257.4,197.45Z"/><path class="cls-4" d="M237.21,294.69c1.19.41,15.94-.07,15.94-.07l.06,0a.76.76,0,0,1-.21,1.07c-.48.39-15,.71-15.53.51C237.35,296.13,237.26,295.55,237.21,294.69Z"/><path class="cls-3" d="M237.15,286.22l-.63,0s-.51-5.14-1.2-12.55c-.24-2.59-.51-5.47-.79-8.51-.67-7.47-1.39-15.88-2-23.39-1.45-19.26.68-27.2.68-27.2,6,1.81,13.12-.53,13.12-.53,4,5.54,11.59,31.72,8.41,38.88-1.42,3.2-6.82,8.88-12.36,14.18.16,5.69.45,11.75,1,18a10.8,10.8,0,0,1-1.48.44A34.83,34.83,0,0,1,237.15,286.22Zm9.28-37c.28-5.16-3.24-18.85-3.24-18.85s-.89,10.59-.9,25.92C244.68,253.26,246.35,250.65,246.43,249.22Z"/><path class="cls-4" d="M244.93,165.08a0,0,0,0,1,0,0Z"/><path class="cls-4" d="M244.93,165.08l0-.05S244.93,165.06,244.93,165.08Z"/><path class="cls-4" d="M244.88,165l0,0Z"/><path class="cls-11" d="M231.64,184.46a4,4,0,0,1,2.35-.3c1.73.17,2.73,2.47,3.51,6,.4,1.83.75,6.77,5.37,9.3a16.12,16.12,0,0,0,3.8,1.37,42.35,42.35,0,0,0,4.27.8,75,75,0,0,0,7.61.65l0,4.19V207a102.54,102.54,0,0,1-11.88-.21c-3.52-.3-7-.89-9-2-3.66-2-5.32-5.44-6.2-9.06a44.4,44.4,0,0,1-.89-5.47C230.1,186.87,230.41,185.13,231.64,184.46Z"/><path class="cls-4" d="M244.93,165.08v0a.31.31,0,0,1,0,.19.35.35,0,0,1-.3.23.29.29,0,0,1-.13,0l-1.14-.36,1.16-.29a.28.28,0,0,1,.18,0,.29.29,0,0,1,.14.08l0,0,0,.05Z"/><path class="cls-4" d="M244.53,164.87l-1.16.29h0l-.3-.81,1.66.52A.28.28,0,0,0,244.53,164.87Z"/><path class="cls-4" d="M244.37,165.61l-.79.2c-.08-.22-.15-.44-.23-.64h0l1.14.36a.29.29,0,0,0,.13,0,.35.35,0,0,0,.3-.23.31.31,0,0,0,0-.19,4,4,0,0,1,0,2.71,2,2,0,0,1-.56.7c-.06-.26-.13-.52-.19-.77a1.64,1.64,0,0,0,.14-.22A3,3,0,0,0,244.37,165.61Z"/><path class="cls-10" d="M243.58,165.81c.2.6.4,1.25.59,1.94a1.42,1.42,0,0,1-.7.48c-1.05.34-1.83-1-2.22-1.82Z"/><path class="cls-10" d="M243.35,165.16l-2.2-.69a.34.34,0,1,1,.21-.65l1.69.53Z"/><path class="cls-10" d="M242.3,289.62l0,2.32a35.06,35.06,0,0,1-5.15-.26c0-2.3,0-4.76,0-5.46a34.83,34.83,0,0,0,4.74-.66l0,.08A19.67,19.67,0,0,0,242.3,289.62Z"/><path class="cls-4" d="M242.27,291.94l0-2.32c.36,1,4.23,1.21,8,3,1.82.85,2.62,1.51,2.91,2l-.06,0s-14.75.48-15.94.07c-.05-.82-.08-1.9-.09-3A35.06,35.06,0,0,0,242.27,291.94Z"/><path class="cls-11" d="M237.58,204.77c2.06,1.11,5.52,1.7,9,2-.09,4.11-.25,7.31-.25,7.31s-7.13,2.34-13.12.53c.36-2.34-1.88-18.9-1.88-18.9h0C232.26,199.33,233.92,202.81,237.58,204.77Z"/><path class="cls-10" d="M241.53,177c-4.49.68-6.76-5.75-6.76-5.75a4.76,4.76,0,0,1-.53-.19,3,3,0,0,1-1.9-1.88c-.25-1.18-.08-1.77.69-2.08a11.91,11.91,0,0,1,2.94.5,3.53,3.53,0,0,0,1.33,2.11,2.3,2.3,0,0,0,1.57.37,4.37,4.37,0,0,0,.5-.09c1.16-.31,1.62-1.41,1.34-3.12.78,1.64,1.85,2.37,3,2a2.19,2.19,0,0,0,.68-.35c.79,3.33,1,7.15-1.77,8.2A5.06,5.06,0,0,1,241.53,177Z"/><path class="cls-10" d="M243.05,164.35l-1.69-.53a.34.34,0,1,0-.21.65l2.2.69h0l-2.65.68h0l-.53.13h0l-3.89,1h0c-.32-.09-1.05-.29-1.82-.43.54-.66.08-2,.08-2s7.89-.7,8-1.48c0,0,.18.41.45,1.08C243,164.18,243,164.27,243.05,164.35Z"/><path class="cls-10" d="M240,166.73c.2,1,.26,2.32-.78,2.6a1.88,1.88,0,0,1-1.53-.18,2.86,2.86,0,0,1-1-1.57Z"/><path class="cls-4" d="M236.59,167.43a.33.33,0,0,1-.29.24.29.29,0,0,1-.13,0l-.2-.06a1.44,1.44,0,0,1,0-.21.34.34,0,0,1,.25-.39l.09,0h0l.09,0A.33.33,0,0,1,236.59,167.43Z"/><path class="cls-4" d="M236.67,167.58a2.86,2.86,0,0,0,1,1.57,1.88,1.88,0,0,0,1.53.18c1-.28,1-1.63.78-2.6Zm-.5.08a.29.29,0,0,0,.13,0,.34.34,0,0,0,.06-.66l-.09,0,3.89-1h0l.53-.13h0l2.65-.68c.08.2.15.42.23.64l-2.33.6c.39.86,1.17,2.16,2.22,1.82a1.42,1.42,0,0,0,.7-.48c.06.25.13.51.19.77a2.19,2.19,0,0,1-.68.35c-1.12.37-2.19-.36-3-2,.28,1.71-.18,2.81-1.34,3.12a4.37,4.37,0,0,1-.5.09,2.3,2.3,0,0,1-1.57-.37A3.53,3.53,0,0,1,236,167.6Z"/><path class="cls-4" d="M236,167.6a11.91,11.91,0,0,0-2.94-.5,3.41,3.41,0,0,1,.8-.21,1,1,0,0,0,.62-.34c.77.14,1.5.34,1.82.43l-.09,0a.34.34,0,0,0-.25.39A1.44,1.44,0,0,0,236,167.6Z"/><path class="cls-11" d="M231.64,184.46a16.8,16.8,0,0,1,3-3.79c4.82,2.66,7.21.52,7.57.16.08.12.17.24.26.35,1.26,1.41,2.84,4.42,3.73,10.84a45.61,45.61,0,0,1,.35,4.67c0,1.31.08,2.71.08,4.13a16.12,16.12,0,0,1-3.8-1.37c-4.62-2.53-5-7.47-5.37-9.3-.78-3.52-1.78-5.82-3.51-6A4,4,0,0,0,231.64,184.46Z"/><path class="cls-3" d="M235.32,273.71c-3.87,3.48-6.76,5.92-6.76,5.92l-.21-.26-3-3.72-.45-.57s4.64-4.52,9.61-9.88C234.81,268.24,235.08,271.12,235.32,273.71Z"/><path class="cls-12" d="M234.77,171.25s2.27,6.43,6.76,5.75a7.26,7.26,0,0,0,.72,3.83c-.36.36-2.75,2.5-7.57-.16,1.28-1.24.23-6.65-.24-8.77-.11-.47-.18-.78-.2-.84A4.76,4.76,0,0,0,234.77,171.25Z"/><path class="cls-4" d="M242.51,163c-.09.78-8,1.48-8,1.48s.46,1.38-.08,2a4.3,4.3,0,0,0-2.09,0,.34.34,0,0,0-.18.44.33.33,0,0,0,.45.18,1.05,1.05,0,0,1,.4-.06c-.77.31-.94.9-.69,2.08a3,3,0,0,0,1.9,1.88c0,.06.09.37.2.84a5.27,5.27,0,0,1-5.79-2.87c-.65-1.31-2.16-6.21,3.9-6.38-.41-1.58,1.87-7,6.27-3.19,1-2.4,4-3.38,5.49-.71S243,164.1,243,164.1h0C242.69,163.44,242.51,163,242.51,163Z"/><path class="cls-4" d="M232.36,166.54a4.3,4.3,0,0,1,2.09,0,1,1,0,0,1-.62.34,3.41,3.41,0,0,0-.8.21,1.05,1.05,0,0,0-.4.06.33.33,0,0,1-.45-.18A.34.34,0,0,1,232.36,166.54Z"/><path class="cls-10" d="M225.37,275.65l3,3.72a20.06,20.06,0,0,0-2.94,2.7l-1.87,1.37a34.92,34.92,0,0,1-2.89-4.28c2.16-1.65,4.55-3.37,4.55-3.37Z"/><path class="cls-4" d="M228,293.77a.75.75,0,0,1-1,.48c-.59-.14-9.57-11.56-9.73-12.11,0-.12.38-.54,1-1.1.4,1.2,9.63,12.71,9.63,12.71Z"/><path class="cls-4" d="M227.83,290.25c.41,2,.38,3,.15,3.52l0,0S218.7,282.24,218.3,281c.62-.53,1.47-1.2,2.35-1.88a34.92,34.92,0,0,0,2.89,4.28l1.87-1.37C224.83,283,227,286.17,227.83,290.25Z"/></g></g></g></svg>