<svg xmlns="http://www.w3.org/2000/svg" viewBox="0 0 83.8 83.75"><defs><style>.cls-1{fill:#1dd3f8;}</style></defs><title>intelligible_interface</title><g id="Layer_2" data-name="Layer 2"><g id="Layer_1-2" data-name="Layer 1"><path class="cls-1" d="M72.94,67.71c0,1.19.07,2.38,0,3.55a9,9,0,0,1-2.37,5.39,5.77,5.77,0,0,0-1.64,4.89,16.22,16.22,0,0,1,0,2.21H44.6c0-1.36,0-2.67,0-4a6,6,0,0,0-.47-2c-.52-1.21-1.12-2.39-1.74-3.56a11.77,11.77,0,0,1-1.8-6.64h-36C1.58,67.58,0,66,0,62.93V4.66C0,1.56,1.57,0,4.68,0H79.17c3,0,4.63,1.58,4.63,4.63V63c0,3-1.6,4.59-4.59,4.59h-6A2.05,2.05,0,0,0,72.94,67.71Zm5.41-27.13H56.81v2.68H78.33V62.19H73v2.69h6.12c1.54,0,1.93-.4,1.93-1.95V19H2.7v43.9c0,1.61.38,2,2,2H40.48V62.16H29.79V43.22H48.61V40.53H29.8V21.67H78.35ZM2.7,16.16H81.09V5c0-2-.28-2.26-2.21-2.26H4.31c-1.1,0-1.6.5-1.6,1.6,0,1.78,0,3.55,0,5.32Zm45.95,50c0-1.79,0-3.51,0-5.22a7.07,7.07,0,0,0-6-6.82,2.62,2.62,0,0,0-1.88.3c-.62.52.1,1.18.35,1.73.8,1.7,1.89,3.3,2,5.24.12,2.16.12,4.33.12,6.49a8.28,8.28,0,0,0,.89,3.82c.69,1.35,1.29,2.75,2,4.07a7.37,7.37,0,0,1,1.13,4.72,2.84,2.84,0,0,0,0,.54H66.23c0-.7,0-1.35,0-2a2.6,2.6,0,0,1,.66-2c.76-.91,1.44-1.88,2.13-2.84a6.38,6.38,0,0,0,1.26-3.78c0-4.93,0-9.86,0-14.78,0-1-.55-1.59-1.37-1.58s-1.32.62-1.33,1.62c0,.8,0,1.61,0,2.38H64.91a4.21,4.21,0,0,1,0-.46c0-1.6,0-3.21,0-4.81a1.35,1.35,0,1,0-2.69,0c0,.47,0,1,0,1.43v3.85h-2.7v-5c0-1.07-.49-1.69-1.33-1.7s-1.37.62-1.37,1.74c0,.48,0,1,0,1.44v3.5H54.06V37.22a8,8,0,0,0,0-.85,1.34,1.34,0,0,0-1.38-1.22,1.3,1.3,0,0,0-1.29,1.21,4.83,4.83,0,0,0,0,.85V66.16Zm0-28.35c0-.49,0-.91,0-1.32a4.05,4.05,0,1,1,8.1,0c0,.44,0,.88,0,1.29H75.63V24.39H32.48V37.81Zm0,16.54V46H32.51V59.42H39.7c-.53-1.08-1.06-2.07-1.51-3.09a3.46,3.46,0,0,1,2.28-4.87,7.27,7.27,0,0,1,2.59,0A9.84,9.84,0,0,1,48.61,54.35Zm27,5.08V46H56.81v2.85a4.2,4.2,0,0,1,4,.82,4,4,0,0,1,3.82-.86,4.28,4.28,0,0,1,2.8,2.77A4.19,4.19,0,0,1,73,56.07c-.1,1.11,0,2.23,0,3.36Z"/><path class="cls-1" d="M27,40.51H8.15V21.69H27ZM24.29,24.39H10.88V37.8H24.29Z"/><path class="cls-1" d="M27,43.31V62.13H8.18V43.31ZM24.29,46H10.88V59.42H24.29Z"/><path class="cls-1" d="M13.45,13.48h-8v-8h8ZM10.77,8.16H8.16v2.59h2.61Z"/><path class="cls-1" d="M16.28,5.44h8v8h-8ZM19,10.77h2.61V8.17H19Z"/><path class="cls-1" d="M35.1,5.47v8h-8v-8ZM32.4,8.15H29.79v2.6H32.4Z"/><path class="cls-1" d="M40.62,27.05h32.3v2.63H40.62Z"/><path class="cls-1" d="M59.51,35.08v-2.6H72.92v2.6Z"/><path class="cls-1" d="M35.18,35.08v-2.6h10.7v2.6Z"/><path class="cls-1" d="M37.8,27.08v2.59H35.2V27.08Z"/><path class="cls-1" d="M16.22,35.49,12.69,32l1.9-1.83L16,32,21.92,26,23.77,28Z"/><path class="cls-1" d="M16.22,57.12l-3.54-3.54,2-1.77L16,53.61l5.94-6,1.79,2Z"/></g></g></svg>