<svg xmlns="http://www.w3.org/2000/svg" viewBox="0 0 84.43 84.48"><defs><style>.cls-1{fill:#1dd3f8;}</style></defs><title>process_execution</title><g id="Layer_2" data-name="Layer 2"><g id="Layer_1-2" data-name="Layer 1"><path class="cls-1" d="M60.52,84.48c-.93-.49-1-1.41-1.2-2.3-.08-.43-.06-1-.73-1a3.18,3.18,0,0,0-.84.23s-.08.08-.12.12c-1.71,1.86-1.72,1.88-3.92.72-1-.52-1.92-1.16-2.87-1.76a1.48,1.48,0,0,1-.64-1.86,8.56,8.56,0,0,0,.39-1.25,1.18,1.18,0,0,0-.2-.9,1,1,0,0,0-.88-.23c-2.68.91-2.6.64-4-1.45-.58-.89-1-1.86-1.54-2.81a1.47,1.47,0,0,1,.35-1.93c.33-.29.64-.61,1-.87s.54-.59.3-1a1.31,1.31,0,0,0-.71-.61c-2.93-.55-2.56-1-2.57-3.35,0-1,0-1.92,0-2.89a1.51,1.51,0,0,1,1.39-1.72,7.76,7.76,0,0,0,1.2-.27,1.24,1.24,0,0,0,.68-.65,1.06,1.06,0,0,0-.27-.88c-1.88-1.67-2-1.75-.71-4.14.53-1,1.13-1.88,1.74-2.8a1.38,1.38,0,0,1,1.72-.59,7.33,7.33,0,0,0,1.34.4,1.18,1.18,0,0,0,.91-.2,1,1,0,0,0,.23-.89c-1-2.81-.45-2.7,1.45-3.94.9-.58,1.87-1,2.81-1.55a1.44,1.44,0,0,1,1.92.37,7.5,7.5,0,0,0,.9,1,1.71,1.71,0,0,0,.89.34c.45,0,.61-.3.7-.74.46-2.43.45-2.63,3.25-2.57h2.8c1.25,0,1.65.35,1.92,1.58a4.93,4.93,0,0,0,.23,1,1.35,1.35,0,0,0,.66.67,1,1,0,0,0,.82-.24c2-2.49,2.27-1.71,4.34-.66a29.2,29.2,0,0,1,2.65,1.65,1.42,1.42,0,0,1,.58,1.73,10.87,10.87,0,0,0-.41,1.34,1.2,1.2,0,0,0,.22.9,1,1,0,0,0,.9.22c2.51-.86,2.53-.73,3.9,1.41.58.92,1.07,1.91,1.59,2.88a1.45,1.45,0,0,1-.4,1.92,8.19,8.19,0,0,0-1,.89,1.2,1.2,0,0,0-.29.88,1.19,1.19,0,0,0,.74.68c2.53.58,2.53.56,2.53,3.13,0,1,0,2,0,3S84,67.1,82.9,67.34a5,5,0,0,0-1.12.26,1.41,1.41,0,0,0-.73.69,1.08,1.08,0,0,0,.32.88c2.18,1.89,1.78,2,.69,4.06-.5,1-1.14,1.88-1.73,2.8a1.45,1.45,0,0,1-1.79.63,12.8,12.8,0,0,0-1.33-.42,1.12,1.12,0,0,0-.84.17c-.2.21-.21.6-.3.91,0,0,0,.05,0,.08,1,2.69.49,2.63-1.41,3.87-.9.58-1.86,1-2.81,1.55a1.49,1.49,0,0,1-2-.38,7.55,7.55,0,0,0-.9-1,1.2,1.2,0,0,0-.88-.26,1.09,1.09,0,0,0-.64.67c-.27.93-.27,2-1.18,2.6Zm13-5.78c-.18-.58-.32-1-.5-1.51a1.7,1.7,0,0,1,.52-2.07c.53-.47,1-1,1.51-1.51a1.64,1.64,0,0,1,1.8-.47c1.76.49,1.76.48,2.66-1.13.08-.14.14-.29.22-.46l-1.29-1.17A1.56,1.56,0,0,1,78,68.6c.24-.72.42-1.47.6-2.22a1.59,1.59,0,0,1,1.24-1.27c1.72-.47,1.72-.48,1.69-2.26,0-.19,0-.38,0-.68-1.8,0-2.69-.84-3.25-2.71-.6-2,.19-3,1.62-4l-1.3-2.2a3.17,3.17,0,0,1-4.3-.64c-1.49-1.46-1.41-2.71-.63-4.29l-2.15-1.26-1.19,1.32a1.57,1.57,0,0,1-1.78.5q-1.09-.33-2.22-.6A1.55,1.55,0,0,1,65,47c-.08-.41-.17-.81-.27-1.21,0-.14-.15-.37-.24-.37a8.49,8.49,0,0,0-2.2,0c-.23.06-.35.79-.42,1.23a1.85,1.85,0,0,1-1.64,1.69,18.39,18.39,0,0,0-2.06.55,1.44,1.44,0,0,1-1.57-.43c-.44-.46-.85-.93-1.29-1.41l-.68.38c-1.42.83-1.43.83-.93,2.4a1.72,1.72,0,0,1-.51,2c-.55.49-1,1-1.57,1.57a1.51,1.51,0,0,1-1.72.42c-.56-.2-1.13-.35-1.73-.54l-1.26,2.2a3.05,3.05,0,0,1,1.63,4,3.16,3.16,0,0,1-3.32,2.74v.95c0,1.56,0,1.57,1.51,1.9a1.68,1.68,0,0,1,1.47,1.45,2.83,2.83,0,0,0,.2.88,2.69,2.69,0,0,1-1.06,3.88c-.15.09-.18.5-.13.73s.29.46.39.72c.33.86.86,1.05,1.7.63A2,2,0,0,1,52,74a2.74,2.74,0,0,0,.7.7,2.18,2.18,0,0,1,.75,3.09,1.2,1.2,0,0,0-.16.54.77.77,0,0,0,.2.53c.57.37,1.17.7,1.86,1.1l.3-.44c.92-1.44,2-1.62,3.73-1.15s2.53,1.1,2.64,2.79a.71.71,0,0,0,.48.47c.7.06,1.41,0,2.23,0-.09-2,.87-2.76,2.69-3.34,2-.63,3,.26,4,1.61Z"/><path class="cls-1" d="M84.43,17.52c-.44.91-1.36,1.13-2.18,1.5s-1.12.88-.51,1.64c1.26,1.56.9,2.91-.28,4.25a2,2,0,0,0-.25.33,2.36,2.36,0,0,1-3.27,1.13c-1.09-.42-1.71.07-1.62,1.15a2.59,2.59,0,0,1-.14,1.21,2.33,2.33,0,0,1-.86,1.18A13.76,13.76,0,0,1,72.21,31a2.25,2.25,0,0,1-1.46-.48,6.14,6.14,0,0,1-1.1-1.22c-.43-.51-.85-.53-1.29,0l-1.08,1.24a1.43,1.43,0,0,1-1.63.48c-.92-.29-1.82-.61-2.73-.9a1.57,1.57,0,0,1-1.17-1.52l-.09-1.15c-.09-1.08-.45-1.44-1.41-1.07A2.7,2.7,0,0,1,56.54,25a4,4,0,0,0-.46-.69,2.26,2.26,0,0,1,0-3.19,4,4,0,0,0,.33-.57.88.88,0,0,0-.45-1.39c-2.65-1.13-2.32-1-2.34-3.73a2.08,2.08,0,0,0,0-.25,2.39,2.39,0,0,1,1.89-3c1.3-.44,1.35-.79.64-2a9.14,9.14,0,0,1-.66-1.23c-.4-1.11,1.93-4.47,3.11-4.45a11.13,11.13,0,0,1,1.78.33c.89.18,1.25-.05,1.3-1,.15-2.61.13-2.44,2.83-3.41.33-.12.69-.16,1-.28a1.54,1.54,0,0,1,1.89.56c.3.36.6.72.91,1.06.52.58.89.57,1.41,0,.06-.06.11-.13.16-.19C71.39-.21,71.39-.21,73.64.5a4.34,4.34,0,0,0,.47.16c1.65.33,2.28,1.38,2.25,3,0,1.16.35,1.37,1.5,1.1.37-.08.74-.19,1.12-.26a1.47,1.47,0,0,1,1.6.58L82.31,7.5a1.53,1.53,0,0,1,0,1.85c-.08.14-.15.29-.24.43-1,1.6-.93,1.88.81,2.63a7.57,7.57,0,0,1,1.52,1.16Zm-5.71,6.13c.13-.13.43-.29.53-.54a1.26,1.26,0,0,0,0-.93,3.58,3.58,0,0,1-.6-3.24,3.18,3.18,0,0,1,2.2-2.4.89.89,0,0,0,.73-1,.88.88,0,0,0-.76-1,3,3,0,0,1-2.12-2.27,3.19,3.19,0,0,1,.46-3.16,1,1,0,0,0,0-1.31c-.4-.59-.83-.26-1.24-.18a3.42,3.42,0,0,1-4.38-3.31c0-.49,0-.92-.65-1.14s-.84.26-1.2.56c-.53.44-1,1.09-1.66,1.19-1.54.27-3.1.22-4-1.44-.22-.41-.54-.45-1-.3a.81.81,0,0,0-.63.81A4,4,0,0,1,64,6.12c-1,1.14-2.21,2.21-4,1.51-.43-.17-.82-.27-1.21.26s-.16.85.06,1.31a4.3,4.3,0,0,1,.67,2c-.2,1.54-.63,3.06-2.49,3.47-.49.11-.6.43-.6.91a.92.92,0,0,0,.62,1,3.81,3.81,0,0,1,1.72,1.13c.76,1.39,1.29,2.9,0,4.35a.86.86,0,0,0,0,1.23c.33.44.64.35,1.07.29a4,4,0,0,1,2.06-.08c1.46.66,2.72,1.61,2.55,3.52a.82.82,0,0,0,.66,1c.53.2.71-.1,1-.39.52-.5,1.05-1.23,1.67-1.34,1.51-.28,3.1-.35,4.06,1.31a.77.77,0,0,0,1.07.41.85.85,0,0,0,.62-1A3.12,3.12,0,0,1,75.12,24a2.78,2.78,0,0,1,2.68-.53C78,23.52,78.28,23.55,78.72,23.65Z"/><path class="cls-1" d="M30.81,31.47l-2.35-.54a1.22,1.22,0,0,0-1.64,1.17,13.35,13.35,0,0,1-.26,2.12,1.91,1.91,0,0,1-.88,1.16,33.44,33.44,0,0,1-3.57,1.24,1.49,1.49,0,0,1-1.63-.53l-1.24-1.43c-.68-.78-1.33-.78-2,0-.42.47-.83,1-1.24,1.43a1.46,1.46,0,0,1-1.63.51c-1.18-.37-2.34-.76-3.5-1.18a1.4,1.4,0,0,1-1-1.3c0-.69-.12-1.37-.2-2A1.23,1.23,0,0,0,8,30.94l-.16,0c-2.9.64-2.53.93-4.43-1.73-1.76-2.47-1.66-2.06-.21-4.57.72-1.23.53-1.83-.77-2.41C-.1,21.15,0,21.43,0,18.59c0-3.31-.34-2.91,2.69-4.24a1.29,1.29,0,0,0,.67-2,4.08,4.08,0,0,0-.29-.5,2.79,2.79,0,0,1,.1-4.1c.07-.08.12-.19.18-.27C5.41,4.9,4.92,5.1,7.81,5.77,9,6.06,9.58,5.65,9.7,4.37V4.29c.21-3,.11-2.69,2.8-3.6,3-1,2.65-1.1,4.5,1.18a1.4,1.4,0,0,0,2.49,0C21.16-.27,21.25-.32,23.77.6c2.83,1,2.83.68,3,3.63,0,.52,0,1.15.61,1.4a2.09,2.09,0,0,0,1,.18,10.73,10.73,0,0,0,1.77-.38A1.54,1.54,0,0,1,31.94,6c.71,1,1.41,2,2.1,3a1.49,1.49,0,0,1,0,1.7l-.95,1.64a1.31,1.31,0,0,0,.65,2c3,1.32,2.66,1,2.66,4.08,0,2.95.33,2.65-2.56,3.9a1.33,1.33,0,0,0-.72,2.14l.12.21c1.46,2.51,1.42,2.06-.2,4.59a9.73,9.73,0,0,1-1.24,1.54A5.26,5.26,0,0,1,30.81,31.47ZM6.5,8.36a.87.87,0,0,0-.34.12,1.59,1.59,0,0,0-.44,2.3c.18.31.34.63.54.93a2.47,2.47,0,0,1,.18,2,4,4,0,0,1-3.1,3.49c-.06,0-.13,0-.15.06s-.33.37-.35.56c-.17,1.52-.15,1.52,1.23,2.14a3.8,3.8,0,0,1,.89.41,3.09,3.09,0,0,1,.9,1c.73,1.69,1.12,3.4-.34,5a.86.86,0,0,0-.2.36.77.77,0,0,0,0,.45c.48,1.13.93,1.34,2.13,1.06a3.38,3.38,0,0,1,1-.21,2.83,2.83,0,0,1,1.48.26c2.58,2,2.31.93,2.62,4.29a1.19,1.19,0,0,0,0,.33.72.72,0,0,0,.19.33A1.52,1.52,0,0,0,15,32.94a11.74,11.74,0,0,1,.86-1,2,2,0,0,1,1-.57c1.76-.2,3.56-.42,4.64,1.52.42.75,1,.83,1.76.49.51-.22.75-.43.74-1a5.37,5.37,0,0,1,.15-1.55,2.57,2.57,0,0,1,.69-1.33c2.61-1.79,1.58-2,4.8-1.23.1,0,.21.1.31.08a.84.84,0,0,0,.43-.14,1.55,1.55,0,0,0,.36-2.38,6,6,0,0,1-.6-1.07,2.16,2.16,0,0,1-.15-1.26c1.08-3,.12-2.62,3.15-3.91a.66.66,0,0,0,.53-.53c.26-1.31.05-1.69-1.19-2.23a3.31,3.31,0,0,1-.89-.42c-.36-.3-.83-.65-.94-1.06-.78-3-1.37-2,.37-5a.88.88,0,0,0,.16-.28,1,1,0,0,0,0-.52c-.56-1.18-.86-1.31-2.14-1a5.16,5.16,0,0,1-1.21.23,2.19,2.19,0,0,1-1.23-.3c-2.62-2-2.25-1-2.6-4.24,0-.11,0-.23,0-.32a1,1,0,0,0-.29-.43c-1-.6-1.43-.52-2.2.37a4.55,4.55,0,0,1-.77.86,3.92,3.92,0,0,1-1.43.68c-1.79.27-3.39,0-4.37-1.8,0-.07-.12-.12-.16-.19-.25-.44-.61-.42-1-.22s-1.22.07-1.16.9a4.15,4.15,0,0,1-2.32,4.24,2.42,2.42,0,0,1-1.85.41Z"/><path class="cls-1" d="M26.58,63.5H9.09c-1.72,0-2.15-.42-2.15-2.14V38.17H9.73V60.61h17c0-.81,0-1.62,0-2.43,0-1.45.91-2.06,2.24-1.5l9.31,4a1.54,1.54,0,0,1,1.11,1.39,1.52,1.52,0,0,1-1.13,1.46l-9.31,4c-1.32.55-2.2-.07-2.22-1.53,0-.74,0-1.48,0-2.22C26.68,63.69,26.64,63.64,26.58,63.5Zm3,.65,4.84-2.07L29.55,60Z"/><path class="cls-1" d="M39.45,15.55H50.14l.45,0v2.74H39.45Z"/><path class="cls-1" d="M63.35,76.19A12.69,12.69,0,1,1,76,63.49,12.75,12.75,0,0,1,63.35,76.19Zm-.18-2.84a9.86,9.86,0,1,0-9.68-10.11C53.21,68.53,57.58,73.1,63.17,73.35Z"/><path class="cls-1" d="M62,15.58a7,7,0,1,1,7,7A7.06,7.06,0,0,1,62,15.58Zm2.81-.05A4.22,4.22,0,1,0,69,11.33,4.24,4.24,0,0,0,64.78,15.53Z"/><path class="cls-1" d="M28.08,18.39A9.85,9.85,0,1,1,18.27,8.5,9.84,9.84,0,0,1,28.08,18.39Zm-2.83.1a7,7,0,1,0-7.11,6.93A7,7,0,0,0,25.25,18.49Z"/><path class="cls-1" d="M67.91,58.36l2.16,1.8L64.36,67c-.43.51-.83,1-1.27,1.51a1.38,1.38,0,0,1-2.17.12c-1.4-1.35-2.75-2.75-4.09-4.1l2-2,2.93,3.13Z"/></g></g></svg>