<svg xmlns="http://www.w3.org/2000/svg" viewBox="0 0 82.14 82.18"><defs><style>.cls-1{fill:#1dd3f8;}</style></defs><title>seamless_integration</title><g id="Layer_2" data-name="Layer 2"><g id="Layer_1-2" data-name="Layer 1"><path class="cls-1" d="M0,31.78H18.51v10.6H10.66V55.62H26.45c0-.16,0-.31.05-.46,0-1.78,0-1.78,1.74-2.35l1.51-.51-1.47-3,5.14-5.14,3,1.48c.3-.9.6-1.73.84-2.57.15-.51.38-.77.95-.7s1,0,1.55,0V34.5H26.54V18.63H10.64V26l2.82-3.11,1.93,1.91-6.05,6L3.2,24.69l1.86-1.75L8,26V15.92H26.5V13.56c0-1.42,0-2.84,0-4.25a1.56,1.56,0,0,1,.4-1q3.95-4,7.94-7.94A1.27,1.27,0,0,1,35.67,0c6.58,0,13.16,0,19.74,0,.05,0,.1,0,.25.06V15.87H74.21v10l2.88-2.94,1.83,1.89-6,6-6-6.08L68.65,23l2.68,2.87.18-.11V18.61H55.7V34.48H42.45V42.4a14.09,14.09,0,0,0,1.46,0c.64-.08.9.19,1.05.78.22.82.54,1.62.83,2.48l2.9-1.43,5.18,5.18-1.44,2.9c.89.29,1.73.61,2.59.85a.79.79,0,0,1,.68,1,12.4,12.4,0,0,0,0,1.5H71.53V42.41H63.66V31.86H82.14V42.37H74.27c0,.38,0,.66,0,1,0,6.55,0,13.1,0,19.66a1,1,0,0,0,.73,1.1,5.26,5.26,0,1,1-7.25,5.6A5.16,5.16,0,0,1,71,64.05a.82.82,0,0,0,.63-.91c0-1.58,0-3.15,0-4.78H63.66c0,.27,0,.55,0,.83q0,7.26,0,14.52c0,.4,0,.73.46,1a3.73,3.73,0,0,1,2.18,3.79A3.86,3.86,0,0,1,63.43,82a2.81,2.81,0,0,0-.35.17h-1.6a1.83,1.83,0,0,0-.26-.16,3.85,3.85,0,0,1-2.86-3.57,3.71,3.71,0,0,1,2.2-3.77c.46-.24.43-.55.43-.91q0-7.35,0-14.69c0-.23,0-.46,0-.71H55.69a14.83,14.83,0,0,0,0,1.5.78.78,0,0,1-.68,1c-.86.23-1.7.56-2.59.86L54,64.77c-1.61,1.61-3.21,3.22-4.84,4.8a.73.73,0,0,1-.68.06c-.87-.39-1.72-.84-2.64-1.3-.31.93-.62,1.81-.9,2.7-.11.36-.26.57-.71.56q-3.09,0-6.18,0c-.45,0-.59-.2-.71-.56-.28-.89-.58-1.77-.89-2.7-.92.46-1.77.91-2.65,1.3a.72.72,0,0,1-.67-.06c-1.63-1.58-3.23-3.19-4.85-4.8l1.52-3.07-1.82-.62c-1.42-.48-1.42-.48-1.43-2,0-.23,0-.46-.05-.69H21.24a3.8,3.8,0,0,0,0,.38c0,5.06,0,10.11,0,15.17,0,.48.23.62.58.81a3.86,3.86,0,0,1,1,6.08,10.52,10.52,0,0,1-2.1,1.36H19.1a2.16,2.16,0,0,0-.34-.17,3.86,3.86,0,0,1-2.82-3.53,3.71,3.71,0,0,1,2.18-3.79c.48-.25.45-.58.45-1V59.19c0-.28,0-.56-.05-.83H10.6c0,1.63,0,3.2,0,4.77a.82.82,0,0,0,.63.92A5.26,5.26,0,0,1,9.45,74.19,5.27,5.27,0,0,1,4.1,70a5.21,5.21,0,0,1,3.14-5.93A1,1,0,0,0,8,63q0-9.82,0-19.66c0-.28,0-.57,0-1H0ZM29.24,10.59V31.75H53v-29H37.07v7.86Zm19.08,56c.2-.19.43-.4.65-.62.57-.6,1.47-1.14,1.6-1.82S50,62.76,49.63,62a1.9,1.9,0,0,1,1.09-2.59c.75-.26,1.78-.35,2.15-.88S53,57,53,56.23s-.12-1.09-.86-1.23a10,10,0,0,1-1.75-.58,1.13,1.13,0,0,1-.52-.42,2,2,0,0,1,0-2.5c.21-.26.28-.64.48-.92a.93.93,0,0,0-.23-1.47c-.64-.52-1.14-1.46-1.83-1.59s-1.42.59-2.13.94a1.91,1.91,0,0,1-2.56-1c-.28-.78-.36-1.84-.91-2.23s-1.6-.07-2.42-.14-1,.19-1.15.86a11.1,11.1,0,0,1-.58,1.74.86.86,0,0,1-.34.49c-.81.4-1.62.86-2.5.13-.26-.22-.64-.29-.92-.49a1,1,0,0,0-1.61.24c-.49.62-1.43,1.11-1.53,1.76s.57,1.44.94,2.14a1.47,1.47,0,0,1,.07,1.34,1.82,1.82,0,0,1-1.47,1.36,10.27,10.27,0,0,0-1.59.54c-.15.07-.37.27-.37.41a8.06,8.06,0,0,0,.13,3c.18.48,1.34.57,2.06.84a4.12,4.12,0,0,1,.53.18.72.72,0,0,1,.34.3c.35.82.88,1.62.12,2.5-.18.22-.24.54-.41.78a1.15,1.15,0,0,0,.28,1.86c.59.44,1,1.33,1.64,1.43s1.33-.56,2-.86c.31-.14.69-.4.94-.32.8.26,1.76.41,1.87,1.55,0,.31.24.6.29.92a1.22,1.22,0,0,0,1.58,1.16c.7-.11,1.63.2,2.1-.15s.58-1.31.82-2a1.88,1.88,0,0,1,2.79-1.15ZM15.85,39.74v-5.2H2.72v5.2Zm50.48,0H79.46V34.52H66.33ZM11.91,68.93a2.61,2.61,0,0,0-2.64-2.64A2.66,2.66,0,0,0,6.63,69a2.7,2.7,0,0,0,2.62,2.62A2.65,2.65,0,0,0,11.91,68.93Zm58.37,0a2.64,2.64,0,0,0,2.61,2.69A2.65,2.65,0,0,0,73,66.29,2.62,2.62,0,0,0,70.28,68.89ZM31.39,7.9h3V4.83ZM21.19,78.23a1.35,1.35,0,0,0-1.32-1.34,1.31,1.31,0,0,0-1.28,1.29,1.27,1.27,0,0,0,1.23,1.31A1.3,1.3,0,0,0,21.19,78.23Zm41.13-1.34A1.34,1.34,0,0,0,61,78.14a1.27,1.27,0,0,0,1.28,1.35,1.26,1.26,0,0,0,1.31-1.22A1.3,1.3,0,0,0,62.32,76.89Z"/><path class="cls-1" d="M31.82,18.52V16H50.33v2.55Z"/><path class="cls-1" d="M50.36,21.26V23.8H31.85V21.26Z"/><path class="cls-1" d="M50.36,26.56v2.55H31.85V26.56Z"/><path class="cls-1" d="M39.81,7.89V5.34H50.34V7.89Z"/><path class="cls-1" d="M39.82,13.19V10.64H50.34v2.55Z"/><path class="cls-1" d="M41.11,63.6A6.61,6.61,0,1,1,47.7,57,6.61,6.61,0,0,1,41.11,63.6Zm0-2.63a4,4,0,1,0-4-4A4,4,0,0,0,41.13,61Z"/></g></g></svg>