<svg xmlns="http://www.w3.org/2000/svg" viewBox="0 0 101.22 101.21"><defs><style>.cls-1{fill:#1dd3f8;}</style></defs><title>business_goals</title><g id="Layer_2" data-name="Layer 2"><g id="Layer_1-2" data-name="Layer 1"><path class="cls-1" d="M75,24c.91-.94,1.91-1.91,2.83-3a1.62,1.62,0,0,0,.29-1.18c-.39-2.58-.83-5.16-1.29-7.74A2.16,2.16,0,0,1,77.45,10c3.11-3.09,6.2-6.21,9.31-9.29,1.18-1.17,2.39-.91,3,.63.85,2.08,1.7,4.15,2.48,6.25A2.15,2.15,0,0,0,93.63,9c2.06.79,4.11,1.62,6.15,2.45,1.66.69,1.9,1.86.62,3.14-3,3.07-6.11,6.11-9.15,9.17a2.28,2.28,0,0,1-2.2.71c-2.54-.46-5.08-.91-7.64-1.28a2.06,2.06,0,0,0-1.42.44c-1,.84-1.93,1.81-2.7,2.55,1.79,2.76,3.68,5.26,5.14,8A35.73,35.73,0,0,1,69.68,81a2.09,2.09,0,0,0-1.15,2.08c0,5.31,0,10.61,0,15.92,0,1.73-.52,2.24-2.25,2.24H2.25C.51,101.21,0,100.7,0,99V2.26C0,.52.51,0,2.24,0H66.31c1.74,0,2.25.51,2.25,2.24,0,5.47,0,11,0,16.42a1.36,1.36,0,0,0,.7,1.31C71.12,21.25,73,22.59,75,24Zm-9.73-6.33V3.34H3.34V97.86H65.25V83.65L55.5,86.42v6.16c0,1.53-.56,2.1-2.08,2.1H44.75c-1.82,0-2.31-.48-2.31-2.28V85.59l-3.26-.9c0,2.72,0,5.34,0,8,0,1.46-.57,2-2,2H28.36c-1.73,0-2.24-.51-2.24-2.24q0-7.35,0-14.69c0-.36,0-.84-.19-1-1-1-2.11-1.88-3.07-2.73V92.5c0,1.66-.53,2.18-2.21,2.18H11.87c-1.52,0-2.07-.56-2.07-2.1q0-13.41,0-26.83c0-1.53.55-2.07,2.1-2.08H17c-4.78-14.84-2.44-28.17,8.88-39S50.71,12.2,65.24,17.68Zm7.08,8.72C61,15.6,40.83,14.3,27.67,27.17A32.76,32.76,0,1,0,75.32,72c12.06-14.24,9-33.43-.46-43l-4.53,4.49A26.12,26.12,0,1,1,67.8,31Zm-7,6.88a22.9,22.9,0,1,0,1.72,33.26C76,57.22,74.92,43.47,68,35.91l-4.32,4.32c.72.69,1.55,1.45,2.34,2.23,1.44,1.44,1.25,2.51-.56,3.35-.27.13-.52.28-.76.41a14.71,14.71,0,1,1-28.73,5,14.14,14.14,0,0,1,4.41-11.12c4.17-4,9.15-5,14.69-3.59.14-.28.25-.49.35-.71.87-1.89,1.91-2.08,3.4-.58.79.79,1.55,1.6,2.27,2.34ZM61.51,47.56l-3.8,1.67c-2.08.93-4.16,1.85-6.23,2.79a1.66,1.66,0,0,1-2-.24,1.64,1.64,0,0,1-.28-2.06c.17-.36.34-.74.5-1.11q2-4.45,3.95-8.91c-4.47-1.62-10.1.55-12.81,4.86a11.46,11.46,0,0,0,16,15.68C61,57.49,63.14,51.84,61.51,47.56ZM19.59,91.37V72.87c0-1.23,0-2.45,0-3.67,0-.92-.79-2.24-1.36-2.25-1.68,0-3.37,0-5.11,0V91.37Zm16.32,0a39.65,39.65,0,0,1,0-4.89c.29-2.29-.39-3.7-2.66-4.51a23.58,23.58,0,0,1-3.85-2.28V91.38ZM81.05,17.63c.15,0,.23,0,.27-.07,2.6-2.59,5.2-5.17,7.78-7.77a.86.86,0,0,0,.24-.7c-.55-1.48-1.16-2.94-1.79-4.53-2.47,2.47-4.83,4.8-7.14,7.18a1.33,1.33,0,0,0-.18,1C80.47,14.37,80.76,16,81.05,17.63Zm15.6-4c-1.47-.59-2.77-1.08-4-1.64a1.08,1.08,0,0,0-1.41.28c-2.38,2.43-4.79,4.81-7.19,7.22-.17.17-.3.38-.5.63,1.74.3,3.34.59,4.94.83a1.4,1.4,0,0,0,1-.17C91.85,18.49,94.19,16.13,96.65,13.66ZM52.19,86.59l-6.4-.3v5.07h6.4Zm10-42.93L57.54,39,54,47.08l.22.15Z"/><path class="cls-1" d="M48.92,8.24v3.15H16.4V8.24Z"/><path class="cls-1" d="M29.33,14.77v3.14H6.61V14.77Z"/><path class="cls-1" d="M6.58,24.43V21.28H19.51v3.15Z"/><path class="cls-1" d="M62,8.24v3.14H52.32V8.24Z"/></g></g></svg>