<svg xmlns="http://www.w3.org/2000/svg" viewBox="0 0 98.86 113.46"><defs><style>.cls-1{fill:#1dd3f8;}</style></defs><title>innovation</title><g id="Layer_2" data-name="Layer 2"><g id="Layer_1-2" data-name="Layer 1"><path class="cls-1" d="M55.17,113.46a14.36,14.36,0,0,1-5.6-2.7,10.81,10.81,0,0,1-3.71-7.08c-.09-.93-.3-1.27-1.29-1.24-1.92.06-2.48-.57-2.48-2.52,0-1.55,0-3.09,0-4.75H38.52V91.49H42c-.25-1.14-.43-2.15-.73-3.13a1.13,1.13,0,0,0-.88-.52c-1.8,0-3.61,0-5.51,0V84.2h4.77a16.84,16.84,0,0,0-5-6.12,63.47,63.47,0,0,1-8.87-7.49,41.39,41.39,0,0,1-11-25.31c-.12-1.46-.15-2.93-.21-4.42h3.63c.12,2,.15,3.86.38,5.71A37.24,37.24,0,0,0,34.13,73.09c3.51,2.57,6.77,5.31,8.65,9.29a2.78,2.78,0,0,0,3.07,1.84c7.57-.08,15.14,0,22.71,0a1.48,1.48,0,0,0,1.58-1,21.89,21.89,0,0,1,7.66-9A37.9,37.9,0,0,0,92.23,56.72a37.51,37.51,0,0,0-.93-31.34A37.61,37.61,0,0,0,69.87,6,35.32,35.32,0,0,0,57.07,3.7H54.29L54,.09c.49,0,.89-.08,1.28-.09,15-.13,27.17,5.65,35.79,17.91a41.79,41.79,0,0,1-10,58.43,22.24,22.24,0,0,0-7,7.12l-.36.71h4.87v3.61h-6.4l-.77,3.69H75v3.64H71.36v4.37c0,2.57-.34,2.91-2.93,3-.18,0-.36,0-.61,0a26.57,26.57,0,0,1-.5,2.69,10.9,10.9,0,0,1-8.56,8.05,3,3,0,0,0-.49.2Zm-9.54-22H67.81l.53-3.56H45Zm3.89,11.09c-.24,3.82,3.17,7.23,7.2,7.23a7.15,7.15,0,0,0,7.22-7.23Zm-3.76-3.79H67.65v-3.6H54.21c-2.51,0-5,0-7.53,0-.31,0-.86.36-.88.59A29.51,29.51,0,0,0,45.76,98.74Z"/><path class="cls-1" d="M72.48,13.25a7.35,7.35,0,0,1,9.68,8.5,1.19,1.19,0,0,0,.32,1c5,3,6.45,6.94,4.39,12.45,2.82,1.36,4.59,3.56,4.61,6.78a7.11,7.11,0,0,1-4.37,6.77,28.75,28.75,0,0,1,.63,4.73,8.53,8.53,0,0,1-5,7.67c-.53.28-.85.45-.67,1.22a7.24,7.24,0,0,1-9,8.68l-.69-.18a7.6,7.6,0,0,1-3.71,3.52c-4.94,2.13-10.13-1.49-10.19-7.14,0-4.73,0-9.45,0-14.18q0-17.94,0-35.89A7.72,7.72,0,0,1,61,11.05,7.23,7.23,0,0,1,72,12.57C72.18,12.78,72.32,13,72.48,13.25ZM69.66,31.08c.75,0,1.52.05,2.28,0s1.28.11,1.43,1.12a5.32,5.32,0,0,0,5.48,4.36A5.45,5.45,0,0,0,80.51,26a2,2,0,0,0-1.4.19,7.53,7.53,0,0,1-4.06,1.23v-3.5c2.58-.67,3.74-2,3.61-4a3.62,3.62,0,0,0-3.26-3.36c-2-.24-3.31.89-4.16,3.57H67.81a6.78,6.78,0,0,1,1.16-4A1.54,1.54,0,0,0,69,14.79a3.36,3.36,0,0,0-3.43-1.95,3.31,3.31,0,0,0-3.1,2.29,6.59,6.59,0,0,0-.26,2.18q0,24.77,0,49.53a11.76,11.76,0,0,0,0,1.33,3.66,3.66,0,0,0,2.9,3.12A3.77,3.77,0,0,0,69,69.57,1.25,1.25,0,0,0,69,68,5.74,5.74,0,0,1,67.8,64.1h3.5c.6,2.51,2,3.72,4,3.56a3.63,3.63,0,0,0,3.37-3.25c.18-2-1-3.43-3.54-4.13V56.77a7.31,7.31,0,0,1,4,1.23,1.91,1.91,0,0,0,1.4.19,5.43,5.43,0,0,0,3.11-7.5,5.47,5.47,0,0,0-10.33,1.47c-.06.32-.35.83-.57.85-1,.09-2,0-3.09,0,0-.26,0-.41,0-.55A9.16,9.16,0,0,1,83.3,45.17a2.91,2.91,0,0,0,1.93.36,3.61,3.61,0,0,0,.11-6.88,2.52,2.52,0,0,0-1.76.15,9.68,9.68,0,0,1-6.37,1.3A9.06,9.06,0,0,1,69.66,31.08Z"/><path class="cls-1" d="M41,70.9a7.15,7.15,0,0,1-7.21-1.29,7,7,0,0,1-2.42-7.15c.12-.6.12-.9-.49-1.21a9,9,0,0,1-4.41-11.88,3.17,3.17,0,0,0,.14-.4c-6.26-3-6-10.95-.18-13.65a25.66,25.66,0,0,1-.7-4.33,8.65,8.65,0,0,1,5.08-8.06c.47-.24.76-.41.62-1.06a7.23,7.23,0,0,1,9.14-8.74c.13,0,.28.07.48.11a7.6,7.6,0,0,1,3.7-3.51c5-2.13,10.18,1.52,10.2,7.26,0,7.75,0,15.51,0,23.27q0,13.41,0,26.82c0,3.67-1.84,6.45-4.93,7.5a7.23,7.23,0,0,1-8.47-2.84Zm2.93-39.82a9,9,0,0,1-4.31,7.73,8.57,8.57,0,0,1-9.42.09,2.37,2.37,0,0,0-2.59,0,3.49,3.49,0,0,0-1.9,3.58,3.42,3.42,0,0,0,2.48,3.07,2.59,2.59,0,0,0,1.76-.17A9.14,9.14,0,0,1,38,44.52c3.43,1.19,6.12,5.08,5.79,8.49H40.33c-.07-.36-.14-.67-.2-1a5.47,5.47,0,1,0-7.37,6.13A1.61,1.61,0,0,0,34.49,58a6.3,6.3,0,0,1,3.93-1.19c0,.91,0,1.75,0,2.59s-.12,1-.9,1.18a3.53,3.53,0,0,0-2.74,3.78,3.62,3.62,0,0,0,3.28,3.33A3.58,3.58,0,0,0,41.92,65c.09-.3.17-.62.25-.92h3.44a5.33,5.33,0,0,1-1,3.78,1.4,1.4,0,0,0,0,1.88A3.62,3.62,0,0,0,49,71.05c1.69-.77,2.22-2.18,2.22-4q0-25,0-50c0-.33,0-.67,0-1a3.66,3.66,0,0,0-2.87-3.25,3.75,3.75,0,0,0-3.87,1.77,1.22,1.22,0,0,0,0,1.5,5.47,5.47,0,0,1,1.14,3.93H42.54a14.93,14.93,0,0,0-2-2.84A3.22,3.22,0,0,0,36.64,17a3.59,3.59,0,0,0-1.84,3.62,3.75,3.75,0,0,0,2.68,3.08c.33.11.87.34.88.55.1,1.05,0,2.11,0,3.57-1.52-.61-2.75-1.15-4-1.59A2.6,2.6,0,0,0,32.8,26a5.17,5.17,0,0,0-3.49,4.69,5.19,5.19,0,0,0,2.7,5.1,5.44,5.44,0,0,0,8.13-3.75c.08-.45,0-1,.74-1C41.83,31.11,42.79,31.08,43.89,31.08Z"/><path class="cls-1" d="M11,11c0-1.08.67-1.69,2-1.91a11.07,11.07,0,0,0,2.87-.71A7,7,0,0,0,20,2.74c.05-.37.08-.74.14-1.1A1.82,1.82,0,0,1,22,0a1.73,1.73,0,0,1,1.76,1.53c.09.54.13,1.1.22,1.64A7.37,7.37,0,0,0,30.2,9.05l.55,0c1.41.15,2.18.83,2.16,1.9s-.79,1.72-2.21,1.85a7.19,7.19,0,0,0-6.84,6.62,8.49,8.49,0,0,1-.14.88A1.74,1.74,0,0,1,21.9,21.9a1.71,1.71,0,0,1-1.74-1.67,8.31,8.31,0,0,0-1.49-4.44,7.24,7.24,0,0,0-5.46-3C11.74,12.72,11,12.1,11,11ZM22,13.4,24.37,11l-2.32-2.6-2.61,2.48Z"/><path class="cls-1" d="M21.92,29.39A1.71,1.71,0,0,1,20.41,31c-.69.12-1.4.15-2.07.33a7.25,7.25,0,0,0-5.5,6.59,6.29,6.29,0,0,1-.13.87A1.68,1.68,0,0,1,11,40.21a1.69,1.69,0,0,1-1.74-1.42,16.37,16.37,0,0,0-.76-3.32,6.92,6.92,0,0,0-6-4.3C.76,31,0,30.36,0,29.23s.74-1.63,2.45-1.85a7.22,7.22,0,0,0,6.63-6.85c.1-1,.32-1.85,1.41-2.14,1.26-.35,2.22.48,2.33,2.06a7.36,7.36,0,0,0,3,5.56,8,8,0,0,0,4.23,1.44A1.82,1.82,0,0,1,21.92,29.39ZM8.51,29.25,11,31.73l2.41-2.38L11.06,26.8Z"/></g></g></svg>