<svg xmlns="http://www.w3.org/2000/svg" viewBox="0 0 111.42 111.45"><defs><style>.cls-1{fill:#1dd3f8;}</style></defs><title>results</title><g id="Layer_2" data-name="Layer 2"><g id="Layer_1-2" data-name="Layer 1"><path class="cls-1" d="M23.71,111.45c-1.79-.59-3.53-1.32-4.39-3.1a8.93,8.93,0,0,1-1-3.6c-.1-6,0-12,0-18.06,0-1.85,1.29-2.92,2.84-2.44,1,.29,1.5,1.14,1.51,2.5v17.41c0,2.21.73,2.94,2.94,2.94h78.57c2.21,0,2.93-.73,2.93-2.94v-80h-1.24c-3.84,0-7.69,0-11.53,0-4.28,0-7-2.73-7-7s0-8.41,0-12.8H25.59c-2.27,0-3,.72-3,3V9.32c1.38-.16,2.69-.33,4-.47.54-.06,1.08-.09,1.62-.11,1.76,0,2.65.79,2.66,2.55,0,3.3,0,6.6,0,9.9V36.75c0,2.15-.73,2.89-2.86,2.89H2.9c-2.2,0-3-.77-2.89-3,.7-11.85,6.45-20.34,17.13-25.47.83-.41,1.24-.79,1.15-1.75a22.1,22.1,0,0,1,0-2.82A6.52,6.52,0,0,1,24.91,0c2.83,0,5.66,0,8.49,0Q60.94,0,88.46,0a4.16,4.16,0,0,1,3.19,1.3q9.19,9.27,18.45,18.48c.48.49.88,1,1.32,1.57V106c-.22.57-.41,1.15-.67,1.7a7.08,7.08,0,0,1-4.77,3.74ZM4.53,35.21H26.46V13.27A24.18,24.18,0,0,0,4.53,35.21Zm98.86-15.39L91.61,8c0,3,0,6.19,0,9.41a2.15,2.15,0,0,0,2.19,2.35C97.09,19.85,100.38,19.82,103.39,19.82Z"/><path class="cls-1" d="M34.36,43.1V25c0-2,0-4,0-6a2.22,2.22,0,0,1,2.52-2.44A28.72,28.72,0,1,1,7.82,46c-.06-2.1.7-2.87,2.85-2.87H34.36ZM12.29,47.45A24.35,24.35,0,0,0,58.07,56.7c5.21-10,2.61-20.93-2.9-27-.28.27-.57.53-.84.81q-7.84,7.85-15.68,15.7a3.91,3.91,0,0,1-3,1.23c-7.36,0-14.72,0-22.08,0Zm26.48-7.94L51.92,26.37A24.05,24.05,0,0,0,38.77,21Z"/><path class="cls-1" d="M56.88,73.1a6.45,6.45,0,0,1,6.15,8,1.37,1.37,0,0,0,.43,1.5q3.54,3.48,7,7A1.24,1.24,0,0,0,72,90a5.53,5.53,0,0,1,4,0,1.06,1.06,0,0,0,1.32-.29Q83,84,88.71,78.39A1.23,1.23,0,0,0,89.07,77a6.5,6.5,0,1,1,12.55-3.38A6.37,6.37,0,0,1,97,81.48a10.36,10.36,0,0,1-3.83-.18c-.61-.1-1-.21-1.5.29q-5.58,5.66-11.23,11.23a1.18,1.18,0,0,0-.32,1.42,6.42,6.42,0,0,1-2.44,7.29,6.52,6.52,0,0,1-7.54-.07,6.41,6.41,0,0,1-2.36-7.23,1.25,1.25,0,0,0-.33-1.52Q64,89.32,60.57,85.87a1,1,0,0,0-1.41-.3,5.59,5.59,0,0,1-4.53.14,1.16,1.16,0,0,0-1.42.34c-2.24,2.28-4.49,4.54-6.78,6.77a1.1,1.1,0,0,0-.29,1.32,6.42,6.42,0,0,1-2.69,7.58,6.51,6.51,0,0,1-9-9,6.43,6.43,0,0,1,7.58-2.68,1.11,1.11,0,0,0,1.33-.33q3.35-3.4,6.77-6.77a1.28,1.28,0,0,0,.36-1.51A6.46,6.46,0,0,1,56.88,73.1Zm19.2,23.13A2.21,2.21,0,0,0,74,94a2.16,2.16,0,0,0-.07,4.32A2.24,2.24,0,0,0,76.08,96.23Zm-36-2.18a2.2,2.2,0,0,0-2.19,2.11A2.23,2.23,0,0,0,40,98.37a2.26,2.26,0,0,0,2.2-2.13A2.22,2.22,0,0,0,40.05,94.05ZM95.33,77.37a2.18,2.18,0,0,0,2.15-2.14,2.14,2.14,0,0,0-2.16-2.12,2.13,2.13,0,1,0,0,4.26ZM58.89,79.56a2.16,2.16,0,0,0-2.19-2.1,2.14,2.14,0,1,0,.06,4.27A2.18,2.18,0,0,0,58.89,79.56Z"/><path class="cls-1" d="M86.29,30.27h12.5a5,5,0,0,1,1.5.18,2.12,2.12,0,0,1,0,4,3.25,3.25,0,0,1-1.07.18H73.34A2.3,2.3,0,0,1,71,33.24a2.17,2.17,0,0,1,2.16-3c1.52,0,3,0,4.57,0Z"/><path class="cls-1" d="M86.29,45.07H73.35c-1.56,0-2.58-.92-2.54-2.22a2.21,2.21,0,0,1,2.42-2.12c1.85,0,3.69,0,5.54,0H99c1.47,0,2.37.57,2.61,1.63.37,1.55-.68,2.71-2.49,2.72Z"/><path class="cls-1" d="M78.66,51.16c1.81,0,3.62,0,5.42,0a2.25,2.25,0,0,1,2.52,2.12c0,1.31-1,2.21-2.53,2.22q-5.37,0-10.74,0a2.24,2.24,0,0,1-2.52-2.12c0-1.3,1-2.2,2.53-2.22C75.11,51.15,76.89,51.16,78.66,51.16Z"/><path class="cls-1" d="M94.32,51.18a2.16,2.16,0,0,1,.07,4.32,2.16,2.16,0,0,1-.07-4.32Z"/><path class="cls-1" d="M22.6,78.41a2.16,2.16,0,1,1-2.12-2.2A2.24,2.24,0,0,1,22.6,78.41Z"/></g></g></svg>