<svg xmlns="http://www.w3.org/2000/svg" viewBox="0 0 88.24 94.27"><defs><style>.cls-1{fill:#1dd3f8;}</style></defs><title>services</title><g id="Layer_2" data-name="Layer 2"><g id="Layer_1-2" data-name="Layer 1"><path class="cls-1" d="M22.85,84.79c.76,2.48,1.49,4.84,2.21,7.21.46,1.56-.07,2.27-1.69,2.27H6C4.55,94.27,4.15,94,4,92.49q-1.15-9.4-2.29-18.81Q.9,67.25.11,60.83A11.75,11.75,0,0,1,0,59.51,1.39,1.39,0,0,1,1.41,58c4.08,0,8.16,0,12.24,0,.85,0,1.23.61,1.45,1.35l1.33,4.41A35.14,35.14,0,0,0,20,61.14a18.87,18.87,0,0,1,9.39-5A17.72,17.72,0,0,1,41,57.65a18.33,18.33,0,0,0,7,1.59A17.94,17.94,0,0,0,59.56,56.3c3-2,6.17-1.76,9.22.17a1.16,1.16,0,0,0,1,.06,6.24,6.24,0,0,1,7.38,1,1.13,1.13,0,0,0,1.41.19,7.49,7.49,0,0,1,9.22,2.59c.73,1.07.63,1.79-.42,2.51-8.62,5.93-17.2,11.92-25.9,17.74a15.06,15.06,0,0,1-9.86,2.31c-3.34-.3-6.65-1-10-1.53-2.91-.5-5.8-1.13-8.73-1.55a4.32,4.32,0,0,0-2.63.42C27.77,81.61,25.36,83.21,22.85,84.79ZM84.71,61.15a4.61,4.61,0,0,0-5.51-.6Q72.76,64,66.37,67.47a1.27,1.27,0,0,0-.6.59c-.47,1.42-.61,1.55-2.07,1.51-.61,0-1.22-.07-1.83-.09-4.55-.16-9.1-.63-13.64,0a1.42,1.42,0,0,1-1.75-1.27,1.34,1.34,0,0,1,1.39-1.54c3.18-.14,6.37-.22,9.56-.29,1.72,0,3.44,0,5.14,0a5.83,5.83,0,0,0-5.65-4.37c-2.52,0-5-.11-7.55,0A22.77,22.77,0,0,1,39,60c-5.84-2.55-11.37-1.62-16.24,2.56-1.71,1.46-3.34,3-5.6,3.69C18.79,71.48,20.37,76.66,22,82c2.13-1.33,4.15-2.57,6.13-3.87A7.72,7.72,0,0,1,34.05,77c5.24,1,10.47,2,15.74,2.85a15.13,15.13,0,0,0,11.35-2.5c4.64-3.26,9.35-6.43,14-9.64Zm-78,30.17H21.88c-3.06-10-6.1-19.95-9.11-29.89-.17-.56-.46-.63-.95-.63-2.72,0-5.44,0-8.16,0a5.22,5.22,0,0,0-.65.1C4.25,71.07,5.48,81.18,6.72,91.32ZM65.2,64.85l9.87-5.34a3.42,3.42,0,0,0-3.94-.45c-1.4.78-2.81,1.52-4.21,2.28l-2.83,1.53Zm-5.61-5.32c.74.39,1.38.75,2,1.07a.75.75,0,0,0,.55,0c1.33-.7,2.65-1.42,4.13-2.22C63.71,57.24,61.67,58.18,59.59,59.53Z"/><path class="cls-1" d="M63.83,10.28a14,14,0,0,1-.76,1.26c-.67.86-1.77,1.62-1.94,2.55S62,16,62.18,17c.31,1.58,1.23,1.94,2.68,2,3.12.19,3.12.26,3.12,3.44,0,1.46,0,2.92,0,4.38,0,1.18-.46,1.65-1.63,1.77S64,28.48,63.16,29s-.78,1.88-1.36,2.71c-.93,1.36-.53,2.28.47,3.39,2,2.28,2,2.34-.19,4.5C61,40.67,60,41.74,58.9,42.78a1.5,1.5,0,0,1-2.4.11c-.87-.7-1.66-1.83-2.63-2S52,41.77,50.92,42c-1.59.3-1.85,1.27-1.92,2.64-.17,3.15-.22,3.15-3.33,3.15H41.18c-1.19,0-1.66-.45-1.78-1.62-.1-1-.15-2-.32-2.93a1.38,1.38,0,0,0-.68-.82c-1.1-.53-2.23-1-3.37-1.43a1.26,1.26,0,0,0-1,.14c-.83.59-1.58,1.28-2.38,1.92a1.4,1.4,0,0,1-2.09-.09q-2.25-2.22-4.47-4.47A1.44,1.44,0,0,1,25,36.28c.59-.71,1.15-1.44,1.77-2.11A1.08,1.08,0,0,0,27,32.74a21.48,21.48,0,0,1-1.3-3.09,1,1,0,0,0-1.08-.84c-.92-.06-1.83-.15-2.74-.24-1.12-.11-1.58-.59-1.59-1.71,0-2,0-4.08,0-6.12a1.47,1.47,0,0,1,1.44-1.64c1-.11,2-.16,3-.33a1.36,1.36,0,0,0,.84-.62c.55-1.13,1-2.29,1.47-3.46a1.15,1.15,0,0,0-.11-1c-.55-.77-1.19-1.48-1.79-2.22-.82-1-.81-1.57.08-2.47q2-2.07,4.11-4.11c.92-.92,1.53-.93,2.56-.09.71.58,1.39,1.22,2.14,1.74a1.3,1.3,0,0,0,1,.11,34.24,34.24,0,0,0,3.37-1.41,1.29,1.29,0,0,0,.66-.84c.17-.93.22-1.88.32-2.83C39.51.46,40,0,41.07,0h6.12c1.1,0,1.52.38,1.67,1.49s.17,2,.34,2.94a1.33,1.33,0,0,0,.65.82c1.1.53,2.22,1,3.36,1.43a1.32,1.32,0,0,0,1-.11c.83-.59,1.59-1.28,2.38-1.92a1.45,1.45,0,0,1,2.17.12c1.44,1.45,2.88,2.89,4.29,4.36A7,7,0,0,1,63.83,10.28ZM46.11,44.89c.13-1.19.25-2.3.35-3.4a1.75,1.75,0,0,1,1.37-1.55,54.32,54.32,0,0,0,5-2.13,1.8,1.8,0,0,1,2.23.2c.79.69,1.62,1.34,2.43,2l2.76-2.85c-.6-.74-1.21-1.55-1.9-2.3a1.91,1.91,0,0,1-.18-2.48,37.43,37.43,0,0,0,2-4.76,1.89,1.89,0,0,1,1.87-1.52c1-.05,2-.2,3-.3v-4c-1.15-.12-2.22-.26-3.31-.35-.87-.07-1.25-.57-1.54-1.36-.64-1.71-1.34-3.4-2.13-5a1.79,1.79,0,0,1,.2-2.23c.69-.79,1.34-1.61,1.93-2.33L57.45,7.69c-.79.65-1.61,1.31-2.41,2a1.73,1.73,0,0,1-2.14.18c-1.64-.79-3.33-1.48-5-2.11a1.78,1.78,0,0,1-1.41-1.63c-.09-1.07-.22-2.14-.33-3.19h-4c-.1,1-.23,2-.28,3A1.86,1.86,0,0,1,40.4,7.73c-1.71.62-3.39,1.34-5,2.12a1.7,1.7,0,0,1-2.13-.18c-.82-.7-1.66-1.37-2.38-1.95l-2.91,2.72c.68.83,1.34,1.65,2,2.44a1.82,1.82,0,0,1,.16,2.24A49.72,49.72,0,0,0,28,20.06a1.82,1.82,0,0,1-1.71,1.45c-1.06.08-2.13.22-3.16.33v4c1.11.11,2.15.22,3.2.3A1.77,1.77,0,0,1,28,27.51a54.24,54.24,0,0,0,2.12,5A1.8,1.8,0,0,1,30,34.78c-.69.8-1.34,1.62-2,2.41L30.78,40c.75-.62,1.55-1.24,2.3-1.92a1.9,1.9,0,0,1,2.41-.21,36.9,36.9,0,0,0,4.85,2.05,1.9,1.9,0,0,1,1.52,1.87c.06,1,.18,2,.29,3.1h4Z"/><path class="cls-1" d="M9.82,87.09a3.87,3.87,0,1,1,7.74,0,3.87,3.87,0,0,1-7.74,0Zm5.3,0c-.63-.48-.95-.9-1.35-1a.8.8,0,0,0-1,.91,1.56,1.56,0,0,0,1,1C14,88.08,14.46,87.57,15.12,87.12Z"/><path class="cls-1" d="M43.85,38.08A14.26,14.26,0,1,1,58.38,24.49,14.3,14.3,0,0,1,43.85,38.08Zm.33-25.64A11.39,11.39,0,1,0,55.53,23.79,11.44,11.44,0,0,0,44.18,12.44Z"/><path class="cls-1" d="M42.93,25.39c1.75-1.9,3.47-3.82,5.27-5.66a2.11,2.11,0,0,1,1.5-.58,1.47,1.47,0,0,1,1,.92,2.05,2.05,0,0,1-.45,1.53c-1.45,1.53-3,3-4.49,4.43-.71.69-1.39,1.4-2.12,2.06a1.39,1.39,0,0,1-2.16,0q-1.84-1.74-3.63-3.56a1.38,1.38,0,0,1-.1-2.07,1.37,1.37,0,0,1,2.07.07c.86.86,1.64,1.81,2.45,2.72Z"/></g></g></svg>