<svg xmlns="http://www.w3.org/2000/svg" viewBox="0 0 100.81 104.45"><defs><style>.cls-1{fill:#1dd3f8;}</style></defs><title>solutions</title><g id="Layer_2" data-name="Layer 2"><g id="Layer_1-2" data-name="Layer 1"><path class="cls-1" d="M31.22,104.45c-1.19-1.21-1.2-1.74-.07-3.09,3.14-3.76,6.26-7.53,9.44-11.25a3.09,3.09,0,0,1,1.75-1c5-.67,10.11-1.25,15.18-1.85a1.53,1.53,0,1,1,.35,3c-3.06.41-6.13.76-9.2,1.13-1.76.21-3.52.38-5.26.65a2,2,0,0,0-1,.69c-2.83,3.35-5.63,6.72-8.45,10.08-.47.57-1,1.1-1.49,1.64Z"/><path class="cls-1" d="M46.11,47l-.87-14.78c-1.85.08-3.57-.05-4.78-1.59a4.34,4.34,0,0,1-.93-3,4.24,4.24,0,0,1,4.07-4.06c2.61-.15,4,1.46,4.62,5.58h4.57c0-.51,0-1,.07-1.5a4.28,4.28,0,1,1,4.28,4.61c-.44,0-.88,0-1.46,0-.29,5-.58,9.84-.87,14.72L55,47a1.64,1.64,0,0,0,.12-.51,5.86,5.86,0,0,1,1.33-4.24c2.83-4.32,5.69-8.62,8.37-13,3.66-6,3.73-12.26-.06-18.2S55.41,2.45,48.42,3.23c-7.75.86-12.8,5.46-14.58,13-.3,1.26-1,1.81-2,1.58s-1.32-1-1.06-2.27A19.25,19.25,0,0,1,47.35.21,20.09,20.09,0,0,1,70.09,15.8a19.4,19.4,0,0,1-2.65,15.05c-2.86,4.55-5.8,9-8.67,13.57a5,5,0,0,0-.53,1.69,64,64,0,0,0-.72,9.06A4.25,4.25,0,0,1,53.2,58.9c-1.84.06-3.68.07-5.51,0a4.46,4.46,0,0,1-4.43-4.63c0-.92,0-1.84,0-2.76a6.36,6.36,0,0,0-.48-3.36,1.53,1.53,0,0,1-.12-.9,5.52,5.52,0,0,0-1.21-4c-2.69-4.09-5.31-8.22-8-12.34a20.08,20.08,0,0,1-2.84-7.15,4,4,0,0,1-.09-.91,1.5,1.5,0,0,1,2.92-.48c.16.51.17,1.08.37,1.58a36.12,36.12,0,0,0,2.27,5.3c2.78,4.55,5.71,9,8.64,13.47a4.9,4.9,0,0,1,.95,3.33,5.93,5.93,0,0,0,.05.94Zm3.08,0h2.54c.28-5,.57-9.84.86-14.74H48.32Zm-2.85,3.19c0,1.47-.09,2.89,0,4.29a1.73,1.73,0,0,0,1.09,1.22,51.87,51.87,0,0,0,6,0,1.51,1.51,0,0,0,1-1.06c.12-1.47,0-2.95,0-4.44ZM45.08,29.15c0-.57-.08-1-.13-1.44a1.1,1.1,0,0,0-1.25-1.07,1.06,1.06,0,0,0-1.09,1.11,1.16,1.16,0,0,0,1,1.39A9.82,9.82,0,0,0,45.08,29.15Zm10.89,0c1.72.12,2.36-.23,2.37-1.23a1.22,1.22,0,0,0-1.29-1.26C56.14,26.69,55.82,27.41,56,29.12Z"/><path class="cls-1" d="M80.05,55c3.44-3.23,8.68-2.25,10.3,2.75l.81-.61a5.94,5.94,0,0,1,8.25.77,5.83,5.83,0,0,1-.66,8.24c-3.27,2.86-6.62,5.64-9.94,8.45C85,77.86,81.1,81,77.39,84.34a20.11,20.11,0,0,1-12.77,5.12,1.55,1.55,0,0,1-1.76-1.32,1.47,1.47,0,0,1,1.28-1.68c1.21-.21,2.43-.32,3.63-.52a13.2,13.2,0,0,0,6.48-3q11.15-9.4,22.26-18.85a2.82,2.82,0,0,0,.55-4.14,2.87,2.87,0,0,0-4.25-.14Q86,65.51,79.28,71.27A7.07,7.07,0,0,1,74.42,73c-3.81,0-7.61,0-11.42,0a2.41,2.41,0,0,0-1.4.56,6.84,6.84,0,0,1-4.49,1.94c-4.69,0-9.38,0-14.07,0A1.47,1.47,0,0,1,41.38,74c0-1,.62-1.53,1.78-1.53,4.32,0,8.63,0,13,0a6.41,6.41,0,0,0,1.81-.2,3.9,3.9,0,0,0-1.17-7.61c-5.92,0-11.84,0-17.75,0-3.2,0-6.41-.15-9.5.85-1.26.4-2.49.91-3.71,1.41s-1.94.27-2.36-.6,0-1.65,1.05-2.18a23.76,23.76,0,0,1,10.31-2.52c7.34,0,14.69-.11,22,.06a4.87,4.87,0,0,0,3.63-1.39c2.95-2.56,6.11-4.91,8.9-7.63C73.18,48.94,78.53,50.2,80.05,55ZM67.3,69.89c2.89,0,5.48,0,8.08,0a2.65,2.65,0,0,0,1.47-.62q4.8-4,9.52-8.13a2.7,2.7,0,0,0,.55-3.52C86,56,84,55.76,82.37,57.12Q76.15,62.39,70,67.66Zm-3.61-1.13c.19-.06.27-.06.31-.1q6.07-5.13,12.13-10.28a2.68,2.68,0,0,0,.69-3.08,2.51,2.51,0,0,0-2.51-1.73,4.06,4.06,0,0,0-2.19.88c-3.39,2.78-6.71,5.63-10.05,8.47a6.13,6.13,0,0,0-.55.58A7.23,7.23,0,0,1,63.69,68.76Z"/><path class="cls-1" d="M21.17,69.37a7.54,7.54,0,0,1-.91,1.37A27.42,27.42,0,0,0,15.13,78a31.53,31.53,0,0,1-3.22,4.55c-2.84,3.64-5.73,7.25-8.6,10.87-.17.21-.33.43-.51.63a1.58,1.58,0,0,1-2.18.35,1.5,1.5,0,0,1-.21-2.25c1.31-1.7,2.65-3.36,4-5,2.4-3,4.82-6.06,7.2-9.12a9.61,9.61,0,0,0,1.07-1.84,25.88,25.88,0,0,1,5.55-7.73,1.45,1.45,0,0,1,1.84-.38A6,6,0,0,1,21.17,69.37Z"/><path class="cls-1" d="M25,13.9c-1.71-.7-3.21-1.21-4.6-2-.34-.18-.47-1.15-.36-1.68a1.2,1.2,0,0,1,1.6-.87,22.53,22.53,0,0,1,3.87,1.47,1.84,1.84,0,0,1,.69,1.58C26.08,13,25.43,13.39,25,13.9Z"/><path class="cls-1" d="M21.18,34.44c-.44-.47-1.11-.87-1.22-1.39a1.83,1.83,0,0,1,.63-1.6A24.34,24.34,0,0,1,24.48,30a1.35,1.35,0,0,1,1.66.85,1.26,1.26,0,0,1-.41,1.73C24.35,33.24,22.87,33.75,21.18,34.44Z"/><path class="cls-1" d="M81,32.38c0,1.3-.9,2.07-1.85,1.78a38.67,38.67,0,0,1-3.72-1.38A1.38,1.38,0,0,1,74.7,31a1.29,1.29,0,0,1,1.63-1,29.93,29.93,0,0,1,4,1.47C80.71,31.61,80.9,32.19,81,32.38Z"/><path class="cls-1" d="M81,11.22c-.2.23-.5.81-1,1a29.2,29.2,0,0,1-3.41,1.3,1.51,1.51,0,0,1-1.93-.87,1.48,1.48,0,0,1,.83-1.95,37.22,37.22,0,0,1,3.52-1.31C80.11,9.1,81,9.83,81,11.22Z"/><path class="cls-1" d="M20.51,23.29c-.61,0-1.22,0-1.83,0A1.41,1.41,0,0,1,17.2,21.9a1.34,1.34,0,0,1,1.24-1.59,26.26,26.26,0,0,1,4.16,0,1.35,1.35,0,0,1,1.24,1.59,1.42,1.42,0,0,1-1.49,1.38C21.74,23.31,21.13,23.29,20.51,23.29Z"/><path class="cls-1" d="M80.29,23.28c-.61,0-1.22,0-1.83,0a1.36,1.36,0,0,1-1.38-1.35,1.33,1.33,0,0,1,1.2-1.61,27.51,27.51,0,0,1,4.16,0,1.34,1.34,0,0,1,1.24,1.58,1.39,1.39,0,0,1-1.45,1.4c-.65,0-1.29,0-1.94,0Z"/></g></g></svg>