<svg xmlns="http://www.w3.org/2000/svg" viewBox="0 0 244.21 243.74"><defs><style>.cls-1{fill:#4cc2fc;}</style></defs><title>banking</title><g id="Layer_2" data-name="Layer 2"><g id="Layer_1-2" data-name="Layer 1"><path class="cls-1" d="M220.77,190c6.54.84,6.54.84,6.55,7.45,0,3.17,0,6.33,0,9.5a4.1,4.1,0,0,0,.26.82h11.59c3.79,0,4.95,1.13,5,4.84q0,13.1,0,26.18c0,3.7-1.24,4.93-4.94,4.93H5c-3.7,0-4.91-1.24-4.92-5q0-13.08,0-26.17c0-3.7,1.17-4.81,5-4.83H16.88V197.46c0-6.56,0-6.56,6.56-7.45V116c-.16-.1-.31-.27-.45-.26-6.35.16-6.23-2.11-6.13-6.82.08-3.49,0-7,0-10.81-4.1,0-8,0-11.91,0S0,97,0,93.29c0-4.79,0-9.58,0-14.37,0-3.59,1.21-4.79,4.75-4.86,1.45,0,2.89,0,4.51,0V64.72c-1.87,0-3.65,0-5.42,0-2.38,0-3.74-1.37-3.79-3.64C0,56,0,50.82,0,45.69c0-2.38,1.66-3.32,3.66-4q25.71-9.13,51.39-18.32C76.57,15.67,98,8,119.55.42a8.26,8.26,0,0,1,5.11,0q58,20.54,115.86,41.24c2.67.95,3.77,2.55,3.69,5.35-.13,4.28,0,8.55,0,12.83,0,3.75-1.17,4.89-4.89,4.91H235v9.33c1.55,0,3.14,0,4.72,0,3.11.09,4.44,1.34,4.48,4.36q.08,7.69,0,15.4c0,3.06-1.33,4.29-4.44,4.31-4,0-8,0-12.4,0v10.32c0,6.61,0,6.61-6.55,7.45Zm-37.21,0v-74.1c-6.55-.84-6.55-.84-6.55-7.45V98.28H67.18v9.55c0,6.94,0,6.94-6.6,8.16v74.08c.53.07.94.16,1.35.18,4.56.22,5.25.94,5.25,5.54,0,3.91,0,7.82,0,11.82H177V197.46C177,190.89,177,190.89,183.56,190ZM237,57.42c0-2.44-.15-4.58,0-6.69s-.59-2.93-2.55-3.63Q179.34,27.51,124.22,7.83a7.1,7.1,0,0,0-4.37.06q-30.91,10.91-61.77,22Q33.72,38.58,9.36,47.32c-.79.28-2,1-2,1.51-.21,2.85-.1,5.72-.1,8.59Zm-.15,157.7H7.4v21.24H236.84ZM7.21,90.8H236.84V81.4H7.21v9.4ZM227.39,65H16.89v8.83h210.5ZM53.06,190.13V115.87H31v74.26ZM213.27,115.9H191.05V190h22.22ZM24.21,108.31h35.6v-10H24.21Zm195.8-10H184.32v10H220ZM24.24,197.51v10.08H59.79V197.51Zm160.08,10.08h35.6v-10h-35.6Z"/><path class="cls-1" d="M159.71,152.92A37.62,37.62,0,1,1,122,115.33,37.52,37.52,0,0,1,159.71,152.92Zm-68.05-.17a30.43,30.43,0,1,0,30.47-30.23A30.36,30.36,0,0,0,91.66,152.75Z"/><path class="cls-1" d="M125,174.06l-.22,2.92h-5l-.29-3.58c-4.89-.9-9.47-2.61-13.35-6.36l3.82-4.74,9.65,5.14c0-4.15.06-7.52-.06-10.89,0-.5-.82-1.14-1.4-1.42-1.08-.5-2.28-.73-3.38-1.18-4-1.64-6.83-4.16-7.06-8.83a11.1,11.1,0,0,1,6.12-11,42.6,42.6,0,0,1,5.66-2.16l.24-3h5l.24,2.62,12.55,5.55-4.1,5.62-8.5-4.41c0,4-.07,7.21.07,10.41,0,.46.93,1,1.53,1.28,1.74.69,3.59,1.13,5.3,1.89,3.6,1.59,6,4.16,6.27,8.31.31,4.55-1.12,8.39-5.13,10.7C130.56,172.32,127.77,173,125,174.06Zm.08-6.94c4-.73,5.89-2.49,5.79-5.26-.09-2.48-2.24-4.18-6-4.55,0,2.64,0,5.26,0,7.88C124.88,165.77,125,166.35,125.05,167.12Zm-5.58-28.4c-3.14,1.09-4.86,3.18-4.48,5.42.42,2.4,2.16,3.38,4.48,3.85Z"/></g></g></svg>