<svg xmlns="http://www.w3.org/2000/svg" viewBox="0 0 178.35 175.49"><defs><style>.cls-1{fill:#4cc2fc;}</style></defs><title>healthcare_1</title><g id="Layer_2" data-name="Layer 2"><g id="Layer_1-2" data-name="Layer 1"><path class="cls-1" d="M178.35,34.13c-.41,1.81-.73,3.63-1.24,5.41a29.8,29.8,0,0,1-9.82,15.07,2.13,2.13,0,0,0-.75,2.76c6,18.55,3,35.42-10,50.13-5.11,5.78-10.75,11.09-16.14,16.61l-14.61,15c-.35.37-.67.76-1.28,1.46,3.79-.73,7.19-1.38,10.57-2.05s6.91-1.61,10.4-2a16.11,16.11,0,0,1,6.17.55c5.44,1.56,8.05,6.92,6.2,12.28a12.89,12.89,0,0,1-8.67,8.17c-7.36,2.45-14.77,4.78-22.17,7.14q-14.73,4.71-29.49,9.36c-7.2,2.26-14.37,1.9-21.59-.13-15.13-4.23-30.3-8.3-45.45-12.43a8.11,8.11,0,0,0-.82-.12c-1.31,3.28-2.1,3.82-5.57,3.82H4.77c-3.4,0-4.77-1.37-4.77-4.73V116.46c0-3.29,1.35-4.65,4.65-4.66h20c2.94,0,4.05.85,4.92,3.89l11.24-1.83c-1.8-1.84-3.38-3.47-5-5.09A45.24,45.24,0,0,1,26,94.16a50.1,50.1,0,0,1,.22-40.57c.2-.48.44-1,.67-1.42,1-1.94,2.36-2.59,3.87-1.82s1.63,2.13.89,4.08c-1.26,3.29-2.76,6.56-3.45,10C25,79.84,28.57,93.51,39.53,105c2.16,2.28,4.4,4.47,6.56,6.74a2.31,2.31,0,0,0,2.39.84c6.68-1.22,13.38-2.27,20.05-3.49a55.33,55.33,0,0,1,21.94.7c2.83.62,5.71,1,8.55,1.62a15.61,15.61,0,0,1,8.62,4.9c6,6.76,2.92,16.4-6,18a34.69,34.69,0,0,1-9,0c-4.15-.35-8.29-1-12.43-1.54-2.61-.35-4.14.59-4.52,2.85-.33,2,1,3.6,3.41,4,8.22,1.45,16.41,3.22,24.69,4.15,3.67.41,7.53-.9,11.3-1.5.43-.07.81-.63,1.17-1q18-18.42,36-36.87c12.27-12.61,14.64-31.61,9.09-45.8-9,4.19-18.11,4.6-27.16.32s-14.63-11.51-17.16-21.31A42.11,42.11,0,0,0,103.65,46c-1.17,1-2.27,2.17-3.39,3.26-4,3.92-5.25,3.92-9.2,0C90,48.2,88.92,47.13,87.8,46.12,80.45,39.49,72,35.43,62,35A29.23,29.23,0,0,0,39.36,43.5c-.33.32-.64.68-1,1a2.58,2.58,0,0,1-3.67-3.63,35.68,35.68,0,0,1,4.37-4c11.4-8.41,23.76-8.95,36.67-4.26A47.36,47.36,0,0,1,93.09,43.94a29.94,29.94,0,0,1,2,2.47c3.73-3.07,6.93-6,10.48-8.52a70,70,0,0,1,9.32-5c1-.49,1.49-.89,1.48-2.11A29.88,29.88,0,0,1,119.26,18c.95-2,2.26-2.7,3.78-2s1.86,2.14,1,4.15c-6.8,15.47,1.83,32.53,18.24,36.05A25.73,25.73,0,1,0,132,10.29a4.42,4.42,0,0,1-2.79,1,2.87,2.87,0,0,1-2-1.85,3.39,3.39,0,0,1,1-2.7A27.77,27.77,0,0,1,139.3,1.08,31,31,0,0,1,178,26.55c.07.44.22.87.33,1.31ZM79,113.29c-3.35.32-5.62.4-7.85.77-13.32,2.2-26.63,4.5-40,6.67-1.5.25-1.84.75-1.84,2.18q.09,15.5,0,31c0,1.31.3,1.87,1.67,2.24,15.28,4.1,30.56,8.16,45.77,12.5A35,35,0,0,0,98,168.39c9.4-3.1,18.87-6,28.3-9,7-2.24,14-4.48,21-6.77,2.64-.87,4.78-2.38,5.66-5.19.77-2.47-.24-4.67-2.72-5.35a10.68,10.68,0,0,0-4.62-.35c-10.47,2-20.9,4.19-31.38,6.15-3.68.69-7.53,1.63-11.15,1.19-8.73-1.08-17.39-2.8-26-4.49a8.64,8.64,0,0,1,3.07-17c5.07.58,10.11,1.39,15.2,1.81a17.93,17.93,0,0,0,6.81-.63,4.79,4.79,0,0,0,2.49-7.51,11.61,11.61,0,0,0-4.38-3.76,25.39,25.39,0,0,0-6.36-1.62C88.62,114.87,83.3,114,79,113.29Zm-55,46.5V117.12H5.34v42.67Z"/><path class="cls-1" d="M112,91.74c2.15-3.61,4.25-7,6.22-10.48A4,4,0,0,1,122.1,79c6.62.09,13.24,0,19.85,0,2.22,0,3.38.9,3.38,2.59s-1.16,2.62-3.36,2.63c-5.86,0-11.73,0-17.59,0a2.8,2.8,0,0,0-2.87,1.58c-2.25,4-4.64,7.9-7,11.83-1.66,2.76-3.83,2.73-5.38-.08q-6-10.91-12-21.81c-.33-.6-.69-1.19-1.16-2L92.5,79.89c-2,3.57-4.08,7.15-6.14,10.71-1.54,2.66-3.64,2.68-5.31.06-1.89-3-3.75-5.94-5.8-9.18-1.48,2.45-2.89,4.62-4.14,6.89a3.94,3.94,0,0,1-4,2.21c-4.81-.09-9.63,0-14.45,0-2.17,0-3.33-1-3.3-2.69s1.15-2.53,3.27-2.53c4.29,0,8.59,0,12.88,0a2.7,2.7,0,0,0,1.87-1.06c1.79-2.77,3.43-5.65,5.16-8.47,1.56-2.55,3.6-2.56,5.23,0,1.89,3,3.75,5.93,5.78,9.15l1.85-3.22c2.68-4.68,5.34-9.37,8-14,1.5-2.58,3.73-2.55,5.18.07Q104.82,78.82,110.9,90C111.2,90.51,111.54,91,112,91.74Z"/><path class="cls-1" d="M150,28.33h7.14c1.45,0,2.65.47,3.05,2s-.76,3.13-2.71,3.17c-2.42.06-4.85,0-7.48,0,0,2.09,0,4,0,5.89a14.42,14.42,0,0,1-.06,2.08,2.52,2.52,0,0,1-2.74,2.34,2.41,2.41,0,0,1-2.38-2.51c-.06-2.08-.1-4.18,0-6.26.05-1.25-.41-1.61-1.6-1.56-2,.08-3.95,0-5.92,0a2.6,2.6,0,1,1-.09-5.18c2.43-.08,4.86,0,7.58,0V22.88c0-.75,0-1.51,0-2.26a2.49,2.49,0,0,1,2.53-2.54A2.45,2.45,0,0,1,150,20.55c.11,2,0,3.94.06,5.91Z"/></g></g></svg>