<svg xmlns="http://www.w3.org/2000/svg" viewBox="0 0 146.85 151.44"><defs><style>.cls-1{fill:#4cc2fc;}</style></defs><title>hr</title><g id="Layer_2" data-name="Layer 2"><g id="Layer_1-2" data-name="Layer 1"><path class="cls-1" d="M94.33,52.85A32.67,32.67,0,1,0,107,74.42,32.48,32.48,0,0,0,94.33,52.85Zm3.5,43.62a29.14,29.14,0,1,1,5.63-21.56A29.17,29.17,0,0,1,97.83,96.47Z"/><path class="cls-1" d="M78.2,70.27a7.91,7.91,0,1,0-7.18,0,8.5,8.5,0,0,0-5.47,7.92v8.44A4.73,4.73,0,0,0,69,91.17l.69,10.71a4,4,0,0,0,4,3.73h1.89a4,4,0,0,0,4-3.73l.69-10.71a4.73,4.73,0,0,0,3.45-4.54V78.19A8.5,8.5,0,0,0,78.2,70.27ZM74.61,58.84a4.39,4.39,0,1,1-4.38,4.39A4.39,4.39,0,0,1,74.61,58.84Zm5.53,27.79A1.18,1.18,0,0,1,79,87.81h-.41a1.76,1.76,0,0,0-1.76,1.65L76,101.66a.46.46,0,0,1-.45.42H73.67a.47.47,0,0,1-.46-.42l-.78-12.2a1.76,1.76,0,0,0-1.76-1.65h-.41a1.18,1.18,0,0,1-1.18-1.18V78.19a5,5,0,0,1,5-5h1.12a5,5,0,0,1,5,5Z"/><path class="cls-1" d="M142.28,101.71A7.91,7.91,0,0,0,132.7,104l-20-9.33a40.87,40.87,0,0,0,2.78-21.23l15.63-2.93a7.88,7.88,0,0,0,7.25,4.81,8.16,8.16,0,0,0,1.39-.12A7.91,7.91,0,1,0,137,59.64a7.92,7.92,0,0,0-6.52,7.42L114.84,70A40.76,40.76,0,0,0,105,51l18.15-18.14a7.89,7.89,0,0,0,9.79-1.11h0a7.91,7.91,0,1,0-12.29-1.39L102.48,48.52c-1-.87-1.94-1.7-3-2.49a41.05,41.05,0,0,0-23.12-8.3V15.62a7.91,7.91,0,1,0-3.54,0V37.73a41.41,41.41,0,0,0-20.4,6.41L43.57,31.48A7.91,7.91,0,1,0,36.33,34a8.16,8.16,0,0,0,1.39.12,7.85,7.85,0,0,0,3-.6l8.88,12.68a41.4,41.4,0,0,0-13,17L15.76,55.59a7.9,7.9,0,1,0-7.84,6.94,8,8,0,0,0,6.64-3.62l20.73,7.55a41.32,41.32,0,0,0,8.41,39.7l-24,27.35a10.81,10.81,0,0,0,8.14,17.93,11.66,11.66,0,0,0,1.85-.16,10.85,10.85,0,0,0,7.19-4.76L56.72,116a41.45,41.45,0,0,0,37-.58l8.53,14.78a7.93,7.93,0,0,0-1.47,9.75h0a7.93,7.93,0,0,0,6.87,4,7.83,7.83,0,0,0,3.94-1.06,7.91,7.91,0,0,0-6.28-14.41l-8.54-14.79a41.38,41.38,0,0,0,14.45-15.78l20,9.33a7.91,7.91,0,1,0,11.08-5.51ZM137.6,63.12a3.94,3.94,0,0,1,.77-.07,4.38,4.38,0,0,1,.75,8.69h0a4.33,4.33,0,0,1-3.28-.72,4.38,4.38,0,0,1,1.76-7.9ZM36.94,30.49a4.38,4.38,0,0,1-1.75-7.9,4.31,4.31,0,0,1,2.51-.79,4.38,4.38,0,1,1-.76,8.69ZM9.77,58.58a4.33,4.33,0,0,1-3.35.15,4.38,4.38,0,0,1,1.5-8.5,4.54,4.54,0,0,1,1.49.26A4.37,4.37,0,0,1,12,56.11,4.33,4.33,0,0,1,9.77,58.58Zm101.62,75.25a4.38,4.38,0,1,1-6-1.6A4.38,4.38,0,0,1,111.39,133.83ZM124.22,23.08a4.38,4.38,0,0,1,6.2,6.2h0a4.38,4.38,0,0,1-6.2-6.2Zm-54-15.17a4.38,4.38,0,1,1,4.38,4.38A4.39,4.39,0,0,1,70.23,7.91ZM33.93,144.6a7.27,7.27,0,1,1-11.56-8.76l23.8-27.14a41.47,41.47,0,0,0,3.55,3,42.34,42.34,0,0,0,3.88,2.6Zm70.72-43a37.69,37.69,0,1,1,7.29-27.9A37.48,37.48,0,0,1,104.65,101.64Zm38.26,9.09a4.38,4.38,0,1,1-5.47-6,4.51,4.51,0,0,1,1.5-.26,4.45,4.45,0,0,1,1.85.41A4.38,4.38,0,0,1,142.91,110.73Z"/></g></g></svg>