<svg xmlns="http://www.w3.org/2000/svg" viewBox="0 0 280.74 262.67"><defs><style>.cls-1{fill:#4cc2fc;}</style></defs><title>manufacturing_1</title><g id="Layer_2" data-name="Layer 2"><g id="Layer_1-2" data-name="Layer 1"><path class="cls-1" d="M258.36,207.83c3.41,1,6.68,1.43,9.5,2.8,7.88,3.81,12.57,10.2,12.8,19.06.15,5.88.26,12-1.27,17.61-2.46,9-9.35,13.77-18.52,15.14a31.56,31.56,0,0,1-4.67.19q-115.62,0-231.25,0C14.47,262.68,6.6,258.6,2.17,249-.7,242.76-.08,236,.44,229.41c.81-10.27,7.25-17.86,17.21-20.34a32.94,32.94,0,0,1,7.82-.75q69.14-.06,138.28,0h4V174.43c0-5.63,1.17-6.77,6.9-6.78s11.3,0,17,0h3.25v-3.43q0-15.19,0-30.4c0-5.63,1.31-7,6.82-7h36.25c5.53,0,6.82,1.31,6.83,7q0,15.21,0,30.41v3.44c2.8,0,5.22,0,7.63,0,4.41.06,5.94,1.58,5.95,6q0,16.37,0,32.74Zm-117.82,9.62H68.62c-15.11,0-30.21,0-45.32,0-7,0-12.53,4-13.5,10.53a50.88,50.88,0,0,0,0,15.09c1.09,6.91,6.87,10.59,15,10.59H256.38a25.58,25.58,0,0,0,2.63-.09c7.76-.81,12.72-6.21,12.87-14,0-2-.13-4.1,0-6.14.76-9.47-5.73-16.17-15.89-16.09C217.53,217.62,179,217.45,140.54,217.45Zm63.56-50h31.34V136.08H204.1Zm-27.21,40.64h31.43V176.82H176.89Zm40.71,0H249V176.86H217.6Z"/><path class="cls-1" d="M36,61.43c-5.29-5.28-10.74-10.71-16.17-16.15-3.54-3.54-3.55-5.57,0-9.1q8.34-8.38,16.74-16.75c3.22-3.2,5.46-3.18,8.72.05,4.91,4.87,9.86,9.71,14.64,14.71,1.5,1.57,2.66,1.6,4.51.71,4.11-2,8.35-3.65,12.75-5.54,0-7.51,0-15.2,0-22.89C77.17,1.54,78.69,0,83.65,0Q95.34,0,107,0c4.81,0,6.34,1.53,6.35,6.26,0,7.7,0,15.39,0,23,4.89,2.13,9.64,4.3,14.49,6.22.61.24,1.91-.58,2.57-1.23,5-4.91,9.94-9.91,14.92-14.85,3.29-3.27,5.4-3.28,8.68,0q8.5,8.46,16.95,17c3.24,3.27,3.22,5.39,0,8.67-5.5,5.52-11,11-16.34,16.31,2,5,3.73,9.7,5.74,14.32.32.72,1.79,1.3,2.73,1.32,7.11.11,14.23,0,21.34.06,4.4,0,6,1.56,6,6q.08,12.14,0,24.26c0,4.33-1.72,5.94-6.12,6-7,0-14,.07-21.05,0-1.83,0-2.73.47-3.37,2.3a103,103,0,0,1-4.35,10.49c-.87,1.81-.9,3,.69,4.47,4.94,4.7,9.7,9.59,14.51,14.43,3.61,3.62,3.59,5.62-.09,9.3q-8.26,8.28-16.55,16.53c-3.31,3.29-5.44,3.3-8.7.05-5.52-5.49-11-11-16.36-16.38-4.92,1.95-9.64,3.73-14.25,5.76a3.46,3.46,0,0,0-1.32,2.68c-.11,7,0,14-.07,21.06,0,4.76-1.37,6.19-6,6.21q-12.14,0-24.27,0c-4.44,0-5.94-1.54-6-6,0-7-.1-14,0-21,.05-2.07-.7-2.83-2.53-3.49a109.8,109.8,0,0,1-10.75-4.49,2.71,2.71,0,0,0-3.74.64c-5,5.1-10,10.1-15.07,15.11-3.18,3.16-5.31,3.19-8.46.06q-8.71-8.66-17.36-17.37c-2.82-2.85-2.82-5.17,0-8,5.07-5.13,10.15-10.25,15.32-15.28a2.7,2.7,0,0,0,.67-3.72,98.94,98.94,0,0,1-4.39-10.47c-.71-2-1.59-2.89-3.89-2.83-6.81.17-13.64.08-20.46.06-4.78,0-6.35-1.54-6.37-6.28q-.06-12,0-24c0-4.48,1.55-6,6-6,7.11,0,14.23-.06,21.34,0a2.79,2.79,0,0,0,3.13-2.21C32.26,70.44,34.13,66.07,36,61.43Zm126.23,87.8q-7.86-7.84-15.72-15.7c-2.8-2.81-2.75-4.2-1.1-7.77,2.52-5.45,4.87-11,6.94-16.63,1.47-4,2.36-4.95,6.7-5,6.34,0,12.67,0,19,0h3V86.05c-7.39,0-14.58,0-21.78,0-4.91,0-5.51-.77-7.16-5.47A151.92,151.92,0,0,0,145.66,65c-2-4.15-2.06-5.4,1.27-8.72,5.16-5.17,10.33-10.32,15.18-15.17L149.37,28.22c-5.16,5.17-10.44,10.49-15.75,15.77-2.76,2.74-4.11,2.68-7.53,1.14-5.74-2.58-11.58-5-17.47-7.19-2.71-1-4.28-2.48-4.24-5.48.05-3.51,0-7,0-10.52,0-4.17,0-8.34,0-12.6H86.28v3.3c0,6.33,0,12.67,0,19,0,4.11-1.08,5-4.93,6.43-5.46,2-10.88,4.16-16.12,6.67-4.33,2.07-5.3,2.2-8.7-1.19-5.16-5.15-10.31-10.32-15.3-15.31L28.39,41.11c5.12,5.09,10.44,10.37,15.73,15.67,2.66,2.67,2.67,4.29,1.18,7.55-2.56,5.65-5,11.37-7.18,17.16C36.74,85.15,36,86,32.06,86c-6.33,0-12.67,0-19,0H9.46v18.12c7.19,0,14.19,0,21.19,0,5.49,0,6.13.77,7.86,5.8a128.85,128.85,0,0,0,6.25,15c2.21,4.51,2.3,5.58-1.3,9.18C38.39,139.24,33.3,144.31,28.58,149l12.85,12.84c5-5.06,10.3-10.38,15.61-15.67,2.65-2.63,4.07-2.62,7.3-1.16,5.74,2.58,11.55,5,17.42,7.29,3.39,1.3,4.43,2.27,4.51,5.87.06,3,0,6,0,9.06v13.79h18.1v-3.3c0-6.62,0-13.25,0-19.88,0-2.95,1.42-4.45,4.2-5.49q9-3.34,17.7-7.38c2.8-1.3,4.95-1.18,7.1,1,3.82,3.89,7.76,7.67,11.54,11.61a63.4,63.4,0,0,1,4,5Z"/><path class="cls-1" d="M140.59,222a13.57,13.57,0,0,1,13.58,13.51,13.6,13.6,0,0,1-27.19,0A13.57,13.57,0,0,1,140.59,222ZM145,235.55a4.43,4.43,0,1,0-8.85-.09,4.43,4.43,0,0,0,8.85.09Z"/><path class="cls-1" d="M172.36,235.56a13.51,13.51,0,0,1,27-.09,13.51,13.51,0,1,1-27,.09Zm17.95,0A4.59,4.59,0,0,0,185.9,231a4.69,4.69,0,0,0-4.55,4.43,4.51,4.51,0,0,0,4.46,4.45A4.38,4.38,0,0,0,190.31,235.55Z"/><path class="cls-1" d="M63.6,235.44a13.57,13.57,0,0,1-27.14.15,13.57,13.57,0,0,1,27.14-.15Zm-9.18-.06a4.43,4.43,0,1,0-8.86.25,4.4,4.4,0,0,0,4.57,4.28A4.3,4.3,0,0,0,54.42,235.38Z"/><path class="cls-1" d="M108.78,235.63A13.51,13.51,0,1,1,95.41,222,13.34,13.34,0,0,1,108.78,235.63Zm-9-.26A4.71,4.71,0,0,0,95.16,231a4.64,4.64,0,0,0-4.33,4.61,4.41,4.41,0,0,0,4.6,4.27A4.53,4.53,0,0,0,99.8,235.37Z"/><path class="cls-1" d="M231.2,222a13.47,13.47,0,0,1,13.48,13.56A13.57,13.57,0,1,1,231.2,222Zm4.41,13.37A4.59,4.59,0,0,0,231,231a4.46,4.46,0,0,0-4.29,4.59,4.3,4.3,0,0,0,4.52,4.3A4.47,4.47,0,0,0,235.61,235.39Z"/><path class="cls-1" d="M145,95.39a49.75,49.75,0,1,1-49.56-50A49.81,49.81,0,0,1,145,95.39Zm-49.8,40.44A40.73,40.73,0,1,0,54.52,95.08,40.78,40.78,0,0,0,95.23,135.83Z"/><path class="cls-1" d="M95.44,59A36.22,36.22,0,1,1,59.05,95.06,36.2,36.2,0,0,1,95.44,59Zm27,36.51c.42-14.66-11.65-27.29-26.82-27.43a27.09,27.09,0,0,0-1,54.16C109.6,122.68,122,110.81,122.39,95.48Z"/></g></g></svg>