<svg xmlns="http://www.w3.org/2000/svg" viewBox="0 0 150.41 151.91"><defs><style>.cls-1{fill:#4cc2fc;}</style></defs><title>recruitment</title><g id="Layer_2" data-name="Layer 2"><g id="Layer_1-2" data-name="Layer 1"><path class="cls-1" d="M39.29,151.91A24.7,24.7,0,0,1,36,150.68a10.45,10.45,0,0,1-5.94-9c-.16-2.56-.1-5.14-.07-7.71a2.22,2.22,0,1,1,4.41,0c0,2.27,0,4.55,0,6.82a6.46,6.46,0,0,0,6.71,6.61q25.21,0,50.43,0c.19,0,.38,0,.88-.06-.49-.51-.83-.89-1.19-1.24-5.59-5.6-11.17-11.21-16.79-16.77a5.79,5.79,0,0,1-2-5.44,1.5,1.5,0,0,0-.36-1.16c-1.19-1.32-2.44-2.58-3.69-3.88-10.62,7.27-22.11,9.76-34.54,7.09A41.86,41.86,0,0,1,8.35,109.41a43.17,43.17,0,1,1,69.87-.26c1.3,1.27,2.61,2.59,4,3.85a1.45,1.45,0,0,0,1.06.19A5,5,0,0,1,88,114.62c6.83,6.8,13.68,13.59,20.43,20.47a9.73,9.73,0,0,1,1.72,11.15c-.16.35-.34.69-.61,1.22h29.05c4.65,0,7.31-2.59,7.32-7.21q0-52.8,0-105.61c0-.63-.09-1.26-.15-2.06h-1.67c-5.89,0-11.77,0-17.65,0-5.48,0-8.58-3.09-8.59-8.51V6.42c0-1.94,0-1.95-1.94-1.95H41.47c-4.34,0-7,2.66-7.06,7,0,7,0,14,0,21.06a8,8,0,0,1-.12,1.77,2.17,2.17,0,0,1-4.23-.06A8.82,8.82,0,0,1,30,32.63q0-10.3,0-20.61C30,4.53,34.49,0,42,0q36.79,0,73.57,0a12.48,12.48,0,0,1,9.4,3.92q10.63,10.77,21.4,21.39a12.94,12.94,0,0,1,4.08,9.78q-.07,52.36,0,104.72c0,6.48-2.83,10.18-9.09,11.94a1.75,1.75,0,0,0-.25.16Zm42.55-68a38.7,38.7,0,1,0-39.11,38.65A38.75,38.75,0,0,0,81.84,83.91Zm24.89,57.16A11.28,11.28,0,0,0,105,138c-6.49-6.64-13.11-13.16-19.65-19.75-.79-.8-1.33-.72-2.06,0-1.82,1.89-3.64,3.77-5.56,5.54-1.08,1-1,1.64,0,2.63,5.77,5.69,11.47,11.44,17.2,17.16.88.87,1.71,1.8,2.66,2.58a5.23,5.23,0,0,0,5.95.73C105.63,145.88,106.63,144.18,106.73,141.07Zm15.59-133V24.19c0,2.78,1.17,3.93,4,3.94,5,0,10,0,15,0a8.41,8.41,0,0,0,1-.09Zm-47,111.46,3.35-3.07-3.18-3.36-3.43,3Z"/><path class="cls-1" d="M70.86,14.49H92.05c3.73,0,5.51,1.79,5.53,5.56,0,2.42,0,4.84,0,7.26,0,3.34-1.93,5.26-5.27,5.26q-21.56,0-43.13,0c-3.34,0-5.26-1.92-5.31-5.23q-.06-3.86,0-7.7c.05-3.29,1.92-5.14,5.2-5.15C56.33,14.47,63.59,14.49,70.86,14.49ZM48.31,19v7.15c0,2,0,2,1.9,2H91.26a4.19,4.19,0,0,0,1.18,0c.26-.08.64-.4.64-.62,0-2.8,0-5.59,0-8.45Z"/><path class="cls-1" d="M114.45,75.66H96.21a5,5,0,0,1-1.6-.18,1.82,1.82,0,0,1-1.35-2.3A5.19,5.19,0,0,1,95,71.27c.24-.19.77-.06,1.16-.06H133c.25,0,.5,0,.75,0A2.25,2.25,0,0,1,136,73.33a2.22,2.22,0,0,1-2.22,2.3c-1.83.07-3.66,0-5.49,0Z"/><path class="cls-1" d="M114.48,89H95.79c-1.6,0-2.5-.73-2.61-2a2.18,2.18,0,0,1,2.09-2.4c.88-.07,1.78,0,2.67,0h34.39c.4,0,.8,0,1.19,0A2.31,2.31,0,0,1,136,86.87,2.24,2.24,0,0,1,133.46,89C127.13,89.05,120.8,89,114.48,89Z"/><path class="cls-1" d="M114.54,57.82h18.53c1.85,0,2.9.83,2.88,2.22s-1.09,2.22-2.94,2.22q-18.45,0-36.91,0c-1.84,0-2.8-.71-2.91-2s.84-2.38,2.52-2.38C102,57.81,108.26,57.82,114.54,57.82Z"/><path class="cls-1" d="M104.91,102.44c-3,0-6,0-9,0-1.76,0-2.71-.83-2.69-2.24S94.15,98,95.8,98q9.14,0,18.25,0c1.74,0,2.71.87,2.68,2.28s-1,2.14-2.78,2.15C110.94,102.45,107.92,102.44,104.91,102.44Z"/><path class="cls-1" d="M50.5,96.53c5.81,1.31,11.75,1.11,15.06,6.83a6.5,6.5,0,0,0,.75-.72C73.39,93.4,75,83.21,70.63,72.49S58,55.68,46.58,54.31A29.54,29.54,0,0,0,13.75,78.74c-.19,1.07-.51,2.17-1.72,2.3a2.69,2.69,0,0,1-2.19-.67,4.23,4.23,0,0,1-.4-2.77A32.38,32.38,0,0,1,19.2,59.36c9.84-9.22,21.45-12.15,34.26-8.1s20.75,13.22,23.37,26.5c3.78,19.16-10,37.76-29.43,40.09A34.2,34.2,0,0,1,9.47,90.41c-.4-2,.61-3.38,2.31-3.19,1.29.15,1.8,1,2,2.2a29.43,29.43,0,0,0,6.11,13.17,5.32,5.32,0,0,0,.38.45,1.43,1.43,0,0,0,.33.16C23.84,97.73,29.7,98,35,96.66c.26-1.56.26-2.92-1.16-4.19a13.24,13.24,0,0,1-2.68-3.85c-.79-1.59-1-3.42-2.62-4.63a3.57,3.57,0,0,1-.74-2.45c-.08-3.46-.08-6.92,0-10.38A9.81,9.81,0,0,1,37,61.4c3.84-.19,7.71-.11,11.56-.06a5.34,5.34,0,0,1,5.05,3.49,2.41,2.41,0,0,0,1.18,1.09,5.44,5.44,0,0,1,3.55,5.17c0,3.46,0,6.92,0,10.38a4.17,4.17,0,0,1-1.84,3.67,2.18,2.18,0,0,0-.73,1.17,15.3,15.3,0,0,1-4.21,7C50.9,94,50.87,95.37,50.5,96.53Zm-7.24,17.16A30.14,30.14,0,0,0,61,107.81c1-.76,1.27-1.61.49-2.43a10,10,0,0,0-3.41-2.61,33.66,33.66,0,0,0-6.19-1.38,2.48,2.48,0,0,0-1.7.44,11.32,11.32,0,0,1-14.48,0,1.88,1.88,0,0,0-1.27-.48,60.46,60.46,0,0,0-7.18,1.71,7.1,7.1,0,0,0-2.62,2.24c-.72.83-.55,1.58.45,2.31A30.17,30.17,0,0,0,43.26,113.69ZM53.9,76.76c-2.58-.28-5-.85-7.17.45a17.37,17.37,0,0,1-10,2.2c-1.5-.06-3,0-4.88,0,.31.89.36,1.78.76,2a3.8,3.8,0,0,1,1.87,3.16A8.22,8.22,0,0,0,40,91.38,8.53,8.53,0,0,0,51.51,84.8c.24-1.4.42-2.75,2-3.39a1.1,1.1,0,0,0,.41-.83C53.93,79.36,53.9,78.13,53.9,76.76Zm-.18-4.59c.23-1.64.13-2-.94-2.1a3.56,3.56,0,0,1-3.35-3.19,1.73,1.73,0,0,0-1.25-1.07c-3.7-.07-7.41-.11-11.11,0a5.24,5.24,0,0,0-4.85,4.79c-.13,1.36,0,2.75,0,4.3,2.06,0,4,0,6,0a11.16,11.16,0,0,0,6.09-1.51A11.38,11.38,0,0,1,51.11,72C52,72.1,52.86,72.13,53.72,72.17Zm-14,24.1c-.56,3,0,3.77,3.12,3.69a22.16,22.16,0,0,0,3.81-.76l-.35-2.93Z"/></g></g></svg>