<svg xmlns="http://www.w3.org/2000/svg" viewBox="0 0 210.47 172.68"><defs><style>.cls-1{fill:#4cc2fc;}</style></defs><title>retail</title><g id="Layer_2" data-name="Layer 2"><g id="Layer_1-2" data-name="Layer 1"><path class="cls-1" d="M0,12.77C3.57,9,7.17,5.24,10.69,1.42A3.92,3.92,0,0,1,13.86,0q91.35.06,182.7,0a3.84,3.84,0,0,1,3.18,1.39c3.16,3.51,6.45,6.91,9.59,10.44a4.36,4.36,0,0,1,1.08,2.66q.1,18.49,0,37a4.26,4.26,0,0,1-1.13,2.63q-4.75,5-9.74,9.73a4.32,4.32,0,0,1-2.64,1.1c-4.38.11-8.77.12-13.15,0a4.32,4.32,0,0,1-2.62-1.13c-2.62-2.5-5.1-5.13-7.75-7.84-2.74,2.76-5.18,5.34-7.78,7.77a4.72,4.72,0,0,1-2.81,1.2c-4.38.12-8.77.11-13.15,0a4,4,0,0,1-2.46-1c-2.63-2.49-5.13-5.11-7.94-7.94-2.6,2.66-5,5.25-7.59,7.67a5,5,0,0,1-3,1.28c-4.31.14-8.63.13-12.94,0A4.68,4.68,0,0,1,113,63.73c-2.59-2.42-5-5-7.72-7.73-2.7,2.73-5.19,5.36-7.81,7.84a4.34,4.34,0,0,1-2.64,1.1q-6.57.16-13.15,0A4.33,4.33,0,0,1,79,63.85c-2.62-2.48-5.11-5.11-7.83-7.87-2.68,2.72-5.1,5.32-7.7,7.73a5,5,0,0,1-3,1.23c-4.24.13-8.49.12-12.74,0a4.68,4.68,0,0,1-2.82-1.16c-2.6-2.43-5-5-7.77-7.8-2.61,2.65-5.13,5.13-7.56,7.7A3.93,3.93,0,0,1,26.36,65c-4.18-.08-8.36.06-12.53-.09a5.26,5.26,0,0,1-3.16-1.34C7,60.16,3.54,56.58,0,53.06Zm6.17,8.08H204.08c.79-3.53.1-6.4-2.72-8.7A26.94,26.94,0,0,1,197.43,8a4.56,4.56,0,0,0-4-1.8q-86.82.07-173.66,0c-3.54,0-6.3.55-8.4,3.62-1.19,1.74-2.9,3.1-4.26,4.73a4.06,4.06,0,0,0-.87,2.14A42.35,42.35,0,0,0,6.17,20.85Zm0,6.41c0,7.55,0,14.93,0,22.31a2.91,2.91,0,0,0,.85,1.72c2.18,2.27,4.39,4.51,6.69,6.66a3.49,3.49,0,0,0,2.13.84c3.28.05,6.88.8,9.74-.31,2.63-1,4.47-4.08,6.66-6.24A3.3,3.3,0,0,0,33,51.5,7.59,7.59,0,0,0,34,48.83c.11-4.1,0-8.21,0-12.31V27.26Zm62,0H40.25c0,4.48,0,8.85,0,13.22,0,3.28-.88,7,.31,9.74S45,55.3,47.5,57.65a4.31,4.31,0,0,0,2.63,1.12c3.21.1,6.75.81,9.54-.3s4.48-4.09,6.67-6.25A9.77,9.77,0,0,0,67.48,51a2.93,2.93,0,0,0,.62-1.43C68.13,42.23,68.12,34.85,68.12,27.28Zm74.21-.05c0,7.07.07,13.91,0,20.74a5.13,5.13,0,0,0,1.82,4.27c2.32,2.11,4.18,5.19,6.88,6.29s6.2.36,9.35.24A4.43,4.43,0,0,0,163,57.64c2.12-1.93,4.16-4,6.1-6.09a4.37,4.37,0,0,0,1.1-2.64c.1-6.7.06-13.41.05-20.12,0-.52-.11-1-.16-1.56Zm34.26,0a2.26,2.26,0,0,0-.17.54c0,6.23.11,12.46-.1,18.67-.1,2.82,1,4.65,2.71,6.8,3.69,4.6,8,6.37,13.83,5.66,2.15-.27,3.84-.59,5.31-2.3C200,54.46,203,52.84,204,50.38s.32-5.78.33-8.72c0-4.76,0-9.53,0-14.4Zm-102.3,0c0,4.55,0,8.91,0,13.28,0,3.28-.87,7,.33,9.74s4.51,5,6.89,7.45a.92.92,0,0,0,.14.14,7.38,7.38,0,0,0,2.32.93c3.28.07,6.88.78,9.74-.33,2.63-1,4.48-4.07,6.67-6.23.19-.19.46-.35.57-.58a8.3,8.3,0,0,0,1.13-2.87c.1-6.57.06-13.13,0-19.7,0-.59-.1-1.18-.15-1.83Zm61.88.08H108.32c0,6,.24,11.93-.09,17.79-.22,3.89,1.14,6.5,3.79,9.28,3.17,3.32,6.36,4.86,11,4.58a12.37,12.37,0,0,0,8.21-3.35c3.89-3.42,5.47-7.11,5-12.27S136.17,32.72,136.17,27.32Z"/><path class="cls-1" d="M0,151.71l47.47,0H128.6V70.34h6.17v81.25h44V70.33h6.17V151.7h25.41v20.84H2.86c-.95,0-1.91.09-2.86.14ZM6.26,166.2H204.18V158H6.26Z"/><path class="cls-1" d="M80.15,120.16H74.43c0,.7.07,1.34.1,2a8.59,8.59,0,0,1-13.15,7.76,8.22,8.22,0,0,1-4-8,5.55,5.55,0,0,0-.68-2c-.25-.69-.56-1.37-.75-2.08C53,106.91,50.07,96,47.2,85c-.39-1.48-.94-2.16-2.6-2-2.58.16-5.18,0-7.91,0V76.79h7.05c.75,0,1.5,0,2.26,0,1.7,0,3.8-.5,5,.3s1.24,2.88,1.58,4.46S54,82.79,55,82.79q22.31,0,44.59,0c3.85,0,3.32-.54,3.37,3.38,0,.81,0,1.62,0,2.63-2.07-.22-2.48,1.07-2.88,2.63-1.77,6.89-3.65,13.74-5.53,20.77H61.06c-.2,1.72.77,1.73,1.88,1.72,8.36,0,16.71-.05,25.07,0,5.88,0,9.82,4.43,9.07,10a8.59,8.59,0,0,1-17-2.09C80.1,121.32,80.11,120.85,80.15,120.16Zm-15.32-31H54.67c.42,1.56.74,2.94,1.19,4.28.14.42.63,1,1,1,2.63.08,5.27,0,8,0Zm19.52,5.26H92.9L94.33,89H88.48c-4.73,0-4.73,0-4.34,4.78A3.81,3.81,0,0,0,84.35,94.38Zm-13.15,0h6.58V89.1H71.2Zm0,6.41V106h6.57v-5.21Zm-12,5.22h5.61v-5.2h-7Zm25-.14c5.23,1,6.53,0,6.69-5H84.19ZM63.5,122.68A2.33,2.33,0,0,0,66,125a2.21,2.21,0,0,0,2.37-2.3A2.27,2.27,0,0,0,66,120.17C64.52,120.13,63.66,121.09,63.5,122.68Zm25.11,2.39A2.3,2.3,0,0,0,91,122.64a2.41,2.41,0,0,0-4.82-.14C86.09,124,86.94,124.9,88.61,125.07Z"/><path class="cls-1" d="M114.11,69.46v73.13H25.4V70.35h5.94v66.06H108V69.46Z"/><path class="cls-1" d="M142.32,99.76V81.43c.3-.09.57-.29.8-.24,3.33.69,5.1-1,6.44-3.84a71.63,71.63,0,0,1,3.8-6.33c1.3-2.12,5.54-2.15,6.81,0,1.6,2.64,3.28,5.23,4.7,8,.91,1.77,2.06,2.55,4,2.24a15.41,15.41,0,0,1,2.37,0V99.76Zm22.8-12.25H148.57V93.6h16.55ZM154.56,81H159c-.81-1.32-1.43-2.37-2.2-3.64Z"/><path class="cls-1" d="M4.7,67.93h5.84v78.59H4.7Z"/><path class="cls-1" d="M200.07,146.67V67.87h6.05v2.31q0,37,0,73.92c0,2-.44,2.92-2.59,2.6A25.25,25.25,0,0,0,200.07,146.67Z"/><path class="cls-1" d="M79.26,70h23.52v5.9H79.26Z"/><path class="cls-1" d="M168.67,125.43h5.92v20.44h-5.92Z"/><path class="cls-1" d="M69,70h5.87v6H69Z"/><path class="cls-1" d="M58.71,70h5.92V76H58.71Z"/><path class="cls-1" d="M174.57,110.83H168.7v-5.94h5.87Z"/><path class="cls-1" d="M174.66,115.22v5.84h-6v-5.84Z"/><path class="cls-1" d="M108.9,16.74V10.86h87v5.88Z"/><path class="cls-1" d="M88.33,16.75v-5.9h5.9v5.9Z"/><path class="cls-1" d="M104.52,16.82H98.68v-6h5.84Z"/></g></g></svg>