<svg xmlns="http://www.w3.org/2000/svg" viewBox="0 0 70.71 70.43"><defs><style>.cls-1{fill:#1dd3f8;}</style></defs><title>decreased_material_costs</title><g id="Layer_2" data-name="Layer 2"><g id="Layer_1-2" data-name="Layer 1"><path class="cls-1" d="M70.71,34.93c-.09.2-.19.4-.28.61a3.48,3.48,0,0,1-3.11,2.16H4a5,5,0,0,1-1.16-.08A3.51,3.51,0,0,1,0,34.07V3.91A3.57,3.57,0,0,1,3.9,0H66.37c2.52,0,3.38.57,4.34,2.89Zm-35.36.42H66.69c1.32,0,1.66-.35,1.66-1.68q0-14.83,0-29.68c0-1.27-.37-1.64-1.65-1.64H4c-1.31,0-1.67.36-1.67,1.7V33.66c0,1.36.34,1.69,1.73,1.69Z"/><path class="cls-1" d="M61.29,57.74c.41,0,.73,0,1.05,0a1.71,1.71,0,0,1,1.57,1,1.64,1.64,0,0,1-.27,1.87c-2.7,3-5.39,6.1-8.11,9.13a1.68,1.68,0,0,1-2.62,0q-4.08-4.55-8.12-9.13a1.66,1.66,0,0,1-.3-1.87,1.74,1.74,0,0,1,1.57-1.06c.32,0,.64,0,1.07,0V42.41c0-1.73.61-2.35,2.31-2.35H59.1c1.53,0,2.19.66,2.19,2.19V57.74ZM49.49,42.45v.91c0,4.76,0,9.52,0,14.28a3.3,3.3,0,0,1-.4,1.75c-.29.43-.94.61-1.47.92l6.61,7.44,6.72-7.56c-1.66-.37-2-.8-2-2.44V42.45Z"/><path class="cls-1" d="M28.29,47.75c0-1.87,0-3.73,0-5.59,0-1.42.65-2.09,2.05-2.1h10a1.82,1.82,0,0,1,2,2.1q0,5.58,0,11.18a1.78,1.78,0,0,1-2,2H30.32a1.78,1.78,0,0,1-2-2C28.29,51.47,28.29,49.61,28.29,47.75ZM40,53V42.47H30.69V53Z"/><path class="cls-1" d="M16.43,50.68h-5a1.82,1.82,0,0,1-2.05-2c0-2.19,0-4.37,0-6.56a1.81,1.81,0,0,1,2-2H21.57a1.81,1.81,0,0,1,2,2q0,3.3,0,6.62a1.8,1.8,0,0,1-2,2Zm-4.61-8.22v5.83h9.36V42.46Z"/><path class="cls-1" d="M35.36,33h-23c-1.31,0-1.58-.24-1.71-1.51a4.72,4.72,0,0,0-4.33-4.36C5,27,4.71,26.71,4.71,25.39V12.21C4.71,11,5,10.7,6.19,10.6a4.74,4.74,0,0,0,4.42-4.5c.09-1,.45-1.39,1.48-1.39H58.61c1,0,1.41.36,1.49,1.38a4.72,4.72,0,0,0,4.61,4.52A1.21,1.21,0,0,1,66,12c0,4.58,0,9.16,0,13.74,0,.89-.38,1.29-1.28,1.38a4.72,4.72,0,0,0-4.63,4.72C60,32.64,59.57,33,58.62,33H35.36ZM23.58,18.82A11.77,11.77,0,1,0,35.35,7.07,11.77,11.77,0,0,0,23.58,18.82ZM12.9,7.05a7.09,7.09,0,0,1-5.45,5.67c-.47.11-.39.42-.39.74V24.22c0,.2,0,.4,0,.62a7.34,7.34,0,0,1,3.82,2,7.49,7.49,0,0,1,2,3.75H27.47c-4-3-6.21-6.85-6.21-11.77S23.45,10,27.44,7.05Zm30.35,0c4,3,6.21,6.89,6.2,11.82s-2.2,8.75-6.19,11.71H57.8c1.08-3.49,2.1-4.51,5.82-5.83v-12a7.27,7.27,0,0,1-3.8-2,7.42,7.42,0,0,1-2-3.76Z"/><path class="cls-1" d="M40.05,15c0,1-.43,1.49-1.1,1.53s-1.16-.45-1.25-1.27A2.35,2.35,0,1,0,33,15.5a2.33,2.33,0,0,0,2.11,2.18,9.26,9.26,0,0,1,1.49.24,4.69,4.69,0,0,1,.62,8.75,1,1,0,0,0-.71,1c0,1.19-.37,1.75-1.16,1.76s-1.21-.56-1.18-1.74a.94.94,0,0,0-.69-1,4.48,4.48,0,0,1-2.83-4.06c-.05-.84.38-1.36,1.09-1.39s1.17.41,1.25,1.25a2.36,2.36,0,1,0,4.7-.32A2.41,2.41,0,0,0,35.24,20a4.69,4.69,0,0,1-1.65-9,.78.78,0,0,0,.59-.91,2.93,2.93,0,0,1,0-.89,1.06,1.06,0,0,1,1.11-.93,1.08,1.08,0,0,1,1.14.91c.36,1.47.37,1.46,1.58,2.33A4.57,4.57,0,0,1,40.05,15Z"/></g></g></svg>