<svg xmlns="http://www.w3.org/2000/svg" viewBox="0 0 51.27 53.03"><defs><style>.cls-1{fill:#1dd3f8;}</style></defs><title>increased_productivity</title><g id="Layer_2" data-name="Layer 2"><g id="Layer_1-2" data-name="Layer 1"><path class="cls-1" d="M33.39,43.74l8.88-4.47,3.3-1.66a3.54,3.54,0,0,1,5,1.63A4.2,4.2,0,0,1,51.22,42a3.64,3.64,0,0,1-2.12,2.78q-6,3.06-12,6.15l-3,1.54a5.22,5.22,0,0,1-2.49.59H1.22C.28,53,0,52.75,0,51.82V38.34c0-.94.27-1.22,1.21-1.22q9,0,18,0a4.66,4.66,0,0,1,3.59,1.53.9.9,0,0,0,.62.23c2.12,0,4.23,0,6.35,0a3.51,3.51,0,0,1,3.64,4.62C33.4,43.56,33.4,43.62,33.39,43.74ZM11.52,51.26h.41c6.61,0,13.21,0,19.82,0a3.6,3.6,0,0,0,1.47-.38c1.43-.68,2.82-1.43,4.23-2.15L48.3,43.17a1.82,1.82,0,0,0,1.17-1.48,2.88,2.88,0,0,0-1.12-2.42,1.81,1.81,0,0,0-2.16,0q-6.37,3.23-12.76,6.42a2.61,2.61,0,0,1-1.1.26c-3.88,0-7.77,0-11.65,0a2.75,2.75,0,0,1-.5,0,.88.88,0,0,1,0-1.73,2.51,2.51,0,0,1,.55,0h9c1.26,0,2.07-.69,2.07-1.78s-.8-1.75-2-1.75h-7a1.18,1.18,0,0,1-1.11-.56,2.66,2.66,0,0,0-2.35-1.21H11.52ZM9.7,38.93H1.81V51.26H9.7Z"/><path class="cls-1" d="M11.8,14.14c.53-1.18,1-2.3,1.51-3.43a.62.62,0,0,0-.16-.5C12.58,9.61,12,9,11.4,8.45a.94.94,0,0,1,0-1.53q1.72-1.74,3.48-3.47a.93.93,0,0,1,1.52,0C17,4,17.58,4.64,18.2,5.22a.5.5,0,0,0,.45.14c1.13-.47,2.25-1,3.45-1.52,0-.8,0-1.72,0-2.64S22.38,0,23.27,0H28c.86,0,1.14.3,1.15,1.17V3.84c1.19.53,2.32,1,3.47,1.54.1,0,.33-.07.44-.17.6-.57,1.18-1.17,1.77-1.75a1,1,0,0,1,1.57,0q1.72,1.71,3.43,3.44a1,1,0,0,1,0,1.57c-.58.59-1.16,1.18-1.76,1.75-.21.2-.2.36-.08.62.43,1,.84,1.95,1.21,2.94.11.28.22.37.51.37.84,0,1.69,0,2.54,0a.92.92,0,0,1,1.05,1v5a.92.92,0,0,1-1.05,1.05H39.72c-.29,0-.4.08-.51.36-.37,1-.78,2-1.22,2.94a.49.49,0,0,0,.13.66c.6.58,1.18,1.16,1.76,1.76a.92.92,0,0,1,0,1.48q-1.74,1.77-3.51,3.52a.93.93,0,0,1-1.49,0c-.6-.59-1.19-1.2-1.81-1.78a.59.59,0,0,0-.49-.15c-1.12.47-2.22,1-3.42,1.51v2.67c0,.87-.3,1.17-1.15,1.17H23.27c-.89,0-1.17-.29-1.17-1.2s0-1.8,0-2.71c-.82-.31-1.62-.61-2.41-.94-.43-.17-.87-.59-1.23-.52s-.71.59-1.05.92-.72.74-1.1,1.09a.9.9,0,0,1-1.37,0q-1.83-1.81-3.63-3.64a.88.88,0,0,1,0-1.36c.6-.63,1.23-1.22,1.82-1.85a.61.61,0,0,0,.16-.49c-.47-1.14-1-2.25-1.51-3.44H9c-.76,0-1.07-.32-1.07-1.08,0-1.63,0-3.27,0-4.91,0-.76.31-1.07,1.07-1.08ZM23.86,1.79c0,.93,0,1.8,0,2.66,0,.71-.2,1-.87,1.14a12.74,12.74,0,0,0-4,1.68.91.91,0,0,1-1.37-.16c-.64-.63-1.27-1.28-1.89-1.9L13.14,7.74C13.76,8.34,14.4,9,15,9.57A1,1,0,0,1,15.19,11a12.38,12.38,0,0,0-1.63,4c-.16.71-.43.92-1.15.92H9.76v3.54h2.62c.76,0,1,.2,1.18.95a12.39,12.39,0,0,0,1.59,3.85c.45.73.42,1-.18,1.59l-1.76,1.75,2.52,2.53c.57-.58,1.17-1.21,1.78-1.82s.83-.59,1.5-.17a12.55,12.55,0,0,0,3.91,1.62c.74.16.94.42.94,1.18s0,1.75,0,2.63H27.4V31c0-.77.19-1,.92-1.2a12.17,12.17,0,0,0,4-1.64,1,1,0,0,1,1.46.17c.62.62,1.24,1.26,1.84,1.87l2.53-2.53c-.62-.6-1.25-1.22-1.87-1.84a.94.94,0,0,1-.17-1.46,12.57,12.57,0,0,0,1.64-3.95c.16-.73.42-.92,1.2-.92H41.5V15.91H38.88c-.76,0-1-.2-1.18-.95a12.26,12.26,0,0,0-1.62-3.9c-.41-.67-.38-1,.18-1.5l1.81-1.79L35.54,5.24,33.79,7c-.6.61-.86.64-1.58.19A12,12,0,0,0,28.4,5.62c-.81-.18-1-.42-1-1.25V1.79Z"/><path class="cls-1" d="M25.6,7.07A10.61,10.61,0,1,1,15,17.65,10.61,10.61,0,0,1,25.6,7.07Zm0,19.44a8.84,8.84,0,1,0-8.83-8.87A8.83,8.83,0,0,0,25.62,26.51Z"/><path class="cls-1" d="M30.15,18.56c-.24,0-.48,0-.72,0a1.65,1.65,0,0,0-1.81.78,2.27,2.27,0,0,1-2.75.87A2.49,2.49,0,0,1,23,18a2.46,2.46,0,0,1,1.32-2.59.71.71,0,0,0,.42-.77c0-.7,0-1.4,0-2.1s.36-1,.9-1,.85.39.86,1,0,1.47,0,2.21c0,.35.13.48.4.67a4.07,4.07,0,0,1,1,1,.71.71,0,0,0,.7.37c1,0,2,0,3,0,.69,0,1.1.34,1.09.89s-.42.87-1.12.87Zm-4.5,0a.88.88,0,1,0-.9-.85A.89.89,0,0,0,25.65,18.56Z"/></g></g></svg>