<svg xmlns="http://www.w3.org/2000/svg" viewBox="0 0 59.86 71.83"><defs><style>.cls-1{fill:#1dd3f8;}</style></defs><title>no_duplicating_in_data</title><g id="Layer_2" data-name="Layer 2"><g id="Layer_1-2" data-name="Layer 1"><path class="cls-1" d="M15.56,10.78c0-1.62,0-3.11,0-4.61A6,6,0,0,1,21.76,0h19.3a6,6,0,0,1,4.23,1.6q6.33,5.82,12.64,11.67a6,6,0,0,1,1.93,4.54q0,18.55,0,37.1a6,6,0,0,1-6.14,6.15H50.28v4.31c0,4-2.5,6.46-6.5,6.46H6.45C2.51,71.83,0,69.33,0,65.39V17.22c0-3.95,2.5-6.44,6.45-6.44h9.11Zm16.76,2.44c-.39,0-.7-.05-1-.05h-25a3.6,3.6,0,0,0-3.92,3.9q0,24.24,0,48.47a3.6,3.6,0,0,0,3.85,3.9H44a3.6,3.6,0,0,0,3.86-3.89q0-18.4,0-36.81a4,4,0,0,0-1.39-3.16c-3.71-3.41-7.4-6.83-11.11-10.25-.18-.17-.38-.33-.61-.53a1.49,1.49,0,0,0-.06.26v6.13a3.61,3.61,0,0,0,4,3.95h3.17v2.4c-1.18,0-2.3,0-3.42,0a6,6,0,0,1-6.09-6.12c0-2.42,0-4.84,0-7.26Zm18,45.44c1.21,0,2.3,0,3.4,0a3.58,3.58,0,0,0,3.78-3.81q0-18.48,0-37a4,4,0,0,0-1.34-3Q50.51,9.69,44.91,4.5c-.17-.15-.35-.29-.57-.46,0,.16,0,.2,0,.25v6.06c0,2.59,1.43,4,4,4h3.11v2.39H48.06a6,6,0,0,1-6.16-6.13c0-2.44,0-4.89,0-7.33V2.47a5.72,5.72,0,0,0-.59-.07c-6.63,0-13.26,0-19.9,0A3.44,3.44,0,0,0,18,5.5c-.12,1.73,0,3.47,0,5.28h.85c4.09,0,8.18,0,12.27,0a6.86,6.86,0,0,1,5,2Q42,18.23,48,23.68A6.72,6.72,0,0,1,50.29,29q0,14.37,0,28.73Z"/><path class="cls-1" d="M22.78,59.81V57.5H41.84v2.31Z"/><path class="cls-1" d="M25.19,43.13H41.86v2.31H25.19Z"/><path class="cls-1" d="M31.11,50.35v2.27H16.81V50.35Z"/><path class="cls-1" d="M28.77,38.26V36H41.84v2.3Z"/><path class="cls-1" d="M8.41,45.44v-2.3H21.49v2.3Z"/><path class="cls-1" d="M19.12,57.52v2.3H8.44v-2.3Z"/><path class="cls-1" d="M25.13,21.6v2.29H15.62V21.6Z"/><path class="cls-1" d="M8.41,31.08V28.77H16.7v2.31Z"/><path class="cls-1" d="M16.79,38.27V36h8.3v2.3Z"/><path class="cls-1" d="M41.87,50.34v2.3H34.78v-2.3Z"/><path class="cls-1" d="M20.41,28.76h4.68v2.33H20.41Z"/><path class="cls-1" d="M13.14,36v2.3H8.44V36Z"/><path class="cls-1" d="M8.41,52.64v-2.3h4.71v2.3Z"/><path class="cls-1" d="M11.92,23.91H8.42v-2.3h3.5Z"/></g></g></svg>