<svg xmlns="http://www.w3.org/2000/svg" viewBox="0 0 85.24 85.24"><defs><style>.cls-1{fill:#1dd3f8;}</style></defs><title>unifor_distribution</title><g id="Layer_2" data-name="Layer 2"><g id="Layer_1-2" data-name="Layer 1"><path class="cls-1" d="M43,0a8.92,8.92,0,0,1,1.19,1.1c1.3,1.66,2.54,3.36,3.87,5.13l-2.25,1.7L44.07,5.74V17H41.21V6L41,5.93l-1.55,2L37.22,6.23C38.67,4.3,40.09,2.4,41.54.51A3.12,3.12,0,0,1,42.28,0Z"/><path class="cls-1" d="M0,42.12c.79-.67,1.57-1.37,2.39-2,1.24-1,2.52-1.9,3.86-2.91L8,39.47l-2.2,1.67H17V44H6l-.07.2,2,1.56L6.25,48c-2-1.48-3.88-2.92-5.78-4.39A2.52,2.52,0,0,1,0,43Z"/><path class="cls-1" d="M58.25,42.67c0,2.22,0,4.43,0,6.65a1.86,1.86,0,0,1-1,1.78q-6.81,4.07-13.61,8.17a1.84,1.84,0,0,1-2.09,0Q34.78,55.17,28,51.09a1.86,1.86,0,0,1-1-1.77q0-6.7,0-13.4a1.92,1.92,0,0,1,1-1.83q6.78-4,13.54-8.13a1.86,1.86,0,0,1,2.16,0Q50.42,30,57.17,34a2,2,0,0,1,1.09,2C58.23,38.23,58.25,40.45,58.25,42.67ZM29.91,38.06a2.49,2.49,0,0,0-.09.35c0,3.33,0,6.66,0,10a1.32,1.32,0,0,0,.59.85c3.34,2,6.69,4,10,6a7.58,7.58,0,0,0,.71.36c0-3.58,0-7,0-10.45a1.07,1.07,0,0,0-.5-.66c-1.19-.76-2.41-1.47-3.63-2.2Zm14.2,17.53a1.74,1.74,0,0,0,.34-.13c3.52-2.11,7-4.21,10.54-6.34a1.2,1.2,0,0,0,.41-.87c0-3.19,0-6.38,0-9.57a5.06,5.06,0,0,0-.06-.53,1.41,1.41,0,0,0-.22,0c-3.57,2.14-7.14,4.27-10.69,6.43a1.11,1.11,0,0,0-.38.81c0,3.22,0,6.44,0,9.65A3.78,3.78,0,0,0,44.11,55.59ZM38.28,39.76c1.3.78,2.52,1.48,3.7,2.24a1,1,0,0,0,1.26,0c3.38-2.06,6.79-4.08,10.18-6.12a6.61,6.61,0,0,0,.59-.41c-1.29-.77-2.51-1.47-3.69-2.23a1,1,0,0,0-1.19,0c-2.53,1.54-5.08,3-7.62,4.57ZM47,31.23c-1.32-.79-2.55-1.5-3.74-2.26A1,1,0,0,0,42,29C38.64,31,35.24,33.06,31.85,35.1c-.2.12-.37.26-.62.43,1.36.82,2.61,1.59,3.89,2.31a1.06,1.06,0,0,0,.87-.05c1.44-.82,2.86-1.69,4.29-2.54Z"/><path class="cls-1" d="M41.18,68.2H44v11l.2.09,1.56-2L48,79c-1.48,2-2.89,3.89-4.39,5.77a1.33,1.33,0,0,1-2.16-.13c-1.42-1.84-2.8-3.71-4.25-5.64l2.26-1.7,1.52,2,.18-.06Z"/><path class="cls-1" d="M25.55,23.4,23.4,25.49,15.53,17.6l.33,2.69-2.77.41-.34-2.33c-.21-1.51-.45-3-.63-4.52-.14-1.21.52-1.9,1.7-1.75,2.25.28,4.49.62,6.87,1l-.36,2.79-2.67-.33Z"/><path class="cls-1" d="M79,48,77.3,45.74l2.16-1.68H68.27V41.2h11L79.3,41l-2-1.56L79,37.21c1,.75,2,1.47,3,2.2s1.8,1.31,2.66,2a1.39,1.39,0,0,1,0,2.34C82.78,45.18,80.91,46.55,79,48Z"/><path class="cls-1" d="M69.71,67.67l-.35-2.76,2.78-.4c.27,1.84.52,3.59.77,5.33.08.58.19,1.15.22,1.73a1.31,1.31,0,0,1-1.44,1.53c-2.36-.26-4.71-.62-7.16-.95l.39-2.8,2.45.29L59.6,61.89l2.27-2.07Z"/><path class="cls-1" d="M13.06,64.52l2.8.38-.31,2.63,7.87-7.89,2,2.15-7.91,7.9,2.76-.35.41,2.78-4.1.61c-1,.14-2,.3-3,.38a1.29,1.29,0,0,1-1.52-1.44C12.38,69.31,12.73,67,13.06,64.52Z"/><path class="cls-1" d="M72.13,20.69l-2.76-.39.31-2.63-7.84,7.86-2-2.1,7.94-7.92-2.81.35-.41-2.81c2.45-.33,4.8-.69,7.16-.94,1-.1,1.55.61,1.43,1.69-.22,1.9-.52,3.79-.79,5.68C72.27,19.86,72.2,20.23,72.13,20.69Z"/><path class="cls-1" d="M41.24,22.66V19.91H44v2.75Z"/><path class="cls-1" d="M22.67,44H19.94V41.24h2.73Z"/><path class="cls-1" d="M62.55,44V41.23H65.3V44Z"/><path class="cls-1" d="M41.24,65.25v-2.7H44v2.7Z"/><path class="cls-1" d="M29.48,27.54l-1.93,1.93-1.9-2,1.89-1.88Z"/><path class="cls-1" d="M59.54,27.65l-1.88,1.76-1.73-1.92,1.8-1.7Z"/><path class="cls-1" d="M27.64,55.83l1.86,1.84L27.45,59.5l-1.77-1.85Z"/><path class="cls-1" d="M57.69,55.81l2,1.84-2,2-1.9-2Z"/></g></g></svg>