<svg xmlns="http://www.w3.org/2000/svg" viewBox="0 0 99.98 99.95"><defs><style>.cls-1{fill:#1dd3f8;}</style></defs><title>Banking</title><g id="Layer_2" data-name="Layer 2"><g id="Layer_1-2" data-name="Layer 1"><path class="cls-1" d="M0,26.93c.63-.43,1.23-.92,1.9-1.3q9.66-5.39,19.35-10.74a5.69,5.69,0,0,1,1-.47,1.33,1.33,0,0,1,1.73.68,1.34,1.34,0,0,1-.32,1.77,4.9,4.9,0,0,1-.82.51l-14.49,8c-.28.15-.54.32-1,.61H92.56a5.92,5.92,0,0,0-.64-.46Q72.23,14.64,52.54,3.72a4.87,4.87,0,0,0-5.16,0c-5.75,3.23-11.53,6.41-17.3,9.6a4.22,4.22,0,0,1-.87.45,1.36,1.36,0,0,1-1.75-.67,1.36,1.36,0,0,1,.37-1.83,5.59,5.59,0,0,1,.66-.41L46.23,1.05a7.21,7.21,0,0,1,7.43,0q22.61,12.51,45.19,25A1.91,1.91,0,0,1,100,27.93c0,1.17,0,2.34,0,3.51a5.9,5.9,0,0,1-5.77,6.32,1.65,1.65,0,0,0-1.34.76c-1.35,2-2.76,3.87-4.09,5.83a2.82,2.82,0,0,0-.49,1.5q0,17.13,0,34.26a2.93,2.93,0,0,0,.48,1.51c1.35,2,2.78,3.92,4.15,5.9a1.33,1.33,0,0,0,1.34.71,22.07,22.07,0,0,1,2.44,0,3.35,3.35,0,0,1,3.27,3.24c0,1.72.06,3.45,0,5.17A3.59,3.59,0,0,1,97.23,100H2.73A4.54,4.54,0,0,1,0,97.41V90.77a3.93,3.93,0,0,1,4.41-2.56,5.1,5.1,0,0,0,1.46,0A2,2,0,0,0,7,87.62c1.5-2,3-4.11,4.4-6.19a1.94,1.94,0,0,0,.34-1.07q0-17.35,0-34.71a2.45,2.45,0,0,0-.44-1.23c-1.38-2-2.79-4-4.24-6a1.82,1.82,0,0,0-1.16-.62,5.59,5.59,0,0,1-4-1.74A20.62,20.62,0,0,1,0,33ZM76.5,46.08v1.15q0,7.43,0,14.84a4.11,4.11,0,0,1-.08,1.06,1.43,1.43,0,0,1-2.82-.23c0-.32,0-.65,0-1,0-5.34,0-10.68,0-16a2.8,2.8,0,0,0-.47-1.51c-1.35-2-2.79-3.93-4.15-5.91a1.42,1.42,0,0,0-1.35-.71H32.34a1.39,1.39,0,0,0-1.28.66c-1.38,2-2.83,4-4.21,6a2.54,2.54,0,0,0-.44,1.32q0,17.24,0,34.46a2.53,2.53,0,0,0,.43,1.33c1.4,2,2.83,4.06,4.3,6a1.68,1.68,0,0,0,1.17.6q17.67,0,35.33,0a1.68,1.68,0,0,0,1.17-.6c1.09-1.41,2-3,3.15-4.33a7,7,0,0,0,1.65-5.18c-.15-2.79,0-5.6,0-8.4A1.45,1.45,0,0,1,75,68.16a1.5,1.5,0,0,1,1.46,1.43,6.71,6.71,0,0,1,0,.78v9.54h8.76V46.08ZM50,97H80.3c5.21,0,10.41,0,15.62,0,.84,0,1.17-.25,1.12-1.12-.06-1.07,0-2.14,0-3.22,0-1.53,0-1.53-1.54-1.53H4.43a5.81,5.81,0,0,1-.59,0c-.66,0-.94.21-.92.9,0,1.17,0,2.34,0,3.51C2.93,97,2.93,97,4.37,97ZM3,29.07c0,1.13-.07,2.2,0,3.26a2.79,2.79,0,0,0,2.32,2.44,7.78,7.78,0,0,0,1.36.1H93.32a7.78,7.78,0,0,0,1.36-.1A2.8,2.8,0,0,0,97,32.32c.09-1.06,0-2.13,0-3.25Zm11.77,17V79.92h8.69V46.09Zm13.13,42.1c-.18-.3-.3-.54-.45-.76-.9-1.28-1.83-2.53-2.69-3.82a1.41,1.41,0,0,0-1.35-.71c-2.5,0-5,.11-7.5,0a2.9,2.9,0,0,0-3.07,1.57c-.72,1.28-1.68,2.42-2.61,3.74Zm61.93,0c-1.24-1.75-2.34-3.34-3.5-4.9a1.34,1.34,0,0,0-.91-.36c-1.89,0-3.77,0-5.65,0-1.3,0-2.81-.39-3.83.15s-1.65,2-2.43,3.09c-.46.63-.89,1.29-1.4,2ZM10.22,37.86c1.24,1.75,2.35,3.34,3.5,4.91a1.24,1.24,0,0,0,.83.33c3,0,6,0,9,0a1.11,1.11,0,0,0,.79-.23c1.19-1.6,2.34-3.25,3.59-5Zm79.51,0H72.07c1.22,1.72,2.33,3.31,3.49,4.87a1.17,1.17,0,0,0,.82.35c3,0,6.05,0,9.07,0a.94.94,0,0,0,.69-.22C87.33,41.27,88.48,39.63,89.73,37.88Z"/><path class="cls-1" d="M50,22.3a6.73,6.73,0,1,1,6.68-6.71A6.69,6.69,0,0,1,50,22.3ZM50,19.37a3.75,3.75,0,0,0,3.82-3.73,3.79,3.79,0,1,0-7.58-.06A3.75,3.75,0,0,0,50,19.37Z"/><path class="cls-1" d="M66.76,63A16.78,16.78,0,1,1,50,46.24,16.85,16.85,0,0,1,66.76,63ZM50,49.16A13.85,13.85,0,1,0,63.83,63,13.85,13.85,0,0,0,50,49.16Z"/><path class="cls-1" d="M48.46,53.37c.17-1.55.56-2.09,1.52-2.09s1.35.54,1.52,2.14c.42.08.86.15,1.29.27a4.34,4.34,0,0,1,3.08,4.16,1.45,1.45,0,1,1-2.89.26c-.12-.88-.35-1.58-1.47-1.66v5c2.06.19,3.7,1.1,4.11,3.15a12.49,12.49,0,0,1,0,4.72c-.39,2-2,3-4.12,3.18-.08,1.09-.17,2.3-1.66,2.2-1.23-.08-1.35-1.12-1.37-2.16-.44-.07-.85-.1-1.25-.2a4.39,4.39,0,0,1-3.13-4c0-1,.44-1.66,1.28-1.75S46.77,67,47,68a5,5,0,0,0,.82,1.43c.07.09.36,0,.59,0,0-.26.07-.48.07-.7,0-1.4,0-2.79,0-4.16a12,12,0,0,1-1.93-.54c-1.88-.93-2.49-2.55-2.52-4.57,0-2.28.13-4.41,2.47-5.58A11.91,11.91,0,0,1,48.46,53.37Zm0,8.08v-5c-1.37.26-1.57.8-1.41,3.51C47.07,61,47.41,61.38,48.43,61.45Zm3.07,3v5.06a1.44,1.44,0,0,0,.52,0c1.53-.84.79-2.29.9-3.49C53,65.15,52.53,64.59,51.5,64.42Z"/></g></g></svg>