<svg xmlns="http://www.w3.org/2000/svg" viewBox="0 0 83.61 82.26"><defs><style>.cls-1{fill:#1dd3f8;}</style></defs><title>Healthcare_1</title><g id="Layer_2" data-name="Layer 2"><g id="Layer_1-2" data-name="Layer 1"><path class="cls-1" d="M83.61,16c-.19.85-.35,1.7-.58,2.53a14,14,0,0,1-4.61,7.07,1,1,0,0,0-.35,1.29c2.8,8.7,1.41,16.61-4.68,23.51-2.39,2.7-5,5.19-7.57,7.78l-6.84,7c-.17.17-.32.35-.61.68,1.78-.34,3.38-.64,5-1s3.24-.75,4.88-.95a7.45,7.45,0,0,1,2.89.26A4.31,4.31,0,0,1,74,70a6,6,0,0,1-4.06,3.83C66.49,75,63,76.05,59.55,77.15q-6.91,2.2-13.82,4.39a17.4,17.4,0,0,1-10.13-.06c-7.09-2-14.2-3.89-21.3-5.83a2.6,2.6,0,0,0-.39-.05c-.61,1.53-1,1.78-2.61,1.79H2.24C.64,77.38,0,76.75,0,75.17V54.59c0-1.54.63-2.18,2.18-2.18h9.39c1.38,0,1.9.4,2.31,1.82l5.27-.85c-.85-.87-1.59-1.63-2.35-2.39a21.27,21.27,0,0,1-4.63-6.85,23.54,23.54,0,0,1,.1-19c.1-.22.21-.44.32-.66.45-.91,1.1-1.22,1.81-.86s.76,1,.42,1.91A29.92,29.92,0,0,0,13.2,30.2c-1.46,7.22.19,13.64,5.33,19,1,1.07,2.06,2.1,3.07,3.16a1.11,1.11,0,0,0,1.13.4c3.13-.58,6.27-1.07,9.4-1.64a25.62,25.62,0,0,1,10.28.33c1.33.28,2.68.48,4,.76a7.29,7.29,0,0,1,4,2.29c2.83,3.17,1.37,7.69-2.81,8.45a16,16,0,0,1-4.21,0c-1.95-.16-3.89-.47-5.83-.72-1.23-.16-1.94.28-2.12,1.33a1.69,1.69,0,0,0,1.6,1.89c3.85.68,7.69,1.51,11.57,1.94,1.72.2,3.54-.42,5.3-.7.2,0,.38-.29.55-.47Q63,57.61,71.4,49A20.71,20.71,0,0,0,75.66,27.5a14.38,14.38,0,0,1-12.73.15,14.49,14.49,0,0,1-8-10,19.85,19.85,0,0,0-6.29,3.88c-.55.49-1.07,1-1.59,1.53-1.88,1.83-2.46,1.84-4.31,0-.51-.5-1-1-1.53-1.47A19,19,0,0,0,29.05,16.4a13.72,13.72,0,0,0-10.6,4c-.15.15-.3.32-.46.46a1.21,1.21,0,0,1-1.72-1.7,16.48,16.48,0,0,1,2.05-1.87c5.34-3.94,11.13-4.19,17.19-2a22.19,22.19,0,0,1,8.13,5.31,14.26,14.26,0,0,1,1,1.16c1.75-1.44,3.25-2.84,4.91-4a33.28,33.28,0,0,1,4.37-2.34c.48-.23.7-.42.7-1a13.86,13.86,0,0,1,1.33-6c.44-.94,1.06-1.27,1.77-.94s.87,1,.46,1.95a12,12,0,1,0,3.74-4.61,2.08,2.08,0,0,1-1.31.45,1.35,1.35,0,0,1-.91-.86,1.63,1.63,0,0,1,.45-1.27A13.21,13.21,0,0,1,65.3.5,14.52,14.52,0,0,1,83.45,12.44a4.34,4.34,0,0,0,.16.62ZM37,53.11c-1.57.15-2.63.18-3.67.36-6.25,1-12.49,2.11-18.74,3.13-.7.11-.86.35-.86,1q0,7.26,0,14.53c0,.61.15.87.79,1C21.72,75.12,28.88,77,36,79.05a16.42,16.42,0,0,0,9.93-.11c4.41-1.46,8.85-2.83,13.27-4.25q4.93-1.57,9.85-3.17a3.71,3.71,0,0,0,2.65-2.43,1.84,1.84,0,0,0-1.27-2.51,5,5,0,0,0-2.17-.17c-4.91.93-9.8,2-14.71,2.89a17.67,17.67,0,0,1-5.23.56c-4.09-.51-8.15-1.31-12.2-2.11a4.05,4.05,0,0,1,1.44-8c2.38.27,4.74.65,7.13.85a8.36,8.36,0,0,0,3.19-.29,2.26,2.26,0,0,0,1.17-3.53A5.56,5.56,0,0,0,47,55.06a11.86,11.86,0,0,0-3-.76C41.54,53.85,39.05,53.45,37,53.11ZM11.27,74.91v-20H2.51v20Z"/><path class="cls-1" d="M52.48,43c1-1.69,2-3.28,2.91-4.91a1.87,1.87,0,0,1,1.85-1c3.1,0,6.2,0,9.3,0,1,0,1.59.42,1.59,1.21s-.55,1.23-1.58,1.23c-2.75,0-5.49,0-8.24,0a1.31,1.31,0,0,0-1.35.74c-1.06,1.87-2.17,3.7-3.28,5.54-.78,1.3-1.8,1.29-2.52,0-1.88-3.41-3.74-6.82-5.61-10.23L45,34.59c-.58,1-1.12,1.93-1.65,2.86-1,1.67-1.91,3.35-2.88,5-.72,1.25-1.7,1.26-2.48,0-.89-1.39-1.77-2.79-2.72-4.3-.7,1.15-1.36,2.16-1.94,3.22a1.83,1.83,0,0,1-1.85,1c-2.26,0-4.52,0-6.78,0-1,0-1.56-.46-1.55-1.26S23.7,40,24.69,40c2,0,4,0,6,0a1.27,1.27,0,0,0,.88-.5c.84-1.3,1.61-2.65,2.42-4s1.68-1.2,2.45,0c.89,1.39,1.76,2.79,2.71,4.29.34-.58.6-1,.87-1.51,1.25-2.19,2.5-4.39,3.77-6.58.7-1.21,1.75-1.19,2.43,0,1.92,3.47,3.82,7,5.73,10.43C52.13,42.43,52.29,42.68,52.48,43Z"/><path class="cls-1" d="M70.32,13.28h3.35a1.28,1.28,0,0,1,1.43,1,1.19,1.19,0,0,1-1.27,1.49c-1.13,0-2.27,0-3.51,0,0,1,0,1.87,0,2.76a6.29,6.29,0,0,1,0,1A1.18,1.18,0,0,1,69,20.56a1.13,1.13,0,0,1-1.12-1.18c0-1,0-1.95,0-2.93,0-.59-.2-.75-.75-.73-.93,0-1.85,0-2.78,0a1.21,1.21,0,1,1,0-2.42c1.14,0,2.28,0,3.56,0,0-.9,0-1.73,0-2.56,0-.36,0-.71,0-1.06a1.21,1.21,0,0,1,2.41,0c0,.92,0,1.85,0,2.78C70.33,12.65,70.32,12.89,70.32,13.28Z"/></g></g></svg>