<svg xmlns="http://www.w3.org/2000/svg" viewBox="0 0 87.04 97.74"><defs><style>.cls-1{fill:#1dd3f8;}</style></defs><title>HR</title><g id="Layer_2" data-name="Layer 2"><g id="Layer_1-2" data-name="Layer 1"><path class="cls-1" d="M42.38,0c1.11.23,2.24.4,3.34.7A20.75,20.75,0,0,1,61.2,20.87a8.22,8.22,0,0,1,0,.86c-.1,1.14,0,2.05,1.29,2.66a3.31,3.31,0,0,1,1.63,3.15c0,1.66,0,3.31,0,5a4,4,0,0,1-4,4c-.6,0-1.19,0-1.76,0-.17,1.71-.23,3.33-.52,4.91a18,18,0,0,1-5.22,9.66A2.38,2.38,0,0,0,52,52.57c-.07,2,0,4-.05,6a1.2,1.2,0,0,0,.88,1.33c5.82,2.47,11.62,5,17.44,7.45a15.68,15.68,0,0,1,7.76,6.9,1.28,1.28,0,0,0,.93.55c1.27.07,2.54,0,3.81,0A4.1,4.1,0,0,1,87,79.08q0,7.2,0,14.41a4.09,4.09,0,0,1-4.29,4.24h-23a4,4,0,0,1-4.26-4.17q-.07-7.25,0-14.5a4,4,0,0,1,4.32-4.21c4.67,0,9.35,0,14,0h1.31a18.43,18.43,0,0,0-1.86-2.14,14,14,0,0,0-3.09-2.2C66,68.6,61.8,66.84,57.52,65c-.2.32-.39.6-.56.89Q53.48,71.81,50,77.73c-.84,1.43-1.65,1.55-2.89.44l-5-4.43,1.25,6.52q1.47,7.58,2.93,15.15a5,5,0,0,1,.11.66,1.44,1.44,0,0,1-1.14,1.63,1.37,1.37,0,0,1-1.63-1.11c-.41-1.89-.76-3.8-1.13-5.7-.84-4.33-1.68-8.67-2.66-13-.07.27-.15.53-.21.8l-3.39,17.5c-.23,1.17-.9,1.73-1.77,1.54s-1.24-.94-1-2.12q2-10.42,4-20.87c0-.21,0-.43.08-.88-.8.71-1.45,1.28-2.1,1.87-1,.89-2,1.79-3,2.67A1.47,1.47,0,0,1,30,78q-1.71-2.86-3.37-5.76a1.42,1.42,0,0,1,.44-2.14,1.4,1.4,0,0,1,2,.68c.89,1.46,1.74,3,2.65,4.5L37.66,70c-.19-.18-.34-.34-.5-.47-2.8-2.16-5.58-4.33-8.4-6.45a1.46,1.46,0,0,0-1.16-.15,25.76,25.76,0,0,0-2.45,1c.41.73.82,1.4,1.19,2.08a1.46,1.46,0,0,1-.41,2.15c-.77.44-1.5.18-2.07-.74-.45-.73-.88-1.47-1.33-2.2,0,0-.05,0-.14-.1-3.48,1.51-7,3.08-10.52,4.55A14.56,14.56,0,0,0,5.3,74.38a12.41,12.41,0,0,0-2.42,7.39c0,4.71,0,9.42,0,14.13A1.6,1.6,0,0,1,2,97.62C1,98,0,97.29,0,96c0-2.83,0-5.66,0-8.49A74.35,74.35,0,0,1,.19,79.9,14.31,14.31,0,0,1,8.83,68c6-2.76,12-5.3,18.07-7.89a1.38,1.38,0,0,0,1-1.54c-.07-2.07,0-4.14,0-6.2a1.69,1.69,0,0,0-.44-1.06,18.39,18.39,0,0,1-5.8-13.75c0-.28,0-.56-.05-1H20a3.93,3.93,0,0,1-4.14-4.13c0-1.66,0-3.31,0-5A3.71,3.71,0,0,1,18.06,24a1,1,0,0,0,.66-1.07,22.38,22.38,0,0,1,1-8.57C22.68,6.26,28.39,1.52,36.88.17A3.27,3.27,0,0,0,37.41,0ZM21.62,23.49c.15-.23.2-.28.21-.34s.09-.37.14-.55A9.34,9.34,0,0,1,35.6,16.9a9.63,9.63,0,0,0,9.31.27,1.39,1.39,0,0,1,2,.55,1.44,1.44,0,0,1-.73,2,11.78,11.78,0,0,1-6.62,1.36A18.37,18.37,0,0,1,34,19.35a8.86,8.86,0,0,0-2.81-.81c-3.78-.2-6.67,2.78-6.7,6.85s0,8.27,0,12.4A17.54,17.54,0,0,0,25,41.47,15.42,15.42,0,0,0,55.37,38c0-4.39,0-8.78,0-13.17a6.24,6.24,0,0,0-4.27-6.23c-1.07-.44-1.47-1.11-1.14-2s1.1-1.14,2.14-.73A9.18,9.18,0,0,1,58,22.43c.06.23.12.46.23.86A18,18,0,0,0,50,5.67c-6.51-3.91-13.3-4-19.8-.13S21.12,15.77,21.62,23.49ZM71.18,94.87H82.44c1.31,0,1.72-.41,1.73-1.7V79.43c0-1.3-.42-1.72-1.71-1.72H60c-1.31,0-1.71.38-1.71,1.7q0,6.87,0,13.74c0,1.34.38,1.72,1.7,1.72ZM40,68c2.92-2.26,5.82-4.47,8.69-6.73a1.42,1.42,0,0,0,.4-1c.06-1.68.07-3.36.09-5,0-.45,0-.9,0-1.46a18.67,18.67,0,0,1-18.29.06c0,2.24,0,4.39,0,6.54a1.31,1.31,0,0,0,.39.9C34.13,63.54,37,65.76,40,68Zm14.86-4.15a18.68,18.68,0,0,1-2-.87,1.63,1.63,0,0,0-2.11.28c-2.1,1.7-4.27,3.31-6.4,5L42.2,69.91l6,5.33Zm3.51-37.39v7.21h1.31c1.31,0,1.62-.33,1.62-1.64,0-1.05,0-2.11,0-3.15.11-2.58-.37-2.57-2.69-2.5A1.3,1.3,0,0,0,58.33,26.47Zm-36.75-.09c-.65,0-1.18,0-1.72,0a1.11,1.11,0,0,0-1.19,1.19c0,1.65-.05,3.3,0,5a1.44,1.44,0,0,0,.83,1,8.11,8.11,0,0,0,2,.05Z"/></g></g></svg>