<svg xmlns="http://www.w3.org/2000/svg" viewBox="0 0 80.77 80.79"><defs><style>.cls-1{fill:#1dd3f8;}</style></defs><title>Manufacturing</title><g id="Layer_2" data-name="Layer 2"><g id="Layer_1-2" data-name="Layer 1"><path class="cls-1" d="M0,65.64c.21-.64.38-1.3.64-1.92a7.39,7.39,0,0,1,3.72-3.9,1,1,0,0,0,.65-1c0-1.34.09-2.68.16-4a.76.76,0,0,0-.46-.86,4.19,4.19,0,0,1-2.27-3.87c0-2.89,0-5.78,0-8.68a4.13,4.13,0,0,1,2.93-4.13.68.68,0,0,0,.51-.74c.12-3,.22-5.94.39-8.9a10.29,10.29,0,0,1,10.33-9.84c1.63,0,3.27,0,4.89,0a2.09,2.09,0,0,0,1.24-.49c5.46-5,10.9-10.12,16.35-15.18,3-2.8,6.28-2.76,9.19.12,1.27,1.26,2.55,2.5,3.8,3.78a6,6,0,0,1,1.48,6.39,1.39,1.39,0,0,0,.15,1.05Q57,18.71,60.34,24a5.54,5.54,0,0,1,1,3.4.83.83,0,0,0,.25.58c2.61,2.14,3.21,3.75,2.59,7.1l2.23,1.1a6.46,6.46,0,0,1,5.38-2.51,6.34,6.34,0,0,1,5.65,4c.31.83.13,1.46-.52,1.75s-1.29,0-1.67-.85A4,4,0,1,0,72,44c.31,0,.61-.13.92-.19a1.17,1.17,0,0,1,1.46.86,1.19,1.19,0,0,1-.9,1.44,6.38,6.38,0,0,1-7.2-2.55c-1-1.44-1.15-2.55-.92-5.27-.66-.33-1.32-.69-2-1a.74.74,0,0,0-.65.14,6.07,6.07,0,0,1-10.16-3A.85.85,0,0,0,52,34a5,5,0,0,1-2.77-2q-2.66-3.59-5.35-7.13c-.15-.21-.32-.41-.52-.67-.13.12-.25.21-.35.31-2.14,2.35-4.3,4.69-6.42,7.06a2,2,0,0,0-.45,1.24c0,1.39.1,2.78.17,4.15a11,11,0,0,1,1.34.52A4.23,4.23,0,0,1,40,41.4c0,2.89,0,5.78,0,8.68a4.3,4.3,0,0,1-2.49,4,1,1,0,0,0-.44.75c0,1.42.08,2.84.17,4.26a1,1,0,0,0,.43.62,14.5,14.5,0,0,1,1.82,1.23,2.17,2.17,0,0,0,1.82.65c.91,0,1.83,0,2.83,0v-.92c0-2.29,0-4.58,0-6.86a2,2,0,0,1,2.09-2.15c2.21,0,4.42,0,6.63,0A2,2,0,0,1,55,53.83c0,2.26,0,4.52,0,6.78v.91h6.81v-.85c0-2.26,0-4.52,0-6.78a2,2,0,0,1,2.24-2.25q3.19,0,6.39,0A2,2,0,0,1,72.72,54c0,2.49,0,5,0,7.61h1.73a6,6,0,0,1,6.31,6.34c0,1.29,0,2.58,0,3.87a6,6,0,0,1-6.67,6A1.17,1.17,0,0,1,74,75.47a5.82,5.82,0,0,1,.94,0A3.5,3.5,0,0,0,78.38,72c.05-1.54.05-3.1,0-4.65A3.53,3.53,0,0,0,75,64c-.32,0-.63,0-1,0H41.78c.81,3.8.18,7.61.47,11.5H68.71a3.64,3.64,0,0,1,.94,0,1.09,1.09,0,0,1,.9,1.22,1.08,1.08,0,0,1-1,1.08,6.94,6.94,0,0,1-.79,0H42.21c.06,1.3-.14,2.47-1.51,3H1.42L0,79.37ZM2.38,78.38h37.4c0-.29,0-.54,0-.8,0-3.44,0-6.88,0-10.33,0-3.68-2.21-5.87-5.89-5.88H16.5a4,4,0,0,1-.78,0,1.12,1.12,0,0,1-1-1.2A1.1,1.1,0,0,1,15.78,59a6.91,6.91,0,0,1,.79,0H34.85l-.2-4.5H7.48V59h3.37c.91,0,1.46.45,1.45,1.18s-.54,1.17-1.46,1.18c-1.08,0-2.16,0-3.23,0a5.27,5.27,0,0,0-5.2,4.95C2.3,70.32,2.38,74.32,2.38,78.38ZM36,28.62a2.9,2.9,0,0,0,.34-.28c4.75-5.2,9.52-10.38,14.25-15.6a3.54,3.54,0,0,0-.16-5.1q-2-2-4-4a3.59,3.59,0,0,0-5.44,0L30.71,13.1l-5,4.63a6.62,6.62,0,0,1,.91.11c1.16.31,2.34.59,3.46,1a1.17,1.17,0,0,1,.77,1.64c-.29.64-1,.77-1.76.51a11.63,11.63,0,0,0-3.17-.8c-3.23-.1-6.47-.14-9.7,0a7.75,7.75,0,0,0-7.6,7.56c-.19,3-.27,5.93-.4,8.9a1.84,1.84,0,0,0,.07.3H33.91c0-.34,0-.62,0-.91-.1-2.44-.24-4.88-.29-7.32a9.61,9.61,0,0,0-1.28-4.89,1.14,1.14,0,0,1,.42-1.74,1.16,1.16,0,0,1,1.6.56A10.93,10.93,0,0,1,36,28.62ZM21.13,52.08H35.32c1.6,0,2.32-.71,2.33-2.31q0-4.05,0-8.12a2,2,0,0,0-2.26-2.29H7.08a2,2,0,0,0-2.27,2.27q0,4.07,0,8.12c0,1.65.72,2.33,2.38,2.33ZM45,22.37c2.18,2.9,4.3,5.77,6.49,8.59a2.12,2.12,0,0,0,3,.32c1.09-.72,2.17-1.47,3.25-2.22a2.33,2.33,0,0,0,.73-3.64L53.2,17.08c-.45-.7-.89-1.41-1.34-2.12a1.45,1.45,0,0,0-.25.17Zm7.62,39.16V54.06h-6v7.47Zm17.7,0V54.07h-6v7.47ZM60.44,30.05c-1.77,1.2-3.51,2.36-5.22,3.57a.84.84,0,0,0-.23.73,3.64,3.64,0,0,0,3.6,2.42A3.71,3.71,0,0,0,62,34.05,3.51,3.51,0,0,0,60.44,30.05Z"/><path class="cls-1" d="M72.89,69.91a3.77,3.77,0,0,1-3.74,3.78,3.81,3.81,0,0,1-3.8-3.81,3.65,3.65,0,0,1,3.75-3.72A3.61,3.61,0,0,1,72.89,69.91ZM69.11,68.5a1.41,1.41,0,0,0,0,2.82,1.41,1.41,0,0,0,0-2.82Z"/><path class="cls-1" d="M56.32,69.92a3.78,3.78,0,1,1-3.74-3.79A3.79,3.79,0,0,1,56.32,69.92Zm-2.37,0a1.43,1.43,0,0,0-1.37-1.44,1.41,1.41,0,1,0-.06,2.82A1.43,1.43,0,0,0,54,69.94Z"/><path class="cls-1" d="M9.75,75A3.72,3.72,0,0,1,6,71.27,3.77,3.77,0,1,1,9.75,75Zm1.37-3.76a1.41,1.41,0,0,0-1.4-1.4,1.37,1.37,0,0,0-1.38,1.4,1.35,1.35,0,0,0,1.38,1.39A1.38,1.38,0,0,0,11.12,71.22Z"/><path class="cls-1" d="M24.58,72.81c-.76,0-1.33-.3-1.41-1.12s.3-1,1.44-1.39V66.06c0-1,.48-1.52,1.22-1.5s1.14.57,1.14,1.5c0,1.42,0,2.84,0,4.24,1.14.34,1.5.68,1.44,1.39s-.65,1.07-1.39,1.12c-.18,1,.32,2.43-1.31,2.37C24.3,75.12,24.68,73.81,24.58,72.81Z"/><path class="cls-1" d="M33.35,68.59v4.85c0,1.2-.39,1.78-1.17,1.78S31,74.64,31,73.45l0-4.72a.64.64,0,0,0-.07-.19c-.72-.05-1.34-.36-1.35-1.18s.62-1.2,1.41-1.27c.05-.8.3-1.44,1.19-1.52.68-.06,1.06.41,1.28,1.49,1,.25,1.43.64,1.41,1.3S34.4,68.35,33.35,68.59Z"/><path class="cls-1" d="M20.59,67.37c.82.13,1.47.4,1.46,1.25s-.58,1.17-1.44,1.21v3.41a8.23,8.23,0,0,1,0,.86,1.2,1.2,0,0,1-1.2,1.12,1.14,1.14,0,0,1-1.13-1.17c0-1.21,0-2.42,0-3.62,0-.22-.2-.58-.36-.61a1.2,1.2,0,0,1,.1-2.39,2,2,0,0,0,.29-.12c0-.49,0-1,0-1.53a1.17,1.17,0,1,1,2.34,0C20.63,66.24,20.59,66.77,20.59,67.37Z"/><path class="cls-1" d="M16.37,28a4.74,4.74,0,0,1,9.48.15,4.8,4.8,0,0,1-4.79,4.67A4.74,4.74,0,0,1,16.37,28Zm4.76-2.28A2.33,2.33,0,0,0,18.74,28a2.37,2.37,0,0,0,2.36,2.43,2.44,2.44,0,0,0,2.38-2.36A2.37,2.37,0,0,0,21.13,25.71Z"/><path class="cls-1" d="M46.87,10.5a3.51,3.51,0,0,1-3.51,3.59,3.58,3.58,0,1,1,3.51-3.59Zm-2.36,0a1.21,1.21,0,1,0-1.18,1.21A1.18,1.18,0,0,0,44.51,10.51Z"/><path class="cls-1" d="M13,50.19c-1.42,0-2.84,0-4.26,0-1,0-1.43-.42-1.44-1.45,0-1.91,0-3.83,0-5.75,0-1,.42-1.38,1.41-1.39h8.59c1,0,1.4.42,1.41,1.4,0,1.92,0,3.84,0,5.76,0,1-.44,1.42-1.46,1.43C15.85,50.2,14.43,50.19,13,50.19Zm3.29-2.41V44H9.72v3.76Z"/><path class="cls-1" d="M23.3,42.27c.9,0,1.46.45,1.46,1.17a1.24,1.24,0,0,1-1.39,1.19c-.88,0-1.45-.46-1.44-1.2S22.45,42.28,23.3,42.27Z"/><path class="cls-1" d="M28.22,42.27c.85,0,1.39.45,1.41,1.15s-.59,1.22-1.45,1.21-1.37-.45-1.38-1.17S27.3,42.27,28.22,42.27Z"/><path class="cls-1" d="M23.39,46.84c.83,0,1.38.48,1.37,1.18s-.6,1.2-1.47,1.18-1.37-.48-1.36-1.2S22.48,46.82,23.39,46.84Z"/><path class="cls-1" d="M28.17,46.84c.89,0,1.46.45,1.46,1.17a1.26,1.26,0,0,1-1.4,1.19c-.89,0-1.43-.44-1.43-1.2S27.3,46.84,28.17,46.84Z"/><path class="cls-1" d="M33.05,42.27c.9,0,1.45.46,1.43,1.19a1.24,1.24,0,0,1-1.4,1.17c-.88,0-1.43-.47-1.42-1.22S32.17,42.27,33.05,42.27Z"/><path class="cls-1" d="M33.06,46.83c.89,0,1.45.48,1.42,1.21a1.25,1.25,0,0,1-1.41,1.16c-.88,0-1.42-.47-1.41-1.22S32.18,46.84,33.06,46.83Z"/></g></g></svg>