<svg xmlns="http://www.w3.org/2000/svg" viewBox="0 0 90.95 81.58"><defs><style>.cls-1{fill:#1dd3f8;}</style></defs><title>Recruitment_1</title><g id="Layer_2" data-name="Layer 2"><g id="Layer_1-2" data-name="Layer 1"><path class="cls-1" d="M91,56.07c-.08.25-.17.49-.24.74a6.81,6.81,0,0,1-6,5c-.5,0-1,.05-1.51.05H58.4c.63,2.71,1.22,5.29,1.81,7.83,1.27.08,2.46.06,3.62.23a8.75,8.75,0,0,1,7.37,8.52,3,3,0,0,1-2.62,3.08,7.32,7.32,0,0,1-1.15.06H31.21c-2.74,0-3.91-1.27-3.67-4a8.78,8.78,0,0,1,8.37-7.84c.65,0,1.3,0,2,0,.23,0,.61-.21.65-.38.6-2.44,1.15-4.89,1.75-7.51H39.07q-12,0-24,0A7.21,7.21,0,0,1,10,60.11a6.77,6.77,0,0,1-2.32-5.27c0-4.29,0-8.58,0-12.87a1.92,1.92,0,0,0-.49-1.21C.72,34-1.54,26.09,1.05,17.16S9.65,2.76,18.62.63A23.15,23.15,0,0,1,36,3.4a3.52,3.52,0,0,0,1.64.46q22.91,0,45.81,0c4,0,6.33,1.74,7.42,5.61a1,1,0,0,0,.11.24ZM40.31,6.54c8.54,9.7,9.5,20,2.86,31.16.59.55,1.25,1.19,1.93,1.79a.85.85,0,0,0,.63.19,3.16,3.16,0,0,1,3,1.12c2.88,2.9,5.78,5.77,8.65,8.68a1.79,1.79,0,0,0,1.39.58c3.38,0,6.75,0,10.12,0a1.33,1.33,0,0,1,1.5,1.39c0,.79-.56,1.26-1.5,1.27-1.3,0-2.6,0-3.9,0H60.48c.92,3,.89,3.42-.55,6.4.31,0,.59,0,.87,0h23c2.09,0,3.71-1,4.2-2.74a21.83,21.83,0,0,0,.4-3.7H84.7c-3.25,0-6.5,0-9.76,0a1.27,1.27,0,0,1-1.42-1.26,1.34,1.34,0,0,1,1.39-1.4H88.29V11.28c0-3.1-1.65-4.74-4.78-4.74H40.31ZM23.72,2.69A21.07,21.07,0,1,0,44.84,24,21.08,21.08,0,0,0,23.72,2.69Zm-13.35,50v1.9a4.18,4.18,0,0,0,4.52,4.54q17.66,0,35.3,0c.27,0,.54,0,1.07-.07-2.06-2-3.95-3.87-5.79-5.74a2,2,0,0,0-1.55-.65q-16.23,0-32.47,0Zm39,26.19h18.1c1.1,0,1.15-.06,1-1.18a5.91,5.91,0,0,0-5-5.17,25.27,25.27,0,0,0-3.8-.14q-11.62,0-23.25,0a6.11,6.11,0,0,0-6.19,5.24c-.14,1.2-.1,1.25,1.12,1.25ZM10.41,50H42.24L41,48.87a3.32,3.32,0,0,1-1.29-3.21.73.73,0,0,0-.16-.55c-.63-.69-1.3-1.35-1.9-2-9.07,5.69-18.08,5.82-27.21.33Zm47,19.75a2.4,2.4,0,0,0,0-.38c-.53-2.33-1-4.66-1.64-7-.06-.23-.55-.48-.84-.49-3.73,0-7.45,0-11.18,0-.54,0-.78.15-.9.7-.34,1.65-.74,3.29-1.12,4.93l-.51,2.25ZM46.45,42.36l-4.09,4.07c0-.06,0,0,0,0,3.76,3.77,7.48,7.58,11.29,11.29a2.86,2.86,0,0,0,4.68-1.43,3,3,0,0,0-.94-3.05L46.9,42.76A6,6,0,0,0,46.45,42.36Zm-6.57-1,1.54,1.87,1.75-1.71-1.72-1.71Z"/><path class="cls-1" d="M67.35,17H80.56c.3,0,.68-.1.87,0,.42.31,1,.71,1,1.13s-.4,1-.74,1.33c-.17.18-.61.15-.93.16H53.84a2.8,2.8,0,0,1-.71,0,1.26,1.26,0,0,1-1.07-1.41,1.24,1.24,0,0,1,1.2-1.2,7.09,7.09,0,0,1,.8,0Z"/><path class="cls-1" d="M67.32,25.49H80.44a7.86,7.86,0,0,1,1,0,1.11,1.11,0,0,1,1.08,1.18A2.44,2.44,0,0,1,81.67,28c-.21.19-.67.15-1,.15q-13.35,0-26.69,0a3.3,3.3,0,0,1-1-.13,1.07,1.07,0,0,1-.82-1.36,2.62,2.62,0,0,1,1-1.12c.23-.16.63-.06,1-.06Z"/><path class="cls-1" d="M59.56,34c2,0,4,0,6,0,1.07,0,1.77.92,1.32,1.76a1.81,1.81,0,0,1-1.29.85c-4,.06-8.09,0-12.14,0a1.27,1.27,0,0,1-1.42-1.35c0-.8.52-1.28,1.47-1.29C55.54,34,57.55,34,59.56,34Z"/><path class="cls-1" d="M28.15,30.63c2.87.66,6.07.58,7.91,3.6a5.8,5.8,0,0,0,.5-.54c3.62-4.9,4.49-10.26,2.23-15.91a15.35,15.35,0,0,0-12.57-10A16.07,16.07,0,0,0,7.83,20.86a2.63,2.63,0,0,1-.24.84A1.21,1.21,0,0,1,6,22.33a1.25,1.25,0,0,1-.86-1.54A17.67,17.67,0,0,1,9.8,11.1c5.37-5.66,12-7.59,19.4-5.36s11.89,7.52,13.21,15.19A18.86,18.86,0,0,1,5.3,27.62,4.34,4.34,0,0,1,5.19,27a1.28,1.28,0,0,1,1-1.51,1.34,1.34,0,0,1,1.59,1.08A29.51,29.51,0,0,0,9,30.29c.61,1.35,1.46,2.6,2.31,4.07,2-3.07,5.06-3,7.88-3.68a2.09,2.09,0,0,0-.65-2.21,7,7,0,0,1-1.43-2.1,6.23,6.23,0,0,0-1.4-2.47,2.11,2.11,0,0,1-.45-1.47c-.06-1.8-.06-3.61,0-5.41a5.59,5.59,0,0,1,5.84-5.71c1.77,0,3.55,0,5.32,0a3.18,3.18,0,0,1,3.23,2,1.3,1.3,0,0,0,.62.53,3.11,3.11,0,0,1,2,3c0,1.9.06,3.79,0,5.68a4.63,4.63,0,0,1-.62,1.69c-.27.53-.62,1-.94,1.51a18.51,18.51,0,0,1-1.83,2.88A2.1,2.1,0,0,0,28.15,30.63ZM24.37,40A15.43,15.43,0,0,0,33,37.1c1.19-.81,1.2-1.51,0-2.38a3.06,3.06,0,0,0-1-.51c-1.11-.28-2.23-.54-3.36-.74a1.32,1.32,0,0,0-.94.25,6.32,6.32,0,0,1-7.95.05,1.13,1.13,0,0,0-.77-.28,33.72,33.72,0,0,0-3.85.93,3.28,3.28,0,0,0-1.27,1c-.43.48-.33.89.24,1.3A16.74,16.74,0,0,0,24.37,40ZM17.75,21.44c.17.41.2.79.38.89.8.41.93,1.14,1.07,1.92a4.53,4.53,0,0,0,4.63,3.81,4.67,4.67,0,0,0,4.49-4,5.25,5.25,0,0,1,.88-1.62c.11-.19.32-.35.33-.54,0-.61,0-1.22,0-1.88a6,6,0,0,0-4.29.49,6.93,6.93,0,0,1-3.73,1C20.34,21.43,19.17,21.44,17.75,21.44Zm11.71-4.27c.18-.55,0-.8-.58-.87a1.8,1.8,0,0,1-1.7-1.64.69.69,0,0,0-.82-.69c-1.89,0-3.78,0-5.67,0a2.74,2.74,0,0,0-2.64,2,20.09,20.09,0,0,0-.22,2.78c2.47-.1,4.81.39,7-1a5.2,5.2,0,0,1,2.2-.58A22.74,22.74,0,0,1,29.46,17.17ZM25.58,30.65H21.82c.09.47,0,1.23.3,1.41a2.78,2.78,0,0,0,3,0C25.44,31.91,25.43,31.22,25.58,30.65Z"/></g></g></svg>