<svg xmlns="http://www.w3.org/2000/svg" viewBox="0 0 94.76 94.77"><defs><style>.cls-1{fill:#1dd3f8;}</style></defs><title>Retail</title><g id="Layer_2" data-name="Layer 2"><g id="Layer_1-2" data-name="Layer 1"><path class="cls-1" d="M11.61,39.75a16.85,16.85,0,1,1,19.61-.08H44.28c0-.3,0-.6,0-.91,0-4.55,0-9.11,0-13.66a1.2,1.2,0,0,0-.69-1.27,4.43,4.43,0,0,1-2.38-4.06,18,18,0,0,1,.89-6.18C43.52,9.32,44.75,5,46,.72c.15-.49.33-.72.9-.72Q65.84,0,84.74,0l.46,0C85.93,2.5,86.66,5,87.38,7.43c.68,2.28,1.29,4.59,2.05,6.85a15,15,0,0,1,.75,5.43,4.74,4.74,0,0,1-2.49,4.23,1.18,1.18,0,0,0-.55.82c0,4.9,0,9.8,0,14.71a.82.82,0,0,0,.06.2c.63.12,1.29.19,1.93.36a7.61,7.61,0,0,1,5.63,7.42c0,6.3,0,12.6,0,18.91V86.51c0,5.06-3.18,8.26-8.2,8.26H8.22c-5,0-8.22-3.2-8.22-8.24V47.94c0-5,3.21-8.18,8.17-8.19Zm35.76,3.06H8.31c-3.46,0-5.25,1.78-5.25,5.21V86.41c0,3.52,1.77,5.3,5.26,5.3H86.44c3.45,0,5.26-1.79,5.26-5.21V48c0-3.39-1.8-5.2-5.17-5.2ZM35.15,26A13.76,13.76,0,1,0,21.36,39.75,13.77,13.77,0,0,0,35.15,26Zm30.54,13.7H84V24.47c-2.24,0-4.43,0-6.61,0a5.49,5.49,0,0,1-4-1.2,5.56,5.56,0,0,1-4,1.2c-2.26-.05-4.52,0-6.78,0-1.62,0-3.19,0-4.46-1.21a5.14,5.14,0,0,1-3.72,1.21c-1.4-.05-2.8,0-4.2,0H47.45V39.69h3V27.57H65.69Zm6-24.43c-.41-4.12-.82-8.12-1.22-12.12H61L59.77,15.25Zm-15,0c.41-4.1.8-8.1,1.21-12.15H48.5c-1.21,4-2.41,8.06-3.64,12.15Zm18,0H86.56c-1.18-4-2.33-7.85-3.53-11.73-.07-.21-.52-.41-.79-.42-1.59,0-3.18,0-4.77,0h-4C73.93,7.18,74.33,11.16,74.74,15.24ZM53.56,30.62v9.05h9v-9ZM44.32,18.39c0,.54,0,1,0,1.42A1.51,1.51,0,0,0,46,21.4c3,0,6,0,9,0a1.46,1.46,0,0,0,1.59-1.33,10.43,10.43,0,0,0,0-1.68Zm27.5,0H59.61c0,.5,0,.95,0,1.39a1.49,1.49,0,0,0,1.54,1.59q4.58,0,9.15,0a1.48,1.48,0,0,0,1.52-1.51C71.85,19.42,71.82,19,71.82,18.42Zm3.07,0c0,.54,0,1,0,1.42a1.51,1.51,0,0,0,1.64,1.59c3,0,6,0,9,0a1.46,1.46,0,0,0,1.6-1.32,11.9,11.9,0,0,0,0-1.69Z"/><path class="cls-1" d="M47.47,45.86H78.9c2.48,0,3.63,1.14,3.63,3.61V85.09c0,2.4-1.18,3.56-3.59,3.56H15.81c-2.42,0-3.58-1.15-3.58-3.56V49.37c0-2.32,1.2-3.51,3.53-3.51Zm32,3.12H15.36V85.55H79.43Z"/><path class="cls-1" d="M88.59,74.86H85.65V59.68h2.94Z"/><path class="cls-1" d="M6.16,68.73v-9H9.11v9Z"/><path class="cls-1" d="M9.11,74.88H6.19v-3H9.11Z"/><path class="cls-1" d="M15.28,18.34h4.55v-3H22.9v2.87c3.06.66,4.54,2.17,4.56,4.65H24.53c-.28-1.33-1.27-1.56-2.49-1.49s-2.41,0-3.69,0c0,.59,0,1.09,0,1.59a1.5,1.5,0,0,0,1.58,1.46c1,0,2,0,3.06,0A4.56,4.56,0,0,1,27.5,29c0,1.52,0,3,0,4.63H23v3H19.89v-3a4.58,4.58,0,0,1-3.62-1.86A19.75,19.75,0,0,1,15,29.12h3.27c.24,1.25,1.14,1.53,2.32,1.47s2.48,0,3.83,0c0-.58,0-1.11,0-1.63a1.49,1.49,0,0,0-1.61-1.42c-1,0-2,0-3,0A4.58,4.58,0,0,1,15.29,23C15.26,21.47,15.28,20,15.28,18.34Z"/><path class="cls-1" d="M68.81,36.62v-9H80.92v9Zm3-3h6V30.66h-6Z"/><path class="cls-1" d="M31.68,61.13H55c.53,4.51-1.78,8.4-2.51,12.62,2.18,1.33,3.34,3.64,2.07,6.25a4.5,4.5,0,0,1-5.3,2.36c-2.42-.67-3.45-2.54-3.22-5.89H36.47a4.7,4.7,0,0,1-.79,4.32,4.56,4.56,0,0,1-7.85-1.19c-.88-2.28,0-4.38,2.54-5.94L28.58,61.14c-1.93,0-3.83,0-5.73,0A4.57,4.57,0,0,1,22.73,52c1.21-.05,2.42,0,3.63,0a4.6,4.6,0,0,1,4.58,4C31.19,57.71,31.43,59.4,31.68,61.13Zm20.2,3.12H32.11l1.32,9.12c5.19,0,10.28,0,15.37,0a.79.79,0,0,0,.59-.42C50.23,70.07,51,67.19,51.88,64.25ZM28.14,58.07a7.25,7.25,0,0,0-.33-1.92,2,2,0,0,0-1.19-1,23,23,0,0,0-3.89,0,1.5,1.5,0,0,0,0,3C24.49,58.12,26.27,58.07,28.14,58.07Zm4,21.41A1.53,1.53,0,1,0,30.57,78,1.54,1.54,0,0,0,32.12,79.48Zm18.28,0a1.53,1.53,0,1,0-1.49-1.56A1.55,1.55,0,0,0,50.4,79.48Z"/><path class="cls-1" d="M76.35,70.27H58.13V52.05H76.35Zm-3-15.18H61.2V67.21H73.31Z"/><path class="cls-1" d="M61.16,82.46v-9h3v9Z"/><path class="cls-1" d="M67.32,73.41h2.92v9.08H67.32Z"/><path class="cls-1" d="M73.42,73.41h2.94v9H73.42Z"/></g></g></svg>