<svg xmlns="http://www.w3.org/2000/svg" viewBox="0 0 376.06 227.77"><defs><style>.cls-1{fill:#d9d9ff;}.cls-2{fill:#4cc2fc;}.cls-3{fill:#1a2089;}.cls-4{fill:#d88e19;}.cls-5{fill:#006ae6;}.cls-6{fill:#5d4efa;}.cls-7{fill:#e89a28;}.cls-8{fill:#bf7c1b;}.cls-9{fill:#3c3c75;}.cls-10{fill:#b56cf7;}.cls-11{fill:#f2f2f2;}.cls-12{fill:#5b6b6d;}.cls-13{fill:#7a7ae5;}.cls-14{opacity:0.15;}.cls-15,.cls-21{fill:#fff;}.cls-16{fill:#4747a5;}.cls-17{fill:#303c44;}.cls-18{fill:#00244f;}.cls-19{fill:#e7e9e9;}.cls-20{fill:#5454ba;}.cls-21{opacity:0.2;}.cls-22{fill:#e5e5e5;}.cls-23{fill:#6cafe0;}.cls-24{fill:#8b8bea;}</style></defs><title>administrative_solutions_1</title><g id="Layer_2" data-name="Layer 2"><g id="Layer_1-2" data-name="Layer 1"><path class="cls-1" d="M63.34,197.12l6.21-.62-.37-13.12-6.37-.32a28.51,28.51,0,0,0-3-6.86l4.2-4.77-9.34-9.21-1.59.35-3.26,3.84a28.78,28.78,0,0,0-7.45-3l-.45-6.32-13.12.1-1.59.35,1.28,5.85a28.73,28.73,0,0,0-7.71,3.15l-4.64-4-1.62.47-7.59,8.88,3.93,4.49a28.56,28.56,0,0,0-3.39,8.37l-5.84.6L0,185.67l2,12.76,5.77.35a28.59,28.59,0,0,0,3,7.1l-3.61,4.5,9.34,9.21,4.36-3.73A28.38,28.38,0,0,0,28.75,219l.51,5.75,13.12-.1.36-5.86a28.26,28.26,0,0,0,7.65-3.3l4.66,3.81L64.26,210l-4-4.67A28.38,28.38,0,0,0,63.34,197.12ZM27,199.59a11.87,11.87,0,1,1,16.78-.12A11.86,11.86,0,0,1,27,199.59Z"/><path class="cls-2" d="M61.75,197.47l6.21-.62-.37-13.12-6.37-.31a28.41,28.41,0,0,0-3-6.87l4.2-4.77L53,162.57l-4.85,4.2a28.23,28.23,0,0,0-7.45-3l-.45-6.33-13.12.1-.31,6.2a28.73,28.73,0,0,0-7.71,3.15l-4.64-4L5.3,172.2l3.93,4.49a28.56,28.56,0,0,0-3.39,8.37L0,185.67l.37,13.11,5.78.35a28.59,28.59,0,0,0,3,7.1l-3.61,4.5,9.34,9.21,4.36-3.73a28.38,28.38,0,0,0,7.88,3.15l.51,5.75L40.79,225l.36-5.87a28.26,28.26,0,0,0,7.65-3.3l4.66,3.81,9.21-9.35-4-4.67A28.38,28.38,0,0,0,61.75,197.47ZM25.42,200a11.87,11.87,0,1,1,16.78-.13A11.86,11.86,0,0,1,25.42,200Z"/><path class="cls-3" d="M359.35,145.41c-6.21-2.72-29,6.16-29,6.16l5.5,2.69s17-3.79,17.26-4.06S359.35,145.41,359.35,145.41Z"/><rect class="cls-4" x="348.19" y="213.47" width="3.44" height="6.71" transform="translate(31.91 -44.57) rotate(7.64)"/><rect class="cls-4" x="364.38" y="213.69" width="3.29" height="6.71" transform="translate(-20.59 39.26) rotate(-5.97)"/><path class="cls-5" d="M347.75,218.17c-.9.61-7.06,2.26-7.07,3.18,0,1.82,4.6.55,7.27.53,1,0,3.22.23,3.23-.64s.48-1.88-.85-1.78C347.74,219.64,348.58,217.61,347.75,218.17Z"/><path class="cls-6" d="M350.92,175s-3.82,42.45-3.56,42.45,4.77.4,4.77.4l8.14-42.88Z"/><path class="cls-6" d="M368.27,174.65c-1.51.25-10.6.08-10.6.08l1.1,7.1,1.5.63,3.43,36,5.23-.45Z"/><path class="cls-3" d="M351.42,145.38s6-2.23,16.83-1.23c2.89.27,2,30.69,2,30.69l-20,.48C350.75,172.52,351.42,145.38,351.42,145.38Z"/><path class="cls-7" d="M359.76,145.74h0a2.24,2.24,0,0,1-2.84-1.42l-1.4-4.29a2.22,2.22,0,0,1,1.4-2.8h0a2.23,2.23,0,0,1,2.84,1.41l1.4,4.29A2.24,2.24,0,0,1,359.76,145.74Z"/><ellipse class="cls-8" cx="357.28" cy="140.4" rx="2.82" ry="2.79"/><rect class="cls-7" x="351.63" y="134.61" width="5.55" height="5.93" transform="translate(-25.66 128.46) rotate(-19.84)"/><ellipse class="cls-7" cx="355.82" cy="139.89" rx="3.32" ry="3.2" transform="translate(-25.04 106.34) rotate(-16.43)"/><path class="cls-9" d="M350.16,133.24h5.77a3.42,3.42,0,0,1,3.42,3.42v0a0,0,0,0,1,0,0h-5.77a3.42,3.42,0,0,1-3.42-3.42v0A0,0,0,0,1,350.16,133.24Z" transform="translate(-24.75 128.79) rotate(-19.9)"/><path class="cls-9" d="M357.68,134.41h2.74a0,0,0,0,1,0,0v5.71a0,0,0,0,1,0,0h0a2.74,2.74,0,0,1-2.74-2.74v-3A0,0,0,0,1,357.68,134.41Z" transform="translate(-25.34 136.3) rotate(-20.78)"/><circle class="cls-7" cx="357.85" cy="137.17" r="1.56"/><path class="cls-8" d="M358.43,137.09a.55.55,0,0,1-.55.55.55.55,0,0,1-.54-.55.54.54,0,0,1,.54-.54A.55.55,0,0,1,358.43,137.09Z"/><path class="cls-3" d="M341.16,148.31c-5.81-1-16-.31-17.41-.37h-.16s.06,3.93.61,4.15,15,.72,15,.72l4.67-2.41Z"/><rect class="cls-10" x="285.61" y="150.78" width="65.14" height="38.74" rx="3.02"/><rect class="cls-10" x="285.62" y="150.81" width="63.41" height="38.63" rx="3.01"/><rect class="cls-3" x="285.65" y="156.78" width="63.41" height="9.01"/><rect class="cls-3" x="330.41" y="171.56" width="14.85" height="8.24" rx="4.12"/><rect class="cls-3" x="318.4" y="171.51" width="2.72" height="7.59" rx="1.36"/><rect class="cls-3" x="313.53" y="171.51" width="2.72" height="7.59" rx="1.36"/><rect class="cls-3" x="308.66" y="171.51" width="2.72" height="7.59" rx="1.36"/><rect class="cls-3" x="303.04" y="171.51" width="2.72" height="7.59" rx="1.36"/><path class="cls-3" d="M364.89,151.79c-.59-4.78,3.31-8.24,3.81-7.29A73.7,73.7,0,0,1,376,168.9c.41,3.54-5.74,4.29-6.93-1.5-1.38-6.73-2.37-10.14-2.37-10.14Z"/><path class="cls-7" d="M344,168.93a.78.78,0,0,1,.93-.54c4.25,1,4.87-.07,5.33-.26.63-.25.51-.88.51-2.15,0,0,3.06,2.48,3.1,3.61s-2.49,3.74-8,1.2C344.16,170,343.89,169.37,344,168.93Z"/><path class="cls-7" d="M345.83,170.79c-1.67-.77-1.94-1.42-1.83-1.86a.78.78,0,0,1,.93-.54l.47.1c-.48.14-.78.33-.78.53,0,.42,1.26.77,2.81.77s2.8-.35,2.8-.77c0-.19-.26-.36-.68-.5a3.27,3.27,0,0,0,1.22-2.54s3.06,2.48,3.1,3.61S351.38,173.33,345.83,170.79Z"/><path class="cls-3" d="M353.3,167.66l-1,5.48s21.13.14,23.1-2.18c.87-1-.19-5.54-.19-5.54Z"/><path class="cls-5" d="M367.94,218.8c1.92,1.54,6.83,1.9,6.74,3.51-.07,1.22-5,.09-7.6,0-.72,0-2.5,0-2.5-.82,0-.68,0-1.82.35-1.77C366.7,220,367.55,218.49,367.94,218.8Z"/><path class="cls-11" d="M297.17,214.81l-229.76.11c-4.54,0-7.8-4.33-7.79-10.27l.24-147.81c0-4.92,4.38-9.46,9-9.46l225.32-.11c4.77,0,9.39,4.73,9.42,9.73l1,148C304.67,210.7,301.58,214.81,297.17,214.81Z"/><path class="cls-3" d="M294.87,214.81l-229.52.11c-4.54,0-7.79-4.33-7.78-10.27l.24-147.81c0-4.92,4.38-9.46,9-9.46l225.09-.11c4.76,0,9.38,4.73,9.41,9.73l1,148C302.37,210.7,299.29,214.81,294.87,214.81Z"/><path class="cls-2" d="M286.54,206.49,74.2,206.21c-4.81,0-8.28-4.54-8.3-10.75L65.5,66.14c0-5.39,4.7-10.35,9.75-10.35l209.09-.1c5.16,0,10.09,5.12,10.1,10.59l.19,129.78C294.64,202.13,291.29,206.5,286.54,206.49Z"/><path class="cls-5" d="M294.63,196.06c0,.18,0,.35,0,.52s0,.25,0,.38L66,197.07l0-.38c0-.4,0-.81,0-1.23l0-4.93-.23-74.94L65.5,66.14c0-5.4,4.7-10.35,9.75-10.35l209.08-.1a7.65,7.65,0,0,1,1.59.15,11.13,11.13,0,0,1,8.52,10.43l.05,35.56h0l.13,88.59Z"/><path class="cls-12" d="M280.54,220.81l-200.87.09c-.8,0-1.42-.37-1.39-.84l0-.38,203.59-.09,0,.38C282,220.43,281.34,220.81,280.54,220.81Z"/><path class="cls-13" d="M290.56,220.25l-213.88.1c-.86,0-1.51-.54-1.47-1.21l.21-3.65a.8.8,0,0,1,.83-.68l214.79-.1a.78.78,0,0,1,.82.68L292,219C292.08,219.7,291.41,220.25,290.56,220.25Z"/><path class="cls-3" d="M57.36,219H306.67a0,0,0,0,1,0,0v0a8.7,8.7,0,0,1-8.7,8.7H66.07a8.7,8.7,0,0,1-8.7-8.7v0a0,0,0,0,1,0,0Z"/><g class="cls-14"><path class="cls-15" d="M294.51,101.88h0L218.85,197H173.72L286,55.89a11.16,11.16,0,0,1,8.52,10.44Z"/><polygon class="cls-15" points="246.31 55.73 133.95 197.01 107.18 197.01 219.54 55.73 246.31 55.73"/><path class="cls-15" d="M195.07,55.73,82.7,197H66l0-.37c0-.41,0-.82,0-1.24v-4.92l-.2-74.94,47.57-59.81Z"/></g><rect class="cls-3" x="65.71" y="188.93" width="228.71" height="8.95" transform="translate(0.75 -0.69) rotate(0.22)"/><circle class="cls-2" cx="179.81" cy="51.98" r="2.45" transform="translate(87.91 215.04) rotate(-76.72)"/><polygon class="cls-2" points="181.33 13.46 99.47 64.62 262.79 65.25 181.33 13.46"/><rect class="cls-2" x="115.5" y="79.88" width="130.88" height="4.79" transform="translate(0.32 -0.7) rotate(0.22)"/><rect class="cls-2" x="104.37" y="173.4" width="152.14" height="7.96" transform="translate(0.68 -0.69) rotate(0.22)"/><rect class="cls-2" x="96.7" y="180.95" width="167.42" height="8.01" transform="translate(0.71 -0.69) rotate(0.22)"/><rect class="cls-2" x="112.81" y="88.21" width="21.36" height="5.7" transform="translate(0.35 -0.47) rotate(0.22)"/><rect class="cls-2" x="112.54" y="157.61" width="21.36" height="8.13" transform="translate(0.62 -0.47) rotate(0.22)"/><rect class="cls-2" x="113.37" y="155.31" width="19.75" height="2.29" rx="1.15" transform="translate(0.6 -0.47) rotate(0.22)"/><rect class="cls-2" x="114.41" y="153.65" width="17.79" height="1.67" transform="translate(0.6 -0.47) rotate(0.22)"/><rect class="cls-2" x="113.38" y="151.98" width="19.75" height="1.67" rx="0.83" transform="translate(0.59 -0.47) rotate(0.22)"/><polygon class="cls-2" points="131.96 152.01 114.59 151.95 116.01 93.87 130.99 93.93 131.96 152.01"/><polygon class="cls-2" points="131.96 152.01 114.59 151.95 116.01 93.87 130.99 93.93 131.96 152.01"/><rect class="cls-2" x="112.01" y="92.25" width="22.95" height="1.72" rx="0.86" transform="translate(0.36 -0.47) rotate(0.22)"/><rect class="cls-2" x="226.29" y="88.21" width="21.36" height="5.7" transform="translate(0.35 -0.91) rotate(0.22)"/><rect class="cls-2" x="226.13" y="157.94" width="21.36" height="8.13" transform="translate(0.62 -0.91) rotate(0.22)"/><rect class="cls-2" x="226.85" y="155.31" width="19.75" height="2.29" rx="1.15" transform="translate(0.6 -0.91) rotate(0.22)"/><rect class="cls-2" x="227.89" y="153.65" width="17.79" height="1.67" transform="translate(0.6 -0.91) rotate(0.22)"/><rect class="cls-2" x="226.86" y="151.98" width="19.75" height="1.67" rx="0.83" transform="translate(0.59 -0.91) rotate(0.22)"/><polygon class="cls-2" points="245.43 152.01 228.07 151.95 229.48 93.87 244.46 93.93 245.43 152.01"/><rect class="cls-2" x="225.49" y="92.25" width="22.95" height="1.72" rx="0.86" transform="translate(0.36 -0.91) rotate(0.22)"/><rect class="cls-2" x="149.8" y="88.21" width="21.36" height="5.7" transform="translate(0.35 -0.62) rotate(0.22)"/><rect class="cls-2" x="149.53" y="157.61" width="21.36" height="8.13" transform="translate(0.62 -0.62) rotate(0.22)"/><rect class="cls-2" x="150.36" y="155.31" width="19.75" height="2.29" rx="1.15" transform="translate(0.6 -0.62) rotate(0.22)"/><rect class="cls-2" x="151.4" y="153.65" width="17.79" height="1.67" transform="translate(0.6 -0.62) rotate(0.22)"/><rect class="cls-2" x="150.37" y="151.98" width="19.75" height="1.67" rx="0.83" transform="translate(0.59 -0.62) rotate(0.22)"/><polygon class="cls-2" points="168.94 152.01 151.58 151.95 152.99 93.87 167.97 93.93 168.94 152.01"/><rect class="cls-2" x="149" y="92.25" width="22.95" height="1.72" rx="0.86" transform="translate(0.36 -0.62) rotate(0.22)"/><rect class="cls-2" x="188.32" y="88.21" width="21.36" height="5.7" transform="translate(0.35 -0.76) rotate(0.22)"/><rect class="cls-2" x="188.05" y="157.61" width="21.36" height="8.13" transform="translate(0.62 -0.76) rotate(0.22)"/><rect class="cls-2" x="188.87" y="155.31" width="19.75" height="2.29" rx="1.15" transform="translate(0.6 -0.76) rotate(0.22)"/><rect class="cls-2" x="189.92" y="153.65" width="17.79" height="1.67" transform="translate(0.6 -0.76) rotate(0.22)"/><rect class="cls-2" x="188.89" y="151.98" width="19.75" height="1.67" rx="0.83" transform="translate(0.59 -0.76) rotate(0.22)"/><polygon class="cls-2" points="207.46 152.01 190.1 151.95 191.51 93.87 206.49 93.93 207.46 152.01"/><rect class="cls-2" x="187.51" y="92.25" width="22.95" height="1.72" rx="0.86" transform="translate(0.36 -0.76) rotate(0.22)"/><rect class="cls-2" x="113.3" y="72.93" width="135.12" height="11.75" transform="translate(0.3 -0.7) rotate(0.22)"/><polygon class="cls-2" points="181.41 16.64 104.56 64.68 257.89 65.27 181.41 16.64"/><polygon class="cls-2" points="117.77 62.59 181.38 22.83 244.69 63.08 117.77 62.59"/><polygon class="cls-2" points="128.26 59.76 181.25 26.64 233.98 60.16 128.26 59.76"/><rect class="cls-2" x="104.44" y="64.96" width="153.4" height="3.45" transform="translate(0.26 -0.7) rotate(0.22)"/><rect class="cls-2" x="111.79" y="70.43" width="138.52" height="3.77" transform="translate(0.28 -0.7) rotate(0.22)"/><rect class="cls-2" x="107.14" y="68.47" width="148.04" height="2.95" transform="translate(0.27 -0.7) rotate(0.22)"/><path class="cls-3" d="M167,50.17a4.77,4.77,0,0,0,.43.31,2.65,2.65,0,0,1,1.14,2.84,2.6,2.6,0,0,1-1.95,2.24,6,6,0,0,1-1.69.27c-1.4,0-2.8,0-4.2,0a2.53,2.53,0,0,1-.5-.09c0-3.68,0-7.33,0-11.05.26,0,.5-.07.74-.07,1.28,0,2.55,0,3.83,0a6.73,6.73,0,0,1,1.77.32,2.85,2.85,0,0,1,.8,4.88C167.24,49.93,167.13,50,167,50.17ZM162.09,54c1.16,0,2.26.07,3.36,0a1.26,1.26,0,0,0,1.2-1.35,1.34,1.34,0,0,0-1.14-1.51,17.64,17.64,0,0,0-3.41-.1Zm0-4.78c1.08,0,2.06,0,3,0a1.28,1.28,0,0,0,1.34-1.31,1.29,1.29,0,0,0-1.15-1.49,19.18,19.18,0,0,0-3.22-.07Z"/><path class="cls-3" d="M190.67,55.87a2.57,2.57,0,0,1-.34.07c-1.47.08-1.47.08-2.3-1.16L184.15,49a3.9,3.9,0,0,0-.63-.76c-.2,2.53-.08,5.06-.18,7.63h-1.79c0-3.71,0-7.36,0-11.15a8.84,8.84,0,0,0,1,0,1.23,1.23,0,0,1,1.32.68c1.36,2.11,2.78,4.19,4.19,6.28.17.26.36.51.69,1,.1-1.47,0-2.72.06-4s0-2.54,0-3.88h1.74C190.83,45.45,190.85,54.5,190.67,55.87Z"/><path class="cls-3" d="M195.52,50.23c.32-.35.65-.68,1-1,1.2-1.32,2.41-2.63,3.6-4a1.2,1.2,0,0,1,1.07-.47,7,7,0,0,1,1.69.19l-4.26,4.46,4.6,6.55A18.57,18.57,0,0,1,201,56c-.23,0-.45-.32-.61-.54-.87-1.22-1.72-2.45-2.57-3.68-.18-.26-.37-.51-.53-.72-.64.57-1.26,1.1-1.83,1.69a1.33,1.33,0,0,0-.19.79c0,.76,0,1.53,0,2.38h-1.85c0-3.68,0-7.35,0-11.08h1.82c0,1.8,0,3.57,0,5.34Z"/><path class="cls-3" d="M173.82,44.7h2.06c1.41,3.67,2.82,7.34,4.27,11.13h-2l-.82-2.06-5,0c-.22.54-.45,1.1-.65,1.66a.59.59,0,0,1-.62.47c-.47,0-.94,0-1.57,0Zm2.83,7.23-1.76-4.69-.17,0L173,51.91Z"/><rect class="cls-2" x="99.43" y="64.94" width="163.36" height="3.62" transform="translate(0.26 -0.7) rotate(0.22)"/><rect class="cls-2" x="111.67" y="84.66" width="138.52" height="3.77" transform="translate(0.33 -0.7) rotate(0.22)"/><rect class="cls-2" x="109.61" y="165.96" width="142" height="7.43" transform="translate(0.65 -0.69) rotate(0.22)"/><path class="cls-2" d="M120.12,114.18a179.07,179.07,0,0,1,1.12-20.29l-5.23,0L114.59,152l9.89,0C121.78,142.19,120.12,128.87,120.12,114.18Z"/><path class="cls-2" d="M157.14,114.18a179.16,179.16,0,0,1,1.11-20.29l-5.23,0L151.61,152l9.89,0C158.8,142.19,157.14,128.87,157.14,114.18Z"/><path class="cls-2" d="M195.49,114.18a179.07,179.07,0,0,1,1.12-20.29l-5.24,0L190,152l9.89,0C197.15,142.19,195.49,128.87,195.49,114.18Z"/><path class="cls-2" d="M233.51,114.18a179.07,179.07,0,0,1,1.12-20.29l-5.24,0L228,152l9.89,0C235.17,142.19,233.51,128.87,233.51,114.18Z"/><rect class="cls-2" x="114.17" y="151.08" width="18.39" height="0.9" rx="0.45" transform="translate(0.58 -0.47) rotate(0.22)"/><polygon class="cls-2" points="131.06 97.27 115.91 97.21 113.37 93.86 133.54 93.94 131.06 97.27"/><polygon class="cls-2" points="244.54 97.27 229.39 97.21 226.84 93.86 247.02 93.94 244.54 97.27"/><rect class="cls-2" x="227.64" y="151.08" width="18.39" height="0.9" rx="0.45" transform="translate(0.58 -0.91) rotate(0.22)"/><polygon class="cls-2" points="168.05 97.27 152.9 97.21 150.36 93.86 170.53 93.94 168.05 97.27"/><rect class="cls-2" x="151.16" y="151.08" width="18.39" height="0.9" rx="0.45" transform="translate(0.58 -0.62) rotate(0.22)"/><polygon class="cls-2" points="206.57 97.27 191.41 97.21 188.87 93.86 209.05 93.94 206.57 97.27"/><rect class="cls-2" x="189.67" y="151.08" width="18.39" height="0.9" rx="0.45" transform="translate(0.58 -0.76) rotate(0.22)"/><rect class="cls-4" x="78.46" y="11.12" width="4.12" height="4.65" transform="translate(50.96 89.54) rotate(-78.25)"/><path class="cls-6" d="M86.07,36.48h0a2.69,2.69,0,0,1-4-.83l-8-11.12c-.85-1.32-.15-3.27,1.55-4.35h0c1.7-1.09,1.84.57,2.68,1.89l7.6,11C86.76,34.4,87.77,35.39,86.07,36.48Z"/><path class="cls-7" d="M96.68,29.66l0-.06a1,1,0,0,1,1.19-.55l4.18,1.73a.85.85,0,0,1,.34,1.19l0,.05a1,1,0,0,1-1.19.55L97,30.84A.83.83,0,0,1,96.68,29.66Z"/><path class="cls-6" d="M83.38,34.6h0a2.31,2.31,0,0,1,1.62-3L98.41,28.7l-.07,2.65-13,5.35C84.17,37,83.79,36.17,83.38,34.6Z"/><polygon class="cls-7" points="77.87 20.44 74.54 19.51 76.45 14.38 79.77 15.31 77.87 20.44"/><path class="cls-7" d="M94,26.86h0a1.07,1.07,0,0,1,.11-1.51l4.26-3.67a1.07,1.07,0,0,1,1.51.11h0a1.08,1.08,0,0,1-.11,1.51L95.47,27A1.07,1.07,0,0,1,94,26.86Z"/><path class="cls-7" d="M99.53,23l-.69-.22a.45.45,0,0,1-.23-.7l2.83-3.79a.45.45,0,0,1,.72,0h0a.44.44,0,0,1,0,.49l-2.13,4A.45.45,0,0,1,99.53,23Z"/><path class="cls-7" d="M101.36,31.33l.54-.35a.4.4,0,0,1,.61.19l1,3.75a.41.41,0,0,1-.41.49h0a.39.39,0,0,1-.36-.21l-1.52-3.4A.37.37,0,0,1,101.36,31.33Z"/><path class="cls-16" d="M98,22.87h0a.55.55,0,0,1-.2-.76l3.78-6.49a.57.57,0,0,1,.77-.21h0a.56.56,0,0,1,.2.77l-3.78,6.49A.56.56,0,0,1,98,22.87Z"/><path class="cls-2" d="M83.5,45.94s14.34-8,15-9.87.4-4.18-1.79-4.11-18.44,7-19.16,8.57S77.06,44.8,83.5,45.94Z"/><path class="cls-2" d="M96.34,31.92s1.12-.69,3.27,1,14,13.25,14,13.25L112,48.14s-15.35-7.86-15.86-10.5a31.49,31.49,0,0,0-1.39-4.89Z"/><path class="cls-3" d="M110.17,47.08l0,1c0,.42.53.32,1,.31,5.37-.08,7.41.24,7.4-.23,0-1.48-6.55-3.55-6.55-3.55Z"/><path class="cls-3" d="M91.13,63.39s-2.31.79-1.77,1.79c5.14,9.61,4.71,6.35,4.71,6.35l.55-7.7Z"/><path class="cls-2" d="M74.19,45.29a5.86,5.86,0,0,0,4.33,3.21c4.14.1,14.32.25,21.56-.29,3.08-.23,3.78-3.81,1.89-5.15s-20.44-3.57-22.18-2.61C78.35,41.25,73.06,41.92,74.19,45.29Z"/><path class="cls-2" d="M102.59,47.12c-1,2.58-8,17.14-8,17.14l-3.39-.81s3.19-16.19,7.94-20.39C100.49,41.87,103.63,44.54,102.59,47.12Z"/><path class="cls-7" d="M97.43,23.45h-.56c-.25-.13-.34-1,.48-1.62l1.79-1.71a.46.46,0,0,1,.6.12h0a.37.37,0,0,1,0,.4l-1.88,2.75A.35.35,0,0,1,97.43,23.45Z"/><ellipse class="cls-8" cx="78.52" cy="16.08" rx="2.06" ry="2.38" transform="translate(44.74 88.77) rotate(-76.65)"/><path class="cls-7" d="M82.5,16.45c0,.42-.58-.29-.72-.06A3.13,3.13,0,0,1,78.23,18c-1.44-.55-2-2.47-1.27-4.3s2.49-2.87,3.93-2.32S82.76,14.08,82.5,16.45Z"/><path class="cls-9" d="M79.48,8.2a2,2,0,0,1-4-.11C75.54,7,76,6,77.13,6A2.5,2.5,0,0,1,79.48,8.2Z"/><path class="cls-9" d="M83.38,12.12c-.06,2.08-5.35-.35-4.46,2,.56,1.48-2.19,2-3.6.63a4.13,4.13,0,0,1-1.24-3.15c.19-2.28,3.15-3.37,4.48-3.34C81.28,8.3,83.44,10.05,83.38,12.12Z"/><path class="cls-7" d="M80.12,14.2a1.34,1.34,0,1,1-.84-1.7A1.34,1.34,0,0,1,80.12,14.2Z"/><path class="cls-6" d="M83.58,36.82c.09.23,1.34,9.25-4.72,10.31-2.43.42-5.77.22-6-8.33-.18-5.57-.11-5.73-.69-8.92-1.18-6.41-1-12.93,4.69-11.2,1.83.56,5.81,6.78,5.5,7.72C81.27,29.56,83.11,35.7,83.58,36.82Z"/><path class="cls-6" d="M80.07,33.66h0c-.7-1.46.05-2.41,1.29-3l14.11-6.85,1.29,2.25L84,35.54C82.8,36.13,80.77,35.13,80.07,33.66Z"/><path class="cls-6" d="M84.39,35.33h0c-1.36.87-3.21,1-4-.37L73,23a2.9,2.9,0,0,1,1-4h0c1.37-.87,3.19.14,4,1.46l6,11.63C84.8,33.43,85.76,34.45,84.39,35.33Z"/><path class="cls-7" d="M101.05,31.73l.62-.21a.4.4,0,0,1,.55.33l0,3.83a.42.42,0,0,1-.53.37h0a.37.37,0,0,1-.3-.29l-.64-3.62A.38.38,0,0,1,101.05,31.73Z"/><path class="cls-8" d="M78.3,13.39a.6.6,0,0,0,.51.83.61.61,0,0,0,.6-.37.6.6,0,1,0-1.11-.46Z"/><path class="cls-7" d="M322.36,149.36c-.74.58-2,4.34-1,4.34,2.66,0,2-2.39,6.26-3.06.29,0-.13-2.53-.13-2.53C324.18,148.24,323.41,148.54,322.36,149.36Z"/><path class="cls-15" d="M253.76,219,297,219c5.86,0,10.61-4.59,10-10.24l-.1-90.86c.56-5.65-4.19-10.23-10.05-10.22l-43.19,0A10.42,10.42,0,0,0,243.05,118l.09,90.86A10.43,10.43,0,0,0,253.76,219Z"/><rect class="cls-17" x="241.02" y="107.69" width="64.15" height="111.47" rx="32.07" transform="matrix(-1, 0, 0, -1, 546.35, 326.57)"/><rect class="cls-6" x="241.02" y="107.69" width="64.15" height="111.47" rx="7.76"/><path class="cls-18" d="M302.46,206.13a2.2,2.2,0,0,1-2.21,2.17l-51.43,0H245.9a2.19,2.19,0,0,1-2.21-2.16V182l0-14.88v-25l0-21.37a2.19,2.19,0,0,1,2.21-2.17l21.88,0h9.79l15.78,0h6.9a2.18,2.18,0,0,1,2.21,2.16v13.38l0,21.8Z"/><path class="cls-19" d="M275.89,115.55h0a.42.42,0,0,0,.08-.62,4.32,4.32,0,0,0-3.27-1.45,4.27,4.27,0,0,0-3.22,1.49.41.41,0,0,0,.09.62h0a.42.42,0,0,0,.55-.09,3.48,3.48,0,0,1,5.21,0A.43.43,0,0,0,275.89,115.55Z"/><path class="cls-19" d="M277.32,115h0a.41.41,0,0,0,.13-.59,5.82,5.82,0,0,0-9.23-.25.4.4,0,0,0,.1.59h0a.42.42,0,0,0,.56-.08,5,5,0,0,1,7.88.21A.42.42,0,0,0,277.32,115Z"/><path class="cls-19" d="M274.4,116.5l.1-.07a.35.35,0,0,0,.05-.54,2.59,2.59,0,0,0-3.3-.27.35.35,0,0,0-.05.54l0,0a.5.5,0,0,0,.6.06,1.79,1.79,0,0,1,.9-.27,1.76,1.76,0,0,1,1.22.49A.38.38,0,0,0,274.4,116.5Z"/><rect class="cls-20" x="299.36" y="122.1" width="0.78" height="1.69" rx="0.39" transform="translate(601.52 240.88) rotate(179.05)"/><rect class="cls-20" x="298.03" y="121.64" width="0.78" height="2.18" rx="0.39" transform="translate(598.84 240.47) rotate(179.05)"/><rect class="cls-20" x="296.7" y="121.17" width="0.78" height="2.67" rx="0.39" transform="translate(596.15 240.11) rotate(179.06)"/><rect class="cls-20" x="295.36" y="120.85" width="0.78" height="3.02" rx="0.39" transform="translate(593.49 239.77) rotate(179.05)"/><rect class="cls-11" x="253.45" y="159.92" width="40.76" height="3.89" rx="1.94"/><path class="cls-6" d="M255.4,159.92h26.73a0,0,0,0,1,0,0v3.89a0,0,0,0,1,0,0H255.4a1.94,1.94,0,0,1-1.94-1.94v0a1.94,1.94,0,0,1,1.94-1.94Z"/><rect class="cls-2" x="257.16" y="189.52" width="31.61" height="12.18" rx="6.09"/><polygon class="cls-18" points="256.41 181.82 253.64 180.44 250.91 181.9 251.39 178.9 249.14 176.81 252.2 176.33 253.53 173.58 254.95 176.28 258.03 176.68 255.84 178.83 256.41 181.82"/><polygon class="cls-18" points="266.42 181.82 263.65 180.44 260.93 181.9 261.41 178.9 259.15 176.81 262.22 176.33 263.55 173.58 264.96 176.28 268.04 176.68 265.85 178.83 266.42 181.82"/><polygon class="cls-18" points="276.44 181.82 273.67 180.44 270.95 181.9 271.42 178.9 269.17 176.81 272.23 176.33 273.56 173.58 274.98 176.28 278.06 176.68 275.87 178.83 276.44 181.82"/><polygon class="cls-18" points="286.45 181.82 283.69 180.44 280.96 181.9 281.44 178.9 279.18 176.81 282.25 176.33 283.58 173.58 285 176.28 288.07 176.68 285.88 178.83 286.45 181.82"/><polygon class="cls-18" points="296.47 181.82 293.7 180.44 290.98 181.9 291.45 178.9 289.2 176.81 292.26 176.33 293.6 173.58 295.01 176.28 298.09 176.68 295.9 178.83 296.47 181.82"/><rect class="cls-18" x="263.71" y="133.45" width="18.28" height="17.43"/><rect class="cls-18" x="266.24" y="134.28" width="2.59" height="16.33"/><rect class="cls-18" x="271.38" y="134.28" width="2.59" height="16.33"/><rect class="cls-18" x="276.68" y="134.28" width="2.59" height="16.33"/><rect class="cls-18" x="262" y="148.84" width="21.59" height="3"/><polygon class="cls-18" points="272.97 124.23 260.91 133.87 260.91 135.08 284.62 135.08 284.62 133.87 272.97 124.23"/><polygon class="cls-21" points="277.48 118.55 243.64 151.69 243.63 142.12 267.69 118.56 277.48 118.55"/><path class="cls-21" d="M302.37,124.51,243.67,182l0-14.88,49.61-48.58h6.9a2.18,2.18,0,0,1,2.21,2.16Z"/><path class="cls-21" d="M302.41,155.87l-53.59,52.48H245.9a2.19,2.19,0,0,1-2.21-2.16V191.56l58.7-57.49Z"/><path class="cls-15" d="M248.37,125.47a2.18,2.18,0,1,1,2.23-2.18A2.21,2.21,0,0,1,248.37,125.47Zm0-3.83a1.65,1.65,0,1,0,1.69,1.65A1.66,1.66,0,0,0,248.37,121.64Z"/><path class="cls-15" d="M253.4,125.47a2.18,2.18,0,1,1,2.23-2.18A2.21,2.21,0,0,1,253.4,125.47Zm0-3.83a1.65,1.65,0,1,0,1.69,1.65A1.66,1.66,0,0,0,253.4,121.64Z"/><path class="cls-15" d="M258.43,125.47a2.18,2.18,0,1,1,2.23-2.18A2.21,2.21,0,0,1,258.43,125.47Zm0-3.83a1.65,1.65,0,1,0,1.69,1.65A1.67,1.67,0,0,0,258.43,121.64Z"/><circle class="cls-6" cx="68.19" cy="153.89" r="19.6"/><circle class="cls-3" cx="71.34" cy="153.2" r="19.6"/><circle class="cls-3" cx="71.34" cy="153.2" r="18.21" transform="translate(-87.43 95.31) rotate(-45)"/><path class="cls-6" d="M88,152.83a16.64,16.64,0,0,1-30.44,9.69,16.49,16.49,0,0,1-2.72-7.16,17.53,17.53,0,0,1-.13-1.79,16.65,16.65,0,0,1,15.73-17l.54,0a16.66,16.66,0,0,1,14.2,7.36A16.52,16.52,0,0,1,88,152.83Z"/><path class="cls-3" d="M75.41,137.05A16.66,16.66,0,0,1,65.5,168.8a16.66,16.66,0,1,0,9.91-31.75Z"/><path class="cls-2" d="M69.6,165l-.23-2.93a8.6,8.6,0,0,1-4.55-.92l.54-2c.91,0,1.3-.07,1.3-.07a9.22,9.22,0,0,0,3,1c2.07-.16,3.37-1.47,3.23-3.12s-1.34-2.5-3.55-3.2c-3.06-.92-5-2.11-5.2-4.64s1.38-4.37,4-5l-.24-2.94,1.8-.14.23,2.82a7.85,7.85,0,0,1,3.85.71l.7,1.86-1.27.12a7,7,0,0,0-3.74-.7c-2.23.18-3,1.58-2.88,2.75.12,1.51,1.26,2.17,3.87,3,3.09,1,4.72,2.37,4.92,4.95a5.07,5.07,0,0,1-4.19,5.31l.24,3Z"/><path class="cls-3" d="M70.87,164.92,70.64,162a8.51,8.51,0,0,1-4.55-.92l.54-2a7.8,7.8,0,0,0,4.28.91c2.07-.16,3.37-1.46,3.23-3.12s-1.34-2.49-3.55-3.19c-3.06-.93-5-2.12-5.2-4.64s1.38-4.38,4-5l-.24-2.93,1.8-.15.23,2.82a7.72,7.72,0,0,1,3.85.72l-.57,2a7.12,7.12,0,0,0-3.74-.7c-2.23.18-3,1.59-2.88,2.75.12,1.51,1.26,2.18,3.87,3,3.09,1,4.72,2.37,4.92,5a5.06,5.06,0,0,1-4.19,5.3l.24,3Z"/><circle class="cls-6" cx="48.96" cy="116.15" r="10.87"/><circle class="cls-3" cx="50.56" cy="116.94" r="10.87"/><circle class="cls-3" cx="50.56" cy="116.94" r="10.1"/><path class="cls-6" d="M57.9,122.54A9.22,9.22,0,0,1,45,124.28a9.11,9.11,0,0,1-2.55-3,9.26,9.26,0,0,1-1-5.08,8.56,8.56,0,0,1,.22-1.42,9.49,9.49,0,0,1,1.08-2.63c.17-.28.36-.55.56-.82a9.25,9.25,0,0,1,12.71-1.91l.24.18A9.29,9.29,0,0,1,58,111.41a9,9,0,0,1,.77,1.2,9.31,9.31,0,0,1,1,5.09A9.09,9.09,0,0,1,57.9,122.54Z"/><path class="cls-3" d="M57.92,111.36a9.23,9.23,0,0,1-13.53,12.07,9.12,9.12,0,0,1-1.76-1.75,9.24,9.24,0,1,0,15.29-10.32Z"/><path class="cls-2" d="M45.71,121.47l.91-1.35a4.75,4.75,0,0,1-1.64-2l.92-.68c.4.31.59.43.59.43a5.12,5.12,0,0,0,.95,1.45,1.7,1.7,0,0,0,2.48-.23c.5-.74.28-1.55-.43-2.62-1-1.46-1.43-2.64-.64-3.81a2.63,2.63,0,0,1,3.47-.78l.92-1.36.83.57-.88,1.29a4.31,4.31,0,0,1,1.42,1.65l-.34,1-.59-.39a3.88,3.88,0,0,0-1.38-1.6,1.48,1.48,0,0,0-2.2.19c-.47.7-.21,1.38.63,2.65,1,1.5,1.22,2.66.42,3.85a2.82,2.82,0,0,1-3.66.85L46.55,122Z"/><path class="cls-3" d="M46.3,121.86l.92-1.35a4.7,4.7,0,0,1-1.65-2l.92-.68A4.35,4.35,0,0,0,48,119.73a1.7,1.7,0,0,0,2.48-.23c.5-.74.29-1.55-.43-2.62-1-1.46-1.43-2.64-.64-3.81a2.64,2.64,0,0,1,3.48-.78l.91-1.36.83.57-.88,1.29a4.22,4.22,0,0,1,1.42,1.65l-.93.66a3.88,3.88,0,0,0-1.38-1.6,1.46,1.46,0,0,0-2.19.19c-.47.7-.22,1.38.62,2.65,1,1.49,1.23,2.66.42,3.85a2.81,2.81,0,0,1-3.65.85l-1,1.39Z"/><circle class="cls-6" cx="62.04" cy="81.07" r="10.94"/><circle class="cls-3" cx="63.49" cy="80.02" r="10.94"/><circle class="cls-3" cx="63.49" cy="80.02" r="10.17"/><path class="cls-6" d="M71.94,76.14A9.29,9.29,0,0,1,58.49,87.85,8,8,0,0,1,57.34,87a9.23,9.23,0,0,1-2.29-3.09,9.3,9.3,0,0,1,4.29-12.2l.27-.13a9.77,9.77,0,0,1,2.46-.74,10,10,0,0,1,1.43-.11,9.3,9.3,0,0,1,8.44,5.42Z"/><path class="cls-3" d="M62,70.84a9.3,9.3,0,0,1,4.35,17.74A9.51,9.51,0,0,1,64,89.3a9.08,9.08,0,0,0,3.41-.83A9.3,9.3,0,0,0,62,70.84Z"/><path class="cls-2" d="M65.23,86.47,64.46,85a4.65,4.65,0,0,1-2.54.53l-.16-1.14c.46-.21.65-.32.65-.32a5.22,5.22,0,0,0,1.74-.16,1.71,1.71,0,0,0,1-2.31c-.42-.79-1.24-1-2.53-.85-1.77.2-3,0-3.69-1.23a2.68,2.68,0,0,1,.94-3.47l-.77-1.45.89-.47.74,1.39a4.35,4.35,0,0,1,2.14-.48l.76.79L63,76.2a3.84,3.84,0,0,0-2.07.47,1.48,1.48,0,0,0-.87,2c.4.75,1.13.84,2.65.69,1.8-.18,3,.17,3.62,1.45a2.82,2.82,0,0,1-1,3.65L66.13,86Z"/><path class="cls-3" d="M65.85,86.13l-.77-1.45a4.63,4.63,0,0,1-2.53.53l-.17-1.14a4.42,4.42,0,0,0,2.4-.48,1.71,1.71,0,0,0,1-2.32c-.42-.79-1.24-1-2.53-.85-1.77.21-3,0-3.69-1.22a2.68,2.68,0,0,1,.95-3.47l-.77-1.45.89-.47.74,1.39a4.21,4.21,0,0,1,2.13-.48l.14,1.13a3.94,3.94,0,0,0-2.06.48c-1.11.58-1.18,1.46-.87,2,.39.75,1.12.84,2.65.69,1.8-.18,2.94.17,3.62,1.45a2.84,2.84,0,0,1-1,3.65l.8,1.49Z"/><path class="cls-15" d="M170.44,4.31h0a1.66,1.66,0,0,0,.07-.49c0-2.11-3.75-3.82-8.38-3.82s-8.39,1.71-8.39,3.82A2,2,0,0,0,154.1,5c-3,.58-5.08,1.94-5.08,3.51,0,2.11,3.75,3.81,8.38,3.81a14.45,14.45,0,0,0,6.15-1.22,24.64,24.64,0,0,0,6.89.89c5.93,0,10.74-1.71,10.74-3.81S176.37,4.31,170.44,4.31Z"/><rect class="cls-5" x="118.31" y="153.69" width="42.06" height="88.48" transform="translate(337.71 59.23) rotate(90.18)"/><rect class="cls-22" x="99.53" y="181.05" width="79.59" height="33.35" transform="translate(0.63 -0.44) rotate(0.18)"/><rect class="cls-18" x="119.72" y="154.96" width="39.21" height="85.53" transform="translate(337.5 59.03) rotate(90.18)"/><rect class="cls-3" x="99.53" y="180.74" width="79.85" height="33.66" transform="translate(0.63 -0.44) rotate(0.18)"/><rect class="cls-6" x="126.32" y="161.65" width="26.02" height="72.16" transform="translate(337.5 59.03) rotate(90.18)"/><path class="cls-3" d="M118.54,197a9.89,9.89,0,0,1,4.81-8.45l-16.79-.05-.06,17.35,17.56,0A9.91,9.91,0,0,1,118.54,197Z"/><path class="cls-3" d="M159.89,197.11a9.9,9.9,0,0,0-4.76-8.48l16.8.06L171.87,206,154.31,206A9.92,9.92,0,0,0,159.89,197.11Z"/><path class="cls-15" d="M138.28,208.58v-2.73a8,8,0,0,1-4.19-1.2l.66-1.81A7.37,7.37,0,0,0,138.7,204c2,0,3.26-1.1,3.27-2.64s-1.06-2.41-3.09-3.22c-2.79-1.09-4.51-2.34-4.51-4.69s1.63-3.94,4.15-4.34v-2.73h1.7V189a7.29,7.29,0,0,1,3.56.95l-.69,1.78a6.76,6.76,0,0,0-3.45-.93c-2.1,0-2.9,1.24-2.9,2.32,0,1.41,1,2.11,3.39,3.09,2.81,1.14,4.24,2.55,4.23,5a4.72,4.72,0,0,1-4.34,4.59v2.81Z"/><path class="cls-15" d="M115,197.17a2.79,2.79,0,1,1-2.78-2.77A2.76,2.76,0,0,1,115,197.17Z"/><ellipse class="cls-15" cx="166.1" cy="197.33" rx="2.75" ry="2.79" transform="matrix(0, -1, 1, 0, -31.76, 362.79)"/><rect class="cls-2" x="64.74" y="192.49" width="49.14" height="7.01"/><path class="cls-2" d="M64.74,199.5h49.14a0,0,0,0,1,0,0v0a1.31,1.31,0,0,1-1.31,1.31H66.06a1.31,1.31,0,0,1-1.31-1.31v0A0,0,0,0,1,64.74,199.5Z"/><path class="cls-2" d="M66.06,191.38h46.52a1.31,1.31,0,0,1,1.31,1.31v0a0,0,0,0,1,0,0H64.74a0,0,0,0,1,0,0v0a1.31,1.31,0,0,1,1.31-1.31Z"/><rect class="cls-2" x="66.67" y="192.49" width="2.36" height="7.01"/><rect class="cls-2" x="69.85" y="192.49" width="8.04" height="7.01"/><rect class="cls-2" x="78.77" y="192.49" width="5.62" height="7.01"/><rect class="cls-2" x="86.61" y="192.49" width="1.92" height="7.01"/><rect class="cls-2" x="101.76" y="192.49" width="2.43" height="7.01"/><rect class="cls-2" x="105.23" y="192.49" width="4.38" height="7.01"/><rect class="cls-2" x="110.4" y="192.49" width="2.4" height="7.01"/><rect class="cls-2" x="64.74" y="201.92" width="49.14" height="7.01"/><path class="cls-2" d="M64.74,208.93h49.14a0,0,0,0,1,0,0v0a1.31,1.31,0,0,1-1.31,1.31H66.06a1.31,1.31,0,0,1-1.31-1.31v0A0,0,0,0,1,64.74,208.93Z"/><path class="cls-2" d="M66.06,200.8h46.52a1.31,1.31,0,0,1,1.31,1.31v0a0,0,0,0,1,0,0H64.74a0,0,0,0,1,0,0v0a1.31,1.31,0,0,1,1.31-1.31Z"/><rect class="cls-2" x="66.67" y="201.92" width="2.36" height="7.01"/><rect class="cls-2" x="69.85" y="201.91" width="8.04" height="7.01"/><rect class="cls-2" x="78.77" y="201.91" width="5.62" height="7.01"/><rect class="cls-2" x="86.61" y="201.91" width="1.92" height="7.01"/><rect class="cls-2" x="101.76" y="201.91" width="2.43" height="7.01"/><rect class="cls-2" x="105.23" y="201.91" width="4.38" height="7.01"/><rect class="cls-2" x="110.4" y="201.91" width="2.4" height="7.01"/><rect class="cls-2" x="64.74" y="211.35" width="49.14" height="7.01"/><path class="cls-2" d="M64.74,218.36h49.14a0,0,0,0,1,0,0v0a1.31,1.31,0,0,1-1.31,1.31H66.06a1.31,1.31,0,0,1-1.31-1.31v0A0,0,0,0,1,64.74,218.36Z"/><path class="cls-2" d="M66.06,210.23h46.52a1.31,1.31,0,0,1,1.31,1.31v0a0,0,0,0,1,0,0H64.74a0,0,0,0,1,0,0v0a1.31,1.31,0,0,1,1.31-1.31Z"/><rect class="cls-2" x="66.67" y="211.35" width="2.36" height="7.01"/><rect class="cls-2" x="69.85" y="211.34" width="8.04" height="7.01"/><rect class="cls-2" x="78.77" y="211.34" width="5.62" height="7.01"/><rect class="cls-2" x="86.61" y="211.34" width="1.92" height="7.01"/><rect class="cls-2" x="101.76" y="211.34" width="2.43" height="7.01"/><rect class="cls-2" x="105.23" y="211.34" width="4.38" height="7.01"/><rect class="cls-2" x="110.4" y="211.34" width="2.4" height="7.01"/><path class="cls-18" d="M107,157.54s8.88,11.94,8.22,13.56-2.42,5-2.42,5l-9.47-12.59Z"/><path class="cls-18" d="M107.9,161.1c.35-1.76-.46-4-2.22-4.35A50.18,50.18,0,0,0,98,155.32c-5.5-.4-8.28-.66-9.14,1.43S86.58,189.59,93,189c2.95-.29,7.35-2.63,9.78-4,1.13-.66,2.39-11.89,2.54-13.19C106.16,164.75,107.23,164.43,107.9,161.1Z"/><path class="cls-5" d="M96.48,187.11c6.63.68,22.8,2,28.65,1.8,1.8-.07,3.75-5.26.88-6.75s-19.71-2.4-22.13-2C96.77,181.5,96.48,187.11,96.48,187.11Z"/><path class="cls-5" d="M116.75,211.07l-3.46-3.18s5.1-17.63,6.76-24.2c1.41-5.6,7.66.83,7.36,2S116.75,211.07,116.75,211.07Z"/><path class="cls-9" d="M117.47,210.09s1.57,7.25,0,8.49-2.91-4.77-4.31-7.31c-.38-.7-1.44-1.83-.49-3.05s.94-1,1.89.14A7.77,7.77,0,0,0,117.47,210.09Z"/><path class="cls-9" d="M108.44,214.08s5,7.4,3.77,8.31c-1.8,1.29-6.47-5.12-7.18-5.62s-1.37-1-1.36-1.27c0-1.62.67-2.41,2.18-2Z"/><path class="cls-7" d="M112.73,181.12l.13-.25a1.23,1.23,0,0,0-.47-1.67l-6.52-3.64a1.24,1.24,0,0,0-1.67.48l-.14.24a2.58,2.58,0,0,0,1.83,3.3l5.16,2A1.24,1.24,0,0,0,112.73,181.12Z"/><path class="cls-18" d="M92.93,164c-.44,0-5.58,10.49-2.6,10.88,2.3.31-6.86,5.17-8.09,3.92s4.24-25.15,9-23.54C95.22,156.65,96.36,159.32,92.93,164Z"/><path class="cls-7" d="M106.46,177l0-.28a1.23,1.23,0,0,0-1.12-1.33l-7.43-.65a1.23,1.23,0,0,0-1.33,1.12l0,.27a1.24,1.24,0,0,0,1.12,1.34l7.22,1.3C105.58,178.8,106.4,177.64,106.46,177Z"/><path class="cls-18" d="M88.67,173.43c1.39.24,13.74,1.6,13.74,1.6l-.79,4.35s-17,2.16-18.94,0S83.75,172.57,88.67,173.43Z"/><path class="cls-7" d="M98.44,157.91h0a2.27,2.27,0,0,0,3-1.18l1.81-4.24a2.27,2.27,0,0,0-1.17-3h0a2.27,2.27,0,0,0-3,1.19l-1.81,4.23A2.26,2.26,0,0,0,98.44,157.91Z"/><path class="cls-5" d="M89.24,184.67a6.81,6.81,0,0,0,5.31,5.86c7.62,1.66,20.91,1.6,21,.52.14-1.35,3.12-4.07.78-5.85s-11.73-4.57-17.78-4.49c-1,0-8.27-.86-9.15,1.15A5.94,5.94,0,0,0,89.24,184.67Z"/><path class="cls-5" d="M105.68,215.13h0a2.25,2.25,0,0,1-.87-2.32c1.16-5,4.93-21.63,5-26.68.07-5.52,9.62-1.85,7.68,3.36-1.41,3.79-6.29,19-8.39,24.61A2.24,2.24,0,0,1,105.68,215.13Z"/><rect class="cls-23" x="100.19" y="181.93" width="23.37" height="1.85" rx="0.92" transform="translate(213.92 371.37) rotate(-176.97)"/><path class="cls-23" d="M131.31,169.42l-19.4-1a.88.88,0,0,0-.88.58l-4.87,13.31a.89.89,0,0,0,.79,1.19l18.9,1a.88.88,0,0,0,.87-.55l5.36-13.3A.88.88,0,0,0,131.31,169.42Z"/><ellipse class="cls-8" cx="101.37" cy="152.72" rx="2.99" ry="2.85" transform="translate(-56.63 245.63) rotate(-86.88)"/><rect class="cls-7" x="101.55" y="148.13" width="5.66" height="4.94" transform="translate(135.82 331.12) rotate(-155.16)"/><path class="cls-7" d="M100.12,150.23a4.11,4.11,0,0,0,2,5.55,3.31,3.31,0,0,0,4-2.12c.69-1.71.12-3.56-1.27-4.12S100.85,148.53,100.12,150.23Z"/><path class="cls-9" d="M99.54,147.57,105,150.2l1.55-.65,2,2.36h0a4.19,4.19,0,0,0-2.07-5.57l-1.92-.93a3.48,3.48,0,0,0-4.69,1.53Z"/><path class="cls-9" d="M101.68,147.1h0a0,0,0,0,1,0,0v5.12a0,0,0,0,1,0,0h-3a0,0,0,0,1,0,0v-2.17A3,3,0,0,1,101.68,147.1Z" transform="translate(127.47 327.7) rotate(-154.91)"/><circle class="cls-7" cx="101.15" cy="149.37" r="1.59"/><path class="cls-8" d="M101.82,149.39a.61.61,0,0,1-.64.57.61.61,0,1,1,.06-1.22A.62.62,0,0,1,101.82,149.39Z"/><path class="cls-24" d="M119.71,175.35c-.4.84-.39,1.68,0,1.88s1.08-.32,1.48-1.16.39-1.68,0-1.88S120.11,174.51,119.71,175.35Z"/></g></g></svg>