<svg xmlns="http://www.w3.org/2000/svg" viewBox="0 0 190.47 235.52"><defs><style>.cls-1{isolation:isolate;}.cls-2{fill:#edf4ff;}.cls-10,.cls-12,.cls-13,.cls-14,.cls-15,.cls-16,.cls-17,.cls-18,.cls-19,.cls-2,.cls-20,.cls-21,.cls-22,.cls-23,.cls-24,.cls-25,.cls-26,.cls-3,.cls-4,.cls-5,.cls-6,.cls-7,.cls-8,.cls-9{fill-rule:evenodd;}.cls-3{fill:#1a2089;}.cls-4{fill:#5d4efa;}.cls-5{fill:#eaf4ff;}.cls-6{fill:#006ae6;}.cls-7{fill:#31accb;}.cls-8{fill:#00244f;}.cls-9{fill:#fff;}.cls-10{fill:#f0b186;}.cls-11{fill:#e3efff;}.cls-12{fill:#f0ecd6;opacity:0.35;mix-blend-mode:multiply;}.cls-13{fill:#e7a376;}.cls-14{fill:#401c28;}.cls-15{fill:#ec8780;}.cls-16{fill:#0a3c5f;}.cls-17{fill:#aa6f48;}.cls-18{fill:#b56cf7;}.cls-19{fill:#1f202b;}.cls-20{fill:#4cc2fc;}.cls-21{fill:#da9569;}.cls-22{fill:#ecf5ff;}.cls-23{fill:#08385f;}.cls-24{fill:#063557;}.cls-25{fill:#04304f;}.cls-26{fill:#daeafa;}</style></defs><title>investor_confidence</title><g class="cls-1"><g id="Layer_2" data-name="Layer 2"><g id="Layer_1-2" data-name="Layer 1"><path class="cls-2" d="M1.93,199.82l60-34.29c2.23-1,5.5-2,7.69-.64l5.59,3.4c1.12.69,4.82,3,2.35,4.31-7.28,4-53.79,31.13-61.18,35.15a10.36,10.36,0,0,1-5.59.86,14,14,0,0,1-6-1.81l-2.24-1.37c-1.57-1-2.45-2-2.53-3.06S.57,200.45,1.93,199.82Z"/><path class="cls-3" d="M11.86,55.75C6.93,58.59,3.07,65.46,3.08,71l4.53,5.79,4.07-.8c2.22-3.88,10.77-7.27,8.78-15.2L45.69,48.93l25-17h0l2.1-3c-1.5-.86-3-1.8-4.43-2.64-2-1.16-4.44-.44-6.26.61h0Z"/><path class="cls-3" d="M3.29,193.61c0,2.78,1,4.73,2.57,5.65l4.6,2.73a9.42,9.42,0,0,0,1-3.62l.41.24,2.43-57.55L11.68,76l-8.6-5Z"/><path class="cls-4" d="M75.58,34.76c0-5.59-4-7.85-8.84-5L16.53,58.52c-4.86,2.81-8.8,9.62-8.78,15.21L8,196.39c0,5.58,4,7.84,8.83,5L67,172.62c4.87-2.81,8.79-9.62,8.78-15.21Z"/><path class="cls-5" d="M72.89,40c0-5.14-3.66-7.22-8.14-4.63L18.54,61.9c-4.48,2.59-8.1,8.86-8.09,14l.2,115.21c0,5.14,3.66,7.22,8.13,4.64L65,169.24c4.48-2.59,8.1-8.86,8.08-14Z"/><path class="cls-4" d="M40.39,66.64C30.13,72.57,21.78,87,21.82,98.82s8.43,16.58,18.69,10.65S59.12,89.09,59.08,77.3a19.78,19.78,0,0,0-.65-5.2l-17.94,16L47,64.22A18.44,18.44,0,0,0,40.39,66.64Z"/><path class="cls-3" d="M40.39,66.64c-10.2,5.89-18.5,20.2-18.57,32l18.8-11L47,64.22A18.44,18.44,0,0,0,40.39,66.64Z"/><path class="cls-3" d="M60.83,67.9C59.25,62.17,55,59.27,49.44,60L42.89,83.87Z"/><path class="cls-6" d="M46.3,55.73a3.26,3.26,0,0,0-1.47,2.55c0,.94.67,1.31,1.48.84a3.24,3.24,0,0,0,1.48-2.55C47.78,55.64,47.12,55.26,46.3,55.73Z"/><path class="cls-6" d="M43.35,53.58a.88.88,0,0,0-.41.69c0,.26.19.36.41.24a.91.91,0,0,0,.4-.7C43.75,53.55,43.57,53.45,43.35,53.58Z"/><path class="cls-6" d="M51.41,53.73a1.87,1.87,0,0,0-.85,1.46c0,.54.39.75.85.48a1.83,1.83,0,0,0,.84-1.46C52.25,53.68,51.87,53.46,51.41,53.73Z"/><path class="cls-7" d="M64.31,78.68a1.37,1.37,0,0,0-.62,1.07c0,.4.28.56.62.36A1.37,1.37,0,0,0,64.94,79C64.94,78.64,64.65,78.48,64.31,78.68Z"/><path class="cls-7" d="M45.39,109.61a1.4,1.4,0,0,0-.62,1.08c0,.4.28.56.63.36A1.38,1.38,0,0,0,46,110C46,109.58,45.74,109.42,45.39,109.61Z"/><path class="cls-7" d="M17,85.54a1.08,1.08,0,0,0-.49.85c0,.32.22.44.5.29a1.12,1.12,0,0,0,.49-.86C17.45,85.51,17.23,85.38,17,85.54Z"/><polygon class="cls-8" points="60.6 20.04 60.71 52 95.44 31.95 95.32 0 60.6 20.04"/><polygon class="cls-4" points="64.08 21.91 64.19 53.87 98.91 33.82 98.8 1.87 64.08 21.91"/><path class="cls-9" d="M82.83,22.75a8.63,8.63,0,0,0-3.9,6.77c0,2.48,1.77,3.48,3.93,2.24A8.63,8.63,0,0,0,86.76,25C86.76,22.51,85,21.5,82.83,22.75Z"/><path class="cls-9" d="M87.63,15.23a4.89,4.89,0,0,0-2.21,3.83c0,1.41,1,2,2.22,1.27a4.86,4.86,0,0,0,2.21-3.83C89.85,15.1,88.85,14.53,87.63,15.23Z"/><path class="cls-9" d="M92.89,14.13a1.32,1.32,0,0,0-.61,1c0,.38.28.54.61.34a1.32,1.32,0,0,0,.61-1C93.49,14.09,93.22,13.94,92.89,14.13Z"/><path class="cls-9" d="M75,27.61a2.8,2.8,0,0,0-1.27,2.19c0,.8.58,1.13,1.28.72a2.78,2.78,0,0,0,1.26-2.19C76.22,27.53,75.65,27.2,75,27.61Z"/><path class="cls-9" d="M80.14,35.15a2,2,0,0,0-.94,1.62c0,.59.43.83.94.53a2.06,2.06,0,0,0,.94-1.62C81.08,35.09,80.65,34.85,80.14,35.15Z"/><path class="cls-9" d="M73,37.85a2.08,2.08,0,0,0-.94,1.62c0,.59.43.84.94.54A2.08,2.08,0,0,0,74,38.39C74,37.79,73.53,37.55,73,37.85Z"/><path class="cls-9" d="M81.16,19.67A1.6,1.6,0,0,0,80.42,21c0,.48.33.67.74.43a1.67,1.67,0,0,0,.75-1.29C81.9,19.62,81.57,19.43,81.16,19.67Z"/><path class="cls-9" d="M88.88,29.33a1.62,1.62,0,0,0-.74,1.28c0,.47.34.66.75.43a1.66,1.66,0,0,0,.74-1.29C89.63,29.28,89.3,29.09,88.88,29.33Z"/><polygon class="cls-3" points="21.27 134.31 21.4 172.5 62.9 148.53 62.76 110.36 21.27 134.31"/><polygon class="cls-4" points="25.55 136.45 25.68 174.64 67.19 150.68 67.05 112.5 25.55 136.45"/><path class="cls-5" d="M63.81,147.85a2.45,2.45,0,0,0-1.12,1.93c0,.71.51,1,1.13.64a2.47,2.47,0,0,0,1.11-1.93C64.93,147.78,64.43,147.49,63.81,147.85Z"/><polygon class="cls-5" points="63.5 119.41 63.5 147.02 64.12 146.66 64.12 119.05 63.5 119.41"/><path class="cls-5" d="M57,151.74a2.45,2.45,0,0,0-1.12,1.93c0,.71.51,1,1.13.64a2.44,2.44,0,0,0,1.11-1.93C58.07,151.67,57.57,151.38,57,151.74Z"/><polygon class="cls-5" points="56.64 123.3 56.64 150.91 57.26 150.55 57.26 122.94 56.64 123.3"/><path class="cls-5" d="M50.09,155.63A2.45,2.45,0,0,0,49,157.56c0,.71.51,1,1.13.65a2.47,2.47,0,0,0,1.11-1.94C51.21,155.56,50.71,155.27,50.09,155.63Z"/><polygon class="cls-5" points="49.78 127.19 49.78 154.8 50.4 154.44 50.4 126.83 49.78 127.19"/><path class="cls-5" d="M43.23,159.52a2.48,2.48,0,0,0-1.12,1.94c0,.71.51,1,1.13.64a2.47,2.47,0,0,0,1.11-1.94C44.35,159.45,43.85,159.16,43.23,159.52Z"/><polygon class="cls-5" points="42.92 131.09 42.92 158.69 43.55 158.33 43.55 130.72 42.92 131.09"/><path class="cls-5" d="M36.37,163.41a2.48,2.48,0,0,0-1.12,1.94c0,.71.51,1,1.13.64a2.48,2.48,0,0,0,1.12-1.94C37.49,163.34,37,163.05,36.37,163.41Z"/><polygon class="cls-5" points="36.06 134.98 36.06 162.58 36.69 162.22 36.69 134.62 36.06 134.98"/><path class="cls-5" d="M29.51,167.3a2.48,2.48,0,0,0-1.12,1.94c0,.71.51,1,1.13.64a2.48,2.48,0,0,0,1.12-1.94C30.63,167.23,30.13,167,29.51,167.3Z"/><polygon class="cls-5" points="29.2 138.87 29.2 166.47 29.83 166.11 29.83 138.51 29.2 138.87"/><path class="cls-7" d="M67.12,133.39a8.63,8.63,0,0,1-1.51,2.54,2.49,2.49,0,0,1-1.61.89c-1.38.12-2.32-.92-3.21-1.92-1.09-1.21-2.12-2.35-3.85-1.75-1.25.44-2.13,3.09-3.08,5.93-1,3.1-2.13,6.43-3.6,6.89s-2.08-1.79-2.77-4.12a23,23,0,0,0-1.06-3.1c-.81-1.77-2-2.86-4-1.94s-2.87,5.23-3.73,9.68c-1,4.88-1.94,9.94-4.34,10.44a7.54,7.54,0,0,1-4.87-.83,8,8,0,0,0-3.89-.94v.75a7.51,7.51,0,0,1,3.6.87,8.07,8.07,0,0,0,5.3.88c2.89-.6,3.93-5.91,4.93-11,.83-4.26,1.63-8.38,3.31-9.15,1.49-.68,2.36.18,3,1.57a22.84,22.84,0,0,1,1,3c.79,2.7,1.55,5.28,3.7,4.62,1.84-.57,3-4.09,4.09-7.36.88-2.66,1.71-5.15,2.61-5.46,1.26-.44,2.13.52,3,1.54s2.09,2.32,3.84,2.17a3.25,3.25,0,0,0,2.09-1.14,7.37,7.37,0,0,0,1-1.35Z"/><path class="cls-6" d="M65.68,103.16a1.87,1.87,0,0,0-.84,1.45c0,.53.38.74.84.48a1.87,1.87,0,0,0,.84-1.45C66.52,103.11,66.14,102.9,65.68,103.16Z"/><path class="cls-6" d="M68.34,104.7a3.85,3.85,0,0,0-1.75,3c0,1.11.79,1.56,1.76,1a3.87,3.87,0,0,0,1.74-3C70.09,104.59,69.3,104.14,68.34,104.7Z"/><path class="cls-6" d="M74.31,103.65a2.25,2.25,0,0,0-1,1.77c0,.65.47.91,1,.59a2.28,2.28,0,0,0,1-1.78C75.33,103.58,74.87,103.32,74.31,103.65Z"/><path class="cls-6" d="M19.72,176.71a8.46,8.46,0,0,0-3.81,6.6c0,2.42,1.73,3.4,3.84,2.18a8.4,8.4,0,0,0,3.8-6.59C23.55,176.48,21.83,175.5,19.72,176.71Z"/><path class="cls-6" d="M11.16,180A4.72,4.72,0,0,0,9,183.77c0,1.37,1,1.93,2.17,1.24a4.76,4.76,0,0,0,2.15-3.74C13.33,179.9,12.35,179.35,11.16,180Z"/><path class="cls-6" d="M19.57,188.37a2,2,0,0,0-.91,1.58c0,.57.41.81.92.52a2,2,0,0,0,.91-1.58C20.49,188.31,20.07,188.08,19.57,188.37Z"/><path class="cls-6" d="M6.26,180.11a1.6,1.6,0,0,0-.73,1.25c0,.46.33.65.73.42A1.61,1.61,0,0,0,7,180.53C7,180.07,6.65,179.88,6.26,180.11Z"/><path class="cls-4" d="M104.85,128.29a1.8,1.8,0,0,0,.2,1c.93,1.35-.18,1.24-.13,3.17,0,.18-.79,3.23-.79,3.23s-1.86.45-2,.43-1.27-.46-1.27-.46c.09-.17.22-.57.3-.72a12.27,12.27,0,0,0,1-3.59,9.83,9.83,0,0,0,.22-3Z"/><path class="cls-4" d="M100.81,135.63a8.92,8.92,0,0,0-.53,1.23.6.6,0,0,0,0,.5c.42.62,2.69-.4,3.46-1a2.29,2.29,0,0,0,.66-1.53c.2-.92.23-1,.49-2l.16,2.58.21.14a29.29,29.29,0,0,1,.43-3.33c.08-.35.2-.76.22-1a2,2,0,0,0-.94-2.1c.17.72-.47,1.85-.75,3.3A3.83,3.83,0,0,1,100.81,135.63Z"/><path class="cls-4" d="M92.6,92.66c.17.79-.64,3.53-.43,4.59.19,3.47.8,6.41,3.15,13.36,0,.07,2.13,4.32,2.28,4.77,1.45,4.53,3.27,9.45,4.81,14,.58.45,2.31.31,2.53-.77-.48-4.57,0-9.08-.74-12.21a13.2,13.2,0,0,0-2.66-5.24c-.4-4.49-.68-13.51-1.7-17Z"/><path class="cls-4" d="M103,132.93a5.68,5.68,0,0,0,.2,1.27,15.84,15.84,0,0,1,.14,2.24,21.22,21.22,0,0,1-.5,4c-.13.57-.38.81-.55,1.58L99,142.6c.33-1.25.78-3.79,1.12-5.92l.63-4Z"/><path class="cls-4" d="M103.19,134a6.24,6.24,0,0,1,.44,1.93c0,.91-.39,2.33-.36,3.45l.06,1.79a2.74,2.74,0,0,1-1.41,2.61c-1.07.78-2.12,1.1-2.68.83s-.75-.94-.11-2.88a35.25,35.25,0,0,0,1-4.95,17.3,17.3,0,0,1-.57,4c-.11.48-.18,1.27.38,1.35,2.31.33,2.43-.3,2.62-1A23.47,23.47,0,0,0,103.19,134Z"/><path class="cls-4" d="M104,95.4c2.57,3.22,2.64,5,2.08,8.88a82.1,82.1,0,0,0-1.32,10.28,41.75,41.75,0,0,1,.32,8.62c-.23,2.68-1,7.28-1.56,10.53-.53,1-3.06.57-3.47,0,.12-4.66,0-7.86-.18-11.62s-.65-7.06-.93-10.67c-.22-3-1.13-7.06-1.25-10.28-.48-1.53-5-6.57-4.09-6.5Z"/><path class="cls-8" d="M96.75,63.37a2.83,2.83,0,0,0-3,2,7.29,7.29,0,0,0-.34,4.32c.88,3.2-.67,4.6-1.24,6.09a6.57,6.57,0,0,0-.33,2.47c0,1.15.7,1.74,1.26,2.76A9.06,9.06,0,0,0,94,83.81c1.52,3,6.63,4.51,11.53,4.29,3.93-.18,7.72-1.57,9.44-3.17,1.89-1.75,2.13-6.2-1-6.66a3.21,3.21,0,0,1-2.22-1c-.44-.53,0-1.91.09-3.75s-.31-3.67-2.9-4.29a8.52,8.52,0,0,1-2.79-.88c-1.81-1.19-1.15-3.4-3.12-4.7a6.49,6.49,0,0,0-5.17-.38Z"/><path class="cls-8" d="M95.58,65.05a3.28,3.28,0,0,0,.73,2.36c1.2,1.7,1.84,1.57,2.5,3.74,1.08-.72,1.83-.83,2.14-.12.51,1.14.19,1.82.31,3,.19,1.93,2.49-.71,4.29.76s.56,2.47,1.24,4.52c.26.77.46,1.78,1.17,2.12,2.23,1.06,3.09,3.72-.88,5a15.36,15.36,0,0,1-9-.41c-3.94-1.34-6.37-7.15-5.36-9.92.41-1.14,1.54-2,1.54-2.88C94.26,70.19,93.67,68.22,95.58,65.05Z"/><path class="cls-10" d="M76.75,80.12c-.36.52.31.88.62.89.48.07,1.17-.18,1.34.14s2.47-.38,2.44-.41a4.1,4.1,0,0,0-1.94-.82C77.76,80,78.19,80.34,76.75,80.12Z"/><path class="cls-10" d="M80.83,82.86c2.08.58,4.92,2.62,6.9,3.06.63.14,1.6.42,2.1-.11,2.54-2.75-1-1.85-1.3-2.89-1.81-1.35-4.64-.71-7-2l-.45-.27c-.91-.45-1.42-.41-3,.38a1.87,1.87,0,0,1-1.1.19l-1.59-.2c-.49,0-.8.1-.87.26a2.81,2.81,0,0,0,.37,1.57h0c.06.19.42.33,1,.34l2.32.71.11-.06C79.73,83.09,80.32,82.83,80.83,82.86Z"/><path class="cls-3" d="M90.72,86.05c1.87-1.75,4.53-4.29,5.49-6.3.62-1.31.73-5-1.26-5.44-.67-.42-1.69,2.31-2.37,3.42a49.34,49.34,0,0,1-3.6,5c-1.55-1-3.67-1.1-5.67-1.6a2,2,0,0,0-.93,0,3.35,3.35,0,0,1-.69-.25A3,3,0,0,0,80.84,83l.68.21c.24.08.37.31.6.44a36.11,36.11,0,0,0,6.16,2.61c.68.15,1.77.5,2.3-.07Z"/><path class="cls-3" d="M103.73,88.15c-1.16,2.67.81,4.15.1,6l.22,1.24C101.94,96.91,94.4,97,92.5,94l0-1.5a7.26,7.26,0,0,1,0-3,37.46,37.46,0,0,0,.33-4.08c0-.44.12-.72.16-1.17a3.84,3.84,0,0,1-.58-5.14,12.66,12.66,0,0,0,1.31-2.31A11.15,11.15,0,0,1,94,75.49a2.1,2.1,0,0,1,.35-.72c.48-.69,1.26-.77,2.84-.41,3.14.72,6.37,2.35,7.81,3.89,1.05,1.12,1,2.36.41,5A29.72,29.72,0,0,1,103.73,88.15Z"/><rect class="cls-11" x="91.52" y="84.47" width="8.95" height="11.58" rx="0.62" transform="translate(-15.37 19.84) rotate(-10.93)"/><path class="cls-12" d="M100.46,89.76l.92,4.75a27.49,27.49,0,0,1-4,.4c-.26,0-.56-.25-.83-.25-1.5.92-1.26.93-4.18.36L91.6,91.1c2.16-.07,2.48.31,4.32.57A11,11,0,0,1,100.46,89.76Z"/><path class="cls-10" d="M91.55,91.65c-.3.18-.09,1,0,1.48A3.9,3.9,0,0,0,92,94.48c.37.41,1.75.35,2.65.37s1.29-.68,1.85-.63c.45-.7-.07-1.55-.39-2.22C94.72,92.26,92.46,91.26,91.55,91.65Z"/><path class="cls-3" d="M106.24,80c1,2.82.31,7.14.26,11.22a1.54,1.54,0,0,1-.9,1.5,4.41,4.41,0,0,1-.93.39,22.68,22.68,0,0,1-7,1.28,1.71,1.71,0,0,1-.7-.17c-.21,0-.53.05-.75.05.34-.08.2-1.94-.3-2.22l.72-.18a.84.84,0,0,1,.47-.32,50.36,50.36,0,0,1,6.07-1.89A34.74,34.74,0,0,1,102,83.6c-.09-2.22.54-4.83,2.09-5.16C105.2,78.2,105.88,78.93,106.24,80Z"/><path class="cls-13" d="M100,72.17a8.08,8.08,0,0,0,.31,4,2.49,2.49,0,0,1-3.58-.34c.1-.61.21-1.17.27-1.79Z"/><path class="cls-10" d="M95.35,66.37a4.49,4.49,0,0,0-.73,3,1.26,1.26,0,0,1-.1.73,2.88,2.88,0,0,0-.22,2.49c.26.92.24,1.4.55,1.72a1.82,1.82,0,0,0,1.21.42,7.27,7.27,0,0,0,3.11-1c.62-.34.6-.57.86-1.16.88-.76.31-1.32,0-1.37-.84-.17-1,.8-1.48,1C98.66,70.61,95.41,67.74,95.35,66.37Z"/><path class="cls-13" d="M95.35,66.37c.47,2.09,3.2,3.67,3.22,5.94C97.83,70,95.18,68.34,95.35,66.37Z"/><path class="cls-14" d="M95.24,70.07a1.69,1.69,0,0,0-.29-.43,2.93,2.93,0,0,1-.64-.64,1.66,1.66,0,0,0,.49.73A2.17,2.17,0,0,0,95.24,70.07Z"/><path class="cls-14" d="M96.21,70.67a1.29,1.29,0,0,1,.6.19,2.91,2.91,0,0,0,.62.44,2.88,2.88,0,0,1-.73-.3C96.52,70.91,96.41,70.74,96.21,70.67Z"/><path class="cls-15" d="M94.92,72.75a1.85,1.85,0,0,1,.4.21,2,2,0,0,0,1,.31,1.72,1.72,0,0,1-1.41-.15S94.72,72.69,94.92,72.75Z"/><path class="cls-13" d="M95.4,70.45c-.48.91-1.21.93-.42,1.59C93.9,71.49,94.83,71.28,95.4,70.45Z"/><path class="cls-14" d="M94.89,70c.07,0,.13-.08.13-.18s-.06-.18-.13-.18-.12.08-.12.18S94.82,70,94.89,70Z"/><path class="cls-14" d="M96.73,70.84c-.07,0-.12.06-.12.17s.06.19.13.19.14-.09.14-.19A.15.15,0,0,0,96.73,70.84Z"/><path class="cls-3" d="M180.83,115.76c-.92-6.61-4.48-4.43-4.89-6.2a4.65,4.65,0,0,0-3.58-3.59c-2.77-.51-7.22,1.25-7.44,5-.11,2,.14,2.76-.57,3.91-1.48,2.4-4,3-4.44,6.07a3.76,3.76,0,0,0,2.45,4.2c-2.25,2.62-1.15,4.88,2.38,6.73,4,2.09,10.23,1.59,6.26,6.9,8.73-.74,14-10.1,11.75-17.07C182.1,119.66,181.12,117.85,180.83,115.76Z"/><path class="cls-4" d="M172.41,107.51c1.25,1.74-1.09,4.35-.35,6.75-.74-.16-1.77.16-1.72.94.09,1.39,1.56,1.6.66,3.4a27.61,27.61,0,0,0-1.95,4.12c-.36,1-1.12,3.4.21,5.5,1.12,1.76,6.67,4.79,5.3,8.36,7.61-2.63,6-11.19,5.91-18.16-.07-4.29-1.31-5-3.17-5.7-1.29-.52-1.46-1.47-2-2.51A4.57,4.57,0,0,0,172.41,107.51Z"/><path class="cls-13" d="M188.65,93.68c.43-.29.78-.58,1.2-.91a2.37,2.37,0,0,0,.6-.64.26.26,0,0,0-.11-.33c-.18-.11-.47.07-.71.28a12.27,12.27,0,0,1-1.35.91c.37-.34,1-.77,1.35-1.1s.25-.5.14-.59c-.27-.25-.77.21-1,.4-.36.3-.64.51-.93.78-.1.09-.67.67-.32.16a10.92,10.92,0,0,0,.95-1.47.25.25,0,0,0-.11-.35c-.16-.06-.41.06-.65.34-.42.47-1,1.18-1.09,1.37l-.38.51c-.39.49-.89,1-1.44,1-.2,0-.36-.18-.64-.34-.45-.26-.85-.39-1.27,0,.43.41,1,.63,1.37,1.36.15.65.71,1.12.73,1.4a3.94,3.94,0,0,1-.12.7l1.43.9.72-.11a3.44,3.44,0,0,1,.15-.81,6.3,6.3,0,0,0,1-1.81,2.28,2.28,0,0,1,.42-.67c.42-.42,1.6-.84,1.82-1.3.07-.16.07-.3,0-.36s-.63.18-1,.41A2.5,2.5,0,0,1,188.65,93.68Z"/><path class="cls-3" d="M181.82,118.88l5-9.39c.19-3,.44-6.54.63-9.54a3.32,3.32,0,0,0-.25-1.78l0-1c-1.06.21-2.1-.3-2.22-.74l-.16.92a3.23,3.23,0,0,0-.73,2.14L183,108l-4.63,6.93-1.64,1.74C174.37,120.41,180,121.83,181.82,118.88Z"/><path class="cls-13" d="M184.37,134.55c.12.76.15,3,.21,5.9,0,2-.23,5.56-.44,8.6-.09,1.26-.26,2.37-.37,3.35-.08.71-.39,1.41-.5,2.1-.77,5.2-1.76,9.92-2.35,16.21a11.57,11.57,0,0,0,0,3.62c.05.28.19.56.22.84a13.38,13.38,0,0,0,.86,3.92c.08.17.2.61.3.79,0,0-1.24.43-1.4.46s-2.15-.54-2.15-.54-.74-3.34-.73-3.53c.13-2.19-1.39-1.79,0-3.45.12-.21.09-.22.09-.47,0-2.17-.39-5.31-.66-8.12-.79-8,.55-7.46.85-11.3-.55-4.62-1.67-11.18-1.55-16.86Z"/><path class="cls-16" d="M181.7,178.48c.22.4.45,1,.65,1.39a8.5,8.5,0,0,1,.5,1.34.64.64,0,0,1,0,.55c-.48.64-2.91-.54-3.72-1.26a2.55,2.55,0,0,1-.66-1.68c-.18-1-.21-1.11-.45-2.14l-.28,2.8-.23.14a33,33,0,0,0-.34-3.63c-.07-.39-.19-.83-.21-1.05a2.24,2.24,0,0,1,1.1-2.25c-.21.78.35,2,.61,3.61s1.18,3.46,1.9,3.61c.3.07,1-.31,1.33-.52C182,179.31,181.85,178.84,181.7,178.48Z"/><path class="cls-10" d="M175,133.79c-.95,2.62-2.71,5-3.13,7.05s-.14,3.5.11,6.66c.17,2.16.63,9.87.3,11.69-.47,2.66-1.52,4.2-2,7.33-.39,2.51-.16,6.2-.21,9.71a5.9,5.9,0,0,1-.51,2.53,10.86,10.86,0,0,0-.29,1.24,18.65,18.65,0,0,0-.27,3.78c0,.54.2.81.21,1.54l2.93,1.1c0-.64-.08-1.61-.06-2.68s.07-2,.12-2.93a17.32,17.32,0,0,1,.28-3.49c1-4.22,2.45-7.91,3.46-11.38.53-1.81.74-3.43,1.52-6a18.77,18.77,0,0,0,.7-3.21c.32-2.91,1.22-8.61,1.39-11.6a35.7,35.7,0,0,0,4.74-7.72,16.53,16.53,0,0,0,0-3.27Z"/><path class="cls-16" d="M169.86,177.75a6,6,0,0,0-.72,1.69c-.18.83,0,2.2-.25,3.22l-.34,1.63a2.56,2.56,0,0,0,.86,2.63c.85.89,1.75,1.36,2.31,1.2s.85-.74.58-2.62a31.77,31.77,0,0,1-.12-4.7,16.3,16.3,0,0,0-.16,3.76c0,.45,0,1.17-.5,1.15-2.18-.08-2.18-.67-2.24-1.35A21.75,21.75,0,0,1,169.86,177.75Z"/><path class="cls-4" d="M174.75,133.25c-.88,2.67-2.58,5.11-2.95,7.2-.79,4.5.49,9.93.39,15,0,1.61,2.2,2.79,5,1.91,3.43-1.07,6.36-3.53,6.59-4.7.46-3.34,1.39-9.52,1.4-12.39s-.72-4.52-.78-5.58l-.08-.67C184.24,133.43,176,133.43,174.75,133.25Z"/><path class="cls-3" d="M172.78,130.71c1.42,2.54-.47,4,.42,5.8l-.26.83c2.26,1.29,9.93.49,11.5-2.69l-.12-1.49a4.16,4.16,0,0,0-.19-2.25c-.45-1.45-.85-4.63-1.39-6.29a3.71,3.71,0,0,0-.05-4.63c-.72-.85-1-.8-1.36-1.5-.71-2-2.4-2.59-3.44-2.16a17.35,17.35,0,0,0-3.69,1.56,14.37,14.37,0,0,0-2.41,2.22c-.76.78-1.73.77-2,2-.06.3.22.58.23.91C170.11,125.42,171.6,128.62,172.78,130.71Z"/><path class="cls-13" d="M172.35,115.21a8.41,8.41,0,0,1,.89,4c1.42.69,3.26-.34,3.43-1.41-.27-.57-.56-1.09-.81-1.69Z"/><path class="cls-10" d="M173.05,108.15a4.52,4.52,0,0,1,2,2.51,1.32,1.32,0,0,0,.42.63,3,3,0,0,1,1.31,2.22c.17,1,.4,1.41.25,1.85a1.85,1.85,0,0,1-.94.93,7.47,7.47,0,0,1-3.32.5c-.73,0-.81-.27-1.32-.7-1.15-.32-.87-1.09-.62-1.27.71-.53,1.27.31,1.83.29C171.86,113.56,173.6,109.45,173.05,108.15Z"/><path class="cls-13" d="M173.05,108.15c.5,2.15-1.34,4.84-.35,7C172.34,112.58,174.09,109.9,173.05,108.15Z"/><path class="cls-14" d="M174.8,111.54a1.88,1.88,0,0,1,.09-.53,3.13,3.13,0,0,0,.31-.88,1.83,1.83,0,0,1-.13.9A2.33,2.33,0,0,1,174.8,111.54Z"/><path class="cls-14" d="M174.17,112.53a1.49,1.49,0,0,0-.48.45,3.61,3.61,0,0,1-.37.68,2.85,2.85,0,0,0,.54-.6C174,112.9,174,112.69,174.17,112.53Z"/><path class="cls-15" d="M176.3,113.9a1.44,1.44,0,0,0-.28.37,2,2,0,0,1-.75.71c.62-.17,1-.35,1.25-.77C176.55,114.16,176.46,113.75,176.3,113.9Z"/><path class="cls-17" d="M174.82,112c.86.63,1.55.33,1.11,1.3C176.69,112.27,175.73,112.49,174.82,112Z"/><path class="cls-14" d="M174.93,111c.07,0,.15,0,.2.11a.17.17,0,0,1,0,.22c-.07,0-.15,0-.2-.11A.17.17,0,0,1,174.93,111Z"/><path class="cls-14" d="M173.76,112.92c.07,0,.14,0,.19.11a.16.16,0,0,1,0,.23.16.16,0,0,1-.21-.11A.17.17,0,0,1,173.76,112.92Z"/><path class="cls-10" d="M148.59,115.78c-.52.07-1,.1-1.5.14a2.21,2.21,0,0,1-.88-.06.26.26,0,0,1-.14-.32c.05-.2.39-.26.71-.27a12.53,12.53,0,0,0,1.61-.25c-.5,0-1.24.1-1.73.11s-.53-.2-.52-.34c0-.37.72-.37,1-.37.47,0,.82-.06,1.22-.06.12,0,.94,0,.34-.09a10.52,10.52,0,0,1-1.7-.44.27.27,0,0,1-.16-.33c.08-.15.35-.24.72-.2.62.07,1.5.23,1.73.28l.62.11c.62.1,1.34.14,1.71-.27.14-.15.14-.37.24-.69.15-.49.36-.86.94-.85a4.86,4.86,0,0,0-.08,1.94c.32.57.24,1.29.41,1.51a3.84,3.84,0,0,0,.56.43l-.43,1.63-.61.42a4.28,4.28,0,0,0-.66-.5,6.41,6.41,0,0,1-1.94-.67,2.08,2.08,0,0,0-.77-.2c-.59,0-1.74.46-2.21.27-.17-.07-.26-.17-.23-.27s.58-.31,1-.4A2.36,2.36,0,0,0,148.59,115.78Z"/><path class="cls-3" d="M169.48,120.25l-7.06.13L156,116.59c-.92-.56-1-.8-1.94-.73l-.88-.47c.32.67-.65,1.88-1,2.08l.74.57a2,2,0,0,0,.88,1.06l7.34,5.21,7.54,1.44c1.75.27,3.95.32,4.21-2.13C173.18,120.86,171.58,120.26,169.48,120.25Z"/><path class="cls-18" d="M184.72,83.93a7.92,7.92,0,0,0-7.16,0,3.69,3.69,0,0,0-1.47,1.7c0,.31,0,.63,0,.93a2.55,2.55,0,0,0,1.49,2,7.92,7.92,0,0,0,7.16,0,2.44,2.44,0,0,0,1.46-2.15v-.8A3.41,3.41,0,0,0,184.72,83.93Z"/><path class="cls-18" d="M177.28,85.65v.87a1.43,1.43,0,0,1,.21-.72,3.11,3.11,0,0,1,1.74-1.22,6.18,6.18,0,0,1,1.7-.29,5.92,5.92,0,0,1,2.5.43,3.88,3.88,0,0,1,.46.22,1.94,1.94,0,0,1,1.14,1.6v-.87c0-1.35-1.71-2.2-3.54-2.31C179.45,83.23,177.28,84,177.28,85.65Z"/><path class="cls-18" d="M183.88,84.51c1.51.87,1.52,2.3,0,3.17a6.06,6.06,0,0,1-5.47,0c-1.51-.87-1.52-2.3,0-3.17A6.08,6.08,0,0,1,183.88,84.51Z"/><path class="cls-18" d="M184.72,83.58a7.92,7.92,0,0,0-7.16,0c-2,1.14-2,3,0,4.15a7.92,7.92,0,0,0,7.16,0c2-1.15,1.95-3,0-4.15Zm-.84.53c1.51.86,1.52,2.27,0,3.14a6.12,6.12,0,0,1-5.47,0c-1.52-.87-1.52-2.28,0-3.14A6.08,6.08,0,0,1,183.88,84.11Z"/><path class="cls-18" d="M138.29,90.16l.8-.46a2.42,2.42,0,0,1-2.52-.49,5.83,5.83,0,0,1-.81-.76l0,0a7,7,0,0,1-.82-1.16,7.69,7.69,0,0,1-.61-1.44.56.56,0,0,1,0-.12c-.26-1-.37-2.55.68-3.17l-.8.46c-1.46.84-1.34,2.84-.5,4.44C134.69,89.46,136.88,91,138.29,90.16Z"/><path class="cls-18" d="M136.68,83a6.39,6.39,0,0,1,2.89,5c0,1.83-1.31,2.58-2.91,1.66a6.37,6.37,0,0,1-2.88-5C133.78,82.78,135.09,82,136.68,83Z"/><polygon class="cls-18" points="137.02 90.87 137.82 90.41 137.82 90.92 137.02 91.38 137.02 90.87"/><polygon class="cls-18" points="133.25 82.99 132.45 83.45 132.89 83.71 133.69 83.24 133.25 82.99"/><path class="cls-18" d="M139.45,90.84a2,2,0,0,1-.51.44h0l.8-.47a1.93,1.93,0,0,0,.51-.44Z"/><polygon class="cls-18" points="139.94 89.83 139.14 90.3 139.45 90.84 140.25 90.38 139.94 89.83"/><path class="cls-18" d="M134.14,81.65l.8-.47a2.16,2.16,0,0,0-.66.23l-.8.47A2.9,2.9,0,0,0,134.14,81.65Z"/><polygon class="cls-18" points="134.14 81.65 134.94 81.18 135.25 81.72 134.45 82.19 134.14 81.65"/><path class="cls-18" d="M140.33,89l-.92.4a2.52,2.52,0,0,1-.27.92l.8-.47A2.44,2.44,0,0,0,140.33,89Z"/><path class="cls-18" d="M135.42,82.36l.77-.54a2.48,2.48,0,0,0-.94-.1l-.8.47A2.52,2.52,0,0,1,135.42,82.36Z"/><path class="cls-18" d="M140.78,87.34l-.8.46a6.79,6.79,0,0,1-.1,1,3.72,3.72,0,0,1,.09.92l.8-.46A5.06,5.06,0,0,0,140.78,87.34Z"/><polygon class="cls-18" points="140.34 87.08 139.53 87.55 139.98 87.8 140.78 87.34 140.34 87.08"/><polygon class="cls-18" points="137.05 82.73 137.85 82.26 137.85 82.77 137.05 83.24 137.05 82.73"/><path class="cls-18" d="M137.05,82.73l.8-.47a5.23,5.23,0,0,0-1.65-1l-.81.46A8.26,8.26,0,0,1,137.05,82.73Z"/><path class="cls-18" d="M139.53,87.55l.81-.47a8.13,8.13,0,0,0-.39-1.3l-.8.46A7.54,7.54,0,0,1,139.53,87.55Z"/><path class="cls-18" d="M138,84.23l.8-.47h0a6.56,6.56,0,0,0-.92-1l-.8.47A6.09,6.09,0,0,0,138,84.23Z"/><path class="cls-18" d="M139.46,86.06l.8-.46a9,9,0,0,0-1.16-2l-.8.47A9.38,9.38,0,0,1,139.46,86.06Z"/><path class="cls-18" d="M136.2,90a6.46,6.46,0,0,1-2.93-5.08c0-1.87,1.32-2.62,2.95-1.68a6.48,6.48,0,0,1,2.93,5.07c0,1.87-1.33,2.62-3,1.69ZM140,87.8l-.45-.25a7,7,0,0,0-.38-1.31l.31-.18a9.56,9.56,0,0,0-1.16-2l-.32.18a6.76,6.76,0,0,0-.93-1v-.51a6.23,6.23,0,0,0-.83-.58,4.06,4.06,0,0,0-.83-.38v.51a2.21,2.21,0,0,0-.94-.09l-.31-.54a1.85,1.85,0,0,0-1.17.66l.31.55a2.3,2.3,0,0,0-.39.85l-.44-.26a4.28,4.28,0,0,0-.1.9,5.72,5.72,0,0,0,.09,1l.44.26a8,8,0,0,0,.39,1.3l-.32.18a9.49,9.49,0,0,0,1.17,2l.31-.18a8.06,8.06,0,0,0,.94,1v.51a6.53,6.53,0,0,0,.83.58,4.86,4.86,0,0,0,.82.37v-.51a2.44,2.44,0,0,0,.94.1l.32.54a1.87,1.87,0,0,0,1.17-.67l-.31-.54a2.53,2.53,0,0,0,.39-.86l.44.26a4.16,4.16,0,0,0,.09-.9A7,7,0,0,0,140,87.8Z"/><path class="cls-18" d="M152,109.07a7.86,7.86,0,0,0-7.16,0,3.77,3.77,0,0,0-1.47,1.69c0,.31,0,.63,0,.94a2.58,2.58,0,0,0,1.49,2,7.92,7.92,0,0,0,7.16,0,2.47,2.47,0,0,0,1.47-2.16v-.79A3.37,3.37,0,0,0,152,109.07Z"/><path class="cls-18" d="M144.6,110.79v.86a1.39,1.39,0,0,1,.2-.71,3.16,3.16,0,0,1,1.74-1.23,6.66,6.66,0,0,1,1.71-.29,6.28,6.28,0,0,1,2.5.43,4.78,4.78,0,0,1,.45.23,1.94,1.94,0,0,1,1.14,1.59v-.86c0-1.35-1.71-2.21-3.53-2.32C146.77,108.37,144.6,109.14,144.6,110.79Z"/><path class="cls-18" d="M151.2,109.65c1.51.87,1.52,2.29,0,3.17a6.08,6.08,0,0,1-5.48,0c-1.51-.88-1.52-2.3,0-3.17A6,6,0,0,1,151.2,109.65Z"/><path class="cls-18" d="M152,108.72a7.86,7.86,0,0,0-7.16,0c-2,1.14-2,3,0,4.14a7.92,7.92,0,0,0,7.16,0c2-1.14,2-3,0-4.14Zm-.84.52c1.51.87,1.52,2.28,0,3.14a6.08,6.08,0,0,1-5.48,0c-1.51-.86-1.52-2.27,0-3.14A6.14,6.14,0,0,1,151.2,109.24Z"/><path class="cls-18" d="M158.81,92.93l-.8-.47a2.42,2.42,0,0,0,2.52-.49,5.22,5.22,0,0,0,.81-.75l0,0A6.59,6.59,0,0,0,162.2,90a7.89,7.89,0,0,0,.61-1.43.56.56,0,0,0,0-.12c.26-1,.37-2.56-.68-3.18l.8.47c1.45.83,1.34,2.84.5,4.44C162.41,92.22,160.22,93.74,158.81,92.93Z"/><path class="cls-18" d="M160.42,85.72a6.37,6.37,0,0,0-2.89,5c0,1.83,1.31,2.57,2.9,1.65a6.34,6.34,0,0,0,2.89-5C163.32,85.54,162,84.8,160.42,85.72Z"/><polygon class="cls-18" points="160.07 93.64 159.27 93.17 159.28 93.68 160.08 94.15 160.07 93.64"/><polygon class="cls-18" points="163.85 85.75 164.65 86.22 164.21 86.47 163.41 86.01 163.85 85.75"/><path class="cls-18" d="M157.65,93.61a2.12,2.12,0,0,0,.51.43h0l-.8-.47a1.88,1.88,0,0,1-.51-.43Z"/><polygon class="cls-18" points="157.16 92.6 157.96 93.06 157.65 93.61 156.85 93.14 157.16 92.6"/><path class="cls-18" d="M163,84.41l-.8-.46a1.73,1.73,0,0,1,.66.23l.8.46A2.48,2.48,0,0,1,163,84.41Z"/><polygon class="cls-18" points="162.96 84.41 162.16 83.95 161.84 84.49 162.65 84.95 162.96 84.41"/><path class="cls-18" d="M156.77,91.74l.92.41a2.53,2.53,0,0,0,.27.91l-.8-.46A2.4,2.4,0,0,1,156.77,91.74Z"/><path class="cls-18" d="M161.68,85.12l-.77-.54a2.26,2.26,0,0,1,.93-.09l.81.46A2.72,2.72,0,0,0,161.68,85.12Z"/><path class="cls-18" d="M156.32,90.1l.8.47a6.93,6.93,0,0,0,.1,1,3.68,3.68,0,0,0-.09.92l-.8-.47A4.86,4.86,0,0,1,156.32,90.1Z"/><polygon class="cls-18" points="156.76 89.85 157.56 90.31 157.12 90.57 156.32 90.1 156.76 89.85"/><polygon class="cls-18" points="160.05 85.49 159.25 85.03 159.25 85.54 160.05 86 160.05 85.49"/><path class="cls-18" d="M160.05,85.49l-.8-.46a5.07,5.07,0,0,1,1.65-1l.8.47A8.42,8.42,0,0,0,160.05,85.49Z"/><path class="cls-18" d="M157.57,90.31l-.81-.46a8.25,8.25,0,0,1,.39-1.31l.8.47A7.19,7.19,0,0,0,157.57,90.31Z"/><path class="cls-18" d="M159.12,87l-.8-.47h0a6.49,6.49,0,0,1,.92-1l.8.46A5.71,5.71,0,0,1,159.12,87Z"/><path class="cls-18" d="M157.64,88.83l-.8-.47a9.14,9.14,0,0,1,1.16-2l.8.46A9.21,9.21,0,0,0,157.64,88.83Z"/><path class="cls-18" d="M160.9,92.72a6.46,6.46,0,0,0,2.93-5.08c0-1.86-1.33-2.61-3-1.68A6.46,6.46,0,0,0,158,91c0,1.87,1.33,2.62,3,1.68Zm-3.78-2.15.45-.26A7.09,7.09,0,0,1,158,89l-.31-.18a9.44,9.44,0,0,1,1.16-2l.32.18a6.76,6.76,0,0,1,.93-1v-.51a6.53,6.53,0,0,1,.83-.58,4.86,4.86,0,0,1,.82-.37v.51a2.4,2.4,0,0,1,.94-.1l.31-.54a1.87,1.87,0,0,1,1.17.67l-.31.54a2.38,2.38,0,0,1,.39.85l.44-.25a4.16,4.16,0,0,1,.09.9,4.93,4.93,0,0,1-.08,1l-.44.25a7.84,7.84,0,0,1-.39,1.31l.31.18a8.76,8.76,0,0,1-1.16,2l-.32-.18a6.76,6.76,0,0,1-.93,1v.51a5.65,5.65,0,0,1-.83.58,4.25,4.25,0,0,1-.82.38v-.51a2.21,2.21,0,0,1-.94.09l-.31.54a1.85,1.85,0,0,1-1.17-.66l.31-.55a2.3,2.3,0,0,1-.39-.85l-.44.26a4.29,4.29,0,0,1-.09-.9A4.88,4.88,0,0,1,157.12,90.57Z"/><path class="cls-18" d="M165.36,67.34a7.92,7.92,0,0,0-7.16,0,3.75,3.75,0,0,0-1.47,1.7c0,.31,0,.63,0,.93a2.6,2.6,0,0,0,1.49,2,7.92,7.92,0,0,0,7.16,0,2.45,2.45,0,0,0,1.47-2.15v-.8A3.41,3.41,0,0,0,165.36,67.34Z"/><path class="cls-18" d="M157.92,69.06v.87a1.53,1.53,0,0,1,.2-.72A3.17,3.17,0,0,1,159.86,68a6.25,6.25,0,0,1,1.71-.29,5.92,5.92,0,0,1,2.5.43,3.74,3.74,0,0,1,.45.22,1.94,1.94,0,0,1,1.14,1.6v-.87c0-1.35-1.72-2.2-3.54-2.31C160.09,66.64,157.92,67.41,157.92,69.06Z"/><path class="cls-18" d="M164.52,67.92c1.51.87,1.52,2.3,0,3.17a6.08,6.08,0,0,1-5.48,0c-1.51-.87-1.52-2.3,0-3.17A6.06,6.06,0,0,1,164.52,67.92Z"/><path class="cls-18" d="M165.36,67a7.92,7.92,0,0,0-7.16,0c-2,1.14-1.95,3,0,4.15a7.92,7.92,0,0,0,7.16,0c2-1.15,2-3,0-4.15Zm-.84.53c1.52.86,1.52,2.27,0,3.14a6.14,6.14,0,0,1-5.48,0c-1.51-.87-1.52-2.28,0-3.14A6.08,6.08,0,0,1,164.52,67.52Z"/><path class="cls-16" d="M160.44,161.7c-.67-1-.13-1.46.74-1.77,2.15-.76,3.73,1.17,3,2.41-.34,1.32-4.83,7.31-5.82,8.48a2.69,2.69,0,0,1-3.25.58c-1.24-.62-1.34-1.9-.43-3.47C155.41,166.59,159,163.92,160.44,161.7Z"/><path class="cls-10" d="M155.3,160.05a7.59,7.59,0,0,1-1.67.13c-.37-.18-1.35-1-1.62-1.19-.8-.54-1.19-.87-1.81-.63s-3.77,1.11-3.15,1.73c.31.13,2.13.2,2.58.4s1.13,1.47,1.83,1.57,1.73-.22,2.29-.15l1.39.2Z"/><path class="cls-16" d="M163.24,159.92a17.59,17.59,0,0,0-1.91-.43,20.51,20.51,0,0,0-6.57.38c-.17,0-.42.25-.56.26a2.39,2.39,0,0,1-.49,0,2.17,2.17,0,0,0-.07,1.84l.53.06c.2.06.37.25.63.3a26.41,26.41,0,0,0,6.61.41c1-.11,3.29.13,2.91-1.73A1.55,1.55,0,0,0,163.24,159.92Z"/><path class="cls-13" d="M158.58,213.61a8.45,8.45,0,0,0,.69,2.81c.19.2.42.32.53.56.6,1.25.73,2.45.31,8.86l-1.51,0-.2-2.26c-.18-.92-.7-2.27-.91-3.1-.46-1.81-.5-2.72-.78-4Z"/><path class="cls-19" d="M161.76,221.33a3,3,0,0,0,.52-.08c.08-.08.22-.51.12-.59S161.82,221.2,161.76,221.33Z"/><path class="cls-19" d="M160.92,218.76a2.91,2.91,0,0,0,.26,1.72c.63,2.08,1,2.2.74,3.14a4.32,4.32,0,0,1-.93,1.65,5.3,5.3,0,0,1-1.06,1.16c-.8.54-1.5.8-1.33-.3a5.36,5.36,0,0,1,.26-1c.56-1.3,1.22-1.87.86-3.48-.26-1.21-.68-2-.14-2.81Z"/><path class="cls-16" d="M160.8,217.47a6.75,6.75,0,0,0,1.6,3.19c-.13,0-.45.29-.63.66-1.31-1.5-2-2.22-2.35-1.58a22.16,22.16,0,0,0,.4,2.28,2.22,2.22,0,0,1,0,1.19c-.51,1.22-1.46,3-1.1,3.6a2.19,2.19,0,0,1-.27-1.17c0-.85.15-2,.17-2.7,0-.95-.34-1.78-.4-3.07a9.89,9.89,0,0,1,0-1.09c.05-.92.15-2.13.8-2.48a1.71,1.71,0,0,1,1.15.13A1.36,1.36,0,0,1,160.8,217.47Z"/><path class="cls-3" d="M151.84,201.17l-4.62-13.3-.15-3.65a3.41,3.41,0,0,1,.48-1.48c2.44.71,3.8,1.48,6.42,1.39a11.1,11.1,0,0,1,1.9,5,50,50,0,0,0,.81,10.66c2.92,9.76,1.4,9.42,2.52,15.91.09.69-2,1.24-2.78.81Z"/><path class="cls-10" d="M150,219c0,1,1,2,1.13,2.67.26,1.52-.85.73-2.11,2.68-.5,0-1.61,1.8-3.11,1.89a.8.8,0,0,1-.28-1.39c.31-.18.58-.05.83-.26.52-.46,1.13-4.2,1-5.28Z"/><path class="cls-16" d="M150.61,220.45c-1.22.15-2.35,3.1-3.29,4.38-.46.63-1.43,0-1-.18a9.12,9.12,0,0,0-1.48,0c-.76.12-.49.88,0,1.24,1.15.79,2.18,1.24,3.22.71a5.72,5.72,0,0,0,.65-.42,2.85,2.85,0,0,0,.42-.35,11.38,11.38,0,0,0,.78-1.6c.11-.19.19-.22.26-.17a21.59,21.59,0,0,1-.07,3.35c0,.16.55.28.66.16l1-4.71a1.7,1.7,0,0,0-.12-1.21A10.2,10.2,0,0,0,150.61,220.45Z"/><path class="cls-19" d="M147.43,226.82a2.39,2.39,0,0,0,.62-.21,5.72,5.72,0,0,0,.65-.42,2.85,2.85,0,0,0,.42-.35c.37-.43.55-1.25,1-1.8-.14-.08-.49-.08-.85.51a5.62,5.62,0,0,1-1.61,2.17Z"/><path class="cls-3" d="M143.81,198.35a44.7,44.7,0,0,1-.59-8.18,9.88,9.88,0,0,1,1.29-5.1c2.32.72,4.05,1.42,6.69,1.32a8.11,8.11,0,0,1,.9,4.35c-.27,3.19-1.53,5.58-1.88,11.28.9,6.38.24,10.68.1,16.86,0,.69-2.24,1.24-2.91.81C146,212.45,145.18,205.43,143.81,198.35Z"/><path class="cls-20" d="M153.45,168.72c2.73-.31,2.73,4.14,1.79,6.24-2.47,5.45-.87,6.3-1.1,8.78l.05,1c-2.34,3.46-9.12,3.19-9.94.69,2.29-5.59-.68-10.4-.15-11.92a12.25,12.25,0,0,1,3.53-2.75A18.21,18.21,0,0,1,153.45,168.72Z"/><path class="cls-4" d="M145.18,178.41c-.46-1.52-1.13-4.39-.49-5.56a3.12,3.12,0,0,1,.93-.95c.91-.72,6-3.31,7.39-3.48,2.81-.36,3.25,1.66,3.38,4.2.28,5.35-.18,11.3,5.33,13.81a2.46,2.46,0,0,1-.85,2.79,6.44,6.44,0,0,1-3.83-1.59,8.26,8.26,0,0,0,3.15,2.15,9.23,9.23,0,0,1-3,1.41C151.13,192.8,146.63,183.14,145.18,178.41Z"/><path class="cls-4" d="M136.8,169.64c-2.24.46-2.63,2.67-1.33,3.32,1,.95,7.71,3.36,9.17,3.86a2.21,2.21,0,0,0,2.75-1.08,2.89,2.89,0,0,0-1.17-4S139.63,170,136.8,169.64Z"/><path class="cls-21" d="M152.58,169.94c.21.89-3.05,1.85-4.17,1.37l0-.22c-.29-1.32-.57-2.45-.77-3.38a3.23,3.23,0,0,1-1.91.11c3.44-2.72,7.46-4.74,8-3.36a10,10,0,0,1-1.66,2.35,2,2,0,0,0-.23.89h0A9.11,9.11,0,0,0,152.58,169.94Z"/><path class="cls-13" d="M145.73,167.84c.3.19,2.4-.51,2.57-.5,1.64.08,3.4-.05,3.73-.53a10,10,0,0,0,1.66-2.35,4.09,4.09,0,0,0-1-4.65c-2.55-2.17-6.56-.58-7.13,1.89-.24,1,.05,1.09,0,1.77a10.13,10.13,0,0,0-.12,2.75C145.46,167,145.53,167.71,145.73,167.84Z"/><path class="cls-22" d="M152.11,168.76c-.09.8-2.38,1.37-3.77,1.05-.14,0-.24-.06-.29-.16a3,3,0,0,0-.82,1.31c1.2,1.15,5,.47,5.45-.87A1,1,0,0,0,152.11,168.76Z"/><path class="cls-23" d="M158.43,166.08c2.18,1.81,3.41,5.07,2.42,6.92-.9,1.68-3.1,2.67-2.42,3.73.56.88,1.87,1.76.31,3.17a6.6,6.6,0,0,1-6.78,1.68c-3.92-1-8-4.34-4.72-8,3.46-3.86,1.43-4.71-.55-7.75-1.06-1.6-2-4.77-1.1-5.95,1.55-2,2.58-.57,4.06-1.28a4.71,4.71,0,0,1,6.5,1.74C157.34,162.24,156.69,164.64,158.43,166.08Z"/><path class="cls-13" d="M127.3,162.14c1,.39,2-.1,2.49.8a10.88,10.88,0,0,1,.48,1.24,3.54,3.54,0,0,1-1.43,1.28,1.14,1.14,0,0,0-.25-.28,4.56,4.56,0,0,0-1.94-.68c-1.12-.24-1.28-.35-2-2.29-.55-1.43-.84-2.22-.3-2.69C125.58,158.42,126.14,161.17,127.3,162.14Z"/><path class="cls-21" d="M126.54,163.63c1,.39,2.07,0,2.51.89.12.22.21.44.3.65a2.51,2.51,0,0,1-.51.29,1.14,1.14,0,0,0-.25-.28,4.56,4.56,0,0,0-1.94-.68c-1.12-.24-1.28-.35-2-2.29a6.06,6.06,0,0,1-.59-2.11c0-.23.42-.27.54,0C125.18,161.7,125.38,162.65,126.54,163.63Z"/><path class="cls-21" d="M124.63,159.72a6.53,6.53,0,0,0,1.42,2.2c.25.27.31.52.66.65.14.05.33-.18.57-.41,0,.29-.13.53.13.55,1.7.09,1.94.47,2.36,2.08h0c-.79-1.13-1.42-1-2.44-1.37l-.64-.41A7.79,7.79,0,0,1,124.63,159.72Z"/><path class="cls-13" d="M129,164.35a1,1,0,0,0-.43-1.18,5.78,5.78,0,0,0-1.76-.29c-.18,0-1-1-1.47-.32a9.8,9.8,0,0,0,1.08,1.07C126.86,163.82,128.63,164.69,129,164.35Z"/><path class="cls-4" d="M137.83,169.92l-5.09-4.38c-.66-.55-.91-.94-1.75-1.13l-.68-.52c-.7-.15-1.87,1.16-1.79,1.56l.44.5c.23.89.78,1.24,1.43,1.92l3.64,3.84a8.88,8.88,0,0,0,1.41,1.39c1,.6,1.58.47,3.53.59C139.92,173.74,138.81,171.15,137.83,169.92Z"/><path class="cls-24" d="M80.36,178.87c1.31-4.09-2.84-4.44-3.46-4-3.81,2.72-3.47,4.19-2.83,5.3a2.19,2.19,0,0,0,1.52.9,5.29,5.29,0,0,0,1.56-.15A5.85,5.85,0,0,0,80.36,178.87Z"/><path class="cls-25" d="M85.9,226.38c-.39-.15-1.24-1.86-2.71-1.69-1.76.2-3.66-1-5.21-1.19-.28,0-.62-.14-.8,0a1.14,1.14,0,0,0-.39,1.88,11,11,0,0,0,1.87,2,12.48,12.48,0,0,0,2.18,1.59c.67.37,1.14.38,1.75.68l0,.57a3,3,0,0,0,1.34.89A3.63,3.63,0,0,0,86.73,230a6.46,6.46,0,0,0,.27-3.24Z"/><path class="cls-3" d="M84.62,187.59c-.34,3.78-2.38,17.54-1.85,20.85.79,5-.22,12.11-.23,17.39a3.11,3.11,0,0,0,1.1,2.09c1.12.92,2.85,1.36,3.4.49.71-4.72,2.09-10.58,2.51-13.2a16.53,16.53,0,0,0-.37-7.86,126,126,0,0,1,3-13.6c.44-1.37,3.19-5.84,1.23-9.48Z"/><path class="cls-3" d="M95.9,230.46c-.41,0-1.8-1.32-3.12-.66-1.59.79-3.78.31-5.3.67-.27.07-.63.09-.76.25a1.14,1.14,0,0,0,.28,1.9,11.23,11.23,0,0,0,2.43,1.2,13.47,13.47,0,0,0,2.59.74c.75.12,1.2,0,1.87,0l.18.54a3.08,3.08,0,0,0,1.57.38,3.6,3.6,0,0,0,2.28-2,6.48,6.48,0,0,0-.86-3.14Z"/><path class="cls-3" d="M85.89,212.91c2.29,5.19,4.11,12.83,6,18.11.7,1.48,4.81,2,5.85.09-.9-4.68-2.1-11.69-3-14.17A14.88,14.88,0,0,0,92.39,212c-.44-2-3-11.62-3.64-15.47.46-2.53,1.51-6.93-1.78-10.64-1.58,1.13-5.94,1.83-8.16.58a42,42,0,0,0,1.77,11.9A116.08,116.08,0,0,0,85.89,212.91Z"/><path class="cls-20" d="M93.73,174a61.86,61.86,0,0,1-.7,9.83c-.6,3.55-8.22,7.71-14.45,4.09.43-2.86,1.08-4.31.7-7.19-.58-4.31-3.32-9.87-2-13.27a3.59,3.59,0,0,1,1.35-1.53c1.46-1.17,9-5,11.3-5.29C96.58,159.73,93.88,170.72,93.73,174Z"/><path class="cls-4" d="M78,175.69c-.7-2.3-1.69-6.63-.74-8.41a4.86,4.86,0,0,1,1.4-1.42c1.35-1.09,8.95-5,11.08-5.26,4.21-.55,4.87,2.51,5.06,6.34.41,8.07-.27,17.06,8,20.85.64,1.47,0,3-1.27,4.21a9.54,9.54,0,0,1-5.74-2.39,12.22,12.22,0,0,0,4.72,3.25A14.28,14.28,0,0,1,95.9,195C86.88,197.42,80.13,182.82,78,175.69Z"/><path class="cls-13" d="M82.85,158.65a15.38,15.38,0,0,1-.1,4.25c2.17-.07,5.18-.64,5.5-2.25a4.86,4.86,0,0,1,.14-2.27C85.23,158.46,85.45,156.86,82.85,158.65Z"/><path class="cls-13" d="M80.88,159.89c.19.45,1.5.65,2.06.71.18,0,1.1-.26,1.3-.26,1.7.08,4,.17,4-.3a2,2,0,0,1,.21-.9,11.56,11.56,0,0,0,2-2.81,4.87,4.87,0,0,0-1.26-5.52c-3.19-2.7-7.42-1-8.6,2.78-.23.73.34,1.15.3,1.78,0,.13-.18.25-.32.52A8.37,8.37,0,0,0,80.88,159.89Z"/><path class="cls-10" d="M83.26,157.87c-.16-.49,0-.66.21-.6a1.4,1.4,0,0,1,.71.92c.26.82-.18,1.84-1,1.41.67.06.64-.75.45-1.26C83.55,158,83.35,157.75,83.26,157.87Z"/><path class="cls-21" d="M83.57,158.1c-.2.35-.28.56-.22.68s.17.18.39,0A1.32,1.32,0,0,0,83.57,158.1Z"/><path class="cls-23" d="M88.64,159.47c.4-1.09,1.42-2,1.83-3.28a5.16,5.16,0,0,0,0-3.71c.22-.94-1.33-2.37-2-2.61a1.6,1.6,0,0,1,.16.27c-1.86-1.06-2.4-.88-4.47-.69l.65.16c-1.15-.05-4.1,1.21-4,3.32.42-.93.89-.79,1.29-.53a3,3,0,0,0,.26,2.39c.66,1,.67,1.15.58,2.66l.38.33c.2-1.18.73-1.07,1.22-.66s.26,1.64.63,2.47C85.85,161.14,88.42,160.07,88.64,159.47Z"/><path class="cls-26" d="M88.28,160.59c.64.2,1.24.86,1.12,1.28-.64,2.61-5.41,3.19-8.38,2.56a6.07,6.07,0,0,1,1.68-1.71C84.57,162.91,87.7,162.13,88.28,160.59Z"/><path class="cls-4" d="M77.23,167c-1.66,2-2.34,5.47-3.42,9.21-.79,2.71-.08,4.2,1,4.6,3.29,1.2,5.84-6.37,6.43-7.83C83.31,168,79.32,164.55,77.23,167Z"/></g></g></g></svg>