<svg xmlns="http://www.w3.org/2000/svg" xmlns:xlink="http://www.w3.org/1999/xlink" viewBox="0 0 324.27 263.72"><defs><style>.cls-1{isolation:isolate;}.cls-2{opacity:0.3;}.cls-3,.cls-53{fill:#fff;}.cls-3{opacity:0;}.cls-4{fill:#fafbfe;}.cls-4,.cls-60{opacity:0.02;}.cls-5{fill:#f5f7fc;}.cls-5,.cls-61{opacity:0.05;}.cls-6{fill:#f1f3fb;}.cls-6,.cls-62{opacity:0.07;}.cls-7{fill:#eceff9;}.cls-63,.cls-7{opacity:0.1;}.cls-8{fill:#e7ebf8;}.cls-64,.cls-8{opacity:0.12;}.cls-9{fill:#e2e7f6;}.cls-65,.cls-9{opacity:0.15;}.cls-10{fill:#dee4f5;}.cls-10,.cls-66{opacity:0.17;}.cls-11{fill:#d9e0f3;}.cls-11,.cls-67{opacity:0.2;}.cls-12{fill:#d4dcf2;}.cls-12,.cls-68{opacity:0.22;}.cls-13{fill:#cfd8f0;}.cls-13,.cls-69{opacity:0.24;}.cls-14{fill:#cad4ef;}.cls-14,.cls-70{opacity:0.27;}.cls-15{fill:#c6d0ed;}.cls-15,.cls-71{opacity:0.29;}.cls-16{fill:#c1ccec;}.cls-16,.cls-72{opacity:0.32;}.cls-17{fill:#bcc8ea;}.cls-17,.cls-73{opacity:0.34;}.cls-18{fill:#b7c4e9;}.cls-18,.cls-74{opacity:0.37;}.cls-19{fill:#b3c0e7;}.cls-19,.cls-75{opacity:0.39;}.cls-20{fill:#aebce6;}.cls-20,.cls-76{opacity:0.41;}.cls-21{fill:#a9b8e4;}.cls-21,.cls-77{opacity:0.44;}.cls-22{fill:#a4b4e3;}.cls-22,.cls-78{opacity:0.46;}.cls-23{fill:#9fb0e1;}.cls-23,.cls-79{opacity:0.49;}.cls-24{fill:#9bade0;}.cls-24,.cls-80{opacity:0.51;}.cls-25{fill:#96a9de;}.cls-25,.cls-81{opacity:0.54;}.cls-26{fill:#91a5dd;}.cls-26,.cls-82{opacity:0.56;}.cls-27{fill:#8ca1db;}.cls-27,.cls-83{opacity:0.59;}.cls-28{fill:#879dda;}.cls-28,.cls-84{opacity:0.61;}.cls-29{fill:#8399d8;}.cls-29,.cls-85{opacity:0.63;}.cls-30{fill:#7e95d7;}.cls-30,.cls-86{opacity:0.66;}.cls-31{fill:#7991d5;}.cls-31,.cls-87{opacity:0.68;}.cls-32{fill:#748dd4;}.cls-32,.cls-88{opacity:0.71;}.cls-33{fill:#7089d2;}.cls-33,.cls-89{opacity:0.73;}.cls-34{fill:#6b85d1;}.cls-34,.cls-90{opacity:0.76;}.cls-35{fill:#6681cf;}.cls-35,.cls-91{opacity:0.78;}.cls-36{fill:#617dce;}.cls-36,.cls-92{opacity:0.8;}.cls-37{fill:#5c79cc;}.cls-37,.cls-93{opacity:0.83;}.cls-38{fill:#5876cb;}.cls-38,.cls-94{opacity:0.85;}.cls-39{fill:#5372c9;}.cls-39,.cls-95{opacity:0.88;}.cls-40{fill:#4e6ec8;}.cls-40,.cls-96{opacity:0.9;}.cls-41{fill:#496ac6;}.cls-41,.cls-97{opacity:0.93;}.cls-42{fill:#4566c5;}.cls-42,.cls-98{opacity:0.95;}.cls-43{fill:#4062c3;}.cls-43,.cls-99{opacity:0.98;}.cls-44{fill:#3b5ec2;}.cls-45,.cls-54,.cls-55{fill:#6c95dc;}.cls-46{fill:#4571c2;}.cls-47{fill:#91d1ed;}.cls-48{fill:#5d4efa;}.cls-49{fill:#4cc2fc;}.cls-50{fill:#72a5d0;opacity:0.5;mix-blend-mode:multiply;}.cls-51{fill:#b5c3db;}.cls-52{fill:#f2f2f2;}.cls-54{opacity:0.69;}.cls-55{opacity:0.67;}.cls-56{fill:#b56cf7;}.cls-57{fill:#e8f0f8;}.cls-58{fill:#e5e8f5;}.cls-59{opacity:0.4;}.cls-60{fill:#fafcfe;}.cls-61{fill:#f6f8fc;}.cls-62{fill:#f1f5fb;}.cls-63{fill:#edf1f9;}.cls-64{fill:#e8eef8;}.cls-65{fill:#e4eaf6;}.cls-66{fill:#dfe7f5;}.cls-67{fill:#dbe3f3;}.cls-68{fill:#d6e0f2;}.cls-69{fill:#d2dcf0;}.cls-70{fill:#cdd9ef;}.cls-71{fill:#c9d5ed;}.cls-72{fill:#c4d2ec;}.cls-73{fill:#bfcfea;}.cls-74{fill:#bbcbe9;}.cls-75{fill:#b6c8e7;}.cls-76{fill:#b2c4e6;}.cls-77{fill:#adc1e4;}.cls-78{fill:#a9bde3;}.cls-79{fill:#a4bae1;}.cls-80{fill:#a0b6e0;}.cls-81{fill:#9bb3de;}.cls-82{fill:#97afdd;}.cls-83{fill:#92acdb;}.cls-84{fill:#8ea8da;}.cls-85{fill:#89a5d8;}.cls-86{fill:#85a1d7;}.cls-87{fill:#809ed5;}.cls-88{fill:#7b9bd4;}.cls-89{fill:#7797d2;}.cls-90{fill:#7294d1;}.cls-91{fill:#6e90cf;}.cls-92{fill:#698dce;}.cls-93{fill:#6589cc;}.cls-94{fill:#6086cb;}.cls-95{fill:#5c82c9;}.cls-96{fill:#577fc8;}.cls-97{fill:#537bc6;}.cls-98{fill:#4e78c5;}.cls-99{fill:#4a74c3;}.cls-100{fill:#1a2089;}.cls-101{fill:#f1f8ff;}.cls-102{fill:#dfa985;}.cls-103{fill:#ebbc96;}.cls-104{fill:url(#linear-gradient);}.cls-105{fill:url(#linear-gradient-2);}.cls-106{fill:url(#linear-gradient-3);}.cls-107{fill:url(#linear-gradient-4);}</style><linearGradient id="linear-gradient" x1="108.64" y1="138.42" x2="118.35" y2="138.42" gradientUnits="userSpaceOnUse"><stop offset="0" stop-color="#f5f5f5"/><stop offset="0.85" stop-color="#e5e8f5"/></linearGradient><linearGradient id="linear-gradient-2" x1="107.87" y1="140.69" x2="117.57" y2="140.69" xlink:href="#linear-gradient"/><linearGradient id="linear-gradient-3" x1="82.59" y1="163.89" x2="109.31" y2="163.89" xlink:href="#linear-gradient"/><linearGradient id="linear-gradient-4" x1="99.89" y1="150.19" x2="122.81" y2="150.19" xlink:href="#linear-gradient"/></defs><title>healthcare_system</title><g class="cls-1"><g id="Layer_2" data-name="Layer 2"><g id="Layer_1-2" data-name="Layer 1"><g class="cls-2"><path class="cls-3" d="M206.56,236.44a11.08,11.08,0,0,1-5.46-1.37l-89.95-51.83a6.42,6.42,0,0,1,0-11.52l56.42-32.51a11.59,11.59,0,0,1,10.93,0L268.44,191a6.41,6.41,0,0,1,0,11.52L212,235.07A11.09,11.09,0,0,1,206.56,236.44Z"/><path class="cls-4" d="M167.61,139.31a10.83,10.83,0,0,1,5.46-1.35,10.46,10.46,0,0,1,1.19.07,10.93,10.93,0,0,1,4.25,1.33l89.86,51.77a6.72,6.72,0,0,1,3.34,4.32,6.55,6.55,0,0,1,.14,1.41,6.73,6.73,0,0,1-3.63,5.69L212,234.94a10.48,10.48,0,0,1-3.29,1.18,11.61,11.61,0,0,1-2.15.2,10.87,10.87,0,0,1-5.44-1.35l-89.95-51.82a6.76,6.76,0,0,1-3.27-4.06,6.16,6.16,0,0,1-.2-1.67,6.75,6.75,0,0,1,3.63-5.7Z"/><path class="cls-5" d="M167.64,139.4a10.64,10.64,0,0,1,5.46-1.32c.36,0,.76,0,1.19.07a11.28,11.28,0,0,1,4.24,1.36l89.76,51.72a6.48,6.48,0,0,1,3.26,4.3,7.05,7.05,0,0,1,.11,1.39,6.81,6.81,0,0,1-3.67,5.62L212,234.8a10.82,10.82,0,0,1-3.26,1.2,13.75,13.75,0,0,1-2.14.21,10.85,10.85,0,0,1-5.43-1.33l-89.94-51.83a6.17,6.17,0,0,1-3.36-5.7,6.84,6.84,0,0,1,3.68-5.63Z"/><path class="cls-6" d="M167.68,139.5a10.52,10.52,0,0,1,5.45-1.31c.36,0,.76,0,1.19.09a11.83,11.83,0,0,1,4.23,1.37l89.67,51.67a6.31,6.31,0,0,1,3.17,4.28,6.49,6.49,0,0,1-3.63,6.93L212,234.67a11.09,11.09,0,0,1-3.24,1.2,12.62,12.62,0,0,1-2.13.22,10.57,10.57,0,0,1-5.41-1.31L111.26,183a6.35,6.35,0,0,1-3.1-4,6.78,6.78,0,0,1-.13-1.63c0-2.18,1.61-4.35,3.72-5.57Z"/><path class="cls-7" d="M167.71,139.59a10.46,10.46,0,0,1,5.45-1.28c.36,0,.76.05,1.19.09a12.18,12.18,0,0,1,4.21,1.4l89.59,51.62a6.12,6.12,0,0,1,3.09,4.26,8.66,8.66,0,0,1,.05,1.35c0,2.12-1.69,4.31-3.75,5.49l-55.56,32a11.53,11.53,0,0,1-3.23,1.2,13.62,13.62,0,0,1-2.12.24,10.53,10.53,0,0,1-5.38-1.3L111.3,182.85a6.13,6.13,0,0,1-3-4,7.79,7.79,0,0,1-.09-1.61c0-2.12,1.71-4.32,3.77-5.5Z"/><path class="cls-8" d="M167.75,139.68a10.34,10.34,0,0,1,5.45-1.26c.36,0,.75.06,1.18.11a12.61,12.61,0,0,1,4.2,1.41l89.49,51.57a6,6,0,0,1,3,4.25,8.4,8.4,0,0,1,0,1.33c0,2.06-1.78,4.27-3.79,5.42L212,234.4a11.94,11.94,0,0,1-3.21,1.22,12.4,12.4,0,0,1-2.11.24,10.31,10.31,0,0,1-5.37-1.28l-89.94-51.82a5.93,5.93,0,0,1-3-4,8.3,8.3,0,0,1,0-1.58c0-2.06,1.81-4.29,3.81-5.44Z"/><path class="cls-9" d="M167.79,139.78a10.14,10.14,0,0,1,5.44-1.24c.36,0,.76.06,1.17.12a13,13,0,0,1,4.19,1.43L268,191.6a5.73,5.73,0,0,1,2.92,4.24,9.57,9.57,0,0,1,0,1.31c0,2-1.87,4.23-3.82,5.35L212,234.27a11.58,11.58,0,0,1-3.19,1.22,13.36,13.36,0,0,1-2.09.26,10.34,10.34,0,0,1-5.35-1.26l-89.95-51.83a5.71,5.71,0,0,1-2.86-4,9,9,0,0,1,0-1.56c0-2,1.92-4.25,3.86-5.37Z"/><path class="cls-10" d="M167.82,139.87a10,10,0,0,1,5.44-1.21c.36,0,.76.07,1.17.12a13.78,13.78,0,0,1,4.18,1.46l89.31,51.46a5.52,5.52,0,0,1,2.84,4.22,11,11,0,0,1,0,1.28c0,2-2,4.2-3.87,5.29l-54.92,31.65a12.69,12.69,0,0,1-3.17,1.23,13.22,13.22,0,0,1-2.09.26,10.16,10.16,0,0,1-5.32-1.24l-90-51.83a5.53,5.53,0,0,1-2.78-4,9.91,9.91,0,0,1,0-1.54c0-1.95,2-4.22,3.9-5.31Z"/><path class="cls-11" d="M167.86,140a9.87,9.87,0,0,1,5.43-1.19c.37,0,.76.08,1.17.14a14,14,0,0,1,4.17,1.47l89.22,51.41a5.35,5.35,0,0,1,2.75,4.2,10.9,10.9,0,0,1-.06,1.27c0,1.89-2.07,4.17-3.91,5.22L211.93,234a12.61,12.61,0,0,1-3.15,1.24,13.06,13.06,0,0,1-2.08.27,10,10,0,0,1-5.31-1.22l-89.95-51.83a5.33,5.33,0,0,1-2.69-4,11.1,11.1,0,0,1,.06-1.52c0-1.89,2.11-4.19,3.94-5.24Z"/><path class="cls-12" d="M167.9,140.06a9.69,9.69,0,0,1,5.43-1.17c.36,0,.75.09,1.16.14a14.86,14.86,0,0,1,4.15,1.5l89.13,51.35a5.21,5.21,0,0,1,2.68,4.19c0,.37-.1.87-.1,1.25,0,1.83-2.16,4.13-3.94,5.15l-54.49,31.4a13.37,13.37,0,0,1-3.14,1.24,13,13,0,0,1-2.06.29,9.83,9.83,0,0,1-5.29-1.21l-89.95-51.82a5.21,5.21,0,0,1-2.62-4,12.57,12.57,0,0,1,.1-1.49c0-1.83,2.21-4.16,4-5.19Z"/><path class="cls-13" d="M167.93,140.15a9.65,9.65,0,0,1,5.43-1.15c.36,0,.75.1,1.16.16a15.86,15.86,0,0,1,4.14,1.51l89,51.31a5,5,0,0,1,2.59,4.17c0,.36-.12.86-.12,1.23,0,1.77-2.26,4.09-4,5.08L211.9,233.74a14,14,0,0,1-3.11,1.25,14.11,14.11,0,0,1-2.06.29,9.78,9.78,0,0,1-5.27-1.18l-89.94-51.83a5,5,0,0,1-2.54-4c0-.43.14-1,.14-1.47,0-1.77,2.31-4.12,4-5.12Z"/><path class="cls-14" d="M168,140.25a9.54,9.54,0,0,1,5.42-1.13c.37,0,.76.1,1.16.16a16.33,16.33,0,0,1,4.13,1.54l88.94,51.25a4.86,4.86,0,0,1,2.51,4.16c0,.35-.15.85-.15,1.2,0,1.72-2.35,4.06-4,5l-54.07,31.16a14.52,14.52,0,0,1-3.09,1.25,14.21,14.21,0,0,1-2.05.31A9.76,9.76,0,0,1,201.5,234l-89.95-51.83a4.26,4.26,0,0,1-2.45-4c-.12-.4.17-1,.17-1.44,0-1.72,2.41-4.09,4.08-5.06Z"/><path class="cls-15" d="M168,140.34a9.4,9.4,0,0,1,5.42-1.1c.37,0,.76.11,1.16.17a16.81,16.81,0,0,1,4.11,1.56l88.86,51.2a4.19,4.19,0,0,1,2.42,4.14c.08.32-.18.83-.18,1.18,0,1.66-2.44,4-4.06,4.95l-53.85,31a14.82,14.82,0,0,1-3.08,1.26,13.67,13.67,0,0,1-2,.32,9.6,9.6,0,0,1-5.23-1.15l-89.95-51.83a4.09,4.09,0,0,1-2.37-3.95c-.11-.38.21-1,.21-1.42,0-1.66,2.51-4.06,4.12-5Z"/><path class="cls-16" d="M168,140.43a9.33,9.33,0,0,1,5.42-1.08c.36,0,.75.12,1.15.19a17.83,17.83,0,0,1,4.1,1.57l88.77,51.15c1.79,1,2.61,2.6,2.33,4.12.08.32-.2.83-.2,1.17,0,1.6-2.55,4-4.1,4.88l-53.64,30.91a16.18,16.18,0,0,1-3.06,1.27,12.47,12.47,0,0,1-2,.32,9.39,9.39,0,0,1-5.21-1.13L111.63,182c-1.73-1-2.53-2.5-2.29-3.94-.11-.38.24-1,.24-1.4,0-1.6,2.62-4,4.18-4.93Z"/><path class="cls-17" d="M168.08,140.53a9.17,9.17,0,0,1,5.41-1.06c.37,0,.75.13,1.15.19a18.92,18.92,0,0,1,4.09,1.6l88.67,51.09c1.79,1,2.58,2.61,2.26,4.11.07.31-.24.82-.24,1.15,0,1.54-2.64,3.95-4.14,4.81l-53.42,30.79a15.84,15.84,0,0,1-3.05,1.27,13.41,13.41,0,0,1-2,.34,9.33,9.33,0,0,1-5.19-1.11l-90-51.83c-1.73-1-2.5-2.5-2.21-3.93-.1-.36.29-1,.29-1.38,0-1.54,2.71-4,4.22-4.86Z"/><path class="cls-18" d="M168.11,140.62a9.12,9.12,0,0,1,5.41-1c.37,0,.75.14,1.15.21a19.72,19.72,0,0,1,4.07,1.61l88.59,51c1.79,1,2.55,2.6,2.17,4.09.07.29-.27.81-.27,1.12,0,1.49-2.73,3.92-4.18,4.75l-53.21,30.66a17.12,17.12,0,0,1-3,1.29,13.08,13.08,0,0,1-2,.34,9.2,9.2,0,0,1-5.17-1.09L111.7,181.78c-1.73-1-2.47-2.51-2.13-3.92-.1-.35.32-1,.32-1.35,0-1.49,2.82-4,4.27-4.8Z"/><path class="cls-19" d="M168.15,140.71a9,9,0,0,1,5.4-1c.37.05.75.14,1.15.21a21.45,21.45,0,0,1,4.06,1.64l88.49,51c1.79,1,2.52,2.61,2.09,4.08.07.28-.29.8-.29,1.1,0,1.43-2.83,3.88-4.22,4.68l-53,30.54a18.08,18.08,0,0,1-3,1.29,14.78,14.78,0,0,1-2,.36,9.21,9.21,0,0,1-5.16-1.08l-89.95-51.83c-1.73-1-2.44-2.51-2-3.91-.1-.33.36-1,.36-1.33,0-1.43,2.91-3.93,4.31-4.73Z"/><path class="cls-20" d="M168.19,140.81a8.89,8.89,0,0,1,5.39-1c.38.06.76.16,1.15.23a21.19,21.19,0,0,1,4,1.66l88.41,50.93c1.79,1,2.49,2.62,2,4.07.07.27-.32.79-.32,1.08,0,1.37-2.92,3.84-4.26,4.61l-52.78,30.42a18.12,18.12,0,0,1-3,1.29,12.87,12.87,0,0,1-2,.37,9,9,0,0,1-5.13-1.06l-89.95-51.82c-1.73-1-2.42-2.52-2-3.91-.09-.32.39-1,.39-1.3,0-1.37,3-3.9,4.36-4.67Z"/><path class="cls-21" d="M168.22,140.9a8.79,8.79,0,0,1,5.4-1c.37,0,.75.16,1.14.24a22.57,22.57,0,0,1,4,1.67l88.31,50.89c1.79,1,2.46,2.61,1.92,4,.07.26-.35.79-.35,1.07,0,1.31-3,3.8-4.29,4.54l-52.57,30.29a19.41,19.41,0,0,1-3,1.31,15.8,15.8,0,0,1-2,.38,9,9,0,0,1-5.12-1l-89.94-51.83c-1.74-1-2.39-2.53-1.88-3.9-.09-.3.43-1,.43-1.28,0-1.31,3.11-3.86,4.4-4.6Z"/><path class="cls-22" d="M168.26,141a8.58,8.58,0,0,1,5.39-.95c.37,0,.75.17,1.14.24a25.61,25.61,0,0,1,4,1.7L267,192.82c1.79,1,2.43,2.62,1.84,4,.06.25-.38.78-.38,1,0,1.26-3.12,3.78-4.34,4.48l-52.36,30.17a20.37,20.37,0,0,1-2.95,1.31,13.45,13.45,0,0,1-2,.39,8.85,8.85,0,0,1-5.1-1l-89.95-51.83c-1.73-1-2.36-2.53-1.8-3.88-.08-.3.47-.95.47-1.26,0-1.26,3.22-3.84,4.45-4.54Z"/><path class="cls-23" d="M168.29,141.09a8.69,8.69,0,0,1,5.39-.93c.38.06.75.18,1.14.26a26.09,26.09,0,0,1,4,1.71L267,192.92c1.78,1,2.39,2.61,1.75,4,.06.24-.41.77-.41,1,0,1.2-3.21,3.74-4.38,4.41l-52.14,30a21.87,21.87,0,0,1-2.93,1.31,13.53,13.53,0,0,1-1.95.4,8.62,8.62,0,0,1-5.07-1l-90-51.83c-1.74-1-2.34-2.53-1.72-3.87-.08-.28.51-.94.51-1.24,0-1.2,3.32-3.8,4.49-4.47Z"/><path class="cls-24" d="M168.33,141.18a8.53,8.53,0,0,1,5.38-.9c.38.06.75.18,1.14.26a28,28,0,0,1,4,1.74l88,50.73c1.79,1,2.37,2.62,1.67,4,.06.22-.44.76-.44,1,0,1.14-3.3,3.7-4.41,4.34l-51.93,29.92a23.21,23.21,0,0,1-2.91,1.33,13.48,13.48,0,0,1-1.94.41,8.63,8.63,0,0,1-5.06-1L111.92,181.2c-1.74-1-2.31-2.55-1.64-3.87-.08-.27.54-.93.54-1.21,0-1.15,3.42-3.77,4.54-4.41Z"/><path class="cls-25" d="M168.37,141.28a8.43,8.43,0,0,1,5.38-.89c.37.07.74.2,1.13.28a30.57,30.57,0,0,1,4,1.76l87.95,50.67c1.78,1,2.33,2.63,1.58,4,.05.21-.47.75-.47,1,0,1.09-3.39,3.67-4.45,4.28l-51.71,29.8a23.1,23.1,0,0,1-2.9,1.33,13,13,0,0,1-1.92.42,8.59,8.59,0,0,1-5-1L112,181.1c-1.74-1-2.28-2.55-1.55-3.86-.07-.25.58-.91.58-1.19,0-1.08,3.52-3.73,4.58-4.34Z"/><path class="cls-26" d="M168.4,141.37a8.33,8.33,0,0,1,5.38-.86c.37.07.75.2,1.13.28a32.88,32.88,0,0,1,4,1.78l87.86,50.63c1.79,1,2.31,2.62,1.51,4,0,.21-.5.75-.5,1,0,1-3.49,3.63-4.49,4.21L211.74,232a25.29,25.29,0,0,1-2.87,1.34,13.86,13.86,0,0,1-1.92.43,8.53,8.53,0,0,1-5-.95L112,181c-1.74-1-2.26-2.55-1.47-3.85-.07-.24.61-.9.61-1.16,0-1,3.62-3.71,4.63-4.28Z"/><path class="cls-27" d="M168.44,141.46a8.27,8.27,0,0,1,5.37-.83c.38.07.75.21,1.13.29a34.69,34.69,0,0,1,3.95,1.8l87.77,50.57c1.78,1,2.28,2.63,1.42,4,0,.19-.53.74-.53.94,0,1-3.58,3.6-4.53,4.14l-51.29,29.55a25.29,25.29,0,0,1-2.86,1.35,13.66,13.66,0,0,1-1.9.44,8.3,8.3,0,0,1-5-.93L112,180.9c-1.74-1-2.22-2.56-1.39-3.84-.06-.22.66-.89.66-1.14,0-1,3.72-3.67,4.67-4.21Z"/><path class="cls-28" d="M168.48,141.56a8.14,8.14,0,0,1,5.36-.82c.38.08.75.22,1.13.31a38.6,38.6,0,0,1,3.94,1.81l87.67,50.52c1.78,1,2.25,2.63,1.34,3.94,0,.18-.56.73-.56.92,0,.91-3.68,3.56-4.57,4.07l-51.07,29.43a29,29,0,0,1-2.84,1.35,13.66,13.66,0,0,1-1.89.46,8.26,8.26,0,0,1-5-.92l-89.95-51.82c-1.74-1-2.2-2.57-1.31-3.83-.06-.22.7-.89.7-1.12,0-.92,3.82-3.64,4.71-4.16Z"/><path class="cls-29" d="M168.51,141.65a8.07,8.07,0,0,1,5.37-.79c.37.07.74.22,1.12.31a41.31,41.31,0,0,1,3.92,1.84l87.59,50.47c1.78,1,2.22,2.63,1.25,3.92,0,.17-.58.71-.58.89,0,.86-3.78,3.53-4.61,4l-50.86,29.31c-.41.23-2.45,1.25-2.82,1.36a15.12,15.12,0,0,1-1.88.46,8.26,8.26,0,0,1-5-.89L112.1,180.71c-1.75-1-2.18-2.58-1.23-3.82-.06-.2.73-.88.73-1.1,0-.85,3.92-3.61,4.76-4.09Z"/><path class="cls-30" d="M168.55,141.75a8,8,0,0,1,5.36-.78c.38.08.74.24,1.12.33s3.41,1.57,3.91,1.86l87.49,50.41c1.78,1,2.19,2.64,1.17,3.91,0,.15-.61.7-.61.87,0,.8-3.87,3.49-4.65,3.94l-50.65,29.18c-.37.22-2.45,1.27-2.8,1.37a12.48,12.48,0,0,1-1.87.47,8.13,8.13,0,0,1-4.94-.87l-90-51.83c-1.74-1-2.14-2.58-1.14-3.81-.06-.19.77-.87.77-1.07,0-.8,4-3.58,4.8-4Z"/><path class="cls-31" d="M168.58,141.84a7.94,7.94,0,0,1,5.36-.75c.38.08.74.24,1.12.33s3.43,1.62,3.89,1.88l87.41,50.37c1.78,1,2.16,2.63,1.09,3.88,0,.15-.65.7-.65.86,0,.74-4,3.45-4.68,3.87l-50.44,29.06c-.35.2-2.46,1.28-2.78,1.37a14.19,14.19,0,0,1-1.86.49,8,8,0,0,1-4.92-.86l-89.95-51.83c-1.75-1-2.12-2.58-1.06-3.8,0-.17.8-.86.8-1.05,0-.74,4.12-3.54,4.85-4Z"/><path class="cls-32" d="M168.62,141.93a7.87,7.87,0,0,1,5.35-.72c.38.08.74.25,1.12.34s3.45,1.65,3.88,1.9l87.32,50.31c1.77,1,2.12,2.64,1,3.87,0,.14-.67.69-.67.84,0,.68-4.06,3.42-4.73,3.8l-50.22,28.94c-.32.18-2.47,1.29-2.77,1.38a13.51,13.51,0,0,1-1.84.49,7.88,7.88,0,0,1-4.91-.84l-89.94-51.82c-1.75-1-2.09-2.6-1-3.8,0-.16.85-.85.85-1,0-.69,4.22-3.51,4.89-3.9Z"/><path class="cls-33" d="M168.66,142a7.85,7.85,0,0,1,5.35-.71c.38.09.73.26,1.11.35s3.47,1.7,3.87,1.93l87.22,50.25c1.78,1,2.1,2.64.92,3.86,0,.12-.7.68-.7.81,0,.63-4.15,3.39-4.77,3.74l-50,28.81c-.3.17-2.48,1.31-2.75,1.39a13.22,13.22,0,0,1-1.84.51,7.91,7.91,0,0,1-4.88-.82l-89.95-51.83c-1.75-1-2.06-2.6-.9-3.78,0-.15.88-.85.88-1,0-.63,4.32-3.49,4.94-3.84Z"/><path class="cls-34" d="M168.69,142.12a7.76,7.76,0,0,1,5.35-.68c.38.09.74.26,1.11.36s3.5,1.74,3.85,1.94L266.14,194c1.77,1,2.06,2.64.83,3.84,0,.11-.73.67-.73.79,0,.57-4.25,3.35-4.8,3.67l-49.79,28.69c-.27.16-2.49,1.32-2.73,1.4a13.08,13.08,0,0,1-1.83.51,7.8,7.8,0,0,1-4.86-.8l-89.95-51.83c-1.75-1-2-2.6-.82-3.77,0-.14.92-.84.92-1,0-.57,4.42-3.45,5-3.77Z"/><path class="cls-35" d="M168.73,142.21a7.71,7.71,0,0,1,5.34-.66c.38.1.74.28,1.11.38s3.52,1.77,3.84,2l87,50.15c1.78,1,2,2.65.75,3.83,0,.1-.75.66-.75.77,0,.51-4.35,3.31-4.85,3.6l-49.58,28.57c-.24.14-2.48,1.33-2.71,1.4a13.93,13.93,0,0,1-1.81.53,7.74,7.74,0,0,1-4.85-.79l-89.95-51.83c-1.75-1-2-2.61-.73-3.76,0-.12,1-.83,1-1,0-.52,4.53-3.42,5-3.71Z"/><path class="cls-36" d="M168.77,142.31a7.56,7.56,0,0,1,5.33-.64c.39.1.74.28,1.11.38s3.54,1.82,3.83,2l87,50.1c1.77,1,2,2.65.67,3.81,0,.09-.79.66-.79.76,0,.45-4.44,3.27-4.88,3.53l-49.37,28.44c-.22.13-2.49,1.35-2.69,1.41a12.19,12.19,0,0,1-1.81.54,7.62,7.62,0,0,1-4.82-.77l-90-51.82c-1.75-1-2-2.62-.65-3.76,0-.11,1-.82,1-.93,0-.46,4.62-3.38,5.07-3.64Z"/><path class="cls-37" d="M168.8,142.4a7.51,7.51,0,0,1,5.34-.61c.38.09.73.29,1.1.39.21.06,3.56,1.86,3.81,2l86.86,50c1.78,1,2,2.65.59,3.79,0,.08-.82.65-.82.73,0,.4-4.53,3.24-4.92,3.47l-49.15,28.32c-.19.11-2.5,1.36-2.67,1.42a12.07,12.07,0,0,1-1.8.54,7.63,7.63,0,0,1-4.81-.74l-89.94-51.83c-1.76-1-2-2.62-.58-3.75,0-.09,1-.8,1-.9,0-.4,4.73-3.36,5.12-3.58Z"/><path class="cls-38" d="M168.84,142.5a7.47,7.47,0,0,1,5.33-.6,6.87,6.87,0,0,1,1.1.4c.18,0,3.58,1.9,3.8,2l86.77,50c1.77,1,2,2.65.5,3.78,0,.07-.84.64-.84.71,0,.34-4.63,3.21-5,3.4l-48.93,28.2c-.17.09-2.51,1.37-2.66,1.42a13.16,13.16,0,0,1-1.78.56,7.47,7.47,0,0,1-4.79-.73l-89.95-51.83c-1.75-1-1.92-2.63-.49-3.74,0-.08,1.07-.79,1.07-.88,0-.34,4.82-3.32,5.16-3.51Z"/><path class="cls-39" d="M168.87,142.59a7.4,7.4,0,0,1,5.33-.57,5.55,5.55,0,0,1,1.1.41c.15,0,3.61,1.94,3.79,2l86.68,49.95c1.76,1,1.91,2.65.41,3.76,0,0-.87.63-.87.69,0,.28-4.72,3.17-5,3.33l-48.73,28.07c-.13.08-2.51,1.39-2.63,1.43a11.21,11.21,0,0,1-1.78.57,7.35,7.35,0,0,1-4.76-.71l-89.95-51.83c-1.76-1-1.9-2.63-.41-3.72,0-.07,1.1-.79,1.1-.86,0-.29,4.93-3.29,5.21-3.45Z"/><path class="cls-40" d="M168.91,142.68a7.41,7.41,0,0,1,5.32-.55,6.27,6.27,0,0,1,1.1.42c.12,0,3.63,2,3.77,2.07l86.59,49.89c1.77,1,1.89,2.66.33,3.75,0,0-.9.62-.9.66a59.11,59.11,0,0,1-5,3.27l-48.51,27.95c-.11.06-2.52,1.41-2.62,1.44a13,13,0,0,1-1.76.58,7.37,7.37,0,0,1-4.75-.7L112.5,179.64c-1.76-1-1.88-2.64-.33-3.72,0-.06,1.14-.78,1.14-.84a62.33,62.33,0,0,1,5.25-3.38Z"/><path class="cls-41" d="M169,142.78a7.33,7.33,0,0,1,5.32-.53,5.75,5.75,0,0,1,1.09.43c.09,0,3.65,2,3.76,2.08l86.5,49.84c1.76,1,1.85,2.66.25,3.73,0,0-.93.62-.93.65s-4.92,3.1-5.08,3.2L211.56,230c-.08,0-2.53,1.42-2.6,1.44a10.58,10.58,0,0,1-1.75.59,7.33,7.33,0,0,1-4.73-.67l-89.95-51.83c-1.76-1-1.84-2.65-.24-3.71,0,0,1.17-.77,1.17-.81s5.13-3.23,5.3-3.32Z"/><path class="cls-42" d="M169,142.87a7.33,7.33,0,0,1,5.32-.51,5.55,5.55,0,0,1,1.09.45c.06,0,3.67,2.06,3.74,2.1l86.41,49.79c1.77,1,1.83,2.66.17,3.71,0,0-1,.61-1,.63s-5,3.06-5.12,3.13l-48.08,27.7L209,231.33a13.18,13.18,0,0,1-1.74.6,7.24,7.24,0,0,1-4.71-.66l-90-51.83c-1.76-1-1.82-2.65-.17-3.7,0,0,1.22-.76,1.22-.79s5.23-3.19,5.34-3.25Z"/><path class="cls-43" d="M169,143a7.23,7.23,0,0,1,5.31-.48,5.93,5.93,0,0,1,1.09.45l3.73,2.13,86.32,49.73c1.76,1,1.79,2.66.08,3.7,0,0-1,.59-1,.61s-5.1,3-5.16,3.06l-47.87,27.58L209,231.2a11,11,0,0,1-1.73.61,7.11,7.11,0,0,1-4.69-.64l-90-51.83c-1.76-1-1.79-2.66-.08-3.69,0,0,1.25-.75,1.25-.76s5.33-3.16,5.39-3.19Z"/><path class="cls-44" d="M112.64,179.25l90,51.82a7.05,7.05,0,0,0,6.39,0l56.41-32.5c1.77-1,1.77-2.67,0-3.68l-89.94-51.83a7.05,7.05,0,0,0-6.39,0l-56.42,32.5C110.88,176.58,110.88,178.23,112.64,179.25Z"/></g><path class="cls-45" d="M266.79,113.37,174,59.81a1.8,1.8,0,0,0-1.78-.21h0l-.06,0-.71.47.29.15a1.8,1.8,0,0,0-.08.54v73a4.9,4.9,0,0,0,2.36,3.72l92.77,53.56a2.54,2.54,0,0,0,.92.34l.18.33.7-.47h0a1.33,1.33,0,0,0,.56-1.2v-73A5.07,5.07,0,0,0,266.79,113.37Z"/><path class="cls-46" d="M171,134.28v-73c0-1.31,1.06-1.75,2.36-1l92.77,53.56a4.9,4.9,0,0,1,2.36,3.72v73c0,1.3-1.06,1.75-2.36,1L173.32,138A4.88,4.88,0,0,1,171,134.28Z"/><path class="cls-47" d="M264,186.2l-89.14-51.47a2.34,2.34,0,0,1-1.14-1.79V66.87c0-.63.51-.85,1.14-.48L264,117.85a2.36,2.36,0,0,1,1.13,1.79v66.08C265.12,186.34,264.61,186.56,264,186.2Z"/><path class="cls-48" d="M111.55,175.72l91,52.55a7.16,7.16,0,0,0,6.47,0l57.08-33c1.78-1,1.78-2.7,0-3.73L175.1,139a7.16,7.16,0,0,0-6.47,0l-57.08,33C109.77,173,109.77,174.69,111.55,175.72Z"/><path class="cls-49" d="M142.46,187.83l37.48,21.64a2.9,2.9,0,0,0,2.66,0l23.51-13.57a.81.81,0,0,0,0-1.54l-37.48-21.64a3,3,0,0,0-2.66,0l-23.51,13.57C141.72,186.72,141.72,187.41,142.46,187.83Z"/><polygon class="cls-49" points="252.56 188.75 257.1 191.34 251.62 194.5 247.08 191.91 252.56 188.75"/><polygon class="cls-49" points="245.66 191.1 241.12 188.5 246.6 185.34 251.14 187.93 245.66 191.1"/><polygon class="cls-49" points="239.7 187.69 235.16 185.1 240.65 181.93 245.18 184.53 239.7 187.69"/><polygon class="cls-49" points="233.74 184.28 229.2 181.69 234.69 178.53 239.22 181.12 233.74 184.28"/><polygon class="cls-49" points="228.73 175.12 233.26 177.71 227.78 180.88 223.25 178.28 228.73 175.12"/><polygon class="cls-49" points="222.77 171.71 227.31 174.31 221.82 177.47 217.28 174.88 222.77 171.71"/><polygon class="cls-49" points="216.81 168.31 221.35 170.9 215.86 174.06 211.33 171.47 216.81 168.31"/><polygon class="cls-49" points="209.9 170.66 205.37 168.06 210.85 164.9 215.39 167.49 209.9 170.66"/><polygon class="cls-49" points="204.89 161.49 209.43 164.09 203.94 167.25 199.41 164.66 204.89 161.49"/><polygon class="cls-49" points="198.93 158.09 203.47 160.68 197.99 163.84 193.45 161.25 198.93 158.09"/><polygon class="cls-49" points="192.03 160.44 187.49 157.84 192.97 154.68 197.51 157.27 192.03 160.44"/><polygon class="cls-49" points="186.07 157.03 181.53 154.44 187.01 151.27 191.55 153.86 186.07 157.03"/><polygon class="cls-49" points="250.33 195.25 244.84 198.41 238.88 195 234.35 192.41 239.83 189.25 244.37 191.84 250.33 195.25"/><polygon class="cls-49" points="232.93 191.6 228.39 189 233.87 185.84 238.41 188.43 232.93 191.6"/><polygon class="cls-49" points="226.97 188.19 222.43 185.6 227.91 182.43 232.45 185.03 226.97 188.19"/><polygon class="cls-49" points="221.95 179.03 226.49 181.62 221.01 184.78 216.47 182.19 221.95 179.03"/><polygon class="cls-49" points="216 175.62 220.53 178.21 215.05 181.38 210.51 178.78 216 175.62"/><polygon class="cls-49" points="210.04 172.21 214.57 174.81 209.09 177.97 204.55 175.38 210.04 172.21"/><polygon class="cls-49" points="203.13 174.56 198.59 171.97 204.08 168.81 208.61 171.4 203.13 174.56"/><polygon class="cls-49" points="198.12 165.4 202.65 167.99 197.17 171.16 192.63 168.56 198.12 165.4"/><polygon class="cls-49" points="179.29 160.94 174.76 158.34 180.24 155.18 184.78 157.77 179.29 160.94"/><polygon class="cls-49" points="237.59 195.75 243.55 199.16 238.07 202.32 232.11 198.91 228.29 196.73 227.57 196.32 233.06 193.16 233.77 193.56 237.59 195.75"/><polygon class="cls-49" points="226.15 195.51 221.62 192.91 227.1 189.75 231.63 192.34 226.15 195.51"/><polygon class="cls-49" points="220.19 192.1 215.66 189.51 221.14 186.34 225.68 188.94 220.19 192.1"/><polygon class="cls-49" points="215.18 182.94 219.72 185.53 214.23 188.69 209.7 186.1 215.18 182.94"/><polygon class="cls-49" points="209.22 179.53 213.76 182.12 208.27 185.29 203.74 182.69 209.22 179.53"/><polygon class="cls-49" points="203.26 176.12 207.8 178.72 202.31 181.88 197.78 179.29 203.26 176.12"/><polygon class="cls-49" points="196.36 178.47 191.82 175.88 197.3 172.72 201.84 175.31 196.36 178.47"/><polygon class="cls-49" points="178.48 168.25 173.94 165.66 179.43 162.5 183.96 165.09 178.48 168.25"/><polygon class="cls-49" points="172.52 164.84 167.98 162.25 173.47 159.09 178 161.68 172.52 164.84"/><polygon class="cls-49" points="231.3 206.23 226.76 203.63 232.24 200.47 236.78 203.06 231.3 206.23"/><polygon class="cls-49" points="225.34 202.82 220.8 200.23 226.28 197.06 230.82 199.66 225.34 202.82"/><polygon class="cls-49" points="219.38 199.41 214.84 196.82 220.33 193.66 224.86 196.25 219.38 199.41"/><polygon class="cls-49" points="213.42 196.01 208.88 193.41 214.37 190.25 218.9 192.84 213.42 196.01"/><polygon class="cls-49" points="201.03 182.62 202.45 183.44 206.98 186.03 208.41 186.84 212.94 189.44 207.46 192.6 202.92 190.01 201.5 189.19 196.97 186.6 195.54 185.79 191.01 183.19 185.05 179.79 190.53 176.62 196.49 180.03 201.03 182.62"/><polygon class="cls-49" points="183.62 178.97 179.09 176.38 184.57 173.22 189.11 175.81 183.62 178.97"/><polygon class="cls-49" points="177.66 175.57 173.13 172.97 178.61 169.81 183.15 172.4 177.66 175.57"/><polygon class="cls-49" points="171.71 172.16 167.17 169.57 172.65 166.4 177.19 169 171.71 172.16"/><polygon class="cls-49" points="165.75 168.75 161.21 166.16 166.69 163 171.23 165.59 165.75 168.75"/><polygon class="cls-49" points="180.5 153.78 175.96 151.19 181.44 148.02 185.98 150.62 180.5 153.78"/><polygon class="cls-49" points="173.72 157.69 169.19 155.09 174.67 151.93 179.21 154.52 173.72 157.69"/><polygon class="cls-49" points="166.95 161.6 162.41 159 167.9 155.84 172.43 158.43 166.95 161.6"/><polygon class="cls-49" points="160.18 165.5 155.64 162.91 161.12 159.75 165.66 162.34 160.18 165.5"/><polygon class="cls-49" points="174.69 150.3 170.16 147.7 175.64 144.54 180.18 147.13 174.69 150.3"/><polygon class="cls-49" points="167.92 154.21 163.38 151.61 168.87 148.45 173.4 151.04 167.92 154.21"/><polygon class="cls-49" points="161.15 158.11 156.61 155.52 162.09 152.36 166.63 154.95 161.15 158.11"/><polygon class="cls-49" points="154.37 162.02 149.84 159.43 155.32 156.26 159.86 158.86 154.37 162.02"/><path class="cls-50" d="M159.85,215.59l.13-.08A.57.57,0,0,0,159.85,215.59Z"/><path class="cls-51" d="M267.44,193.58h0a2.36,2.36,0,0,1-1.32,1.72l-57.08,33a7.16,7.16,0,0,1-6.47,0l-90.65-52.34-.36-.21a3.3,3.3,0,0,1-.51-.36,2,2,0,0,1-.83-1.5v2.91h0a2.23,2.23,0,0,0,1.33,2l91,52.54a7.16,7.16,0,0,0,6.47,0L264.9,199l1.21-.69a2.28,2.28,0,0,0,1.34-1.87Z"/><path class="cls-49" d="M260.35,60.12a7.92,7.92,0,0,0-3.7-6.11L181.46,10.6c-2.05-1.18-3.71-.36-3.71,1.83v7l82.6,47.69Z"/><polygon class="cls-52" points="177.75 19.39 177.75 136.37 260.35 184.06 260.35 67.08 177.75 19.39"/><path class="cls-53" d="M185.09,18.46c0,.9-.68,1.23-1.52.75a3.22,3.22,0,0,1-1.52-2.5c0-.9.68-1.24,1.52-.76A3.26,3.26,0,0,1,185.09,18.46Z"/><path class="cls-53" d="M190,21.28c0,.9-.68,1.23-1.52.75a3.27,3.27,0,0,1-1.51-2.51c0-.89.68-1.23,1.51-.75A3.26,3.26,0,0,1,190,21.28Z"/><path class="cls-53" d="M194.85,24.1c0,.89-.68,1.23-1.51.75a3.26,3.26,0,0,1-1.52-2.51c0-.9.68-1.23,1.52-.75A3.27,3.27,0,0,1,194.85,24.1Z"/><path class="cls-48" d="M114.33,250.33l2.76,1.6c4.47-2.58,13.11-3.06,17.9-.3h0c-1.27-.73-1.28-.74,0,0h0l.07,0h0c4.73,2.77,3.6,7.88-.85,10.45l2.76,1.59c4.07-2.35,6.63-6.57,5-9.66h0c5.37.95,11.3.27,15.36-2.08s5.25-5.77,3.6-8.87h0c5.37.95,12.12-.21,16.19-2.56L174.34,239c-4.45,2.57-12.78,2.9-17.58.16h0l0,0h0c-4.79-2.77-4.23-7.59.23-10.16l-2.76-1.6c-4.07,2.35-6.07,6.25-4.42,9.35-5.37-.95-11.29-.27-15.36,2.08s-5.25,5.77-3.6,8.87A27.41,27.41,0,0,0,114.33,250.33ZM141.26,253l.07.1Zm-.44-.53,0,0ZM137.7,250h0c-4.75-2.77-5-7.1-.55-9.67s12-2.42,16.76.33h0l0,0,0,0h0c4.77,2.77,5,7.11.57,9.68s-12,2.43-16.78-.34h0Z"/><path class="cls-48" d="M171.15,239l-14.25-8.22s0,0,0-.06l1.53-.88a.08.08,0,0,1,.09,0l14.25,8.23s0,0,0,.05l-1.53.88A.08.08,0,0,1,171.15,239Z"/><path class="cls-48" d="M155.23,232.92l1.53-.88a.09.09,0,0,1,.1,0l12,7s0,0,0,.05l-1.53.89h-.09l-12.06-7A0,0,0,0,1,155.23,232.92Z"/><path class="cls-48" d="M163.78,239.32s0,0,0,.06l-1.53.88a.07.07,0,0,1-.09,0L154.72,236s0,0,0-.06l1.53-.88a.08.08,0,0,1,.09,0Z"/><path class="cls-48" d="M120.33,251.88l14.25,8.23s0,0,0,.05l-1.53.89H133l-14.25-8.23a0,0,0,0,1,0-.06l1.53-.88A.09.09,0,0,1,120.33,251.88Z"/><path class="cls-48" d="M136.21,257.93l-1.53.89h-.1l-12.05-7s0,0,0-.06l1.53-.88a.09.09,0,0,1,.1,0l12.05,7A0,0,0,0,1,136.21,257.93Z"/><path class="cls-48" d="M127.71,251.56s0,0,0-.06l1.52-.88h.1l7.44,4.3s0,0,0,.05l-1.53.89h-.1Z"/><path class="cls-48" d="M138,241.69s0,0,0-.06l1.53-.88a.09.09,0,0,1,.1,0L153.83,249a0,0,0,0,1,0,.05l-1.53.88a.09.09,0,0,1-.1,0Z"/><path class="cls-48" d="M136.29,243.9s0,0,0-.06l1.53-.88a.08.08,0,0,1,.09,0l12.06,7a0,0,0,0,1,0,.05l-1.53.89h-.1Z"/><path class="cls-48" d="M153.78,247.76l-12.05-7s0,0,0-.05l1.53-.89a.14.14,0,0,1,.09,0l12.05,7s0,0,0,.06l-1.52.88A.09.09,0,0,1,153.78,247.76Z"/><path class="cls-48" d="M154.34,245l-7.89-4.56s0,0,0-.05l1.53-.89a.14.14,0,0,1,.09,0l7.9,4.56a0,0,0,0,1,0,.06l-1.53.88A.09.09,0,0,1,154.34,245Z"/><path class="cls-48" d="M135.67,246.66s0,0,0-.06l1.53-.88a.07.07,0,0,1,.09,0l7.9,4.55s0,0,0,.06l-1.53.88a.09.09,0,0,1-.1,0Z"/><path class="cls-54" d="M213.75,65.67l-13.46-7.78a3.7,3.7,0,0,1-1.8-2.84V41.59c0-1,.8-1.33,1.8-.76l13.46,7.77a3.74,3.74,0,0,1,1.8,2.84V64.91C215.55,65.9,214.75,66.24,213.75,65.67Z"/><path class="cls-46" d="M222.71,56.91l-1.32-.76a1.5,1.5,0,0,1-.73-1.14V53.69c0-.4.33-.54.73-.31l1.32.76a1.49,1.49,0,0,1,.72,1.14V56.6C223.43,57,223.11,57.14,222.71,56.91Z"/><path class="cls-46" d="M222.71,60.64l-1.32-.76a1.5,1.5,0,0,1-.73-1.14V57.42c0-.4.33-.54.73-.31l1.32.76a1.49,1.49,0,0,1,.72,1.14v1.32C223.43,60.73,223.11,60.87,222.71,60.64Z"/><path class="cls-46" d="M222.71,64.37l-1.32-.76a1.5,1.5,0,0,1-.73-1.14V61.15c0-.4.33-.54.73-.31l1.32.76a1.49,1.49,0,0,1,.72,1.14v1.33C223.43,64.46,223.11,64.6,222.71,64.37Z"/><path class="cls-46" d="M222.71,68.1l-1.32-.76a1.5,1.5,0,0,1-.73-1.14V64.88c0-.4.33-.54.73-.31l1.32.77a1.47,1.47,0,0,1,.72,1.13V67.8C223.43,68.19,223.11,68.33,222.71,68.1Z"/><polygon class="cls-53" points="253.94 74.1 227.16 58.63 227.16 56.71 253.94 72.17 253.94 74.1"/><polygon class="cls-45" points="253.94 78.25 227.16 62.79 227.16 60.86 253.94 76.32 253.94 78.25"/><polygon class="cls-55" points="248.53 79.28 227.16 66.94 227.16 65.02 248.53 77.35 248.53 79.28"/><path class="cls-53" d="M213.75,87.46l-13.46-7.77a3.74,3.74,0,0,1-1.8-2.84V63.39c0-1,.8-1.34,1.8-.77l13.46,7.78a3.7,3.7,0,0,1,1.8,2.84V86.7C215.55,87.7,214.75,88,213.75,87.46Z"/><path class="cls-46" d="M222.71,78.7l-1.32-.76a1.5,1.5,0,0,1-.73-1.14V75.48c0-.4.33-.53.73-.3l1.32.76a1.49,1.49,0,0,1,.72,1.14V78.4C223.43,78.8,223.11,78.93,222.71,78.7Z"/><path class="cls-46" d="M222.71,82.44l-1.32-.77a1.5,1.5,0,0,1-.73-1.14V79.21c0-.4.33-.53.73-.3l1.32.76a1.49,1.49,0,0,1,.72,1.14v1.32C223.43,82.53,223.11,82.67,222.71,82.44Z"/><path class="cls-46" d="M222.71,86.17l-1.32-.77a1.5,1.5,0,0,1-.73-1.14V82.94c0-.4.33-.53.73-.3l1.32.76a1.49,1.49,0,0,1,.72,1.14v1.32C223.43,86.26,223.11,86.4,222.71,86.17Z"/><path class="cls-46" d="M222.71,89.9l-1.32-.77a1.5,1.5,0,0,1-.73-1.13V86.67c0-.4.33-.53.73-.3l1.32.76a1.49,1.49,0,0,1,.72,1.14v1.32C223.43,90,223.11,90.13,222.71,89.9Z"/><polygon class="cls-53" points="253.94 95.89 227.16 80.43 227.16 78.51 253.94 93.97 253.94 95.89"/><polygon class="cls-45" points="253.94 100.04 227.16 84.58 227.16 82.66 253.94 98.12 253.94 100.04"/><polygon class="cls-45" points="248.53 101.07 227.16 88.73 227.16 86.81 248.53 99.15 248.53 101.07"/><path class="cls-54" d="M213.75,109.26l-13.46-7.78a3.7,3.7,0,0,1-1.8-2.83V85.18c0-1,.8-1.33,1.8-.76l13.46,7.78a3.7,3.7,0,0,1,1.8,2.83V108.5C215.55,109.49,214.75,109.83,213.75,109.26Z"/><path class="cls-46" d="M222.71,100.5l-1.32-.76a1.5,1.5,0,0,1-.73-1.14V97.28c0-.4.33-.54.73-.31l1.32.77a1.49,1.49,0,0,1,.72,1.13v1.33C223.43,100.59,223.11,100.73,222.71,100.5Z"/><path class="cls-46" d="M222.71,104.23l-1.32-.76a1.5,1.5,0,0,1-.73-1.14V101c0-.4.33-.54.73-.31l1.32.77a1.49,1.49,0,0,1,.72,1.13v1.33C223.43,104.33,223.11,104.46,222.71,104.23Z"/><path class="cls-46" d="M222.71,108l-1.32-.76a1.5,1.5,0,0,1-.73-1.14v-1.32c0-.4.33-.54.73-.31l1.32.77a1.49,1.49,0,0,1,.72,1.14v1.32C223.43,108.06,223.11,108.19,222.71,108Z"/><path class="cls-46" d="M222.71,111.69l-1.32-.76a1.5,1.5,0,0,1-.73-1.14v-1.32c0-.4.33-.54.73-.31l1.32.77a1.49,1.49,0,0,1,.72,1.14v1.32C223.43,111.79,223.11,111.92,222.71,111.69Z"/><polygon class="cls-53" points="253.94 117.69 227.16 102.23 227.16 100.3 253.94 115.77 253.94 117.69"/><polygon class="cls-45" points="253.94 121.84 227.16 106.38 227.16 104.46 253.94 119.92 253.94 121.84"/><polygon class="cls-55" points="248.53 122.87 227.16 110.53 227.16 108.61 248.53 120.94 248.53 122.87"/><path class="cls-45" d="M200.76,137c-6.71-3.87-12.17-12.48-12.17-19.19s5.46-9,12.17-5.14,12.16,12.48,12.16,19.19S207.47,140.91,200.76,137Z"/><ellipse class="cls-53" cx="200.76" cy="124.87" rx="7.89" ry="13.95" transform="translate(-34.74 145.75) rotate(-36.95)"/><ellipse class="cls-45" cx="201.03" cy="121.58" rx="1.74" ry="3.08" transform="translate(-32.71 145.26) rotate(-36.95)"/><path class="cls-45" d="M206.34,133.41l-10.61-6.13v-1.13c0-2.47,2-3.32,4.48-1.89l1.65.95c2.47,1.43,4.48,4.59,4.48,7.06Z"/><path class="cls-48" d="M318.12,214.52c-8.2,4.73-21.54,4.73-29.74,0s-8.2-12.44,0-17.17,21.54-4.74,29.74,0S326.32,209.78,318.12,214.52Z"/><ellipse class="cls-48" cx="303.25" cy="205.93" rx="17.49" ry="10.1"/><polygon class="cls-49" points="309.77 200.26 303.25 203.72 296.72 200.26 292.65 202.42 299.18 205.88 292.65 209.34 296.72 211.49 303.25 208.03 309.77 211.49 313.84 209.34 307.31 205.88 313.84 202.42 309.77 200.26"/><path class="cls-48" d="M65,244.86c-8.9,5.14-23.37,5.14-32.26,0s-8.9-13.49,0-18.62,23.36-5.14,32.26,0S73.93,239.73,65,244.86Z"/><ellipse class="cls-48" cx="48.91" cy="235.55" rx="18.97" ry="10.95"/><polygon class="cls-49" points="55.99 229.38 48.91 233.2 41.83 229.38 37.41 231.76 44.49 235.59 37.41 239.41 41.83 241.8 48.91 237.97 55.99 241.8 60.4 239.41 53.32 235.59 60.4 231.76 55.99 229.38"/><path class="cls-46" d="M271.72,144.24l-50.38-29.08a.9.9,0,0,0-1-.08h0l-1.28.73,1,.49v31.92a2.67,2.67,0,0,0,1.28,2l50,28.87,0,0c0,.05,0,1.08,0,1.08l1.32-.76h0a.7.7,0,0,0,.33-.67V146.26A2.65,2.65,0,0,0,271.72,144.24Z"/><path class="cls-46" d="M270.36,180.11,220,151a2.69,2.69,0,0,1-1.28-2V116.48c0-.7.58-.94,1.28-.54L270.36,145a2.65,2.65,0,0,1,1.28,2v32.52C271.64,180.28,271.07,180.52,270.36,180.11Z"/><path class="cls-56" d="M268.45,168.52l-46.56-26.89a1.7,1.7,0,0,1-.82-1.29v-20c0-.45.37-.61.82-.34l46.56,26.88a1.68,1.68,0,0,1,.82,1.29v20C269.27,168.62,268.91,168.78,268.45,168.52Z"/><path class="cls-57" d="M224.59,150.34l-3.19-1.84a.7.7,0,0,1-.33-.52v-3.2c0-.18.15-.24.33-.14l3.19,1.85a.68.68,0,0,1,.33.52v3.19C224.92,150.39,224.77,150.45,224.59,150.34Z"/><path class="cls-57" d="M230.93,154l-3.2-1.84a.7.7,0,0,1-.33-.53v-3.19c0-.18.15-.24.33-.14l3.2,1.85a.68.68,0,0,1,.33.52v3.19C231.26,154,231.11,154.11,230.93,154Z"/><path class="cls-57" d="M237.26,157.66l-3.19-1.84a.7.7,0,0,1-.33-.53V152.1c0-.18.15-.25.33-.14l3.19,1.84a.68.68,0,0,1,.33.53v3.19C237.59,157.7,237.45,157.76,237.26,157.66Z"/><path class="cls-57" d="M243.6,161.32l-3.19-1.85a.67.67,0,0,1-.34-.52v-3.19c0-.18.15-.25.34-.14l3.19,1.84a.7.7,0,0,1,.33.52v3.2C243.93,161.36,243.78,161.42,243.6,161.32Z"/><path class="cls-57" d="M249.93,165l-3.19-1.84a.68.68,0,0,1-.33-.52v-3.19c0-.19.15-.25.33-.14l3.19,1.84a.67.67,0,0,1,.34.52v3.19C250.27,165,250.12,165.08,249.93,165Z"/><path class="cls-57" d="M256.27,168.63l-3.19-1.84a.67.67,0,0,1-.33-.52v-3.2c0-.18.14-.24.33-.14l3.19,1.85a.68.68,0,0,1,.33.52v3.19C256.6,168.68,256.45,168.74,256.27,168.63Z"/><path class="cls-57" d="M262.61,172.29l-3.2-1.84a.7.7,0,0,1-.33-.53v-3.19c0-.18.15-.24.33-.14l3.2,1.84a.7.7,0,0,1,.33.53v3.19C262.94,172.33,262.79,172.4,262.61,172.29Z"/><path class="cls-57" d="M268.94,176l-3.19-1.84a.7.7,0,0,1-.33-.53v-3.19c0-.18.15-.25.33-.14l3.19,1.84a.7.7,0,0,1,.33.53v3.19C269.27,176,269.12,176.05,268.94,176Z"/><path class="cls-53" d="M259.41,161.11h0a1,1,0,0,1-.44-.62l-1.14-11.2-.85,3.15c-.06.19-.26.23-.5.1l-3.22-1.87-1.12,5.06c0,.2-.25.25-.49.11h0a1.09,1.09,0,0,1-.49-.68L250,148.78l-2.57-1.49a1.06,1.06,0,0,1-.47-.59l-1.69-5.38-2,3.27c-.08.13-.26.14-.46,0l-3.38-2a1.11,1.11,0,0,1-.49-.64l-1.42-6.2-3,9.75c-.06.2-.27.23-.53.06a1.16,1.16,0,0,1-.46-.69l-2.73-14.84L228.32,136c-.07.16-.26.18-.48.05l-4.74-2.73a1,1,0,0,1-.5-.77h0c0-.26.22-.35.5-.19l4.37,2.52,2.94-7c.07-.17.27-.19.51,0a1.12,1.12,0,0,1,.46.66L234.06,143l2.9-9.56c0-.18.26-.21.49-.08a1.09,1.09,0,0,1,.49.65l1.82,7.93,2.66,1.53,2.39-3.87c.08-.13.27-.14.48,0a1.09,1.09,0,0,1,.45.58l2,6.38,2.63,1.52a1.09,1.09,0,0,1,.49.67l.75,4.07.71-3.22c0-.2.26-.25.5-.11l3.24,1.88,1.44-5.33c.05-.19.27-.23.52-.07a1.1,1.1,0,0,1,.47.7l1.11,10.85.75-3.2c0-.2.24-.24.48-.11l6.39,3.61a1,1,0,0,1,.51.76h0c0,.27-.21.36-.49.2l-6-3.37L260,161C259.91,161.21,259.68,161.26,259.41,161.11Z"/><path class="cls-46" d="M185.17,98.92l7.34,4.24v1.68c0,2-1.64,2.73-3.67,1.56h0a7.62,7.62,0,0,1-3.67-5.79Z"/><polygon class="cls-46" points="184.96 37.51 192.72 41.99 192.72 104.56 184.96 100.07 184.96 37.51"/><path class="cls-46" d="M187.47,32.76l2.74,1.58-1-3.32c-.23-.71-.5-.68-.68-.33Z"/><polygon class="cls-46" points="186.9 33.84 184.96 37.51 188.84 39.75 192.72 41.99 190.78 36.08 190.21 34.34 187.47 32.76 186.9 33.84"/><polygon class="cls-46" points="184.77 91.17 192.91 95.87 192.91 104.66 184.77 99.97 184.77 91.17"/><path class="cls-48" d="M304.46,166.82a11.85,11.85,0,0,0-13,.31l.85.26a9,9,0,0,0-1.38,5.15c0,6.65,10.7,27.14,13.08,31.6l-2,2.2,2.43-1.33S318,195.65,318,188.17,311.89,171.22,304.46,166.82Zm0,16.08c-2.27-1.32-4.12-4.22-4.12-6.5s1.85-3.05,4.12-1.74,4.12,4.22,4.12,6.5S306.74,184.21,304.46,182.9Z"/><path class="cls-49" d="M302,168.15c-7.48-4.32-13.54-1.76-13.54,5.72S302,206.34,302,206.34s13.54-9.36,13.54-16.84S309.51,172.46,302,168.15Zm0,16.08c-2.27-1.32-4.12-4.22-4.12-6.5s1.85-3,4.12-1.74,4.12,4.22,4.12,6.5S304.3,185.54,302,184.23Z"/><path class="cls-51" d="M155.35,25.39,112.84.85c-1.66-1-3.13-1.08-4.14-.5h0l0,0-.11.07-1.87,1.24s-.23,1.68-.27,1.73a8.18,8.18,0,0,0,1-.42c0,.06,0,.11,0,.16v97c0,3,2.46,6.9,5.49,8.64l42.51,24.55a6.08,6.08,0,0,0,2.1.79l-.09,1.11,2.19-1.44h0a3.06,3.06,0,0,0,1.28-2.78V34C160.83,31,158.38,27.14,155.35,25.39Z"/><path class="cls-58" d="M153.19,134.71l-42.52-24.54c-3-1.75-5.48-5.62-5.48-8.65V4.58c0-3,2.46-4.07,5.48-2.32l42.52,24.55c3,1.75,5.48,5.62,5.48,8.64v97C158.67,135.43,156.21,136.46,153.19,134.71Z"/><path class="cls-53" d="M154.86,132.8,110.21,107a6.61,6.61,0,0,1-3.3-5.71V6a.83.83,0,0,1,1.25-.72l44.47,25.68A8.63,8.63,0,0,1,157,38.4v93.19A1.4,1.4,0,0,1,154.86,132.8Z"/><path class="cls-51" d="M135.18,19.47l-7.27-4.19a1.32,1.32,0,0,1-.63-1v-.35c0-.35.28-.47.63-.26l7.27,4.19a1.32,1.32,0,0,1,.62,1v.35C135.8,19.55,135.52,19.67,135.18,19.47Z"/><ellipse class="cls-47" cx="142.91" cy="42.52" rx="6.38" ry="11.27" transform="translate(3.14 94.44) rotate(-36.95)"/><polygon class="cls-53" points="148.28 44.31 144.23 41.98 144.23 37.93 141.71 36.48 141.71 40.52 137.67 38.19 137.67 40.71 141.71 43.04 141.71 47.09 144.23 48.54 144.23 44.5 148.28 46.83 148.28 44.31"/><path class="cls-49" d="M150.54,66.87l-15.25-8.8a2.28,2.28,0,0,1-1.1-1.73h0c0-.61.49-.82,1.1-.47l15.25,8.81a2.26,2.26,0,0,1,1.1,1.73h0C151.64,67,151.15,67.22,150.54,66.87Z"/><path class="cls-49" d="M150.54,69.91l-15.25-8.8a2.28,2.28,0,0,1-1.1-1.73h0c0-.61.49-.81,1.1-.46l15.25,8.8a2.26,2.26,0,0,1,1.1,1.73h0C151.64,70.06,151.15,70.26,150.54,69.91Z"/><path class="cls-49" d="M150.54,73l-15.25-8.81a2.26,2.26,0,0,1-1.1-1.73h0c0-.61.49-.81,1.1-.46l15.25,8.8a2.28,2.28,0,0,1,1.1,1.73h0C151.64,73.1,151.15,73.3,150.54,73Z"/><path class="cls-49" d="M150.54,76l-15.25-8.81a2.26,2.26,0,0,1-1.1-1.73h0c0-.6.49-.81,1.1-.46l15.25,8.8a2.28,2.28,0,0,1,1.1,1.73h0C151.64,76.14,151.15,76.35,150.54,76Z"/><path class="cls-49" d="M150.54,84.46l-15.25-8.81a2.26,2.26,0,0,1-1.1-1.73h0c0-.61.49-.81,1.1-.46l15.25,8.8a2.28,2.28,0,0,1,1.1,1.73h0C151.64,84.6,151.15,84.8,150.54,84.46Z"/><path class="cls-49" d="M150.54,87.5l-15.25-8.81a2.26,2.26,0,0,1-1.1-1.73h0c0-.6.49-.81,1.1-.46l15.25,8.8a2.28,2.28,0,0,1,1.1,1.73h0C151.64,87.64,151.15,87.85,150.54,87.5Z"/><path class="cls-49" d="M150.54,90.54l-15.25-8.81a2.26,2.26,0,0,1-1.1-1.73h0c0-.6.49-.81,1.1-.46l15.25,8.8a2.28,2.28,0,0,1,1.1,1.73h0C151.64,90.68,151.15,90.89,150.54,90.54Z"/><path class="cls-49" d="M150.54,93.58l-15.25-8.81a2.26,2.26,0,0,1-1.1-1.73h0c0-.6.49-.81,1.1-.46l15.25,8.81a2.25,2.25,0,0,1,1.1,1.73h0C151.64,93.72,151.15,93.93,150.54,93.58Z"/><ellipse class="cls-48" cx="141.86" cy="106.29" rx="7.47" ry="13.2" transform="translate(-35.4 106.62) rotate(-36.95)"/><ellipse class="cls-53" cx="141.86" cy="106.29" rx="6.32" ry="11.17" transform="translate(-35.4 106.62) rotate(-36.95)"/><path class="cls-48" d="M143.39,109.18a2.09,2.09,0,0,0-.38-1.12,7.41,7.41,0,0,0-1.27-1.4,9.61,9.61,0,0,1-1.81-2,3.68,3.68,0,0,1-.56-1.88,1.26,1.26,0,0,1,.55-1.24,1.76,1.76,0,0,1,1.53.15v-1.27l.87.5v1.28a5,5,0,0,1,1.52,1.7,4.46,4.46,0,0,1,.55,2.2l-.89-.53a4.19,4.19,0,0,0-.57-1.63,2.85,2.85,0,0,0-1.06-1.09,1.28,1.28,0,0,0-1.06-.25c-.24.09-.37.36-.37.79a2.1,2.1,0,0,0,.39,1.17,8.73,8.73,0,0,0,1.28,1.38,11.8,11.8,0,0,1,1.38,1.43,5.14,5.14,0,0,1,.74,1.23,3.27,3.27,0,0,1,.24,1.22c0,.66-.2,1.07-.6,1.24a2,2,0,0,1-1.65-.24v1.11l-.87-.5v-1.11a5.66,5.66,0,0,1-1.7-1.75,4.21,4.21,0,0,1-.61-2.19l1.08.63a2.8,2.8,0,0,0,.42,1.49,3.47,3.47,0,0,0,1.21,1.13,1.73,1.73,0,0,0,1.2.33C143.24,109.85,143.39,109.6,143.39,109.18Z"/><g class="cls-59"><path class="cls-3" d="M36.64,207.43a67.73,67.73,0,0,1-7.14-.38L7.14,204.68A2.51,2.51,0,0,1,5,202.93L.81,189.32a17.79,17.79,0,0,1,1.44-13.95,28.39,28.39,0,0,1,10.94-10.71l34.57-20.25a5.4,5.4,0,0,1,5.44,0l47.86,28a4.08,4.08,0,0,1,0,7L65.34,200.4c-7.74,4.53-17.93,7-28.7,7Z"/><path class="cls-60" d="M47.75,144.52a5.4,5.4,0,0,1,5.44,0L92.3,167.43c.07,0,8.59,5.13,8.51,5.18a4.05,4.05,0,0,1-.14,6.95L73,195.79s-7.8,4.55-7.86,4.57c-7.71,4.49-17.86,6.95-28.57,6.94h0c-1.27,0-2.54,0-3.81-.11-1.08-.06-2.22-.16-3.29-.27L9.35,204.79l-2.16-.24a2.52,2.52,0,0,1-2.11-1.75l-2.62-8.47c0-.06-1.58-5.16-1.57-5.21a17.76,17.76,0,0,1,1.66-13.93c2.14-4,6.05-7.74,10.9-10.58Z"/><path class="cls-61" d="M47.74,144.63a5.4,5.4,0,0,1,5.44,0l39.08,22.89c.15.09,8.45,5.17,8.3,5.26,2.56,1.5,2.27,5.37-.29,6.86L72.71,195.79c-.1.06-7.71,4.5-7.82,4.54-7.7,4.44-17.8,6.87-28.45,6.84h0c-1.26,0-2.53,0-3.79-.11-1.06-.06-2.24-.16-3.28-.27l-20-2.12-2.15-.25a2.51,2.51,0,0,1-2.09-1.76l-2.64-8.51c0-.1-1.56-5.13-1.54-5.23A17.66,17.66,0,0,1,2.86,175C5,171.11,9,167.33,13.71,164.56Z"/><path class="cls-62" d="M47.73,144.75a5.34,5.34,0,0,1,5.43,0l39.06,22.87c.23.13,8.31,5.2,8.09,5.33,2.49,1.46,2.06,5.32-.43,6.78L72.45,195.79c-.15.09-7.62,4.44-7.79,4.51-7.68,4.38-17.73,6.78-28.32,6.75h0c-1.26,0-2.52-.05-3.77-.12-1-.06-2.25-.16-3.26-.27L9.42,204.55s-2.1-.24-2.14-.26a2.53,2.53,0,0,1-2.07-1.76L2.56,194c-.05-.16-1.54-5.11-1.51-5.27a17.55,17.55,0,0,1,2.12-13.88c2-3.8,6.2-7.62,10.81-10.32Z"/><path class="cls-63" d="M47.71,144.86a5.38,5.38,0,0,1,5.44,0l39,22.86c.3.17,8.18,5.22,7.87,5.4,2.43,1.42,1.86,5.27-.57,6.69l-27.29,16c-.2.12-7.53,4.39-7.76,4.47-7.66,4.34-17.67,6.71-28.19,6.66h0c-1.25,0-2.51,0-3.75-.12-1-.06-2.26-.17-3.25-.27l-19.79-2.1c-.06,0-2.08-.24-2.12-.27a2.53,2.53,0,0,1-2-1.76l-2.66-8.59c-.07-.21-1.53-5.09-1.48-5.3a17.43,17.43,0,0,1,2.34-13.86c2-3.7,6.27-7.56,10.76-10.19Z"/><path class="cls-64" d="M47.7,145a5.4,5.4,0,0,1,5.44,0l39,22.84c.38.23,8,5.26,7.66,5.48,2.36,1.39,1.65,5.22-.71,6.6L71.93,195.8c-.25.14-7.44,4.32-7.73,4.43-7.64,4.29-17.6,6.62-28.06,6.56h0c-1.24,0-2.49,0-3.73-.12-1-.06-2.26-.17-3.23-.27L9.48,204.31c-.07,0-2.05-.24-2.11-.28a2.55,2.55,0,0,1-2-1.76l-2.67-8.64c-.08-.26-1.5-5.07-1.45-5.32a17.35,17.35,0,0,1,2.57-13.84c1.92-3.6,6.34-7.5,10.71-10.05Z"/><path class="cls-65" d="M47.69,145.08a5.38,5.38,0,0,1,5.43,0l39,22.83c.46.27,7.9,5.29,7.45,5.55,2.3,1.35,1.44,5.17-.86,6.52l-27,15.82c-.29.17-7.35,4.27-7.69,4.39-7.63,4.25-17.54,6.55-27.95,6.48h0c-1.23,0-2.47,0-3.71-.13-.95-.06-2.28-.17-3.21-.27L9.52,204.19c-.09,0-2-.24-2.1-.29a2.55,2.55,0,0,1-2-1.76l-2.68-8.68c-.1-.32-1.48-5.05-1.42-5.36a17.28,17.28,0,0,1,2.8-13.81c1.87-3.5,6.42-7.44,10.66-9.92Z"/><path class="cls-66" d="M47.68,145.19a5.38,5.38,0,0,1,5.43,0l39,22.82c.53.31,7.77,5.31,7.24,5.62,2.23,1.31,1.23,5.12-1,6.43L71.41,195.8c-.34.21-7.26,4.21-7.66,4.36-7.61,4.19-17.47,6.46-27.82,6.38h0c-1.23,0-2.46,0-3.69-.13-.92,0-2.29-.18-3.2-.27L9.55,204.07c-.1,0-2-.24-2.09-.3a2.54,2.54,0,0,1-2-1.76l-2.7-8.72c-.11-.37-1.46-5-1.39-5.39a17.24,17.24,0,0,1,3-13.79c1.81-3.4,6.49-7.38,10.61-9.79Z"/><path class="cls-67" d="M47.67,145.31a5.32,5.32,0,0,1,5.42,0L92,168.11c.61.35,7.63,5.34,7,5.7,2.16,1.26,1,5.06-1.15,6.33L71.15,195.81c-.39.23-7.17,4.14-7.63,4.31-7.58,4.15-17.4,6.39-27.69,6.29h0c-1.22,0-2.45,0-3.67-.13-.9-.05-2.3-.18-3.18-.27L9.58,204c-.11,0-2-.24-2.07-.31a2.58,2.58,0,0,1-2-1.77l-2.71-8.76a51.14,51.14,0,0,1-1.36-5.42,17.22,17.22,0,0,1,3.25-13.76c1.77-3.3,6.57-7.31,10.57-9.66Z"/><path class="cls-68" d="M47.66,145.42a5.36,5.36,0,0,1,5.42,0L92,168.2c.69.4,7.5,5.38,6.81,5.78,2.1,1.23.81,5-1.29,6.25L70.89,195.81c-.44.26-7.08,4.09-7.59,4.28-7.57,4.1-17.34,6.3-27.57,6.2h0c-1.22,0-2.44-.06-3.66-.14-.86-.05-2.3-.18-3.16-.27l-19.29-2c-.14,0-2-.24-2.06-.32a2.54,2.54,0,0,1-2-1.77l-2.73-8.8a45.43,45.43,0,0,1-1.32-5.45A17.11,17.11,0,0,1,5,173.75c1.71-3.2,6.64-7.25,10.52-9.52Z"/><path class="cls-69" d="M47.64,145.53a5.38,5.38,0,0,1,5.43,0L92,168.3c.75.44,7.35,5.4,6.59,5.85,2,1.19.6,5-1.43,6.16l-26.48,15.5c-.49.29-7,4-7.56,4.24-7.55,4.06-17.28,6.23-27.44,6.11h0c-1.21,0-2.43-.06-3.64-.14-.84-.05-2.31-.18-3.14-.27l-19.2-2c-.15,0-1.93-.24-2.05-.32a2.61,2.61,0,0,1-1.94-1.78l-2.74-8.84a42.56,42.56,0,0,1-1.29-5.48,17.1,17.1,0,0,1,3.7-13.72c1.66-3.1,6.72-7.19,10.48-9.39Z"/><path class="cls-70" d="M47.63,145.64a5.36,5.36,0,0,1,5.42,0L91.91,168.4c.83.49,7.21,5.43,6.38,5.92,2,1.15.39,4.92-1.58,6.07L70.37,195.82c-.53.31-6.9,4-7.53,4.2-7.53,4-17.21,6.14-27.31,6h0c-1.21,0-2.42-.06-3.62-.14-.81,0-2.33-.19-3.13-.27l-19.1-2a19.09,19.09,0,0,1-2-.33,2.62,2.62,0,0,1-1.92-1.78L3,192.59a37.76,37.76,0,0,1-1.27-5.51,17.08,17.08,0,0,1,3.93-13.69c1.6-3,6.79-7.13,10.43-9.26Z"/><path class="cls-71" d="M47.62,145.75a5.36,5.36,0,0,1,5.42,0l38.83,22.74c.91.54,7.08,5.47,6.17,6,1.9,1.11.18,4.87-1.72,6L70.11,195.82c-.58.35-6.81,3.91-7.5,4.17-7.51,3.95-17.14,6.06-27.18,5.92h0q-1.8,0-3.6-.15c-.79,0-2.34-.19-3.11-.27l-19-2a18.91,18.91,0,0,1-2-.34,2.63,2.63,0,0,1-1.9-1.78L3,192.42a34.7,34.7,0,0,1-1.24-5.54c-.74-4.72.7-9.48,4.16-13.67,1.55-2.9,6.86-7.07,10.38-9.13Z"/><path class="cls-72" d="M47.61,145.87a5.36,5.36,0,0,1,5.42,0l38.8,22.72c1,.58,6.94,5.49,6,6.07,1.83,1.08,0,4.82-1.87,5.9L69.86,195.82c-.64.38-6.73,3.86-7.47,4.13-7.5,3.91-17.08,6-27.06,5.83h0c-1.2,0-2.39-.07-3.58-.15-.76,0-2.35-.19-3.1-.27l-18.9-2a15.89,15.89,0,0,1-2-.35,2.62,2.62,0,0,1-1.88-1.78l-2.78-9c-.21-.68-1.34-4.9-1.21-5.58C1.19,182,2.71,177.2,6.26,173c1.49-2.8,6.93-7,10.33-9Z"/><path class="cls-73" d="M47.6,146A5.35,5.35,0,0,1,53,146l38.78,22.71c1.06.62,6.8,5.52,5.74,6.14,1.77,1-.23,4.77-2,5.81L69.6,195.83c-.69.4-6.63,3.79-7.44,4.09-7.47,3.85-17,5.9-26.94,5.73h0c-1.18,0-2.37-.07-3.56-.15-.73,0-2.35-.2-3.07-.27l-18.81-2a14,14,0,0,1-2-.36,2.63,2.63,0,0,1-1.87-1.79l-2.79-9c-.23-.73-1.32-4.88-1.17-5.6-.63-4.73,1-9.47,4.6-13.62,1.45-2.7,7-6.95,10.29-8.86Z"/><path class="cls-74" d="M47.59,146.09a5.35,5.35,0,0,1,5.41,0l38.75,22.7c1.14.66,6.67,5.55,5.53,6.21,1.71,1-.44,4.73-2.15,5.72L69.34,195.83c-.74.43-6.54,3.73-7.41,4-7.45,3.81-16.94,5.82-26.81,5.65h0c-1.18,0-2.36-.08-3.54-.16-.7,0-2.37-.2-3.06-.27l-18.71-2a18.21,18.21,0,0,1-2-.37A3.12,3.12,0,0,1,6,201l-2.8-9c-.24-.79-1.29-4.86-1.14-5.63-.57-4.73,1.11-9.48,4.83-13.6,1.39-2.6,7.09-6.89,10.24-8.73Z"/><path class="cls-75" d="M47.57,146.2a5.35,5.35,0,0,1,5.41,0l38.73,22.68c1.21.71,6.53,5.58,5.32,6.29,1.64,1-.65,4.68-2.29,5.64l-25.66,15c-.79.46-6.45,3.68-7.37,4-7.44,3.76-16.89,5.74-26.69,5.55h0c-1.17,0-2.35-.08-3.52-.16-.68,0-2.38-.2-3.05-.27L9.84,203a15.79,15.79,0,0,1-2-.38,3.08,3.08,0,0,1-1.83-1.79l-2.82-9.09c-.25-.84-1.27-4.84-1.11-5.67-.51-4.73,1.25-9.47,5.06-13.57,1.34-2.5,7.16-6.82,10.19-8.6Z"/><path class="cls-76" d="M47.56,146.32a5.35,5.35,0,0,1,5.41,0L91.67,169c1.29.75,6.4,5.61,5.11,6.36,1.57.93-.86,4.63-2.44,5.55l-25.52,15c-.83.49-6.36,3.61-7.34,4-7.42,3.72-16.82,5.66-26.56,5.46h0c-1.17,0-2.34-.08-3.5-.16-.65,0-2.39-.21-3-.27l-18.51-2a15.8,15.8,0,0,1-2-.39,3.16,3.16,0,0,1-1.81-1.79l-2.82-9.14C3,190.66,2,186.74,2.2,185.86c-.44-4.74,1.39-9.47,5.29-13.55,1.28-2.4,7.24-6.76,10.15-8.47Z"/><path class="cls-77" d="M47.55,146.43a5.35,5.35,0,0,1,5.41,0l38.67,22.65c1.37.8,6.26,5.63,4.89,6.43,1.51.89-1.07,4.58-2.57,5.46L68.56,195.84c-.88.52-6.27,3.56-7.31,3.94-7.4,3.66-16.75,5.58-26.43,5.37h0c-1.16,0-2.33-.08-3.49-.17-.62,0-2.39-.21-3-.27l-18.41-2a15.15,15.15,0,0,1-1.94-.4,3.12,3.12,0,0,1-1.79-1.79l-2.84-9.18c-.29-.94-1.24-4.8-1.06-5.72-.38-4.75,1.53-9.47,5.52-13.53,1.23-2.3,7.31-6.7,10.1-8.34Z"/><path class="cls-78" d="M47.54,146.54a5.33,5.33,0,0,1,5.4,0l38.65,22.63c1.44.85,6.12,5.67,4.68,6.51,1.45.85-1.28,4.53-2.72,5.38L68.3,195.84c-.93.55-6.18,3.5-7.27,3.9-7.39,3.62-16.69,5.5-26.31,5.28h0c-1.16,0-2.31-.08-3.47-.17-.59,0-2.4-.21-3-.28L9.94,202.63A13.78,13.78,0,0,1,8,202.22a3.15,3.15,0,0,1-1.77-1.79l-2.85-9.22c-.31-1-1.22-4.78-1-5.76C2,180.7,4,176,8.11,172c1.17-2.2,7.38-6.64,10.05-8.2Z"/><path class="cls-79" d="M47.53,146.65a5.33,5.33,0,0,1,5.4,0l38.62,22.62c1.52.89,6,5.7,4.47,6.59,1.38.8-1.49,4.47-2.87,5.28L68,195.85c-1,.57-6.09,3.44-7.24,3.86a57.73,57.73,0,0,1-26.18,5.18h0c-1.15,0-2.3-.08-3.45-.17-.57,0-2.42-.22-3-.28L10,202.51a13.21,13.21,0,0,1-1.91-.41,3.15,3.15,0,0,1-1.75-1.81L3.44,191c-.32-1-1.19-4.75-1-5.78-.27-4.76,1.79-9.47,6-13.48,1.13-2.11,7.46-6.58,10-8.07Z"/><path class="cls-80" d="M47.52,146.76a5.36,5.36,0,0,1,5.39,0l38.6,22.61c1.59.93,5.85,5.72,4.26,6.66,1.31.77-1.7,4.42-3,5.19l-25,14.63c-1,.6-6,3.38-7.21,3.82-7.34,3.53-16.56,5.34-26,5.1h0c-1.15,0-2.29-.09-3.43-.18-.54,0-2.43-.22-3-.28L10,202.39a11.66,11.66,0,0,1-1.9-.42,3.19,3.19,0,0,1-1.74-1.81l-2.88-9.3c-.34-1.1-1.17-4.73-1-5.82-.21-4.76,1.93-9.46,6.19-13.46,1.07-2,7.54-6.51,10-7.93Z"/><path class="cls-81" d="M47.51,146.88a5.31,5.31,0,0,1,5.39,0l38.57,22.59c1.67,1,5.71,5.75,4,6.73,1.24.73-1.91,4.38-3.16,5.11L67.52,195.85c-1.07.64-5.91,3.33-7.18,3.79a57.86,57.86,0,0,1-25.92,5h0c-1.13,0-2.27-.09-3.4-.18-.52,0-2.44-.22-3-.28l-18-1.91a10.81,10.81,0,0,1-1.89-.43A3.14,3.14,0,0,1,6.44,200l-2.9-9.34c-.35-1.16-1.15-4.71-.93-5.85-.15-4.76,2.07-9.47,6.42-13.44,1-1.9,7.61-6.45,9.91-7.8Z"/><path class="cls-82" d="M47.49,147a5.33,5.33,0,0,1,5.4,0l38.54,22.57c1.75,1,5.58,5.79,3.83,6.81,1.19.69-2.11,4.33-3.29,5L67.26,195.86c-1.12.66-5.82,3.26-7.14,3.75a58,58,0,0,1-25.81,4.9h0c-1.13,0-2.26-.09-3.39-.18-.48,0-2.44-.23-2.92-.28l-17.93-1.9a9.61,9.61,0,0,1-1.87-.44,3.18,3.18,0,0,1-1.7-1.81l-2.9-9.39c-.38-1.2-1.14-4.69-.91-5.87-.09-4.77,2.21-9.47,6.65-13.42,1-1.8,7.68-6.39,9.86-7.66Z"/><path class="cls-83" d="M47.48,147.1a5.31,5.31,0,0,1,5.39,0l38.52,22.56c1.82,1.07,5.44,5.81,3.62,6.88,1.12.65-2.32,4.28-3.44,4.93L67,195.86c-1.17.69-5.73,3.2-7.11,3.71a58.1,58.1,0,0,1-25.68,4.82h0c-1.12,0-2.25-.1-3.37-.19-.46,0-2.46-.23-2.91-.28L10.1,202a9.53,9.53,0,0,1-1.86-.45,3.2,3.2,0,0,1-1.67-1.81l-2.92-9.43c-.39-1.26-1.12-4.67-.87-5.91,0-4.77,2.34-9.46,6.87-13.39.91-1.7,7.75-6.33,9.82-7.53Z"/><path class="cls-84" d="M47.47,147.21a5.36,5.36,0,0,1,5.39,0l38.5,22.55c1.89,1.11,5.3,5.84,3.4,7,1,.61-2.53,4.23-3.58,4.85l-24.43,14.3c-1.23.72-5.65,3.15-7.09,3.68a58,58,0,0,1-25.55,4.72h0c-1.12,0-2.24-.1-3.35-.19-.43,0-2.47-.23-2.9-.28l-17.72-1.88a8.64,8.64,0,0,1-1.85-.46,3.21,3.21,0,0,1-1.66-1.81L3.7,190.17c-.41-1.31-1.1-4.65-.84-5.94,0-4.78,2.48-9.47,7.1-13.37.85-1.6,7.83-6.26,9.77-7.4Z"/><path class="cls-85" d="M47.46,147.32a5.36,5.36,0,0,1,5.39,0l38.47,22.53c2,1.16,5.16,5.88,3.19,7,1,.58-2.74,4.18-3.73,4.76L66.49,195.87a79.12,79.12,0,0,1-7,3.63A58.2,58.2,0,0,1,34,204.13h0c-1.11,0-2.22-.1-3.33-.19-.41,0-2.48-.23-2.88-.28l-17.63-1.87a8.15,8.15,0,0,1-1.84-.47,3.26,3.26,0,0,1-1.64-1.82L3.75,190c-.42-1.36-1.07-4.62-.81-6,.08-4.78,2.62-9.46,7.33-13.34.8-1.5,7.9-6.2,9.72-7.27Z"/><path class="cls-86" d="M47.45,147.44a5.29,5.29,0,0,1,5.38,0L91.28,170c2,1.2,5,5.9,3,7.1.91.54-3,4.13-3.87,4.67L66.23,195.87a71.14,71.14,0,0,1-7,3.6A58.32,58.32,0,0,1,33.91,204h0c-1.11,0-2.21-.11-3.32-.2-.37,0-2.48-.24-2.86-.28L10.2,201.67a7.39,7.39,0,0,1-1.82-.48,3.23,3.23,0,0,1-1.62-1.82l-3-9.55a17.52,17.52,0,0,1-.78-6c.14-4.79,2.76-9.46,7.55-13.32.75-1.4,8-6.14,9.68-7.14Z"/><path class="cls-87" d="M47.44,147.55a5.29,5.29,0,0,1,5.38,0l38.42,22.5c2.12,1.24,4.89,5.93,2.76,7.17.86.5-3.16,4.09-4,4.58L66,195.87a67.31,67.31,0,0,1-7,3.56,58.25,58.25,0,0,1-25.17,4.45h0c-1.1,0-2.2-.11-3.3-.2-.35,0-2.49-.24-2.84-.28l-17.43-1.85a6.72,6.72,0,0,1-1.81-.49,3.24,3.24,0,0,1-1.61-1.82l-3-9.59a17,17,0,0,1-.74-6c.19-4.8,2.89-9.46,7.77-13.3.7-1.3,8-6.08,9.63-7Z"/><path class="cls-88" d="M47.42,147.66a5.34,5.34,0,0,1,5.38,0l38.4,22.49c2.2,1.28,4.75,6,2.55,7.24.79.46-3.37,4-4.15,4.5l-23.89,14a65.64,65.64,0,0,1-7,3.52,58.35,58.35,0,0,1-25,4.36h0c-1.1,0-2.19-.11-3.28-.21-.32,0-2.51-.24-2.83-.28l-17.33-1.84a6.41,6.41,0,0,1-1.8-.5,3.23,3.23,0,0,1-1.58-1.82l-3-9.64a16.43,16.43,0,0,1-.72-6.06c.25-4.79,3-9.46,8-13.27.64-1.2,8.13-6,9.58-6.87Z"/><path class="cls-89" d="M47.41,147.77a5.34,5.34,0,0,1,5.38,0l38.37,22.47c2.27,1.33,4.61,6,2.34,7.32.72.43-3.58,4-4.3,4.41L65.45,195.88a63,63,0,0,1-6.92,3.48,58.53,58.53,0,0,1-24.92,4.27h0c-1.08,0-2.17-.11-3.25-.21l-2.81-.28L10.3,201.31a5.89,5.89,0,0,1-1.78-.51A3.28,3.28,0,0,1,7,199L4,189.3a15.94,15.94,0,0,1-.69-6.09c.31-4.8,3.17-9.46,8.23-13.25.59-1.1,8.2-6,9.53-6.74Z"/><path class="cls-90" d="M47.4,147.88a5.34,5.34,0,0,1,5.38,0l38.34,22.46c2.35,1.38,4.48,6,2.13,7.4.65.38-3.79,3.93-4.45,4.31L65.19,195.88a61.5,61.5,0,0,1-6.89,3.45,58.51,58.51,0,0,1-24.8,4.17h0c-1.08,0-2.16-.11-3.23-.21l-2.8-.28-17.14-1.82a6.22,6.22,0,0,1-1.77-.51A3.35,3.35,0,0,1,7,198.85l-3-9.72A15.89,15.89,0,0,1,3.35,183c.37-4.81,3.3-9.46,8.46-13.23.53-1,8.27-5.9,9.49-6.61Z"/><path class="cls-91" d="M47.39,148a5.27,5.27,0,0,1,5.37,0l38.32,22.44c2.43,1.42,4.34,6.05,1.92,7.47.59.34-4,3.88-4.59,4.23L64.93,195.89a58.39,58.39,0,0,1-6.86,3.4,58.63,58.63,0,0,1-24.67,4.09h0c-1.07,0-2.14-.12-3.22-.22l-2.77-.28-17-1.81a5.78,5.78,0,0,1-1.76-.52,3.36,3.36,0,0,1-1.53-1.84l-3-9.76a15.44,15.44,0,0,1-.63-6.15c.43-4.81,3.44-9.46,8.69-13.2.48-.9,8.35-5.84,9.44-6.47Z"/><path class="cls-92" d="M47.38,148.11a5.32,5.32,0,0,1,5.37,0L91,170.53c2.5,1.47,4.2,6.08,1.7,7.55.53.3-4.2,3.83-4.73,4.14L64.67,195.89a55.46,55.46,0,0,1-6.82,3.37,58.69,58.69,0,0,1-24.55,4h0c-1.07-.05-2.13-.12-3.2-.22-.21,0-2.55-.26-2.76-.28L10.4,201a5.4,5.4,0,0,1-1.75-.53,3.35,3.35,0,0,1-1.5-1.84l-3-9.8a15,15,0,0,1-.59-6.18c.49-4.82,3.57-9.46,8.9-13.18.43-.8,8.43-5.77,9.4-6.34Z"/><path class="cls-93" d="M47.37,148.22a5.32,5.32,0,0,1,5.37,0L91,170.63c2.58,1.51,4.07,6.11,1.49,7.62.46.27-4.41,3.78-4.87,4.05L64.41,195.89a52.88,52.88,0,0,1-6.79,3.34,59,59,0,0,1-24.42,3.89h0c-1.06,0-2.12-.12-3.18-.22l-2.74-.28-16.85-1.79a5.07,5.07,0,0,1-1.73-.54,3.41,3.41,0,0,1-1.49-1.84l-3-9.84a14.7,14.7,0,0,1-.56-6.22c.55-4.82,3.71-9.45,9.13-13.15.38-.7,8.5-5.71,9.35-6.21Z"/><path class="cls-94" d="M47.36,148.33a5.3,5.3,0,0,1,5.36,0L91,170.73c2.66,1.55,3.93,6.13,1.28,7.69.39.23-4.62,3.74-5,4L64.15,195.9a51.66,51.66,0,0,1-6.76,3.29A58.93,58.93,0,0,1,33.1,203h0c-1.06-.05-2.11-.13-3.16-.23l-2.73-.28-16.75-1.78a4.77,4.77,0,0,1-1.71-.55,3.39,3.39,0,0,1-1.48-1.84l-3-9.89a14.31,14.31,0,0,1-.54-6.24c.61-4.83,3.85-9.45,9.36-13.13.32-.6,8.57-5.65,9.3-6.08Z"/><path class="cls-95" d="M47.34,148.44a5.32,5.32,0,0,1,5.37,0l38.21,22.39c2.73,1.59,3.8,6.16,1.07,7.76.32.19-4.83,3.69-5.16,3.88L63.9,195.9a50.06,50.06,0,0,1-6.74,3.26A59.07,59.07,0,0,1,33,202.87h0c-1.05-.05-2.1-.13-3.14-.23l-2.72-.28L10.5,200.59A4.54,4.54,0,0,1,8.79,200a3.38,3.38,0,0,1-1.45-1.84l-3.07-9.93A14.14,14.14,0,0,1,3.76,182c.67-4.83,4-9.46,9.59-13.11.27-.5,8.65-5.59,9.25-5.95Z"/><path class="cls-96" d="M47.33,148.56a5.3,5.3,0,0,1,5.36,0l38.19,22.36c2.81,1.65,3.66,6.2.85,7.84.27.15-5,3.64-5.3,3.79L63.64,195.9a48.24,48.24,0,0,1-6.7,3.22,59,59,0,0,1-24,3.62h0c-1-.05-2.09-.13-3.13-.23l-2.69-.28-16.55-1.76a4.14,4.14,0,0,1-1.69-.57,3.48,3.48,0,0,1-1.44-1.84l-3.08-10a14,14,0,0,1-.48-6.31C4.57,177,8,172.33,13.66,168.7c.21-.4,8.72-5.53,9.2-5.81Z"/><path class="cls-97" d="M47.32,148.67a5.3,5.3,0,0,1,5.36,0L90.84,171c2.88,1.69,3.52,6.22.64,7.91.2.12-5.25,3.59-5.44,3.71L63.38,195.91a45.62,45.62,0,0,1-6.67,3.18,59.45,59.45,0,0,1-23.91,3.53h0c-1-.06-2.08-.14-3.11-.24L27,202.1l-16.45-1.75a4.06,4.06,0,0,1-1.68-.58,3.42,3.42,0,0,1-1.41-1.85l-3.1-10a13.53,13.53,0,0,1-.44-6.33c.78-4.84,4.26-9.45,10-13.06.16-.3,8.79-5.47,9.15-5.68Z"/><path class="cls-98" d="M47.31,148.78a5.3,5.3,0,0,1,5.36,0L90.8,171.12c3,1.73,3.39,6.25.43,8,.13.08-5.46,3.54-5.59,3.62L63.12,195.91a43.68,43.68,0,0,1-6.64,3.14,59.31,59.31,0,0,1-23.79,3.44h0c-1-.06-2-.14-3.08-.24L27,202l-16.36-1.74a3.85,3.85,0,0,1-1.66-.59,3.43,3.43,0,0,1-1.4-1.85l-3.11-10A13.39,13.39,0,0,1,4,181.38c.84-4.85,4.4-9.46,10.26-13,.11-.2,8.87-5.41,9.12-5.55Z"/><path class="cls-99" d="M47.3,148.89a5.28,5.28,0,0,1,5.35,0l38.12,22.32a4.71,4.71,0,0,1,.21,8.06c.06,0-5.67,3.49-5.73,3.53L62.86,195.91a43.13,43.13,0,0,1-6.6,3.11,59.56,59.56,0,0,1-23.67,3.34h0c-1-.05-2-.14-3.06-.24l-2.65-.28-16.25-1.73a3.61,3.61,0,0,1-1.65-.6,3.49,3.49,0,0,1-1.38-1.85L4.47,187.57a13.29,13.29,0,0,1-.38-6.4c.9-4.85,4.54-9.45,10.49-13,.06-.1,9-5.35,9.07-5.42Z"/><path class="cls-46" d="M52.64,149a5.33,5.33,0,0,0-5.35,0l-32.4,19c-8.68,5.08-12.55,12.34-10.36,19.41l3.13,10.14a3.53,3.53,0,0,0,3,2.46l18.78,2c12.08,1.28,24.48-1,33.16-6.07l28.13-16.48a4.72,4.72,0,0,0,0-8.13Z"/></g><path class="cls-100" d="M95.67,173.33,49.93,146.92,13.7,167.85c-6,3.46-9.77,7.9-10.94,12.62l-.39-.56v3.56h0A13.38,13.38,0,0,0,3,187.63l4,12.58,21.8,2.28c12.48,1.31,25.29-1,34.26-6.18l36.24-20.92v-4.11Z"/><path class="cls-47" d="M28.73,198.38c12.48,1.31,25.29-1,34.26-6.18l36.24-20.92-49.3-28.46L13.7,163.74c-9,5.18-13,12.57-10.72,19.78l4,12.58Z"/><path class="cls-46" d="M29.3,196.58c11.46,1.2,23.21-.92,31.45-5.68l34-19.62L49.93,145.41,15.94,165C7.71,169.79,4,176.58,6.11,183.19l3.56,11.34Z"/><path class="cls-53" d="M9.23,182.86,12.4,193l17.47,1.83c10.43,1.09,21.13-.84,28.63-5.17l31.75-18.33L49.93,148,18.19,166.33C10.69,170.66,7.34,176.84,9.23,182.86Z"/><ellipse class="cls-48" cx="45.25" cy="173.98" rx="17.33" ry="10"/><polygon class="cls-49" points="39.87 169.19 45.25 172.12 50.63 169.19 53.98 171.02 48.6 173.95 53.98 176.88 50.63 178.71 45.25 175.78 39.87 178.71 36.52 176.88 41.9 173.95 36.52 171.02 39.87 169.19"/><path class="cls-46" d="M124,36.53,84,13.43c-1.32-.76-2.49-.82-3.25-.3h0l-1.52.81.48.56.24-.13a3.41,3.41,0,0,0-.1.82V61.77c0,2.29,1.86,5.21,4.15,6.53l40,23.11a5.37,5.37,0,0,0,1.3.54c.09.35.19.71.19.71l1.64-.87h0a2.29,2.29,0,0,0,1-2.13V43.06C128.12,40.77,126.27,37.85,124,36.53Z"/><path class="cls-45" d="M78.18,62.65V16.06c0-2.29,1.85-3.07,4.14-1.75l40,23.1c2.28,1.32,4.14,4.25,4.14,6.54V90.54c0,2.29-1.86,3.07-4.14,1.75l-40-23.1C80,67.87,78.18,64.94,78.18,62.65Z"/><path class="cls-53" d="M121.59,89.7,83.07,67.46a5.66,5.66,0,0,1-2.73-4.31V18.06c0-1.51,1.22-2,2.73-1.16l38.52,22.24a5.66,5.66,0,0,1,2.73,4.31V88.54C124.32,90.05,123.1,90.57,121.59,89.7Z"/><path class="cls-57" d="M90.42,56.38l-.89,10.14L115.14,81.3l-1-12c-.69-3.43.57-5.83,1.7-6.33C115.62,62.7,99,49,88.71,48.06,89.84,49.87,91.11,53.74,90.42,56.38Z"/><path class="cls-101" d="M88.71,48.06S83.57,46.88,82.58,59l-.23,3.4,6,3.46,1.19.69.89-10.14C91.11,53.74,89.84,49.87,88.71,48.06Z"/><path class="cls-101" d="M122,80.91c-1-13.23-6.13-18-6.13-18h0c-1.13.5-2.39,2.9-1.7,6.33l1,12,1.54.89,5.63,3.25Z"/><path class="cls-102" d="M105.4,50.24l.54,6.89h0c-1,3-6.06.09-7-4.06h0l.2-6.46Z"/><path class="cls-103" d="M109.47,46c0,5-3.16,8.7-7,6.45s-7-9.58-7-14.58,3.15-7.22,7-5S109.47,41,109.47,46Z"/><ellipse class="cls-103" cx="109" cy="46.97" rx="1.66" ry="2.9" transform="translate(-7.41 70.12) rotate(-34.56)"/><path class="cls-103" d="M93.72,38.15a4.51,4.51,0,0,0,2.13,3.48c1.18.68,2.14.23,2.14-1a4.53,4.53,0,0,0-2.14-3.48C94.67,36.45,93.72,36.91,93.72,38.15Z"/><path class="cls-46" d="M97.66,31.15s0,7.43,11.81,14.33c0,0,3.36-3.93-2.88-10.24C103.36,32,98,29.61,97.66,31.15Z"/><path class="cls-46" d="M100.85,34.32s-2.61,3.87-5.24,4.37c0,0-3-9.31.63-8.36A6.49,6.49,0,0,1,100.85,34.32Z"/><polygon class="cls-46" points="109.93 44.68 109.31 47.84 108.63 47.45 108.09 44.03 109.93 44.68"/><polygon class="cls-46" points="95 36.46 95.62 40.33 96.3 40.73 96.83 37.93 95 36.46"/><polygon class="cls-46" points="99.1 54.23 106.18 58.32 102.43 67.58 99.1 54.23"/><path class="cls-45" d="M96.93,68.27v-.59c.56.33,1,.16,1-.36v-8a3.69,3.69,0,0,0-.46-1.65l-2.39-4.2-2.41,1.44A1.37,1.37,0,0,0,92.24,56v8a2.07,2.07,0,0,0,1,1.54l.07,0v.59l-.07,0a3.28,3.28,0,0,1-1.61-2.47v-8a1.68,1.68,0,0,1,.58-1.4l2.87-1.72,2.85,5a4.66,4.66,0,0,1,.59,2.09v8C98.54,68.51,97.82,68.78,96.93,68.27Z"/><path class="cls-47" d="M93.53,66.59l-.33-.18a.26.26,0,0,1-.12-.19v-.94c0-.07.06-.09.12,0l.33.19a.23.23,0,0,1,.11.18v.94C93.64,66.61,93.59,66.63,93.53,66.59Z"/><path class="cls-47" d="M97.05,68.63l-.33-.19a.25.25,0,0,1-.11-.19v-.94c0-.06,0-.09.11,0l.33.19a.26.26,0,0,1,.12.19v.94C97.17,68.64,97.11,68.67,97.05,68.63Z"/><path class="cls-45" d="M109.61,59.71c0-1.9-1.62-4.39-3.61-5.54l-.31-.18,0,.62.26.15a6.15,6.15,0,0,1,3,4.61l.14,11.05.59.33Z"/><path class="cls-45" d="M98.42,49.79c-2-1.15-3.62-.54-3.62,1.37V53l.59.34V51.5c0-1.58,1.36-2.08,3-1.12l.56.33,0-.58Z"/><polygon class="cls-53" points="98.91 50.94 94.29 49.24 95.3 55.9 97.15 56.97 95.86 58.68 103.48 72.59 98.91 50.94"/><polygon class="cls-53" points="105.74 54.61 109.93 58.06 109.55 64.13 107.7 63.06 108.99 66.26 102.43 67.58 105.74 54.61"/><path class="cls-47" d="M111.5,73c0,1.12-.91,1.51-2,.86a4.22,4.22,0,0,1-2-3.21c0-1.13.91-1.51,2-.86A4.22,4.22,0,0,1,111.5,73Z"/><path class="cls-57" d="M110.45,72.34c0,.55-.44.73-1,.42a2,2,0,0,1-1-1.56c0-.54.44-.73,1-.42A2.07,2.07,0,0,1,110.45,72.34Z"/><path class="cls-48" d="M240,226c-5.5-3.17-10-1.29-10,4.22,0-5.51-4.46-12.54-10-15.72-3-1.74-5.74-2-7.57-.88h0l-1.92,1.1v.23l.38.21a6.85,6.85,0,0,0-.86,3.55c0,11.17,19.93,35.48,19.93,35.48S250,252.85,250,241.69C250,236.19,245.52,229.15,240,226Z"/><path class="cls-49" d="M238.27,227c-5.5-3.17-10-1.29-10,4.21,0-5.5-4.46-12.53-10-15.71s-10-1.29-10,4.21c0,11.17,19.93,35.48,19.93,35.48s19.92-1.31,19.92-12.47C248.23,237.18,243.77,230.15,238.27,227Z"/><ellipse class="cls-53" cx="215.11" cy="221.64" rx="1.93" ry="3.42" transform="translate(-90.03 173.82) rotate(-36.95)"/><path class="cls-53" d="M217.1,229c0,.82-.65,1.1-1.47.63a3.06,3.06,0,0,1-1.47-2.33c0-.81.66-1.09,1.47-.62A3,3,0,0,1,217.1,229Z"/><polygon class="cls-45" points="233.66 243.23 229.51 247.91 222.95 241.06 222.95 234.73 228.45 234.73 233.66 243.23"/><path class="cls-100" d="M228.29,232.92c-4.2-2.42-7.61-1-7.61,3.22s3.41,9.59,7.61,12,7.61,1,7.61-3.22S232.49,235.35,228.29,232.92Zm4.38,11.19-3.34-1.93v3.34l-2.08-1.2V241l-3.34-1.93V237l3.34,1.93v-3.34l2.08,1.2v3.35l3.34,1.93Z"/><polygon class="cls-49" points="189.9 168.48 185.38 165.9 179.9 169.07 184.43 171.65 189.9 168.48"/><polygon class="cls-49" points="191.34 169.31 191.32 169.3 185.85 172.47 185.86 172.47 190.4 175.07 195.88 171.9 191.34 169.31"/><polygon class="cls-49" points="190.72 161.17 186.2 158.59 180.72 161.75 185.25 164.34 190.72 161.17"/><polygon class="cls-49" points="192.16 161.99 192.14 161.98 186.67 165.15 186.68 165.16 191.21 167.75 196.69 164.59 192.16 161.99"/><path class="cls-102" d="M94.08,124.51l-2.25,8.12s5.7,5.35,6.82,2.42l1.84-9.05Z"/><polygon class="cls-46" points="118.69 154.94 103.22 146.01 108.31 124.91 123.78 133.85 118.69 154.94"/><polygon class="cls-104" points="117.92 141.77 108.64 136.41 109.08 135.07 118.35 140.43 117.92 141.77"/><polygon class="cls-105" points="117.14 144.04 107.87 138.69 108.3 137.34 117.58 142.7 117.14 144.04"/><path class="cls-46" d="M97.6,221.67a26.34,26.34,0,0,0-.54,5.51,1.31,1.31,0,0,0,.34.84,3.88,3.88,0,0,0,1.07.79,2.05,2.05,0,0,0,2-.05l1.44-.84.22-1.25,1.19.69s4.57-1.72,6.2-3.83-4.84-.93-6.25-.56-1.86-1.3-1.86-1.3Z"/><path class="cls-46" d="M88,216.78a26.59,26.59,0,0,0-.53,5.5,1.22,1.22,0,0,0,.34.85,4,4,0,0,0,1.06.79,2.08,2.08,0,0,0,2-.06l1.44-.83.22-1.25,1.19.69s4.58-1.72,6.21-3.84-4.84-.93-6.26-.56-1.85-1.29-1.85-1.29Z"/><path class="cls-47" d="M87.51,159.33a20.81,20.81,0,0,0-1.46,12.59c1.38,7.17,2.5,18,2.5,18l-1.17,28.43s2.26,2.48,7.27-.37L98,190.25l-.51-24.55Z"/><path class="cls-47" d="M94.72,163.82s-2.2,3.78.37,12.88c2,7,2.51,18,2.51,18l-1.17,28.43s3.77,3.45,8.1-.81L107,195l-.62-29.38Z"/><path class="cls-106" d="M90.11,129.15s15.16,7.07,16.33,8.89,2.87,58.87,2.87,58.87-20.22,6-26.72-2.77c0,0,1.07-39,1.39-43.93C84.37,144,80.55,126.61,90.11,129.15Z"/><path class="cls-103" d="M112.67,161.62s0,3,3.23,0c2.49-2.29,3.31-4.66,6-13.48.42-1.36,2.24-3.44,1.85-5.41s-.91-4.9-.91-4.9L119,149.15l-5.07,6.25Z"/><path class="cls-103" d="M95.26,122a7.78,7.78,0,0,0,6.72,7.41,4.43,4.43,0,0,0,3.06-.56c1.26-.84,1.07-2.79,1-5.36,0,0,1.51-.57,1.45-1.18s-1.22-2.44-1.3-3c-.32-2.32-.74-4.13-.74-4.13s-6.32-3.91-8.94.62A11.32,11.32,0,0,0,95.26,122Z"/><path class="cls-46" d="M93.84,126.33c-.06-.73-5.67-7.65-2-12.81s11.17-.33,15.76-2a3.16,3.16,0,0,1-.44,4.78c-2.76,2.3-7.43,1.49-7.6,2.44a22.84,22.84,0,0,0,.52,4.41l-1.72.63s-.75-2.88-2.18-2.68c-1.87.25-.63,3.41,1.07,3.46.9,0-1.07,2.59-1.07,2.59Z"/><path class="cls-58" d="M93.21,127.64l-2.62,2.94s3.65,6,9.59,4.8v-3.29Z"/><path class="cls-107" d="M119.74,147l-5.85,8.43-.8-1.87h0L106.44,138s-6.66-3-6.55,4.92c.1,6.77,6.66,16.78,11.6,19a4.76,4.76,0,0,0,2.4.9c3.73.38,8.92-11.84,8.92-11.84Z"/><path class="cls-103" d="M120.49,145.52s-.89-4.7-.3-4.89.84,1.68,1.43,1.68S121.92,147,120.49,145.52Z"/><path class="cls-47" d="M113.84,136.4a3.55,3.55,0,0,1-1-3.61,1.45,1.45,0,0,1,2.44-.79,3.53,3.53,0,0,1,1,3.6A1.45,1.45,0,0,1,113.84,136.4Z"/><path class="cls-53" d="M116,135.37a1.21,1.21,0,0,1-2,.66,3,3,0,0,1-.8-3,1.21,1.21,0,0,1,2-.66A2.94,2.94,0,0,1,116,135.37Z"/><polygon class="cls-47" points="115.73 134.53 114.89 134.04 115.06 133.03 114.54 132.73 114.37 133.73 113.54 133.24 113.43 133.86 114.27 134.36 114.09 135.36 114.61 135.67 114.78 134.66 115.62 135.16 115.73 134.53"/></g></g></g></svg>