<svg xmlns="http://www.w3.org/2000/svg" viewBox="0 0 423.2 258.8"><defs><style>.cls-1{isolation:isolate;}.cls-2{fill:#e1e6ed;}.cls-3{fill:#4cc2fc;}.cls-4{fill:#1a2089;}.cls-5{fill:#5d4efa;}.cls-6{fill:#fff;}.cls-7{fill:#313679;}.cls-8{fill:#aec2e2;opacity:0.4;mix-blend-mode:multiply;}.cls-9{fill:#e4e4eb;}.cls-10{fill:#e7e6e4;}.cls-11{fill:#c9c9d5;}.cls-12{fill:#5a7cdf;}.cls-13{fill:#f2f2f2;opacity:0.61;}</style></defs><title>accessible_treatment</title><g class="cls-1"><g id="Layer_2" data-name="Layer 2"><g id="Layer_1-2" data-name="Layer 1"><path class="cls-2" d="M421.48,98.6v-.17a.92.92,0,0,1,0-.16v0a.37.37,0,0,1,0-.11s0-.1,0-.15,0,0,0-.08V97.8l0-.15,0-.15h0s0-.11,0-.16a.83.83,0,0,0,0-.15V97.1a.19.19,0,0,1,0-.08.88.88,0,0,1-.05-.15s0-.07,0-.11h0v0a.78.78,0,0,1-.05-.14l-.06-.14,0,0v0l0-.05-.06-.14-.06-.13v0l-.08-.14c0-.05-.05-.09-.07-.13l-.05-.09,0,0-.14-.21a.25.25,0,0,0,0-.07h0a2,2,0,0,0-.18-.26l0,0,0,0-.06-.08-.12-.14,0,0,0,0-.05,0-.11-.12-.09-.1h0l0,0-.12-.12-.14-.13h0l-.13-.12-.15-.11h0l0,0L419,93.8l-.14-.1,0,0h0l-.08,0a1.19,1.19,0,0,0-.15-.09l-.78-.45-4.29,2.32,1.08.62.14.1a.71.71,0,0,1,.14.1l.14.11.06,0,.22.19h0l.21.2,0,0,.19.2,0,0a1.18,1.18,0,0,1,.18.21l0,0c.05.07.11.14.16.22l.09.11a1.3,1.3,0,0,0,.1.15l.1.17a.41.41,0,0,1,.07.11l.06.1.1.18,0,0a2,2,0,0,1,.13.25v0c0,.09.08.17.11.26v0c0,.09.07.18.1.27l0,0c0,.09.06.18.08.26v0a2.68,2.68,0,0,1,.07.27v0l.06.26v0a2.51,2.51,0,0,1,0,.27v0c0,.09,0,.18,0,.27a.57.57,0,0,0,0,.13V101a.81.81,0,0,1,0,.16,1,1,0,0,1,0,.17.88.88,0,0,1,0,.17c0,.05,0,.09,0,.14l0,.24-14.82,91.58c-.07.44-1.76,3.22-1.38,3L405.1,193a4.73,4.73,0,0,0,1.61-2.85l14.54-89.86.18-1.09a.59.59,0,0,1,0-.13.49.49,0,0,1,0-.12h0v-.06a.86.86,0,0,0,0-.16.62.62,0,0,0,0-.13Z"/><path class="cls-3" d="M414.45,95.9a6.07,6.07,0,0,1,2.89,5.73l-15,92.91c-.33,2.05-2.16,2.8-4.09,1.69l-142.3-82.16a6.07,6.07,0,0,1-2.9-5.72l15-92.91c.34-2,2.17-2.81,4.1-1.69Z"/><path class="cls-4" d="M419.38,82.22,278.34.79h0l-.21-.12h0l-.37-.22L277.6.38l-.14-.07-.15-.07-.15,0-.16,0-.16-.05h0l-.14,0h-.17l-.17,0h-.47l-.15,0h-.09l-.28.08h0l0,0A2.07,2.07,0,0,0,275,.3l-4.14,2.41a2.41,2.41,0,0,1,.33-.15l.14-.05.16,0,.2,0h.43l.3,0h0l.33.06h0l.33.11h0a3.68,3.68,0,0,1,.35.15l.15.08.11.06.78.45h0L415.76,84.93a.53.53,0,0,0,.52,0l3.1-1.81A.52.52,0,0,0,419.38,82.22ZM277,1Z"/><path class="cls-4" d="M423.2,87.77h0V87.6s0-.11,0-.16v0a.45.45,0,0,1,0-.11c0-.06,0-.11,0-.16s0,0,0-.07V87l0-.16,0-.15h0a1.24,1.24,0,0,0,0-.16.83.83,0,0,0,0-.15v-.07s0-.06,0-.09,0-.09,0-.14,0-.08,0-.12h0v0a.58.58,0,0,1-.05-.14l-.06-.13,0-.06v0l0-.06a.83.83,0,0,1-.07-.13l-.06-.14h0v0l-.08-.15-.07-.13,0-.09,0,0-.14-.21,0-.07h0a2,2,0,0,0-.18-.25l0,0,0,0-.06-.09-.12-.14,0,0,0,0,0,0-.12-.13-.09-.09v0l0,0-.12-.12-.14-.12h0L421,83.2l-.14-.12h0l0,0-.11-.08-.14-.1,0,0h0l-.08,0-.14-.09-3.45-2-4.23,2.56,3.68,1.93.14.09.14.1.14.11.06.05.22.18h0l.22.21,0,0,.2.21,0,0a1.68,1.68,0,0,1,.18.21l0,0,.17.22.08.12.1.14.1.17.07.11.06.1.1.18,0,0c.05.08.09.17.13.25v0c0,.09.08.18.11.27l0,0c0,.08.06.17.1.26v0a2,2,0,0,1,.08.26v0a2.5,2.5,0,0,1,.07.26v0l.06.27v0a2.51,2.51,0,0,1,0,.27v0c0,.09,0,.17,0,.26a.66.66,0,0,0,0,.14v.15a1,1,0,0,1,0,.17.86.86,0,0,1,0,.16c0,.06,0,.12,0,.18a.59.59,0,0,0,0,.13l0,.25-14.82,91.57c-.07.44-1.76,3.23-1.38,3l4.05-3.43a4.73,4.73,0,0,0,1.61-2.85L423,89.49l.18-1.09a.68.68,0,0,1,0-.14s0-.08,0-.11h0v0a1,1,0,0,1,0-.17v-.15Z"/><path class="cls-4" d="M416,85.08a6.07,6.07,0,0,1,2.9,5.72l-15,92.91c-.33,2-2.16,2.81-4.09,1.69l-142.3-82.15a6.1,6.1,0,0,1-2.9-5.73l15-92.91c.33-2.05,2.16-2.8,4.09-1.69Z"/><path class="cls-5" d="M410.94,91.06c1.83,1,3.07,3.27,2.77,5l-13.6,78c-.29,1.72-2,2.27-3.85,1.23l-135-76.46c-1.83-1-3.07-3.27-2.77-5l13.59-77.95c.3-1.72,2-2.27,3.86-1.23Z"/><path class="cls-6" d="M346.28,50.15c0,.89-.63,1.25-1.41.8a3.11,3.11,0,0,1-1.41-2.43c0-.9.63-1.26,1.41-.81A3.11,3.11,0,0,1,346.28,50.15Z"/><path class="cls-4" d="M399.93,201.58l0-4.32-5.56,2.15-1.19-2.74L254,116.3a7.38,7.38,0,0,0-6.6.27l-60,34.6v-1l-11,4.45v4.4h0a1.69,1.69,0,0,0,1.05,1.29L322.35,244a7.34,7.34,0,0,0,6.57-.24l69.41-40.07a2.68,2.68,0,0,0,1.6-2.13Z"/><path class="cls-3" d="M322.27,239.5,177.41,155.87c-1.67-1-1.46-2.67.47-3.79L247.3,112a7.32,7.32,0,0,1,6.57-.27l144.85,83.63c1.68,1,1.47,2.68-.47,3.79l-69.41,40.08A7.32,7.32,0,0,1,322.27,239.5Z"/><path class="cls-4" d="M268.29,199.09l-35.06-20.24c-.41-.23-.35-.64.11-.91l16.8-9.7a1.79,1.79,0,0,1,1.59-.07l35.06,20.24c.41.24.35.65-.11.92l-16.8,9.7A1.76,1.76,0,0,1,268.29,199.09Z"/><path class="cls-4" d="M256,127.22a1.06,1.06,0,0,1-1-.11L246.23,122c-.32-.18-.41-.43-.2-.55l5.83-3.37a1.11,1.11,0,0,1,.95.11l8.8,5.08c.32.18.4.43.19.55Z"/><path class="cls-4" d="M266.18,142.38a1.13,1.13,0,0,1-1-.11l-8.79-5.08c-.32-.18-.41-.43-.19-.55l5.82-3.37a1.1,1.1,0,0,1,1,.12l8.79,5.07c.32.19.4.43.2.55Z"/><path class="cls-4" d="M261,148.67a1.11,1.11,0,0,1-.95-.11l-8.8-5.08c-.31-.18-.41-.43-.19-.55l5.82-3.37a1.14,1.14,0,0,1,1,.12l8.79,5.07c.32.18.41.43.2.55Z"/><path class="cls-4" d="M247.07,149.88a1.13,1.13,0,0,1-1-.11l-8.79-5.07c-.31-.18-.4-.43-.19-.55l5.82-3.37a1.13,1.13,0,0,1,1,.11L252.7,146c.32.18.4.43.19.55Z"/><path class="cls-4" d="M222.86,146.35a1.11,1.11,0,0,1-1-.11l-8.8-5.07c-.31-.19-.4-.43-.19-.56l6.84-4a1.13,1.13,0,0,1,1,.11l8.79,5.08c.32.18.4.43.2.55Z"/><path class="cls-4" d="M238,155.1a1.44,1.44,0,0,1-1.14-.21l-11.52-6.65c-.41-.24-.58-.54-.37-.66l6.84-4a1.45,1.45,0,0,1,1.13.21l11.53,6.65c.41.25.58.54.37.66Z"/><path class="cls-4" d="M313.72,198.85a1.1,1.1,0,0,1-.89-.15L304,193.63c-.32-.19-.44-.42-.26-.52l2.53-1.46a1.09,1.09,0,0,1,.9.15l8.78,5.07c.32.18.43.42.26.52Z"/><path class="cls-4" d="M325.47,205.8a1.05,1.05,0,0,1-.89-.14l-8.79-5.08c-.32-.18-.44-.41-.26-.51l2.53-1.47a1.1,1.1,0,0,1,.9.16l8.78,5.07c.32.18.44.41.26.51Z"/><path class="cls-4" d="M337.93,212.83a1,1,0,0,1-.88-.16l-8.79-5.07c-.32-.18-.44-.41-.28-.51l2.44-1.41a1.13,1.13,0,0,1,.88.16l8.8,5.07c.31.19.43.42.27.51Z"/><path class="cls-4" d="M330.27,203.12a1.08,1.08,0,0,1-.88-.15l-8.79-5.08c-.32-.18-.45-.41-.28-.51l2.44-1.4a1.08,1.08,0,0,1,.88.15l8.79,5.08c.32.18.44.41.27.5Z"/><path class="cls-4" d="M298.52,190a1.1,1.1,0,0,1-1-.12l-57.23-33c-.31-.18-.4-.43-.19-.55l6.84-4a1.14,1.14,0,0,1,1,.12l57.23,33c.31.18.4.44.19.56Z"/><path class="cls-4" d="M292.66,185a3.74,3.74,0,0,1-.48-.25l-45.55-26.29a4.36,4.36,0,0,1-.44-.27l.43-.25a3.74,3.74,0,0,1,.48.25l45.55,26.28.44.28Z"/><path class="cls-4" d="M236.46,152.92s-.06,0-.09,0L229.64,149s0-.05,0-.06l.43-.24s.05,0,.09,0l6.72,3.88s.06,0,0,.06Z"/><path class="cls-4" d="M219.22,142.23a0,0,0,0,1-.05,0l-2.85-1.65s0,0,0,0l.43-.24h0l2.85,1.65s0,0,0,0Z"/><path class="cls-4" d="M259.12,156.83a1.07,1.07,0,0,1-.95-.11l-8.8-5.07c-.31-.18-.4-.43-.19-.56l5.82-3.36a1.13,1.13,0,0,1,1,.11l8.8,5.07c.31.19.4.44.19.56Z"/><path class="cls-4" d="M271.23,163.82a1.11,1.11,0,0,1-1-.11l-8.8-5.07c-.31-.19-.4-.44-.19-.56l5.83-3.36a1.11,1.11,0,0,1,.95.11l8.8,5.07c.31.18.4.43.19.56Z"/><path class="cls-4" d="M283.34,170.81a1.11,1.11,0,0,1-.95-.11l-8.8-5.08c-.31-.18-.4-.43-.19-.55l5.83-3.36a1.11,1.11,0,0,1,.95.11l8.8,5.07c.31.18.4.43.19.55Z"/><path class="cls-4" d="M295.45,177.8a1.11,1.11,0,0,1-.95-.11l-8.8-5.08c-.32-.18-.4-.43-.19-.55l5.82-3.37a1.13,1.13,0,0,1,1,.11l8.8,5.08c.31.18.4.43.19.55Z"/><path class="cls-4" d="M307.56,184.79a1.1,1.1,0,0,1-1-.12l-8.79-5.07c-.32-.18-.4-.43-.19-.55l5.82-3.37a1.13,1.13,0,0,1,1,.11l8.79,5.08c.32.18.41.43.2.55Z"/><path class="cls-4" d="M319.67,191.77a1.11,1.11,0,0,1-.95-.11l-8.8-5.08c-.31-.18-.4-.43-.19-.55l5.82-3.36a1.06,1.06,0,0,1,1,.11l8.79,5.07c.32.18.41.43.2.55Z"/><path class="cls-4" d="M346.94,207.51a1.11,1.11,0,0,1-.95-.11l-24-13.83c-.32-.18-.4-.43-.19-.55l5.82-3.37a1.13,1.13,0,0,1,1,.11l24,13.83c.32.18.4.43.19.55Z"/><path class="cls-4" d="M273.07,155.62a1.11,1.11,0,0,1-.95-.11l-8.79-5.08c-.32-.18-.41-.43-.2-.55l5.83-3.37a1.11,1.11,0,0,1,1,.12l8.8,5.07c.32.19.4.43.19.55Z"/><path class="cls-4" d="M285.18,162.61a1.11,1.11,0,0,1-.95-.11l-8.8-5.08c-.31-.18-.4-.43-.19-.55l5.83-3.37a1.11,1.11,0,0,1,.95.11l8.8,5.08c.31.18.4.43.19.55Z"/><path class="cls-4" d="M297.29,169.59a1.07,1.07,0,0,1-1-.11l-8.8-5.07c-.31-.18-.4-.43-.19-.55l5.83-3.37a1.11,1.11,0,0,1,.95.11l8.79,5.08c.32.18.41.43.2.55Z"/><path class="cls-4" d="M309.4,176.58a1.11,1.11,0,0,1-.95-.11l-8.8-5.07c-.31-.19-.4-.43-.19-.55l5.83-3.37a1.11,1.11,0,0,1,.95.11l8.79,5.08c.32.18.4.43.2.54Z"/><path class="cls-4" d="M321.51,183.57a1.11,1.11,0,0,1-.95-.11l-8.8-5.08c-.31-.18-.4-.43-.19-.55l5.83-3.37a1.11,1.11,0,0,1,1,.11l8.8,5.08c.31.18.4.43.19.55Z"/><path class="cls-4" d="M333.62,190.55a1.11,1.11,0,0,1-.95-.11l-8.79-5.07c-.32-.19-.41-.43-.2-.55l5.83-3.37a1.11,1.11,0,0,1,.95.11l8.79,5.08c.32.18.4.43.2.55Z"/><path class="cls-4" d="M345.73,197.54a1.11,1.11,0,0,1-1-.11l-8.8-5.08c-.31-.18-.4-.42-.19-.54l5.83-3.37a1.11,1.11,0,0,1,.95.11l8.79,5.08c.32.18.4.42.2.54Z"/><path class="cls-4" d="M278.23,149.33a1.13,1.13,0,0,1-1-.11l-8.79-5.08c-.31-.18-.4-.43-.19-.55l5.83-3.36a1.07,1.07,0,0,1,.95.11l8.79,5.07c.32.18.41.43.2.55Z"/><path class="cls-4" d="M290.34,156.31a1.09,1.09,0,0,1-1-.1l-8.79-5.08c-.32-.18-.4-.43-.19-.55l5.83-3.37a1.11,1.11,0,0,1,.95.11L296,152.4c.32.18.4.43.2.55Z"/><path class="cls-4" d="M302.45,163.3a1.06,1.06,0,0,1-1-.11l-8.79-5.07c-.32-.18-.4-.43-.19-.55l5.83-3.37a1.11,1.11,0,0,1,1,.11l8.79,5.07c.32.19.4.44.2.56Z"/><path class="cls-4" d="M314.56,170.29a1.13,1.13,0,0,1-1-.11l-8.79-5.07c-.32-.19-.41-.43-.2-.56l5.83-3.36a1.13,1.13,0,0,1,1,.11l8.79,5.07c.32.19.4.43.19.55Z"/><path class="cls-4" d="M326.67,177.27a1.09,1.09,0,0,1-1-.1l-8.79-5.08c-.32-.18-.4-.43-.19-.55l5.83-3.37a1.11,1.11,0,0,1,.95.11l8.79,5.08c.32.18.4.43.2.55Z"/><path class="cls-4" d="M338.78,184.26a1.06,1.06,0,0,1-1-.11l-8.8-5.07c-.31-.18-.4-.43-.18-.55l5.82-3.37a1.11,1.11,0,0,1,.95.11l8.8,5.07c.32.19.4.44.2.56Z"/><path class="cls-4" d="M350.89,191.25a1.13,1.13,0,0,1-1-.11l-8.79-5.07c-.32-.19-.41-.43-.19-.56l5.82-3.36a1.13,1.13,0,0,1,1,.11l8.79,5.07c.31.19.4.43.19.55Z"/><path class="cls-4" d="M254.07,135.39a1.13,1.13,0,0,1-1-.11l-14.91-8.61c-.32-.18-.4-.43-.19-.55l5.83-3.37a1.09,1.09,0,0,1,.95.12l14.91,8.6c.32.19.4.43.2.55Z"/><path class="cls-4" d="M371,193.6a1.13,1.13,0,0,1-1-.11l-14.91-8.6c-.31-.18-.4-.43-.19-.56l5.82-3.36a1.13,1.13,0,0,1,1,.11l14.91,8.6c.32.19.41.43.19.56Z"/><path class="cls-4" d="M248.91,141.68a1.13,1.13,0,0,1-1-.11l-17.77-10.26c-.32-.18-.41-.43-.2-.55l5.83-3.37a1.11,1.11,0,0,1,.95.11l17.78,10.26c.32.19.4.43.2.55Z"/><path class="cls-4" d="M235,142.9a1.08,1.08,0,0,1-1-.12l-11.86-6.84c-.31-.18-.4-.43-.19-.55l5.83-3.36a1.08,1.08,0,0,1,1,.11L240.6,139c.31.18.4.43.19.55Z"/><path class="cls-4" d="M268.08,134.21a1.13,1.13,0,0,1-1-.11L258.34,129c-.32-.19-.41-.43-.2-.56l5.83-3.36a1.13,1.13,0,0,1,1,.11l8.78,5.07c.32.19.41.43.2.56Z"/><path class="cls-4" d="M280.14,141.16a1.13,1.13,0,0,1-1-.11L270.39,136c-.32-.19-.41-.44-.2-.56l5.83-3.36a1.13,1.13,0,0,1,1,.11l8.79,5.07c.32.19.41.43.19.56Z"/><path class="cls-4" d="M292.24,148.15a1.11,1.11,0,0,1-.95-.11l-8.8-5.08c-.31-.18-.4-.43-.19-.55l5.83-3.36a1.07,1.07,0,0,1,.95.11l8.8,5.07c.32.19.4.43.19.55Z"/><path class="cls-4" d="M304.36,155.14a1.13,1.13,0,0,1-1-.11L294.61,150c-.32-.18-.41-.43-.19-.55l5.82-3.36a1.06,1.06,0,0,1,1,.11l8.79,5.07c.31.18.4.43.19.55Z"/><path class="cls-4" d="M316.46,162.12a1.08,1.08,0,0,1-.95-.11l-8.79-5.07c-.32-.18-.41-.43-.2-.55l5.83-3.37a1.11,1.11,0,0,1,.95.11l8.8,5.08c.32.18.4.43.19.55Z"/><path class="cls-4" d="M328.58,169.11a1.13,1.13,0,0,1-1-.11l-8.8-5.08c-.31-.18-.39-.43-.18-.55l5.82-3.36a1.07,1.07,0,0,1,1,.11l8.8,5.07c.31.18.4.43.19.55Z"/><path class="cls-4" d="M340.69,176.1a1.13,1.13,0,0,1-1-.11l-8.79-5.08c-.32-.18-.41-.43-.2-.55l5.83-3.37a1.11,1.11,0,0,1,.95.11l8.8,5.08c.31.18.4.43.19.55Z"/><path class="cls-4" d="M352.79,183.08a1.07,1.07,0,0,1-1-.11L343,177.9c-.31-.18-.4-.43-.19-.55l5.83-3.37a1.11,1.11,0,0,1,.95.11l8.8,5.08c.31.18.4.43.19.55Z"/><path class="cls-4" d="M359.83,189.25a1.19,1.19,0,0,0-.51-.17.66.66,0,0,0-.44.06l-5.82,3.36a.2.2,0,0,0-.11.25.64.64,0,0,0,.29.3l2.3,1.33-7.64,4.41a.2.2,0,0,0-.1.26.58.58,0,0,0,.29.29l5.93,3.42a1.28,1.28,0,0,0,.51.17.73.73,0,0,0,.44-.05l13.86-8a.19.19,0,0,0,.09-.25.59.59,0,0,0-.29-.3Z"/><path class="cls-4" d="M233.39,140.06l-.1,0-6.72-3.88s-.06,0,0-.05l.42-.25.09,0,6.73,3.88s0,0,0,.05Z"/><ellipse class="cls-7" cx="332.78" cy="93.07" rx="22.08" ry="31.83" transform="translate(-10.78 130.09) rotate(-21.77)"/><path class="cls-5" d="M331.5,113.82l-6.1-3.54a1.58,1.58,0,0,1-.77-1.69l5.94-34.54a2.51,2.51,0,0,1,3.49-1.74l6.1,3.54a1.61,1.61,0,0,1,.77,1.7L335,112.09A2.51,2.51,0,0,1,331.5,113.82Z"/><path class="cls-5" d="M315.52,88.32,316.77,81a2.51,2.51,0,0,1,3.49-1.74l29,16.83a1.59,1.59,0,0,1,.77,1.7l-1.25,7.29a2.5,2.5,0,0,1-3.49,1.73L316.29,90A1.6,1.6,0,0,1,315.52,88.32Z"/><path class="cls-8" d="M53.59,205.41c-5.56,3.65-14.57,4-20.52.83l-.54.32a10.47,10.47,0,0,0,3.34,3c5.93,3.53,15.4,3.32,21.17-.46,5.58-3.67,5.63-9.34.24-12.9l0,.07C58.68,199.36,57.47,202.87,53.59,205.41Z"/><path class="cls-8" d="M95.21,227c-6,4.67-12.25,9.09-19.62,11.36a31.5,31.5,0,0,1-9.92,1.45c-2.81-.06-5.61-.41-8.42-.3-5.09.18-9.61,3-13.21,6.48-4.07,3.88-7.9,8.8-13.72,10S18.81,254.86,14,251.75l.48.37c5.08,3.84,11.59,7.4,18.16,6.56,6-.77,10-5.33,14-9.35,3.65-3.62,8.24-7,13.56-7.35a76.43,76.43,0,0,1,8.15.26A31.7,31.7,0,0,0,78.64,241c7.46-2.19,13.77-6.62,19.86-11.32,1.56-1.21,3.08-2.42,4.63-3.59l-3.93-2.17C97.86,224.88,96.55,225.93,95.21,227Z"/><path class="cls-8" d="M32.43,205.88a11.06,11.06,0,0,1-2.73-2.21q-4.51,2.66-9,5.41c-5.87,3.66-11.57,8.07-14.39,14.59a16.33,16.33,0,0,0,1.22,15.87,28.79,28.79,0,0,0,8.8,8.15,26.13,26.13,0,0,1-5.22-5.57,16.44,16.44,0,0,1-1.07-16.45c2.91-6.31,8.52-10.59,14.27-14.16,2.71-1.69,5.45-3.33,8.2-4.95l.54-.32Z"/><path class="cls-8" d="M156.72,180.85,149.08,177a3.16,3.16,0,0,1-.91-.7,32,32,0,0,0-12,.79c-1.74.78-3.52,1.77-5.48,2.89l-7.13,4.31h0l-22.94,14c-6.64,3.8-9.51,6.21-6.56,9.28,1.12-1.51,3.56-3.11,7-5.09l22.94-14,0,0,7.13-4.3c6.14-3.54,10.65-5.74,17-4.28a3.17,3.17,0,0,0,1.34,1.3l7.63,3.89a3.18,3.18,0,0,0,3.59-5.19A3.18,3.18,0,0,1,156.72,180.85Z"/><path class="cls-8" d="M170.32,213.91l.43-.18,10.38-6.2c4.85-2.84,6.42-6.83,4.8-10.43-.5,2.28-2.25,4.48-5.26,6.25l-10.38,6.2-.43.18a1.37,1.37,0,0,1-.31.26l-28.61,16.95c-7.13,4.17-16.09,5.44-26.69-1.89a9.58,9.58,0,0,1-6.85-.57l-5.13-2.84c-1,.71-2.06,1.46-3.07,2.23l3.93,2.17,4.72,2.62a9.55,9.55,0,0,0,6.86.57c10.6,7.34,19.56,6.07,26.68,1.89l28.62-17A1,1,0,0,0,170.32,213.91Z"/><path class="cls-8" d="M94,217c-1.83-1-2.28-2.55-1.35-3.83-3-1.62-4.8-3.26-5.71-4.87-.93,2.87.52,6,6.17,9-.94,1.28-.48,2.82,1.35,3.84l.14.07c1-.77,2-1.52,3-2.26Z"/><path class="cls-8" d="M177.36,191.25a3.17,3.17,0,0,1-2.5-.16l-7.64-3.89a3.17,3.17,0,0,1-.69-.49,2.55,2.55,0,0,0-.24.39,3.18,3.18,0,0,0,1.39,4.28l7.63,3.89a3.19,3.19,0,0,0,2.51.16,11.24,11.24,0,0,1,1.9,1.86C180.78,195.44,180.27,193.55,177.36,191.25Z"/><path class="cls-6" d="M169.86,209.73l.43-.18,10.38-6.2c3-1.77,4.76-4,5.26-6.25.74-3.3-1.13-6.76-5.54-9.27l-1.08-.61a3.18,3.18,0,0,1-1.95,4c2.91,2.3,3.42,4.19,2.36,6s-3.72,3.67-7.13,5.82L167,206.46h0C168.65,205.48,171,208.45,169.86,209.73Z"/><path class="cls-3" d="M117.92,223.12l-2.07,1.25a7,7,0,0,1-1.6.68c10.6,7.33,19.56,6.06,26.69,1.89L169.55,210a1.37,1.37,0,0,0,.31-.26c1.11-1.28-1.21-4.25-2.84-3.27h0l-25.12,14.6c-8.66,5.5-13.08,6.76-22.72.92A3.93,3.93,0,0,1,117.92,223.12Z"/><path class="cls-3" d="M96.29,214.93a38,38,0,0,1-3.68-1.72c-.93,1.28-.48,2.82,1.35,3.83l3.62,2a53.31,53.31,0,0,1,6.67-4.18c2.74-1.4,5.16,2.73,2.42,4.14a43,43,0,0,0-4.4,2.64l5.13,2.84a9.58,9.58,0,0,0,6.85.57,7,7,0,0,0,1.6-.68l2.07-1.25a3.93,3.93,0,0,0,1.26-1.14c.84-1.26.36-2.75-1.42-3.74l-13.44-7.44a9.53,9.53,0,0,0-6.58-.64c1.25.71,2.75,1.48,4.53,2.31Z"/><path class="cls-6" d="M123.58,184.25l7.13-4.31c2-1.12,3.74-2.11,5.48-2.89a17.08,17.08,0,0,1,11.56-1.38,3.16,3.16,0,0,1-.06-3,3.29,3.29,0,0,1,.37-.57c-6.37-.84-13.32.22-18.1,3.18l-9.31,5.65C122.58,179.7,124.58,183.57,123.58,184.25Z"/><path class="cls-3" d="M92.61,213.21a38,38,0,0,0,3.68,1.72l6-2.46c-1.78-.83-3.28-1.6-4.53-2.31a16.79,16.79,0,0,1-3.68-2.66c-3-3.07-.08-5.48,6.56-9.28l22.94-14h0c1-.68-1-4.55-2.93-3.31h0l-28.2,16.91c-4.6,2.85-7.75,6.58-5.55,10.49C87.81,210,89.62,211.59,92.61,213.21Z"/><path class="cls-3" d="M147.75,175.67a3.35,3.35,0,0,0,.42.59,3.16,3.16,0,0,0,.91.7l7.64,3.89a3.18,3.18,0,0,0,4-1,3.14,3.14,0,0,0,.24-.39h0a3.2,3.2,0,0,0-1.39-4.29L152,171.28a3.2,3.2,0,0,0-3.92.83,3.29,3.29,0,0,0-.37.57A3.16,3.16,0,0,0,147.75,175.67Z"/><path class="cls-3" d="M174.86,191.09a3.19,3.19,0,0,0,2.89-5.68l-7.63-3.89a3.19,3.19,0,0,0-2.9,5.68Z"/><path class="cls-9" d="M32.43,205.88l.64.36c6,3.14,15,2.82,20.52-.83,3.88-2.54,5.09-6,3.66-9.15A8.12,8.12,0,0,1,55.36,199l0,.93-1.14,0-.75.54c-5.45,3.57-14.21,3.95-20.15,1l-3.64,2.14A11.06,11.06,0,0,0,32.43,205.88Z"/><path class="cls-10" d="M55.36,199a12,12,0,0,1-1.12,1l1.14,0Z"/><path class="cls-6" d="M35.85,194.52c-.43-1.37.19-2.86,1.87-4a10.34,10.34,0,0,1,10-.22c2.8,1.67,2.87,4.48.14,6.27a10.47,10.47,0,0,1-8,1.07l-6.6,3.86c5.94,2.94,14.7,2.56,20.15-1l.75-.54a12,12,0,0,0,1.12-1,8.12,8.12,0,0,0,1.89-2.76l0-.07c1.24-3.13-.13-6.55-4.09-8.9-5.92-3.53-15.4-3.32-21.17.47-3.87,2.54-5.08,6-3.66,9.14a8,8,0,0,0,.91,1.48Z"/><path class="cls-3" d="M47.89,196.6c2.73-1.79,2.66-4.6-.14-6.27a10.34,10.34,0,0,0-10,.22c-1.68,1.11-2.3,2.6-1.87,4l3-1.76c2.66-1.57,5.07,2.57,2.42,4.13l-1.31.78A10.47,10.47,0,0,0,47.89,196.6Z"/><path class="cls-3" d="M30.32,256c5.82-1.23,9.65-6.15,13.72-10,3.6-3.44,8.12-6.3,13.21-6.48,2.81-.11,5.61.24,8.42.3a31.5,31.5,0,0,0,9.92-1.45C83,236.06,89.18,231.64,95.21,227c1.34-1,2.65-2.09,4-3.1,1-.77,2-1.52,3.07-2.23a43,43,0,0,1,4.4-2.64c2.74-1.41.32-5.54-2.42-4.14A53.31,53.31,0,0,0,97.58,219c-1,.74-2,1.49-3,2.26-4.58,3.53-9,7.27-14.21,9.93a35.81,35.81,0,0,1-8.92,3.23,34.05,34.05,0,0,1-9.13.36c-4.7-.27-9.1-.15-13.43,1.94-5.18,2.51-8.79,6.6-12.9,10.47a15.43,15.43,0,0,1-6.12,4c-2.93.84-6,.14-8.77-1a37.43,37.43,0,0,1-4.73-2.46,28.79,28.79,0,0,1-8.8-8.15,16.33,16.33,0,0,1-1.22-15.87c2.82-6.52,8.52-10.93,14.39-14.59q4.46-2.76,9-5.41l3.64-2.14,6.6-3.86,1.31-.78c2.65-1.56.24-5.7-2.42-4.13l-3,1.76-6.58,3.86-1.37.81q-4.35,2.56-8.66,5.18c-5.73,3.5-11.31,7.53-15,13.22C.65,223-1.09,229.85.73,236.18c1.69,5.89,6,10.46,10.88,14,.76.54,1.54,1.08,2.34,1.6C18.81,254.86,24.57,257.21,30.32,256Z"/><rect class="cls-8" x="202.94" y="213.86" width="18.46" height="8.7" rx="3.49" transform="translate(426.71 434.11) rotate(179.38)"/><path class="cls-9" d="M205,213.23h11.47a3.49,3.49,0,0,1,3.49,3.49v1.71a3.49,3.49,0,0,1-3.49,3.49H205a3.49,3.49,0,0,1-3.49-3.49v-1.71A3.5,3.5,0,0,1,205,213.23Z" transform="translate(423.78 432.87) rotate(179.38)"/><rect class="cls-6" x="201.47" y="211.97" width="18.46" height="8.7" rx="3.49" transform="translate(423.74 430.34) rotate(179.38)"/><path class="cls-8" d="M276.58,241.18v-.25h0l-.05-2.73h0v-.35h0a4.7,4.7,0,0,0-2.49-3.28,12.16,12.16,0,0,0-11.78.23,4.69,4.69,0,0,0-2.35,3.38h0l.06,3.08h0v.25h0a4.63,4.63,0,0,0,2.5,3.38,12.13,12.13,0,0,0,11.78-.23,4.6,4.6,0,0,0,2.36-3.48Z"/><path class="cls-9" d="M270.55,243.3a12.16,12.16,0,0,1-11.78.23c-3.3-2-3.36-5.27-.15-7.36a12.13,12.13,0,0,1,11.78-.24C273.7,237.9,273.76,241.2,270.55,243.3Z"/><rect class="cls-9" x="256.22" y="236.65" width="16.67" height="3.33" transform="translate(-4.66 5.27) rotate(-1.13)"/><path class="cls-6" d="M270.5,240.57a12.15,12.15,0,0,1-11.79.23c-3.29-2-3.36-5.26-.14-7.36a12.13,12.13,0,0,1,11.78-.23C273.64,235.18,273.71,238.47,270.5,240.57Z"/><path class="cls-9" d="M268.89,239.26a8.9,8.9,0,0,1-8.62.17c-2.41-1.44-2.46-3.85-.11-5.39a8.9,8.9,0,0,1,8.62-.17C271.19,235.31,271.24,237.72,268.89,239.26Z"/><path class="cls-11" d="M268.49,237.07l-8.48.26a.82.82,0,0,1-.85-.79h0a.82.82,0,0,1,.79-.85l8.49-.26a.81.81,0,0,1,.84.79h0A.82.82,0,0,1,268.49,237.07Z"/><path class="cls-8" d="M223.68,238.09l.26-.14h0l1.85-1,2.92-1.63h0l6.84-3.81a5.85,5.85,0,0,1,7.89,2.13,5.63,5.63,0,0,1-2.17,7.74l-6.7,3.73h0l-1.71.95-.26.14h0l-.62.35L229.4,248a5.87,5.87,0,0,1-7.89-2.13h0A5.65,5.65,0,0,1,223.68,238.09Z"/><path class="cls-6" d="M238.93,239.88l-12.12,6.88a6.06,6.06,0,0,1-8.24-2.27h0a6.05,6.05,0,0,1,2.27-8.23L233,229.37a6.07,6.07,0,0,1,8.24,2.27h0A6.06,6.06,0,0,1,238.93,239.88Z"/><path class="cls-12" d="M220.57,236.41l3.34-1.9a6.06,6.06,0,0,1,8.24,2.27h0a6.06,6.06,0,0,1-2.27,8.24l-.64.36-2.7,1.53a6.06,6.06,0,0,1-8.24-2.26h0A6.06,6.06,0,0,1,220.57,236.41Z"/><path class="cls-12" d="M221.48,235.89l4.34-2.46c2.88-1.64,5.6-.05,7.24,2.83h0c1.64,2.89,1.77,6-1.12,7.59l-1.79,1-2.7,1.54a6.05,6.05,0,0,1-8.23-2.27h0A6.07,6.07,0,0,1,221.48,235.89Z"/><path class="cls-13" d="M226,240.66,239,233.84a1.23,1.23,0,0,0,.51-1.65h0a1.24,1.24,0,0,0-1.66-.52l-12.92,6.82a1.22,1.22,0,0,0-.51,1.66h0A1.22,1.22,0,0,0,226,240.66Z"/><path class="cls-8" d="M200,241.32l-.27-.11h0l-1.94-.83-3.08-1.32h0L187.5,236a5.86,5.86,0,0,0-7.63,2.94,5.64,5.64,0,0,0,3,7.47l7,3h0l1.8.77.27.12h0l.65.28,2.72,1.16A5.87,5.87,0,0,0,203,248.8h0A5.65,5.65,0,0,0,200,241.32Z"/><path class="cls-12" d="M180.91,243.47l12.77,5.59a6.05,6.05,0,0,0,7.95-3.12h0a6.06,6.06,0,0,0-3.11-7.95l-12.77-5.59a6.05,6.05,0,0,0-7.95,3.12h0A6.06,6.06,0,0,0,180.91,243.47Z"/><path class="cls-6" d="M198.81,238.11l-3.53-1.54a6.05,6.05,0,0,0-7.95,3.12h0a6.06,6.06,0,0,0,3.11,7.95l.68.3,2.84,1.24a6.06,6.06,0,0,0,8-3.11h0A6.07,6.07,0,0,0,198.81,238.11Z"/><path class="cls-6" d="M197.84,237.69l-4.56-2c-3-1.33-5.58.52-6.91,3.57h0c-1.33,3-1.14,6.09,1.91,7.42l1.88.83,2.84,1.24a6.07,6.07,0,0,0,8-3.11h0A6.07,6.07,0,0,0,197.84,237.69Z"/><path class="cls-13" d="M193.82,242.91l-13.55-5.44a1.23,1.23,0,0,1-.69-1.59h0a1.24,1.24,0,0,1,1.6-.69l13.56,5.44a1.23,1.23,0,0,1,.68,1.59h0A1.24,1.24,0,0,1,193.82,242.91Z"/></g></g></g></svg>