<svg xmlns="http://www.w3.org/2000/svg" viewBox="0 0 272.08 260.51"><defs><style>.cls-1{isolation:isolate;}.cls-2{fill:#1f3636;opacity:0.15;}.cls-12,.cls-19,.cls-2{mix-blend-mode:multiply;}.cls-3{fill:#1a2089;}.cls-4{fill:#4cc2fc;}.cls-5{fill:#6a7f8e;}.cls-6{fill:#53636f;}.cls-7{fill:#fff;}.cls-8{fill:#4571c2;}.cls-9{fill:#ddeaea;}.cls-10{fill:#808f95;}.cls-11{fill:#c7ddde;}.cls-12{fill:#1a2e33;}.cls-12,.cls-13,.cls-19{opacity:0.2;}.cls-14{fill:#262626;}.cls-15{fill:#6c95dc;}.cls-16{fill:#5d4efa;}.cls-17{fill:#213136;}.cls-18{fill:#455e66;}.cls-20{fill:#434244;}.cls-21{fill:#4e4e4c;}.cls-22{fill:#b8b8b7;}.cls-23{fill:#9b9b9a;}.cls-24{fill:#aaa;}.cls-25{fill:#c0c0bf;}.cls-26{fill:#e0e2e3;}.cls-27{fill:#cd585d;}.cls-28{fill:#3c5971;}.cls-29{fill:#769ea7;}.cls-30{fill:#376271;}.cls-31{fill:#cfdbdc;}.cls-32{fill:#80afb5;}.cls-33{fill:#f6f6f6;}.cls-34{fill:#00244f;}.cls-35{fill:#344953;}.cls-36,.cls-42{opacity:0.4;}.cls-37{fill:#e2eaeb;}.cls-38{opacity:0.3;}.cls-39{fill:#dce3e1;}.cls-40{fill:#4c4c4b;}.cls-41{fill:#b56cf7;}.cls-42,.cls-43,.cls-44{fill:#e1e6e7;}.cls-43{opacity:0.7;}</style></defs><title>technology_in_healthcare</title><g class="cls-1"><g id="Layer_2" data-name="Layer 2"><g id="Layer_1-2" data-name="Layer 1"><path class="cls-2" d="M171.12,214.28,78.18,160.11a4.06,4.06,0,0,0-3.7,0L11.22,196.34l-7.67,4.39c-.95.7-.91,1.52-.06,2.07-.85-.55-.9-1.37-.15-1.93L1,202.2a1.15,1.15,0,0,0,0,2.18l2,1.14L.79,207.26c-1,.61-1,1.58,0,2.18l27.49,16a4.12,4.12,0,0,0,3.76,0l3-1.26,2.11,1.23h0l-.16.42A2.06,2.06,0,0,0,37.8,229l53,30.88a5.22,5.22,0,0,0,4.73.05l75.65-43.54C172.17,215.84,172.15,214.89,171.12,214.28Z"/><path class="cls-3" d="M171.12,213.05,78.18,158.88a4.06,4.06,0,0,0-3.7,0L11.22,195.11,3.55,199.5c-1,.73-.91,1.59.05,2.15l32.93,19.19a2.42,2.42,0,0,1,.79,2.95l-.17.42-.16.42a2.06,2.06,0,0,0,.81,3.18l53,30.88a5.22,5.22,0,0,0,4.73.05l75.65-43.54C172.17,214.61,172.15,213.66,171.12,213.05Z"/><path class="cls-4" d="M36.53,220.84,3.6,201.65c-1-.56-1.05-1.42-.26-2L1,201a1.15,1.15,0,0,0,0,2.18l2,1.14L.79,206c-1,.61-1,1.58,0,2.18l27.49,16a4.12,4.12,0,0,0,3.76,0L35,223l2.11,1.23.17-.42A2.42,2.42,0,0,0,36.53,220.84Z"/><g class="cls-1"><path class="cls-3" d="M129.65,1.31,44.36,50.89a5.69,5.69,0,0,0-2.6,4.48l.63,72.81,90.5-52.57L132.26,2.8C132.26,1.15,131.09.48,129.65,1.31Z"/><path class="cls-3" d="M128.84.35,43.54,49.93a5.73,5.73,0,0,0-2.6,4.49l-.19,72.81,1.64,1-.63-72.81a5.69,5.69,0,0,1,2.6-4.48L129.65,1.31a1.84,1.84,0,0,1,1.85-.18l-.81-.95A1.83,1.83,0,0,0,128.84.35Z"/></g><path class="cls-5" d="M194.88,110.9s0,.09,0,.13a.36.36,0,0,1,0,.11.5.5,0,0,1,0,.13l0,.1-.06.13-.06.09a1.4,1.4,0,0,1-.1.16,1.15,1.15,0,0,1-.14.17l0,0s-.1.11-.16.16l-.11.09-.13.11-.13.09-.22.14-87.36,50.25a2.74,2.74,0,0,1-.42.21l-.12,0-.38.14-.09,0-.18,0-.19.06-.19,0-.19,0-.48.07h-.15l-.29,0h-1l-.21,0-.19,0-.22,0-.17,0-.26-.06-.15,0-.46-.15-.22-.1-.11-.05-.32-.17L44.14,128.43a2.12,2.12,0,0,1-1.23-1.73v2.93a2.1,2.1,0,0,0,1.23,1.73l56.12,32.73.32.17.11.05.21.09h0l.46.16h0l.1,0,.26.06.08,0,.09,0,.23,0,.1,0h.08l.21,0,.12,0h.91l.29,0H104l.48-.07h0l.17,0,.19,0,.19,0,.19-.05h0l.07,0,.37-.14.12-.05a2.74,2.74,0,0,0,.42-.21l87.36-50.26.15-.08.07-.06.13-.09.13-.1.12-.09.05,0,.11-.11v0l.13-.14a.08.08,0,0,1,0,0l.1-.15a.43.43,0,0,0,0-.07v0l.06-.13,0-.09h0a.65.65,0,0,0,0-.13.29.29,0,0,0,0-.09v0s0-.09,0-.13,0-.06,0-.1v-1.34S194.88,110.86,194.88,110.9Z"/><g class="cls-1"><path class="cls-4" d="M132.65,86.8l-1.91-1.12a.51.51,0,0,0-.48,0L126,88.11c-.14.08-.14.2,0,.28L128,89.51a.57.57,0,0,0,.48,0l4.22-2.43C132.78,87,132.79,86.87,132.65,86.8Z"/><path class="cls-4" d="M127.58,89.72l-1.92-1.12a.51.51,0,0,0-.48,0L121,91c-.14.08-.14.2,0,.28l1.91,1.12a.57.57,0,0,0,.48,0L127.57,90C127.71,89.92,127.71,89.8,127.58,89.72Z"/><path class="cls-4" d="M137.33,89.53l-3.35-2a.54.54,0,0,0-.48,0L127,91.29a.14.14,0,0,0,0,.27l3.35,2a.54.54,0,0,0,.48,0l6.46-3.72A.14.14,0,0,0,137.33,89.53Z"/><path class="cls-4" d="M122.5,92.64l-1.92-1.12a.57.57,0,0,0-.48,0L115.88,94a.15.15,0,0,0,0,.28l1.91,1.12a.57.57,0,0,0,.48,0l4.23-2.43A.15.15,0,0,0,122.5,92.64Z"/><path class="cls-4" d="M137.26,95l-3.35-2a.57.57,0,0,0-.48,0l-3.92,2.26c-.13.07-.13.2,0,.28l3.35,2a.51.51,0,0,0,.48,0l3.92-2.26C137.39,95.19,137.4,95.06,137.26,95Z"/><path class="cls-4" d="M117.42,95.56l-1.91-1.12a.57.57,0,0,0-.48,0l-4.23,2.43a.15.15,0,0,0,0,.28l1.92,1.12a.54.54,0,0,0,.48,0l4.22-2.43A.15.15,0,0,0,117.42,95.56Z"/><path class="cls-4" d="M132.33,97.82,129,95.87a.53.53,0,0,0-.49,0l-3.92,2.25a.15.15,0,0,0,0,.28l3.35,2a.57.57,0,0,0,.48,0l3.92-2.26C132.47,98,132.47,97.9,132.33,97.82Z"/><path class="cls-4" d="M112.34,98.48l-1.91-1.12a.57.57,0,0,0-.48,0l-4.22,2.43c-.14.08-.14.2,0,.28l1.92,1.12a.51.51,0,0,0,.48,0l4.22-2.43C112.48,98.68,112.48,98.56,112.34,98.48Z"/><path class="cls-4" d="M120.08,99.45l-3.35-2a.51.51,0,0,0-.48,0l-3.92,2.25c-.13.08-.14.2,0,.28l3.35,2a.51.51,0,0,0,.48,0l3.92-2.25A.15.15,0,0,0,120.08,99.45Z"/><path class="cls-4" d="M127.41,100.66l-3.35-2a.6.6,0,0,0-.49,0L119.65,101a.15.15,0,0,0,0,.28l3.35,2a.51.51,0,0,0,.48,0l3.92-2.25C127.54,100.86,127.54,100.73,127.41,100.66Z"/><path class="cls-4" d="M156.65,100.79l-1.74-1a.51.51,0,0,0-.48,0L150.51,102c-.13.08-.14.2,0,.28l1.73,1a.54.54,0,0,0,.48,0l3.93-2.26A.15.15,0,0,0,156.65,100.79Z"/><path class="cls-4" d="M151.37,97.71,148,95.76a.51.51,0,0,0-.48,0l-10,5.72c-.13.08-.13.21,0,.28l3.35,2a.54.54,0,0,0,.48,0l10-5.73A.15.15,0,0,0,151.37,97.71Z"/><path class="cls-4" d="M107.27,101.4l-1.92-1.11a.51.51,0,0,0-.48,0l-4.22,2.42c-.13.08-.14.21,0,.28l1.91,1.12a.51.51,0,0,0,.48,0l4.22-2.43C107.4,101.6,107.4,101.48,107.27,101.4Z"/><path class="cls-4" d="M122.48,103.49l-3.35-1.95a.53.53,0,0,0-.49,0l-3.92,2.25c-.13.08-.13.21,0,.28l3.35,2a.57.57,0,0,0,.48,0l3.92-2.26C122.61,103.69,122.61,103.57,122.48,103.49Z"/><path class="cls-4" d="M140.4,104l-3.35-2a.51.51,0,0,0-.48,0l-3.92,2.25a.15.15,0,0,0,0,.28l3.35,2a.51.51,0,0,0,.48,0l3.92-2.25C140.54,104.22,140.54,104.1,140.4,104Z"/><path class="cls-4" d="M102.19,104.32l-1.92-1.11a.51.51,0,0,0-.48,0l-4.22,2.43a.14.14,0,0,0,0,.27L97.48,107a.51.51,0,0,0,.48,0l4.23-2.43A.15.15,0,0,0,102.19,104.32Z"/><path class="cls-4" d="M146.76,106.47l-1.73-1a.57.57,0,0,0-.48,0l-3.92,2.26c-.14.08-.14.2,0,.28l1.73,1a.51.51,0,0,0,.48,0l3.92-2.26C146.9,106.68,146.9,106.55,146.76,106.47Z"/><path class="cls-4" d="M105.36,107.92,102,106a.54.54,0,0,0-.48,0l-3.92,2.26c-.13.07-.13.2,0,.28l3.35,2a.51.51,0,0,0,.48,0l3.92-2.25C105.5,108.12,105.5,108,105.36,107.92Z"/><path class="cls-4" d="M130.54,109.69l-3.35-2a.51.51,0,0,0-.48,0L122.79,110c-.13.08-.13.21,0,.28l3.35,2a.57.57,0,0,0,.48,0l3.92-2.26C130.67,109.9,130.67,109.77,130.54,109.69Z"/><path class="cls-4" d="M125.61,112.53l-3.35-2a.51.51,0,0,0-.48,0l-3.92,2.25c-.13.08-.14.2,0,.28l3.35,2a.51.51,0,0,0,.48,0l3.92-2.25A.15.15,0,0,0,125.61,112.53Z"/><path class="cls-4" d="M87,113.09,85,112a.51.51,0,0,0-.48,0l-4.22,2.43a.15.15,0,0,0,0,.28l1.91,1.11a.51.51,0,0,0,.48,0L87,113.36A.14.14,0,0,0,87,113.09Z"/><path class="cls-4" d="M113.61,114l-3.35-2a.51.51,0,0,0-.48,0l-3.92,2.25c-.13.08-.13.21,0,.28l3.35,2a.57.57,0,0,0,.48,0l3.92-2.26C113.75,114.21,113.74,114.09,113.61,114Z"/><path class="cls-4" d="M120.68,115.37l-3.35-2a.54.54,0,0,0-.48,0l-3.92,2.26c-.14.07-.14.2,0,.28l3.35,2a.51.51,0,0,0,.48,0l3.92-2.25C120.81,115.57,120.81,115.44,120.68,115.37Z"/><path class="cls-4" d="M76.8,118.93l-1.91-1.12a.51.51,0,0,0-.48,0l-4.22,2.43c-.14.08-.14.2,0,.28l1.92,1.12a.54.54,0,0,0,.48,0l4.22-2.42C76.93,119.13,76.94,119,76.8,118.93Z"/><path class="cls-4" d="M85.74,119.21l-3.35-2a.51.51,0,0,0-.48,0L78,119.51c-.13.07-.14.2,0,.27l3.35,2a.51.51,0,0,0,.48,0l3.92-2.26A.14.14,0,0,0,85.74,119.21Z"/><path class="cls-4" d="M92.9,120.51l-3.35-2a.51.51,0,0,0-.48,0l-3.92,2.26c-.13.07-.13.2,0,.28l3.35,2a.51.51,0,0,0,.48,0l3.92-2.26C93,120.71,93,120.58,92.9,120.51Z"/><path class="cls-4" d="M80.84,122l-3.36-2a.54.54,0,0,0-.48,0l-3.92,2.26c-.13.07-.13.2,0,.28l3.35,2a.51.51,0,0,0,.48,0l3.92-2.25C81,122.23,81,122.1,80.84,122Z"/><path class="cls-4" d="M88,123.34l-3.35-2a.53.53,0,0,0-.49,0l-3.92,2.25a.15.15,0,0,0,0,.28l3.35,2a.54.54,0,0,0,.48,0L88,123.62C88.11,123.54,88.11,123.42,88,123.34Z"/><path class="cls-4" d="M105.89,123.88l-3.35-2a.57.57,0,0,0-.48,0l-3.93,2.26c-.13.07-.13.2,0,.28l3.35,2a.51.51,0,0,0,.48,0l3.93-2.25C106,124.08,106,124,105.89,123.88Z"/><path class="cls-4" d="M94,125.32l-3.35-1.95a.51.51,0,0,0-.48,0l-3.92,2.25a.15.15,0,0,0,0,.28l3.35,2a.57.57,0,0,0,.48,0L94,125.6C94.09,125.52,94.09,125.4,94,125.32Z"/><path class="cls-4" d="M83.05,126.18l-3.35-2a.53.53,0,0,0-.49,0l-3.92,2.26c-.13.07-.13.2,0,.28l3.35,2a.51.51,0,0,0,.48,0L83,126.45C83.18,126.38,83.18,126.25,83.05,126.18Z"/><path class="cls-4" d="M101,126.71l-3.35-1.95a.53.53,0,0,0-.49,0L93.2,127c-.13.08-.13.21,0,.28l3.35,2a.57.57,0,0,0,.48,0L101,127A.15.15,0,0,0,101,126.71Z"/><path class="cls-4" d="M130.9,115.56,127,113.3a.63.63,0,0,0-.58,0l-23.6,13.58c-.17.09-.18.24,0,.33l3.88,2.26a.63.63,0,0,0,.58,0l23.6-13.58C131.05,115.8,131.06,115.65,130.9,115.56Z"/><path class="cls-4" d="M96,129.55l-3.35-2a.54.54,0,0,0-.48,0l-3.93,2.26a.15.15,0,0,0,0,.28l3.35,2a.51.51,0,0,0,.48,0L96,129.83A.15.15,0,0,0,96,129.55Z"/><path class="cls-4" d="M106.16,129.79l-3.87-2.26a.66.66,0,0,0-.58,0l-4.79,2.76c-.16.09-.17.24,0,.33l3.87,2.26a.66.66,0,0,0,.58,0l4.79-2.76C106.31,130,106.32,129.88,106.16,129.79Z"/><path class="cls-4" d="M95.28,136.05l-3.88-2.26a.64.64,0,0,0-.57,0L87,136c-.17.1-.18.25,0,.33l3.88,2.26a.61.61,0,0,0,.57,0l3.83-2.2C95.42,136.29,95.43,136.14,95.28,136.05Z"/><path class="cls-4" d="M90.32,138.9l-3.87-2.26a.66.66,0,0,0-.58,0l-3.82,2.2c-.17.1-.18.25,0,.34l3.88,2.26a.66.66,0,0,0,.58,0l3.82-2.2C90.46,139.14,90.47,139,90.32,138.9Z"/><path class="cls-3" d="M158.15,99.92l-24-14-1.33-.77a4,4,0,0,0-3.6,0l-70,40.26a1.1,1.1,0,0,0,0,2.09l25.37,14.8a3.94,3.94,0,0,0,3.6,0l32.3-18.57L158.14,102A1.1,1.1,0,0,0,158.15,99.92ZM148,95.76l3.35,1.95a.15.15,0,0,1,0,.28l-10,5.73a.54.54,0,0,1-.48,0l-3.35-2c-.13-.07-.13-.2,0-.28l10-5.72A.51.51,0,0,1,148,95.76Zm1.22,6.72-3.92,2.26a.48.48,0,0,1-.45,0l-1.55-.9c-.12-.07-.1-.18,0-.26l3.92-2.26a.51.51,0,0,1,.45,0l1.55.9C149.39,102.29,149.37,102.41,149.24,102.48Zm-21.83-1.82c.13.07.13.2,0,.28l-3.92,2.25a.51.51,0,0,1-.48,0l-3.35-2a.15.15,0,0,1,0-.28l3.92-2.26a.6.6,0,0,1,.49,0Zm-2.83-2.54,3.92-2.25a.53.53,0,0,1,.49,0l3.34,1.95c.14.08.14.2,0,.28l-3.92,2.26a.57.57,0,0,1-.48,0l-3.35-2A.15.15,0,0,1,124.58,98.12Zm-2.1,5.37c.13.08.13.2,0,.28L118.55,106a.57.57,0,0,1-.48,0l-3.35-2c-.13-.07-.13-.2,0-.28l3.92-2.25a.53.53,0,0,1,.49,0Zm-4.93,2.84c.13.08.13.2,0,.28l-3.92,2.25a.51.51,0,0,1-.48,0l-3.35-2c-.13-.08-.13-.2,0-.28l3.92-2.26a.57.57,0,0,1,.48,0Zm-4.93,2.83c.13.08.13.21,0,.28l-3.92,2.26a.6.6,0,0,1-.49,0l-3.34-2c-.14-.07-.14-.2,0-.28l3.92-2.25a.51.51,0,0,1,.48,0ZM107.69,112a.15.15,0,0,1,0,.28l-3.92,2.25a.51.51,0,0,1-.48,0l-3.35-2c-.14-.08-.14-.2,0-.28l3.92-2.26a.54.54,0,0,1,.48,0Zm-4.93,2.83c.13.08.13.21,0,.28l-3.92,2.26a.51.51,0,0,1-.48,0l-3.35-2c-.14-.07-.14-.2,0-.27l3.92-2.26a.51.51,0,0,1,.48,0Zm-4.93,2.84c.14.08.13.2,0,.28l-3.92,2.25a.51.51,0,0,1-.48,0l-3.35-2a.15.15,0,0,1,0-.28L94,115.71a.54.54,0,0,1,.48,0Zm-4.93,2.84c.14.07.13.2,0,.27L89,123a.51.51,0,0,1-.48,0l-3.35-2c-.13-.08-.13-.21,0-.28l3.92-2.26a.51.51,0,0,1,.48,0ZM88,123.34c.13.08.13.2,0,.28l-3.92,2.26a.54.54,0,0,1-.48,0l-3.35-2a.15.15,0,0,1,0-.28l3.92-2.25a.53.53,0,0,1,.49,0Zm-1.78,2.28,3.92-2.25a.51.51,0,0,1,.48,0L94,125.32c.14.08.14.2,0,.28L90,127.86a.57.57,0,0,1-.48,0l-3.35-2A.15.15,0,0,1,86.2,125.62Zm4.91-2.55c-.13-.07-.13-.2,0-.27L95,120.54a.51.51,0,0,1,.48,0l3.35,1.95c.13.08.13.21,0,.28L95,125a.53.53,0,0,1-.49,0ZM96,120.25c-.13-.08-.13-.21,0-.28l3.92-2.26a.57.57,0,0,1,.48,0l3.35,2c.14.07.13.2,0,.28l-3.92,2.25a.51.51,0,0,1-.48,0Zm4.91-2.83c-.13-.08-.13-.2,0-.28l3.92-2.26a.54.54,0,0,1,.48,0l3.35,2a.15.15,0,0,1,0,.28l-3.92,2.25a.53.53,0,0,1-.49,0Zm4.92-2.83c-.13-.07-.13-.2,0-.28l3.92-2.25a.51.51,0,0,1,.48,0l3.35,2c.13.08.14.2,0,.28l-3.92,2.26a.57.57,0,0,1-.48,0Zm4.91-2.83c-.13-.07-.13-.2,0-.27l3.92-2.26a.51.51,0,0,1,.48,0l3.35,2a.14.14,0,0,1,0,.27l-3.92,2.26a.53.53,0,0,1-.49,0Zm4.92-2.82a.15.15,0,0,1,0-.28l3.92-2.26a.57.57,0,0,1,.48,0l3.35,2c.14.07.13.2,0,.28l-3.92,2.25a.51.51,0,0,1-.48,0Zm4.91-2.83a.15.15,0,0,1,0-.28l3.93-2.25a.51.51,0,0,1,.48,0l3.35,2a.15.15,0,0,1,0,.28l-3.93,2.25a.51.51,0,0,1-.48,0Zm4.92-2.83c-.13-.07-.13-.2,0-.28l3.92-2.25a.51.51,0,0,1,.48,0l3.35,2c.14.08.13.2,0,.28l-3.92,2.26a.57.57,0,0,1-.48,0Zm4.91-2.83c-.13-.07-.13-.2,0-.27l3.92-2.26a.51.51,0,0,1,.48,0l3.35,2a.14.14,0,0,1,0,.27l-3.92,2.26a.53.53,0,0,1-.49,0Zm4.92-2.82a.15.15,0,0,1,0-.28l3.92-2.26a.57.57,0,0,1,.48,0l3.35,2c.13.07.13.2,0,.28l-3.92,2.25a.51.51,0,0,1-.48,0Zm1.91-2.37-3.92,2.26a.51.51,0,0,1-.48,0l-3.35-2c-.13-.08-.13-.21,0-.28L133.43,93a.57.57,0,0,1,.48,0l3.35,2C137.4,95.06,137.39,95.19,137.26,95.26Zm-7.37-1.18L126,96.34a.51.51,0,0,1-.48,0l-3.35-2c-.13-.08-.13-.21,0-.28l3.92-2.26a.57.57,0,0,1,.48,0l3.35,2A.14.14,0,0,1,129.89,94.08ZM125,96.63c.13.08.13.2,0,.28l-3.92,2.25a.51.51,0,0,1-.48,0l-3.35-2a.15.15,0,0,1,0-.28l3.93-2.26a.57.57,0,0,1,.48,0Zm-4.91,2.82a.15.15,0,0,1,0,.28L116.16,102a.51.51,0,0,1-.48,0l-3.35-2c-.14-.08-.13-.2,0-.28l3.92-2.25a.51.51,0,0,1,.48,0Zm-4.9,2.82c.13.08.13.2,0,.28l-3.92,2.26a.57.57,0,0,1-.48,0l-3.35-2c-.13-.07-.13-.2,0-.28l3.92-2.25a.51.51,0,0,1,.48,0Zm-4.91,2.82c.13.08.13.21,0,.28l-3.92,2.26a.51.51,0,0,1-.48,0l-3.36-2c-.13-.07-.13-.2,0-.27l3.92-2.26a.51.51,0,0,1,.48,0Zm-4.91,2.83c.14.07.14.2,0,.28l-3.92,2.25a.51.51,0,0,1-.48,0l-3.35-2c-.13-.08-.13-.21,0-.28l3.92-2.26a.54.54,0,0,1,.48,0Zm-4.9,2.82a.15.15,0,0,1,0,.28l-3.93,2.25a.51.51,0,0,1-.48,0l-3.35-2c-.13-.08-.13-.2,0-.28l3.92-2.26a.57.57,0,0,1,.48,0Zm-4.91,2.82c.14.08.13.2,0,.28l-3.92,2.26a.54.54,0,0,1-.48,0l-3.35-2a.15.15,0,0,1,0-.28l3.92-2.25a.51.51,0,0,1,.48,0Zm-4.9,2.82a.15.15,0,0,1,0,.28l-3.93,2.26a.57.57,0,0,1-.48,0l-3.35-2c-.13-.07-.13-.2,0-.28l3.92-2.25a.51.51,0,0,1,.48,0Zm-4.91,2.83a.14.14,0,0,1,0,.27l-3.92,2.26a.51.51,0,0,1-.48,0l-3.35-2c-.14-.07-.13-.2,0-.27l3.92-2.26a.51.51,0,0,1,.48,0ZM80.84,122c.13.07.13.2,0,.28l-3.92,2.25a.51.51,0,0,1-.48,0l-3.35-2c-.13-.08-.13-.21,0-.28L77,120.07a.54.54,0,0,1,.48,0Zm-4.91,2.82a.15.15,0,0,1,0,.28L72,127.38a.51.51,0,0,1-.48,0l-3.35-1.95c-.14-.08-.14-.2,0-.28l3.92-2.26a.57.57,0,0,1,.48,0Zm-.64,1.63,3.92-2.26a.53.53,0,0,1,.49,0l3.35,2c.13.07.13.2,0,.27l-3.92,2.26a.51.51,0,0,1-.48,0l-3.35-2C75.16,126.68,75.16,126.55,75.29,126.48Zm6,2,3.92-2.26a.54.54,0,0,1,.48,0l3.35,2a.15.15,0,0,1,0,.28l-3.92,2.25a.53.53,0,0,1-.49,0l-3.35-2C81.15,128.65,81.15,128.53,81.29,128.45Zm7,1.4,3.93-2.26a.54.54,0,0,1,.48,0l3.35,2c.13.08.13.2,0,.28l-3.92,2.25a.51.51,0,0,1-.48,0l-3.35-2A.15.15,0,0,1,88.27,129.85Zm4.93-2.56c-.13-.07-.13-.2,0-.28l3.92-2.25a.53.53,0,0,1,.49,0l3.35,1.95a.15.15,0,0,1,0,.28L97,129.25a.57.57,0,0,1-.48,0Zm4.93-2.83c-.13-.08-.13-.21,0-.28l3.93-2.26a.57.57,0,0,1,.48,0l3.35,2c.13.07.13.2,0,.28L102,126.41a.51.51,0,0,1-.48,0Zm4.93-2.84c-.13-.08-.13-.2,0-.28l3.92-2.25a.51.51,0,0,1,.48,0l3.35,2a.15.15,0,0,1,0,.28l-3.92,2.25a.53.53,0,0,1-.49,0Zm4.93-2.84c-.13-.07-.13-.2,0-.28l3.92-2.25a.51.51,0,0,1,.48,0l3.35,2c.13.08.13.21,0,.28l-3.92,2.26a.57.57,0,0,1-.48,0Zm4.94-2.83c-.14-.08-.14-.21,0-.28l3.92-2.26a.54.54,0,0,1,.48,0l3.35,2c.13.07.13.2,0,.28l-3.92,2.25a.51.51,0,0,1-.48,0Zm4.93-2.84c-.14-.08-.13-.2,0-.28l3.92-2.25a.51.51,0,0,1,.48,0l3.35,2a.15.15,0,0,1,0,.28l-3.92,2.25a.51.51,0,0,1-.48,0Zm4.93-2.84c-.13-.07-.13-.2,0-.28l3.92-2.25a.51.51,0,0,1,.48,0l3.35,2c.13.08.13.21,0,.28l-3.92,2.26a.57.57,0,0,1-.48,0Zm4.93-2.83c-.13-.08-.13-.21,0-.28l3.92-2.26a.57.57,0,0,1,.48,0l3.35,2c.14.07.13.2,0,.28l-3.92,2.25a.51.51,0,0,1-.48,0Zm4.93-2.84a.15.15,0,0,1,0-.28l3.92-2.25a.51.51,0,0,1,.48,0l3.35,2c.14.08.14.2,0,.28l-3.92,2.25a.51.51,0,0,1-.48,0Zm5.82-14.31L146.6,95a.15.15,0,0,1,0,.28L144,96.8a.56.56,0,0,1-.49,0L139,94.17l-.91.53a.57.57,0,0,1-.48,0l-3.38-2c-.13-.08-.13-.2,0-.28L138,90.29A.6.6,0,0,1,138.47,90.29Zm-5-2.72a.54.54,0,0,1,.48,0l3.35,2a.14.14,0,0,1,0,.27l-6.46,3.72a.51.51,0,0,1-.48,0l-3.35-2a.14.14,0,0,1,0-.27Zm-7.46.54,4.22-2.43a.51.51,0,0,1,.48,0l1.91,1.12c.14.07.13.2,0,.28l-4.22,2.43a.57.57,0,0,1-.48,0L126,88.39C125.9,88.31,125.9,88.19,126,88.11ZM121,91l4.22-2.43a.51.51,0,0,1,.48,0l1.92,1.12c.13.08.13.2,0,.28l-4.22,2.43a.57.57,0,0,1-.48,0L121,91.31C120.82,91.23,120.82,91.11,121,91ZM115.88,94l4.22-2.43a.57.57,0,0,1,.48,0l1.92,1.12a.15.15,0,0,1,0,.28l-4.23,2.43a.57.57,0,0,1-.48,0l-1.91-1.12A.15.15,0,0,1,115.88,94Zm-5.08,2.92L115,94.44a.57.57,0,0,1,.48,0l1.91,1.12a.15.15,0,0,1,0,.28l-4.22,2.43a.54.54,0,0,1-.48,0l-1.92-1.12A.15.15,0,0,1,110.8,96.87Zm-5.07,2.92L110,97.36a.57.57,0,0,1,.48,0l1.91,1.12c.14.08.14.2,0,.28l-4.22,2.43a.51.51,0,0,1-.48,0l-1.92-1.12C105.59,100,105.59,99.87,105.73,99.79Zm-5.08,2.92,4.22-2.42a.51.51,0,0,1,.48,0l1.92,1.11c.13.08.13.2,0,.28L103,104.11a.51.51,0,0,1-.48,0L100.65,103C100.51,102.92,100.52,102.79,100.65,102.71Zm-5.08,2.93,4.22-2.43a.51.51,0,0,1,.48,0l1.92,1.11a.15.15,0,0,1,0,.28L98,107a.51.51,0,0,1-.48,0l-1.91-1.12A.14.14,0,0,1,95.57,105.64Zm-5.08,2.92,4.23-2.43a.51.51,0,0,1,.48,0l1.91,1.11c.13.08.13.21,0,.28L92.89,110a.51.51,0,0,1-.48,0l-1.92-1.12A.14.14,0,0,1,90.49,108.56Zm-5.07,2.92,4.22-2.43a.51.51,0,0,1,.48,0L92,110.16a.15.15,0,0,1,0,.28l-4.22,2.43a.51.51,0,0,1-.48,0l-1.92-1.11A.15.15,0,0,1,85.42,111.48Zm-5.08,2.92L84.56,112a.51.51,0,0,1,.48,0L87,113.09a.14.14,0,0,1,0,.27l-4.23,2.43a.51.51,0,0,1-.48,0l-1.91-1.11A.15.15,0,0,1,80.34,114.4Zm-5.08,2.92,4.23-2.43a.51.51,0,0,1,.48,0L81.88,116a.14.14,0,0,1,0,.27l-4.22,2.43a.53.53,0,0,1-.49,0l-1.91-1.11A.15.15,0,0,1,75.26,117.32Zm-5.07,2.92,4.22-2.43a.51.51,0,0,1,.48,0l1.91,1.12c.14.07.13.2,0,.28l-4.22,2.42a.54.54,0,0,1-.48,0l-1.92-1.12C70.05,120.44,70.05,120.32,70.19,120.24Zm-5.08,2.92,4.22-2.43a.51.51,0,0,1,.48,0l1.92,1.12c.13.07.13.2,0,.28l-4.22,2.43a.57.57,0,0,1-.48,0l-1.91-1.12C65,123.36,65,123.24,65.11,123.16Zm-3.17,4.32L60,126.36a.15.15,0,0,1,0-.28l4.22-2.43a.54.54,0,0,1,.48,0l1.92,1.12a.15.15,0,0,1,0,.28l-4.23,2.43A.57.57,0,0,1,61.94,127.48Zm4.68,2.72-3.35-1.95a.15.15,0,0,1,0-.28l3.92-2.25a.51.51,0,0,1,.48,0l3.36,2c.13.08.13.2,0,.28l-3.92,2.26A.54.54,0,0,1,66.62,130.2Zm4.68,2.73L68,131a.15.15,0,0,1,0-.28l6.34-3.64a.51.51,0,0,1,.48,0L78.12,129a.15.15,0,0,1,0,.28l-6.34,3.64A.51.51,0,0,1,71.3,132.93ZM76,135.66l-3.35-1.95a.15.15,0,0,1,0-.28L80.29,129a.57.57,0,0,1,.48,0l3.36,2c.13.07.13.2,0,.28l-7.66,4.4A.51.51,0,0,1,76,135.66Zm4.68,2.73-3.35-1.95c-.13-.08-.14-.2,0-.28l10-5.73a.57.57,0,0,1,.48,0l3.36,2c.13.07.13.2,0,.28l-10,5.72A.51.51,0,0,1,80.66,138.39Zm9.64.85-3.82,2.2a.66.66,0,0,1-.58,0L82,139.19c-.15-.09-.14-.24,0-.34l3.82-2.2a.66.66,0,0,1,.58,0l3.87,2.26C90.47,139,90.46,139.14,90.3,139.24Zm5-2.86-3.83,2.2a.61.61,0,0,1-.57,0L87,136.33c-.15-.08-.14-.23,0-.33l3.82-2.2a.64.64,0,0,1,.57,0l3.88,2.26C95.43,136.14,95.42,136.29,95.26,136.38Zm5-2.85-3.83,2.2a.61.61,0,0,1-.57,0l-3.88-2.26c-.15-.09-.14-.24,0-.33l3.82-2.2a.61.61,0,0,1,.57,0l3.88,2.26C100.39,133.29,100.38,133.44,100.22,133.53Zm5.92-3.41-4.79,2.76a.66.66,0,0,1-.58,0l-3.87-2.26c-.15-.09-.14-.24,0-.33l4.79-2.76a.66.66,0,0,1,.58,0l3.87,2.26C106.32,129.88,106.31,130,106.14,130.12Zm24.74-14.23-23.6,13.58a.63.63,0,0,1-.58,0l-3.88-2.26c-.15-.09-.14-.24,0-.33l23.6-13.58a.63.63,0,0,1,.58,0l3.87,2.26C131.06,115.65,131.05,115.8,130.88,115.89Zm5.93-3.41L132,115.24a.66.66,0,0,1-.58,0L127.57,113c-.16-.09-.15-.24,0-.34l4.79-2.75a.64.64,0,0,1,.57,0l3.88,2.26C137,112.24,137,112.39,136.81,112.48Zm4.95-2.85-3.82,2.2a.66.66,0,0,1-.58,0l-3.87-2.26c-.15-.09-.14-.24,0-.33l3.83-2.2a.61.61,0,0,1,.57,0l3.88,2.26C141.94,109.38,141.93,109.53,141.76,109.63Zm5-2.88L142.84,109a.51.51,0,0,1-.48,0l-1.74-1c-.13-.08-.13-.2,0-.28l3.92-2.26a.57.57,0,0,1,.48,0l1.73,1C146.9,106.55,146.9,106.68,146.76,106.75Zm4.94-2.84-3.92,2.26a.57.57,0,0,1-.48,0l-1.73-1a.15.15,0,0,1,0-.28l3.92-2.26a.51.51,0,0,1,.48,0l1.73,1C151.84,103.71,151.84,103.83,151.7,103.91Zm5-2.84-3.93,2.26a.54.54,0,0,1-.48,0l-1.73-1c-.14-.08-.13-.2,0-.28l3.92-2.25a.51.51,0,0,1,.48,0l1.74,1A.15.15,0,0,1,156.65,101.07Z"/><path class="cls-4" d="M129.89,93.81l-3.35-2a.57.57,0,0,0-.48,0l-3.92,2.26c-.13.07-.13.2,0,.28l3.35,2a.51.51,0,0,0,.48,0l3.92-2.26A.14.14,0,0,0,129.89,93.81Z"/><path class="cls-4" d="M146.6,95l-8.13-4.72a.6.6,0,0,0-.49,0l-3.74,2.17c-.14.08-.14.2,0,.28l3.38,2a.57.57,0,0,0,.48,0l.91-.53,4.51,2.62a.56.56,0,0,0,.49,0l2.6-1.51A.15.15,0,0,0,146.6,95Z"/><path class="cls-4" d="M125,96.63l-3.35-2a.57.57,0,0,0-.48,0l-3.93,2.26a.15.15,0,0,0,0,.28l3.35,2a.51.51,0,0,0,.48,0L125,96.91C125.12,96.83,125.12,96.71,125,96.63Z"/><path class="cls-4" d="M143.1,97.05l-3.35-2a.57.57,0,0,0-.48,0l-3.92,2.26a.15.15,0,0,0,0,.28l3.35,2a.51.51,0,0,0,.48,0l3.92-2.25C143.23,97.25,143.23,97.12,143.1,97.05Z"/><path class="cls-4" d="M138.19,99.88l-3.35-2a.51.51,0,0,0-.48,0l-3.92,2.26a.15.15,0,0,0,0,.28l3.35,2a.53.53,0,0,0,.49,0l3.92-2.26A.14.14,0,0,0,138.19,99.88Z"/><path class="cls-4" d="M149.27,102.22l-1.55-.9a.51.51,0,0,0-.45,0l-3.92,2.26c-.13.08-.15.19,0,.26l1.55.9a.48.48,0,0,0,.45,0l3.92-2.26C149.38,102.41,149.39,102.29,149.27,102.22Z"/><path class="cls-4" d="M115.18,102.27l-3.35-2a.53.53,0,0,0-.49,0l-3.92,2.25c-.13.08-.13.21,0,.28l3.35,2a.57.57,0,0,0,.48,0l3.92-2.26C115.31,102.47,115.31,102.35,115.18,102.27Z"/><path class="cls-4" d="M133.27,102.7l-3.35-2a.51.51,0,0,0-.48,0L125.52,103c-.13.08-.13.21,0,.28l3.35,2a.57.57,0,0,0,.48,0l3.92-2.26C133.4,102.9,133.41,102.78,133.27,102.7Z"/><path class="cls-4" d="M151.7,103.63l-1.73-1a.51.51,0,0,0-.48,0l-3.92,2.26a.15.15,0,0,0,0,.28l1.73,1a.57.57,0,0,0,.48,0l3.92-2.26C151.84,103.83,151.84,103.71,151.7,103.63Z"/><path class="cls-4" d="M110.27,105.09l-3.35-2a.51.51,0,0,0-.48,0l-3.92,2.26c-.14.07-.14.2,0,.27l3.36,2a.51.51,0,0,0,.48,0l3.92-2.26C110.4,105.3,110.4,105.17,110.27,105.09Z"/><path class="cls-4" d="M128.36,105.53l-3.35-2a.51.51,0,0,0-.48,0l-3.92,2.25c-.14.08-.14.2,0,.28l3.35,2a.51.51,0,0,0,.48,0l3.93-2.25A.15.15,0,0,0,128.36,105.53Z"/><path class="cls-4" d="M117.55,106.33l-3.35-2a.57.57,0,0,0-.48,0l-3.92,2.26c-.14.08-.14.2,0,.28l3.35,2a.51.51,0,0,0,.48,0l3.92-2.25C117.68,106.53,117.68,106.41,117.55,106.33Z"/><path class="cls-4" d="M135.47,106.86l-3.35-2a.57.57,0,0,0-.48,0l-3.92,2.26c-.13.07-.13.2,0,.28l3.35,2a.51.51,0,0,0,.48,0l3.92-2.25C135.6,107.06,135.61,106.93,135.47,106.86Z"/><path class="cls-4" d="M97.11,107.24l-1.91-1.11a.51.51,0,0,0-.48,0l-4.23,2.43a.14.14,0,0,0,0,.27L92.41,110a.51.51,0,0,0,.48,0l4.22-2.43C97.24,107.45,97.24,107.32,97.11,107.24Z"/><path class="cls-4" d="M123.44,108.36l-3.35-2a.57.57,0,0,0-.48,0l-3.92,2.26a.15.15,0,0,0,0,.28l3.35,2a.51.51,0,0,0,.48,0l3.92-2.25C123.58,108.56,123.58,108.43,123.44,108.36Z"/><path class="cls-4" d="M112.62,109.16l-3.35-2a.51.51,0,0,0-.48,0l-3.92,2.25c-.14.08-.14.21,0,.28l3.35,2a.57.57,0,0,0,.48,0l3.92-2.26C112.75,109.37,112.75,109.24,112.62,109.16Z"/><path class="cls-4" d="M92,110.16l-1.92-1.11a.51.51,0,0,0-.48,0l-4.22,2.43a.15.15,0,0,0,0,.28l1.92,1.11a.51.51,0,0,0,.48,0L92,110.44A.15.15,0,0,0,92,110.16Z"/><path class="cls-4" d="M100.46,110.74l-3.35-2a.57.57,0,0,0-.48,0L92.71,111c-.14.08-.14.2,0,.28l3.35,2a.53.53,0,0,0,.49,0l3.92-2.25A.15.15,0,0,0,100.46,110.74Z"/><path class="cls-4" d="M118.53,111.19l-3.35-2a.51.51,0,0,0-.48,0l-3.92,2.26c-.14.07-.14.2,0,.27l3.35,2a.53.53,0,0,0,.49,0l3.92-2.26A.14.14,0,0,0,118.53,111.19Z"/><path class="cls-4" d="M107.69,112l-3.35-2a.54.54,0,0,0-.48,0l-3.92,2.26c-.14.08-.14.2,0,.28l3.35,2a.51.51,0,0,0,.48,0l3.92-2.25A.15.15,0,0,0,107.69,112Z"/><path class="cls-4" d="M95.55,113.56l-3.35-2a.51.51,0,0,0-.48,0l-3.92,2.25a.15.15,0,0,0,0,.28l3.35,2a.54.54,0,0,0,.48,0l3.92-2.26C95.68,113.76,95.69,113.64,95.55,113.56Z"/><path class="cls-4" d="M102.76,114.83l-3.35-2a.51.51,0,0,0-.48,0L95,115.14c-.14.07-.14.2,0,.27l3.35,2a.51.51,0,0,0,.48,0l3.92-2.26C102.89,115,102.89,114.91,102.76,114.83Z"/><path class="cls-4" d="M81.88,116,80,114.89a.51.51,0,0,0-.48,0l-4.23,2.43a.15.15,0,0,0,0,.28l1.91,1.11a.53.53,0,0,0,.49,0l4.22-2.43A.14.14,0,0,0,81.88,116Z"/><path class="cls-4" d="M90.65,116.38l-3.35-1.95a.51.51,0,0,0-.48,0l-3.92,2.25c-.14.08-.14.21,0,.28l3.35,2a.57.57,0,0,0,.48,0l3.93-2.26A.15.15,0,0,0,90.65,116.38Z"/><path class="cls-4" d="M108.7,116.84l-3.35-2a.54.54,0,0,0-.48,0L101,117.14c-.14.08-.14.2,0,.28l3.35,2a.53.53,0,0,0,.49,0l3.92-2.25A.15.15,0,0,0,108.7,116.84Z"/><path class="cls-4" d="M97.83,117.67l-3.35-2a.54.54,0,0,0-.48,0L90.08,118a.15.15,0,0,0,0,.28l3.35,2a.51.51,0,0,0,.48,0L97.83,118C98,117.87,98,117.75,97.83,117.67Z"/><path class="cls-4" d="M115.75,118.2l-3.35-2a.51.51,0,0,0-.48,0L108,118.51c-.14.07-.14.2,0,.27l3.36,2a.57.57,0,0,0,.48,0l3.92-2.26C115.88,118.41,115.88,118.28,115.75,118.2Z"/><path class="cls-4" d="M103.78,119.67l-3.35-2a.57.57,0,0,0-.48,0L96,120c-.13.07-.13.2,0,.28l3.35,2a.51.51,0,0,0,.48,0l3.92-2.25C103.91,119.87,103.92,119.74,103.78,119.67Z"/><path class="cls-4" d="M110.82,121l-3.35-2a.51.51,0,0,0-.48,0l-3.92,2.25c-.14.08-.14.2,0,.28l3.35,1.95a.53.53,0,0,0,.49,0l3.92-2.25A.15.15,0,0,0,110.82,121Z"/><path class="cls-4" d="M71.73,121.85l-1.92-1.12a.51.51,0,0,0-.48,0l-4.22,2.43c-.14.08-.14.2,0,.28L67,124.56a.57.57,0,0,0,.48,0l4.22-2.43C71.86,122.05,71.86,121.92,71.73,121.85Z"/><path class="cls-4" d="M98.87,122.49l-3.35-1.95a.51.51,0,0,0-.48,0l-3.92,2.26c-.14.07-.14.2,0,.27l3.35,2a.53.53,0,0,0,.49,0l3.92-2.26C99,122.7,99,122.57,98.87,122.49Z"/><path class="cls-4" d="M75.93,124.85l-3.35-2a.57.57,0,0,0-.48,0l-3.92,2.26c-.14.08-.14.2,0,.28l3.35,1.95a.51.51,0,0,0,.48,0l3.92-2.25A.15.15,0,0,0,75.93,124.85Z"/><path class="cls-4" d="M66.65,124.77l-1.92-1.12a.54.54,0,0,0-.48,0L60,126.08a.15.15,0,0,0,0,.28l1.91,1.12a.57.57,0,0,0,.48,0l4.23-2.43A.15.15,0,0,0,66.65,124.77Z"/><path class="cls-4" d="M71,127.67l-3.36-2a.51.51,0,0,0-.48,0L63.27,128a.15.15,0,0,0,0,.28l3.35,1.95a.54.54,0,0,0,.48,0L71,128C71.16,127.87,71.16,127.75,71,127.67Z"/><path class="cls-4" d="M89,128.15l-3.35-2a.54.54,0,0,0-.48,0l-3.92,2.26c-.14.08-.14.2,0,.28l3.35,2a.53.53,0,0,0,.49,0L89,128.43A.15.15,0,0,0,89,128.15Z"/><path class="cls-4" d="M78.12,129l-3.35-1.95a.51.51,0,0,0-.48,0L68,130.7a.15.15,0,0,0,0,.28l3.35,2a.51.51,0,0,0,.48,0l6.34-3.64A.15.15,0,0,0,78.12,129Z"/><path class="cls-4" d="M84.13,131l-3.36-2a.57.57,0,0,0-.48,0l-7.66,4.41a.15.15,0,0,0,0,.28L76,135.66a.51.51,0,0,0,.48,0l7.66-4.4C84.26,131.18,84.26,131.05,84.13,131Z"/><path class="cls-4" d="M100.24,133.2l-3.88-2.26a.61.61,0,0,0-.57,0L92,133.15c-.17.09-.18.24,0,.33l3.88,2.26a.61.61,0,0,0,.57,0l3.83-2.2C100.38,133.44,100.39,133.29,100.24,133.2Z"/><path class="cls-3" d="M157.77,126.53,142,117.32a4,4,0,0,0-3.6,0l-19.72,11.35L114.54,131c-1,.58-1,1.51,0,2.09l2.08,1.22,13.72,8a4,4,0,0,0,3.6,0l23.83-13.71A1.1,1.1,0,0,0,157.77,126.53Z"/><path class="cls-4" d="M193.66,109.17,137.54,74.82a6.6,6.6,0,0,0-6,0l-7.4,4.25,1.47.87,1.48.86L54.6,122.48l-3-1.72-7.48,4.31c-1.67,1-1.68,2.51,0,3.48l56.12,34.35a6.63,6.63,0,0,0,6,0l87.36-50.25C195.3,111.69,195.31,110.13,193.66,109.17Zm-35.91,19.45-23.83,13.71a4,4,0,0,1-3.6,0l-13.72-8-2.08-1.22c-1-.58-1-1.51,0-2.09l4.11-2.36,19.72-11.35a4,4,0,0,1,3.6,0l15.8,9.21A1.1,1.1,0,0,1,157.75,128.62Zm.39-26.61L120.45,123.7l-32.3,18.57a3.94,3.94,0,0,1-3.6,0l-25.37-14.8a1.1,1.1,0,0,1,0-2.09l70-40.26a4,4,0,0,1,3.6,0l1.33.77,24,14A1.1,1.1,0,0,1,158.14,102Z"/></g><path class="cls-4" d="M91.1,132.39l-3.36-2a.57.57,0,0,0-.48,0l-10,5.73c-.14.08-.13.2,0,.28l3.35,1.95a.51.51,0,0,0,.48,0l10-5.72C91.23,132.59,91.23,132.46,91.1,132.39Z"/><path class="cls-4" d="M141.79,109.3,137.91,107a.61.61,0,0,0-.57,0l-3.83,2.2c-.16.09-.17.24,0,.33l3.87,2.26a.66.66,0,0,0,.58,0l3.82-2.2C141.93,109.53,141.94,109.38,141.79,109.3Z"/><path class="cls-4" d="M136.83,112.15,133,109.89a.64.64,0,0,0-.57,0l-4.79,2.75c-.17.1-.18.25,0,.34l3.87,2.26a.66.66,0,0,0,.58,0l4.79-2.76C137,112.39,137,112.24,136.83,112.15Z"/><polygon class="cls-6" points="51.65 120.76 54.6 122.48 127.08 80.79 124.13 79.06 51.65 120.76"/><g class="cls-1"><polygon class="cls-7" points="47.72 58.93 47.89 118.59 127.97 72.36 127.8 12.7 47.72 58.93"/></g><polygon class="cls-8" points="47.71 54.8 47.72 58.93 127.8 12.7 127.78 8.57 47.71 54.8"/><polygon class="cls-8" points="51.78 63.45 51.8 97.63 106.48 66.06 106.47 31.88 51.78 63.45"/><g class="cls-1"><polygon class="cls-9" points="99.53 56.91 99.39 57.54 106.53 53.42 106.53 52.87 99.53 56.91"/><polygon class="cls-9" points="102.11 51.21 106.52 48.66 106.52 48.62 102.1 51.17 102.11 51.21"/><polygon class="cls-9" points="100.63 52.02 100.49 52.65 101.49 52.07 101.35 51.6 100.63 52.02"/><polygon class="cls-9" points="98.48 53.8 99.74 53.08 99.89 52.45 98.41 53.3 98.48 53.8"/><polygon class="cls-9" points="94.66 55.47 94.54 56.08 97.76 54.22 97.69 53.72 94.66 55.47"/><polygon class="cls-9" points="97.86 49.36 97.93 49.87 106.51 44.91 106.51 44.36 97.86 49.36"/><polygon class="cls-9" points="95.58 50.67 95.46 51.29 97.2 50.28 97.13 49.78 95.58 50.67"/><polygon class="cls-9" points="79.21 77.16 79.21 76.08 54.93 90.1 54.94 91.18 51.87 92.95 51.87 93.5 54.94 91.72 54.94 93.48 79.22 79.46 79.22 77.71 106.56 61.92 106.56 61.37 79.21 77.16"/><polygon class="cls-9" points="97.3 45.42 97.37 45.93 106.5 40.66 106.5 40.11 97.3 45.42"/><polygon class="cls-9" points="96.51 45.88 96.39 46.49 96.64 46.35 96.57 45.84 96.51 45.88"/><polygon class="cls-9" points="81.3 67.44 81.16 68.06 98.32 58.16 98.25 57.65 81.3 67.44"/><polygon class="cls-9" points="83.88 61.73 88.29 59.19 93.91 55.95 93.92 55.89 83.87 61.7 83.88 61.73"/><polygon class="cls-9" points="82.4 62.54 82.26 63.17 83.27 62.59 83.12 62.13 82.4 62.54"/><polygon class="cls-9" points="80.25 64.33 81.51 63.6 81.66 62.97 80.18 63.82 80.25 64.33"/><polygon class="cls-9" points="76.43 65.99 76.31 66.61 79.53 64.75 79.46 64.24 76.43 65.99"/><polygon class="cls-9" points="79.7 60.39 94.73 51.71 94.85 51.1 79.63 59.88 79.7 60.39"/><polygon class="cls-9" points="77.36 61.2 77.24 61.81 78.97 60.81 78.9 60.3 77.36 61.2"/><polygon class="cls-9" points="79.14 56.45 95.65 46.92 95.77 46.3 79.07 55.95 79.14 56.45"/><polygon class="cls-9" points="78.28 56.4 78.16 57.02 78.42 56.87 78.34 56.37 78.28 56.4"/><polygon class="cls-9" points="63.08 77.96 62.93 78.59 80.09 68.68 80.02 68.18 63.08 77.96"/><polygon class="cls-9" points="65.65 72.26 70.06 69.71 75.68 66.47 75.69 66.42 65.64 72.22 65.65 72.26"/><polygon class="cls-9" points="64.17 73.07 64.03 73.7 65.03 73.12 64.89 72.65 64.17 73.07"/><polygon class="cls-9" points="62.03 74.85 63.28 74.13 63.42 73.5 61.95 74.35 62.03 74.85"/><polygon class="cls-9" points="51.86 88.7 51.86 89.24 106.55 57.67 106.55 57.12 51.86 88.7"/><polygon class="cls-9" points="58.2 76.52 58.08 77.13 61.3 75.27 61.23 74.77 58.2 76.52"/><polygon class="cls-9" points="61.47 70.92 76.5 62.24 76.62 61.62 61.4 70.41 61.47 70.92"/><polygon class="cls-9" points="51.84 84.44 51.85 84.99 61.86 79.21 61.79 78.7 51.84 84.44"/><polygon class="cls-9" points="59.13 71.72 59.01 72.34 60.74 71.33 60.67 70.83 59.13 71.72"/><polygon class="cls-9" points="60.91 66.98 77.42 57.44 77.54 56.83 60.84 66.47 60.91 66.98"/><polygon class="cls-9" points="60.05 66.93 59.93 67.54 60.19 67.4 60.12 66.89 60.05 66.93"/><polygon class="cls-9" points="51.83 80.24 57.45 76.99 57.46 76.94 51.83 80.19 51.83 80.24"/><polygon class="cls-9" points="51.82 76.48 58.27 72.76 58.39 72.15 51.82 75.94 51.82 76.48"/><polygon class="cls-9" points="51.81 72.23 59.2 67.97 59.31 67.35 51.81 71.69 51.81 72.23"/><polygon class="cls-9" points="51.8 67.43 51.8 67.98 106.49 36.41 106.48 35.86 51.8 67.43"/><path class="cls-7" d="M106.52,48.66l-4.41,2.55v0l-.77-2.49c0-.15-.19-.19-.35-.1a.84.84,0,0,0-.34.49l-.76,3.38-.14.63-.83,3.72-.43-3-.07-.5-.48-3.43-.08-.51-.48-3.43-.07-.51L97,43.27c0-.18-.16-.25-.34-.16a.86.86,0,0,0-.36.52l-.52,2.67-.12.62-.8,4.18-.12.61-.81,4.18v0l-5.62,3.25-4.41,2.54v0l-.77-2.5c0-.14-.19-.18-.35-.09a.84.84,0,0,0-.34.49L81.65,63l-.14.63-.83,3.72-.43-3-.07-.51-.48-3.43-.08-.5-.48-3.44-.07-.5-.31-2.16c0-.18-.16-.25-.34-.15a.8.8,0,0,0-.36.52l-.52,2.67-.12.61-.8,4.18-.12.62-.81,4.18v0l-5.62,3.24-4.41,2.55v0l-.77-2.49c-.05-.15-.19-.19-.35-.1a.84.84,0,0,0-.34.49l-.75,3.38-.15.63-.83,3.72-.42-3-.08-.5-.48-3.43-.07-.51L60.91,67l-.07-.51-.31-2.15c0-.18-.17-.25-.34-.16a.83.83,0,0,0-.36.52l-.51,2.67L59.2,68l-.81,4.18-.12.61-.81,4.18v0l-5.62,3.25v.82l5.9-3.41a.79.79,0,0,0,.35-.52l.12-.61L59,72.34l.11-.62.81-4.18.12-.61,0-.21,0,.17.08.51.48,3.43.07.5.49,3.43.07.51.49,3.43.07.51.12.86a.21.21,0,0,0,.33.16l0,0a.81.81,0,0,0,.34-.49l.25-1.13.14-.63,1-4.26.14-.63.36-1.59.36,1.17.14.47v0c0,.15.19.19.35.09l4.68-2.7L76,67.13a.79.79,0,0,0,.35-.52l.12-.62.81-4.18.11-.61L78.16,57l.12-.62,0-.2,0,.16.08.51.48,3.43.07.51.49,3.43.07.51L80,68.18l.07.5.12.86a.2.2,0,0,0,.33.16h0a.84.84,0,0,0,.34-.49l.25-1.14.14-.62,1-4.27.14-.63L82.76,61l.36,1.18.15.46v0c0,.14.19.18.34.09L88.29,60l5.9-3.4a.88.88,0,0,0,.35-.53l.12-.61.8-4.18.12-.62.81-4.18.12-.61,0-.21,0,.17.07.51.49,3.43.07.5.49,3.44.07.5.49,3.43.07.51.12.86a.21.21,0,0,0,.33.16h0a.9.9,0,0,0,.34-.5l.25-1.13.14-.63,1-4.26.14-.63.36-1.59.36,1.17.14.47v0c0,.15.19.19.34.09l4.68-2.7v-.82Z"/><polygon class="cls-10" points="51.78 61.11 51.78 63.45 106.47 31.88 106.47 29.53 51.78 61.11"/></g><path class="cls-11" d="M98.72,74.53l-7.17,4.14a2.43,2.43,0,0,0-1.1,1.91l0,8.24c0,.71.5,1,1.11.64l7.18-4.15a2.44,2.44,0,0,0,1.1-1.9l0-8.25C99.83,74.46,99.33,74.18,98.72,74.53Z"/><path class="cls-11" d="M110.65,67.64l-7.17,4.14a2.45,2.45,0,0,0-1.1,1.91l0,8.25c0,.7.5,1,1.11.63l7.17-4.14a2.43,2.43,0,0,0,1.11-1.91l0-8.25C111.76,67.57,111.26,67.29,110.65,67.64Z"/><path class="cls-11" d="M122.58,60.76l-7.17,4.14a2.42,2.42,0,0,0-1.1,1.9l0,8.25c0,.7.5,1,1.11.63l7.17-4.14a2.44,2.44,0,0,0,1.11-1.91l0-8.24C123.69,60.69,123.19,60.4,122.58,60.76Z"/><polygon class="cls-4" points="50.89 111.06 50.9 112.35 86.42 91.84 86.41 90.55 50.89 111.06"/><polygon class="cls-4" points="50.88 107.98 50.88 109.26 86.4 88.76 86.4 87.47 50.88 107.98"/><polygon class="cls-12" points="84.63 42.76 84.42 101.4 91.68 105.12 132.75 73.07 131.6 15.62 84.63 42.76"/><g class="cls-1"><g class="cls-13"><path d="M215.75,174.77,168.3,147.1a4,4,0,0,0-3.65,0L94.87,187.23a1.12,1.12,0,0,0,0,2.11L142.31,217a4,4,0,0,0,3.64,0l69.78-40.14A1.12,1.12,0,0,0,215.75,174.77Zm-67.54,38.41L101.52,186l60.88-35,46.68,27.23Z"/></g><path class="cls-14" d="M216.5,172.15v0Z"/><polygon class="cls-7" points="101.53 182.26 148.21 209.49 209.09 174.47 162.4 147.24 101.53 182.26"/><polygon class="cls-15" points="101.53 182.26 109.07 186.66 169.84 151.58 162.37 147.24 101.53 182.26"/><path class="cls-15" d="M145.94,186l-1.56,1,.3.36.19.22.18.22.36.44.36.43.45.56-.91-.34-.68-.25-.68-.26-.68-.26-.34-.13-.34-.13-.67-.26-.34-.13-.34-.13-.34-.13.19.27.16.24.16.23.15.23.16.23.08.12-.15.09-.58.32-.57.33-1.16.64-1.16.65-1.16.64-1.17.64-.58.32-.36.2c4.74.91,11.47.05,11.82,0,.08-.2,1.59-4.09,0-6.84Z"/><path class="cls-15" d="M145,183.77a7.49,7.49,0,0,0-6.77-.17c-1.8,1-1.68,2.79.27,3.93a7.46,7.46,0,0,0-6.77-.18c-1.8,1-1.67,2.8.27,3.93a8.47,8.47,0,0,0,2.45.86l.42-.26.55-.34,1.11-.67,1.11-.68,1.12-.67,1.12-.66.56-.34.4-.23-.08-.12-.18-.23-.17-.23c0-.08-.11-.15-.17-.23l-.33-.46-.33-.46-.47-.65,1,.39.34.13.34.14.67.26.33.13.34.13.67.27.33.13.33.14.67.27.46.18-.23-.31-.16-.23-.15-.22-.32-.45-.05-.08.09-.06,1.73-1,1-.56A4.25,4.25,0,0,0,145,183.77Z"/><path class="cls-15" d="M151.38,182.28a24.32,24.32,0,0,0-21.92,0c-6,3.49-6.08,9.17-.07,12.66a24.53,24.53,0,0,0,22.06,0C157.46,191.45,157.43,185.77,151.38,182.28Zm1.79,9.37-.15,0a9.52,9.52,0,0,1-3,2.6,21,21,0,0,1-19.19,0,24.16,24.16,0,0,1-3.16-2.58,4.91,4.91,0,0,1-.47-5.23,16.92,16.92,0,0,1,3.56-3.42,21.27,21.27,0,0,1,19.32,0,8.37,8.37,0,0,1,3.46,3.43h.11A4.89,4.89,0,0,1,153.17,191.65Z"/><path class="cls-7" d="M171.22,179.55a.54.54,0,0,0-.48,0l-3.09,1.79c-.14.08-.14.2,0,.28a.51.51,0,0,0,.48,0l3.09-1.78C171.35,179.75,171.36,179.62,171.22,179.55Z"/><path class="cls-7" d="M172.42,180.24a.54.54,0,0,0-.48,0L168.85,182a.15.15,0,0,0,0,.28.53.53,0,0,0,.49,0l3.09-1.79C172.56,180.45,172.56,180.32,172.42,180.24Z"/><path class="cls-7" d="M173.62,180.94a.51.51,0,0,0-.48,0l-3.09,1.78a.15.15,0,0,0,0,.29.54.54,0,0,0,.48,0l3.09-1.78C173.76,181.14,173.76,181,173.62,180.94Z"/><path class="cls-7" d="M173.67,182.3a.57.57,0,0,0-.48,0l-1.94,1.12c-.14.08-.14.21,0,.28a.53.53,0,0,0,.49,0l1.94-1.12C173.81,182.51,173.81,182.38,173.67,182.3Z"/><path class="cls-15" d="M164.51,180.69l7.12,4.13,5.13-3-7.12-4.13Zm9.16,1.89-1.94,1.12a.53.53,0,0,1-.49,0c-.13-.07-.13-.2,0-.28l1.94-1.12a.57.57,0,0,1,.48,0C173.81,182.38,173.81,182.51,173.67,182.58Zm0-1.64c.14.08.13.2,0,.28L170.53,183a.54.54,0,0,1-.48,0,.15.15,0,0,1,0-.29l3.09-1.78A.51.51,0,0,1,173.62,180.94Zm-1.2-.7c.14.08.14.21,0,.28l-3.09,1.79a.53.53,0,0,1-.49,0,.15.15,0,0,1,0-.28l3.09-1.79A.54.54,0,0,1,172.42,180.24Zm-1.2-.69c.14.07.13.2,0,.27l-3.09,1.79a.51.51,0,0,1-.48,0c-.14-.08-.14-.2,0-.28l3.09-1.79A.54.54,0,0,1,171.22,179.55Zm-1.2-.7a.15.15,0,0,1,0,.28l-3.09,1.78a.53.53,0,0,1-.49,0c-.13-.07-.13-.2,0-.28l3.09-1.78A.51.51,0,0,1,170,178.85Z"/><path class="cls-7" d="M170,178.85a.51.51,0,0,0-.48,0l-3.09,1.78c-.14.08-.14.21,0,.28a.53.53,0,0,0,.49,0l3.09-1.78A.15.15,0,0,0,170,178.85Z"/><path class="cls-7" d="M163.54,180.68l8.09,4.71,6.1-3.53-8.09-4.7Zm8.09,4.14-7.12-4.13,5.13-3,7.12,4.13Z"/><path class="cls-16" d="M181.54,180.54l-9.6-5.58a2.84,2.84,0,0,0-2.54,0l-9.66,5.58c-.7.41-.71,1.06,0,1.47l9.6,5.58a2.84,2.84,0,0,0,2.54,0l9.66-5.58A.78.78,0,0,0,181.54,180.54Zm-9.91,4.85-8.09-4.71,6.1-3.52,8.09,4.7Z"/><path class="cls-7" d="M175.24,161.42a.59.59,0,0,0-.55,0l-.95.55-2.38-.92a.61.61,0,0,0-.48,0c-.15.08-.16.19-.08.28l2.79,2.83-6.33-2.78a.55.55,0,0,0-.47,0l0,0c-.11.06-.15.16-.09.24l2,2.76-2.77,1.6a.17.17,0,0,0,0,.32.66.66,0,0,0,.55,0l3-1.71c.11-.06.15-.16.09-.24l-1.51-2.13,6.72,3a.64.64,0,0,0,.49,0c.14-.09.17-.2.08-.29l-2.91-3,1.27.5a.64.64,0,0,0,.49,0l1.18-.68C175.39,161.65,175.39,161.5,175.24,161.42Z"/><path class="cls-16" d="M181.15,163l-9.6-5.58a2.84,2.84,0,0,0-2.54,0L159.35,163a.78.78,0,0,0,0,1.47l9.59,5.58a2.84,2.84,0,0,0,2.54,0l9.66-5.58C181.84,164,181.85,163.38,181.15,163Zm-5.91-1.23-1.18.68a.64.64,0,0,1-.49,0l-1.27-.5,2.91,3c.09.09.06.2-.06.27a.61.61,0,0,1-.51,0l-6.72-3,1.51,2.13c.06.08,0,.18-.09.24l-3,1.71a.66.66,0,0,1-.55,0,.17.17,0,0,1,0-.32l2.77-1.6-2-2.76c-.06-.08,0-.18.09-.24l0,0a.55.55,0,0,1,.47,0l6.33,2.78-2.79-2.83c-.08-.09-.07-.2.07-.28a.64.64,0,0,1,.49,0l2.38.92.95-.55a.59.59,0,0,1,.55,0C175.39,161.5,175.39,161.65,175.24,161.74Z"/><path class="cls-7" d="M190.88,172.84l-.23.13-4.47,2.58-.24.14a.33.33,0,0,0,0,.63l.87.51,6-3.49-.86-.5A1.19,1.19,0,0,0,190.88,172.84Zm-4.07,3.48-.43-.25c-.06,0,0-.09,0-.13l4.93-2.85a.28.28,0,0,1,.22,0l.42.25Z"/><path class="cls-7" d="M181.28,172.54l-1.54.26a.33.33,0,0,0-.14,0c-.07,0-.11.11-.08.18a.39.39,0,0,0,.39.12l1.55-.25.13,0a.14.14,0,0,0,.08-.18A.39.39,0,0,0,181.28,172.54Z"/><path class="cls-7" d="M183.75,169.34a.42.42,0,0,0-.41-.09.19.19,0,0,0-.09,0c-.09.05-.13.13-.07.2l.62.83a.43.43,0,0,0,.41.09l.1,0c.09-.05.12-.13.06-.2Z"/><path class="cls-7" d="M182.83,170.77l-1.1-.64a.46.46,0,0,0-.44,0c-.13.08-.13.19,0,.26l1.1.64a.49.49,0,0,0,.44,0A.13.13,0,0,0,182.83,170.77Z"/><path class="cls-7" d="M181.62,171.58l-1.43-.37a.51.51,0,0,0-.35,0s-.05,0-.06.06,0,.2.16.23l1.43.37a.49.49,0,0,0,.34,0,.18.18,0,0,0,.07-.05C181.85,171.73,181.78,171.62,181.62,171.58Z"/><path class="cls-7" d="M184.1,171l-1.37.79c-.63.37-.62.89,0,1.36l3.41,2.44,4.47-2.58-4.21-2A2.6,2.6,0,0,0,184.1,171Zm2.48,4.3-3.33-2.38c-.26-.19-.62-.56-.08-.87l1.37-.79a1.65,1.65,0,0,1,1.5.05l4.11,1.93Z"/><path class="cls-16" d="M196.46,171.87l-9.6-5.58a2.84,2.84,0,0,0-2.54,0l-9.65,5.58a.78.78,0,0,0,0,1.47l9.59,5.58a2.84,2.84,0,0,0,2.54,0l9.66-5.58C197.16,172.93,197.16,172.27,196.46,171.87Zm-11-1.72.42-.87a.15.15,0,0,1,.08-.08.56.56,0,0,1,.3,0c.16,0,.26.13.22.22l-.41.88a.24.24,0,0,1-.09.08.47.47,0,0,1-.3,0C185.55,170.35,185.45,170.25,185.49,170.15Zm-2.24-.86a.19.19,0,0,1,.09,0,.42.42,0,0,1,.41.09l.62.83c.06.07,0,.15-.06.2l-.1,0a.43.43,0,0,1-.41-.09l-.62-.83C183.12,169.42,183.16,169.34,183.25,169.29Zm-2,.83a.46.46,0,0,1,.44,0l1.1.64a.13.13,0,0,1,0,.25.49.49,0,0,1-.44,0l-1.1-.64C181.16,170.31,181.16,170.2,181.29,170.12Zm.3,2.72-.13,0-1.55.25a.39.39,0,0,1-.39-.12c0-.07,0-.13.08-.18a.33.33,0,0,1,.14,0l1.54-.26a.39.39,0,0,1,.39.12A.14.14,0,0,1,181.59,172.84Zm.19-1a.18.18,0,0,1-.07.05.49.49,0,0,1-.34,0l-1.43-.37c-.16,0-.23-.14-.16-.23s0,0,.06-.06a.51.51,0,0,1,.35,0l1.43.37C181.78,171.62,181.85,171.73,181.78,171.82Zm5,5-.87-.51a.33.33,0,0,1,0-.63l.24-.14-3.41-2.44c-.66-.47-.67-1,0-1.36l1.37-.79a2.6,2.6,0,0,1,2.34,0l4.21,2,.23-.13a1.19,1.19,0,0,1,1.1,0l.86.5Z"/><path class="cls-7" d="M186.29,169.15a.56.56,0,0,0-.3,0,.15.15,0,0,0-.08.08l-.42.87c0,.1.06.2.22.22a.47.47,0,0,0,.3,0,.24.24,0,0,0,.09-.08l.41-.88C186.55,169.28,186.45,169.18,186.29,169.15Z"/><path class="cls-15" d="M184.54,171.22l-1.37.79c-.54.31-.18.68.08.87l3.33,2.38,3.57-2.06L186,171.27A1.65,1.65,0,0,0,184.54,171.22Z"/><path class="cls-15" d="M191.32,173.09l-4.93,2.85c-.06,0-.07.09,0,.13l.43.25,5.15-3-.42-.25A.28.28,0,0,0,191.32,173.09Z"/><path class="cls-15" d="M153.55,171.54h0l2.87-.28a1.94,1.94,0,0,0,.2-.33l-3.44.33A3.55,3.55,0,0,0,153.55,171.54Z"/><path class="cls-15" d="M152.54,170.1a1.67,1.67,0,0,0,.06.29h0l4.1-.4a1.42,1.42,0,0,0-.1-.29Z"/><path class="cls-15" d="M152.92,171h0l3.8-.37a1.1,1.1,0,0,0,0-.31l-4,.39A3.23,3.23,0,0,0,152.92,171Z"/><path class="cls-15" d="M155.28,172.51c-.28.18-.73.47-.88.6h0l2.11-.2a6.15,6.15,0,0,0-1.19-.39Z"/><path class="cls-15" d="M158,174.31l-4.17.37v0a1.28,1.28,0,0,0,.13.29l4.07-.38a1.13,1.13,0,0,0,0-.3Z"/><path class="cls-15" d="M157,173.17l-3,.28a1.94,1.94,0,0,0-.2.33l3.54-.34a3,3,0,0,0-.37-.27Z"/><path class="cls-15" d="M157.68,173.73l-3.92.37a1.32,1.32,0,0,0,0,.28l4.13-.36a1.6,1.6,0,0,0-.19-.29Z"/><path class="cls-15" d="M155.22,172.17h.05a8.76,8.76,0,0,0,.85-.57h0l-2.06.21A6.15,6.15,0,0,0,155.22,172.17Z"/><path class="cls-7" d="M158.39,174a2.28,2.28,0,0,0-.17-.3,1,1,0,0,1-.08-.11,1.29,1.29,0,0,0-.16-.17,3,3,0,0,0-.33-.28,2.62,2.62,0,0,0-.43-.27,6.59,6.59,0,0,0-1.42-.54,7.54,7.54,0,0,0,1-.76,3.25,3.25,0,0,0,.25-.34,2.3,2.3,0,0,0,.15-.32c0-.11.05-.21.07-.32a1.61,1.61,0,0,0,0-.31,1.45,1.45,0,0,0,0-.3,2.11,2.11,0,0,0-.1-.3,2.09,2.09,0,0,0-.14-.3,2.24,2.24,0,0,0-.27-.4.34.34,0,0,0-.27-.08l-.09,0-.06,0c-.08,0-.1.11,0,.17a1.55,1.55,0,0,1,.22.31l-3.94.38a.9.9,0,0,1,0-.32c0-.09-.08-.17-.22-.18h-.09a.33.33,0,0,0-.14,0,.14.14,0,0,0-.08.09,1.59,1.59,0,0,0,0,.41,1.09,1.09,0,0,0,0,.3,2,2,0,0,0,.07.31,2.24,2.24,0,0,0,.12.29,2.38,2.38,0,0,0,.18.3,3,3,0,0,0,.24.28,1.78,1.78,0,0,0,.32.28,3.27,3.27,0,0,0,.41.28,5.49,5.49,0,0,0,1.39.52,8.21,8.21,0,0,0-1,.78,3.44,3.44,0,0,0-.26.34,1.91,1.91,0,0,0-.16.32,2.14,2.14,0,0,0-.08.32,1.6,1.6,0,0,0,0,.31,2,2,0,0,0,.05.26l0,0a1.34,1.34,0,0,0,.12.3,2.08,2.08,0,0,0,.19.29,2.65,2.65,0,0,0,.58.59.37.37,0,0,0,.24.05.28.28,0,0,0,.13,0c.11-.06.12-.15,0-.21a2.29,2.29,0,0,1-.45-.45l3.84-.37a1.75,1.75,0,0,1-.18.51c-.05.08,0,.16.16.19h.13l.14,0a.17.17,0,0,0,.06-.06,1.74,1.74,0,0,0,.23-.65,1.55,1.55,0,0,0,0-.31,1.6,1.6,0,0,0,0-.3A1.82,1.82,0,0,0,158.39,174Zm-5.78-3.58h0a1.67,1.67,0,0,1-.06-.29l4.07-.4a1.76,1.76,0,0,1,.1.3Zm.32.59h0a3.23,3.23,0,0,1-.18-.28l4-.39a1.1,1.1,0,0,1,0,.31Zm.62.55a3.55,3.55,0,0,1-.35-.27l3.44-.33a1.94,1.94,0,0,1-.2.33l-2.87.28Zm.51.27,2.06-.21h0a8.76,8.76,0,0,1-.85.57h-.05A6.15,6.15,0,0,1,154.06,171.81Zm.34,1.3c.15-.13.6-.42.88-.6h0a6.15,6.15,0,0,1,1.19.39l-2.11.2Zm-.34.34,3-.28h0a3,3,0,0,1,.37.27l-3.54.35A1.68,1.68,0,0,1,154.06,173.45Zm-.3.65,3.92-.37h0a1.6,1.6,0,0,1,.19.29l-4.13.36A1.32,1.32,0,0,1,153.76,174.1Zm.18.9a1.28,1.28,0,0,1-.13-.29v0l4.17-.37h0a1.13,1.13,0,0,1,0,.3Z"/><path class="cls-16" d="M166.22,171.64l-9.59-5.58a2.81,2.81,0,0,0-2.54,0l-9.66,5.57c-.7.41-.71,1.07,0,1.47l9.6,5.58a2.84,2.84,0,0,0,2.54,0l9.65-5.58A.78.78,0,0,0,166.22,171.64Zm-7.7,3.25a1.74,1.74,0,0,1-.23.65.17.17,0,0,1-.06.06l-.14,0H158c-.14,0-.21-.11-.16-.19a1.77,1.77,0,0,0,.18-.5l-3.85.36a2.49,2.49,0,0,0,.46.45.11.11,0,0,1,0,.2.31.31,0,0,1-.15,0,.37.37,0,0,1-.24-.05,2.65,2.65,0,0,1-.58-.59,2.08,2.08,0,0,1-.19-.29,1.34,1.34,0,0,1-.12-.3l0,0a2,2,0,0,1-.05-.26,1.6,1.6,0,0,1,0-.31,2.14,2.14,0,0,1,.08-.32,1.91,1.91,0,0,1,.16-.32,3.44,3.44,0,0,1,.26-.34,8.21,8.21,0,0,1,1-.78,5.49,5.49,0,0,1-1.39-.52,3.27,3.27,0,0,1-.41-.28,1.78,1.78,0,0,1-.32-.28,3,3,0,0,1-.24-.28,2.38,2.38,0,0,1-.18-.3,2.24,2.24,0,0,1-.12-.29,2,2,0,0,1-.07-.31,1.09,1.09,0,0,1,0-.3,1.59,1.59,0,0,1,0-.41.14.14,0,0,1,.08-.09.33.33,0,0,1,.14,0h.09c.14,0,.24.09.22.18a.87.87,0,0,0,0,.31l3.94-.37a1.55,1.55,0,0,0-.22-.31c-.05-.06,0-.13,0-.17l.06,0,.09,0a.34.34,0,0,1,.27.08,2.24,2.24,0,0,1,.27.4,2.09,2.09,0,0,1,.14.3,2.11,2.11,0,0,1,.1.3,1.45,1.45,0,0,1,0,.3,1.61,1.61,0,0,1,0,.31c0,.11,0,.21-.07.32a2.3,2.3,0,0,1-.15.32,3.25,3.25,0,0,1-.25.34,7.54,7.54,0,0,1-1,.76,6.59,6.59,0,0,1,1.42.54,2.62,2.62,0,0,1,.43.27,3,3,0,0,1,.33.28,1.29,1.29,0,0,1,.16.17,1,1,0,0,0,.08.11,2.28,2.28,0,0,1,.17.3,1.82,1.82,0,0,1,.11.3,1.6,1.6,0,0,1,0,.3A1.55,1.55,0,0,1,158.52,174.89Z"/><path class="cls-16" d="M215.75,171.08,168.3,143.41a4,4,0,0,0-3.64,0L94.88,183.54a1.12,1.12,0,0,0,0,2.11l47.45,27.68a4,4,0,0,0,3.65,0l69.78-40.14A1.12,1.12,0,0,0,215.75,171.08Zm-67.54,38.41-46.68-27.23,60.87-35,46.69,27.23Z"/><path class="cls-17" d="M216.5,172.13a.17.17,0,0,1,0,.07v.08a.64.64,0,0,1,0,.07s0,.05,0,.08l0,.06,0,.08,0,.05-.06.1,0,.05-.1.11-.05.05L216,173l-.08.06-.08.06-.13.08L146,213.33a2.37,2.37,0,0,1-.36.17l-.11,0-.26.08-.23.06-.33,0h-.06l-.44,0h-.06l-.44,0h-.06a2.93,2.93,0,0,1-.41-.07l-.08,0-.38-.11h0l-.4-.19L94.86,185.65a1.29,1.29,0,0,1-.74-1.05V186a1.28,1.28,0,0,0,.75,1l47.44,27.67.39.19h0a2.29,2.29,0,0,0,.28.09l.11,0,.07,0,.09,0,.25,0h.76l.29,0h.08l.24,0,.09,0,.23-.05.14,0,.12,0,.11,0,.36-.17,69.78-40.14.09-.06,0,0,.08-.05.08-.07.07-.06,0,0,0,0,.09-.11,0,0v0a.24.24,0,0,0,.06-.09l0,0v0l0-.07,0-.06h0s0-.06,0-.08,0,0,0-.06h0a.22.22,0,0,1,0-.08v-.06h0Z"/></g><path class="cls-18" d="M124,197.88l-2.87-1.67a2,2,0,0,0-1.62-.19c-.69.25-.76.78-.22,1.1l3.08,1.78A1.91,1.91,0,0,0,124,199C124.56,198.71,124.59,198.21,124,197.88Z"/><path class="cls-19" d="M173.24,204.92l-.08-.06-5.86-2.21a60,60,0,0,0-8.1-7.34,2.76,2.76,0,0,0,.51-1.56v-1.2s0,.09,0,.13a3.53,3.53,0,0,0-2.09-3.09l-.18-.09a1.15,1.15,0,0,0,0-.31v-.42l0-.09h0v-.22c0-.68-.47-1.36-1.46-1.88a8.76,8.76,0,0,0-7.21,0c-1.1.57-1.6,1.33-1.51,2.08h0a1.11,1.11,0,0,1,0-.17v.17h0l0,.07v.51a1.54,1.54,0,0,0,0,.3l-.09,0a17.59,17.59,0,0,0-3.51,3.18,4.52,4.52,0,0,0,2.31,3.39c2.49,1.46,7.51,2.27,10.38,1.16.27-.11.53-.23.78-.35,2,1.38,7.33,5.68,7.33,5.68v1.18c3.28,1.23,7,2.91,7.18,3.07,7.41,6,11.94,13.33,12.43,20A15.63,15.63,0,0,1,179.79,239c-7.54,8.24-18.55,9.74-26.44,9.56-9.66-.23-18.33-3-22.3-5.51-7.34-4.6-27.86-16.16-32.24-18.63,1.7-2.91,2.58-9.17,1.24-16.35a43.84,43.84,0,0,0-5.51-14.34,1.19,1.19,0,0,0-.69-.5C81.39,177,72.53,173.67,69.14,172.39c-2.93-1.11-5.94,1.35-7.54,3a1.47,1.47,0,0,0-1.33.46L58.7,177.6a1.46,1.46,0,0,0,2.17,2l1.57-1.74a1.49,1.49,0,0,0,.37-1c1.42-1.5,3.79-3.4,5.68-2.68,3.25,1.23,11.73,4.45,23.82,20.15a1.27,1.27,0,0,0,.18.84,41.68,41.68,0,0,1,5.16,13.46c1.62,8.72-.34,14.46-1.4,15.27-1.44,1.1-4.91,1.39-7.7,1.62h-.19C73.18,226.7,53,219.77,52.74,219.7a1.23,1.23,0,0,0-.76,0c-8.69-3.46-27-12.09-27.42-18.81.34-.65,3.1-1.57,6.45-2.23a1.47,1.47,0,0,0,1.16.38l2.33-.27a1.46,1.46,0,0,0-.34-2.9l-2.33.28a1.46,1.46,0,0,0-1.08.7c-.76.15-1.62.34-2.49.56-3.91,1-5.61,2.08-5.53,3.54.24,4.19,5.43,9,15.42,14.35a140.05,140.05,0,0,0,13.09,6.06A1.17,1.17,0,0,0,52,222c.77.27,17.55,6,32.4,6.05,1.42,0,2.83-.05,4.21-.17h.19c2.86-.24,6.06-.5,8.16-1.6,2.14,1.2,25,14.06,32.8,18.95,4.38,2.74,14.32,5.85,24.94,5.85,9.66,0,19.89-2.57,27-10.34a18.28,18.28,0,0,0,5-14C186.09,219.36,181.21,211.4,173.24,204.92ZM159.67,193l0,.16Zm-.08.33c0,.05,0,.1-.05.15S159.57,193.37,159.59,193.32Zm-.13.32a1,1,0,0,1-.07.15A1,1,0,0,0,159.46,193.64Zm-.16.31-.09.15Zm-11.75-4.59h0l-.09-.14Zm-.09-.15a1.6,1.6,0,0,1-.1-.23A1.6,1.6,0,0,0,147.46,189.21Zm-.13-.35s0,.06,0,.09l0-.09Zm11.36,5.86.16-.16Zm.29-.31.12-.15Z"/><path class="cls-7" d="M24.56,199.37c.42-.8,4.58-2,9-2.66l-.26-1.81a50.83,50.83,0,0,0-5,1c-3.91,1-5.61,2.08-5.53,3.54.24,4.19,5.43,9,15.42,14.35a142.06,142.06,0,0,0,14.65,6.68l.65-1.71C45.57,215.77,25.05,206.49,24.56,199.37Z"/><path class="cls-7" d="M34.16,194.35l-2.33.28a1.45,1.45,0,1,0,.34,2.89l2.33-.27a1.46,1.46,0,0,0-.34-2.9Z"/><path class="cls-7" d="M69.14,170.88c-4.18-1.59-8.53,4.11-8.72,4.36l1.46,1.1c1-1.35,4.2-4.66,6.61-3.75,3.34,1.26,12.2,4.62,24.83,21.48L94.79,193C81.83,175.69,72.61,172.2,69.14,170.88Z"/><path class="cls-7" d="M60.27,174.35l-1.57,1.74A1.46,1.46,0,0,0,60.87,178l1.57-1.74a1.46,1.46,0,1,0-2.17-2Z"/><path class="cls-8" d="M94.54,192.25a1.22,1.22,0,0,0-2.05,1.33A41.68,41.68,0,0,1,97.65,207c1.62,8.72-.34,14.46-1.4,15.27-1.44,1.1-4.91,1.39-7.7,1.62h-.19c-15.18,1.25-35.41-5.68-35.62-5.75A1.22,1.22,0,1,0,52,220.5c.77.26,17.55,6,32.4,6,1.42,0,2.83,0,4.21-.17h.19c3.27-.27,7-.57,9-2.12,2.36-1.81,3.92-9.07,2.32-17.65A44,44,0,0,0,94.54,192.25Z"/><path class="cls-8" d="M173.24,203.41l-.08-.06L157.45,192.6,156,194.68l15.66,10.72c7.41,6,11.94,13.33,12.43,20a15.63,15.63,0,0,1-4.33,12.09c-7.54,8.24-18.55,9.74-26.44,9.56-9.66-.23-18.33-3-22.3-5.51-8.19-5.13-32.82-19-33.07-19.1l-1.23,2.2c.25.14,24.82,13.93,33,19,4.38,2.74,14.32,5.85,24.94,5.85,9.66,0,19.89-2.57,27-10.34a18.28,18.28,0,0,0,5-14C186.09,217.85,181.21,209.89,173.24,203.41Z"/><g class="cls-13"><path d="M144.77,191.63l0,.11s0-.07,0-.1Z"/></g><path class="cls-20" d="M158.46,193a6.78,6.78,0,0,1-1.17.85,9.14,9.14,0,0,1-1.22.58,12.83,12.83,0,0,1-10.22-.57,4,4,0,0,1-2.31-3.26v1.31a4,4,0,0,0,2.31,3.27,12.83,12.83,0,0,0,10.22.57,9.18,9.18,0,0,0,1.22-.59,6.07,6.07,0,0,0,1.17-.84,3.46,3.46,0,0,0,1.25-2.52v-1.31A3.44,3.44,0,0,1,158.46,193Z"/><path class="cls-21" d="M157.39,187.22a12.62,12.62,0,0,0-11.43,0c-3.19,1.83-3.23,4.8-.11,6.62a12.83,12.83,0,0,0,10.22.57,9.14,9.14,0,0,0,1.22-.58,6.09,6.09,0,0,0,1.17-.85C160.42,191.2,160.08,188.79,157.39,187.22Z"/><path class="cls-22" d="M156.52,187.72a10.72,10.72,0,0,0-9.71,0c-2.7,1.55-2.74,4.07-.08,5.62a10.85,10.85,0,0,0,8.67.48,9,9,0,0,0,1-.49,5.49,5.49,0,0,0,1-.72C159.09,191.1,158.8,189.05,156.52,187.72Z"/><path class="cls-23" d="M148.12,190.9a4.6,4.6,0,0,0,3.83,1.16c.88-.07,2.46-.15,3.17-.83l2.17-5H146Z"/><path class="cls-20" d="M156.38,187.53a5.16,5.16,0,0,1-.81.53,7.23,7.23,0,0,1-.85.36,9.78,9.78,0,0,1-7.1-.36,2.52,2.52,0,0,1-1.61-2v.83c0,.74.53,1.47,1.6,2a9.78,9.78,0,0,0,7.1.35,5.86,5.86,0,0,0,.85-.36,4.54,4.54,0,0,0,.81-.53,2.07,2.07,0,0,0,.87-1.57V186A2.09,2.09,0,0,1,156.38,187.53Z"/><path class="cls-21" d="M155.64,183.92a9.67,9.67,0,0,0-7.95,0c-2.21,1.15-2.24,3-.07,4.14a9.78,9.78,0,0,0,7.1.36,7.23,7.23,0,0,0,.85-.36,5.16,5.16,0,0,0,.81-.53C157.74,186.4,157.5,184.89,155.64,183.92Z"/><path class="cls-24" d="M154.71,184.4a7.42,7.42,0,0,0-6.1,0c-1.69.88-1.72,2.31-.05,3.18a7.47,7.47,0,0,0,5.44.27,5.51,5.51,0,0,0,.65-.27,3.43,3.43,0,0,0,.63-.41C156.32,186.3,156.14,185.15,154.71,184.4Z"/><path class="cls-25" d="M154.71,184.4a7.42,7.42,0,0,0-6.1,0c-1.43.75-1.67,1.88-.7,2.74l.28-.14a11.81,11.81,0,0,1,7.46-.23C156.24,186,155.93,185,154.71,184.4Z"/><g class="cls-1"><path class="cls-26" d="M143.61,68.39l-.08.12a3.11,3.11,0,0,1-.67.72l-.11.06a1,1,0,0,1-.51.09h-.11a3,3,0,0,1-.22,1.09s-.38.47-.75.9c0,0,.41.43,1.72-.33,1.47-.85,1.75-1.63,1.75-1.65a5.45,5.45,0,0,1-.78,0C143.67,69.28,143.62,68.58,143.61,68.39Z"/><polygon class="cls-27" points="144.88 63.97 144.88 63.97 144.88 63.96 144.88 63.97"/><path class="cls-28" d="M144.8,63.62c-.11-.36-.31-.58-.68-.48,0,0-.28-.45-1.22.09a5,5,0,0,0-.9.68,5.58,5.58,0,0,0-1.8,4.69c0,.78-.08,3-.1,3.71l1.06-1c.37-.43.73-.88.75-.9a3,3,0,0,0,.22-1.09,1.42,1.42,0,0,1-.64-.36,2.17,2.17,0,0,1-.34-1.31c0-.21,0-.36,0-.37s1.29-1.07,1.65-1.47a16.69,16.69,0,0,0,1.36-1.78,8.1,8.1,0,0,1,.23,1.8,4.11,4.11,0,0,1-.28,1.61,5.71,5.71,0,0,1-.51.9c0,.19.06.89.24.94a5.45,5.45,0,0,0,.78,0l.61-.09c-.08-1.32-.29-4.85-.36-5.33A3.38,3.38,0,0,0,144.8,63.62Z"/><polygon class="cls-28" points="144.8 63.62 144.8 63.62 144.8 63.62 144.8 63.62"/><path class="cls-28" d="M144.8,63.62a1.33,1.33,0,0,1,0,.19A1.05,1.05,0,0,0,144.8,63.62Z"/><path class="cls-7" d="M141.9,62.21l-7.29,4.21,0,12.26,3.85-2.22a10.31,10.31,0,0,1,.39-2.55,3.2,3.2,0,0,1,.8-1.24l.41-.36c0-.76.1-2.93.1-3.71a5.58,5.58,0,0,1,1.8-4.69,5,5,0,0,1,.9-.68c.94-.54,1.21-.11,1.22-.09.43-.12.64.2.73.67l0,.16c.07.47.28,4,.36,5.32l.91-.15a.7.7,0,0,1,.74.47,7.42,7.42,0,0,1,.31,1.82L151,69.22,151,57Z"/><path class="cls-27" d="M144.85,63.81a1.05,1.05,0,0,0,0-.19c0,.11,0,.22.08.34h0Z"/><path class="cls-7" d="M142.81,65.86c-.36.4-1.58,1.42-1.65,1.47s0,.16,0,.37a2.17,2.17,0,0,0,.34,1.31,1.42,1.42,0,0,0,.64.36h.11a1,1,0,0,0,.51-.09l.11-.06a3.11,3.11,0,0,0,.67-.72l.08-.12a5.71,5.71,0,0,0,.51-.9,4.11,4.11,0,0,0,.28-1.61,8.1,8.1,0,0,0-.23-1.8A16.69,16.69,0,0,1,142.81,65.86Z"/><path class="cls-29" d="M131.19,70.08a2.33,2.33,0,0,0-1.09,1.78c0,.64.49.88,1.1.53a2.32,2.32,0,0,0,1.08-1.79C132.28,70,131.79,69.73,131.19,70.08Z"/><path class="cls-29" d="M131.19,69.34a3.62,3.62,0,0,0-1.66,2.86c0,1,.75,1.46,1.67.93a3.67,3.67,0,0,0,1.66-2.86C132.85,69.23,132.1,68.81,131.19,69.34Zm0,3.34c-.75.43-1.35.13-1.35-.67a2.86,2.86,0,0,1,1.34-2.23c.74-.42,1.34-.12,1.35.68A2.87,2.87,0,0,1,131.2,72.68Z"/><path class="cls-30" d="M131.19,69.78A2.86,2.86,0,0,0,129.85,72c0,.8.6,1.1,1.35.67a2.87,2.87,0,0,0,1.34-2.22C132.53,69.66,131.93,69.36,131.19,69.78Zm0,2.61c-.61.35-1.1.11-1.1-.53a2.33,2.33,0,0,1,1.09-1.78c.6-.35,1.09-.11,1.09.52A2.32,2.32,0,0,1,131.2,72.39Z"/><path class="cls-30" d="M132.77,68.69a1.28,1.28,0,0,0-1.17-.08,2.5,2.5,0,0,0-.41.19,3.75,3.75,0,0,0-.36.24,4.69,4.69,0,0,0-1.77,3.43c0,1.23.82,1.79,1.87,1.33a1.74,1.74,0,0,0,.27-.14A4.68,4.68,0,0,0,133.33,70,1.53,1.53,0,0,0,132.77,68.69Zm-1.57,4.44c-.92.53-1.67.11-1.67-.93a3.62,3.62,0,0,1,1.66-2.86c.91-.53,1.66-.11,1.67.93A3.67,3.67,0,0,1,131.2,73.13Z"/><path class="cls-31" d="M134.65,78.68l0-12.26,7.29-4.21c-.77-3.34-2-3.7-3.39-3.45-1.11.2-2.55.43-4,.64l-1.95,5.11,1.52.44-1.34,3.74a1.53,1.53,0,0,1,.56,1.31,4.68,4.68,0,0,1-2.13,3.66,1.74,1.74,0,0,1-.27.14L127,84.67l-1,.56,18-10.39-.27-1.43Z"/><path class="cls-30" d="M138.51,58.76c-1.11.2-2.55.43-4,.64C136,59.19,137.4,59,138.51,58.76Z"/><path class="cls-7" d="M131.57,60.39l0,8.22a1.28,1.28,0,0,1,1.17.08L134.11,65l-1.52-.44,1.95-5.11,0-.08-3.18,0A3.15,3.15,0,0,1,131.57,60.39Z"/><path class="cls-32" d="M128.61,59.25l1.52,0A1.61,1.61,0,0,0,128.61,59.25Z"/><path class="cls-7" d="M129.06,72.47A4.69,4.69,0,0,1,130.83,69l0-8.21a1.76,1.76,0,0,0-.68-1.56l-1.52,0-.11,0-.14.87-.25,1.61-4,24.55,1.91-1.1,1-.56,3.91-10.87C129.88,74.26,129.06,73.7,129.06,72.47Z"/><path class="cls-30" d="M117.78,77.75l-.37.38a11,11,0,0,1,.81,2.08,13.2,13.2,0,0,1,0,7,1,1,0,0,1-.26.44,2.14,2.14,0,0,1-.57.45l-.39.2a6.45,6.45,0,0,1-1.23.38l0,0a.18.18,0,0,0-.2-.09l-.5.09a.28.28,0,0,0-.12,0,.77.77,0,0,0-.33.46.4.4,0,0,0,0,.29.18.18,0,0,0,.2.1l.51-.09.12,0a.7.7,0,0,0,.21-.21,6.78,6.78,0,0,0,1.56-.53l.18-.1a3.05,3.05,0,0,0,.74-.59,1.86,1.86,0,0,0,.46-.83,13.73,13.73,0,0,0,0-7.27A11.62,11.62,0,0,0,117.78,77.75Z"/><path class="cls-33" d="M127.08,56.63l0,.07c-.3.51-2.34,4-2.71,4.46a6.59,6.59,0,0,1-1.82,1.52,3.64,3.64,0,0,1-1.75.6,7.14,7.14,0,0,1-2.16-1.15c-.26-.23-.92-.74-.95-.76v.06c-.07,1-.12,2.11-.13,2.39a7.55,7.55,0,0,1-.31,1.12l0,0c-.13.39-.24.63-.42,1.11l-.39,1.06.22,1.07a7.4,7.4,0,0,0,5.69-.76,16.2,16.2,0,0,0,5.76-5.62l.25-1.61a7.33,7.33,0,0,1-1.15-2Z"/><path class="cls-3" d="M91.24,49.43l.16,55.8,9.38-5.41L102.5,84a13.68,13.68,0,0,1,3.7-6.57c1.14-1.12,2.64-2.61,4.11-4.09l3.35-4a7.27,7.27,0,0,1,3-4.15l.5-.29a7.55,7.55,0,0,0,.31-1.12c0-.28.06-1.38.13-2.39a.77.77,0,0,1-.1-.12,3.5,3.5,0,0,1-1.26-2.87c-.91.52-1.69-.5-1.94-3.36-.08-1,.12-1.41.4-1.57a.57.57,0,0,1,.28-.08c-.16-1.28-.25-2.62-.4-3.43a8.15,8.15,0,0,1,2-6.77c0-.19.63-3.62,5-6.14l.61-.33c7.43-3.8,8.58,1,8.44,2.72-.05.7-.32,3.23-.68,5.48a2.29,2.29,0,0,1,.51-.52c.28-.16.49,0,.41,1.11-.23,3.13-1,5.06-1.91,5.59l-.25.11c0,.39-.11.77-.17,1.12a13.84,13.84,0,0,1-1.32,3.91l-.13.35.13,1.59a7.33,7.33,0,0,0,1.15,2l.14-.87-.2.11-.33.19c-.17-.31-.23-.37-.39-.65l.71-.41c1.43-.83,2.66-.47,3.1.74l3.15.12c1.42-.21,2.86-.44,4-.64,1.36-.25,2.62.11,3.39,3.45L151,57l0,12.26-7.26,4.19.27,1.43,9.38-5.41-.16-55.81Z"/><path class="cls-34" d="M131.39,59.28c-.44-1.21-1.67-1.57-3.1-.74l-.71.41c.16.28.22.34.39.65l.33-.19.2-.11.11,0a1.61,1.61,0,0,1,1.52,0,1.76,1.76,0,0,1,.68,1.56l0,8.21a3.75,3.75,0,0,1,.36-.24,2.5,2.5,0,0,1,.41-.19l0-8.22A3.15,3.15,0,0,0,131.39,59.28Z"/><path class="cls-30" d="M112.79,89.93a.47.47,0,0,0-.12.09l-.5.5a.83.83,0,0,0-.2.32l0,.06a9.55,9.55,0,0,1-1.62,1.29,1.29,1.29,0,0,1-.57.21.22.22,0,0,1-.25-.15c-.79-2.07-.44-5,0-7,.25-1.2.57-2.27.8-3l-.37,0a31,31,0,0,0-.81,3c-.45,2.13-.81,5.13,0,7.29a.43.43,0,0,0,.46.3,1.84,1.84,0,0,0,.75-.28,10.23,10.23,0,0,0,1.73-1.37.31.31,0,0,0,.22,0l.11-.09.51-.51a.76.76,0,0,0,.2-.32.48.48,0,0,0,0-.31C113.07,89.87,112.94,89.84,112.79,89.93Z"/><path class="cls-34" d="M116.91,76.1a2.36,2.36,0,0,0-2.69-.45V70.42a5.65,5.65,0,0,1,1.84-3.83l.24-.21c.14-.1.28-.2.42-.28l.12-.07c.18-.48.29-.72.42-1.11l0,0-.5.29a7.27,7.27,0,0,0-3,4.15,5.51,5.51,0,0,0-.21,1.48v5.23a8,8,0,0,0-2,2.39,11.39,11.39,0,0,0-.62,1.16,16.66,16.66,0,0,0-1,2.52l0,.15.15,0,.37,0,.19,0,0-.13a15.54,15.54,0,0,1,1.24-3,6.13,6.13,0,0,1,2.07-2.38c2.16-1.25,3.33,1.48,3.34,1.51l0,.09.19-.19.37-.38.15-.15,0-.1A4.51,4.51,0,0,0,116.91,76.1Z"/><path class="cls-7" d="M117.41,78.13l-.19.19,0-.09s-1.18-2.76-3.34-1.51a6.13,6.13,0,0,0-2.07,2.38L117,88.29l.39-.2a2.14,2.14,0,0,0,.57-.45,1,1,0,0,0,.26-.44,13.2,13.2,0,0,0,0-7A11,11,0,0,0,117.41,78.13Z"/><path class="cls-8" d="M122.35,67.4a7.4,7.4,0,0,1-5.69.76l4.18,20.07,3.31-1.9,4-24.55A16.2,16.2,0,0,1,122.35,67.4Z"/><path class="cls-32" d="M116.29,66.38l.15.71.39-1.06-.12.07C116.57,66.18,116.43,66.28,116.29,66.38Z"/><path class="cls-32" d="M115.12,67.68l.92-1.09A5.42,5.42,0,0,0,115.12,67.68Z"/><path class="cls-7" d="M116.44,67.09l-.15-.71-.24.21-.93,1.09a5.12,5.12,0,0,0-.91,2.74v5.23a2.36,2.36,0,0,1,2.69.45,4.51,4.51,0,0,1,1,1.4l0,.1-.15.15a11.62,11.62,0,0,1,.82,2.11,13.73,13.73,0,0,1,0,7.27,1.86,1.86,0,0,1-.46.83,3.05,3.05,0,0,1-.74.59l-.18.1L118,89.9l.1-.06,2.78-1.61-4.18-20.07Z"/><path class="cls-7" d="M110.3,73.33,112.74,76l-1.51,2.2.18.32a8,8,0,0,1,2-2.39V70.86a5.51,5.51,0,0,1,.21-1.48Z"/><path class="cls-30" d="M106.2,77.42c1.14-1.12,2.63-2.61,4.11-4.09C108.84,74.81,107.34,76.3,106.2,77.42Z"/><path class="cls-32" d="M127.59,40.23c.62-.23,1.16,0,1.38,1.33C128.75,40.19,128.21,40,127.59,40.23Z"/><path class="cls-31" d="M115.69,89.18a.7.7,0,0,1-.21.21l-.12,0-.51.09a.18.18,0,0,1-.2-.1.4.4,0,0,1,0-.29.77.77,0,0,1,.33-.46.28.28,0,0,1,.12,0l.5-.09a.2.2,0,0,1,.22.13,6.45,6.45,0,0,0,1.23-.38l-5.27-9.19a15.54,15.54,0,0,0-1.24,3l0,.13-.19,0c-.23.74-.55,1.81-.8,3-.43,2.06-.78,4.94,0,7a.22.22,0,0,0,.25.15,1.29,1.29,0,0,0,.57-.21A8.1,8.1,0,0,0,112,90.84a.83.83,0,0,1,.2-.32l.5-.5a.47.47,0,0,1,.12-.09c.15-.09.28-.06.33.07a.48.48,0,0,1,0,.31.76.76,0,0,1-.2.32l-.51.51-.11.09a.31.31,0,0,1-.22,0,10.23,10.23,0,0,1-1.73,1.37,1.84,1.84,0,0,1-.75.28.43.43,0,0,1-.46-.3c-.82-2.16-.46-5.16,0-7.29a31,31,0,0,1,.81-3l-.15,0,0-.15a16.66,16.66,0,0,1,1-2.52,11.39,11.39,0,0,1,.62-1.16l-.18-.32,1.51-2.2-2.44-2.63c-1.47,1.48-3,3-4.1,4.09A13.68,13.68,0,0,0,102.5,84l-1.72,15.83L118,89.9l-.71-1.25A6.78,6.78,0,0,1,115.69,89.18Z"/><polygon class="cls-31" points="117.97 89.9 118.06 89.84 117.97 89.9 117.97 89.9"/></g><path class="cls-32" d="M129.07,42.49c0-.16,0-.31,0-.44C129.05,42.18,129.06,42.33,129.07,42.49Z"/><path class="cls-35" d="M122.18,36.76l-.61.33c-4.36,2.52-5,5.95-5,6.14a8.15,8.15,0,0,0-2,6.77c.15.81.24,2.15.4,3.43.19,1.51.47,2.94,1.06,3.28l.1,0c-.07-1-.12-1.89-.14-2.91,0-.31,0-.63,0-1,0-.85,0-1.79.06-2.88.08-2.27.39-3.08.92-3.5a1.43,1.43,0,0,1,.22-.15l.07,0,.07,0,.16-.07.31-.13c.88-.37,4-1.7,4.49-1.95s3.47-2.66,4.35-3.31l.28-.21.21-.13.08-.05.06,0c.84-.46,1.64-.39,1.76,2.12,0,.64,0,1.31,0,2s0,1.39,0,2.08-.07,1.52-.12,2.24a6.28,6.28,0,0,0,.77-2.58c.08-.4.15-.83.22-1.27.36-2.25.63-4.78.68-5.48C130.76,37.78,129.61,33,122.18,36.76Z"/><path class="cls-7" d="M130.45,44.44a2.29,2.29,0,0,0-.51.52c-.07.44-.14.87-.22,1.27a6.28,6.28,0,0,1-.77,2.58c.05-.72.09-1.48.12-2.24s0-1.4,0-2.08,0-1.36,0-2c-.12-2.51-.92-2.58-1.76-2.12l-.06,0-.08.05-.21.13-.28.21c-.88.65-3.86,3-4.35,3.31s-3.61,1.58-4.49,1.95l-.31.13-.16.07-.07,0-.07,0a1.43,1.43,0,0,0-.22.15c-.53.42-.84,1.23-.92,3.5,0,1.09-.06,2-.06,2.88,0,.34,0,.66,0,1,0,1,.07,2,.14,2.91l-.1,0c-.59-.34-.87-1.77-1.06-3.28a.57.57,0,0,0-.28.08c-.28.16-.48.59-.4,1.57.25,2.86,1,3.88,2,3.34a3.39,3.39,0,0,0,1.23,2.89s0,.07.1.06.69.53.95.76a7.14,7.14,0,0,0,2.16,1.15,3.64,3.64,0,0,0,1.75-.6,6.59,6.59,0,0,0,1.82-1.52c.37-.45,2.41-3.95,2.71-4.46.08-.18.14-.33.17-.42a13.52,13.52,0,0,0,1.32-3.91c.06-.35.12-.73.17-1.12l.25-.11c.92-.53,1.68-2.46,1.91-5.59C130.94,44.47,130.73,44.28,130.45,44.44Z"/><polygon class="cls-35" points="91.23 45.57 91.24 49.43 153.26 13.62 153.25 9.76 91.23 45.57"/><path class="cls-8" d="M146.15,69.14l-.91.15-.61.09s-.28.8-1.75,1.65c-1.31.76-1.71.34-1.72.33l-1.06,1-.41.36a3.2,3.2,0,0,0-.8,1.24,10.31,10.31,0,0,0-.39,2.55l8.7-5a7.42,7.42,0,0,0-.31-1.82A.7.7,0,0,0,146.15,69.14Z"/><g class="cls-36"><polygon class="cls-37" points="198.82 78.28 253.82 110.32 253.82 64.06 198.96 32.03 198.82 78.28"/></g><g class="cls-38"><polygon class="cls-37" points="183.98 56.54 238.99 88.58 238.99 42.32 184.12 10.29 183.98 56.54"/></g><path class="cls-19" d="M270.68,156a2.75,2.75,0,0,0-.33-.23l-54.12-31.47a8.26,8.26,0,0,0-8.35,0L185.3,137.4a3.16,3.16,0,0,0-1.83,3.24,3.57,3.57,0,0,0,1.35,2.72,2.57,2.57,0,0,0,.32.22l54.32,31.25a8.29,8.29,0,0,0,8.26,0l22.61-13,.19-.13a3.09,3.09,0,0,0,1.46-3A3.54,3.54,0,0,0,270.68,156Z"/><path class="cls-39" d="M185.41,135.8a3.13,3.13,0,0,0-1.84,3.24c0,1.52,1.17,2.92,1.87,2.92s.93-1.52.93-3S186,135.45,185.41,135.8Z"/><path class="cls-39" d="M270.21,154.15c-.7,0-.93,1.52-.93,3s.35,3.47,1,3.13a3.15,3.15,0,0,0,1.84-3.25C272.08,155.56,270.91,154.15,270.21,154.15Z"/><path class="cls-34" d="M270.45,156,216.58,124.4a9.18,9.18,0,0,0-8.35,0l-23,13.38a2.44,2.44,0,0,0,0,4.22l54.33,31.25a8.27,8.27,0,0,0,8.25,0l22.61-13A2.43,2.43,0,0,0,270.45,156Z"/><path class="cls-16" d="M270.45,154.15l-54.13-31.47a8.26,8.26,0,0,0-8.35,0L185.23,135.9a2.44,2.44,0,0,0,0,4.22l54.32,31.25a8.27,8.27,0,0,0,8.25,0l22.62-13A2.44,2.44,0,0,0,270.45,154.15Z"/><polygon class="cls-34" points="186.8 139.25 241.32 170.62 268.66 154.89 214.38 123.39 186.8 139.25"/><polygon class="cls-4" points="214.42 131.76 215.9 132.62 218.58 131.09 221.21 132.62 222.72 131.76 218.58 129.34 214.42 131.76"/><polygon class="cls-34" points="197.96 141.18 198.09 141.25 202.25 138.83 202.15 138.77 197.96 141.18"/><polygon class="cls-4" points="233.04 139.54 235.68 141.08 233 142.62 234.4 143.43 238.56 141.01 234.55 138.67 233.04 139.54"/><polygon class="cls-4" points="234.4 143.43 234.5 143.49 238.69 141.09 238.56 141.01 234.4 143.43"/><polygon class="cls-34" points="202.25 138.83 198.09 141.25 202.1 143.59 203.61 142.73 200.98 141.19 203.66 139.65 202.25 138.83"/><polygon class="cls-4" points="222.72 131.76 221.21 132.62 218.58 131.09 215.9 132.62 214.42 131.76 202.25 138.83 203.66 139.65 200.98 141.19 203.61 142.73 202.1 143.59 198.09 141.25 197.97 141.32 218.07 152.93 213.93 150.51 215.44 149.64 218.07 151.18 220.75 149.64 222.23 150.5 234.4 143.43 233 142.62 235.68 141.08 233.04 139.54 234.55 138.67 238.56 141.01 238.68 140.94 218.58 129.34 222.72 131.76"/><polygon class="cls-4" points="241.23 144.02 258.62 154.06 259.91 153.31 242.52 143.27 241.23 144.02"/><polygon class="cls-4" points="237.9 145.95 255.3 155.99 256.59 155.25 239.19 145.2 237.9 145.95"/><polygon class="cls-4" points="234.58 147.88 251.97 157.93 253.26 157.18 235.86 147.13 234.58 147.88"/><path class="cls-34" d="M191,140.82l48.33,27.9L266,153.2l-48.33-27.9Zm52.89,16.29-12.62-7.29,1.29-.75,12.62,7.29Zm8.1.82-17.39-10.05,1.28-.74,17.4,10Zm-9.45-14.66,17.39,10-1.29.75-17.39-10Zm14.07,12-1.29.75-17.4-10,1.29-.75Zm-17.91-14.3-.12.07.13.08-4.19,2.4-.1-.06-12.14,7.09-4.19,2.41L198,141.32l.12-.07-.13-.07,4.19-2.41.1.06,12.15-7.09,4.18-2.4Z"/><polygon class="cls-4" points="214.42 131.76 218.58 129.34 214.4 131.75 214.42 131.76"/><polygon class="cls-4" points="231.25 149.82 243.87 157.11 245.16 156.36 232.54 149.07 231.25 149.82"/><path class="cls-34" d="M220.57,143.67l-.62.18-.38.11-.38.1-.76.21-.75.21-1,.27.58-.53.45-.4.44-.4.44-.39.23-.2.22-.2.45-.39.23-.2.22-.2.23-.19-.47.11-.41.09-.4.09-.4.09-.41.1-.2,0-.15-.09-.57-.33-.56-.33-1.13-.67-1.12-.68-1.12-.67-1.11-.68-.56-.34-.34-.2c-1.56,2.75-.05,6.67,0,6.88.36,0,7.11.9,11.87,0l-.9-.48Z"/><path class="cls-34" d="M226.38,140.07a7.46,7.46,0,0,0-6.8.17c1.95-1.14,2.07-2.9.27-4a7.52,7.52,0,0,0-6.81.18,4.21,4.21,0,0,0-1.48,1.42l.45.25.59.32,1.17.64,1.17.65,1.17.64,1.16.65.58.33.41.23.21,0,.39-.1.4-.1.4-.1.8-.2.79-.19,1.14-.28-.68.6-.23.19-.23.2-.46.39-.22.2-.23.19-.46.39-.24.2-.23.19-.46.39-.32.27.55-.13.39-.1.39-.09.77-.18.14,0,.1.06,1.73,1,1,.56a8.51,8.51,0,0,0,2.44-.86C228.06,142.87,228.19,141.11,226.38,140.07Z"/><polygon class="cls-7" points="218.07 152.93 222.26 150.52 222.23 150.5 218.07 152.93"/><polygon class="cls-7" points="218.07 151.18 215.44 149.64 213.93 150.51 218.07 152.93 222.23 150.5 220.75 149.64 218.07 151.18"/><path class="cls-40" d="M201.67,128.47a1.53,1.53,0,0,0-1.38,0l-2.46,1.42a.42.42,0,0,0,0,.79,1.53,1.53,0,0,0,1.38,0l2.46-1.42C202.05,129.05,202.05,128.69,201.67,128.47Z"/><g class="cls-13"><polygon class="cls-7" points="214.33 122.93 269.33 154.96 269.33 108.71 214.47 76.67 214.33 122.93"/></g><polygon class="cls-37" points="214.33 100.95 269.33 132.98 269.33 86.73 214.47 54.69 214.33 100.95"/><polygon class="cls-41" points="236.67 93.51 265.63 110.23 265.68 92.28 236.72 75.56 236.67 93.51"/><path class="cls-41" d="M261.27,97.51a.41.41,0,0,0-.18-.23.11.11,0,0,0-.17.07l-.86,3.71-1.12-7.9a.42.42,0,0,0-.18-.29c-.08,0-.15,0-.17,0l-1.48,3.78-.45-.27-2.11-1.22-1.6-.92-.56-1.91a.39.39,0,0,0-.19-.23c-.08,0-.15,0-.16.07l-.86,3.71L250.06,88a.43.43,0,0,0-.19-.29.11.11,0,0,0-.17.05l-1.47,3.78-.45-.27-2.12-1.22-1.59-.92-.57-1.91a.37.37,0,0,0-.18-.23.11.11,0,0,0-.17.07l-.86,3.71-1.11-7.9a.47.47,0,0,0-.19-.29c-.08,0-.15,0-.17,0l-1.48,3.78L236.78,85v.43l2.69,1.56c.08,0,.15,0,.18,0l1.28-3.29,1.15,8.16a.4.4,0,0,0,.19.28c.08,0,.16,0,.18-.06l.93-4,.39,1.33a.45.45,0,0,0,.17.23l1.72,1,2.12,1.22.58.34c.08,0,.15,0,.17,0l1.28-3.29L251,96.9a.39.39,0,0,0,.18.28c.09,0,.16,0,.18-.06l.94-4,.39,1.33a.4.4,0,0,0,.17.23l1.72,1,2.11,1.22.58.34c.08,0,.15,0,.18,0l1.28-3.29,1.15,8.16a.4.4,0,0,0,.19.28c.08,0,.16,0,.18-.06l.93-4,.39,1.33a.42.42,0,0,0,.18.23l3.83,2.21v-.43l-3.71-2.14Z"/><polygon class="cls-41" points="236.7 98.41 265.66 115.13 265.67 113.73 236.71 97.01 236.7 98.41"/><polygon class="cls-41" points="236.69 102.15 265.65 118.87 265.65 117.47 236.69 100.75 236.69 102.15"/><polygon class="cls-41" points="236.68 105.89 265.64 122.61 265.64 121.21 236.68 104.49 236.68 105.89"/><polygon class="cls-41" points="218.19 95.05 233.05 103.63 233.05 102.23 218.19 93.66 218.19 95.05"/><polygon class="cls-41" points="220.04 80.31 218.93 79.66 218.9 83.19 221.96 84.97 221.97 83.7 220.02 82.56 220.04 80.31"/><polygon class="cls-41" points="219.02 69.36 220.13 70.01 220.14 67.76 222.09 68.9 222.1 67.63 219.04 65.84 219.02 69.36"/><polygon class="cls-41" points="230.82 74 232.77 75.14 232.75 77.39 233.86 78.04 233.89 74.51 230.83 72.73 230.82 74"/><polygon class="cls-41" points="232.65 89.94 230.7 88.8 230.69 90.07 233.75 91.86 233.78 88.33 232.66 87.69 232.65 89.94"/><path class="cls-41" d="M229.05,75.77c-1.46-.84-2.65,0-2.65,1.79a6.1,6.1,0,0,0-2.64-4.84c-1.46-.85-2.64,0-2.65,1.79a6.74,6.74,0,0,0,.39,2.07l.36.19.46.25.92.51.93.51.92.51.93.52.46.26.33.19.05-.11.09-.22L227,79a2,2,0,0,1,.1-.21l.18-.43.19-.42.27-.6.14.88,0,.29,0,.29.09.58,0,.29,0,.29.08.58,0,.29,0,.29.08.58,0,.4c.05-.1.09-.19.13-.29l.1-.21.09-.2L229,81l0-.07.08,0,1.4.81.79.46a3.48,3.48,0,0,0,.39-1.61A6.09,6.09,0,0,0,229.05,75.77Z"/><path class="cls-41" d="M229.19,81.48l-.13.36-.08.22-.08.22-.16.42-.16.44-.21.54-.13-.77c0-.2-.07-.39-.1-.59l-.1-.58-.09-.58,0-.3,0-.29-.09-.58-.05-.29,0-.29-.05-.3-.12.25a2,2,0,0,1-.1.21l-.09.2-.1.21-.11.2-.05.11-.12-.08-.46-.27-.46-.27-.93-.55-.93-.56-.92-.55-.92-.56-.47-.29-.28-.17a37.47,37.47,0,0,0,4.8,8.33c.18,0,3.53-.55,4.83-2.76l-.7-.37Z"/><path class="cls-42" d="M174.08,41.41a3.88,3.88,0,0,0-1.76,3c0,1.11.8,1.56,1.77,1a3.84,3.84,0,0,0,1.75-3C175.84,41.3,175.05,40.85,174.08,41.41Z"/><path class="cls-43" d="M168,44.9a3.88,3.88,0,0,0-1.76,3c0,1.12.8,1.57,1.77,1a3.85,3.85,0,0,0,1.75-3C169.8,44.78,169,44.34,168,44.9Z"/><path class="cls-44" d="M162,48.39a3.84,3.84,0,0,0-1.76,3c0,1.12.8,1.57,1.77,1a3.87,3.87,0,0,0,1.75-3C163.76,48.27,163,47.82,162,48.39Z"/></g></g></g></svg>