<svg xmlns="http://www.w3.org/2000/svg" xmlns:xlink="http://www.w3.org/1999/xlink" viewBox="0 0 232.97 239.11"><defs><style>.cls-1{mask:url(#mask);}.cls-12,.cls-2,.cls-4,.cls-6{mix-blend-mode:multiply;}.cls-2{fill:url(#radial-gradient);}.cls-3{mask:url(#mask-2);}.cls-4{fill:url(#radial-gradient-2);}.cls-5{mask:url(#mask-3);}.cls-6{fill:url(#radial-gradient-3);}.cls-7{fill:none;}.cls-8{isolation:isolate;}.cls-9{mask:url(#mask-4);}.cls-10{fill:#5d4efa;}.cls-11{mask:url(#mask-5);}.cls-13{fill:#006ae6;}.cls-14{fill:#1a2089;}.cls-15{mask:url(#mask-6);}.cls-16{clip-path:url(#clip-path);}.cls-17{fill:#4cc2fc;}.cls-18{fill:#74b7f7;}.cls-19{fill:#ebc3c7;}.cls-20{fill:#2e2f67;}.cls-21{fill:#ebc4c7;}.cls-22{fill:#2e2f66;}.cls-23{fill:#485ba3;}.cls-24{fill:#fff;}.cls-25{fill:#f1d2b3;}.cls-26{fill:#2e3d6e;}.cls-27{filter:url(#luminosity-noclip-6);}.cls-28{filter:url(#luminosity-noclip-5);}.cls-29{filter:url(#luminosity-noclip-4);}.cls-30{filter:url(#luminosity-noclip-3);}.cls-31{filter:url(#luminosity-noclip-2);}.cls-32{filter:url(#luminosity-noclip);}</style><filter id="luminosity-noclip" x="24.71" y="-12929.5" width="191.33" height="32766" filterUnits="userSpaceOnUse" color-interpolation-filters="sRGB"><feFlood flood-color="#fff" result="bg"/><feBlend in="SourceGraphic" in2="bg"/></filter><mask id="mask" x="24.71" y="-12929.5" width="191.33" height="32766" maskUnits="userSpaceOnUse"><g class="cls-32"/></mask><radialGradient id="radial-gradient" cx="120.37" cy="186.67" r="70.03" gradientUnits="userSpaceOnUse"><stop offset="0" stop-color="#e6e6e6"/><stop offset="0.4" stop-color="#ebebeb"/><stop offset="0.87" stop-color="#fafafa"/><stop offset="1" stop-color="#fff"/></radialGradient><filter id="luminosity-noclip-2" x="81.26" y="-12929.5" width="78.07" height="32766" filterUnits="userSpaceOnUse" color-interpolation-filters="sRGB"><feFlood flood-color="#fff" result="bg"/><feBlend in="SourceGraphic" in2="bg"/></filter><mask id="mask-2" x="81.26" y="-12929.5" width="78.07" height="32766" maskUnits="userSpaceOnUse"><g class="cls-31"/></mask><radialGradient id="radial-gradient-2" cx="120.3" cy="200.66" r="28.15" gradientUnits="userSpaceOnUse"><stop offset="0.02" stop-color="#b3b3b3"/><stop offset="0.04" stop-color="#b6b6b6"/><stop offset="0.3" stop-color="#d6d6d6"/><stop offset="0.55" stop-color="#ededed"/><stop offset="0.79" stop-color="#fafafa"/><stop offset="1" stop-color="#fff"/></radialGradient><filter id="luminosity-noclip-3" x="51.93" y="-12929.5" width="132.64" height="32766" filterUnits="userSpaceOnUse" color-interpolation-filters="sRGB"><feFlood flood-color="#fff" result="bg"/><feBlend in="SourceGraphic" in2="bg"/></filter><mask id="mask-3" x="51.93" y="-12929.5" width="132.64" height="32766" maskUnits="userSpaceOnUse"><g class="cls-30"/></mask><radialGradient id="radial-gradient-3" cx="118.25" cy="110.69" r="56.3" xlink:href="#radial-gradient"/><filter id="luminosity-noclip-4" x="24.71" y="161.06" width="191.33" height="51.21" filterUnits="userSpaceOnUse" color-interpolation-filters="sRGB"><feFlood flood-color="#fff" result="bg"/><feBlend in="SourceGraphic" in2="bg"/></filter><mask id="mask-4" x="24.71" y="159.59" width="191.33" height="51.21" maskUnits="userSpaceOnUse"><g class="cls-29"><g transform="translate(0 -1.47)"><g class="cls-1"><path class="cls-2" d="M216,211.33v-1.65h-.53V210l-21.8-48.46a.87.87,0,0,0-.78-.5l-147.7.24a.86.86,0,0,0-.79.54L25.31,209.73h-.6v1.68h0a.85.85,0,0,0,.85.84l189.62,0A.85.85,0,0,0,216,211.33Z"/></g></g></g></mask><filter id="luminosity-noclip-5" x="81.26" y="192.86" width="78.07" height="15.6" filterUnits="userSpaceOnUse" color-interpolation-filters="sRGB"><feFlood flood-color="#fff" result="bg"/><feBlend in="SourceGraphic" in2="bg"/></filter><mask id="mask-5" x="81.26" y="191.39" width="78.07" height="15.6" maskUnits="userSpaceOnUse"><g class="cls-28"><g transform="translate(0 -1.47)"><g class="cls-3"><path class="cls-4" d="M154.18,208.45H86.51c-3.07,0-5.42-1-5.24-2.11L83,195c.17-1.16,2.63-2.11,5.49-2.11l63,0c2.86,0,5.37.94,5.6,2.11l2.28,11.36C159.55,207.5,157.25,208.45,154.18,208.45Z"/></g></g></g></mask><filter id="luminosity-noclip-6" x="51.93" y="66.63" width="132.64" height="88.14" filterUnits="userSpaceOnUse" color-interpolation-filters="sRGB"><feFlood flood-color="#fff" result="bg"/><feBlend in="SourceGraphic" in2="bg"/></filter><mask id="mask-6" x="51.93" y="65.16" width="132.64" height="88.14" maskUnits="userSpaceOnUse"><g class="cls-27"><g transform="translate(0 -1.47)"><g class="cls-5"><rect class="cls-6" x="51.93" y="66.63" width="132.64" height="88.14"/></g></g></g></mask><clipPath id="clip-path" transform="translate(0 -1.47)"><rect class="cls-7" x="0.48" width="212.09" height="154.76"/></clipPath></defs><title>advanced_systems_1</title><g class="cls-8"><g id="Layer_2" data-name="Layer 2"><g id="Layer_1-2" data-name="Layer 1"><g class="cls-9"><path class="cls-10" d="M216,211.33v-1.65h-.53V210l-21.8-48.46a.87.87,0,0,0-.78-.5l-147.7.24a.86.86,0,0,0-.79.54L25.31,209.73h-.6v1.68h0a.85.85,0,0,0,.85.84l189.62,0A.85.85,0,0,0,216,211.33Z" transform="translate(0 -1.47)"/></g><rect class="cls-10" x="44.8" y="58.89" width="148.21" height="105.95" rx="11.69"/><rect class="cls-10" x="52.12" y="65.27" width="131.92" height="87.92"/><path class="cls-10" d="M215.18,210.55l-189.62,0a.85.85,0,0,1-.79-1.17l19.66-49.26a4.83,4.83,0,0,1,.79-1.6l147.7-.25a10.44,10.44,0,0,0,.78,1.57L216,209.34A.86.86,0,0,1,215.18,210.55Z" transform="translate(0 -1.47)"/><polygon class="cls-10" points="200.18 188.09 39.52 188.19 49.9 159.79 188.3 159.57 200.18 188.09"/><path class="cls-10" d="M59.37,187.61H48.49a.42.42,0,0,1-.4-.56l1.27-3.89a.42.42,0,0,1,.41-.29H60.41a.43.43,0,0,1,.42.53l-1,3.9A.43.43,0,0,1,59.37,187.61Z" transform="translate(0 -1.47)"/><path class="cls-10" d="M75.84,187.6H65a.42.42,0,0,1-.41-.53l.95-3.89a.44.44,0,0,1,.42-.33H76.57a.43.43,0,0,1,.42.51l-.73,3.89A.44.44,0,0,1,75.84,187.6Z" transform="translate(0 -1.47)"/><path class="cls-10" d="M146.15,182.8H82.05a.42.42,0,0,0-.42.36L81,187.1a.41.41,0,0,0,.42.49h76.75a.43.43,0,0,0,.42-.51l-.85-3.91a.43.43,0,0,0-.42-.33Z" transform="translate(0 -1.47)"/><path class="cls-10" d="M174.62,187.53H163.74a.44.44,0,0,1-.42-.33l-.93-3.9a.42.42,0,0,1,.41-.53h10.65a.43.43,0,0,1,.41.31L175,187A.43.43,0,0,1,174.62,187.53Z" transform="translate(0 -1.47)"/><path class="cls-10" d="M191.07,187.52H180.21a.42.42,0,0,1-.4-.3l-1.26-3.91a.42.42,0,0,1,.41-.55h10.63a.43.43,0,0,1,.4.27l1.48,3.91A.43.43,0,0,1,191.07,187.52Z" transform="translate(0 -1.47)"/><path class="cls-10" d="M68.86,176.22H67.21l-15.27,0a.43.43,0,0,0-.4.29l-1.28,3.89a.43.43,0,0,0,.41.56H77.09a.44.44,0,0,0,.42-.35l.73-3.89a.43.43,0,0,0-.42-.51Z" transform="translate(0 -1.47)"/><path class="cls-10" d="M93,180.94H82.5a.42.42,0,0,1-.42-.49l.65-3.9a.42.42,0,0,1,.42-.35l10.29,0a.43.43,0,0,1,.42.48l-.42,3.89A.42.42,0,0,1,93,180.94Z" transform="translate(0 -1.47)"/><path class="cls-10" d="M109,180.93H98.42a.43.43,0,0,1-.42-.46l.33-3.9a.42.42,0,0,1,.42-.39h10.3a.42.42,0,0,1,.42.43l-.1,3.9A.42.42,0,0,1,109,180.93Z" transform="translate(0 -1.47)"/><path class="cls-10" d="M124.87,180.91H114.35a.42.42,0,0,1-.43-.42v-3.9a.43.43,0,0,1,.43-.43h10.3a.43.43,0,0,1,.42.4l.22,3.9A.43.43,0,0,1,124.87,180.91Z" transform="translate(0 -1.47)"/><path class="cls-10" d="M140.79,180.9H130.28a.43.43,0,0,1-.43-.39l-.31-3.9a.43.43,0,0,1,.43-.46h10.29a.42.42,0,0,1,.42.36l.54,3.91A.43.43,0,0,1,140.79,180.9Z" transform="translate(0 -1.47)"/><path class="cls-10" d="M156.71,180.88h-10.5a.44.44,0,0,1-.43-.35l-.62-3.91a.42.42,0,0,1,.42-.49h10.28a.42.42,0,0,1,.42.33l.85,3.91A.42.42,0,0,1,156.71,180.88Z" transform="translate(0 -1.47)"/><path class="cls-10" d="M171.78,176.11H161.2a.43.43,0,0,0-.42.53l.94,3.9a.44.44,0,0,0,.42.33h26.41a.43.43,0,0,0,.39-.58l-1.48-3.91a.43.43,0,0,0-.4-.27Z" transform="translate(0 -1.47)"/><path class="cls-10" d="M66.25,169.58H54.12a.42.42,0,0,0-.4.29l-1.28,3.89a.43.43,0,0,0,.41.56H71.06a.44.44,0,0,0,.42-.33l.88-3.89a.42.42,0,0,0-.42-.52Z" transform="translate(0 -1.47)"/><path class="cls-10" d="M86,174.3l-10.13,0a.43.43,0,0,1-.42-.52l.8-3.89a.43.43,0,0,1,.42-.34h9.9a.42.42,0,0,1,.42.49l-.57,3.89A.42.42,0,0,1,86,174.3Z" transform="translate(0 -1.47)"/><path class="cls-10" d="M101.43,174.29H91.29a.43.43,0,0,1-.42-.48l.48-3.89a.43.43,0,0,1,.42-.38h9.91a.43.43,0,0,1,.43.45l-.26,3.9A.43.43,0,0,1,101.43,174.29Z" transform="translate(0 -1.47)"/><path class="cls-10" d="M116.81,174.27H106.67a.42.42,0,0,1-.42-.44l.17-3.9a.42.42,0,0,1,.42-.41h9.91a.42.42,0,0,1,.43.42l.06,3.9A.43.43,0,0,1,116.81,174.27Z" transform="translate(0 -1.47)"/><path class="cls-10" d="M132.2,174.25H122.06a.43.43,0,0,1-.43-.4l-.14-3.9a.42.42,0,0,1,.42-.45h9.91a.44.44,0,0,1,.43.39l.37,3.9A.42.42,0,0,1,132.2,174.25Z" transform="translate(0 -1.47)"/><path class="cls-10" d="M147.58,174.24H137.45a.42.42,0,0,1-.42-.38l-.47-3.9a.43.43,0,0,1,.42-.48h9.91a.44.44,0,0,1,.42.35l.69,3.91A.43.43,0,0,1,147.58,174.24Z" transform="translate(0 -1.47)"/><path class="cls-10" d="M163,174.22H152.84a.43.43,0,0,1-.42-.34l-.78-3.91a.42.42,0,0,1,.42-.5l9.89,0a.43.43,0,0,1,.41.32l1,3.91A.43.43,0,0,1,163,174.22Z" transform="translate(0 -1.47)"/><path class="cls-10" d="M178.66,169.44H166.87a.43.43,0,0,0-.41.54l1.09,3.9a.43.43,0,0,0,.42.31H186a.43.43,0,0,0,.4-.57l-1.48-3.91a.44.44,0,0,0-.4-.28Z" transform="translate(0 -1.47)"/><path class="cls-10" d="M64.74,167.69H55a.42.42,0,0,1-.4-.55l1.27-3.89a.43.43,0,0,1,.4-.3h9.49a.43.43,0,0,1,.42.53l-1,3.9A.43.43,0,0,1,64.74,167.69Z" transform="translate(0 -1.47)"/><path class="cls-10" d="M79.59,167.67H69.86a.43.43,0,0,1-.42-.52l1-3.9a.43.43,0,0,1,.42-.32h9.5a.42.42,0,0,1,.42.5L80,167.32A.43.43,0,0,1,79.59,167.67Z" transform="translate(0 -1.47)"/><path class="cls-10" d="M94.44,167.65H84.7a.41.41,0,0,1-.42-.49l.64-3.9a.42.42,0,0,1,.42-.35l9.52,0a.42.42,0,0,1,.42.47l-.42,3.9A.42.42,0,0,1,94.44,167.65Z" transform="translate(0 -1.47)"/><path class="cls-10" d="M109.29,167.63H99.54a.43.43,0,0,1-.43-.46l.33-3.89a.42.42,0,0,1,.42-.39l9.53,0a.44.44,0,0,1,.43.44l-.1,3.9A.43.43,0,0,1,109.29,167.63Z" transform="translate(0 -1.47)"/><path class="cls-10" d="M124.14,167.61h-9.76a.42.42,0,0,1-.42-.42v-3.9a.42.42,0,0,1,.42-.43h9.53a.44.44,0,0,1,.43.4l.21,3.9A.42.42,0,0,1,124.14,167.61Z" transform="translate(0 -1.47)"/><path class="cls-10" d="M139,167.59h-9.75a.42.42,0,0,1-.42-.39l-.31-3.9a.43.43,0,0,1,.42-.46h9.53a.42.42,0,0,1,.42.37l.53,3.9A.42.42,0,0,1,139,167.59Z" transform="translate(0 -1.47)"/><path class="cls-10" d="M153.82,167.57h-9.74a.42.42,0,0,1-.42-.35l-.62-3.91a.42.42,0,0,1,.42-.49H153a.42.42,0,0,1,.42.33l.85,3.9A.43.43,0,0,1,153.82,167.57Z" transform="translate(0 -1.47)"/><path class="cls-10" d="M168.66,167.55h-9.73a.43.43,0,0,1-.41-.32l-.94-3.91a.43.43,0,0,1,.41-.52l9.5,0a.43.43,0,0,1,.41.31l1.17,3.9A.43.43,0,0,1,168.66,167.55Z" transform="translate(0 -1.47)"/><path class="cls-10" d="M183.49,167.53h-9.7a.44.44,0,0,1-.41-.29l-1.25-3.91a.42.42,0,0,1,.4-.55l9.48,0a.42.42,0,0,1,.4.28l1.48,3.9A.43.43,0,0,1,183.49,167.53Z" transform="translate(0 -1.47)"/><g class="cls-11"><path class="cls-10" d="M154.18,208.45H86.51c-3.07,0-5.42-1-5.24-2.11L83,195c.17-1.16,2.63-2.11,5.49-2.11l63,0c2.86,0,5.37.94,5.6,2.11l2.28,11.36C159.55,207.5,157.25,208.45,154.18,208.45Z" transform="translate(0 -1.47)"/></g><g class="cls-12"><path class="cls-10" d="M105.73,192.88h-17a10.76,10.76,0,0,0-3.84.65h22Z" transform="translate(0 -1.47)"/><path class="cls-10" d="M105.73,192.88l1.14.66h48.81a10.71,10.71,0,0,0-4-.68Z" transform="translate(0 -1.47)"/></g><g class="cls-12"><path class="cls-13" d="M139.94,210.57H96.59a.7.7,0,0,1-.7-.7h0a.7.7,0,0,1,.7-.7h43.35a.7.7,0,0,1,.7.7h0A.7.7,0,0,1,139.94,210.57Z" transform="translate(0 -1.47)"/></g><path class="cls-13" d="M120.37,61.31h0a1.84,1.84,0,0,0-1.83,1.84h0A1.84,1.84,0,0,0,120.37,65h0a1.85,1.85,0,0,0,1.84-1.83h0A1.85,1.85,0,0,0,120.37,61.31Z" transform="translate(0 -1.47)"/><path class="cls-14" d="M59.37,187.08H48.49a.43.43,0,0,1-.4-.56l1.27-3.89a.43.43,0,0,1,.41-.3H60.41a.43.43,0,0,1,.42.53l-1,3.89A.43.43,0,0,1,59.37,187.08Z" transform="translate(0 -1.47)"/><path class="cls-14" d="M75.84,187.07H65a.41.41,0,0,1-.41-.52l.95-3.9a.43.43,0,0,1,.42-.32H76.57a.43.43,0,0,1,.42.51l-.73,3.89A.44.44,0,0,1,75.84,187.07Z" transform="translate(0 -1.47)"/><path class="cls-14" d="M146.15,182.26H97.8l-15.75,0a.42.42,0,0,0-.42.35l-.64,3.9a.41.41,0,0,0,.42.49h76.75a.43.43,0,0,0,.42-.52l-.85-3.9a.43.43,0,0,0-.42-.34Z" transform="translate(0 -1.47)"/><path class="cls-14" d="M174.62,187H163.74a.44.44,0,0,1-.42-.33l-.93-3.91a.42.42,0,0,1,.41-.52h10.65a.42.42,0,0,1,.41.3l1.17,3.91A.43.43,0,0,1,174.62,187Z" transform="translate(0 -1.47)"/><path class="cls-14" d="M191.07,187H180.21a.42.42,0,0,1-.4-.29l-1.26-3.91a.42.42,0,0,1,.41-.55h10.63a.43.43,0,0,1,.4.27l1.48,3.91A.43.43,0,0,1,191.07,187Z" transform="translate(0 -1.47)"/><path class="cls-14" d="M68.86,175.69H67.21l-15.27,0a.42.42,0,0,0-.4.29l-1.28,3.89a.43.43,0,0,0,.41.56l15.37,0h11a.43.43,0,0,0,.42-.34l.73-3.9a.42.42,0,0,0-.42-.5Z" transform="translate(0 -1.47)"/><path class="cls-14" d="M93,180.41H82.5a.43.43,0,0,1-.42-.5l.65-3.89a.42.42,0,0,1,.42-.36H93.44a.42.42,0,0,1,.42.47l-.42,3.9A.42.42,0,0,1,93,180.41Z" transform="translate(0 -1.47)"/><path class="cls-14" d="M109,180.4H98.42a.42.42,0,0,1-.42-.46l.33-3.89a.42.42,0,0,1,.42-.39h10.3a.41.41,0,0,1,.42.43l-.1,3.9A.42.42,0,0,1,109,180.4Z" transform="translate(0 -1.47)"/><path class="cls-14" d="M124.87,180.38H114.35a.43.43,0,0,1-.43-.43v-3.89a.43.43,0,0,1,.43-.43h10.3a.43.43,0,0,1,.42.4l.22,3.9A.43.43,0,0,1,124.87,180.38Z" transform="translate(0 -1.47)"/><path class="cls-14" d="M140.79,180.37H130.28a.43.43,0,0,1-.43-.4l-.31-3.9a.44.44,0,0,1,.43-.46h10.29a.43.43,0,0,1,.42.37l.54,3.9A.44.44,0,0,1,140.79,180.37Z" transform="translate(0 -1.47)"/><path class="cls-14" d="M156.71,180.35h-10.5a.44.44,0,0,1-.43-.36l-.62-3.9a.42.42,0,0,1,.42-.49h10.28a.42.42,0,0,1,.42.33l.85,3.91A.42.42,0,0,1,156.71,180.35Z" transform="translate(0 -1.47)"/><path class="cls-14" d="M171.78,175.58H161.2a.43.43,0,0,0-.42.53l.94,3.9a.44.44,0,0,0,.42.33H173.2l15.35,0a.42.42,0,0,0,.39-.57l-1.48-3.91a.42.42,0,0,0-.4-.28Z" transform="translate(0 -1.47)"/><path class="cls-14" d="M66.25,169.05H54.12a.42.42,0,0,0-.4.29l-1.28,3.89a.43.43,0,0,0,.41.56H71.06a.44.44,0,0,0,.42-.33l.88-3.89a.42.42,0,0,0-.42-.52Z" transform="translate(0 -1.47)"/><path class="cls-14" d="M86,173.77H75.91a.43.43,0,0,1-.42-.51l.8-3.89a.43.43,0,0,1,.42-.34h9.9a.42.42,0,0,1,.42.48l-.57,3.9A.42.42,0,0,1,86,173.77Z" transform="translate(0 -1.47)"/><path class="cls-14" d="M101.43,173.76H91.29a.43.43,0,0,1-.42-.48l.48-3.9a.43.43,0,0,1,.42-.37h9.91a.43.43,0,0,1,.43.45l-.26,3.9A.43.43,0,0,1,101.43,173.76Z" transform="translate(0 -1.47)"/><path class="cls-14" d="M116.81,173.74H106.67a.42.42,0,0,1-.42-.44l.17-3.9a.42.42,0,0,1,.42-.41h9.91a.42.42,0,0,1,.43.42l.06,3.9A.43.43,0,0,1,116.81,173.74Z" transform="translate(0 -1.47)"/><path class="cls-14" d="M132.2,173.72H122.06a.43.43,0,0,1-.43-.41l-.14-3.9a.42.42,0,0,1,.42-.44h9.91a.44.44,0,0,1,.43.38l.37,3.91A.43.43,0,0,1,132.2,173.72Z" transform="translate(0 -1.47)"/><path class="cls-14" d="M147.58,173.7l-10.13,0a.42.42,0,0,1-.42-.38l-.47-3.9A.43.43,0,0,1,137,169h9.91a.44.44,0,0,1,.42.35l.69,3.9A.43.43,0,0,1,147.58,173.7Z" transform="translate(0 -1.47)"/><path class="cls-14" d="M163,173.69H152.84a.43.43,0,0,1-.42-.34l-.78-3.91a.43.43,0,0,1,.42-.51H162a.43.43,0,0,1,.41.32l1,3.91A.43.43,0,0,1,163,173.69Z" transform="translate(0 -1.47)"/><path class="cls-14" d="M178.66,168.91H166.87a.43.43,0,0,0-.41.54l1.09,3.91a.44.44,0,0,0,.42.31H186a.43.43,0,0,0,.4-.58l-1.48-3.9a.44.44,0,0,0-.4-.28Z" transform="translate(0 -1.47)"/><path class="cls-14" d="M64.74,167.16H55a.42.42,0,0,1-.4-.56l1.27-3.89a.43.43,0,0,1,.4-.29h9.49a.43.43,0,0,1,.42.53l-1,3.89A.43.43,0,0,1,64.74,167.16Z" transform="translate(0 -1.47)"/><path class="cls-14" d="M79.59,167.14H69.86a.43.43,0,0,1-.42-.53l1-3.89a.43.43,0,0,1,.42-.32l9.5,0a.43.43,0,0,1,.42.51L80,166.79A.43.43,0,0,1,79.59,167.14Z" transform="translate(0 -1.47)"/><path class="cls-14" d="M94.44,167.12H84.7a.41.41,0,0,1-.42-.49l.64-3.9a.42.42,0,0,1,.42-.35l9.52,0a.42.42,0,0,1,.42.47l-.42,3.9A.42.42,0,0,1,94.44,167.12Z" transform="translate(0 -1.47)"/><path class="cls-14" d="M109.29,167.1H99.54a.43.43,0,0,1-.43-.46l.33-3.9a.42.42,0,0,1,.42-.39h9.53a.44.44,0,0,1,.43.44l-.1,3.89A.44.44,0,0,1,109.29,167.1Z" transform="translate(0 -1.47)"/><path class="cls-14" d="M124.14,167.08h-9.76a.42.42,0,0,1-.42-.42v-3.9a.42.42,0,0,1,.42-.43h9.53a.43.43,0,0,1,.43.4l.21,3.9A.43.43,0,0,1,124.14,167.08Z" transform="translate(0 -1.47)"/><path class="cls-14" d="M139,167.06h-9.75a.42.42,0,0,1-.42-.39l-.31-3.9a.43.43,0,0,1,.42-.46h9.53a.42.42,0,0,1,.42.36l.53,3.91A.42.42,0,0,1,139,167.06Z" transform="translate(0 -1.47)"/><path class="cls-14" d="M153.82,167h-9.74a.42.42,0,0,1-.42-.36l-.62-3.9a.42.42,0,0,1,.42-.49l9.51,0a.44.44,0,0,1,.42.34l.85,3.9A.43.43,0,0,1,153.82,167Z" transform="translate(0 -1.47)"/><path class="cls-14" d="M168.66,167h-9.73a.43.43,0,0,1-.41-.32l-.94-3.91a.42.42,0,0,1,.41-.52l9.5,0a.42.42,0,0,1,.41.31l1.17,3.9A.43.43,0,0,1,168.66,167Z" transform="translate(0 -1.47)"/><path class="cls-14" d="M183.49,167h-9.7a.44.44,0,0,1-.41-.29l-1.25-3.91a.43.43,0,0,1,.4-.56H182a.43.43,0,0,1,.4.27l1.48,3.91A.43.43,0,0,1,183.49,167Z" transform="translate(0 -1.47)"/><g class="cls-15"><rect class="cls-14" x="51.93" y="65.16" width="132.64" height="88.14"/></g><g class="cls-16"><polygon class="cls-17" points="196.85 65.16 189.54 55.03 186.04 55.03 186.04 54.48 189.82 54.48 197.29 64.84 196.85 65.16"/><polygon class="cls-17" points="200.83 73.58 189.55 73.58 180.06 62.25 180.06 51.9 180.61 51.9 180.61 62.05 189.81 73.03 200.83 73.03 200.83 73.58"/><polygon class="cls-17" points="201.22 77.08 187.99 77.08 175.91 62.77 175.91 46.84 176.46 46.84 176.46 62.56 188.25 76.53 201.22 76.53 201.22 77.08"/><polygon class="cls-17" points="199.54 83.31 169.16 83.31 169.16 40.5 169.72 40.5 169.72 82.76 199.54 82.76 199.54 83.31"/><polygon class="cls-17" points="203.3 86.94 165.4 86.94 165.4 31.81 165.95 31.81 165.95 86.39 203.3 86.39 203.3 86.94"/><polygon class="cls-17" points="199.18 91.99 167.22 91.99 157.23 82.11 157.23 27.14 157.78 27.14 157.78 81.88 167.44 91.44 199.18 91.44 199.18 91.99"/><polygon class="cls-17" points="204.85 97.77 166.15 97.77 152.69 84.31 152.69 39.07 153.24 39.07 153.24 84.08 166.38 97.22 204.85 97.22 204.85 97.77"/><polygon class="cls-17" points="208.98 104.42 151.52 104.42 141.53 93.65 141.53 76.82 145.68 53.62 145.68 34.92 146.23 34.92 146.23 53.84 142.08 77.05 142.08 93.43 151.75 103.87 208.98 103.87 208.98 104.42"/><polygon class="cls-17" points="207.65 110.39 146.31 110.39 128.5 92.58 128.5 4.47 129.06 4.47 129.06 92.35 146.54 109.83 207.65 109.83 207.65 110.39"/><polygon class="cls-17" points="203.04 114.44 142.73 114.44 122.53 94.24 122.53 2.3 123.08 2.3 123.08 94.01 142.96 113.89 203.04 113.89 203.04 114.44"/><polygon class="cls-17" points="206.41 121.87 140.23 121.87 115.65 97.29 115.65 74.52 108.14 67.01 108.53 66.62 116.2 74.29 116.2 97.06 140.46 121.32 206.41 121.32 206.41 121.87"/><polygon class="cls-17" points="200.57 129.1 125.09 129.1 110.46 114.47 110.46 101.47 113.61 98.32 113.61 85.48 109.93 81.8 109.93 73.94 98.68 62.69 98.68 51.25 99.23 51.25 99.23 62.46 110.48 73.71 110.48 81.57 114.16 85.25 114.16 98.55 111.01 101.7 111.01 114.25 125.32 128.55 200.57 128.55 200.57 129.1"/><polygon class="cls-17" points="199.02 136.2 122.66 136.2 103.72 117.26 103.72 76.2 93.14 65.63 93.14 39.05 93.69 39.05 93.69 65.41 104.27 75.98 104.27 117.04 122.88 135.65 199.02 135.65 199.02 136.2"/><polygon class="cls-17" points="113.41 202.77 112.86 202.77 112.86 188.76 112.96 188.68 127.52 176.69 127.52 148.92 143.8 148.92 156.05 140.28 156.37 140.73 143.97 149.47 128.07 149.47 128.07 176.96 127.97 177.04 113.41 189.02 113.41 202.77"/><polygon class="cls-17" points="106.15 203.42 105.6 203.42 105.6 136.21 100.99 131.6 100.99 80.57 85.88 68.19 86.23 67.77 101.54 80.31 101.54 131.37 106.15 135.98 106.15 203.42"/><polygon class="cls-17" points="99.53 203.29 98.98 203.29 98.98 139.19 92.36 132.57 92.36 83.54 56.69 49.81 56.69 6.1 57.24 6.1 57.24 49.57 92.92 83.3 92.92 132.34 99.53 138.96 99.53 203.29"/><polygon class="cls-17" points="89.15 200.95 88.6 200.95 88.6 141.75 84.58 135.65 84.58 87.44 45.79 54.23 45.79 10.13 46.34 10.13 46.34 53.98 85.13 87.19 85.13 135.49 89.15 141.59 89.15 200.95"/><polygon class="cls-17" points="75.14 199.92 74.59 199.92 74.59 174.26 59.16 165.44 59.16 131.29 59.71 131.29 59.71 165.12 75.14 173.94 75.14 199.92"/><polygon class="cls-17" points="58.87 124.72 58.44 124.37 67.33 113.55 67.33 100.42 56.14 91.29 56.49 90.86 67.88 100.16 67.88 113.75 58.87 124.72"/><polygon class="cls-17" points="76.57 144.91 76.02 144.91 76.02 89.9 46.22 63.85 37.23 63.85 37.23 4.94 37.78 4.94 37.78 63.3 46.43 63.3 76.57 89.65 76.57 144.91"/><polygon class="cls-17" points="62.02 111.31 47.09 96.38 47.09 80.94 44.58 78.43 44.97 78.04 47.64 80.71 47.64 96.15 62.41 110.92 62.02 111.31"/><circle class="cls-17" cx="37.39" cy="4.04" r="1.83"/><circle class="cls-17" cx="46.03" cy="9.8" r="1.83"/><circle class="cls-17" cx="56.76" cy="6.67" r="1.83"/><circle class="cls-17" cx="85.97" cy="67.79" r="1.83"/><circle class="cls-17" cx="93.64" cy="38.36" r="1.83"/><circle class="cls-17" cx="98.57" cy="51.62" r="1.83"/><circle class="cls-17" cx="107.7" cy="66.9" r="1.83"/><circle class="cls-17" cx="122.75" cy="1.83" r="1.83"/><path class="cls-17" d="M127.17,5.71A1.83,1.83,0,1,1,129,7.54,1.83,1.83,0,0,1,127.17,5.71Z" transform="translate(0 -1.47)"/><circle class="cls-17" cx="146.09" cy="33.43" r="1.83"/><circle class="cls-17" cx="157.53" cy="28.18" r="1.83"/><circle class="cls-17" cx="165.12" cy="32.37" r="1.83"/><path class="cls-17" d="M167.48,42a1.83,1.83,0,1,1,1.83,1.83A1.84,1.84,0,0,1,167.48,42Z" transform="translate(0 -1.47)"/><circle class="cls-17" cx="175.67" cy="46.65" r="1.83"/><circle class="cls-17" cx="180.12" cy="51.5" r="1.83"/><circle class="cls-17" cx="185.38" cy="54.78" r="1.83"/><circle class="cls-17" cx="196.9" cy="64.43" r="1.83"/><circle class="cls-17" cx="200.77" cy="72.83" r="1.83"/><circle class="cls-17" cx="201.59" cy="77.18" r="1.83"/><circle class="cls-17" cx="199.98" cy="82.48" r="1.83"/><circle class="cls-17" cx="204.46" cy="85.85" r="1.83"/><circle class="cls-17" cx="198.62" cy="91.99" r="1.83"/><circle class="cls-17" cx="204.87" cy="97.56" r="1.83"/><circle class="cls-17" cx="209.9" cy="104" r="1.83"/><circle class="cls-17" cx="208.3" cy="109.69" r="1.83"/><circle class="cls-17" cx="203.3" cy="114.37" r="1.83"/><circle class="cls-17" cx="206.65" cy="121.33" r="1.83"/><circle class="cls-17" cx="201.01" cy="128.94" r="1.83"/><circle class="cls-17" cx="199.17" cy="135.67" r="1.83"/><circle class="cls-17" cx="156.15" cy="140.62" r="1.83"/><circle class="cls-17" cx="113.68" cy="202.28" r="1.83"/><circle class="cls-17" cx="105.7" cy="204.54" r="1.83"/><circle class="cls-17" cx="99.24" cy="203.13" r="1.83"/><path class="cls-17" d="M86.74,202.24a1.84,1.84,0,1,1,1.84,1.83A1.83,1.83,0,0,1,86.74,202.24Z" transform="translate(0 -1.47)"/><circle class="cls-17" cx="74.37" cy="199.75" r="1.83"/><circle class="cls-17" cx="76.09" cy="144.22" r="1.83"/><circle class="cls-17" cx="59.62" cy="130.87" r="1.83"/><circle class="cls-17" cx="58.4" cy="124.8" r="1.83"/><circle class="cls-17" cx="63.02" cy="111.71" r="1.83"/><circle class="cls-17" cx="43.66" cy="77.71" r="1.83"/><circle class="cls-17" cx="55.37" cy="90.44" r="1.83"/><circle class="cls-17" cx="152.3" cy="39.43" r="1.83"/><polygon class="cls-18" points="15.06 129.67 21.52 138.62 24.6 138.62 24.6 139.1 21.27 139.1 14.67 129.95 15.06 129.67"/><polygon class="cls-18" points="11.55 122.24 21.51 122.24 29.89 132.24 29.89 141.38 29.4 141.38 29.4 132.42 21.28 122.72 11.55 122.72 11.55 122.24"/><polygon class="cls-18" points="11.2 119.15 22.88 119.15 33.55 131.78 33.55 145.85 33.07 145.85 33.07 131.96 22.66 119.63 11.2 119.63 11.2 119.15"/><polygon class="cls-18" points="12.69 113.65 39.51 113.65 39.51 134.62 39.02 134.62 39.02 114.13 12.69 114.13 12.69 113.65"/><polygon class="cls-18" points="9.37 110.44 42.83 110.44 42.83 142.3 42.34 142.3 42.34 110.93 9.37 110.93 9.37 110.44"/><polygon class="cls-18" points="13.01 105.98 41.23 105.98 50.05 114.71 50.05 146.42 49.56 146.42 49.56 114.91 41.03 106.47 13.01 106.47 13.01 105.98"/><circle class="cls-18" cx="43.08" cy="141.8" r="1.62"/><circle class="cls-18" cx="49.62" cy="146.05" r="1.62"/><circle class="cls-18" cx="39.38" cy="134.64" r="1.62"/><path class="cls-18" d="M35.38,147.48a1.62,1.62,0,1,1-1.62-1.62A1.61,1.61,0,0,1,35.38,147.48Z" transform="translate(0 -1.47)"/><circle class="cls-18" cx="29.83" cy="141.73" r="1.62"/><circle class="cls-18" cx="25.19" cy="138.84" r="1.62"/><circle class="cls-18" cx="15.02" cy="130.31" r="1.62"/><circle class="cls-18" cx="11.6" cy="122.89" r="1.62"/><circle class="cls-18" cx="10.88" cy="119.06" r="1.62"/><circle class="cls-18" cx="12.3" cy="114.38" r="1.62"/><circle class="cls-18" cx="8.34" cy="111.4" r="1.62"/><circle class="cls-18" cx="13.5" cy="105.98" r="1.62"/></g><path class="cls-14" d="M186.53,176.15c-.82.13-4.4,1.42-4.74,4.2s-1.36,11.51-1.36,11.51l-3.59-10-2.64-.2s1.42,11.65,4.67,14.63,4.68-2.1,4.68-2.1l1.69-5.69Z" transform="translate(0 -1.47)"/><path class="cls-19" d="M174.74,182s0-1.36-.4-1.56a13.45,13.45,0,0,1-2.44-2c-.27-.41-1.29-3.12-.61-3s2.91,2.23,2.91,2.23-.47-1.49-.27-1.76,1.36,1.63,1.49,2,.48,4.19.48,4.19Z" transform="translate(0 -1.47)"/><path class="cls-19" d="M186.61,162.4c-.24.73-1,6-.45,7.33s1.05,2.58,3.28,2.8l-2.72,6.19,1.61,6,6.1-2.06s3.82-3.41,3.58-4.12-4.22-7.13-4.22-7.13l-1.8-9.05-4.49-.94-.71.76Z" transform="translate(0 -1.47)"/><path class="cls-20" d="M191.32,165s.45,6.22,1.75,8.28-.33,6.12,1.32,7.35c1.08.81,4.16,5.15,5.25,5.95,1.9,1.38,4.43.69,6.55-3.28s3.62-8.62-4.56-15c0,0,1.42-4.83-1.21-5.78a13.84,13.84,0,0,1-3.31-1.49s-1.15-4.91-7.18-3.3-4.7,5-4.7,5-3.46,10.32,3.21,12.79l1-3s-3-.75-3.28-2.8.45-7.33.45-7.33A5.24,5.24,0,0,0,191.32,165Z" transform="translate(0 -1.47)"/><path class="cls-14" d="M189,178.45c1.35.48,3-2.47,4.49-4.29,0,0,4.66,2.58,4.06,2.32,0,0,.25,5.49.39,11.38.28,11.81,1.81,12.16,1.81,12.16s-6.16,1-6.3.79-4.95-.32-5.09-.86-2.61-8.77-3.42-10.06-2-6.77-1.08-8.39,2.64-5.35,2.64-5.35l2.37-1.56S187.34,177.84,189,178.45Z" transform="translate(0 -1.47)"/><polygon class="cls-21" points="172.78 231.93 172.48 235.9 170.5 235.7 170.3 231.63 172.78 231.93"/><polygon class="cls-21" points="191.17 229.51 192.63 233.21 190.76 233.9 188.81 230.32 191.17 229.51"/><path class="cls-22" d="M173.38,236.27l-3.28.5s-3.27,2.18-4.56,2.28-2.58,1.29-1.29,1.49,9.52-.4,9.52-.4Z" transform="translate(0 -1.47)"/><path class="cls-10" d="M195.87,204.67s-17.43,2.28-16.93,7.24-5.17,21.78-5.17,21.78l-4.66-.1s3.29-21.27,3.29-24.24,16.33-9.54,16.33-9.54Z" transform="translate(0 -1.47)"/><path class="cls-22" d="M192.92,234.09l-3.37,1.29s-.2,2.38-1.49,2.68-3.28,1.29-3.08,2.08,6-.4,6-.4l3.77-3Z" transform="translate(0 -1.47)"/><path class="cls-10" d="M199.59,199.9s3.93,5.11-.37,8.07c-3.63,2.51-14.69,2.85-14.33,3.67.79,1.78,8.23,20.37,8.23,20.37l-4.47,1.09s-11.19-16.09-11.88-21S189,200.7,189,200.7Z" transform="translate(0 -1.47)"/><path class="cls-17" d="M179.93,196.83H161.6a.81.81,0,0,1-.81-.81L159,183a.82.82,0,0,1,.82-.82h18.33a.82.82,0,0,1,.81.82l1.74,13A.81.81,0,0,1,179.93,196.83Z" transform="translate(0 -1.47)"/><path class="cls-17" d="M178.64,196.83H160.3a.82.82,0,0,1-.81-.81l-1.74-13a.82.82,0,0,1,.81-.82h18.33a.82.82,0,0,1,.82.82l1.74,13A.82.82,0,0,1,178.64,196.83Z" transform="translate(0 -1.47)"/><path class="cls-17" d="M159.78,197.85h32.57a.64.64,0,0,0,.63-.64h0a.63.63,0,0,0-.63-.63H159.78a.63.63,0,0,0-.63.63h0A.64.64,0,0,0,159.78,197.85Z" transform="translate(0 -1.47)"/><path class="cls-17" d="M166.81,189.8a1.23,1.23,0,1,0,1.21-1.48A1.36,1.36,0,0,0,166.81,189.8Z" transform="translate(0 -1.47)"/><path class="cls-21" d="M186.76,198.4l-.3.07-.34.06a5.53,5.53,0,0,1-.7.07,7.93,7.93,0,0,1-1.38,0,5.37,5.37,0,0,1-1.28-.35,3.66,3.66,0,0,1-1.07-.72l-.05-.05a.75.75,0,0,0-1.06.05.76.76,0,0,0,0,1,5.43,5.43,0,0,0,1.4,1.26,6.31,6.31,0,0,0,1.69.73,9.69,9.69,0,0,0,1.76.31c.3,0,.59,0,.89,0l.45,0,.48,0h.08a1.2,1.2,0,1,0-.32-2.38Z" transform="translate(0 -1.47)"/><path class="cls-14" d="M195.29,175.94s-2.68,1.16-.6,8.11,4.58,9.75-.18,11.33-9.28,3.12-9.28,3.12l.31,2.44s15.65-.93,16-6.09-2.19-15.87-2.69-17S198,175.94,195.29,175.94Z" transform="translate(0 -1.47)"/><path class="cls-19" d="M24.51,127.51a19.48,19.48,0,0,0,0-2.19,22,22,0,0,0-.93-2.68s.78-.82,1.12.5l.24.6s2-2.74,2.25-2.57a2.74,2.74,0,0,1,1.17,3,15.24,15.24,0,0,1-2.73,4.1Z" transform="translate(0 -1.47)"/><path class="cls-17" d="M24.71,126.31l1.66,1s.15,17.71-4.24,14.7c-.19-.12-5.37-5.87-5.37-5.87l-2.12-10.74s5.7,6,7.31,9.24C22,134.68,24.12,126.31,24.71,126.31Z" transform="translate(0 -1.47)"/><path class="cls-17" d="M6.69,126.32l-2.82,1.92s.65,23.65,1,23.79,13.53-1,13.53-1,1.68-10.14.26-16.14a27.83,27.83,0,0,0-3.9-9.39l-2.29.34.25.63-.3,1.35s-1.31,0-1.5.33-.7.2-1.14.25S6.69,126.32,6.69,126.32Z" transform="translate(0 -1.47)"/><path class="cls-23" d="M7.2,125.82c0,.41-.52,1.1,2.75,2.4,0,0,.1,3.28-1.3,2.34s-2.55-2.21-2.4-3.44S7.2,125.82,7.2,125.82Z" transform="translate(0 -1.47)"/><path class="cls-23" d="M10.08,128.35s2.78,1.62,2.78.6c0-.41-.22-2.73-.22-2.73Z" transform="translate(0 -1.47)"/><path class="cls-22" d="M4.21,184.4l-.11,1.68s-1.39,2.61-1.29,3.13,3.2.41,3.2.41a12.33,12.33,0,0,0-.87-3.25c-.52-.75.41-2.26.41-2.26Z" transform="translate(0 -1.47)"/><path class="cls-22" d="M9.7,183.7l.05,2-1,1.16-.09.69s6.87.63,7.29.47-.09-.95-.09-.95L11,185.65l.24-2.11Z" transform="translate(0 -1.47)"/><path class="cls-19" d="M10,128.31h0a2.5,2.5,0,0,1-2.48-2.16l-.58-4.3h6l-.47,4.24A2.49,2.49,0,0,1,10,128.31Z" transform="translate(0 -1.47)"/><path class="cls-19" d="M13.85,118.11a3.92,3.92,0,1,1-3.92-3.92A3.91,3.91,0,0,1,13.85,118.11Z" transform="translate(0 -1.47)"/><path class="cls-19" d="M13.85,118.22c0,2.16-1.75,7.55-3.92,7.55S6,120.38,6,118.22s1.75-.3,3.92-.3S13.85,116.05,13.85,118.22Z" transform="translate(0 -1.47)"/><path class="cls-22" d="M7.52,123.36s.53,3.2,2.36,3.18,2.47-3.18,2.47-3.18Z" transform="translate(0 -1.47)"/><path class="cls-19" d="M13.85,118.22c0,2.16-1.75,7.55-3.92,7.55S6,120.38,6,118.22s1.75-.3,3.92-.3S13.85,116.05,13.85,118.22Z" transform="translate(0 -1.47)"/><path class="cls-22" d="M13.85,118.15v0a3.92,3.92,0,0,0-7.84,0v.11a8.38,8.38,0,0,0,.13,1.28,2,2,0,0,0,1.57-1.35,3.3,3.3,0,0,0,.2-.71,7.79,7.79,0,0,0,2.21.29,8.07,8.07,0,0,0,1.9-.21,2.29,2.29,0,0,0,.18.6,1.94,1.94,0,0,0,1.53,1.34,7.67,7.67,0,0,0,.12-1.24Z" transform="translate(0 -1.47)"/><path class="cls-22" d="M7.06,122.73h0a1.08,1.08,0,0,1-1-1.16l0-3.66,1,.3Z" transform="translate(0 -1.47)"/><path class="cls-19" d="M7.35,121.87a.45.45,0,0,1-.58-.48c0-.61,0-1-.28-.9s-.18,1.6.37,2,.52-.06.6.5.29.07.29.07l.36-.9Z" transform="translate(0 -1.47)"/><path class="cls-22" d="M12.8,122.73h0a1.07,1.07,0,0,0,1-1.16l0-3.66-1,.3Z" transform="translate(0 -1.47)"/><path class="cls-19" d="M12.52,121.87a.45.45,0,0,0,.57-.48c0-.61,0-1,.28-.9s.18,1.6-.37,2-.51-.06-.6.5-.28.07-.28.07l-.37-.9Z" transform="translate(0 -1.47)"/><path class="cls-22" d="M6.54,120.56h.28v-2.14a2.25,2.25,0,0,0,2,.94,2.92,2.92,0,0,0,2.32-1.1c.34-.31.6-.73,1.07-.73s.6.42.6.86v2.32h.31s.45-2.86.42-3.62-.55-3-2.63-3-2,1-3.63,1.36S6.54,120.56,6.54,120.56Z" transform="translate(0 -1.47)"/><path class="cls-22" d="M6.88,121.71v4.12s0,2.11,2.79,2.11,3.18-1.44,3.18-2v-4.3a.59.59,0,0,0-.37.55c0,.41-.07,1-.47,1s-.33-1.38-1.12-1.38H8.81a.83.83,0,0,0-.58.78.7.7,0,0,1-.6.7s-.44.06-.44-1.14C7.19,122.23,7.22,121.81,6.88,121.71Z" transform="translate(0 -1.47)"/><path class="cls-10" d="M4.9,152l-2,32.36,3.56.51s3.56-22.26,4-22.64a15.91,15.91,0,0,0,1.12-1.15l-.48,2.79-2.1,20,3,0s2.39-14.91,3.27-17,4.32-13,3.18-16.07C18.31,150.54,4.9,152,4.9,152Z" transform="translate(0 -1.47)"/><path class="cls-14" d="M51.14,131.24A17.14,17.14,0,1,0,19,133.46L4,141.8c-1,.55-2.68,2.59-2.13,3.58s3.24.48,4.23-.07l12.65-7.07L21,137a17.14,17.14,0,0,0,30.11-5.74Zm-30.3-8.59a14.35,14.35,0,1,1,9.9,17.73A14.35,14.35,0,0,1,20.84,122.65Z" transform="translate(0 -1.47)"/><path class="cls-14" d="M1.87,145.34h0a2,2,0,0,1,.79-2.78l12.06-6.74a2,2,0,0,1,2.78.79h0a2,2,0,0,1-.79,2.78L4.65,146.13A2,2,0,0,1,1.87,145.34Z" transform="translate(0 -1.47)"/><path class="cls-19" d="M12.17,141.55s1.46-2.79,1.71-2.67-.47,1.68-.47,1.68,3.22-.41,3.22.37.95,2.14-2.31,2.63a16.51,16.51,0,0,1-3.8.37l0-1.81Z" transform="translate(0 -1.47)"/><path class="cls-17" d="M4,127.89c1-.79,1.29,8.73,1.9,15.41l5.83-2.45,1,3.36s-7.51,6.87-9.48,3.92S-3.29,133.38,4,127.89Z" transform="translate(0 -1.47)"/><path class="cls-24" d="M39,117.44A1.52,1.52,0,1,1,40.52,119,1.52,1.52,0,0,1,39,117.44Z" transform="translate(0 -1.47)"/><path class="cls-24" d="M39.87,123.31a3,3,0,1,1,3,3A3,3,0,0,1,39.87,123.31Z" transform="translate(0 -1.47)"/><path class="cls-19" d="M210,124.83a19.72,19.72,0,0,1,.05-2.16,21.46,21.46,0,0,1,.92-2.65s-.77-.81-1.11.49l-.24.59s-1.93-2.7-2.22-2.53a2.7,2.7,0,0,0-1.15,2.91,15,15,0,0,0,2.69,4Z" transform="translate(0 -1.47)"/><path class="cls-17" d="M209.76,123.64l-1.64,1s1,16,5.33,13c.18-.13,4.16-4.29,4.16-4.29l2.68-9.7s-5.61,7.17-7.2,10.41C213.09,134.1,210.34,123.64,209.76,123.64Z" transform="translate(0 -1.47)"/><path class="cls-17" d="M226,123.84l2.89,1.47s-.64,7.28-.45,13.89c.13,5,1.13,9.78,1,9.85-.29.14-13.37-1-13.37-1s1.42-2.85,2-8.72c.09-.89-.64-6.16-.46-6.94a56.2,56.2,0,0,1,2.66-8.79l3.16.11Z" transform="translate(0 -1.47)"/><path class="cls-22" d="M230,181l.1,1.66s1.38,2.58,1.27,3.09-3.16.4-3.16.4a11.91,11.91,0,0,1,.87-3.2c.51-.74-.41-2.23-.41-2.23Z" transform="translate(0 -1.47)"/><path class="cls-22" d="M224.58,180.32l0,1.93,1,1.14.09.68s-6.78.63-7.2.47.09-.94.09-.94l4.79-1.35-.23-2.09Z" transform="translate(0 -1.47)"/><path class="cls-14" d="M229.33,149l2,32-3.52.5s-3.87-27-4.3-27.41a15.76,15.76,0,0,0-1.51-1l1.24,7.68,2.07,19.76-2.94,0s-2.36-14.73-3.23-16.78-3.86-13.09-2.73-16.13C216.48,147.32,229.33,149,229.33,149Z" transform="translate(0 -1.47)"/><path class="cls-19" d="M222.15,138.69s-1.45-2.75-1.7-2.63.47,1.66.47,1.66-3.18-.4-3.18.37-.94,2.1,2.28,2.59a16.22,16.22,0,0,0,3.75.36l0-1.78Z" transform="translate(0 -1.47)"/><path class="cls-17" d="M228.77,125c-1-.77,0,7.14-.57,13.74l-5.58-.7-1,3.32s5.88,1.93,8.89.14C232.14,140.49,235.92,130.39,228.77,125Z" transform="translate(0 -1.47)"/><path class="cls-25" d="M224.59,125.72h0c1.42.06,1.68-1.64,1.74-2.31l.07-3.71-3.77-.81.31,4.48C223,124.71,223.74,125.72,224.59,125.72Z" transform="translate(0 -1.47)"/><path class="cls-26" d="M226.88,118.86l-4.2,3.18.3,1.17s.93.46,2.66-1.37c1.37-1.44,1.24-2.16,1.24-2.16v-.82Z" transform="translate(0 -1.47)"/><path class="cls-26" d="M220.76,112.77a7.5,7.5,0,0,0-.51,3l.25,1s.64-2.86.64-2.9S220.76,112.77,220.76,112.77Z" transform="translate(0 -1.47)"/><circle class="cls-25" cx="224.8" cy="115.52" r="4.44" transform="matrix(0.85, -0.53, 0.53, 0.85, -27.16, 133.97)"/><path class="cls-25" d="M220.36,115.61c0,1.79.94,6.24,2.54,6.39,2.44.23,6.47-3.76,5.61-5.79-.71-1.65-3.3-.69-4.91-.69S220.36,113.82,220.36,115.61Z" transform="translate(0 -1.47)"/><path class="cls-26" d="M220.7,113.1c0,1,.73,1.39,2.45,1.39h.34c1.7-.1,3.93-.9,3.93-1.83s-1.4-1.78-3.12-1.78S220.7,112.12,220.7,113.1Z" transform="translate(0 -1.47)"/><path class="cls-26" d="M225.64,111.16a4.46,4.46,0,0,1,3.58,3.92c-.2,1.24-1.19,2.67-2.41,2.68-.41,0,.4-2.38-1.8-3.56C223.88,113.6,224.39,111.41,225.64,111.16Z" transform="translate(0 -1.47)"/><path class="cls-26" d="M226.5,116a4.29,4.29,0,0,1,2.62-1.55,10.56,10.56,0,0,1,.11,2.53,3.37,3.37,0,0,1-.35,1.07h0a5.37,5.37,0,0,1-.95,1.47c-.37.23-.78-.64-.78-.64l-.06-.51a2,2,0,0,1-.51-1.39C226.58,116.77,226.5,116,226.5,116Z" transform="translate(0 -1.47)"/><path class="cls-25" d="M227.31,116.35c0,.68.3,1.24.67,1.24s.68-.56.68-1.24-.3-1.25-.68-1.25S227.31,115.66,227.31,116.35Z" transform="translate(0 -1.47)"/><path class="cls-25" d="M227.56,118.24l.11-.14.44-.53-.7-.88s0,1-.42,1.13a2.78,2.78,0,0,0-.82.54l.79.82.61.63Z" transform="translate(0 -1.47)"/><path class="cls-14" d="M222.61,115s-2.12.88-1.57,8.12c0,0-2.52-6.29-1.06-8.63,0,0-.88-3.59,3.36-3.81s5.2.74,5.2.74,3.17,5.71-.61,8.19a25.59,25.59,0,0,1-1.37,3.51S226.49,116.27,222.61,115Z" transform="translate(0 -1.47)"/><path class="cls-14" d="M226.12,111.73s-4.31-2.71-1.46-4.75,5.59.87,6.22,1.68c1,1.24,1.9,4-2.27,5.12Z" transform="translate(0 -1.47)"/></g></g></g></svg>