<svg xmlns="http://www.w3.org/2000/svg" xmlns:xlink="http://www.w3.org/1999/xlink" viewBox="0 0 276.27 203.93"><defs><style>.cls-1,.cls-6{fill:none;}.cls-2{fill:#006ae6;}.cls-3{fill:#5d4efa;}.cls-4,.cls-5{fill:#4cc2fc;}.cls-5{opacity:0.2;}.cls-6{stroke:#006ae6;stroke-linecap:round;stroke-linejoin:round;stroke-width:7px;}.cls-7{clip-path:url(#clip-path);}.cls-8{fill:#1a2089;}.cls-9{fill:#00244f;}.cls-10{fill:#f6e6dd;}.cls-11{fill:#676a7b;}.cls-12{clip-path:url(#clip-path-2);}.cls-13{clip-path:url(#clip-path-3);}.cls-14{fill:#fff;}.cls-15{fill:#f8aa91;}.cls-16{fill:#ffb291;}.cls-17{fill:#5d5f99;}.cls-18{fill:#384269;}.cls-19{fill:#f48a77;}.cls-20{fill:#102b4c;}.cls-21{fill:#d27964;}</style><clipPath id="clip-path"><circle class="cls-1" cx="141.82" cy="86.43" r="62.39"/></clipPath><clipPath id="clip-path-2"><path class="cls-1" d="M157.4,116.31l-.47,18.14a32.11,32.11,0,0,1-27.5-17l15.95-8.66A14,14,0,0,0,157.4,116.31Z"/></clipPath><clipPath id="clip-path-3"><path class="cls-2" d="M185.27,119a32.12,32.12,0,0,1-28.34,15.5l.47-18.14h.36a14,14,0,0,0,12-6.84Z"/></clipPath></defs><title>ever_changing_business_1</title><g id="Layer_2" data-name="Layer 2"><g id="Layer_1-2" data-name="Layer 1"><rect class="cls-3" x="67.74" y="123.89" width="10.87" height="69.76" transform="translate(129.39 -6.76) rotate(43.5)"/><path class="cls-3" d="M32.58,201.54h0a8.71,8.71,0,0,1-.32-12.31L72,147.37l12.63,12L44.9,201.22A8.72,8.72,0,0,1,32.58,201.54Z"/><path class="cls-4" d="M189,36.7a68.57,68.57,0,1,0,2.53,96.94A68.58,68.58,0,0,0,189,36.7Zm-90.16,95a62.39,62.39,0,1,1,88.21-2.31A62.4,62.4,0,0,1,98.87,131.69Z"/><circle class="cls-5" cx="141.82" cy="86.43" r="62.39"/><rect class="cls-4" x="141.79" y="17.41" width="32.41" height="32.41" rx="3.62"/><polyline class="cls-6" points="146.76 29.48 157.47 40.19 182.66 15"/><g class="cls-7"><path class="cls-3" d="M81.57,120.78C43.12,120.78,10,86.36,0,74.92,10,63.49,43.2,29.05,81.57,29.05s71.61,34.42,81.57,45.86C153.16,86.34,119.93,120.78,81.57,120.78Z"/><path class="cls-8" d="M53.19,46.53a40.14,40.14,0,0,0,0,56.77L110,46.53A40.14,40.14,0,0,0,53.19,46.53Z"/><path class="cls-8" d="M110,46.53,53.19,103.3A40.14,40.14,0,0,0,110,46.53Z"/><circle class="cls-9" cx="81.57" cy="74.91" r="14.66" transform="translate(-5.44 143.43) rotate(-80.78)"/><circle class="cls-10" cx="72.66" cy="63.27" r="5.75"/></g><path class="cls-4" d="M236.24,105.08c.5,0,1-.07,1.48-.07a21.69,21.69,0,0,1,5.61.59,21.27,21.27,0,0,1,2.84.89,22.21,22.21,0,0,1,5.13,2.8,24.39,24.39,0,0,1,2.27,1.91,22.42,22.42,0,0,1,3.54,4.39,19.94,19.94,0,0,1,1.38,2.63,21.23,21.23,0,0,1,1.64,5.61,14.58,14.58,0,0,1,.18,1.48c.05.5.08,1,.08,1.48a22.12,22.12,0,0,1-1.48,8.45,22.21,22.21,0,0,1-2.81,5.13,20.67,20.67,0,0,1-1.91,2.27,22.13,22.13,0,0,1-4.39,3.54,20.59,20.59,0,0,1-2.63,1.39,21.78,21.78,0,0,1-5.61,1.64c-.48.08-1,.13-1.47.18s-1,.07-1.49.07a21.27,21.27,0,0,1-5.61-.6,19.74,19.74,0,0,1-2.83-.88,21.81,21.81,0,0,1-5.13-2.8,24.52,24.52,0,0,1-2.28-1.91,22.79,22.79,0,0,1-3.54-4.39,20.65,20.65,0,0,1-1.38-2.64,21.78,21.78,0,0,1-1.64-5.61q-.12-.72-.18-1.47c0-.5-.08-1-.08-1.48a22.17,22.17,0,0,1,.6-5.62,21.55,21.55,0,0,1,.88-2.83,22.21,22.21,0,0,1,2.81-5.13,21.84,21.84,0,0,1,1.91-2.27,21.94,21.94,0,0,1,7-4.93,22,22,0,0,1,5.61-1.64C235.24,105.18,235.74,105.12,236.24,105.08Z"/><path class="cls-4" d="M239,119.57l3.47-11.15.87-2.82a21.27,21.27,0,0,1,2.84.89l-.88,2.81-3.52,11.33,9.53-11.34a24.39,24.39,0,0,1,2.27,1.91l-1.89,2.26-7.52,9L254.51,117l2.6-1.38a19.94,19.94,0,0,1,1.38,2.63l-2.6,1.37-10.5,5.53,14.74-1.29a14.58,14.58,0,0,1,.18,1.48c.05.5.08,1,.08,1.48l-14.57,1.27L257,131.53l2.8.88a21.55,21.55,0,0,1-.88,2.83l-2.81-.87-11.34-3.53,9.09,7.64,2.25,1.89a20.67,20.67,0,0,1-1.91,2.27l-2.25-1.88L243,133.24l5.44,10.34,1.37,2.6a20.59,20.59,0,0,1-2.63,1.39l-1.36-2.6-5.53-10.51,1.28,14.75c-.48.08-1,.13-1.47.18s-1,.07-1.49.07l-1.26-14.57-3.47,11.17-.88,2.8a19.74,19.74,0,0,1-2.83-.88l.86-2.81,3.53-11.33-7.63,9.09L225,145.18a24.52,24.52,0,0,1-2.28-1.91l9.41-11.2-10.34,5.44-2.61,1.37a20.65,20.65,0,0,1-1.38-2.64l2.6-1.36,10.51-5.53-14.75,1.28q-.12-.72-.18-1.47c0-.5-.08-1-.08-1.48l14.57-1.27-11.16-3.47-2.81-.88a21.55,21.55,0,0,1,.88-2.83l2.81.87,11.34,3.53L222.47,116l-2.25-1.89a21.84,21.84,0,0,1,1.91-2.27l2.25,1.89,9,7.52-5.44-10.34-1.37-2.62a22.66,22.66,0,0,1,2.63-1.38l1.37,2.61L236,120l-1.28-14.75c.48-.08,1-.14,1.48-.18s1-.07,1.48-.07Z"/><circle class="cls-2" cx="238.16" cy="127.24" r="19.3" transform="translate(-31.84 130.65) rotate(-28.84)"/><circle class="cls-3" cx="238.16" cy="127.24" r="18.22"/><path class="cls-8" d="M247,134.07l2.15,2.6-3.31,2.73-2-2.49a17.75,17.75,0,0,1-7.39,3.33l-1.54-5.51a14.61,14.61,0,0,0,6.66-3c1.57-1.3,1.87-2.09,1.4-2.66-1.7-2.06-9.41,7.09-14.46,1-2.19-2.65-2.1-6.47,1.31-10.18l-2.11-2.56,3.31-2.72,2.07,2.51a15.83,15.83,0,0,1,5.88-2.57l1.65,5.39a13.1,13.1,0,0,0-5.59,2.55c-1.62,1.34-1.75,2.23-1.28,2.79,1.62,2,9.35-7.15,14.34-1.1C250.17,126.72,250.16,130.43,247,134.07Z"/><path class="cls-4" d="M77.47,5.21c.38.32.75.65,1.1,1a22,22,0,0,1,3.54,4.4,19.28,19.28,0,0,1,1.38,2.62,21.82,21.82,0,0,1,1.64,5.62,20.86,20.86,0,0,1,.26,2.95,22.13,22.13,0,0,1-.6,5.61,20.69,20.69,0,0,1-.88,2.84,21.82,21.82,0,0,1-2.81,5.13c-.28.4-.59.78-.91,1.17s-.65.75-1,1.1a21.7,21.7,0,0,1-4.39,3.55,22,22,0,0,1-2.63,1.38,22.27,22.27,0,0,1-5.61,1.64,24.46,24.46,0,0,1-3,.26,23.18,23.18,0,0,1-5.61-.6A20.61,20.61,0,0,1,55.16,43,21.94,21.94,0,0,1,50,40.18c-.4-.29-.79-.6-1.17-.92s-.76-.65-1.11-1a22.23,22.23,0,0,1-4.92-7,22.22,22.22,0,0,1-1.64-5.62,22.45,22.45,0,0,1-.26-2.95,22.26,22.26,0,0,1,1.48-8.45A21.82,21.82,0,0,1,45.22,9.1c.28-.4.59-.78.92-1.17s.65-.75,1-1.1a22,22,0,0,1,4.39-3.55A22.73,22.73,0,0,1,54.15,1.9,22.27,22.27,0,0,1,59.76.26,22.23,22.23,0,0,1,68.33.6a20.74,20.74,0,0,1,2.84.89,21.52,21.52,0,0,1,5.12,2.8C76.69,4.58,77.08,4.89,77.47,5.21Z"/><path class="cls-4" d="M69.16,17.4,79.51,12l2.6-1.37a19.28,19.28,0,0,1,1.38,2.62l-2.6,1.37L70.38,20.12l14.75-1.28a20.86,20.86,0,0,1,.26,2.95l-2.93.26-11.64,1L82,26.53l2.81.87a20.69,20.69,0,0,1-.88,2.84l-2.8-.87L69.77,25.85,81.1,35.37c-.28.4-.59.78-.91,1.17s-.65.75-1,1.1L68,28.23l5.44,10.35,1.37,2.61a22,22,0,0,1-2.63,1.38L70.8,40,65.28,29.45l1,11.83.25,2.93a24.46,24.46,0,0,1-3,.26l-.26-2.93-1-11.65L58.86,41.05,58,43.87A20.61,20.61,0,0,1,55.16,43l.87-2.8,3.52-11.34L50,40.18c-.4-.29-.79-.6-1.17-.92s-.76-.65-1.11-1l9.41-11.19L46.81,32.51l-2.6,1.36a21.82,21.82,0,0,1-1.38-2.62l2.6-1.38,10.51-5.51-11.83,1-2.92.25a22.45,22.45,0,0,1-.26-2.95L55.5,21.41,44.34,17.94l-2.81-.87a22.17,22.17,0,0,1,.88-2.84l2.81.87,11.33,3.52L45.22,9.1c.28-.4.59-.78.92-1.17s.65-.75,1-1.1l11.2,9.4L52.89,5.89,51.52,3.28A22.73,22.73,0,0,1,54.15,1.9l1.37,2.61L61,15,60,3.19,59.76.26a22.6,22.6,0,0,1,3-.26L63,2.93l1,11.65L67.45,3.42,68.33.6a20.74,20.74,0,0,1,2.84.89L70.3,4.3,66.77,15.63,76.29,4.29c.4.29.79.6,1.18.92s.75.65,1.1,1Z"/><circle class="cls-2" cx="63.16" cy="22.24" r="19.3" transform="translate(24.22 76.71) rotate(-73.84)"/><circle class="cls-3" cx="63.16" cy="22.24" r="18.22"/><path class="cls-8" d="M64.61,33.35l-.32,3.36L60,36.29l.31-3.21a17.82,17.82,0,0,1-7.58-2.87l2.8-5a14.63,14.63,0,0,0,6.81,2.61c2,.2,2.8-.16,2.87-.88.25-2.67-11.67-1.65-10.91-9.55.33-3.42,3.09-6.06,8.13-6.28l.31-3.3L67,8.25l-.31,3.23a16.08,16.08,0,0,1,6,2.35l-2.65,5a13.2,13.2,0,0,0-5.75-2.14c-2.09-.2-2.82.34-2.89,1.07-.24,2.54,11.68,1.55,10.92,9.36C72,30.36,69.38,33,64.61,33.35Z"/><path class="cls-4" d="M211.22,169.91c.05.34.09.67.12,1a15,15,0,0,1-.15,3.86,15.89,15.89,0,0,1-.48,2A15.44,15.44,0,0,1,209,180.4a16.11,16.11,0,0,1-1.21,1.64,15.4,15.4,0,0,1-2.84,2.62,13.11,13.11,0,0,1-1.73,1.06,14.45,14.45,0,0,1-3.76,1.38c-.33.08-.66.14-1,.19s-.68.1-1,.12a15.1,15.1,0,0,1-3.87-.15,14.49,14.49,0,0,1-2-.47A15.47,15.47,0,0,1,188,185.1a16,16,0,0,1-1.64-1.2,15.27,15.27,0,0,1-3.69-4.58,14.8,14.8,0,0,1-1.37-3.76c-.08-.32-.14-.66-.2-1s-.09-.67-.12-1a15,15,0,0,1,.16-3.86,14.28,14.28,0,0,1,.47-2,15.08,15.08,0,0,1,1.69-3.64,14.65,14.65,0,0,1,1.2-1.64,15.37,15.37,0,0,1,2.84-2.62,14.56,14.56,0,0,1,1.73-1.06,14.72,14.72,0,0,1,3.76-1.38c.33-.08.66-.14,1-.19a8.86,8.86,0,0,1,1-.12,15.21,15.21,0,0,1,5.84.62,15.21,15.21,0,0,1,3.63,1.69,13.79,13.79,0,0,1,1.64,1.2,15.43,15.43,0,0,1,2.63,2.84,13.92,13.92,0,0,1,1.06,1.74,15.21,15.21,0,0,1,1.38,3.76C211.11,169.23,211.17,169.57,211.22,169.91Z"/><path class="cls-4" d="M201.44,172.45l7.78,1.86,2,.47a15.89,15.89,0,0,1-.48,2l-2-.47-7.91-1.89,8.19,6a16.11,16.11,0,0,1-1.21,1.64l-1.62-1.19-6.46-4.73,4.19,6.82,1,1.72a13.11,13.11,0,0,1-1.73,1.06L202.2,184l-4.26-6.93,1.55,10c-.33.08-.66.14-1,.19s-.68.1-1,.12l-1.53-9.9-1.87,7.79-.47,2a14.49,14.49,0,0,1-2-.47l.46-2,1.9-7.91-4.81,6.56L188,185.1a16,16,0,0,1-1.64-1.2l1.19-1.63,4.73-6.46L185.46,180l-1.72,1.06a15.29,15.29,0,0,1-1.07-1.74l1.72-1,6.93-4.26-10,1.55c-.08-.32-.14-.66-.2-1s-.09-.67-.12-1l9.91-1.53-7.79-1.86-2-.47a14.28,14.28,0,0,1,.47-2l2,.46,7.91,1.9-6.56-4.8-1.62-1.2a14.65,14.65,0,0,1,1.2-1.64l8.08,5.92-4.19-6.82-1-1.72a14.56,14.56,0,0,1,1.73-1.06l1.06,1.71,4.25,6.93-1.55-10c.33-.08.66-.14,1-.19a8.86,8.86,0,0,1,1-.12l1.53,9.9,1.86-7.79.47-2a15,15,0,0,1,2,.47l-.47,2-1.89,7.91,4.8-6.56,1.19-1.63a13.79,13.79,0,0,1,1.64,1.2l-1.19,1.63L200,168.66l6.82-4.19,1.73-1.06a13.92,13.92,0,0,1,1.06,1.74l-1.72,1L201,170.46l10-1.55c.08.32.14.66.19,1s.09.67.12,1Z"/><circle class="cls-2" cx="196.16" cy="172.23" r="13.23" transform="translate(-61.93 133.08) rotate(-32.66)"/><circle class="cls-3" cx="196.16" cy="172.23" r="12.48"/><path class="cls-8" d="M191.9,178.62l-1.69,1.58-2-2.13,1.6-1.52a12.39,12.39,0,0,1-2.61-4.9l3.7-1.3a10,10,0,0,0,2.33,4.41c1,1,1.51,1.18,1.88.84,1.33-1.26-5.28-6.11-1.32-9.84,1.71-1.62,4.33-1.73,7,.43l1.65-1.56,2,2.14-1.62,1.53a10.88,10.88,0,0,1,2,3.9l-3.61,1.37a9.15,9.15,0,0,0-2-3.7c-1-1-1.6-1.09-2-.75-1.27,1.2,5.32,6.07,1.41,9.76C197.06,180.42,194.52,180.58,191.9,178.62Z"/><path class="cls-2" d="M157.4,116.31l-.47,18.14a32.11,32.11,0,0,1-27.5-17l15.95-8.66A14,14,0,0,0,157.4,116.31Z"/><path class="cls-11" d="M185.27,119a32.12,32.12,0,0,1-28.34,15.5l.47-18.14h.36a14,14,0,0,0,12-6.84Z"/><path class="cls-4" d="M130.45,85.37a32.13,32.13,0,0,0-1,32.12l15.95-8.66a14,14,0,0,1,12.38-20.5h.37l0-.9.45-17.25A32.15,32.15,0,0,0,130.45,85.37Z"/><path class="cls-4" d="M189.89,103.16A32,32,0,0,1,185.27,119l-15.48-9.48a14,14,0,0,0,.17-14L181.86,89l4.06-2.21A32.06,32.06,0,0,1,189.89,103.16Z"/><path class="cls-4" d="M158.6,70.19l-.45,17.25c.41-.19.82-.35,1.24-.5a5.15,5.15,0,0,1,2.79-.3c1.76.42,2.88,2.28,4.63,2.71a5.24,5.24,0,0,0,3.88-1,16.37,16.37,0,0,1,3.55-2.05,6.77,6.77,0,0,1,6.07,1.38c.53.42,1,.9,1.55,1.32l4.06-2.21A32.15,32.15,0,0,0,158.6,70.19Z"/><path class="cls-4" d="M181.86,89,170,95.48a14,14,0,0,0-11.83-7.14l0-.9c.41-.19.82-.35,1.24-.5a5.15,5.15,0,0,1,2.79-.3c1.76.42,2.88,2.28,4.63,2.71a5.24,5.24,0,0,0,3.88-1,16.37,16.37,0,0,1,3.55-2.05,6.77,6.77,0,0,1,6.07,1.38C180.84,88.12,181.33,88.6,181.86,89Z"/><g class="cls-12"><path class="cls-9" d="M132.06,109.6a.24.24,0,1,1,.24.24A.23.23,0,0,1,132.06,109.6Z"/><circle class="cls-9" cx="136.75" cy="109.6" r="0.24"/><path class="cls-9" d="M141,109.6a.24.24,0,1,1,.24.24A.23.23,0,0,1,141,109.6Z"/><path class="cls-9" d="M145.4,109.6a.23.23,0,0,1,.23-.23.24.24,0,1,1-.23.23Z"/><path class="cls-9" d="M149.84,109.6a.24.24,0,1,1,.24.24A.23.23,0,0,1,149.84,109.6Z"/><circle class="cls-9" cx="154.52" cy="109.6" r="0.24"/><path class="cls-9" d="M132.06,113.62a.24.24,0,1,1,.24.24A.24.24,0,0,1,132.06,113.62Z"/><path class="cls-9" d="M136.51,113.62a.24.24,0,0,1,.24-.24.24.24,0,0,1,0,.48A.24.24,0,0,1,136.51,113.62Z"/><path class="cls-9" d="M141,113.62a.24.24,0,1,1,.24.24A.24.24,0,0,1,141,113.62Z"/><path class="cls-9" d="M145.4,113.62a.24.24,0,1,1,.23.24A.23.23,0,0,1,145.4,113.62Z"/><path class="cls-9" d="M149.84,113.62a.24.24,0,1,1,.24.24A.24.24,0,0,1,149.84,113.62Z"/><path class="cls-9" d="M154.29,113.62a.23.23,0,0,1,.23-.24.24.24,0,0,1,0,.48A.23.23,0,0,1,154.29,113.62Z"/><path class="cls-9" d="M132.06,117.64a.24.24,0,1,1,.24.24A.24.24,0,0,1,132.06,117.64Z"/><path class="cls-9" d="M136.51,117.64a.24.24,0,0,1,.24-.24.24.24,0,0,1,0,.48A.24.24,0,0,1,136.51,117.64Z"/><path class="cls-9" d="M141,117.64a.24.24,0,1,1,.24.24A.24.24,0,0,1,141,117.64Z"/><path class="cls-9" d="M145.4,117.64a.24.24,0,1,1,.23.24A.23.23,0,0,1,145.4,117.64Z"/><path class="cls-9" d="M149.84,117.64a.24.24,0,1,1,.24.24A.24.24,0,0,1,149.84,117.64Z"/><path class="cls-9" d="M154.29,117.64a.23.23,0,0,1,.23-.24.24.24,0,0,1,0,.48A.23.23,0,0,1,154.29,117.64Z"/><path class="cls-9" d="M132.06,121.65a.24.24,0,1,1,.24.24A.23.23,0,0,1,132.06,121.65Z"/><circle class="cls-9" cx="136.75" cy="121.65" r="0.24"/><path class="cls-9" d="M141,121.65a.24.24,0,1,1,.24.24A.23.23,0,0,1,141,121.65Z"/><path class="cls-9" d="M145.4,121.65a.23.23,0,0,1,.23-.23.24.24,0,1,1-.23.23Z"/><path class="cls-9" d="M149.84,121.65a.24.24,0,1,1,.24.24A.23.23,0,0,1,149.84,121.65Z"/><circle class="cls-9" cx="154.52" cy="121.65" r="0.24"/><path class="cls-9" d="M132.06,125.67a.24.24,0,1,1,.24.24A.24.24,0,0,1,132.06,125.67Z"/><path class="cls-9" d="M136.51,125.67a.24.24,0,0,1,.24-.24.24.24,0,0,1,0,.48A.24.24,0,0,1,136.51,125.67Z"/><path class="cls-9" d="M141,125.67a.24.24,0,1,1,.24.24A.24.24,0,0,1,141,125.67Z"/><path class="cls-9" d="M145.4,125.67a.24.24,0,1,1,.23.24A.23.23,0,0,1,145.4,125.67Z"/><path class="cls-9" d="M149.84,125.67a.24.24,0,1,1,.24.24A.24.24,0,0,1,149.84,125.67Z"/><path class="cls-9" d="M154.29,125.67a.23.23,0,0,1,.23-.24.24.24,0,0,1,0,.48A.23.23,0,0,1,154.29,125.67Z"/><path class="cls-9" d="M132.06,129.69a.24.24,0,1,1,.48,0,.24.24,0,0,1-.48,0Z"/><path class="cls-9" d="M136.51,129.69a.24.24,0,0,1,.24-.24.23.23,0,0,1,.23.24.23.23,0,0,1-.23.23A.23.23,0,0,1,136.51,129.69Z"/><path class="cls-9" d="M141,129.69a.24.24,0,0,1,.48,0,.24.24,0,0,1-.48,0Z"/><path class="cls-9" d="M145.4,129.69a.24.24,0,1,1,.47,0,.23.23,0,0,1-.24.23A.23.23,0,0,1,145.4,129.69Z"/><path class="cls-9" d="M149.84,129.69a.24.24,0,1,1,.48,0,.24.24,0,0,1-.48,0Z"/><path class="cls-9" d="M154.29,129.69a.23.23,0,0,1,.23-.24.24.24,0,0,1,.24.24.23.23,0,0,1-.24.23A.23.23,0,0,1,154.29,129.69Z"/><path class="cls-9" d="M132.06,133.7a.24.24,0,0,1,.48,0,.24.24,0,0,1-.48,0Z"/><circle class="cls-9" cx="136.75" cy="133.7" r="0.24"/><path class="cls-9" d="M141,133.7a.24.24,0,0,1,.48,0,.24.24,0,0,1-.48,0Z"/><path class="cls-9" d="M145.4,133.7a.23.23,0,0,1,.23-.23.23.23,0,0,1,.24.23.24.24,0,1,1-.47,0Z"/><path class="cls-9" d="M149.84,133.7a.24.24,0,0,1,.48,0,.24.24,0,0,1-.48,0Z"/><circle class="cls-9" cx="154.52" cy="133.7" r="0.24"/></g><path class="cls-2" d="M185.27,119a32.12,32.12,0,0,1-28.34,15.5l.47-18.14h.36a14,14,0,0,0,12-6.84Z"/><g class="cls-13"><rect class="cls-9" x="183.38" y="106.66" width="0.57" height="29.84"/><rect class="cls-9" x="180.62" y="106.66" width="0.57" height="29.84"/><rect class="cls-9" x="177.87" y="106.66" width="0.57" height="29.84"/><rect class="cls-9" x="175.11" y="106.66" width="0.57" height="29.84"/><rect class="cls-9" x="172.35" y="106.66" width="0.57" height="29.84"/><rect class="cls-9" x="169.6" y="106.66" width="0.57" height="29.84"/><rect class="cls-9" x="166.84" y="106.66" width="0.57" height="29.84"/><rect class="cls-9" x="164.08" y="106.66" width="0.57" height="29.84"/><rect class="cls-9" x="161.33" y="106.66" width="0.57" height="29.84"/><rect class="cls-9" x="158.57" y="106.66" width="0.57" height="29.84"/></g><circle class="cls-14" cx="134.79" cy="98.06" r="4.34"/><circle class="cls-14" cx="271.94" cy="112.57" r="4.34"/><circle class="cls-14" cx="143.41" cy="86.07" r="2.42"/><circle class="cls-14" cx="75.35" cy="129.86" r="2.42"/><circle class="cls-14" cx="5.52" cy="183.24" r="2.42"/><circle class="cls-14" cx="227.18" cy="47.78" r="2.42"/><path class="cls-3" d="M215.86,36.84c0-6.77,4.37-10.64,10.15-10.64s10.16,3.87,10.16,10.64S231.8,47.49,226,47.49,215.86,43.66,215.86,36.84Zm32.59-10.1h9.23L231.58,65h-9.22Zm-20,10.1c0-3.66-1.2-4.75-2.41-4.75s-2.4,1.09-2.4,4.75,1.2,4.75,2.4,4.75S228.42,40.5,228.42,36.84Zm15.45,18c0-6.77,4.36-10.65,10.15-10.65s10.15,3.88,10.15,10.65S259.81,65.5,254,65.5,243.87,61.68,243.87,54.86Zm12.55,0c0-3.66-1.2-4.75-2.4-4.75s-2.4,1.09-2.4,4.75,1.2,4.75,2.4,4.75S256.42,58.51,256.42,54.86Z"/><path class="cls-15" d="M132.14,135.64a2.89,2.89,0,0,1,0-.57,1.88,1.88,0,0,1,.49-1.09s.32,0,0,.53l0,.32a2.13,2.13,0,0,0,.77-.5c.3-.39.31-.3.31-.3a1.13,1.13,0,0,0,.25.21c.23.16.26.07.2.42a5,5,0,0,1-1,1.45c-.07.06-1.31.61-1.31.61S132.09,135.69,132.14,135.64Z"/><path class="cls-16" d="M104.28,126.55a4.17,4.17,0,0,0,0-.65,2.06,2.06,0,0,0-.45-1.27s-.36,0,0,.6l0,.36a6.05,6.05,0,0,1-.49-.66c-.3-.47-.4-.65-.4-.65s-.07-.14-.29,0a1.18,1.18,0,0,0-.54,1,5.73,5.73,0,0,0,1,1.73c.07.07,1.42.8,1.42.8A10.33,10.33,0,0,0,104.28,126.55Z"/><path class="cls-4" d="M132.2,136.64c-2.32,3-2.69,8.63-5.16,10.71-2.31,1.94-6.71.44-9.23,1.09l-3-4.78,9.4.49,7.71-7.85S132.37,136.42,132.2,136.64Z"/><rect class="cls-16" x="111.53" y="192.65" width="0.61" height="2.42" rx="0.31" transform="translate(65.03 -25) rotate(17.91)"/><rect class="cls-16" x="111.38" y="194.37" width="0.94" height="1.9" rx="0.47" transform="translate(-109.07 152.28) rotate(-49.18)"/><path class="cls-17" d="M113.57,195.84c.72.52,1.35,1.09,1.12,1.56a4.71,4.71,0,0,1-3.14-1.18l-.07.21-1.27-.51.9-1.33a.16.16,0,0,1,.28,0,1.46,1.46,0,0,0,.45.61s.13-.45.19-.41C112.53,195.13,113.17,195.55,113.57,195.84Z"/><path class="cls-18" d="M112.39,196.55c1.6,1.06,2.22.71,2.33.72a.31.31,0,0,1,0,.13,4.71,4.71,0,0,1-3.14-1.18l-.07.21-1.27-.51.25-.37A7.39,7.39,0,0,1,112.39,196.55Z"/><rect class="cls-16" x="94.88" y="182.52" width="0.61" height="2.42" rx="0.31" transform="translate(214.2 14.46) rotate(62.5)"/><rect class="cls-16" x="93.7" y="183.83" width="0.94" height="1.9" rx="0.47" transform="translate(-14.48 8.12) rotate(-4.59)"/><path class="cls-17" d="M95,186.35c.14.89.19,1.73-.3,1.9a4.63,4.63,0,0,1-1.41-3l-.2.1-.55-1.25,1.58-.32a.15.15,0,0,1,.18.21,1.51,1.51,0,0,0-.11.75c0,.06.42-.23.43-.16C94.78,185.12,95,185.87,95,186.35Z"/><path class="cls-18" d="M93.69,186c.39,1.88,1.07,2.07,1.15,2.15a.26.26,0,0,1-.11.07,4.63,4.63,0,0,1-1.41-3l-.2.1-.55-1.25L93,184A7.23,7.23,0,0,1,93.69,186Z"/><path class="cls-15" d="M116.94,142.54l.06-5.49a18.22,18.22,0,0,0-2.88-1.41l-.19,5.9Z"/><path class="cls-19" d="M117,140.38c0,.3-1.76-.06-2.52-.72-.47-.41-.41-1.43-.4-1.72l2.92.77Z"/><path class="cls-15" d="M113.79,135.86l-.18,1.28a5,5,0,0,0,.22,1.71.42.42,0,0,0,.28.3c.63.2,2.46.77,3.25,1a.42.42,0,0,0,.51-.27c.1-.3.27-.84.52-1.8.21-.8.08-2.1.42-3.19s-1.85-1.57-3.55-1.58S113.79,135.86,113.79,135.86Z"/><path class="cls-2" d="M110.78,194.17l2.12.76,5.64-12.7a17.81,17.81,0,0,0,1.53-7.08l.11-12.52-8.23-.71,2,12.94a20.39,20.39,0,0,1-.37,8.12Z"/><path class="cls-2" d="M95.71,184.62l-1.06-2c4.95-1.79,10.9-.64,12.73-6.18a49.71,49.71,0,0,1,1.05-15.1l8.34.72L111.25,178a9.16,9.16,0,0,1-6.16,5.81Z"/><path class="cls-4" d="M118.86,144.93a6.41,6.41,0,0,0-5.31-3.79h0c-1.49-.12-3,1.89-4.2,4.28a18.67,18.67,0,0,0-1.78,9.85,47.32,47.32,0,0,0,.75,6.37l11.84,1.9c.2-3,.16-7,0-14.29A15.72,15.72,0,0,0,118.86,144.93Z"/><path class="cls-4" d="M104.32,127.1c3.85,4.23,10.38,13.68,10.17,15.75a3.59,3.59,0,0,1-.65,1.76c-1.28,1.74-1.94,2.93-3.47,2.2a1.54,1.54,0,0,1-.79-1.86L104,127.56S104.09,126.85,104.32,127.1Z"/><path class="cls-20" d="M115.68,137.68l.19-1.18-.35-.71a10.18,10.18,0,0,0,3.31-.74,6.24,6.24,0,0,0,1.63-.84l-1.23-.05s.71-.55.75-.81l-.64.16a1.51,1.51,0,0,0,0-1.57l-.78,1.16s-1.72-1.65-3.52-.65c-.08.05-.54-.24-.54-.24s.11.54,0,.61l-.59-.29.31.55-.5.13.43.11a4,4,0,0,0-.87,2.67c.06,1.78.26,3.17.4,3.08a1.6,1.6,0,0,0,1.06-.87c.12-.35-.43-1.13-.29-1.41s.71-.21.92.35C115.51,137.32,115.55,137.43,115.68,137.68Z"/><path class="cls-21" d="M115.18,137.2c.08.21.07.4,0,.43s-.22-.1-.3-.31-.08-.39,0-.43S115.1,137,115.18,137.2Z"/><path class="cls-9" d="M101.92,119.56c-1.58,4.84,4.47,11.06,14.58,14.18s20,1.85,22-2.86-4.47-11-14.58-14.17S105.11,109.77,101.92,119.56Z"/><ellipse class="cls-9" cx="121.09" cy="122.78" rx="9.22" ry="19.19" transform="translate(-29.2 207.34) rotate(-74.76)"/><ellipse class="cls-2" cx="121.33" cy="122.68" rx="8.46" ry="17.61" transform="translate(-28.93 207.5) rotate(-74.76)"/><ellipse class="cls-9" cx="121.72" cy="122.53" rx="6.85" ry="14.25" transform="translate(-28.5 207.76) rotate(-74.76)"/><path class="cls-14" d="M124.17,116.13a27.77,27.77,0,0,1,3.08,1.15c-.82-.34-1.69-.66-2.6-.94-7.5-2.32-14.83-1.37-16.35,2.12-1.31,3,2,6.86,7.74,9.37-6-2.5-9.56-6.51-8.22-9.58C109.35,114.76,116.67,113.81,124.17,116.13Z"/><path class="cls-2" d="M121.53,132.34c.6.11,1.22.24,1.79.31l-.64,2.48c-.58-.06-1.18-.19-1.79-.3Z"/><path class="cls-2" d="M119.89,132l.53.13-.67,2.5-.54-.13Z"/><path class="cls-2" d="M118.84,131.72c.17.06.34.08.52.13l-.63,2.51c-.17-.05-.39-.08-.57-.14Z"/><path class="cls-14" d="M121.32,120a3.08,3.08,0,0,1,.93.94,5,5,0,0,1,.55,1.55l4.67,1.32a3.31,3.31,0,0,0-.11-1.83l1.52.12a3.28,3.28,0,0,1,0,2.12l1.94.54-.28.69-2-.55A2.72,2.72,0,0,1,127,126a4.8,4.8,0,0,1-2.53-.11,5.25,5.25,0,0,1-2.21-1.11,3.67,3.67,0,0,1-1-2l-4.73-1.33a2.75,2.75,0,0,0-.17,1.12,3.61,3.61,0,0,0,.25,1.2l-1.68-.47a2.37,2.37,0,0,1-.16-1.06A3.72,3.72,0,0,1,115,121l-2.4-.68.28-.68,2.49.7a3,3,0,0,1,1.81-1.18,5.34,5.34,0,0,1,2.63.14A5.81,5.81,0,0,1,121.32,120Zm4.84,5.09a1.66,1.66,0,0,0,1-.61L123,123.27a2.47,2.47,0,0,0,.6,1.09,3,3,0,0,0,1.22.61A2.76,2.76,0,0,0,126.16,125.05Zm-9.31-4.28L121,122a2.41,2.41,0,0,0-.58-1.18,2.68,2.68,0,0,0-1.16-.59A2.06,2.06,0,0,0,116.85,120.77Z"/><path class="cls-9" d="M128.49,133c8.63-.26,10.9-4.57,11.25-5.87a27.32,27.32,0,0,1-1.22,3.75c-1.27,2.91-5.51,4.5-11,4.57Z"/></g></g></svg>