<svg xmlns="http://www.w3.org/2000/svg" viewBox="0 0 512.35 275.6"><defs><style>.cls-1{fill:#fff;}.cls-2{fill:#afcdfb;}.cls-3{fill:#1a2089;}.cls-4{fill:#2e3552;}.cls-5{fill:#5d4efa;}.cls-6{fill:#00244f;}.cls-7{fill:#006ae6;}.cls-8{fill:#4cc2fc;}.cls-9{fill:#233862;}.cls-10{fill:#e2915a;}.cls-11{fill:#ffb27d;}.cls-12{fill:#ed975d;}.cls-13{fill:#2b478b;}.cls-14{fill:#e9f3fe;}.cls-15{fill:#d9e9f9;}.cls-16{fill:#d5e5fb;}.cls-17{fill:#c6dcf7;}</style></defs><title>satisfied_clients</title><g id="Layer_2" data-name="Layer 2"><g id="Layer_1-2" data-name="Layer 1"><path class="cls-1" d="M61.69,171A10.08,10.08,0,1,1,71.77,181.1,10.07,10.07,0,0,1,61.69,171Z"/><path class="cls-2" d="M73,173.43a1.55,1.55,0,0,0-.08-.55,1.07,1.07,0,0,0-.28-.43,2.22,2.22,0,0,0-.5-.36,6.36,6.36,0,0,0-.76-.33,14.79,14.79,0,0,1-1.4-.59,4.81,4.81,0,0,1-1.08-.71,2.69,2.69,0,0,1-.69-.92,2.82,2.82,0,0,1-.23-1.25,3,3,0,0,1,.24-1.13,2.59,2.59,0,0,1,.65-.89,3.18,3.18,0,0,1,1-.61,4.69,4.69,0,0,1,1.29-.29l0-1.57,1.26,0,0,1.59a4.31,4.31,0,0,1,1.23.38,3.05,3.05,0,0,1,.93.72,3.13,3.13,0,0,1,.59,1,4,4,0,0,1,.19,1.33l-2.29,0a2,2,0,0,0-.37-1.33,1.32,1.32,0,0,0-1-.45,1.43,1.43,0,0,0-.61.09,1,1,0,0,0-.68.67,1.36,1.36,0,0,0-.09.51,1.53,1.53,0,0,0,.07.49,1,1,0,0,0,.27.41,2.08,2.08,0,0,0,.51.36,7.72,7.72,0,0,0,.79.36c.51.2,1,.4,1.39.61a4.43,4.43,0,0,1,1.07.71,2.69,2.69,0,0,1,.69.92,3.18,3.18,0,0,1,0,2.4,2.59,2.59,0,0,1-.65.88,3,3,0,0,1-1,.59,4.69,4.69,0,0,1-1.29.28l0,1.46H70.77l0-1.46a4.92,4.92,0,0,1-1.27-.31,3.28,3.28,0,0,1-1.08-.65,3,3,0,0,1-.75-1.06,3.7,3.7,0,0,1-.26-1.52l2.29,0a2.3,2.3,0,0,0,.13.88,1.44,1.44,0,0,0,.39.56,1.43,1.43,0,0,0,.55.31,2.74,2.74,0,0,0,.64.09,2.13,2.13,0,0,0,.65-.09,1.24,1.24,0,0,0,.48-.26,1.11,1.11,0,0,0,.29-.39A1.39,1.39,0,0,0,73,173.43Z"/><circle class="cls-1" cx="101.09" cy="138.68" r="15.11" transform="translate(-4.64 3.5) rotate(-1.94)"/><path class="cls-2" d="M102.88,142.27a2.11,2.11,0,0,0-.12-.82,1.71,1.71,0,0,0-.41-.64,3,3,0,0,0-.76-.54,7.93,7.93,0,0,0-1.14-.49,22.76,22.76,0,0,1-2.11-.89,7.13,7.13,0,0,1-1.61-1.06,4.2,4.2,0,0,1-1-1.38,4.34,4.34,0,0,1-.35-1.87,4.28,4.28,0,0,1,.36-1.71,4,4,0,0,1,1-1.33,5,5,0,0,1,1.49-.91,6.49,6.49,0,0,1,1.94-.43l0-2.36,1.9,0,0,2.4a6,6,0,0,1,1.85.57,4.69,4.69,0,0,1,1.4,1.08,4.52,4.52,0,0,1,.87,1.55,6,6,0,0,1,.29,2l-3.44-.05a2.82,2.82,0,0,0-.56-2,2,2,0,0,0-1.56-.68,2.52,2.52,0,0,0-.92.13,1.84,1.84,0,0,0-.65.4,1.52,1.52,0,0,0-.37.61,2.09,2.09,0,0,0-.13.76,2.17,2.17,0,0,0,.1.74,1.6,1.6,0,0,0,.41.62,3.16,3.16,0,0,0,.76.54,10,10,0,0,0,1.19.53c.76.3,1.46.6,2.08.91a7.16,7.16,0,0,1,1.61,1.07,4.23,4.23,0,0,1,1,1.39,4.32,4.32,0,0,1,.35,1.86A4.19,4.19,0,0,1,106,144a3.83,3.83,0,0,1-1,1.32,4.59,4.59,0,0,1-1.51.88,7.16,7.16,0,0,1-2,.42l0,2.19-1.89,0,0-2.19a7.76,7.76,0,0,1-1.9-.46,5,5,0,0,1-1.62-1A4.42,4.42,0,0,1,95,143.62a5.5,5.5,0,0,1-.4-2.28l3.43,0a3.42,3.42,0,0,0,.21,1.32,2.16,2.16,0,0,0,.57.84,2.06,2.06,0,0,0,.83.46,3.84,3.84,0,0,0,1,.14,3.23,3.23,0,0,0,1-.13,2,2,0,0,0,.71-.39,1.5,1.5,0,0,0,.44-.59A1.87,1.87,0,0,0,102.88,142.27Z"/><path class="cls-3" d="M417.83,147.41,299.15,257.79l-61.09-57.86c-11.44,11.2-29.11,28.48-46.88,45.83-12.14,11.85-22,21.43-29.94,29.18l-55.5-.07c15.39-14.57,77.36-75.12,119.12-116l12.76-12.51,61.76,58.5,90.68-84.34Z"/><polygon class="cls-3" points="375.36 107.19 431.29 166.05 442.47 98.88 375.36 107.19"/><rect class="cls-4" y="274.24" width="512.35" height="1.36" rx="0.68"/><path class="cls-5" d="M139.42,270.22v3a1,1,0,0,1-.24.66,1.36,1.36,0,0,1-.65.43l-.26.07H80.45a1.31,1.31,0,0,1-1.39-1.11v-3.15a1.31,1.31,0,0,1,1.39-1.11H138l.24,0a1.1,1.1,0,0,1,.26.06,1.3,1.3,0,0,1,.65.44A1,1,0,0,1,139.42,270.22Z"/><path class="cls-5" d="M111.15,274.42H80.3a1.21,1.21,0,0,1-1.24-1.11v-3.15a1.21,1.21,0,0,1,1.24-1.11h27.06A9.4,9.4,0,0,0,111.15,274.42Z"/><rect class="cls-5" x="131.76" y="269.05" width="0.65" height="5.38"/><rect class="cls-5" x="129.55" y="269.05" width="0.65" height="5.38"/><rect class="cls-5" x="126.89" y="269.05" width="0.65" height="5.38"/><rect class="cls-5" x="122.82" y="269.05" width="0.65" height="5.38"/><rect class="cls-5" x="118.51" y="269.05" width="0.65" height="5.38"/><rect class="cls-5" x="111.91" y="269.05" width="0.65" height="5.38"/><rect class="cls-5" x="105.73" y="269.05" width="0.65" height="5.38"/><rect class="cls-5" x="100.21" y="269.05" width="0.65" height="5.38"/><rect class="cls-5" x="133.87" y="269.05" width="0.65" height="5.38"/><rect class="cls-5" x="135.26" y="269.05" width="0.65" height="5.38"/><rect class="cls-5" x="136.61" y="269.05" width="0.65" height="5.38"/><path class="cls-5" d="M138.27,269.07v5.34h-.65v-5.37H138Z"/><path class="cls-5" d="M139.18,269.57v4.34a1.36,1.36,0,0,1-.65.43v-5.21A1.3,1.3,0,0,1,139.18,269.57Z"/><path class="cls-5" d="M133.26,264.84v3a1,1,0,0,1-.23.65,1.4,1.4,0,0,1-.66.44,1,1,0,0,1-.25.06l-.25,0H74.3a1.33,1.33,0,0,1-1.4-1.11v-3.16a1.33,1.33,0,0,1,1.4-1.11h57.82l.25.06h0l0,0,.07,0,0,0h0l.06,0,.08,0,.05,0h0l0,0,.1.09,0,0,0,0,.06.06A1,1,0,0,1,133.26,264.84Z"/><path class="cls-5" d="M105,269.05H74.15a1.23,1.23,0,0,1-1.25-1.11v-3.16a1.23,1.23,0,0,1,1.25-1.11H101.2a.74.74,0,0,1,0,.14A9.41,9.41,0,0,0,105,269.05Z"/><rect class="cls-5" x="125.6" y="263.67" width="0.65" height="5.37"/><rect class="cls-5" x="123.39" y="263.67" width="0.65" height="5.37"/><rect class="cls-5" x="120.73" y="263.67" width="0.65" height="5.37"/><rect class="cls-5" x="116.66" y="263.67" width="0.65" height="5.37"/><rect class="cls-5" x="112.36" y="263.67" width="0.65" height="5.37"/><rect class="cls-5" x="105.76" y="263.67" width="0.65" height="5.37"/><rect class="cls-5" x="99.58" y="263.67" width="0.65" height="5.37"/><rect class="cls-5" x="94.06" y="263.67" width="0.65" height="5.37"/><rect class="cls-5" x="127.71" y="263.67" width="0.65" height="5.37"/><rect class="cls-5" x="129.11" y="263.67" width="0.65" height="5.37"/><rect class="cls-5" x="130.45" y="263.67" width="0.65" height="5.37"/><path class="cls-5" d="M132.12,263.69V269l-.25,0h-.41v-5.38h.41Z"/><path class="cls-5" d="M133,264.19v4.34a1.4,1.4,0,0,1-.66.44v-5.22A1.4,1.4,0,0,1,133,264.19Z"/><path class="cls-5" d="M136.24,259.6v3a1,1,0,0,1-.24.65,1.42,1.42,0,0,1-.65.44l-.26.06-.24,0H77.27a1.5,1.5,0,0,1-.64-.14,1.2,1.2,0,0,1-.75-.92v-3.21a1.32,1.32,0,0,1,1.39-1.11h57.58l.24,0a1.1,1.1,0,0,1,.26.06,1.42,1.42,0,0,1,.65.44A1,1,0,0,1,136.24,259.6Z"/><path class="cls-5" d="M108,263.81H77.12a1.23,1.23,0,0,1-.57-.14,1.16,1.16,0,0,1-.67-.92v-3.21a1.22,1.22,0,0,1,1.24-1.11h27.06a9.39,9.39,0,0,0,3.6,5.24Z"/><rect class="cls-5" x="128.58" y="258.43" width="0.65" height="5.37"/><rect class="cls-5" x="126.36" y="258.43" width="0.65" height="5.37"/><rect class="cls-5" x="123.71" y="258.43" width="0.65" height="5.37"/><rect class="cls-5" x="119.64" y="258.43" width="0.65" height="5.37"/><rect class="cls-5" x="115.33" y="258.43" width="0.65" height="5.37"/><rect class="cls-5" x="108.73" y="258.43" width="0.65" height="5.37"/><rect class="cls-5" x="102.55" y="258.43" width="0.65" height="5.37"/><rect class="cls-5" x="97.03" y="258.43" width="0.65" height="5.37"/><rect class="cls-5" x="130.69" y="258.43" width="0.65" height="5.37"/><rect class="cls-5" x="132.08" y="258.43" width="0.65" height="5.37"/><rect class="cls-5" x="133.43" y="258.43" width="0.65" height="5.37"/><path class="cls-5" d="M135.09,258.45v5.34l-.24,0h-.41v-5.38h.41Z"/><path class="cls-5" d="M136,259v4.34a1.42,1.42,0,0,1-.65.44v-5.22A1.42,1.42,0,0,1,136,259Z"/><path class="cls-5" d="M137.62,254.23v3a1,1,0,0,1-.24.65,1.35,1.35,0,0,1-.65.44,1.22,1.22,0,0,1-.26.06l-.24,0H78.65a1.31,1.31,0,0,1-1.39-1.11v-3.15a1.29,1.29,0,0,1,1.23-1.11h58l.26.07a1.41,1.41,0,0,1,.65.43A1,1,0,0,1,137.62,254.23Z"/><path class="cls-5" d="M109.35,258.43H78.5a1.21,1.21,0,0,1-1.24-1.11v-3.15a1.22,1.22,0,0,1,1.09-1.11h27.21A9.37,9.37,0,0,0,109.35,258.43Z"/><rect class="cls-5" x="129.96" y="253.06" width="0.65" height="5.38"/><rect class="cls-5" x="127.74" y="253.06" width="0.65" height="5.38"/><rect class="cls-5" x="125.09" y="253.06" width="0.65" height="5.38"/><rect class="cls-5" x="121.02" y="253.06" width="0.65" height="5.38"/><rect class="cls-5" x="116.71" y="253.06" width="0.65" height="5.38"/><rect class="cls-5" x="110.11" y="253.06" width="0.65" height="5.38"/><rect class="cls-5" x="103.93" y="253.06" width="0.65" height="5.38"/><rect class="cls-5" x="98.41" y="253.06" width="0.65" height="5.38"/><rect class="cls-5" x="132.07" y="253.06" width="0.65" height="5.38"/><rect class="cls-5" x="133.46" y="253.06" width="0.65" height="5.38"/><rect class="cls-5" x="134.8" y="253.06" width="0.65" height="5.38"/><path class="cls-5" d="M136.47,253.07v5.34l-.24,0h-.41v-5.37h.65Z"/><path class="cls-5" d="M137.38,253.57v4.34a1.35,1.35,0,0,1-.65.44v-5.22A1.5,1.5,0,0,1,137.38,253.57Z"/><path class="cls-5" d="M133.39,248.86v3a1,1,0,0,1-.24.66,1.48,1.48,0,0,1-.66.44l-.25.06H74.42A1.3,1.3,0,0,1,73,252a.13.13,0,0,1,0-.06v-3a.13.13,0,0,1,0-.06v-.05a1.24,1.24,0,0,1,1-1h.05a1.39,1.39,0,0,1,.3,0h57.82a1,1,0,0,1,.25.06,1.4,1.4,0,0,1,.66.44A1,1,0,0,1,133.39,248.86Z"/><path class="cls-5" d="M105.11,253.06H74.27A1.21,1.21,0,0,1,73,252a.13.13,0,0,1,0-.06v-3a.13.13,0,0,1,0-.06v-.05a1.2,1.2,0,0,1,1-1h.06l.22,0h27.06a.08.08,0,0,0,0,0,9.4,9.4,0,0,0,3.76,5.33Z"/><rect class="cls-5" x="125.73" y="247.69" width="0.65" height="5.38"/><rect class="cls-5" x="123.51" y="247.69" width="0.65" height="5.38"/><rect class="cls-5" x="120.85" y="247.69" width="0.65" height="5.38"/><rect class="cls-5" x="116.78" y="247.69" width="0.65" height="5.38"/><rect class="cls-5" x="112.48" y="247.69" width="0.65" height="5.38"/><rect class="cls-5" x="105.88" y="247.69" width="0.65" height="5.38"/><rect class="cls-5" x="99.7" y="247.69" width="0.65" height="5.38"/><rect class="cls-5" x="94.18" y="247.69" width="0.65" height="5.38"/><rect class="cls-5" x="127.83" y="247.69" width="0.65" height="5.38"/><rect class="cls-5" x="129.23" y="247.69" width="0.65" height="5.38"/><rect class="cls-5" x="130.57" y="247.69" width="0.65" height="5.38"/><path class="cls-5" d="M132.24,247.71v5.34h-.66v-5.37H132Z"/><path class="cls-5" d="M133.15,248.21v4.34a1.48,1.48,0,0,1-.66.44v-5.22A1.33,1.33,0,0,1,133.15,248.21Z"/><path class="cls-5" d="M133.26,243.52v3a1,1,0,0,1-.23.65,1.4,1.4,0,0,1-.66.44l-.2,0h0l-.25,0H74.05a1.29,1.29,0,0,1-1.15-1.09v-3.16a1.33,1.33,0,0,1,1.4-1.11h57.82a1,1,0,0,1,.25.06h0l0,0,.07,0,.08,0,.06,0,.08,0,.05,0h0l0,0,.1.08,0,0,0,0,.06.06A1,1,0,0,1,133.26,243.52Z"/><path class="cls-5" d="M105,247.73H74a1.22,1.22,0,0,1-1.09-1.1v-3.16a1.23,1.23,0,0,1,1.25-1.11H101.2a.74.74,0,0,1,0,.14,9.43,9.43,0,0,0,3.7,5.2Z"/><rect class="cls-5" x="125.6" y="242.35" width="0.65" height="5.38"/><rect class="cls-5" x="123.39" y="242.35" width="0.65" height="5.38"/><rect class="cls-5" x="120.73" y="242.35" width="0.65" height="5.38"/><rect class="cls-5" x="116.66" y="242.35" width="0.65" height="5.38"/><rect class="cls-5" x="112.36" y="242.35" width="0.65" height="5.38"/><rect class="cls-5" x="105.76" y="242.35" width="0.65" height="5.38"/><rect class="cls-5" x="99.58" y="242.35" width="0.65" height="5.38"/><rect class="cls-5" x="94.06" y="242.35" width="0.65" height="5.38"/><rect class="cls-5" x="127.71" y="242.35" width="0.65" height="5.38"/><rect class="cls-5" x="129.11" y="242.35" width="0.65" height="5.38"/><rect class="cls-5" x="130.45" y="242.35" width="0.65" height="5.38"/><path class="cls-5" d="M132.12,242.37v5.34l-.25,0h-.41v-5.38h.41Z"/><path class="cls-5" d="M133,242.87v4.34a1.4,1.4,0,0,1-.66.44v-5.22A1.4,1.4,0,0,1,133,242.87Z"/><path class="cls-5" d="M136.24,238.28v3a1,1,0,0,1-.24.65,1.42,1.42,0,0,1-.65.44l-.26.06-.24,0H77.27a1.5,1.5,0,0,1-.64-.14,1.2,1.2,0,0,1-.75-.92v-3.21a1.31,1.31,0,0,1,1.39-1.11h57.58l.24,0a1.1,1.1,0,0,1,.26.06,1.42,1.42,0,0,1,.65.44A1,1,0,0,1,136.24,238.28Z"/><path class="cls-5" d="M108,242.49H77.12a1.23,1.23,0,0,1-.57-.14,1.16,1.16,0,0,1-.67-.92v-3.21a1.21,1.21,0,0,1,1.24-1.11h27.06a9.39,9.39,0,0,0,3.6,5.24Z"/><rect class="cls-5" x="128.58" y="237.11" width="0.65" height="5.37"/><rect class="cls-5" x="126.36" y="237.11" width="0.65" height="5.37"/><rect class="cls-5" x="123.71" y="237.11" width="0.65" height="5.37"/><rect class="cls-5" x="119.64" y="237.11" width="0.65" height="5.37"/><rect class="cls-5" x="115.33" y="237.11" width="0.65" height="5.37"/><rect class="cls-5" x="108.73" y="237.11" width="0.65" height="5.37"/><rect class="cls-5" x="102.55" y="237.11" width="0.65" height="5.37"/><rect class="cls-5" x="97.03" y="237.11" width="0.65" height="5.37"/><rect class="cls-5" x="130.69" y="237.11" width="0.65" height="5.37"/><rect class="cls-5" x="132.08" y="237.11" width="0.65" height="5.37"/><rect class="cls-5" x="133.43" y="237.11" width="0.65" height="5.37"/><path class="cls-5" d="M135.09,237.13v5.34l-.24,0h-.41v-5.38h.41Z"/><path class="cls-5" d="M136,237.63V242a1.42,1.42,0,0,1-.65.44v-5.22A1.42,1.42,0,0,1,136,237.63Z"/><path class="cls-5" d="M140.94,232.9v3a1,1,0,0,1-.23.65,1.4,1.4,0,0,1-.66.44,1.14,1.14,0,0,1-.25.06l-.25,0H82a1.32,1.32,0,0,1-1.4-1.11v-3.16a1.3,1.3,0,0,1,1.23-1.1h58l.25.06a1.48,1.48,0,0,1,.66.44A1,1,0,0,1,140.94,232.9Z"/><path class="cls-5" d="M112.67,237.11H81.83A1.22,1.22,0,0,1,80.58,236v-3.16a1.23,1.23,0,0,1,1.1-1.1h27.21A9.39,9.39,0,0,0,112.67,237.11Z"/><rect class="cls-5" x="133.28" y="231.74" width="0.65" height="5.38"/><rect class="cls-5" x="131.07" y="231.74" width="0.65" height="5.38"/><rect class="cls-5" x="128.41" y="231.74" width="0.65" height="5.38"/><rect class="cls-5" x="124.34" y="231.74" width="0.65" height="5.38"/><rect class="cls-5" x="120.04" y="231.74" width="0.65" height="5.38"/><rect class="cls-5" x="113.44" y="231.74" width="0.65" height="5.38"/><rect class="cls-5" x="107.26" y="231.74" width="0.65" height="5.38"/><rect class="cls-5" x="101.74" y="231.74" width="0.65" height="5.38"/><rect class="cls-5" x="135.39" y="231.74" width="0.65" height="5.38"/><rect class="cls-5" x="136.79" y="231.74" width="0.65" height="5.38"/><rect class="cls-5" x="138.13" y="231.74" width="0.65" height="5.38"/><path class="cls-5" d="M139.8,231.75v5.34l-.25,0h-.41v-5.37h.66Z"/><path class="cls-5" d="M140.71,232.25v4.34a1.4,1.4,0,0,1-.66.44v-5.22A1.48,1.48,0,0,1,140.71,232.25Z"/><path class="cls-5" d="M133.39,227.54v3a1,1,0,0,1-.24.66,1.39,1.39,0,0,1-.66.43,1,1,0,0,1-.25.06l-.08,0H74.42A1.3,1.3,0,0,1,73,230.63a.13.13,0,0,1,0-.06v-3a.13.13,0,0,1,0-.06,1.3,1.3,0,0,1,1.39-1.11h57.65l.17,0a1,1,0,0,1,.25.06l.12,0,.08,0h0l.07,0h0l.06,0,.14.1,0,0h0l0,0h0l0,0,.06.07A1,1,0,0,1,133.39,227.54Z"/><path class="cls-5" d="M105.11,231.74H74.27A1.21,1.21,0,0,1,73,230.63a.13.13,0,0,1,0-.06v-3a.13.13,0,0,1,0-.06,1.21,1.21,0,0,1,1.24-1.11h27.06l0,.12a9.44,9.44,0,0,0,3.74,5.25Z"/><rect class="cls-5" x="125.73" y="226.37" width="0.65" height="5.38"/><rect class="cls-5" x="123.51" y="226.37" width="0.65" height="5.38"/><rect class="cls-5" x="120.85" y="226.37" width="0.65" height="5.38"/><rect class="cls-5" x="116.78" y="226.37" width="0.65" height="5.38"/><rect class="cls-5" x="112.48" y="226.37" width="0.65" height="5.38"/><rect class="cls-5" x="105.88" y="226.37" width="0.65" height="5.38"/><rect class="cls-5" x="99.7" y="226.37" width="0.65" height="5.38"/><rect class="cls-5" x="94.18" y="226.37" width="0.65" height="5.38"/><rect class="cls-5" x="127.83" y="226.37" width="0.65" height="5.38"/><rect class="cls-5" x="129.23" y="226.37" width="0.65" height="5.38"/><rect class="cls-5" x="130.57" y="226.37" width="0.65" height="5.38"/><path class="cls-5" d="M132.24,226.39v5.33a1,1,0,0,1-.25,0h-.41v-5.37H132Z"/><path class="cls-5" d="M133.15,226.89v4.34a1.39,1.39,0,0,1-.66.43v-5.21A1.33,1.33,0,0,1,133.15,226.89Z"/><path class="cls-5" d="M137.62,222.29v3a1.07,1.07,0,0,1-.24.66,1.41,1.41,0,0,1-.65.43,1.22,1.22,0,0,1-.26.06,1,1,0,0,1-.24,0H78.65a1.56,1.56,0,0,1-.62-.12,1.22,1.22,0,0,1-.77-.94v-3.2a1.27,1.27,0,0,1,1.23-1.1h57.74a1,1,0,0,1,.24,0,1.22,1.22,0,0,1,.26.06,1.41,1.41,0,0,1,.65.43A1.07,1.07,0,0,1,137.62,222.29Z"/><path class="cls-5" d="M109.35,226.49H78.5a1.23,1.23,0,0,1-.55-.12,1.18,1.18,0,0,1-.69-.94v-3.2a1.2,1.2,0,0,1,1.09-1.1h27.21a9.42,9.42,0,0,0,3.61,5.24Z"/><rect class="cls-5" x="129.96" y="221.12" width="0.65" height="5.37"/><rect class="cls-5" x="127.74" y="221.12" width="0.65" height="5.37"/><rect class="cls-5" x="125.09" y="221.12" width="0.65" height="5.37"/><rect class="cls-5" x="121.02" y="221.12" width="0.65" height="5.37"/><rect class="cls-5" x="116.71" y="221.12" width="0.65" height="5.37"/><rect class="cls-5" x="110.11" y="221.12" width="0.65" height="5.37"/><rect class="cls-5" x="103.93" y="221.12" width="0.65" height="5.37"/><rect class="cls-5" x="98.41" y="221.12" width="0.65" height="5.37"/><rect class="cls-5" x="132.07" y="221.12" width="0.65" height="5.37"/><rect class="cls-5" x="133.46" y="221.12" width="0.65" height="5.37"/><rect class="cls-5" x="134.8" y="221.12" width="0.65" height="5.37"/><path class="cls-5" d="M136.47,221.14v5.33a1,1,0,0,1-.24,0h-.41v-5.37h.41A1,1,0,0,1,136.47,221.14Z"/><path class="cls-5" d="M137.38,221.63V226a1.41,1.41,0,0,1-.65.43V221.2A1.41,1.41,0,0,1,137.38,221.63Z"/><path class="cls-5" d="M139.42,216.92v3a1,1,0,0,1-.24.65,1.37,1.37,0,0,1-.65.44l-.26.06H80.45A1.32,1.32,0,0,1,79.06,220v-3.16a1.32,1.32,0,0,1,1.39-1.11H138l.24,0a1.1,1.1,0,0,1,.26.06,1.37,1.37,0,0,1,.65.44A1,1,0,0,1,139.42,216.92Z"/><path class="cls-5" d="M111.15,221.13H80.3A1.22,1.22,0,0,1,79.06,220v-3.16a1.22,1.22,0,0,1,1.24-1.11h27.06a9.45,9.45,0,0,0,3.78,5.37Z"/><rect class="cls-5" x="131.76" y="215.75" width="0.65" height="5.37"/><rect class="cls-5" x="129.55" y="215.75" width="0.65" height="5.37"/><rect class="cls-5" x="126.89" y="215.75" width="0.65" height="5.37"/><rect class="cls-5" x="122.82" y="215.75" width="0.65" height="5.37"/><rect class="cls-5" x="118.51" y="215.75" width="0.65" height="5.37"/><rect class="cls-5" x="111.91" y="215.75" width="0.65" height="5.37"/><rect class="cls-5" x="105.73" y="215.75" width="0.65" height="5.37"/><rect class="cls-5" x="100.21" y="215.75" width="0.65" height="5.38"/><rect class="cls-5" x="133.87" y="215.75" width="0.65" height="5.37"/><rect class="cls-5" x="135.26" y="215.75" width="0.65" height="5.37"/><rect class="cls-5" x="136.61" y="215.75" width="0.65" height="5.37"/><path class="cls-5" d="M138.27,215.77v5.34l-.24,0h-.41v-5.38H138Z"/><path class="cls-5" d="M139.18,216.27v4.34a1.37,1.37,0,0,1-.65.44v-5.22A1.37,1.37,0,0,1,139.18,216.27Z"/><circle class="cls-6" cx="75.72" cy="247.07" r="27.36" transform="translate(-35.61 13.87) rotate(-8.48)"/><circle class="cls-7" cx="73.33" cy="247.07" r="27.36"/><path class="cls-6" d="M73.33,272.33A24.92,24.92,0,1,1,91,265,24.76,24.76,0,0,1,73.33,272.33Zm0-48.38A23.45,23.45,0,1,0,96.78,247.4,23.47,23.47,0,0,0,73.33,224Z"/><path class="cls-6" d="M76.77,254.63a4.23,4.23,0,0,0-.06-1.44,3.1,3.1,0,0,0-.62-1.21,5.74,5.74,0,0,0-1.22-1.08,15,15,0,0,0-1.9-1.06,38.52,38.52,0,0,1-3.5-1.92,12.37,12.37,0,0,1-2.62-2.14,7.39,7.39,0,0,1-1.55-2.59A8.28,8.28,0,0,1,66,237a7,7,0,0,1,1.93-2.15,8.77,8.77,0,0,1,2.77-1.32,11.84,11.84,0,0,1,3.45-.4l.49-4.1,3.31.39-.5,4.16a10.46,10.46,0,0,1,3.12,1.33A8.29,8.29,0,0,1,82.78,237,8.07,8.07,0,0,1,84,239.87a10.51,10.51,0,0,1,.14,3.53l-6-.71a5.09,5.09,0,0,0-.61-3.57A3.54,3.54,0,0,0,75,237.65a4.54,4.54,0,0,0-1.63.07,3.15,3.15,0,0,0-1.19.58,3,3,0,0,0-.77,1,4.54,4.54,0,0,0-.36,1.3,3.77,3.77,0,0,0,0,1.31,2.87,2.87,0,0,0,.59,1.15,5.43,5.43,0,0,0,1.24,1.08,17.06,17.06,0,0,0,2,1.14c1.27.66,2.43,1.32,3.46,2a12.38,12.38,0,0,1,2.61,2.15,7,7,0,0,1,1.81,5.91,7.48,7.48,0,0,1-.95,3,6.65,6.65,0,0,1-1.93,2.12,8.49,8.49,0,0,1-2.79,1.27,12.37,12.37,0,0,1-3.47.37l-.45,3.82-3.29-.39.45-3.8a14.12,14.12,0,0,1-3.23-1.15,8.83,8.83,0,0,1-2.64-2,8.1,8.1,0,0,1-1.66-3,9.43,9.43,0,0,1-.27-4l6,.71a6,6,0,0,0,.11,2.32,3.81,3.81,0,0,0,.85,1.58,3.69,3.69,0,0,0,1.37.94,6.48,6.48,0,0,0,1.64.42,5.18,5.18,0,0,0,1.73-.05,3.61,3.61,0,0,0,1.31-.54,2.85,2.85,0,0,0,.87-1A3.56,3.56,0,0,0,76.77,254.63Z"/><path class="cls-3" d="M126.66,182.27s-3.32,4.67-6.36,4.73-7.67-2.16-7.67-2.16-2.79-6.23-.89-8.66a4,4,0,0,1,3.88.64,5.81,5.81,0,0,1,1,1,3.2,3.2,0,0,0,1.6,1.08c2.17.66,4.74-.89,5.71.61a10.27,10.27,0,0,0,1.67,2A8,8,0,0,0,126.66,182.27Z"/><path class="cls-3" d="M83.41,216s11.73-28.42,32.83-29c0,0,19.49,2.17,20.57,29Z"/><path class="cls-3" d="M110.46,187.87s8.46,1.88,11.07.78c0,0,.4-3.54-3.17-3.05a7.51,7.51,0,0,1-5-1.3C112.08,183.62,110.11,186.39,110.46,187.87Z"/><path class="cls-3" d="M117.82,182.54c-.54.4-2.2-5.72-2.2-5.72a5.81,5.81,0,0,1,1,1,3.2,3.2,0,0,0,1.6,1.08C118.25,179.06,118.35,182.14,117.82,182.54Z"/><path class="cls-3" d="M125.63,181.48c-.11.07-4,2.41-4.56,2.41s2.89-4.4,2.89-4.4A10.27,10.27,0,0,0,125.63,181.48Z"/><path class="cls-8" d="M94.86,208c-.21-.19,8.3-12.54,10.65-12.63s7.61,2.71,11.43,3.07,7.51-.72,8.23,1.53,2.71,10.25,1.49,11.53S99.55,212,94.86,208Z"/><path class="cls-5" d="M463.68,271.46v2.08a.7.7,0,0,1-.17.45.94.94,0,0,1-.44.3l-.18,0H423.32a.89.89,0,0,1-.95-.76v-2.16a.89.89,0,0,1,.95-.76h39.57l.18.05a.86.86,0,0,1,.44.29A.7.7,0,0,1,463.68,271.46Z"/><path class="cls-5" d="M444.33,274.34H423.22a.83.83,0,0,1-.85-.76v-2.16a.83.83,0,0,1,.85-.76h18.51A6.49,6.49,0,0,0,444.33,274.34Z"/><rect class="cls-5" x="458.43" y="270.66" width="0.45" height="3.68"/><rect class="cls-5" x="456.92" y="270.66" width="0.45" height="3.68"/><rect class="cls-5" x="455.1" y="270.66" width="0.45" height="3.68"/><rect class="cls-5" x="452.31" y="270.66" width="0.45" height="3.68"/><rect class="cls-5" x="449.37" y="270.66" width="0.45" height="3.68"/><rect class="cls-5" x="444.85" y="270.66" width="0.45" height="3.68"/><rect class="cls-5" x="440.62" y="270.66" width="0.45" height="3.68"/><rect class="cls-5" x="436.84" y="270.66" width="0.45" height="3.68"/><rect class="cls-5" x="459.88" y="270.66" width="0.45" height="3.68"/><rect class="cls-5" x="460.83" y="270.66" width="0.45" height="3.68"/><rect class="cls-5" x="461.75" y="270.66" width="0.45" height="3.68"/><path class="cls-5" d="M462.89,270.67v3.66h-.45v-3.68h.45Z"/><path class="cls-5" d="M463.51,271v3a.94.94,0,0,1-.44.3v-3.57A.86.86,0,0,1,463.51,271Z"/><path class="cls-5" d="M459.46,267.78v2.08a.73.73,0,0,1-.16.45,1,1,0,0,1-.45.3l-.17,0H419.1a.91.91,0,0,1-1-.76v-2.16a.91.91,0,0,1,1-.76h39.58a.47.47,0,0,1,.17,0h0l.05,0,0,0h0l.05,0,.05,0,0,0h0l0,0,.07.06,0,0,0,0,0,0A.7.7,0,0,1,459.46,267.78Z"/><path class="cls-5" d="M440.11,270.66H419a.84.84,0,0,1-.85-.76v-2.16A.84.84,0,0,1,419,267h18.52l0,.09A6.43,6.43,0,0,0,440.11,270.66Z"/><rect class="cls-5" x="454.22" y="266.98" width="0.45" height="3.68"/><rect class="cls-5" x="452.7" y="266.98" width="0.45" height="3.68"/><rect class="cls-5" x="450.89" y="266.98" width="0.45" height="3.68"/><rect class="cls-5" x="448.1" y="266.98" width="0.45" height="3.68"/><rect class="cls-5" x="445.15" y="266.98" width="0.45" height="3.68"/><rect class="cls-5" x="440.64" y="266.98" width="0.45" height="3.68"/><rect class="cls-5" x="436.41" y="266.98" width="0.45" height="3.68"/><rect class="cls-5" x="432.63" y="266.98" width="0.45" height="3.68"/><rect class="cls-5" x="455.66" y="266.98" width="0.45" height="3.68"/><rect class="cls-5" x="456.62" y="266.98" width="0.45" height="3.68"/><rect class="cls-5" x="457.54" y="266.98" width="0.45" height="3.68"/><path class="cls-5" d="M458.68,267v3.65h-.45V267h.28Z"/><path class="cls-5" d="M459.3,267.34v3a1,1,0,0,1-.45.3V267A.9.9,0,0,1,459.3,267.34Z"/><path class="cls-5" d="M461.5,264.19v2.08a.73.73,0,0,1-.16.45,1,1,0,0,1-.45.3l-.18,0H421.14a1,1,0,0,1-.44-.09.81.81,0,0,1-.51-.63v-2.2a.89.89,0,0,1,.95-.76h39.41l.16,0,.18,0a.94.94,0,0,1,.45.3A.72.72,0,0,1,461.5,264.19Z"/><path class="cls-5" d="M442.15,267.07H421a.83.83,0,0,1-.39-.09.81.81,0,0,1-.46-.63v-2.2a.83.83,0,0,1,.85-.76h18.52A6.37,6.37,0,0,0,442,267Z"/><rect class="cls-5" x="456.26" y="263.39" width="0.45" height="3.68"/><rect class="cls-5" x="454.74" y="263.39" width="0.45" height="3.68"/><rect class="cls-5" x="452.92" y="263.39" width="0.45" height="3.68"/><rect class="cls-5" x="450.14" y="263.39" width="0.45" height="3.68"/><rect class="cls-5" x="447.19" y="263.39" width="0.45" height="3.68"/><rect class="cls-5" x="442.67" y="263.39" width="0.45" height="3.68"/><rect class="cls-5" x="438.44" y="263.39" width="0.45" height="3.68"/><rect class="cls-5" x="434.67" y="263.39" width="0.45" height="3.68"/><rect class="cls-5" x="457.7" y="263.39" width="0.45" height="3.68"/><rect class="cls-5" x="458.65" y="263.39" width="0.45" height="3.68"/><rect class="cls-5" x="459.57" y="263.39" width="0.45" height="3.68"/><path class="cls-5" d="M460.71,263.41v3.65h-.44v-3.68h.28Z"/><path class="cls-5" d="M461.34,263.75v3a1,1,0,0,1-.45.3v-3.57A.94.94,0,0,1,461.34,263.75Z"/><path class="cls-5" d="M462.44,260.52v2.07a.73.73,0,0,1-.16.45.9.9,0,0,1-.45.3l-.17,0H422.08a.9.9,0,0,1-.95-.76v-2.16a.9.9,0,0,1,.84-.75h39.69l.17,0a.9.9,0,0,1,.45.3A.73.73,0,0,1,462.44,260.52Z"/><path class="cls-5" d="M443.09,263.39H422a.83.83,0,0,1-.85-.76v-2.16a.83.83,0,0,1,.75-.75H440.5A6.47,6.47,0,0,0,443.09,263.39Z"/><rect class="cls-5" x="457.2" y="259.72" width="0.45" height="3.68"/><rect class="cls-5" x="455.68" y="259.72" width="0.45" height="3.68"/><rect class="cls-5" x="453.87" y="259.72" width="0.45" height="3.68"/><rect class="cls-5" x="451.08" y="259.72" width="0.45" height="3.68"/><rect class="cls-5" x="448.13" y="259.72" width="0.45" height="3.68"/><rect class="cls-5" x="443.62" y="259.72" width="0.45" height="3.68"/><rect class="cls-5" x="439.39" y="259.72" width="0.45" height="3.68"/><rect class="cls-5" x="435.61" y="259.72" width="0.45" height="3.68"/><rect class="cls-5" x="458.64" y="259.72" width="0.45" height="3.68"/><rect class="cls-5" x="459.6" y="259.72" width="0.45" height="3.68"/><rect class="cls-5" x="460.52" y="259.72" width="0.45" height="3.68"/><path class="cls-5" d="M461.66,259.73v3.65h-.45v-3.67h.45Z"/><path class="cls-5" d="M462.28,260.07v3a.9.9,0,0,1-.45.3v-3.57A.9.9,0,0,1,462.28,260.07Z"/><path class="cls-5" d="M459.55,256.84v2.08a.68.68,0,0,1-.17.45,1,1,0,0,1-.44.3l-.18,0H419.19a.91.91,0,0,1-1-.76v-2.19a.86.86,0,0,1,.71-.7h0l.21,0h39.57a.58.58,0,0,1,.18,0,.92.92,0,0,1,.44.3A.66.66,0,0,1,459.55,256.84Z"/><path class="cls-5" d="M440.2,259.72H419.09a.84.84,0,0,1-.86-.76v-2.19a.82.82,0,0,1,.66-.71h0l.16,0H437.6v0a6.46,6.46,0,0,0,2.58,3.65Z"/><rect class="cls-5" x="454.3" y="256.04" width="0.45" height="3.68"/><rect class="cls-5" x="452.79" y="256.04" width="0.45" height="3.68"/><rect class="cls-5" x="450.97" y="256.04" width="0.45" height="3.68"/><rect class="cls-5" x="448.18" y="256.04" width="0.45" height="3.68"/><rect class="cls-5" x="445.24" y="256.04" width="0.45" height="3.68"/><rect class="cls-5" x="440.72" y="256.04" width="0.45" height="3.68"/><rect class="cls-5" x="436.49" y="256.04" width="0.45" height="3.68"/><rect class="cls-5" x="432.71" y="256.04" width="0.45" height="3.68"/><rect class="cls-5" x="455.75" y="256.04" width="0.45" height="3.68"/><rect class="cls-5" x="456.7" y="256.04" width="0.45" height="3.68"/><rect class="cls-5" x="457.62" y="256.04" width="0.45" height="3.68"/><path class="cls-5" d="M458.76,256.06v3.65h-.45V256h.28Z"/><path class="cls-5" d="M459.38,256.4v3a1,1,0,0,1-.44.3V256.1A.92.92,0,0,1,459.38,256.4Z"/><path class="cls-5" d="M459.46,253.19v2.08a.75.75,0,0,1-.16.45.88.88,0,0,1-.45.29l-.13,0H418.93a.88.88,0,0,1-.78-.75v-2.16a.91.91,0,0,1,1-.76h39.58l.17,0h0l.05,0,.05,0,.05,0,.05,0,0,0h0l.07.06,0,0,0,0,0,0A.75.75,0,0,1,459.46,253.19Z"/><path class="cls-5" d="M440.11,256.07H418.9a.81.81,0,0,1-.75-.75v-2.16a.84.84,0,0,1,.85-.76h18.52l0,.09a6.36,6.36,0,0,0,2.53,3.56Z"/><rect class="cls-5" x="454.22" y="252.39" width="0.45" height="3.68"/><rect class="cls-5" x="452.7" y="252.39" width="0.45" height="3.68"/><rect class="cls-5" x="450.89" y="252.39" width="0.45" height="3.68"/><rect class="cls-5" x="448.1" y="252.39" width="0.45" height="3.68"/><rect class="cls-5" x="445.15" y="252.39" width="0.45" height="3.68"/><rect class="cls-5" x="440.64" y="252.39" width="0.45" height="3.68"/><rect class="cls-5" x="436.41" y="252.39" width="0.45" height="3.68"/><rect class="cls-5" x="432.63" y="252.39" width="0.45" height="3.68"/><rect class="cls-5" x="455.66" y="252.39" width="0.45" height="3.68"/><rect class="cls-5" x="456.62" y="252.39" width="0.45" height="3.68"/><rect class="cls-5" x="457.54" y="252.39" width="0.45" height="3.68"/><path class="cls-5" d="M458.68,252.4v3.66h-.45v-3.68h.45Z"/><path class="cls-5" d="M459.3,252.74v3a.88.88,0,0,1-.45.29v-3.57A1,1,0,0,1,459.3,252.74Z"/><path class="cls-5" d="M461.5,249.6v2.08a.73.73,0,0,1-.16.45,1,1,0,0,1-.45.3l-.18,0H421.14a1,1,0,0,1-.44-.09.81.81,0,0,1-.51-.63v-2.2a.89.89,0,0,1,.95-.76h39.57l.18.05a.94.94,0,0,1,.45.3A.7.7,0,0,1,461.5,249.6Z"/><path class="cls-5" d="M442.15,252.48H421a.83.83,0,0,1-.39-.09.81.81,0,0,1-.46-.63v-2.2a.83.83,0,0,1,.85-.76h18.52a6.37,6.37,0,0,0,2.46,3.59Z"/><rect class="cls-5" x="456.26" y="248.8" width="0.45" height="3.68"/><rect class="cls-5" x="454.74" y="248.8" width="0.45" height="3.68"/><rect class="cls-5" x="452.92" y="248.8" width="0.45" height="3.68"/><rect class="cls-5" x="450.14" y="248.8" width="0.45" height="3.68"/><rect class="cls-5" x="447.19" y="248.8" width="0.45" height="3.68"/><rect class="cls-5" x="442.67" y="248.8" width="0.45" height="3.68"/><rect class="cls-5" x="438.44" y="248.8" width="0.45" height="3.68"/><rect class="cls-5" x="434.67" y="248.8" width="0.45" height="3.68"/><rect class="cls-5" x="457.7" y="248.8" width="0.45" height="3.68"/><rect class="cls-5" x="458.65" y="248.8" width="0.45" height="3.68"/><rect class="cls-5" x="459.57" y="248.8" width="0.45" height="3.68"/><path class="cls-5" d="M460.71,248.81v3.66h-.44V248.8h.44Z"/><path class="cls-5" d="M461.34,249.16v3a1,1,0,0,1-.45.3v-3.57A.94.94,0,0,1,461.34,249.16Z"/><path class="cls-5" d="M464.72,245.92V248a.73.73,0,0,1-.16.45,1,1,0,0,1-.45.3l-.18,0H424.36a.89.89,0,0,1-.95-.76v-2.16a.86.86,0,0,1,.84-.75h39.52l.16,0a.58.58,0,0,1,.18,0,.94.94,0,0,1,.45.3A.7.7,0,0,1,464.72,245.92Z"/><path class="cls-5" d="M445.37,248.8H424.26a.83.83,0,0,1-.85-.76v-2.16a.81.81,0,0,1,.75-.75h18.62A6.42,6.42,0,0,0,445.37,248.8Z"/><rect class="cls-5" x="459.48" y="245.12" width="0.45" height="3.68"/><rect class="cls-5" x="457.96" y="245.12" width="0.45" height="3.68"/><rect class="cls-5" x="456.14" y="245.12" width="0.45" height="3.68"/><rect class="cls-5" x="453.36" y="245.12" width="0.45" height="3.68"/><rect class="cls-5" x="450.41" y="245.12" width="0.45" height="3.68"/><rect class="cls-5" x="445.89" y="245.12" width="0.45" height="3.68"/><rect class="cls-5" x="441.66" y="245.12" width="0.45" height="3.68"/><rect class="cls-5" x="437.89" y="245.12" width="0.45" height="3.68"/><rect class="cls-5" x="460.92" y="245.12" width="0.45" height="3.68"/><rect class="cls-5" x="461.87" y="245.12" width="0.45" height="3.68"/><rect class="cls-5" x="462.79" y="245.12" width="0.45" height="3.68"/><path class="cls-5" d="M463.94,245.14v3.65h-.45v-3.68h.28Z"/><path class="cls-5" d="M464.56,245.48v3a1,1,0,0,1-.45.3v-3.57A.94.94,0,0,1,464.56,245.48Z"/><path class="cls-5" d="M459.55,242.25v2.08a.7.7,0,0,1-.17.45.9.9,0,0,1-.44.29l-.18.05H419.19a.91.91,0,0,1-1-.76v-2.16a.91.91,0,0,1,1-.76h39.57l.18,0,.08,0,.05,0h0l.05,0h0l0,0,.1.07,0,0h0v0h0l0,0,0,0A.7.7,0,0,1,459.55,242.25Z"/><path class="cls-5" d="M440.2,245.13H419.09a.84.84,0,0,1-.86-.76v-2.16a.84.84,0,0,1,.86-.76H437.6l0,.08a6.43,6.43,0,0,0,2.56,3.59Z"/><rect class="cls-5" x="454.3" y="241.45" width="0.45" height="3.68"/><rect class="cls-5" x="452.79" y="241.45" width="0.45" height="3.68"/><rect class="cls-5" x="450.97" y="241.45" width="0.45" height="3.68"/><rect class="cls-5" x="448.18" y="241.45" width="0.45" height="3.68"/><rect class="cls-5" x="445.24" y="241.45" width="0.45" height="3.68"/><rect class="cls-5" x="440.72" y="241.45" width="0.45" height="3.68"/><rect class="cls-5" x="436.49" y="241.45" width="0.45" height="3.68"/><rect class="cls-5" x="432.71" y="241.45" width="0.45" height="3.68"/><rect class="cls-5" x="455.75" y="241.45" width="0.45" height="3.68"/><rect class="cls-5" x="456.7" y="241.45" width="0.45" height="3.68"/><rect class="cls-5" x="457.62" y="241.45" width="0.45" height="3.68"/><path class="cls-5" d="M458.76,241.46v3.66h-.45v-3.68h.45Z"/><path class="cls-5" d="M459.38,241.8v3a.9.9,0,0,1-.44.29V241.5A1,1,0,0,1,459.38,241.8Z"/><path class="cls-5" d="M462.44,238.66v2.07a.73.73,0,0,1-.16.45.9.9,0,0,1-.45.3l-.17,0H422.08a1.16,1.16,0,0,1-.42-.08.84.84,0,0,1-.53-.64v-2.19a.9.9,0,0,1,.84-.76h39.69l.17,0a1,1,0,0,1,.45.3A.73.73,0,0,1,462.44,238.66Z"/><path class="cls-5" d="M443.09,241.53H422a1,1,0,0,1-.38-.08.82.82,0,0,1-.47-.64v-2.19a.83.83,0,0,1,.75-.76H440.5a6.45,6.45,0,0,0,2.47,3.59Z"/><rect class="cls-5" x="457.2" y="237.86" width="0.45" height="3.68"/><rect class="cls-5" x="455.68" y="237.86" width="0.45" height="3.68"/><rect class="cls-5" x="453.87" y="237.86" width="0.45" height="3.68"/><rect class="cls-5" x="451.08" y="237.86" width="0.45" height="3.68"/><rect class="cls-5" x="448.13" y="237.86" width="0.45" height="3.68"/><rect class="cls-5" x="443.62" y="237.86" width="0.45" height="3.68"/><rect class="cls-5" x="439.39" y="237.86" width="0.45" height="3.68"/><rect class="cls-5" x="435.61" y="237.86" width="0.45" height="3.68"/><rect class="cls-5" x="458.64" y="237.86" width="0.45" height="3.68"/><rect class="cls-5" x="459.6" y="237.86" width="0.45" height="3.68"/><rect class="cls-5" x="460.52" y="237.86" width="0.45" height="3.68"/><path class="cls-5" d="M461.66,237.87v3.65h-.45v-3.67h.45Z"/><path class="cls-5" d="M462.28,238.21v3a.9.9,0,0,1-.45.3v-3.57A1,1,0,0,1,462.28,238.21Z"/><path class="cls-5" d="M463.68,235v2.08a.68.68,0,0,1-.17.45.94.94,0,0,1-.44.3l-.18,0H423.32a.89.89,0,0,1-.95-.76v-2.16a.89.89,0,0,1,.95-.76h39.4l.17,0a.58.58,0,0,1,.18,0,.87.87,0,0,1,.44.3A.66.66,0,0,1,463.68,235Z"/><path class="cls-5" d="M444.33,237.86H423.22a.83.83,0,0,1-.85-.76v-2.16a.83.83,0,0,1,.85-.76h18.51a6.52,6.52,0,0,0,2.59,3.68Z"/><rect class="cls-5" x="458.43" y="234.18" width="0.45" height="3.68"/><rect class="cls-5" x="456.92" y="234.18" width="0.45" height="3.68"/><rect class="cls-5" x="455.1" y="234.18" width="0.45" height="3.68"/><rect class="cls-5" x="452.31" y="234.18" width="0.45" height="3.68"/><rect class="cls-5" x="449.37" y="234.18" width="0.45" height="3.68"/><rect class="cls-5" x="444.85" y="234.18" width="0.45" height="3.68"/><rect class="cls-5" x="440.62" y="234.18" width="0.45" height="3.68"/><rect class="cls-5" x="436.84" y="234.18" width="0.45" height="3.68"/><rect class="cls-5" x="459.88" y="234.18" width="0.45" height="3.68"/><rect class="cls-5" x="460.83" y="234.18" width="0.45" height="3.68"/><rect class="cls-5" x="461.75" y="234.18" width="0.45" height="3.68"/><path class="cls-5" d="M462.89,234.2v3.65h-.45v-3.68h.28Z"/><path class="cls-5" d="M463.51,234.54v3a.94.94,0,0,1-.44.3v-3.57A.87.87,0,0,1,463.51,234.54Z"/><path class="cls-5" d="M413.27,271.2v2.29a.74.74,0,0,1-.18.49,1,1,0,0,1-.49.33l-.19.05H368.79a1,1,0,0,1-1.05-.83v-2.39a1,1,0,0,1,1.05-.83h43.62l.19.05a1,1,0,0,1,.49.33A.74.74,0,0,1,413.27,271.2Z"/><path class="cls-5" d="M391.94,274.37H368.67a.91.91,0,0,1-.93-.83v-2.39a.91.91,0,0,1,.93-.83h20.42A7.07,7.07,0,0,0,391.94,274.37Z"/><rect class="cls-5" x="407.49" y="270.32" width="0.49" height="4.06"/><rect class="cls-5" x="405.82" y="270.32" width="0.49" height="4.06"/><rect class="cls-5" x="403.82" y="270.32" width="0.49" height="4.06"/><rect class="cls-5" x="400.75" y="270.32" width="0.49" height="4.06"/><rect class="cls-5" x="397.5" y="270.32" width="0.49" height="4.06"/><rect class="cls-5" x="392.52" y="270.32" width="0.49" height="4.06"/><rect class="cls-5" x="387.86" y="270.32" width="0.49" height="4.06"/><rect class="cls-5" x="383.69" y="270.32" width="0.49" height="4.06"/><rect class="cls-5" x="409.08" y="270.32" width="0.49" height="4.06"/><rect class="cls-5" x="410.14" y="270.32" width="0.49" height="4.06"/><rect class="cls-5" x="411.15" y="270.32" width="0.49" height="4.06"/><path class="cls-5" d="M412.41,270.33v4h-.5v-4.05h.5Z"/><path class="cls-5" d="M413.09,270.71V274a1,1,0,0,1-.49.33v-3.93A1,1,0,0,1,413.09,270.71Z"/><path class="cls-5" d="M408.63,267.14v2.29a.8.8,0,0,1-.18.5,1.07,1.07,0,0,1-.49.33l-.2,0-.18,0H364.14a1,1,0,0,1-1.05-.84V267.1a1,1,0,0,1,1.05-.84h43.62l.2,0H408l.05,0,0,0h0l.05,0,.05,0,0,0h0l0,0,.08.07,0,0,0,0,0,0A.8.8,0,0,1,408.63,267.14Z"/><path class="cls-5" d="M387.3,270.32H364a.93.93,0,0,1-.94-.84V267.1a.92.92,0,0,1,.94-.84h20.41l0,.1A7.11,7.11,0,0,0,387.3,270.32Z"/><rect class="cls-5" x="402.85" y="266.26" width="0.49" height="4.05"/><rect class="cls-5" x="401.18" y="266.26" width="0.49" height="4.05"/><rect class="cls-5" x="399.17" y="266.26" width="0.49" height="4.05"/><rect class="cls-5" x="396.1" y="266.26" width="0.49" height="4.05"/><rect class="cls-5" x="392.86" y="266.26" width="0.49" height="4.05"/><rect class="cls-5" x="387.88" y="266.26" width="0.49" height="4.05"/><rect class="cls-5" x="383.21" y="266.26" width="0.49" height="4.05"/><rect class="cls-5" x="379.05" y="266.26" width="0.49" height="4.05"/><rect class="cls-5" x="404.44" y="266.26" width="0.49" height="4.05"/><rect class="cls-5" x="405.49" y="266.26" width="0.49" height="4.05"/><rect class="cls-5" x="406.51" y="266.26" width="0.49" height="4.05"/><path class="cls-5" d="M407.76,266.28v4l-.18,0h-.31v-4.06h.31Z"/><path class="cls-5" d="M408.45,266.65v3.28a1.07,1.07,0,0,1-.49.33v-3.94A1.07,1.07,0,0,1,408.45,266.65Z"/><path class="cls-5" d="M410.87,263.19v2.29a.74.74,0,0,1-.18.49,1,1,0,0,1-.49.33l-.19.05H366.39a1.13,1.13,0,0,1-.49-.1.89.89,0,0,1-.56-.7v-2.42a1,1,0,0,1,1.05-.83H410l.19.05a1,1,0,0,1,.49.33A.74.74,0,0,1,410.87,263.19Z"/><path class="cls-5" d="M389.54,266.36H366.27a.91.91,0,0,1-.43-.1.88.88,0,0,1-.5-.7v-2.42a.91.91,0,0,1,.93-.83h20.42a7.06,7.06,0,0,0,2.71,3.95Z"/><rect class="cls-5" x="405.09" y="262.31" width="0.49" height="4.06"/><rect class="cls-5" x="403.42" y="262.31" width="0.49" height="4.06"/><rect class="cls-5" x="401.42" y="262.31" width="0.49" height="4.06"/><rect class="cls-5" x="398.35" y="262.31" width="0.49" height="4.06"/><rect class="cls-5" x="395.1" y="262.31" width="0.49" height="4.06"/><rect class="cls-5" x="390.12" y="262.31" width="0.49" height="4.06"/><rect class="cls-5" x="385.46" y="262.31" width="0.49" height="4.06"/><rect class="cls-5" x="381.29" y="262.31" width="0.49" height="4.06"/><rect class="cls-5" x="406.68" y="262.31" width="0.49" height="4.06"/><rect class="cls-5" x="407.74" y="262.31" width="0.49" height="4.06"/><rect class="cls-5" x="408.75" y="262.31" width="0.49" height="4.06"/><path class="cls-5" d="M410,262.32v4h-.5v-4.05h.5Z"/><path class="cls-5" d="M410.69,262.7V266a1,1,0,0,1-.49.33v-3.93A1,1,0,0,1,410.69,262.7Z"/><path class="cls-5" d="M411.91,259.13v2.29a.75.75,0,0,1-.18.5,1.07,1.07,0,0,1-.49.33l-.19,0-.19,0H367.43a1,1,0,0,1-1.05-.84v-2.38a1,1,0,0,1,.92-.83h43.56l.19,0,.19,0a1.07,1.07,0,0,1,.49.33A.74.74,0,0,1,411.91,259.13Z"/><path class="cls-5" d="M390.58,262.31H367.31a.91.91,0,0,1-.93-.84v-2.38a.9.9,0,0,1,.82-.83h20.53A7.17,7.17,0,0,0,390.58,262.31Z"/><rect class="cls-5" x="406.13" y="258.25" width="0.49" height="4.06"/><rect class="cls-5" x="404.46" y="258.25" width="0.49" height="4.06"/><rect class="cls-5" x="402.46" y="258.25" width="0.49" height="4.06"/><rect class="cls-5" x="399.39" y="258.25" width="0.49" height="4.06"/><rect class="cls-5" x="396.14" y="258.25" width="0.49" height="4.06"/><rect class="cls-5" x="391.16" y="258.25" width="0.49" height="4.06"/><rect class="cls-5" x="386.5" y="258.25" width="0.49" height="4.06"/><rect class="cls-5" x="382.33" y="258.25" width="0.49" height="4.06"/><rect class="cls-5" x="407.73" y="258.25" width="0.49" height="4.06"/><rect class="cls-5" x="408.78" y="258.25" width="0.49" height="4.06"/><rect class="cls-5" x="409.79" y="258.25" width="0.49" height="4.06"/><path class="cls-5" d="M411.05,258.27v4l-.19,0h-.31v-4.06h.31Z"/><path class="cls-5" d="M411.73,258.64v3.28a1.07,1.07,0,0,1-.49.33v-3.94A1.07,1.07,0,0,1,411.73,258.64Z"/><path class="cls-5" d="M408.72,255.09v2.29a.8.8,0,0,1-.18.49,1.07,1.07,0,0,1-.49.33l-.2,0H364.23a1,1,0,0,1-1.05-.84V255a.94.94,0,0,1,.78-.77h0l.22,0h43.62l.2,0a1.15,1.15,0,0,1,.49.33A.8.8,0,0,1,408.72,255.09Z"/><path class="cls-5" d="M387.39,258.26H364.12a.92.92,0,0,1-.94-.84V255a.88.88,0,0,1,.72-.77h0l.17,0h20.41v0a7.11,7.11,0,0,0,2.84,4Z"/><rect class="cls-5" x="402.94" y="254.2" width="0.49" height="4.06"/><rect class="cls-5" x="401.27" y="254.2" width="0.49" height="4.06"/><rect class="cls-5" x="399.27" y="254.2" width="0.49" height="4.06"/><rect class="cls-5" x="396.19" y="254.2" width="0.49" height="4.06"/><rect class="cls-5" x="392.95" y="254.2" width="0.49" height="4.06"/><rect class="cls-5" x="387.97" y="254.2" width="0.49" height="4.06"/><rect class="cls-5" x="383.3" y="254.2" width="0.49" height="4.06"/><rect class="cls-5" x="379.14" y="254.2" width="0.49" height="4.06"/><rect class="cls-5" x="404.53" y="254.2" width="0.49" height="4.06"/><rect class="cls-5" x="405.58" y="254.2" width="0.49" height="4.06"/><rect class="cls-5" x="406.6" y="254.2" width="0.49" height="4.06"/><path class="cls-5" d="M407.85,254.22v4l-.18,0h-.31V254.2h.31Z"/><path class="cls-5" d="M408.54,254.59v3.28a1.07,1.07,0,0,1-.49.33v-3.94A1.07,1.07,0,0,1,408.54,254.59Z"/><path class="cls-5" d="M408.63,251.06v2.29a.8.8,0,0,1-.18.49,1,1,0,0,1-.49.33l-.15,0H364a1,1,0,0,1-.86-.82V251a1,1,0,0,1,1.05-.83h43.62l.2.05H408l.05,0,.06,0,.05,0,.05,0,0,0h0l0,0,.08.07,0,0,0,0,0,0A.8.8,0,0,1,408.63,251.06Z"/><path class="cls-5" d="M387.3,254.23H363.91a.93.93,0,0,1-.82-.83V251a.92.92,0,0,1,.94-.83h20.41l0,.1a7.07,7.07,0,0,0,2.79,3.92Z"/><rect class="cls-5" x="402.85" y="250.18" width="0.49" height="4.06"/><rect class="cls-5" x="401.18" y="250.18" width="0.49" height="4.06"/><rect class="cls-5" x="399.17" y="250.18" width="0.49" height="4.06"/><rect class="cls-5" x="396.1" y="250.18" width="0.49" height="4.06"/><rect class="cls-5" x="392.86" y="250.18" width="0.49" height="4.06"/><rect class="cls-5" x="387.88" y="250.18" width="0.49" height="4.06"/><rect class="cls-5" x="383.21" y="250.18" width="0.49" height="4.06"/><rect class="cls-5" x="379.05" y="250.18" width="0.49" height="4.06"/><rect class="cls-5" x="404.44" y="250.18" width="0.49" height="4.06"/><rect class="cls-5" x="405.49" y="250.18" width="0.49" height="4.06"/><rect class="cls-5" x="406.51" y="250.18" width="0.49" height="4.06"/><path class="cls-5" d="M407.76,250.19v4h-.49v-4h.49Z"/><path class="cls-5" d="M408.45,250.57v3.27a1,1,0,0,1-.49.33v-3.93A1,1,0,0,1,408.45,250.57Z"/><path class="cls-5" d="M410.87,247.11v2.28a.75.75,0,0,1-.18.5,1.07,1.07,0,0,1-.49.33l-.19,0-.19,0H366.39a1.3,1.3,0,0,1-.49-.1.92.92,0,0,1-.56-.7v-2.42a1,1,0,0,1,1.05-.84h43.43l.19,0,.19,0a1.07,1.07,0,0,1,.49.33A.75.75,0,0,1,410.87,247.11Z"/><path class="cls-5" d="M389.54,250.28H366.27a1,1,0,0,1-.43-.1.91.91,0,0,1-.5-.7v-2.42a.91.91,0,0,1,.93-.84h20.42a7.08,7.08,0,0,0,2.71,4A.71.71,0,0,1,389.54,250.28Z"/><rect class="cls-5" x="405.09" y="246.22" width="0.49" height="4.05"/><rect class="cls-5" x="403.42" y="246.22" width="0.49" height="4.05"/><rect class="cls-5" x="401.42" y="246.22" width="0.49" height="4.05"/><rect class="cls-5" x="398.35" y="246.22" width="0.49" height="4.05"/><rect class="cls-5" x="395.1" y="246.22" width="0.49" height="4.05"/><rect class="cls-5" x="390.12" y="246.22" width="0.49" height="4.05"/><rect class="cls-5" x="385.46" y="246.22" width="0.49" height="4.05"/><rect class="cls-5" x="381.29" y="246.22" width="0.49" height="4.05"/><rect class="cls-5" x="406.68" y="246.22" width="0.49" height="4.05"/><rect class="cls-5" x="407.74" y="246.22" width="0.49" height="4.05"/><rect class="cls-5" x="408.75" y="246.22" width="0.49" height="4.05"/><path class="cls-5" d="M410,246.24v4l-.19,0h-.31v-4.06h.31Z"/><path class="cls-5" d="M410.69,246.61v3.28a1.07,1.07,0,0,1-.49.33v-3.94A1.07,1.07,0,0,1,410.69,246.61Z"/><path class="cls-5" d="M414.42,243.05v2.29a.74.74,0,0,1-.18.49,1,1,0,0,1-.49.33l-.19.05H369.94a1,1,0,0,1-1.05-.83V243a1,1,0,0,1,.92-.83h43.75l.19,0a1,1,0,0,1,.49.33A.74.74,0,0,1,414.42,243.05Z"/><path class="cls-5" d="M393.09,246.22H369.82a.91.91,0,0,1-.93-.83V243a.91.91,0,0,1,.82-.83h20.53A7,7,0,0,0,393.09,246.22Z"/><rect class="cls-5" x="408.64" y="242.17" width="0.49" height="4.06"/><rect class="cls-5" x="406.97" y="242.17" width="0.49" height="4.06"/><rect class="cls-5" x="404.97" y="242.17" width="0.49" height="4.06"/><rect class="cls-5" x="401.9" y="242.17" width="0.49" height="4.06"/><rect class="cls-5" x="398.65" y="242.17" width="0.49" height="4.06"/><rect class="cls-5" x="393.67" y="242.17" width="0.49" height="4.06"/><rect class="cls-5" x="389.01" y="242.17" width="0.49" height="4.06"/><rect class="cls-5" x="384.84" y="242.17" width="0.49" height="4.06"/><rect class="cls-5" x="410.23" y="242.17" width="0.49" height="4.06"/><rect class="cls-5" x="411.29" y="242.17" width="0.49" height="4.06"/><rect class="cls-5" x="412.3" y="242.17" width="0.49" height="4.06"/><path class="cls-5" d="M413.56,242.18v4h-.5v-4.05h.5Z"/><path class="cls-5" d="M414.24,242.56v3.27a1,1,0,0,1-.49.33v-3.93A1,1,0,0,1,414.24,242.56Z"/><path class="cls-5" d="M408.72,239v2.29a.8.8,0,0,1-.18.49,1,1,0,0,1-.49.33l-.2,0H364.23a1,1,0,0,1-1.05-.83V239a1,1,0,0,1,1.05-.84h43.62l.2.05.09,0,.05,0h0l.05,0h0l.05,0,.1.08,0,0h0v0h0l0,0,0,0A.8.8,0,0,1,408.72,239Z"/><path class="cls-5" d="M387.39,242.17H364.12a.92.92,0,0,1-.94-.83V239a.92.92,0,0,1,.94-.84h20.41l0,.09a7.09,7.09,0,0,0,2.82,4Z"/><rect class="cls-5" x="402.94" y="238.12" width="0.49" height="4.05"/><rect class="cls-5" x="401.27" y="238.12" width="0.49" height="4.05"/><rect class="cls-5" x="399.27" y="238.12" width="0.49" height="4.05"/><rect class="cls-5" x="396.19" y="238.12" width="0.49" height="4.05"/><rect class="cls-5" x="392.95" y="238.12" width="0.49" height="4.05"/><rect class="cls-5" x="387.97" y="238.12" width="0.49" height="4.05"/><rect class="cls-5" x="383.3" y="238.12" width="0.49" height="4.05"/><rect class="cls-5" x="379.14" y="238.12" width="0.49" height="4.05"/><rect class="cls-5" x="404.53" y="238.12" width="0.49" height="4.05"/><rect class="cls-5" x="405.58" y="238.12" width="0.49" height="4.05"/><rect class="cls-5" x="406.6" y="238.12" width="0.49" height="4.05"/><path class="cls-5" d="M407.85,238.13v4h-.49v-4h.49Z"/><path class="cls-5" d="M408.54,238.51v3.27a1,1,0,0,1-.49.33v-3.93A1,1,0,0,1,408.54,238.51Z"/><path class="cls-5" d="M411.91,235v2.29a.74.74,0,0,1-.18.49,1,1,0,0,1-.49.33l-.19,0H367.43a1.19,1.19,0,0,1-.47-.09.89.89,0,0,1-.58-.71V235a1,1,0,0,1,.92-.83h43.75l.19.05a1,1,0,0,1,.49.33A.74.74,0,0,1,411.91,235Z"/><path class="cls-5" d="M390.58,238.21H367.31a.91.91,0,0,1-.41-.09.88.88,0,0,1-.52-.71V235a.91.91,0,0,1,.82-.83h20.53a7.13,7.13,0,0,0,2.72,4Z"/><rect class="cls-5" x="406.13" y="234.16" width="0.49" height="4.05"/><rect class="cls-5" x="404.46" y="234.16" width="0.49" height="4.05"/><rect class="cls-5" x="402.46" y="234.16" width="0.49" height="4.05"/><rect class="cls-5" x="399.39" y="234.16" width="0.49" height="4.05"/><rect class="cls-5" x="396.14" y="234.16" width="0.49" height="4.05"/><rect class="cls-5" x="391.16" y="234.16" width="0.49" height="4.05"/><rect class="cls-5" x="386.5" y="234.16" width="0.49" height="4.05"/><rect class="cls-5" x="382.33" y="234.16" width="0.49" height="4.05"/><rect class="cls-5" x="407.73" y="234.16" width="0.49" height="4.05"/><rect class="cls-5" x="408.78" y="234.16" width="0.49" height="4.05"/><rect class="cls-5" x="409.79" y="234.16" width="0.49" height="4.05"/><path class="cls-5" d="M411.05,234.17v4h-.5v-4.05h.5Z"/><path class="cls-5" d="M411.73,234.55v3.27a1,1,0,0,1-.49.33v-3.93A1,1,0,0,1,411.73,234.55Z"/><path class="cls-5" d="M413.27,231v2.29a.74.74,0,0,1-.18.49,1,1,0,0,1-.49.33l-.19.05H368.79a1,1,0,0,1-1.05-.83V231a1,1,0,0,1,1.05-.84h43.62l.19,0a1,1,0,0,1,.49.33A.74.74,0,0,1,413.27,231Z"/><path class="cls-5" d="M391.94,234.16H368.67a.91.91,0,0,1-.93-.83V231a.91.91,0,0,1,.93-.84h20.42a7.1,7.1,0,0,0,2.84,4Z"/><rect class="cls-5" x="407.49" y="230.11" width="0.49" height="4.06"/><rect class="cls-5" x="405.82" y="230.11" width="0.49" height="4.06"/><rect class="cls-5" x="403.82" y="230.11" width="0.49" height="4.06"/><rect class="cls-5" x="400.75" y="230.11" width="0.49" height="4.06"/><rect class="cls-5" x="397.5" y="230.11" width="0.49" height="4.06"/><rect class="cls-5" x="392.52" y="230.11" width="0.49" height="4.06"/><rect class="cls-5" x="387.86" y="230.11" width="0.49" height="4.06"/><rect class="cls-5" x="383.69" y="230.11" width="0.49" height="4.06"/><rect class="cls-5" x="409.08" y="230.11" width="0.49" height="4.06"/><rect class="cls-5" x="410.14" y="230.11" width="0.49" height="4.06"/><rect class="cls-5" x="411.15" y="230.11" width="0.49" height="4.06"/><path class="cls-5" d="M412.41,230.12v4h-.5v-4h.5Z"/><path class="cls-5" d="M413.09,230.5v3.27a1,1,0,0,1-.49.33v-3.93A1,1,0,0,1,413.09,230.5Z"/><path class="cls-5" d="M414.42,227v2.29a.74.74,0,0,1-.18.49,1,1,0,0,1-.49.33.67.67,0,0,1-.19.05H369.94a1,1,0,0,1-1.05-.83V227a1,1,0,0,1,.92-.83h43.75l.19,0a1,1,0,0,1,.49.33A.74.74,0,0,1,414.42,227Z"/><path class="cls-5" d="M393.09,230.16H369.82a.91.91,0,0,1-.93-.83V227a.9.9,0,0,1,.82-.83h20.53A7,7,0,0,0,393.09,230.16Z"/><rect class="cls-5" x="408.64" y="226.11" width="0.49" height="4.06"/><rect class="cls-5" x="406.97" y="226.11" width="0.49" height="4.06"/><rect class="cls-5" x="404.97" y="226.11" width="0.49" height="4.06"/><rect class="cls-5" x="401.9" y="226.11" width="0.49" height="4.06"/><rect class="cls-5" x="398.65" y="226.11" width="0.49" height="4.06"/><rect class="cls-5" x="393.67" y="226.11" width="0.49" height="4.06"/><rect class="cls-5" x="389.01" y="226.11" width="0.49" height="4.06"/><rect class="cls-5" x="384.84" y="226.11" width="0.49" height="4.06"/><rect class="cls-5" x="410.23" y="226.11" width="0.49" height="4.06"/><rect class="cls-5" x="411.29" y="226.11" width="0.49" height="4.06"/><rect class="cls-5" x="412.3" y="226.11" width="0.49" height="4.06"/><path class="cls-5" d="M413.56,226.12v4h-.5v-4h.5Z"/><path class="cls-5" d="M414.24,226.5v3.27a1,1,0,0,1-.49.33v-3.93A1,1,0,0,1,414.24,226.5Z"/><path class="cls-5" d="M408.72,222.94v2.29a.83.83,0,0,1-.18.5,1.15,1.15,0,0,1-.49.33l-.2,0H364.23a1,1,0,0,1-1.05-.84V222.9a1,1,0,0,1,1.05-.84h43.62l.2.05.09,0,.05,0h0l.05,0h0l.05,0,.1.08,0,0h0v0h0l0,0,0,0A.8.8,0,0,1,408.72,222.94Z"/><path class="cls-5" d="M387.39,226.12H364.12a.93.93,0,0,1-.94-.84V222.9a.92.92,0,0,1,.94-.84h20.41l0,.09a7.09,7.09,0,0,0,2.82,4Z"/><rect class="cls-5" x="402.94" y="222.06" width="0.49" height="4.06"/><rect class="cls-5" x="401.27" y="222.06" width="0.49" height="4.06"/><rect class="cls-5" x="399.27" y="222.06" width="0.49" height="4.06"/><rect class="cls-5" x="396.19" y="222.06" width="0.49" height="4.06"/><rect class="cls-5" x="392.95" y="222.06" width="0.49" height="4.06"/><rect class="cls-5" x="387.97" y="222.06" width="0.49" height="4.06"/><rect class="cls-5" x="383.3" y="222.06" width="0.49" height="4.06"/><rect class="cls-5" x="379.14" y="222.06" width="0.49" height="4.06"/><rect class="cls-5" x="404.53" y="222.06" width="0.49" height="4.06"/><rect class="cls-5" x="405.58" y="222.06" width="0.49" height="4.06"/><rect class="cls-5" x="406.6" y="222.06" width="0.49" height="4.06"/><path class="cls-5" d="M407.85,222.07v4l-.18,0h-.31v-4.06h.49Z"/><path class="cls-5" d="M408.54,222.45v3.28a1.15,1.15,0,0,1-.49.33v-3.94A1.07,1.07,0,0,1,408.54,222.45Z"/><path class="cls-5" d="M411.91,219v2.29a.74.74,0,0,1-.18.49,1,1,0,0,1-.49.33.67.67,0,0,1-.19,0H367.43a1.19,1.19,0,0,1-.47-.09.89.89,0,0,1-.58-.71v-2.41a1,1,0,0,1,.92-.83h43.75l.19,0a1,1,0,0,1,.49.33A.74.74,0,0,1,411.91,219Z"/><path class="cls-5" d="M390.58,222.15H367.31a.91.91,0,0,1-.41-.09.88.88,0,0,1-.52-.71v-2.41a.9.9,0,0,1,.82-.83h20.53a7.14,7.14,0,0,0,2.72,3.95Z"/><rect class="cls-5" x="406.13" y="218.1" width="0.49" height="4.05"/><rect class="cls-5" x="404.46" y="218.1" width="0.49" height="4.05"/><rect class="cls-5" x="402.46" y="218.1" width="0.49" height="4.05"/><rect class="cls-5" x="399.39" y="218.1" width="0.49" height="4.05"/><rect class="cls-5" x="396.14" y="218.1" width="0.49" height="4.05"/><rect class="cls-5" x="391.16" y="218.1" width="0.49" height="4.05"/><rect class="cls-5" x="386.5" y="218.1" width="0.49" height="4.05"/><rect class="cls-5" x="382.33" y="218.1" width="0.49" height="4.05"/><rect class="cls-5" x="407.73" y="218.1" width="0.49" height="4.05"/><rect class="cls-5" x="408.78" y="218.1" width="0.49" height="4.05"/><rect class="cls-5" x="409.79" y="218.1" width="0.49" height="4.05"/><path class="cls-5" d="M411.05,218.11v4h-.5V218.1h.5Z"/><path class="cls-5" d="M411.73,218.49v3.27a1,1,0,0,1-.49.33v-3.93A1,1,0,0,1,411.73,218.49Z"/><path class="cls-5" d="M413.27,214.93v2.29a.77.77,0,0,1-.18.5,1.15,1.15,0,0,1-.49.33l-.19,0H368.79a1,1,0,0,1-1.05-.84v-2.38a1,1,0,0,1,1.05-.84h43.43l.19,0a.65.65,0,0,1,.19,0,1.07,1.07,0,0,1,.49.33A.74.74,0,0,1,413.27,214.93Z"/><path class="cls-5" d="M391.94,218.11H368.67a.91.91,0,0,1-.93-.84v-2.38a.91.91,0,0,1,.93-.84h20.42a7.1,7.1,0,0,0,2.84,4Z"/><rect class="cls-5" x="407.49" y="214.05" width="0.49" height="4.05"/><rect class="cls-5" x="405.82" y="214.05" width="0.49" height="4.05"/><rect class="cls-5" x="403.82" y="214.05" width="0.49" height="4.05"/><rect class="cls-5" x="400.75" y="214.05" width="0.49" height="4.05"/><rect class="cls-5" x="397.5" y="214.05" width="0.49" height="4.05"/><rect class="cls-5" x="392.52" y="214.05" width="0.49" height="4.05"/><rect class="cls-5" x="387.86" y="214.05" width="0.49" height="4.05"/><rect class="cls-5" x="383.69" y="214.05" width="0.49" height="4.05"/><rect class="cls-5" x="409.08" y="214.05" width="0.49" height="4.05"/><rect class="cls-5" x="410.14" y="214.05" width="0.49" height="4.05"/><rect class="cls-5" x="411.15" y="214.05" width="0.49" height="4.05"/><path class="cls-5" d="M412.41,214.06v4l-.19,0h-.31v-4.06h.5Z"/><path class="cls-5" d="M413.09,214.44v3.28a1.15,1.15,0,0,1-.49.33v-3.94A1.07,1.07,0,0,1,413.09,214.44Z"/><circle class="cls-6" cx="392.84" cy="186.75" r="27.08" transform="translate(-37.81 125.63) rotate(-17.35)"/><circle class="cls-7" cx="390.47" cy="186.75" r="27.08" transform="translate(-17.68 330.8) rotate(-45)"/><path class="cls-6" d="M390.47,211.74a24.67,24.67,0,1,1,17.45-7.23A24.5,24.5,0,0,1,390.47,211.74Zm0-47.87a23.2,23.2,0,1,0,23.2,23.2A23.22,23.22,0,0,0,390.47,163.87Z"/><path class="cls-6" d="M393.87,194.23a4.23,4.23,0,0,0-.06-1.44,3,3,0,0,0-.6-1.19,5.67,5.67,0,0,0-1.22-1.06,13,13,0,0,0-1.87-1c-1.28-.63-2.44-1.27-3.47-1.91a12.38,12.38,0,0,1-2.59-2.11,7.12,7.12,0,0,1-1.53-2.57,7.46,7.46,0,0,1-.26-3.29,7.24,7.24,0,0,1,.92-2.87,6.71,6.71,0,0,1,1.91-2.13,8.57,8.57,0,0,1,2.74-1.3,11.21,11.21,0,0,1,3.41-.4l.49-4.06,3.27.39-.49,4.12a10.3,10.3,0,0,1,3.08,1.31,8,8,0,0,1,2.22,2.11,7.91,7.91,0,0,1,1.23,2.84,10.28,10.28,0,0,1,.13,3.49l-5.91-.7a5,5,0,0,0-.61-3.53,3.43,3.43,0,0,0-2.57-1.45,4.5,4.5,0,0,0-1.62.06,3,3,0,0,0-1.18.58,2.84,2.84,0,0,0-.76,1,4.32,4.32,0,0,0-.36,1.28,4,4,0,0,0,.06,1.3,2.69,2.69,0,0,0,.58,1.14,5.51,5.51,0,0,0,1.22,1.07,21.44,21.44,0,0,0,2,1.13c1.26.65,2.41,1.3,3.43,1.94A12.63,12.63,0,0,1,398,189a7.24,7.24,0,0,1,1.53,2.58,7.38,7.38,0,0,1,.26,3.27,7.48,7.48,0,0,1-.93,2.93,7.05,7.05,0,0,1-1.92,2.11,8.3,8.3,0,0,1-2.76,1.25,12.46,12.46,0,0,1-3.43.36l-.45,3.78-3.25-.38.45-3.76a14.15,14.15,0,0,1-3.2-1.13,9,9,0,0,1-2.62-2,7.82,7.82,0,0,1-1.64-2.94,9.57,9.57,0,0,1-.27-4l5.91.7a5.81,5.81,0,0,0,.11,2.29,3.76,3.76,0,0,0,.84,1.57,3.72,3.72,0,0,0,1.35.93,6.19,6.19,0,0,0,1.63.41,5.34,5.34,0,0,0,1.71,0,3.56,3.56,0,0,0,1.3-.54,2.89,2.89,0,0,0,.86-.95A3.5,3.5,0,0,0,393.87,194.23Z"/><g id="man"><path class="cls-9" d="M298.85,103.14l-8.13,15.42L286.55,117l1.36,4.12-8.15,24.55S275.25,114.52,298.85,103.14Z"/><path class="cls-3" d="M285.29,116.77s-9,33.14-9.86,64.77c0,0,7.46,2.6,19.17.54S285.29,116.77,285.29,116.77Z"/><path class="cls-10" d="M242.24,162.73c2.42,0,5.81.25,6.94-1a3.37,3.37,0,0,1,2.77-1.18l-.3-1.6-.37-1.9s-.14-.17-.63-.16a9.66,9.66,0,0,1-2.58-.22c-2-.73-10.12,4.11-9.85,5.46C238.33,162.65,241.22,162.75,242.24,162.73Z"/><path class="cls-3" d="M286.3,116.12s-13.65,28.21-17.88,31.24-19.29,9.57-19.29,9.57a3.89,3.89,0,0,0,0,2.31,2.89,2.89,0,0,0,1.14,1.84s21.06-1.88,25.95-4.93,15.7-15.2,15.7-15.2Z"/><path class="cls-9" d="M326.27,274.27h8.09a4.93,4.93,0,0,0,2.21-3.7c.39-2.61,3.31-4,3.94-6.16s-2.6-5.12-2.6-5.12l-.54-.7-.57-.72-5.36,1.26s-.13,1.28-.21,2.91c-.06,1.17-.09,2.53,0,3.72.16,2.84-.79,5.89-3.31,6.45C326,272.61,326.1,273.72,326.27,274.27Z"/><path class="cls-9" d="M279.37,274.27h18.48c.89-1.08.56-5.09.43-6.39,0-.27,0-.42,0-.42s-6.31-5-7.18-1.18a2,2,0,0,1-.09.35c-1.09,3.62-6,5.26-8.82,5.72A3.2,3.2,0,0,0,279.37,274.27Z"/><path class="cls-5" d="M282.89,171.1s1,12,2.09,26.33c1.53,19.53,3.37,43.51,3.55,48,.32,7.89,1.58,20.51,1.58,20.51s3,3,9,1.74A206.92,206.92,0,0,0,306,230.65c0-.31,0-.63.07-.94,1.42-19.41,3.63-60.27,3.63-60.27Z"/><path class="cls-5" d="M282.89,171.1s1,12,2.09,26.33l21,33.22c0-.31,0-.63.07-.94,1.42-19.41,3.63-60.27,3.63-60.27Z"/><path class="cls-5" d="M287.27,172.52s17.27,43.3,28.63,63.66,14.91,26,14.91,26,6.51-2.61,7.1-4.38c0,0-4.34-39.29-12-48.87-4.3-5.41-9.35-21.65-9.59-27.33s-1.53-16.92-1.53-16.92Z"/><path class="cls-11" d="M291.57,109.39c6.75,2.13,18.43-3.62,18.43-3.62s-6.23-4.67-5.9-14.38l-5.22,4.2-3.54,2.86a41.45,41.45,0,0,0,.4,4.64c.07.53.15,1.12.25,1.74a1.25,1.25,0,0,1-.57,1.26A15.87,15.87,0,0,0,291.57,109.39Z"/><path class="cls-1" d="M282.15,172.1a1.14,1.14,0,0,0,.71.27c2.53,0,9.92,1.37,16.18.73A46.61,46.61,0,0,0,314,168.78c.67-.3,2.2-1.11,2.16-1.86s-.1-2-.2-3.48a184.16,184.16,0,0,1-.37-24.34c.11-1.91.16-3.81.17-5.67.05-13.92-2.71-26.15-8.25-30.29a46.87,46.87,0,0,1-6.54,3c-2.62.84-4,.67-5.33-.23a16.33,16.33,0,0,0-3.78,2.55c-2.62,2.85-4.67,6.64-6,12.08a103.52,103.52,0,0,0-2.6,20C283.06,144.52,282,172,282.15,172.1Z"/><path class="cls-3" d="M314.93,126.12l-7.43-23s-17.84,6.72-18.67,31.91c-.32,5.74-1.7,29.27.79,48.76,0,0,13.9,5.42,30.94-5.27Z"/><path class="cls-12" d="M295.34,98.45a41.45,41.45,0,0,0,.4,4.64c3.93-.68,8.38-7,8.38-7a12.67,12.67,0,0,0-5.24-.47Z"/><path class="cls-11" d="M292.41,98.27s12.16,2,13.3-5.57,3.48-12.44-4.23-14-9.67,1-10.66,3.5S289.28,97.55,292.41,98.27Z"/><rect class="cls-9" x="313.28" y="175.62" width="36.94" height="22.73" rx="5.93" transform="translate(-23.06 48.67) rotate(-8.11)"/><path class="cls-13" d="M316,183.74l1.55,10.88a6,6,0,0,0,3.5,4.61,5.83,5.83,0,0,0,1.94.49h0a5.59,5.59,0,0,0,1.29,0L349,196.15a6,6,0,0,0,5.06-6.74l-1.55-10.88a6,6,0,0,0-6.74-5.06l-8.53,1.22-.33-2.32a2,2,0,0,0-2.22-1.67l-.94.13-5.19.74-1.29.19a1.93,1.93,0,0,0-1.29.76,2,2,0,0,0-.38,1.46l.34,2.32-5,.71a3.82,3.82,0,0,0-.57.11h0a6,6,0,0,0-4.11,3.59h0A5.94,5.94,0,0,0,316,183.74Zm20.08-8.88-8.87,1.27-.33-2.32a.74.74,0,0,1,.63-.83l2.22-.32,4.09-.58,1.1-.16h.22a.74.74,0,0,1,.61.62Z"/><path class="cls-11" d="M326.89,164.44a8.64,8.64,0,0,1,1.35,2.43c.35,4.7-1.8,5.35,3.77,8,0,0,2.37.9,2.41-.94s-1.65-1.88-1.34-4.46c.36-3,.32-3-1.63-4.56l-1.3-2.14Z"/><path class="cls-3" d="M330.2,165.77a18.9,18.9,0,0,1-4.37.24s-6.22-19.22-7-21-18.48-22.54-18.48-22.54l7.17-19.36s4.21,2.46,8.65,10.13c5.5,9.48,11.54,24.75,12.61,27.23,3.21,7.41,4.32,24.05,4.32,24.05A8,8,0,0,1,330.2,165.77Z"/><path class="cls-13" d="M305.72,92s-1.25-.21-1-1.93.19-4-1.2-3.54-1.47,1.53-2,.88-.59-3.41-4.75-3.6-5.84,1.26-7.78.41-2-3.78-2-3.78a3.31,3.31,0,0,0,1.38,1.38s-3.23-4.41.51-7.44,7.54-1,9.7-.91c4.76.29,7.84.57,9.39,3.7S308.78,89,305.72,92Z"/><path class="cls-11" d="M328.94,166.51s-1.25,1.31-1.33,1.85c-.26,1.75-.84,2.5-.55,2.69.61.4,1.42-.89,1.8-2.06A5.32,5.32,0,0,0,328.94,166.51Z"/><path class="cls-9" d="M307.5,103.14l-8.13,15.42L295.2,117l1.35,4.12-8.15,24.55S283.89,114.52,307.5,103.14Z"/></g><path class="cls-1" d="M291.57,94a2,2,0,0,0,1.66,1.29,3,3,0,0,0,2.09-1.12S292.75,93.54,291.57,94Z"/><rect class="cls-9" x="219.21" y="184.8" width="37.33" height="22.97" rx="6" transform="translate(-38.17 58.76) rotate(-13.04)"/><path class="cls-7" d="M250.12,184.75h0a6,6,0,0,0-5.19-1.88h0l-.58.1-4.92,1.14-.54-2.3a1.93,1.93,0,0,0-.88-1.24,2,2,0,0,0-1.5-.25l-1.28.3-5.16,1.19-.93.22a2,2,0,0,0-1.49,2.38l.54,2.31-8.49,2a6,6,0,0,0-4.5,7.23l2.5,10.82a6,6,0,0,0,7.23,4.5l24.64-5.7a6.19,6.19,0,0,0,1.23-.44h0a5.8,5.8,0,0,0,1.64-1.16,6,6,0,0,0,1.62-5.63l-2.5-10.82A6,6,0,0,0,250.12,184.75Zm-21.26-.63a.76.76,0,0,1,.35-.81,1.31,1.31,0,0,1,.21-.08l1.1-.25,4.06-.94,2.21-.52a.74.74,0,0,1,.89.56l.54,2.3-8.82,2.05Z"/><path class="cls-11" d="M233.93,170.82s-.75,2.65-.49,3.49c1.73,5.71,4.73,9.44-3.33,8.48,0,0,.33-.33-1.21-3.24-1.78-3.35-1.75-3.4-.15-6.12l.55-3.12Z"/><path class="cls-11" d="M244.07,164c-2.43-.14-5.4-.78-6.48-2.07a6,6,0,0,0-2.45-1.85l.37-1.59.45-1.9s.15-.17.65-.15c0,0,1.91.43,2.61-.11s2-.22,2.81.31c1,.68,2.38.57,2.35.9,0,0-2,1-1.83,1.15,1.85,1.64,6.7,2.29,6.38,3.57C248.81,162.78,245.11,164.09,244.07,164Z"/><path class="cls-11" d="M210.16,101.85v1.32s.36,4.14-4.74,4.74-9.27.53-9.13-2.67a66.43,66.43,0,0,0,1.31-8.35,13.85,13.85,0,0,0-.18-2.48l9.88-.2,2.9.48Z"/><path class="cls-10" d="M210.19,94.69l0,7.16a8.5,8.5,0,0,1-3.56.78c-4.54,0-7.47-3.33-9-5.74a13.85,13.85,0,0,0-.18-2.48l9.88-.2Z"/><path class="cls-11" d="M196.66,92.82c1.14,6.17,9.1,6,12.53,5.58,1-.11,1.58-.23,1.58-.23,1.09-.29,1.7-2,2-4.26.56-4.46-.15-11-.9-12.67-1.13-2.51-3.26-5.23-11.27-3.27S195.19,84.92,196.66,92.82Z"/><path class="cls-9" d="M190.15,275.34h11.27a26.3,26.3,0,0,0-.9-4,10.94,10.94,0,0,0-.64-1.62c-1.09-2.19-8.06-.8-8.06-.8a5.4,5.4,0,0,0-1.15,2.67A22.57,22.57,0,0,0,190.15,275.34Z"/><path class="cls-9" d="M224.21,271.78c0,1.53.22,3,.78,3.56h22.29c-.28-.81-1.08-2-3.37-2.4-2.6-.42-6.66-1.67-9-4.17a6.73,6.73,0,0,1-1.75-3.16c-1-4.67-8.67,1.43-8.67,1.43A37.47,37.47,0,0,0,224.21,271.78Z"/><path class="cls-3" d="M209.38,221.3a34.7,34.7,0,0,1,.56,4.12c.71,13.82,11.64,45.43,13.59,46.17,3,1.14,7.79-1.29,10.28-2.08a2.14,2.14,0,0,0,1.5-2.43c-5.41-24.88-7.4-60.71-8.12-81.92A96.65,96.65,0,0,0,225,167.1S198.33,160,198.17,169C198,177,207,208.17,209.38,221.3Z"/><path class="cls-9" d="M209.38,221.3l17.81-36.14A96.65,96.65,0,0,0,225,167.1S198.33,160,198.17,169C198,177,207,208.17,209.38,221.3Z"/><path class="cls-3" d="M215.31,169,201.22,271.14s-6.19,1.49-11,.3c0,0-4.13-54.32-3.78-67.45s-3-35.13.75-37.56S215.31,169,215.31,169Z"/><path class="cls-9" d="M212.16,82.21c-2.2.69-6.85,0-8.8,1.56s-.09,4.17-2.32,5.09h0a1.1,1.1,0,0,1-1.27-.32c-.62-.77-1.47-1.54-2.25-1.22s-.67,1.09-.39,1.89a2.23,2.23,0,0,1-.24,2,1.08,1.08,0,0,0-.24.81c.18,1,.69,2.34.87,3l.06.71a36.7,36.7,0,0,1-5.3-7.43c-1.07-2.33-1.05-11,4.21-13.57l0-.06c-.11-.2-.43-.16-.43-.16a2.41,2.41,0,0,1,1.16-.07s0,0,.07-.09a1.89,1.89,0,0,1,.72-1.06,2.17,2.17,0,0,0-.34.83c1.38-.73,5.64-2.34,9-.87a27.84,27.84,0,0,0,5.79,1.79,2.42,2.42,0,0,1,2,2.47C214.32,79.23,213.74,81.63,212.16,82.21Z"/><path class="cls-14" d="M195.08,107l3.24,69.6s27.08.45,26.3-5.68-9.75-61.79-9.75-61.79"/><path class="cls-7" d="M204,150.62s-1.37,18.59-4,30.26c0,0-15.8.84-19.55-5.26,0,0,3-25.11,3-30.21,0-1.79-.14-4.22-.36-6.94-.33-4.13-.84-8.9-1.32-13.06-.67-5.79-1.29-10.39-1.29-10.39l13-10.59Z"/><path class="cls-7" d="M235.35,172.62a12.16,12.16,0,0,1-7.59,1.22c-1.68,4.15-5.67,5.55-5.67,5.18,0-.05-.89-7.83-2-17-.11-.91-.21-1.84-.32-2.78l0-.24c-.18-1.53-.35-3.09-.53-4.63-1.27-11.05-2.5-21.63-2.5-21.63-2.77-17-5.11-28.17-5.11-28.17,5.91.61,9.9,2.72,11.49,5.48,4.72,8.17,8.13,28.63,10.13,43.94,0,0,0,.07,0,.11.34,2.65.65,5.13.9,7.38,0,.14,0,.28.05.41C235,168.31,235.35,172.62,235.35,172.62Z"/><path class="cls-1" d="M207.94,93.84s.26.79,2.27.5c0,0,1.68-.24,1.56-1.13A5.47,5.47,0,0,0,207.94,93.84Z"/><path class="cls-15" d="M194.31,104.35c0-.67,3.11-1.59,3.11-1.59s3.6,5,9.54,5.08c0,0-1.69,3.29-3.69,4.15C203.27,112,194.51,108.29,194.31,104.35Z"/><path class="cls-15" d="M207,107.73s3.14-1.87,3.15-3.89c0,0,2-.25,2.92.73,0,0,.74,3.47-.24,5.48C212.79,110.05,208.26,109.36,207,107.73Z"/><path class="cls-7" d="M204.82,107.43l4.27-1s.55,0,.54.74A5.42,5.42,0,0,1,207.9,110C207.38,110.2,203.82,108.83,204.82,107.43Z"/><path class="cls-14" d="M194.81,104c0-.66,2.09-2,2.09-2s4.12,4.82,10.06,4.9c0,0-1.69,3.29-3.69,4.15C203.27,111,195,108,194.81,104Z"/><path class="cls-14" d="M207,106.87s3.18-1.68,3.19-3.7A9.93,9.93,0,0,1,213,105a5.84,5.84,0,0,1-.16,4.19S208.26,108.5,207,106.87Z"/><path class="cls-7" d="M214.75,165.24a9,9,0,0,1-2.14,5.23l-1.91,2.16a1,1,0,0,1-1.62-.14l-2.31-3.62a5.57,5.57,0,0,1-.79-3.44c.25-2.76.71-8.07,1.08-13.2.31-4.16.56-8.2.6-10.65.13-7.84-.9-32.82-.9-32.82l1.53.08a115.77,115.77,0,0,1,5.58,22.84c.46,3.24.81,6.69,1,10.27C214.83,142,215.49,156.22,214.75,165.24Z"/><path class="cls-7" d="M214.75,165.24a9,9,0,0,1-2.14,5.23l-1.91,2.16a1,1,0,0,1-1.62-.14l-2.31-3.62a5.57,5.57,0,0,1-.79-3.44c.25-2.76.71-8.07,1.08-13.2,4.29-5.89,6.09-14,6.81-20.55.46,3.24.81,6.69,1,10.27C214.83,142,215.49,156.22,214.75,165.24Z"/><path class="cls-9" d="M196.9,102s8.44,35.34,7.1,48.66c0,0-3.1-14.23-10.57-25.88,0,0,2.72-2.4,2.58-3.28a9.4,9.4,0,0,0-4-.2s.22-15.23,1.44-16.84A9,9,0,0,1,196.9,102Z"/><path class="cls-9" d="M210.15,103.17c-1.27.1,8.36,34.54,9.07,45.57,0,0-.84-19.69-.76-25.37,0,0-3.5-1.86-3.5-2.51s3.74-2.41,3.74-2.41S216.33,106.32,215,105,210.15,103.17,210.15,103.17Z"/><path class="cls-11" d="M227.77,175.24s-.58.79-.21,2.78.16,3.08.68,2.74a12,12,0,0,0,1.57-2.73Z"/><path class="cls-9" d="M203,156.07c-9.82-1.47-16.39-10.65-19.92-17.6-.33-4.13-.84-8.9-1.32-13.06l2.3-6.56Z"/><path class="cls-9" d="M234.24,161.89a33,33,0,0,1-14.1.13c-.11-.91-.21-1.84-.32-2.78l0-.24c.21-.79.41-1.59.61-2.39,3.52,1.26,11.38,4,13.79,4.87C234.21,161.62,234.23,161.76,234.24,161.89Z"/><path class="cls-7" d="M193.46,104.43s-8.63,1.09-12.57,6.59,4.52,35.45,22.08,45.05c8.45,4.61,32.83,5.65,32.83,5.65s1.34.13,1.87-2.56a11.16,11.16,0,0,0,0-2.55s-27.75-10.4-30.19-12.41S193.46,104.43,193.46,104.43Z"/><path class="cls-10" d="M248.07,156.69s-2.91-.73-3.74-.91-1.86-.93-2.14-.59c-.53.64,1.69,1.76,2.57,3.74.43,1,1.3,1.5,3,.79A1.81,1.81,0,0,0,248.07,156.69Z"/><circle class="cls-16" cx="342.97" cy="85.75" r="12.61" transform="translate(-4.67 21.48) rotate(-3.56)"/><path class="cls-1" d="M338.93,80.7a4,4,0,1,1,4,4A4,4,0,0,1,338.93,80.7Z"/><path class="cls-1" d="M343,84.74a7.08,7.08,0,0,0-7.08,7.08h14.16A7.08,7.08,0,0,0,343,84.74Z"/><circle class="cls-17" cx="249.8" cy="52.22" r="8.5" transform="translate(141.59 283.33) rotate(-76.72)"/><path class="cls-1" d="M247.07,48.8a2.73,2.73,0,1,1,2.73,2.73A2.73,2.73,0,0,1,247.07,48.8Z"/><path class="cls-1" d="M249.8,51.53A4.78,4.78,0,0,0,245,56.31h9.55A4.78,4.78,0,0,0,249.8,51.53Z"/><path class="cls-16" d="M310.43,9.52a.75.75,0,0,1,.93-.49.74.74,0,0,1,.49.92.75.75,0,0,1-.93.49A.74.74,0,0,1,310.43,9.52Z"/><path class="cls-16" d="M313.71,10.53a.74.74,0,1,1,.49.92A.74.74,0,0,1,313.71,10.53Z"/><path class="cls-16" d="M317.51,12.47a.74.74,0,0,1-.49-.92.75.75,0,0,1,.93-.49.74.74,0,0,1,.49.92A.75.75,0,0,1,317.51,12.47Z"/><path class="cls-16" d="M320.34,12.57a.75.75,0,0,1,.93-.49.74.74,0,0,1,.49.92.75.75,0,0,1-.93.49A.74.74,0,0,1,320.34,12.57Z"/><path class="cls-16" d="M323.62,13.58a.72.72,0,0,1,.92-.49.74.74,0,1,1-.92.49Z"/><path class="cls-16" d="M327.42,15.52a.74.74,0,0,1-.49-.92.75.75,0,0,1,.93-.49.74.74,0,0,1,.49.92A.75.75,0,0,1,327.42,15.52Z"/><path class="cls-16" d="M330.12,15.58a.73.73,0,0,1,.92-.49.74.74,0,1,1-.92.49Z"/><path class="cls-16" d="M333.39,16.58a.74.74,0,1,1,.49.93A.75.75,0,0,1,333.39,16.58Z"/><path class="cls-16" d="M337.2,18.53a.75.75,0,0,1-.49-.93.74.74,0,1,1,.49.93Z"/><path class="cls-16" d="M340,18.62a.74.74,0,0,1,.92-.49.75.75,0,0,1,.49.93.74.74,0,1,1-1.41-.44Z"/><path class="cls-16" d="M343.3,19.63a.74.74,0,1,1,.49.93A.75.75,0,0,1,343.3,19.63Z"/><path class="cls-16" d="M347.11,21.58a.75.75,0,0,1-.49-.93.74.74,0,0,1,.92-.49.75.75,0,0,1,.49.93A.74.74,0,0,1,347.11,21.58Z"/><path class="cls-16" d="M349.94,21.68a.75.75,0,0,1,.93-.49.74.74,0,0,1,.49.92.75.75,0,0,1-.93.49A.74.74,0,0,1,349.94,21.68Z"/><path class="cls-16" d="M353.22,22.68a.74.74,0,0,1,.92-.49.75.75,0,0,1,.49.93.74.74,0,0,1-.92.49A.75.75,0,0,1,353.22,22.68Z"/><path class="cls-16" d="M357,24.63a.74.74,0,0,1,.43-1.42.75.75,0,0,1,.49.93A.74.74,0,0,1,357,24.63Z"/><path class="cls-16" d="M359.85,24.72a.74.74,0,1,1,.49.93A.75.75,0,0,1,359.85,24.72Z"/><path class="cls-16" d="M363.13,25.73a.74.74,0,0,1,.92-.49.75.75,0,0,1,.49.93.74.74,0,0,1-.92.49A.75.75,0,0,1,363.13,25.73Z"/><path class="cls-16" d="M366.93,27.68a.74.74,0,1,1,.93-.49A.75.75,0,0,1,366.93,27.68Z"/><path class="cls-16" d="M369.63,27.73a.74.74,0,1,1,.49.93A.75.75,0,0,1,369.63,27.73Z"/><path class="cls-16" d="M372.9,28.74a.74.74,0,1,1,.49.93A.75.75,0,0,1,372.9,28.74Z"/><path class="cls-16" d="M376.71,30.69a.74.74,0,1,1,.93-.49A.75.75,0,0,1,376.71,30.69Z"/><path class="cls-16" d="M379.54,30.78a.74.74,0,0,1,.92-.49.75.75,0,0,1,.49.93.74.74,0,0,1-.92.49A.75.75,0,0,1,379.54,30.78Z"/><path class="cls-16" d="M382.81,31.79a.75.75,0,0,1,.93-.49.74.74,0,1,1-.93.49Z"/><path class="cls-16" d="M386.62,33.73a.74.74,0,1,1,.93-.49A.74.74,0,0,1,386.62,33.73Z"/><path class="cls-16" d="M351.8,72.86a.74.74,0,1,1,1-.16A.75.75,0,0,1,351.8,72.86Z"/><path class="cls-16" d="M353.83,70.09a.74.74,0,1,1,.87-1.19.73.73,0,0,1,.16,1A.74.74,0,0,1,353.83,70.09Z"/><path class="cls-16" d="M356.91,67.13a.74.74,0,0,1-1.19-.87.75.75,0,0,1,1-.16A.73.73,0,0,1,356.91,67.13Z"/><path class="cls-16" d="M357.93,64.49a.74.74,0,0,1-.16-1,.75.75,0,0,1,1-.16.74.74,0,0,1,.16,1A.75.75,0,0,1,357.93,64.49Z"/><path class="cls-16" d="M360,61.73a.74.74,0,0,1,.87-1.2.75.75,0,0,1,.16,1A.74.74,0,0,1,360,61.73Z"/><path class="cls-16" d="M363,58.77a.74.74,0,0,1-1,.16.75.75,0,0,1-.16-1,.74.74,0,0,1,1-.16A.75.75,0,0,1,363,58.77Z"/><path class="cls-16" d="M364.06,56.12a.74.74,0,0,1-.16-1,.75.75,0,0,1,1-.16.74.74,0,0,1,.16,1A.75.75,0,0,1,364.06,56.12Z"/><path class="cls-16" d="M366.09,53.36a.75.75,0,0,1-.16-1,.74.74,0,0,1,1-.16.75.75,0,0,1,.16,1A.74.74,0,0,1,366.09,53.36Z"/><path class="cls-16" d="M369.17,50.4a.74.74,0,0,1-1,.16.75.75,0,0,1-.16-1,.74.74,0,0,1,1-.16A.75.75,0,0,1,369.17,50.4Z"/><path class="cls-16" d="M370.19,47.76a.75.75,0,0,1-.16-1,.74.74,0,1,1,.16,1Z"/><path class="cls-16" d="M372.21,45a.74.74,0,1,1,1-.16A.75.75,0,0,1,372.21,45Z"/><path class="cls-16" d="M375.3,42a.74.74,0,1,1-.16-1A.75.75,0,0,1,375.3,42Z"/><path class="cls-16" d="M376.23,39.51a.74.74,0,1,1,1-.16A.75.75,0,0,1,376.23,39.51Z"/><path class="cls-16" d="M378.26,36.74a.74.74,0,0,1,.87-1.19.74.74,0,1,1-.87,1.19Z"/><path class="cls-16" d="M381.34,33.78a.73.73,0,0,1-1,.16.74.74,0,1,1,.87-1.19A.73.73,0,0,1,381.34,33.78Z"/><path class="cls-16" d="M382.36,31.14a.74.74,0,0,1-.16-1,.75.75,0,0,1,1-.16.74.74,0,1,1-.88,1.19Z"/><path class="cls-16" d="M384.39,28.38a.74.74,0,1,1,.87-1.19.74.74,0,1,1-.87,1.19Z"/><path class="cls-16" d="M387.47,25.42a.74.74,0,1,1-1.19-.87.73.73,0,0,1,1-.16A.74.74,0,0,1,387.47,25.42Z"/><path class="cls-16" d="M357.93,84.46a.74.74,0,0,1,.61-.85.73.73,0,0,1,.85.61.74.74,0,0,1-.61.85A.75.75,0,0,1,357.93,84.46Z"/><path class="cls-16" d="M361.31,83.9a.75.75,0,0,1,.61-.85.74.74,0,0,1,.85.61.73.73,0,0,1-.61.85A.74.74,0,0,1,361.31,83.9Z"/><path class="cls-16" d="M365.59,84a.73.73,0,0,1-.85-.61.74.74,0,0,1,.61-.85.75.75,0,0,1,.85.61A.74.74,0,0,1,365.59,84Z"/><path class="cls-16" d="M368.16,82.78a.75.75,0,0,1,.61-.85.74.74,0,1,1,.24,1.46A.74.74,0,0,1,368.16,82.78Z"/><path class="cls-16" d="M371.54,82.23a.74.74,0,0,1,.61-.85A.73.73,0,0,1,373,82a.74.74,0,0,1-.61.85A.75.75,0,0,1,371.54,82.23Z"/><path class="cls-16" d="M375.82,82.28a.74.74,0,0,1-.24-1.47.74.74,0,0,1,.24,1.47Z"/><path class="cls-16" d="M378.4,81.1a.75.75,0,0,1,.61-.85.74.74,0,0,1,.85.61.73.73,0,0,1-.61.85A.74.74,0,0,1,378.4,81.1Z"/><path class="cls-16" d="M381.78,80.55a.74.74,0,0,1,.61-.85.73.73,0,0,1,.85.61.74.74,0,0,1-.61.85A.75.75,0,0,1,381.78,80.55Z"/><path class="cls-16" d="M386.06,80.6a.74.74,0,1,1,.61-.85A.75.75,0,0,1,386.06,80.6Z"/><path class="cls-16" d="M388.63,79.43a.76.76,0,0,1,.61-.86.74.74,0,0,1,.24,1.47A.75.75,0,0,1,388.63,79.43Z"/><path class="cls-16" d="M392,78.87a.75.75,0,0,1,.61-.85.74.74,0,1,1,.24,1.46A.74.74,0,0,1,392,78.87Z"/><path class="cls-16" d="M396.29,78.92a.74.74,0,1,1,.61-.85A.74.74,0,0,1,396.29,78.92Z"/><path class="cls-16" d="M398.73,77.77a.74.74,0,0,1,1.46-.24.75.75,0,0,1-.61.85A.73.73,0,0,1,398.73,77.77Z"/><path class="cls-16" d="M402.11,77.22a.73.73,0,0,1,.61-.85.74.74,0,0,1,.85.61.75.75,0,0,1-.61.85A.74.74,0,0,1,402.11,77.22Z"/><path class="cls-16" d="M406.38,77.27a.74.74,0,0,1-.24-1.47.74.74,0,0,1,.24,1.47Z"/><path class="cls-16" d="M409,76.09a.74.74,0,0,1,.61-.85.75.75,0,0,1,.85.61.74.74,0,0,1-.61.85A.73.73,0,0,1,409,76.09Z"/><path class="cls-16" d="M412.34,75.54a.74.74,0,1,1,.85.61A.73.73,0,0,1,412.34,75.54Z"/><path class="cls-16" d="M416.61,75.59a.75.75,0,0,1-.85-.61.74.74,0,0,1,.61-.85.73.73,0,0,1,.85.61A.74.74,0,0,1,416.61,75.59Z"/><path class="cls-16" d="M338.47,71a.74.74,0,0,1-.93-.48A.74.74,0,0,1,339,70,.73.73,0,0,1,338.47,71Z"/><path class="cls-16" d="M337.43,67.69a.74.74,0,1,1-.45-1.41.74.74,0,0,1,.45,1.41Z"/><path class="cls-16" d="M336.85,63.45a.74.74,0,1,1-1.41.45.75.75,0,0,1,.48-.93A.74.74,0,0,1,336.85,63.45Z"/><path class="cls-16" d="M335.32,61.08a.74.74,0,1,1,.48-.93A.74.74,0,0,1,335.32,61.08Z"/><path class="cls-16" d="M334.27,57.82a.74.74,0,0,1-.45-1.41.74.74,0,0,1,.93.47A.75.75,0,0,1,334.27,57.82Z"/><path class="cls-16" d="M333.7,53.58a.74.74,0,1,1-.94-.48A.74.74,0,0,1,333.7,53.58Z"/><path class="cls-16" d="M332.16,51.2a.74.74,0,0,1-.45-1.42.74.74,0,0,1,.45,1.42Z"/><path class="cls-16" d="M331.11,47.93a.74.74,0,0,1-.93-.48.74.74,0,0,1,1.41-.45A.73.73,0,0,1,331.11,47.93Z"/><path class="cls-16" d="M330.54,43.7a.75.75,0,0,1-.48.93.74.74,0,0,1-.93-.48.73.73,0,0,1,.48-.93A.74.74,0,0,1,330.54,43.7Z"/><path class="cls-16" d="M329,41.32a.74.74,0,0,1-.93-.48.73.73,0,0,1,.48-.93.74.74,0,1,1,.45,1.41Z"/><path class="cls-16" d="M328,38.06a.74.74,0,0,1-.93-.48.73.73,0,0,1,.48-.93.74.74,0,1,1,.45,1.41Z"/><path class="cls-16" d="M327.38,33.82a.74.74,0,0,1-.48.93.74.74,0,0,1-.45-1.41A.75.75,0,0,1,327.38,33.82Z"/><path class="cls-16" d="M325.88,31.58a.75.75,0,0,1-.93-.48.74.74,0,0,1,.48-.93.74.74,0,1,1,.45,1.41Z"/><path class="cls-16" d="M324.84,28.31a.74.74,0,0,1-.93-.48.75.75,0,0,1,.48-.93.74.74,0,0,1,.93.48A.73.73,0,0,1,324.84,28.31Z"/><path class="cls-16" d="M324.26,24.08a.74.74,0,0,1-.48.93.75.75,0,0,1-.93-.48.74.74,0,0,1,.48-.93A.73.73,0,0,1,324.26,24.08Z"/><path class="cls-16" d="M322.73,21.7a.74.74,0,0,1-.45-1.41.74.74,0,1,1,.45,1.41Z"/><path class="cls-16" d="M321.68,18.44a.75.75,0,0,1-.93-.48.74.74,0,0,1,.48-.93.74.74,0,1,1,.45,1.41Z"/><path class="cls-16" d="M321.11,14.2a.74.74,0,0,1-.48.93.74.74,0,0,1-.45-1.41A.75.75,0,0,1,321.11,14.2Z"/><path class="cls-16" d="M254.53,48.06a.74.74,0,1,1,1,.19A.73.73,0,0,1,254.53,48.06Z"/><path class="cls-16" d="M257.35,46.12a.74.74,0,1,1,1,.19A.75.75,0,0,1,257.35,46.12Z"/><path class="cls-16" d="M261.24,44.34a.75.75,0,0,1-1-.19.74.74,0,0,1,1.22-.84A.75.75,0,0,1,261.24,44.34Z"/><path class="cls-16" d="M263.06,42.18a.75.75,0,0,1,.19-1,.74.74,0,1,1-.19,1Z"/><path class="cls-16" d="M265.88,40.23a.75.75,0,0,1,.19-1,.74.74,0,1,1-.19,1Z"/><path class="cls-16" d="M269.77,38.45a.75.75,0,0,1-1-.19.74.74,0,1,1,1,.19Z"/><path class="cls-16" d="M271.6,36.28a.75.75,0,0,1,.19-1,.74.74,0,1,1-.19,1Z"/><path class="cls-16" d="M274.42,34.34a.74.74,0,1,1,1,.18A.74.74,0,0,1,274.42,34.34Z"/><path class="cls-16" d="M278.31,32.55a.74.74,0,1,1-.84-1.22.75.75,0,0,1,1,.19A.74.74,0,0,1,278.31,32.55Z"/><path class="cls-16" d="M280.14,30.39a.74.74,0,1,1,1,.19A.74.74,0,0,1,280.14,30.39Z"/><path class="cls-16" d="M283,28.45a.75.75,0,0,1,.19-1,.74.74,0,1,1-.19,1Z"/><path class="cls-16" d="M286.84,26.66a.73.73,0,0,1-1-.19.74.74,0,1,1,1,.19Z"/><path class="cls-16" d="M288.55,24.58a.75.75,0,0,1,.19-1,.74.74,0,1,1-.19,1Z"/><path class="cls-16" d="M291.37,22.64a.75.75,0,0,1,.19-1,.74.74,0,1,1-.19,1Z"/><path class="cls-16" d="M295.26,20.85a.74.74,0,0,1-.84-1.22.75.75,0,0,1,1,.19A.74.74,0,0,1,295.26,20.85Z"/><path class="cls-16" d="M297.09,18.69a.74.74,0,1,1,1,.19A.74.74,0,0,1,297.09,18.69Z"/><path class="cls-16" d="M299.91,16.75a.74.74,0,1,1,1,.19A.74.74,0,0,1,299.91,16.75Z"/><path class="cls-16" d="M303.79,15a.74.74,0,1,1,.19-1A.74.74,0,0,1,303.79,15Z"/><path class="cls-16" d="M396.08,37.94a.74.74,0,0,1,1,1.07.75.75,0,0,1-1.05,0A.74.74,0,0,1,396.08,37.94Z"/><path class="cls-16" d="M398.45,40.41a.73.73,0,0,1,1,0,.72.72,0,0,1,0,1,.73.73,0,0,1-1.05,0A.74.74,0,0,1,398.45,40.41Z"/><path class="cls-16" d="M400.83,44a.74.74,0,1,1,1,0A.73.73,0,0,1,400.83,44Z"/><path class="cls-16" d="M403.25,45.43a.73.73,0,0,1,1.05,0,.74.74,0,0,1,0,1,.73.73,0,0,1-1,0A.72.72,0,0,1,403.25,45.43Z"/><path class="cls-16" d="M405.62,47.9a.75.75,0,0,1,1.05,0,.74.74,0,0,1-1.07,1A.73.73,0,0,1,405.62,47.9Z"/><path class="cls-16" d="M408,51.45a.74.74,0,1,1,1,0A.73.73,0,0,1,408,51.45Z"/><path class="cls-16" d="M410.43,52.92a.74.74,0,1,1,0,1A.74.74,0,0,1,410.43,52.92Z"/><path class="cls-16" d="M412.8,55.39a.74.74,0,1,1,0,1A.74.74,0,0,1,412.8,55.39Z"/><path class="cls-16" d="M415.18,59a.73.73,0,0,1,0-1.05.75.75,0,0,1,1.05,0,.74.74,0,0,1-1.07,1Z"/><path class="cls-16" d="M417.6,60.4a.74.74,0,0,1,1,0,.73.73,0,0,1,0,1,.72.72,0,0,1-1,0A.73.73,0,0,1,417.6,60.4Z"/><path class="cls-16" d="M420,62.88a.75.75,0,0,1,1,0A.74.74,0,0,1,421,64a.73.73,0,0,1-1,0A.72.72,0,0,1,420,62.88Z"/><path class="cls-16" d="M422.35,66.43a.75.75,0,0,1,0-1.05.74.74,0,0,1,1,1.07A.73.73,0,0,1,422.35,66.43Z"/><circle class="cls-16" cx="316.42" cy="10.48" r="10.48" transform="translate(255.4 321.14) rotate(-80.78)"/><path class="cls-1" d="M313.06,6.27a3.37,3.37,0,1,1,3.36,3.37A3.37,3.37,0,0,1,313.06,6.27Z"/><path class="cls-1" d="M316.42,9.64a5.88,5.88,0,0,0-5.88,5.88h11.77A5.89,5.89,0,0,0,316.42,9.64Z"/><circle class="cls-17" cx="389.01" cy="28.96" r="16.14" transform="translate(307.78 410.5) rotate(-82.24)"/><circle class="cls-1" cx="389.01" cy="22.48" r="5.18"/><path class="cls-1" d="M389,27.66A9.07,9.07,0,0,0,380,36.73h18.13A9.07,9.07,0,0,0,389,27.66Z"/><circle class="cls-16" cx="429.43" cy="73.2" r="10.9" transform="translate(314.27 493.33) rotate(-84.34)"/><path class="cls-1" d="M430.72,75.79a1.56,1.56,0,0,0-.08-.59,1.25,1.25,0,0,0-.3-.47,2.67,2.67,0,0,0-.55-.39A5.93,5.93,0,0,0,429,74c-.56-.21-1.07-.42-1.52-.64a5.37,5.37,0,0,1-1.17-.76,3,3,0,0,1-.74-1,3.13,3.13,0,0,1-.25-1.35,3.07,3.07,0,0,1,.26-1.23,2.77,2.77,0,0,1,.7-1,3.51,3.51,0,0,1,1.07-.66,4.7,4.7,0,0,1,1.4-.31l0-1.71,1.37,0,0,1.73a4.37,4.37,0,0,1,1.34.41,3.38,3.38,0,0,1,1,.78,3.5,3.5,0,0,1,.63,1.12,4.36,4.36,0,0,1,.2,1.44l-2.48,0a2.08,2.08,0,0,0-.4-1.44,1.46,1.46,0,0,0-1.13-.49,1.87,1.87,0,0,0-.66.1,1.25,1.25,0,0,0-.47.29,1.21,1.21,0,0,0-.27.43,1.67,1.67,0,0,0-.09.55,1.33,1.33,0,0,0,.08.54,1.1,1.1,0,0,0,.28.44,2.29,2.29,0,0,0,.56.39,7.88,7.88,0,0,0,.85.39,15.5,15.5,0,0,1,1.51.66,5.2,5.2,0,0,1,1.16.77,2.9,2.9,0,0,1,.74,1,3.41,3.41,0,0,1,0,2.59,2.93,2.93,0,0,1-.71,1,3.59,3.59,0,0,1-1.08.64,5.42,5.42,0,0,1-1.41.29l0,1.59-1.36,0,0-1.58a5.37,5.37,0,0,1-1.37-.33,3.65,3.65,0,0,1-1.17-.7,3.32,3.32,0,0,1-.81-1.15,4,4,0,0,1-.28-1.65l2.48,0a2.44,2.44,0,0,0,.14.95,1.58,1.58,0,0,0,.42.61,1.45,1.45,0,0,0,.6.32,2.61,2.61,0,0,0,.68.11,2.17,2.17,0,0,0,.71-.1,1.37,1.37,0,0,0,.52-.28,1.1,1.1,0,0,0,.31-.43A1.33,1.33,0,0,0,430.72,75.79Z"/></g></g></svg>