<svg xmlns="http://www.w3.org/2000/svg" xmlns:xlink="http://www.w3.org/1999/xlink" viewBox="0 0 244.6 203.49"><defs><style>.cls-1{fill:none;}.cls-2{fill:#b56cf7;}.cls-3{fill:#5d4efa;}.cls-4{fill:#008bb5;}.cls-5{fill:#1a2089;}.cls-6{fill:#fffcfa;}.cls-7{fill:#00a6c7;}.cls-8{fill:#103754;}.cls-9{fill:#de3400;}.cls-10{fill:#ffba42;}.cls-11{clip-path:url(#clip-path);}.cls-12{fill:#006ae6;}.cls-13{fill:#4cc2fc;}.cls-14{fill:#fff;}</style><clipPath id="clip-path"><path class="cls-1" d="M196,115.5a28.35,28.35,0,1,1-28.35-28.35A28.35,28.35,0,0,1,196,115.5Z"/></clipPath></defs><title>transforming the_retail_industry</title><g id="Layer_2" data-name="Layer 2"><g id="Layer_1-2" data-name="Layer 1"><path class="cls-2" d="M2.7,104.46A13,13,0,0,1,11,83.76l.25,0,.15,0h.1a12.06,12.06,0,0,1,1.6-.1,12.9,12.9,0,0,1,8.31,3,2.53,2.53,0,0,1,1,1.77,1,1,0,0,1-.33.77c-.52.45-1.49.24-2.36-.48a10.36,10.36,0,0,0-6.6-2.36,10,10,0,0,0-3.58.65,10.38,10.38,0,0,0-6.54,8,10.29,10.29,0,0,0,10.2,11.94c.33,0,.67,0,1,0h0l0,.4v-.41l.18,0,.1,0a10.36,10.36,0,0,0,7.69-5.6l-.48,0c-.61-.07-1-.29-1-.65s0-.58.52-.92a8.94,8.94,0,0,0,2.31-2.39,1.32,1.32,0,0,1,1.08-.7,1.24,1.24,0,0,1,1.09.87,12.9,12.9,0,0,1,.93,4.4,1.6,1.6,0,0,1-.34,1.18.68.68,0,0,1-.51.22,1.09,1.09,0,0,1-.85-.53l-.27-.35a13.15,13.15,0,0,1-6.39,6.18,4.35,4.35,0,0,1-.49.24,12.8,12.8,0,0,1-3,.75l0-.4v.41l-.15,0-.24,0a12.44,12.44,0,0,1-1.37.08h0A13,13,0,0,1,2.7,104.46Zm22-3.25a2,2,0,0,1,.42.39l.39.47a1.34,1.34,0,0,0,.16.19,1.18,1.18,0,0,0,.07-.53,12,12,0,0,0-.86-4.12c-.1-.23-.23-.37-.34-.37s-.24.09-.4.34a9.73,9.73,0,0,1-2.54,2.61l-.07,0,.22,0,.57,0a3.83,3.83,0,0,1,.51.07l.49.09-.2.47a11.17,11.17,0,0,1-8.55,6.58h-.1l-.2,0h-.1c-.36,0-.72,0-1.08,0A11.1,11.1,0,0,1,9.19,86.15a10.62,10.62,0,0,1,3.86-.71A11.06,11.06,0,0,1,20.17,88a2,2,0,0,0,1.13.54.26.26,0,0,0,.19,0s0-.06,0-.15a1.76,1.76,0,0,0-.69-1.14,12,12,0,0,0-7.79-2.79,10.7,10.7,0,0,0-1.5.1h-.1l-.12,0-.25,0a12.18,12.18,0,0,0-9.32,7.33A12.06,12.06,0,0,0,3.34,104a12.18,12.18,0,0,0,10.91,4.67l.22,0h.11l.07.4,0-.41h.06a11.45,11.45,0,0,0,2.78-.7,3.36,3.36,0,0,0,.38-.19l0,0a12.25,12.25,0,0,0,6.24-6.3l.2-.48Z"/><path class="cls-2" d="M6.67,103.19A1.58,1.58,0,0,1,6.79,101l5.76-5.17,0-6.24a1.54,1.54,0,0,1,3.07,0s-.05,6.68-.05,7.17c0,.26-.24.64-6.7,6.58a1.58,1.58,0,0,1-1.06.41h0A1.58,1.58,0,0,1,6.67,103.19Zm8.18-13.62h0a.74.74,0,0,0-1.45,0l0,6.59-6,5.41a.78.78,0,0,0-.06,1.09.77.77,0,0,0,.58.26h0a.78.78,0,0,0,.51-.19c2.27-2.08,5.89-5.47,6.43-6.09C14.8,95.67,14.85,89.57,14.85,89.57Z"/><path class="cls-2" d="M118.19,0a21.19,21.19,0,1,0,21.19,21.2A21.2,21.2,0,0,0,118.19,0Zm14.43,13.77L119.09,29.12a.91.91,0,0,1-1.27,0l-.8-.7-.81-.73-9.48-8.35a.9.9,0,0,1,0-1.27l1.6-1.81a.91.91,0,0,1,1.26-.18l8.75,7.72,11.21-12.71a.91.91,0,0,1,1.28,0l1.61,1.42A.91.91,0,0,1,132.62,13.77Z"/><path class="cls-3" d="M171.72,68.27A27.1,27.1,0,1,1,209.35,61,27.16,27.16,0,0,1,171.72,68.27Zm26.29-39a19.89,19.89,0,1,0,5.37,27.62A19.91,19.91,0,0,0,198,29.31Z"/><rect class="cls-3" x="198.69" y="14.61" width="9.01" height="14.04" transform="translate(71.61 177.96) rotate(-55.99)"/><rect class="cls-3" x="174.3" y="12.67" width="14.04" height="9" transform="translate(0.05 34.87) rotate(-10.99)"/><rect class="cls-3" x="155.69" y="24.98" width="14.04" height="9" transform="translate(47.27 147.87) rotate(-55.99)"/><rect class="cls-3" x="153.76" y="44.33" width="8.99" height="14.04" transform="matrix(0.98, -0.19, 0.19, 0.98, -6.89, 31.11)"/><polygon class="cls-3" points="167.28 62.3 178.9 70.17 173.87 77.63 162.23 69.78 167.28 62.3"/><polygon class="cls-3" points="184.69 71.34 198.47 68.68 200.18 77.5 186.39 80.18 184.69 71.34"/><rect class="cls-3" x="204.03" y="57.61" width="14.04" height="8.98" transform="translate(41.52 202.32) rotate(-55.99)"/><polygon class="cls-3" points="212.43 47.99 209.75 34.21 218.59 32.49 221.25 46.27 212.43 47.99"/><path class="cls-3" d="M210.78,106.69a15.81,15.81,0,1,1,19.67-10.63A15.82,15.82,0,0,1,210.78,106.69Zm7.84-26.27a11.61,11.61,0,1,0,7.81,14.44A11.62,11.62,0,0,0,218.62,80.42Z"/><polygon class="cls-3" points="223.32 78.93 215.48 76.58 216.97 71.55 224.83 73.88 223.32 78.93"/><rect class="cls-3" x="203.1" y="73.95" width="8.2" height="5.25" transform="translate(-11.48 107.82) rotate(-28.41)"/><polygon class="cls-3" points="202.68 83.52 200.35 91.36 195.32 89.87 197.65 82 202.68 83.52"/><polygon class="cls-3" points="200.69 94.78 204.6 101.99 199.97 104.48 196.09 97.27 200.69 94.78"/><polygon class="cls-3" points="207.28 104.15 215.12 106.49 213.62 111.53 205.76 109.19 207.28 104.15"/><polygon class="cls-3" points="218.54 106.13 225.75 102.23 228.25 106.86 221.04 110.75 218.54 106.13"/><polygon class="cls-3" points="227.91 99.58 230.25 91.71 235.29 93.22 232.97 101.07 227.91 99.58"/><polygon class="cls-3" points="229.9 88.31 226 81.08 230.63 78.58 234.54 85.8 229.9 88.31"/><path class="cls-3" d="M182.39,105.81a12.7,12.7,0,1,1,5.15-17.21A12.73,12.73,0,0,1,182.39,105.81ZM171.93,86.42a9.33,9.33,0,1,0,12.64,3.78A9.37,9.37,0,0,0,171.93,86.42Z"/><polygon class="cls-3" points="173.75 82.91 167.97 86.03 165.97 82.31 171.75 79.19 173.75 82.91"/><polygon class="cls-3" points="166.23 88.17 164.34 94.48 160.3 93.27 162.18 86.95 166.23 88.17"/><polygon class="cls-3" points="164.63 97.22 167.74 103.01 164.05 105.01 160.91 99.23 164.63 97.22"/><polygon class="cls-3" points="169.89 104.76 176.21 106.65 174.99 110.69 168.69 108.81 169.89 104.76"/><polygon class="cls-3" points="178.94 106.36 184.74 103.24 186.75 106.95 180.95 110.07 178.94 106.36"/><polygon class="cls-3" points="186.49 101.08 188.37 94.79 192.42 95.99 190.51 102.31 186.49 101.08"/><polygon class="cls-3" points="188.09 92.03 184.96 86.24 188.68 84.24 191.8 90.03 188.09 92.03"/><polygon class="cls-3" points="182.82 84.49 176.51 82.61 177.72 78.58 184.03 80.46 182.82 84.49"/><path class="cls-4" d="M77.87,42.07A23.27,23.27,0,0,1,74,44.56a11.89,11.89,0,0,1-3,1.15L69,40.6a10.59,10.59,0,0,0,2.37-.75,17.71,17.71,0,0,0,3.1-1.78l-5.93-7c-1,.28-2,.51-3,.72a11.2,11.2,0,0,1-3.1.16,8.15,8.15,0,0,1-3-.87,8.85,8.85,0,0,1-2.83-2.33,8.39,8.39,0,0,1-2.33-6A9.9,9.9,0,0,1,56.76,17L54.1,13.84l3.61-3,2.54,3a18.46,18.46,0,0,1,3-1.84A20.8,20.8,0,0,1,66,10.92l2,4.88a15.45,15.45,0,0,0-2,.7,16.67,16.67,0,0,0-2.41,1.31l5.5,6.53c1-.28,2-.53,3.09-.73a11.36,11.36,0,0,1,3.17-.2,9,9,0,0,1,3,.79,8.08,8.08,0,0,1,2.81,2.24,9.39,9.39,0,0,1,2.58,6.34,10,10,0,0,1-2.48,6L84,42l-3.61,3ZM60.77,24.51a2.9,2.9,0,0,0,2.29,1.06,12.8,12.8,0,0,0,3.12-.42l-4.77-5.66a3.9,3.9,0,0,0-1.56,2.69A3.62,3.62,0,0,0,60.77,24.51ZM77.1,30.72a2.87,2.87,0,0,0-2.4-1,13.73,13.73,0,0,0-3.22.51l5.15,6.11a4.71,4.71,0,0,0,1.46-2.88A3.75,3.75,0,0,0,77.1,30.72Z"/><path class="cls-3" d="M9.93,72.7a18,18,0,0,1-3-1.69A9.59,9.59,0,0,1,5,69.39l2.73-3.15a8.51,8.51,0,0,0,1.35,1.33A13.59,13.59,0,0,0,11.41,69L14,62.53C13.5,62,13,61.37,12.48,60.74a8.2,8.2,0,0,1-1.21-2,6.23,6.23,0,0,1-.49-2.34,6.86,6.86,0,0,1,.57-2.73A6.39,6.39,0,0,1,14.53,50a7.64,7.64,0,0,1,4.74-.37l1.18-2.9L23.78,48l-1.13,2.78A15,15,0,0,1,25,52.2a16.46,16.46,0,0,1,1.68,1.46l-2.58,3.06a11,11,0,0,0-1.17-1.07,11.54,11.54,0,0,0-1.73-1.15l-2.43,6c.54.57,1.07,1.18,1.59,1.82a9.09,9.09,0,0,1,1.25,2,6.68,6.68,0,0,1,.55,2.32,6.18,6.18,0,0,1-.51,2.69,7.12,7.12,0,0,1-3.34,4,7.55,7.55,0,0,1-4.94.48l-1.21,3L8.8,75.48ZM15.65,55a2.24,2.24,0,0,0,.1,1.92,10,10,0,0,0,1.39,1.94l2.11-5.21a3,3,0,0,0-2.36-.1A2.72,2.72,0,0,0,15.65,55Zm1.63,13.18a2.19,2.19,0,0,0-.15-2,10.47,10.47,0,0,0-1.49-2l-2.27,5.63a3.56,3.56,0,0,0,2.45,0A2.9,2.9,0,0,0,17.28,68.15Z"/><polygon class="cls-5" points="135.76 172.69 117.86 172.69 99.95 172.69 82.04 197.31 117.86 197.31 153.67 197.31 135.76 172.69"/><rect class="cls-5" x="82.04" y="197.31" width="71.63" height="6.18"/><path class="cls-5" d="M207.45,162.26c0,6.79-5.84,12.29-13,12.29H42.73c-7.19,0-13-5.5-13-12.29V57.37c0-6.78,5.82-12.29,13-12.29H194.44c7.17,0,13,5.51,13,12.29Z"/><path class="cls-5" d="M207.45,152.08c0,6.84-5.84,8.67-13,8.67H42.73c-7.19,0-13-1.83-13-8.67V46.45c0-6.84,5.82-12.38,13-12.38H194.44c7.17,0,13,5.54,13,12.38Z"/><rect class="cls-6" x="40.85" y="39.98" width="155.46" height="107.22"/><rect class="cls-7" x="40.85" y="39.98" width="155.46" height="47.07"/><rect class="cls-7" x="41.23" y="93.78" width="45.83" height="41.24"/><rect class="cls-7" x="95.98" y="93.78" width="45.83" height="41.24"/><rect class="cls-7" x="150.72" y="93.78" width="45.83" height="41.24"/><path class="cls-8" d="M161.46,131c0,1.47,1.53,2.66,3.42,2.65l22.68-.15c1.87,0,3.4-1.22,3.39-2.68l-.23-35.16c0-1.48-1.55-2.66-3.42-2.65l-22.68.15c-1.89,0-3.4,1.21-3.38,2.69Z"/><polygon class="cls-7" points="164.21 128.22 188.16 128.07 187.95 95.59 163.99 95.75 164.21 128.22"/><rect class="cls-6" x="164.01" y="95.67" width="23.96" height="4.95" transform="translate(-0.63 1.14) rotate(-0.37)"/><rect class="cls-9" x="165.9" y="106.98" width="20.33" height="3.32" transform="translate(-0.7 1.15) rotate(-0.37)"/><polygon class="cls-9" points="165.87 105.39 186.21 105.26 186.19 103.6 165.86 103.73 165.87 105.39"/><rect class="cls-10" x="165.92" y="110.73" width="20.33" height="3.33" transform="translate(-0.73 1.15) rotate(-0.37)"/><polygon class="cls-9" points="165.95 117.85 186.28 117.72 186.27 116.06 165.94 116.19 165.95 117.85"/><rect class="cls-10" x="167.63" y="118.56" width="16.27" height="2.02" transform="translate(-0.75 1.11) rotate(-0.36)"/><rect class="cls-10" x="165.99" y="121.54" width="20.33" height="3.32" transform="translate(-0.8 1.15) rotate(-0.37)"/><path class="cls-6" d="M175,131.66a.9.9,0,0,0,.91.9h.53a.9.9,0,0,0,.89-.91v-.53a.89.89,0,0,0-.91-.89h-.53a.9.9,0,0,0-.89.91Z"/><g class="cls-11"><rect class="cls-7" x="139.33" y="87.1" width="59.44" height="53.48"/><path class="cls-5" d="M153.26,135.43c0,1.9,2,3.44,4.43,3.42l29.41-.18c2.45,0,4.41-1.58,4.39-3.49l-.28-45.58c0-1.93-2-3.46-4.45-3.44l-29.41.19c-2.43,0-4.39,1.57-4.39,3.49Z"/><polygon class="cls-7" points="156.82 131.77 187.88 131.57 187.62 89.46 156.55 89.66 156.82 131.77"/><rect class="cls-6" x="156.57" y="89.56" width="31.07" height="6.42" transform="translate(-0.59 1.1) rotate(-0.37)"/><rect class="cls-5" x="159.01" y="104.22" width="26.36" height="4.3" transform="translate(-0.66 1.08) rotate(-0.36)"/><polygon class="cls-5" points="158.98 102.16 185.34 101.99 185.33 99.84 158.97 100.01 158.98 102.16"/><rect class="cls-5" x="159.04" y="109.08" width="26.37" height="4.31" transform="translate(-0.72 1.12) rotate(-0.37)"/><rect class="cls-5" x="159.08" y="116.08" width="26.37" height="2.16" transform="translate(-0.76 1.12) rotate(-0.37)"/><polygon class="cls-5" points="161.27 121.93 182.37 121.8 182.35 119.17 161.25 119.31 161.27 121.93"/><rect class="cls-5" x="159.13" y="123.1" width="26.36" height="4.3" transform="translate(-0.81 1.12) rotate(-0.37)"/><path class="cls-6" d="M170.87,136.22a1.18,1.18,0,0,0,1.18,1.17h.68a1.18,1.18,0,0,0,1.17-1.18v-.68a1.17,1.17,0,0,0-1.18-1.17H172a1.17,1.17,0,0,0-1.16,1.18Z"/></g><path class="cls-12" d="M50.15,69.23a13.32,13.32,0,0,1-13.6,13,13.06,13.06,0,1,1,0-26.1A13.33,13.33,0,0,1,50.15,69.23Z"/><path class="cls-12" d="M103,69.23A13.28,13.28,0,1,1,89.72,56.4,13.05,13.05,0,0,1,103,69.23Z"/><polygon class="cls-12" points="23.01 56.82 23.01 70.63 54.87 70.63 54.87 53.27 23.01 56.82"/><rect class="cls-8" x="50.15" y="53.27" width="26.38" height="17.37"/><rect class="cls-12" x="76.53" y="53.27" width="26.37" height="17.37"/><polygon class="cls-12" points="214.16 56.82 214.16 70.63 182.3 70.63 182.3 53.27 214.16 56.82"/><rect class="cls-8" x="160.64" y="53.27" width="26.38" height="17.37"/><rect class="cls-12" x="134.26" y="53.27" width="26.38" height="17.37"/><rect class="cls-8" x="102.91" y="53.27" width="31.35" height="17.37"/><path class="cls-8" d="M76.62,69.23A13.28,13.28,0,1,1,63.34,56.4,13,13,0,0,1,76.62,69.23Z"/><path class="cls-12" d="M187,69.23a13.61,13.61,0,1,0,13.6-13.05A13.32,13.32,0,0,0,187,69.23Z"/><path class="cls-12" d="M134.18,69.23A13.28,13.28,0,1,0,147.45,56.4,13,13,0,0,0,134.18,69.23Z"/><path class="cls-8" d="M102.91,67a15.68,15.68,0,1,0,15.68-15.15A15.41,15.41,0,0,0,102.91,67Z"/><path class="cls-8" d="M160.55,69.23A13.28,13.28,0,1,0,173.82,56.4,13,13,0,0,0,160.55,69.23Z"/><polygon class="cls-12" points="214.16 56.82 193.51 34.08 170.96 34.08 187.02 56.82 214.16 56.82"/><polygon class="cls-8" points="187.02 56.82 160.64 56.82 151.09 34.08 170.96 34.08 187.02 56.82"/><polygon class="cls-12" points="134.26 56.82 160.64 56.82 151.09 34.08 128.52 34.08 134.26 56.82"/><polygon class="cls-12" points="23.01 56.82 43.66 34.08 66.21 34.08 50.15 56.82 23.01 56.82"/><polygon class="cls-8" points="50.15 56.82 76.53 56.82 86.09 34.08 66.21 34.08 50.15 56.82"/><polygon class="cls-12" points="102.91 56.82 76.53 56.82 86.09 34.08 109.03 34.08 102.91 56.82"/><polygon class="cls-8" points="102.91 56.82 134.26 56.82 128.52 34.08 109.03 34.08 102.91 56.82"/><rect class="cls-3" x="45.6" y="104.05" width="35.54" height="23.19"/><rect class="cls-5" x="45.6" y="108.17" width="35.54" height="16.09"/><rect class="cls-3" x="48.22" y="101.99" width="5.24" height="4.12"/><path class="cls-13" d="M73.47,116.21a10.1,10.1,0,1,1-10.1-10.1A10.1,10.1,0,0,1,73.47,116.21Z"/><path class="cls-6" d="M71.32,116.21a7.95,7.95,0,1,1-7.95-7.95A8,8,0,0,1,71.32,116.21Z"/><path class="cls-6" d="M66.75,116.21a3.38,3.38,0,1,1-3.38-3.38A3.38,3.38,0,0,1,66.75,116.21Z"/><path class="cls-5" d="M63.37,107.8a8.42,8.42,0,1,0,8.42,8.41A8.41,8.41,0,0,0,63.37,107.8Zm0,16A7.63,7.63,0,1,1,71,116.21,7.62,7.62,0,0,1,63.37,123.84Z"/><path class="cls-14" d="M64.79,110.35c-.09.89-2,1.52-3.62,2.76s-2.92,2.73-3.79,2.52-.84-3.2,1.9-5.17S65,109.46,64.79,110.35Z"/><path class="cls-14" d="M64.79,122.07c0-.53,1-1,1.89-1.88s1.48-1.8,2-1.75.72,1.79-.72,3.14S64.77,122.59,64.79,122.07Z"/><path class="cls-5" d="M128.52,128.72a2.17,2.17,0,0,1-2.17,2.17h-14.5a2.17,2.17,0,0,1-2.18-2.17V100.08a2.17,2.17,0,0,1,2.18-2.18h14.5a2.17,2.17,0,0,1,2.17,2.18Z"/><rect class="cls-6" x="111.44" y="99.98" width="15.32" height="26.46"/><rect class="cls-7" x="111.44" y="99.98" width="15.32" height="5.27"/><rect class="cls-5" x="113.08" y="107.24" width="3.67" height="16.53"/><rect class="cls-5" x="117.86" y="107.24" width="8.08" height="2.8"/><rect class="cls-5" x="117.86" y="111.81" width="8.08" height="2.81"/><rect class="cls-5" x="117.86" y="116.38" width="8.08" height="2.81"/><rect class="cls-5" x="117.86" y="120.95" width="8.08" height="2.82"/><path class="cls-6" d="M120.34,128.8a1,1,0,0,1-1,1h-.56a1,1,0,0,1-1-1v-.55a1,1,0,0,1,1-1h.56a1,1,0,0,1,1,1Z"/><rect class="cls-5" x="29.72" y="152.15" width="179.4" height="12.31"/><path class="cls-3" d="M188.5,90.9a30.84,30.84,0,1,0-1.25,47.35l6.1,5.36a10.38,10.38,0,0,0,3.26,10.08l30.68,26.94A10.42,10.42,0,1,0,241.05,165L210.36,138A10.33,10.33,0,0,0,200,136.1l-6-5.25A30.83,30.83,0,0,0,188.5,90.9Zm-36.7,41.78a24.76,24.76,0,1,1,34.94-2.26A24.76,24.76,0,0,1,151.8,132.68Z"/><path class="cls-3" d="M154.82,102.37a22.89,22.89,0,0,1,30.29-3.67,22.1,22.1,0,0,0-1.82-1.8,22.9,22.9,0,1,0-28.21,36A22.89,22.89,0,0,1,154.82,102.37Z"/><rect class="cls-3" x="195.36" y="144.83" width="20.87" height="6.1" transform="translate(-41.27 204.28) rotate(-48.56)"/><rect class="cls-3" x="221.48" y="167.84" width="20.86" height="5.96" transform="translate(-49.61 231.71) rotate(-48.58)"/><rect class="cls-3" x="208.41" y="145.01" width="20.95" height="28.73" transform="translate(-45.45 217.99) rotate(-48.56)"/><path class="cls-3" d="M35.05,113.07H34.9a25.55,25.55,0,0,0,.15,51.09h.15a25.56,25.56,0,0,0,25.4-25.7A25.6,25.6,0,0,0,35.05,113.07Z"/><path class="cls-5" d="M35.05,113.07H34.9a25.55,25.55,0,0,0,.15,51.09h.15a25.56,25.56,0,0,0,25.4-25.7A25.6,25.6,0,0,0,35.05,113.07Zm.15,50.1a24.56,24.56,0,1,1,24.4-24.7A24.56,24.56,0,0,1,35.2,163.17Z"/><path class="cls-5" d="M34.9,113.44a25.18,25.18,0,1,0,25.33,25A25.18,25.18,0,0,0,34.9,113.44ZM52.24,155.6a24,24,0,0,1-17.05,7.17h-.14a24.15,24.15,0,0,1-17.18-41.14,24,24,0,0,1,17-7.17h.14A24.16,24.16,0,0,1,52.24,155.6Z"/><rect class="cls-5" x="9.88" y="137.93" width="50.35" height="1.36" transform="translate(-0.9 0.23) rotate(-0.37)"/><path class="cls-5" d="M34.61,129.35c-14.77,0-19.21-5-19.39-5.2l1-.89S20.56,128,34.62,128H35c14.35-.08,18.64-4.9,18.68-4.95l1,.88c-.19.21-4.64,5.34-19.72,5.43Z"/><path class="cls-5" d="M16.43,154.19l-1-.87c.18-.23,4.63-5.35,19.72-5.44h.39c14.77,0,19.21,5,19.39,5.2l-1,.89c0-.05-4.4-4.83-18.75-4.73S16.47,154.14,16.43,154.19Z"/><path class="cls-5" d="M35.05,114.46h-.14l-.68,0,.29,48.28h.67l.69,0-.29-48.28Z"/><path class="cls-5" d="M32.54,114.7l-.1-.1c-.63.06-1.26.16-1.89.28-2.21,2.71-7.06,10.21-7,23.8.07,12.46,4.23,20.17,6.64,23.6.64.13,1.29.23,1.94.31-1.92-2.43-7.14-10.27-7.22-23.92C24.83,122.1,32.47,114.77,32.54,114.7Z"/><path class="cls-5" d="M39.28,114.84c-.63-.12-1.27-.21-1.91-.27l-.09.1c.08.07,7.8,7.31,7.9,23.88.08,13.62-5.06,21.56-7,24,.65-.08,1.3-.19,1.94-.33,2.37-3.46,6.44-11.22,6.37-23.68C46.46,125,41.53,117.53,39.28,114.84Z"/><path class="cls-5" d="M54.06,138.05c.07,11.66-4.21,18.57-6,20.91a25,25,0,0,0,3.15-2.41A38.28,38.28,0,0,0,55.42,138c-.05-7.9-2-13.45-3.83-17a23.48,23.48,0,0,0-3.27-2.6C50.29,121,54,127.28,54.06,138.05Z"/><path class="cls-5" d="M21.61,118.53a24.29,24.29,0,0,0-3.27,2.65,36.42,36.42,0,0,0-3.66,17.1A38.24,38.24,0,0,0,19,156.67a24,24,0,0,0,3.18,2.39c-1.81-2.37-6.11-9.21-6.18-20.79C16,127.42,19.69,121.09,21.61,118.53Z"/></g></g></svg>